<?xml version="1.0" encoding="UTF-8" standalone="no"?>
<svg
   xmlns:dc="http://purl.org/dc/elements/1.1/"
   xmlns:cc="http://creativecommons.org/ns#"
   xmlns:rdf="http://www.w3.org/1999/02/22-rdf-syntax-ns#"
   xmlns:svg="http://www.w3.org/2000/svg"
   xmlns="http://www.w3.org/2000/svg"
   viewBox="0 0 197.57718 251.99999"
   height="252"
   width="197.57718"
   xml:space="preserve"
   id="svg2"
   version="1.1"><metadata
     id="metadata8"><rdf:RDF><cc:Work
         rdf:about=""><dc:format>image/svg+xml</dc:format><dc:type
           rdf:resource="http://purl.org/dc/dcmitype/StillImage" /><dc:title></dc:title></cc:Work></rdf:RDF></metadata><defs
     id="defs6" /><g
     transform="matrix(1.3333333,0,0,-1.3333333,-76.552078,415.11587)"
     id="g10"><g
       transform="matrix(0.30943748,0,0,0.30943748,40.16592,84.999206)"
       id="g72"><path
         d="m 58.16406,678.79907 c 0,27.62403 22.60254,50.22608 50.22657,50.22608 H 532.19482 V 173.31348 c 0,-27.62403 -22.60302,-50.22657 -50.22705,-50.22657 H 58.16406 Z"
         style="fill:#e8d329;fill-opacity:1;fill-rule:nonzero;stroke:none"
         id="path12" /><path
         d="m 517.75732,714.58765 c 0,-27.39405 0,-541.27417 0,-541.27417 0,-19.73389 -16.05566,-35.78907 -35.78955,-35.78907 0,0 -382.42529,0 -409.36645,0 z"
         style="fill:#231f20;fill-opacity:1;fill-rule:nonzero;stroke:none"
         id="path14" /><path
         d="m 72.60132,137.52441 c 0,27.39405 0,541.27466 0,541.27466 0,19.73364 16.05542,35.78858 35.78931,35.78858 0,0 382.42529,0 409.36669,0 z"
         style="fill:#e42521;fill-opacity:1;fill-rule:nonzero;stroke:none"
         id="path16" /><path
         d="m 274.1792,481.61914 c 0,0 -12.89111,0.60059 -26.57813,-11.32031 -15.25781,-13.28906 -26.25,-33.46875 -26.25,-33.46875 0,0 -27.23437,26.08594 -44.29687,29.20312 0,0 -1.80469,-9.35156 -1.47656,-20.67187 0,0 -5.25,-0.82031 -14.60157,0.32812 0,0 1.14844,12.63282 -4.42968,18.53907 0,0 -10.33594,-2.78907 -12.63282,-16.40625 0,0 -8.03906,4.42968 -13.78125,14.76562 0,0 10.17188,3.77344 14.92969,15.09375 0,0 -8.20312,2.78906 -22.14844,2.95313 0,0 -0.32812,9.84375 5.74219,18.375 0,0 4.42969,-4.42969 9.1875,-6.39844 4.75781,-1.96875 10.00781,0 10.00781,0 0,0 -2.29687,12.79687 -7.875,19.85156 0,0 6.5625,5.57813 17.22657,8.03906 0,0 -0.16407,-16.07812 5.41406,-25.42968 5.57812,-9.35157 16.89844,-19.03125 31.99219,-24.9375 15.09375,-5.90625 20.83593,-8.85938 31.17187,-2.46094 9.51904,5.89209 18.04688,14.27344 30.51563,17.0625 12.11425,2.70947 17.88281,-3.11719 17.88281,-3.11719 z"
         style="fill:#e8d329;fill-opacity:1;fill-rule:nonzero;stroke:none"
         id="path18" /><path
         d="m 242.18701,514.75977 c 0,0 -12.30469,0.98437 -20.83594,8.36718 -8.53125,7.38282 -11.97656,14.10938 -20.50781,16.89844 -8.53125,2.78906 -14.4375,-0.98437 -24.44531,10.17188 -12.73828,14.20019 -17.55469,32.97656 -17.55469,32.97656 0,0 -1.64062,-13.125 1.64063,-30.84375 3.28125,-17.71875 14.10937,-37.89844 38.0625,-37.24219 0,0 -5.41407,-8.03906 -16.24219,-9.67969 0,0 4.10156,-5.41406 17.0625,-5.41406 12.96094,0 17.39062,6.89063 17.39062,6.89063 0,0 2.13282,-5.41407 2.13282,-11.8125 0,0 10.00781,1.47656 23.29687,19.6875 z"
         style="fill:#e8d329;fill-opacity:1;fill-rule:nonzero;stroke:none"
         id="path20" /><path
         d="m 243.88184,328.05664 c -7.32422,6.99121 -14.92432,7.99902 -17.60303,8.09522 0,0 -6.73242,-4.32178 -11.49024,-13.18116 0,0 13.94532,-2.78906 18.53907,-11.97656 0,0 -4.92188,-5.74219 -14.76563,-8.69531 0,0 1.80469,-7.875 6.5625,-12.63281 0,0 5.90625,8.20312 13.125,8.53125 0,0 4.10156,-5.90625 -1.14844,-17.22657 0,0 5.90625,-4.10156 11.8125,-4.42968 0,0 1.3125,14.60156 9.51563,21 0,0 8.53125,-4.92188 14.27344,-18.375 0,0 4.59375,2.625 9.35156,8.03906 0,0 -4.26563,6.72656 -6.39844,13.125 0,0 3.44531,5.25 7.71094,7.21875 4.26562,1.96875 12.14062,1.80469 18.375,-4.26563 6.23437,-6.07031 12.79687,-14.4375 21.49219,-14.10937 0,0 -6.23438,13.78125 -4.75782,22.3125 0,0 4.60254,-8.98682 12.96094,-10.99219 8.20313,-1.96875 9.84375,4.42969 9.84375,4.42969 -11.32031,5.74219 -11.8125,14.60156 -11.8125,14.60156 0,0 10.5,-4.10156 19.35938,-2.13281 10.49316,2.33203 9.35156,10.17187 9.35156,10.17187 0,0 -18.86719,-0.49218 -27.23438,5.90625 -6.1914,4.73438 -7.21875,9.67969 -7.21875,9.67969 0,0 14.21924,3.9375 13.34327,20.34375 -0.44092,8.26904 -7.43702,20.12451 -24.06153,21.87451 -16.62549,1.75 -29.43652,-10.82226 -39.375,-19.84082 -8.75097,-7.93994 -20.78174,-9.47168 -20.78174,-9.47168 0,0 0.4292,-8.2959 9.51563,-14.77099 8.20312,-5.84571 13.125,-4.69727 14.76562,-8.96289 1.17334,-3.05127 -2.78906,-10.17188 -7.71093,-13.94532 -4.92188,-3.77343 -10.66993,-5.59765 -14.92969,-3.60937 -4.92188,2.29687 -4.59375,7.54687 -10.60986,13.28906 z"
         style="fill:#e8d329;fill-opacity:1;fill-rule:nonzero;stroke:none"
         id="path22" /><path
         d="m 264.22559,541.33789 c -1.71875,-0.32764 -5.90625,1.74951 -6.12452,4.15576 -0.21826,2.40625 5.03174,6.5625 11.59424,6.125 6.5625,-0.43652 9.62403,-2.625 9.62403,-2.625 -7.65528,-2.84375 -10.5,-6.78125 -15.09375,-7.65576 M 390.82764,411.89258 c 4.75781,0.32812 14.63379,0.60303 21.98437,9.1875 7.8208,9.13232 10.82813,23.625 8.20313,36.42187 -2.625,12.79688 -14.56006,24.41309 -20.01563,30.84375 -4.59375,5.41407 -4.64795,13.1792 0.32813,16.73438 4.92334,3.51709 15.25781,3.9375 31.33593,3.44531 14.78174,-0.45264 23.46094,3.60938 30.84375,15.42188 7.38282,11.8125 4.55567,27.93164 2.29688,35.27343 -1.96875,6.39844 -2.13281,16.57032 -2.13281,16.57032 0,0 -6.5625,-6.23438 -7.05469,-15.75 -0.49219,-9.51563 1.64062,-21.49219 -3.9375,-28.05469 0,0 3.11719,10.82812 -0.32813,18.70312 -2.67773,6.12012 -2.46093,12.30469 -2.46093,12.30469 0,0 -2.95313,-2.13281 -3.9375,-8.85937 -0.98438,-6.72657 2.625,-21.65625 -2.95313,-27.89063 0,0 2.13281,11.97656 -2.78906,19.85156 0,0 -2.29688,-2.13281 -2.46094,-7.54687 -0.16406,-5.41406 -0.98437,-14.76563 -8.20312,-18.70313 -7.21875,-3.9375 -11.83057,-2.06787 -19.6875,-2.625 -8.47705,-0.60205 -17.71875,-3.44531 -21.32813,-13.78125 -3.60937,-10.33593 1.64063,-18.375 9.51563,-26.57812 7.875,-8.20313 14.4375,-16.07813 14.27343,-29.36719 -0.16406,-13.28906 -5.90625,-20.34375 -11.15625,-23.46094 -4.30664,-2.55761 -11.04687,-1.75 -29.31298,-1.6958 -20.12452,0.0605 -32.15625,-0.21875 -41.12403,-1.96875 -8.96875,-1.74902 -12.46875,-1.09326 -19.25097,2.18799 -6.78125,3.28125 -11.8125,6.10352 -11.8125,6.10352 9.84375,7.21875 10.01464,17.27978 15.53173,24.52099 7.00049,9.1875 12.57813,13.40918 12.57813,13.40918 5.35889,-4.87793 14.10986,-9.25244 14.10986,-9.25244 2.00537,3.52051 3.77832,7.20654 5.34473,10.9917 0,0 -3.07275,1.39307 -8.24365,4.26611 -4.42969,2.46094 -6.72657,4.26563 -6.72657,4.26563 0.88526,1.80566 1.91211,4.7456 2.64991,6.71484 0,0 2.60009,-1.30078 7.19384,-3.43359 4.59375,-2.13281 8.38916,-2.92383 8.38916,-2.92383 1.22461,3.77783 2.27344,7.60107 3.17139,11.40967 0,0 -3.52148,0.86572 -8.11523,2.67041 -4.59375,1.80469 -7.16016,3.36865 -7.16016,3.36865 0.47705,2.05859 0.8999,4.78906 1.27588,6.85889 0,0 3.09521,-1.04004 7.85303,-2.02442 4.75781,-0.98437 8.12695,-1.20898 8.12695,-1.20898 0.70752,4.02197 1.26416,7.96924 1.69971,11.76611 0,0 -4.57666,0.76319 -9.49854,1.91162 -4.92187,1.14844 -6.42431,1.99268 -6.42431,1.99268 0.22363,2.125 0.40527,4.18457 0.55126,6.14697 0,0 2.5918,-0.59277 8.99024,-1.08496 3.9292,-0.30273 7.18945,-0.4458 7.18945,-0.4458 0.29785,3.94287 0.47266,7.62598 0.5669,10.94531 0,0 -3.49073,0.0283 -9.56104,0.84864 -4.57324,0.61816 -6.61719,1.59814 -6.61719,1.59814 0.0669,3.81836 4.9e-4,6.12549 4.9e-4,6.12549 0,0 2.89746,-0.47803 7.9292,-0.91602 5.03174,-0.43701 8.33936,-0.21826 8.33936,-0.21826 -0.0259,6.12988 -0.3003,9.84326 -0.3003,9.84326 -21,5.46826 -48.5625,6.5625 -48.5625,6.5625 2.29688,7.16455 -0.98437,12.57862 -0.98437,12.57862 -3.9375,-4.15723 -10.82813,-9.07862 -10.82813,-9.07862 0,0 -15.17334,2.04053 -32.15625,-0.875 -21.65625,-3.71875 -39.375,-12.03076 -39.375,-12.03076 4.92188,-14.10937 5.57813,-19.6875 5.57813,-19.6875 0,0 13.23486,1.09326 25.48389,0.87451 19.25244,-0.34521 22.09423,-13.34326 22.09423,-13.34326 0,0 -10.33593,0.82031 -19.35937,-0.65625 -9.02344,-1.47656 -13.94531,-4.10156 -13.94531,-4.10156 0,0 0.65625,-1.80469 2.46093,-5.57813 0,0 13.44239,2.22217 20.01563,1.3125 10.66406,-1.47656 12.79687,-5.57812 24.77344,-6.07031 12.49707,-0.51318 21.32812,2.46094 21.32812,2.46094 0,0 -1.96875,-8.03906 -9.1875,-14.27344 -7.21875,-6.23437 -18.04687,-7.21875 -27.89062,-7.38281 -9.84375,-0.16406 -19.35645,-2.74805 -33.30469,-18.53906 -17.39063,-19.6875 -18.86719,-35.60157 -34.61719,-45.44532 -12.46338,-7.79004 -24.7666,-12.29199 -34.125,-7.54687 -11.64844,5.90625 -18.375,6.5625 -18.375,6.5625 0,0 -2.78906,-5.08594 -1.96875,-14.76563 0,0 8.20313,-0.16406 15.09375,-2.29687 0,0 -2.78906,-5.25 -7.875,-11.64844 -5.08594,-6.39844 -7.38281,-8.36719 -7.38281,-8.36719 0,0 0,-10.99218 13.125,-14.60156 0,0 1.64062,13.61719 11.97656,23.29688 0,0 0,-13.45313 1.3125,-19.6875 0,0 7.05469,-2.13282 15.42188,-0.16407 0,0 -3.77344,6.89063 -3.9375,13.78125 -0.16748,7.06006 3.9375,10.17188 3.9375,10.17188 0,0 5.57812,-2.625 16.07812,-9.51563 0,0 4.92188,2.78907 9.84375,8.53125 0,0 -6.07031,5.90625 -11.64844,11.8125 0,0 16.89844,3.11719 35.4375,20.17969 0,0 10.17188,-6.5625 17.39063,-18.21094 7.21875,-11.64843 7.05469,-27.39843 7.05469,-27.39843 0,0 9.99316,10.39062 26.3042,16.3623 13.56298,4.96582 29.75097,2.12158 38.71875,-9.90967 10.19824,-13.68115 7.00048,-25.81201 23.18847,-35.58886 16.56739,-10.00586 45.28125,-7.06739 51.84375,15.6831 0,0 3.21533,-7.21924 3.21533,-18.81299 0,-11.59375 -1.90283,-21.21875 -25.96582,-17.71875 0,0 -1.3125,-8.25732 3.28125,-16.13232 0,0 7.38282,-0.49219 11.97657,-2.625 0,0 -0.49219,-8.69531 -5.74219,-15.75 0,0 6.89062,-2.625 14.10937,-2.46094 0,0 -0.49218,10.5 6.72657,17.39063 0,0 5.90625,-3.11719 10.33593,-11.48438 0,0 4.26563,2.13281 6.89063,8.36719 0,0 -6.23438,6.07031 -6.07031,12.79687 0.16406,6.72657 4.59375,8.69532 9.1875,7.38282 4.59375,-1.3125 10.00781,-3.60938 10.00781,-3.60938 0,0 1.96875,7.71094 1.80469,15.09375 0,0 -8.85938,0.65625 -12.63282,4.92188 0,0 11.97657,14.10937 15.75,43.14843 0,0 -2.78906,0 -6.72656,0.49219 0,0 11.32031,5.25 7.875,24.77344 0,0 -4.42969,-2.13281 -8.36719,-2.95313 0,0 0.49219,2.625 2.46094,6.07032 1.96875,3.44531 4.42969,11.97656 -3.60937,21 0,0 -2.46094,-4.26563 -8.03907,-9.35157 -5.57812,-5.08593 -10.5,-10.66406 -7.71093,-23.46093 0,0 -4.92188,5.25 -13.28907,5.41406 0,0 1.64063,-9.67969 -4.42968,-13.45313 0,0 -0.82032,5.57813 -3.77344,7.21875 -2.95313,1.64063 -5.74219,-0.49218 -10.5,0.82032 -4.75781,1.3125 -9.84375,5.57812 -15.25781,14.4375 0,0 3.11718,-0.16407 7.875,0.16406 z"
         style="fill:#e8d329;fill-opacity:1;fill-rule:nonzero;stroke:none"
         id="path24" /><path
         d="m 89.81689,615.05811 v 54.38671 h 30.35157 v -7.54687 H 98.67627 v -13.53516 h 21.49219 v -7.79297 H 98.67627 v -25.51171 z"
         style="fill:#e8d329;fill-opacity:1;fill-rule:nonzero;stroke:none"
         id="path26" /><path
         d="m 126.95898,615.05811 v 54.38671 h 8.85938 v -46.42968 h 19.76953 v -7.95703 z"
         style="fill:#e8d329;fill-opacity:1;fill-rule:nonzero;stroke:none"
         id="path28" /><path
         d="m 166.12939,615.05811 v 24.89013 l -18.29296,29.49658 h 9.27832 l 11.39502,-18.46362 c 0.27148,-0.47168 0.6123,-1.09057 1.02246,-1.8584 0.40869,-0.76758 0.82422,-1.59717 1.24609,-2.48779 0.34619,0.86645 0.7124,1.68286 1.09717,2.45068 0.38428,0.76758 0.78711,1.47412 1.20849,2.11866 l 11.6919,18.24047 h 8.83398 l -18.70312,-29.49658 v -24.89013 z"
         style="fill:#e8d329;fill-opacity:1;fill-rule:nonzero;stroke:none"
         id="path30" /><path
         d="m 196.70752,615.05811 v 54.38671 h 30.35156 v -7.54687 h -21.49219 v -13.61719 h 21.49219 v -7.79297 h -21.49219 v -17.47265 h 21.49219 v -7.95703 z"
         style="fill:#e8d329;fill-opacity:1;fill-rule:nonzero;stroke:none"
         id="path32" /><path
         d="m 411.23486,646.22998 h 1.56104 c 4.6875,0 7.80078,0.54614 9.33887,1.64063 1.53808,1.09472 2.30712,3.03369 2.30712,5.82031 0,3.00952 -0.82519,5.12939 -2.47509,6.35986 -1.64942,1.23047 -4.70655,1.84717 -9.1709,1.84717 h -1.56104 v -15.66797 m 18.53907,-31.17187 -18.12891,24.28125 h -0.98438 v -24.28125 h -8.28515 v 54.38671 h 12.3125 c 3.62744,0 6.44189,-0.23584 8.4414,-0.70752 1.99952,-0.47167 3.70801,-1.25244 5.12549,-2.34448 1.68946,-1.31494 2.99317,-3.01318 3.91358,-5.09717 0.91845,-2.08422 1.3789,-4.36718 1.3789,-6.84716 0,-4.36695 -1.05859,-7.78418 -3.1748,-10.25269 -2.11768,-2.46875 -5.24268,-3.95019 -9.37598,-4.44629 l 16.58008,-21.8999 12.21973,53.89209 16.04736,-34.32227 c 0.24756,-0.54589 2.25391,-5.53613 2.97266,-7.39209 0.52002,1.56006 2.97265,7.08204 3.12109,7.4292 l 15.67529,34.28516 13.15039,-56.68359 h -8.20898 l -6.01807,26.85595 c -0.0996,0.42041 -0.26025,1.58448 -0.48291,3.4917 -0.19922,1.58423 -0.37207,2.89673 -0.52051,3.9375 -0.22314,-1.23828 -0.54003,-2.47632 -0.94677,-3.7146 -0.40918,-1.23803 -0.92285,-2.50171 -1.54248,-3.78882 l -14.22705,-28.99658 -14.22754,29.59131 c -0.59473,1.2124 -1.1084,2.38916 -1.54199,3.52881 -0.43262,1.13818 -0.81104,2.26465 -1.13331,3.37988 -0.0254,-1.1394 -0.11767,-2.33398 -0.2788,-3.58496 -0.16211,-1.25098 -0.40284,-2.55713 -0.72461,-3.91846 l -5.83155,-26.78173 z"
         style="fill:#e8d329;fill-opacity:1;fill-rule:nonzero;stroke:none"
         id="path34" /><path
         d="m 129.77588,180.49805 h 11.02197 c 0,0 6.35791,14.13623 6.64063,14.76562 0.6875,0 21.23632,0 21.93066,0 0.27979,-0.63769 6.48389,-14.76562 6.48389,-14.76562 h 11.04492 l -28.52979,61.35351 -28.59228,-61.35351 m 27.1084,35.854 1.0957,3.04541 c 0,0 0.23731,0.8335 0.48145,1.68994 0.27441,-0.90722 0.54834,-1.81347 0.54834,-1.81347 l 1.0664,-2.90284 c 0,0 4.89014,-10.89013 5.51367,-12.27978 -1.45507,0 -12.75732,0 -14.21191,0 0.62353,1.38965 5.50635,12.26074 5.50635,12.26074 z"
         style="fill:#e8d329;fill-opacity:1;fill-rule:nonzero;stroke:none"
         id="path36" /><path
         d="m 195.78076,238.87256 v -58.37451 h 15.57959 c 6.7666,0 11.83154,0.42041 15.05322,1.25 3.25147,0.83593 6.19336,2.25683 8.74268,4.22461 3.37012,2.60254 5.95996,5.9458 7.6958,9.93798 1.73096,3.97559 2.60791,8.59717 2.60791,13.73487 0,5.13769 -0.87695,9.77832 -2.60644,13.79297 -1.73633,4.03173 -4.32715,7.38281 -7.7002,9.96142 -2.55029,1.96582 -5.55859,3.3877 -8.94238,4.22364 -3.35547,0.8291 -9.19483,1.24902 -17.35596,1.24902 h -13.07422 m 13.19238,-9.48389 h 3.36475 c 4.72998,0 8.24414,-0.28369 10.44434,-0.84375 2.16357,-0.55078 4.04394,-1.48633 5.58838,-2.78076 2.0791,-1.77978 3.66503,-4.02783 4.70849,-6.68066 1.05127,-2.67579 1.58447,-5.83741 1.58447,-9.39795 0,-3.5625 -0.5332,-6.72412 -1.58447,-9.39844 -1.04297,-2.65186 -2.62842,-4.90039 -4.71289,-6.68408 -1.52051,-1.29492 -3.33594,-2.23047 -5.39551,-2.78028 -2.09179,-0.5581 -5.30078,-0.84082 -9.53808,-0.84082 0,0 -6.30323,0 -7.26563,0 0,1.07032 0,38.33643 0,39.40674 0.77686,0 2.80615,0 2.80615,0 z"
         style="fill:#e8d329;fill-opacity:1;fill-rule:nonzero;stroke:none"
         id="path38" /><path
         d="m 307.82373,240.9248 -16.5083,-36.083 c 0,0 -2.24561,-5.06153 -2.78223,-6.48438 -0.55957,1.42334 -2.60888,6.45557 -2.60888,6.45557 l -17.58692,37.59082 -14.04394,-61.90576 h 9.71191 l 6.23584,28.61621 c -0.002,-0.008 0.76953,4.16992 0.76953,4.16992 0,0 0.0493,0.6377 0.0825,1.06738 0.13037,-0.38867 0.3291,-0.97998 0.3291,-0.97998 l 1.64258,-3.7583 15.47315,-32.12939 15.48486,31.50293 c 0.65967,1.3706 1.21484,2.73388 1.65185,4.05615 0.125,0.37842 0.18213,0.76465 0.292,1.14648 0.0718,-0.54345 0.16845,-1.27392 0.16845,-1.27392 l 0.52002,-3.73291 6.43018,-28.68457 h 9.79199 l -14.37256,61.91601 -0.68115,-1.48926 z"
         style="fill:#e8d329;fill-opacity:1;fill-rule:nonzero;stroke:none"
         id="path40" /><path
         d="m 334.05469,238.87256 v -58.37451 h 10.38623 v 58.37451 z"
         style="fill:#e8d329;fill-opacity:1;fill-rule:nonzero;stroke:none"
         id="path42" /><path
         d="m 388.44287,180.49805 h 11.90283 c 0,0 -18.80468,24.85595 -19.82519,26.20508 3.98242,0.64599 7.11572,2.19384 9.24414,4.69091 2.29199,2.68994 3.45459,6.43897 3.45459,11.14551 0,2.67529 -0.50244,5.17383 -1.49268,7.42774 -0.99707,2.26611 -2.43359,4.14306 -4.26953,5.57714 -1.5415,1.19336 -3.41992,2.05713 -5.58447,2.56934 -2.13379,0.50342 -5.15381,0.75879 -8.97705,0.75879 h -12.96485 -0.55859 v -58.37451 h 9.81201 c 0,0 0,24.52636 0,25.59375 l 19.25879,-25.59375 m -17.53906,49.30078 c 4.54639,0 7.67871,-0.61621 9.30762,-1.83203 1.57568,-1.1792 2.37548,-3.28028 2.37548,-6.2461 0,-2.72754 -0.73681,-4.63574 -2.18994,-5.67138 -1.51367,-1.07666 -4.70752,-1.62207 -9.49316,-1.62207 0,0 -0.64111,0 -1.14551,0 0,1.00537 0,14.36621 0,15.37158 0.5044,0 1.14551,0 1.14551,0 z"
         style="fill:#e8d329;fill-opacity:1;fill-rule:nonzero;stroke:none"
         id="path44" /><path
         d="m 403.21729,180.49805 h 11.02197 c 0,0 6.35791,14.13623 6.64062,14.76562 0.6875,0 21.23633,0 21.93067,0 0.27978,-0.63769 6.48437,-14.76562 6.48437,-14.76562 h 11.04444 l -28.52979,61.35351 -28.59228,-61.35351 m 27.10839,35.854 1.09571,3.04541 c 0,0 0.2373,0.8335 0.48144,1.68994 0.27442,-0.90722 0.54834,-1.81347 0.54834,-1.81347 l 1.06641,-2.90284 c 0,0 4.89013,-10.89013 5.51367,-12.27978 -1.45459,0 -12.75732,0 -14.21191,0 0.62353,1.38965 5.50634,12.26074 5.50634,12.26074 z"
         style="fill:#e8d329;fill-opacity:1;fill-rule:nonzero;stroke:none"
         id="path46" /><path
         d="m 366.2832,636.46826 h 15.16553 l -5.57471,12.41236 c -0.32324,0.79223 -0.6582,1.70336 -1.0039,2.7312 -0.34766,1.02807 -0.69483,2.17285 -1.04102,3.43652 -0.29736,-1.18945 -0.61426,-2.29688 -0.94824,-3.32471 -0.33447,-1.02807 -0.67578,-1.97656 -1.02148,-2.84301 l -5.57618,-12.41236 m -44.47265,-21.41015 v 54.38671 h 8.85937 v -46.42968 h 19.76953 v -1.3335 l 23.31543,49.97803 26.31494,-56.60156 h -9.32959 l -6.16894,14.02734 h -21.55908 l -6.31739,-14.02734 z"
         style="fill:#e8d329;fill-opacity:1;fill-rule:nonzero;stroke:none"
         id="path48" /><path
         d="m 243.26563,646.22998 h 1.56103 c 4.6875,0 7.80078,0.54614 9.33887,1.64063 1.53808,1.09472 2.30713,3.03369 2.30713,5.82031 0,3.00952 -0.8252,5.12939 -2.4751,6.35986 -1.64942,1.23047 -4.70654,1.84717 -9.1709,1.84717 h -1.56103 v -15.66797 m 42.45263,-9.76172 h 15.16553 l -5.57471,12.41236 c -0.32324,0.79223 -0.6582,1.70336 -1.0039,2.7312 -0.34766,1.02807 -0.69483,2.17285 -1.04102,3.43652 -0.29736,-1.18945 -0.61426,-2.29688 -0.94824,-3.32471 -0.33447,-1.02807 -0.67578,-1.97656 -1.02149,-2.84301 l -5.57617,-12.41236 m -23.91357,-21.41015 -18.12891,24.28125 h -0.98437 v -24.28125 h -8.28516 v 54.38671 h 12.3125 c 3.62744,0 6.44189,-0.23584 8.44141,-0.70752 1.99951,-0.47167 3.708,-1.25244 5.12548,-2.34448 1.68946,-1.31494 2.99317,-3.01318 3.91358,-5.09717 0.91846,-2.08422 1.37891,-4.36718 1.37891,-6.84716 0,-4.36695 -1.0586,-7.78418 -3.17481,-10.25269 -2.11768,-2.46875 -5.24268,-3.95019 -9.37598,-4.44629 l 15.70508,-20.64258 24.45752,52.55274 26.31494,-56.60156 h -9.32959 l -6.16894,14.02734 h -21.55908 l -6.31739,-14.02734 z"
         style="fill:#e8d329;fill-opacity:1;fill-rule:nonzero;stroke:none"
         id="path50" /></g></g></svg>