<?xml version="1.0" encoding="UTF-8" standalone="no"?>
<svg
   xmlns:dc="http://purl.org/dc/elements/1.1/"
   xmlns:cc="http://creativecommons.org/ns#"
   xmlns:rdf="http://www.w3.org/1999/02/22-rdf-syntax-ns#"
   xmlns:svg="http://www.w3.org/2000/svg"
   xmlns="http://www.w3.org/2000/svg"
   xmlns:sodipodi="http://sodipodi.sourceforge.net/DTD/sodipodi-0.dtd"
   xmlns:inkscape="http://www.inkscape.org/namespaces/inkscape"
   version="1.1"
   width="181.55141"
   height="252"
   id="svg49"
   viewBox="0 0 181.55141 252"
   sodipodi:docname="aek-larnaka.svg"
   inkscape:version="0.92.4 (5da689c313, 2019-01-14)">
  <metadata
     id="metadata55">
    <rdf:RDF>
      <cc:Work
         rdf:about="">
        <dc:format>image/svg+xml</dc:format>
        <dc:type
           rdf:resource="http://purl.org/dc/dcmitype/StillImage" />
        <dc:title></dc:title>
      </cc:Work>
    </rdf:RDF>
  </metadata>
  <defs
     id="defs53" />
  <sodipodi:namedview
     pagecolor="#ffffff"
     bordercolor="#666666"
     borderopacity="1"
     objecttolerance="10"
     gridtolerance="10"
     guidetolerance="10"
     inkscape:pageopacity="0"
     inkscape:pageshadow="2"
     inkscape:window-width="1366"
     inkscape:window-height="705"
     id="namedview51"
     showgrid="false"
     fit-margin-top="1"
     fit-margin-bottom="1"
     fit-margin-right="1"
     fit-margin-left="1"
     inkscape:zoom="1.5857392"
     inkscape:cx="85.577921"
     inkscape:cy="235.13739"
     inkscape:window-x="-8"
     inkscape:window-y="-8"
     inkscape:window-maximized="1"
     inkscape:current-layer="svg49" />
  <g
     id="Layer1000"
     transform="matrix(0.44097079,0,0,0.44097079,-40.473876,-59.623972)">
    <path
       d="m 94.0513,161.4482 c 68.3252,-16.0928 135.498,-23.8302 201.622,-23.9679 69.6388,-0.1449 138.1155,8.1383 205.551,23.9679 V 526.8488 L 297.8608,704.4094 94.0513,525.445 Z"
       style="fill:#008741;fill-rule:evenodd"
       id="path2"
       inkscape:connector-curvature="0" />
    <path
       d="M 242.0946,639.3548 297.1403,686.7581 486.255,520.0465 V 173.3885 C 428.6762,157.8256 322.9277,149.7784 241.8995,154.2769 Z"
       style="fill:#fde100;fill-rule:evenodd"
       id="path4"
       inkscape:connector-curvature="0" />
    <g
       id="Layer1001">
      <path
         d="m 255.1197,353.0815 19.1348,-17.5341 c 8.6575,-17.2758 19.2398,-28.0782 30.4556,-36.7412 8.8997,-6.8744 17.4015,-12.31 26.2986,-16.084 15.4675,-6.5606 33.7593,-7.9907 50.1577,-4.3903 10.8432,2.3809 21.59,7.4078 31.5186,16.8038 5.2365,4.9559 17.5391,16.8156 17.9689,33.3095 0.2762,10.6028 -4.4992,23.4632 -12.7132,34.788 -8.2139,11.3247 -21.5181,23.0425 -34.993,27.7805 l -3.3831,42.469 -46.5486,-49.8279 11.0434,-19.031 -51.9795,-9.0894 -22.1645,15.7518 3.383,-16.5781 z m 99.7076,-43.8202 c -1.2621,3.41 -3.7797,5.0446 -7.7675,6.7873 -4.6413,2.0279 -9.8646,0.5928 -13.3731,-1.6598 -1.5945,-1.0239 -3.2753,-2.6828 -1.745,-4.3641 1.6187,-1.7786 2.0466,-3.1293 1.7709,-4.122 -0.2145,-0.772 -1.4757,-1.5357 -2.3127,-1.9076 -1.1257,-0.5003 -1.9598,-0.2001 -3.4155,0.3774 -2.9832,1.1839 -7.9812,4.1321 -10.9551,5.7061 -4.3893,2.323 -8.4267,4.8461 -11.222,7.0495 -4.2413,3.3432 -9.1253,6.4144 -15.7073,7.2821 4.8194,-4.5813 9.7198,-9.0479 15.2413,-13.6261 4.8715,-4.0394 10.5646,-7.9836 15.9675,-11.1431 4.7096,-2.7544 12.445,-5.6889 17.8826,-6.6584 3.6106,-0.6439 5.7332,-0.1888 8.8182,1.7851 4.8246,3.0869 8.8301,9.0555 6.8177,14.4936 z m 65.5537,30.1602 c -3.7665,5.8612 -8.5762,13.0313 -13.9315,19.4394 -6.2629,7.4944 -13.4032,14.0721 -22.8391,16.918 -3.9193,1.1819 -8.3202,-0.8068 -8.4008,-4.5446 -0.1081,-5.0053 5.6821,-8.7416 12.3976,-10.4359 3.2795,-0.8273 5.8876,-0.9313 9.2859,-2.3562 10.1797,-4.2677 16.2465,-14.2079 23.4879,-19.0207 z"
         style="fill:#008741;fill-rule:evenodd"
         id="path6"
         inkscape:connector-curvature="0" />
      <path
         d="m 270.57,374.6772 15.3985,9.9416 -24.927,21.1148 14.185,-21.1407 z"
         style="fill:#008741;fill-rule:evenodd"
         id="path8"
         inkscape:connector-curvature="0" />
      <path
         d="m 260.7659,410.4828 20.3138,1.7916 -11.1559,9.295 18.3859,2.6857 4.4758,14.9436 -9.5706,-11.2933 -18.3861,-3.2366 3.5811,-8.6755 z"
         style="fill:#008741;fill-rule:evenodd"
         id="path10"
         inkscape:connector-curvature="0" />
      <path
         d="m 297.8154,380.1764 -5.9957,2.0725 -10.3373,-8.3586 14.2655,-6.6316 27.6351,3.4539 -39.144,27.2868 18.1249,27.1484 -13.2319,-9.8785 -6.616,-16.8555 24.7408,-21.1387 c 0.5646,-3.7213 -5.1527,-6.7851 -8.3351,-5.959 -3.6056,0.9356 -8.1663,7.9335 -1.1063,8.8603 z"
         style="fill:#008741;fill-rule:evenodd"
         id="path12"
         inkscape:connector-curvature="0" />
      <path
         d="m 266.9634,432.6556 13.9095,4.9586 -13.7029,22.6543 0.7574,23.068 -5.7839,-27.8185 10.7418,-13.7034 z"
         style="fill:#008741;fill-rule:evenodd"
         id="path14"
         inkscape:connector-curvature="0" />
      <path
         d="m 283.9718,446.9094 -9.8471,17.2848 4.8202,10.878 -6.8859,12.5323 7.781,13.7039 5.3708,-23.4788 -3.6493,-12.5341 z"
         style="fill:#008741;fill-rule:evenodd"
         id="path16"
         inkscape:connector-curvature="0" />
      <path
         d="m 293.3366,445.4641 -1.7217,17.3515 6.1287,9.6395 -9.4339,23.8269 12.5323,11.706 -3.3052,-19.8314 6.4727,-19.969 -7.0236,-7.2991 z"
         style="fill:#008741;fill-rule:evenodd"
         id="path18"
         inkscape:connector-curvature="0" />
      <path
         d="m 304.2847,439.7486 1.7906,14.8049 8.8134,9.9142 -3.7179,41.4545 9.0894,-17.077 1.6526,-27.2681 -8.8449,-11.7067 z"
         style="fill:#008741;fill-rule:evenodd"
         id="path20"
         inkscape:connector-curvature="0" />
      <path
         d="m 319.5027,443.468 9.1583,13.5644 0.2754,28.783 8.3317,-31.7454 z"
         style="fill:#008741;fill-rule:evenodd"
         id="path22"
         inkscape:connector-curvature="0" />
      <path
         d="m 336.5109,410.0707 -7.5054,27.8896 15.7684,11.3599 -7.0236,37.597 15.6313,-42.0713 -14.805,-14.6684 z"
         style="fill:#008741;fill-rule:evenodd"
         id="path24"
         inkscape:connector-curvature="0" />
      <path
         d="m 360.3358,464.7429 8.1952,-28.7259 -22.6553,-24.8446 2.7543,12.8078 14.185,16.3884 -13.2895,35.8757 z"
         style="fill:#008741;fill-rule:evenodd"
         id="path26"
         inkscape:connector-curvature="0" />
      <path
         d="m 348.5178,271.3183 c 13.7171,-2.0074 25.6586,-1.7327 35.7427,0.1971 14.1957,2.7169 25.0898,9.5948 33.2419,16.3627 14.8705,12.3457 19.8645,27.4557 20.7622,39.5739 0.4131,5.5771 0.3171,11.9929 -0.9915,17.3976 -1.4829,6.1254 -4.4072,11.1893 -7.7671,16.558 -7.5877,12.1235 -22.7344,28.1082 -31.3931,44.8322 -5.5556,10.731 -9.3012,21.9999 -9.8196,33.3416 -0.5474,11.9767 2.1573,23.569 6.1414,34.3609 5.5034,14.9077 13.6742,28.1218 30.5506,37.2514 -16.8023,-19.7628 -25.3293,-46.7071 -25.3932,-68.2195 -0.0247,-8.3965 0.9426,-15.47 3.3022,-22.188 4.0023,-11.3934 11.3725,-21.815 18.7571,-31.2874 7.0523,-9.0459 14.9094,-18.5874 20.0971,-28.9127 5.965,-11.8729 7.7234,-30.5626 5.695,-43.6623 -1.8567,-11.9912 -7.4048,-23.7763 -17.3971,-33.8958 -12.6802,-12.8421 -32.317,-22.1161 -50.2839,-21.7382 -9.8413,0.2069 -19.9284,3.3636 -31.2447,10.0285 z"
         style="fill:#008741;fill-rule:evenodd"
         id="path28"
         inkscape:connector-curvature="0" />
      <path
         d="m 343.1428,272.4208 c -7.5174,-22.2681 -17.5239,-35.8169 -49.049,-59.6583 11.8926,-15.8664 37.7589,-22.2351 57.7586,-22.4931 49.0909,-0.6332 93.4176,25.8478 113.9498,75.5636 4.99,12.0828 8.7393,26.0915 8.9878,42.1015 0.1906,12.2896 -2.302,29.5387 -9.379,45.6255 -4.67,10.6155 -11.3613,20.9875 -18.2442,30.2577 -14.7183,19.8241 -29.1203,35.9192 -30.4675,68.3023 -0.4102,9.8583 0.1177,20.8513 2.6368,34.5499 -6.7307,-14.2894 -9.5906,-26.5807 -9.7068,-37.6468 -0.2535,-24.1425 12.2219,-41.3583 26.3832,-61.8852 6.4368,-9.3301 15.7961,-23.4105 21.6942,-34.4095 5.7635,-10.7482 8.1034,-20.8555 8.7371,-32.2242 0.523,-9.382 0.2645,-17.8893 -1.4168,-27.1566 -2.7791,-15.3176 -9.4718,-30.001 -18.1341,-42.3996 -11.8283,-16.9303 -28.8237,-30.9473 -48.309,-38.5742 -17.6443,-6.9063 -37.1653,-7.4637 -55.7764,-5.2263 -8.2399,0.9908 -16.86,2.6262 -25.8421,4.9257 30.6822,26.9353 28.3205,46.1227 26.1774,60.3476 z"
         style="fill:#008741;fill-rule:evenodd"
         id="path30"
         inkscape:connector-curvature="0" />
    </g>
    <path
       d="m 100.4863,289.6442 27.5825,-7e-4 13.8826,-24.1765 h 53.5654 l 13.567,23.3499 28.6582,5e-4 -68.6156,-119.042 z m 55.2249,-48.1401 12.8651,-22.4046 13.0176,22.4046 z"
       style="fill:#fde100;fill-rule:evenodd"
       id="path33"
       inkscape:connector-curvature="0" />
    <path
       d="m 218.2632,314.9416 -13.8755,14.668 c -15.8882,-9.7473 -29.2479,-10.2253 -41.5604,-6.383 -11.5665,3.6094 -22.0897,12.7624 -30.8532,28.4777 h 63.901 v 23.885 h -64.9249 c 8.0944,17.4822 19.1085,28.3791 33.2615,31.8707 15.3982,3.7987 38.2354,-3.3965 48.6286,-17.3584 l 15.0113,15.5621 c -15.7041,22.1875 -44.6535,26.1644 -61.0791,24.8082 -11.6776,-0.9643 -21.5376,-5.3773 -29.5692,-11.1522 -21.6511,-15.5676 -29.1939,-37.692 -29.8046,-50.2687 -0.5055,-10.4072 1.4789,-27.3714 10.9443,-41.981 3.0889,-4.768 6.9907,-9.3735 11.729,-13.3287 3.6852,-3.0757 9.1193,-6.4492 13.8316,-8.511 7.6498,-3.3467 18.9275,-6.4575 30.5407,-7.0097 14.2293,-0.6763 28.0028,2.6923 43.8189,16.721 z"
       style="fill:#fde100;fill-rule:evenodd"
       id="path35"
       inkscape:connector-curvature="0" />
    <path
       d="m 122.248,441.7717 h 22.5598 v 52.6102 l 60.0449,-50.2949 18.5919,16.5261 -53.5722,45.1974 64.1765,52.8576 -16.8016,19.8314 -72.4395,-58.6181 v 27.7693 L 122.248,529.937 Z"
       style="fill:#fde100;fill-rule:evenodd"
       id="path37"
       inkscape:connector-curvature="0" />
    <g
       id="Layer1002">
      <path
         d="m 292.5654,595.3053 c -1.8384,1.7881 -5.4208,2.3245 -8.2333,1.9026 -4.7296,-0.7093 -8.7618,-3.7566 -9.3589,-9.5811 -0.36,-3.5131 0.6866,-6.8385 3.3504,-9.2244 2.186,-1.958 5.1111,-2.9447 8.0211,-3.0095 4.7784,-0.1061 8.8184,2.7867 10.7881,7.052 2.5328,5.4855 1.4877,12.4143 -1.2487,17.6603 -2.7326,5.2388 -7.7715,10.4823 -12.9237,14.2493 l -3.0133,-3.9791 c 4.1317,-3.0106 8.273,-7.1429 10.7868,-11.2911 0.5205,-0.8592 1.4483,-2.8494 1.8315,-3.779 z m 0.8992,-5.2198 c 0.0472,-1.9403 -0.0811,-3.9497 -0.862,-5.6407 -1.1277,-2.442 -3.3703,-4.125 -6.1471,-4.0632 -3.9672,0.0883 -6.947,2.5543 -6.5184,6.7362 0.4151,4.05 3.9476,5.8475 7.6765,5.486 1.9737,-0.1913 3.8426,-1.1591 5.261,-2.1191 z"
         style="fill:#008741;fill-rule:evenodd"
         id="path39"
         inkscape:connector-curvature="0" />
      <path
         d="m 321.7556,595.3053 c -1.8385,1.7881 -5.4209,2.3245 -8.2334,1.9026 -4.7295,-0.7093 -8.7618,-3.7566 -9.3588,-9.5811 -0.36,-3.5131 0.6866,-6.8385 3.3504,-9.2244 2.186,-1.958 5.111,-2.9447 8.0211,-3.0095 4.7784,-0.1061 8.8184,2.7867 10.7881,7.052 2.5328,5.4855 1.4877,12.4143 -1.2487,17.6603 -2.7326,5.2388 -7.7716,10.4823 -12.9237,14.2493 l -3.0134,-3.9791 c 4.1318,-3.0106 8.2731,-7.1429 10.7869,-11.2911 0.5205,-0.8592 1.4483,-2.8494 1.8315,-3.779 z m 0.8992,-5.2198 c 0.0471,-1.9403 -0.0811,-3.9497 -0.862,-5.6407 -1.1277,-2.442 -3.3704,-4.125 -6.1472,-4.0632 -3.9671,0.0883 -6.947,2.5543 -6.5184,6.7362 0.4152,4.05 3.9477,5.8475 7.6766,5.486 1.9737,-0.1913 3.8426,-1.1591 5.2609,-2.1191 z"
         style="fill:#008741;fill-rule:evenodd"
         id="path41"
         inkscape:connector-curvature="0" />
      <path
         d="m 269.2417,575.9163 h -3.4853 l -10.9314,6.1786 2.2135,4.5753 7.1336,-4.2585 v 31.3682 h 5.0696 z"
         style="fill:#008741;fill-rule:evenodd"
         id="path43"
         inkscape:connector-curvature="0" />
      <path
         d="m 353.5689,575.9163 h -4.2338 l -18.421,24.3975 -0.006,0.4351 h -0.0387 l 0.0135,1.7117 -0.0487,3.3384 0.0749,-0.0297 5e-4,0.0492 h 17.5899 v 7.9614 h 5.0696 v -7.9614 h 5.4227 v -5.0696 h -5.4227 z m -17.2564,24.8326 12.1868,-15.8423 v 15.8423 z"
         style="fill:#008741;fill-rule:evenodd"
         id="path45"
         inkscape:connector-curvature="0" />
    </g>
  </g>
</svg>
