<?xml version="1.0" encoding="UTF-8" standalone="no"?>
<!-- Created with Inkscape (http://www.inkscape.org/) -->

<svg
   xmlns:dc="http://purl.org/dc/elements/1.1/"
   xmlns:cc="http://creativecommons.org/ns#"
   xmlns:rdf="http://www.w3.org/1999/02/22-rdf-syntax-ns#"
   xmlns:svg="http://www.w3.org/2000/svg"
   xmlns="http://www.w3.org/2000/svg"
   xmlns:sodipodi="http://sodipodi.sourceforge.net/DTD/sodipodi-0.dtd"
   xmlns:inkscape="http://www.inkscape.org/namespaces/inkscape"
   version="1.1"
   id="svg2"
   xml:space="preserve"
   width="252"
   height="134.88483"
   viewBox="0 0 252 134.88482"
   sodipodi:docname="belediyespor-akhisar.svg"
   inkscape:version="0.92.4 (5da689c313, 2019-01-14)"><metadata
     id="metadata8"><rdf:RDF><cc:Work
         rdf:about=""><dc:format>image/svg+xml</dc:format><dc:type
           rdf:resource="http://purl.org/dc/dcmitype/StillImage" /><dc:title></dc:title></cc:Work></rdf:RDF></metadata><defs
     id="defs6" /><sodipodi:namedview
     pagecolor="#ffffff"
     bordercolor="#666666"
     borderopacity="1"
     objecttolerance="10"
     gridtolerance="10"
     guidetolerance="10"
     inkscape:pageopacity="0"
     inkscape:pageshadow="2"
     inkscape:window-width="1366"
     inkscape:window-height="705"
     id="namedview4"
     showgrid="false"
     fit-margin-top="1"
     fit-margin-bottom="1e-06"
     fit-margin-right="1"
     fit-margin-left="1"
     inkscape:zoom="2.3786091"
     inkscape:cx="157.5379"
     inkscape:cy="146.69924"
     inkscape:window-x="-8"
     inkscape:window-y="-8"
     inkscape:window-maximized="1"
     inkscape:current-layer="g10" /><g
     id="g10"
     inkscape:groupmode="layer"
     inkscape:label="belediyespor-akhisar-seeklogo.com"
     transform="matrix(1.3333333,0,0,-1.3333333,-26.375926,518.95122)"><g
       id="g273"
       transform="matrix(0.34165868,0,0,0.34165868,13.517028,189.63509)"><path
         inkscape:connector-curvature="0"
         id="path12"
         style="fill:#000000;fill-opacity:1;fill-rule:nonzero;stroke:none"
         d="m 568.66602,537.02197 c -34.22852,-18.40429 -69.26856,-32.17383 -106.43457,-37.78222 -0.32129,4.27783 -0.81934,7.92968 -2.60645,10.67871 -10.0127,-6.52832 -16.53516,-14.42823 -33.09277,-20.64258 -10.11621,23.82178 -23.5293,42.16553 -38.542,56 -17.21679,15.86523 -37.208,26.50586 -56.0791,31.97119 -13.04394,3.77734 -25.20996,4.70313 -36.98242,4.70313 -11.77148,0 -23.93652,-0.92579 -36.98144,-4.70313 -18.87305,-5.46533 -38.86231,-16.10596 -56.07813,-31.97119 -15.01367,-13.83447 -28.42676,-32.17822 -38.54394,-56 -16.55665,6.21435 -23.08008,14.11426 -33.0918,20.64258 -1.78711,-2.74903 -2.28613,-6.40088 -2.60742,-10.67871 -37.16602,5.60839 -72.20606,19.37793 -106.43555,37.78222 -2.49902,-9.63476 2.07422,-19.06933 14.41699,-28.28418 -0.54492,-6.94189 1.59961,-12.98535 6.69922,-18.04443 1.51367,-12.15576 7.11524,-20.60645 17.64746,-24.58203 9.35938,-20.76172 26.56836,-31.22949 52.07715,-30.80762 3.82129,-9.74023 11.74805,-15.71777 24.34766,-17.40918 -2.55664,-10.07617 4.69433,-14.92285 19.81347,-15.5625 -1.88574,-12.0498 2.50489,-17.22656 13.78809,-14.85351 0.92383,-4.82325 2.47363,-8.40528 4.68262,-10.67872 3.94043,-4.05371 10.88379,-4.57421 18.32421,0.7129 5.04493,-7.28125 10.78711,-14.2627 17.2959,-20.917 v -68.5459 h 169.292 v 68.5459 c 6.50781,6.6543 12.25097,13.63575 17.29687,20.917 7.43945,-5.28711 14.38184,-4.76661 18.32129,-0.7129 2.21094,2.27344 3.76074,5.85547 4.68457,10.67872 11.28223,-2.37305 15.67383,2.80371 13.78809,14.85351 15.11816,0.63965 22.37011,5.48633 19.8125,15.5625 12.60058,1.69141 20.52636,7.66895 24.34765,17.40918 25.50977,-0.42187 42.71778,10.0459 52.07813,30.80762 10.5332,3.97558 16.13379,12.42627 17.64746,24.58203 5.09961,5.05908 7.24414,11.10254 6.69824,18.04443 12.34277,9.21485 16.91699,18.64942 14.41602,28.28418 z" /><path
         inkscape:connector-curvature="0"
         id="path14"
         style="fill:#2b973f;fill-opacity:1;fill-rule:nonzero;stroke:none"
         d="m 294.92871,573.25195 c -40.20605,-0.0264 -97.12988,-19.15332 -124.35351,-88.87646 l 49.2373,-17.93262 c 15.08105,41.40039 50.18555,54.45508 75.11621,54.46875 24.93067,-0.0137 60.03516,-13.06836 75.11621,-54.46875 l 49.23731,17.93262 c -27.22266,69.72314 -84.14649,88.8501 -124.35352,88.87646 z" /><path
         inkscape:connector-curvature="0"
         id="path16"
         style="fill:#ffffff;fill-opacity:1;fill-rule:nonzero;stroke:none"
         d="m 294.92773,512.59033 c 42.1875,0 76.40137,-34.21191 76.40137,-76.39892 0,-42.1875 -34.21387,-76.39844 -76.40137,-76.39844 -42.18554,0 -76.39746,34.21094 -76.39746,76.39844 0,42.18701 34.21192,76.39892 76.39746,76.39892 z" /><path
         inkscape:connector-curvature="0"
         id="path18"
         style="fill:#2b973f;fill-opacity:1;fill-rule:nonzero;stroke:none"
         d="m 276.75879,467.51855 c 21.63867,10.4419 41.99414,16.5459 76.7334,10.65674 -0.71778,1.00489 -1.45899,1.9917 -2.22656,2.95606 -32.47364,10.26562 -58.47559,6.43261 -80.13282,-3.79492 -20.12597,-9.50342 -38.77832,-27.52881 -48.08203,-50.31983 0.42871,-3.38769 1.09082,-6.70019 1.9707,-9.9248 12.70997,24.90918 30.76368,40.30468 51.73731,50.42675 z" /><path
         inkscape:connector-curvature="0"
         id="path20"
         style="fill:#2b973f;fill-opacity:1;fill-rule:nonzero;stroke:none"
         d="m 290.64844,364.00781 c 1.33984,-0.0723 2.68847,-0.11035 4.04687,-0.11035 3.24121,0 6.43262,0.21289 9.56153,0.62793 11.85058,9.55078 27.88964,18.45703 44.62207,23.87305 2.458,2.79004 4.70507,5.77148 6.71484,8.91992 -13.43359,-1.05371 -25.45703,-4.34473 -36.13379,-9.77441 -11.01562,-5.60352 -20.59668,-13.48536 -28.81152,-23.53614 z" /><path
         inkscape:connector-curvature="0"
         id="path22"
         style="fill:#2b973f;fill-opacity:1;fill-rule:nonzero;stroke:none"
         d="m 312.15918,400.47363 c -14.87793,-7.51074 -27.26563,-18.84375 -37.28223,-33.81933 2.89356,-0.8252 5.86035,-1.47461 8.88965,-1.93555 8.95117,10.23145 19.97559,18.62695 32.50391,25.29883 12.70508,6.7666 24.24609,11.7207 43.55176,14.89551 1.00683,2.09668 1.91699,4.25195 2.72265,6.45605 -18.9707,0.93848 -35.96484,-3.61719 -50.38574,-10.89551 z" /><path
         inkscape:connector-curvature="0"
         id="path24"
         style="fill:#2b973f;fill-opacity:1;fill-rule:nonzero;stroke:none"
         d="m 307.15039,414.37598 c -17.49609,-8.65137 -34.37207,-24.00977 -44.56152,-42.95801 2.14746,-1.06738 4.35449,-2.03223 6.61523,-2.8877 12.1416,15.73828 25.73926,26.94141 41.76758,35.09961 15.90723,8.09766 29.96387,12.98926 53.52051,13.92871 0.48047,1.80567 0.89258,3.63868 1.2334,5.49805 -20.33594,3.86328 -41.61817,-0.29492 -58.5752,-8.68066 z" /><path
         inkscape:connector-curvature="0"
         id="path26"
         style="fill:#2b973f;fill-opacity:1;fill-rule:nonzero;stroke:none"
         d="m 296.95898,425.19434 c -18.53906,-9.58106 -33.82226,-25.39844 -45.08398,-47.22071 2.00293,-1.47851 4.08496,-2.85644 6.23828,-4.12793 12.61328,19.99024 28.49121,33.75977 46.93457,43.03321 17.87305,8.98632 37.56055,14.28027 61.53613,12.34961 0.16016,1.66796 0.2627,3.35156 0.30762,5.05175 -24.53808,6.84864 -50.46777,0.97364 -69.93262,-9.08593 z" /><path
         inkscape:connector-curvature="0"
         id="path28"
         style="fill:#2b973f;fill-opacity:1;fill-rule:nonzero;stroke:none"
         d="m 341.06348,380.76758 c -10.51368,-2.81153 -19.93555,-7.52051 -28.04395,-14.52149 10.46094,2.74024 19.99805,7.76954 28.04395,14.52149 z" /><path
         inkscape:connector-curvature="0"
         id="path30"
         style="fill:#2b973f;fill-opacity:1;fill-rule:nonzero;stroke:none"
         d="m 283.45996,454.83301 c 21.61719,10.55566 45.99707,16.29443 77.61914,9.87304 -0.60058,1.39893 -1.24512,2.77588 -1.92969,4.12745 -29.31836,10.34326 -57.41601,6.37255 -78.31836,-3.15186 -23.20703,-10.57324 -42.60937,-28.14941 -53.20703,-56.34668 0.97364,-2.4375 2.07813,-4.80859 3.30176,-7.10644 13.03125,24.99218 30.91699,42.0498 52.53418,52.60449 z" /><path
         inkscape:connector-curvature="0"
         id="path32"
         style="fill:#2b973f;fill-opacity:1;fill-rule:nonzero;stroke:none"
         d="m 295.33887,428.06738 c 19.94824,10.48145 36.63183,16.39551 71.40429,13.15821 -0.10937,1.59277 -0.2705,3.17089 -0.48144,4.73339 -28.5459,7.5586 -53.03809,2.87305 -73.1377,-6.55859 -21.39746,-10.04101 -39.90136,-26.56445 -50.17968,-53.63184 1.54882,-1.59179 3.17089,-3.11523 4.85937,-4.55859 12.60742,22.47656 28.19824,36.69824 47.53516,46.85742 z" /><path
         inkscape:connector-curvature="0"
         id="path34"
         style="fill:#2b973f;fill-opacity:1;fill-rule:nonzero;stroke:none"
         d="m 294.69531,508.48682 c -27.55176,0 -51.50586,-15.45264 -63.68261,-38.17041 18.58007,18.65039 45.18945,31.07275 76.64355,37.00879 -4.20508,0.76318 -8.53613,1.16162 -12.96094,1.16162 z" /><path
         inkscape:connector-curvature="0"
         id="path36"
         style="fill:#2b973f;fill-opacity:1;fill-rule:nonzero;stroke:none"
         d="m 271.8916,481.52734 c 19.02832,9.06543 31.9834,12.39746 65,11.60791 -5.12793,4.1084 -22.18945,6.13672 -34.3916,5.92823 -12.58887,-0.21485 -24.23145,-2.60596 -34.5625,-7.0625 -16.33496,-7.04493 -35.22363,-22.10303 -42.76562,-36.17188 -1.5127,-5.37597 -2.4209,-11.00586 -2.64356,-16.81152 14.11621,20.92969 30.33496,33.4458 49.36328,42.50976 z" /><path
         inkscape:connector-curvature="0"
         id="path38"
         style="fill:#2b973f;fill-opacity:1;fill-rule:nonzero;stroke:none"
         d="m 291.19434,442.31445 c 20.43457,9.8125 44.33398,17.01709 73.90234,10.06641 -0.36816,1.61035 -0.79004,3.19824 -1.26172,4.76465 -30.74121,9.43066 -57.92383,4.82812 -78.87402,-5.51856 -21.53418,-10.63574 -40.34864,-29.43066 -50.56153,-55.2373 1.34766,-2.04199 2.7959,-4.01074 4.33887,-5.90137 13.56348,26.04688 30.49317,41.28027 52.45606,51.82617 z" /><path
         inkscape:connector-curvature="0"
         id="path40"
         style="fill:#f2ef11;fill-opacity:1;fill-rule:nonzero;stroke:none"
         d="m 172.27832,385.50586 12.66406,5.1123 5.74121,-10.14648 c -5.27343,-4.2002 -12.66211,-6.83398 -18.40527,5.03418 z" /><path
         inkscape:connector-curvature="0"
         id="path42"
         style="fill:#f2ef11;fill-opacity:1;fill-rule:nonzero;stroke:none"
         d="m 196.34668,414.5293 c -11.84082,-1.94629 -25.79883,-8.63672 -38.69824,-12.66211 -1.07617,-9.64258 2.0791,-11.83008 10.29297,-11.94531 4.01172,-0.0557 9.19238,0.58886 15.58398,4.23632 l -4.87598,13.76465 c 5.47657,2.39942 11.44239,4.57227 17.69727,6.60645 z" /><path
         inkscape:connector-curvature="0"
         id="path44"
         style="fill:#f2ef11;fill-opacity:1;fill-rule:nonzero;stroke:none"
         d="m 209.79688,457.55469 1.80859,7.23584 -47.01953,16.92138 0.47265,3.62403 c -12.83886,4.91113 -24.02929,11.79883 -33.72168,20.48437 -2.46093,-9.93701 5.68555,-18.61035 12.54786,-23.77929 2.86621,-2.16016 5.58203,-3.63282 8.17968,-4.69922 6.96485,-2.86475 15.42676,-4.33887 22.85743,-6.05909 15.11035,-3.49902 20.60351,-1.2749 25.958,-3.60107 5.7002,-2.47851 6.76856,-6.22119 8.917,-10.12695 z" /><path
         inkscape:connector-curvature="0"
         id="path46"
         style="fill:#f2ef11;fill-opacity:1;fill-rule:nonzero;stroke:none"
         d="m 207.47949,452.28516 c -2.91308,2.14355 -7.25,4.06543 -11.92187,5.69629 -8.32813,2.90625 -16.53125,4.06005 -21.55078,5.08007 -8.48145,1.72412 -22.98047,1.45655 -26.11133,14.70703 8.14844,-3.53955 18.68262,-6.91064 30.33105,-8.57519 8.50391,-1.21436 17.67578,-0.89551 22.86524,-3.5332 4.03711,-2.05225 9.09863,-7.77051 6.38769,-13.375 z" /><path
         inkscape:connector-curvature="0"
         id="path48"
         style="fill:#f2ef11;fill-opacity:1;fill-rule:nonzero;stroke:none"
         d="m 205.23438,443.63281 c -27.84278,4.4834 -45.042,10.48633 -49.39454,18.32569 10.06446,0.10498 19.12891,-0.71143 27.29395,-2.35303 8.82129,-1.77539 16.59277,-4.5166 23.4375,-8.10742 z" /><path
         inkscape:connector-curvature="0"
         id="path50"
         style="fill:#f2ef11;fill-opacity:1;fill-rule:nonzero;stroke:none"
         d="m 208.22363,421.29395 c -1.76074,6.5166 -2.92675,13.20117 -3.22558,20.13574 -13.61524,2.14453 -25.72657,5.30957 -36.417,9.43945 -0.5791,-5.36914 3.2334,-8.4834 7.31739,-11.14355 5.70508,-3.7168 14.46875,-5.47461 25.63965,-5.68946 0.23925,0.66407 0.52441,1.2461 0.86523,1.73145 0.10352,-4.58985 0.47949,-9.23047 1.10059,-13.92188 -1.1709,3.17285 -2.20508,6.34375 -2.75293,9.51563 -3.95899,0.17676 -7.81543,0.4873 -11.46289,1.07812 2.28027,-4.63867 5.28125,-9.52343 9.02539,-14.05566 3.17871,1.41504 6.4707,2.42871 9.91015,2.91016 z" /><path
         inkscape:connector-curvature="0"
         id="path52"
         style="fill:#f2ef11;fill-opacity:1;fill-rule:nonzero;stroke:none"
         d="m 194.05273,418.99609 c -13.98925,-1.40918 -17.81152,-6.7041 -25.68164,-9.53418 -2.94921,-1.06054 -9.66699,-3.12988 -15.37207,-3.09765 -8.89843,0.0498 -19.35839,5.99512 -14.25586,12.00195 18.48633,1.86621 32.01661,9.39551 50.26661,8.19336 z" /><path
         inkscape:connector-curvature="0"
         id="path54"
         style="fill:#f2ef11;fill-opacity:1;fill-rule:nonzero;stroke:none"
         d="m 187.74707,429.51465 c -9.07422,0.72265 -18.91016,-1.3584 -28.45898,-3.94727 -6.82032,-1.84668 -13.37989,-4.39453 -19.93653,-4.34668 -9.1289,0.0693 -17.93945,3.33594 -25.34863,14.16407 15.65918,2.96679 30.09277,4.78418 41.00293,4.80664 9.56836,0.0176 16.28125,-1.32227 21.95898,-4.04004 4.96582,-2.375 9.79004,-4.89746 10.78223,-6.63672 z" /><path
         inkscape:connector-curvature="0"
         id="path56"
         style="fill:#f2ef11;fill-opacity:1;fill-rule:nonzero;stroke:none"
         d="m 165.68848,443.57813 c -19.50098,3.59472 -39.11231,-3.71973 -59.07325,-3.29493 -15.0371,0.31836 -35.08398,6.18555 -43.50976,22.20459 16.82812,-8.84424 33.69629,-10.57666 50.57324,-10.5581 16.70703,0.0176 33.18652,0.0996 50.11914,9.7e-4 z" /><path
         inkscape:connector-curvature="0"
         id="path58"
         style="fill:#f2ef11;fill-opacity:1;fill-rule:nonzero;stroke:none"
         d="m 158.75488,456.02734 c -39.10644,0.49512 -60.9873,-2.17089 -80.95898,4.32325 -17.07715,5.55273 -31.52344,16.10742 -34.85938,28.45166 6.54297,-3.92676 13.30762,-7.06055 20.59278,-9.33008 15.32812,-4.77539 29.13965,-7.64502 49.25195,-7.79004 13.75977,-0.0986 31.39063,-1.58789 38.29785,-4.26514 1.79199,-3.71045 4.57715,-7.67871 7.67578,-11.38965 z" /><path
         inkscape:connector-curvature="0"
         id="path60"
         style="fill:#f2ef11;fill-opacity:1;fill-rule:nonzero;stroke:none"
         d="m 146.9375,471.46875 c -12.92676,3.22168 -27.75293,3.26611 -44.26953,3.70654 -20.63086,0.55078 -45.52246,7.69141 -57.27246,17.1836 -4.63574,3.74365 -7.70313,8.61377 -8.60449,15.03808 11.94921,-7.66845 26.57812,-13.65674 43.88574,-17.96386 17.30664,-4.30665 37.5,-7.26465 60.16504,-8.21045 z" /><path
         inkscape:connector-curvature="0"
         id="path62"
         style="fill:#f2ef11;fill-opacity:1;fill-rule:nonzero;stroke:none"
         d="m 136.45801,483.88037 c -31.55567,3.39844 -55.36328,7.86328 -76.25879,15.54395 -10.18067,3.74316 -19.70996,10.625 -28.37891,16.59423 -6.80664,4.68604 -8.78027,11.98194 -9.36914,18.00928 15.72363,-8.1001 32.82227,-16.33984 48.95703,-22.29297 17.77344,-6.55713 32.68555,-10.69043 56.14649,-14.26562 1.24316,-4.90674 4.31543,-9.41309 8.90332,-13.58887 z" /><path
         inkscape:connector-curvature="0"
         id="path64"
         style="fill:#f2ef11;fill-opacity:1;fill-rule:nonzero;stroke:none"
         d="m 417.58105,385.50586 -12.66503,5.1123 -5.74122,-10.14648 c 5.27149,-4.2002 12.66114,-6.83398 18.40625,5.03418 z" /><path
         inkscape:connector-curvature="0"
         id="path66"
         style="fill:#f2ef11;fill-opacity:1;fill-rule:nonzero;stroke:none"
         d="m 393.50977,414.5293 c 11.84277,-1.94629 25.80078,-8.63672 38.70019,-12.66211 1.0752,-9.64258 -2.0791,-11.83008 -10.29394,-11.94531 -4.01075,-0.0557 -9.19239,0.58886 -15.58399,4.23632 l 4.87695,13.76465 c -5.47753,2.39942 -11.44238,4.57227 -17.69921,6.60645 z" /><path
         inkscape:connector-curvature="0"
         id="path68"
         style="fill:#f2ef11;fill-opacity:1;fill-rule:nonzero;stroke:none"
         d="m 380.06152,457.55469 -1.80957,7.23584 47.02149,16.92138 -0.47266,3.62403 c 12.83789,4.91113 24.02832,11.79883 33.7207,20.48437 2.46094,-9.93701 -5.68652,-18.61035 -12.5498,-23.77929 -2.86621,-2.16016 -5.58008,-3.63282 -8.17773,-4.69922 -6.96582,-2.86475 -15.42774,-4.33887 -22.85743,-6.05909 -15.10937,-3.49902 -20.60351,-1.2749 -25.958,-3.60107 -5.70118,-2.47851 -6.76954,-6.22119 -8.917,-10.12695 z" /><path
         inkscape:connector-curvature="0"
         id="path70"
         style="fill:#f2ef11;fill-opacity:1;fill-rule:nonzero;stroke:none"
         d="m 382.37988,452.28516 c 2.91211,2.14355 7.24805,4.06543 11.91992,5.69629 8.32813,2.90625 16.53125,4.06005 21.55176,5.08007 8.48047,1.72412 22.98047,1.45655 26.11231,14.70703 -8.14942,-3.53955 -18.68457,-6.91064 -30.33301,-8.57519 -8.50391,-1.21436 -17.67481,-0.89551 -22.86523,-3.5332 -4.03809,-2.05225 -9.09864,-7.77051 -6.38575,-13.375 z" /><path
         inkscape:connector-curvature="0"
         id="path72"
         style="fill:#f2ef11;fill-opacity:1;fill-rule:nonzero;stroke:none"
         d="m 384.62305,443.63281 c 27.84472,4.4834 45.04297,10.48633 49.39453,18.32569 -10.06445,0.10498 -19.12988,-0.71143 -27.29395,-2.35303 -8.82129,-1.77539 -16.59277,-4.5166 -23.4375,-8.10742 z" /><path
         inkscape:connector-curvature="0"
         id="path74"
         style="fill:#f2ef11;fill-opacity:1;fill-rule:nonzero;stroke:none"
         d="m 381.63379,421.29395 c 1.76172,6.5166 2.92871,13.20117 3.22559,20.13574 13.61621,2.14453 25.72753,5.30957 36.41699,9.43945 0.5791,-5.36914 -3.23242,-8.4834 -7.31641,-11.14355 -5.70605,-3.7168 -14.46875,-5.47461 -25.63965,-5.68946 -0.24023,0.66407 -0.52441,1.2461 -0.86621,1.73145 -0.10254,-4.58985 -0.47851,-9.23047 -1.10058,-13.92188 1.17089,3.17285 2.20507,6.34375 2.7539,9.51563 3.95801,0.17676 7.81446,0.4873 11.46192,1.07812 -2.2793,-4.63867 -5.28223,-9.52343 -9.02442,-14.05566 -3.17969,1.41504 -6.47168,2.42871 -9.91113,2.91016 z" /><path
         inkscape:connector-curvature="0"
         id="path76"
         style="fill:#f2ef11;fill-opacity:1;fill-rule:nonzero;stroke:none"
         d="m 395.80664,418.99609 c 13.98926,-1.40918 17.80957,-6.7041 25.67969,-9.53418 2.94922,-1.06054 9.66797,-3.12988 15.37207,-3.09765 8.89844,0.0498 19.35937,5.99512 14.25683,12.00195 -18.48632,1.86621 -32.0166,9.39551 -50.2666,8.19336 z" /><path
         inkscape:connector-curvature="0"
         id="path78"
         style="fill:#f2ef11;fill-opacity:1;fill-rule:nonzero;stroke:none"
         d="m 402.11133,429.51465 c 9.07422,0.72265 18.90918,-1.3584 28.45898,-3.94727 6.82032,-1.84668 13.37989,-4.39453 19.93555,-4.34668 9.12891,0.0693 17.94043,3.33594 25.34766,14.16407 -15.65723,2.96679 -30.0918,4.78418 -41.00098,4.80664 -9.56934,0.0176 -16.28125,-1.32227 -21.95996,-4.04004 -4.96485,-2.375 -9.78906,-4.89746 -10.78125,-6.63672 z" /><path
         inkscape:connector-curvature="0"
         id="path80"
         style="fill:#f2ef11;fill-opacity:1;fill-rule:nonzero;stroke:none"
         d="m 424.16895,443.57813 c 19.50195,3.59472 39.11328,-3.71973 59.07324,-3.29493 15.03906,0.31836 35.08398,6.18555 43.50976,22.20459 -16.82715,-8.84424 -33.69629,-10.57666 -50.57226,-10.5581 -16.70703,0.0176 -33.1875,0.0996 -50.12012,9.7e-4 z" /><path
         inkscape:connector-curvature="0"
         id="path82"
         style="fill:#f2ef11;fill-opacity:1;fill-rule:nonzero;stroke:none"
         d="m 431.10254,456.02734 c 39.10644,0.49512 60.98828,-2.17089 80.95801,4.32325 17.0791,5.55273 31.52539,16.10742 34.86133,28.45166 -6.54297,-3.92676 -13.3086,-7.06055 -20.59278,-9.33008 -15.32812,-4.77539 -29.13867,-7.64502 -49.25293,-7.79004 -13.75976,-0.0986 -31.39062,-1.58789 -38.29785,-4.26514 -1.79199,-3.71045 -4.57617,-7.67871 -7.67578,-11.38965 z" /><path
         inkscape:connector-curvature="0"
         id="path84"
         style="fill:#f2ef11;fill-opacity:1;fill-rule:nonzero;stroke:none"
         d="m 442.9209,471.46875 c 12.92676,3.22168 27.75293,3.26611 44.26855,3.70654 20.63184,0.55078 45.52246,7.69141 57.27442,17.1836 4.63476,3.74365 7.70215,8.61377 8.60254,15.03808 -11.94922,-7.66845 -26.57715,-13.65674 -43.88477,-17.96386 -17.30664,-4.30665 -37.50098,-7.26465 -60.16504,-8.21045 z" /><path
         inkscape:connector-curvature="0"
         id="path86"
         style="fill:#f2ef11;fill-opacity:1;fill-rule:nonzero;stroke:none"
         d="m 453.40039,483.88037 c 31.55566,3.39844 55.36328,7.86328 76.25781,15.54395 10.18164,3.74316 19.70996,10.625 28.37989,16.59423 6.80761,4.68604 8.78125,11.98194 9.36816,18.00928 -15.72266,-8.1001 -32.82129,-16.33984 -48.95605,-22.29297 -17.77442,-6.55713 -32.68555,-10.69043 -56.14747,-14.26562 -1.24316,-4.90674 -4.31445,-9.41309 -8.90234,-13.58887 z" /><path
         inkscape:connector-curvature="0"
         id="path88"
         style="fill:#2b973f;fill-opacity:1;fill-rule:nonzero;stroke:none"
         d="m 250.31055,357.17773 9.10644,-4.41503 1.84082,3.79394 -14.54785,7.05274 -8.61719,-17.77247 14.81348,-7.18261 1.95215,4.02734 -9.37305,4.54395 1.69824,3.50097 8.44727,-4.09668 1.75781,3.625 -8.44824,4.09571 z" /><path
         inkscape:connector-curvature="0"
         id="path90"
         style="fill:#2b973f;fill-opacity:1;fill-rule:nonzero;stroke:none"
         d="m 216.93164,374.9502 6.375,-6.89161 2.95703,2.73438 -6.375,6.89258 2.30664,2.13379 6.8711,-7.43067 3.0957,2.86231 -10.97656,11.87109 -14.50098,-13.41211 11.17773,-12.08594 3.28516,3.03809 -7.07226,7.64648 z" /><path
         inkscape:connector-curvature="0"
         id="path92"
         style="fill:#2b973f;fill-opacity:1;fill-rule:nonzero;stroke:none"
         d="m 238.54199,369.8877 -4.78125,3.68554 -12.05957,-15.64258 12.23828,-9.43652 2.97071,3.85449 -7.45703,5.74903 z" /><path
         inkscape:connector-curvature="0"
         id="path94"
         style="fill:#2b973f;fill-opacity:1;fill-rule:nonzero;stroke:none"
         d="m 287.81836,355.58203 -3.60938,0.40918 -0.38671,-3.41211 3.60937,-0.40918 z" /><path
         inkscape:connector-curvature="0"
         id="path96"
         style="fill:#2b973f;fill-opacity:1;fill-rule:nonzero;stroke:none"
         d="m 210.6709,383.61523 c 0.35547,0.99903 0.31348,2.18653 -0.13281,3.55665 0.75879,-0.61622 1.50195,-0.9795 2.22949,-1.09668 1.08887,-0.17188 2.13086,0.0498 3.125,0.66503 1.18164,0.7295 1.90918,1.77344 2.18164,3.12598 0.27344,1.35156 -0.084,2.8291 -1.07324,4.43067 l -5.93848,9.61132 -16.80273,-10.38183 5.47558,-8.86035 c 0.2334,-0.37989 0.78516,-1.09571 1.65235,-2.15821 0.65039,-0.80176 1.23632,-1.33691 1.75195,-1.6123 0.83691,-0.44531 1.72168,-0.65137 2.66699,-0.62305 0.94141,0.0312 1.84863,0.31445 2.7207,0.85352 1.06934,0.65918 1.78125,1.49121 2.14356,2.48925 m -3.87305,4.29102 c -0.0801,-0.5459 -0.36914,-0.96973 -0.86621,-1.27637 -0.53516,-0.33105 -1.07422,-0.41406 -1.61523,-0.24511 -0.53907,0.16503 -1.08106,0.68945 -1.62793,1.57519 l -1.61817,2.61914 3.40332,2.10254 1.61035,-2.60644 c 0.55762,-0.90137 0.79297,-1.62305 0.71387,-2.16895 m 4.06055,8.7207 1.40137,-2.2666 c 0.47949,-0.77734 0.67968,-1.40722 0.59765,-1.89551 -0.0801,-0.48339 -0.36816,-0.875 -0.85644,-1.17675 -0.52442,-0.32422 -1.02246,-0.41797 -1.49805,-0.2793 -0.47461,0.14551 -0.95898,0.61523 -1.45313,1.41601 l -1.37988,2.23145 z" /><path
         inkscape:connector-curvature="0"
         id="path98"
         style="fill:#2b973f;fill-opacity:1;fill-rule:nonzero;stroke:none"
         d="m 380.23145,381.72754 c -2.12207,2.36523 -4.43067,3.61914 -6.91309,3.75684 -2.48828,0.13867 -4.94336,-0.87696 -7.36231,-3.04786 -2.35937,-2.11621 -3.5996,-4.43554 -3.72265,-6.96093 -0.1211,-2.51954 0.8916,-4.98438 3.04492,-7.38379 1.54199,-1.71778 3.16113,-2.84668 4.85254,-3.39258 1.69629,-0.54102 3.31641,-0.59668 4.86523,-0.16406 1.54786,0.43847 3.14258,1.39257 4.7793,2.8623 1.61524,1.44824 2.68359,2.95899 3.21777,4.54297 0.52832,1.58203 0.58692,3.17871 0.17286,4.78906 -0.41407,1.61231 -1.39356,3.2793 -2.93457,4.99805 m -3.6543,-11.06445 c -0.93848,-0.84278 -1.97363,-1.18457 -3.09863,-1.02735 -1.12989,0.16211 -2.3545,0.9834 -3.6875,2.46875 -1.34375,1.49707 -2.03321,2.81641 -2.06543,3.95508 -0.0352,1.14258 0.40429,2.11719 1.30664,2.92773 0.94726,0.85059 1.98144,1.20313 3.10351,1.06153 1.12696,-0.14551 2.30957,-0.90528 3.55371,-2.29102 1.47461,-1.64355 2.2295,-3.02343 2.27344,-4.13379 0.04,-1.10644 -0.42187,-2.09668 -1.38574,-2.96093 z" /><path
         inkscape:connector-curvature="0"
         id="path100"
         style="fill:#2b973f;fill-opacity:1;fill-rule:nonzero;stroke:none"
         d="m 347.12598,352.87988 c -0.84571,0.5625 -1.91016,0.85742 -3.19336,0.89258 -1.28516,0.0361 -3.23731,-0.25488 -5.86426,-0.87988 -1.05957,-0.25977 -1.77051,-0.33692 -2.1416,-0.22461 -0.37207,0.10156 -0.625,0.29101 -0.75977,0.57324 -0.1875,0.38965 -0.1875,0.79785 0.003,1.2207 0.1875,0.42774 0.59863,0.78907 1.23535,1.09571 0.76563,0.36718 1.45411,0.47461 2.0625,0.32324 0.61426,-0.1543 1.18164,-0.59961 1.70215,-1.33496 l 4.97852,2.76758 c -1.11231,1.73632 -2.46094,2.74609 -4.04688,3.02343 -1.58691,0.27832 -3.50586,-0.125 -5.75488,-1.20703 -1.83203,-0.88086 -3.16211,-1.80761 -3.99316,-2.77734 -0.82715,-0.97461 -1.30664,-1.99121 -1.43946,-3.05566 -0.13476,-1.06543 0.0195,-2.05762 0.46094,-2.97266 0.66895,-1.39356 1.73242,-2.29004 3.18945,-2.69629 1.44825,-0.41113 3.49219,-0.30957 6.13868,0.29395 1.61425,0.3789 2.70507,0.47949 3.28222,0.30859 0.57715,-0.1709 0.97363,-0.49219 1.19336,-0.95117 0.23535,-0.48438 0.23145,-1.01367 -0.01,-1.58106 -0.24415,-0.57324 -0.75489,-1.04297 -1.52832,-1.41601 -1.042,-0.50098 -2.01563,-0.5293 -2.91993,-0.0772 -0.56054,0.28222 -1.10058,0.81836 -1.61914,1.61426 l -5.0166,-2.81739 c 1.0166,-1.72461 2.37988,-2.89062 4.09375,-3.5 1.71582,-0.61425 4.06738,-0.19629 7.05762,1.24121 1.7041,0.82032 2.99707,1.74903 3.87695,2.78418 0.88477,1.03614 1.40625,2.18653 1.56348,3.45215 0.16015,1.25977 -0.0303,2.46485 -0.57813,3.60352 -0.46875,0.97558 -1.1289,1.74023 -1.97265,2.29687 z" /><path
         inkscape:connector-curvature="0"
         id="path102"
         style="fill:#2b973f;fill-opacity:1;fill-rule:nonzero;stroke:none"
         d="m 357.4209,371.11133 c -1.50098,0.20019 -3.12695,-0.35156 -4.88184,-1.65039 l -8.05957,-5.96875 11.75489,-15.875 4.86914,3.60742 -4.36133,5.89062 2.65234,1.96387 c 1.9541,1.44824 3.0752,2.97559 3.36231,4.58496 0.28515,1.60645 -0.16797,3.21094 -1.35547,4.81543 -1.15332,1.55469 -2.48242,2.43653 -3.98047,2.63184 m -0.26758,-7.95117 c -0.13672,-0.61036 -0.66894,-1.25684 -1.60449,-1.94922 l -1.1875,-0.88086 -2.62305,3.54199 1.38184,1.02344 c 0.90527,0.66992 1.65332,0.95312 2.23535,0.84668 0.58398,-0.0996 1.06152,-0.40332 1.43164,-0.90235 0.37793,-0.50976 0.5,-1.07226 0.36621,-1.67968 z" /><path
         inkscape:connector-curvature="0"
         id="path104"
         style="fill:#2b973f;fill-opacity:1;fill-rule:nonzero;stroke:none"
         d="m 387.51758,391.77734 c 0.3623,0.167 0.98535,0.23731 1.86426,0.21582 l 6.84277,-0.12402 3.32031,5.95606 -6.42187,0.23925 c -0.32325,0.0186 -0.81446,-0.0312 -1.48535,-0.14257 -0.667,-0.11036 -1.12598,-0.22461 -1.37207,-0.33692 -0.37598,-0.1709 -0.84278,-0.50879 -1.40528,-1.01855 0.25879,0.88086 0.37403,1.62402 0.35254,2.22851 -0.042,0.94629 -0.29492,1.81543 -0.76465,2.60645 -0.47168,0.78808 -1.18164,1.45117 -2.1416,1.98535 -1.09668,0.61133 -2.17383,0.86816 -3.23242,0.76465 -1.06055,-0.0996 -1.9707,-0.50293 -2.73242,-1.20801 -0.7627,-0.69922 -1.59864,-1.86719 -2.50489,-3.49512 l -4.89746,-8.78613 17.25391,-9.61426 2.95019,5.29395 -7.00097,3.90136 0.25781,0.46485 c 0.26856,0.48047 0.64258,0.83984 1.11719,1.06933 m -2.85449,4.03223 c -0.22852,-0.7793 -0.41016,-1.28516 -0.54395,-1.52441 l -1.23926,-2.22364 -3.50586,1.95313 1.28907,2.31738 c 0.53711,0.96094 1.0498,1.5332 1.54589,1.71289 0.49122,0.1836 1.01465,0.12207 1.57325,-0.18945 0.37793,-0.21094 0.64941,-0.50586 0.8164,-0.88672 0.16602,-0.38281 0.18653,-0.76953 0.0645,-1.15918 z" /><path
         inkscape:connector-curvature="0"
         id="path106"
         style="fill:#2b973f;fill-opacity:1;fill-rule:nonzero;stroke:none"
         d="m 275.85449,351.51367 c -0.94043,0.73438 -2.26465,1.31934 -3.97558,1.75098 l -8.69336,2.19433 -4.83106,-19.15332 8.69336,-2.19238 c 1.04102,-0.26367 2.24805,-0.38281 3.61914,-0.35742 1.00196,0.0176 2.00781,0.30371 3.01563,0.86035 1.01172,0.55078 1.88867,1.33594 2.63183,2.34766 0.74805,1.01172 1.37696,2.54101 1.89453,4.58886 0.32911,1.30567 0.48633,2.58106 0.47266,3.82618 -0.0186,1.24609 -0.25879,2.39453 -0.72363,3.45019 -0.4668,1.05176 -1.16992,1.94531 -2.10352,2.68457 m -3.55176,-8.5957 c -0.38671,-1.5332 -0.8125,-2.60742 -1.27636,-3.21484 -0.4668,-0.6084 -0.99414,-0.98829 -1.57813,-1.13086 -0.58594,-0.14551 -1.4873,-0.0596 -2.71386,0.24902 l -1.43262,0.3623 2.63965,10.46094 1.45898,-0.36914 c 1.5166,-0.38184 2.50684,-1.03027 2.97461,-1.94531 0.46289,-0.91406 0.43945,-2.38281 -0.0723,-4.41211 z" /><path
         inkscape:connector-curvature="0"
         id="path108"
         style="fill:#2b973f;fill-opacity:1;fill-rule:nonzero;stroke:none"
         d="m 320.23926,337.64941 -0.85645,3.79297 9.15821,2.06739 -0.88672,3.92968 -9.15918,-2.0664 -0.69043,3.06347 9.87304,2.22852 -0.92871,4.11328 -15.77148,-3.55762 4.34668,-19.26855 16.05957,3.62305 -0.98438,4.36523 z" /><path
         inkscape:connector-curvature="0"
         id="path110"
         style="fill:#2b973f;fill-opacity:1;fill-rule:nonzero;stroke:none"
         d="m 280.08008,331.38379 6.00781,-0.67969 2.22363,19.62598 -6.00879,0.67969 z" /><path
         inkscape:connector-curvature="0"
         id="path112"
         style="fill:#2b973f;fill-opacity:1;fill-rule:nonzero;stroke:none"
         d="m 303.86523,350.11719 -3.79687,-6.75196 -4.08594,6.58008 -6.69922,-0.14648 7.85352,-11.30957 0.17871,-8.27051 6.0459,0.13086 -0.17969,8.27051 7.34082,11.6416 z" /><path
         inkscape:connector-curvature="0"
         id="path114"
         style="fill:#ffffff;fill-opacity:1;fill-rule:nonzero;stroke:none"
         d="m 297.20508,557.91357 8.19336,-0.5791 0.48047,6.80127 -8.19239,0.57959 z" /><path
         inkscape:connector-curvature="0"
         id="path116"
         style="fill:#ffffff;fill-opacity:1;fill-rule:nonzero;stroke:none"
         d="m 337.62012,531.74512 c 0.48633,1.69482 0.50195,3.34619 0.0605,4.94922 -0.43847,1.60986 -1.44726,3.13232 -3.01562,4.58203 -1.56641,1.44824 -4.33301,3.23486 -8.30664,5.34961 -1.61524,0.8457 -2.58692,1.53125 -2.92871,2.07422 -0.35352,0.53076 -0.46192,1.03857 -0.32031,1.5288 0.19433,0.67774 0.64355,1.17286 1.34863,1.47901 0.70703,0.31347 1.61914,0.30127 2.75,-0.0229 1.36523,-0.3916 2.34765,-1.01709 2.94043,-1.86719 0.59961,-0.8584 0.81836,-2.02246 0.66015,-3.48389 l 9.28223,-2.09228 c 0.51953,3.32666 -0.0566,6.02881 -1.73633,8.10449 -1.68066,2.07471 -4.52734,3.68799 -8.53418,4.83789 -3.26269,0.93555 -5.94824,1.26758 -8.05664,0.99805 -2.1084,-0.27783 -3.8291,-0.98682 -5.16797,-2.1333 -1.34179,-1.146 -2.24023,-2.52002 -2.69824,-4.11475 -0.69531,-2.4248 -0.35351,-4.67822 1.02246,-6.76709 1.36035,-2.08496 4.03223,-4.20215 8.00781,-6.36572 2.4375,-1.30859 3.91602,-2.38037 4.44922,-3.22022 0.53223,-0.84033 0.67676,-1.6621 0.44532,-2.46289 -0.24024,-0.84521 -0.82715,-1.48095 -1.75489,-1.91015 -0.93652,-0.42627 -2.09375,-0.43799 -3.47363,-0.0425 -1.85156,0.53222 -3.10547,1.5625 -3.73828,3.10302 -0.38867,0.95508 -0.47559,2.19727 -0.24805,3.73438 l -9.38183,2.07373 c -0.62793,-3.20898 -0.20704,-6.11865 1.26953,-8.73584 1.46679,-2.62402 4.87207,-4.69287 10.20019,-6.22119 3.03516,-0.87109 5.67871,-1.16065 7.91895,-0.86621 2.24804,0.29248 4.16797,1.11621 5.75976,2.47998 1.58985,1.35596 2.67774,3.02685 3.2461,5.01172 z" /><path
         inkscape:connector-curvature="0"
         id="path118"
         style="fill:#ffffff;fill-opacity:1;fill-rule:nonzero;stroke:none"
         d="m 401.93555,496.40967 c -0.41407,1.67383 -1.45313,3.83642 -3.09961,6.47949 l -8.88281,14.25635 -27.36329,-17.04981 5.35254,-8.59179 11.1045,6.91845 0.4707,-0.75341 c 0.48535,-0.7793 0.71289,-1.61377 0.67383,-2.4878 -0.04,-0.65967 -0.42578,-1.61572 -1.14161,-2.8667 l -5.51757,-9.78125 6.02343,-9.66748 5.35352,9.08057 c 0.27637,0.44971 0.58887,1.19824 0.95508,2.2583 0.35937,1.05566 0.55078,1.81104 0.58105,2.25928 0.0449,0.68017 -0.0791,1.63232 -0.375,2.86133 1.07129,-1.09571 2.05664,-1.86817 2.94727,-2.3335 1.39844,-0.71094 2.85351,-1.05713 4.36426,-1.02832 1.50683,0.0361 3.01855,0.521 4.54199,1.46973 1.73926,1.083 2.95117,2.42968 3.62793,4.0415 0.68359,1.61523 0.80859,3.25879 0.38379,4.93506 M 391.89648,495.604 c -0.60058,-0.37451 -1.24121,-0.52295 -1.92089,-0.45459 -0.68262,0.0747 -1.25977,0.36084 -1.72657,0.85596 -0.94726,0.96777 -1.53808,1.64551 -1.77929,2.03174 l -2.24903,3.60937 5.5625,3.46582 2.33985,-3.75683 c 0.97265,-1.56006 1.39941,-2.77002 1.27441,-3.63526 -0.11816,-0.86083 -0.61621,-1.56542 -1.50098,-2.11621 z" /><path
         inkscape:connector-curvature="0"
         id="path120"
         style="fill:#ffffff;fill-opacity:1;fill-rule:nonzero;stroke:none"
         d="m 363.375,540.96875 -29.37109,-18.08252 8.16211,-6.27783 4.49707,3.25537 9.09863,-7.00049 -1.97363,-5.19531 8.35742,-6.43018 9.93945,33.03174 -8.70996,6.69922 m -5.03418,-21.29053 -5.69922,4.38379 9.90723,7.00244 z" /><path
         inkscape:connector-curvature="0"
         id="path122"
         style="fill:#ffffff;fill-opacity:1;fill-rule:nonzero;stroke:none"
         d="m 240.11719,551.67383 -10.92188,-7.75537 -1.56347,-16.05371 -7.05371,9.93359 -8.21583,-5.83447 18.667,-26.28711 8.21582,5.83447 -4.55957,6.4209 1.12695,7.41016 13.2832,-6.83643 10.12207,7.18848 -21.74804,9.18359 z" /><path
         inkscape:connector-curvature="0"
         id="path124"
         style="fill:#ffffff;fill-opacity:1;fill-rule:nonzero;stroke:none"
         d="m 295.24219,530.16846 8.19336,-0.57959 1.5957,22.56884 -8.19141,0.57959 z" /><path
         inkscape:connector-curvature="0"
         id="path126"
         style="fill:#ffffff;fill-opacity:1;fill-rule:nonzero;stroke:none"
         d="m 190.2627,504.87646 19.083,-28.73193 5.99317,8.37207 -3.40918,4.38233 6.68359,9.33593 5.25977,-1.79492 6.13965,8.57666 -33.3545,8.79444 -6.3955,-8.93458 m 21.45214,-4.29882 -4.18652,-5.84717 -7.33887,9.66113 z" /><path
         inkscape:connector-curvature="0"
         id="path128"
         style="fill:#ffffff;fill-opacity:1;fill-rule:nonzero;stroke:none"
         d="m 275.63574,560.91699 1.92285,-11.1167 -10.85742,-1.87793 -1.92187,11.11817 -9.92969,-1.7168 5.49414,-31.77051 9.92871,1.71778 -2.22168,12.84863 10.85645,1.87646 2.22265,-12.84814 9.97266,1.7251 -5.49219,31.76855 z" /><path
         inkscape:connector-curvature="0"
         id="path130"
         style="fill:#ffffff;fill-opacity:1;fill-rule:nonzero;stroke:none"
         d="m 305.17383,303.69434 c -0.9541,0 -1.69531,-0.38868 -2.2334,-1.16895 -0.53418,-0.7793 -0.80371,-1.86328 -0.80371,-3.25879 0,-1.40625 0.26562,-2.49609 0.7959,-3.27344 0.53027,-0.77539 1.27148,-1.16503 2.22461,-1.16503 0.94043,0 1.67968,0.38476 2.21679,1.15527 0.53907,0.7666 0.80664,1.83105 0.80664,3.1914 0,1.45215 -0.26074,2.56739 -0.77929,3.34864 -0.52149,0.78027 -1.26367,1.1709 -2.22754,1.1709 m 1.22168,-6.85352 c -0.28321,-0.54297 -0.70215,-0.81348 -1.2627,-0.81348 -0.52246,0 -0.92676,0.27832 -1.20898,0.83496 -0.28028,0.55567 -0.41992,1.35254 -0.41992,2.39454 0,1.07031 0.13964,1.8789 0.42382,2.42773 0.28321,0.54883 0.70118,0.82422 1.25879,0.82422 0.53028,0 0.93555,-0.27539 1.21289,-0.82617 0.27735,-0.55176 0.417,-1.35059 0.417,-2.4043 0,-1.08105 -0.14161,-1.89355 -0.4209,-2.4375 z" /><path
         inkscape:connector-curvature="0"
         id="path132"
         style="fill:#ffffff;fill-opacity:1;fill-rule:nonzero;stroke:none"
         d="m 295.37012,302.42578 h 3.88476 l -3.43164,-7.18945 1.1084,-0.50195 4.22852,8.79003 h -5.79004 z" /><path
         inkscape:connector-curvature="0"
         id="path134"
         style="fill:#ffffff;fill-opacity:1;fill-rule:nonzero;stroke:none"
         d="m 290.98535,303.69434 c -0.89453,0 -1.61328,-0.26954 -2.16015,-0.80567 -0.54493,-0.53808 -0.81641,-1.24512 -0.81641,-2.12695 0,-0.80469 0.24219,-1.46582 0.72754,-1.98047 0.48633,-0.51367 1.10547,-0.77148 1.85937,-0.77148 0.18848,0 0.37305,0.0215 0.55469,0.0645 0.17969,0.043 0.36133,0.11035 0.53711,0.20019 l -2.41602,-3.21875 1.03223,-0.53711 1.47949,2.11329 0.14453,0.20898 c 1.22852,1.75293 1.8418,3.08789 1.8418,4.00195 0,0.85254 -0.25488,1.54102 -0.76562,2.06641 -0.51172,0.52441 -1.1836,0.78516 -2.01856,0.78516 m 1.04492,-4.08008 c -0.28222,-0.32031 -0.64843,-0.48047 -1.0957,-0.48047 -0.49707,0 -0.88769,0.15234 -1.16992,0.45703 -0.2832,0.30566 -0.42383,0.72852 -0.42383,1.26465 0,0.52539 0.14453,0.94141 0.43262,1.24414 0.28808,0.30469 0.68359,0.45605 1.18457,0.45605 0.44726,0 0.80957,-0.15527 1.08301,-0.46679 0.27734,-0.3125 0.41406,-0.72364 0.41406,-1.2334 0,-0.50684 -0.1416,-0.91797 -0.42481,-1.24121 z" /><path
         inkscape:connector-curvature="0"
         id="path136"
         style="fill:#ffffff;fill-opacity:1;fill-rule:nonzero;stroke:none"
         d="m 281.67676,302.42578 h 1.74023 v -7.37012 h 1.24512 v 8.46875 h -2.45606 z" /><path
         inkscape:connector-curvature="0"
         id="path138"
         style="fill:#ffffff;fill-opacity:1;fill-rule:nonzero;stroke:none"
         d="m 304.56836,313.98047 c 0.25488,0.19336 0.45312,0.46289 0.59766,0.80469 0.14257,0.34472 0.21386,0.71679 0.21386,1.12207 0,0.40625 -0.0713,0.77636 -0.21386,1.11328 -0.14454,0.33496 -0.34278,0.60449 -0.59766,0.80176 -0.20508,0.15625 -0.44727,0.26953 -0.72559,0.33691 -0.27734,0.0674 -0.71093,0.10254 -1.29882,0.10254 h -1.98633 v -8.55078 h 1.23047 v 3.83789 h 0.49707 0.25879 c 0.58789,0 1.02148,0.0332 1.29882,0.0986 0.27832,0.0664 0.52051,0.17676 0.72559,0.33301 m -2.36035,0.70605 h -0.33789 v 2.38184 h 0.33789 c 0.69336,0 1.17285,-0.0928 1.42969,-0.2793 0.25976,-0.18554 0.39062,-0.50879 0.39062,-0.96484 0,-0.42481 -0.12012,-0.71875 -0.36328,-0.88672 -0.24414,-0.16699 -0.72949,-0.25098 -1.45703,-0.25098 z" /><path
         inkscape:connector-curvature="0"
         id="path140"
         style="fill:#ffffff;fill-opacity:1;fill-rule:nonzero;stroke:none"
         d="m 320.86133,314.29785 c 0.33789,0.38867 0.50781,0.92578 0.50781,1.60938 0,0.39062 -0.0742,0.74609 -0.2207,1.07422 -0.14942,0.32714 -0.3584,0.59375 -0.62891,0.80175 -0.22851,0.1709 -0.5039,0.292 -0.82324,0.36524 -0.32129,0.0742 -0.77441,0.11328 -1.35645,0.11328 h -1.98535 v -8.55078 h 1.33496 v 3.82617 h 0.16016 l 2.91504,-3.82617 h 1.6084 l -3.01563,3.88867 c 0.66113,0.0781 1.16406,0.31055 1.50391,0.69824 m -3.08203,0.31836 v 2.45215 h 0.25683 c 0.7168,0 1.20899,-0.0957 1.47461,-0.28906 0.26465,-0.19434 0.39746,-0.52442 0.39746,-0.99512 0,-0.43555 -0.12402,-0.73828 -0.37207,-0.91016 -0.24609,-0.17187 -0.74609,-0.25781 -1.5,-0.25781 z" /><path
         inkscape:connector-curvature="0"
         id="path142"
         style="fill:#ffffff;fill-opacity:1;fill-rule:nonzero;stroke:none"
         d="m 313.58691,317.15234 c -0.41211,0.42383 -0.87793,0.74903 -1.39843,0.96778 -0.51953,0.22168 -1.06934,0.33398 -1.65137,0.33398 -0.58594,0 -1.13867,-0.1123 -1.66113,-0.33398 -0.52149,-0.21875 -0.98828,-0.54395 -1.40039,-0.96778 -0.41309,-0.42871 -0.72461,-0.91211 -0.93653,-1.45605 -0.21289,-0.53906 -0.32226,-1.11524 -0.32226,-1.72656 0,-0.61621 0.10937,-1.19336 0.32226,-1.7295 0.21192,-0.53808 0.52344,-1.01855 0.93653,-1.44335 0.40429,-0.4209 0.87011,-0.74415 1.39843,-0.97266 0.52832,-0.22656 1.08106,-0.3418 1.66309,-0.3418 0.57324,0 1.12207,0.11524 1.64355,0.33985 0.52051,0.22558 0.99024,0.5498 1.40625,0.97461 0.41211,0.4248 0.72559,0.90722 0.94141,1.44921 0.21484,0.54102 0.32129,1.11524 0.32129,1.72364 0,0.60254 -0.10645,1.1748 -0.32129,1.71972 -0.21582,0.542 -0.5293,1.03125 -0.94141,1.46289 m -0.3291,-4.40722 c -0.14941,-0.38867 -0.3623,-0.73438 -0.64258,-1.03809 -0.2832,-0.30469 -0.60253,-0.53418 -0.95605,-0.69433 -0.35352,-0.16016 -0.72949,-0.23926 -1.12207,-0.23926 -0.40039,0 -0.7793,0.0791 -1.13477,0.23926 -0.35839,0.16015 -0.67675,0.38964 -0.95507,0.69433 -0.27832,0.30371 -0.49317,0.64942 -0.63965,1.03418 -0.14844,0.38574 -0.22168,0.7959 -0.22168,1.22852 0,0.43359 0.0732,0.84668 0.22168,1.2373 0.14648,0.38867 0.36133,0.7334 0.63965,1.0332 0.27832,0.30469 0.59863,0.53516 0.95703,0.69532 0.35644,0.16015 0.73437,0.23828 1.13281,0.23828 0.39648,0 0.77344,-0.0801 1.13379,-0.24219 0.35742,-0.16211 0.67383,-0.3916 0.94433,-0.69141 0.28028,-0.30273 0.49317,-0.65136 0.64258,-1.04003 0.14746,-0.39063 0.22364,-0.80079 0.22364,-1.23047 0,-0.42871 -0.0762,-0.83887 -0.22364,-1.22461 z" /><path
         inkscape:connector-curvature="0"
         id="path144"
         style="fill:#ffffff;fill-opacity:1;fill-rule:nonzero;stroke:none"
         d="m 289.23145,311.27734 -1.1504,0.64258 c -0.21875,-0.41015 -0.47363,-0.71094 -0.76855,-0.89551 -0.29199,-0.18554 -0.65918,-0.27832 -1.09961,-0.27832 -0.49512,0 -0.89258,0.15821 -1.18848,0.47071 -0.29882,0.31445 -0.46386,0.74902 -0.49902,1.30957 h 4.76856 v 0.25781 c 0,0.99316 -0.26856,1.76465 -0.80567,2.31543 -0.53613,0.55176 -1.28613,0.82715 -2.24512,0.82715 -0.91894,0 -1.66992,-0.30078 -2.2539,-0.90528 -0.58594,-0.60546 -0.87793,-1.37304 -0.87793,-2.3125 0,-0.97656 0.2832,-1.75585 0.85058,-2.34082 0.56348,-0.58398 1.32715,-0.87597 2.28125,-0.87597 0.66797,0 1.24707,0.14648 1.74317,0.44043 0.49414,0.29492 0.91113,0.74414 1.24512,1.34472 m -4.04493,3.16114 c 0.27344,0.21777 0.63379,0.32715 1.08301,0.32715 0.47363,0 0.8457,-0.11231 1.11817,-0.3379 0.27343,-0.22363 0.4375,-0.55078 0.49218,-0.97949 h -3.26562 c 0.10937,0.44043 0.2998,0.76953 0.57226,0.99024 z" /><path
         inkscape:connector-curvature="0"
         id="path146"
         style="fill:#ffffff;fill-opacity:1;fill-rule:nonzero;stroke:none"
         d="m 298.40039,310.19824 c 0.48145,0.47754 0.72266,1.1211 0.72266,1.93067 0,0.55566 -0.14844,1.0205 -0.44532,1.39257 -0.29882,0.3711 -0.84765,0.75293 -1.6455,1.14258 -0.04,0.0186 -0.0937,0.0459 -0.16407,0.082 -0.91308,0.44239 -1.36914,0.9209 -1.36914,1.43555 0,0.32813 0.10352,0.58789 0.3125,0.7832 0.20703,0.19336 0.48731,0.292 0.83985,0.292 0.25097,0 0.47363,-0.0615 0.66406,-0.18848 0.19434,-0.12305 0.37207,-0.31934 0.5332,-0.58789 l 1.02637,0.56055 c -0.15332,0.45507 -0.43066,0.80468 -0.83203,1.04882 -0.40039,0.24317 -0.90039,0.36426 -1.49609,0.36426 -0.72364,0 -1.30958,-0.21582 -1.75391,-0.64648 -0.44824,-0.4336 -0.67188,-0.99805 -0.67188,-1.69532 0,-0.5371 0.14942,-0.99316 0.44434,-1.36425 0.2959,-0.37305 0.88965,-0.78711 1.77734,-1.24707 0.0606,-0.0264 0.14356,-0.0713 0.25489,-0.12793 0.78613,-0.39258 1.17968,-0.8418 1.17968,-1.34375 0,-0.38575 -0.11523,-0.69239 -0.34472,-0.9209 -0.22949,-0.22949 -0.54004,-0.3457 -0.92969,-0.3457 -0.41113,0 -0.74902,0.0996 -1.01465,0.30078 -0.26367,0.19922 -0.44629,0.49023 -0.5459,0.87207 l -1.04785,-0.51367 c 0.13574,-0.62208 0.42481,-1.10157 0.86328,-1.43653 0.43946,-0.33496 1.00391,-0.50293 1.69141,-0.50293 0.81933,0 1.46875,0.24024 1.95117,0.71582 z" /><path
         inkscape:connector-curvature="0"
         id="path148"
         style="fill:#ffffff;fill-opacity:1;fill-rule:nonzero;stroke:none"
         d="m 356.41992,314.24219 c 0.34863,0.12109 0.61231,0.33496 0.79688,0.63965 0.17968,0.30468 0.27148,0.68554 0.27148,1.14257 0,0.38086 -0.0625,0.7295 -0.19043,1.04395 -0.125,0.31641 -0.30371,0.57031 -0.53222,0.7666 -0.17969,0.15137 -0.39649,0.26074 -0.65137,0.32617 -0.25293,0.0654 -0.64649,0.10059 -1.18262,0.10059 h -1.86719 v -8.55078 h 1.87891 c 0.70898,0 1.21289,0.0478 1.51465,0.14551 0.2998,0.0967 0.5498,0.26464 0.75195,0.50097 0.19434,0.21875 0.34277,0.48242 0.44727,0.7959 0.10449,0.3125 0.15722,0.64063 0.15722,0.98633 0,0.57226 -0.125,1.0459 -0.37207,1.42285 -0.24804,0.375 -0.58886,0.60156 -1.02246,0.67969 m -2.1748,2.86328 h 0.45996 c 0.61133,0 1.02539,-0.0937 1.24609,-0.28418 0.21875,-0.18945 0.32813,-0.51758 0.32813,-0.98438 0,-0.42773 -0.12012,-0.73339 -0.35742,-0.91406 -0.23731,-0.18262 -0.64258,-0.27246 -1.2168,-0.27246 h -0.45996 v 2.45508 m 2.20215,-5.51563 c -0.0811,-0.18945 -0.19629,-0.34277 -0.34473,-0.4541 -0.12207,-0.0976 -0.28613,-0.16406 -0.49609,-0.20508 -0.20801,-0.0371 -0.5254,-0.0576 -0.94629,-0.0576 h -0.41504 v 2.72656 h 0.41504 0.36328 c 0.24316,0 0.43847,-0.0156 0.58496,-0.0459 0.14746,-0.0322 0.27832,-0.0791 0.39258,-0.14648 0.18164,-0.11231 0.32031,-0.27051 0.41894,-0.47364 0.0996,-0.20117 0.14746,-0.44043 0.14746,-0.71191 0,-0.23047 -0.0391,-0.43945 -0.12011,-0.63184 z" /><path
         inkscape:connector-curvature="0"
         id="path150"
         style="fill:#ffffff;fill-opacity:1;fill-rule:nonzero;stroke:none"
         d="m 350.26172,313.07031 c 0,-0.77246 -0.13574,-1.35058 -0.41016,-1.73926 -0.27539,-0.38671 -0.68359,-0.58007 -1.22656,-0.58007 -0.54492,0 -0.9541,0.19336 -1.22852,0.58007 -0.27539,0.38868 -0.4121,0.9668 -0.4121,1.73926 v 5.19141 h -1.05567 v -5.32227 c 0,-1.16015 0.22168,-2.02441 0.66895,-2.59668 0.44531,-0.57324 1.12304,-0.86035 2.02929,-0.86035 0.90332,0 1.58106,0.28711 2.03223,0.86231 0.4502,0.57422 0.67383,1.43945 0.67383,2.59472 v 5.32227 h -1.07129 z" /><path
         inkscape:connector-curvature="0"
         id="path152"
         style="fill:#ffffff;fill-opacity:1;fill-rule:nonzero;stroke:none"
         d="m 363.60156,318.26172 v -5.19141 c 0,-0.77246 -0.13476,-1.35058 -0.40918,-1.73926 -0.27246,-0.38671 -0.67871,-0.58007 -1.21777,-0.58007 -0.54102,0 -0.94922,0.19336 -1.22266,0.58007 -0.27148,0.38868 -0.4082,0.9668 -0.4082,1.73926 v 5.19141 h -1.04883 v -5.32227 c 0,-1.16015 0.22168,-2.02441 0.66504,-2.59668 0.44336,-0.57324 1.11719,-0.86035 2.0166,-0.86035 0.89844,0 1.57227,0.28711 2.01758,0.86231 0.44824,0.57422 0.6709,1.43945 0.6709,2.59472 v 5.32227 z" /><path
         inkscape:connector-curvature="0"
         id="path154"
         style="fill:#ffffff;fill-opacity:1;fill-rule:nonzero;stroke:none"
         d="m 337.94434,313.07031 c 0,-0.77246 -0.13965,-1.35058 -0.42481,-1.73926 -0.2832,-0.38671 -0.70508,-0.58007 -1.26758,-0.58007 -0.56347,0 -0.98632,0.19336 -1.2705,0.58007 -0.28418,0.38868 -0.42481,0.9668 -0.42481,1.73926 v 5.19141 h -1.0918 v -5.32227 c 0,-1.16015 0.2295,-2.02441 0.69239,-2.59668 0.46093,-0.57324 1.16015,-0.86035 2.0957,-0.86035 0.93457,0 1.63672,0.28711 2.10156,0.86231 0.46485,0.57422 0.69531,1.43945 0.69531,2.59472 v 5.32227 h -1.10546 z" /><path
         inkscape:connector-curvature="0"
         id="path156"
         style="fill:#ffffff;fill-opacity:1;fill-rule:nonzero;stroke:none"
         d="m 332.5918,318.26172 h -1.55371 l -2.80567,-3.53906 v 3.53906 h -1.26855 v -8.55078 h 1.26855 v 4.36719 l 3.08789,-4.36719 h 1.63867 l -3.46289,4.74902 z" /><path
         inkscape:connector-curvature="0"
         id="path158"
         style="fill:#ffffff;fill-opacity:1;fill-rule:nonzero;stroke:none"
         d="m 341.65234,318.26172 h -1.17578 v -8.55078 h 3.80567 v 1.24316 h -2.62989 z" /><path
         inkscape:connector-curvature="0"
         id="path160"
         style="fill:#ffffff;fill-opacity:1;fill-rule:nonzero;stroke:none"
         d="m 233.02832,313.99805 h -3.12402 v -1.14551 h 1.89648 v -0.11914 c 0,-0.62402 -0.20996,-1.11426 -0.63086,-1.47559 -0.41992,-0.3584 -0.99512,-0.54101 -1.72949,-0.54101 -0.85938,0 -1.56055,0.29492 -2.10156,0.88183 -0.54004,0.58496 -0.80957,1.34961 -0.80957,2.292 0,0.92578 0.26953,1.67773 0.80957,2.25781 0.54101,0.5791 1.23828,0.86816 2.09082,0.86816 0.41406,0 0.78808,-0.0801 1.12207,-0.23926 0.33301,-0.1582 0.63281,-0.40234 0.89844,-0.72851 l 0.9375,0.74707 c -0.38379,0.49414 -0.82129,0.85937 -1.30957,1.09863 -0.49122,0.23828 -1.04688,0.35938 -1.66895,0.35938 -0.58691,0 -1.14063,-0.10547 -1.65723,-0.31348 -0.51855,-0.20996 -0.96972,-0.5127 -1.35351,-0.91113 -0.39942,-0.40625 -0.69922,-0.875 -0.90137,-1.40723 -0.2041,-0.53223 -0.30469,-1.11328 -0.30469,-1.74219 0,-0.61816 0.0996,-1.20019 0.29981,-1.74316 0.19824,-0.54395 0.48535,-1.0166 0.8584,-1.41992 0.38086,-0.40528 0.82421,-0.70801 1.3291,-0.91016 0.50781,-0.20117 1.08301,-0.30176 1.72949,-0.30176 1.15723,0 2.05273,0.32422 2.6875,0.97364 0.63574,0.64941 0.95312,1.55859 0.95312,2.73339 0,0.0957 -0.005,0.27539 -0.0166,0.54688 -0.003,0.10254 -0.005,0.18262 -0.005,0.23926 z" /><path
         inkscape:connector-curvature="0"
         id="path162"
         style="fill:#ffffff;fill-opacity:1;fill-rule:nonzero;stroke:none"
         d="m 234.82324,309.72656 h 4.60547 v 1.21289 h -3.26465 v 2.69532 h 3.26465 v 1.19043 h -3.26465 v 2.08886 h 3.26465 v 1.15137 h -4.60547 z" /><path
         inkscape:connector-curvature="0"
         id="path164"
         style="fill:#ffffff;fill-opacity:1;fill-rule:nonzero;stroke:none"
         d="m 347.26563,319.33203 c 0.15625,0 0.28515,0.0547 0.38574,0.16113 0.10058,0.10938 0.14941,0.2461 0.14941,0.41309 0,0.15625 -0.0508,0.28906 -0.1582,0.39746 -0.10352,0.10645 -0.22949,0.16211 -0.37695,0.16211 -0.14551,0 -0.27247,-0.0566 -0.38282,-0.16699 -0.10547,-0.11231 -0.16015,-0.24317 -0.16015,-0.39258 0,-0.16309 0.0527,-0.29883 0.1582,-0.40918 0.10449,-0.11035 0.23242,-0.16504 0.38477,-0.16504 z" /><path
         inkscape:connector-curvature="0"
         id="path166"
         style="fill:#ffffff;fill-opacity:1;fill-rule:nonzero;stroke:none"
         d="m 246.48145,312.28223 c -0.13965,0.20605 -0.27247,0.39257 -0.39844,0.55371 -0.12598,0.16406 -0.25098,0.31836 -0.375,0.46094 l -4.52051,5.09863 v -8.66895 h 1.06445 v 5.79785 c 0.10352,-0.17187 0.21289,-0.333 0.33008,-0.49023 0.11328,-0.15625 0.23242,-0.30273 0.35645,-0.44336 l 4.61328,-5.18945 v 8.66406 h -1.07031 z" /><path
         inkscape:connector-curvature="0"
         id="path168"
         style="fill:#ffffff;fill-opacity:1;fill-rule:nonzero;stroke:none"
         d="m 360.62402,319.33203 c 0.15528,0 0.28223,0.0547 0.38379,0.16113 0.0967,0.10938 0.14746,0.2461 0.14746,0.41309 0,0.15625 -0.0517,0.28906 -0.15625,0.39746 -0.10449,0.10645 -0.22851,0.16211 -0.375,0.16211 -0.14453,0 -0.27246,-0.0566 -0.38086,-0.16699 -0.10644,-0.11231 -0.1582,-0.24317 -0.1582,-0.39258 0,-0.16309 0.0498,-0.29883 0.15625,-0.40918 0.10352,-0.11035 0.23145,-0.16504 0.38281,-0.16504 z" /><path
         inkscape:connector-curvature="0"
         id="path170"
         style="fill:#ffffff;fill-opacity:1;fill-rule:nonzero;stroke:none"
         d="m 349.98145,319.33203 c 0.15625,0 0.28222,0.0547 0.38476,0.16113 0.10059,0.10938 0.15039,0.2461 0.15039,0.41309 0,0.15625 -0.0518,0.28906 -0.15918,0.39746 -0.10254,0.10645 -0.22851,0.16211 -0.37597,0.16211 -0.14551,0 -0.27442,-0.0566 -0.38282,-0.16699 -0.1084,-0.11231 -0.16113,-0.24317 -0.16113,-0.39258 0,-0.16309 0.0527,-0.29883 0.1582,-0.40918 0.1045,-0.11035 0.23438,-0.16504 0.38575,-0.16504 z" /><path
         inkscape:connector-curvature="0"
         id="path172"
         style="fill:#ffffff;fill-opacity:1;fill-rule:nonzero;stroke:none"
         d="m 363.32129,319.33203 c 0.15625,0 0.28223,0.0547 0.38476,0.16113 0.0967,0.10938 0.14844,0.2461 0.14844,0.41309 0,0.15625 -0.0518,0.28906 -0.15722,0.39746 -0.1045,0.10645 -0.22852,0.16211 -0.37598,0.16211 -0.14356,0 -0.27051,-0.0566 -0.37793,-0.16699 -0.1084,-0.11231 -0.16113,-0.24317 -0.16113,-0.39258 0,-0.16309 0.0508,-0.29883 0.1582,-0.40918 0.10352,-0.11035 0.23047,-0.16504 0.38086,-0.16504 z" /><path
         inkscape:connector-curvature="0"
         id="path174"
         style="fill:#ffffff;fill-opacity:1;fill-rule:nonzero;stroke:none"
         d="m 272.91992,318.06543 h -1.61328 l -2.91406,-3.45117 v 3.45117 h -1.31934 v -8.33887 h 1.31934 v 4.25879 l 3.20703,-4.25879 h 1.70215 l -3.59668,4.63086 z" /><path
         inkscape:connector-curvature="0"
         id="path176"
         style="fill:#ffffff;fill-opacity:1;fill-rule:nonzero;stroke:none"
         d="m 263.97266,319.10449 h 1.15527 v 1.44043 h -1.15527 z" /><path
         inkscape:connector-curvature="0"
         id="path178"
         style="fill:#ffffff;fill-opacity:1;fill-rule:nonzero;stroke:none"
         d="m 281.21387,315.71875 -1.29785,-3.00977 c -0.0791,-0.18066 -0.14747,-0.36328 -0.20313,-0.54003 -0.0566,-0.17969 -0.10547,-0.35743 -0.14941,-0.53809 -0.0615,0.25586 -0.12305,0.47559 -0.18164,0.66113 -0.0576,0.18457 -0.10938,0.3252 -0.15039,0.41699 l -1.30274,3.00977 h -1.49023 l 3.125,-6.3418 3.13281,6.3418 z" /><path
         inkscape:connector-curvature="0"
         id="path180"
         style="fill:#ffffff;fill-opacity:1;fill-rule:nonzero;stroke:none"
         d="m 259.86426,318.06543 h -1.34082 v -8.33887 h 4.33984 v 1.21289 h -2.99902 z" /><path
         inkscape:connector-curvature="0"
         id="path182"
         style="fill:#ffffff;fill-opacity:1;fill-rule:nonzero;stroke:none"
         d="m 263.97266,309.72656 h 1.15527 v 8.33887 h -1.15527 z" /><path
         inkscape:connector-curvature="0"
         id="path184"
         style="fill:#ffffff;fill-opacity:1;fill-rule:nonzero;stroke:none"
         d="m 253.81152,309.21973 h 0.0879 c 0.38086,0 0.66602,-0.0801 0.85352,-0.24512 0.19043,-0.16211 0.28516,-0.41016 0.28516,-0.73731 0,-0.3125 -0.10547,-0.55468 -0.31446,-0.72265 -0.208,-0.16699 -0.51172,-0.25 -0.90136,-0.25 -0.16797,0 -0.36133,0.0166 -0.58301,0.0537 -0.22168,0.0352 -0.46778,0.0908 -0.73535,0.16699 v 0.59766 c 0.27441,-0.0703 0.51367,-0.12305 0.71386,-0.15821 0.20118,-0.0332 0.37598,-0.0498 0.52246,-0.0498 0.17774,0 0.3086,0.0322 0.39356,0.0957 0.0859,0.0654 0.12793,0.16114 0.12793,0.28907 0,0.14648 -0.0547,0.2539 -0.16016,0.32031 -0.1084,0.0654 -0.28222,0.0976 -0.52051,0.0976 -0.0244,0 -0.0576,-0.002 -0.10156,-0.006 -0.0439,-0.004 -0.0801,-0.006 -0.1084,-0.006 v 0.84082 c -0.54199,0.0215 -1.05468,0.11132 -1.52636,0.29296 -0.53125,0.20899 -0.99903,0.51368 -1.40235,0.91602 -0.40039,0.39746 -0.70703,0.86426 -0.92285,1.40039 -0.21387,0.53711 -0.32129,1.11035 -0.32129,1.71777 0,0.60743 0.10742,1.17676 0.32129,1.70899 0.21582,0.53613 0.52637,1.00391 0.9336,1.40723 0.40722,0.40625 0.87402,0.71484 1.40234,0.9248 0.52539,0.21094 1.0957,0.31445 1.70801,0.31445 0.48144,0 0.94043,-0.0713 1.37793,-0.21191 0.43652,-0.1416 0.86132,-0.35547 1.27246,-0.6416 l -0.0732,-1.36035 c -0.37598,0.32519 -0.7754,0.56836 -1.19434,0.73046 -0.4209,0.16114 -0.86231,0.24415 -1.32617,0.24415 -0.89746,0 -1.62598,-0.29102 -2.1875,-0.8711 -0.5625,-0.58203 -0.84375,-1.33496 -0.84375,-2.25879 0,-0.89258 0.27343,-1.62988 0.82031,-2.21093 0.54785,-0.58204 1.23828,-0.8711 2.07227,-0.8711 0.48339,0 0.94628,0.0869 1.38671,0.26074 0.4375,0.17383 0.8584,0.4336 1.26172,0.78614 v -1.52246 c -0.35742,-0.25977 -0.75,-0.45215 -1.16992,-0.58106 -0.35644,-0.1084 -0.74219,-0.16113 -1.14844,-0.17773 v -0.28418 z" /></g></g></svg>