<?xml version="1.0" encoding="UTF-8" standalone="no"?>
<svg
   xmlns:dc="http://purl.org/dc/elements/1.1/"
   xmlns:cc="http://creativecommons.org/ns#"
   xmlns:rdf="http://www.w3.org/1999/02/22-rdf-syntax-ns#"
   xmlns:svg="http://www.w3.org/2000/svg"
   xmlns="http://www.w3.org/2000/svg"
   viewBox="0 0 189.87493 252"
   height="252"
   width="189.87492"
   xml:space="preserve"
   id="svg2"
   version="1.1"><metadata
     id="metadata8"><rdf:RDF><cc:Work
         rdf:about=""><dc:format>image/svg+xml</dc:format><dc:type
           rdf:resource="http://purl.org/dc/dcmitype/StillImage" /><dc:title></dc:title></cc:Work></rdf:RDF></metadata><defs
     id="defs6"><clipPath
       id="clipPath18"
       clipPathUnits="userSpaceOnUse"><path
         id="path16"
         d="M 0,870.236 H 1218.896 V 0 H 0 Z" /></clipPath><clipPath
       id="clipPath38"
       clipPathUnits="userSpaceOnUse"><path
         id="path36"
         d="M 364.047,659.745 365.8,623.826 C 296.917,360.714 576.441,147.554 576.441,147.554 v 0 c 296.023,236.442 210.642,476.105 210.642,476.105 v 0 l -1.984,32.634 c -143.268,1.377 -209.921,77.054 -209.921,77.054 v 0 C 498.546,654.316 364.047,659.745 364.047,659.745" /></clipPath><clipPath
       id="clipPath56"
       clipPathUnits="userSpaceOnUse"><path
         id="path54"
         d="M 0,870.236 H 1218.896 V 0 H 0 Z" /></clipPath></defs><g
     transform="matrix(1.3333333,0,0,-1.3333333,-450.23292,417.96146)"
     id="g10"><g
       transform="matrix(0.29716199,0,0,0.29716199,237.85774,88.010149)"
       id="g183"><g
         id="g12"><g
           id="g14"
           clip-path="url(#clipPath18)"><g
             id="g20"
             transform="translate(351.1475,641.502)"><path
               d="m 0,0 v 32.074 c 0,0 140.783,-6.908 223.441,76.734 0,0 67.806,-76.004 222.337,-77.461 l 1.486,-32.075 c 0,0 92.067,-253.326 -223.021,-509.427 0,0 -293.459,236.541 -224.243,510.155"
               style="fill:#ffffff;fill-opacity:1;fill-rule:nonzero;stroke:none"
               id="path22" /></g><g
             id="g24"
             transform="translate(575.3247,125.2471)"><path
               d="m 0,0 c 100.68,79.705 160.058,161.552 194.204,235.82 34.153,74.268 43.072,140.913 43.069,190.198 -0.002,53.579 -10.52,86.66 -10.612,86.954 l -3.765,-1.201 3.948,0.161 -1.57,38.451 -3.758,0.034 c -78.309,0.709 -133.029,20.168 -168.177,39.347 -17.571,9.591 -30.247,19.119 -38.5,26.214 -4.126,3.546 -7.147,6.485 -9.12,8.518 -0.987,1.016 -1.712,1.806 -2.182,2.332 -0.235,0.263 -0.407,0.461 -0.516,0.587 l -0.116,0.137 -0.023,0.027 -0.075,-0.063 0.076,0.063 H 2.882 l -0.075,-0.063 0.076,0.063 -2.779,3.364 -3.073,-3.098 c -17.635,-17.783 -37.63,-31.49 -58.235,-42.048 -30.904,-15.839 -63.181,-24.573 -90.712,-29.325 -27.529,-4.754 -50.302,-5.531 -62.176,-5.53 -2.88,0 -5.118,0.045 -6.629,0.09 -0.755,0.023 -1.328,0.045 -1.709,0.062 -0.19,0.008 -0.332,0.015 -0.424,0.019 l -0.101,0.006 -0.025,10e-4 -4.174,0.235 v -39.584 h 3.951 l -3.757,1.224 c -0.099,-0.306 -9.938,-30.616 -9.94,-80.993 -0.003,-47.575 8.792,-113.058 42.858,-187.916 C -159.979,169.228 -100.655,85.03 0.209,-0.026 l 5.095,6.041 c -100.067,84.393 -158.595,167.608 -192.153,241.344 -33.553,73.739 -42.147,138.034 -42.149,184.643 0,24.673 2.412,44.384 4.812,57.891 1.2,6.753 2.397,11.955 3.289,15.449 0.445,1.748 0.814,3.068 1.068,3.942 0.128,0.437 0.226,0.762 0.292,0.974 0.032,0.105 0.057,0.182 0.072,0.231 l 0.016,0.051 0.003,0.009 -0.917,0.297 0.917,-0.299 v 0.002 l -0.917,0.297 0.917,-0.299 0.194,0.597 v 36.031 h -3.951 l -0.223,-3.945 c 0.067,-0.003 3.409,-0.19 9.334,-0.19 16.291,0.003 52.099,1.405 93.039,11.976 20.469,5.288 42.223,12.871 63.452,23.748 21.227,10.877 41.932,25.052 60.243,43.516 l -2.806,2.783 -3.046,-2.517 c 0.251,-0.303 16.557,-19.955 52.763,-39.718 36.199,-19.765 92.301,-39.604 171.892,-40.312 l 0.035,3.95 -3.948,-0.161 1.439,-35.227 0.161,-0.508 0.545,0.174 -0.545,-0.173 v -0.001 l 0.545,0.174 -0.545,-0.173 c 0.069,-0.213 10.242,-32.424 10.24,-84.553 C 229.369,377.678 220.64,312.227 187.025,239.122 153.403,166.018 94.895,85.217 -4.905,6.195 Z"
               style="fill:#2151a8;fill-opacity:1;fill-rule:nonzero;stroke:none"
               id="path26" /></g><g
             id="g28"
             transform="translate(575.4966,142.0264)"><path
               d="m 0,0 c 95.231,75.265 151.409,152.618 183.72,222.852 32.316,70.231 40.763,133.302 40.761,179.985 -0.002,50.858 -10.007,82.284 -10.094,82.562 l -3.56,-1.137 3.734,0.153 -1.483,36.34 -3.556,0.032 c -74.128,0.669 -125.927,19.058 -159.199,37.181 -16.634,9.064 -28.632,18.068 -36.444,24.772 -3.906,3.352 -6.765,6.129 -8.633,8.05 -0.934,0.96 -1.621,1.707 -2.065,2.204 -0.223,0.248 -0.385,0.435 -0.488,0.554 l -0.11,0.129 -0.022,0.026 -0.069,-0.057 0.07,0.057 H 2.561 l -0.069,-0.057 0.07,0.057 -2.627,3.174 -2.904,-2.922 c -16.694,-16.805 -35.621,-29.758 -55.128,-39.736 -29.255,-14.967 -59.81,-23.222 -85.871,-27.712 -26.06,-4.493 -47.617,-5.227 -58.858,-5.226 -2.725,0 -4.844,0.043 -6.274,0.085 -0.715,0.022 -1.257,0.043 -1.617,0.058 -0.18,0.008 -0.315,0.014 -0.402,0.019 l -0.096,0.005 -0.024,10e-4 -3.947,0.222 v -37.409 h 3.737 l -3.553,1.159 c -0.093,-0.289 -9.456,-29.097 -9.457,-76.935 -0.003,-45.076 8.327,-107.059 40.562,-177.855 32.23,-70.798 88.355,-150.375 183.758,-230.691 l 4.814,5.717 c -94.647,79.689 -150.017,158.335 -181.77,228.071 -31.748,69.737 -39.888,130.595 -39.891,174.758 0,23.43 2.295,42.156 4.579,54.989 1.142,6.417 2.282,11.36 3.13,14.681 0.423,1.66 0.775,2.916 1.017,3.746 0.121,0.416 0.215,0.725 0.277,0.926 0.031,0.101 0.054,0.174 0.068,0.22 l 0.016,0.048 0.003,0.009 -0.865,0.28 0.865,-0.281 v 0.001 l -0.865,0.28 0.865,-0.281 0.184,0.564 v 34.05 h -3.737 l -0.21,-3.731 c 0.062,-0.003 3.225,-0.18 8.833,-0.18 15.42,0.003 49.316,1.328 88.069,11.317 19.376,4.997 39.969,12.163 60.064,22.441 20.093,10.278 39.692,23.674 57.026,41.123 l -2.651,2.633 -2.879,-2.382 c 0.238,-0.287 15.673,-18.858 49.944,-37.534 34.265,-18.677 87.369,-37.423 162.709,-38.092 l 0.033,3.737 -3.733,-0.153 1.358,-33.291 0.154,-0.481 0.003,-0.009 c 0.214,-0.677 9.739,-31.185 9.737,-80.279 -0.002,-45.79 -8.271,-107.73 -40.078,-176.861 C 145.117,156.845 89.764,80.481 -4.635,5.863 Z"
               style="fill:#2151a8;fill-opacity:1;fill-rule:nonzero;stroke:none"
               id="path30" /></g></g></g><g
         id="g32"><g
           id="g34"
           clip-path="url(#clipPath38)"><path
             d="M 423.1,147.313 H 379.764 V 410.218 H 423.1 Z"
             style="fill:#2151a8;fill-opacity:1;fill-rule:nonzero;stroke:none"
             id="path40" /><path
             d="m 510.495,145.868 h -43.336 v 263.736 h 43.336 z"
             style="fill:#2151a8;fill-opacity:1;fill-rule:nonzero;stroke:none"
             id="path42" /><path
             d="m 597.902,147.313 h -43.348 v 262.905 h 43.348 z"
             style="fill:#2151a8;fill-opacity:1;fill-rule:nonzero;stroke:none"
             id="path44" /><path
             d="M 685.3,147.313 H 641.964 V 410.218 H 685.3 Z"
             style="fill:#2151a8;fill-opacity:1;fill-rule:nonzero;stroke:none"
             id="path46" /><path
             d="M 772.697,149.614 H 729.361 V 412.52 h 43.336 z"
             style="fill:#2151a8;fill-opacity:1;fill-rule:nonzero;stroke:none"
             id="path48" /></g></g><g
         id="g50"><g
           id="g52"
           clip-path="url(#clipPath56)"><g
             id="g58"
             transform="translate(775.2085,408.7744)"><path
               d="m 0,0 9.318,28.761 2.557,14.495 -421.284,-10e-4 5.395,-17.006 11.357,-25.829 z"
               style="fill:#2151a8;fill-opacity:1;fill-rule:nonzero;stroke:none"
               id="path60" /></g><g
             id="g62"
             transform="translate(551.9883,480.7163)"><path
               d="m 0,0 c 0,0 -2.004,-1.641 -3.971,1.03 0,0 -7.965,-0.596 -8.611,1.398 0,0 -3.648,0.031 -4.96,1.702 0,0 -5.968,0.382 -5.942,3.367 0,0 -4.628,1.696 -4.283,3.354 0,0 -4.324,-1.291 -3.938,5.007 0,0 -3.321,-0.636 -4.964,1.369 0,0 -4.637,0.703 -4.937,4.354 0,0 -3.654,-0.633 -3.289,3.344 0,0 -4.3,1.363 -4.266,5.344 0,0 -5.295,1.371 -3.941,4.675 0,0 -6.29,1.381 -4.937,4.356 0,0 -5.614,2.7 -4.6,5.013 0,0 -3.64,1.358 -3.282,4.34 0,0 -4.956,2.365 -3.274,5.002 1.681,2.639 0.337,0.662 0.337,0.662 0,0 -5.636,0.377 -3.609,4.673 2.029,4.295 0.339,0.66 0.339,0.66 0,0 -5.321,-1.609 -5.925,5.359 0,0 -4.624,2.36 -4.584,7.004 0,0 -3.322,-0.635 -3.274,5.003 0,0 -18.895,1.154 -20.182,5.809 0,0 -1.636,2.668 0.351,2.319 0,0 -9.577,4.726 -9.902,5.723 -0.323,0.997 0.36,3.314 2.682,3.293 0,0 -13.526,8.407 -13.848,9.736 0,0 -0.322,0.998 2.008,1.974 l -0.978,1.998 c 0,0 -12.215,6.736 -11.865,9.057 0.353,2.318 3.002,1.964 6.968,0.272 0,0 0.673,0.989 -0.974,2.329 -1.648,1.342 -12.204,8.064 -13.474,14.708 0,0 7.62,-1.059 16.197,-6.44 0,0 5.955,-1.708 4.312,-0.036 -1.644,1.673 -16.806,12.747 -16.09,19.043 0,0 11.548,-7.065 18.488,-10.108 0,0 2.319,-0.352 1.334,0.984 -0.984,1.335 -13.44,18.688 -10.693,29.608 0,0 1.704,5.625 3.99,1.294 0,0 10.115,-19.654 13.095,-20.343 0,0 -0.268,7.628 -0.919,8.962 0,0 0.355,2.651 2.654,-0.023 2.297,-2.673 18.742,-19.062 27.986,-24.117 0,0 15.835,-10.083 19.798,-11.778 3.967,-1.691 41.941,-21.584 46.226,-24.604 4.287,-3.02 16.184,-8.098 12.126,-17.017 0,0 -10.704,-10.855 -3.786,-16.221 0,0 7.219,-9.347 18.916,1.167 0,0 -0.696,3.141 1.758,6.667 0,0 1.692,4.072 1.813,7.576 0,0 0.584,5.384 1.841,10.492 0,0 1.685,8.069 -4.651,12.792 0,0 -1.975,0.511 -4.624,0.263 0,0 -1.701,0.778 -0.843,1.489 0.861,0.71 4.704,3.419 6.635,3.762 1.938,0.344 3.194,0.603 4.271,0.369 0,0 1.046,1.832 1.765,2.049 0.722,0.219 8.957,1.362 13.84,-5.372 0,0 4.586,-4.664 4.485,-11.487 0,0 0.366,-20.168 0.585,-20.751 0.22,-0.586 1.955,-2.983 1.718,-9.403 0,0 5.131,-9.427 13.776,-1.778 0,0 7.282,5.775 6.829,10.945 0,0 0.336,2.468 -0.91,3.87 -1.241,1.402 -5.617,4.942 -4.816,9.381 0.802,4.439 4.432,8.631 10.438,12.621 0,0 5.185,3.523 6.62,4.346 1.438,0.82 36.586,16.123 39.094,17.293 2.511,1.169 28.217,12.741 48.126,29.363 0,0 9.639,13.019 10.701,11.94 0,0 2.029,0.219 -0.794,-9.285 0,0 -0.255,-2.021 2.633,1.527 2.89,3.549 6.746,8.994 7.478,10.893 0.73,1.9 2.555,6.648 3.152,6.763 0.596,0.114 2.719,-2.525 2.682,-6.93 0,0 -0.704,-12.619 -10.32,-23.019 0,0 -9.729,-9.683 1.75,-4.3 0,0 8.96,3.138 15.433,7.846 0,0 4.437,3.654 3.215,0.211 0,0 -4.587,-6.988 -18.604,-16.873 0,0 -2.164,-2.363 1.061,-1.32 3.226,1.046 14.584,5.952 16.488,6.054 1.905,0.103 1.785,0.104 1.54,-0.727 -0.245,-0.832 -1.602,-6.657 -12.248,-11.924 0,0 -8.489,-4.335 -6.827,-4.587 1.664,-0.253 7.154,1.487 7.869,1.122 0,0 0.948,-0.604 -1.692,-3.082 0,0 -3.497,-4.971 -11.62,-7.76 0,0 -5.024,-2.578 -0.373,-1.904 4.652,0.675 3.695,0.327 3.573,-0.148 -0.122,-0.476 -5.302,-6.745 -15.81,-10.228 0,0 -0.843,-1.183 0.345,-1.55 1.188,-0.367 5.823,-1.599 -3.86,-5.566 0,0 -6.807,-2.323 -5.737,-2.69 1.067,-0.367 2.258,-0.257 2.375,-0.735 0.115,-0.478 -0.253,-1.665 -3.842,-3.301 -3.583,-1.638 -4.421,-1.988 -6.21,-2.21 -1.787,-0.225 -12.037,-0.971 -12.633,-0.966 -0.594,0.005 -0.514,-4.164 -3.367,-4.02 0,0 2.357,-2.877 -3.865,-6.279 0,0 3.563,-0.863 -3.145,-5.57 0,0 1.894,-1.684 -2.78,-4.861 0,0 2.353,-3.354 -4.575,-5.676 0,0 -0.514,-4.643 -4.452,-5.442 0,0 0.079,-4.764 -4.806,-4.961 0,0 2.929,-5.386 -5.293,-6.148 0,0 -0.401,-0.688 0.241,-1.627 0.061,-0.09 0.136,-0.186 0.22,-0.283 0.945,-1.08 -0.739,-2.614 -3.834,-2.827 0,0 0.427,-5.243 -4.086,-4.253 0,0 0.203,-4.408 -3.722,-3.66 0,0 -0.508,-3.447 -4.909,-2.814 0,0 -0.035,-4.526 -5.389,-3.647 0,0 -0.033,-3.811 -3.957,-2.825 0,0 -0.515,-4.998 -5.745,-3.762 0,0 -1.237,-5.111 -5.028,-2.696 0,0 -0.032,-4.049 -5.024,-2.697 0,0 -2.425,-4.861 -7.053,-2.441 0,0 -5.745,-3.167 -7.756,-1.244 -2.007,1.923 -11.088,-15.032 -1.134,-21.427 0,0 -20.549,7.677 -33.127,-1.031 0,0 5.266,23.655 -3.398,23.848"
               style="fill:#2151a8;fill-opacity:1;fill-rule:nonzero;stroke:none"
               id="path64" /></g><g
             id="g66"
             transform="translate(433.8926,428.3975)"><path
               d="M 0,0 H 3.729 C 3.193,1.778 2.658,3.382 2.123,4.811 1.589,6.24 0.897,7.969 0.047,10 -1.305,6.762 -2.581,3.459 -3.774,0.096 Z m -8.294,-1.561 c 0.755,1.76 1.706,4.11 2.855,7.052 1.147,2.938 2.107,5.449 2.878,7.524 0.77,2.076 1.597,4.308 2.477,6.698 l 2.359,-0.132 2.359,0.132 C 6.773,13.738 8.833,8.094 10.815,2.778 12.798,-2.537 14.81,-7.629 16.854,-12.504 l -4.529,0.141 -4.624,-0.141 -0.991,3.113 -1.839,5.709 c -1.101,0 -2.218,0.016 -3.351,0.047 -1.131,0.031 -2.25,0.063 -3.35,0.096 l -3.302,-0.143 c -0.913,-2.83 -1.935,-5.77 -3.068,-8.822 l -3.066,0.141 -1.747,-0.141 z"
               style="fill:#ffffff;fill-opacity:1;fill-rule:nonzero;stroke:none"
               id="path68" /></g><g
             id="g70"
             transform="translate(457.02,430.9932)"><path
               d="m 0,0 c 0,1.791 -0.04,4.072 -0.119,6.84 -0.078,2.768 -0.117,4.372 -0.117,4.813 l -0.143,4.906 2.977,-0.189 3.113,0.258 C 8.574,12.996 11.482,9.451 14.439,5.99 17.397,2.531 20.4,-0.82 23.451,-4.061 v 8.73 c 0,1.354 -0.054,3.414 -0.161,6.182 -0.107,2.768 -0.16,4.67 -0.16,5.708 0.659,-0.062 1.145,-0.11 1.459,-0.142 0.314,-0.031 0.644,-0.047 0.988,-0.047 0.503,0 0.911,0.017 1.226,0.052 0.313,0.035 0.768,0.103 1.365,0.206 -0.157,-1.008 -0.283,-2.086 -0.378,-3.235 -0.095,-1.149 -0.141,-2.29 -0.141,-3.424 0,-3.116 -0.016,-6.248 -0.046,-9.397 -0.03,-3.148 -0.061,-6.282 -0.091,-9.398 0,-0.85 0.024,-1.731 0.071,-2.644 0.046,-0.914 0.131,-2.124 0.255,-3.635 -0.44,0.064 -0.945,0.119 -1.51,0.168 -0.565,0.048 -0.991,0.072 -1.272,0.072 -0.599,0 -1.094,-0.024 -1.488,-0.071 -0.393,-0.046 -0.825,-0.102 -1.297,-0.164 -2.831,3.428 -5.787,6.928 -8.869,10.498 -3.081,3.57 -6.196,7.069 -9.341,10.498 V -6.895 l 0.247,-8.21 c -0.314,0.029 -0.686,0.078 -1.112,0.142 -0.425,0.067 -0.828,0.098 -1.207,0.098 -0.568,0 -1.027,-0.024 -1.372,-0.071 -0.348,-0.046 -0.727,-0.102 -1.137,-0.164 0.189,2.389 0.323,4.748 0.401,7.075 C -0.04,-5.695 0,-3.021 0,0"
               style="fill:#ffffff;fill-opacity:1;fill-rule:nonzero;stroke:none"
               id="path72" /></g><g
             id="g74"
             transform="translate(510.5264,418.3447)"><path
               d="m 0,0 c 3.275,0 5.667,1.373 7.179,4.127 1.511,2.751 2.266,5.904 2.266,9.457 0,3.428 -0.755,6.478 -2.266,9.15 -1.512,2.675 -3.857,4.01 -7.036,4.01 -3.307,0 -5.715,-1.335 -7.226,-4.01 -1.512,-2.672 -2.268,-5.802 -2.268,-9.386 0,-3.459 0.756,-6.549 2.268,-9.269 C -5.572,1.359 -3.211,0 0,0 m 0.518,29.766 c 5.128,0 9.29,-1.353 12.482,-4.058 3.193,-2.704 4.791,-6.588 4.791,-11.649 0,-5.474 -1.629,-9.68 -4.884,-12.621 -3.257,-2.94 -7.67,-4.409 -13.238,-4.409 -5.411,0 -9.667,1.383 -12.767,4.15 -3.098,2.766 -4.648,6.825 -4.648,12.172 0,5.25 1.684,9.299 5.049,12.146 3.368,2.846 7.771,4.269 13.215,4.269"
               style="fill:#ffffff;fill-opacity:1;fill-rule:nonzero;stroke:none"
               id="path76" /></g><g
             id="g78"
             transform="translate(551.5435,438.6353)"><path
               d="m 0,0 c 0,1.636 -0.422,2.988 -1.268,4.058 -0.845,1.068 -2.08,1.604 -3.704,1.604 H -6.885 V 0.86 -6.224 c 2.295,0 4.016,0.486 5.165,1.461 C -0.573,-3.789 0,-2.201 0,0 m -6.885,-15.898 c 0,-1.196 0.016,-2.008 0.048,-2.434 0.031,-0.423 0.172,-1.896 0.422,-4.416 -0.685,0 -1.542,0.04 -2.57,0.122 -1.027,0.08 -1.619,0.119 -1.774,0.119 -0.685,0 -1.543,-0.039 -2.571,-0.119 -1.028,-0.082 -1.622,-0.122 -1.775,-0.122 0.22,2.555 0.371,4.967 0.451,7.239 0.078,2.271 0.117,5.095 0.117,8.47 0,1.988 -0.094,4.968 -0.285,8.943 -0.188,3.975 -0.283,6.325 -0.283,7.051 0.472,0 1.267,-0.045 2.387,-0.136 1.118,-0.091 1.724,-0.136 1.819,-0.136 l 6.131,0.272 h 1.696 c 3.271,0 5.896,-0.644 7.876,-1.932 1.982,-1.288 2.971,-3.487 2.971,-6.597 0,-2.641 -0.829,-4.847 -2.49,-6.623 -1.66,-1.775 -3.329,-2.756 -5.007,-2.943 -1.675,-0.19 -3.05,-0.3 -4.127,-0.33 -1.075,-0.031 -2.086,-0.049 -3.036,-0.049 z"
               style="fill:#ffffff;fill-opacity:1;fill-rule:nonzero;stroke:none"
               id="path80" /></g><g
             id="g82"
             transform="translate(583.3306,433.7236)"><path
               d="M 0,0 C 1.007,0 2.274,0.038 3.804,0.115 5.33,0.194 6.202,0.234 6.423,0.234 L 6.411,0.47 6.392,-1.799 v -2.363 l 0.031,0.15 -6.514,0.246 -6.466,-0.246 -0.008,2.123 v 2.123 c 0.977,0 2.244,-0.038 3.802,-0.117 C -1.203,0.038 -0.282,0 0,0 m -0.227,-15.379 c 3.274,0 5.685,1.373 7.23,4.127 1.541,2.751 2.313,5.904 2.313,9.457 0,3.428 -0.753,6.478 -2.266,9.15 -1.513,2.675 -3.862,4.01 -7.042,4.01 -3.307,0 -5.714,-1.335 -7.228,-4.01 -1.512,-2.672 -2.268,-5.802 -2.268,-9.386 0,-3.426 0.749,-6.509 2.242,-9.242 1.498,-2.739 3.837,-4.106 7.019,-4.106 M -17.51,2.027 c 0.786,3.995 2.881,7.054 6.281,9.175 3.4,2.124 7.269,3.185 11.616,3.185 5.097,0 9.262,-1.353 12.488,-4.058 3.227,-2.704 4.84,-6.571 4.84,-11.602 0,-5.442 -1.643,-9.649 -4.936,-12.62 -3.288,-2.972 -7.7,-4.457 -13.243,-4.457 -5.414,0 -9.672,1.383 -12.774,4.15 -3.1,2.766 -4.651,6.825 -4.651,12.172 0,0.596 0.017,1.1 0.051,1.508 0.031,0.409 0.139,1.259 0.328,2.547"
               style="fill:#ffffff;fill-opacity:1;fill-rule:nonzero;stroke:none"
               id="path84" /></g><g
             id="g86"
             transform="translate(645.8569,420.2744)"><path
               d="m 0,0 c -0.064,-0.281 -0.094,-0.572 -0.094,-0.871 v -0.682 -0.426 -1.177 c 0,-0.377 0.047,-0.785 0.14,-1.225 l -7.498,0.149 -8.111,-0.149 v 3.492 c 2.229,1.352 3.733,3.034 4.519,5.044 0.782,2.013 1.175,4.529 1.175,7.548 0,3.395 -0.77,6.429 -2.311,9.102 -1.54,2.674 -3.898,4.009 -7.074,4.009 -3.303,0 -5.691,-1.375 -7.17,-4.126 -1.477,-2.752 -2.215,-5.935 -2.215,-9.553 0,-2.672 0.434,-5.061 1.297,-7.168 0.869,-2.108 2.309,-3.726 4.324,-4.858 v -3.49 l -8.119,0.149 -7.508,-0.149 0.082,2.736 L -38.645,0 c 2.606,-0.378 5.184,-0.567 7.728,-0.567 -2.069,1.225 -3.599,2.878 -4.587,4.954 -0.985,2.076 -1.482,4.404 -1.482,6.982 0,5.19 1.709,9.233 5.118,12.126 3.411,2.893 7.79,4.341 13.134,4.341 5.091,0 9.244,-1.336 12.451,-4.01 3.207,-2.674 4.81,-6.512 4.81,-11.512 0,-2.894 -0.543,-5.38 -1.628,-7.453 -1.084,-2.075 -2.821,-3.884 -5.21,-5.425 2.738,0 5.506,0.189 8.311,0.564"
               style="fill:#ffffff;fill-opacity:1;fill-rule:nonzero;stroke:none"
               id="path88" /></g><g
             id="g90"
             transform="translate(676.0669,445.2876)"><path
               d="m 0,0 0.143,-2.081 c -0.82,0 -2.063,0.051 -3.728,0.149 -1.668,0.1 -2.958,0.148 -3.869,0.148 h -5.38 c 1.317,-1.793 2.581,-3.476 3.792,-5.049 1.209,-1.576 2.488,-3.212 3.84,-4.912 -2.199,-2.265 -4.365,-4.579 -6.502,-6.94 l -3.305,-3.826 h 8.143 c 0.941,0 2.385,0.065 4.33,0.198 1.943,0.132 3.403,0.197 4.374,0.197 l -0.233,-3.451 c 0,-1.196 0.078,-2.474 0.233,-3.827 l -11.7,0.148 -14.91,-0.148 v 1.93 c 2.736,2.832 5.492,5.931 8.255,9.298 l 3.538,4.436 c -1.508,2.233 -3.123,4.458 -4.834,6.674 -1.713,2.219 -3.61,4.57 -5.686,7.056 v 2.253 c 1.416,0 3.539,-0.045 6.37,-0.135 2.83,-0.091 4.971,-0.137 6.418,-0.137 1.792,0 4.043,0.046 6.747,0.137 2.703,0.09 4.074,0.135 4.107,0.135 z"
               style="fill:#ffffff;fill-opacity:1;fill-rule:nonzero;stroke:none"
               id="path92" /></g><g
             id="g94"
             transform="translate(686.6255,429.5811)"><path
               d="m 0,0 c 0,4.69 -0.042,8.239 -0.12,10.647 -0.078,2.408 -0.228,4.857 -0.451,7.344 0.693,-0.076 1.457,-0.152 2.29,-0.231 0.832,-0.079 1.501,-0.118 2.004,-0.118 0.567,0 1.376,0.054 2.429,0.164 1.054,0.111 1.74,0.165 2.052,0.165 C 7.991,15.424 7.843,12.985 7.766,10.657 7.69,8.33 7.65,5.481 7.65,2.114 c 0,-3.145 0.041,-5.905 0.119,-8.28 0.08,-2.376 0.231,-4.885 0.453,-7.527 -0.537,0 -1.451,0.029 -2.743,0.096 -1.291,0.064 -1.955,0.098 -1.986,0.098 l -4.064,-0.194 c 0.187,2.013 0.332,4.279 0.427,6.798 C -0.05,-4.377 0,-2.078 0,0"
               style="fill:#ffffff;fill-opacity:1;fill-rule:nonzero;stroke:none"
               id="path96" /></g><g
             id="g98"
             transform="translate(726.978,445.2876)"><path
               d="m 0,0 0.141,-2.081 c -0.819,0 -2.061,0.051 -3.727,0.149 -1.668,0.1 -2.957,0.148 -3.869,0.148 h -5.379 c 1.318,-1.793 2.582,-3.476 3.791,-5.049 1.21,-1.576 2.49,-3.212 3.842,-4.912 -2.199,-2.265 -4.364,-4.579 -6.502,-6.94 l -3.305,-3.826 h 8.141 c 0.941,0 2.384,0.065 4.331,0.198 1.944,0.132 3.403,0.197 4.376,0.197 l -0.236,-3.451 c 0,-1.196 0.08,-2.474 0.236,-3.827 l -11.699,0.148 -14.912,-0.148 v 1.93 c 2.736,2.832 5.488,5.931 8.256,9.298 l 3.536,4.436 c -1.507,2.233 -3.121,4.458 -4.834,6.674 -1.714,2.219 -3.608,4.57 -5.685,7.056 v 2.253 c 1.416,0 3.539,-0.045 6.369,-0.135 2.832,-0.091 4.971,-0.137 6.418,-0.137 1.793,0 4.043,0.046 6.747,0.137 2.704,0.09 4.072,0.135 4.105,0.135 z"
               style="fill:#ffffff;fill-opacity:1;fill-rule:nonzero;stroke:none"
               id="path100" /></g><g
             id="g102"
             transform="translate(575.4521,704.9019)"><path
               d="m 0,0 8.841,-27.743 29.113,-0.168 -23.657,-16.976 8.843,-27.745 -23.46,17.251 -23.658,-16.977 9.157,27.641 -23.453,17.248 29.114,-0.17 z"
               style="fill:#e4b91c;fill-opacity:1;fill-rule:nonzero;stroke:none"
               id="path104" /></g><g
             id="g106"
             transform="translate(552.5142,453.2998)"><path
               d="m 0,0 135.026,-0.059 c 0,0 -16.834,15.38 -11.128,42.298 0,0 0.285,11.187 -6.563,15.731 0,0 7.42,-16.779 -2.281,-26.568 0,0 -9.416,-8.391 -7.989,-14.333 0,0 -7.705,7.343 -0.857,17.479 0,0 2.569,7.342 -1.141,11.187 0,0 -2.283,6.293 -9.987,6.642 0,0 5.134,-2.447 3.138,-9.089 -1.996,-6.642 -4.85,-13.284 -8.845,-9.439 0,0 -5.421,3.145 -3.423,9.439 0,0 -9.986,-2.448 -4.281,-15.032 0,0 4.279,-16.08 -7.133,-9.788 0,0 5.421,21.675 -6.562,24.47 0,0 5.135,-5.593 2.853,-12.584 0,0 -3.424,-9.09 -6.562,-0.699 0,0 -0.855,3.495 0.857,6.64 0,0 -5.42,-2.095 -4.566,-9.087 0.855,-6.993 -5.136,-11.887 -7.134,-5.594 -1.997,6.294 -1.712,17.131 -14.837,21.324 0,0 12.555,-27.966 -7.989,-25.519 -20.543,2.447 -15.692,18.527 -9.7,17.828 0,0 -11.041,4.173 -19.418,-12.581 0,0 -1.724,-2.71 -2.838,-6.644 C -2.45,12.175 4.188,7.883 0,0"
               style="fill:#ef2e31;fill-opacity:1;fill-rule:nonzero;stroke:none"
               id="path108" /></g><g
             id="g110"
             transform="translate(595.0479,453.2998)"><path
               d="m 0,0 -135.026,-0.059 c 0,0 16.834,15.38 11.128,42.298 0,0 -0.286,11.187 6.562,15.731 0,0 -7.419,-16.779 2.282,-26.568 0,0 9.415,-8.391 7.989,-14.333 0,0 7.704,7.343 0.856,17.479 0,0 -2.568,7.342 1.142,11.187 0,0 2.283,6.293 9.986,6.642 0,0 -5.134,-2.447 -3.138,-9.089 1.996,-6.642 4.85,-13.284 8.845,-9.439 0,0 5.422,3.145 3.424,9.439 0,0 9.986,-2.448 4.28,-15.032 0,0 -4.279,-16.08 7.133,-9.788 0,0 -5.421,21.675 6.563,24.47 0,0 -5.136,-5.593 -2.854,-12.584 0,0 3.424,-9.09 6.563,-0.699 0,0 0.854,3.495 -0.857,6.64 0,0 5.42,-2.095 4.565,-9.087 -0.854,-6.993 5.136,-11.887 7.134,-5.594 1.998,6.294 1.712,17.131 14.837,21.324 0,0 -12.554,-27.966 7.989,-25.519 20.544,2.447 15.693,18.527 9.701,17.828 0,0 11.041,4.173 19.417,-12.581 0,0 1.724,-2.71 2.838,-6.644 C 2.449,12.175 -4.19,7.883 0,0"
               style="fill:#ef2e31;fill-opacity:1;fill-rule:nonzero;stroke:none"
               id="path112" /></g><g
             id="g114"
             transform="translate(442.1304,383.9326)"><path
               d="M 0,0 C 0,0.625 -0.039,1.584 -0.119,2.875 -0.198,4.167 -0.237,5.166 -0.237,5.873 -1.651,5.249 -2.746,4.738 -3.517,4.344 -4.285,3.948 -5.566,3.248 -7.355,2.25 L -9.92,6.188 c 7.083,2.837 13.33,5.628 18.746,8.38 l 1.198,-0.56 -0.258,-21.373 -0.013,0.498 -0.002,-11.758 0.002,0.561 c 0,-1.124 0.078,-2.822 0.236,-5.094 0.158,-2.268 0.238,-3.799 0.238,-4.592 l -5.4,0.24 c -0.63,0 -1.666,-0.041 -3.109,-0.123 -1.443,-0.074 -2.211,-0.117 -2.29,-0.117 0,3.834 0.093,9.232 0.284,16.187 C -0.093,-4.602 0,-0.75 0,0"
               style="fill:#2151a8;fill-opacity:1;fill-rule:nonzero;stroke:none"
               id="path116" /></g><g
             id="g118"
             transform="translate(532.3667,376.9365)"><path
               d="m 0,0 c 1.979,0 3.278,0.835 3.89,2.502 0.609,1.668 0.914,3.687 0.914,6.064 0,2.547 -0.292,4.732 -0.884,6.566 -0.592,1.837 -1.877,2.753 -3.857,2.753 -2.021,0 -3.317,-0.877 -3.888,-2.625 -0.567,-1.752 -0.854,-3.965 -0.854,-6.627 0,-2.338 0.306,-4.359 0.919,-6.07 C -3.146,0.854 -1.893,0 0,0 m -3.563,-4.355 c -3.415,0 -6.154,1.074 -8.213,3.22 -2.063,2.143 -3.093,4.944 -3.093,8.4 0,4.284 1.377,7.68 4.124,10.18 2.752,2.497 6.312,3.748 10.688,3.748 5.205,0 9.099,-1.634 11.683,-4.908 2.586,-3.272 3.878,-7.574 3.878,-12.907 0,-6.713 -1.825,-12.413 -5.47,-17.098 -3.643,-4.69 -8.741,-7.034 -15.277,-7.034 -1.5,0 -2.781,0.129 -3.844,0.377 -1.063,0.248 -2.325,0.584 -3.784,1 0.252,1.006 0.449,1.982 0.597,2.942 0.146,0.964 0.215,1.945 0.215,2.949 l 0.441,0.123 c 0.751,-1.127 1.667,-2.008 2.749,-2.636 1.081,-0.626 2.291,-0.94 3.62,-0.94 3.582,0 6.154,1.625 7.714,4.878 1.559,3.251 2.339,6.876 2.339,10.879 -0.958,-1.121 -2.165,-1.925 -3.621,-2.422 -1.455,-0.5 -3.04,-0.751 -4.746,-0.751"
               style="fill:#2151a8;fill-opacity:1;fill-rule:nonzero;stroke:none"
               id="path120" /></g><g
             id="g122"
             transform="translate(617.853,383.9307)"><path
               d="M 0,0 C 0,0.627 -0.036,1.58 -0.114,2.873 -0.198,4.165 -0.241,5.168 -0.241,5.875 -1.654,5.249 -2.75,4.738 -3.521,4.341 -4.287,3.947 -5.57,3.25 -7.36,2.248 l -2.563,3.94 c 7.084,2.837 13.336,5.63 18.75,8.38 l 1.196,-0.56 -0.261,-21.375 -0.006,0.498 -0.007,-11.758 0.007,0.563 c 0,-1.124 0.078,-2.822 0.234,-5.092 0.155,-2.27 0.233,-3.803 0.233,-4.592 l -5.397,0.236 c -0.629,0 -1.664,-0.041 -3.107,-0.119 -1.444,-0.076 -2.205,-0.117 -2.294,-0.117 0,3.832 0.096,9.229 0.286,16.185 C -0.097,-4.6 0,-0.748 0,0"
               style="fill:#2151a8;fill-opacity:1;fill-rule:nonzero;stroke:none"
               id="path124" /></g><g
             id="g126"
             transform="translate(703.7349,383.9346)"><path
               d="M 0,0 C 0,0.624 -0.043,1.58 -0.12,2.873 -0.203,4.164 -0.239,5.164 -0.239,5.875 -1.659,5.244 -2.749,4.736 -3.521,4.344 -4.294,3.948 -5.569,3.25 -7.367,2.248 l -2.556,3.94 C -2.845,9.021 3.408,11.814 8.82,14.566 L 10.019,14.002 9.762,-7.367 9.747,-6.87 v -11.755 0.557 c 0,-1.121 0.08,-2.819 0.234,-5.09 0.163,-2.27 0.241,-3.799 0.241,-4.594 l -5.396,0.238 c -0.634,0 -1.671,-0.039 -3.114,-0.119 -1.443,-0.074 -2.211,-0.119 -2.293,-0.119 0,3.836 0.102,9.231 0.287,16.19 C -0.103,-4.604 0,-0.75 0,0"
               style="fill:#2151a8;fill-opacity:1;fill-rule:nonzero;stroke:none"
               id="path128" /></g></g></g></g></g></svg>