<?xml version="1.0" encoding="UTF-8"?>
<svg enable-background="new 0 0 587.5 761.7" version="1.1" viewBox="0 0 587.5 761.7" width="277.723070189" height="360.070915001" xml:space="preserve" xmlns="http://www.w3.org/2000/svg" xmlns:v="http://schemas.microsoft.com/visio/2003/SVGExtensions/">
<style type="text/css">
	.st0{fill:#17191D;}
	.st1{fill:#FBBA00;}
	.st2{fill:#970A2C;}
	.st3{fill:#100F0D;}
	.st4{fill:#BCB9B7;}
	.st5{fill:#110F0D;}
	.st6{fill:none;}
</style>
		<path class="st0" d="m577.9 161.1l-2-10.9-10.9-2.3c-0.7-0.2-72.7-15.2-136.7-51-91.3-51.1-122-83.3-122.3-83.6l-12.2-13.3-12.2 13.2c-0.3 0.3-31.1 32.7-122.2 83.7-64 35.7-136 50.8-136.8 51l-10.9 2.3-2 10.9c-12.7 68.3-12.9 137-0.5 204.5l5.5 26.9 1.5 6.2c17.4 70.8 48.2 137 91.6 196.7 47 64.7 106.7 119 177.5 161.3l8.5 5 8.5-5c70.8-42.3 130.5-96.6 177.6-161.3 43.3-59.7 74-125.8 91.5-196.7l7-33.1c12.4-67.5 12.2-136.2-0.5-204.5z"/>
		<path class="st1" d="m561.6 164.1s-74.5-15.4-141.4-52.8c-96.2-53.8-126.4-86.9-126.4-86.9s-30.2 33.1-126.4 86.9c-66.9 37.4-141.4 52.8-141.4 52.8-13.8 73.8-12.2 147.7 3.4 218h528.8c15.5-70.3 17.1-144.2 3.4-218z"/>
		<path class="st2" d="m293.8 742.4c140-83.6 232.2-214.4 264.4-360.2h-528.8c32.2 145.8 124.4 276.6 264.4 360.2z"/>
			<path class="st3" d="m246.1 641.2c-3 0-5.7-0.1-7.7-0.1-1.2 0-2.1-0.1-2.8-0.1-0.6 0-1.6 0-3 0.1-2.2 0.1-5.3 0.1-7.8 0.1-0.6 0-1.2-0.1-1.2-0.7 0-0.4 0.3-0.7 0.6-0.7 0.8 0 3.9-0.2 5.1-0.5 2-0.4 2.2-1.3 2.4-3.2 0.2-2.5 0.4-7.7 0.3-14.3l-0.1-10.1v-8.3c0-1.7-0.1-2.2-0.9-2.2-0.9 0-3.8 1.4-5.7 2.3-0.6 0.3-1.2 0.6-1.5 0.7-0.1 0-0.2 0.1-0.3 0.1-0.2 0.1-0.4 0.2-0.6 0.2s-0.6-0.5-0.6-0.9 0.4-0.7 0.6-0.9c0.1 0 0.5-0.4 1.3-0.9 3.1-2.1 11.5-7.6 13.3-8.9 0.5-0.4 1.1-0.8 1.6-0.8 0.6 0 0.9 0.7 0.9 1.4 0 0.1-0.4 6.2-0.4 16.5v11.8c0 5.9 0 11.5 0.2 14.3 0.2 2 0.5 2.8 2.4 3.3 1 0.2 3.7 0.4 4.2 0.4 0.3 0 0.7 0.3 0.7 0.7 0 0.6-0.3 0.7-1 0.7z"/>
			<path class="st3" d="m263.8 642.5c-0.3 0-0.7-0.4-0.7-0.8 0.1-0.5 0.7-1 0.8-1.1 1.9-1.2 6.6-4.5 10.6-10.6 3.8-5.8 5.7-12.1 5.7-18.8 0-8-3-16.1-9.5-16.1-4.4 0-7.5 4-7.5 9.4 0 9.9 6.6 11.9 8.3 11.9 1.8 0 3.2-0.3 4.3-0.8 0.3-0.1 0.6-0.3 0.8-0.4s0.4-0.2 0.5-0.2c0.3 0 0.6 0.2 0.6 0.6 0.1 0.2-0.1 0.6-0.3 0.8-1.7 1.9-4.7 2.9-8.3 2.9-9.4 0-12.9-7.3-12.9-12.3 0-4.2 1.6-8 4.4-10.7 2.9-2.7 7-4.2 11.7-4.2 4.9 0 9 1.7 11.9 5 2.7 3.1 4.1 7.4 4.1 12.2v0.1c0 7.8-2.9 15.1-8.7 21.6-5.8 6.6-12.6 10.2-14.5 11.1-0.4 0.3-0.8 0.4-1.3 0.4z"/>
			<path class="st3" d="m319.3 641h-24.6c-0.5 0-0.9-0.5-0.9-1 0-0.4 0.4-1 1.2-1.7 0.6-0.5 1.2-1.1 1.8-1.6 8.7-7.6 19.6-17.1 19.6-29.5 0-4.4-1.1-7.7-3.1-9.7-2.1-2.1-4.5-2.3-5.5-2.3-2.9 0-4.8 0.7-6.5 2.3-1.5 1.5-2.7 4.5-2.7 6 0 0.6-0.1 0.9-0.3 1.1-0.1 0.2-0.3 0.2-0.6 0.2s-0.6-0.5-0.7-1.4c0-0.2 0-0.7-0.1-1.4-0.1-1.8-0.2-4.9-0.2-6.2 0-0.6 0.1-0.9 0.7-1.4 3.1-1.6 6.8-2.4 11.4-2.4 9.9 0 15.9 5.1 15.9 13.6 0 12.3-13.5 23.1-21.5 29.6l-0.1 0.1c-0.1 0.1-0.2 0.1-0.2 0.2 0 0 0.1 0.1 0.2 0.1h4.3c2.6 0 8.7 0 10.8-0.3 3.9-0.5 6.2-2.3 7.1-5.6 0.2-0.7 0.3-1.1 0.8-1.1 0.6 0 0.6 0.8 0.6 1.3 0 1-1.2 6.9-1.8 9.1-0.5 1.8-1.6 2-5.6 2z"/>
			<path class="st3" d="m340.9 642.1c-0.7 0-1-0.2-1-0.8 0-0.8 0.1-1.7 0.4-2.6 1.9-6.6 10-25.2 18.4-39.5h-16.1c-1.5 0-4.3 0.2-5.9 1.2-1.1 0.7-1.9 2.8-2.1 3.8 0 0.6-0.3 0.9-0.7 0.9-0.5 0-0.6-0.4-0.6-1.1 0-1.5 0.4-5 0.6-7.6 0.1-1.4 0.3-2.5 0.3-2.8 0-0.6 0.3-0.9 0.8-0.9 0.1 0 0.2 0 0.3 0.1 0.7 0.1 2.7 0.5 8.2 0.5h20.1c1.1 0 1.6 0.2 1.6 0.6s-0.2 0.9-0.4 1.2c-5.2 7.4-15.1 32.6-16 40.9-0.1 0.7-0.1 1.1 0 1.6v0.8c0 1.2-5.2 3.7-7.9 3.7z"/>
			<path class="st4" d="m246.1 638.9c-3 0-5.7-0.1-7.7-0.1-1.2 0-2.1-0.1-2.8-0.1-0.6 0-1.6 0-3 0.1-2.2 0.1-5.3 0.1-7.8 0.1-0.6 0-1.2 0-1.2-0.6 0-0.5 0.3-0.8 0.6-0.8 0.8 0 3.9-0.2 5.1-0.5 2-0.4 2.2-1.3 2.4-3.3 0.2-2.6 0.4-8 0.3-14.2l-0.1-10.1v-8.3c0-1.7-0.1-2.2-0.9-2.2-0.9 0-3.8 1.4-5.7 2.3-0.6 0.3-1.2 0.6-1.5 0.7-0.1 0-0.2 0.1-0.3 0.1-0.2 0.1-0.4 0.2-0.6 0.2s-0.6-0.3-0.6-0.8c0-0.4 0.2-0.7 0.6-1 0.1 0 0.5-0.4 1.3-0.9 3.1-2.1 11.5-7.6 13.3-8.9 0.5-0.4 1.1-0.8 1.6-0.8 0.6 0 0.9 0.7 0.9 1.4 0 0.1-0.4 6.2-0.4 16.5v11.8c0 5.9 0 11.5 0.2 14.2 0.2 2.1 0.5 3 2.4 3.4 1 0.2 3.7 0.4 4.2 0.4 0.3 0 0.7 0.2 0.7 0.8s-0.4 0.6-1 0.6z"/>
			<path class="st4" d="m263.8 640.3c-0.3 0-0.7-0.4-0.7-0.8s0.4-0.8 0.7-1l0.1-0.1c1.9-1.1 6.6-4.4 10.6-10.6 3.8-5.8 5.7-12.1 5.7-18.8 0-8-3-16.1-9.5-16.1-4.4 0-7.5 4-7.5 9.4 0 9.9 6.6 11.9 8.3 11.9 2.1 0 3.4-0.4 4.3-0.7 0.2-0.1 0.3-0.2 0.5-0.3 0.4-0.3 0.6-0.5 0.8-0.5 0.4 0 0.6 0.4 0.6 0.7 0.1 0.2-0.1 0.6-0.3 0.8-1.7 1.9-4.7 2.9-8.3 2.9-9.4 0-12.9-7.3-12.9-12.3 0-4.2 1.6-8 4.4-10.7 2.9-2.7 7-4.2 11.7-4.2 4.9 0 9 1.7 11.9 5 2.7 3.1 4.1 7.4 4.1 12.3v0.1c0 7.8-2.9 15.1-8.7 21.6-5.8 6.6-12.6 10.2-14.5 11.1-0.4 0.1-0.7 0.3-1.3 0.3z"/>
			<path class="st4" d="m319.3 638.8h-24.6c-0.5 0-0.9-0.5-0.9-1 0-0.4 0.4-1 1.2-1.7 0.7-0.6 1.4-1.3 2.2-1.9 8.6-7.5 19.2-16.9 19.2-29.2 0-4.4-1.1-7.7-3.1-9.7-2.1-2.1-4.5-2.3-5.5-2.3-2.9 0-4.8 0.7-6.5 2.3-1.5 1.5-2.7 4.5-2.7 6 0 0.5-0.1 0.9-0.2 1.1s-0.4 0.2-0.6 0.2c-0.3 0-0.6-0.4-0.7-1.3v-0.7c-0.1-1.6-0.3-5.4-0.3-7 0-0.5 0.1-0.8 0.7-1.3 3.1-1.6 6.8-2.4 11.4-2.4 9.9 0 15.9 5.1 15.9 13.6 0 12.3-13.5 23.1-21.6 29.6l-0.1 0.1-0.2 0.2c0 0.1 0.1 0.1 0.2 0.1h4.3c1.3 0 8.6-0.1 10.8-0.4 3.9-0.5 6.2-2.3 7.1-5.6 0.1-0.7 0.4-1.1 0.8-1.1 0.6 0 0.6 0.8 0.6 1.3 0 1-1.2 6.9-1.8 9.1-0.5 1.8-1.6 2-5.6 2z"/>
			<path class="st4" d="m340.9 639.8c-0.8 0-1-0.1-1-0.8 0-0.8 0.1-1.7 0.4-2.6 1-3.3 3.6-9.8 6.7-16.6 3.8-8.3 7.9-16.4 11.8-22.9h-16.1c-1.5 0-4.3 0.2-5.9 1.2-1.1 0.7-1.9 2.8-2.1 3.8 0 0.6-0.3 0.9-0.7 0.9-0.5 0-0.6-0.4-0.6-1 0-1.6 0.4-5.4 0.7-8 0.1-1.2 0.2-2.2 0.2-2.4 0-0.7 0.3-1 0.8-1 0.1 0 0.2 0 0.3 0.1 0.7 0.1 2.7 0.5 8.2 0.5h20.1c1.1 0 1.6 0.2 1.6 0.6s-0.2 0.9-0.4 1.2c-5.2 7.6-15.1 32.8-16 40.9-0.1 0.7-0.1 1.1 0 1.6v0.8c-0.1 1.2-5.3 3.7-8 3.7z"/>
			<path class="st5" d="m120.6 490.6c0 1.3 0.2 1.8 1 2.1 2.5 0.9 6.1 1.3 9 1.3 4.7 0 6.2-0.5 8.4-2.1 3.5-2.5 7-8 7-17.7 0-16.7-11.1-21.6-18.1-21.6-3 0-5.1 0.1-6.3 0.5-0.8 0.2-1 0.7-1 1.6v35.9zm-13.9-9.3c0-17.9 0-21.2-0.2-25-0.2-4-1.2-5.9-5.1-6.8-0.9-0.2-2.9-0.3-4.6-0.3-1.3 0-2-0.2-2-1.1 0-0.8 0.8-1 2.6-1 6.2 0 13.7 0.4 16.2 0.4 4 0 13-0.4 16.6-0.4 7.5 0 15.4 0.7 21.7 5 3.4 2.3 8.1 8.3 8.1 16.2 0 8.8-3.7 16.8-15.6 26.5 10.5 13.2 18.7 23.7 25.6 31 6.6 6.9 11.5 7.7 13.3 8.1 1.2 0.2 2.3 0.3 3.2 0.3 1 0 1.5 0.4 1.5 0.9 0 1-0.8 1.2-2.3 1.2h-11.2c-6.6 0-9.5-0.5-12.6-2.2-5.1-2.7-9.6-8.3-16.2-17.4-4.7-6.5-10.2-14.5-11.7-16.2-0.6-0.8-1.3-0.9-2.1-0.9l-10.3-0.2c-0.6 0-0.9 0.2-0.9 0.9v1.7c0 11 0 20.3 0.5 25.2 0.4 3.5 1.1 6.1 4.7 6.5 1.7 0.3 4.3 0.5 5.8 0.5 0.9 0 1.4 0.4 1.4 0.9 0 0.9-0.9 1.2-2.4 1.2-6.9 0-15.6-0.3-17.3-0.3-2.3 0-9.8 0.3-14.5 0.3-1.5 0-2.3-0.3-2.3-1.2 0-0.5 0.4-0.9 1.9-0.9 1.7 0 3.1-0.2 4.2-0.5 2.4-0.4 3-3 3.4-6.5 0.6-4.9 0.6-14.2 0.6-25.1v-20.8z"/>
			<path class="st5" d="m262.9 494c0-26.5-15.2-42.9-34.5-42.9-13.7 0-29.1 7.6-29.1 37 0 24.6 13.6 44 36.2 44 8.3 0 27.5-3.9 27.4-38.1zm-79.9-2.2c0-20.2 13.3-46.3 48.8-46.3 29.4 0 47.7 17.1 47.7 44.1 0 27.1-18.9 48.4-48.9 48.4-34 0-47.6-25.3-47.6-46.2z"/>
			<path class="st5" d="m297.9 448.6c0.3-2.1 1-3.1 2-3.1 0.9 0 1.6 0.5 3.2 3.6l32.2 65.7 32.1-66.5c0.9-1.9 1.5-2.8 2.6-2.8s1.8 1.1 2.1 3.6l10.8 72.3c1.1 7.4 2.2 10.9 5.8 11.9 3.4 1.1 5.8 1.2 7.3 1.2 1.1 0 1.9 0.1 1.9 0.8 0 1-1.4 1.3-3.1 1.3-2.9 0-19.2-0.2-23.9-0.6-2.8-0.2-3.5-0.6-3.5-1.2s0.5-1 1.3-1.4c0.7-0.2 1.1-1.7 0.6-5l-7.1-51.4h-0.5l-25.7 52.7c-2.7 5.5-3.3 6.6-4.4 6.6-1 0-2.2-2.4-4.1-5.9-2.8-5.4-12.1-23.5-13.6-26.8-1-2.5-8.1-16.4-12.2-25.3h-0.5l-6.1 46c-0.2 2.2-0.3 3.7-0.3 5.6 0 2.2 1.5 3.3 3.5 3.8 2.2 0.5 3.8 0.6 5 0.6 0.9 0 1.8 0.2 1.8 0.8 0 1.1-1.1 1.3-2.9 1.3-4.9 0-10.3-0.4-12.4-0.4-2.2 0-7.9 0.4-11.7 0.4-1.1 0-2.1-0.2-2.1-1.3 0-0.6 0.7-0.8 1.9-0.8 0.9 0 1.8 0 3.5-0.4 3.3-0.7 4.3-5.3 4.9-9.3l11.6-76z"/>
			<path class="st5" d="m451.4 500.3c0.6 0 0.7-0.3 0.6-0.7l-10.6-29c-0.1-0.5-0.2-1.1-0.6-1.1s-0.6 0.6-0.7 1.1l-10.8 28.9c-0.1 0.5-0.1 0.8 0.4 0.8h21.7zm-24.1 5.9c-0.6 0-0.9 0.3-1.1 1l-6.4 16.2c-1.2 2.9-1.8 5.7-1.8 7.2 0 2.1 1.1 3.6 4.7 3.6h1.8c1.4 0 1.8 0.3 1.8 1 0 0.9-0.7 1.1-2 1.1-3.8 0-8.8-0.3-12.5-0.3-1.3 0-7.8 0.3-14 0.3-1.5 0-2.2-0.2-2.2-1.1 0-0.7 0.5-1 1.4-1 1.1 0 2.7-0.1 3.7-0.2 5.4-0.7 7.6-4.7 10-10.6l29.6-73.3c1.4-3.4 2.2-4.6 3.3-4.6s1.9 1 3 3.7c2.9 6.5 21.7 53.7 29.3 71.7 4.5 10.6 7.9 12.2 10.4 12.8 1.8 0.4 3.5 0.5 5 0.5 0.9 0 1.5 0.1 1.5 1s-1.1 1.1-5.4 1.1-12.9 0-22.3-0.2c-2.2-0.1-3.6-0.1-3.6-0.9 0-0.7 0.4-1 1.6-1.1 0.9-0.2 1.7-1.3 1.1-2.7l-9.4-24.3c-0.3-0.6-0.6-0.9-1.2-0.9h-26.3z"/>
			<path class="st1" d="m120.6 488c0 1.4 0.2 1.8 1 2.2 2.5 0.8 6.1 1.2 9 1.2 4.7 0 6.2-0.5 8.4-2 3.5-2.7 7-8.1 7-17.8 0-16.7-11.1-21.6-18.1-21.6-3 0-5.1 0.1-6.3 0.5-0.8 0.2-1 0.7-1 1.6v35.9zm-13.9-9.3c0-17.9 0-21.2-0.2-25-0.2-4-1.2-5.9-5.1-6.8-0.9-0.2-2.9-0.3-4.6-0.3-1.3 0-2-0.2-2-1.1 0-0.8 0.8-1 2.6-1 6.2 0 13.7 0.3 16.2 0.3 4 0 13-0.3 16.6-0.3 7.5 0 15.4 0.7 21.7 5 3.4 2.3 8.1 8.3 8.1 16.2 0 8.8-3.7 16.8-15.6 26.5 10.5 13.2 18.7 23.7 25.6 31 6.6 6.9 11.5 7.7 13.3 8.1 1.2 0.2 2.3 0.3 3.2 0.3 1 0 1.5 0.4 1.5 0.9 0 1-0.8 1.2-2.3 1.2h-11.2c-6.6 0-9.5-0.6-12.6-2.2-5.1-2.7-9.6-8.3-16.2-17.4-4.7-6.4-10.2-14.5-11.7-16.2-0.6-0.8-1.3-0.9-2.1-0.9l-10.3-0.2c-0.6 0-0.9 0.2-0.9 0.9v1.7c0 11 0 20.3 0.5 25.2 0.4 3.5 1.1 6.1 4.7 6.5 1.7 0.3 4.3 0.5 5.8 0.5 0.9 0 1.4 0.4 1.4 0.9 0 0.9-0.9 1.2-2.4 1.2-6.9 0-15.6-0.3-17.3-0.3-2.3 0-9.8 0.3-14.5 0.3-1.5 0-2.3-0.3-2.3-1.2 0-0.5 0.4-0.9 1.9-0.9 1.7 0 3.1-0.2 4.2-0.5 2.4-0.4 3-3 3.4-6.5 0.6-4.9 0.6-14.2 0.6-25.1v-20.8z"/>
			<path class="st1" d="m262.9 491.4c0-26.5-15.2-42.9-34.5-42.9-13.7 0-29.1 7.6-29.1 37 0 24.6 13.6 44 36.2 44 8.3 0 27.5-4 27.4-38.1zm-79.9-2.2c0-20.2 13.3-46.3 48.8-46.3 29.4 0 47.7 17.1 47.7 44.1 0 27.1-18.9 48.4-48.9 48.4-34 0-47.6-25.3-47.6-46.2z"/>
			<path class="st1" d="m297.9 445.8c0.3-2 1-3 2-3 0.9 0 1.6 0.6 3.2 3.6l32.2 65.7 32.1-66.5c0.9-1.9 1.5-2.8 2.6-2.8s1.8 1.2 2.1 3.6l10.8 72.3c1.1 7.4 2.2 10.9 5.8 12 3.4 1 5.8 1.1 7.3 1.1 1.1 0 1.9 0.1 1.9 0.8 0 1-1.4 1.3-3.1 1.3-3 0-19.2-0.2-23.9-0.5-2.8-0.3-3.5-0.6-3.5-1.3 0-0.6 0.5-1 1.3-1.3 0.7-0.3 1.1-1.8 0.6-5.1l-7.1-51.4h-0.5l-25.7 52.7c-2.7 5.5-3.3 6.6-4.4 6.6-1 0-2.2-2.4-4.1-5.9-2.8-5.4-12.1-23.5-13.6-26.8-1-2.5-8.1-16.4-12.2-25.3h-0.5l-6.1 46.1c-0.2 2.1-0.3 3.6-0.3 5.5 0 2.2 1.5 3.3 3.5 3.8 2.2 0.5 3.8 0.6 5 0.6 0.9 0 1.8 0.2 1.8 0.8 0 1.1-1.1 1.3-2.9 1.3-4.9 0-10.3-0.3-12.4-0.3-2.2 0-7.9 0.3-11.7 0.3-1.1 0-2.1-0.2-2.1-1.3 0-0.6 0.7-0.8 1.9-0.8 0.9 0 1.8 0 3.5-0.4 3.3-0.7 4.3-5.3 4.9-9.3l11.6-76.1z"/>
			<path class="st1" d="m451.4 497.7c0.6 0 0.7-0.3 0.6-0.7l-10.6-29c-0.1-0.5-0.2-1.1-0.6-1.1s-0.6 0.6-0.7 1.1l-10.8 28.9c-0.1 0.5-0.1 0.8 0.4 0.8h21.7zm-24.1 5.9c-0.6 0-0.9 0.3-1.1 0.9l-6.4 16.3c-1.2 2.9-1.8 5.7-1.8 7.2 0 2.1 1.1 3.6 4.7 3.6h1.8c1.4 0 1.8 0.3 1.8 1 0 0.9-0.7 1.1-2 1.1-3.8 0-8.8-0.3-12.5-0.3-1.3 0-7.8 0.3-14 0.3-1.5 0-2.2-0.2-2.2-1.1 0-0.7 0.5-1 1.4-1 1.1 0 2.7-0.1 3.7-0.2 5.4-0.7 7.6-4.7 10-10.6l29.6-73.3c1.4-3.4 2.2-4.7 3.3-4.7s1.9 1.1 3 3.8c2.9 6.5 21.7 53.7 29.3 71.7 4.5 10.6 7.9 12.2 10.4 12.8 1.8 0.4 3.5 0.5 5 0.5 0.9 0 1.5 0.1 1.5 1s-1.1 1.1-5.4 1.1-12.9 0-22.3-0.2c-2.2-0.1-3.6-0.1-3.6-0.9 0-0.7 0.4-1 1.6-1.1 0.9-0.2 1.7-1.3 1.1-2.7l-9.4-24.3c-0.3-0.6-0.6-0.9-1.2-0.9h-26.3z"/>
		<path class="st0" d="m562.4 386.1h-537.2c-2.2 0-4-1.8-4-4s1.8-4 4-4h537.2c2.2 0 4 1.8 4 4s-1.8 4-4 4z"/>
			<path class="st0" d="m85.5 238.6c-2.3 1.5-3.2-2.6-3.2-2.6-0.7-1.6-0.7-3.3 0.2-3.9 1.8 1 3.8 1 4.5 2 0.7 1.2-0.3 3.8-1.5 4.5zm426.5 97.4c-1.5-1.9-3.1-3.8-4.8-5.9-7.6-9.2-24.5-31.9-24.5-31.9 0-73.7-13.2-87.4-26.8-99-11.9-10.2-31-15.4-51.5-18.6-5.6-0.9-11.7-1.2-18.8-1.2-6.8 0-13.7 0.3-20.3 0.7-5.5 0.3-101.6 4.3-132.5-0.9-13.4-2.2-32.1 0.4-43.1 1.7-5.1 0.6-32.9 5-36.1-0.2-0.7-1-0.6-3.2-0.3-5.6 0.3-3.9 1.9-8.6-1.1-12.8-4.2-5.8-8.7-12-11.2-12-0.8 0-7.6 5.6-9.3 7.3-2.8 2.8-3.7 7.4-3.6 12.8 0.1 3.3-0.1 2.7-0.4 2.9-0.4 0.4-18.1 0.4-22.5 0.8 0-0.9-0.2-5.5-3.2-9.9-1.9-2.8-3.6-12.1-3.6-12.1s-6.4 11.1-8.5 14c-2.4 3.3-4.9 6.7-6.4 10.6-0.5 1.5-0.6 3.3-0.8 5 0 1.3-0.2 3.9-0.7 4.3-3.4 2.5-5.3 5.9-5.6 10.2-0.1 1.2 0.3 2.9 0.6 4.8 0.3 1.3 0.7 3.2 0.7 4.1-0.4 0.3-0.7 0.5-1 0.7-3.1 1.9-7.2 4.7-6.9 9.4 0.4 7.2 2 10 4.3 13.9 0.6 1.1 1.3 2.2 2 3.6 1 1.9 1.5 4.7 1.9 7.4 0.6 3.7-2.9 7.8-0.5 10.1 3.1 3.1 11.2 3.3 14.8 3.3 0.9 0 4.6-0.1 5.5-0.1 1.3 0 2.4 0.1 3.3 0.2 6.8 1.4 13.5 1.9 20.1 2.5 9 0.6 17.5 1.3 26.1 3.9 15.8 4.6 31.4 11.1 47.6 19.8 0.9 0.4 1.7 0.9 2.5 1.3 6 3.1 7.3 2.7 10.1 10.9 2.9 8.3-2.3 73-3.5 79.7-1.8 10.8-5.3 17.3-10.9 19.4-7.5 2.7-10.6 8.6-13.5 14.3-1 1.8-0.8 4-2 5.9 0 0-2.4 2.7-1.6 3.3 0.8 0.7 8.4-1.1 8.4-1.1 2.6 0.2-0.2 1.5 2.4 1.5 6.4 0 14.2 0 22.1-4.5 3.3 0 1.1 4.2 4.1 3.6 9.5-1.7 10.3-9 11.5-15.9 1.9-11.7 1.6-13.7 2.9-14.8s5.5 0.7 6.6-0.5c0.9-1 0-9.5 0.4-17.2 0.7-11 3.7-23.8 7-34.4l0.2-0.6c0.7-2.3 1.8-5.1 2.9-8.1 3.1-8.1 6.8-17.9 6.4-25.8 3.4 0.6 3.9 0.8 5.8 3.5 0.3 0.4 0.8 1.2 1.4 2.1 3.7 6.1 5.6 7.8 8.1 7.8 0.2 0 0.5 0 0.7-0.1 4-1 6.2-4.4 8.4-8.9 2.3-4.4 4.6-8.9 8.4-9.8h0.5c3 0 8.4 2.7 11.5 7.5 6.7 10.4 12.5 3.1 13 2.2 0.8-1.2 6.2-10.1 7.6-12.2 1.6-2.5 2.6-2.7 3-2.7h0.1c3.3 0.5 17.7 17.7 22.8 16.6 4.9-0.6 10.4-19.5 13.5-19.5 0.1 0 0.3 0 0.4 0.1 0.8 0.6 2.5 3.2 3.6 4.9 3.8 5.8 4.7 9.6 7.7 9.6 1 0 2.6-0.8 3.6-3.3 0.3-0.7 1.5-3.5 1.6-3.9 0.2 0.3 2.8 8.9 9 1.2-0.1-0.1-0.1-0.2-0.2-0.3v0.1-0.1-0.1 0.1c0.9-2 12.4 9.4 17.9 13.8 5 4.6 9.2 8.7 9.5 9 11.9 10.5 26.6 23.7 29.4 37.9 1.7 8.2 1.3 17.7-1 26.7-0.5 1.9-1 3-1.5 3.3-0.4 0.3-1.7 0.4-3.4 0.4-0.7 0-1.5 0.1-2.4 0.2-4.1 0.2-6.8 4.5-9.3 8.3-1.1 1.8-2.6 3.3-3.3 4.5-0.8 1.4 0.4 3.5 1.2 4 0.7 0.4 8 2.1 10.2 2.1 0.6 0 1.3 0 1.7-0.2 1.6 0.6 3.5 0.9 5.6 0.9 6.4 0 14.4-2.6 16.6-7 3.9-7.5 6.5-15.7 9-23.6 0.3-0.9 0.6-1.8 0.8-2.7 0.6-1.7 1.4-3.7 2.2-5.7 2.7-7.2 7.4-15 5.3-22.1-1.1-3.8-4.9-7.4-7.3-10.7-2.1-2.8-10.2-13.4-12.7-17 7.6 7.3 28.5 18.1 33.8 30.7 1.9 4.5 0 23.1-0.3 28-0.2 2.4-0.3 4.8-0.4 7.2-0.2 7.6-2.4 9-10.1 9.8-6.6 0.6-9.7 10.4-11.3 15.7-0.1 0.3-0.2 0.6-0.2 0.8l-0.8 2.5 2.6 0.4c1 0.2 2 0.4 3.2 0.6 4.8 0.9 12.8 3.9 18.5 3.9 6.6 0 11.3-1.6 14.3-4.9 3.9-4.1 5.3-11.7 6.6-18.3 0.5-2.4 3.3-11.3 4.3-14.5 6.3-20.2 12.5-28 1.9-39.6z"/>
			<path class="st4" d="m480.9 394.6c-0.7 1.4-3.4 1.7-4.3 2-1.8 0.8-3.6 1.9-3.5 3.3 0 0.5-0.3 6.6 0 7.2 0.4 0.7 2.9 1.5 3.5 0.7 0.3-0.6-0.1-4.9 0.4-7.9 0.1-0.4 0.4-2.2 1.3-2.6 0.3-0.1 3.3-1.4 2.6-2.7z"/>
			<path class="st4" d="m266 286.9c2.3-0.2 5.5-0.8 6.6 0 1 0.8 2.6 3.6 2.5 5.3s-5.7 10.8-6.1 11.2c-0.3 0.5-0.9 1.7-1.9 0.4-1-1.4-2.8-15.3-2.8-15.3s-0.3-1.4 1.7-1.6z"/>
			<path class="st4" d="m509.6 340.6c-3.1-4.4-10.8-12.3-13.9-16.1-4.1-5-22.9-27.1-22.9-27.1s-5.4-33.3-7.7-40.9c-1.4-4.8-5.5-40-32.7-59 1.5-2.5 19.1 11.3 25.4 22.1 11.6 19.5 16.5 70.5 16.5 70.5s7.4-77.9-33.8-94.3c-29.6-12.4-44.3-10.4-44.3-10.4s-20.5 12.3-8.2 35.6c2.4 4.6 29.3 45.8 31.1 49.1 15.3 28.7 63.9 62.1 72.8 71.2 0.5 0.5 8.8 6 9.4 12.1 0.1 1.1-11.4-6.6-11.2-5.2 1.6 14.4-0.1 42-0.4 45.2-0.2 3.6-0.4 4.2-2.7 5-2.2 0.7-4.5-1.4-5.8 2.4-1.5 4.2-1 7.3 2.9 7.3s9.7 2 13.4-12.1c3.8-14.4 11.9-39.8 14.3-49.2 0.7-2.2-1.1-4.6-2.2-6.2z"/>
			<path class="st4" d="m98 164.7s3.2 9.5 3.2 12.1c-0.1 2.8-0.9 3-0.9 3l-9.6 4.1s2.1-2.4 3.2-5.4c1.1-3.1 4.2-11 4.1-13.8z"/>
			<path class="st4" d="m212.6 404.4c-0.2 0.1-0.4 0.1-0.5 0l-0.6-0.8c-0.1-0.1 0-0.3 0.2-0.5l0.5-0.3c0.2-0.2 0.5-0.2 0.5-0.1l0.6 0.9c0.1 0.1 0 0.3-0.2 0.5l-0.5 0.3z"/>
			<path class="st4" d="m434.4 389.1s-1.2-0.4-1.9 0.5c-0.9 1.2-1.3 5.8-1.3 5.8s1.1 1.4 3.2 0.6c2-0.8 6.2-3.9 4.9-4.9-1.4-1-4.9-2-4.9-2z"/>
			<path class="st4" d="m430.7 386.8s-1.8 0-2.7 1-2.5 3.7-2.4 4.8 1.7 2.9 2.5 1.8c0.9-1.1 4.7-7.7 2.6-7.6z"/>
			<path class="st4" d="m78.4 213.7c-2.2 3.4 4 6.3 5.6 4.5 1.2-4.6-3.5-6.3-5.6-4.5z"/>
			<path class="st4" d="m86.6 215.3z"/>
			<path class="st4" d="m128.5 219.7c-3.1-3.8-5.5-10-3.4-11.2 2.1-1.1 4.1 0.5 5.3 1.2 1.9 1 2.8 0.4 2.7-2.1-0.1-2-0.3-3.8-0.5-5.6-0.6-5.3-3.4-11.2-5.6-13.5-3.7-3.9-14-8.4-20.5-4-1.9 1.3-3.3 3.3-4.5 5.8-0.5 0.9 0.8 2.1 0.4 3.1-2.4 5.8-6 12.5-10.2 16.8-0.2 0.3 14.4 1.5 35 16.6 1.8 1.3-1.7 8.7-2.9 8.3-0.6-0.1 2.1-6.2 0.1-7.3-9.5-5.3-15.1-6-22.2-8.6-1.7-0.5-6.6 2.6-7.9 1.4-1.8-2.3-7.2-4.9-7.7-5.2 0.2 0.1 0.9 0.6 1.1 2.9 0.7 5.8-10.2 0-1 9.3 2.6 2.6 5.1 4.6 7 3.8 3-0.1 1.6 0.3 1.9 1l1.6 3.8c0.3 0.7 0.6 0.6 0.8-0.1l0.7-4c0.1-0.7 0.9-1.3 1.6-1.3 0 0 14 0.3 16.8 0.6s3 1.3 3 1.3c0.1 0.8 1.2 2.4-1.1 4.3-1.7 1.4-5.9-1.5-9.2 1.2-3.3 2.6-9.9 3.8-9.9 3.8-0.8 0.2-1.6-0.2-1.9-1l-1.7-3.7c-0.3-0.7-0.6-0.7-0.6 0.1l-0.4 4.9c-0.1 0.7-0.4 1.4-0.5 1.4-0.2 0-0.7-0.5-1-1.2l-0.1-0.3c-0.3-0.7-1-0.7-1.5-0.2l-0.9 1c-0.5 0.6-1.2 0.5-1.6-0.2l-0.3-0.5c-0.4-0.6-1-0.6-1.5 0l-0.5 0.9c-0.4 0.6-0.9 0.5-1.1-0.2l-0.2-0.5c-0.2-0.7-0.7-0.7-1-0.1-0.2 0.5-0.6 0.6-0.8 0.3l-1 1c-0.4 0.4-1.3 1.2-1.4 2 0 0.8 1 1.3 5.8 2.3 4.8 0.9 27.2-8.2 34.2-6.7 8.2 1.7 11.3-5 11.9-13.7 0-0.2-0.1-0.7-0.2-1.4-1.4-2.3-3.5-4.6-5.1-6.6v0.1z"/>
			<path class="st0" d="m106.6 193.4s2.8-4.9 6.2-5.9c2.6-0.7 5.2 0.8 9.2 3.4 3.9 2.6 6 6.8 9.9 5.7 1.3-0.4-3 4.4-6.8 3.1-0.9-0.4-6.6-9.8-12.1-9.7-0.1 0-3.6 0.7-6.4 3.4z"/>
			<path class="st0" d="m117.7 198.9c-0.8 0-1.5-0.9-1.5-1.9s0.7-1.9 1.5-1.9c0.9 0 2 0.9 2 2-0.1 1-1.1 1.8-2 1.8zm-1-10.1c-4.6-1.3-7.3 1.9-7.3 1.9 1.2-3.1 6.7-1.2 9.1-0.2 1.4 0.6 3.2 3.7 4.6 6.2-1.5-1.5-3.6-3.1-5.4-3.3-3.5-0.3-3.8 4.4-3.8 4.4l-1.8 2.2s0.3 0.5 3 0.5 12.1-0.1 13.3-1.2c1.3-1.1-6.6-9-11.7-10.5z"/>
			<path class="st4" d="m189 400s-3.5 7.2-3.6 8c-0.1 0.7 0.1 1.2 0.5 1.2s1.7 0.3 2.6-0.3 4.3-7.7 4.7-8.7c0.1-0.3-2.7-1.9-4.2-0.2z"/>
			<path class="st4" d="m466.8 347.3c1.8-6.4-4.2-7.1-6.2 1.1-0.7 2.9-9 32.8-9.8 40.6-0.1 0.4 0.2 0.8 0.6 0.3 0.1 2.7 14.6-39.2 15.4-42z"/>
			<path class="st4" d="m420.1 247.1c0 0.2-0.4 0.2-0.8 0.2l-3-0.5c-0.4-0.1-0.7-0.3-0.7-0.5l0.1-0.4c0-0.2 0.4-0.2 0.8-0.2l3 0.5c0.4 0.1 0.8 0.3 0.6 0.5v0.4z"/>
			<path class="st4" d="m419 248.3c0 0.1-0.2 0.2-0.5 0.2l-2-0.3c-0.3-0.1-0.5-0.3-0.4-0.4v-0.4c0-0.2 0.3-0.3 0.6-0.3l1.9 0.4c0.3 0 0.5 0.2 0.5 0.4l-0.1 0.4z"/>
			<path class="st4" d="m200.5 184.7c-14.4 2.8-34.7 4-45.7 2.5-8.7-1.2-9.1-6.6-7.5-11.3-8.1 7.9-12.4 4.8-12.6 3.9-0.3-1.3 3 0 5.1-2.2 2.2-2 3.4-9.6 1.8-13.2-1.8-3.6 0.1-3 0.1-3s4.5 0.5 6.5 5.8c1.2-5.3-6.2-12-8.6-10.5s-7.3 5.5-6.6 11.4c0.8 7.2 0.3 10.8-2 10.7-15.8-0.7-33.5-2.8-43.3 7.4 0 0 11.9-7.9 21.1-7 9.1 0.8 27.8 2.7 28.9 24.6 0 0-0.2 5 0.2 10.7 0.2 3.1-2.6 1.1-2.6 2.5 0.1 6.1 4.4 5.1 4.1 10.4-1.5 21.6-11.5 21.1-11.5 21.1s12 1.7 18-18.5c0 11.6-1.2 14.5-5.9 19 9.2 0.6 16.4-8.1 16.6-9.4 1.4 2.2 4 9.3 10.8 12.2-3.3-5.6-2.5-12.4-1.8-18.4 2.1 13.5 5.5 18.5 12.4 21.4-2.8-2.8-8.5-8.9-6.8-19.8 1.4 9.3 12.3 17.6 12.3 17.6s-3.5-5.6-4.4-15.5c4.7 10.1 9.7 10.9 9.7 10.9s-7.8-8.1-9.1-18.8c-0.2-0.1 5.5 7.3 10 7.3-3.5-4.3-9-10.3-9.7-17.8 3.6 4.5 6.1 7.5 10.1 7.9-3.4-3.9-6.2-10.2-7.2-17.7 3.9 4.9 3.2 6.5 10.5 8.5-2.8-2.8-4.8-10.4-3.4-14.1 1.3 2.6 6.2 5.2 12 6-1.9-1.2-4.9-8.5-4.5-11.3 2.6 1.3 8.3 3.2 12.8 2.6-2.1-1.3-3.6-7.6-3-9.1 1.2 0.7 9.8 0.6 11.6 0-2.8-1.7-5.2-4.3-4.5-4.1 2 0.7 5.4-1 9.8-1.7 4.7-0.8 5.5-0.8 8.5-0.8-2.9-1.4-20.9-3-32.2-0.2z"/>
			<path class="st4" d="m346.1 274.9s-9.2-0.6-9.9 2.2 4.2 17.9 4.9 19.7c1.2 2.8 4.3-3.8 4.3-3.8 1-1.7 4.8-10.6 4.8-11.8-0.1-1.5 0-6.3-4.1-6.3z"/>
			<path class="st4" d="m390.6 292.9c-0.6 0.3-1.2 0.4-1.6 0.5 0.4 0.2 0.9 0.3 1.3 0.3-0.1-0.2 0.1-0.5 0.3-0.8z"/>
			<path class="st4" d="m309.9 276.3s-9.3-0.6-10 2.2c-0.7 2.9 3.3 16.1 3.9 17.9 0.9 2.7 2.9-1.4 2.9-1.4 1-1.8 8.3-11.2 8.4-12.4 0-1.4-1-6.3-5.2-6.3z"/>
			<path class="st4" d="m374.7 185c-2.9 0.1-27 2.9-43 2.9-12.9 0.1-26.4-0.6-33.7-0.3-0.6-0.1-1.5 0-2.3 0.1-10.8-0.5-45.2-1-45.2-1-2.6-0.5-37.6 8.5-42.7 47.4-3.1 24-1.6 31.6 3.8 43 3.3 6.8 9.8 19.3 9.5 29.1-0.1 4-7.3-17.1-7.2-14.7 1.1 24.6-3.2 80-5.7 91.8-2.9 14-5.7 6.9-9 12.8-0.5 0.9-7.7 14-7.5 14.1 0.1 0.1 3.6-0.4 7.2-0.7 4.3-0.2 7.8-11.7 10.7-11.7 0.4 0-3.2 9.3-2.7 9.1 3-0.7 7.9-2 7.6 0.4 1.1 0.4 2-0.2 2.6-1 0.9-1.1 4.9-19 7.4-28.3 0.5-1.5 4.5-0.7 5.6-0.2 2.2-4.4-1.3-19.1 5-39.4 6.2-20 12.7-37.4 9.8-42.5-0.3-0.6-10.9 13.4-11.2 12.9-0.7-1.6 34.6-60.8 27.8-91.4-0.2-1.1-0.7-2.4-0.7-3.3 0-0.2 4.1 1.5 9.2 2.9 6.6 2 12.4 3.1 14.4 10.7 2.4 14.7 9.2 35.6 23.1 36.9-6.3-5.8-14.4-35.2-13.4-47.2 3.9 19.7 15.9 48.2 25.8 46.9-2-3.2-10.3-21.2-10.3-32.4 3.6 9.3 12.1 29.9 18.5 30 16.8 0.3 21.1-7.3 33.5-10.1 27.9-6.3 35.2 4.4 39.4 6.6-3.4-3.3-15-23.6-22.7-39.4-6.1-12.5 4.2-25 21.9-32.8 3.4-1.6-20.1-1.4-25.5-1.2z"/>
			<path class="st0" d="m386.7 293.2s-0.9-0.8-1.7-0.9c-0.3-0.1-0.4-0.1-0.6-0.1-0.3 0-0.5 0.1-0.5 0.1l-0.4 0.1 0.1-0.3c0.1-0.3 0.4-0.8 1.1-0.8 0.3 0 0.6 0.1 0.8 0.2 1.1 0.4 1.5 1.5 1.5 1.5l0.2 0.6-0.5-0.4z"/>
			<path class="st0" d="m378.7 291.7c0.1-0.3 0.4-0.8 1.1-0.8 0.3 0 0.6 0.1 0.9 0.2 0.1 0.1 0.5 0.2 0.5 0.2l0.2 0.2-0.8 0.5h-0.1s-0.3-0.1-0.4-0.1c-0.2-0.1-0.4-0.1-0.6-0.1-0.4 0-0.5 0.1-0.5 0.1l-0.4 0.1 0.1-0.3z"/>
			<path class="st0" d="m380.6 291.3c0.1 0 0.5 0.2 0.5 0.2l-0.5 0.3s-0.3-0.1-0.5-0.1c-0.8-0.2-1.2 0-1.2 0s0.3-0.9 1.7-0.4z"/>
			<path class="st0" d="m395.8 398.4c-9.9 0-11.1-16-11.3-18.8-2.4-0.2-5-1.9-6.7-3.3-0.1 0-0.3-0.1-0.5-0.2 0 1.2 0.1 2.4 0.1 3.5 0.1 1.9 0.5 6.7 0.6 8l0.1 0.1c0.2 1.8 0.7 6-3.5 8.3-1.2 0.7-2.6 1.1-4.1 1.1-1.2 0-2.3-0.3-3.1-0.5h-0.5l-0.7-0.1c-1.1-0.2-2.5-0.3-3.6-0.4h-0.3c-2.1 0-7.9 0.4-8.9 0.5h-0.6c-3.3 0-6-2.6-6-2.7-1.7-1.6-1.8-4.2-0.4-6.3l0.4-0.5 0.6-0.5c0.3-0.2 1.3-0.9 2.8-1.1 1.2-0.8 3.1-1.9 6-3.5-2.5-5-13.7-22.2-4-27.6 3.7-1.9 9.2-3.9 14.5-5.2 0-0.3 0.1-0.6 0.2-0.9 0.1-0.4 0.2-1.8 0-2.8-1.5 0.8-3 1.2-4.3 1.2-0.4 0-0.8 0-1.2-0.1-3.4-0.7-7.7-5.6-8.2-6.3-0.7-1-3.5-6.1-6.2-11-7.1-0.4-7.7-0.6-8.2-0.7-0.8-0.3-1.6-0.5-6.2-4.4-1.5-1.3-2.3-3.1-2.1-4.8 0.2-1.4 1.1-2.7 2.4-3.3 0.1-0.1 0.2-0.1 0.4-0.2 0.6-0.8 1.5-1.6 3.2-2l0.5-0.1h0.6c1.1 0 2.1 0.4 3 0.9 0-0.5 0.2-1.1 0.4-1.6 0.9-1.7 2.7-2.7 4.7-2.7 1.2 0 2.4 0.3 3.8 1l0.2 0.1 0.2 0.1 0.5 0.3c0.9 0.2 2.9 0.8 3.6 1.1 1.2 0.5 2.1 1.1 4.3 5l3.5 3.6c1.6-3.8 3.6-5.5 4.3-6.1 1-0.9 2.3-1.3 3.6-1.7 0.2-0.1 0.6-0.2 0.9-0.2 0.5-0.5 1.1-0.9 1.8-1.3 0-0.2 0.1-0.4 0.1-0.6-0.5-0.7-1.1-1.7-1.6-2.5-1.5-2.4-1.3-4.6-1.2-6v-0.4c0.2-3.7 5-6.9 5-7 0.5-0.3 1.1-0.6 1.6-0.8 1-1.1 2.6-3 3.8-4 0.9-0.9 2.2-1.5 3.4-1.9 1-2.1 3.2-3.2 6.5-3.2 1 0 4.4 0.3 5.5 0.4 2.5 0.4 4.1 2 4.9 3.8 2.1 0.7 3.5 2.6 3.7 5.2l0.8 0.8c0.5 0.5 1.7 1.9 2.1 4 1.3 2.5 1 5.4 0.9 6.7-0.1 4-1.1 6.4-2.2 7.8-0.2 0.4-0.3 0.8-0.4 1.1 3.8 2.4 5 7.8 5.3 9.9 0.4 1.2 1.9 6.4 2.7 9.8 1 4.9-0.7 9.4-0.8 10l-0.2 0.5-0.3 0.4c-0.3 0.5-1.9 2.6-2.6 3.5-1.3 1.5-2.7 2.2-3.9 2.4 0.4 1.7 0.8 3.5 1.1 5.1 3.1 3.8 4.7 9.2 4.7 11 0 1.3-0.4 2.6-0.7 3.6 0.3 0.9 0.4 2.1 0.3 4.7 1.3 1.5 2.5 3.5 3.7 5.8 0.1 0.3 0.2 0.5 0.2 0.6 5.9 12.8-8.8 13.7-9.7 13.4-2 1.8-8.2 2-9.3 2z"/>
			<path class="st4" d="m394.9 290.4c-0.9-0.2-4.1-0.4-5-0.4-4.3 0-2 2.2-2 2.2s-3.5 0.5-5 1.8c-1.4 1.3-4 4.4-4 4.4s-1.2 0.4-1.9 0.9c-0.7 0.4-2.7 2-3 3.6-0.3 1.2-0.4 2.6 0.5 4.1s2.4 3.5 2.4 3.5 0.4 0.7 0 1.5c-0.4 0.9-1 3-1 3s-2.1 1.1-2.7 1.8-3.6 1.1-4.3 1.7-2.6 2.3-3.9 6.8c-1.5 1.3-2.3 3-2.3 3l-7.8-7.9s-1-3.1-2.5-3.6c-0.5-0.2-3.9-1.4-4.7-1.7-2.9-1.1-3.4-0.3-2.9 0.6 0.6 0.7 2.4 1.6 2.9 1.8 0.4 0.3 0.6 3.4-6.7 2.2-0.4-0.1-2.3-1.3-3.6-1.8-3.1-1-2.5 2-1.9 2.6 0.7 0.5 3.8 3.8 4.6 4 0.7 0.2 9.6 0.6 9.6 0.6s6.1 11.5 6.9 12.6c0.9 1.2 4.3 4.4 5.7 4.7s5.5-1.2 7.5-4.9l0.8 15.1s-14 3.1-16.6 5.2c-5.2 4.2 4.1 20 7.2 24.3 1 1.3 0.3 1.7 0.3 1.7s-9.8 5.3-9.9 5.8c-0.9-0.3-1.7 0.3-1.7 0.3s-0.5 0.6-0.2 1c0.4 0.3 2 1.5 3.3 1.4 1.2-0.1 8.1-0.5 9.8-0.5 1.6 0.1 3.6 0.4 4.7 0.5 1 0.1 3.2 1 5 0s1.5-2.7 1.3-4.4c-0.2-1.6-0.6-8.1-0.6-8.1s-0.2-7.6-0.4-8.5c1.9 0.2 5 0.9 5.6 0.6 1-0.6 2 1.1 2 1.1s3.2 2.5 4.7 2.3c1.4-0.3 1.7-0.4 2.4-2.6 0.5-0.7 1-0.5 1 1.5s-1 20.3 7.7 20c5.4-0.2 9.2-2.8 9.2-2.8s1.6 2.1 3.6 1.3c5.6-2 2.5-7 2.1-7.7-0.5-0.8-3-6.3-4.6-6.4 0.1-2.4-0.3-5.9-0.7-6.8 0.3-0.5 1.2-2.6 1.2-3.5 0-1-1.6-6.2-4.5-9.3-0.7-4.8-3.1-12.2-3.1-12.2s3.2 1.2 4.2 1.3 1.8-0.3 2.4-1.1c0.7-0.8 2.5-3.2 2.5-3.2s1.5-3.8 0.6-7.6c-0.8-3.7-2.6-9.9-2.6-9.9s-0.9-5.9-3.8-7.3c-3-1.3-3.6-1.2-3.6-1.2s-0.9-1.3-0.2-1.6c0.7-0.2 1.8-1.1 2.1-1.4 0.4-0.4 0.9-2.5 0.9-2.5s1.7-0.9 1.7-5.9c0.1 0 0.6-3.4-0.7-5.1 0-1.5-1.1-2.4-1.1-2.4l-1.9-2.1s0.3-2.5-0.9-2.8-2-0.6-2-0.6-0.1-2.7-2.1-3z"/>
			<path class="st0" d="m379.1 299.6c0.9-0.1 1.6 1.5 1.6 1.8 0.1 0.3-0.1 0.3-0.6 0.2-0.5 0-0.9-1-1.9-1-1 0.1-1 0.8-1.3 0.7-0.3 0 1.3-1.7 2.2-1.7z"/>
			<path class="st0" d="m386.5 297.1c1 0.3 1.4 1.3 1.4 1.3s-1-0.8-1.9-0.9c-0.8-0.2-1.2 0-1.2 0s0.3-1 1.7-0.4z"/>
			<path class="st0" d="m396.4 305c-0.1-0.3-0.3-0.5-0.5-0.5h-0.2l-0.1 0.1c-0.4 0.5-0.9 0.7-1.4 0.7-0.7 0-1.2-0.4-1.2-0.4s-0.1 1.4 1.4 1.4c1.2 0 1.9-1 1.9-1l0.1-0.3z"/>
			<path class="st0" d="m388.2 327.5c0.4-0.5 1.7 0.7 2 0.4 0.4-0.3-2.5-3.6-1.6-4.3 1.1-0.7 2.3 1.8 2.9 1.4 0.6-0.5 0.4-0.7 0.2-1.1-0.1-0.2-1.3-2.5-1.3-2.5-0.1-0.1-1.4-2.2-0.6-2.6 0.9-0.3 1.9 1.2 2.1 1.4 0 0.1 1.7 3.1 2.4 2.8 0.7-0.4-1.2-4.9-1.2-4.9-0.1-0.5-1-1.6-0.6-2 0.5-0.3 0.9-0.2 2.1 1.4 0.1 0.1 3.2 5.8 3.6 5.6 0 0 0.1-1.2-0.4-2 0.6 0.5 1.8 0.8 1.7 1.6 0 0.4-0.1 2.8-0.5 3.4-1.4 1.6-7.8 3.8-9.9 3.5-0.1-0.2-1.4-1.5-0.9-2.1zm12.8 24.8l-0.9-4.1-0.4-1.5-7.5-14-0.3-0.5c-0.3-0.2-0.5-0.5-1.1-1.1-0.2-0.2-0.1-0.4 0.2-0.4 2.6 0.4 7.2-0.9 8.2-1.3 0.3 0.4 7.6 8.9 8.1 8.6 0.6-0.4-7.3-10.8-7.3-10.9 0 0 0.7-4.3 0.5-4.8-0.3-1-2.4-2.5-3.3-2.5h-0.1c-0.1-0.3-0.3-0.5-0.4-0.6l-0.1-0.2c-0.6-1-1-1.7-1.3-2.2 1.4 0.5 2.9 0.9 3 1l0.8 0.1 0.9-1.2-6.1-2.1c-0.5-0.1-1.1-1.3-1.2-2.3 0-0.7 4.3-4.9 3.5-5.1-1.7-0.6-5.6 3.6-5.7 4.9-0.1 0.8 0.4 2.6 1.1 3.3-0.3 0.3-0.4 0.7-0.4 1.2-7.6 0.5-10.4 3.2-10.7 4.6 0 0 6.1-2.4 8.2-2.7-1.4 1.3 0.9 3.9 0.9 3.9-0.3-0.1-1-0.6-1.8-0.1-1.4 1.2 0 3.5 0.3 4-0.6 0-1 0.2-1.2 0.4-0.7 0.9 0.7 2.6 1.7 3.8 0.5 0.5-1.7 0.4-8.1-4.4 0.2 4.6 7.9 7.4 10.3 7.4 0 0.1 9.8 18.2 10.2 18.8z"/>
			<path class="st0" d="m370.3 351.7l-1.1 0.7-1.6 0.9c0.3 0.7 6.6 16 13 20.8l0.2-0.5c-8.5-11.6-10.4-21.9-10.5-21.9z"/>
			<path class="st0" d="m394 359.5c-3.8 0.6-6.6 13.3-6.6 13.3 0.9-1.2 1 0.8 1 0.8s3.1-10.8 5.7-11.9c2.8-1.1 6.8-0.6 6.8-0.6s-3.1-2.2-6.9-1.6z"/>
			<path class="st0" d="m364.4 339.5c0.4-0.3-1.1-12.4-1.1-12.4l-0.6 0.6-0.9-0.6c-0.5 1.1 2.1 12.6 2.6 12.4z"/>
			<path class="st0" d="m367.2 329.8l0.9 9.8 1.7-0.9-0.5-7.2s0.9 0.4 1.2 0.1-1.4-1.7-1.5-3.6c0-1.3 1.5-3 1.2-3.1-0.3-0.2-0.8 0.3-0.8 0.3 0.1-1.2 0.2-2.5 0.3-3.3 0.1-1.2 1.7-3.6 1.7-3.6-3.5 1.2-4.2 5.2-4.2 5.2l-0.2 3.1c0 0.1-0.3 1-0.3 1.7s0.5 1.5 0.5 1.5z"/>
			<path class="st0" d="m406.6 377.4s-0.1 11.9-2.6 14.9h1.4c0.5-0.4 1.5-4.2 1.9-5.7 0.4-1.6 0.3-8.2 0.3-8.2s-1-1-1-1z"/>
			<path class="st0" d="m363 361c-0.5 2.5 9.9 12.1 9.9 12.1l2.8-1.3c0.1 0-9.7-7.2-12.7-10.8z"/>
			<path class="st0" d="m391.4 294.8c0.1 0.2 0.1 1 0 1.6 0 0.1-0.3 1.3 1.3 2.1 1 0.5 1.6 1.4 2.1 2 0 0.1 0.1 0.3 0.2 0.4 0.3 0.3 0.4 0.6 0.2 1.3-0.1 0.4-0.3 0.6-0.4 0.8-0.2 0.1-0.4 0.3-0.2 0.6v0.1c0.1 0.4 0.3 1.2 1.1 1.5 0.2 0.1 0.6 0.7 0.1 2l-0.1 0.4c-0.5 1.4-0.1 4.7 0.7 4.5 0.9-0.2 0.7-3.1 0.9-3.5 0.5-0.6 0.9-2.4 0.7-3.4-0.1-0.3-0.2-0.6-0.4-0.7-0.8-0.5-1-0.9-1-1 0 0 0.1-0.2 0.2-0.3 0.2-0.2 0.4-0.5 0.5-0.8 0.3-0.6 0.1-1.5-0.2-2.1-0.2-0.6-1.7-2.4-2.6-2.7-0.7-0.3-1.1-0.7-1.1-1.1v-0.8c0.1-0.6 0.2-1.3-0.1-1.6-2.5-3.5-6.2-3.1-6.2-3.1l-1.6 1.8s2.8-1.5 5.9 2z"/>
			<path class="st0" d="m371.5 317.4c0.5 0.3 2.9 0.7 7.3 3.4 0.6-1.1-4-3.6-6.1-4.3-1.3 0-1.4 0.2-1.5 0.3 0.1 0.2 0.1 0.4 0.3 0.6z"/>
			<path class="st0" d="m358.3 385.4c-3.9-5.3-12.3-5.5-15.1-2.9-0.2-0.1-0.3-0.2-0.4-0.3-1.2-0.9-4.6-3-6.2-3.9-2.6-2.7-3.7-3.4-4.2-3.7-2.1-1.2-6.2-2.7-9.6-3.5-0.7-7.3-1.3-9.1-1.7-9.8 0.1-0.2 0.9-6.7 0.7-10.8 2.2 0.4 5.1 0.9 7.4 0.9 1.3 0 2.4-0.2 3.2-0.5 2.3-0.6 6-1.9 7.5-4.4l0.4-0.5 0.2-0.6c0.1-0.5 1.2-5.3-1.7-9.9-2-3.1-7.5-8.8-10.5-11.8l0.2-3.4c0.1-1.4-0.3-2.8-1.9-4.5-0.5-0.5-4.2-4.7-5.2-5.3s-2.6-1.1-4-1.1c-0.4 0-0.9 0.1-1.3 0.2-3.6 0.8-3.3 6.3-3.1 6.8-0.5-0.3-1-0.5-1.5-0.7-1.2-1.4-3-2.2-4.8-2.5-1-0.7-2.3-1.4-4.1-1.4h-0.4c-2.3 0.1-2.4 0.4-3.5 1.3-1.7 0.4-3.3 1.4-4.5 2.9-1 0.5-2.2 1.5-3.2 3.2-1 0.9-2.2 2.3-3.1 4.8l-0.3 0.9c-0.8 2.1-1.8 4.5-1.1 7.1v0.2c-2 0.5-4.8 1.7-6.4 4.8-0.7 1.4-1.4 3.2-2 4.8-0.9 0.1-11 1.3-10.8 6.1 0.1 1.5 0.8 3 2.2 3.9-1 1.6-1 3.3-0.2 4.7 0.8 1.3 1.7 2.2 2.9 2.7 0.4 1.2 0.9 2.4 1.8 3.5 1 1.3 2.1 2.2 3 2.9-1.9 0.6-3.9 1.5-5.8 2.9-2.8 1.9-7 6-3.4 12.5 0.6 1 2.4 3 11.2 11.7-0.3 0.3-7.3 13.1 4.1 13.7 2.6 4.3 11.5-1.9 11.8-2.1 0.7 0.1 12.6 0.2 9.4-9 0.9-0.1 5-1.3 5.2-1.3 1.3 0.6 4.3 1.8 6 1.9 0.8 0.1 2.1 0.2 3 0.2 1.2 0 4.2-0.1 5.6-0.4 0.4 0 0.8-0.2 1.3-0.2 1.2 2 3.2 4.5 5.7 5.9 3 1.7 9.8 4.8 12.1 5.8 0.5 0.4 5.3 4.4 8.5 4.4 10.1 0 7-9.2 7.1-9.7 0.8-2.4 2.3-12.7-0.5-16.5z"/>
			<path class="st4" d="m322.8 336.7c-0.4-0.5-4.4-1.5-6-1.7-0.5-0.5-2.3-1.1-2.3-1.1-0.1 0 2.4-1.8 2.4-3.1-1.8-8.8-4.7-9.4-4.7-9.4s-0.9-2-3.5-2.3c-0.4-1.9-4-2.2-4-2.2s-1-1.2-2.4-1.2c-1.1 0.1-1.4 0.6-2 1.2 0 0-2.2-0.3-3.6 2.2 0 0-1.8 0.4-2.8 2.9 0 0-1.3 0.3-2.5 3.3-0.8 2.1-1.7 4.2-1.3 5.7s1.7 3.1 1.7 3.1-1.2 1-2.5 1.4-4.5 0.7-5.8 3.3-3 7.6-3 7.6-0.8-0.5-1.7-0.6-4.7 0.1-5.6 0.7c-0.5 0.3-2.1 0.5-2.1 1.2 0.1 1.8 3.1 1.2 3.1 1.2l-0.7 4s-1.3 1.2-0.9 1.7c0.3 0.6 0.9 0.8 1.3 0.7 0.5-0.1 1.3-1 1.3-1s0 3.8 1.7 6 3.7 3 3.7 3 1.3 0.5 2.4 0c1.2-0.5 3.3-2.2 3.5-2.8 0.2-0.7 0.7-2.9 0.7-2.9s0.9-3.5 1.4-3.5c0.4-0.1 0.8 0.4 0.8 0.4v7.1s-2.8 5.3-2.8 6.7c-1.5 0.1-7.9-0.6-13.4 3.4-4.5 3.1-2.9 5.9-2.1 7.4s14.6 14.8 15 15.3c-0.2 0.4 0.2 1-0.4 1h-1.5s-2.1-0.8-2.5 0c-0.8 2 1.4 1.8 1.5 2.2 0 0.3-1.8-0.3-2.1 0.8-0.4 1.2 0 2.5 0.9 3.5 0.6 0.8 2 0.4 2.4 0.6 0.4 0.1 0.6 0.8 1.7 1.1 2.4 0.9 7.7-3.4 8.4-3.3 2.6 1.3 5.7-1.1 5.8-2.6 0.2-1.4 0-2.2-0.5-3.3s-2.2-2.9-2.2-2.9 2-0.6 2.5-0.8c0 0 0.3-0.2 1 0.1s3.7 0.9 4.6 0.8c0.9 0 4.4-1.6 4.9-1.3 0.5 0.2 3.9 1.7 5.1 1.8 1.3 0.1 6.1 0.1 7.5-0.2 1.3-0.2 4-1 4-1s2.2 5.2 5.6 7.1c3.4 2 12.6 6 12.6 6s3.7 3.7 6.1 3.7 3-2 3-2.5-0.1-3.1 0.4-4.5 0.9-5.5 1-7.5c0.2-1.9 0.8-7.3-4.3-8.1-0.9-0.1-2.7-0.4-3-0.4-0.7 0-0.4 1.8-0.6 1.1-0.3-0.8-1.2-1-1.5-0.9-1 0.5-1.4 1.3-1.4 1.7 0.1 0.8 0.4 3 0.4 3 0.1 0-4.2-3.4-5.3-4.4-1.2-0.9-6.2-3.8-6.2-3.8s-2.7-2.9-3.6-3.2c-0.4-0.6-7.6-3.8-11.4-3.8-0.1-2.9-0.3-9.8-1.9-13.1 0-0.9 1-10.5 0.4-13-0.2-1.2 1.4-2 2.3-2s9.1 1.8 11.3 0.9c0 0 4.4-1.1 5.4-2.7 0 0 0.8-3.6-1.3-6.8-2.1-3.3-9.4-10.8-11.3-12.4 0.3-1.9 0.4-5.3 0.4-5.3s0-0.7-0.4-1.2c-0.6-0.5-3.9-4.3-4.4-4.7-0.3-0.4-1.8-0.9-2.5-0.7-0.6 0.2-0.4 1.5 0 1.9s1.3 1.2 1.3 1.2l0.6 1.5s-0.7 0.3-0.8 0.6-0.1 2 0.1 2.4 1 0.5 1 0.5-0.7 1.7-1.4 1.7c-0.7-0.9-1.7-3.6-2.6-2.7-0.4 0.5-0.7 1.2-0.4 1.9 0.2 0.7 1.4 4.2 2 4.9 0.6 0.6 1.1 0.9 1.1 0.9 0.1 0 4.7 7.2 4.9 8.5z"/>
			<path class="st0" d="m278.7 371.4c6.6-0.7 18.6 19.8 19 20.2 0.5 0.4 1.2-0.5 1.2-0.5-0.5-0.9-11-22.6-20.2-19.7z"/>
			<path class="st0" d="m277.9 349.8c1.2-0.2 3.1-2.5 2.8-2.6s-1.3 1.4-3.1 1.4c-0.5 0-1.2-0.1-2-0.3h-0.1c-0.2 0.4-1.8 0.6-1.8 0.6l0.2 1 1.5-0.4c0.2 0.1 1.3 0.4 2.5 0.3z"/>
			<path class="st0" d="m287.8 337.4c-1.4 0.2 0.2 18.9 0.2 18.9l1.4-1.8c-0.2-1.1-0.3-6.6-0.3-7.4 0.5 0.4 6.9-1 8.3-3.4 0 0-4.5 0.8-5.6 0.6-2-0.3-2.5-1.2-2.7-1.8 0.1-0.2-0.7-5.1-1.3-5.1z"/>
			<path class="st0" d="m287 367l-1.3 0.9c9.1 4.8 14.6 22.6 14.7 22.7v0.2l2.9 1s-6.9-20.6-16.3-24.8z"/>
			<path class="st0" d="m308.4 390.8c0.4 0.6 2.5-0.5 2.5-0.5v-0.2s-0.3-8.6 6.6-15.1c0.1 0-7.5 1.5-9.1 15.8z"/>
			<path class="st0" d="m345.6 389.3l-1.7-1.2s0.9 3.9 0.8 5.6c0 0.2-0.1 0.3-0.2 0.4l-0.2 0.2c-0.6 0.7-0.2 3.3-0.2 3.3s0.8-1.5 1.6-2.4l0.2-0.2c0.3-0.3 0.4-0.6 0.2-2.1 0-0.5-0.4-3.6-0.5-3.6z"/>
			<path class="st0" d="m318.5 337.2c-0.3 0.1-0.9 4.6-0.9 5.2 0 0.1-0.2 3-3.5 2.5-3.2-0.5-4.6-1.2-4.6-1.2 1.2 2.4 6.6 3.5 8 5.4 0.2 0.4 0.5 2.5 0.5 2.7h1.1v-3.7l1.1-0.3c-0.5-7.9-1.4-10.6-1.7-10.6z"/>
			<path class="st0" d="m296.3 333.9c-2 0-4.9 0.3-5 0.3l-3.3 0.7 1 0.7c0.1 0 4.3-0.9 7.2-0.9 0.4 0 0.8 0.1 1.1 0.2 2.5 0.5 5.4 1.5 5.5 1.1 0-0.4-3.5-1.7-5.2-2-0.3-0.1-0.8-0.1-1.3-0.1z"/>
			<path class="st6" d="m296.3 333.9c-2 0-4.9 0.3-5 0.3l-3.3 0.7 1 0.7c0.1 0 4.3-0.9 7.2-0.9 0.4 0 0.8 0.1 1.1 0.2 2.5 0.5 5.4 1.5 5.5 1.1 0-0.4-3.5-1.7-5.2-2-0.3-0.1-0.8-0.1-1.3-0.1z"/>
			<path class="st0" d="m317.6 335.1l0.2-0.2 0.1-0.1 0.1-0.2-0.1-0.2-1.3-0.8h-6.4c-1.6 0.1-6.5 2-6.2 2.4 0.3 0.3 3.9-1.1 6.3-1.5 2.6-0.3 7.1 0.6 7.3 0.6z"/>
			<path class="st0" d="m312.5 323c1.3-1.3-1.2-2.8-1.2-3 0 0 1.7 2.2 0.3 1.6-1.2-1.9-5.8-3.2-5.9-3.4-0.3-0.3 0.6-1.1 3.1 0.8 0.1-0.3-1.4-1.8-3.6-1.6 0-0.3-0.2-0.7-0.4-0.8h-0.1-0.2c0.2 0.2 0.5 0.8 0.2 0.8-0.5 0.1-0.7-0.7-0.8-0.8-0.2-0.4-1.3 0.1-0.7 0.6 0.2 0.2 0.5 0.3 0.7 0.4 0.3 0.2 0.2 0.4-0.1 0.2-0.3-0.1-0.7-0.2-1.2-0.2s-0.9 0.2-1.3 0.4c-0.2 0-0.4-0.1-0.2-0.3 0.2-0.1 0.5-0.2 0.7-0.3 0.8-0.7-0.6-1.7-0.9-0.2-0.2 0.3-0.3 0.4-0.5 0.5-0.6 0 0.1-1 0-1 0 0 0 0.1-0.1 0.1-0.2 0.2-0.4 0.4-0.5 0.7-0.2 0-2.7 0.1-3.1 1.5 1.9-1.4 2.9-1.3 2.8-0.7-0.1 0.2-2.3 1.5-3.2 2.4-0.8 0.5-1.8 1.8-2 1.8-0.4 0.1-0.4-0.6 0-1.6-1.1 1.2-0.9 2.1-0.6 2.6-0.6 1.4-0.5 3.2 0.3 4.6 0.7 1.2 4.8 4.7 5.2 4.5 0.3-0.2-4.3-4.3-4.7-6.1-0.7-4.1 4.9-7.8 6.8-8 0.1 0 0.3 0.5 1.3 0.4 1.3 0 1.5-0.4 1.5-0.4 1.4-0.2 8.3 2.4 7.6 7.5-0.3 1.6-0.9 3.5-0.6 3.7s0.6-0.7 1.2-2.1c0.9-1.4 0.9-3.2 0.2-4.6z"/>
			<path class="st0" d="m330.5 345.8c-0.9-1-8.3-9.9-8.3-9.9 0-0.1-0.2-0.4-0.5-0.4-0.1 0-1.1 0.1-1.1 0.3 1.6 2.6 5.1 6.7 7.5 8.7 1.2 1 2.1 1.5 2.4 1.3z"/>
			<path class="st0" d="m285.1 393.8c0.4 0.5 1 1.4 1 1.4s0.9-2.2 2.5-3.1c1.5-0.8 4.2-2 5.4-2.1-4.5-1.1-8.7 2.2-8.9 3.8z"/>
			<path class="st0" d="m282.9 357.7c0.8 0.1 1-0.7 1.1-1.6l0.1-0.2s0.8-0.7 1.3-2.3c0.4 2.1 1.5 6.4 0.7 7.5l-1.2 1.2 1.3-0.7c0.5-0.2 1.3-1.1 1-2.6-0.1-0.8-1.4-7.5-1.4-7.5v-0.3c-0.1-0.9-0.4-1.7-0.9-2.4-0.8-1.1-2.1-1.7-3-1.8 0 0 3.5 2.4 3.1 4.8s-0.9 2.6-0.9 2.6l-0.5-0.5v1.3c-0.1 0.7-0.3 1-0.8 1-1.3 0-2.3 1.8-3.7 1.4s-2.1-1.5-2.9-2.2c-0.8-0.6 0.4-1.8 0.4-1.8s-0.1-0.4-0.4-0.7c-0.4-0.2-1 1.3-1 1.3s-0.8 2.1 0.3 2.8c2 1.3 1.4 1.3 3.6 2 2.2 0.6 2-1.3 3.8-1.3z"/>
			<path class="st0" d="m377.9 292.9c-1.5 0-3.3-0.9-3.8-3.5-0.1-0.5-1.4-3.5-2.6-6.1-6.3-14.9-5.8-9.4-5.2-11.8 1.1-4.3 6.9-4.8 11.2-4.8 1 0 1.8 0.1 2.1 0.1 2.1 0 3.9 0.8 5.3 2.2 2.4 2.3 3 5.8 3 7.4 0 0.1-3.2 9.7-4.8 12.6l-0.1 0.1c-2.4 3.8-4.5 3.8-5.1 3.8z"/>
			<path class="st4" d="m379.4 270.1s-9.3-0.6-10 2.2 5.9 13.6 7.9 16.6c1.4 2.1 2.9-1.4 2.9-1.4 1-1.8 4.3-9.9 4.3-11.1 0-1.5-0.9-6.4-5.1-6.3z"/>
			<path class="st0" d="m116.5 178.1s25.8 1.6 30.3 30.7c1.5-5.3-4.4-23-11.8-27.2-0.8-0.5-4-2.1-1.6-7.3-8.7-1.3-16.9 3.8-16.9 3.8z"/>
			<path class="st0" d="m239.6 189.9s15.8-6 19.5 19.3c1.7-9.2-0.4-20.2-6.8-23.6-6.4-3.3-12.7 4.3-12.7 4.3z"/>
			<path class="st0" d="m165.4 217s1.6 5.3 3.2 6.4c1.7 1 6.1-5.5 6.1-5.5s-3.1 7.8-5.7 9.8c-2.2-1.6-3.1-3.6-3.6-10.7z"/>
			<path class="st0" d="m171.8 223s2.5 5.2 4.2 6.3c1.7 1 5.6-5.3 5.6-5.3-0.1 0-3.5 8.1-5.3 9.6-1.6-1.4-4.7-3.3-4.5-10.6z"/>
			<path class="st0" d="m157.1 231.9s3.1 5.7 4.9 6.5c3.2 1.2 3.4-7.1 3.4-7.1s1.3 9.2-2.1 12.2c-2.9-1.6-4.5-2.7-6.2-11.6z"/>
			<path class="st0" d="m165 228.6s1.7 5 3.2 6.2c1.6 1.2 4.9-7.8 4.9-7.8s-1.1 8.8-3.6 13.2c-1.6-1.8-4.3-4.6-4.5-11.6z"/>
			<path class="st0" d="m171.4 232.7c0 0.2 3 4.7 4.9 5.5s3.1-6.8 3.1-6.8 0.5 8.7-1.7 11.2c-1.4-0.9-5.7-3.1-6.3-9.9z"/>
			<path class="st0" d="m173.1 211.5s3 6.7 4.9 7.7c2 1 4.9-6.1 4.9-6.1s-1.5 7.8-5 10.2c-2.4-2-3.1-3.4-4.8-11.8z"/>
			<path class="st0" d="m168.1 205.7s1.9 5 3.5 5.8c1.7 0.9 4.6-5.8 4.6-5.8s-1.7 8.6-4.4 11.2c-1.8-1.4-2.6-3.8-3.7-11.2z"/>
			<path class="st0" d="m178.3 204s1.6 4.3 3 5.2 3.7-2.9 3.7-2.9c-0.1 0-0.9 6-3.6 6.8-1.1-0.9-2.3-2.9-3.1-9.1z"/>
			<path class="st0" d="m186.2 198.8s0.9 4.1 2.1 5c1.2 0.8 3.4-2.9 3.4-2.9s-0.3 4.5-3.5 6.5c-1.2-1.4-2.6-3.1-2-8.6z"/>
			<path class="st0" d="m193.5 192.9s0.8 4.1 2 4.9c1.2 0.9 3.4-2.8 3.4-2.8s-0.4 5.5-3.4 6.1c0.4 0.5-2.5-3.3-2-8.2z"/>
			<path class="st0" d="m158.8 222.1s2.7 4.8 3.9 4.9c1.3 0.1 3.7-4.9 3.7-4.9s-1.1 6.8-3.7 8.1c-1.1-1.3-3.3-3.5-3.9-8.1z"/>
			<path class="st0" d="m174.8 199.5s1.1 4 2.3 4.8c1.3 0.8 3.2-3.1 3.2-3.1s-0.6 5.7-2.8 7.3c-1.4-1.2-3-3.3-2.7-9z"/>
			<path class="st4" d="m290.4 262.2c-4.4-1.4-9.7-10.5-11.3-14.4-1.7-3.9-4.6-15.3-2.8-19.5 0.9 4.1 3.4 13 5.3 16.9 2.9 6 6.5 13.8 8.8 17z"/>
			<path class="st0" d="m384.5 379.1c-0.8-1.6-5-3.3-6.8-3.5-1.7-0.3-2-0.3-2.2 1.4-0.1 1.4-0.2 2.8 0.1 4.3 0.4 2.5 0.6 1.8 2.9 1.9 1.7 0.2 3.3 0.4 5 0.3 1.5-0.1 1.9-0.1 1.9-1.6 0-1.1 0.4-2.5-0.9-2.8z"/>
		<path d="m345.9 757.3v-14.3h-5.1v-2.9h13.7v2.9h-5.1v14.3h-3.5z"/>
		<path d="m356.6 757.3v-17.2h5.2l3.1 11.7 3.1-11.7h5.2v17.2h-3.2v-13.5l-3.4 13.5h-3.3l-3.4-13.5v13.5h-3.3z"/>
</svg>
