<?xml version="1.0" encoding="UTF-8" standalone="no"?>
<svg
   xmlns:dc="http://purl.org/dc/elements/1.1/"
   xmlns:cc="http://creativecommons.org/ns#"
   xmlns:rdf="http://www.w3.org/1999/02/22-rdf-syntax-ns#"
   xmlns:svg="http://www.w3.org/2000/svg"
   xmlns="http://www.w3.org/2000/svg"
   viewBox="0 0 252.00027 252.00001"
   height="252"
   width="252.00026"
   xml:space="preserve"
   id="svg2"
   version="1.1"><metadata
     id="metadata8"><rdf:RDF><cc:Work
         rdf:about=""><dc:format>image/svg+xml</dc:format><dc:type
           rdf:resource="http://purl.org/dc/dcmitype/StillImage" /><dc:title></dc:title></cc:Work></rdf:RDF></metadata><defs
     id="defs6"><clipPath
       id="clipPath18"
       clipPathUnits="userSpaceOnUse"><path
         id="path16"
         d="M 0,1000 H 1000 V 0 H 0 Z" /></clipPath></defs><g
     transform="matrix(1.3333333,0,0,-1.3333333,-12.333466,264.33467)"
     id="g10"><g
       transform="matrix(0.19132673,0,0,0.19132673,8.0868136,8.0875414)"
       id="g12"><g
         clip-path="url(#clipPath18)"
         id="g14"><g
           transform="translate(500.0801,500)"
           id="g20"><path
             id="path22"
             style="fill:#e81f2a;fill-opacity:1;fill-rule:evenodd;stroke:none"
             d="M 0,0 401.764,-281.376 C 311.84,-411.465 158.811,-489.999 0,-489.999 c -158.971,0 -312,78.534 -401.923,208.623 z" /></g><g
           transform="translate(500.0801,500)"
           id="g24"><path
             id="path26"
             style="fill:#275aad;fill-opacity:1;fill-rule:evenodd;stroke:none"
             d="m 0,0 -401.923,-281.376 c -55.56,80.462 -88.157,181.963 -88.157,281.376 0,269.973 220.151,490 490.08,490 269.77,0 489.92,-220.027 489.92,-490 0,-99.413 -32.597,-200.914 -88.156,-281.376 z" /></g><g
           transform="translate(500.0801,835.1782)"
           id="g28"><path
             id="path30"
             style="fill:#e81f2a;fill-opacity:1;fill-rule:evenodd;stroke:none"
             d="M 0,0 C 184.503,0 334.964,-150.485 334.964,-335.178 335.124,-519.71 184.503,-670.356 0,-670.356 c -184.663,0 -335.124,150.646 -335.124,335.178 C -335.124,-150.485 -184.663,0 0,0" /></g><g
           transform="translate(500.0801,500)"
           id="g32"><path
             id="path34"
             style="fill:#275aad;fill-opacity:1;fill-rule:evenodd;stroke:none"
             d="M 0,0 V 323.133 C 177.919,323.133 322.92,178.109 322.92,0 322.92,-177.948 177.919,-323.133 0,-323.133 Z" /></g><g
           transform="translate(791.2061,606.4795)"
           id="g36"><path
             id="path38"
             style="fill:#ffffff;fill-opacity:1;fill-rule:evenodd;stroke:none"
             d="m 0,0 c 12.204,-33.245 18.787,-69.059 18.787,-106.479 0,-170.721 -139.22,-309.964 -309.913,-309.964 -157.525,0 -288.075,118.365 -307.504,270.616 l 32.276,12.848 -0.161,55.408 -11.562,-0.161 42.554,34.369 88.477,0.161 v 58.62 l -8.992,0.161 25.05,27.623 26.013,-27.784 h -9.956 v -58.781 l 25.372,0.161 V 79.499 l 40.305,0.16 v 32.763 h -13.81 l -0.161,13.652 h 13.971 v 15.899 l -11.401,0.161 48.655,53.962 53.632,-53.962 h -13.328 v -15.9 h 14.773 v -13.009 h -14.773 l 0.161,-24.251 110.476,0.161 V 34.53 h 12.846 V -0.321 h 23.444 v 31.157 h 51.546 V 0.161 Z" /></g><g
           transform="translate(560.6182,555.8896)"
           id="g40"><path
             id="path42"
             style="fill:#275aad;fill-opacity:1;fill-rule:evenodd;stroke:none"
             d="m 0,0 22.159,-94.595 -4.656,-0.964 c -5.46,12.367 -13.007,23.288 -22.482,32.763 -9.313,9.476 -19.75,17.025 -31.151,22.806 -11.401,5.621 -23.444,9.797 -35.97,12.687 -12.685,2.731 -25.049,4.176 -37.253,4.176 -17.824,0 -33.24,-3.211 -46.407,-9.796 -13.167,-6.585 -20.875,-16.703 -23.123,-30.194 0.482,-5.781 2.89,-10.6 7.868,-14.614 4.818,-4.016 11.562,-7.549 20.233,-10.921 8.992,-3.373 19.109,-6.585 30.991,-9.316 11.883,-3.052 22.642,-5.621 32.437,-8.03 9.956,-2.569 22.159,-5.62 36.772,-9.315 14.452,-3.694 26.335,-6.906 35.647,-9.636 9.314,-2.73 16.701,-5.46 22.321,-7.869 17.503,-7.87 30.991,-18.791 40.787,-32.603 9.635,-13.973 14.451,-29.069 14.451,-45.45 0,-22.485 -7.868,-42.4 -24.086,-59.584 -15.897,-17.185 -36.451,-30.354 -61.661,-39.669 -25.211,-9.154 -50.582,-13.812 -76.114,-13.812 -25.692,0 -50.742,3.855 -75.15,11.403 -8.671,2.57 -15.576,3.854 -20.714,3.854 -11.722,0 -19.912,-2.89 -24.408,-8.672 l -33.24,119.167 5.621,0.964 c 4.496,-14.936 13.006,-30.033 25.853,-45.451 12.846,-15.097 29.225,-27.944 49.297,-38.224 19.912,-10.279 41.911,-15.578 65.997,-15.899 17.824,0.803 35.005,3.373 51.384,7.869 16.379,4.337 30.35,11.404 41.59,20.879 11.401,9.636 17.342,21.682 18.145,36.617 0,10.44 -1.927,19.113 -6.102,25.536 -3.853,6.424 -9.956,12.046 -18.306,16.542 -8.189,4.336 -20.232,9.315 -36.129,14.615 -10.438,3.694 -23.766,7.549 -40.144,11.403 -16.379,4.015 -30.671,7.388 -42.714,10.278 -12.204,2.892 -23.605,6.104 -34.364,9.636 -10.758,3.534 -20.071,7.709 -28.1,12.528 -22.481,13.812 -34.043,31.318 -35.167,52.838 1.606,9.476 2.57,16.06 2.73,19.593 5.46,19.112 20.072,33.888 43.838,44.648 23.925,10.44 51.223,15.9 82.215,15.9 8.671,0 17.182,-0.642 25.692,-1.767 8.511,-1.124 19.43,-3.051 32.919,-5.3 13.167,-2.409 21.678,-3.854 25.371,-4.497 C -12.044,-8.512 -4.336,-5.3 0,0" /></g><g
           transform="translate(441.791,478.6396)"
           id="g44"><path
             id="path46"
             style="fill:#e81f2a;fill-opacity:1;fill-rule:evenodd;stroke:none"
             d="m 0,0 -39.823,-94.595 c -3.372,-7.387 -5.62,-16.863 -7.066,-28.426 1.446,-19.112 13.168,-29.07 35.488,-30.194 v -5.3 h -130.067 v 5.3 c 12.364,1.124 22.801,5.782 31.152,13.812 8.189,8.03 16.86,22.003 26.013,41.595 l 112.886,252.95 c 2.408,5.622 3.854,10.921 3.854,15.579 0,11.081 -6.905,17.666 -20.555,19.915 v 4.336 h 141.63 v -4.336 c -11.883,-2.73 -18.467,-9.155 -19.751,-19.915 0.32,-0.964 1.124,-3.694 2.569,-7.87 1.444,-4.175 2.248,-7.066 2.568,-8.672 L 251.142,-119.81 c 2.89,-7.387 7.708,-14.775 14.13,-22.163 6.263,-7.387 13.971,-11.242 23.124,-11.242 v -5.3 H 143.234 v 5.3 c 20.875,4.657 31.153,16.863 31.153,36.456 0,16.703 -7.548,34.049 -22.803,52.196 -15.094,18.31 -35.809,33.406 -62.464,45.612 C 62.464,-6.745 32.758,-0.481 0,0 m 9.474,26.339 c 50.582,0 93.777,-14.454 129.424,-43.041 L 67.764,155.142 Z" /></g><g
           transform="translate(110.8423,642.6157)"
           id="g48"><path
             id="path50"
             style="fill:#ffffff;fill-opacity:1;fill-rule:evenodd;stroke:none"
             d="m 0,0 4.978,12.206 c 0.803,2.408 1.124,4.175 0.803,5.781 -0.322,1.446 -1.606,2.57 -4.015,3.534 l 0.161,1.124 24.247,-5.14 -0.161,-1.124 C 22.16,16.863 19.108,16.542 16.7,15.578 14.291,14.614 12.364,13.169 10.919,11.242 9.635,9.314 8.35,6.905 7.065,3.694 L 4.817,-1.928 36.29,-14.615 c 3.854,-1.605 6.745,-2.088 8.511,-1.605 1.927,0.481 3.532,1.765 4.817,4.014 l 0.803,-0.322 -9.956,-24.572 -0.963,0.482 c 1.445,4.497 -0.803,8.03 -6.423,10.279 l -43.838,17.666 c -4.335,1.767 -7.387,2.409 -9.474,2.088 -2.087,-0.482 -3.853,-1.767 -5.138,-3.854 l -0.803,0.32 17.824,43.845 c 0.161,0.482 0.321,0.964 0.642,1.125 0.482,1.927 0.482,3.533 0,4.817 L 15.094,35.814 14.934,34.69 C 11.08,35.011 7.386,34.208 4.014,32.281 0.481,30.353 -2.409,27.784 -4.978,24.732 c -2.409,-3.211 -4.335,-6.424 -5.62,-9.635 -1.124,-2.731 -1.766,-4.819 -1.766,-6.264 0,-1.445 0.321,-2.73 1.284,-3.534 0.964,-0.963 2.569,-1.766 4.817,-2.73 z" /></g><g
           transform="translate(110.8423,697.7021)"
           id="g52"><path
             id="path54"
             style="fill:#ffffff;fill-opacity:1;fill-rule:evenodd;stroke:none"
             d="m 0,0 13.488,22.646 0.803,-0.482 c -1.284,-2.249 -1.445,-4.337 -0.642,-5.943 0.803,-1.766 2.409,-3.373 5.139,-4.979 L 51.545,-8.512 c 5.299,-3.212 10.116,-4.176 14.291,-3.051 4.175,1.124 7.869,4.175 10.759,8.993 2.408,4.176 3.693,8.673 3.693,13.652 -0.16,4.818 -3.211,9.154 -9.313,12.848 l -30.51,18.309 c -3.212,1.927 -5.78,3.051 -7.547,3.372 -1.766,0.322 -3.051,0.322 -3.854,-0.321 -0.642,-0.482 -1.606,-1.445 -2.73,-2.891 l -0.642,0.482 10.919,18.309 0.804,-0.322 c -0.804,-2.409 -0.964,-4.496 -0.322,-6.102 0.642,-1.767 2.73,-3.694 6.584,-5.943 L 70.814,32.442 C 78.522,27.784 83.5,22.324 85.587,15.739 87.835,9.315 86.39,1.767 81.252,-6.906 77.398,-13.33 72.581,-18.309 67.121,-21.842 c -5.62,-3.373 -12.365,-2.73 -20.554,2.249 L 13.97,0 C 12.364,0.963 10.759,1.767 9.313,2.248 7.868,2.73 6.423,2.891 4.817,2.57 3.372,2.409 1.927,1.285 0.642,-0.321 Z" /></g><g
           transform="translate(178.6055,785.7124)"
           id="g56"><path
             id="path58"
             style="fill:#ffffff;fill-opacity:1;fill-rule:evenodd;stroke:none"
             d="m 0,0 c -3.051,-3.211 -5.138,-6.424 -6.744,-9.154 -1.606,-2.891 -2.409,-5.942 -2.409,-9.155 -0.16,-3.372 0.643,-6.905 2.409,-10.599 l -0.964,-0.482 -12.043,18.63 c 0.963,-0.16 2.248,0.321 4.015,1.766 0.321,0.482 0.802,1.124 1.284,1.767 l 28.904,30.836 c 0.482,0.642 0.964,0.964 1.285,1.124 1.284,1.767 1.927,3.373 1.927,4.658 L 37.093,18.63 36.612,17.506 C 26.977,21.842 17.664,18.951 8.35,8.994 l 39.502,-36.939 c 2.409,-2.248 4.336,-3.533 5.941,-4.176 1.767,-0.642 3.051,-0.802 4.015,-0.321 0.963,0.321 1.927,0.964 2.89,2.088 l 0.803,-0.803 -17.824,-19.271 -0.803,0.802 c 1.445,1.766 2.087,3.533 1.927,5.3 -0.16,1.767 -1.766,4.176 -4.656,6.906 z" /></g><g
           transform="translate(260.6602,833.251)"
           id="g60"><path
             id="path62"
             style="fill:#ffffff;fill-opacity:1;fill-rule:evenodd;stroke:none"
             d="m 0,0 c 8.029,2.73 14.934,3.373 20.714,2.087 5.621,-1.284 10.117,-4.175 13.168,-8.351 1.927,-2.569 3.051,-5.138 3.693,-7.709 0.964,-3.372 0.803,-6.905 -0.482,-10.278 -1.284,-3.373 -3.051,-6.424 -5.62,-9.315 -2.569,-2.73 -5.459,-5.46 -8.671,-7.709 l -28.743,-20.878 -0.642,0.803 c 1.766,1.766 2.729,3.694 2.569,5.621 0,1.927 -0.964,4.336 -3.051,7.066 l -27.138,37.421 c -1.926,2.569 -3.532,4.496 -4.978,5.621 -1.445,1.285 -2.89,1.928 -4.174,1.928 -1.285,0 -2.73,-0.322 -4.336,-1.125 l -0.482,0.803 33.4,24.251 C -5.941,26.66 0.321,27.303 4.175,22.163 5.299,20.396 5.781,18.629 5.941,16.703 6.102,14.937 5.781,12.688 4.817,9.957 3.854,7.228 2.248,3.854 0,0 m -15.897,-15.899 c 3.854,4.657 6.744,8.993 8.671,12.848 1.927,3.854 2.891,7.066 3.212,9.796 0.16,2.731 -0.161,4.819 -1.285,6.264 -2.569,3.533 -7.547,2.57 -14.933,-2.891 -2.409,-1.606 -4.015,-3.051 -5.139,-4.015 -1.124,-1.124 -1.766,-2.088 -2.087,-2.891 -0.322,-0.964 -0.161,-1.767 0.16,-2.73 0.321,-0.963 1.124,-2.088 2.088,-3.533 z m 3.051,-4.016 15.576,-21.521 c 0,0 0.161,-0.16 0.321,-0.802 0.803,-0.964 1.766,-1.607 2.409,-2.089 0.803,-0.481 1.605,-0.642 2.409,-0.321 1.766,0.643 3.853,1.767 6.423,3.212 3.05,2.41 5.78,5.14 8.028,8.031 2.248,2.89 3.694,5.461 4.015,7.869 0.321,5.14 -0.643,9.637 -3.373,13.17 -2.408,3.372 -5.78,5.62 -10.276,7.066 -4.657,1.285 -9.795,1.285 -15.897,0 z" /></g><g
           transform="translate(317.1831,851.5596)"
           id="g64"><path
             id="path66"
             style="fill:#ffffff;fill-opacity:1;fill-rule:evenodd;stroke:none"
             d="m 0,0 1.445,-20.396 c 0.161,-1.606 0.643,-3.534 1.285,-5.782 1.767,-3.533 4.496,-4.497 8.029,-3.051 l 0.482,-1.125 -20.394,-8.994 -0.481,0.964 c 1.766,0.964 3.051,2.57 3.693,4.658 0.642,2.087 0.963,5.299 0.642,9.636 L -8.35,30.835 c -0.16,1.125 -0.321,2.249 -0.803,3.052 -0.803,2.089 -2.409,2.891 -4.817,2.249 l -0.321,0.803 22.32,9.957 0.321,-0.803 C 6.745,44.809 6.263,43.042 6.905,41.114 7.065,40.954 7.387,40.472 7.869,39.83 8.511,39.026 8.832,38.544 8.993,38.384 L 49.458,-4.658 c 0.963,-1.284 2.409,-2.247 4.014,-3.212 1.606,-0.963 3.051,-1.124 4.496,-0.482 l 0.482,-0.963 -22.802,-10.118 -0.481,0.964 c 2.89,2.248 3.532,5.3 1.926,8.993 -1.445,3.052 -4.014,5.782 -8.029,8.031 C 25.211,0.964 20.715,2.249 15.576,2.73 10.277,3.052 5.139,2.088 0,0 M -0.803,5.461 C 7.226,8.994 15.255,9.476 23.123,6.585 L -2.248,33.566 Z" /></g><g
           transform="translate(427.9814,883.1987)"
           id="g68"><path
             id="path70"
             style="fill:#ffffff;fill-opacity:1;fill-rule:evenodd;stroke:none"
             d="m 0,0 -2.087,-28.748 c -0.804,0.803 -2.249,0.963 -4.176,0.481 l -0.481,-0.16 -43.998,-11.724 -0.161,0.963 c 2.569,1.286 4.175,2.731 4.657,4.659 0.481,1.766 0.161,4.817 -0.964,8.993 l -12.204,45.611 c -1.606,6.103 -4.817,8.833 -9.634,8.351 l -0.16,0.803 25.21,6.746 0.321,-0.803 c -2.891,-0.964 -4.496,-2.57 -4.657,-4.658 -0.321,-2.088 -0.16,-4.657 0.643,-7.388 l 12.524,-46.896 c 1.125,-4.175 4.336,-5.781 9.635,-4.657 0.482,0.321 1.124,0.642 2.088,0.802 12.364,4.498 19.751,13.813 22.481,27.946 z" /></g><g
           transform="translate(471.3369,935.0732)"
           id="g72"><path
             id="path74"
             style="fill:#ffffff;fill-opacity:1;fill-rule:evenodd;stroke:none"
             d="m 0,0 c 8.511,0.321 15.897,-1.285 21.999,-4.497 6.102,-3.373 10.759,-7.869 13.81,-13.33 3.212,-5.621 4.978,-11.564 5.298,-18.148 0.162,-4.979 -0.641,-9.957 -2.408,-14.615 -1.766,-4.496 -4.336,-8.672 -7.868,-12.205 -3.372,-3.695 -7.547,-6.585 -12.365,-8.672 -4.817,-2.089 -9.955,-3.374 -15.736,-3.695 -5.62,0 -10.919,0.964 -15.576,2.73 -4.657,1.928 -8.51,4.497 -11.883,7.548 -3.211,3.212 -5.78,6.906 -7.708,11.082 -1.926,4.015 -3.211,8.351 -3.693,13.009 -0.321,4.979 0.321,9.957 1.767,14.775 1.445,4.818 3.854,8.995 6.905,12.848 3.05,3.855 6.904,6.906 11.4,9.155 4.496,2.409 9.475,3.694 15.095,4.015 z m -21.356,-45.932 c 1.605,-5.3 4.014,-9.797 6.744,-13.17 2.89,-3.533 6.102,-6.103 9.474,-7.709 3.533,-1.606 6.905,-2.248 10.598,-2.248 4.175,0.321 8.029,1.767 11.722,4.175 3.532,2.409 6.262,5.622 8.35,9.798 1.927,4.175 2.89,8.832 2.569,13.972 -0.321,5.621 -1.766,11.241 -4.335,16.702 -2.57,5.621 -6.102,10.118 -10.759,13.491 -4.496,3.533 -9.635,5.139 -15.416,4.818 -4.496,-0.321 -8.35,-1.767 -11.721,-4.657 -3.212,-2.891 -5.782,-6.586 -7.387,-10.922 -1.606,-4.336 -2.409,-8.833 -2.248,-13.169 0.481,-4.336 1.285,-8.03 2.409,-11.081" /></g><g
           transform="translate(557.7275,869.3867)"
           id="g76"><path
             id="path78"
             style="fill:#ffffff;fill-opacity:1;fill-rule:evenodd;stroke:none"
             d="m 0,0 23.765,47.217 c 0.803,2.249 1.285,3.694 1.285,4.336 0.481,3.373 -0.964,5.461 -4.175,6.104 l 0.16,0.802 19.109,-2.409 V 55.247 C 38.217,54.926 36.611,54.284 35.487,53.32 34.363,52.196 32.918,50.269 31.312,47.377 L 4.656,-4.015 C 4.335,-4.657 3.854,-5.781 3.372,-7.228 c 0,-2.407 0.963,-3.533 3.051,-3.854 l -0.16,-1.124 -20.715,2.571 0.16,1.123 c 2.088,-0.321 3.212,0.803 3.533,3.052 0,0.481 0,2.087 -0.321,4.497 l -11.722,54.925 c -0.642,2.571 -1.445,4.819 -2.248,6.585 -0.804,1.767 -2.088,2.73 -3.854,3.212 l 0.161,0.804 23.604,-2.891 -0.16,-0.803 c -2.89,-0.161 -4.657,-1.767 -5.139,-4.979 v -3.694 z" /></g><g
           transform="translate(635.7676,922.2251)"
           id="g80"><path
             id="path82"
             style="fill:#ffffff;fill-opacity:1;fill-rule:evenodd;stroke:none"
             d="m 0,0 11.24,8.03 c 2.73,1.927 4.979,2.57 7.066,1.927 1.285,-0.321 2.409,-1.445 3.05,-2.891 C 22.16,5.46 22.32,4.015 21.839,2.73 21.196,0.482 18.627,-0.803 14.291,-1.285 L 0.964,-2.73 Z M -0.803,-43.203 16.7,-28.588 c 3.051,2.891 4.818,5.14 5.46,6.746 0.32,1.124 0.32,2.087 -0.321,2.891 -0.643,0.803 -1.607,1.445 -3.212,2.087 l 0.16,0.803 20.394,-6.584 -0.322,-0.803 c -3.532,0.803 -7.707,-0.803 -12.845,-4.979 L 0.16,-50.59 -6.263,-70.183 c -1.445,-4.337 -1.765,-7.388 -1.124,-9.316 0.803,-1.926 2.088,-3.212 4.175,-3.854 l -0.32,-0.964 -25.051,8.03 0.482,1.124 c 2.248,-0.481 4.175,-0.32 5.781,0.804 1.445,1.124 2.89,3.533 4.174,7.227 l 6.584,20.397 -8.832,34.69 c -0.641,2.73 -1.444,4.818 -2.408,6.424 -0.802,1.446 -2.248,2.73 -3.853,3.372 l 0.16,0.964 26.816,-8.833 -0.161,-0.803 c -3.372,0.963 -5.459,0 -6.583,-2.57 -0.481,-2.409 -0.321,-5.46 0.643,-8.833 z" /></g><g
           transform="translate(735.9678,834.5356)"
           id="g84"><path
             id="path86"
             style="fill:#ffffff;fill-opacity:1;fill-rule:evenodd;stroke:none"
             d="m 0,0 -13.328,-0.642 -15.576,-22.164 c -1.766,-2.408 -2.57,-4.818 -2.73,-7.066 0,-2.248 0.803,-4.015 2.73,-5.3 l -0.642,-0.963 -21.517,15.096 0.642,0.803 c 2.568,-1.124 4.817,-1.285 6.583,-0.642 1.767,0.803 3.533,2.569 5.46,5.3 l 27.619,39.347 c 3.854,5.461 4.015,9.958 0.482,13.331 L -9.796,37.742 11.722,22.806 11.24,22.003 C 8.831,23.448 6.744,23.609 4.978,22.806 3.051,22.003 1.124,20.076 -0.803,17.345 L -9.475,4.818 10.116,6.104 c 3.051,0.32 5.78,0.802 8.35,1.444 2.569,0.804 4.336,1.606 5.138,2.731 0.803,1.284 0.482,2.409 -0.802,3.694 L 23.283,14.615 44.64,-0.321 44.158,-1.124 C 42.392,0.321 39.823,1.124 36.771,1.767 33.721,2.249 30.83,2.41 28.422,2.249 L 10.759,0.963 c 1.605,-7.708 2.248,-15.096 1.765,-21.841 -0.481,-6.585 -1.445,-13.652 -3.05,-20.879 -1.606,-7.066 -2.57,-12.045 -2.891,-14.453 -0.16,-2.41 0.643,-4.337 2.409,-5.622 l -0.481,-0.803 -19.912,13.812 0.642,0.803 c 2.249,-0.964 4.015,-0.481 5.46,1.445 0.482,0.803 1.445,2.57 2.73,5.46 C 1.284,-30.354 2.087,-16.542 0,0" /></g><g
           transform="translate(802.7676,744.5981)"
           id="g88"><path
             id="path90"
             style="fill:#ffffff;fill-opacity:1;fill-rule:evenodd;stroke:none"
             d="m 0,0 -26.174,-12.206 c 0.321,1.124 -0.321,2.409 -1.606,3.855 l -0.321,0.321 -31.633,32.763 0.802,0.803 c 2.248,-1.766 4.335,-2.409 6.263,-1.927 1.766,0.482 4.335,2.248 7.386,5.139 l 33.882,32.763 c 4.657,4.497 5.62,8.673 2.73,12.527 L -8.029,74.68 10.116,55.729 9.635,55.248 C 7.226,57.175 5.139,57.817 3.211,57.014 1.124,56.211 -0.803,54.926 -2.891,52.838 L -37.735,19.112 c -3.212,-3.051 -3.051,-6.585 0.481,-10.6 0.482,-0.321 1.124,-0.803 1.767,-1.445 9.955,-8.673 21.677,-10.761 35.166,-6.264 z" /></g><g
           transform="translate(845.3203,765.1553)"
           id="g92"><path
             id="path94"
             style="fill:#ffffff;fill-opacity:1;fill-rule:evenodd;stroke:none"
             d="m 0,0 14.291,-22.002 -0.642,-0.482 c -1.606,2.088 -3.373,3.212 -5.138,3.212 -1.927,0 -4.175,-0.803 -6.744,-2.409 L -30.349,-42.56 c -5.138,-3.373 -8.189,-7.227 -8.993,-11.564 -0.803,-4.335 0.321,-8.832 3.373,-13.49 2.73,-4.015 6.262,-7.227 10.598,-9.315 4.496,-2.088 9.635,-1.284 15.576,2.57 l 29.867,19.433 c 3.211,2.088 5.299,3.854 6.423,5.3 1.124,1.445 1.445,2.73 1.284,3.533 -0.16,0.964 -0.641,2.249 -1.284,3.854 l 0.643,0.322 11.721,-17.827 -0.802,-0.482 c -1.767,1.767 -3.533,2.73 -5.299,2.891 -1.767,0.321 -4.496,-0.803 -8.19,-3.212 L -2.088,-77.893 c -7.386,-4.817 -14.612,-6.745 -21.356,-5.941 -6.905,0.963 -13.007,5.46 -18.466,13.811 -4.015,6.424 -6.424,12.848 -7.227,19.273 -0.642,6.584 3.051,12.366 10.92,17.505 l 31.954,20.718 c 1.607,1.124 3.051,2.089 4.015,3.212 1.124,0.964 1.927,2.248 2.408,3.855 0.321,1.445 0,3.212 -0.963,5.139 z" /></g><g
           transform="translate(883.5371,642.6157)"
           id="g96"><path
             id="path98"
             style="fill:#ffffff;fill-opacity:1;fill-rule:evenodd;stroke:none"
             d="m 0,0 c 0.643,-8.352 -0.32,-15.257 -2.89,-20.397 -2.73,-5.3 -6.423,-8.833 -11.401,-10.921 -2.891,-1.124 -5.62,-1.766 -8.35,-1.606 -3.533,-0.16 -6.744,0.803 -9.795,2.891 -2.89,1.927 -5.46,4.497 -7.708,7.709 -2.087,3.212 -3.853,6.585 -5.298,10.279 l -13.49,33.084 1.124,0.321 c 1.286,-2.248 2.891,-3.534 4.658,-4.015 1.926,-0.322 4.496,0 7.868,1.446 l 42.714,17.184 c 3.05,1.284 5.298,2.409 6.744,3.533 1.445,1.124 2.408,2.248 2.729,3.534 0.482,1.284 0.482,2.729 0.16,4.496 L 7.869,47.859 23.284,9.475 C 27.459,-0.643 26.496,-6.906 20.555,-9.315 18.627,-9.958 16.7,-9.958 14.773,-9.797 13.007,-9.476 10.92,-8.513 8.511,-6.906 6.103,-5.3 3.373,-3.052 0,0 M -11.561,19.272 C -7.868,14.454 -4.496,10.76 -1.123,7.87 2.088,5.139 4.979,3.212 7.548,2.409 c 2.569,-0.964 4.656,-0.964 6.423,-0.322 4.014,1.607 4.336,6.746 0.802,15.258 -0.962,2.73 -1.926,4.657 -2.729,5.943 -0.643,1.284 -1.445,2.247 -2.248,2.729 C 8.993,26.499 8.189,26.66 7.065,26.499 6.103,26.338 4.817,25.856 3.212,25.214 Z m -4.657,-1.767 -24.568,-9.957 c 0,-0.16 -0.321,-0.16 -0.803,-0.16 -1.124,-0.643 -2.088,-1.285 -2.729,-1.928 -0.643,-0.481 -0.964,-1.285 -0.964,-2.248 0.321,-1.767 0.803,-4.176 1.766,-6.906 1.606,-3.534 3.533,-6.906 5.781,-9.797 2.248,-2.891 4.336,-4.818 6.584,-5.781 4.977,-1.607 9.473,-1.607 13.649,0 3.854,1.605 6.904,4.336 9.314,8.351 2.408,4.175 3.692,9.315 3.853,15.418 z" /></g><g
           transform="translate(165.1172,177.3486)"
           id="g100"><path
             id="path102"
             style="fill:#ffffff;fill-opacity:1;fill-rule:evenodd;stroke:none"
             d="M 0,0 2.569,2.892 C 5.138,0.964 7.708,0.161 9.956,0.964 c 2.248,0.641 5.46,3.372 9.795,8.03 l 40.947,45.611 -1.284,1.124 C 54.757,59.904 49.779,62.153 44.479,62.475 39.181,62.796 33.56,61.19 27.458,57.496 l -2.408,3.052 26.174,19.594 c 0.161,-0.965 0.642,-1.928 1.124,-2.731 0.482,-0.642 1.285,-1.606 2.409,-2.57 L 102.608,31.8 c 0.964,-0.964 1.928,-1.767 2.73,-2.088 0.964,-0.482 1.766,-0.804 2.891,-0.964 L 91.689,0.643 88.317,2.73 c 2.891,6.424 4.015,12.207 3.051,17.506 -0.803,5.14 -3.533,9.957 -8.189,13.973 l -1.285,1.284 -40.947,-45.45 c -4.336,-4.818 -6.744,-8.513 -7.226,-10.761 -0.482,-2.248 0.482,-4.657 2.73,-6.905 l -2.569,-2.892 z" /></g><g
           transform="translate(238.9824,113.5898)"
           id="g104"><path
             id="path106"
             style="fill:#ffffff;fill-opacity:1;fill-rule:evenodd;stroke:none"
             d="m 0,0 1.767,3.371 c 2.408,-0.802 4.496,-0.802 6.101,0.322 1.606,0.964 3.694,4.016 6.424,9.155 l 26.334,49.465 c 2.73,4.979 4.014,8.512 4.014,10.44 -0.16,1.927 -1.123,3.693 -3.211,5.3 l 1.766,3.373 57.326,-30.515 c 5.941,-3.212 9.795,-6.585 11.562,-10.279 1.766,-3.694 1.605,-7.709 -0.803,-12.205 -2.088,-3.855 -5.139,-6.746 -9.314,-8.512 -4.174,-1.928 -10.277,-3.052 -18.305,-3.373 1.444,-5.461 2.248,-11.563 2.408,-18.148 0.321,-6.747 -0.16,-14.776 -1.124,-23.93 v -0.803 c -0.964,-8.512 0.16,-13.973 3.051,-16.221 l -1.767,-3.373 -37.896,20.236 1.767,3.373 c 1.927,-0.16 3.372,0 4.336,0.321 0.963,0.482 1.766,1.284 2.408,2.409 1.766,3.372 2.73,8.833 2.73,16.703 0.16,7.87 -0.964,15.417 -3.212,22.966 l -5.459,0.964 -11.562,-21.52 c -2.569,-5.14 -4.014,-8.674 -3.854,-10.601 0,-1.767 1.124,-3.533 3.052,-5.14 l -1.767,-3.372 z m 55.881,30.354 c 6.744,-1.927 12.685,-2.249 17.503,-0.964 4.977,1.446 8.671,4.175 10.919,8.351 1.606,3.212 1.926,5.782 0.963,8.191 -0.963,2.409 -3.211,4.497 -6.905,6.424 -3.211,1.767 -5.62,2.57 -7.225,2.41 -1.606,0 -3.212,-1.607 -4.818,-4.658 z" /></g><g
           transform="translate(350.1016,57.0576)"
           id="g108"><path
             id="path110"
             style="fill:#ffffff;fill-opacity:1;fill-rule:evenodd;stroke:none"
             d="m 0,0 0.803,3.693 c 2.569,-0.16 4.496,0.482 5.78,1.928 1.285,1.284 2.57,4.818 4.015,10.439 l 12.525,54.605 c 1.285,5.621 1.766,9.315 1.124,11.081 -0.482,1.928 -2.087,3.213 -4.496,4.337 l 0.963,3.693 61.983,-14.293 c 1.766,-0.482 3.533,-0.642 4.817,-0.482 1.445,0.16 2.569,0.643 3.533,1.446 l 0.321,-32.763 -3.693,0.321 c -1.124,7.066 -3.854,12.849 -8.19,17.345 -4.335,4.497 -10.116,7.548 -17.342,9.315 -3.693,0.803 -6.262,0.642 -7.868,-0.321 -1.606,-1.124 -2.89,-3.855 -4.015,-8.191 l -2.087,-9.315 7.547,-1.767 c 4.818,-1.124 8.029,-1.124 10.116,0 1.928,0.964 3.533,3.533 4.978,7.388 l 2.73,-0.643 -2.248,-35.653 h -2.73 c -0.482,6.103 -1.927,10.6 -4.335,13.65 -2.248,2.892 -6.102,4.82 -11.241,6.104 l -6.905,1.605 -6.904,-29.549 c -1.124,-5.14 -1.124,-8.834 0.16,-10.922 1.124,-2.088 4.015,-3.694 8.671,-4.657 7.387,-1.767 14.292,-0.964 21.036,2.087 6.584,3.052 13.328,8.672 19.911,16.704 L 92.171,15.738 72.26,-18.31 c -0.643,0.644 -1.446,1.286 -2.409,1.768 -0.963,0.481 -2.409,0.963 -4.336,1.284 z" /></g><g
           transform="translate(470.3735,106.6836)"
           id="g112"><path
             id="path114"
             style="fill:#ffffff;fill-opacity:1;fill-rule:evenodd;stroke:none"
             d="m 0,0 c -0.161,5.781 -0.803,9.476 -1.766,11.082 -0.964,1.606 -2.891,2.569 -5.46,2.891 l -0.16,3.853 51.866,1.768 0.16,-3.695 c -0.963,-0.641 -1.765,-1.124 -2.248,-1.767 -0.642,-0.642 -0.803,-1.444 -0.803,-2.247 0,-0.482 0.322,-1.285 0.803,-2.249 0.483,-0.803 1.124,-1.606 1.927,-2.408 L 62.786,-11.885 62.304,2.248 c -0.161,5.621 -0.804,9.315 -1.766,10.921 -0.964,1.606 -2.73,2.73 -5.46,3.052 v 3.854 l 25.049,0.803 0.162,-3.855 C 77.719,16.542 76.114,15.418 75.15,13.812 74.348,12.045 73.866,8.352 74.186,2.57 l 1.928,-55.89 c 0.16,-5.782 0.803,-9.476 1.765,-11.082 0.964,-1.606 2.731,-2.57 5.46,-3.051 v -3.855 l -26.976,-0.803 -0.161,3.854 c 3.212,0.161 5.46,0.965 6.584,2.41 1.124,1.606 1.766,4.496 1.605,8.993 l -0.16,3.212 -52.509,54.927 1.927,-55.087 c 0.161,-6.425 0.963,-10.6 2.248,-12.527 1.285,-1.928 3.693,-3.052 7.065,-3.212 v -3.855 l -26.977,-0.963 -0.16,3.854 c 2.569,0.643 4.175,1.767 5.138,3.373 0.804,1.606 1.124,5.46 0.964,11.081 z" /></g><g
           transform="translate(654.876,121.2988)"
           id="g116"><path
             id="path118"
             style="fill:#ffffff;fill-opacity:1;fill-rule:evenodd;stroke:none"
             d="m 0,0 -4.175,-2.249 c -7.065,7.228 -13.167,11.885 -18.145,13.973 -5.138,2.248 -10.277,2.569 -15.576,0.964 -7.226,-2.25 -12.043,-6.585 -14.933,-13.171 -2.731,-6.745 -2.731,-14.292 -0.161,-22.965 3.533,-11.082 9.313,-19.594 17.664,-25.215 8.189,-5.621 16.86,-7.066 25.852,-4.176 5.942,1.766 10.598,4.818 13.97,9.315 3.372,4.336 5.46,10.118 6.263,17.185 l 3.693,0.16 -1.284,-31.799 c -1.445,0 -2.73,-0.161 -4.015,-0.321 -1.285,-0.161 -2.569,-0.483 -3.693,-0.804 -1.767,-0.481 -4.817,-1.766 -9.314,-3.854 -4.496,-2.248 -8.029,-3.694 -11.08,-4.497 -15.254,-4.657 -29.064,-3.855 -41.267,2.73 -12.365,6.425 -20.715,17.185 -25.371,32.282 -4.176,13.651 -3.533,25.214 2.248,34.529 5.62,9.476 16.057,16.382 31.312,21.04 3.533,1.124 7.547,2.087 12.365,3.051 4.817,0.964 7.707,1.606 8.831,1.927 1.285,0.482 2.569,0.963 3.854,1.767 1.445,0.803 3.051,1.927 4.817,3.212 z" /></g><g
           transform="translate(660.6572,178.6338)"
           id="g120"><path
             id="path122"
             style="fill:#ffffff;fill-opacity:1;fill-rule:evenodd;stroke:none"
             d="m 0,0 6.744,26.66 c 0.963,3.372 1.767,5.781 2.73,7.227 0.802,1.606 1.926,2.73 3.372,3.373 1.926,1.124 3.693,1.284 5.62,0.803 1.928,-0.482 3.533,-1.606 4.496,-3.534 0.804,-1.284 0.964,-2.891 0.642,-4.497 -0.321,-1.605 -1.445,-3.533 -2.89,-5.941 L 6.744,3.854 Z m 45.282,-94.916 -1.927,3.212 c 2.088,1.766 3.051,3.533 3.051,5.3 0.161,1.927 -1.284,5.461 -4.014,10.439 l -27.137,48.984 c -2.89,5.139 -5.139,8.029 -6.744,9.154 -1.607,0.964 -3.694,0.964 -6.103,0.161 L 0.481,-14.294 37.093,5.942 39.02,2.569 c -2.087,-1.605 -3.051,-3.372 -3.211,-5.299 0,-1.927 1.445,-5.461 4.174,-10.44 l 27.138,-48.983 c 2.891,-4.979 4.978,-8.031 6.744,-8.994 1.606,-0.963 3.532,-1.124 6.102,-0.161 l 1.766,-3.373 z" /></g><g
           transform="translate(730.5078,185.2187)"
           id="g124"><path
             id="path126"
             style="fill:#ffffff;fill-opacity:1;fill-rule:evenodd;stroke:none"
             d="m 0,0 c -3.693,4.336 -6.583,6.745 -8.35,7.388 -1.766,0.641 -3.854,0.321 -5.941,-1.124 l -2.569,2.889 39.02,34.049 2.569,-2.891 c -0.482,-0.963 -0.642,-1.927 -0.642,-2.73 0,-0.964 0.321,-1.606 0.803,-2.249 0.321,-0.321 0.963,-0.803 1.926,-1.124 0.964,-0.481 1.927,-0.643 3.051,-0.803 l 26.495,-3.212 -9.313,10.6 c -3.854,4.336 -6.583,6.905 -8.35,7.548 -1.766,0.642 -3.693,0.161 -5.941,-1.124 l -2.57,2.89 18.949,16.542 2.569,-2.89 C 50.1,61.671 49.458,59.743 49.779,57.978 50.1,56.05 52.188,52.999 56.041,48.663 L 92.813,6.264 c 3.694,-4.337 6.584,-6.746 8.35,-7.388 1.767,-0.643 3.693,-0.161 5.941,1.124 l 2.57,-2.892 -20.554,-17.826 -2.408,2.891 c 2.408,2.248 3.532,4.337 3.532,6.264 0,1.766 -1.445,4.496 -4.496,7.869 L 83.66,-1.285 8.35,8.351 44.479,-33.245 c 4.176,-4.818 7.387,-7.709 9.635,-8.352 2.248,-0.642 4.818,0 7.387,1.928 l 2.569,-2.892 -20.553,-17.826 -2.41,2.891 c 1.607,2.088 2.248,4.015 1.928,5.942 -0.482,1.767 -2.409,4.818 -6.263,9.315 z" /></g><g
           transform="translate(575.3906,169.1582)"
           id="g128"><path
             id="path130"
             style="fill:#ffffff;fill-opacity:1;fill-rule:evenodd;stroke:none"
             d="m 0,0 23.604,-17.506 11.562,4.658 5.139,28.909 -6.263,-2.41 L 24.408,-2.73 6.263,2.57 Z" /></g><g
           transform="translate(96.7114,585.1196)"
           id="g132"><path
             id="path134"
             style="fill:#ffffff;fill-opacity:1;fill-rule:evenodd;stroke:none"
             d="m 0,0 7.065,-23.608 22.321,0.16 -18.306,-14.615 7.065,-23.288 -18.306,14.616 -17.984,-14.616 7.065,23.609 -18.145,14.294 h 22.481 z" /></g><g
           transform="translate(93.5,481.5303)"
           id="g136"><path
             id="path138"
             style="fill:#ffffff;fill-opacity:1;fill-rule:evenodd;stroke:none"
             d="m 0,0 6.905,-23.608 22.32,0.161 -18.145,-14.616 7.065,-23.288 -18.306,14.616 -17.984,-14.616 6.904,23.61 -18.145,14.294 h 22.642 z" /></g><g
           transform="translate(119.6738,385.4902)"
           id="g140"><path
             id="path142"
             style="fill:#ffffff;fill-opacity:1;fill-rule:evenodd;stroke:none"
             d="m 0,0 6.905,-23.609 22.32,0.162 -18.145,-14.616 7.066,-23.288 -18.307,14.616 -17.984,-14.616 6.905,23.61 -18.145,14.294 h 22.641 z" /></g><g
           transform="translate(896.7051,586.2437)"
           id="g144"><path
             id="path146"
             style="fill:#ffffff;fill-opacity:1;fill-rule:evenodd;stroke:none"
             d="m 0,0 -7.065,-23.608 -22.321,0.16 18.306,-14.615 -7.066,-23.288 18.306,14.616 17.824,-14.616 -6.904,23.609 18.145,14.294 H 6.744 Z" /></g><g
           transform="translate(899.916,482.6553)"
           id="g148"><path
             id="path150"
             style="fill:#ffffff;fill-opacity:1;fill-rule:evenodd;stroke:none"
             d="m 0,0 -6.904,-23.609 -22.321,0.161 18.146,-14.615 -7.066,-23.448 18.306,14.615 17.985,-14.615 -7.066,23.769 18.306,14.294 H 6.745 Z" /></g><g
           transform="translate(873.7422,386.6143)"
           id="g152"><path
             id="path154"
             style="fill:#ffffff;fill-opacity:1;fill-rule:evenodd;stroke:none"
             d="m 0,0 -6.904,-23.608 -22.321,0.16 18.146,-14.615 -7.067,-23.448 18.307,14.615 17.985,-14.615 -7.066,23.77 18.146,14.293 H 6.744 Z" /></g></g></g></g></svg>