<?xml version="1.0" encoding="UTF-8" standalone="no"?>
<!-- Created with Inkscape (http://www.inkscape.org/) -->

<svg
   xmlns:dc="http://purl.org/dc/elements/1.1/"
   xmlns:cc="http://creativecommons.org/ns#"
   xmlns:rdf="http://www.w3.org/1999/02/22-rdf-syntax-ns#"
   xmlns:svg="http://www.w3.org/2000/svg"
   xmlns="http://www.w3.org/2000/svg"
   xmlns:sodipodi="http://sodipodi.sourceforge.net/DTD/sodipodi-0.dtd"
   xmlns:inkscape="http://www.inkscape.org/namespaces/inkscape"
   id="svg2"
   version="1.1"
   inkscape:version="0.91 r13725"
   width="718"
   height="718"
   viewBox="0 0 718 718"
   sodipodi:docname="tripoli.svg">
  <metadata
     id="metadata8">
    <rdf:RDF>
      <cc:Work
         rdf:about="">
        <dc:format>image/svg+xml</dc:format>
        <dc:type
           rdf:resource="http://purl.org/dc/dcmitype/StillImage" />
        <dc:title></dc:title>
      </cc:Work>
    </rdf:RDF>
  </metadata>
  <defs
     id="defs6" />
  <sodipodi:namedview
     pagecolor="#ffffff"
     bordercolor="#666666"
     borderopacity="1"
     objecttolerance="10"
     gridtolerance="10"
     guidetolerance="10"
     inkscape:pageopacity="0"
     inkscape:pageshadow="2"
     inkscape:window-width="1600"
     inkscape:window-height="838"
     id="namedview4"
     showgrid="false"
     inkscape:zoom="0.464839"
     inkscape:cx="207.00487"
     inkscape:cy="600.16163"
     inkscape:window-x="-8"
     inkscape:window-y="-8"
     inkscape:window-maximized="1"
     inkscape:current-layer="svg2" />
  <circle
     style="fill:#ffffff"
     id="path3364"
     cx="359.17664"
     cy="359.18457"
     r="357.47882" />
  <g
     transform="matrix(0.99337607,0,0,0.99337607,3.6241471,1.4869061)"
     id="g3366">
    <path
       inkscape:connector-curvature="0"
       id="path3368"
       d="m 336.5,703.41493 c -2.2,-0.21395 -8.95,-0.88349 -15,-1.48787 -65.29936,-6.52322 -132.3947,-35.07977 -184,-78.31253 C 128.06077,615.70673 105.57739,593.38603 97.093109,583.5 52.767834,531.85141 25.678327,470.42562 16.335656,400.38148 c -2.414366,-18.10105 -2.414366,-64.66191 0,-82.76296 C 21.688568,277.48651 31.595926,243.91886 48.098831,210 66.007916,173.19098 83.873082,147.53087 111,119.65374 140.4078,89.432649 167.10679,69.660839 202.97726,51.540431 241.69817,31.980093 277.5235,21.191362 321.5,15.847532 c 16.25037,-1.974672 62.41624,-1.680514 79,0.50337 67.79406,8.927673 129.37873,35.626191 180,78.034571 9.43923,7.907797 31.92261,30.228497 40.40689,40.114527 44.39298,51.72747 71.49677,113.14931 80.75294,183 2.42009,18.26291 2.42009,64.73709 0,83 -9.25617,69.85069 -36.35996,131.27253 -80.75294,183 -8.48428,9.88603 -30.96766,32.20673 -40.40689,40.11453 -50.48244,42.29207 -112.9256,69.39844 -179.5,77.92036 -11.76896,1.50649 -55.29534,2.7752 -64.5,1.88004 z M 347,676.80459 c 0,-1.35701 -14.72928,-43.36833 -16.14686,-46.05459 -0.59282,-1.12336 -2.0982,-1.75 -4.20405,-1.75 -3.12615,0 -3.91285,0.90231 -16.71482,19.17105 -16.42614,23.44052 -15.48021,21.86865 -13.8006,22.93272 2.8385,1.79825 4.97414,0.7508 8.51331,-4.17547 l 3.64366,-5.0717 7.10468,0.67008 c 3.90757,0.36855 10.24281,1.18831 14.0783,1.8217 l 6.97363,1.15162 1.84353,4.97845 c 1.01394,2.73815 2.31841,5.55065 2.89882,6.25 1.33624,1.61007 5.8104,1.6687 5.8104,0.0761 z M 320.56255,657.8906 c -3.2656,-0.47603 -6.34083,-1.26888 -6.83384,-1.76189 -1.089,-1.089 10.01571,-18.12871 11.81441,-18.12871 0.6836,0 1.56336,0.7875 1.95503,1.75 2.21115,5.43377 5.50185,15.85589 5.50185,17.42515 0,2.06163 -2.29642,2.19373 -12.43745,0.71545 z M 395,676.1399 c 4.83091,-0.56375 5.54141,-0.9348 5.84041,-3.05004 l 0.34041,-2.40822 -15.03634,0.61723 c -13.63689,0.55978 -15.08243,0.45826 -15.53159,-1.09082 -0.27239,-0.93943 -0.80649,-9.69005 -1.1869,-19.44584 -0.74289,-19.05229 -1.30282,-20.96887 -5.47386,-18.73659 -2.06315,1.10417 -2.1451,1.63807 -1.58385,10.31939 0.32553,5.03525 0.87835,14.55499 1.22849,21.15499 0.35015,6.6 1.03971,12.50286 1.53237,13.11746 0.91507,1.14156 18.39034,0.86217 29.87086,-0.47756 z m 39.10257,-6.69111 C 453.41619,664.99436 453,665.12417 453,663.55506 c 0,-3.42633 -2.52077,-3.49327 -15.92631,-0.42296 -11.07867,2.53737 -13.5257,2.82494 -14.54485,1.70925 -0.67391,-0.73774 -2.91483,-8.99135 -4.97982,-18.34135 -2.06499,-9.35 -4.33078,-17.60643 -5.03511,-18.34762 -0.95721,-1.00733 -1.78271,-1.07889 -3.26908,-0.28341 -2.30797,1.23519 -2.4636,0.0104 3.25676,25.63103 3.22919,14.4631 4.77214,19.5 5.97342,19.5 0.12657,0 7.15897,-1.59804 15.62756,-3.55121 z m -154.21944,-8.07948 c 2.58091,-1.80774 5.12021,-7.06808 5.11071,-10.58719 -0.003,-1.25517 -0.70487,-3.6221 -1.55885,-5.25985 -1.5085,-2.893 -1.46851,-3.04951 1.4053,-5.5 1.62688,-1.38725 3.45336,-3.50519 4.05884,-4.70653 2.61135,-5.18124 0.19291,-12.18206 -5.16606,-14.95451 C 279.47587,618.15877 252.11988,608 250.4462,608 c -1.34552,0 -1.91479,1.35633 -11.08654,26.41461 -4.45505,12.17171 -5.21998,15.14395 -4.15933,16.16162 0.71482,0.68585 8.27467,3.73895 16.79967,6.78466 16.77988,5.99491 23.63919,6.98099 27.88313,4.00842 z M 258.5,654.10141 c -14.92387,-5.26052 -16.5,-5.91949 -16.5,-6.89852 0,-1.5313 3.26235,-10.67601 4.26417,-11.95289 1.51871,-1.9357 3.36037,-1.57141 16.15023,3.19458 13.24272,4.93476 15.91893,6.89466 15.91893,11.65813 0,3.48058 -4.00618,7.90629 -7.13909,7.88669 -0.93183,-0.006 -6.64424,-1.75542 -12.69424,-3.88799 z m 3.5,-21.25673 c -5.775,-2.1702 -11.05751,-4.49664 -11.73891,-5.16987 -0.98452,-0.97272 -0.87,-2.1959 0.55776,-5.95719 0.98817,-2.60322 2.28389,-5.22036 2.87939,-5.81586 1.28098,-1.28098 22.94374,6.24218 26.87225,9.33234 2.82564,2.22266 3.19231,6.23184 0.87281,9.54339 -2.25266,3.21612 -6.99668,2.74453 -19.4433,-1.93281 z m 257.62152,3.72832 c 10.72612,-4.91058 17.30844,-11.85546 19.1951,-20.25236 1.17739,-5.24016 0.18855,-7.09966 -3.00229,-5.64581 -1.58671,0.72295 -2.72326,2.5356 -3.56637,5.6879 -2.35394,8.80111 -13.76401,16.96826 -23.74796,16.99841 -6.29059,0.019 -10.69161,-2.2625 -14.49655,-7.51508 -5.78212,-7.98198 -5.25413,-15.52559 1.59952,-22.85269 6.36019,-6.79956 12.88673,-9.42094 21.4696,-8.62324 5.80363,0.53939 6.85351,0.36903 8.42461,-1.36701 1.75113,-1.93498 1.70009,-2.02275 -2.09913,-3.61017 -11.31995,-4.72977 -30.7342,3.44328 -36.85062,15.51346 -4.71711,9.30876 -4.264,15.83391 1.71616,24.71418 4.6754,6.94276 12.20342,10.74903 19.92779,10.07576 3.13026,-0.27283 8.27382,-1.67834 11.43014,-3.12335 z M 203.19369,630.25 c 0.82702,-0.9625 5.4378,-8.1613 10.24618,-15.99734 4.80838,-7.83604 9.14614,-14.4968 9.63947,-14.8017 0.49333,-0.30489 4.04909,1.31829 7.90168,3.60707 6.97668,4.14477 10.48993,4.6044 9.84289,1.28771 -0.30997,-1.58886 -6.10941,-5.503 -26.70031,-18.02048 -8.87565,-5.39562 -9.44885,-5.60095 -10.73305,-3.84469 -1.74204,2.38238 -0.76292,3.58746 6.10945,7.51943 2.89611,1.65699 5.75422,3.60138 6.35135,4.32089 0.82367,0.99246 -1.35405,5.32993 -9.02324,17.972 -8.47741,13.97438 -9.90511,16.9094 -8.84608,18.18546 1.65886,1.9988 3.36214,1.92417 5.21166,-0.22835 z m 370.99592,-34.25834 c 6.8213,-6.09983 12.31039,-11.78494 12.31039,-12.75 0,-3.86776 -4.55137,-1.65029 -14.38469,7.00834 -5.46539,4.8125 -10.34131,8.75 -10.83537,8.75 -0.49406,0 -6.48605,-6.3 -13.31554,-14 -6.97945,-7.86907 -13.17854,-14 -14.15564,-14 -0.95612,0 -2.18783,0.83978 -2.73714,1.86618 -0.84435,1.57768 1.19851,4.3555 13.21482,17.96906 7.81746,8.85658 14.97388,16.11681 15.90317,16.13382 0.92928,0.017 7.22928,-4.92281 14,-10.9774 z m -400.80753,4.91929 c 5.72961,-1.59088 13.14798,-8.98 15.19107,-15.13119 C 194.20481,568.82443 178.54618,549 159.52209,549 c -7.98249,0 -12.79639,2.16598 -17.7964,8.00737 -9.92337,11.59322 -5.94439,28.8659 9.02165,39.1628 7.71503,5.30808 15.0549,6.8454 22.63474,4.74078 z m -13.46648,-6.28007 c -7.69143,-2.74951 -16.16545,-12.1153 -17.52664,-19.37109 -2.08663,-11.12268 9.88591,-22.79966 21.2004,-20.67705 4.81571,0.90343 12.1465,5.99761 16.06562,11.16403 7.50923,9.89909 4.16148,23.252 -7.11361,28.37357 -4.73359,2.15017 -7.70318,2.27025 -12.62577,0.51054 z M 600.38398,564.7891 c 5.24219,-1.54222 14.3527,-10.47473 17.63361,-17.2891 3.11919,-6.47848 3.2735,-14.28157 0.3604,-18.2245 -2.77628,-3.75776 -25.44649,-21.21593 -27.59281,-21.24905 -0.94315,-0.0145 -2.19051,0.8624 -2.77192,1.94878 -0.93495,1.74697 -0.0519,2.75815 7.64125,8.75 4.7841,3.72612 10.86155,8.46687 13.50544,10.53499 2.64389,2.06812 5.09851,4.92139 5.45471,6.34059 C 616.75416,544.12525 604.95104,559 596.0474,559 c -3.74886,0 -7.59871,-2.33116 -21.59049,-13.07346 -7.96037,-6.11164 -8.31815,-6.28659 -10.00071,-4.89019 -3.00551,2.49435 -1.28746,4.65044 11.0145,13.82279 15.13717,11.28628 17.33088,12.16064 24.91328,9.92996 z m -364.35435,-9.94442 c 9.60871,-5.03543 42.13841,-22.13543 72.28825,-38 C 338.46771,500.98011 363.5196,488 363.98875,488 c 0.46915,0 21.47611,10.84031 46.68212,24.08958 25.20602,13.24927 56.17913,29.51054 68.82913,36.13616 12.65,6.62562 24.48822,12.88531 26.30716,13.91042 3.83327,2.16034 6.19643,2.3949 6.18439,0.61384 -0.005,-0.6875 -1.09793,-7.55 -2.42951,-15.25 -1.33157,-7.7 -4.49873,-26.15 -7.03812,-41 -2.53939,-14.85 -5.48006,-31.95 -6.53482,-38 C 489.52978,431.45006 485,403.98072 485,401.86024 c 0,-1.91989 12.70367,-14.79603 59,-59.80099 32.45,-31.54486 59,-57.72933 59,-58.18772 0,-1.19555 -1.54842,-1.47842 -32,-5.84584 C 488.79251,266.23535 439.70651,258.93665 438.78337,258.36611 437.82917,257.77639 411.32804,204.5818 378.44427,137.25 371.12462,122.2625 364.63145,110 364.01502,110 c -0.61643,0 -8.69211,15.4125 -17.94595,34.25 -46.70887,95.08245 -55.89371,113.52359 -56.83007,114.10229 -0.55967,0.34589 -21.2049,3.56777 -45.87829,7.15972 -24.67339,3.59195 -59.03571,8.59601 -76.36071,11.12013 -17.325,2.52412 -33.71318,4.87698 -36.41818,5.22858 -2.70499,0.35161 -5.07217,1.1033 -5.26038,1.67044 -0.28436,0.85682 73.1098,73.20911 107.85888,106.32778 7.57827,7.2227 9.82037,9.96178 9.82272,12 0.002,1.45258 -2.01959,14.34106 -4.49171,28.64106 C 227.33853,495.12922 216,561.788 216,562.84329 c 0,2.17632 2.57852,1.14662 20.02963,-7.99861 z M 248,515.6955 c 0,-1.38516 1.77432,-13.0208 3.94293,-25.85699 6.93331,-41.03879 12.07126,-71.0328 14.09166,-82.2634 C 267.11557,401.56642 268,395.23626 268,393.50809 c 0,-3.26621 -4.6011,-7.94958 -73.34418,-74.65551 -12.78376,-12.40491 -16.87332,-16.94331 -16.0473,-17.80852 0.60969,-0.6386 5.78469,-1.80737 11.5,-2.59724 5.71531,-0.78988 13.31648,-1.89988 16.89148,-2.46666 3.575,-0.56678 14.6,-2.17996 24.5,-3.58483 9.9,-1.40488 20.7,-2.9727 24,-3.48403 3.3,-0.51134 8.925,-1.34582 12.5,-1.85441 17.12484,-2.43621 22.98657,-3.25699 28.86765,-4.04211 3.5022,-0.46754 6.77073,-1.25316 7.26339,-1.74582 0.90473,-0.90473 32.43322,-64.16906 47.85213,-96.01896 7.88637,-16.29037 9.83537,-18.96125 11.67559,-16 0.42723,0.6875 12.8672,25.775 27.64436,55.75 14.77717,29.975 27.43035,55.08511 28.11819,55.80025 1.10743,1.15138 8.49601,2.45482 35.57869,6.27654 4.125,0.58209 10.2,1.44754 13.5,1.92321 3.3,0.47567 9.6,1.37567 14,2 4.4,0.62433 10.8125,1.55473 14.25,2.06757 8.32362,1.24179 15.87307,2.351 33.23097,4.88247 7.96454,1.16155 14.91594,2.54687 15.44756,3.07849 1.05955,1.05955 0.7835,1.33916 -54.76184,55.46855 -33.11815,32.27392 -35.79121,35.1303 -35.27784,37.69719 0.30551,1.52754 2.8144,15.97093 5.57531,32.09643 2.76092,16.12549 6.37446,37.16938 8.03011,46.76419 7.7014,44.6313 7.79863,45.57034 4.59125,44.33955 -0.81961,-0.31451 -7.02414,-3.49958 -13.78786,-7.07792 -6.76371,-3.57835 -31.52898,-16.59529 -55.03394,-28.92654 l -42.73627,-22.42045 -10.76373,5.48674 c -5.92004,3.01772 -15.48872,8.0108 -21.26372,11.09575 -22.6105,12.0783 -78.5945,41.38089 -80.25,42.00365 -1.37768,0.51825 -1.75,0.1225 -1.75,-1.86017 z m -114.5,31.41268 c 3.56136,-1.99039 5.95693,-4.35014 8.3258,-8.2013 3.17665,-5.1644 3.30772,-5.76566 2.92266,-13.40688 -0.28455,-5.64669 -1.04407,-9.24202 -2.58194,-12.2222 -6.6129,-12.81485 -19.08673,-19.74182 -30.30851,-16.83093 -15.800138,4.09851 -22.58573,18.84001 -15.599296,33.88902 3.638624,7.83772 8.004436,13.14798 13.417776,16.32041 8.63731,5.0618 15.34735,5.18907 23.82351,0.45188 z m -21,-5.52803 c -2.2,-1.32051 -4.953,-3.69256 -6.11779,-5.27122 -8.925283,-12.09666 -9.139084,-21.83202 -0.64368,-29.30998 7.06516,-6.219 16.3048,-6.71686 23.12953,-1.2463 4.49735,3.60499 9.7704,12.14792 10.62673,17.21652 2.47307,14.63794 -14.32252,26.21729 -26.99479,18.61098 z M 646.03818,499.5 c 8.5205,-18.73853 9.65179,-22.91291 7.56385,-27.91005 -1.17039,-2.80113 -2.63755,-4.16047 -6.18339,-5.72897 -4.18099,-1.84944 -5.10929,-1.92753 -9.22281,-0.77582 -3.87461,1.08483 -4.64644,1.06302 -5.04833,-0.14266 -0.26093,-0.7828 -1.71625,-2.6651 -3.23404,-4.18288 C 627.67826,458.52441 626.25467,458 622.42209,458 c -4.18346,0 -5.14836,0.44093 -8.32693,3.80515 -3.83467,4.05864 -16.4939,30.959 -15.91292,33.81433 0.33662,1.65441 37.2635,19.40095 39.67656,19.068 0.74734,-0.10311 4.42806,-6.93748 8.17938,-15.18748 z m -17.02772,4.66614 c -3.01924,-1.48483 -5.62521,-3.40421 -5.79104,-4.26527 -0.34833,-1.80874 10.07872,-24.46784 12.48078,-27.12209 2.43096,-2.68618 7.86917,-2.30032 10.94615,0.77666 2.12901,2.12901 2.44619,3.13772 1.9008,6.0449 -0.79808,4.25415 -11.65158,26.75984 -13.04715,27.05442 -0.55,0.1161 -3.47029,-1.00378 -6.48954,-2.48862 z M 610.25,495.53624 c -2.8875,-1.34433 -5.25,-2.92739 -5.25,-3.51791 0,-2.01157 10.17193,-23.51096 12.03398,-25.435 4.39681,-4.54319 12.80648,-0.53565 11.59432,5.52515 -0.55412,2.7706 -9.2776,22.42409 -10.93748,24.64152 -1.23159,1.64527 -1.33667,1.62812 -7.44082,-1.21376 z M 99.908329,486.61046 c 1.044641,-1.25872 -2.50725,-12.1478 -8.940003,-27.40751 C 90.435747,457.93957 90,456.6773 90,456.39792 90,455.67155 100.78153,451 102.45793,451 c 0.87434,0 3.3161,4.98029 6.49627,13.25 2.80246,7.2875 5.53918,14.29454 6.0816,15.5712 1.142,2.68789 4.25872,2.60356 4.78505,-0.12947 0.39593,-2.05589 -11.40704,-33.49936 -13.35114,-35.56784 -1.09013,-1.15988 -3.31065,-0.59173 -14.131536,3.61574 -7.060995,2.74552 -16.149417,6.26748 -20.196491,7.82659 -7.846599,3.02285 -9.373146,4.63089 -6.819987,7.18405 1.460247,1.46024 2.289978,1.32322 9.808739,-1.61984 6.691392,-2.6192 8.445451,-2.97552 9.464866,-1.92272 0.688221,0.71076 3.374949,6.91729 5.970506,13.79229 5.847629,15.48895 6.723967,16.76562 9.342522,13.61046 z M 89.41035,330.12101 l 0.91035,-5.35769 -4.05175,-3.74126 c -3.944073,-3.64183 -4.029046,-3.85793 -3.19742,-8.13166 0.469882,-2.41472 1.377276,-7.3154 2.016432,-10.8904 1.560473,-8.72823 2.124108,-9.56417 7.333028,-10.87579 3.991873,-1.00516 4.601259,-1.54286 5.527189,-4.87696 C 99.476669,280.74344 99.287797,277 97.481617,277 c -0.835111,0 -4.772611,0.86681 -8.75,1.92624 C 84.754228,279.98567 74.3,282.70375 65.5,284.96641 c -8.8,2.26267 -16.975051,4.51915 -18.16678,5.01441 -1.609783,0.66899 -2.466717,2.34526 -3.333568,6.52086 -0.641734,3.09121 -0.926856,6.24564 -0.633605,7.00984 0.851556,2.21912 41.882026,32.58703 43.589119,32.26165 1.017204,-0.19389 1.855759,-2.12435 2.455184,-5.65216 z M 65.716814,306.31908 C 62.022566,303.74735 59,301.06584 59,300.36015 c 0,-0.70568 1.6875,-1.70215 3.75,-2.21438 10.449227,-2.59507 12.800779,-2.99499 13.499872,-2.2959 0.989842,0.98984 -1.177674,12.27569 -2.66912,13.8976 -0.901112,0.97994 -2.587607,0.24469 -7.863938,-3.42839 z m 582.411426,22.1146 c 5.26262,-2.7214 6.82452,-7.9642 6.8498,-22.99255 0.024,-14.28614 0.82823,-16.89135 5.02735,-16.2861 5.41506,0.78051 8.92615,14.97229 5.49374,22.20557 -1.65645,3.49071 -1.65897,3.93234 -0.0465,8.15465 2.22708,5.83151 3.40233,6.40435 6.12751,2.98665 3.42865,-4.29993 4.77352,-10.54062 4.15678,-19.289 -1.38635,-19.6654 -11.94944,-30.47669 -24.12977,-24.69674 -5.93879,2.81814 -7.0653,6.21744 -7.45105,22.48384 -0.18912,7.975 -0.80672,15.0625 -1.37244,15.75 -1.52487,1.85312 -5.23352,1.51542 -7.19812,-0.65544 C 633.36081,313.63622 631,305.76271 631,300.80123 c 0,-2.1345 0.9,-5.64505 2,-7.80123 2.43388,-4.7708 2.46929,-5.94804 0.31479,-10.46607 -2.08954,-4.38182 -3.54323,-4.44431 -6.60408,-0.28393 -3.85418,5.2387 -5.21442,9.79128 -5.15405,17.25 0.10476,12.94158 6.15771,26.81509 12.88867,29.54109 3.3948,1.37488 10.45573,1.06144 13.68291,-0.60741 z M 639.5,266.98399 c 11.55,-4.00962 21.63339,-7.87078 22.40753,-8.58035 1.20707,-1.10639 1.16024,-1.93766 -0.32876,-5.83654 -0.95496,-2.50053 -2.13198,-4.79097 -2.6156,-5.08986 -0.48362,-0.2989 -10.46068,2.80351 -22.17124,6.89424 C 610.57529,263.52947 612,262.94603 612,264.52408 c 0,2.79367 4.05397,10.66947 5.25887,10.21661 0.68262,-0.25657 10.69113,-3.74709 22.24113,-7.7567 z m -542.05553,2.60366 c 11.12232,-4.64721 21.79023,-26.57488 18.63303,-38.29982 -1.35378,-5.02756 -6.61475,-9.92279 -11.68675,-10.8743 C 97.905551,219.1969 93.318446,222.378 86.023557,233.15095 77.946449,245.07906 76.181756,247 73.300935,247 c -4.45628,0 -4.929922,-7.03974 -0.985662,-14.6499 0.897906,-1.73244 3.717482,-4.93203 6.265723,-7.1102 3.950772,-3.37702 4.708027,-4.62449 5.141448,-8.46979 0.279556,-2.48021 0.0696,-4.7806 -0.46657,-5.11197 -0.536169,-0.33137 -3.274241,0.54334 -6.084603,1.9438 C 67.869591,218.23717 60,232.63179 60,245.01069 c 0,5.17306 0.384694,6.35786 3.049985,9.39346 5.502891,6.26744 12.950747,6.99045 19.059572,1.85021 1.683906,-1.41691 6.183191,-7.22879 9.998411,-12.91528 C 97.517051,235.27697 99.546333,233 101.32237,233 104.6922,233 106,234.88436 106,239.73984 c 0,7.44089 -5.23118,15.77822 -12.115323,19.30909 C 90.34432,260.86478 89,263.63783 89,269.125 c 0,2.31282 3.550782,2.50736 8.44447,0.46265 z m 516.95347,-13.7231 c 1.37062,-0.6245 2.72919,-1.75346 3.01904,-2.50881 0.28986,-0.75534 -2.00987,-6.25076 -5.1105,-12.21204 -3.10062,-5.96128 -5.37845,-11.51377 -5.06183,-12.33886 0.31662,-0.8251 8.2661,-5.41557 17.66551,-10.20106 C 634.30957,213.8183 642,209.45682 642,208.91161 c 0,-1.56723 -3.8509,-8.70142 -5.12034,-9.48599 -0.63191,-0.39054 -10.75691,4.19143 -22.50001,10.18215 -15.54653,7.93105 -21.35496,11.37139 -21.36536,12.65473 -0.0137,1.69264 14.14108,30.91661 16.21987,33.4875 1.24548,1.54033 1.99791,1.55702 5.16378,0.11455 z M 137.36711,205.02144 C 138.8152,202.83323 140,200.6 140,200.0587 c 0,-0.5413 -2.8125,-2.87777 -6.25,-5.19215 -14.76488,-9.94083 -25.74977,-18.13714 -25.74682,-19.21083 0.002,-0.63565 1.80032,-3.85572 3.99682,-7.15572 2.1965,-3.3 3.99507,-6.73575 3.99682,-7.63499 C 115.99991,159.27434 112.03822,156 110.11054,156 108.84607,156 82,194.55188 82,196.36771 c 0,1.81375 4.759624,4.93851 6.503202,4.26943 0.737894,-0.28315 3.265126,-3.24235 5.61607,-6.57598 2.350945,-3.33364 4.973359,-6.04744 5.827587,-6.03066 0.854231,0.0168 8.298381,4.74177 16.542561,10.5 8.24418,5.75822 15.72188,10.4695 16.61711,10.4695 0.89523,0 2.8125,-1.79035 4.26058,-3.97856 z m 466.4331,-3.07947 c 14.43156,-7.21153 19.28187,-21.20779 12.27897,-35.43269 -8.28419,-16.82758 -23.3489,-25.50483 -37.11755,-21.37964 -6.08251,1.82237 -13.03171,7.753 -16.25728,13.87439 -2.58899,4.91331 -2.8494,6.23808 -2.45633,12.49597 0.57114,9.09289 4.0429,15.97801 12.13125,24.05851 9.99118,9.98146 20.10774,12.03674 31.42094,6.38346 z m -22.25862,-11.21691 c -2.17712,-1.23311 -5.32712,-4.18948 -7,-6.56969 -2.54481,-3.62082 -3.04159,-5.2784 -3.04159,-10.14869 0,-5.0205 0.42716,-6.34952 3.10602,-9.66386 9.44423,-11.68455 24.2701,-10.25937 30.86087,2.96658 2.83679,5.69269 2.95442,6.63346 1.4891,11.90955 -2.09117,7.5296 -10.19309,13.73041 -17.95599,13.74264 -1.925,0.003 -5.28128,-1.00341 -7.45841,-2.23653 z m -408.7576,-27.16382 c 17.84853,-17.55249 17.92595,-17.68597 12.39063,-21.36129 -2.12565,-1.41138 -2.69074,-1.00097 -13.9956,10.16464 C 164.69974,158.76407 158.72212,164 157.89542,164 c -0.8267,0 -3.03796,-1.58359 -4.91391,-3.51908 l -3.41083,-3.51908 11.21466,-11.24657 C 166.9534,139.52966 172,133.83618 172,133.06309 172,131.08457 169.00087,128 167.07715,128 c -0.88709,0 -6.3218,4.725 -12.07715,10.5 -5.75535,5.775 -11.18136,10.5 -12.05782,10.5 -1.52133,0 -4.76794,-2.9629 -6.41952,-5.85855 -0.53667,-0.94093 2.83118,-4.97401 10.95598,-13.12003 10.60214,-10.62983 11.62234,-11.96422 10.60318,-13.86853 -0.62021,-1.15888 -2.06068,-2.60639 -3.20105,-3.2167 -1.84173,-0.98566 -3.04025,-0.17701 -10.72708,7.23765 -4.75953,4.59101 -12.14119,11.68697 -16.40369,15.7688 -4.2625,4.08183 -7.75,7.8071 -7.75,8.27838 0,1.40314 33.38791,35.71812 34.78399,35.74982 0.70619,0.016 8.80619,-7.36828 18,-16.4096 z M 564.9967,142.00169 c 8.02187,-4.09246 11.40668,-15.14084 6.7533,-22.04349 C 569.01215,115.89698 543.22758,95 540.95433,95 c -1.75886,0 -30.95435,36.02415 -30.9543,38.19434 4e-5,1.62275 6.36701,6.80566 8.36044,6.80566 0.80703,0 3.79482,-2.925 6.63953,-6.5 2.84471,-3.575 5.40629,-6.5 5.6924,-6.5 0.28611,0 4.38622,3.01881 9.11137,6.70848 13.86647,10.82772 17.73114,12.09993 25.19293,8.29321 z M 544.56551,125.98796 C 540.40448,122.68135 537,119.59322 537,119.12547 c 0,-1.13468 5.82256,-8.4299 7.47272,-9.36274 1.30078,-0.73534 12.15169,7.09656 15.77728,11.38763 2.32029,2.74617 2.21253,5.97605 -0.28896,8.66108 -3.47296,3.72779 -6.99322,2.85353 -15.39553,-3.82348 z M 200.44284,139.90122 C 202.39928,138.7469 204,137.08557 204,136.20939 c 0,-0.87618 -1.8,-4.6229 -4,-8.32605 -2.2,-3.70315 -4,-7.34675 -4,-8.09688 0,-0.75014 2.46859,-2.86001 5.48576,-4.6886 l 5.48576,-3.32472 10.53426,4.61343 c 5.79384,2.53739 11.02888,4.61343 11.63343,4.61343 0.60454,0 3.63303,-1.53923 6.72998,-3.42052 3.09695,-1.88128 8.20651,-4.3842 11.3546,-5.56204 l 5.72378,-2.14152 0.65803,-4.96041 c 0.36191,-2.72822 1.05026,-5.202821 1.52967,-5.499114 0.47942,-0.296293 5.82494,-2.305648 11.87895,-4.465235 l 11.00729,-3.92652 4.0804,3.686396 4.0804,3.686396 5.5907,-1.948717 c 3.07489,-1.071794 5.73767,-2.410113 5.91729,-2.974043 0.17962,-0.56393 -8.37004,-9.680463 -18.99926,-20.258962 l -19.32584,-19.233636 -5.90539,2.031752 c -3.24796,1.117464 -6.22047,2.358997 -6.60557,2.758963 -0.3851,0.399965 -1.93163,11.97721 -3.43672,25.72721 -1.53187,13.99458 -3.25841,25.57637 -3.92202,26.30928 -0.96623,1.06713 -2.88012,0.63101 -10.34826,-2.35806 -5.03952,-2.01703 -9.40488,-4.05907 -9.70078,-4.53785 -0.29591,-0.47879 0.49509,-2.26812 1.75776,-3.976302 4.51413,-6.106816 1.60405,-16.916377 -5.5501,-20.615928 -3.69126,-1.908827 -10.44293,-2.034407 -13.79803,-0.256641 -1.29585,0.68663 -9.25847,5.518803 -17.69472,10.738162 -13.17916,8.153722 -15.27996,9.79664 -14.92192,11.669619 0.76561,4.00504 24.14132,40.49204 25.95339,40.51049 0.93106,0.009 3.29356,-0.92722 5.25,-2.08155 z m -14.09711,-33.95498 c -2.64057,-3.99016 -2.65256,-4.08271 -0.76419,-5.8993 C 189.29707,96.47265 202.47937,89 205.06915,89 c 4.33574,0 6.96665,4.137166 5.33495,8.38932 C 209.67225,99.29648 192.91063,110 190.65588,110 c -0.89513,0 -2.8347,-1.82419 -4.31015,-4.05376 z M 255.68186,88.25 c -0.79684,-1.370192 0.84937,-16.181226 1.91719,-17.249054 1.27497,-1.27497 12.78526,10.332996 12.15563,12.258783 -0.22303,0.682149 -3.07157,2.226021 -6.33009,3.430827 -6.77537,2.505124 -7.14899,2.580375 -7.74273,1.559444 z M 512.9022,107.46166 C 519.55599,96.165574 525,86.337092 525,85.62059 c 0,-0.716503 -2.23164,-2.517344 -4.9592,-4.001869 l -4.95921,-2.699137 -2.47317,3.790208 c -6.9707,10.682788 -22.61574,38.828748 -22.194,39.927778 0.51417,1.33993 7.29507,5.24372 9.23778,5.31823 0.63371,0.0243 6.59621,-9.19805 13.25,-20.49414 z M 486,117.54006 c 0,-0.25296 -1.16761,-4.9924 -2.59468,-10.53207 -1.42708,-5.53968 -2.3412,-10.732704 -2.03139,-11.540063 C 481.74339,94.505129 483.35888,94 486.06862,94 c 3.34053,0 4.76307,-0.631686 7.43129,-3.29991 1.81495,-1.814951 3.86174,-5.17514 4.54843,-7.467088 1.72968,-5.773176 -0.7464,-12.362905 -5.90177,-15.706694 C 488.82879,65.374384 456.00939,52 454.04657,52 c -1.01147,0 -0.14715,-1.979072 -10.4444,23.915141 -4.68384,11.778328 -8.25238,21.84182 -7.93007,22.363316 0.3223,0.521495 2.60518,1.841353 5.07307,2.933023 5.5089,2.43684 5.90558,2.11257 9.80152,-8.012467 1.54511,-4.015543 3.18986,-7.53619 3.65499,-7.82366 1.05391,-0.651347 9.74021,2.493004 11.88674,4.302879 0.87364,0.736613 2.38818,5.047852 3.36565,9.580532 3.05891,14.184576 3.12039,14.306636 8.33797,16.552686 4.49128,1.9334 8.20796,2.71614 8.20796,1.72861 z M 468.5,80.381522 c -4.95,-1.921719 -9.40661,-3.897832 -9.90358,-4.391363 -1.07605,-1.068599 2.07992,-9.930722 3.76453,-10.571011 1.2862,-0.488857 17.7628,5.77669 21.31958,8.107185 4.34424,2.846455 1.76973,10.532894 -3.48723,10.411446 C 478.71198,83.903557 473.45,82.303241 468.5,80.381522 Z M 411.32935,93.25 c 0.24606,-0.4125 1.892,-9.075 3.65763,-19.25 1.76564,-10.175 3.59844,-18.910069 4.0729,-19.411264 0.51819,-0.54739 4.14825,-0.446619 9.09091,0.252364 9.18614,1.29909 9.80721,1.014154 9.8339,-4.511645 0.0129,-2.664699 -0.42344,-3.257827 -2.73469,-3.717616 -1.5125,-0.300889 -12.16909,-2.187167 -23.68132,-4.191729 -20.00843,-3.48396 -20.98946,-3.565143 -22.25,-1.841254 -1.85574,2.53788 -1.63877,6.185942 0.43132,7.251959 0.9625,0.495651 4.11798,1.20271 7.01218,1.571243 7.51697,0.957172 8.23791,1.390844 8.23716,4.954931 -3.7e-4,1.728656 -1.33489,10.560993 -2.9656,19.627416 -1.68893,9.390096 -2.58924,16.860091 -2.09198,17.357351 1.73519,1.735198 10.60427,3.221409 11.38759,1.908244 z M 331.20078,91.875622 C 345.38313,88.866439 352.47064,81.026204 349.82884,71.269189 347.63469,63.165498 341.8636,60.562772 324,59.620554 c -9.11291,-0.480662 -10.72926,-0.834706 -12.23549,-2.68005 -5.37006,-6.579112 11.76312,-12.157376 21.42885,-6.976856 3.44735,1.847671 3.93367,1.871673 8.23402,0.406395 2.51366,-0.856489 4.83455,-1.984843 5.15754,-2.507453 0.9538,-1.54328 -1.74181,-4.020899 -7.08492,-6.511957 -6.10877,-2.848026 -19.16307,-3.233795 -27.33259,-0.807707 -10.24722,3.043097 -15.78364,11.119214 -13.30163,19.403426 2.22637,7.430972 7.09606,9.531483 24.63422,10.625822 12.76761,0.796668 14.7463,1.508253 14.30993,5.146188 -0.54518,4.545119 -4.90053,6.738401 -14.13251,7.116911 -7.51343,0.30805 -8.49722,0.117412 -12.11599,-2.347827 -3.66873,-2.499278 -4.20067,-2.596598 -7.76431,-1.42049 -6.18577,2.041489 -6.62457,3.416505 -2.3706,7.428518 6.23345,5.878892 17.67751,7.946812 29.77426,5.380148 z"
       style="fill:#f0d013" />
    <path
       inkscape:connector-curvature="0"
       id="path3370"
       d="m 336.5,703.41493 c -2.2,-0.21395 -8.95,-0.88349 -15,-1.48787 -65.29936,-6.52322 -132.3947,-35.07977 -184,-78.31253 C 128.06077,615.70673 105.57739,593.38603 97.093109,583.5 52.767834,531.85141 25.678327,470.42562 16.335656,400.38148 c -2.414366,-18.10105 -2.414366,-64.66191 0,-82.76296 C 21.688568,277.48651 31.595926,243.91886 48.098831,210 66.007916,173.19098 83.873082,147.53087 111,119.65374 140.4078,89.432649 167.10679,69.660839 202.97726,51.540431 241.69817,31.980093 277.5235,21.191362 321.5,15.847532 c 16.25037,-1.974672 62.41624,-1.680514 79,0.50337 67.79406,8.927673 129.37873,35.626191 180,78.034571 9.43923,7.907797 31.92261,30.228497 40.40689,40.114527 44.39298,51.72747 71.49677,113.14931 80.75294,183 2.42009,18.26291 2.42009,64.73709 0,83 -9.25617,69.85069 -36.35996,131.27253 -80.75294,183 -8.48428,9.88603 -30.96766,32.20673 -40.40689,40.11453 -50.48244,42.29207 -112.9256,69.39844 -179.5,77.92036 -11.76896,1.50649 -55.29534,2.7752 -64.5,1.88004 z M 347,676.80459 c 0,-1.35701 -14.72928,-43.36833 -16.14686,-46.05459 -0.59282,-1.12336 -2.0982,-1.75 -4.20405,-1.75 -3.12615,0 -3.91285,0.90231 -16.71482,19.17105 -16.42614,23.44052 -15.48021,21.86865 -13.8006,22.93272 2.8385,1.79825 4.97414,0.7508 8.51331,-4.17547 l 3.64366,-5.0717 7.10468,0.67008 c 3.90757,0.36855 10.24281,1.18831 14.0783,1.8217 l 6.97363,1.15162 1.84353,4.97845 c 1.01394,2.73815 2.31841,5.55065 2.89882,6.25 1.33624,1.61007 5.8104,1.6687 5.8104,0.0761 z M 320.56255,657.8906 c -3.2656,-0.47603 -6.34083,-1.26888 -6.83384,-1.76189 -1.089,-1.089 10.01571,-18.12871 11.81441,-18.12871 0.6836,0 1.56336,0.7875 1.95503,1.75 2.21115,5.43377 5.50185,15.85589 5.50185,17.42515 0,2.06163 -2.29642,2.19373 -12.43745,0.71545 z M 395,676.1399 c 4.83091,-0.56375 5.54141,-0.9348 5.84041,-3.05004 l 0.34041,-2.40822 -15.03634,0.61723 c -13.63689,0.55978 -15.08243,0.45826 -15.53159,-1.09082 -0.27239,-0.93943 -0.80649,-9.69005 -1.1869,-19.44584 -0.74289,-19.05229 -1.30282,-20.96887 -5.47386,-18.73659 -2.06315,1.10417 -2.1451,1.63807 -1.58385,10.31939 0.32553,5.03525 0.87835,14.55499 1.22849,21.15499 0.35015,6.6 1.03971,12.50286 1.53237,13.11746 0.91507,1.14156 18.39034,0.86217 29.87086,-0.47756 z m 39.10257,-6.69111 C 453.41619,664.99436 453,665.12417 453,663.55506 c 0,-3.42633 -2.52077,-3.49327 -15.92631,-0.42296 -11.07867,2.53737 -13.5257,2.82494 -14.54485,1.70925 -0.67391,-0.73774 -2.91483,-8.99135 -4.97982,-18.34135 -2.06499,-9.35 -4.33078,-17.60643 -5.03511,-18.34762 -0.95721,-1.00733 -1.78271,-1.07889 -3.26908,-0.28341 -2.30797,1.23519 -2.4636,0.0104 3.25676,25.63103 3.22919,14.4631 4.77214,19.5 5.97342,19.5 0.12657,0 7.15897,-1.59804 15.62756,-3.55121 z m -154.21944,-8.07948 c 2.58091,-1.80774 5.12021,-7.06808 5.11071,-10.58719 -0.003,-1.25517 -0.70487,-3.6221 -1.55885,-5.25985 -1.5085,-2.893 -1.46851,-3.04951 1.4053,-5.5 1.62688,-1.38725 3.45336,-3.50519 4.05884,-4.70653 2.61135,-5.18124 0.19291,-12.18206 -5.16606,-14.95451 C 279.47587,618.15877 252.11988,608 250.4462,608 c -1.34552,0 -1.91479,1.35633 -11.08654,26.41461 -4.45505,12.17171 -5.21998,15.14395 -4.15933,16.16162 0.71482,0.68585 8.27467,3.73895 16.79967,6.78466 16.77988,5.99491 23.63919,6.98099 27.88313,4.00842 z M 258.5,654.10141 c -14.92387,-5.26052 -16.5,-5.91949 -16.5,-6.89852 0,-1.5313 3.26235,-10.67601 4.26417,-11.95289 1.51871,-1.9357 3.36037,-1.57141 16.15023,3.19458 13.24272,4.93476 15.91893,6.89466 15.91893,11.65813 0,3.48058 -4.00618,7.90629 -7.13909,7.88669 -0.93183,-0.006 -6.64424,-1.75542 -12.69424,-3.88799 z m 3.5,-21.25673 c -5.775,-2.1702 -11.05751,-4.49664 -11.73891,-5.16987 -0.98452,-0.97272 -0.87,-2.1959 0.55776,-5.95719 0.98817,-2.60322 2.28389,-5.22036 2.87939,-5.81586 1.28098,-1.28098 22.94374,6.24218 26.87225,9.33234 2.82564,2.22266 3.19231,6.23184 0.87281,9.54339 -2.25266,3.21612 -6.99668,2.74453 -19.4433,-1.93281 z m 257.62152,3.72832 c 10.72612,-4.91058 17.30844,-11.85546 19.1951,-20.25236 1.17739,-5.24016 0.18855,-7.09966 -3.00229,-5.64581 -1.58671,0.72295 -2.72326,2.5356 -3.56637,5.6879 -2.35394,8.80111 -13.76401,16.96826 -23.74796,16.99841 -6.29059,0.019 -10.69161,-2.2625 -14.49655,-7.51508 -5.78212,-7.98198 -5.25413,-15.52559 1.59952,-22.85269 6.36019,-6.79956 12.88673,-9.42094 21.4696,-8.62324 5.80363,0.53939 6.85351,0.36903 8.42461,-1.36701 1.75113,-1.93498 1.70009,-2.02275 -2.09913,-3.61017 -11.31995,-4.72977 -30.7342,3.44328 -36.85062,15.51346 -4.71711,9.30876 -4.264,15.83391 1.71616,24.71418 4.6754,6.94276 12.20342,10.74903 19.92779,10.07576 3.13026,-0.27283 8.27382,-1.67834 11.43014,-3.12335 z M 203.19369,630.25 c 0.82702,-0.9625 5.4378,-8.1613 10.24618,-15.99734 4.80838,-7.83604 9.14614,-14.4968 9.63947,-14.8017 0.49333,-0.30489 4.04909,1.31829 7.90168,3.60707 6.97668,4.14477 10.48993,4.6044 9.84289,1.28771 -0.30997,-1.58886 -6.10941,-5.503 -26.70031,-18.02048 -8.87565,-5.39562 -9.44885,-5.60095 -10.73305,-3.84469 -1.74204,2.38238 -0.76292,3.58746 6.10945,7.51943 2.89611,1.65699 5.75422,3.60138 6.35135,4.32089 0.82367,0.99246 -1.35405,5.32993 -9.02324,17.972 -8.47741,13.97438 -9.90511,16.9094 -8.84608,18.18546 1.65886,1.9988 3.36214,1.92417 5.21166,-0.22835 z m 370.99592,-34.25834 c 6.8213,-6.09983 12.31039,-11.78494 12.31039,-12.75 0,-3.86776 -4.55137,-1.65029 -14.38469,7.00834 -5.46539,4.8125 -10.34131,8.75 -10.83537,8.75 -0.49406,0 -6.48605,-6.3 -13.31554,-14 -6.97945,-7.86907 -13.17854,-14 -14.15564,-14 -0.95612,0 -2.18783,0.83978 -2.73714,1.86618 -0.84435,1.57768 1.19851,4.3555 13.21482,17.96906 7.81746,8.85658 14.97388,16.11681 15.90317,16.13382 0.92928,0.017 7.22928,-4.92281 14,-10.9774 z m -400.80753,4.91929 c 5.72961,-1.59088 13.14798,-8.98 15.19107,-15.13119 C 194.20481,568.82443 178.54618,549 159.52209,549 c -7.98249,0 -12.79639,2.16598 -17.7964,8.00737 -9.92337,11.59322 -5.94439,28.8659 9.02165,39.1628 7.71503,5.30808 15.0549,6.8454 22.63474,4.74078 z m -13.46648,-6.28007 c -7.69143,-2.74951 -16.16545,-12.1153 -17.52664,-19.37109 -2.08663,-11.12268 9.88591,-22.79966 21.2004,-20.67705 4.81571,0.90343 12.1465,5.99761 16.06562,11.16403 7.50923,9.89909 4.16148,23.252 -7.11361,28.37357 -4.73359,2.15017 -7.70318,2.27025 -12.62577,0.51054 z M 600.38398,564.7891 c 5.24219,-1.54222 14.3527,-10.47473 17.63361,-17.2891 3.11919,-6.47848 3.2735,-14.28157 0.3604,-18.2245 -2.77628,-3.75776 -25.44649,-21.21593 -27.59281,-21.24905 -0.94315,-0.0145 -2.19051,0.8624 -2.77192,1.94878 -0.93495,1.74697 -0.0519,2.75815 7.64125,8.75 4.7841,3.72612 10.86155,8.46687 13.50544,10.53499 2.64389,2.06812 5.09851,4.92139 5.45471,6.34059 C 616.75416,544.12525 604.95104,559 596.0474,559 c -3.74886,0 -7.59871,-2.33116 -21.59049,-13.07346 -7.96037,-6.11164 -8.31815,-6.28659 -10.00071,-4.89019 -3.00551,2.49435 -1.28746,4.65044 11.0145,13.82279 15.13717,11.28628 17.33088,12.16064 24.91328,9.92996 z m -364.35435,-9.94442 c 9.60871,-5.03543 42.13841,-22.13543 72.28825,-38 C 338.46771,500.98011 363.5196,488 363.98875,488 c 0.46915,0 21.47611,10.84031 46.68212,24.08958 25.20602,13.24927 56.17913,29.51054 68.82913,36.13616 12.65,6.62562 24.48822,12.88531 26.30716,13.91042 3.83327,2.16034 6.19643,2.3949 6.18439,0.61384 -0.005,-0.6875 -1.09793,-7.55 -2.42951,-15.25 -1.33157,-7.7 -4.49873,-26.15 -7.03812,-41 -2.53939,-14.85 -5.48006,-31.95 -6.53482,-38 C 489.52978,431.45006 485,403.98072 485,401.86024 c 0,-1.91989 12.70367,-14.79603 59,-59.80099 32.45,-31.54486 59,-57.72933 59,-58.18772 0,-1.19555 -1.54842,-1.47842 -32,-5.84584 C 488.79251,266.23535 439.70651,258.93665 438.78337,258.36611 437.82917,257.77639 411.32804,204.5818 378.44427,137.25 371.12462,122.2625 364.63145,110 364.01502,110 c -0.61643,0 -8.69211,15.4125 -17.94595,34.25 -46.70887,95.08245 -55.89371,113.52359 -56.83007,114.10229 -0.55967,0.34589 -21.2049,3.56777 -45.87829,7.15972 -24.67339,3.59195 -59.03571,8.59601 -76.36071,11.12013 -17.325,2.52412 -33.71318,4.87698 -36.41818,5.22858 -2.70499,0.35161 -5.07217,1.1033 -5.26038,1.67044 -0.28436,0.85682 73.1098,73.20911 107.85888,106.32778 7.57827,7.2227 9.82037,9.96178 9.82272,12 0.002,1.45258 -2.01959,14.34106 -4.49171,28.64106 C 227.33853,495.12922 216,561.788 216,562.84329 c 0,2.17632 2.57852,1.14662 20.02963,-7.99861 z M 133.5,547.10818 c 3.56136,-1.99039 5.95693,-4.35014 8.3258,-8.2013 3.17665,-5.1644 3.30772,-5.76566 2.92266,-13.40688 -0.28455,-5.64669 -1.04407,-9.24202 -2.58194,-12.2222 -6.6129,-12.81485 -19.08673,-19.74182 -30.30851,-16.83093 -15.800138,4.09851 -22.58573,18.84001 -15.599296,33.88902 3.638624,7.83772 8.004436,13.14798 13.417776,16.32041 8.63731,5.0618 15.34735,5.18907 23.82351,0.45188 z m -21,-5.52803 c -2.2,-1.32051 -4.953,-3.69256 -6.11779,-5.27122 -8.925283,-12.09666 -9.139084,-21.83202 -0.64368,-29.30998 7.06516,-6.219 16.3048,-6.71686 23.12953,-1.2463 4.49735,3.60499 9.7704,12.14792 10.62673,17.21652 2.47307,14.63794 -14.32252,26.21729 -26.99479,18.61098 z M 646.03818,499.5 c 8.5205,-18.73853 9.65179,-22.91291 7.56385,-27.91005 -1.17039,-2.80113 -2.63755,-4.16047 -6.18339,-5.72897 -4.18099,-1.84944 -5.10929,-1.92753 -9.22281,-0.77582 -3.87461,1.08483 -4.64644,1.06302 -5.04833,-0.14266 -0.26093,-0.7828 -1.71625,-2.6651 -3.23404,-4.18288 C 627.67826,458.52441 626.25467,458 622.42209,458 c -4.18346,0 -5.14836,0.44093 -8.32693,3.80515 -3.83467,4.05864 -16.4939,30.959 -15.91292,33.81433 0.33662,1.65441 37.2635,19.40095 39.67656,19.068 0.74734,-0.10311 4.42806,-6.93748 8.17938,-15.18748 z m -17.02772,4.66614 c -3.01924,-1.48483 -5.62521,-3.40421 -5.79104,-4.26527 -0.34833,-1.80874 10.07872,-24.46784 12.48078,-27.12209 2.43096,-2.68618 7.86917,-2.30032 10.94615,0.77666 2.12901,2.12901 2.44619,3.13772 1.9008,6.0449 -0.79808,4.25415 -11.65158,26.75984 -13.04715,27.05442 -0.55,0.1161 -3.47029,-1.00378 -6.48954,-2.48862 z M 610.25,495.53624 c -2.8875,-1.34433 -5.25,-2.92739 -5.25,-3.51791 0,-2.01157 10.17193,-23.51096 12.03398,-25.435 4.39681,-4.54319 12.80648,-0.53565 11.59432,5.52515 -0.55412,2.7706 -9.2776,22.42409 -10.93748,24.64152 -1.23159,1.64527 -1.33667,1.62812 -7.44082,-1.21376 z M 99.908329,486.61046 c 1.044641,-1.25872 -2.50725,-12.1478 -8.940003,-27.40751 C 90.435747,457.93957 90,456.6773 90,456.39792 90,455.67155 100.78153,451 102.45793,451 c 0.87434,0 3.3161,4.98029 6.49627,13.25 2.80246,7.2875 5.53918,14.29454 6.0816,15.5712 1.142,2.68789 4.25872,2.60356 4.78505,-0.12947 0.39593,-2.05589 -11.40704,-33.49936 -13.35114,-35.56784 -1.09013,-1.15988 -3.31065,-0.59173 -14.131536,3.61574 -7.060995,2.74552 -16.149417,6.26748 -20.196491,7.82659 -7.846599,3.02285 -9.373146,4.63089 -6.819987,7.18405 1.460247,1.46024 2.289978,1.32322 9.808739,-1.61984 6.691392,-2.6192 8.445451,-2.97552 9.464866,-1.92272 0.688221,0.71076 3.374949,6.91729 5.970506,13.79229 5.847629,15.48895 6.723967,16.76562 9.342522,13.61046 z M 89.41035,330.12101 l 0.91035,-5.35769 -4.05175,-3.74126 c -3.944073,-3.64183 -4.029046,-3.85793 -3.19742,-8.13166 0.469882,-2.41472 1.377276,-7.3154 2.016432,-10.8904 1.560473,-8.72823 2.124108,-9.56417 7.333028,-10.87579 3.991873,-1.00516 4.601259,-1.54286 5.527189,-4.87696 C 99.476669,280.74344 99.287797,277 97.481617,277 c -0.835111,0 -4.772611,0.86681 -8.75,1.92624 C 84.754228,279.98567 74.3,282.70375 65.5,284.96641 c -8.8,2.26267 -16.975051,4.51915 -18.16678,5.01441 -1.609783,0.66899 -2.466717,2.34526 -3.333568,6.52086 -0.641734,3.09121 -0.926856,6.24564 -0.633605,7.00984 0.851556,2.21912 41.882026,32.58703 43.589119,32.26165 1.017204,-0.19389 1.855759,-2.12435 2.455184,-5.65216 z M 65.716814,306.31908 C 62.022566,303.74735 59,301.06584 59,300.36015 c 0,-0.70568 1.6875,-1.70215 3.75,-2.21438 10.449227,-2.59507 12.800779,-2.99499 13.499872,-2.2959 0.989842,0.98984 -1.177674,12.27569 -2.66912,13.8976 -0.901112,0.97994 -2.587607,0.24469 -7.863938,-3.42839 z m 582.411426,22.1146 c 5.26262,-2.7214 6.82452,-7.9642 6.8498,-22.99255 0.024,-14.28614 0.82823,-16.89135 5.02735,-16.2861 5.41506,0.78051 8.92615,14.97229 5.49374,22.20557 -1.65645,3.49071 -1.65897,3.93234 -0.0465,8.15465 2.22708,5.83151 3.40233,6.40435 6.12751,2.98665 3.42865,-4.29993 4.77352,-10.54062 4.15678,-19.289 -1.38635,-19.6654 -11.94944,-30.47669 -24.12977,-24.69674 -5.93879,2.81814 -7.0653,6.21744 -7.45105,22.48384 -0.18912,7.975 -0.80672,15.0625 -1.37244,15.75 -1.52487,1.85312 -5.23352,1.51542 -7.19812,-0.65544 C 633.36081,313.63622 631,305.76271 631,300.80123 c 0,-2.1345 0.9,-5.64505 2,-7.80123 2.43388,-4.7708 2.46929,-5.94804 0.31479,-10.46607 -2.08954,-4.38182 -3.54323,-4.44431 -6.60408,-0.28393 -3.85418,5.2387 -5.21442,9.79128 -5.15405,17.25 0.10476,12.94158 6.15771,26.81509 12.88867,29.54109 3.3948,1.37488 10.45573,1.06144 13.68291,-0.60741 z M 639.5,266.98399 c 11.55,-4.00962 21.63339,-7.87078 22.40753,-8.58035 1.20707,-1.10639 1.16024,-1.93766 -0.32876,-5.83654 -0.95496,-2.50053 -2.13198,-4.79097 -2.6156,-5.08986 -0.48362,-0.2989 -10.46068,2.80351 -22.17124,6.89424 C 610.57529,263.52947 612,262.94603 612,264.52408 c 0,2.79367 4.05397,10.66947 5.25887,10.21661 0.68262,-0.25657 10.69113,-3.74709 22.24113,-7.7567 z m -542.05553,2.60366 c 11.12232,-4.64721 21.79023,-26.57488 18.63303,-38.29982 -1.35378,-5.02756 -6.61475,-9.92279 -11.68675,-10.8743 C 97.905551,219.1969 93.318446,222.378 86.023557,233.15095 77.946449,245.07906 76.181756,247 73.300935,247 c -4.45628,0 -4.929922,-7.03974 -0.985662,-14.6499 0.897906,-1.73244 3.717482,-4.93203 6.265723,-7.1102 3.950772,-3.37702 4.708027,-4.62449 5.141448,-8.46979 0.279556,-2.48021 0.0696,-4.7806 -0.46657,-5.11197 -0.536169,-0.33137 -3.274241,0.54334 -6.084603,1.9438 C 67.869591,218.23717 60,232.63179 60,245.01069 c 0,5.17306 0.384694,6.35786 3.049985,9.39346 5.502891,6.26744 12.950747,6.99045 19.059572,1.85021 1.683906,-1.41691 6.183191,-7.22879 9.998411,-12.91528 C 97.517051,235.27697 99.546333,233 101.32237,233 104.6922,233 106,234.88436 106,239.73984 c 0,7.44089 -5.23118,15.77822 -12.115323,19.30909 C 90.34432,260.86478 89,263.63783 89,269.125 c 0,2.31282 3.550782,2.50736 8.44447,0.46265 z m 516.95347,-13.7231 c 1.37062,-0.6245 2.72919,-1.75346 3.01904,-2.50881 0.28986,-0.75534 -2.00987,-6.25076 -5.1105,-12.21204 -3.10062,-5.96128 -5.37845,-11.51377 -5.06183,-12.33886 0.31662,-0.8251 8.2661,-5.41557 17.66551,-10.20106 C 634.30957,213.8183 642,209.45682 642,208.91161 c 0,-1.56723 -3.8509,-8.70142 -5.12034,-9.48599 -0.63191,-0.39054 -10.75691,4.19143 -22.50001,10.18215 -15.54653,7.93105 -21.35496,11.37139 -21.36536,12.65473 -0.0137,1.69264 14.14108,30.91661 16.21987,33.4875 1.24548,1.54033 1.99791,1.55702 5.16378,0.11455 z M 137.36711,205.02144 C 138.8152,202.83323 140,200.6 140,200.0587 c 0,-0.5413 -2.8125,-2.87777 -6.25,-5.19215 -14.76488,-9.94083 -25.74977,-18.13714 -25.74682,-19.21083 0.002,-0.63565 1.80032,-3.85572 3.99682,-7.15572 2.1965,-3.3 3.99507,-6.73575 3.99682,-7.63499 C 115.99991,159.27434 112.03822,156 110.11054,156 108.84607,156 82,194.55188 82,196.36771 c 0,1.81375 4.759624,4.93851 6.503202,4.26943 0.737894,-0.28315 3.265126,-3.24235 5.61607,-6.57598 2.350945,-3.33364 4.973359,-6.04744 5.827587,-6.03066 0.854231,0.0168 8.298381,4.74177 16.542561,10.5 8.24418,5.75822 15.72188,10.4695 16.61711,10.4695 0.89523,0 2.8125,-1.79035 4.26058,-3.97856 z m 466.4331,-3.07947 c 14.43156,-7.21153 19.28187,-21.20779 12.27897,-35.43269 -8.28419,-16.82758 -23.3489,-25.50483 -37.11755,-21.37964 -6.08251,1.82237 -13.03171,7.753 -16.25728,13.87439 -2.58899,4.91331 -2.8494,6.23808 -2.45633,12.49597 0.57114,9.09289 4.0429,15.97801 12.13125,24.05851 9.99118,9.98146 20.10774,12.03674 31.42094,6.38346 z m -22.25862,-11.21691 c -2.17712,-1.23311 -5.32712,-4.18948 -7,-6.56969 -2.54481,-3.62082 -3.04159,-5.2784 -3.04159,-10.14869 0,-5.0205 0.42716,-6.34952 3.10602,-9.66386 9.44423,-11.68455 24.2701,-10.25937 30.86087,2.96658 2.83679,5.69269 2.95442,6.63346 1.4891,11.90955 -2.09117,7.5296 -10.19309,13.73041 -17.95599,13.74264 -1.925,0.003 -5.28128,-1.00341 -7.45841,-2.23653 z m -408.7576,-27.16382 c 17.84853,-17.55249 17.92595,-17.68597 12.39063,-21.36129 -2.12565,-1.41138 -2.69074,-1.00097 -13.9956,10.16464 C 164.69974,158.76407 158.72212,164 157.89542,164 c -0.8267,0 -3.03796,-1.58359 -4.91391,-3.51908 l -3.41083,-3.51908 11.21466,-11.24657 C 166.9534,139.52966 172,133.83618 172,133.06309 172,131.08457 169.00087,128 167.07715,128 c -0.88709,0 -6.3218,4.725 -12.07715,10.5 -5.75535,5.775 -11.18136,10.5 -12.05782,10.5 -1.52133,0 -4.76794,-2.9629 -6.41952,-5.85855 -0.53667,-0.94093 2.83118,-4.97401 10.95598,-13.12003 10.60214,-10.62983 11.62234,-11.96422 10.60318,-13.86853 -0.62021,-1.15888 -2.06068,-2.60639 -3.20105,-3.2167 -1.84173,-0.98566 -3.04025,-0.17701 -10.72708,7.23765 -4.75953,4.59101 -12.14119,11.68697 -16.40369,15.7688 -4.2625,4.08183 -7.75,7.8071 -7.75,8.27838 0,1.40314 33.38791,35.71812 34.78399,35.74982 0.70619,0.016 8.80619,-7.36828 18,-16.4096 z M 564.9967,142.00169 c 8.02187,-4.09246 11.40668,-15.14084 6.7533,-22.04349 C 569.01215,115.89698 543.22758,95 540.95433,95 c -1.75886,0 -30.95435,36.02415 -30.9543,38.19434 4e-5,1.62275 6.36701,6.80566 8.36044,6.80566 0.80703,0 3.79482,-2.925 6.63953,-6.5 2.84471,-3.575 5.40629,-6.5 5.6924,-6.5 0.28611,0 4.38622,3.01881 9.11137,6.70848 13.86647,10.82772 17.73114,12.09993 25.19293,8.29321 z M 544.56551,125.98796 C 540.40448,122.68135 537,119.59322 537,119.12547 c 0,-1.13468 5.82256,-8.4299 7.47272,-9.36274 1.30078,-0.73534 12.15169,7.09656 15.77728,11.38763 2.32029,2.74617 2.21253,5.97605 -0.28896,8.66108 -3.47296,3.72779 -6.99322,2.85353 -15.39553,-3.82348 z M 200.44284,139.90122 C 202.39928,138.7469 204,137.08557 204,136.20939 c 0,-0.87618 -1.8,-4.6229 -4,-8.32605 -2.2,-3.70315 -4,-7.34675 -4,-8.09688 0,-0.75014 2.46859,-2.86001 5.48576,-4.6886 l 5.48576,-3.32472 10.53426,4.61343 c 5.79384,2.53739 11.02888,4.61343 11.63343,4.61343 0.60454,0 3.63303,-1.53923 6.72998,-3.42052 3.09695,-1.88128 8.20651,-4.3842 11.3546,-5.56204 l 5.72378,-2.14152 0.65803,-4.96041 c 0.36191,-2.72822 1.05026,-5.202821 1.52967,-5.499114 0.47942,-0.296293 5.82494,-2.305648 11.87895,-4.465235 l 11.00729,-3.92652 4.0804,3.686396 4.0804,3.686396 5.5907,-1.948717 c 3.07489,-1.071794 5.73767,-2.410113 5.91729,-2.974043 0.17962,-0.56393 -8.37004,-9.680463 -18.99926,-20.258962 l -19.32584,-19.233636 -5.90539,2.031752 c -3.24796,1.117464 -6.22047,2.358997 -6.60557,2.758963 -0.3851,0.399965 -1.93163,11.97721 -3.43672,25.72721 -1.53187,13.99458 -3.25841,25.57637 -3.92202,26.30928 -0.96623,1.06713 -2.88012,0.63101 -10.34826,-2.35806 -5.03952,-2.01703 -9.40488,-4.05907 -9.70078,-4.53785 -0.29591,-0.47879 0.49509,-2.26812 1.75776,-3.976302 4.51413,-6.106816 1.60405,-16.916377 -5.5501,-20.615928 -3.69126,-1.908827 -10.44293,-2.034407 -13.79803,-0.256641 -1.29585,0.68663 -9.25847,5.518803 -17.69472,10.738162 -13.17916,8.153722 -15.27996,9.79664 -14.92192,11.669619 0.76561,4.00504 24.14132,40.49204 25.95339,40.51049 0.93106,0.009 3.29356,-0.92722 5.25,-2.08155 z m -14.09711,-33.95498 c -2.64057,-3.99016 -2.65256,-4.08271 -0.76419,-5.8993 C 189.29707,96.47265 202.47937,89 205.06915,89 c 4.33574,0 6.96665,4.137166 5.33495,8.38932 C 209.67225,99.29648 192.91063,110 190.65588,110 c -0.89513,0 -2.8347,-1.82419 -4.31015,-4.05376 z M 255.68186,88.25 c -0.79684,-1.370192 0.84937,-16.181226 1.91719,-17.249054 1.27497,-1.27497 12.78526,10.332996 12.15563,12.258783 -0.22303,0.682149 -3.07157,2.226021 -6.33009,3.430827 -6.77537,2.505124 -7.14899,2.580375 -7.74273,1.559444 z M 512.9022,107.46166 C 519.55599,96.165574 525,86.337092 525,85.62059 c 0,-0.716503 -2.23164,-2.517344 -4.9592,-4.001869 l -4.95921,-2.699137 -2.47317,3.790208 c -6.9707,10.682788 -22.61574,38.828748 -22.194,39.927778 0.51417,1.33993 7.29507,5.24372 9.23778,5.31823 0.63371,0.0243 6.59621,-9.19805 13.25,-20.49414 z M 486,117.54006 c 0,-0.25296 -1.16761,-4.9924 -2.59468,-10.53207 -1.42708,-5.53968 -2.3412,-10.732704 -2.03139,-11.540063 C 481.74339,94.505129 483.35888,94 486.06862,94 c 3.34053,0 4.76307,-0.631686 7.43129,-3.29991 1.81495,-1.814951 3.86174,-5.17514 4.54843,-7.467088 1.72968,-5.773176 -0.7464,-12.362905 -5.90177,-15.706694 C 488.82879,65.374384 456.00939,52 454.04657,52 c -1.01147,0 -0.14715,-1.979072 -10.4444,23.915141 -4.68384,11.778328 -8.25238,21.84182 -7.93007,22.363316 0.3223,0.521495 2.60518,1.841353 5.07307,2.933023 5.5089,2.43684 5.90558,2.11257 9.80152,-8.012467 1.54511,-4.015543 3.18986,-7.53619 3.65499,-7.82366 1.05391,-0.651347 9.74021,2.493004 11.88674,4.302879 0.87364,0.736613 2.38818,5.047852 3.36565,9.580532 3.05891,14.184576 3.12039,14.306636 8.33797,16.552686 4.49128,1.9334 8.20796,2.71614 8.20796,1.72861 z M 468.5,80.381522 c -4.95,-1.921719 -9.40661,-3.897832 -9.90358,-4.391363 -1.07605,-1.068599 2.07992,-9.930722 3.76453,-10.571011 1.2862,-0.488857 17.7628,5.77669 21.31958,8.107185 4.34424,2.846455 1.76973,10.532894 -3.48723,10.411446 C 478.71198,83.903557 473.45,82.303241 468.5,80.381522 Z M 411.32935,93.25 c 0.24606,-0.4125 1.892,-9.075 3.65763,-19.25 1.76564,-10.175 3.59844,-18.910069 4.0729,-19.411264 0.51819,-0.54739 4.14825,-0.446619 9.09091,0.252364 9.18614,1.29909 9.80721,1.014154 9.8339,-4.511645 0.0129,-2.664699 -0.42344,-3.257827 -2.73469,-3.717616 -1.5125,-0.300889 -12.16909,-2.187167 -23.68132,-4.191729 -20.00843,-3.48396 -20.98946,-3.565143 -22.25,-1.841254 -1.85574,2.53788 -1.63877,6.185942 0.43132,7.251959 0.9625,0.495651 4.11798,1.20271 7.01218,1.571243 7.51697,0.957172 8.23791,1.390844 8.23716,4.954931 -3.7e-4,1.728656 -1.33489,10.560993 -2.9656,19.627416 -1.68893,9.390096 -2.58924,16.860091 -2.09198,17.357351 1.73519,1.735198 10.60427,3.221409 11.38759,1.908244 z M 331.20078,91.875622 C 345.38313,88.866439 352.47064,81.026204 349.82884,71.269189 347.63469,63.165498 341.8636,60.562772 324,59.620554 c -9.11291,-0.480662 -10.72926,-0.834706 -12.23549,-2.68005 -5.37006,-6.579112 11.76312,-12.157376 21.42885,-6.976856 3.44735,1.847671 3.93367,1.871673 8.23402,0.406395 2.51366,-0.856489 4.83455,-1.984843 5.15754,-2.507453 0.9538,-1.54328 -1.74181,-4.020899 -7.08492,-6.511957 -6.10877,-2.848026 -19.16307,-3.233795 -27.33259,-0.807707 -10.24722,3.043097 -15.78364,11.119214 -13.30163,19.403426 2.22637,7.430972 7.09606,9.531483 24.63422,10.625822 12.76761,0.796668 14.7463,1.508253 14.30993,5.146188 -0.54518,4.545119 -4.90053,6.738401 -14.13251,7.116911 -7.51343,0.30805 -8.49722,0.117412 -12.11599,-2.347827 -3.66873,-2.499278 -4.20067,-2.596598 -7.76431,-1.42049 -6.18577,2.041489 -6.62457,3.416505 -2.3706,7.428518 6.23345,5.878892 17.67751,7.946812 29.77426,5.380148 z"
       style="fill:#0f4d84" />
  </g>
</svg>
