<?xml version="1.0" encoding="UTF-8" standalone="no"?>
<!-- Created with Inkscape (http://www.inkscape.org/) -->

<svg
   xmlns:dc="http://purl.org/dc/elements/1.1/"
   xmlns:cc="http://creativecommons.org/ns#"
   xmlns:rdf="http://www.w3.org/1999/02/22-rdf-syntax-ns#"
   xmlns:svg="http://www.w3.org/2000/svg"
   xmlns="http://www.w3.org/2000/svg"
   xmlns:sodipodi="http://sodipodi.sourceforge.net/DTD/sodipodi-0.dtd"
   xmlns:inkscape="http://www.inkscape.org/namespaces/inkscape"
   width="302"
   height="302.00021"
   viewBox="0 0 301.99999 302.00021"
   id="svg2"
   version="1.1"
   inkscape:version="0.91 r13725"
   sodipodi:docname="b36 torshavn.svg">
  <defs
     id="defs4" />
  <sodipodi:namedview
     id="base"
     pagecolor="#ffffff"
     bordercolor="#666666"
     borderopacity="1.0"
     inkscape:pageopacity="0.0"
     inkscape:pageshadow="2"
     inkscape:zoom="0.35"
     inkscape:cx="-106.38423"
     inkscape:cy="371.47343"
     inkscape:document-units="px"
     inkscape:current-layer="layer1"
     showgrid="false"
     fit-margin-top="0"
     fit-margin-left="0"
     fit-margin-right="0"
     fit-margin-bottom="0"
     units="px"
     inkscape:window-width="1280"
     inkscape:window-height="744"
     inkscape:window-x="-4"
     inkscape:window-y="-4"
     inkscape:window-maximized="1" />
  <metadata
     id="metadata7">
    <rdf:RDF>
      <cc:Work
         rdf:about="">
        <dc:format>image/svg+xml</dc:format>
        <dc:type
           rdf:resource="http://purl.org/dc/dcmitype/StillImage" />
        <dc:title></dc:title>
      </cc:Work>
    </rdf:RDF>
  </metadata>
  <g
     inkscape:label="Layer 1"
     inkscape:groupmode="layer"
     id="layer1"
     transform="translate(-128.52709,-604.69263)">
    <g
       id="g3461"
       transform="matrix(0.42333415,0,0,0.42333415,75.117184,521.85883)">
      <path
         d="m 482.85714,198.03221 c 195.6575,0 354.33,158.6725 354.33,354.33 l 0,0.0237 -10e-4,0.08 0,0.03 c -10e-4,2.1125 -0.0412,4.215 -0.0812,6.31875 l -0.001,0.10375 0,0.10625 -10e-4,0 c -3.55625,192.5825 -160.815,347.66812 -354.245,347.66812 -193.43,0 -350.68913,-155.08687 -354.24575,-347.66812 l -5e-4,0 0,-0.10625 -0.002,-0.10375 c -0.0391,-2.10375 -0.0791,-4.20625 -0.0816,-6.31875 l 0,-0.03 -0.001,-0.08 0,-0.0237 c 0,-195.6575 158.6725,-354.33 354.33125,-354.33 z m -237.6525,570.07 32.76,-30.55 0,0 20.57,22.06 0,0 -3.9275,3.66375 -3.9525,3.685 0,0 -12.9225,-13.85875 0,0 -5.23375,4.88125 0,0 12.9225,13.8575 -3.92875,3.665 -3.95125,3.68375 0,0 -12.92375,-13.8575 0,0 -11.765,10.97125 -3.82,-4.09625 -3.8275,-4.105 z m 37.61,23.45 c 1.8075,1.6275 2.83,3.08375 3.06625,4.37 0.24375,1.2925 -0.27,2.63875 -1.53125,4.03925 -1.2675,1.40763 -2.5525,2.0605 -3.86375,1.95312 -1.30375,-0.10112 -2.85875,-0.96537 -4.66625,-2.59237 -1.81625,-1.63375 -2.8375,-3.09125 -3.07375,-4.3775 -0.245,-1.2925 0.27,-2.63875 1.5375,-4.04625 1.26125,-1.4 2.54625,-2.05375 3.8575,-1.94625 1.305,0.10125 2.85875,0.96625 4.67375,2.6 z m 37.43875,32.4585 c -2.61375,0.62937 -5.16875,0.71 -7.67,0.21237 -2.49875,-0.48287 -4.935,-1.52487 -7.30625,-3.1245 -5.0825,-3.42812 -7.845,-7.81587 -8.2725,-13.15424 -0.4275,-5.33738 1.52,-11.20213 5.83,-17.58838 4.25125,-6.27 8.79125,-10.06 13.61125,-11.3775 4.82125,-1.3175 9.945,-0.145 15.36625,3.51125 2.23875,1.51125 4.0675,3.20125 5.485,5.05875 1.4075,1.85 2.49125,3.98875 3.23875,6.39125 l -7.00625,10.38787 c -0.44625,-2.51262 -1.285,-4.72662 -2.5075,-6.65662 -1.22125,-1.93125 -2.82625,-3.565 -4.80875,-4.9025 -2.55375,-1.7225 -5.1175,-2.12875 -7.6975,-1.225 -2.58125,0.90375 -5.02125,3.0575 -7.31625,6.4625 -2.11375,3.13175 -3.0775,6.07563 -2.89375,8.83337 0.185,2.75688 1.5025,4.95663 3.9575,6.61138 2.03125,1.37112 4.295,2.15237 6.7875,2.34225 2.4975,0.18312 5.02375,-0.2295 7.59,-1.2515 l -6.3875,9.46925 z m 19.8625,5.8745 c 2.1675,1.1045 3.53125,2.24613 4.0925,3.42725 0.57,1.18613 0.42125,2.62013 -0.43375,4.29938 -0.86,1.68649 -1.9325,2.65037 -3.22625,2.88574 -1.28625,0.24026 -3.0125,-0.19187 -5.18,-1.29687 -2.17625,-1.10837 -3.54,-2.251 -4.10125,-3.43113 -0.57,-1.18662 -0.42125,-2.62062 0.43875,-4.30812 0.855,-1.67825 1.9275,-2.64163 3.2225,-2.877 1.285,-0.24025 3.01125,0.19188 5.1875,1.30075 z m 39.9825,26.88238 11.075,-32.16501 0,0 -10.7725,-3.70899 0,0 1.75,-5.07913 1.75875,-5.10937 0,0 32.175,11.07962 0,0 -1.74875,5.0795 -1.75875,5.1085 0,0 -10.80125,-3.71875 0,0 -11.075,32.165 0,0 -5.29625,-1.82375 -5.30625,-1.82762 z m 54.515,14.26849 c -6.6875,-0.82125 -11.4575,-3.43549 -14.30375,-7.8315 -2.84125,-4.40625 -3.77875,-10.59662 -2.81875,-18.583 0.94125,-7.50687 3.30625,-12.93999 7.10125,-16.28999 3.79625,-3.35013 9.0425,-4.61375 15.73,-3.7935 7.10375,0.8725 12.01125,3.26274 14.72375,7.18112 2.70375,3.90675 3.57625,9.80812 2.6075,17.69288 l -0.0163,0.13874 c -0.96125,7.98576 -3.3675,13.766 -7.2025,17.3525 -3.8425,3.57513 -9.12375,4.95463 -15.82125,4.13276 z m 1.24875,-10.16987 c 2.89875,0.3555 5.2425,-0.41163 7.03,-2.30025 1.78875,-1.88875 2.93,-4.80175 3.4125,-8.729 0.53375,-4.34325 0.20375,-7.628 -1,-9.84475 -1.19625,-2.21488 -3.335,-3.51175 -6.4025,-3.88825 -2.88875,-0.35487 -5.22875,0.462 -7.02875,2.45125 -1.8,1.978 -2.955,5.00925 -3.45625,9.08487 -0.4825,3.92826 -0.0788,7.03038 1.19875,9.29601 1.27875,2.26562 3.3575,3.57512 6.24625,3.93012 z m -1.79375,-40.2685 10.03625,-6.74125 11.04,1.35638 -11.8075,6.52249 -9.26875,-1.13762 z m 30.27625,52.25288 2.345,-44.73238 0,0 5.59375,0.29338 0,0 13.67625,0.71687 c 5.325,0.27875 9.16875,1.40913 11.53,3.37887 2.36125,1.98051 3.4425,4.96238 3.235,8.94338 -0.21625,4.12062 -1.585,7.38275 -4.10625,9.78563 -2.28,2.16649 -5.11375,3.28512 -8.51,3.35737 l 0,0 12.5075,20.15825 0,0 -7.03625,-0.36913 -7.02875,-0.36812 0,0 -9.92625,-19.49425 0,0 -0.0913,-0.005 0,0 -0.99125,18.92188 0,0 -5.59375,-0.29288 -5.60375,-0.29399 z m 12.5225,-24.69525 0,0 7.345,0.38474 c 1.475,0.0776 2.68125,-0.28912 3.6225,-1.10749 0.94125,-0.81888 1.45,-1.95013 1.525,-3.39401 0.0675,-1.28425 -0.29875,-2.2915 -1.10875,-3.0225 -0.81,-0.73087 -2.00625,-1.14249 -3.57875,-1.2255 l -7.34625,-0.38487 0,0 -0.45875,8.74963 z m 62.98125,-9.169 c -1.99,-1.24225 -4.04125,-2.085 -6.1525,-2.5185 -2.1125,-0.43363 -4.42125,-0.5015 -6.90375,-0.19688 -1.98875,0.24412 -3.4775,0.708 -4.4575,1.40037 -0.99,0.69488 -1.415,1.56063 -1.2875,2.59863 0.0975,0.79163 0.695,1.41163 1.78625,1.87012 1.0975,0.438 2.99,0.79788 5.6975,1.09825 4.81625,0.54288 8.3875,1.73088 10.73125,3.56288 2.32375,1.83312 3.69875,4.52687 4.13625,8.0885 0.54,4.40175 -0.45875,8.12 -2.9875,11.1615 -2.53,3.03225 -6.125,4.83937 -10.80375,5.41362 -3.12625,0.38425 -5.8925,0.35163 -8.2975,-0.0957 -2.395,-0.45888 -4.61625,-1.36076 -6.67,-2.71576 l -1.3475,-10.981 c 2.37125,1.56638 4.67625,2.67925 6.92625,3.337 2.24,0.65813 4.44375,0.8495 6.58,0.58788 2.0475,-0.252 3.57375,-0.83113 4.5575,-1.73487 0.98375,-0.90388 1.39,-2.08888 1.21,-3.562 -0.1125,-0.91163 -0.7175,-1.57963 -1.81375,-2.00788 -1.06875,-0.44088 -3.1125,-0.82225 -6.1375,-1.164 -4.8175,-0.544 -8.415,-1.78913 -10.76375,-3.73925 -2.3475,-1.9415 -3.7575,-4.84138 -4.23,-8.6895 -0.51,-4.15575 0.5925,-7.686 3.2975,-10.59813 2.715,-2.91412 6.5475,-4.67037 11.48375,-5.27637 2.71125,-0.3325 5.19875,-0.27688 7.46125,0.15825 2.2725,0.4345 4.465,1.27925 6.57625,2.52675 l 1.40875,11.47613 z m 20.87375,25.40912 -12.3475,-43.058 0,0 5.395,-1.54738 5.385,-1.544 0,0 4.5725,15.94388 0,0 13.33625,-3.82425 0,0 -4.5725,-15.94338 0,0 5.395,-1.54737 5.38375,-1.54387 0,0 12.3475,43.05812 0,0 -5.38375,1.54487 -5.39625,1.54688 0,0 -4.80375,-16.75737 0,0 -13.3375,3.82425 0,0 4.805,16.75737 0,0 -5.385,1.54388 -5.39375,1.54637 z m 44.575,-14.17625 -7.9,-45.98387 8.13375,-3.96775 8.135,-3.96788 31.39,34.52787 0,0 -5.4025,2.63488 -5.3925,2.63075 0,0 -6.2125,-7.30612 0,0 -14.13875,6.895 0,0 1.91375,9.40337 0,0 -5.24875,2.5605 -5.2775,2.57325 z m 3.26375,-43.40037 3.0925,17.77687 0.0238,0.188 0,0 9.20125,-4.48738 0,0 -0.11875,-0.10837 -12.18125,-13.37737 -0.0175,0.008 z m 15.07875,-15.34038 0,0 4.97625,-3.74875 4.96625,-3.7425 0,0 26.0625,20.72325 -0.009,0.006 0,0 -12.74375,-30.75913 0,0 4.8475,-3.6525 4.87875,-3.6775 0,0 16.10875,43.95 -5.645,4.25338 -5.6425,4.25187 -37.8,-27.604 z m 77.3025,-3.43625 0,0 -3.99,3.99 -4.0025,4.0025 0,0 -31.67375,-31.67375 0,0 5.94875,-5.94875 5.9475,-5.9475 0,0 26.88125,12.38875 0,0 -19.635,-19.635 0,0 3.98875,-3.99 4.0025,-4.0025 0,0 31.675,31.675 -4.99625,4.995 -4.9975,4.9975 -31.22375,-12.925 0,0 22.075,22.07375 z m 126.6125,-235.65625 0,-0.0237 c 0,-190.33875 -154.35875,-344.69875 -344.6975,-344.69875 -190.33875,0 -344.69788,154.36 -344.69788,344.69875 l 0,0.0237 99.94788,0 c 0.0125,135.1375 109.60875,244.72625 244.75,244.72625 135.14,0 244.7375,-109.58875 244.75,-244.72625 l 99.9475,0"
         style="fill:#231f20;fill-opacity:1;fill-rule:evenodd;stroke:none"
         id="path3350"
         inkscape:connector-curvature="0" />
      <path
         d="m 482.85714,307.61221 c 135.11625,0 244.6975,109.55125 244.74875,244.6575 l -7.06375,0 c -0.05,-131.205 -106.46875,-237.59375 -237.685,-237.59375 -131.2175,0 -237.635,106.38875 -237.685,237.59375 l -7.06375,0 c 0.0512,-135.10625 109.63125,-244.6575 244.74875,-244.6575"
         style="fill:#231f20;fill-opacity:1;fill-rule:evenodd;stroke:none"
         id="path3352"
         inkscape:connector-curvature="0" />
      <path
         d="m 531.74589,630.01221 c 21.42125,15.345 35.36,40.28875 35.36,68.4475 0,46.63 -38.22125,84.445 -85.35375,84.445 -26.99625,0 -49.855,-12.865 -65.49625,-32.22875 l 0.11125,-0.11 c 15.25375,16.25375 36.355,26.31 60.53625,26.31 7.05,0 13.8975,-0.87 20.4375,-2.4975 -2.2575,-0.545 -4.59625,-1.0475 -6.50875,-1.765 -0.80625,-4.44 -1.61375,-8.87875 -3.025,-13.62 12.01125,-3.725 19.57625,-12.2025 25.73,-21.78875 9.8825,4.23375 16.44,4.83875 22.695,3.9325 0.1425,3.5575 -0.16875,7.865 -0.50375,11.76 10.62375,-10.4275 18.43,-23.66125 22.19125,-38.48 l -5.11,0.87125 c 2.18625,-12.465 -1.32625,-23.3725 -8.0325,-33.40625 2.85625,-5.82125 4.27,-12.6025 4.69875,-20.04375 l 6.82125,6.94375 c -4.54875,-13.1925 -12.45625,-25.2325 -24.56625,-38.7475 l 0.015,-0.0225 z m -119.69125,92.89875 c 0.46625,-6.45375 1.5,-11.1275 4.1225,-17.08875 11.18125,6.32125 22.32625,9.84875 33.58625,12.3525 0.7925,12.12 2.98625,24.00375 6.2025,34.1025 -10.59,3.78875 -17.2475,4.69875 -23.45,4.0925 3.4975,-1.4575 6.3925,-2.7725 8.4725,-4.395 -2.06875,-7.57875 -4.08625,-14.855 -4.53875,-22.43125 -7.2525,-3.7775 -12.92375,-8.5 -18.15375,-13.49 -2.28375,1.99 -4.185,3.9375 -6.24125,6.8575 z m 65.5775,-111.18125 0.15125,8.0475 c 9.53375,1.055 19.425,2.49625 27.7375,10.47875 5.65875,0 11.3175,0 16.97625,0 -0.10125,-1.41875 -0.05,-3.4425 -0.15125,-4.86 -12.955,-7.92875 -26.8975,-13.855 -44.71375,-13.66625 z m -34.1525,16.32125 -0.90875,24.135 c -9.6025,1.62 -17.06375,9.4625 -22.425,20.34125 -4.79875,-2.17625 -9.89875,-3.89625 -15.1525,-6.07125 2.575,-22.1575 13.28375,-36.89625 38.48625,-38.405 z m -3.2475,5.55 -0.3025,12.12625 c -5.0675,0.15 -7.8925,2.52375 -11.80125,6.82 0.44625,-14.4375 7.185,-16.87 12.10375,-18.94625 z m 32.5775,24.8975 c 2.9225,13.55375 4.33375,26.855 2.42,39.605 11.79,0.65375 23.57875,4.18 35.37,9.67375 6.2475,-5.9975 11.185,-15.2675 14.20875,-29.325 -2.2175,-8.465 -5.54375,-14.16375 -9.97875,-18.59625 1.51125,7.05375 4.6425,18.05375 3.785,24.19875 -3.35125,-5.60125 -7.48375,-11.34625 -12.55,-16.48625 -7.55875,1.61125 -15.01625,8.06125 -21.76625,16.93 -2.0175,-8.365 -5.14,-18.845 -8.7675,-27.20875 l -2.72125,1.20875"
         style="fill:#231f20;fill-opacity:1;fill-rule:evenodd;stroke:none"
         id="path3354"
         inkscape:connector-curvature="0" />
      <path
         d="m 294.07339,443.33596 83.13125,150.5075 c 6.3375,11.475 13.83375,14.63 27.40875,10.0025 l 24.5725,-8.375 c 18.4525,-6.28875 22.4875,-23.24 20.1725,-40.64375 l -8.7075,-65.4575 c -1.80875,-13.605 -10.84375,-20.9675 -33.69625,-21.5425 l -0.22625,-0.565 c 6.76125,-5.50625 7.67875,-6.0725 13.785,-12.115 3.21625,-3.1825 7.2475,-7.64375 8.47875,-13.8375 2.60875,-13.1325 2.10125,-34.11875 -2.27125,-40.97875 -4.28875,-6.73125 -16.82,-14.81625 -28.00875,-15.50625 -5.85875,-0.36125 -10.86,0.82875 -15.90375,2.18125 -27.10375,7.265 -54.015,15.42875 -79.3425,28.4675 -12.29375,6.32875 -15.56375,16.69 -9.3925,27.8625 z m 101.99875,132.32125 c 1.7975,4.32375 4.27,7.3625 11.67125,4.70625 l 9.05625,-3.24875 c 6.0925,-2.18375 10.505,-7.4025 8.505,-14.65 l -19.21875,-69.6375 c -2.55125,-9.245 -8.7975,-14.26625 -19.05625,-11.40875 l -18.0775,5.0375 c -1.6475,0.45875 -8.69625,3.04 -4.62625,12.82875 l 31.74625,76.3725 z m -56.97375,-138.2525 13.3375,32.8 c 1.7675,4.345 7.26625,5.2825 11.67125,3.64625 l 22.8875,-8.50375 c 4.815,-1.79 9.07875,-7.32875 9.39625,-12.45375 0.43625,-7.0475 -5.0875,-25.7775 -6.97125,-29.45875 -4.37375,-8.53875 -14.59625,-11.5175 -23.14625,-8.52875 l -20.05125,7.01 c -5.70625,1.995 -9.27625,10.1975 -7.12375,15.48875"
         style="fill:#231f20;fill-opacity:1;fill-rule:evenodd;stroke:none"
         id="path3356"
         inkscape:connector-curvature="0" />
      <path
         d="m 444.22089,390.03846 3.6325,41.16375 c 1.4225,16.1275 14.2375,8.86375 17.86125,4.84 12.37875,-13.7425 25.99625,-27.20875 42.06625,-37.8325 1.06125,-0.7025 6.56,-1.2475 4.08625,4.09375 -9.055,19.5625 -18.975,37.2375 -27.0875,56.7425 -1.3775,3.31375 -2.83875,7.0025 5.4475,7.11125 l 11.5025,0.15375 c 2.63375,0.035 4.155,-0.5225 3.78375,3.17875 -3.20125,31.8275 -4.12875,60.1975 -7.5675,92.00125 -0.57875,5.35125 -2.50125,5.76375 -6.05875,5.845 -3.24625,0.0738 -6.34125,-0.8125 -6.5025,-5.98625 -0.5925,-18.95875 0.29125,-38.03625 0.605,-56.9025 0.0562,-3.4225 -2.1775,-7.77375 -7.415,-7.72 l -14.67875,0.155 c -7.21625,0.075 -8.55625,4.59875 -8.32375,8.02375 1.305,19.2325 3.275,39.46125 5.59875,58.865 1.22875,10.26 3.6925,15.715 12.555,21.02625 3.4975,2.095 9.49625,2.855 14.5925,3.18125 9.085,0.5825 17.9475,-1.19625 23.465,-6.275 5,-4.60375 8.57,-11.12625 10.29125,-18.575 7.45875,-32.275 13.34375,-66.915 17.8225,-96.2125 1.33,-8.7 -4.4825,-10.77625 -13.2575,-11.5025 -5.3475,-0.4425 -11.2675,-0.88625 -16.74125,-1.31 -3.28125,-0.2525 -5.17375,-0.30125 -3.3275,-2.62125 13.37125,-16.80375 30.0225,-35.79 45.40125,-55.99875 3.6075,-4.74125 4.25,-13.45125 -6.65875,-15.12875 -29.675,-4.56375 -60.44125,-6.78 -91.10625,-4.39125 -9.30125,0.725 -10.6425,6.64125 -9.98625,14.075"
         style="fill:#231f20;fill-opacity:1;fill-rule:evenodd;stroke:none"
         id="path3358"
         inkscape:connector-curvature="0" />
      <path
         d="m 609.78464,395.06346 c -17.585,-5.99125 -40.6775,5.57625 -47.39875,35.88375 l -27.5625,124.2975 c -2.645,11.93 -5.97625,33.79875 6.02125,40.23875 6.925,3.7175 21.98125,9.57125 26.03625,9.4225 9.285,-0.34125 17.4775,-7.1425 23.76375,-18.41375 l 34.70625,-62.2475 c 9.5575,-17.14 7.735,-30.055 -4.975,-39.77375 -6.42875,-4.91375 -12.6575,-8.69875 -19.4275,-10.29 -4.2375,-0.995 -8.8975,0.75 -12.07875,2.60375 6.255,-18.3625 12.915,-36.3825 19.39875,-54.66375 0.70375,-1.985 3.14875,-2.39125 4.26625,-0.605 10.76125,17.1975 14.4225,39.4375 25.8175,56.9025 2.09625,3.21125 8.70125,3.06125 10.65625,-0.24125 l 22.7625,-38.4425 c 6.85625,-11.58 1.17,-16.67 -4.545,-20.035 -19.9575,-11.7525 -42.53625,-19.55875 -57.44125,-24.63625 z m -26.34125,97.49875 -28.0475,80.86625 c -2.365,6.8175 8.66625,12.48375 12.025,4.46125 l 33.1725,-79.22375 c 2.09125,-4.99375 0.025,-11.56 -5.0075,-12.87375 -6.57375,-1.715 -10.8675,3.09375 -12.1425,6.77"
         style="fill:#231f20;fill-opacity:1;fill-rule:evenodd;stroke:none"
         id="path3360"
         inkscape:connector-curvature="0" />
      <path
         d="m 232.63489,459.30596 -47.84963,-22.31375 0,0 15.02388,-32.21875 0,0 5.73925,2.67625 5.771,2.69125 0,0 -9.4385,20.24125 0,0 7.645,3.565 0,0 9.438,-20.24125 5.73925,2.67625 5.771,2.69125 0,0 -9.43888,20.24 0,0 17.18563,8.01375 -2.79013,5.98375 -2.79587,5.995"
         style="fill:#231f20;fill-opacity:1;fill-rule:nonzero;stroke:none"
         id="path3362"
         inkscape:connector-curvature="0" />
      <path
         d="m 263.92464,403.56846 c -4.66875,6.42625 -10.09,9.84875 -16.24625,10.27 -6.1675,0.4125 -13.08413,-2.15875 -20.76813,-7.7125 -7.20124,-5.26 -11.45124,-10.8025 -12.73537,-16.63 -1.28513,-5.8275 0.41062,-11.9575 5.07812,-18.3825 4.958,-6.825 10.2275,-10.51875 15.81588,-11.07625 5.57325,-0.55375 12.1545,1.91875 19.7295,7.4225 l 0.13375,0.0975 c 7.685,5.55375 12.2675,11.3375 13.7725,17.34 1.49,6.00375 -0.105,12.2375 -4.78,18.67125 z m -9.77125,-7.09875 c 2.02375,-2.785 2.5725,-5.63875 1.6475,-8.5625 -0.92625,-2.9225 -3.2775,-5.76375 -7.05,-8.505 -4.1725,-3.03125 -7.7475,-4.5675 -10.72,-4.59375 -2.96638,-0.035 -5.52688,1.43125 -7.667,4.3775 -2.01663,2.775 -2.51025,5.65375 -1.48925,8.64625 1.01112,2.98625 3.4745,5.91 7.39,8.755 3.77375,2.74125 7.2025,4.09875 10.26875,4.07625 3.06625,-0.0238 5.605,-1.4175 7.62,-4.19375 z m -42.53763,-21.16125 -1.21387,-14.1975 7.70712,-10.6075 -0.022,15.89875 -6.47125,8.90625"
         style="fill:#231f20;fill-opacity:1;fill-rule:nonzero;stroke:none"
         id="path3364"
         inkscape:connector-curvature="0" />
      <path
         d="m 288.53089,371.18221 -28.8425,-27.85375 0,0 -9.32875,9.66 0,0 -4.555,-4.39875 -4.58125,-4.42375 0,0 27.8625,-28.85125 0,0 4.555,4.39875 4.58125,4.42375 0,0 -9.3525,9.68375 0,0 28.8425,27.85375 0,0 -4.58625,4.75 -4.595,4.7575"
         style="fill:#231f20;fill-opacity:1;fill-rule:nonzero;stroke:none"
         id="path3366"
         inkscape:connector-curvature="0" />
      <path
         d="m 311.25339,348.09346 -30.28125,-43.24875 0,0 5.4175,-3.795 0,0 17.0825,-11.96 c 3.7425,-2.62125 7.14375,-3.725 10.20125,-3.31375 3.04875,0.40375 5.78875,2.32875 8.19375,5.765 2.54125,3.62875 3.3225,7.14 2.34,10.55125 -0.76875,2.69125 -2.68375,5.3225 -5.74125,7.87875 l 0,0 c 3.63625,-2.05875 6.8925,-3.01875 9.81,-2.8675 3.4975,0.20375 6.51875,2.11875 9.045,5.7275 2.6675,3.81125 3.59125,7.425 2.7725,10.82375 -0.8275,3.40375 -3.395,6.62125 -7.72375,9.65375 l -15.70625,10.9975 0,0 -5.41,3.7875 z m -12.21125,-40.485 5.03375,7.18875 0,0 5.755,-4.03 c 2.19375,-1.53625 3.58875,-2.9425 4.18,-4.23 0.58625,-1.2725 0.42625,-2.565 -0.4825,-3.86375 -0.85625,-1.22375 -1.9775,-1.7575 -3.35875,-1.6225 -1.385,0.1525 -3.17875,0.9925 -5.3725,2.52875 l -5.755,4.02875 z m 10.78125,15.3975 5.90375,8.43125 0,0 6.5725,-4.6025 c 2.04,-1.42875 3.28875,-2.82 3.725,-4.14375 0.445,-1.33 0.13875,-2.75 -0.91125,-4.2525 -1.0175,-1.4525 -2.26375,-2.14375 -3.74375,-2.0675 -1.4725,0.07 -3.34625,0.895 -5.59875,2.47125 l -5.9475,4.16375"
         style="fill:#231f20;fill-opacity:1;fill-rule:nonzero;stroke:none"
         id="path3368"
         inkscape:connector-curvature="0" />
      <path
         d="m 369.61589,313.14971 c -7.255,3.23 -13.66125,3.48375 -19.20375,0.77 -5.5475,-2.72625 -10.2525,-8.41125 -14.13,-17.06375 -3.605,-8.155 -4.515,-15.08 -2.71375,-20.76875 1.8,-5.68875 6.335,-10.15125 13.59,-13.38125 7.705,-3.43 14.11625,-3.995 19.23375,-1.68375 5.10375,2.30625 9.5675,7.73875 13.37625,16.2925 l 0.0662,0.15 c 3.8775,8.6525 4.955,15.9525 3.25875,21.905 -1.71375,5.94375 -6.21125,10.545 -13.4775,13.78 z m -4.91125,-11.03375 c 3.14375,-1.4 5.04625,-3.5975 5.7075,-6.59125 0.65875,-2.995 0.0437,-6.63125 -1.8525,-10.89125 -2.09875,-4.7125 -4.425,-7.82875 -6.9875,-9.3375 -2.55125,-1.51375 -5.50125,-1.525 -8.82875,-0.0437 -3.1325,1.395 -5.00125,3.6425 -5.61375,6.74375 -0.61625,3.09125 0.0562,6.855 2.02375,11.2775 1.8975,4.26125 4.1875,7.15 6.855,8.66375 2.6675,1.51375 5.5625,1.57375 8.69625,0.17875 z m -26.25875,-39.595 6.04875,-12.90375 11.9775,-5.3325 -7.96875,13.75875 -10.0575,4.4775"
         style="fill:#231f20;fill-opacity:1;fill-rule:nonzero;stroke:none"
         id="path3370"
         inkscape:connector-curvature="0" />
      <path
         d="m 397.24089,299.72596 0,0 -13.66375,-50.9975 0,0 6.38875,-1.71125 6.37625,-1.70875 0,0 10.37875,38.73 0,0 17.25875,-4.62375 0,0 1.64,6.115 1.6475,6.15125 0,0 -30.02625,8.045"
         style="fill:#231f20;fill-opacity:1;fill-rule:nonzero;stroke:none"
         id="path3372"
         inkscape:connector-curvature="0" />
      <path
         d="m 440.44839,289.44846 -4.19125,-39.87625 0,0 -13.35375,1.40375 0,0 -0.6625,-6.2975 -0.665,-6.33375 0,0 39.88875,-4.1925 0,0 0.66125,6.29875 0.66625,6.33125 0,0 -13.39,1.40875 0,0 4.19125,39.8775 0,0 -6.56625,0.68875 -6.57875,0.69125"
         style="fill:#231f20;fill-opacity:1;fill-rule:nonzero;stroke:none"
         id="path3374"
         inkscape:connector-curvature="0" />
      <path
         d="m 507.11339,251.55096 c -2.11875,-1.775 -4.375,-3.09625 -6.77,-3.94875 -2.3925,-0.8525 -5.07625,-1.31125 -8.025,-1.3625 -2.36,-0.04 -4.175,0.25625 -5.43125,0.90375 -1.26875,0.6475 -1.90875,1.58875 -1.93,2.8225 -0.0162,0.93875 0.58,1.76125 1.77875,2.475 1.20875,0.69125 3.36,1.42125 6.47125,2.21625 5.5325,1.42375 9.505,3.3975 11.94,5.91875 2.41125,2.52125 3.575,5.89 3.50125,10.11875 -0.0913,5.2275 -1.86875,9.4025 -5.31875,12.53875 -3.45,3.125 -7.9425,4.64375 -13.4975,4.54625 -3.7125,-0.065 -6.935,-0.555 -9.6675,-1.4725 -2.72375,-0.92875 -5.165,-2.345 -7.34,-4.265 l 0.2275,-13.03875 c 2.51,2.21875 5.01875,3.895 7.53625,5.0325 2.5075,1.13625 5.0475,1.72125 7.58375,1.765 2.4325,0.0425 4.3075,-0.3825 5.60375,-1.27625 1.29625,-0.89375 1.96625,-2.21 1.99625,-3.96 0.0188,-1.08125 -0.5775,-1.96125 -1.7875,-2.64 -1.17375,-0.69 -3.49875,-1.47125 -6.9725,-2.36625 -5.5325,-1.425 -9.5275,-3.46875 -11.94875,-6.13 -2.42125,-2.65125 -3.59125,-6.2675 -3.5125,-10.83625 0.0875,-4.93375 1.9525,-8.8725 5.5875,-11.82875 3.6475,-2.95625 8.4075,-4.3775 14.27,-4.275 3.2175,0.0563 6.11125,0.53 8.68125,1.40875 2.5825,0.88 5.00125,2.22625 7.2625,4.0275 l -0.23875,13.62625"
         style="fill:#231f20;fill-opacity:1;fill-rule:nonzero;stroke:none"
         id="path3376"
         inkscape:connector-curvature="0" />
      <path
         d="m 515.72089,287.77096 9.1675,-51.995 0,0 35.01,6.1725 0,0 -1.1,6.235 -1.10625,6.27125 0,0 -21.9925,-3.8775 0,0 -1.46625,8.3075 0,0 21.995,3.8775 -1.1,6.23625 -1.105,6.27125 0,0 -21.99375,-3.87875 0,0 -3.29375,18.67375 -6.5025,-1.14625 -6.5125,-1.1475"
         style="fill:#231f20;fill-opacity:1;fill-rule:nonzero;stroke:none"
         id="path3378"
         inkscape:connector-curvature="0" />
      <path
         d="m 558.05214,296.06346 0,0 18.92125,-49.29125 0,0 34.15375,13.11 0,0 -2.27,5.91375 -2.28125,5.94375 0,0 -21.815,-8.37375 0,0 -2.56375,6.67875 0,0 21.81375,8.37375 -2.26875,5.9125 -2.28125,5.94375 0,0 -21.815,-8.37375 0,0 -2.7025,7.0425 0,0 21.81375,8.3725 0,0 -2.26875,5.9125 -2.2825,5.945 0,0 -34.15375,-13.11"
         style="fill:#231f20;fill-opacity:1;fill-rule:nonzero;stroke:none"
         id="path3380"
         inkscape:connector-curvature="0" />
      <path
         d="m 599.41839,312.62596 0,0 26.3975,-45.72375 0,0 5.72875,3.3075 5.71875,3.3 0,0 -20.04875,34.72625 0,0 15.475,8.93375 0,0 -3.16625,5.48375 -3.18375,5.515 0,0 -26.92125,-15.5425"
         style="fill:#231f20;fill-opacity:1;fill-rule:nonzero;stroke:none"
         id="path3382"
         inkscape:connector-curvature="0" />
      <path
         d="m 630.57589,331.10096 44.06375,-32.9025 8.52,6.41875 8.51875,6.42 -19.4625,51.44125 0,0 -5.65875,-4.26375 -5.6475,-4.255 0,0 4.34625,-10.435 0,0 -14.805,-11.15625 0,0 -8.85125,7.04 0,0 -5.4975,-4.14375 -5.52625,-4.16375 z m 47.32375,-19.79625 -17.015,12.76 -0.1825,0.12625 0,0 9.635,7.26125 0,0 0.05,-0.1825 7.5325,-19.95125 -0.02,-0.0138"
         style="fill:#231f20;fill-opacity:1;fill-rule:nonzero;stroke:none"
         id="path3384"
         inkscape:connector-curvature="0" />
      <path
         d="m 685.09589,381.86846 c -4.77,-5.4875 -6.61125,-11.4375 -5.51375,-17.84 1.08875,-6.41 4.99,-12.52625 11.71,-18.36875 6.33875,-5.51 12.7375,-8.16 19.185,-7.9425 6.455,0.21 12.2225,3.245 17.30875,9.09625 2.2125,2.545 3.85625,5.24125 4.92375,8.08125 1.0675,2.83875 1.5925,5.915 1.55125,9.235 l -11.14375,9.68875 c 0.50875,-3.12125 0.41375,-6.05875 -0.2825,-8.83125 -0.70625,-2.76375 -1.97625,-5.20875 -3.8325,-7.34625 -2.9675,-3.41375 -6.2175,-5.18125 -9.7475,-5.3025 -3.53125,-0.1225 -7.11875,1.40875 -10.77125,4.58375 -3.52125,3.06125 -5.59125,6.105 -6.21875,9.1425 -0.62875,3.0375 0.2125,5.88625 2.5325,8.555 1.72,1.94375 3.6,3.17375 5.64375,3.71625 l 0,0 10.3475,-8.99375 8.67125,9.97375 -12.83,11.15375 0,0 c -1.20375,0.19 -2.425,0.27125 -3.66625,0.25875 -6.81625,-0.0512 -12.7725,-2.99875 -17.84375,-8.8325 l -0.0237,-0.0275"
         style="fill:#231f20;fill-opacity:1;fill-rule:nonzero;stroke:none"
         id="path3386"
         inkscape:connector-curvature="0" />
      <path
         d="m 702.63839,402.79346 44.2775,-28.755 0,0 3.6025,5.5475 3.59625,5.5375 0,0 -44.27875,28.755 0,0 -3.59625,-5.5375 -3.60125,-5.5475"
         style="fill:#231f20;fill-opacity:1;fill-rule:nonzero;stroke:none"
         id="path3388"
         inkscape:connector-curvature="0" />
      <path
         d="m 715.19089,421.09596 0,0 19.0275,-8.8725 0,0 -1.8175,-3.89625 9.76375,-4.55375 1.8175,3.8975 0,0 19.05875,-8.8875 0,0 2.79,5.98375 0,0 6.1275,13.14 c 3.2375,6.9425 3.88625,12.9775 1.95375,18.1175 -1.89375,5.05625 -6.375,9.23375 -13.445,12.53 l -0.12875,0.06 c -8.84875,4.1525 -16.32125,5.44625 -22.4275,3.88625 -6.10625,-1.56 -10.85375,-5.9575 -14.24,-13.21875 l -5.68875,-12.20125 0,0 -2.79125,-5.985 z m 41.98875,-4.99625 0,0 -7.6125,3.54875 0,0 3.72375,7.98625 -9.76375,4.55375 -3.72375,-7.98625 0,0 -8.9875,4.19125 0,0 2.895,6.20625 c 1.465,3.14125 3.78,4.99125 6.955,5.54625 3.17625,0.555 7.01875,-0.2125 11.5325,-2.3175 4.09875,-1.91125 6.84375,-4.08625 8.25125,-6.54375 1.39625,-2.45375 1.4175,-5.13375 0.0625,-8.04 l -3.3325,-7.145"
         style="fill:#231f20;fill-opacity:1;fill-rule:nonzero;stroke:none"
         id="path3390"
         inkscape:connector-curvature="0" />
    </g>
  </g>
</svg>
