<?xml version="1.0" encoding="UTF-8" standalone="no"?>
<svg
   xmlns:dc="http://purl.org/dc/elements/1.1/"
   xmlns:cc="http://creativecommons.org/ns#"
   xmlns:rdf="http://www.w3.org/1999/02/22-rdf-syntax-ns#"
   xmlns:svg="http://www.w3.org/2000/svg"
   xmlns="http://www.w3.org/2000/svg"
   viewBox="0 0 186.71255 251.99999"
   height="252"
   width="186.71255"
   xml:space="preserve"
   id="svg2"
   version="1.1"><metadata
     id="metadata8"><rdf:RDF><cc:Work
         rdf:about=""><dc:format>image/svg+xml</dc:format><dc:type
           rdf:resource="http://purl.org/dc/dcmitype/StillImage" /><dc:title></dc:title></cc:Work></rdf:RDF></metadata><defs
     id="defs6" /><g
     transform="matrix(1.3333333,0,0,-1.3333333,-65.421878,385.31966)"
     id="g10"><g
       transform="matrix(0.28098285,0,0,0.28098285,35.818853,72.433608)"
       id="g78"><path
         d="m 96.12988,188.04834 c -8.30664,3.354 -21.604,9.50635 -33.45337,25.97949 -12.81054,17.80908 -12.8601,40.89258 -12.8601,65.16895 v 488.8435 h 493.03515 v -488.8435 c 0,-24.27637 -0.0503,-47.35987 -12.86035,-65.16895 -11.84912,-16.47314 -25.14648,-22.62549 -33.45361,-25.97949 L 296.33496,100.73975 Z"
         style="fill:#21357f;fill-opacity:1;fill-rule:nonzero;stroke:none"
         id="path12" /><path
         d="m 59.35327,433.14502 c 0,0.0942 0,314.10327 0,325.3584 17.98169,0 455.97974,0 473.96118,0 0,-7.83447 0,-96.46704 0,-195.42578 l -0.19238,-0.0518 -473.56201,-129.8208 -0.20679,-0.0601 m 109.56665,286.05395 h 56.10254 l 0.004,0.1626 v 29.61011 h -56.55127 v -29.77295 l 0.44433,2.4e-4 M 523.77734,570.35303 c 0,84.03833 0,158.56006 0,178.25219 l -10e-4,0.36646 H 467.22507 V 554.85303 l 56.55273,15.5 m -99.58398,-27.3042 V 748.97168 H 367.64304 V 527.55127 l 56.55078,15.49756 m -156.13525,0.41992 v -43.21387 l 56.55029,15.49756 v 233.21924 h -56.55029 v -29.77222 l 0.18798,-4.9e-4 h 21.82666 V 591.75 c 0,-19.99609 -3.68798,-33.70508 -22.01953,-47.61865 l 0.005,-0.6626 m -99.58252,-23.625 v -46.88623 l 56.55127,15.49805 v 31.49609 l -0.0166,0.62305 c -16.85254,-7.27442 -28.25586,-10.32276 -28.25586,-10.32276 v 0 c 0,0 -11.40771,3.04932 -28.26464,10.32666 l -0.0142,-0.73486 m -43.44434,24.61279 C 107.06738,558.2583 103.43652,571.90918 103.43652,591.75 v 127.44897 h 21.375 l 0.63233,-0.0359 v 29.80859 H 68.89233 l -0.0012,-303.31104 56.55274,15.49756 v 83.01612 l -0.4126,0.28222 z"
         style="fill:#f0d810;fill-opacity:1;fill-rule:nonzero;stroke:none"
         id="path14" /><path
         d="m 59.35083,423.25928 473.80688,129.88769 0.15674,0.0522 c 0,-58.49756 0,-119.75293 0,-169.4751 l -0.13769,-0.0337 -473.20362,-129.72119 -0.0093,0.0708 c -0.6106,8.0249 -0.6106,16.49902 -0.6106,25.15674 0,0 0,63.29443 0,143.9082 l -0.0024,0.1543 z"
         style="fill:#ffffff;fill-opacity:1;fill-rule:nonzero;stroke:none"
         id="path16" /><path
         d="m 424.2666,211.15137 c -5.05273,-1.31739 -10.95752,-1.30664 -12.41601,-1.28125 l -0.10108,0.0225 c -2.92871,2.23144 -7.63183,6.1582 -9.41064,7.65234 l -0.082,0.0693 c 2.47216,6.93457 4.10888,13.75342 4.93457,17.58154 l 0.0557,0.10645 c 2.93555,1.18603 11.69824,4.90527 17.46387,9.24755 l 0.11621,-0.0898 11.58789,-7.44922 -0.0435,-0.15576 c -0.69043,-3.25684 -2.98095,-13.18896 -6.6997,-20.93018 l -0.17579,-0.35058 c -1.61377,-1.59229 -3.34033,-3.0708 -5.16552,-4.42285 h -0.064 z"
         style="fill:#f0d810;fill-opacity:1;fill-rule:nonzero;stroke:none"
         id="path18" /><path
         d="M 511.6377,438.91016 V 409.6792 c 0,0 -21.30274,-11.64258 -39.88135,-10.89941 -20.82813,0.833 -33.93604,14.12011 -34.92725,45.08398 -0.99121,30.96436 16.84424,55.48828 34.43262,66.14014 17.5874,10.65234 40.37598,11.64209 40.37598,11.64209 v -28.98194 c 0,0 -18.8252,4.70606 -29.97266,-9.66113 -11.14649,-14.36719 -11.89014,-36.66162 -4.70654,-46.07471 7.18457,-9.41357 19.07226,-10.40429 34.6792,1.98194 z"
         style="fill:#f0d810;fill-opacity:1;fill-rule:nonzero;stroke:none"
         id="path20" /><path
         d="m 208.06348,355.92529 v -29.23095 c 0,0 -21.30225,-11.64258 -39.88086,-10.89893 -20.82862,0.83301 -33.93653,14.12012 -34.92774,45.08398 -0.99121,30.96338 16.84473,55.4878 34.43262,66.13965 17.5874,10.65235 40.37598,11.64209 40.37598,11.64209 V 409.6792 c 0,0 -18.8252,4.70703 -29.97217,-9.66113 -11.14697,-14.3667 -11.89063,-36.66114 -4.70654,-46.07471 7.18408,-9.41309 19.07226,-10.40381 34.67871,1.98193 z"
         style="fill:#e02321;fill-opacity:1;fill-rule:nonzero;stroke:none"
         id="path22" /><path
         d="m 61.06909,244.38037 472.05152,129.40527 0.19384,0.0493 c 0,-55.69678 0,-94.63818 0,-94.63818 0,-22.73926 0,-44.21729 -11.06543,-59.59961 C 512.5293,206.0835 501.99219,200.53564 492.9668,196.8916 l -0.12159,-0.0488 c 0,0 -189.17333,-82.49902 -196.51025,-85.69873 -7.3374,3.19971 -196.51221,85.69873 -196.51221,85.69873 l -0.12158,0.0488 c -9.02539,3.64404 -19.5625,9.1919 -29.28271,22.70508 -5.09864,7.08789 -7.84766,15.47021 -9.33008,24.67334 l -0.01929,0.11035 m 107.4065,19.54883 v -86.17188 -0.4497 c 18.15966,-7.91944 38.0039,-16.57324 56.55468,-24.66358 l -0.003,0.5669 V 279.44043 L 168.476,263.9292 m 99.58252,27.31103 V 134.29932 l -0.004,-0.41797 c 14.7168,-6.41797 25.26318,-11.01758 28.28076,-12.33301 3.01709,1.31543 13.56152,5.91406 28.27539,12.33057 l -0.002,0.42041 V 306.7373 l -56.55029,-15.49707 m 199.1665,54.59668 V 196.16797 l 4.9e-4,-0.0947 c 13.43261,5.85791 21.92773,9.56299 21.92773,9.56299 l 0.24268,0.0981 c 8.15039,3.29101 16.83398,7.92333 25.11181,19.43115 9.27002,12.88769 9.27002,31.95361 9.27002,54.03125 0,0 0,33.23633 0,82.13965 l -56.553,-15.4995 M 72.29053,237.57666 c 1.34985,-4.58789 3.23584,-8.74902 5.87011,-12.41113 8.27784,-11.50782 16.96143,-16.14014 25.11182,-19.43115 l 0.24268,-0.0981 c 0,0 8.49804,-3.70605 21.93506,-9.56494 l -0.006,0.18115 v 55.87744 L 72.29088,237.57671 m 323.62646,64.21777 c -28.81592,0 -52.17578,-23.35937 -52.17578,-52.17578 0,-28.81689 23.35986,-52.17578 52.17578,-52.17578 28.8169,0 52.17627,23.35889 52.17627,52.17578 0,28.81641 -23.35937,52.17578 -52.17627,52.17578 m 27.9209,-106.229 c -8.3667,-4.33984 -17.86279,-6.79248 -27.9209,-6.79248 -10.02832,0 -19.49707,2.43848 -27.84521,6.75293 l -0.4292,0.22217 v -42.75391 l 0.003,-0.34717 c 18.54882,8.08887 38.39013,16.7417 56.54785,24.66016 l -4.9e-4,0.23389 v 18.2788 l -0.35547,-0.25439 m -55.75146,108.15381 c 8.34472,4.31055 17.80859,6.7456 27.83056,6.7456 10.01172,0 19.46631,-2.43115 27.8042,-6.73339 l 0.47217,-0.18653 v 30.48926 L 367.64251,318.523 v -14.97803 z"
         style="fill:#f0d810;fill-opacity:1;fill-rule:nonzero;stroke:none"
         id="path24" /><path
         d="m 436.54785,274.85303 c 4.56885,-7.33008 7.21045,-15.97949 7.21045,-25.23438 0,-2.09814 -0.13574,-4.16552 -0.39941,-6.19385 l -0.008,-0.11767 c -1.1748,-1.1875 -3.05224,-2.85742 -5.84033,-4.7544 l -0.15771,-0.083 -12.125,7.79443 -0.0757,0.0405 c -0.47021,3.375 -1.91211,12.74219 -4.32519,20.0249 l 0.0679,0.0605 10.40918,10.06738 c 0,0 1.46435,-0.37647 2.71045,-0.75586 1.24658,-0.37939 2.5332,-0.84863 2.5332,-0.84863 z"
         style="fill:#f0d810;fill-opacity:1;fill-rule:nonzero;stroke:none"
         id="path26" /><path
         d="m 390.12988,284.62354 c 1.97461,-1.76856 4.9961,-4.54834 7.15967,-6.87452 2.6377,-2.83545 5.15039,-5.7998 6.19873,-7.05273 l 0.0933,-0.11279 c 1.6045,-0.48536 4.23487,-1.19825 7.72559,-1.8628 3.9043,-0.74365 6.61182,-1.18799 8.04736,-1.41064 l 0.12256,0.1206 10.76856,10.41504 c 0,0 -0.18653,1.48633 -0.43067,2.89551 -0.24365,1.40869 -0.74805,3.34033 -0.74805,3.34033 -6.95849,6.6958 -15.93457,11.31055 -25.91259,12.83106 l -0.10645,-0.0532 c -5.90967,-4.65088 -10.96435,-10.06739 -12.81103,-12.12012 l -0.10694,-0.11572 z"
         style="fill:#f0d810;fill-opacity:1;fill-rule:nonzero;stroke:none"
         id="path28" /><path
         d="m 348.27002,253.94775 c 1.31055,14.54493 9.15869,27.23389 20.57617,35.09668 l 0.10986,-0.12695 c 1.97657,-2.30957 3.63672,-4.44043 4.47803,-5.5415 l -0.1333,-0.14112 c -2.32959,-1.95312 -6.04053,-5.43115 -8.93017,-9.85058 -2.57959,-3.94532 -3.67383,-8.35157 -4.13721,-11.46875 l -0.22754,-0.12696 c -2.4541,-1.24755 -8.22119,-4.36474 -11.56885,-7.69238 z"
         style="fill:#f0d810;fill-opacity:1;fill-rule:nonzero;stroke:none"
         id="path30" /><path
         d="m 392.50488,251.79834 c -7.98193,-1.11475 -16.76123,-3.04004 -20.92187,-3.99902 l -0.11328,-0.0322 c -3.26221,4.43018 -7.67725,10.78955 -9.4834,13.40381 l -0.0781,0.12158 c 0.41114,2.95996 1.42237,7.33301 3.91358,11.14307 3.15429,4.82422 7.44482,8.5625 9.50293,10.20752 l 0.16601,0.13037 c 4.85645,0.56543 10.39551,0.91699 12.78955,1.0542 l 0.12012,0.0142 c 1.89209,-1.68018 5.27686,-4.75489 7.62012,-7.27344 2.07861,-2.23486 4.08008,-4.55225 5.33203,-6.0293 l 0.0752,-0.0972 c -1.28271,-2.75634 -5.88378,-12.60888 -8.72802,-18.2871 l -0.19483,-0.35645 z"
         style="fill:#f0d810;fill-opacity:1;fill-rule:nonzero;stroke:none"
         id="path32" /><path
         d="m 411.89746,204.69727 c 0.42725,1.479 0.6875,2.65478 0.83545,3.4082 l 0.061,0.0215 c 1.57666,0.001 4.35205,0.0747 7.37402,0.47754 l 0.43164,0.0449 c -2.74609,-1.66064 -5.67285,-3.05322 -8.74121,-4.14013 z"
         style="fill:#f0d810;fill-opacity:1;fill-rule:nonzero;stroke:none"
         id="path34" /><path
         d="m 368.63623,229.52441 c 1.77734,-2.48339 6.46973,-8.45996 14.02148,-14.01562 l 0.12256,-0.0606 c 7.2627,0.34131 14.51807,1.75733 17.46827,2.38965 l 0.27001,0.0664 c 2.48047,6.89258 4.12452,13.71289 4.95704,17.55957 l 0.01,0.16845 c -4.8667,4.69776 -10.52295,11.68506 -12.58887,14.28809 l -0.1206,0.16553 c -7.85352,-1.09473 -16.51709,-2.98975 -20.6958,-3.95166 l -0.16211,-0.0225 c -0.25195,-2.51465 -1.12061,-9.69385 -3.35742,-16.49024 l 0.0757,-0.0972 z"
         style="fill:#f0d810;fill-opacity:1;fill-rule:nonzero;stroke:none"
         id="path36" /><path
         d="m 351.65234,231.46631 c 5.26905,-12.80029 15.93555,-22.83154 29.14991,-27.24219 l 0.18652,-0.0205 c 0.12353,2.89942 0.37256,7.75391 0.48877,9.99561 l -0.16943,0.14892 c -7.85938,5.84082 -12.56202,11.97754 -14.25,14.39405 l -0.0986,0.12207 c -2.83301,0.38574 -9.79834,1.40088 -15.35791,2.74267 l 0.0508,-0.14062 z"
         style="fill:#f0d810;fill-opacity:1;fill-rule:nonzero;stroke:none"
         id="path38" /><path
         d="m 376.64844,413.42139 8.11865,48.85693 7.54395,-44.5249 -15.6626,-4.33203 m 19.57861,-18.78174 3.07715,-18.15869 35.80566,9.82226 -28.04931,108.79737 -42.72852,-11.71192 -30.73486,-124.91064 35.5415,9.74658 3.30567,19.89551 z"
         style="fill:#f0d810;fill-opacity:1;fill-rule:nonzero;stroke:none"
         id="path40" /><path
         d="m 277.8374,371.28418 v 59.45117 c 11.35401,2.97266 19.52832,-3.96435 19.77637,-22.04687 0.24756,-18.08203 -5.36768,-31.21143 -19.77637,-37.4043 m -34.02978,-37.42871 24.86523,6.81689 c 46.1167,12.73828 61.63916,38.29102 64.11621,66.28223 2.47657,27.99121 -6.68847,43.10254 -18.82617,49.29541 -12.13867,6.19336 -30.46924,4.95459 -44.9292,1.0127 l -25.44873,-6.97706 -0.13916,-0.0366 V 333.7632 l 0.36182,0.0923 z"
         style="fill:#f0d810;fill-opacity:1;fill-rule:nonzero;stroke:none"
         id="path42" /><path
         d="M 126.04004,368.37207 V 344.20361 L 108.41113,339.3623 V 296.71777 L 74.01978,287.30713 V 403.7915 l 52.02026,14.26905 v -29.06201 l -17.62891,-4.84083 v -20.62744 z"
         style="fill:#e02321;fill-opacity:1;fill-rule:nonzero;stroke:none"
         id="path44" /><path
         d="m 196.75439,707.49463 h 81.61426 c 0,-19.30689 0,-115.74463 0,-115.74463 0,-19.97559 -2.95996,-31.07227 -29.99902,-46.47363 -23.63135,-13.46045 -44.14746,-20.48487 -51.61524,-22.81348 z"
         style="fill:#e02321;fill-opacity:1;fill-rule:nonzero;stroke:none"
         id="path46" /><path
         d="m 196.55811,676.52002 c -35.94385,0 -71.83985,0 -81.417,0 v 0.13501 c 0,13.81836 0,25.39551 0,30.8396 h 81.34229 0.27099 v -30.96851 l -0.19628,-0.006 z"
         style="fill:#21357f;fill-opacity:1;fill-rule:nonzero;stroke:none"
         id="path48" /><path
         d="m 217.27881,639.146 c 0,9.96704 8.10889,18.07568 18.07568,18.07568 9.96631,0 18.0752,-8.10864 18.0752,-18.07568 0,-9.96631 -8.10889,-18.07422 -18.0752,-18.07422 -9.96679,0 -18.07568,8.10791 -18.07568,18.07422 m -0.25293,21.78173 c -6.20313,-5.22851 -10.15039,-13.05224 -10.15039,-21.78173 0,-13.875 9.97412,-25.46485 23.12988,-27.97461 l 0.14697,-0.022 V 590.8115 l -9.7e-4,-0.21679 h -13.8711 v -10.4043 h 13.87207 v -0.19922 -21.01123 l 10.40381,6.08252 v 14.92871 0.19922 h 13.87451 v 10.4043 h -13.875 l 4.9e-4,0.19922 v 20.35498 l 0.0747,0.009 c 13.19141,2.48096 23.20312,14.08741 23.20312,27.98829 0,8.72754 -3.94628,16.55029 -10.14794,21.7788 l 8.08496,15.59522 c -3.89942,0 -7.81299,0 -11.71778,0 l -5.42187,-10.44482 c -2.90967,1.00439 -6.03076,1.55029 -9.27686,1.55029 -3.24365,0 -6.3623,-0.54492 -9.26953,-1.54834 l -5.43555,10.44287 c -3.90087,0 -7.82177,0 -11.72216,0 l 8.09863,-15.59229 z"
         style="fill:#f0d810;fill-opacity:1;fill-rule:nonzero;stroke:none"
         id="path50" /><path
         d="m 115.14111,614.57031 c 9.58252,0 45.51075,0 81.47461,0 l 0.13867,0.006 v 30.98145 l -0.13867,-0.0125 c -35.96386,0 -71.89209,0 -81.47461,0 v -30.97534 z"
         style="fill:#21357f;fill-opacity:1;fill-rule:nonzero;stroke:none"
         id="path52" /><path
         d="m 115.39697,583.5127 c 0.90625,-12.14014 4.6709,-20.99659 18.15576,-30.85059 l 0.0596,-0.0405 c 16.11915,0 39.53809,0 62.97461,0 l 0.16748,0.005 v 30.98145 l -0.0947,-0.0122 c -35.69922,0 -71.3667,0 -81.26612,0 l 0.003,-0.0835 z"
         style="fill:#21357f;fill-opacity:1;fill-rule:nonzero;stroke:none"
         id="path54" /></g></g></svg>