<svg height="329.29278" viewBox="0 0 21.922089 23.688146" width="303.681119" xmlns="http://www.w3.org/2000/svg" xmlns:xlink="http://www.w3.org/1999/xlink"><linearGradient id="a" gradientUnits="userSpaceOnUse" x1="284.42999" x2="284.42999" y1="115.78" y2="199.98"><stop offset="0" stop-color="#ffe500"/><stop offset="1" stop-color="#fbba00"/></linearGradient><linearGradient id="b" gradientUnits="userSpaceOnUse" x1="284.32999" x2="284.32999" y1="220.49001" y2="123.98"><stop offset="0" stop-color="#ffe500"/><stop offset=".3" stop-color="#ffe100"/><stop offset=".61" stop-color="#fdd400"/><stop offset=".93" stop-color="#fcc000"/><stop offset="1" stop-color="#fbba00"/></linearGradient><g transform="matrix(.05636427 0 0 .05636427 .026458 .026458)"><path d="m379 23.66-4.75-23.66-3.41 1.5-18.69 8.22c-42.2 18.57-81.62 22.38-127.81 22.38-49.82 0-88.13-6.88-128.08-23l-21.12-8.51-5.14 22.19c-4 17.41-5.63 33.85-7.2 49.75l-.68 6.87v.32c-.36 5-.55 11.08-.55 18 0 34.86 4.9 91 12.82 120.93 21.61 84.12 71.25 153.27 139.91 194.68l9.92 6 10-5.88c54.54-32.13 99.34-86.87 126.14-154.14 28.78-72.31 35.24-153.76 18.64-235.65zm-21.44 234.53c-26.56 66.65-70.9 120.87-124.87 152.66l-8.44 5-8.39-5.06c-68-41-117.19-109.5-138.55-192.88-7.76-29.32-12.72-84.46-12.72-120.16 0-6.71.18-12.73.54-17.77v-.25l.68-6.88c1.58-15.85 3.19-32.18 7.19-49.4l4.28-18.76 17.85 7.2c40.33 16.27 79 23.21 129.21 23.21 46.57 0 86.34-3.85 129-22.63l18.69-8.22 4 20c16.52 81.32 10.11 162.21-18.47 233.94z" fill="#1d1d1b"/><g fill="#ffe500"><path d="m147.12 36.23a379.67 379.67 0 0 0 77.21 7.12c14 0 46.13.06 79-6.46 33.6-6.74 62.69-21 62.69-21l6.06-11.69-18.69 8.22c-42.69 18.78-82.45 22.63-129 22.63-50.23 0-88.87-6.94-129.21-23.21l-17.9-7.15 5.86 11.24s30.86 13.64 63.98 20.3z"/><path d="m316.35 318.93c15.57-23.76 29.67-48.66 43.49-91.88 7.18-22.45 16.93-65.91 16.93-111.72 0-41.13-4-65.87-10.68-98.87-.07-.35-.1-.53-.1-.53l-6 11.58c33.51 165.67-35.49 310.17-135.65 369.17l-.1 19.14.05-9.68c46.71-26.14 77.48-64.96 92.06-87.21z"/><path d="m222.69 405.29c-18.81-11-59.32-37.79-93.4-89.29-18.79-28.67-30.51-55.27-40.44-87.13-10.9-35-16.05-90.7-16.05-128.11 0-32.22 5.28-65.08 10.28-84.69l.06-.14-5.86-11.24-4.28 18.76c-4 17.22-5.61 33.55-7.17 49.37l-.68 6.88v.25c-.36 5-.54 11.06-.54 17.77 0 35.7 5 90.85 12.72 120.16 21.36 83.38 70.56 151.88 138.55 192.88l8.39 5.06.05-9.67z"/></g><g fill="#fbba00"><path d="m303.3 36.9c-32.84 6.52-65 6.46-79 6.46a379.67 379.67 0 0 1 -77.21-7.12c-33.08-6.66-64-20.3-64-20.3l5.91 11.2c46 18.55 87.67 24.4 135.36 24.4s90.23-4 135.64-24l6-11.58s-29.12 14.2-62.7 20.94z"/><path d="m366.09 16.46c6.68 33 10.68 57.74 10.68 98.87 0 45.81-9.75 89.28-16.93 111.72-13.82 43.21-27.92 68.11-43.49 91.88-14.58 22.25-45.35 61.07-92.06 87.21l-.05 9.68 8.44-5c54-31.79 98.32-86 124.88-152.66 28.58-71.73 35-152.62 18.54-233.93l-4-20-6.1 11.71s0 .17.09.52z"/><path d="m89 27.14-5.86-11.21-.06.14c-5 19.61-10.28 52.47-10.28 84.69 0 37.41 5.16 93.15 16.05 128.11 9.93 31.85 21.65 58.46 40.44 87.13 34.08 51.5 74.59 78.26 93.4 89.29l1.6.86v-9.47c-61.34-37-109.8-99.62-131.13-182.94-8.54-32.41-13.87-101.74-11.64-132.6 1.81-17.79 3.2-35.48 7.48-54z"/></g><path d="m224.34 51.54c-47.68 0-89.34-5.86-135.34-24.4-4.26 18.52-5.66 36.21-7.46 54-2.24 30.86 3.1 100.19 11.69 132.6 21.31 83.32 69.77 145.94 131.11 182.94z" fill="#e40428"/><path d="m224.34 396.68c100.16-59 169.16-203.5 135.66-369.16-45.41 20-88 24-135.64 24z" fill="#143a84"/><path d="m224.31 92.93h63.69v-26.4h-63.69zm0 268.54q7.71 5.15 15.83 9.94l8.55 5v-31l-2.87-1.63c-1.72-1-3.44-2-5.16-3l4.75-2.25c65.57-31.05 82.52-65 85.2-88.09a61 61 0 0 0 .41-7 61.78 61.78 0 0 0 -19.22-44.49c14.4-15.68 19.72-31.79 19.72-45.37a46.8 46.8 0 0 0 -3.25-17.49c-6.29-15.57-20.74-25.24-37.72-25.24h-53.22v35.95h-13v26.37h13v165.56c-4.37-2.76-8.72-5.72-13-8.87zm64.29-224.37c8.21 0 14 4.65 15.62 12.43a22.24 22.24 0 0 1 .43 4.4c0 14.08-12.28 33-40.8 47.1 0-9.21 0-21.43 0-27.9h22v-26.4h-22c0-3.81 0-5.86 0-9.66zm2 80.14c8.81 8.15 13.3 17.15 13.3 26.85q0 1.61-.16 3.24c-1.69 16.94-16.73 35.46-39.89 49.7 0-14.21 0-59.43-.05-64.95 6.8-3.5 18.08-9.59 26.81-14.83z" fill="#0e2356"/><path d="m224.31 66.53h-38.65v80.27c-12.36.24-32 2.1-46.3 16.37-11 11-16.59 27.33-16.59 48.52 0 28 11.52 58 33.31 86.82 17.49 23.15 40.87 44.68 68.25 63v-31.69c-40.07-29.41-75.23-74.89-75.23-117.89 0-13.33 3.26-23.31 9.68-29.67 7.89-7.81 19.26-9 26.9-9.16v117.09h26.4s0-106.79 0-117.06h12.15l.13-26.37h-12.3v-53.83h12.21z" fill="#af0d1c"/><path d="m198.87 79.77h75.91l8.22-8.27h-92.4v213.74l8.23-8.25s.04-195.85.04-197.22z" fill="#ffe500"/><g><path d="m243.76 348.32-.36-.2a233.31 233.31 0 0 1 -69.49-60.45c-19.48-25.69-29.78-51.88-29.78-75.73 0-14.7 3.75-25.87 11.15-33.19 10.94-10.84 26.89-10.68 34.56-10.61h.79l8.26-8.18h-10c-13.55 0-27.95 1.89-39.31 12.28-8.28 7.56-13.82 21.56-13.64 39.56.25 25.36 11.06 53.31 30.47 79 18.09 24 44 46.75 68.34 61.7l1.23.75z" fill="#fbba00"/><path d="m243.75 348.32-7.79 4.96 7.79 14.49z" fill="#fbba00"/><g fill="#ffe500"><path d="m190.62 151.72c-10.71 0-32.83 0-47.75 15-10 10-15.14 25.18-15.14 45 0 26.87 11.17 55.85 32.31 83.82 20.39 27 49 51.75 82.65 71.63l1.07.63-7.76-14.52-1.23-.75c-24.35-14.95-50.25-37.71-68.34-61.7-19.41-25.74-30.22-53.69-30.47-79-.18-18 5.36-32 13.64-39.56 11.37-10.39 25.77-12.28 39.31-12.28h1.72 8.29z"/><path d="m198.88 159.96 73.71-.02 8.25-8.21-90.22-.01"/></g></g><g fill="#fbba00"><path d="m198.87 159.94v117l-8.23 8.25h16.47s0-115.66 0-117.06h73.77v-16.4l-8.25 8.22z"/><path d="m207.11 151.73v-63.73h75.89v-16.51l-8.24 8.23h-75.89v80.21z"/></g><g fill="#fbba00"><path d="m289.66 124h1.26c13.36 0 27.17 11.2 27.17 29s-12 35.49-26.29 47c-11.78 9.48-31.4 18.73-41.2 20.49l8.26 8.56c6.65-3.34 22.25-11.67 32.3-17.94l13.49-11.94c16.1-15.79 21.93-32.15 21.93-45.62a41.8 41.8 0 0 0 -2.9-15.63 35 35 0 0 0 -33.12-22.14h-48.27l8.34 8.22z"/><path d="m250.62 159.94-.01 160.1 8.3-14.43-.02-145.67z"/><path d="m258.89 151.72v-19.58l-8.26-8.14-.01 35.94z"/><path d="m317.39 243.1c0 14.39-5.45 29.84-23.09 47.36s-43.69 29.54-43.69 29.54l-8.32 14.47 1-.48c63.51-30.08 79.86-62.38 82.39-84.18a55.93 55.93 0 0 0 .37-6.45 57.18 57.18 0 0 0 -21.42-44.25l-13.08.81s25.84 16.62 25.84 43.18z"/></g><g><path d="m304.64 199.16c16.1-15.79 21.93-32.15 21.93-45.62a41.8 41.8 0 0 0 -2.9-15.63 35 35 0 0 0 -33.12-22.14h-48.26l8.34 8.22h39 1.26c13.36 0 27.17 11.2 27.17 29s-12 35.47-26.27 47" fill="url(#a)"/><path d="m291.57 200.17c-11.8 9.42-31.24 18.57-41 20.32l8.26 8.56c6.65-3.34 22.25-11.67 32.3-17.94z" fill="#fbba00"/><path d="m317.39 243.1c0 14.39-5.45 29.84-23.09 47.36s-43.69 29.54-43.69 29.54l-8.32 14.47 1-.48c63.51-30.08 79.86-62.38 82.39-84.18a55.93 55.93 0 0 0 .37-6.45 57.18 57.18 0 0 0 -21.42-44.25l-13.08.81s25.84 16.62 25.84 43.18z" fill="#fbba00"/><path d="m294.3 290.46c17.64-17.52 23.09-33 23.09-47.36 0-26.56-25.83-43.12-25.83-43.12l-.41 11.13c11.76 9.73 17.73 20.78 17.73 32.92q0 1.89-.19 3.8c-2 20.29-21.07 42.34-49.78 57.78l-8.3 14.39s26.05-12 43.69-29.54z" fill="#ffe500"/><path d="m318.08 153c0-17.79-13.81-29-27.17-29s-1.26 0-1.26 0h-39l8.26 8.15h29.69c10.59 0 18.44 6.29 20.48 16.41a27.82 27.82 0 0 1 .54 5.51c0 17.27-15.05 39.43-50.74 54.74l-8.3 11.69c9.8-1.76 29.42-11 41.2-20.49 14.3-11.51 26.3-29.21 26.3-47.01z" fill="url(#b)"/></g><g fill="#ffe500"><path d="m242.29 168.18v166.34l8.32-14.52v-160.06z"/><path d="m250.62 159.94v-35.94l-8.34-8.22v44.16z"/></g><g><path d="m130.51 157.16v-.06c-1.37-13.93-10.26-30.71-19.64-40.1l-8.48-8.68c-5.49-5.43-14.09-10-21.36-13-.26 34.47 4.74 90.29 12.19 118.38.32 1.24.66 2.45 1 3.68a59 59 0 0 0 36.59-54.52c0-1.83-.1-3.64-.26-5.43a1.52 1.52 0 0 0 -.04-.27z" fill="#af0d1c"/><path d="m72.84 106.56a57.86 57.86 0 0 0 -8.15.6c.75 35.4 5.51 83.89 12.61 110.73.28 1.11.59 2.2.88 3.3a57.13 57.13 0 0 0 8.1-1.33c-8.63-33.07-12.99-79.33-13.44-113.3z" fill="#fbba00"/><path d="m86.29 219.85a57 57 0 0 0 7.9-2.5c-.32-1.2-.66-2.4-1-3.61-6.65-25.08-11.34-72.24-12.09-106.6a57.91 57.91 0 0 0 -8.18-.59h-.11c.48 33.98 4.84 80.24 13.48 113.3z" fill="#f39200"/></g><circle cx="58.939999" cy="149.98" fill="#ffe500" r="57.439999"/><g fill="none"><g stroke-width=".5"><path d="m84.08 98.33c5.83 9 6.39 14.25 6.39 25.76a57.44 57.44 0 0 1 -57.47 57.43c-11.51 0-18.4-4.22-27.38-10.05" stroke="#ffe500"/><path d="m5.69 171.54c9 5.87 15.89 10.12 27.42 10.14a57.31 57.31 0 0 0 57.52-57.55c0-11.51-.64-16.8-6.5-25.78" stroke="#ffe500"/><path d="m5.72 171.6c9 5.91 15.91 10.18 27.45 10.24a57.25 57.25 0 0 0 57.6-57.66c-.06-11.52-.72-16.84-6.61-25.8" stroke="#ffe400"/><path d="m5.76 171.67c9 5.94 15.94 10.25 27.49 10.33a57.19 57.19 0 0 0 57.68-57.78c-.08-11.52-.8-16.87-6.72-25.82" stroke="#ffe400"/><path d="m5.79 171.73c8.95 6 16 10.32 27.52 10.42a57.14 57.14 0 0 0 57.76-57.89c-.11-11.52-.87-16.91-6.83-25.84" stroke="#ffe300"/><path d="m5.82 171.79c8.94 6 16 10.39 27.55 10.51a57.09 57.09 0 0 0 56.31-43.88 57.52 57.52 0 0 0 1.54-14.13c-.14-11.53-1-16.94-6.94-25.86" stroke="#ffe300"/><path d="m5.86 171.86c8.93 6.06 16 10.45 27.59 10.61a57 57 0 0 0 56.42-44 57.48 57.48 0 0 0 1.51-14.16c-.17-11.53-1-17-7-25.88" stroke="#ffe200"/><path d="m5.89 171.92c8.92 6.09 16 10.52 27.62 10.7a57 57 0 0 0 56.54-44 57.46 57.46 0 0 0 1.47-14.2c-.2-11.53-1.11-17-7.16-25.9" stroke="#ffe200"/><path d="m5.92 172c8.91 6.13 16 10.59 27.66 10.79a56.94 56.94 0 0 0 56.65-44.11 57.45 57.45 0 0 0 1.44-14.23c-.23-11.54-1.19-17.05-7.27-25.92" stroke="#ffe100"/><path d="m6 172.05c8.9 6.17 16.06 10.66 27.69 10.89a56.89 56.89 0 0 0 56.77-44.19 57.9 57.9 0 0 0 1.41-14.27c-.28-11.54-1.27-17.09-7.38-25.94" stroke="#ffe100"/><path d="m6 172.12c8.89 6.21 16.08 10.72 27.73 11a56.84 56.84 0 0 0 56.87-44.29 58 58 0 0 0 1.4-14.31c-.31-11.54-1.35-17.12-7.48-26" stroke="#ffe000"/><path d="m6 172.18c8.88 6.25 16.1 10.79 27.76 11.07a57.51 57.51 0 0 0 11.63-.87 56.93 56.93 0 0 0 45.37-43.47 58 58 0 0 0 1.34-14.34c-.34-11.54-1.42-17.16-7.59-26" stroke="#ffe000"/><path d="m6.06 172.24c8.87 6.28 16.12 10.86 27.79 11.16a57.5 57.5 0 0 0 11.66-.85 56.88 56.88 0 0 0 45.49-43.55 58 58 0 0 0 1.31-14.37c-.37-11.55-1.5-17.19-7.7-26" stroke="#ffdf00"/><path d="m6.09 172.31c8.86 6.32 16.14 10.93 27.83 11.26a57.43 57.43 0 0 0 11.69-.83 56.84 56.84 0 0 0 45.54-43.67 58 58 0 0 0 1.27-14.41c-.4-11.55-1.58-17.23-7.81-26" stroke="#ffdf00"/><path d="m6.13 172.37c8.85 6.36 16.16 11 27.86 11.35a57.45 57.45 0 0 0 11.71-.81 56.8 56.8 0 0 0 45.63-43.77 58 58 0 0 0 1.24-14.44c-.43-11.55-1.66-17.26-7.92-26.05" stroke="#ffde00"/><path d="m6.16 172.44c8.84 6.4 16.18 11.06 27.9 11.44a57.43 57.43 0 0 0 11.74-.79 56.75 56.75 0 0 0 45.71-43.87 58.09 58.09 0 0 0 1.21-14.48c-.46-11.56-1.74-17.3-8-26.07" stroke="#ffde00"/><path d="m6.19 172.5c8.81 6.44 16.21 11.13 27.93 11.5a57.38 57.38 0 0 0 11.77-.77 56.71 56.71 0 0 0 45.8-44 58.11 58.11 0 0 0 1.17-14.52c-.49-11.56-1.82-17.34-8.14-26.09" stroke="#fd0"/><path d="m6.23 172.57c8.82 6.47 16.22 11.2 28 11.63a57.42 57.42 0 0 0 11.8-.74 56.67 56.67 0 0 0 45.89-44.07 58.14 58.14 0 0 0 1.08-14.56c-.52-11.56-1.9-17.37-8.25-26.11" stroke="#fd0"/><path d="m6.26 172.63c8.81 6.51 16.24 11.26 28 11.72a57.34 57.34 0 0 0 11.83-.72 56.63 56.63 0 0 0 46-44.17 58.13 58.13 0 0 0 1.11-14.59c-.55-11.56-2-17.41-8.36-26.13" stroke="#ffdc00"/><path d="m6.29 172.69c8.8 6.55 16.27 11.33 28 11.81a57.32 57.32 0 0 0 11.86-.7 56.6 56.6 0 0 0 46.06-44.27 58.16 58.16 0 0 0 1.07-14.62c-.58-11.57-2.05-17.44-8.47-26.16" stroke="#ffdc00"/><g stroke="#ffdb00"><path d="m6.33 172.76c8.79 6.59 16.29 11.4 28.07 11.91a57.35 57.35 0 0 0 11.88-.67 56.56 56.56 0 0 0 46.14-44.37 58.18 58.18 0 0 0 1-14.66c-.61-11.57-2.13-17.48-8.58-26.18"/><path d="m6.36 172.82c8.78 6.62 16.31 11.47 28.1 12a57.34 57.34 0 0 0 11.92-.66 56.53 56.53 0 0 0 46.23-44.46 58.19 58.19 0 0 0 1-14.69c-.64-11.57-2.21-17.51-8.69-26.2"/><path d="m6.39 172.89c8.77 6.66 16.33 11.53 28.13 12.09a57.3 57.3 0 0 0 11.94-.64 56.49 56.49 0 0 0 46.32-44.57 58.21 58.21 0 0 0 1-14.73c-.67-11.58-2.29-17.55-8.8-26.22"/></g><path d="m6.43 173c8.76 6.7 16.35 11.6 28.17 12.18a57.28 57.28 0 0 0 12-.61 56.46 56.46 0 0 0 46.4-44.71 58.21 58.21 0 0 0 .94-14.76c-.7-11.58-2.37-17.58-8.91-26.24" stroke="#ffda00"/><path d="m6.46 173c8.75 6.74 16.37 11.67 28.2 12.28a57.27 57.27 0 0 0 12-.59 56.43 56.43 0 0 0 46.49-44.77 58.23 58.23 0 0 0 .91-14.8c-.73-11.58-2.44-17.62-9-26.26" stroke="#ffda00"/><path d="m6.5 173.08c8.74 6.77 16.39 11.71 28.24 12.37a57.77 57.77 0 0 0 12-.57 56.4 56.4 0 0 0 46.6-44.88 58.23 58.23 0 0 0 .87-14.83c-.76-11.58-2.52-17.65-9.13-26.28" stroke="#ffd900"/><path d="m6.53 173.15c8.73 6.81 16.41 11.78 28.27 12.46a57.79 57.79 0 0 0 12.06-.55 56.37 56.37 0 0 0 46.66-45 58.28 58.28 0 0 0 .84-14.87c-.79-11.59-2.6-17.69-9.24-26.3" stroke="#ffd900"/><path d="m6.56 173.21c8.72 6.85 16.43 11.85 28.31 12.56a57.8 57.8 0 0 0 12.13-.53 56.34 56.34 0 0 0 46.7-45.07 58.3 58.3 0 0 0 .81-14.9c-.82-11.59-2.68-17.73-9.35-26.32" stroke="#ffd800"/><path d="m6.6 173.27c8.71 6.89 16.45 11.91 28.34 12.65a57.79 57.79 0 0 0 12.12-.51 56.31 56.31 0 0 0 46.83-45.17 58.3 58.3 0 0 0 .77-14.94c-.85-11.59-2.76-17.76-9.45-26.34" stroke="#ffd800"/><path d="m6.63 173.34c8.7 6.93 16.47 12 28.37 12.74a57.76 57.76 0 0 0 12.15-.48 56.28 56.28 0 0 0 46.92-45.27 58.29 58.29 0 0 0 .74-15c-.88-11.6-2.84-17.8-9.56-26.37" stroke="#ffd700"/><path d="m6.66 173.4c8.69 7 16.49 12 28.41 12.83a57.77 57.77 0 0 0 12.18-.46 56.26 56.26 0 0 0 47-45.37 58.3 58.3 0 0 0 .71-15c-.96-11.6-2.96-17.83-9.67-26.4" stroke="#ffd700"/><path d="m6.7 173.47c8.68 7 16.52 12.11 28.44 12.93a57.76 57.76 0 0 0 12.2-.44 56.23 56.23 0 0 0 47.09-45.47 58.31 58.31 0 0 0 .67-15c-.94-11.6-3-17.87-9.78-26.41" stroke="#ffd600"/><path d="m6.73 173.53c8.67 7 16.54 12.18 28.48 13a57.75 57.75 0 0 0 12.23-.42 56.21 56.21 0 0 0 47.18-45.56 58.32 58.32 0 0 0 .64-15.08c-1-11.6-3.07-17.9-9.89-26.43" stroke="#ffd600"/><path d="m6.76 173.6c8.66 7.08 16.56 12.25 28.51 13.11a57.77 57.77 0 0 0 12.26-.4 56.19 56.19 0 0 0 47.27-45.66 58.32 58.32 0 0 0 .61-15.11c-1-11.61-3.15-17.94-10-26.45" stroke="#ffd500"/><path d="m6.8 173.66c8.65 7.12 16.58 12.31 28.54 13.21a57.76 57.76 0 0 0 12.29-.38 56.16 56.16 0 0 0 47.37-45.76 58.32 58.32 0 0 0 .58-15.15c-1-11.61-3.23-18-10.11-26.47" stroke="#ffd500"/><path d="m6.83 173.73c8.64 7.15 16.6 12.38 28.58 13.3a57.72 57.72 0 0 0 12.32-.35 56.14 56.14 0 0 0 47.44-45.86 58.31 58.31 0 0 0 .54-15.18c-1.06-11.61-3.31-18-10.22-26.49" stroke="#ffd400"/><path d="m6.86 173.79c8.63 7.19 16.62 12.45 28.61 13.39a57.78 57.78 0 0 0 12.35-.33 56.12 56.12 0 0 0 47.52-46 58.34 58.34 0 0 0 .51-15.22c-1.09-11.62-3.39-18-10.33-26.51" stroke="#ffd400"/><path d="m6.9 173.85c8.62 7.23 16.64 12.51 28.65 13.48a57.72 57.72 0 0 0 12.37-.33 56.1 56.1 0 0 0 47.61-46 58.38 58.38 0 0 0 .47-15.29c-1.12-11.62-3.46-18.08-10.44-26.53" stroke="#ffd300"/><path d="m6.93 173.92c8.61 7.27 16.66 12.58 28.68 13.58a57.71 57.71 0 0 0 12.39-.29 56.08 56.08 0 0 0 47.72-46.21 58.36 58.36 0 0 0 .44-15.29c-1.16-11.58-3.55-18.07-10.55-26.51" stroke="#ffd300"/><path d="m7 174c8.6 7.3 16.68 12.65 28.72 13.67a57.74 57.74 0 0 0 12.44-.27 56.07 56.07 0 0 0 47.74-46.28 58.35 58.35 0 0 0 .41-15.33c-1.18-11.62-3.62-18.15-10.66-26.58" stroke="#ffd200"/><path d="m7 174c8.59 7.34 16.7 12.71 28.75 13.76a57.73 57.73 0 0 0 12.46-.24 56 56 0 0 0 47.87-46.32 58.35 58.35 0 0 0 .37-15.36c-1.21-11.63-3.7-18.19-10.77-26.6" stroke="#ffd200"/><path d="m7 174.11c8.58 7.38 16.72 12.78 28.78 13.85a57.72 57.72 0 0 0 12.49-.22 56 56 0 0 0 48-46.46 58.35 58.35 0 0 0 .34-15.4c-1.24-11.63-3.78-18.22-10.88-26.62" stroke="#ffd100"/><path d="m7.07 174.18c8.57 7.42 16.74 12.85 28.82 13.95a57.71 57.71 0 0 0 12.52-.2 56 56 0 0 0 48-46.56 58.37 58.37 0 0 0 .31-15.43c-1.27-11.63-3.86-18.26-11-26.64" stroke="#ffd000"/><path d="m7.1 174.24c8.56 7.46 16.76 12.92 28.85 14a57.71 57.71 0 0 0 12.55-.18 56 56 0 0 0 48.13-46.66 58.37 58.37 0 0 0 .27-15.4c-1.3-11.64-3.94-18.29-11.1-26.66" stroke="#ffd000"/><path d="m7.13 174.3c8.55 7.49 16.79 13 28.89 14.13a57.69 57.69 0 0 0 12.58-.16 56 56 0 0 0 48.21-46.76 58.36 58.36 0 0 0 .24-15.5c-1.33-11.64-4-18.33-11.21-26.68" stroke="#ffcf00"/><path d="m7.17 174.37c8.54 7.53 16.81 13 28.92 14.23a57.68 57.68 0 0 0 12.61-.14 56 56 0 0 0 48.3-46.86 58.36 58.36 0 0 0 .21-15.54c-1.36-11.64-4.09-18.36-11.31-26.7" stroke="#ffcf00"/><path d="m7.2 174.43c8.53 7.57 16.83 13.12 29 14.32a57.71 57.71 0 0 0 12.64-.11 56 56 0 0 0 48.39-47 58.37 58.37 0 0 0 .18-15.57c-1.41-11.61-4.23-18.37-11.48-26.69" stroke="#ffce00"/><path d="m7.23 174.5c8.52 7.61 16.85 13.18 29 14.41a57.67 57.67 0 0 0 12.67-.09 56 56 0 0 0 48.47-47.06 58.35 58.35 0 0 0 .14-15.61c-1.42-11.65-4.26-18.44-11.51-26.75" stroke="#ffce00"/><path d="m7.27 174.56c8.51 7.64 16.87 13.25 29 14.5a57.69 57.69 0 0 0 12.73-.06 55.94 55.94 0 0 0 48.56-47.16 58.35 58.35 0 0 0 .11-15.64c-1.46-11.66-4.35-18.48-11.67-26.77" stroke="#ffcd00"/><path d="m7.3 174.63c8.5 7.68 16.89 13.32 29.06 14.6a57.62 57.62 0 0 0 12.72 0 55.93 55.93 0 0 0 48.64-47.26 58.35 58.35 0 0 0 .08-15.68c-1.47-11.65-4.41-18.51-11.75-26.79" stroke="#ffcd00"/><path d="m7.33 174.69c8.49 7.72 16.91 13.38 29.09 14.69a57.65 57.65 0 0 0 12.75 0 55.92 55.92 0 0 0 48.74-47.38 58.33 58.33 0 0 0 0-15.71c-1.5-11.65-4.48-18.54-11.86-26.81" stroke="#fc0"/><path d="m7.37 174.75c8.48 7.76 16.93 13.45 29.12 14.78a57.68 57.68 0 0 0 12.78 0 55.91 55.91 0 0 0 48.82-47.46 58.33 58.33 0 0 0 0-15.75c-1.53-11.66-4.56-18.58-12-26.83" stroke="#fc0"/><path d="m7.4 174.82c8.47 7.8 17 13.52 29.16 14.88a57.63 57.63 0 0 0 12.81 0 55.9 55.9 0 0 0 48.9-47.56 58.32 58.32 0 0 0 0-15.78c-1.56-11.66-4.64-18.61-12.08-26.85" stroke="#ffcb00"/><path d="m7.44 174.88c8.46 7.83 17 13.59 29.19 15a57.62 57.62 0 0 0 12.84 0 55.89 55.89 0 0 0 49-47.66 58.32 58.32 0 0 0 -.06-15.82c-1.59-11.66-4.72-18.65-12.19-26.87" stroke="#ffcb00"/><path d="m7.47 174.95c8.45 7.87 17 13.65 29.23 15.06a57.62 57.62 0 0 0 12.87.06 55.89 55.89 0 0 0 49.08-47.76 58.3 58.3 0 0 0 -.09-15.85c-1.62-11.67-4.8-18.68-12.3-26.89" stroke="#ffca00"/><path d="m7.5 175c8.44 7.91 17 13.72 29.26 15.15a57.61 57.61 0 0 0 12.9.08 55.88 55.88 0 0 0 49.16-47.86 58.28 58.28 0 0 0 -.12-15.89c-1.65-11.67-4.88-18.72-12.41-26.91" stroke="#ffca00"/><path d="m7.54 175.08c8.43 7.95 17 13.79 29.3 15.25a57.61 57.61 0 0 0 12.93.1 55.88 55.88 0 0 0 49.25-48 58.3 58.3 0 0 0 -.16-15.92c-1.67-11.67-5-18.75-12.52-26.93" stroke="#fec900"/><path d="m7.57 175.14c8.42 8 17.05 13.86 29.33 15.34a57.6 57.6 0 0 0 13 .12 55.87 55.87 0 0 0 49.33-48.06 58.28 58.28 0 0 0 -.19-16c-1.7-11.67-5-18.79-12.63-27" stroke="#fec800"/><path d="m7.6 175.21c8.41 8 17.08 13.92 29.36 15.43a57.6 57.6 0 0 0 13 .15 55.87 55.87 0 0 0 49.42-48.16 58.28 58.28 0 0 0 -.22-16c-1.74-11.63-5.16-18.82-12.75-26.98" stroke="#fec800"/><path d="m7.64 175.27c8.4 8.06 17.1 14 29.4 15.53a57.56 57.56 0 0 0 12.96.2 55.86 55.86 0 0 0 49.55-48.3 58.29 58.29 0 0 0 -.26-16c-1.76-11.68-5.19-18.86-12.85-27" stroke="#fec700"/><path d="m7.67 175.33c8.39 8.1 17.12 14.06 29.43 15.62a57.59 57.59 0 0 0 13 .19 55.86 55.86 0 0 0 49.59-48.36 58.27 58.27 0 0 0 -.29-16.07c-1.79-11.68-5.27-18.9-13-27" stroke="#fec700"/><path d="m7.7 175.4c8.38 8.14 17.14 14.12 29.47 15.71a57.56 57.56 0 0 0 13.07.21 55.86 55.86 0 0 0 49.68-48.46 58.26 58.26 0 0 0 -.32-16.1c-1.82-11.68-5.35-18.93-13.06-27" stroke="#fec600"/><path d="m7.74 175.46c8.37 8.17 17.16 14.19 29.5 15.8a57.55 57.55 0 0 0 13.1.23 55.86 55.86 0 0 0 49.77-48.56 58.24 58.24 0 0 0 -.36-16.14c-1.85-11.69-5.43-19-13.17-27.06" stroke="#fec600"/><path d="m7.77 175.53c8.36 8.21 17.18 14.26 29.53 15.9a57.57 57.57 0 0 0 13.13.25 55.85 55.85 0 0 0 49.86-48.68 58.23 58.23 0 0 0 -.39-16.17c-1.87-11.69-5.5-19-13.28-27.08" stroke="#fec500"/><path d="m7.81 175.59c8.35 8.25 17.2 14.33 29.57 16a57.54 57.54 0 0 0 13.16.28 55.86 55.86 0 0 0 49.94-48.76 58.23 58.23 0 0 0 -.42-16.21c-1.9-11.69-5.58-19-13.39-27.1" stroke="#fdc500"/><path d="m7.84 175.66c8.34 8.29 17.22 14.39 29.6 16.08a57.54 57.54 0 0 0 13.19.3 55.85 55.85 0 0 0 50-48.86 58.22 58.22 0 0 0 -.46-16.24c-1.93-11.7-5.66-19.07-13.5-27.12" stroke="#fdc400"/><path d="m7.87 175.72c8.33 8.28 17.24 14.46 29.64 16.18a57.54 57.54 0 0 0 13.21.32 55.86 55.86 0 0 0 50.11-49 58.22 58.22 0 0 0 -.49-16.28c-2-11.7-5.74-19.11-13.61-27.14" stroke="#fdc400"/><path d="m7.91 175.78c8.32 8.36 17.26 14.53 29.67 16.27a57.53 57.53 0 0 0 13.24.34 55.86 55.86 0 0 0 50.18-49.05 58.21 58.21 0 0 0 -.52-16.31c-2-11.7-5.82-19.14-13.72-27.16" stroke="#fdc300"/><path d="m7.94 175.85c8.31 8.4 17.28 14.59 29.71 16.36a57.53 57.53 0 0 0 13.27.36 55.86 55.86 0 0 0 50.28-49.16 58.19 58.19 0 0 0 -.56-16.35c-2-11.71-5.9-19.18-13.83-27.19" stroke="#fdc300"/><path d="m8 175.91c8.3 8.44 17.3 14.66 29.74 16.45a57.5 57.5 0 0 0 13.3.38 55.86 55.86 0 0 0 50.37-49.26 58.18 58.18 0 0 0 -.59-16.38c-2-11.71-6-19.21-13.94-27.21" stroke="#fdc200"/><path d="m8 176c8.29 8.48 17.32 14.73 29.77 16.55a57.53 57.53 0 0 0 13.33.41 55.86 55.86 0 0 0 50.45-49.36 58.17 58.17 0 0 0 -.62-16.42c-2.07-11.71-6.05-19.25-14-27.23" stroke="#fdc100"/><path d="m8 176c8.28 8.51 17.35 14.8 29.81 16.64a57.49 57.49 0 0 0 13.36.43 55.87 55.87 0 0 0 50.54-49.46 58.15 58.15 0 0 0 -.66-16.45c-2.05-11.67-6.05-19.25-14.12-27.16" stroke="#fdc100"/><path d="m8.07 176.11c8.27 8.55 17.37 14.86 29.84 16.73a57.47 57.47 0 0 0 13.39.45 55.87 55.87 0 0 0 50.63-49.56 58.13 58.13 0 0 0 -.69-16.49c-2.13-11.71-6.24-19.32-14.24-27.24" stroke="#fdc000"/><path d="m8.11 176.17c8.26 8.59 17.39 14.93 29.89 16.83a57.48 57.48 0 0 0 13.42.47 55.88 55.88 0 0 0 50.71-49.66 58.11 58.11 0 0 0 -.72-16.52c-2.18-11.72-6.31-19.36-14.41-27.29" stroke="#fcc000"/><path d="m8.14 176.24c8.25 8.63 17.41 15 29.91 16.92a57.47 57.47 0 0 0 13.45.49 55.88 55.88 0 0 0 50.8-49.75 58.12 58.12 0 0 0 -.76-16.56c-2.19-11.72-6.37-19.39-14.49-27.31" stroke="#fcbf00"/><path d="m8.17 176.3c8.24 8.67 17.43 15.07 29.94 17a57.46 57.46 0 0 0 13.47.51 55.88 55.88 0 0 0 50.9-49.81 58.09 58.09 0 0 0 -.79-16.6c-2.21-11.73-6.45-19.43-14.6-27.33" stroke="#fcbf00"/><path d="m8.21 176.36c8.23 8.7 17.45 15.13 30 17.1a57.47 57.47 0 0 0 13.5.54 55.89 55.89 0 0 0 51-50 58.1 58.1 0 0 0 -.82-16.63c-2.29-11.68-6.58-19.37-14.76-27.31" stroke="#fcbe00"/><path d="m8.24 176.43c8.22 8.74 17.47 15.2 30 17.2a57.44 57.44 0 0 0 13.53.56 55.9 55.9 0 0 0 51.06-50.05 58.06 58.06 0 0 0 -.86-16.67c-2.27-11.73-6.6-19.5-14.82-27.38" stroke="#fcbe00"/><path d="m8.28 176.49c8.21 8.78 17.49 15.27 30 17.29a57.44 57.44 0 0 0 13.56.58 55.9 55.9 0 0 0 51.16-50.15 58.06 58.06 0 0 0 -.89-16.7c-2.3-11.73-6.68-19.53-14.92-27.4" stroke="#fcbd00"/><path d="m8.31 176.56c8.2 8.82 17.51 15.34 30.08 17.38a57.44 57.44 0 0 0 13.59.6 55.91 55.91 0 0 0 51.23-50.25 58.05 58.05 0 0 0 -.92-16.74c-2.33-11.74-6.76-19.57-15-27.42" stroke="#fcbd00"/><path d="m8.34 176.62c8.19 8.85 17.53 15.4 30.12 17.47a57.41 57.41 0 0 0 13.62.62 55.92 55.92 0 0 0 51.32-50.35 58 58 0 0 0 -1-16.77c-2.35-11.74-6.84-19.6-15.14-27.44" stroke="#fcbc00"/><path d="m8.38 176.69c8.18 8.89 17.55 15.47 30.15 17.57a57.45 57.45 0 0 0 13.65.65 55.93 55.93 0 0 0 51.4-50.45 58 58 0 0 0 -1-16.81c-2.38-11.75-6.91-19.65-15.25-27.47" stroke="#fcbb00"/><path d="m8.41 176.75c8.17 8.93 17.57 15.54 30.18 17.66a57.4 57.4 0 0 0 13.68.67 55.94 55.94 0 0 0 51.49-50.55 58 58 0 0 0 -1-16.84c-2.41-11.75-7-19.68-15.36-27.48" stroke="#fbbb00"/><path d="m8.44 176.81c8.16 9 17.59 15.61 30.22 17.75a57.4 57.4 0 0 0 13.71.69 56 56 0 0 0 51.58-50.65 58 58 0 0 0 -1.06-16.88c-2.44-11.72-7.08-19.72-15.47-27.5" stroke="#fbba00"/><path d="m8.48 176.88c8.15 9 17.61 15.67 30.25 17.85a57.43 57.43 0 0 0 13.73.71 56 56 0 0 0 51.66-50.75 58 58 0 0 0 -1.12-16.92c-2.43-11.77-7.12-19.77-15.54-27.52" stroke="#fbba00"/><path d="m8.51 176.94c8.14 9 17.64 15.74 30.29 17.94a57.41 57.41 0 0 0 13.76.73 56 56 0 0 0 51.75-50.85 58 58 0 0 0 -1.12-16.95c-2.5-11.75-7.19-19.81-15.69-27.54" stroke="#fbb900"/><path d="m8.54 177c8.13 9.08 17.66 15.81 30.32 18a57.41 57.41 0 0 0 13.79.75 56 56 0 0 0 51.83-51 58 58 0 0 0 -1.16-17c-2.51-11.65-7.32-19.75-15.78-27.46" stroke="#fbb900"/><path d="m8.58 177.07c8.12 9.12 17.68 15.88 30.35 18.12a57.39 57.39 0 0 0 13.82.78 56 56 0 0 0 51.92-51.05 57.94 57.94 0 0 0 -1.19-17c-2.55-11.76-7.39-19.85-15.91-27.59" stroke="#fbb800"/><path d="m8.61 177.14c8.11 9.16 17.7 15.94 30.39 18.22a57.39 57.39 0 0 0 13.85.8 56 56 0 0 0 52-51.15 57.94 57.94 0 0 0 -1.22-17.05c-2.58-11.76-7.47-19.89-16-27.61" stroke="#fbb700"/><path d="m8.65 177.2c8.1 9.2 17.72 16 30.42 18.31a57.4 57.4 0 0 0 13.88.82 56 56 0 0 0 52.05-51.25 57.92 57.92 0 0 0 -1.22-17.08c-2.6-11.77-7.55-19.92-16.13-27.63" stroke="#fbb700"/><path d="m8.68 177.27c8.09 9.23 17.74 16.08 30.46 18.4a57.38 57.38 0 0 0 13.91.84 56 56 0 0 0 52.18-51.35 57.9 57.9 0 0 0 -1.3-17.16 48.79 48.79 0 0 0 -16.23-27.62" stroke="#fab600"/><path d="m8.71 177.33c8.08 9.27 17.76 16.15 30.49 18.5a57.36 57.36 0 0 0 13.94.86 56 56 0 0 0 52.27-51.45 57.89 57.89 0 0 0 -1.32-17.16 48.92 48.92 0 0 0 -16.35-27.67" stroke="#fab600"/><path d="m8.75 177.39c8.07 9.31 17.78 16.22 30.52 18.59a57.37 57.37 0 0 0 14 .88 56.05 56.05 0 0 0 52.35-51.55 57.88 57.88 0 0 0 -1.35-17.19 49.06 49.06 0 0 0 -16.46-27.69" stroke="#fab500"/><path d="m8.78 177.46c8.06 9.35 17.8 16.28 30.56 18.68a57.35 57.35 0 0 0 14 .91 56.06 56.06 0 0 0 52.44-51.65 57.86 57.86 0 0 0 -1.39-17.23 49.2 49.2 0 0 0 -16.57-27.71" stroke="#fab500"/><path d="m8.81 177.52c8.05 9.38 17.82 16.35 30.59 18.77a57.35 57.35 0 0 0 14 .93 56.08 56.08 0 0 0 52.6-51.75 57.87 57.87 0 0 0 -1.42-17.26 49.33 49.33 0 0 0 -16.67-27.73" stroke="#fab400"/><path d="m8.85 177.59c8 9.42 17.84 16.42 30.63 18.87a57.36 57.36 0 0 0 14.05.95 56.09 56.09 0 0 0 52.61-51.85 57.85 57.85 0 0 0 -1.46-17.3 49.47 49.47 0 0 0 -16.78-27.76" stroke="#fab300"/><path d="m8.88 177.65c8 9.46 17.86 16.49 30.66 19a57.34 57.34 0 0 0 14.08 1 56.11 56.11 0 0 0 52.7-52 57.83 57.83 0 0 0 -1.49-17.34 49.61 49.61 0 0 0 -16.89-27.78" stroke="#fab300"/><path d="m8.91 177.72c8 9.5 17.88 16.55 30.7 19.05a57.35 57.35 0 0 0 14.11 1 56.12 56.12 0 0 0 52.78-52 57.81 57.81 0 0 0 -1.5-17.43 49.74 49.74 0 0 0 -17-27.8" stroke="#fab200"/><path d="m8.95 177.78c8 9.54 17.9 16.62 30.73 19.14a57.33 57.33 0 0 0 14.14 1 56.14 56.14 0 0 0 52.87-52.15 57.8 57.8 0 0 0 -1.55-17.41 49.88 49.88 0 0 0 -17.14-27.79" stroke="#f9b200"/><path d="m9 177.84c8 9.57 17.92 16.69 30.76 19.24a57.34 57.34 0 0 0 14.17 1 56.16 56.16 0 0 0 53-52.25 57.78 57.78 0 0 0 -1.59-17.44 50 50 0 0 0 -17.22-27.84" stroke="#f9b100"/><path d="m9 177.91c8 9.61 17.95 16.76 30.8 19.33a57.31 57.31 0 0 0 14.2 1.06 56.17 56.17 0 0 0 53-52.35 57.79 57.79 0 0 0 -1.62-17.48 50.16 50.16 0 0 0 -17.28-27.86" stroke="#f9b100"/><path d="m9 178c8 9.65 18 16.83 30.83 19.42a57.34 57.34 0 0 0 14.23 1.08 56.19 56.19 0 0 0 53.17-52.5 57.75 57.75 0 0 0 -1.65-17.51 50.29 50.29 0 0 0 -17.44-27.88" stroke="#f9b000"/><path d="m9.08 178c8 9.69 18 16.89 30.87 19.52a57.29 57.29 0 0 0 14.25 1.1 56.21 56.21 0 0 0 53.21-52.55 57.74 57.74 0 0 0 -1.69-17.55 50.44 50.44 0 0 0 -17.55-27.9" stroke="#f9af00"/><path d="m9.12 178.1c8 9.72 18 17 30.9 19.61a57.33 57.33 0 0 0 14.28 1.12 56.22 56.22 0 0 0 53.3-52.65 57.74 57.74 0 0 0 -1.72-17.58 50.58 50.58 0 0 0 -17.66-27.92" stroke="#f9af00"/><path d="m9.15 178.17c8 9.76 18 17 30.93 19.7a57.32 57.32 0 0 0 14.32 1.13 56.24 56.24 0 0 0 53.39-52.75 57.71 57.71 0 0 0 -1.79-17.6 50.72 50.72 0 0 0 -17.74-27.95" stroke="#f9ae00"/><path d="m9.18 178.23c7.94 9.8 18 17.1 31 19.79a57.31 57.31 0 0 0 14.34 1.17 56.26 56.26 0 0 0 53.48-52.85 57.7 57.7 0 0 0 -1.79-17.65 50.86 50.86 0 0 0 -17.88-28" stroke="#f9ae00"/><path d="m9.22 178.3c7.93 9.84 18.07 17.16 31 19.89a57.31 57.31 0 0 0 14.37 1.19 56.28 56.28 0 0 0 53.56-52.95 57.7 57.7 0 0 0 -1.82-17.69 51 51 0 0 0 -18-28" stroke="#f9ad00"/><path d="m9.25 178.36c7.92 9.88 18.09 17.23 31 20a57.32 57.32 0 0 0 14.4 1.21 56.3 56.3 0 0 0 53.64-53 57.7 57.7 0 0 0 -1.85-17.72 51.14 51.14 0 0 0 -18.1-28" stroke="#f8ac00"/><path d="m9.28 178.42c7.91 9.91 18.11 17.3 31.07 20.07a57.31 57.31 0 0 0 14.43 1.23 56.32 56.32 0 0 0 53.73-53.15 57.69 57.69 0 0 0 -1.89-17.76 51.28 51.28 0 0 0 -18.21-28" stroke="#f8ac00"/><path d="m9.32 178.49c7.9 10 18.13 17.37 31.1 20.17a57.3 57.3 0 0 0 14.46 1.25 56.34 56.34 0 0 0 53.82-53.25 57.66 57.66 0 0 0 -1.92-17.79 51.42 51.42 0 0 0 -18.32-28" stroke="#f8ab00"/><path d="m9.35 178.55c7.89 10 18.15 17.44 31.14 20.26a57.3 57.3 0 0 0 14.51 1.28 56.36 56.36 0 0 0 53.9-53.35 57.66 57.66 0 0 0 -2-17.83 51.56 51.56 0 0 0 -18.4-28.07" stroke="#f8ab00"/><path d="m9.38 178.62c7.88 10 18.17 17.5 31.17 20.35a57.29 57.29 0 0 0 14.51 1.3 56.38 56.38 0 0 0 54-53.45 57.65 57.65 0 0 0 -2-17.86 51.71 51.71 0 0 0 -18.53-28.09" stroke="#f8aa00"/><path d="m9.42 178.68c7.87 10.06 18.19 17.57 31.21 20.44a57.31 57.31 0 0 0 14.54 1.32 56.4 56.4 0 0 0 54.07-53.55 57.62 57.62 0 0 0 -2-17.9 51.85 51.85 0 0 0 -18.64-28.11" stroke="#f8aa00"/><path d="m9.45 178.75c7.86 10.1 18.21 17.64 31.24 20.54a57.32 57.32 0 0 0 14.57 1.34 56.42 56.42 0 0 0 54.17-53.63 57.61 57.61 0 0 0 -2.06-18 52 52 0 0 0 -18.75-28.13" stroke="#f8a900"/><path d="m9.49 178.81c7.85 10.14 18.23 17.73 31.28 20.63a56.41 56.41 0 0 0 68.85-52.38 57.6 57.6 0 0 0 -2.09-18 52.13 52.13 0 0 0 -18.86-28.16" stroke="#f8a800"/><path d="m9.52 178.87c7.84 10.18 18.25 17.8 31.31 20.72a56.44 56.44 0 0 0 69-52.46 57.57 57.57 0 0 0 -2.12-18 52.28 52.28 0 0 0 -19.01-28.13" stroke="#f7a800"/><path d="m9.55 178.94c7.83 10.22 18.27 17.87 31.34 20.82a56.46 56.46 0 0 0 69.11-52.55 57.57 57.57 0 0 0 -2.15-18 52.42 52.42 0 0 0 -19.11-28.21" stroke="#f7a700"/><path d="m9.59 179c7.82 10.25 18.29 17.94 31.38 20.91a56.48 56.48 0 0 0 69.19-52.62 57.57 57.57 0 0 0 -2.16-18.07 52.57 52.57 0 0 0 -19.22-28.22" stroke="#f7a700"/><path d="m9.62 179.07c7.81 10.29 18.31 18 31.41 21a56.51 56.51 0 0 0 69.31-52.7 57.57 57.57 0 0 0 -2.22-18.11 52.71 52.71 0 0 0 -19.3-28.26" stroke="#f7a600"/><path d="m9.65 179.13c7.81 10.33 18.35 18.07 31.45 21.1a56.53 56.53 0 0 0 69.42-52.77 57.54 57.54 0 0 0 -2.25-18.15 52.86 52.86 0 0 0 -19.41-28.31" stroke="#f7a500"/><path d="m9.69 179.2c7.79 10.37 18.35 18.14 31.48 21.19a56.56 56.56 0 0 0 69.54-52.85 57.55 57.55 0 0 0 -2.29-18.18 53 53 0 0 0 -19.52-28.29" stroke="#f7a500"/><path d="m9.72 179.26c7.78 10.4 18.37 18.2 31.52 21.28a56.58 56.58 0 0 0 69.65-52.93 57.53 57.53 0 0 0 -2.32-18.22 53.14 53.14 0 0 0 -19.63-28.3" stroke="#f7a400"/><path d="m9.75 179.33c7.77 10.44 18.39 18.27 31.55 21.37a56.61 56.61 0 0 0 69.77-53 57.5 57.5 0 0 0 -2.35-18.25 53.29 53.29 0 0 0 -19.72-28.34" stroke="#f7a400"/><path d="m9.79 179.39c7.76 10.48 18.41 18.34 31.58 21.46a56.64 56.64 0 0 0 69.88-53.09 57.51 57.51 0 0 0 -2.39-18.29 53.44 53.44 0 0 0 -19.86-28.33" stroke="#f6a300"/><path d="m9.82 179.45c7.76 10.55 18.44 18.41 31.62 21.55a56.66 56.66 0 0 0 70-53.16 57.49 57.49 0 0 0 -2.44-18.31 53.58 53.58 0 0 0 -20-28.37" stroke="#f6a200"/><path d="m9.86 179.52c7.74 10.55 18.45 18.48 31.65 21.65a56.69 56.69 0 0 0 70.11-53.24 57.47 57.47 0 0 0 -2.45-18.36 53.73 53.73 0 0 0 -20.07-28.39" stroke="#f6a200"/><path d="m9.89 179.58c7.73 10.59 18.48 18.54 31.69 21.74a56.72 56.72 0 0 0 70.22-53.32 57.47 57.47 0 0 0 -2.49-18.39 53.88 53.88 0 0 0 -20.18-28.41" stroke="#f6a100"/><path d="m9.92 179.65c7.72 10.63 18.5 18.61 31.72 21.84a56.74 56.74 0 0 0 70.36-53.4 57.47 57.47 0 0 0 -2.52-18.43 54 54 0 0 0 -20.29-28.43" stroke="#f6a000"/><path d="m10 179.71c7.71 10.67 18.52 18.68 31.75 21.93a56.77 56.77 0 0 0 70.46-53.48 57.45 57.45 0 0 0 -2.55-18.46 54.17 54.17 0 0 0 -20.39-28.45" stroke="#f6a000"/><path d="m10 179.78c7.7 10.71 18.54 18.74 31.79 22a56.8 56.8 0 0 0 70.57-53.55 57.44 57.44 0 0 0 -2.59-18.5 54.31 54.31 0 0 0 -20.5-28.47" stroke="#f69f00"/><path d="m10 179.84a55.63 55.63 0 0 0 31.85 22.16 56.83 56.83 0 0 0 70.69-53.63 57.43 57.43 0 0 0 -2.62-18.53 54.47 54.47 0 0 0 -20.62-28.54" stroke="#f59f00"/><path d="m10.06 179.9a55.71 55.71 0 0 0 31.86 22.21 56.85 56.85 0 0 0 70.8-53.71 57.43 57.43 0 0 0 -2.65-18.57 54.61 54.61 0 0 0 -20.72-28.51" stroke="#f59e00"/><path d="m10.09 180a55.81 55.81 0 0 0 31.91 22.27 56.88 56.88 0 0 0 70.92-53.79 57.42 57.42 0 0 0 -2.69-18.6 54.76 54.76 0 0 0 -20.83-28.53" stroke="#f59d00"/><path d="m10.12 180a55.9 55.9 0 0 0 31.88 22.43 56.88 56.88 0 0 0 68.31-72.51 54.91 54.91 0 0 0 -20.94-28.55" stroke="#f59d00"/><path d="m10.16 180.1a56 56 0 0 0 32 22.49 56.91 56.91 0 0 0 68.35-72.59 55.06 55.06 0 0 0 -21.05-28.58" stroke="#f59c00"/><path d="m10.19 180.16a56.08 56.08 0 0 0 32 22.58 56.94 56.94 0 0 0 68.47-72.74 55.21 55.21 0 0 0 -21.16-28.6" stroke="#f59c00"/><path d="m10.23 180.23a56.17 56.17 0 0 0 32 22.67 57 57 0 0 0 68.56-72.85 55.36 55.36 0 0 0 -21.27-28.62" stroke="#f59b00"/><path d="m10.26 180.29a56.26 56.26 0 0 0 32.06 22.76 57 57 0 0 0 68.64-73 55.51 55.51 0 0 0 -21.38-28.64" stroke="#f59b00"/><path d="m10.29 180.36a56.35 56.35 0 0 0 32.1 22.86 57 57 0 0 0 68.72-73.07 55.66 55.66 0 0 0 -21.49-28.66" stroke="#f59a00"/><path d="m10.33 180.42a56.45 56.45 0 0 0 32.13 22.95 57.07 57.07 0 0 0 68.81-73.19 55.65 55.65 0 0 0 -21.6-28.68" stroke="#f49900"/><path d="m10.36 180.48a56.54 56.54 0 0 0 32.16 23 57.1 57.1 0 0 0 68.89-73.3 55.82 55.82 0 0 0 -21.71-28.7" stroke="#f49900"/><path d="m10.39 180.55a56.63 56.63 0 0 0 32.2 23.14 57.13 57.13 0 0 0 69-73.41 56 56 0 0 0 -21.82-28.72" stroke="#f49800"/><path d="m10.43 180.61a57.05 57.05 0 0 0 101.28-50.3 56.15 56.15 0 0 0 -21.93-28.74" stroke="#f49800"/><path d="m10.46 180.68a57.1 57.1 0 0 0 101.4-50.32 56.3 56.3 0 0 0 -22-28.77" stroke="#f49700"/><path d="m10.49 180.74a57.14 57.14 0 0 0 101.51-50.34 56.47 56.47 0 0 0 -22.14-28.79" stroke="#f49600"/><path d="m10.53 180.81a57.17 57.17 0 1 0 79.37-79.17" stroke="#f49600"/><path d="m10.56 180.87a57.21 57.21 0 1 0 79.38-79.21" stroke="#f49500"/><path d="m10.59 180.94a57.26 57.26 0 1 0 79.41-79.25" stroke="#f49500"/><path d="m10.63 181a57.3 57.3 0 1 0 79.37-79.29" stroke="#f39400"/><path d="m10.66 181.06a57.34 57.34 0 1 0 79.4-79.33" stroke="#f39300"/><path d="m10.7 181.13a57.39 57.39 0 1 0 79.4-79.38" stroke="#f39300"/><path d="m10.73 181.19a57.43 57.43 0 1 0 79.42-79.42" stroke="#f39200"/></g><g stroke="#1d1d1b" stroke-width="3"><circle cx="58.939999" cy="149.98" r="57.439999"/><g stroke-linecap="round"><path d="m116.12 144.48c-1.68-10.67-21.18-14.48-29.29 2 7.92 17.93 3.67 40.18-21.46 60.24"/><path d="m58.94 150c6.06-7.8 15-14.15 27.89-3.48"/><path d="m25.58 103.22c-8.4 6.79-2 25.59 16.4 24.35 11.56-15.82 33-23.26 62.9-11.53"/><path d="m58.94 150c-9.79-1.35-19.74-5.89-17-22.42"/><path d="m35.11 202.26c10.08 3.88 23.13-11.1 12.89-26.38-19.48-2.11-36.63-16.88-41.44-48.71"/><path d="m58.94 150c3.73 9.15 4.77 20-10.94 25.89"/></g></g></g></g></svg>