<?xml version="1.0" encoding="UTF-8" standalone="no"?>
<svg
   xmlns:dc="http://purl.org/dc/elements/1.1/"
   xmlns:cc="http://creativecommons.org/ns#"
   xmlns:rdf="http://www.w3.org/1999/02/22-rdf-syntax-ns#"
   xmlns:svg="http://www.w3.org/2000/svg"
   xmlns="http://www.w3.org/2000/svg"
   viewBox="0 0 238.46398 250"
   height="250"
   width="238.46397"
   xml:space="preserve"
   id="svg2"
   version="1.1"><metadata
     id="metadata8"><rdf:RDF><cc:Work
         rdf:about=""><dc:format>image/svg+xml</dc:format><dc:type
           rdf:resource="http://purl.org/dc/dcmitype/StillImage" /><dc:title></dc:title></cc:Work></rdf:RDF></metadata><defs
     id="defs6"><clipPath
       id="clipPath18"
       clipPathUnits="userSpaceOnUse"><path
         id="path16"
         d="M 0,841.89 H 595.28 V 0 H 0 Z" /></clipPath></defs><g
     transform="matrix(1.3333333,0,0,-1.3333333,-22.340532,438.01986)"
     id="g10"><g
       transform="matrix(0.33135399,0,0,0.33135399,11.203431,94.28905)"
       id="g12"><g
         clip-path="url(#clipPath18)"
         id="g14"><g
           transform="translate(286.6372,142.4437)"
           id="g20"><path
             id="path22"
             style="fill:#ffffff;fill-opacity:1;fill-rule:nonzero;stroke:none"
             d="m 0,0 c -61.075,0 -119.169,19.228 -168.002,55.604 -46.843,34.895 -82.351,84.514 -100.101,139.84 l 98.402,35.355 c 8.297,-27.908 23.668,-53.633 44.519,-74.477 C -91.744,122.885 -47.287,104.47 0,104.47 c 47.287,0 91.744,18.415 125.182,51.853 20.84,20.84 36.209,46.549 44.511,74.433 l 98.395,-35.355 C 250.332,140.085 214.823,90.477 167.985,55.592 119.155,19.224 61.067,0 0,0" /></g><g
           transform="translate(117.8814,375.0999)"
           id="g24"><path
             id="path26"
             style="fill:#103867;fill-opacity:1;fill-rule:nonzero;stroke:none"
             d="m 0,0 -101.126,-36.333 c 36.14,-114.635 143.302,-197.752 269.882,-197.752 126.565,0 233.713,83.096 269.867,197.709 L 337.504,-0.043 c -8.115,-28.167 -23.274,-53.978 -44.576,-75.28 -33.169,-33.168 -77.267,-51.435 -124.172,-51.435 -46.906,0 -91.004,18.267 -124.172,51.435 C 23.267,-54.014 8.108,-28.189 0,0 m -1.878,-3.711 c 8.46,-27.578 23.783,-52.981 44.441,-73.633 33.708,-33.708 78.524,-52.271 126.193,-52.271 47.668,0 92.484,18.563 126.192,52.271 20.648,20.648 35.967,46.036 44.433,73.59 l 95.678,-34.377 c -8.832,-27.069 -21.737,-52.566 -38.381,-75.827 -16.959,-23.701 -37.412,-44.548 -60.791,-61.961 -23.647,-17.612 -49.744,-31.3 -77.567,-40.684 -28.774,-9.704 -58.907,-14.624 -89.564,-14.624 -30.661,0 -60.798,4.921 -89.574,14.628 -27.827,9.386 -53.926,23.077 -77.575,40.694 -23.381,17.417 -43.835,38.268 -60.794,61.974 -16.644,23.266 -29.546,48.769 -38.375,75.842 l 95.684,34.378" /></g><g
           transform="translate(19.6431,513.3954)"
           id="g28"><path
             id="path30"
             style="fill:#ffffff;fill-opacity:1;fill-rule:nonzero;stroke:none"
             d="m 0,0 c 18.495,55.25 53.186,102.764 100.391,137.479 48.547,35.701 106.157,54.572 166.603,54.572 60.439,0 118.043,-18.866 166.586,-54.558 47.2,-34.706 81.891,-82.21 100.394,-137.45 L 435.659,-35.363 C 427.167,-8.797 412.154,15.758 392.176,35.735 358.735,69.169 314.278,87.582 266.994,87.582 219.709,87.582 175.252,69.169 141.812,35.735 121.825,15.749 106.807,-8.824 98.315,-35.414 Z" /></g><g
           transform="translate(286.6371,706.875)"
           id="g32"><path
             id="path34"
             style="fill:#103867;fill-opacity:1;fill-rule:nonzero;stroke:none"
             d="m 0,0 c -125.322,0 -231.613,-81.481 -268.789,-194.352 l 101.026,-36.39 c 8.33,26.889 23.124,51.521 43.591,71.987 33.168,33.162 77.266,51.428 124.172,51.428 46.906,0 91.004,-18.266 124.172,-51.428 20.459,-20.459 35.247,-45.069 43.576,-71.937 l 101.027,36.383 C 231.585,-81.46 125.308,0 0,0 m 0,-2.857 c 60.132,0 117.443,-18.77 165.739,-54.281 23.246,-17.093 43.656,-37.578 60.663,-60.886 16.664,-22.839 29.701,-47.904 38.775,-74.543 l -95.609,-34.432 c -8.636,26.24 -23.59,50.48 -43.376,70.265 -33.71,33.703 -78.526,52.264 -126.192,52.264 -47.666,0 -92.482,-18.561 -126.192,-52.264 -19.794,-19.793 -34.754,-44.052 -43.391,-70.315 l -95.609,34.439 c 9.071,26.644 22.106,51.715 38.77,74.559 17.006,23.313 37.417,43.803 60.666,60.9 C -117.457,-21.632 -60.139,-2.857 0,-2.857" /></g><g
           transform="translate(541.1173,331.1661)"
           id="g36"><path
             id="path38"
             style="fill:#103867;fill-opacity:1;fill-rule:nonzero;stroke:none"
             d="m 0,0 c -1.55,-4.236 -3.208,-8.444 -4.972,-12.616 -13.637,-32.246 -33.168,-61.207 -58.035,-86.074 -24.875,-24.875 -53.835,-44.398 -86.075,-58.036 -33.375,-14.116 -68.837,-21.274 -105.398,-21.274 -36.562,0 -72.023,7.158 -105.398,21.274 -32.24,13.638 -61.2,33.161 -86.075,58.036 -24.867,24.867 -44.398,53.828 -58.035,86.074 -1.779,4.201 -3.444,8.43 -4.994,12.695 l 77.974,28.439 c 9.251,-25.453 24.045,-48.785 43.762,-68.501 35.469,-35.462 82.617,-54.993 132.766,-54.993 50.149,0 97.297,19.531 132.766,54.993 19.695,19.695 34.482,42.998 43.733,68.422 z" /></g><g
           transform="translate(539.9815,519.7671)"
           id="g40"><path
             id="path42"
             style="fill:#103867;fill-opacity:1;fill-rule:nonzero;stroke:none"
             d="m 0,0 -77.959,-28.503 c -9.309,24.26 -23.696,46.519 -42.62,65.443 -35.468,35.461 -82.617,54.992 -132.765,54.992 -50.149,0 -97.305,-19.531 -132.766,-54.992 -18.945,-18.945 -33.347,-41.226 -42.648,-65.522 l -77.959,28.511 c 1.228,3.236 2.514,6.45 3.864,9.644 13.638,32.246 33.169,61.207 58.036,86.074 24.874,24.874 53.835,44.398 86.074,58.035 33.376,14.116 68.837,21.274 105.399,21.274 36.561,0 72.022,-7.158 105.398,-21.274 32.239,-13.637 61.2,-33.161 86.074,-58.035 C -37.004,70.78 -17.474,41.819 -3.836,9.573 -2.493,6.401 -1.214,3.208 0,0" /></g><g
           transform="translate(201.1699,552.8495)"
           id="g44"><path
             id="path46"
             style="fill:#103867;fill-opacity:1;fill-rule:nonzero;stroke:none"
             d="M 0,0 V -24.289 H 25.36 V 0 h 24.646 v -24.289 h 23.753 c 0,0 94.475,-16.609 126.443,-69.472 31.968,-52.864 0,-107.572 0,-107.572 0,0 -25.558,-57.388 -92.997,-55.959 l -19.814,-14.05 c 0,0 -31.432,22.384 -35.242,22.86 0,0 -15.359,-14.525 -42.386,-8.334 0,0 -18.151,4.149 -25.437,20.4 -3.531,7.874 -2.422,17.18 3.317,23.624 0.221,0.249 0.451,0.496 0.689,0.743 0,0 -25.003,28.337 -8.334,64.77 0,0 -32.861,23.455 3.095,79.771 0,0 -1.667,21.55 -15.478,35.838 z" /></g><g
           transform="translate(201.1699,552.8495)"
           id="g48"><path
             id="path50"
             style="fill:none;stroke:#231f20;stroke-width:0.17900001;stroke-linecap:butt;stroke-linejoin:miter;stroke-miterlimit:10;stroke-dasharray:none;stroke-opacity:1"
             d="M 0,0 V -24.289 H 25.36 V 0 h 24.646 v -24.289 h 23.753 c 0,0 94.475,-16.609 126.443,-69.472 31.968,-52.864 0,-107.572 0,-107.572 0,0 -25.558,-57.388 -92.997,-55.959 l -19.814,-14.05 c 0,0 -31.432,22.384 -35.242,22.86 0,0 -15.359,-14.525 -42.386,-8.334 0,0 -18.151,4.149 -25.437,20.4 -3.531,7.874 -2.422,17.18 3.317,23.624 0.221,0.249 0.451,0.496 0.689,0.743 0,0 -25.003,28.337 -8.334,64.77 0,0 -32.861,23.455 3.095,79.771 0,0 -1.667,21.55 -15.478,35.838 z" /></g><g
           transform="translate(220.1007,308.8921)"
           id="g52"><path
             id="path54"
             style="fill:#ffffff;fill-opacity:1;fill-rule:nonzero;stroke:none"
             d="m 0,0 c -9.301,0.664 -12.837,5.865 -14.18,9.715 -0.865,2.486 -0.972,5.987 0.128,8.38 C -3.808,40.362 32.382,14.523 32.382,14.523 24.524,7.022 15.002,-1.072 0,0 m 188.237,112.913 c -2.143,23.96 -18.931,59.965 -49.292,63.894 0,0 -43.698,48.705 -85.489,37.99 0,0 -50.134,-1.465 -79.173,-35.133 -30.597,-35.483 -17.86,-66.751 -17.86,-66.751 0,0 6.073,-19.33 30.361,-21.116 24.289,-1.786 32.147,24.288 32.147,24.288 0,0 -35.197,0.315 -22.231,40.691 1.857,5.808 4.643,11.28 8.243,16.195 9.323,12.722 31.047,34.975 66.137,29.196 48.098,-7.915 56.342,-50.999 56.342,-50.999 0,0 19.738,-3.293 21.524,-27.939 C 151.625,86.303 138.409,58.757 123.229,40.362 100.362,13.316 77.031,9.165 50.72,17.266 c 0,0 49.649,69.887 51.435,128.466 l -32.504,40.362 c 0,0 -13.93,-17.145 -50.363,-33.933 v -18.217 c 0,0 14.287,3.572 25.003,14.288 0,0 11.43,-87.511 -9.644,-126.087 0,0 -51.435,23.575 -64.293,1.786 0,0 -6.787,-16.43 12.858,-28.574 19.645,-12.145 46.434,2.143 56.793,13.573 0,0 52.506,-38.098 104.298,1.428 49.977,38.148 45.312,87.154 43.934,102.555" /></g><g
           transform="translate(221.4502,317.334)"
           id="g56"><path
             id="path58"
             style="fill:#ffffff;fill-opacity:1;fill-rule:nonzero;stroke:none"
             d="M 0,0 1.254,-0.895 C 1.629,-1.164 2.027,-1.4 2.45,-1.585 3.06,-1.85 3.847,-2.407 1.984,-3.084 l -2.168,0.394 c -1.169,0.213 -2.361,0.28 -3.547,0.201 0,0 -3.691,1.31 -2.857,4.048 0.833,2.739 2.5,0 2.5,0 L -2.371,0.284 C -2.005,0.012 -1.524,-0.047 -1.102,0.127 -0.738,0.277 -0.321,0.229 0,0" /></g><g
           transform="translate(381.5484,504.6593)"
           id="g60"><path
             id="path62"
             style="fill:#103867;fill-opacity:1;fill-rule:nonzero;stroke:none"
             d="m 0,0 c 0,-35.245 -28.274,-63.609 -63.519,-63.609 -35.246,0 -63.52,28.096 -63.52,63.341 0,35.245 27.679,64.353 62.924,64.353 C -28.87,64.085 0,35.245 0,0" /></g><g
           transform="translate(304.1249,481.2982)"
           id="g64"><path
             id="path66"
             style="fill:#ffffff;fill-opacity:1;fill-rule:nonzero;stroke:none"
             d="m 0,0 c 0,0 -7.944,-13.28 -11.337,-17.031 l -18.281,2.851 c -0.8,0.128 -1.536,0.528 -2.064,1.143 -2.422,2.8 -9.323,11.873 -14.038,29.139 l 2.501,2.207 c 0.95,0.836 1.785,1.793 2.478,2.851 1.493,2.293 4.637,6.729 8.33,9.851 0,0 7.087,-1.908 21.374,-3.515 0,0 1.393,-7.244 11.037,-27.496" /></g><g
           transform="translate(271.2425,515.5594)"
           id="g68"><path
             id="path70"
             style="fill:#ffffff;fill-opacity:1;fill-rule:nonzero;stroke:none"
             d="m 0,0 c -1.079,4.493 -3.322,14.545 -3.279,19.967 0,0 5.536,10.265 23.481,20.624 l 22.06,-4.372 1.429,-20.989 c 0,0 -20.895,-18.838 -21.524,-20.445 0,0 -12.93,0.993 -19.102,2.365 C 1.507,-2.5 0.371,-1.543 0,0" /></g><g
           transform="translate(336.3645,485.5202)"
           id="g72"><path
             id="path74"
             style="fill:#ffffff;fill-opacity:1;fill-rule:nonzero;stroke:none"
             d="M 0,0 C 0.536,-1.879 14.737,-17.595 14.737,-17.595 12.68,-22.324 4.379,-34.74 4.379,-34.74 c -8.215,-4.55 -30.711,-3.215 -30.711,-3.215 -5.472,3.122 -13.487,12.331 -15.744,14.995 -0.358,0.422 -0.372,1.029 -0.036,1.472 5.679,7.443 10.858,16.223 10.858,16.223 C -19.024,-6.694 0,0 0,0" /></g><g
           transform="translate(316.1835,531.0613)"
           id="g76"><path
             id="path78"
             style="fill:#ffffff;fill-opacity:1;fill-rule:nonzero;stroke:none"
             d="M 0,0 C -0.357,9.465 -1.25,20.538 -1.25,20.538 5.444,26.967 17.231,30.632 17.231,30.632 28.396,29.025 43.755,16.073 43.755,16.073 l -0.45,-21.159 c -1.807,-2.758 -15.237,-9.587 -18.431,-11.187 -0.392,-0.2 -0.871,-0.093 -1.157,0.25 C 14.073,-4.579 0,0 0,0" /></g><g
           transform="translate(376.6335,502.8436)"
           id="g80"><path
             id="path82"
             style="fill:#ffffff;fill-opacity:1;fill-rule:nonzero;stroke:none"
             d="m 0,0 c -0.086,-13.394 -5.979,-23.917 -5.979,-23.917 -6.144,-4.486 -14.288,-8.665 -17.302,-10.151 -0.693,-0.343 -1.536,-0.179 -2.043,0.407 -13.788,15.773 -13.874,17.23 -13.874,17.23 0,0 0.893,0.743 2.501,6.158 2.171,7.33 0.978,21.167 0.978,21.167 11.88,5.094 19.024,10.98 19.024,10.98 C -6.787,12.323 0,0 0,0" /></g><g
           transform="translate(290.259,561.3863)"
           id="g84"><path
             id="path86"
             style="fill:#ffffff;fill-opacity:1;fill-rule:nonzero;stroke:none"
             d="m 0,0 -0.172,-3.608 c -0.021,-0.514 -0.307,-0.971 -0.757,-1.228 -12.787,-7.365 -23.745,-20.846 -23.745,-20.846 -0.586,-0.357 -1.501,-0.65 -2.515,-0.893 2.758,5.172 6.251,9.973 10.408,14.266 C -11.83,-7.201 -6.158,-3.065 0,0" /></g><g
           transform="translate(361.8747,549.392)"
           id="g88"><path
             id="path90"
             style="fill:#ffffff;fill-opacity:1;fill-rule:nonzero;stroke:none"
             d="m 0,0 c -0.179,-0.65 -0.622,-1.043 -1.522,-0.829 0,0 -14.166,11.552 -26.431,14.409 l 0.128,2.536 C -17.166,13.209 -7.622,7.565 0,0" /></g><g
           transform="translate(380.5125,503.1008)"
           id="g92"><path
             id="path94"
             style="fill:#ffffff;fill-opacity:1;fill-rule:nonzero;stroke:none"
             d="m 0,0 c -0.2,-8.408 -2.029,-16.538 -5.343,-24.003 -1.994,-0.464 -2.672,0.172 -2.672,0.172 5.122,9.408 5.479,23.695 5.479,23.695 0,0 1.286,0.472 2.536,0.136" /></g><g
           transform="translate(342.0366,446.7942)"
           id="g96"><path
             id="path98"
             style="fill:#ffffff;fill-opacity:1;fill-rule:nonzero;stroke:none"
             d="m 0,0 c -7.494,-3.108 -15.623,-4.729 -24.01,-4.729 -2.55,0 -5.072,0.15 -7.565,0.45 -0.579,1.25 -0.707,2.607 0.486,3.658 0,0 15.594,-2.029 29.289,3.093 0,0 2.3,0.743 1.8,-2.472" /></g><g
           transform="translate(268.1135,466.6822)"
           id="g100"><path
             id="path102"
             style="fill:#ffffff;fill-opacity:1;fill-rule:nonzero;stroke:none"
             d="m 0,0 c -6.158,8.094 -10.187,17.538 -11.787,27.625 0.55,0.943 1.114,1.671 1.514,1.628 0,0 4.108,-17.144 12.388,-27.26 0,0 1.007,-2.25 -2.115,-1.993" /></g><g
           transform="translate(359.9387,547.1346)"
           id="g104"><path
             id="path106"
             style="fill:#ffffff;fill-opacity:1;fill-rule:nonzero;stroke:none"
             d="m 0,0 -0.45,-21.16 c -1.807,-2.757 -15.238,-9.586 -18.431,-11.187 -0.393,-0.2 -0.871,-0.093 -1.157,0.25 -9.644,11.445 -23.717,16.024 -23.717,16.024 -0.357,9.465 -1.25,20.538 -1.25,20.538 6.693,6.429 18.48,10.094 18.48,10.094 C -15.359,12.952 0,0 0,0" /></g><g
           transform="translate(376.6335,502.8436)"
           id="g108"><path
             id="path110"
             style="fill:#ffffff;fill-opacity:1;fill-rule:nonzero;stroke:none"
             d="m 0,0 c -0.086,-13.394 -5.979,-23.917 -5.979,-23.917 -6.144,-4.486 -14.288,-8.665 -17.302,-10.151 -0.693,-0.343 -1.536,-0.179 -2.043,0.407 -13.788,15.773 -13.874,17.23 -13.874,17.23 0,0 0.893,0.743 2.501,6.158 2.171,7.33 0.978,21.167 0.978,21.167 11.88,5.094 19.024,10.98 19.024,10.98 C -6.787,12.323 0,0 0,0" /></g><g
           transform="translate(351.1019,467.9252)"
           id="g112"><path
             id="path114"
             style="fill:#ffffff;fill-opacity:1;fill-rule:nonzero;stroke:none"
             d="m 0,0 c -2.057,-4.729 -10.358,-17.145 -10.358,-17.145 -8.216,-4.55 -30.711,-3.215 -30.711,-3.215 -5.472,3.122 -13.487,12.33 -15.745,14.995 -0.357,0.422 -0.371,1.029 -0.036,1.472 5.68,7.443 10.859,16.223 10.859,16.223 12.23,-1.429 31.254,5.265 31.254,5.265 C -14.202,15.716 0,0 0,0" /></g><g
           transform="translate(304.1249,481.2982)"
           id="g116"><path
             id="path118"
             style="fill:#ffffff;fill-opacity:1;fill-rule:nonzero;stroke:none"
             d="m 0,0 c 0,0 -7.944,-13.28 -11.337,-17.031 l -18.281,2.851 c -0.8,0.128 -1.536,0.528 -2.064,1.143 -2.422,2.8 -9.323,11.873 -14.038,29.139 l 2.501,2.207 c 0.95,0.836 1.785,1.793 2.478,2.851 1.493,2.293 4.637,6.729 8.33,9.851 0,0 7.087,-1.908 21.374,-3.515 0,0 1.393,-7.244 11.037,-27.496" /></g><g
           transform="translate(314.9333,530.7898)"
           id="g120"><path
             id="path122"
             style="fill:#ffffff;fill-opacity:1;fill-rule:nonzero;stroke:none"
             d="m 0,0 c 0,0 -20.895,-18.838 -21.524,-20.445 0,0 -12.93,0.993 -19.102,2.364 -1.558,0.35 -2.693,1.308 -3.065,2.851 -1.079,4.493 -3.322,14.544 -3.279,19.966 0,0 5.537,10.266 23.482,20.624 l 22.059,-4.372 z" /></g><g
           transform="translate(100.6294,297.3621)"
           id="g124"><path
             id="path126"
             style="fill:#ffffff;fill-opacity:1;fill-rule:nonzero;stroke:none"
             d="m 0,0 -10.144,-6.544 c -6.472,-3.95 -9.665,-1.486 -12.344,2.658 L -23.803,-1.85 2.222,14.952 4.258,11.801 C 6.529,8.272 6.479,4.386 0,0 M 10.673,13.937 2.922,25.953 -34.147,2.022 l 6.672,-10.33 c 5.08,-7.872 10.266,-12.787 23.453,-5.051 l 10.244,6.615 c 8.951,6.487 9.787,12.559 4.451,20.681" /></g><g
           transform="translate(99.134,254.719)"
           id="g128"><path
             id="path130"
             style="fill:#ffffff;fill-opacity:1;fill-rule:nonzero;stroke:none"
             d="m 0,0 6.31,-6.667 12.264,11.31 27.86,10.359 -6.589,7.093 -16.628,-6.736 8.368,15.628 -6.939,7.47 L 12.382,11.43 Z" /></g><g
           transform="translate(148.9139,210.8707)"
           id="g132"><path
             id="path134"
             style="fill:#ffffff;fill-opacity:1;fill-rule:nonzero;stroke:none"
             d="m 0,0 -8.236,6.174 9.414,31.007 -18.199,-24.422 -6.588,4.938 26.744,35.679 8.274,-6.202 -8.802,-29.876 17.322,23.49 6.815,-5.109 z" /></g><g
           transform="translate(182.3783,211.9054)"
           id="g136"><path
             id="path138"
             style="fill:#ffffff;fill-opacity:1;fill-rule:nonzero;stroke:none"
             d="M 0,0 11.875,16.016 7.47,-3.539 Z m 20.463,21.107 -9.785,5.01 -29.487,-35.769 8.696,-3.998 5.856,7.902 10.146,-4.803 -2.129,-9.471 8.449,-3.882 z" /></g><g
           transform="translate(250.1958,172.8512)"
           id="g140"><path
             id="path142"
             style="fill:#ffffff;fill-opacity:1;fill-rule:nonzero;stroke:none"
             d="m 0,0 -8.322,1.898 7.873,33.617 -15.506,-31.876 -6.702,1.529 -0.056,35.981 -7.998,-34.144 -7.997,1.823 10.042,43.274 12.879,-2.888 -0.378,-31.401 13.113,28.544 12.604,-2.827 z" /></g><g
           transform="translate(286.0867,177.2174)"
           id="g144"><path
             id="path146"
             style="fill:#ffffff;fill-opacity:1;fill-rule:nonzero;stroke:none"
             d="m 0,0 c -3.79,-0.356 -6.073,3.547 -6.149,6.866 0,0 0.104,18.553 0.106,18.613 0.011,2.689 1.857,5.89 4.461,6.842 3.706,1.361 6.81,-3.165 6.888,-6.424 L 5.421,8.024 C 5.496,4.821 3.627,0.342 0,0 m 14.353,8.023 c 0,0.01 -0.003,17.364 -0.003,17.364 -10e-4,5.823 -3.918,11.153 -9.43,12.95 -4.979,1.62 -12.329,1.217 -16.071,-2.806 -3.462,-3.715 -4.535,-9.326 -4.419,-14.254 0,-0.01 0.322,-13.883 0.322,-13.883 0.129,-5.657 2.829,-11.365 8.467,-13.319 2.35,-0.812 5.165,-1.086 7.911,-0.791 3.101,0.333 6.119,1.396 8.302,3.234 3.4,2.868 4.922,7.142 4.921,11.505" /></g><g
           transform="translate(354.217,187.17)"
           id="g148"><path
             id="path150"
             style="fill:#ffffff;fill-opacity:1;fill-rule:nonzero;stroke:none"
             d="m 0,0 -3.717,-1.111 -3.854,12.878 4.233,1.264 C 0.072,14.059 3.67,12.113 4.69,8.704 4.899,8.016 4.993,7.315 4.987,6.629 4.961,3.643 3.008,0.896 0,0 m -12.646,28.728 4.405,1.312 c 2.686,0.806 5.516,-0.719 6.314,-3.405 0.202,-0.659 0.289,-1.331 0.283,-1.988 -0.025,-2.865 -1.891,-5.499 -4.784,-6.36 L -9.265,17.433 Z M 13.473,11.214 c -2.831,9.703 -12.246,6.728 -12.747,6.583 4.749,1.43 7.442,6.436 6.019,11.185 0,0 -3.546,12.18 -13.79,8.575 L -23.22,32.721 -10.445,-9.975 5.406,-5.233 c 12.904,4.367 8.067,16.447 8.067,16.447" /></g><g
           transform="translate(389.285,220.8388)"
           id="g152"><path
             id="path154"
             style="fill:#ffffff;fill-opacity:1;fill-rule:nonzero;stroke:none"
             d="m 0,0 -3.586,-1.772 -5.765,11.223 4.172,2.065 c 2.75,1.357 6.086,0.228 7.451,-2.522 L 2.729,8.058 C 4.201,5.079 2.979,1.472 0,0 M 21.597,-9.726 C 18.838,-4.239 16.754,-0.806 14.543,0.543 11.909,2.15 7.635,0.406 7.635,0.406 c 0,0 6.729,3.262 3.157,11.612 0,0 -4.732,12.68 -14.771,7.377 l -8.351,-4.129 -8.408,-4.158 10.008,-19.788 10.208,-20.166 8.609,4.343 -8.694,16.938 5.22,2.582 c 1.573,0.778 3.48,0.204 4.362,-1.313 l 6.648,-11.442 c 0.722,-1.243 2.308,-1.671 3.558,-0.957 l 7.815,3.968 c -2.522,0.779 -3.993,2.206 -5.399,5.001" /></g><g
           transform="translate(450.4851,231.2614)"
           id="g156"><path
             id="path158"
             style="fill:#ffffff;fill-opacity:1;fill-rule:nonzero;stroke:none"
             d="m 0,0 -19.96,-15.659 -27.117,35.368 20.145,15.102 4.651,-6.008 -12.623,-9.758 6.115,-7.908 11.723,9.058 4.657,-6.015 -12.23,-9.022 7.023,-9.516 13.073,10.223 z" /></g><g
           transform="translate(474.5594,253.6927)"
           id="g160"><path
             id="path162"
             style="fill:#ffffff;fill-opacity:1;fill-rule:nonzero;stroke:none"
             d="M 0,0 -4.408,-4.901 C -8.43,-9.373 -15.316,-9.737 -19.781,-5.715 l -3.257,2.929 6.865,6.865 2.693,-2.679 c 1.629,-1.621 4.272,-1.579 5.851,0.086 0,0 0.963,1.021 0.964,1.021 1.757,1.861 1.751,4.671 0.287,6.704 -1.456,2.021 -4.616,3.24 -6.976,2.187 -2.546,-1.135 -5.035,-2.395 -7.496,-3.702 -2.404,-1.276 -4.719,-2.039 -7.489,-1.595 -1.829,0.293 -3.586,1.057 -5.072,2.279 l -2.958,2.443 c -4.764,4.279 -5.15,11.615 -0.871,16.373 l 3.472,3.858 c 3.979,4.429 10.794,4.793 15.223,0.807 l 2.057,-1.85 -6.243,-6.601 -1.815,1.614 c -0.878,0.779 -1.979,1.165 -3.064,1.165 -1.272,0 -2.536,-0.522 -3.451,-1.543 -0.807,-0.907 -1.171,-1.979 -1.171,-3.058 0,-1.571 0.771,-3.172 2.086,-4.336 1.4,-1.25 2.95,-1.943 4.643,-1.579 2.321,0.494 4.296,1.627 6.4,2.658 3.306,1.62 7.166,3.346 10.923,3.207 1.486,-0.057 2.965,-0.443 4.115,-1.436 l 3.151,-2.836 C 4.108,12.751 4.515,5.022 0,0" /></g><g
           transform="translate(501.6813,290.8289)"
           id="g164"><path
             id="path166"
             style="fill:#ffffff;fill-opacity:1;fill-rule:nonzero;stroke:none"
             d="m 0,0 -5.09,-8.039 -30.793,19.981 -5.198,-7.939 -6.343,4.117 15.398,24.053 6.344,-4.118 -5.11,-8.075 z" /></g><g
           transform="translate(49.2447,450.4589)"
           id="g168"><path
             id="path170"
             style="fill:#103867;fill-opacity:1;fill-rule:nonzero;stroke:none"
             d="m 0,0 v -47.863 h -11.901 v 32.975 h -9.766 v 7.623 h 5.115 c 4.012,0 7.265,3.253 7.265,7.265 z" /></g><g
           transform="translate(49.2447,450.4589)"
           id="g172"><path
             id="path174"
             style="fill:none;stroke:#231f20;stroke-width:0.17900001;stroke-linecap:butt;stroke-linejoin:miter;stroke-miterlimit:10;stroke-dasharray:none;stroke-opacity:1"
             d="m 0,0 v -47.863 h -11.901 v 32.975 h -9.766 v 7.623 h 5.115 c 4.012,0 7.265,3.253 7.265,7.265 z" /></g><g
           transform="translate(69.1328,426.7061)"
           id="g176"><path
             id="path178"
             style="fill:#103867;fill-opacity:1;fill-rule:nonzero;stroke:none"
             d="m 0,0 c -2.336,0 -4.051,3.107 -4.051,7.858 0,4.751 1.715,8.63 4.051,8.63 2.329,0 3.629,-3.494 3.629,-8.244 C 3.629,3.493 2.329,0 0,0 m -1.257,23.753 h -0.829 c -7.594,0 -13.752,-6.158 -13.752,-13.752 V 1.207 c 0,-5.543 4.472,-10.051 10.023,-10.094 l 2.329,-0.036 H -3.4 c 2.886,-0.014 5.75,1.679 7.086,4.13 0.207,-1.593 -0.057,-3.808 -0.057,-6.101 0,-0.722 -0.021,-1.386 -0.071,-1.993 -0.265,-3.365 -1.286,-4.915 -3.265,-4.915 -2.036,0 -3.443,1.464 -3.765,4.993 l -11.773,0.129 c 0,-7.265 5.301,-12.502 12.566,-12.502 h 1.072 c 9.958,0 18.037,2.615 18.037,18.038 V 6.072 c 0,15.652 -7.922,17.681 -17.687,17.681" /></g><g
           transform="translate(69.1328,426.7061)"
           id="g180"><path
             id="path182"
             style="fill:none;stroke:#231f20;stroke-width:0.17900001;stroke-linecap:butt;stroke-linejoin:miter;stroke-miterlimit:10;stroke-dasharray:none;stroke-opacity:1"
             d="m 0,0 c -2.336,0 -4.051,3.107 -4.051,7.858 0,4.751 1.715,8.63 4.051,8.63 2.329,0 3.629,-3.494 3.629,-8.244 C 3.629,3.493 2.329,0 0,0 Z m -1.257,23.753 h -0.829 c -7.594,0 -13.752,-6.158 -13.752,-13.752 V 1.207 c 0,-5.543 4.472,-10.051 10.023,-10.094 l 2.329,-0.036 H -3.4 c 2.886,-0.014 5.75,1.679 7.086,4.13 0.207,-1.593 -0.057,-3.808 -0.057,-6.101 0,-0.722 -0.021,-1.386 -0.071,-1.993 -0.265,-3.365 -1.286,-4.915 -3.265,-4.915 -2.036,0 -3.443,1.464 -3.765,4.993 l -11.773,0.129 c 0,-7.265 5.301,-12.502 12.566,-12.502 h 1.072 c 9.958,0 18.037,2.615 18.037,18.038 V 6.072 c 0,15.652 -7.922,17.681 -17.687,17.681 z" /></g><g
           transform="translate(496.4374,425.4437)"
           id="g184"><path
             id="path186"
             style="fill:#103867;fill-opacity:1;fill-rule:nonzero;stroke:none"
             d="m 0,0 c 2.336,0.008 3.637,-2.491 3.637,-7.848 0,-4.641 -0.893,-8.811 -3.691,-8.811 -3.036,0 -3.869,3.689 -3.869,8.33 C -3.924,-2.848 -2.329,-0.008 0,0 m 1.34,-23.199 0.829,0.003 c 7.594,0.027 13.73,6.064 13.703,13.483 l -0.03,8.59 C 15.822,4.293 11.335,8.68 5.784,8.702 L 3.455,8.729 3.369,8.728 c -2.886,0.004 -5.744,-1.66 -7.072,-4.059 -0.213,1.556 0.044,3.72 0.036,5.96 -0.002,0.705 0.017,1.354 0.065,1.948 0.252,3.287 1.268,4.805 3.247,4.813 2.036,0.007 3.448,-1.419 3.782,-4.865 L 15.2,12.441 C 15.175,19.539 9.856,24.635 2.591,24.609 L 1.52,24.605 C -8.439,24.57 -16.509,21.987 -16.455,6.92 l 0.046,-12.91 c 0.054,-15.29 7.984,-17.244 17.749,-17.209" /></g><g
           transform="translate(496.4374,425.4437)"
           id="g188"><path
             id="path190"
             style="fill:none;stroke:#231f20;stroke-width:0.17900001;stroke-linecap:butt;stroke-linejoin:miter;stroke-miterlimit:10;stroke-dasharray:none;stroke-opacity:1"
             d="m 0,0 c 2.336,0.008 3.637,-2.491 3.637,-7.848 0,-4.641 -0.893,-8.811 -3.691,-8.811 -3.036,0 -3.869,3.689 -3.869,8.33 C -3.924,-2.848 -2.329,-0.008 0,0 Z m 1.34,-23.199 0.829,0.003 c 7.594,0.027 13.73,6.064 13.703,13.483 l -0.03,8.59 C 15.822,4.293 11.335,8.68 5.784,8.702 L 3.455,8.729 3.369,8.728 c -2.886,0.004 -5.744,-1.66 -7.072,-4.059 -0.213,1.556 0.044,3.72 0.036,5.96 -0.002,0.705 0.017,1.354 0.065,1.948 0.252,3.287 1.268,4.805 3.247,4.813 2.036,0.007 3.448,-1.419 3.782,-4.865 L 15.2,12.441 C 15.175,19.539 9.856,24.635 2.591,24.609 L 1.52,24.605 C -8.439,24.57 -16.509,21.987 -16.455,6.92 l 0.046,-12.91 c 0.054,-15.29 7.984,-17.244 17.749,-17.209 z" /></g><g
           transform="translate(535.3738,412.833)"
           id="g192"><path
             id="path194"
             style="fill:#103867;fill-opacity:1;fill-rule:nonzero;stroke:none"
             d="m 0,0 c 0,-2.236 -1.807,-4.05 -4.043,-4.05 -2.236,0 -4.051,1.814 -4.051,4.05 v 26.075 c 0,2.235 1.815,4.05 4.051,4.05 1.121,0 2.129,-0.45 2.857,-1.186 C -0.45,28.203 0,27.189 0,26.075 Z m 9.194,31.118 c -2.2,3.958 -6.186,6.815 -13.359,6.815 -10.773,0 -15.952,-8.051 -15.952,-19.524 V 8.215 c -0.3,-14.701 7.144,-19.523 15.952,-19.523 12.502,0 15.952,7.679 15.952,18.809 v 10.194 c 0,4.408 -0.4,9.465 -2.593,13.423" /></g><g
           transform="translate(535.3738,412.833)"
           id="g196"><path
             id="path198"
             style="fill:none;stroke:#231f20;stroke-width:0.17900001;stroke-linecap:butt;stroke-linejoin:miter;stroke-miterlimit:10;stroke-dasharray:none;stroke-opacity:1"
             d="m 0,0 c 0,-2.236 -1.807,-4.05 -4.043,-4.05 -2.236,0 -4.051,1.814 -4.051,4.05 v 26.075 c 0,2.235 1.815,4.05 4.051,4.05 1.121,0 2.129,-0.45 2.857,-1.186 C -0.45,28.203 0,27.189 0,26.075 Z m 9.194,31.118 c -2.2,3.958 -6.186,6.815 -13.359,6.815 -10.773,0 -15.952,-8.051 -15.952,-19.524 V 8.215 c -0.3,-14.701 7.144,-19.523 15.952,-19.523 12.502,0 15.952,7.679 15.952,18.809 v 10.194 c 0,4.408 -0.4,9.465 -2.593,13.423 z" /></g><g
           transform="translate(110.6663,533.5759)"
           id="g200"><path
             id="path202"
             style="fill:#ffffff;fill-opacity:1;fill-rule:nonzero;stroke:none"
             d="m 0,0 -4.951,-7.765 -30.903,19.681 -6.151,3.914 4.943,7.766 8.451,13.266 6.151,-3.915 -8.451,-13.266 8.651,-5.508 7.837,12.309 6.151,-3.915 -7.837,-12.309 z" /></g><g
           transform="translate(129.4328,567.9442)"
           id="g204"><path
             id="path206"
             style="fill:#ffffff;fill-opacity:1;fill-rule:nonzero;stroke:none"
             d="m 0,0 c -2.315,-3.022 -6.729,-2.043 -9.215,0.157 0,0 -13.538,12.687 -13.581,12.73 -1.964,1.836 -3.057,5.365 -1.986,7.923 1.522,3.643 6.951,2.843 9.394,0.685 L -2.2,9.43 C 0.2,7.308 2.215,2.893 0,0 m 3.872,15.98 c -0.007,0.008 -12.737,11.802 -12.737,11.802 -4.272,3.958 -10.845,4.708 -15.909,1.886 -4.572,-2.55 -9.273,-8.215 -8.866,-13.695 0.372,-5.065 3.758,-9.665 7.451,-12.93 0.007,-0.007 10.401,-9.201 10.401,-9.201 4.237,-3.75 10.259,-5.651 15.524,-2.843 2.193,1.172 4.307,3.05 5.958,5.265 1.864,2.5 3.136,5.436 3.271,8.287 0.207,4.443 -1.893,8.465 -5.093,11.429" /></g><g
           transform="translate(158.6573,594.6079)"
           id="g208"><path
             id="path210"
             style="fill:#ffffff;fill-opacity:1;fill-rule:nonzero;stroke:none"
             d="m 0,0 c -2.805,-2.573 -6.982,-0.84 -9.047,1.759 0,0 -11.122,14.85 -11.157,14.9 -1.615,2.15 -2.077,5.815 -0.577,8.147 2.133,3.323 7.34,1.59 9.37,-0.96 L -0.525,9.669 C 1.469,7.162 2.684,2.464 0,0 m 6.595,15.062 c -0.006,0.009 -10.489,13.839 -10.489,13.839 -3.517,4.641 -9.859,6.524 -15.337,4.627 -4.947,-1.716 -10.562,-6.476 -11.114,-11.943 -0.516,-5.052 2.017,-10.171 5.086,-14.029 0.006,-0.009 8.64,-10.871 8.64,-10.871 3.519,-4.431 9.119,-7.351 14.792,-5.503 2.363,0.772 4.773,2.254 6.783,4.148 2.271,2.137 4.035,4.807 4.665,7.59 0.977,4.34 -0.391,8.666 -3.026,12.142" /></g><g
           transform="translate(196.8908,610.5136)"
           id="g212"><path
             id="path214"
             style="fill:#ffffff;fill-opacity:1;fill-rule:nonzero;stroke:none"
             d="m 0,0 -8.58,-4.386 -16.787,32.832 -7.901,-4.043 -3.458,6.765 25.096,12.837 3.458,-6.765 -8.616,-4.408 z" /></g><g
           transform="translate(223.0367,627.7656)"
           id="g216"><path
             id="path218"
             style="fill:#ffffff;fill-opacity:1;fill-rule:nonzero;stroke:none"
             d="m 0,0 -3.708,-1.143 -3.964,12.844 4.222,1.301 C -0.05,14.059 3.565,12.144 4.615,8.744 4.829,8.058 4.929,7.358 4.929,6.672 4.929,3.686 3,0.922 0,0 m -12.894,28.618 4.393,1.35 c 2.679,0.829 5.522,-0.672 6.344,-3.351 0.207,-0.657 0.3,-1.328 0.3,-1.986 0,-2.864 -1.843,-5.514 -4.729,-6.4 l -2.829,-0.879 z m 25.91,-16.202 c -2.4,8.258 -11.944,5.536 -12.445,5.386 4.737,1.472 7.387,6.501 5.923,11.237 0,0 -2.779,11.859 -12.188,8.973 l -17.809,-5.494 13.145,-42.583 15.809,4.879 c 12.865,4.479 7.565,17.602 7.565,17.602" /></g><g
           transform="translate(257.7266,645.8677)"
           id="g220"><path
             id="path222"
             style="fill:#ffffff;fill-opacity:1;fill-rule:nonzero;stroke:none"
             d="M 0,0 1.843,19.852 8.222,0.85 Z m 6.544,28.661 -11.073,-1.543 -6.544,-45.127 9.509,1.093 0.907,9.794 11.165,1.157 3.094,-9.201 9.236,1.064 z" /></g><g
           transform="translate(313.2689,637.0524)"
           id="g224"><path
             id="path226"
             style="fill:#ffffff;fill-opacity:1;fill-rule:nonzero;stroke:none"
             d="m 0,0 -0.471,-7.458 -24.775,1.564 2.808,44.377 9.144,-0.579 -2.329,-36.918 z" /></g><g
           transform="translate(346.5823,630.3112)"
           id="g228"><path
             id="path230"
             style="fill:#ffffff;fill-opacity:1;fill-rule:nonzero;stroke:none"
             d="m 0,0 -1.626,-7.294 -24.229,5.401 9.678,43.399 8.943,-1.995 -8.046,-36.106 z" /></g><g
           transform="translate(409.9661,627.1227)"
           id="g232"><path
             id="path234"
             style="fill:#ffffff;fill-opacity:1;fill-rule:nonzero;stroke:none"
             d="m 0,0 c 0,0 -0.164,-0.343 -0.45,-0.914 l -8.022,3.786 0.9,1.771 c 2.607,5.973 1.286,8.83 -2.751,9.723 -2.614,0.579 -5.557,-3.043 -6.722,-5.415 -0.028,-0.05 -8.572,-15.809 -8.572,-15.809 -1.358,-2.965 -1.065,-7.465 2.357,-8.908 3.272,-1.379 6.687,2.45 8.001,5.308 l 1.372,2.693 8.029,-4.186 c -0.657,-1.351 -1.1,-2.251 -1.1,-2.258 -1.872,-3.85 -5.508,-8.044 -9.665,-9.001 -2.672,-0.614 -5.644,0.179 -8.459,1.322 -2.493,1.014 -4.757,2.664 -6.429,4.464 -4.022,4.337 -4.036,10.195 -1.722,15.252 0,0 6.18,12.123 6.187,12.138 2.014,4.4 4.886,9.001 9.415,10.808 5.88,2.343 12.58,-0.236 16.181,-3.965 C 3.429,11.751 3.25,6.987 0,0" /></g><g
           transform="translate(427.9247,585.5207)"
           id="g236"><path
             id="path238"
             style="fill:#ffffff;fill-opacity:1;fill-rule:nonzero;stroke:none"
             d="M 0,0 -4.531,-5.943 -24.272,9.108 2.691,44.466 9.976,38.91 -12.45,9.49 Z" /></g><g
           transform="translate(480.8316,583.6961)"
           id="g240"><path
             id="path242"
             style="fill:#ffffff;fill-opacity:1;fill-rule:nonzero;stroke:none"
             d="m 0,0 -24.574,-22.181 c -4.879,-4.408 -12.409,-4.022 -16.817,0.857 l -2.929,3.243 c -4.407,4.887 -4.021,12.416 0.858,16.824 l 24.574,22.181 5.915,-6.551 -24.631,-22.238 c -2.165,-1.95 -2.329,-5.279 -0.379,-7.437 1.943,-2.164 5.279,-2.336 7.436,-0.386 L -5.915,6.551 Z" /></g><g
           transform="translate(466.4115,538.6426)"
           id="g244"><path
             id="path246"
             style="fill:#ffffff;fill-opacity:1;fill-rule:nonzero;stroke:none"
             d="M 0,0 -2.068,3.283 9.303,10.452 11.656,6.714 C 13.562,3.706 12.654,-0.283 9.643,-2.181 9.037,-2.567 8.387,-2.845 7.725,-3.024 4.842,-3.8 1.67,-2.657 0,0 m 24.278,19.895 2.446,-3.89 C 28.221,13.633 27.513,10.498 25.14,9.008 24.559,8.637 23.935,8.372 23.3,8.201 20.534,7.456 17.496,8.546 15.89,11.102 l -1.585,2.503 z M 14.42,-9.967 c 8.587,5.332 3.193,13.603 2.918,14.046 2.653,-4.19 8.198,-5.441 12.391,-2.794 0,0 10.78,6.686 4.557,15.585 L 25.284,31.153 -12.414,7.383 -3.59,-6.612 C 4.082,-17.87 14.42,-9.967 14.42,-9.967" /></g></g></g></g></svg>