<svg height="317.510643" viewBox="0 0 32.588685 32.829494" width="314.950073" xmlns="http://www.w3.org/2000/svg" xmlns:xlink="http://www.w3.org/1999/xlink"><defs><path id="a" d="m281.189 373.293h-164.658l-93.967-94.697-.02-165.885 93.998-94.694h164.64l94.013 94.694-.031 165.885z"/><clipPath id="b"><use height="100%" width="100%" xlink:href="#a"/></clipPath></defs><g transform="matrix(.0890267 0 0 .0890267 -1.410441 -1.003772)"><path d="m380.436 281.08-96.786 97.524h-169.58l-96.777-97.524-.019-170.849 96.807-97.525h169.56l96.826 97.525z" fill="#fff" stroke="#fd0" stroke-miterlimit="3.8637" stroke-width="2.2677"/><path clip-path="url(#b)" d="m11.264 393.164v-393.164h186.37v393.164z" fill="#00519e"/><g stroke-miterlimit="3.8637"><path clip-path="url(#b)" d="m1.027 311.227.003-133.7h393.156l-.006 133.7z" fill="#fff" stroke="#00519e" stroke-width="2.0551"/><use fill="none" height="100%" stroke="#00519e" stroke-width="2.0551" width="100%" xlink:href="#a"/><path d="m163.216 138.79c-3.389-19.375 9.457-37.849 28.689-41.259 19.234-3.414 37.57 9.528 40.957 28.904 3.389 19.375-9.457 37.848-28.689 41.261-19.235 3.414-37.57-9.529-40.957-28.906z" fill="#fff" stroke="#00519e" stroke-width="1.4173"/><path d="m202.816 156.657c-2.23-6.162-1.32-13.604 1.269-19.523-8.079.525-16.403-3.029-22.048-8.829-1.001 5.651-4.807 11.019-8.062 15.588 3.319 5.537 7.51 10.336 11.276 15.526 3.422 1.794 13.501-2.26 17.565-2.762z" fill="#00519e" stroke="#00519e" stroke-width=".4272"/><path d="m229.313 138.686c.631-2.985 4.299-6.067 3.876-10.944-2.18-6.042-4.549-13.358-8.87-17.161-2.9 1.526-7.121.53-10.201.094 3.394 4.663 4.081 10.775 4.58 16.374 2.101 4.075 8.261 7.152 10.615 11.637z" fill="#00519e" stroke="#00519e" stroke-width=".4272"/><path d="m199.769 105.46c-1.03-1.078-4.491-4.09-3.396-5.597-2.543.01 9.824-2.28 7.277-2.318-9.647-2.078-23.787 2.206-27.865 8.523-2.504 2.019-3.708 4.422-5.063 6.651 2.563-.34 10.082-.328 11.112 2.895 3.978-6.395 10.638-9.514 17.935-10.154z" fill="#00519e" stroke="#00519e" stroke-width=".4272"/><path d="m165.831 140.2c-1.416-4.545-1.673-12.187-.508-16.931-.376-.493-1.204 1.531-1.54 1.013-3.318 9.201-.248 20.191 4.569 27.524-1.345-3.306-3.515-8.022-2.521-11.606z" fill="#00519e" stroke="#00519e" stroke-width=".4272"/><path d="m214.124 164.398c4.573-2.922 9.896-6.558 13.705-13.03.08-.132 1.458-3.555 1.528-3.693-1.338 1.465-3.395 4.373-5.016 3.598-2.306 4.388-8.513 6.394-12.947 7.578.783 2.754-3.501 6.653-4.877 7.579.395.35 4.561-1.826 5.134-1.944 1.029.057-1.028 1.89 2.473-.088z" fill="#00519e" stroke="#00519e" stroke-width=".4272"/><path d="m209.005 165.978c-.102-.037-10.629 1.292-12.729.917-2.781-.494-9.755-1.431-11.365-4.571-3.255 2.544-11.182-4.143-13.651-6.244.781 1.104 1.814 2.031 2.833 2.911 5.077 5.932 11.774 9.076 20.634 10.163 2.644.497 12.864-1.689 14.278-3.176z" fill="#00519e" stroke="#00519e" stroke-width=".4272"/><path d="m163.932 125.466c1.657-4.217 6.478-13.722 10.306-16.406" fill="none" stroke="#00519e" stroke-width="1.8577"/><path d="m182.124 133.439c-.212-4.358-.57-17.32-.304-21.677m-17.679 27.175c2.1 1.517 9.014 5.741 11.747 5.226m25.729-5.097c4.688-3.475 13.632-9.877 18.948-12.333m-19.322 29.272c2.774.789 9.074 2.874 11.724 4.026" fill="none" stroke="#00519e" stroke-width="1.4173"/><path d="m232.005 127.52c-.577 4.581-6.601 23.971-8.701 28.036" fill="none" stroke="#00519e" stroke-width="1.8577"/><path d="m192.025 103.268c4.889 1.384 26.739 9.011 31.344 11.172m-38.001 49.044c-.19-.935.37-5.404.453-6.35" fill="none" stroke="#00519e" stroke-width="1.4173"/><path d="m290.568 52.542c.525 1.323.963 2.885 1.418 3.406 3.041 2.285 4.254 5.925 5.842 9.876 5.135 8.716 10.238 14.18 9.193 17.7-2.236 5.754-11.859 12.054-15.604 14.723-.313.478-.414 20.386 5.355 26.102 2.25 1.889 4.82 4.042 8.322 3.195 1.516-.307 2.438-1.683 2.684-2.92-.309-4.164-4.818-6.564-7.951-9.216-3.926-2.492-6.324-6.342-5.621-10.883.328-2.323 1.658-4.336 2.84-6.391l19.648-13.907c3.455-3.009 5.01-9.06 2.654-14.999.506-.213.975.231 1.311.495 6.234 5.958 8.453 16.039 5.141 23.542-1.553 4.688-7.738 13.997-6.471 19.309 1.293 4.819-6.088 7.765-3.973 12.249 1.135 2.964.518 7.589-6.695 10.17-.117.145-.379.25-.33.45 4.707 3.414 10.992 8.178 13.826 12.828 1.244 2.65 3.801 13.763 3.801 13.763-4.715 4.231-13.391 13.141-13.584 15.659-.119.143-20.551.704-20.705.545-.83-.797-1.738-2.152-1.664-3.305.436-4.54 7.184-6.742 11.404-8.104 2.238-.819 5.172-2.245 5.299-4.713.07-1.847-1.359-3.419-3.234-4.122-2.461-.841-18.271-9.984-21.561-14.162-.408-.537-.627-.72-.627-.72l-20.635 13.261-12.795 13.247c-2.578.776-11.15 2.559-11.15 2.559-3.424.99-3.761 3.303-3.861 5.289-.329.463-18.791.798-18.98.529-4.908-3.193-1.521-7.271-.811-7.865 2.938-2.885 5.907-3.968 15.273-5.5 2.016-.349 6.969-1.826 8.939-4.166 2.964-2.759 2.203-6.641 2.332-10.27.158-1.946-.002-4.074.813-5.738l-.074-.059c.799-1.958 3.017-4 5.051-5.199l10.904-5.229 8.621-4.007c2.83-1.327 5.33-3.523 5.639-6.526-.23-2.143-2.133-3.599-4.053-4.698-6.625-3.495-13.074-6.064-20.457-7.879-2.864-.76-19.998-3.998-19.998-3.998-5.332-.564-12.268-2.96-15.612.639-.522.256-3.007-1.325-3.093-1.539-.227-.855-.18-2.528.239-3.34 3.528-5.324 6.637-6.048 13.327-6.664 2.182-.165 1.689-.017 3.803.189.348-.557-.769-3.274 2.322-5.933-4.26-3.667-7.113-7.619-10.541-11.696-1.857-1.924-4.393-2.518-7.194-2.259l-2.112.474c-.352-.154-2.321-8.225 2.77-10.107 3.826-1.373 9.139-2.093 12.717.261 3.797 2.356 5.453 5.714 8.769 8.498 2.577 2.603 6.089 5.037 9.599 6.852 1.324 1.281 2.479-.369 3.75-.615 3.523-1.39 8.322-.975 12.063-.767.889.221 12.709 4.056 22.969-3.082l-.148-.115c-2.523.818-5.854 2.155-8.445.837-1.479-1.182-.879-3.24-.332-4.568-.197-.594.336-1.827-.826-1.941-2.074-.041-4.197-.977-5.014-2.796-.766-1.465-.678-3.11-.705-4.796-.662-.945-1.207-2.034-.748-3.124 1.744-2.129 4.842-2.043 7.082-3.376 3.463-2.147 9.447-5.747 13.777-6.144 1.115-.393 2.734.295 4.023.096.549-.042 1.885.318 2.084.695z" fill="#00519e" stroke="#00519e" stroke-width=".0903"/><path d="m288.596 53.306c1.867 1.984-1.734 3.022-1.219 4.532 1.598 4.229.891 9.265-2.26 12.808-.609.539-1.301.945-2.154 1.032-1.371-.258-1.273-1.673-1.928-2.509-.502-1.309-2.234-2.604-3.797-2.791-2.355-.274-4.057 1.169-5.338 2.792-.645.543-1.639.654-2.537.556-.863-.126-1.303-.987-1.732-1.588-.764-1.216-.348-2.6-.297-3.949-.461-.566-.645-1.27-1.176-1.802-.09-.292.076-.516.172-.752.734-.53 1.766-.55 2.588-.93 4.518-2.337 8.941-4.872 14.779-4.795 1.571-.635 2.313-2.935 4.899-2.604z" fill="#fd0" stroke="#fd0" stroke-width=".0903"/><path d="m281.283 59.864c.109.35-.205.723-.596.772-1.002.218-1.918.787-3.031.641-1.012-.511-1.215-1.567-1.57-2.464.068-.345 3.937-.112 5.197 1.051z" fill="#00519e" stroke="#00519e" stroke-width=".0903"/><path d="m293.984 67.246c5.055 8.536 9.307 14.378 9.307 14.378-2.221 7.872-14.879 11.934-15.961 14.17-.959 2.848-3.963 5.193-6.855 6.974.75-4.428-.068-8.103-.068-8.103-1.834 8.013-14.766 14.204-22.281 14.131 6.516-2.482 9.906-10.247 9.906-10.247-4.807 6.098-17.488 6.771-21.221 6.007 1.602-.048 5.746-1.98 9.529-4.472.938-.772-16.516 4.417-24.901.082-1.127-.661-2.315-1.47-3.206-2.389 9.146 1.112 17.771-1.294 17.771-1.294-7.563-1.443-6.557-1.861-14.639-4.654 4.005-2.344 8.617-2.634 12.698-2.431 2.171.191 5.778-.231 7.688-.862l-.008-.125c-3.891-1.222-7.779-2.458-12.264-2.26 1.68-.932 6.479-1.513 8.504-1.934 7.635-1.915 11.412 3.578 18.643 1.171-.814 2.253-2.785 3.751-2.242 6.94 4.086-4.067 9.525-6.22 13.76-10.138 3.801-3.108 7.117-6.89 9.738-10.625 2.02-3.366 2.998-7.129 2.426-11.207.44-.638 2.544 4.97 3.676 6.888z" fill="#fd0" stroke="#fd0" stroke-width=".0903"/><path d="m277.975 69.315c.84.639 1.105 1.51 1.631 2.275l-.115.503c-1.764.963-4.039 2.346-6.207 1.223-.469-.41-.969-.415-1.34-.925.246-1.018 1.012-1.939 1.914-2.693.809-.563 1.654-1.054 2.639-1.303.706-.066.964.681 1.478.92z" fill="#fd0" stroke="#fd0" stroke-width=".0903"/><path d="m231.096 78.127.008.124c-1.822.274-3.498.896-4.809 1.964 4.672.303 8.123 1.904 12.154 3.754-.422.377-7.111 3.936-8.34 4.304-3.666-3.001-6.885-6.177-9.891-9.44 1.646-.853 3.433-2.423 3.978-4.09.312-1.056.639-2.186.303-3.362 2.132 2.285 3.931 4.753 6.597 6.746z" fill="#fd0" stroke="#fd0" stroke-width=".0903"/><path d="m322.762 93.867-6.459 11.837c-.842 2.428-1.684 5.162-.91 7.789.301 1.782-9.988 3.374-9.25 4.981-4.156-3.381-8.977-7.176-7.801-12.76.525-6.963 21.779-16.555 23.342-23.195.625-2.128.859-3.309 1.139-5.009 2.564 4.863 2.109 11.499-.061 16.357z" fill="#fd0" stroke="#fd0" stroke-width=".0903"/><path d="m287.658 118.468c-2.146.242-4.131 2.178-4.131 2.178 4.314.523 9.816 4.546 13.059 7.258-1.953.45-3.461 2.645-3.461 2.645 5.43.326 20.328 13.938 23.277 16.152 1.879 1.643 2.631 10.1 1.973 12.314-.918 2.941-4.326 4.854-7.699 5.076l-1.139.056c.83-1.064 1.51-2.241 1.002-3.642-1.459-3.926-6.682-11.333-10.805-12.016-3.863-.808-7.902-1.235-11.379-2.985-7.707-5.006-5.848-12.351-10.826-21.081-3.83-6.709-13.756-11.146-22.307-14.005 7.111.806 15.379.889 21.174-2.873.471-.205 8.264 5.465 11.262 10.923z" fill="#fd0" stroke="#fd0" stroke-width=".0903"/><path d="m278.438 135.574c.135 1.385-13.039 10.287-15.672 14.131-.785-1.557-2.055-3.155-3.744-4.281l-.135.13c-.689 3.795-3.141 11.881-13.277 19.777-2.199.493-4.721.104-6.933-.226l-2.028-.462c1.721-.868 3.459-2.549 4.33-4.167 3.687-5.383-1.074-13.394 4.887-18.014 1.744-1.276 3.629-2.328 5.594-3.242l12.924-6.073c10.488-5.281 9.316-8.001 9.619-8.945 2.823 3.224 3.825 7.295 4.435 11.372z" fill="#fd0" stroke="#fd0" stroke-width=".0903"/><path d="m249.563 62.071c6.533.513 7.416 5.168 9.215 6.976 2.645 2.581 4.855 3.338 9.816 3.008.27.08-2.486 1.562-4.631 2.1-2.924.726-9.814-.746-11.369-4.86-1.574-4.777-8.565-6.125-10.682-7.387z" fill="#00519e" stroke="#00519e" stroke-width=".0903"/><path d="m105.932 52.542c-.521 1.323-.96 2.885-1.417 3.406-3.041 2.285-4.253 5.925-5.841 9.876-5.135 8.716-10.238 14.18-9.193 17.7 2.239 5.754 11.86 12.054 15.604 14.723.311.478.413 20.386-5.356 26.102-2.25 1.889-4.819 4.042-8.319 3.195-1.517-.307-2.438-1.683-2.688-2.92.311-4.164 4.821-6.564 7.954-9.216 3.926-2.492 6.325-6.342 5.623-10.883-.329-2.323-1.658-4.336-2.843-6.391l-19.65-13.907c-3.457-3.009-5.01-9.06-2.651-14.999-.506-.213-.977.231-1.313.495-6.23 5.958-8.453 16.039-5.137 23.542 1.548 4.688 7.736 13.997 6.469 19.309-1.295 4.819 6.086 7.765 3.975 12.249-1.136 2.964-.521 7.589 6.695 10.17.114.145.376.25.329.45-4.712 3.414-10.994 8.178-13.829 12.828-1.242 2.65-3.796 13.763-3.796 13.763 4.712 4.231 13.389 13.141 13.583 15.659.117.143 20.551.704 20.702.545.832-.797 1.742-2.152 1.664-3.305-.435-4.54-7.185-6.742-11.403-8.104-2.238-.819-5.17-2.245-5.295-4.713-.073-1.847 1.356-3.419 3.234-4.122 2.457-.841 18.272-9.984 21.563-14.162.406-.537.623-.72.623-.72l20.634 13.261 12.798 13.247c2.578.776 11.147 2.559 11.147 2.559 3.424.99 3.76 3.303 3.86 5.289.331.463 18.791.798 18.986.529 4.906-3.193 1.518-7.271.807-7.865-2.936-2.885-5.908-3.968-15.273-5.5-2.016-.349-6.968-1.826-8.937-4.166-2.966-2.759-2.208-6.641-2.337-10.27-.154-1.946.002-4.074-.811-5.738l.077-.059c-.799-1.958-3.017-4-5.055-5.199l-10.903-5.229-8.616-4.007c-2.833-1.327-5.333-3.523-5.645-6.526.234-2.143 2.138-3.599 4.056-4.698 6.623-3.495 13.074-6.064 20.458-7.879 2.862-.76 19.998-3.998 19.998-3.998 5.33-.564 12.269-2.96 15.612.639.52.256 3.006-1.325 3.089-1.539.228-.855.181-2.528-.235-3.34-3.528-5.324-6.635-6.048-13.327-6.664-2.185-.165-1.694-.017-3.81.189-.341-.557.775-3.274-2.319-5.933 4.261-3.667 7.115-7.619 10.544-11.696 1.86-1.924 4.39-2.518 7.195-2.259l2.113.474c.348-.154 2.319-8.225-2.772-10.107-3.83-1.373-9.138-2.093-12.718.261-3.792 2.356-5.448 5.714-8.767 8.498-2.578 2.603-6.09 5.037-9.601 6.852-1.326 1.281-2.476-.369-3.748-.615-3.522-1.39-8.325-.975-12.063-.767-.889.221-12.708 4.056-22.97-3.082l.151-.115c2.522.818 5.853 2.155 8.442.837 1.479-1.182.885-3.24.336-4.568.194-.594-.342-1.827.828-1.941 2.069-.041 4.193-.977 5.013-2.796.761-1.465.678-3.11.704-4.796.661-.945 1.206-2.034.751-3.124-1.75-2.129-4.842-2.043-7.086-3.376-3.462-2.147-9.446-5.747-13.778-6.144-1.119-.393-2.732.295-4.023.096-.557-.042-1.892.318-2.092.695z" fill="#fd0" stroke="#fd0" stroke-width=".0903"/><path d="m107.907 53.306c-1.867 1.984 1.731 3.022 1.219 4.532-1.602 4.229-.893 9.265 2.258 12.808.613.539 1.301.945 2.152 1.032 1.372-.258 1.275-1.673 1.928-2.509.504-1.309 2.238-2.604 3.801-2.791 2.354-.274 4.053 1.169 5.335 2.792.646.543 1.638.654 2.535.556.865-.126 1.308-.987 1.735-1.588.766-1.216.346-2.6.298-3.949.461-.566.644-1.27 1.173-1.802.087-.292-.076-.516-.172-.752-.734-.53-1.77-.55-2.586-.93-4.521-2.337-8.942-4.872-14.782-4.795-1.566-.635-2.305-2.935-4.894-2.604z" fill="#00519e" stroke="#00519e" stroke-width=".0903"/><path d="m115.217 59.864c-.111.35.208.723.597.772 1.004.218 1.918.787 3.033.641 1.011-.511 1.213-1.567 1.57-2.464-.071-.345-3.94-.112-5.2 1.051z" fill="#fd0" stroke="#fd0" stroke-width=".0903"/><path d="m102.517 67.246c-5.055 8.536-9.308 14.378-9.308 14.378 2.222 7.872 14.88 11.934 15.964 14.17.96 2.848 3.96 5.193 6.857 6.974-.751-4.428.063-8.103.063-8.103 1.835 8.013 14.767 14.204 22.282 14.131-6.511-2.482-9.905-10.247-9.905-10.247 4.808 6.098 17.487 6.771 21.225 6.007-1.605-.048-5.748-1.98-9.534-4.472-.938-.772 16.517 4.417 24.902.082 1.125-.661 2.313-1.47 3.206-2.389-9.146 1.112-17.771-1.294-17.771-1.294 7.561-1.443 6.553-1.861 14.636-4.654-4.002-2.344-8.618-2.634-12.697-2.431-2.171.191-5.777-.231-7.688-.862l.008-.125c3.888-1.222 7.777-2.458 12.262-2.26-1.675-.932-6.479-1.513-8.506-1.934-7.633-1.915-11.411 3.578-18.64 1.171.817 2.253 2.785 3.751 2.239 6.94-4.082-4.067-9.524-6.22-13.758-10.138-3.801-3.108-7.113-6.89-9.735-10.625-2.019-3.366-2.997-7.129-2.422-11.207-.446-.638-2.547 4.97-3.68 6.888z" fill="#00519e" stroke="#00519e" stroke-width=".0903"/><path d="m118.525 69.315c-.84.639-1.104 1.51-1.628 2.275l.112.503c1.767.963 4.041 2.346 6.212 1.223.468-.41.97-.415 1.335-.925-.242-1.018-1.01-1.939-1.914-2.693-.806-.563-1.65-1.054-2.637-1.303-.71-.066-.967.681-1.48.92z" fill="#00519e" stroke="#00519e" stroke-width=".0903"/><path d="m165.404 78.127-.007.124c1.822.274 3.498.896 4.81 1.964-4.674.303-8.123 1.904-12.155 3.754.426.377 7.112 3.936 8.337 4.304 3.673-3.001 6.887-6.177 9.892-9.44-1.644-.853-3.425-2.423-3.972-4.09-.314-1.056-.642-2.186-.308-3.362-2.13 2.285-3.93 4.753-6.597 6.746z" fill="#00519e" stroke="#00519e" stroke-width=".0903"/><path d="m73.735 93.867 6.465 11.837c.842 2.428 1.685 5.162.908 7.789-.3 1.782 9.988 3.374 9.253 4.981 4.155-3.381 8.976-7.176 7.8-12.76-.527-6.963-21.781-16.554-23.344-23.194-.625-2.128-.861-3.309-1.138-5.009-2.564 4.862-2.108 11.498.056 16.356z" fill="#00519e" stroke="#00519e" stroke-width=".0903"/><path d="m108.845 118.468c2.144.242 4.128 2.178 4.128 2.178-4.313.523-9.814 4.546-13.058 7.258 1.955.45 3.46 2.645 3.46 2.645-5.425.326-20.33 13.938-23.276 16.152-1.88 1.643-2.63 10.1-1.974 12.314.919 2.941 4.323 4.854 7.701 5.076l1.139.056c-.832-1.064-1.512-2.241-1.004-3.642 1.457-3.926 6.68-11.333 10.804-12.016 3.866-.808 7.904-1.235 11.377-2.985 7.711-5.006 5.851-12.351 10.826-21.081 3.833-6.709 13.759-11.146 22.308-14.005-7.112.806-15.375.889-21.172-2.873-.466-.205-8.26 5.465-11.259 10.923z" fill="#00519e" stroke="#00519e" stroke-width=".0903"/><path d="m118.064 135.574c-.134 1.385 13.038 10.287 15.671 14.131.787-1.557 2.056-3.155 3.745-4.281l.134.13c.69 3.795 3.142 11.881 13.276 19.777 2.204.493 4.723.104 6.936-.226l2.024-.462c-1.715-.868-3.457-2.549-4.326-4.167-3.688-5.383 1.073-13.394-4.885-18.014-1.749-1.276-3.631-2.328-5.596-3.242l-12.923-6.073c-10.49-5.281-9.318-8.001-9.618-8.945-2.828 3.224-3.83 7.295-4.438 11.372z" fill="#00519e" stroke="#00519e" stroke-width=".0903"/><path d="m146.941 62.071c-6.535.513-7.417 5.168-9.217 6.976-2.648 2.581-4.854 3.338-9.816 3.008-.272.08 2.489 1.562 4.634 2.1 2.917.726 9.812-.746 11.364-4.86 1.576-4.777 8.566-6.125 10.688-7.387z" fill="#fd0" stroke="#fd0" stroke-width=".0903"/></g><path d="m291.73 193.581-37.351 84.796h82.758l9.287-21.408h-53.27l27.819-63.388z" fill="#fd0"/><path d="m94.856 278.544 13.339-30.788h41.125l8.478-19.617h-41.123l5.938-13.102h43.619l8.843-21.288h-73.103l-36.602 84.795z" fill="#fd0"/><path d="m244.217 256.653c.125-.178-21.876.243-29.825.243-13.82 0-18.257-7.451-12.681-19.871 5.686-12.66 19.195-19.568 32.775-21.04 7.744-.838 27.191-.428 27.457-.314l9.146-21.878c-.248-.076-23.275.034-33.641.034-28.793 0-54.259 15.226-65.136 39.457-8.527 18.99-7.339 45.771 25.487 45.771 10.826 0 36.914.003 37.119-.238z" fill="#fd0"/><path d="m286.51 188.569-37.354 84.795h82.76l9.291-21.403h-53.273l27.822-63.392z" fill="#fff"/><path d="m89.636 273.534 13.34-30.788h41.124l8.479-19.619h-41.124l5.937-13.102h43.621l8.843-21.287h-73.105l-36.601 84.796z" fill="#fff"/><path d="m238.994 251.646c.124-.178-21.871.238-29.824.238-13.82 0-18.255-7.451-12.68-19.869 5.686-12.659 19.195-19.569 32.779-21.041 7.742-.84 27.188-.427 27.453-.314l9.146-21.878c-.246-.082-23.273.032-33.641.032-28.792 0-54.256 15.228-65.134 39.458-8.529 18.991-7.339 45.77 25.488 45.77 10.828 0 36.917.004 37.119-.234z" fill="#fff"/><path d="m285.205 187.333-37.351 84.799h82.753l9.293-21.404h-53.271l27.818-63.395z" fill="#00519e"/><path d="m88.33 272.3 13.34-30.788h41.125l8.478-19.62h-41.124l5.939-13.102h43.619l8.847-21.289h-73.106l-36.602 84.799z" fill="#00519e"/><path d="m237.69 250.408c.128-.18-21.876.238-29.822.238-13.821 0-18.26-7.45-12.684-19.867 5.687-12.661 19.196-19.572 32.781-21.042 7.74-.838 27.187-.429 27.452-.312l9.148-21.882c-.248-.076-23.275.036-33.64.036-28.794 0-54.26 15.226-65.138 39.455-8.527 18.994-7.339 45.772 25.488 45.772 10.827 0 36.917.002 37.119-.24z" fill="#00519e"/><path d="m74.996 286.273h-8.289l-6.202 15.704h3.258l2.732-6.913h4.721l1.052-2.668h-4.722l1.365-3.458h5.03z" fill="#00519e"/><path d="m75.449 295.668c-1.514 3.833-.929 6.729 3.547 6.729 4.479 0 7.349-2.896 8.864-6.729l3.71-9.395h-3.26l-3.468 8.791c-.766 1.936-2.023 4.662-4.791 4.662-2.773 0-1.872-2.727-1.106-4.662l3.471-8.791h-3.258z" fill="#00519e"/><path d="m105.021 287.605c-.599-1.063-2.388-1.751-3.874-1.751-2.813 0-5.706 2.105-6.735 4.708-.961 2.438.209 3.46 2.028 4.293 1.12.477 2.533.937 1.894 2.561-.479 1.208-1.717 2.273-3.048 2.273-1.395 0-2.142-1.086-2.11-2.294l-2.869 1.938c.437 1.811 1.627 3.064 3.932 3.064 3.414 0 6.376-2.231 7.617-5.377 2.082-5.271-4.98-4.165-3.936-6.811.402-1.021 1.697-1.77 2.739-1.77 1.084 0 1.686.497 1.993 1.291z" fill="#00519e"/><path d="m118.955 287.605c-.599-1.063-2.39-1.751-3.874-1.751-2.816 0-5.708 2.105-6.735 4.708-.96 2.438.209 3.46 2.029 4.293 1.119.477 2.533.937 1.89 2.561-.477 1.208-1.716 2.273-3.047 2.273-1.395 0-2.142-1.086-2.108-2.294l-2.871 1.938c.438 1.811 1.629 3.064 3.934 3.064 3.414 0 6.376-2.231 7.617-5.377 2.083-5.271-4.981-4.165-3.938-6.811.404-1.021 1.697-1.77 2.739-1.77 1.086 0 1.686.497 1.994 1.291z" fill="#00519e"/><path clip-rule="evenodd" d="m123.77 295.147h.532c1.642 0 3.381.083 2.575 2.126-.806 2.037-2.396 2.25-4.148 2.25h-.686zm-5.957 6.83h5.121c3.035 0 5.882-1.371 7.101-4.457.685-1.728.536-3.603-1.303-3.935 1.288-.626 2.22-1.919 2.665-3.044 1.233-3.122-.222-4.268-3.324-4.268h-4.056zm8.489-13.247h.421c1.375 0 2.184.419 1.552 2.022-.642 1.622-1.591 2.062-3.186 2.062h-.398z" fill="#00519e" fill-rule="evenodd"/><path clip-rule="evenodd" d="m142.873 298.668-.023 3.309h3.482l.026-16.122h-2.527l-12.882 16.122h3.435l2.682-3.309zm.076-2.501h-3.966l4.093-5.711h.045z" fill="#00519e" fill-rule="evenodd"/><path d="m153.915 299.311 5.147-13.038h-3.26l-6.199 15.704h7.867l1.055-2.666z" fill="#00519e"/><path d="m165.098 299.311 5.148-13.038h-3.259l-6.2 15.704h7.869l1.052-2.666z" fill="#00519e"/><path d="m197.826 286.772c-.899-.582-2.055-.918-3.361-.918-4.899 0-9.8 3.937-11.561 8.397-1.71 4.333.266 8.146 4.963 8.146 1.353 0 2.728-.397 4.159-.938l1.44-3.646c-1.296.979-2.963 1.668-4.36 1.668-3.036 0-3.854-2.646-2.807-5.292 1.068-2.711 3.932-5.419 7.057-5.419 1.398 0 2.525.628 3.023 1.67z" fill="#00519e"/><path d="m200.555 299.311 5.145-13.038h-3.259l-6.198 15.704h7.867l1.055-2.666z" fill="#00519e"/><path d="m209.831 295.668c-1.515 3.833-.933 6.729 3.546 6.729s7.351-2.896 8.867-6.729l3.707-9.395h-3.258l-3.471 8.791c-.766 1.936-2.021 4.662-4.793 4.662-2.77 0-1.867-2.727-1.104-4.662l3.471-8.791h-3.258z" fill="#00519e"/><path clip-rule="evenodd" d="m230.287 295.147h.531c1.64 0 3.38.083 2.574 2.126-.805 2.037-2.395 2.25-4.146 2.25h-.688zm-5.957 6.83h5.121c3.033 0 5.884-1.371 7.1-4.457.684-1.728.538-3.603-1.305-3.935 1.289-.626 2.219-1.919 2.665-3.044 1.233-3.122-.221-4.268-3.323-4.268h-4.056zm8.489-13.247h.421c1.376 0 2.186.419 1.552 2.022-.642 1.622-1.59 2.062-3.188 2.062h-.395z" fill="#00519e" fill-rule="evenodd"/><path d="m251.854 299.311 5.146-13.038h-3.256l-6.201 15.704h7.867l1.055-2.666z" fill="#00519e"/><path d="m261.131 295.668c-1.516 3.833-.93 6.729 3.547 6.729 4.479 0 7.35-2.896 8.863-6.729l3.709-9.395h-3.256l-3.471 8.791c-.766 1.936-2.023 4.662-4.795 4.662-2.77 0-1.869-2.727-1.104-4.662l3.471-8.791h-3.258z" fill="#00519e"/><path d="m280.822 288.938h6.231l-12.508 13.039h12.123l1.053-2.666h-6.938l12.487-13.038h-11.393z" fill="#00519e"/><path d="m299.061 288.938h5.382l1.053-2.665h-8.639l-6.205 15.704h8.643l1.053-2.666h-5.383l1.676-4.247h5.187l1.051-2.668h-5.184z" fill="#00519e"/><path clip-rule="evenodd" d="m312.939 295.354c2.379-.356 4.338-2.354 5.131-4.354 1.324-3.356-.416-4.728-3.719-4.728h-4.408l-6.201 15.703h3.256l2.5-6.33h.045l1.555 6.33h3.945zm-.724-6.584h.439c1.73 0 2.889.38 2.125 2.314-.756 1.917-2.219 2.414-4.01 2.414h-.426z" fill="#00519e" fill-rule="evenodd"/><path d="m324.744 285.854-6.367 16.123h3.258l4.213-10.664h.043l4.466 10.979h2.352l6.324-16.019h-3.26l-4.169 10.561h-.047l-4.459-10.98z" fill="#00519e"/><path d="m21.929001 177.52699h352.457989" fill="none" stroke="#00519e" stroke-miterlimit="3.8637" stroke-width="2.0551"/></g></svg>