<?xml version="1.0" encoding="UTF-8" standalone="no"?>
<svg
   xmlns:dc="http://purl.org/dc/elements/1.1/"
   xmlns:cc="http://creativecommons.org/ns#"
   xmlns:rdf="http://www.w3.org/1999/02/22-rdf-syntax-ns#"
   xmlns:svg="http://www.w3.org/2000/svg"
   xmlns="http://www.w3.org/2000/svg"
   id="svg15555"
   version="1.1"
   viewBox="0 0 55.705412 66.675002"
   height="252"
   width="210.54015">
  <defs
     id="defs15549">
    <clipPath
       id="clipPath5796"
       clipPathUnits="userSpaceOnUse">
      <path
         id="path5794"
         d="m 959.662,513.325 h 32.641 v 39.13 h -32.641 z" />
    </clipPath>
    <clipPath
       id="clipPath5812"
       clipPathUnits="userSpaceOnUse">
      <path
         id="path5810"
         d="m 976.543,550.562 c -1.753,-0.246 -3.395,-0.357 -4.761,-0.344 v 0 l -0.597,-1.705 c 0,0 1.125,-0.412 1.534,-0.995 v 0 c 0.41,-0.583 0.252,-1.421 -0.043,-2.05 v 0 l -7.738,-16.235 c -0.541,-1.136 -1.215,-2.091 -2.525,-2.202 v 0 c -0.199,-0.016 -1.244,-0.097 -1.244,-0.097 v 0 l -0.602,-1.709 h 9.633 c -0.139,0.505 -0.216,1.036 -0.216,1.585 v 0 c 0,0.045 0.002,0.089 0.003,0.133 v 0 c -0.313,0.064 -0.655,0.156 -0.905,0.271 v 0 c -0.742,0.336 -0.922,0.838 -0.547,1.603 v 0 l 7.096,14.364 2.198,-6.501 7.709,1 -4.713,13.753 c -1.234,-0.343 -2.699,-0.647 -4.282,-0.871" />
    </clipPath>
    <linearGradient
       id="linearGradient5832"
       spreadMethod="pad"
       gradientTransform="matrix(0,26.208509,26.234735,0,960.56748,525.22453)"
       gradientUnits="userSpaceOnUse"
       y2="0"
       x2="1"
       y1="0"
       x1="0">
      <stop
         id="stop5828"
         offset="0"
         style="stop-opacity:1;stop-color:#ae0f0a" />
      <stop
         id="stop5830"
         offset="1"
         style="stop-opacity:1;stop-color:#e30613" />
    </linearGradient>
    <clipPath
       id="clipPath5842"
       clipPathUnits="userSpaceOnUse">
      <path
         id="path5840"
         d="m 959.662,513.325 h 32.641 v 39.13 h -32.641 z" />
    </clipPath>
    <linearGradient
       id="linearGradient5864"
       spreadMethod="pad"
       gradientTransform="matrix(15.025014,0,0,-15.010071,961.25852,514.65649)"
       gradientUnits="userSpaceOnUse"
       y2="0"
       x2="1"
       y1="0"
       x1="0">
      <stop
         id="stop5860"
         offset="0"
         style="stop-opacity:1;stop-color:#ffffff" />
      <stop
         id="stop5862"
         offset="1"
         style="stop-opacity:1;stop-color:#b2b2b2" />
    </linearGradient>
    <linearGradient
       id="linearGradient5884"
       spreadMethod="pad"
       gradientTransform="matrix(13.816203,0,0,-13.802472,976.81153,515.7955)"
       gradientUnits="userSpaceOnUse"
       y2="0"
       x2="1"
       y1="0"
       x1="0">
      <stop
         id="stop5880"
         offset="0"
         style="stop-opacity:1;stop-color:#b2b2b2" />
      <stop
         id="stop5882"
         offset="1"
         style="stop-opacity:1;stop-color:#ffffff" />
    </linearGradient>
    <clipPath
       id="clipPath5894"
       clipPathUnits="userSpaceOnUse">
      <path
         id="path5892"
         d="m 959.662,513.325 h 32.641 v 39.13 h -32.641 z" />
    </clipPath>
    <linearGradient
       id="linearGradient5916"
       spreadMethod="pad"
       gradientTransform="matrix(22.096342,0,0,-22.074301,969.22264,525.2243)"
       gradientUnits="userSpaceOnUse"
       y2="0"
       x2="1"
       y1="0"
       x1="0">
      <stop
         id="stop5912"
         offset="0"
         style="stop-opacity:1;stop-color:#007a30" />
      <stop
         id="stop5914"
         offset="1"
         style="stop-opacity:1;stop-color:#009b3e" />
    </linearGradient>
    <radialGradient
       id="radialGradient5936"
       spreadMethod="pad"
       gradientTransform="matrix(5.2522147,0,0,-5.2470134,975.97142,526.81734)"
       gradientUnits="userSpaceOnUse"
       r="1"
       cy="0"
       cx="0"
       fy="0"
       fx="0">
      <stop
         id="stop5932"
         offset="0"
         style="stop-opacity:1;stop-color:#575756" />
      <stop
         id="stop5934"
         offset="1"
         style="stop-opacity:1;stop-color:#000000" />
    </radialGradient>
    <radialGradient
       id="radialGradient5956"
       spreadMethod="pad"
       gradientTransform="matrix(4.8447008,0,0,-4.8905653,975.91319,526.82462)"
       gradientUnits="userSpaceOnUse"
       r="1"
       cy="0"
       cx="0"
       fy="0"
       fx="0">
      <stop
         id="stop5952"
         offset="0"
         style="stop-opacity:1;stop-color:#ffffff" />
      <stop
         id="stop5954"
         offset="1"
         style="stop-opacity:1;stop-color:#dadada" />
    </radialGradient>
  </defs>
  <metadata
     id="metadata15552">
    <rdf:RDF>
      <cc:Work
         rdf:about="">
        <dc:format>image/svg+xml</dc:format>
        <dc:type
           rdf:resource="http://purl.org/dc/dcmitype/StillImage" />
        <dc:title></dc:title>
      </cc:Work>
    </rdf:RDF>
  </metadata>
  <g
     transform="translate(-74.109033,-50.015402)"
     id="layer1">
    <g
       id="g15881">
      <g
         id="g5790"
         transform="matrix(1.6904296,0,0,-1.6904296,-1547.8685,984.16627)">
        <g
           id="g5792"
           clip-path="url(#clipPath5796)">
          <g
             id="g5798"
             transform="translate(990.6277,527.9504)">
            <path
               d="M 0,0 -2.716,7.949 C -2.901,8.5 -3.376,9.077 -4.085,9.407 l -5.18,15.098 -0.762,-0.212 c -1.239,-0.345 -2.682,-0.638 -4.174,-0.848 -1.568,-0.221 -3.099,-0.338 -4.428,-0.338 l -0.209,0.001 -0.601,0.006 -0.796,-2.273 -0.271,-0.781 0.774,-0.286 c 0.37,-0.137 0.971,-0.453 1.136,-0.69 0.162,-0.231 0.116,-0.716 -0.114,-1.204 L -26.447,1.646 c -0.569,-1.194 -1.067,-1.662 -1.837,-1.727 -0.198,-0.016 -1.239,-0.097 -1.239,-0.097 l -0.545,-0.042 -0.884,-2.511 c 0,0 -0.045,-0.346 0.032,-0.861 0.165,-1.117 0.901,-3.028 3.895,-3.927 l 0.14,-0.169 c 0.532,-0.646 1.447,-1.454 2.847,-1.773 l 0.14,-0.17 c 0.532,-0.646 1.447,-1.455 2.847,-1.774 l 0.14,-0.17 c 0.719,-0.872 2.016,-1.911 4.11,-1.911 h 0.35 c 0.424,-0.975 1.098,-1.139 1.502,-1.139 h 0.49 c 0.404,0 1.077,0.164 1.502,1.139 h 0.389 c 2.094,0 3.391,1.039 4.11,1.911 l 0.14,0.17 c 1.399,0.319 2.314,1.128 2.847,1.773 l 0.141,0.171 c 1.399,0.319 2.314,1.127 2.847,1.773 l 0.139,0.169 c 2.049,0.467 3.193,2.079 3.572,2.927 0.163,0.362 0.266,0.708 0.332,1 0.116,0.514 0.116,0.866 0.116,0.866 z m -13.655,8.619 c -1.462,-0.195 -2.86,-0.381 -3.929,-0.521 l 2.44,4.939 z"
               style="fill:#ededed;fill-opacity:1;fill-rule:nonzero;stroke:none"
               id="path5800" />
          </g>
          <g
             id="g5802"
             transform="translate(976.5432,550.5623)">
            <path
               d="m 0,0 c -1.753,-0.247 -3.395,-0.357 -4.761,-0.344 l -0.597,-1.705 c 0,0 1.125,-0.412 1.534,-0.996 0.409,-0.583 0.252,-1.42 -0.043,-2.049 l -7.738,-16.235 c -0.541,-1.136 -1.216,-2.092 -2.525,-2.202 -0.199,-0.016 -1.244,-0.097 -1.244,-0.097 l -0.602,-1.71 h 9.633 c -0.139,0.506 -0.217,1.036 -0.217,1.586 0,0.044 0.003,0.088 0.004,0.132 -0.314,0.064 -0.655,0.156 -0.905,0.271 -0.742,0.337 -0.923,0.839 -0.547,1.603 l 7.095,14.365 2.199,-6.502 7.709,1.001 L 4.282,0.871 C 3.048,0.527 1.583,0.223 0,0"
               style="fill:#e30a17;fill-opacity:1;fill-rule:nonzero;stroke:none"
               id="path5804" />
          </g>
        </g>
      </g>
      <g
         id="g5806"
         transform="matrix(1.6904296,0,0,-1.6904296,-1547.8685,984.16627)">
        <g
           id="g5808"
           clip-path="url(#clipPath5812)">
          <path
             d="m 927.365,509.378 h 103.007 v 47.363 H 927.365 Z"
             style="fill:#e30a17;fill-opacity:1;fill-rule:nonzero;stroke:none"
             id="path5814" />
        </g>
      </g>
      <g
         id="g5816"
         transform="matrix(1.6904296,0,0,-1.6904296,-1547.8685,984.16627)">
        <g
           id="g5818">
          <g
             id="g5824">
            <g
               id="g5826">
              <path
                 d="m 976.543,550.562 c -1.753,-0.246 -3.395,-0.357 -4.761,-0.344 v 0 l -0.597,-1.705 c 0,0 1.125,-0.412 1.534,-0.995 v 0 c 0.41,-0.583 0.252,-1.421 -0.043,-2.05 v 0 l -7.738,-16.235 c -0.541,-1.136 -1.215,-2.091 -2.525,-2.202 v 0 c -0.199,-0.016 -1.244,-0.097 -1.244,-0.097 v 0 l -0.602,-1.709 h 9.633 c -0.139,0.505 -0.216,1.036 -0.216,1.585 v 0 c 0,0.045 0.002,0.089 0.003,0.133 v 0 c -0.313,0.064 -0.655,0.156 -0.905,0.271 v 0 c -0.742,0.336 -0.922,0.838 -0.547,1.603 v 0 l 7.096,14.364 2.198,-6.501 7.709,1 -4.713,13.753 c -1.234,-0.343 -2.699,-0.647 -4.282,-0.871"
                 style="fill:url(#linearGradient5832);stroke:none"
                 id="path5834" />
            </g>
          </g>
        </g>
      </g>
      <g
         id="g5836"
         transform="matrix(1.6904296,0,0,-1.6904296,-1547.8685,984.16627)">
        <g
           id="g5838"
           clip-path="url(#clipPath5842)">
          <g
             id="g5844"
             transform="translate(981.4418,524.3584)">
            <path
               d="m 0,0 -0.136,-0.268 c -0.526,-1.036 -1.335,-1.891 -2.34,-2.472 -0.85,-0.491 -1.807,-0.767 -2.781,-0.801 -0.005,0 -0.1,-10e-4 -0.196,-10e-4 -0.073,0 -0.114,0.002 -0.241,0.002 -2.048,0.08 -3.934,1.211 -4.963,2.995 -0.052,0.091 -0.102,0.184 -0.15,0.277 L -10.943,0 h -9.974 c 0,0 0.078,-0.589 0.757,-1.473 0.485,-0.631 1.356,-1.455 2.777,-1.687 l 0.331,-0.401 c 0.506,-0.614 1.355,-1.327 2.656,-1.541 l 0.332,-0.402 c 0.506,-0.614 1.354,-1.327 2.656,-1.542 l 0.331,-0.402 c 0.604,-0.732 1.694,-1.605 3.462,-1.605 h 0.955 c 0.159,-0.666 0.434,-1.139 0.897,-1.139 h 0.49 c 0.462,0 0.738,0.473 0.897,1.139 h 0.994 c 1.767,0 2.858,0.873 3.462,1.605 l 0.331,0.402 c 1.301,0.215 2.15,0.928 2.656,1.542 l 0.332,0.402 c 1.302,0.214 2.15,0.927 2.656,1.541 l 0.33,0.401 c 1.677,0.273 2.588,1.37 2.999,2.007 C 9.771,-0.551 9.919,0 9.919,0 Z"
               style="fill:#000000;fill-opacity:1;fill-rule:nonzero;stroke:none"
               id="path5846" />
          </g>
        </g>
      </g>
      <g
         id="g5848"
         transform="matrix(1.6904296,0,0,-1.6904296,-1547.8685,984.16627)">
        <g
           id="g5850">
          <g
             id="g5856">
            <g
               id="g5858">
              <path
                 d="m 961.258,523.867 c 0,0 0.928,-2.241 3.607,-2.241 v 0 h 4.03 c 0.144,0 0.261,-0.117 0.261,-0.259 v 0 c 0,-0.141 -0.117,-0.257 -0.261,-0.257 v 0 h -4.127 c 0.529,-0.642 1.497,-1.428 3.084,-1.428 v 0 h 3.003 c 0.143,0 0.26,-0.116 0.26,-0.258 v 0 c 0,-0.141 -0.117,-0.257 -0.26,-0.257 v 0 h -3.1 c 0.529,-0.642 1.497,-1.429 3.084,-1.429 v 0 h 4.58 c 0.144,0 0.261,-0.116 0.261,-0.257 v 0 c 0,-0.141 -0.117,-0.257 -0.261,-0.257 v 0 h -0.342 c 0.029,-1.44 0.287,-2.568 0.602,-2.568 v 0 c 0.333,0 0.604,1.27 0.604,2.837 v 0 c 0,1.519 -0.255,2.76 -0.575,2.831 v 0 c -2.145,0.09 -4.199,1.241 -5.352,3.241 v 0 c -0.058,0.1 -0.113,0.201 -0.164,0.302 v 0 z m 9.485,-6.643 c 0.528,-0.642 1.496,-1.429 3.084,-1.429 v 0 h 0.862 c -0.066,0.45 -0.095,0.947 -0.102,1.429 v 0 z"
                 style="fill:url(#linearGradient5864);stroke:none"
                 id="path5866" />
            </g>
          </g>
        </g>
      </g>
      <g
         id="g5868"
         transform="matrix(1.6904296,0,0,-1.6904296,-1547.8685,984.16627)">
        <g
           id="g5870">
          <g
             id="g5876">
            <g
               id="g5878">
              <path
                 d="m 981.751,523.867 c -0.548,-1.083 -1.407,-2.025 -2.537,-2.679 v 0 c -0.764,-0.442 -1.58,-0.709 -2.403,-0.816 v 0 c 0.36,-0.631 0.452,-1.825 0.452,-2.879 v 0 c 0,-0.562 -0.026,-1.163 -0.104,-1.698 v 0 h 0.9 c 1.587,0 2.557,0.787 3.085,1.429 v 0 h -2.073 c -0.143,0 -0.26,0.116 -0.26,0.257 v 0 c 0,0.141 0.117,0.257 0.26,0.257 v 0 h 1.977 c 1.586,0 2.554,0.787 3.083,1.429 v 0 h -3.1 c -0.143,0 -0.26,0.116 -0.26,0.257 v 0 c 0,0.142 0.117,0.258 0.26,0.258 v 0 h 3.004 c 1.587,0 2.555,0.786 3.084,1.428 v 0 h -4.128 c -0.143,0 -0.26,0.116 -0.26,0.257 v 0 c 0,0.142 0.117,0.259 0.26,0.259 v 0 h 4.031 c 2.677,0 3.605,2.241 3.605,2.241 v 0 z"
                 style="fill:url(#linearGradient5884);stroke:none"
                 id="path5886" />
            </g>
          </g>
        </g>
      </g>
      <g
         id="g5900"
         transform="matrix(1.6904296,0,0,-1.6904296,-1547.8685,984.16627)">
        <g
           id="g5902">
          <g
             id="g5908">
            <g
               id="g5910">
              <path
                 d="m 984.973,536.737 c -1.233,-0.142 -9.066,-1.202 -12.353,-1.629 v 0 l -3.299,-6.68 c -0.077,-0.157 -0.095,-0.246 -0.098,-0.282 v 0 c 0.024,-0.023 0.086,-0.072 0.221,-0.133 v 0 c 0.144,-0.067 0.371,-0.134 0.632,-0.191 v 0 c 0.291,1.694 1.302,3.251 2.905,4.177 v 0 c 0.932,0.54 1.949,0.799 2.955,0.804 v 0 h 0.06 c 2.056,-0.01 4.054,-1.084 5.156,-2.996 v 0 c 0.538,-0.934 0.798,-1.952 0.802,-2.958 v 0 -0.062 c -0.003,-0.53 -0.076,-1.056 -0.216,-1.563 v 0 h 9.58 l -1.429,2.22 -2.81,8.177 c -0.149,0.448 -0.736,1.133 -1.803,1.133 v 0 c -0.097,0 -0.198,-0.006 -0.303,-0.017 m 1.144,-3.25 c -0.345,0.018 -0.766,0.424 -0.985,0.97 v 0 c -0.24,0.601 -0.144,1.145 0.215,1.215 v 0 c 0.36,0.069 0.846,-0.362 1.087,-0.963 v 0 c 0.241,-0.602 0.144,-1.146 -0.215,-1.215 v 0 c -0.025,-0.006 -0.052,-0.008 -0.079,-0.008 v 0 c -0.008,0 -0.015,0 -0.023,10e-4 m -2.569,1.78 0.172,-1.064 h -9.15 z m 3.747,-3.201 0.103,-1.869 -0.473,-0.023 -1.858,1.733 1.75,-0.8 z m -1.561,-3.746 c -0.168,0.42 -0.1,0.832 0.151,0.92 v 0 c 0.25,0.087 0.59,-0.183 0.758,-0.603 v 0 c 0.168,-0.42 0.1,-0.832 -0.15,-0.92 v 0 c -0.033,-0.011 -0.065,-0.016 -0.1,-0.016 v 0 c -0.235,0 -0.512,0.252 -0.659,0.619 m 2.292,0.064 c -0.148,0.373 -0.088,0.739 0.134,0.817 v 0 c 0.223,0.076 0.523,-0.163 0.673,-0.536 v 0 c 0.149,-0.372 0.088,-0.738 -0.133,-0.816 v 0 c -0.028,-0.009 -0.058,-0.014 -0.089,-0.014 v 0 h -10e-4 c -0.208,0 -0.454,0.224 -0.584,0.549"
                 style="fill:url(#linearGradient5916);stroke:none"
                 id="path5918" />
            </g>
          </g>
        </g>
      </g>
      <g
         id="g5920"
         transform="matrix(1.6904296,0,0,-1.6904296,-1547.8685,984.16627)">
        <g
           id="g5922">
          <g
             id="g5928">
            <g
               id="g5930">
              <path
                 d="m 970.725,526.817 c 0,-2.888 2.358,-5.242 5.241,-5.242 v 0 c 2.895,0 5.253,2.354 5.253,5.242 v 0 c 0,2.889 -2.358,5.242 -5.253,5.242 v 0 c -2.883,0 -5.241,-2.353 -5.241,-5.242"
                 style="fill:url(#radialGradient5936);stroke:none"
                 id="path5938" />
            </g>
          </g>
        </g>
      </g>
      <g
         id="g5940"
         transform="matrix(1.6904296,0,0,-1.6904296,-1547.8685,984.16627)">
        <g
           id="g5942">
          <g
             id="g5948">
            <g
               id="g5950">
              <path
                 d="m 974.347,531.372 c -0.182,-0.061 -0.415,-0.152 -0.556,-0.242 v 0 c 0.182,-0.455 0.445,-0.627 0.87,-0.849 v 0 l 0.03,-0.494 c -1.112,-0.172 -1.902,-1.101 -1.751,-2.374 v 0 l -0.374,-0.051 c -0.182,0.273 -0.253,0.394 -0.425,0.546 v 0 c -0.243,0.202 -0.415,0.324 -0.789,0.394 v 0 c -0.274,-0.919 -0.334,-1.969 0,-2.969 v 0 c 0.071,-0.223 0.253,-0.647 0.324,-0.738 v 0 c 0.728,0.353 1.133,0.97 1.123,1.869 v 0 c -0.01,0.151 -0.04,0.343 -0.091,0.565 v 0 l 0.334,0.051 c 0.203,-0.414 0.354,-0.637 0.618,-0.859 v 0 c 0.171,-0.141 0.363,-0.232 0.556,-0.312 v 0 l -0.112,-0.677 c -0.364,0 -0.749,-0.061 -1.021,-0.203 v 0 c -0.557,-0.292 -1.084,-0.818 -1.094,-0.949 v 0 c 0.091,-0.222 0.537,-0.666 0.709,-0.818 v 0 c 0.536,-0.495 1.113,-0.869 1.842,-1.07 v 0 c 0.658,-0.182 0.921,-0.193 0.991,-0.203 v 0 c 0.253,0.253 0.435,0.879 0.415,1.344 v 0 l 0.85,0.13 c 0.193,-0.282 0.436,-0.464 0.507,-0.514 v 0 c 0.252,-0.192 0.829,-0.405 1.031,-0.364 v 0 c 0.324,0.182 0.881,0.626 1.073,0.829 v 0 c 0.345,0.363 0.789,0.909 1.012,1.453 v 0 c 0,0.818 -0.617,1.313 -1.143,1.556 v 0 l 0.019,0.879 c 0.517,0 0.932,0.162 1.407,0.545 v 0 c 0.011,0.122 -0.131,0.536 -0.202,0.718 v 0 c -0.374,0.949 -1.123,1.868 -2.125,2.464 v 0 c -0.404,-0.101 -0.9,-0.748 -0.991,-1.203 v 0 c -0.071,-0.282 -0.061,-0.514 -0.061,-0.857 v 0 l -0.719,-0.112 c -0.061,0.091 -0.172,0.243 -0.212,0.283 v 0 c -0.264,0.323 -0.729,0.586 -1.275,0.647 v 0 l -0.01,0.393 c 0.131,-0.02 0.334,-0.05 0.495,-0.04 v 0 c 0.901,0.061 1.377,0.505 1.721,1.101 v 0 c 0.131,0.232 -0.091,0.283 -0.506,0.343 v 0 c -0.329,0.05 -0.619,0.076 -0.895,0.076 v 0 c -0.514,0 -0.982,-0.09 -1.575,-0.288 m 1.013,-5.534 c 0.606,0.121 1.457,0.636 1.548,1.888 v 0 c 0.01,0.152 -0.031,0.576 -0.102,0.737 v 0 l 0.669,0.111 c 0.323,-0.738 0.657,-0.949 1.366,-1.222 v 0 l -0.031,-0.797 c -0.273,0.07 -0.82,-0.011 -1.093,-0.132 v 0 c -0.931,-0.414 -1.406,-1.242 -1.174,-2.424 v 0 l -0.718,-0.131 c -0.122,0.374 -0.415,0.747 -0.689,0.96 v 0 c -0.171,0.131 -0.293,0.201 -0.617,0.313 v 0 l 0.071,0.656 c 0.093,-0.007 0.185,-0.012 0.277,-0.012 v 0 c 0.162,0 0.325,0.014 0.493,0.053 m -2.389,4.797 c -0.405,-0.343 -0.546,-0.475 -1.053,-1.172 v 0 c -0.05,-0.07 -0.313,-0.484 -0.354,-0.656 v 0 c 0.142,0.019 0.354,0.071 0.425,0.1 v 0 c 0.82,0.324 1.347,0.789 1.336,1.94 v 0 c -0.006,0.007 -0.013,0.01 -0.022,0.01 v 0 c -0.057,0 -0.183,-0.126 -0.332,-0.222"
                 style="fill:url(#radialGradient5956);stroke:none"
                 id="path5958" />
            </g>
          </g>
        </g>
      </g>
    </g>
  </g>
</svg>
