<?xml version="1.0" encoding="UTF-8" standalone="no"?>
<svg
   xmlns:dc="http://purl.org/dc/elements/1.1/"
   xmlns:cc="http://creativecommons.org/ns#"
   xmlns:rdf="http://www.w3.org/1999/02/22-rdf-syntax-ns#"
   xmlns:svg="http://www.w3.org/2000/svg"
   xmlns="http://www.w3.org/2000/svg"
   xmlns:sodipodi="http://sodipodi.sourceforge.net/DTD/sodipodi-0.dtd"
   xmlns:inkscape="http://www.inkscape.org/namespaces/inkscape"
   width="77.796211mm"
   height="88.106247mm"
   viewBox="0 0 77.796211 88.106247"
   version="1.1"
   id="svg7348"
   inkscape:version="1.0.1 (3bc2e813f5, 2020-09-07)"
   sodipodi:docname="FC Lahti logo.svg">
  <defs
     id="defs7342" />
  <sodipodi:namedview
     id="base"
     pagecolor="#ffffff"
     bordercolor="#666666"
     borderopacity="1.0"
     inkscape:pageopacity="0.0"
     inkscape:pageshadow="2"
     inkscape:zoom="0.35"
     inkscape:cx="63.650299"
     inkscape:cy="33.256013"
     inkscape:document-units="mm"
     inkscape:current-layer="layer1"
     inkscape:document-rotation="0"
     showgrid="false"
     inkscape:pagecheckerboard="true"
     inkscape:window-width="1267"
     inkscape:window-height="728"
     inkscape:window-x="83"
     inkscape:window-y="0"
     inkscape:window-maximized="0" />
  <metadata
     id="metadata7345">
    <rdf:RDF>
      <cc:Work
         rdf:about="">
        <dc:format>image/svg+xml</dc:format>
        <dc:type
           rdf:resource="http://purl.org/dc/dcmitype/StillImage" />
        <dc:title></dc:title>
      </cc:Work>
    </rdf:RDF>
  </metadata>
  <g
     inkscape:label="Layer 1"
     inkscape:groupmode="layer"
     id="layer1"
     transform="translate(-88.992525,-139.36768)">
    <path
       style="fill:#14110f;fill-opacity:1;fill-rule:nonzero;stroke:none;stroke-width:1.76621"
       d="m 161.97997,181.86719 4.80877,-8.42398 h -32.18511 c -1.09697,0 -2.15945,0.37249 -3.01498,1.06244 l -7.90656,6.31287 23.6576,-41.45084 h -9.61757 l -19.44906,34.07553 -9.22435,7.37531 23.65073,-41.45084 h -9.61069 l -19.44906,34.07553 -9.231232,7.37531 23.650722,-41.45084 h -9.61759 l -19.442165,34.07553 4.808797,8.42398 h 5.01577 l -2.504432,4.40177 4.8019,8.42398 h 5.02958 l -2.51135,4.40175 4.8019,8.42404 h 38.8981 l 4.80883,-8.42404 h -32.18514 c -1.09008,0 -2.15947,0.37249 -3.01499,1.05559 l -7.90656,6.31286 6.7199,-11.7702 h 38.89811 l 4.80882,-8.42398 h -32.18514 c -1.09699,0 -2.15947,0.37248 -3.01499,1.06248 l -7.90657,6.31282 6.71988,-11.77707 z m -51.02704,4.40177 -9.25194,7.41671 6.7406,-11.81848 h 5.02267 z m 0,0"
       id="path6707" />
    <path
       style="fill:#14110f;fill-opacity:1;fill-rule:nonzero;stroke:none;stroke-width:1.76621"
       d="m 146.3255,219.3027 v 3.00805 h -5.07094 v -3.00805 h -3.09779 v 7.85824 h 3.09779 v -2.5872 h 5.07094 v 2.5872 h 3.09778 v -7.85824 z m 0,0"
       id="path6709" />
    <path
       style="fill:#14110f;fill-opacity:1;fill-rule:nonzero;stroke:none;stroke-width:1.76621"
       d="m 163.69097,219.30961 h 3.09777 v 7.85824 h -3.09777 z m 0,0"
       id="path6711" />
    <path
       style="fill:#14110f;fill-opacity:1;fill-rule:nonzero;stroke:none;stroke-width:1.76621"
       d="m 158.10256,219.3027 h -7.17524 v 2.41474 h 4.07747 v 5.4435 h 3.09777 v -5.4435 h 4.08439 v -2.41474 z m 0,0"
       id="path6713" />
    <path
       style="fill:#14110f;fill-opacity:1;fill-rule:nonzero;stroke:none;stroke-width:1.76621"
       d="m 114.51295,219.3027 v 7.85824 h 8.88628 v -2.5596 h -5.7885 v -5.29864 z m 0,0"
       id="path6715" />
    <path
       style="fill:#14110f;fill-opacity:1;fill-rule:nonzero;stroke:none;stroke-width:1.76621"
       d="m 99.079269,223.23528 c 0,2.33882 1.876601,4.23613 5.995471,4.23613 1.45574,0.0299 2.9046,-0.20677 4.27754,-0.68991 v -3.02879 c -0.54503,0.54507 -1.75241,1.15908 -3.80149,1.15908 -1.01421,0 -3.37373,-0.17223 -3.37373,-1.75932 0,-1.57992 2.36644,-1.75931 3.38063,-1.75931 2.02838,0 3.24266,0.62781 3.79459,1.17289 v -2.87699 c -1.37294,-0.48313 -2.8218,-0.71754 -4.27754,-0.68996 -4.11887,0 -5.995471,1.8973 -5.995471,4.23618"
       id="path6717" />
    <path
       style="fill:#14110f;fill-opacity:1;fill-rule:nonzero;stroke:none;stroke-width:1.76621"
       d="m 128.69786,219.3027 -4.6846,7.85824 h 3.53932 l 1.0832,-1.91797 1.04869,1.91797 h 1.84899 l 1.0418,-1.91797 1.07628,1.91797 h 3.58072 l -4.67769,-7.85824 z m 0.79343,4.41551 1.11768,-2.13185 1.11077,2.13185 -1.11767,2.2285 z m 0,0"
       id="path6719" />
    <path
       style="fill:#14110f;fill-opacity:1;fill-rule:nonzero;stroke:none;stroke-width:1.76621"
       d="m 88.992525,219.3027 v 7.85824 h 3.104674 v -2.33191 h 5.940278 v -2.06292 h -5.940278 v -1.39363 h 5.940278 v -2.06978 z m 0,0"
       id="path6721" />
  </g>
</svg>
