<?xml version="1.0" encoding="UTF-8"?>
<!DOCTYPE svg PUBLIC "-//W3C//DTD SVG 1.1//EN" "http://www.w3.org/Graphics/SVG/1.1/DTD/svg11.dtd">
<!-- Creator: CorelDRAW X7 -->
<svg xmlns="http://www.w3.org/2000/svg" xml:space="preserve" width="251.216070853" height="398.063705321" version="1.1" style="shape-rendering:geometricPrecision; text-rendering:geometricPrecision; image-rendering:optimizeQuality; fill-rule:evenodd; clip-rule:evenodd"
viewBox="0 0 3111 4929"
 xmlns:xlink="http://www.w3.org/1999/xlink">
 <defs>
  <style type="text/css">
   <![CDATA[
    .fil2 {fill:#027CC5}
    .fil0 {fill:#D9BB89}
    .fil3 {fill:#ED1B24}
    .fil1 {fill:white}
   ]]>
  </style>
 </defs>
 <g id="Layer_x0020_1">
  <metadata id="CorelCorpID_0Corel-Layer"/>
  <g id="_1291626736">
   <path class="fil0" d="M1500 4891c-734,-402 -1500,-1146 -1500,-2043 0,-528 0,-1057 0,-1585l0 -69 61 -32c467,-245 966,-372 1493,-380l1 0 2 0c527,8 1026,135 1492,380l62 32 0 69c0,528 0,1057 0,1585 0,897 -766,1641 -1501,2043l-55 30 -55 -30z"/>
   <path class="fil1" d="M115 1901l0 -638c455,-239 935,-358 1440,-366 505,8 986,127 1441,366l0 638c-480,-267 -960,-400 -1441,-400 -480,0 -961,133 -1440,400z"/>
   <path class="fil2" d="M2511 1778c161,62 323,139 485,232l0 838c0,416 -185,823 -485,1179l0 -2249z"/>
   <path class="fil1" d="M1906 1621c169,23 339,64 509,123l0 2390c-149,159 -321,307 -509,439l0 -2952z"/>
   <path class="fil2" d="M600 4027c-301,-356 -485,-763 -485,-1179l0 -838c162,-93 323,-170 485,-232l0 2249z"/>
   <path class="fil1" d="M1205 4573c-188,-132 -360,-280 -509,-439l0 -2390c169,-58 339,-99 509,-123l0 2952z"/>
   <path class="fil2" d="M1555 4790c-87,-47 -172,-98 -254,-152l0 -3029c85,-8 169,-13 254,-13 85,0 170,5 255,13l0 3029c-82,54 -167,105 -255,152z"/>
   <path class="fil0" d="M2639 1887l-370 256c-51,-90 -127,-163 -232,-196 -189,-59 -361,49 -482,186 -121,-137 -293,-245 -481,-186 -105,33 -181,106 -232,196l-370 -256c0,309 0,618 0,927 0,189 53,354 185,491 138,144 494,310 738,433 50,31 104,58 160,81 57,-23 110,-50 161,-81 244,-123 600,-289 738,-433 131,-137 185,-302 185,-491 0,-309 0,-618 0,-927z"/>
   <path class="fil2" d="M351 1631l71 -30 -41 -99 97 -44 -25 -59 -99 37 -7 -16c-4,-10 -9,-20 10,-28l98 -41 -25 -59c-45,12 -122,44 -122,44 -31,12 -62,41 -41,91l84 204zm153 -219c32,92 74,130 143,107 56,-18 75,-29 95,-47l-20 -56c0,0 -35,16 -75,30 -37,13 -49,3 -70,-58 -27,-76 -13,-79 18,-90 38,-14 78,-21 78,-21l-19 -56c-37,-1 -50,1 -104,20 -74,26 -76,84 -46,171zm361 38l74 -17 -22 -103c2,1 37,-1 53,-3 36,-5 86,-24 66,-114 -18,-82 -68,-81 -107,-73l-126 28 62 282zm40 -175l-13 -60 43 -9c14,-3 22,5 26,24 4,20 2,32 -13,35l-43 10zm199 123l76 -9 -12 -107 24 2 49 97 86 -10 -62 -102c19,-11 40,-23 32,-92 -8,-71 -47,-87 -98,-81l-129 15 34 287zm57 -174l-6 -58 41 -4c18,-2 23,7 25,24 2,21 2,31 -18,33l-42 5zm187 146l76 -4 -15 -288 -76 4 15 288zm100 -195c1,19 5,84 80,83l36 -1c17,0 21,6 21,17l0 7c0,11 -6,16 -23,16 -37,1 -87,-1 -102,-2l1 59c39,13 48,13 122,12 39,-1 80,-17 78,-90l0 -13c0,-32 -15,-84 -75,-83l-37 1c-22,0 -24,-6 -24,-19l0 -4c-1,-17 7,-18 29,-18 26,0 69,0 94,2l-1 -59c-29,-10 -64,-16 -122,-11 -44,3 -78,28 -77,79l0 24zm242 190l77 6 8 -105 67 6 -8 104 76 7 24 -288 -77 -6 -9 114 -67 -5 9 -115 -76 -6 -24 288zm280 -195l72 13 -40 216 76 14 39 -217 74 14 13 -68 -221 -40 -13 68zm206 263l74 19 70 -280 -74 -19 -70 280zm105 24l74 23 43 -137 36 162 73 23 87 -275 -73 -23 -45 140 -34 -165 -74 -24 -87 276zm248 77l73 30 34 -40 72 30 -3 53 72 30 31 -300 -84 -35 -195 232zm149 -63l52 -63 -11 80 -41 -17z"/>
   <path class="fil0" d="M1143 0l79 245 258 0 -209 151 80 245 -208 -152 -209 152 81 -245 -209 -151 258 0 79 -245zm825 0l79 245 258 0 -209 151 80 245 -208 -152 -208 152 80 -245 -209 -151 258 0 79 -245z"/>
   <path class="fil3" d="M565 2064l237 164c-34,90 -49,187 -49,277 1,362 122,720 349,984 -271,-141 -537,-274 -537,-675l0 -750zm948 164c0,494 0,988 0,1482 -422,-187 -666,-766 -667,-1205 0,-439 351,-677 667,-277zm84 0c0,494 0,988 0,1482 423,-187 667,-766 668,-1205 0,-439 -352,-677 -668,-277zm949 -164l-237 164c34,90 49,187 48,277 0,362 -121,720 -348,984 271,-141 537,-274 537,-675l0 -750z"/>
   <g>
    <path class="fil1" d="M1833 4270c17,-13 34,-27 50,-42 14,-12 27,-25 39,-38 11,-11 22,-24 30,-38 4,-7 6,-16 6,-24 0,-5 0,-10 -3,-13 -5,-4 -12,-5 -18,-5 -5,0 -10,1 -15,2 -6,2 -12,4 -17,6 -5,2 -10,5 -15,8 -3,2 -7,5 -11,7l-7 5 -43 0 0 -116 16 -8c14,-7 32,-11 47,-15 20,-5 41,-7 61,-7 37,0 76,7 104,32 27,24 39,57 39,93 0,23 -6,46 -16,68 -12,24 -30,46 -49,66 -2,2 -5,4 -7,6l86 0 0 117 -566 0 0 -94 11 -8c18,-15 35,-29 52,-44 13,-12 26,-25 39,-38 10,-11 22,-24 29,-38 5,-7 7,-16 7,-24 0,-5 0,-10 -4,-13 -4,-4 -12,-5 -17,-5 -5,0 -10,1 -15,2 -6,2 -12,4 -18,6 -4,2 -10,5 -14,8 -4,2 -8,5 -11,7l-8 5 -43 0 0 -116 16 -8c15,-7 32,-11 48,-15 20,-5 40,-7 61,-7 37,0 75,7 104,32 27,24 38,57 38,93 0,23 -5,46 -16,68 -11,24 -30,46 -49,65 -2,3 -4,5 -6,7l85 0 0 13zm-518 -15c-6,-3 -12,-6 -18,-11l-1 0c-14,-12 -26,-27 -34,-43 -9,-20 -12,-43 -12,-65 0,-19 3,-38 11,-57 6,-17 17,-33 30,-46 13,-13 29,-24 47,-31 19,-7 39,-10 60,-10 20,0 40,2 59,9 18,7 34,17 47,31 16,17 27,36 34,58 8,25 11,52 11,78 0,28 -3,56 -11,82 -7,25 -18,49 -34,69 -17,20 -38,35 -61,46 -27,12 -57,15 -86,15 -11,0 -23,0 -34,-2 -8,-1 -18,-2 -26,-4l-21 -6 0 -113 39 0zm-247 7l0 -112 -67 0 0 -109 29 0c8,0 17,-1 25,-2 4,0 10,-1 14,-3 2,-1 3,-2 5,-4 1,-2 1,-6 1,-8l2 -27 124 0 0 265 66 0 0 112 -266 0 0 -112 67 0z"/>
    <path class="fil0" d="M1238 4346l-208 0 0 -56 66 0 0 -169 -66 0 0 -52c9,0 19,0 29,-2 9,-1 17,-3 23,-6 6,-3 12,-8 15,-14 4,-5 6,-13 7,-21l69 0 0 264 65 0 0 56zm282 -178c0,27 -3,52 -9,75 -6,22 -16,42 -29,58 -14,16 -31,29 -51,38 -20,9 -45,13 -74,13 -10,0 -20,-1 -31,-2 -11,-1 -18,-2 -21,-3l0 -63 6 0c4,2 9,4 17,6 7,2 17,4 30,4 10,0 20,-2 30,-5 9,-2 18,-7 24,-13 8,-6 14,-14 18,-23 5,-10 9,-21 10,-36 -11,8 -22,13 -31,17 -10,4 -22,6 -36,6 -11,0 -22,-2 -32,-5 -10,-3 -19,-7 -27,-13 -11,-9 -19,-20 -26,-34 -6,-13 -9,-31 -9,-52 0,-17 3,-32 8,-46 6,-14 14,-26 24,-37 10,-10 23,-18 37,-24 15,-6 32,-9 50,-9 18,0 35,3 49,8 14,5 27,13 37,24 12,12 21,28 27,47 6,19 9,42 9,69zm-79 -12c0,-17 -1,-31 -4,-42 -3,-12 -7,-20 -12,-27 -4,-4 -8,-7 -12,-9 -5,-2 -10,-3 -15,-3 -5,0 -9,0 -14,2 -4,2 -9,6 -13,10 -3,5 -6,11 -9,19 -3,8 -4,16 -4,26 0,10 1,19 4,25 3,7 6,12 11,16 4,4 9,7 15,8 6,2 12,3 19,3 6,0 12,-1 19,-3 6,-1 11,-3 15,-5 0,-1 0,-4 0,-6 0,-3 0,-8 0,-14zm364 190l-232 0 0 -52c20,-16 37,-31 53,-45 15,-14 29,-27 41,-40 15,-16 26,-31 33,-43 7,-12 11,-25 11,-38 0,-15 -5,-27 -14,-35 -8,-7 -20,-11 -36,-11 -8,0 -16,1 -23,2 -7,2 -14,5 -21,8 -8,3 -14,7 -19,10 -5,3 -9,6 -11,8l-6 0 0 -70c9,-4 22,-9 41,-13 19,-5 38,-7 55,-7 37,0 66,9 85,25 19,17 29,41 29,72 0,19 -5,37 -13,55 -9,18 -24,38 -44,58 -13,13 -25,25 -37,34 -12,10 -21,17 -26,22l134 0 0 60zm276 0l-232 0 0 -52c20,-16 37,-31 53,-45 16,-14 29,-27 41,-40 16,-16 27,-31 34,-43 6,-12 10,-25 10,-38 0,-15 -4,-27 -13,-35 -9,-7 -21,-11 -37,-11 -8,0 -15,1 -22,2 -7,2 -15,5 -22,8 -7,3 -13,7 -18,10 -5,3 -9,6 -12,8l-6 0 0 -70c9,-4 23,-9 42,-13 19,-5 37,-7 54,-7 38,0 66,9 85,25 20,17 29,41 29,72 0,19 -4,37 -13,55 -9,18 -23,38 -43,58 -13,13 -26,25 -38,34 -12,10 -20,17 -26,22l134 0 0 60z"/>
   </g>
  </g>
 </g>
</svg>
