<?xml version="1.0" encoding="UTF-8" standalone="no"?>
<!-- Created with Inkscape (http://www.inkscape.org/) -->

<svg
   xmlns:dc="http://purl.org/dc/elements/1.1/"
   xmlns:cc="http://creativecommons.org/ns#"
   xmlns:rdf="http://www.w3.org/1999/02/22-rdf-syntax-ns#"
   xmlns:svg="http://www.w3.org/2000/svg"
   xmlns="http://www.w3.org/2000/svg"
   xmlns:sodipodi="http://sodipodi.sourceforge.net/DTD/sodipodi-0.dtd"
   xmlns:inkscape="http://www.inkscape.org/namespaces/inkscape"
   width="92.201241"
   height="84.88166"
   viewBox="0 0 24.394911 22.458273"
   version="1.1"
   id="svg8"
   inkscape:version="0.92.3 (2405546, 2018-03-11)"
   sodipodi:docname="fc pyunk.svg">
  <defs
     id="defs2" />
  <sodipodi:namedview
     id="base"
     pagecolor="#00ffff"
     bordercolor="#666666"
     borderopacity="1.0"
     inkscape:pageopacity="0"
     inkscape:pageshadow="2"
     inkscape:zoom="0.35"
     inkscape:cx="324.91367"
     inkscape:cy="77.280101"
     inkscape:document-units="mm"
     inkscape:current-layer="layer1"
     showgrid="false"
     units="px"
     fit-margin-left="0.1"
     fit-margin-top="0.1"
     fit-margin-right="0.1"
     fit-margin-bottom="0.1"
     inkscape:window-width="1920"
     inkscape:window-height="1017"
     inkscape:window-x="-8"
     inkscape:window-y="-8"
     inkscape:window-maximized="1" />
  <metadata
     id="metadata5">
    <rdf:RDF>
      <cc:Work
         rdf:about="">
        <dc:format>image/svg+xml</dc:format>
        <dc:type
           rdf:resource="http://purl.org/dc/dcmitype/StillImage" />
        <dc:title></dc:title>
      </cc:Work>
    </rdf:RDF>
  </metadata>
  <g
     inkscape:label="Layer 1"
     inkscape:groupmode="layer"
     id="layer1"
     transform="translate(-45.925915,-63.142876)">
    <g
       id="Layer1000"
       transform="matrix(0.04293657,0,0,0.04293657,45.343825,56.298058)">
      <g
         id="Layer1001">
        <path
           inkscape:connector-curvature="0"
           id="path3713"
           style="fill:#006180;fill-rule:evenodd"
           d="M 297.624,211.8384 A 113.652,113.5444 0 0 1 411.276,325.3827 113.652,113.5444 0 1 1 297.624,211.8384 Z" />
        <path
           inkscape:connector-curvature="0"
           id="path3715"
           style="fill:#0085af;fill-rule:evenodd"
           d="M 297.624,214.2473 A 111.243,111.1354 0 0 1 408.867,325.3827 111.243,111.1354 0 1 1 297.624,214.2473 Z" />
        <path
           inkscape:connector-curvature="0"
           id="path3717"
           style="fill:#ffffff;fill-rule:evenodd"
           d="m 297.624,214.2473 c 15.6933,0 30.6258,3.2544 44.1658,9.115 l -15.702,15.6406 c -8.9142,-4.6917 -19.0287,-7.1887 -28.8008,-7.0714 -9.1467,0.1098 -18.419,2.0139 -28.007,7.057 l -15.7284,-15.667 c 13.5153,-5.8349 28.4153,-9.0742 44.0724,-9.0742 z m 46.253,10.0416 c 26.7968,12.2601 47.8801,34.8386 58.1475,62.6466 l -23.1024,18.402 -35.728,-24.623 -15.6805,-40.1264 z m 53.963,149.3829 c -17.9909,37.1875 -56.1096,62.8463 -100.216,62.8463 -44.0573,0 -82.1387,-25.6026 -100.1543,-62.7227 l 19.2371,-15.0679 38.6978,27.213 1.225,-1.7412 -39.8322,-28.0109 c -3.0514,-8.1379 -4.3584,-16.2876 -4.4862,-23.8787 -0.1484,-8.7931 2.0232,-18.246 4.9256,-24.94 l 35.957,-24.7807 43.3625,24.7611 v 39.558 h 2.1292 V 307.414 l 43.4609,-24.8356 35.8507,24.7075 c 2.9396,6.6898 5.1488,16.0669 5.0004,24.9348 -0.1269,7.5597 -1.4249,16.7398 -4.5903,23.952 l -38.1639,26.9949 1.2302,1.7384 37.1004,-26.2431 z M 193.2784,286.7906 c 10.2988,-27.7729 31.3905,-50.3152 58.1841,-62.5444 l 16.2863,16.2227 -15.5119,40.1936 -35.7672,24.6496 z" />
      </g>
      <path
         inkscape:connector-curvature="0"
         id="path3720"
         style="fill:#ca6521;fill-rule:evenodd"
         d="m 239.9637,373.5028 c 14.9112,-10.682 14.3854,-22.1966 11.829,-29.0532 -4.737,-12.7065 -17.8836,-17.8364 -30.222,-12.3028 -4.0471,1.8148 -6.6,-2.2647 -4.2992,-5.2776 11.2932,-14.7901 26.6079,-19.8686 39.572,-19.7369 6.3764,0.0646 12.2714,1.3458 17.6437,3.5133 9.3764,3.783 17.1622,10.523 23.149,19.4266 5.9868,-8.9036 13.7726,-15.6436 23.149,-19.4266 5.3723,-2.1675 11.2672,-3.4487 17.6436,-3.5133 12.9642,-0.1317 28.2788,4.9471 39.5721,19.7369 2.3004,3.0129 -0.1638,7.0034 -4.2105,5.1886 -12.3385,-5.5332 -25.5737,-0.3144 -30.3107,12.3918 -2.5561,6.8566 -3.0823,18.3712 11.829,29.0532 -14.3228,0.1452 -29.1801,0.3569 -43.916,0.5538 l 0.0251,0.3331 c -4.5469,-0.046 -9.148,-0.099 -13.7816,-0.1558 -4.6336,0.0568 -9.2347,0.1098 -13.7816,0.1558 l 0.025,-0.3331 c -14.7358,-0.1969 -29.5931,-0.4086 -43.9159,-0.5538 z" />
      <path
         inkscape:connector-curvature="0"
         id="path3722"
         style="fill:#f2b911;fill-rule:evenodd"
         d="m 310.0318,373.0907 -0.0257,-0.3003 c 13.8654,-0.1847 27.7306,-0.3838 41.5963,-0.5335 -4.5485,-3.8181 -8.3813,-8.5743 -9.996,-14.3703 -1.2873,-4.6198 -1.0002,-9.4069 0.6694,-13.8857 5.0017,-13.4161 19.0846,-18.9256 32.0404,-13.1154 2.6964,1.2093 4.2504,-1.1586 2.6636,-3.2364 -9.3436,-12.2366 -23.0818,-19.3891 -38.5378,-19.232 -5.9171,0.0598 -11.689,1.2061 -17.176,3.4198 -2.0814,0.8399 -4.0965,1.836 -6.0292,2.9768 -7.3657,4.3481 -13.1479,10.4765 -17.6006,17.5824 -4.4528,-7.1059 -10.2349,-13.2343 -17.6006,-17.5824 -1.9327,-1.1408 -3.9479,-2.1369 -6.0292,-2.9768 -5.487,-2.2137 -11.2589,-3.36 -17.176,-3.4198 -15.4563,-0.1571 -29.1942,6.995 -38.5379,19.232 -1.5841,2.0743 0.0501,4.5372 2.7524,3.3253 12.9448,-5.8053 26.9465,-0.3992 31.9517,13.0265 1.6699,4.4788 1.9567,9.2659 0.6697,13.8857 -1.615,5.796 -5.4479,10.5522 -9.9963,14.3703 13.8657,0.1497 27.7308,0.3488 41.5963,0.5335 l -0.0257,0.3003 c 4.1318,-0.043 8.2637,-0.0905 12.3956,-0.1413 4.1319,0.0508 8.2637,0.0983 12.3956,0.1413 z m -78.5101,-50.1709 c 4.2587,1.1117 7.2552,1.0191 10.6913,0.1342 3.052,-0.7856 6.6543,-3.2463 8.3399,-5.203 -2.972,-0.7706 -6.9806,-1.1528 -10.2475,-0.3116 -3.2283,0.8316 -6.3882,2.8754 -8.7837,5.3804 z m 7.6441,-3.8759 c 0.7179,0.4526 1.1955,1.253 1.1955,2.1646 0,0.4287 -0.1056,0.8328 -0.2923,1.1877 0.6058,-0.1008 1.227,-0.2338 1.8717,-0.3999 2.0052,-0.5161 4.5465,-1.9487 6.3924,-3.5036 -2.548,-0.4336 -5.398,-0.5026 -7.7553,0.1044 -0.4744,0.1221 -0.9456,0.2721 -1.412,0.4468 z m -3.5267,3.5242 c -0.2476,-0.3938 -0.3915,-0.8602 -0.3915,-1.3596 l 6e-4,-0.063 c -0.5168,0.3646 -1.015,0.7529 -1.49,1.1598 0.6408,0.1189 1.2642,0.2069 1.8809,0.2628 z m 128.2966,0.3517 c -4.2587,1.1117 -7.2552,1.0191 -10.6913,0.1342 -3.0521,-0.7856 -6.6543,-3.2463 -8.3399,-5.203 2.972,-0.7706 6.9806,-1.1528 10.2474,-0.3116 3.2284,0.8316 6.3883,2.8754 8.7838,5.3804 z m -7.6441,-3.8759 c -0.7179,0.4526 -1.1955,1.253 -1.1955,2.1646 0,0.4287 0.1056,0.8328 0.2922,1.1877 -0.6057,-0.1008 -1.2269,-0.2338 -1.8716,-0.3999 -2.0052,-0.5161 -4.5465,-1.9487 -6.3924,-3.5036 2.548,-0.4336 5.398,-0.5026 7.7553,0.1044 0.4744,0.1221 0.9456,0.2721 1.412,0.4468 z m 3.5267,3.5242 c 0.2476,-0.3938 0.3915,-0.8602 0.3915,-1.3596 l -6e-4,-0.063 c 0.5168,0.3646 1.015,0.7529 1.49,1.1598 -0.6408,0.1189 -1.2642,0.2069 -1.8809,0.2628 z" />
      <g
         id="Layer1002">
        <path
           inkscape:connector-curvature="0"
           id="path3724"
           style="fill:#ca6420;fill-rule:evenodd"
           d="m 224.8951,376.6946 c -6.2345,-7.6924 -14.1523,-10.8774 -21.9147,-10.7364 -7.7626,0.141 -15.1556,3.3877 -20.9927,9.2277 L 14.1732,543.0919 c 5.6936,8.4346 20.3099,8.2451 26.0931,2.4549 l 3.1612,-3.1651 c 8.2789,9.6924 21.2019,8.8236 27.0454,2.9351 l 3.0948,-3.1185 c 6.6703,8.9604 20.7249,9.8633 27.5458,2.8872 l 2.769,-2.832 c 6.601,9.0417 20.5634,9.555 27.3461,2.9126 l 2.6402,-2.5856 c 6.424,8.452 19.9489,9.5518 27.6442,2.2985 0.917,-0.864 1.4945,-1.8491 2.2891,-2.8166 5.188,-6.3141 11.8895,-8.9328 18.1287,-8.8798 11.6768,0.0989 20.0938,8.4269 22.4668,17.7208 1.4498,-58.04 19.0476,-116.1689 20.4975,-174.2088 z" />
        <path
           inkscape:connector-curvature="0"
           id="path3726"
           style="fill:#f2b911;fill-rule:evenodd"
           d="m 223.5984,377.1404 c -5.2285,-6.2682 -12.3086,-10.048 -20.5945,-9.8977 -7.6811,0.1397 -14.7005,3.4419 -20.1076,8.8515 L 15.8656,543.2162 c 0.5412,0.6616 1.1537,1.2613 1.825,1.7964 2.3213,1.8498 5.2571,2.8696 8.1793,3.2335 4.3458,0.5412 10.1065,-0.3286 13.3821,-3.5046 l -0.0158,-0.0157 111.8125,-111.9448 0.909,0.9077 -107.635,107.7625 0.0819,0.096 c 3.45,4.0391 8.1895,6.5858 13.5253,6.8617 4.1097,0.2127 8.6707,-1.014 11.6311,-3.9972 l 4.1461,-4.1779 0.0157,0.0212 92.3274,-92.2885 0.908,0.9087 -92.46,92.4212 0.1002,0.1345 c 3.0269,4.0667 7.7999,6.4519 12.8022,6.9077 4.2639,0.3887 8.8728,-0.6485 12.1326,-3.5232 l -6e-4,-6e-4 2.3184,-2.3213 2.1742,-2.2237 0.0199,0.0273 77.2992,-77.3917 0.909,0.9077 -77.4415,77.534 0.1085,0.1487 c 2.9794,4.0815 7.6908,6.4018 12.6732,6.8152 4.4945,0.3726 9.4454,-0.8403 12.7361,-4.0628 l 2.2827,-2.2352 63.8812,-63.9577 0.909,0.9077 -62.6208,62.6954 0.1101,0.1448 c 1.5784,2.0766 3.645,3.7005 5.9965,4.8193 6.3606,3.0259 14.5312,2.2345 19.7436,-2.6785 0.8268,-0.7792 1.4557,-1.8183 2.1774,-2.6971 4.782,-5.8201 11.5271,-9.4136 19.1324,-9.3491 9.1047,0.0771 17.1629,5.1344 21.3834,12.8155 2.4575,-56.2985 18.781,-111.2077 20.2733,-167.5729 z" />
      </g>
      <g
         id="Layer1003">
        <path
           inkscape:connector-curvature="0"
           id="path3729"
           style="fill:#ca6420;fill-rule:evenodd"
           d="m 370.3805,376.3734 c 6.2345,-7.6924 14.1523,-10.8774 21.9147,-10.7364 7.7626,0.141 15.1556,3.3877 20.9927,9.2277 l 167.8145,167.906 c -5.6936,8.4346 -20.31,8.2451 -26.0931,2.4549 l -3.1612,-3.1651 c -8.2789,9.6924 -21.2019,8.8236 -27.0454,2.9351 l -3.0948,-3.1185 c -6.6703,8.9604 -20.7249,9.8633 -27.5458,2.8872 l -2.769,-2.832 c -6.601,9.0417 -20.5634,9.555 -27.3461,2.9126 l -2.6402,-2.5856 c -6.424,8.452 -19.9489,9.5518 -27.6442,2.2985 -0.917,-0.864 -1.4945,-1.8491 -2.2891,-2.8166 -5.188,-6.3141 -11.8895,-8.9328 -18.1287,-8.8798 -11.6768,0.0989 -20.0938,8.4269 -22.4668,17.7208 -1.4499,-58.04 -19.0476,-116.1689 -20.4975,-174.2088 z" />
        <path
           inkscape:connector-curvature="0"
           id="path3731"
           style="fill:#f2b911;fill-rule:evenodd"
           d="m 371.6772,376.8192 c 5.2284,-6.2682 12.3086,-10.048 20.5945,-9.8977 7.6811,0.1397 14.7005,3.4419 20.1076,8.8515 L 579.41,542.895 c -0.5412,0.6616 -1.1538,1.2613 -1.8251,1.7964 -2.3212,1.8498 -5.257,2.8696 -8.1792,3.2335 -4.3458,0.5412 -10.1065,-0.3286 -13.3821,-3.5046 l 0.0158,-0.0157 -111.8125,-111.9448 -0.909,0.9077 107.635,107.7625 -0.0819,0.096 c -3.45,4.0391 -8.1896,6.5858 -13.5253,6.8618 -4.1097,0.2126 -8.6707,-1.0141 -11.6312,-3.9973 l -4.146,-4.1778 -0.0157,0.0211 -92.3274,-92.2885 -0.908,0.9087 92.46,92.4212 -0.1002,0.1346 c -3.0269,4.0666 -7.7999,6.4518 -12.8023,6.9076 -4.2638,0.3887 -8.8727,-0.6485 -12.1325,-3.5232 l 6e-4,-6e-4 -2.3184,-2.3213 -2.1742,-2.2237 -0.0199,0.0273 -77.2992,-77.3917 -0.909,0.9077 77.4415,77.534 -0.1085,0.1487 c -2.9795,4.0815 -7.6908,6.4018 -12.6732,6.8152 -4.4945,0.3726 -9.4454,-0.8403 -12.7361,-4.0628 l -2.2827,-2.2352 -63.8813,-63.9577 -0.9089,0.9077 62.6208,62.6954 -0.1102,0.1448 c -1.5783,2.0766 -3.6449,3.7005 -5.9964,4.8193 -6.3606,3.026 -14.5312,2.2345 -19.7436,-2.6785 -0.8268,-0.7792 -1.4557,-1.8183 -2.1774,-2.6971 -4.782,-5.8201 -11.5271,-9.4136 -19.1324,-9.3491 -9.1047,0.0771 -17.1629,5.1344 -21.3834,12.8155 -2.4575,-56.2985 -18.781,-111.2077 -20.2733,-167.5729 z" />
      </g>
      <path
         inkscape:connector-curvature="0"
         id="path3734"
         style="fill:#006180;fill-rule:evenodd"
         d="m 203.3967,368.8333 h 188.7144 v 218.2699 c 0,7.9737 0.8007,21.674 -13.1132,33.8856 l -56.5547,49.6355 c -1.6812,1.4756 -2.9724,2.8738 -4.465,4.0545 -2.9951,2.3692 -6.0022,4.1373 -9.9481,5.4311 -7.1113,2.3316 -13.1154,2.215 -19.8785,0.3344 -3.0893,-0.8592 -6.3408,-2.577 -8.8779,-4.3757 -2.383,-1.6895 -4.0786,-3.4294 -6.2454,-5.3306 l -56.5595,-49.6181 c -11.866,-10.41 -13.0721,-22.4771 -13.0721,-28.0428 z" />
      <path
         inkscape:connector-curvature="0"
         id="path3736"
         style="fill:#0085af;fill-rule:evenodd"
         d="m 205.8057,371.2422 v 221.8349 c 0,10.3715 4.4694,19.4045 12.2517,26.2319 l 31.8682,27.9569 V 371.2422 Z m 46.5289,278.1372 22.2824,19.5477 c 2.0026,1.7573 3.8688,3.6299 6.05,5.1764 2.3682,1.6789 5.3236,3.2393 8.1299,4.0198 6.5048,1.8087 12.0224,1.8157 18.4826,-0.3025 3.501,-1.148 6.3324,-2.7598 9.2042,-5.0313 1.526,-1.2074 2.9001,-2.6852 4.3705,-3.9757 L 343.0367,649.345 V 371.2422 h -90.7021 z m 93.1111,-2.1485 31.9633,-28.0527 c 5.3832,-4.7244 9.2289,-10.3598 11.0311,-17.3247 1.3054,-5.0453 1.262,-9.6172 1.262,-14.7503 v -215.861 h -44.2564 z" />
      <path
         inkscape:connector-curvature="0"
         id="path3738"
         style="fill:#ffffff;fill-rule:evenodd"
         d="m 205.8057,371.2422 v 221.8349 c 0,10.3715 4.4694,19.4045 12.2517,26.2319 l 6.0103,5.2724 V 371.2422 Z m 163.5303,255.0213 8.073,-7.0853 c 5.3832,-4.7244 9.2289,-10.3598 11.0311,-17.3247 1.3054,-5.0453 1.262,-9.6172 1.262,-14.7503 V 371.2422 H 369.336 Z" />
      <g
         id="Layer1004">
        <path
           inkscape:connector-curvature="0"
           id="path3740"
           style="fill:#f2b911;fill-rule:evenodd"
           d="m 68.5069,613.3916 h 126.3723 v 30.918 H 68.5069 l 15.4457,-15.4572 z" />
        <path
           inkscape:connector-curvature="0"
           id="path3742"
           style="fill:#dd9f23;fill-rule:evenodd"
           d="m 174.5775,623.4531 20.3017,-10.0615 0.0438,41.1254 h -20.382 z" />
        <path
           inkscape:connector-curvature="0"
           id="path3744"
           style="fill:#f2b911;fill-rule:evenodd"
           d="M 526.9434,613.3916 H 400.5711 v 30.918 h 126.3723 l -15.4457,-15.4572 z" />
        <path
           inkscape:connector-curvature="0"
           id="path3746"
           style="fill:#dd9f23;fill-rule:evenodd"
           d="m 420.8728,623.4531 -20.3017,-10.0615 -0.0438,41.1254 h 20.382 z" />
        <path
           inkscape:connector-curvature="0"
           id="path3748"
           style="fill:#f2b911;fill-rule:evenodd"
           d="M 174.7386,623.4971 V 654.516 H 420.5033 V 623.4971 Z" />
      </g>
      <g
         id="Layer1005">
        <path
           inkscape:connector-curvature="0"
           id="path3751"
           style="fill:#f7bd0b;fill-rule:evenodd"
           d="m 273.4754,426.0718 22.973,23.1593 c -6.652,-8.9572 -8.5872,-16.3281 -8.5872,-25.5024 0,-8.8326 4.5546,-18.2912 9.7596,-24.6352 5.4712,6.2553 9.7599,15.9863 9.7599,24.9018 0,8.9383 -2.7906,17.9722 -8.4405,25.1789 l 22.9023,-22.8355 v 47.2622 c -3.4008,6.6363 -10.3447,13.6403 -18.4832,15.9519 6.1201,-0.899 14.1371,-3.7782 20.4695,-12.6834 1.4631,16.2031 -1.1325,30.0123 -6.0401,41.1309 -5.1401,11.645 -14.591,18.7531 -19.3142,19.3733 v 13.8722 l 2.6598,19.9476 -4.3438,4.1675 v -38.0403 c -5.5403,-0.9421 -15.0089,-8.6123 -20.14,-21.3731 -5.1877,-12.9012 -6.4609,-28.0591 -5.0971,-39.3993 6.1834,9.238 14.3691,12.1416 20.5685,13.0246 -7.4042,-2.0303 -13.7575,-7.9265 -18.6465,-15.9719 z" />
        <path
           inkscape:connector-curvature="0"
           id="path3753"
           style="fill:#f2b911;fill-rule:evenodd"
           d="m 297.5883,399.1334 0.0325,-0.0399 c 5.4712,6.2553 9.7599,15.9863 9.7599,24.9018 0,8.9383 -2.7906,17.9722 -8.4405,25.1789 l 22.9023,-22.8355 v 47.2622 c -3.4008,6.6363 -10.3447,13.6403 -18.4832,15.9519 6.1201,-0.899 14.1371,-3.7782 20.4695,-12.6834 1.4631,16.2031 -1.1325,30.0123 -6.0401,41.1309 -5.0196,11.372 -14.1503,18.4184 -18.9744,19.319 -0.404,0.0755 -0.8399,0.0906 -1.226,0.098 z" />
      </g>
      <path
         inkscape:connector-curvature="0"
         id="path3756"
         style="fill:#f2b911;fill-rule:evenodd"
         d="m 294.6629,160.0332 6.4834,13.3275 14.6787,2.0477 -10.6717,10.2846 2.5885,14.593 -13.0789,-6.9713 -13.079,6.9713 2.5885,-14.593 -10.6717,-10.2846 14.6787,-2.0477 z" />
      <g
         id="Layer1006">
        <path
           inkscape:connector-curvature="0"
           id="path3758"
           style="fill:#ffffff;fill-rule:evenodd"
           d="m 235.4155,635.7395 h -0.9022 c -0.2274,-0.6466 -0.6267,-1.3333 -1.1977,-2.064 -0.5747,-0.7304 -1.1178,-1.1297 -1.6327,-1.1975 -0.2357,-0.0321 -0.547,-0.06 -0.9343,-0.0838 -0.3913,-0.0241 -0.7504,-0.036 -1.078,-0.036 h -2.5827 v 6.5152 h 1.6487 c 0.467,0 0.8704,-0.0517 1.2138,-0.1558 0.343,-0.1076 0.6465,-0.2952 0.9141,-0.5666 0.1956,-0.1956 0.3832,-0.5232 0.5669,-0.9783 0.1834,-0.4552 0.2955,-0.8464 0.3312,-1.1737 h 0.8903 v 6.9825 h -0.8903 c -0.028,-0.3514 -0.1516,-0.7786 -0.3591,-1.2816 -0.2117,-0.503 -0.3912,-0.8383 -0.539,-1.0021 -0.2277,-0.2473 -0.5152,-0.4349 -0.8663,-0.5547 -0.3514,-0.1198 -0.7705,-0.1799 -1.2616,-0.1799 h -1.6487 v 5.4973 c 0,0.2794 0.0517,0.519 0.1558,0.7188 0.1037,0.1995 0.3073,0.3591 0.6025,0.4831 0.1719,0.0716 0.4073,0.1356 0.7066,0.1956 0.2997,0.0559 0.5991,0.1038 0.8943,0.1317 v 0.9141 h -8.9463 v -0.9141 c 0.2274,-0.0199 0.5267,-0.0559 0.9022,-0.096 0.3713,-0.0437 0.6347,-0.0957 0.7824,-0.1597 0.2795,-0.1076 0.4751,-0.2595 0.5869,-0.4551 0.1076,-0.1956 0.1635,-0.4471 0.1635,-0.7503 v -11.7054 c 0,-0.2672 -0.0518,-0.4988 -0.1475,-0.6986 -0.0999,-0.1956 -0.2996,-0.3633 -0.6029,-0.495 -0.2197,-0.0957 -0.5071,-0.1795 -0.8662,-0.2595 -0.3594,-0.0758 -0.6309,-0.1278 -0.8184,-0.1516 v -0.9103 h 14.9147 z" />
        <path
           inkscape:connector-curvature="0"
           id="path3760"
           style="fill:#ffffff;fill-rule:evenodd"
           d="m 245.2843,648.3471 c -1.2176,0 -2.3553,-0.1956 -3.4172,-0.591 -1.058,-0.3912 -1.984,-0.962 -2.7706,-1.7126 -0.7706,-0.7308 -1.3812,-1.6369 -1.8244,-2.7186 -0.4433,-1.078 -0.6668,-2.2677 -0.6668,-3.5612 0,-1.2854 0.2235,-2.4793 0.6706,-3.5729 0.4513,-1.094 1.0779,-2.0441 1.8925,-2.8465 0.7943,-0.7905 1.7486,-1.4014 2.8625,-1.8324 1.1178,-0.4314 2.3113,-0.6508 3.5807,-0.6508 0.9183,0 1.7566,0.1118 2.5153,0.3354 0.7545,0.2235 1.3934,0.475 1.9163,0.7545 l 0.7265,-0.6428 h 1.0179 l 0.1041,6.0562 h -1.0301 c -0.583,-1.8485 -1.2855,-3.2017 -2.1039,-4.068 -0.8184,-0.8662 -1.8167,-1.2976 -2.9942,-1.2976 -1.4653,0 -2.583,0.6427 -3.3455,1.9323 -0.7626,1.2935 -1.1458,3.1018 -1.1458,5.4334 0,1.3175 0.1317,2.4433 0.3913,3.3774 0.2633,0.9302 0.6028,1.6808 1.022,2.2477 0.4551,0.5949 0.9899,1.0298 1.6047,1.3054 0.6151,0.2794 1.2976,0.4153 2.0483,0.4153 1.0898,0 2.0637,-0.2955 2.9142,-0.8865 0.8544,-0.5949 1.6326,-1.493 2.3354,-2.6907 l 1.006,0.6067 c -0.3353,0.6868 -0.7185,1.3015 -1.1457,1.8405 -0.431,0.5431 -0.9263,1.0102 -1.4852,1.4014 -0.6186,0.4272 -1.2973,0.7625 -2.0438,1.006 -0.7426,0.2396 -1.6211,0.3594 -2.6351,0.3594 z" />
        <path
           inkscape:connector-curvature="0"
           id="path3762"
           style="fill:#ffffff;fill-rule:evenodd"
           d="m 275.3538,635.46 c 0,0.9344 -0.1956,1.7406 -0.5788,2.4154 -0.3874,0.6745 -0.9183,1.2215 -1.597,1.6407 -0.7024,0.4394 -1.5051,0.7545 -2.4032,0.9501 -0.9022,0.1956 -1.9124,0.2917 -3.0382,0.2917 h -1.3532 v 4.6666 c 0,0.2798 0.0517,0.5233 0.1558,0.7307 0.1037,0.2075 0.3074,0.3713 0.6026,0.4992 0.1557,0.0597 0.4114,0.1275 0.7586,0.1956 0.3514,0.0716 0.6508,0.1198 0.8904,0.1397 v 0.9141 h -8.9945 v -0.9141 c 0.2274,-0.0199 0.5268,-0.0559 0.9023,-0.096 0.3713,-0.0437 0.6346,-0.0957 0.7824,-0.1597 0.3032,-0.1236 0.503,-0.2752 0.6029,-0.4551 0.0957,-0.1795 0.1474,-0.431 0.1474,-0.7503 v -11.7054 c 0,-0.2753 -0.0479,-0.511 -0.1436,-0.7105 -0.0918,-0.1956 -0.2955,-0.3632 -0.6067,-0.4949 -0.2197,-0.0961 -0.5072,-0.1799 -0.8705,-0.2515 -0.3632,-0.0758 -0.6346,-0.124 -0.8142,-0.1478 v -0.9103 h 9.158 c 2.144,0 3.7487,0.3392 4.8067,1.0221 1.0619,0.6825 1.5928,1.7245 1.5928,3.1297 z m -4.5629,0.5949 c 0,-1.2456 -0.2515,-2.1716 -0.7545,-2.7784 -0.5033,-0.6029 -1.3975,-0.9064 -2.683,-0.9064 h -0.97 v 7.2899 h 0.4911 c 1.2774,0 2.2516,-0.2955 2.9181,-0.8865 0.6668,-0.5868 0.9983,-1.4929 0.9983,-2.7186 z" />
        <path
           inkscape:connector-curvature="0"
           id="path3764"
           style="fill:#ffffff;fill-rule:evenodd"
           d="m 294.1133,632.2185 c -0.2794,0.0318 -0.539,0.0838 -0.7744,0.1516 -0.2316,0.072 -0.4551,0.1677 -0.6668,0.2955 -0.3353,0.1837 -0.6305,0.4272 -0.8942,0.7185 -0.2595,0.2914 -0.5149,0.619 -0.7664,0.9742 -0.503,0.7426 -1.0381,1.5488 -1.5928,2.4151 -0.5589,0.8704 -1.166,1.8286 -1.8206,2.8744 -0.4271,0.6629 -0.6905,1.1698 -0.7904,1.525 -0.0957,0.3556 -0.1439,0.9704 -0.1439,1.8405 v 2.3515 c 0,0.2836 0.052,0.5271 0.1558,0.7384 0.1079,0.2117 0.3073,0.3835 0.6029,0.5152 0.1316,0.0517 0.4153,0.1237 0.8424,0.2155 0.4269,0.0877 0.7465,0.1436 0.946,0.1558 v 0.9141 h -9.2499 v -0.9141 c 0.2197,-0.0122 0.531,-0.044 0.9421,-0.0918 0.4073,-0.0479 0.6948,-0.0999 0.8583,-0.1639 0.2874,-0.1236 0.4872,-0.2913 0.591,-0.4949 0.1037,-0.2075 0.1596,-0.459 0.1596,-0.7545 v -2.9264 c 0,-0.2554 -0.004,-0.4831 -0.0119,-0.6787 -0.008,-0.1956 -0.036,-0.3591 -0.0838,-0.4908 -0.0559,-0.1478 -0.1478,-0.3353 -0.2795,-0.5669 -0.1317,-0.2316 -0.3035,-0.5271 -0.5152,-0.8942 -0.5987,-1.0542 -1.1816,-2.0522 -1.7444,-2.9942 -0.5589,-0.9424 -1.094,-1.8286 -1.6008,-2.6551 -0.2637,-0.431 -0.531,-0.7744 -0.8024,-1.0339 -0.2675,-0.2634 -0.5431,-0.475 -0.8226,-0.6388 -0.2116,-0.1157 -0.467,-0.2075 -0.7663,-0.2673 -0.2994,-0.0639 -0.5711,-0.1037 -0.8146,-0.1198 v -0.9103 h 9.5094 v 0.9103 c -0.8743,0.0238 -1.4612,0.0838 -1.7644,0.1837 -0.3035,0.0958 -0.4593,0.2313 -0.4593,0.4031 0,0.0839 0.0601,0.2554 0.1719,0.5149 0.1117,0.2557 0.3154,0.6549 0.6028,1.1897 0.2634,0.5072 0.6508,1.2058 1.1618,2.0958 0.5107,0.8904 1.1258,1.9285 1.8443,3.1221 1.4811,-2.3473 2.4989,-3.9842 3.0501,-4.9185 0.5547,-0.9302 0.8303,-1.501 0.8303,-1.7126 0,-0.2634 -0.1596,-0.4671 -0.4831,-0.6068 -0.3234,-0.1397 -0.8502,-0.2316 -1.5729,-0.2714 v -0.9103 h 6.1519 z" />
        <path
           inkscape:connector-curvature="0"
           id="path3766"
           style="fill:#ffffff;fill-rule:evenodd"
           d="m 313.2361,632.2185 c -0.2236,0.0238 -0.5509,0.0758 -0.9742,0.1596 -0.4272,0.08 -0.7824,0.2236 -1.0699,0.4272 -0.2994,0.1956 -0.5069,0.5429 -0.6267,1.05 -0.1198,0.5069 -0.1837,1.2694 -0.1837,2.2834 v 6.176 c 0,1.8164 -0.6148,3.2778 -1.8443,4.3834 -1.2337,1.11 -2.8625,1.6609 -4.8906,1.6609 -2.3633,0 -4.1916,-0.5351 -5.485,-1.6009 -1.2935,-1.0699 -1.9404,-2.5589 -1.9404,-4.4672 v -8.4915 c 0,-0.2755 -0.0559,-0.5071 -0.1596,-0.7027 -0.1038,-0.1956 -0.3074,-0.3713 -0.6029,-0.5268 -0.2036,-0.0999 -0.451,-0.1837 -0.7465,-0.2438 -0.2993,-0.0636 -0.5389,-0.1076 -0.7265,-0.1317 v -0.8862 h 8.7028 v 0.8862 c -0.2515,0.0161 -0.503,0.0479 -0.7625,0.088 -0.2554,0.0437 -0.5191,0.1076 -0.7824,0.1956 -0.2955,0.0919 -0.495,0.2474 -0.5949,0.4671 -0.1037,0.2197 -0.1558,0.4631 -0.1558,0.7345 v 8.3756 c 0,1.6448 0.3636,2.8426 1.0902,3.5932 0.7265,0.7465 1.7765,1.1216 3.1577,1.1216 1.3573,0 2.4192,-0.4153 3.1936,-1.2414 0.7706,-0.8265 1.1579,-2.0403 1.1579,-3.6491 v -5.6248 c 0,-0.9983 -0.0677,-1.7448 -0.2036,-2.2397 -0.1397,-0.495 -0.3472,-0.8502 -0.6267,-1.0699 -0.2036,-0.1719 -0.555,-0.3273 -1.058,-0.4671 -0.503,-0.1397 -0.8582,-0.2277 -1.058,-0.2595 v -0.9103 h 7.19 z" />
        <path
           inkscape:connector-curvature="0"
           id="path3768"
           style="fill:#ffffff;fill-rule:evenodd"
           d="m 333.157,632.2185 c -0.2193,0.0238 -0.5309,0.0678 -0.9379,0.1317 -0.4034,0.0597 -0.7705,0.2117 -1.0978,0.4551 -0.2875,0.2117 -0.4953,0.5708 -0.6151,1.0818 -0.1195,0.5111 -0.1796,1.2617 -0.1796,2.2516 v 11.857 h -2.0839 l -10.3396,-12.827 v 7.7887 c 0,0.9662 0.0636,1.7007 0.1956,2.2037 0.1275,0.503 0.3353,0.8705 0.6228,1.1059 0.2113,0.1715 0.5467,0.3235 1.006,0.4552 0.459,0.1316 0.8264,0.2235 1.1017,0.2675 v 0.9141 h -7.1341 v -0.9141 c 0.3035,-0.0199 0.6507,-0.08 1.0461,-0.1677 0.3912,-0.088 0.7224,-0.2277 0.9861,-0.4153 0.3032,-0.2274 0.5149,-0.5669 0.6266,-1.022 0.1118,-0.459 0.1716,-1.2257 0.1716,-2.2995 v -7.8606 c 0,-0.3874 -0.0636,-0.7587 -0.1834,-1.1059 -0.1199,-0.3472 -0.3116,-0.6427 -0.567,-0.8942 -0.2714,-0.2634 -0.5868,-0.4712 -0.942,-0.6267 -0.3556,-0.1519 -0.7587,-0.2675 -1.21,-0.3555 v -0.9341 h 6.2441 l 9.0783,11.2262 v -6.2797 c 0,-0.9983 -0.0681,-1.7406 -0.1998,-2.2278 -0.1317,-0.487 -0.3433,-0.8464 -0.6308,-1.0818 -0.2274,-0.1796 -0.5628,-0.3354 -1.006,-0.4632 -0.4429,-0.1278 -0.8024,-0.2155 -1.0779,-0.2634 v -0.9103 h 7.126 z" />
        <path
           inkscape:connector-curvature="0"
           id="path3770"
           style="fill:#ffffff;fill-rule:evenodd"
           d="m 343.3293,647.9038 h -9.2023 v -0.9141 c 0.2079,-0.0122 0.5191,-0.036 0.9264,-0.0681 0.4111,-0.0318 0.6947,-0.0796 0.8502,-0.1397 0.2875,-0.1195 0.4831,-0.2714 0.591,-0.4628 0.1037,-0.1918 0.1558,-0.4353 0.1558,-0.7308 v -11.7651 c 0,-0.2672 -0.0482,-0.4988 -0.152,-0.7024 -0.0995,-0.2037 -0.2993,-0.3675 -0.5948,-0.4912 -0.1876,-0.0799 -0.4629,-0.1596 -0.8303,-0.2396 -0.3671,-0.0838 -0.6826,-0.1397 -0.9463,-0.1715 v -0.9103 h 9.2023 v 0.9103 c -0.2316,0.0238 -0.5271,0.0559 -0.8743,0.0999 -0.3514,0.0437 -0.6507,0.1038 -0.8903,0.1834 -0.3036,0.0999 -0.5072,0.2595 -0.6068,0.4712 -0.1037,0.2155 -0.1557,0.459 -0.1557,0.7304 v 11.7571 c 0,0.2794 0.0558,0.519 0.1596,0.7188 0.1037,0.1995 0.3074,0.3591 0.6029,0.4831 0.1638,0.0716 0.4352,0.1397 0.8104,0.2075 0.3793,0.0639 0.6986,0.1076 0.9542,0.1198 z" />
        <path
           inkscape:connector-curvature="0"
           id="path3772"
           style="fill:#ffffff;fill-rule:evenodd"
           d="m 364.3722,647.9038 h -6.5752 c -0.9902,-1.5211 -1.8803,-2.7905 -2.6749,-3.8126 -0.7982,-1.022 -1.8164,-2.3033 -3.054,-3.8485 h -0.6067 v 5.2178 c 0,0.2794 0.0479,0.519 0.1516,0.7108 0.0999,0.1956 0.3035,0.3591 0.6067,0.4911 0.1398,0.0636 0.3476,0.1275 0.627,0.1876 0.2753,0.0639 0.5509,0.1118 0.8223,0.1397 v 0.9141 h -8.8188 v -0.9141 c 0.2117,-0.0122 0.511,-0.036 0.8942,-0.0681 0.3874,-0.0318 0.6588,-0.0796 0.8146,-0.1397 0.2794,-0.1118 0.475,-0.2634 0.5868,-0.459 0.1076,-0.1917 0.1635,-0.4391 0.1635,-0.7346 v -11.7651 c 0,-0.2753 -0.0479,-0.503 -0.1436,-0.6906 -0.0919,-0.1875 -0.2955,-0.3552 -0.6067,-0.503 -0.2435,-0.1117 -0.5351,-0.1994 -0.8785,-0.2714 -0.3434,-0.0677 -0.6186,-0.1159 -0.8303,-0.1397 v -0.9103 h 9.1143 v 0.9103 c -0.2435,0.0238 -0.5351,0.0559 -0.8743,0.0999 -0.3395,0.0437 -0.6267,0.1038 -0.8705,0.1834 -0.3032,0.0999 -0.5068,0.2595 -0.6067,0.4792 -0.1037,0.2156 -0.1516,0.459 -0.1516,0.7224 v 5.5933 h 0.4911 c 0.6067,-0.555 1.3172,-1.2218 2.1276,-2.0001 0.8104,-0.7824 1.4374,-1.4213 1.8845,-1.9204 0.6228,-0.6944 1.0779,-1.2414 1.3734,-1.6487 0.2913,-0.4031 0.4391,-0.7545 0.4391,-1.05 0,-0.1355 -0.1439,-0.2354 -0.4233,-0.3074 -0.2795,-0.0678 -0.7105,-0.1198 -1.2855,-0.1516 v -0.9103 h 7.2141 v 0.9103 c -0.8704,0.0957 -1.605,0.2515 -2.1957,0.4751 -0.5949,0.2235 -1.1817,0.5948 -1.7688,1.1177 -0.8342,0.7465 -1.5209,1.3972 -2.0637,1.9481 -0.5432,0.547 -1.2379,1.2498 -2.0881,2.108 0.7506,0.9141 1.6487,2.0322 2.7029,3.3536 1.0538,1.3214 2.0996,2.6069 3.1458,3.8643 0.2675,0.3193 0.5707,0.6267 0.9141,0.9183 0.3433,0.2914 0.7185,0.5268 1.1338,0.7067 0.1956,0.0877 0.4153,0.1516 0.6668,0.1994 0.2473,0.0479 0.4629,0.0758 0.6427,0.08 z" />
      </g>
      <g
         id="Layer1007">
        <path
           inkscape:connector-curvature="0"
           id="path3775"
           style="fill:#0c3e3b;fill-rule:evenodd"
           d="m 286.2109,597.9288 h -6.5004 v -0.6851 c 0.1911,-0.0132 0.4908,-0.0395 0.899,-0.0822 0.4083,-0.0427 0.6916,-0.0855 0.8464,-0.1285 0.1975,-0.0658 0.3524,-0.1712 0.4577,-0.316 0.1054,-0.1449 0.158,-0.3624 0.158,-0.6489 v -6.7737 h -2.4006 v -0.81 h 0.5303 c 0.6948,0 1.3172,-0.1285 1.8671,-0.3855 0.5499,-0.2566 0.9418,-0.5335 1.182,-0.8296 h 0.8004 c -0.0199,0.4182 -0.0395,0.9054 -0.0594,1.4653 -0.0196,0.5598 -0.0263,1.0602 -0.0263,1.5048 v 5.7202 c 0,0.2271 0.0495,0.4281 0.1484,0.6025 0.0986,0.178 0.2434,0.3097 0.4278,0.3919 0.168,0.0726 0.4413,0.1352 0.82,0.1943 0.3823,0.0559 0.662,0.089 0.8496,0.0954 z" />
        <path
           inkscape:connector-curvature="0"
           id="path3777"
           style="fill:#0c3e3b;fill-rule:evenodd"
           d="m 297.0847,592.9496 c 0,1.1197 -0.1776,2.1736 -0.53,3.1616 -0.3559,0.9877 -0.863,1.8539 -1.5247,2.5981 -0.652,0.7343 -1.4425,1.3436 -2.3778,1.8276 -0.9386,0.4873 -1.9824,0.8069 -3.1416,0.9617 l -0.1745,-0.8695 0.8695,-0.1548 c 1.3831,-0.4346 2.4633,-1.1065 3.2403,-2.0152 0.7805,-0.9058 1.2809,-2.0582 1.5051,-3.4544 -0.5271,0.4509 -1.0539,0.7805 -1.5774,0.9912 -0.5236,0.2075 -1.1133,0.3128 -1.7685,0.3128 -1.0503,0 -1.9625,-0.4086 -2.7366,-1.225 -0.7738,-0.8168 -1.1624,-1.8476 -1.1624,-3.089 0,-1.3304 0.4477,-2.4533 1.3467,-3.3655 0.8959,-0.9154 2.0056,-1.3699 3.3228,-1.3699 1.4358,0 2.5786,0.5104 3.4314,1.5347 0.8495,1.0208 1.2777,2.407 1.2777,4.1556 z m -2.0451,-0.1153 c 0,-1.5048 -0.247,-2.6836 -0.7374,-3.5367 -0.494,-0.8495 -1.1429,-1.2777 -1.9462,-1.2777 -0.7641,0 -1.383,0.3292 -1.8507,0.988 -0.4709,0.662 -0.7047,1.5707 -0.7047,2.7266 0,1.0439 0.2402,1.8771 0.7179,2.5092 0.4808,0.6293 1.1197,0.9453 1.9262,0.9453 0.5007,0 0.9616,-0.0922 1.3798,-0.2765 0.415,-0.1812 0.8069,-0.4777 1.166,-0.8827 0,-0.0231 0.003,-0.0758 0.0132,-0.1516 0.01,-0.079 0.0163,-0.1876 0.0163,-0.3292 0,-0.089 0.003,-0.2008 0.01,-0.3292 0.006,-0.1285 0.01,-0.257 0.01,-0.3855 z" />
        <path
           inkscape:connector-curvature="0"
           id="path3779"
           style="fill:#0c3e3b;fill-rule:evenodd"
           d="m 308.2678,592.9496 c 0,1.1197 -0.1776,2.1736 -0.53,3.1616 -0.3559,0.9877 -0.863,1.8539 -1.5247,2.5981 -0.652,0.7343 -1.4425,1.3436 -2.3778,1.8276 -0.9385,0.4873 -1.9824,0.8069 -3.1416,0.9617 l -0.1744,-0.8695 0.8694,-0.1548 c 1.3831,-0.4346 2.4633,-1.1065 3.2403,-2.0152 0.7805,-0.9058 1.2809,-2.0582 1.5051,-3.4544 -0.5271,0.4509 -1.0539,0.7805 -1.5774,0.9912 -0.5236,0.2075 -1.1133,0.3128 -1.7685,0.3128 -1.0503,0 -1.9625,-0.4086 -2.7366,-1.225 -0.7738,-0.8168 -1.1624,-1.8476 -1.1624,-3.089 0,-1.3304 0.4477,-2.4533 1.3468,-3.3655 0.8958,-0.9154 2.0055,-1.3699 3.3227,-1.3699 1.4358,0 2.5786,0.5104 3.4314,1.5347 0.8495,1.0208 1.2777,2.407 1.2777,4.1556 z m -2.0451,-0.1153 c 0,-1.5048 -0.247,-2.6836 -0.7374,-3.5367 -0.494,-0.8495 -1.1428,-1.2777 -1.9462,-1.2777 -0.7641,0 -1.383,0.3292 -1.8507,0.988 -0.4709,0.662 -0.7047,1.5707 -0.7047,2.7266 0,1.0439 0.2403,1.8771 0.7179,2.5092 0.4808,0.6293 1.1197,0.9453 1.9262,0.9453 0.5007,0 0.9617,-0.0922 1.3799,-0.2765 0.4149,-0.1812 0.8068,-0.4777 1.1659,-0.8827 0,-0.0231 0.003,-0.0758 0.0132,-0.1516 0.01,-0.079 0.0164,-0.1876 0.0164,-0.3292 0,-0.089 0.003,-0.2008 0.01,-0.3292 0.006,-0.1285 0.01,-0.257 0.01,-0.3855 z" />
        <path
           inkscape:connector-curvature="0"
           id="path3781"
           style="fill:#0c3e3b;fill-rule:evenodd"
           d="m 319.3619,597.9288 h -9.0394 v -1.3105 c 0.1747,-0.201 0.415,-0.4249 0.7246,-0.6719 0.3097,-0.247 0.6752,-0.5171 1.0998,-0.8068 0.257,-0.1712 0.5666,-0.3624 0.9254,-0.5699 0.3623,-0.2039 0.7705,-0.4278 1.225,-0.6748 0.5104,-0.2701 0.899,-0.5072 1.1724,-0.7114 0.2733,-0.2075 0.5235,-0.461 0.7474,-0.7638 0.1484,-0.1979 0.2669,-0.4481 0.3591,-0.7478 0.089,-0.2997 0.1349,-0.7243 0.1349,-1.2777 0,-0.8033 -0.2174,-1.393 -0.6488,-1.7717 -0.4278,-0.3752 -0.9813,-0.5631 -1.6564,-0.5631 -0.4182,0 -0.8165,0.0826 -1.1888,0.247 -0.3719,0.1616 -0.652,0.3887 -0.8396,0.6784 0.0459,0.2075 0.1022,0.4513 0.1712,0.7346 0.0659,0.2829 0.0989,0.5595 0.0989,0.8296 0,0.2438 -0.0989,0.4609 -0.3032,0.652 -0.2007,0.1879 -0.5036,0.2833 -0.9022,0.2833 -0.3228,0 -0.5698,-0.1121 -0.741,-0.3327 -0.1744,-0.2207 -0.2634,-0.5204 -0.2634,-0.8923 0,-0.3492 0.0989,-0.6983 0.2897,-1.0471 0.1944,-0.3492 0.4709,-0.6752 0.83,-0.9684 0.3556,-0.2897 0.7937,-0.5268 1.314,-0.7047 0.5204,-0.1812 1.0834,-0.2698 1.686,-0.2698 1.3204,0 2.3678,0.2929 3.1416,0.8823 0.7738,0.5862 1.1624,1.3734 1.1624,2.3579 0,0.4709 -0.069,0.899 -0.2075,1.2845 -0.1381,0.3851 -0.3623,0.7243 -0.6716,1.0207 -0.3392,0.3293 -0.7378,0.6093 -1.1955,0.8464 -0.4577,0.2338 -1.1524,0.5598 -2.0945,0.978 -0.5599,0.2502 -1.0799,0.5136 -1.5607,0.787 -0.4841,0.2733 -0.8794,0.5367 -1.1888,0.7936 h 7.419 z" />
        <path
           inkscape:connector-curvature="0"
           id="path3783"
           style="fill:#0c3e3b;fill-rule:evenodd"
           d="m 286.0815,606.1527 c -0.063,0.004 -0.1594,0.0277 -0.2943,0.0723 -0.1333,0.0463 -0.2296,0.0906 -0.2868,0.133 -0.1407,0.087 -0.237,0.1538 -0.2868,0.2017 -0.0501,0.0463 -0.1481,0.1686 -0.2926,0.3684 -0.283,0.398 -0.5422,0.7995 -0.7809,1.2084 -0.2386,0.4088 -0.5367,0.9273 -0.8958,1.5565 -0.133,0.2312 -0.2219,0.4163 -0.2643,0.5589 -0.0447,0.1403 -0.0649,0.344 -0.0649,0.6125 v 1.4691 c 0,0.1298 0.026,0.2425 0.0777,0.3389 0.0517,0.0941 0.1423,0.1718 0.2682,0.2293 0.0758,0.0296 0.2111,0.0649 0.4073,0.1054 0.1943,0.0427 0.3514,0.0649 0.4718,0.0687 v 0.3848 h -3.6012 v -0.3848 c 0.1018,-0.007 0.2534,-0.0205 0.457,-0.0408 0.2018,-0.0205 0.3424,-0.0462 0.4221,-0.0777 0.1294,-0.0556 0.22,-0.1294 0.2682,-0.2239 0.0482,-0.0925 0.0742,-0.2091 0.0742,-0.3462 v -1.871 c 0,-0.0572 -0.0353,-0.1628 -0.1057,-0.3164 -0.0719,-0.1535 -0.1554,-0.3257 -0.2534,-0.5126 -0.2165,-0.4201 -0.4571,-0.8733 -0.7198,-1.3599 -0.2647,-0.4886 -0.4943,-0.9071 -0.6887,-1.253 -0.1201,-0.2072 -0.2254,-0.3607 -0.3183,-0.4664 -0.0925,-0.1054 -0.1978,-0.1979 -0.3163,-0.2775 -0.0871,-0.0537 -0.1905,-0.0945 -0.3126,-0.124 -0.1204,-0.0296 -0.2296,-0.0463 -0.3276,-0.0537 v -0.3851 h 3.281 v 0.3851 c -0.37,0.007 -0.6292,0.0315 -0.7808,0.0759 -0.1519,0.0427 -0.2277,0.1037 -0.2277,0.183 0,0.0225 0.0109,0.0614 0.0315,0.115 0.0221,0.0537 0.0536,0.1221 0.0925,0.2053 0.0462,0.0944 0.1037,0.2017 0.1683,0.3237 0.0649,0.1205 0.1259,0.2371 0.1834,0.3498 0.1702,0.3203 0.344,0.6424 0.5216,0.9623 0.176,0.3183 0.4073,0.7349 0.6941,1.2492 0.5663,-0.9142 0.9992,-1.6285 1.2973,-2.1392 0.2978,-0.5107 0.4478,-0.8181 0.4478,-0.9196 0,-0.0816 -0.0315,-0.15 -0.0925,-0.2001 -0.0611,-0.0498 -0.1426,-0.0906 -0.2445,-0.1182 -0.1034,-0.0299 -0.2181,-0.0482 -0.3404,-0.0575 -0.124,-0.009 -0.2368,-0.0186 -0.3424,-0.0296 v -0.3851 h 2.6743 z" />
        <path
           inkscape:connector-curvature="0"
           id="path3785"
           style="fill:#0c3e3b;fill-rule:evenodd"
           d="m 290.9264,612.2022 c -0.2239,0.4275 -0.5239,0.766 -0.8994,1.0198 -0.3758,0.2534 -0.8087,0.3793 -1.2954,0.3793 -0.4313,0 -0.8068,-0.0758 -1.1309,-0.2277 -0.3238,-0.1516 -0.5903,-0.3572 -0.7994,-0.618 -0.2091,-0.2592 -0.3662,-0.5644 -0.47,-0.9106 -0.1018,-0.3479 -0.1535,-0.7143 -0.1535,-1.1011 0,-0.3459 0.0556,-0.6864 0.1645,-1.0214 0.1111,-0.335 0.272,-0.6347 0.4869,-0.9032 0.2052,-0.2553 0.4606,-0.4625 0.7661,-0.6199 0.3054,-0.1574 0.6478,-0.2367 1.0271,-0.2367 0.3903,0 0.7253,0.061 1.0028,0.185 0.2795,0.1221 0.5053,0.2904 0.6774,0.5033 0.1667,0.2037 0.2907,0.4423 0.372,0.7163 0.0816,0.2756 0.122,0.5736 0.122,0.8936 v 0.3591 h -3.5399 c 0,0.3497 0.0331,0.668 0.0999,0.9529 0.0665,0.2869 0.1722,0.5368 0.3183,0.7552 0.1407,0.2091 0.3238,0.3739 0.5515,0.4959 0.2274,0.1205 0.4995,0.1815 0.8142,0.1815 0.3219,0 0.5994,-0.0761 0.8326,-0.2258 0.2316,-0.15 0.457,-0.4201 0.6739,-0.8107 z m -1.1974,-2.0374 c 0,-0.2036 -0.0167,-0.4201 -0.0517,-0.6514 -0.0354,-0.2312 -0.089,-0.4239 -0.1648,-0.5794 -0.0832,-0.1664 -0.1982,-0.3016 -0.3424,-0.407 -0.1442,-0.1056 -0.3312,-0.1574 -0.5589,-0.1574 -0.3793,0 -0.6941,0.1574 -0.9456,0.4738 -0.2518,0.3164 -0.3867,0.7571 -0.4089,1.3214 z" />
        <path
           inkscape:connector-curvature="0"
           id="path3787"
           style="fill:#0c3e3b;fill-rule:evenodd"
           d="m 295.6377,608.8026 c 0,0.185 -0.0462,0.3479 -0.1349,0.4924 -0.0909,0.1423 -0.2297,0.2126 -0.4185,0.2126 -0.2017,0 -0.3572,-0.0517 -0.4625,-0.157 -0.1073,-0.1038 -0.161,-0.2204 -0.161,-0.3463 0,-0.0793 0.007,-0.1516 0.0183,-0.2165 0.0132,-0.0664 0.0261,-0.1313 0.0354,-0.1962 -0.1683,0 -0.3684,0.0687 -0.5958,0.2056 -0.2278,0.1387 -0.4202,0.333 -0.5795,0.5865 v 3.1127 c 0,0.1259 0.0241,0.2296 0.0723,0.3074 0.0501,0.0793 0.1259,0.1407 0.2312,0.1795 0.0909,0.037 0.2075,0.0627 0.3498,0.0813 0.1426,0.0186 0.2666,0.0315 0.3701,0.0388 v 0.3572 h -2.8182 v -0.3572 c 0.0832,-0.007 0.1683,-0.0147 0.2572,-0.0221 0.0887,-0.007 0.1645,-0.0222 0.2313,-0.0443 0.0999,-0.0315 0.1757,-0.089 0.2239,-0.1703 0.0498,-0.0816 0.0739,-0.1869 0.0739,-0.3167 v -3.3012 c 0,-0.1131 -0.0257,-0.2223 -0.0794,-0.3312 -0.052,-0.1092 -0.1259,-0.1962 -0.2184,-0.2611 -0.0684,-0.0424 -0.15,-0.0739 -0.2444,-0.0945 -0.0945,-0.0202 -0.1963,-0.033 -0.3036,-0.0404 v -0.3517 l 1.7785,-0.1205 0.0758,0.0761 v 0.7532 h 0.026 c 0.2239,-0.2926 0.4738,-0.5145 0.7494,-0.6664 0.274,-0.1516 0.5258,-0.2274 0.7532,-0.2274 0.2277,0 0.4127,0.0738 0.5553,0.2219 0.1423,0.1481 0.2146,0.3479 0.2146,0.5958 z" />
        <path
           inkscape:connector-curvature="0"
           id="path3789"
           style="fill:#0c3e3b;fill-rule:evenodd"
           d="m 300.8417,612.2022 c -0.2238,0.4275 -0.5238,0.766 -0.8993,1.0198 -0.3758,0.2534 -0.8088,0.3793 -1.2954,0.3793 -0.4314,0 -0.8069,-0.0758 -1.1309,-0.2277 -0.3238,-0.1516 -0.5904,-0.3572 -0.7995,-0.618 -0.2091,-0.2592 -0.3662,-0.5644 -0.4699,-0.9106 -0.1018,-0.3479 -0.1535,-0.7143 -0.1535,-1.1011 0,-0.3459 0.0555,-0.6864 0.1644,-1.0214 0.1111,-0.335 0.2721,-0.6347 0.4869,-0.9032 0.2053,-0.2553 0.4606,-0.4625 0.7661,-0.6199 0.3055,-0.1574 0.6479,-0.2367 1.0272,-0.2367 0.3902,0 0.7253,0.061 1.0028,0.185 0.2794,0.1221 0.5052,0.2904 0.6774,0.5033 0.1667,0.2037 0.2907,0.4423 0.3719,0.7163 0.0816,0.2756 0.1221,0.5736 0.1221,0.8936 v 0.3591 h -3.5399 c 0,0.3497 0.033,0.668 0.0999,0.9529 0.0664,0.2869 0.1721,0.5368 0.3183,0.7552 0.1406,0.2091 0.3237,0.3739 0.5515,0.4959 0.2274,0.1205 0.4994,0.1815 0.8142,0.1815 0.3218,0 0.5993,-0.0761 0.8325,-0.2258 0.2316,-0.15 0.4571,-0.4201 0.6739,-0.8107 z m -1.1974,-2.0374 c 0,-0.2036 -0.0167,-0.4201 -0.0517,-0.6514 -0.0353,-0.2312 -0.089,-0.4239 -0.1648,-0.5794 -0.0832,-0.1664 -0.1982,-0.3016 -0.3424,-0.407 -0.1442,-0.1056 -0.3311,-0.1574 -0.5589,-0.1574 -0.3793,0 -0.6941,0.1574 -0.9456,0.4738 -0.2518,0.3164 -0.3867,0.7571 -0.4088,1.3214 z" />
        <path
           inkscape:connector-curvature="0"
           id="path3791"
           style="fill:#0c3e3b;fill-rule:evenodd"
           d="m 306.7392,608.4455 c -0.1609,0.0298 -0.3163,0.087 -0.4625,0.176 -0.1461,0.0886 -0.272,0.246 -0.3774,0.4699 -0.213,0.4831 -0.4333,0.9883 -0.6607,1.5157 -0.2277,0.5255 -0.4645,1.077 -0.7108,1.6561 -0.072,0.1648 -0.1481,0.3629 -0.2293,0.5904 -0.0816,0.2277 -0.1574,0.4461 -0.2258,0.6552 h -0.4221 c -0.344,-0.8496 -0.6607,-1.623 -0.9491,-2.3226 -0.2888,-0.6995 -0.5904,-1.4155 -0.8994,-2.1504 -0.0742,-0.1648 -0.1908,-0.2942 -0.3498,-0.3867 -0.1612,-0.0925 -0.3241,-0.1516 -0.4869,-0.1757 v -0.3591 h 2.4726 v 0.3793 c -0.1073,0.004 -0.2445,0.028 -0.4054,0.0684 -0.1628,0.0408 -0.2444,0.0983 -0.2444,0.1703 0,0.0112 0.009,0.0388 0.026,0.0851 0.0186,0.0446 0.0369,0.0964 0.0556,0.1539 0.148,0.368 0.3571,0.8845 0.6292,1.5449 0.2701,0.6626 0.4905,1.1955 0.6607,1.5989 0.1294,-0.3109 0.2942,-0.6976 0.4905,-1.1601 0.1978,-0.4626 0.4088,-0.979 0.6363,-1.5488 0.0372,-0.0983 0.0703,-0.1889 0.1037,-0.274 0.0334,-0.0851 0.0482,-0.1722 0.0482,-0.2592 0,-0.0611 -0.0296,-0.1166 -0.089,-0.1648 -0.0591,-0.0479 -0.1314,-0.0906 -0.2145,-0.1275 -0.0832,-0.0354 -0.1648,-0.063 -0.2445,-0.0816 -0.0793,-0.0164 -0.1442,-0.0296 -0.194,-0.0369 v -0.3479 h 2.0428 z" />
        <path
           inkscape:connector-curvature="0"
           id="path3793"
           style="fill:#0c3e3b;fill-rule:evenodd"
           d="m 312.0358,613.3627 c -0.1703,0.061 -0.3183,0.1108 -0.4459,0.1496 -0.1297,0.0373 -0.2739,0.0575 -0.4368,0.0575 -0.2833,0 -0.5072,-0.0665 -0.6755,-0.1982 -0.1683,-0.1329 -0.2759,-0.3256 -0.3221,-0.5771 h -0.0331 c -0.2351,0.2588 -0.4869,0.4589 -0.7571,0.5958 -0.2682,0.1368 -0.5919,0.2055 -0.9713,0.2055 -0.4018,0 -0.731,-0.1223 -0.9902,-0.3684 -0.2592,-0.246 -0.3887,-0.5682 -0.3887,-0.9642 0,-0.2072 0.0296,-0.3903 0.0871,-0.5531 0.0591,-0.1629 0.1442,-0.3093 0.2608,-0.4407 0.0909,-0.1073 0.2091,-0.2033 0.3572,-0.2884 0.148,-0.0851 0.2887,-0.1539 0.4182,-0.2037 0.1628,-0.061 0.4924,-0.176 0.9883,-0.3424 0.4978,-0.1667 0.8328,-0.2961 1.0066,-0.3905 v -0.5368 c 0,-0.0462 -0.009,-0.1368 -0.0295,-0.2701 -0.0203,-0.1333 -0.063,-0.2608 -0.1275,-0.3793 -0.0723,-0.1349 -0.1741,-0.2515 -0.3074,-0.3498 -0.1314,-0.0999 -0.3183,-0.1497 -0.5608,-0.1497 -0.1664,0 -0.32,0.0277 -0.4626,0.0851 -0.1426,0.0553 -0.2441,0.1147 -0.3016,0.1757 0,0.0723 0.0167,0.1777 0.0517,0.3203 0.0354,0.1407 0.0521,0.2701 0.0521,0.3902 0,0.1259 -0.0575,0.2406 -0.1703,0.3463 -0.1149,0.1053 -0.272,0.157 -0.4757,0.157 -0.1795,0 -0.3128,-0.0645 -0.3979,-0.1924 -0.0851,-0.1275 -0.1275,-0.272 -0.1275,-0.431 0,-0.1667 0.0591,-0.3257 0.1757,-0.4776 0.1185,-0.1516 0.2701,-0.2868 0.459,-0.405 0.1628,-0.1019 0.3587,-0.187 0.5903,-0.2593 0.2313,-0.0703 0.4571,-0.1053 0.6771,-0.1053 0.3035,0 0.5682,0.0222 0.7959,0.0626 0.2258,0.0408 0.4291,0.1317 0.6145,0.2685 0.185,0.1333 0.3237,0.3145 0.4201,0.5442 0.096,0.2293 0.1442,0.5254 0.1442,0.8865 0,0.518 -0.005,0.9751 -0.0167,1.3747 -0.0112,0.3999 -0.0167,0.8367 -0.0167,1.3101 0,0.1407 0.0241,0.2519 0.0742,0.3351 0.0479,0.0835 0.124,0.1538 0.2239,0.2129 0.0555,0.0315 0.1407,0.0498 0.2573,0.0536 0.1182,0.004 0.2386,0.005 0.3607,0.005 z m -1.8912,-2.8629 c -0.3074,0.0906 -0.5776,0.1793 -0.8088,0.2663 -0.2313,0.087 -0.4458,0.1943 -0.644,0.3257 -0.1815,0.1224 -0.3238,0.2685 -0.4295,0.4368 -0.1034,0.1667 -0.157,0.3665 -0.157,0.5978 0,0.2996 0.0793,0.5219 0.2367,0.6626 0.1574,0.1404 0.3572,0.2107 0.5977,0.2107 0.2573,0 0.4831,-0.063 0.6794,-0.1869 0.1943,-0.124 0.3588,-0.2718 0.4921,-0.4423 z" />
        <path
           inkscape:connector-curvature="0"
           id="path3795"
           style="fill:#0c3e3b;fill-rule:evenodd"
           d="m 318.4703,613.4606 h -2.6187 v -0.3572 c 0.0835,-0.007 0.176,-0.0147 0.274,-0.0221 0.0999,-0.007 0.1814,-0.0222 0.2479,-0.0443 0.0999,-0.0315 0.1757,-0.089 0.2239,-0.1703 0.0501,-0.0816 0.0742,-0.1869 0.0742,-0.3167 v -2.7497 c 0,-0.3794 -0.0909,-0.672 -0.2685,-0.8772 -0.1796,-0.2056 -0.3977,-0.309 -0.6533,-0.309 -0.1924,0 -0.3681,0.0295 -0.5274,0.0886 -0.1571,0.0595 -0.2997,0.1333 -0.4218,0.2204 -0.1185,0.0832 -0.2149,0.1721 -0.2849,0.2682 -0.0703,0.0963 -0.1223,0.1721 -0.1538,0.2296 v 3.0755 c 0,0.1224 0.0241,0.2239 0.0761,0.3035 0.0498,0.0797 0.1256,0.1407 0.2274,0.1834 0.0758,0.037 0.1574,0.0627 0.246,0.0813 0.089,0.0186 0.1796,0.0315 0.274,0.0388 v 0.3572 h -2.6184 v -0.3572 c 0.0832,-0.007 0.1683,-0.0147 0.2573,-0.0221 0.0887,-0.007 0.1645,-0.0222 0.2313,-0.0443 0.0999,-0.0315 0.1757,-0.089 0.2238,-0.1703 0.0498,-0.0816 0.0739,-0.1869 0.0739,-0.3167 v -3.3012 c 0,-0.124 -0.0257,-0.2371 -0.0793,-0.3389 -0.0521,-0.1034 -0.1259,-0.1885 -0.2184,-0.2534 -0.0684,-0.0424 -0.15,-0.0739 -0.2445,-0.0945 -0.0944,-0.0202 -0.1962,-0.033 -0.3035,-0.0404 v -0.3517 l 1.7785,-0.1205 0.0758,0.0761 v 0.7532 h 0.026 c 0.087,-0.0854 0.1962,-0.1907 0.3257,-0.3109 0.1294,-0.1204 0.2534,-0.2203 0.3684,-0.2961 0.1349,-0.0871 0.2942,-0.1593 0.4773,-0.2165 0.185,-0.0575 0.3922,-0.087 0.6238,-0.087 0.5126,0 0.8935,0.1609 1.1415,0.4792 0.2483,0.3202 0.3703,0.7458 0.3703,1.2771 v 2.7812 c 0,0.1278 0.0222,0.2293 0.0665,0.3071 0.0427,0.0777 0.1166,0.139 0.2223,0.1814 0.0867,0.037 0.1609,0.0611 0.2239,0.0758 0.0629,0.0148 0.1516,0.0261 0.2627,0.0334 z" />
      </g>
    </g>
  </g>
</svg>
