<?xml version="1.0" encoding="UTF-8" standalone="no"?>
<svg
   xmlns:dc="http://purl.org/dc/elements/1.1/"
   xmlns:cc="http://creativecommons.org/ns#"
   xmlns:rdf="http://www.w3.org/1999/02/22-rdf-syntax-ns#"
   xmlns:svg="http://www.w3.org/2000/svg"
   xmlns="http://www.w3.org/2000/svg"
   xmlns:sodipodi="http://sodipodi.sourceforge.net/DTD/sodipodi-0.dtd"
   xmlns:inkscape="http://www.inkscape.org/namespaces/inkscape"
   version="1.1"
   width="253.14519"
   height="252"
   id="svg162"
   viewBox="0 0 253.14519 252"
   sodipodi:docname="fc-progres-niedercorn.svg"
   inkscape:version="0.92.4 (5da689c313, 2019-01-14)">
  <metadata
     id="metadata168">
    <rdf:RDF>
      <cc:Work
         rdf:about="">
        <dc:format>image/svg+xml</dc:format>
        <dc:type
           rdf:resource="http://purl.org/dc/dcmitype/StillImage" />
        <dc:title></dc:title>
      </cc:Work>
    </rdf:RDF>
  </metadata>
  <defs
     id="defs166" />
  <sodipodi:namedview
     pagecolor="#ffffff"
     bordercolor="#666666"
     borderopacity="1"
     objecttolerance="10"
     gridtolerance="10"
     guidetolerance="10"
     inkscape:pageopacity="0"
     inkscape:pageshadow="2"
     inkscape:window-width="1366"
     inkscape:window-height="705"
     id="namedview164"
     showgrid="false"
     fit-margin-top="1"
     fit-margin-bottom="1"
     fit-margin-right="1"
     fit-margin-left="1"
     inkscape:zoom="0.79286959"
     inkscape:cx="160.11412"
     inkscape:cy="295.64302"
     inkscape:window-x="-8"
     inkscape:window-y="-8"
     inkscape:window-maximized="1"
     inkscape:current-layer="svg162" />
  <g
     id="Layer1000"
     transform="matrix(0.44299215,0,0,0.44299215,-5.2786193,-60.476546)">
    <path
       d="m 40.3781,361.0477 285.5241,0.3168 22.244,63.7475 -62.7207,123.2996 -73.6065,140.0224 c -11.3424,21.5772 -32.5868,17.0938 -40.8804,1.267 L 17.2435,396.4116 C 10.2901,383.142 13.9948,361.0185 40.3781,361.0477 Z"
       style="fill:#111b14;fill-rule:evenodd"
       id="path2"
       inkscape:connector-curvature="0" />
    <path
       d="M 148.3908,374.0789 40.3638,373.959 c -4.5218,-0.005 -10.3766,1.1393 -12.5578,5.7262 -1.5906,3.346 -1.143,7.0229 0.5503,10.2461 l 96.7553,184.5514 c 16.8723,32.1823 36.8549,43.4061 49.4694,65.4553 7.6578,13.3858 11.297,26.3053 13.8836,46.9337 0.5712,4.5557 4.941,4.1345 5.3607,-0.2442 0.6817,-7.112 2.7622,-26.6886 13.5224,-45.9716 13.9498,-24.9993 27.3806,-27.2166 49.0634,-65.3867 2.4951,-0.161 5.036,-0.4106 7.6268,-0.7546 6.6341,-0.8808 13.2174,-3.0537 19.6928,-5.3599 2.2715,-0.8088 4.5072,-1.7192 6.7133,-2.7727 8.8335,-4.2183 15.3049,-11.2423 23.5032,-16.1786 5.1614,-3.1079 11.2078,-5.0328 16.663,-7.6363 5.7853,-2.7616 11.7515,-6.7847 16.7825,-10.7591 7.1153,-5.6201 14.2245,-11.2508 21.146,-17.1096 5.1215,-4.3348 10.1574,-8.7682 15.218,-13.1732 8.8807,-7.7295 17.5963,-15.6848 25.8428,-24.0917 6.0187,-6.1357 12.0442,-12.2683 17.8215,-18.6338 4.5052,-4.9645 9.3529,-10.3683 12.6702,-16.2079 4.8997,-8.6252 2.2655,-17.4364 -5.6594,-23.0023 -7.7479,-5.4414 -17.5242,-8.3085 -26.9247,-9.9115 -1.7628,-7.4392 -3.1974,-14.9128 -4.3382,-22.477 -0.4551,-3.0184 -0.3107,-6.2367 -0.6134,-9.3047 -0.2746,-2.7857 -0.8424,-5.5808 -1.9769,-8.1432 0.3145,-3.064 -0.507,-6.1816 -2.6726,-8.5085 -3.278,-3.5225 -9.6453,-4.8552 -14.1645,-6.0436 -0.0424,-0.0112 -0.0849,-0.0224 -0.1274,-0.0339 12.7764,-1.7588 25.5258,-3.7181 38.2367,-5.8975 11.9685,-2.0523 23.9429,-4.2957 35.6422,-7.5847 9.6914,-2.7245 19.905,-6.3448 28.2285,-12.1081 24.2716,-16.8069 46.4035,-47.9738 61.2399,-75.1275 5.303,-9.7061 10.1534,-19.6738 15.1618,-29.5334 l -16.9921,5.3212 c 5.8356,-11.0248 11.2098,-22.2974 16.3181,-33.6716 2.7194,-6.0545 5.3599,-12.1449 7.943,-18.2585 4.2429,-10.0412 8.1667,-20.7641 11.7102,-30.1996 -9.2063,4.0151 -17.5937,7.9797 -26.769,12.0648 -35.396,15.7589 -69.3513,34.4847 -101.3289,56.3445 l 1.1861,-13.9969 -12.4086,9.0755 c 0.7865,-8.8301 1.3626,-17.6795 1.7258,-26.5372 0.1512,-3.6897 0.2778,-7.384 0.34,-11.0781 0.1971,-11.6625 -0.2605,-23.552 -0.6739,-35.2043 -8.8939,8.4222 -17.9197,17.069 -26.5857,25.7226 -19.3025,19.2745 -37.596,39.805 -53.869,61.625 -2.4795,3.3247 -4.9108,6.686 -7.2859,10.0862 -4.4745,6.4066 -8.8677,12.8708 -13.1081,19.4354 -8.3616,12.9439 -16.067,26.2927 -23.0086,40.0517 -0.9873,1.9565 -1.9591,3.921 -2.9162,5.8921 -1.4117,-4.7341 -3.404,-10.3533 -6.0456,-14.0465 l -0.6444,-11.2577 c -11.9415,-11.5137 -24.2235,-15.1954 -40.8058,-15.9936 -2.7501,-7.6339 -5.5541,-15.2487 -8.3774,-22.856 -2.919,-7.8643 -5.9604,-15.6888 -9.3781,-23.3518 -2.2394,-5.0221 -4.2274,-10.2584 -6.8564,-15.0892 -2.4316,-4.4675 -6.1624,-7.7639 -11.4563,-7.8445 -0.9787,-0.015 -1.9464,0.0926 -2.891,0.3058 -0.6507,-0.2502 -1.3246,-0.4418 -2.0141,-0.5724 l -1.0547,-0.1997 -1.0745,0.0104 c -18.1497,0.169 -36.2986,0.4851 -54.4437,0.9488 -10.2834,0.2628 -20.5822,0.9964 -30.871,0.7061 -6.0941,-0.1722 -12.1951,-0.212 -18.2832,-0.5477 -6.7029,-0.3702 -15.23,0.6785 -20.6849,4.8534 -1.6561,1.2676 -3.014,2.8703 -3.9786,4.7198 -2.6686,5.1151 -1.8455,10.5995 0.5356,15.4504 -11.2898,1.0682 -22.5932,2.0102 -33.9209,2.5464 -6.0625,0.2872 -12.1268,0.5856 -18.1965,0.6608 -6.5523,0.0812 -14.8553,1.576 -20.0872,5.7156 -8.5995,6.8037 -6.2382,18.0628 0.068,25.4463 8.4218,9.8616 22.6465,11.2305 34.6743,9.177 7.2329,-1.2349 14.25,-3.4725 21.2209,-5.7125 7.4185,-2.3834 14.8298,-4.8296 22.386,-6.7477 10.0099,-2.5406 20.019,-5.1877 30.1437,-7.2498 2.6993,3.2953 6.8788,4.8374 11.1662,6.2646 4.298,1.4311 8.4867,2.9661 12.4791,5.1326 7.8391,4.2538 15.3024,9.4478 22.3011,14.9698 1.15,0.9075 2.2873,1.9625 3.3799,2.9412 1.8291,1.6383 3.6447,3.2924 5.4597,4.9461 0.2232,0.2032 0.4462,0.4066 0.6691,0.61 -1.2768,0.7552 -2.4879,1.6162 -3.6063,2.5952 -12.9625,11.3504 -25.246,35.9385 -32.1581,51.8107 -2.5667,5.8944 -5.1897,11.7664 -7.4931,17.771 -2.3464,6.1167 -5.0046,13.3502 -2.1874,19.7728 1.0019,2.2841 2.4058,4.5169 4.016,6.6045 z m 97.8971,-111.9718 c -2.2365,-4.366 -4.5516,-8.6915 -7.2871,-12.7677 -6.5646,-9.7827 -14.8944,-20.0758 -24.358,-27.1239 -1.5803,-1.177 -3.0244,-2.5246 -4.0914,-4.0811 -10.3723,1.3508 -20.7019,3.0734 -30.9583,5.116 -2.2046,0.4392 -4.403,0.9092 -6.597,1.3993 3.8536,3.956 7.5898,8.029 11.2703,12.1417 9.8863,11.0468 19.5688,22.2804 29.0296,33.6939 3.83,0.0663 7.6225,0.4356 11.4402,0.6637 6.2447,-4.3996 13.9114,-7.3227 21.5517,-9.0419 z"
       style="fill:#95842e;fill-rule:evenodd"
       id="path4"
       inkscape:connector-curvature="0" />
    <path
       d="M 151.1331,378.9593 40.3583,378.8365 c -2.363,-0.002 -6.962,0.4508 -8.1472,2.9429 -0.919,1.9333 -0.4981,4.0533 0.4648,5.8861 l 96.7555,184.5523 c 5.6404,10.7585 12.2952,20.1963 20.1985,29.3885 6.54,7.6062 13.6595,14.7455 19.9519,22.5525 3.4094,4.23 6.5331,8.6379 9.2329,13.3571 6.4301,11.2399 9.9466,22.2996 12.2445,34.2322 2.3079,-11.6672 6.1489,-22.9312 12.0292,-33.469 4.4099,-7.9028 9.3784,-14.5297 15.4203,-21.2295 5.5604,-6.1658 11.252,-11.9653 16.4672,-18.4656 5.8451,-7.2851 10.9875,-15.0528 15.6846,-23.0996 -10.5556,0.105 -20.3013,-1.4191 -29.563,-4.224 -11.5317,-3.4921 -22.223,-8.5934 -34.1332,-14.7578 11.4127,1.1433 22.8471,2.1751 34.3014,2.8083 9.1509,0.5059 18.0541,0.4258 27.2707,-1.1637 5.2618,-0.9069 11.3212,-2.893 15.6978,-6.3431 l 1.3227,-1.9488 3.6906,-8.7592 c -0.6789,-1.5818 -1.8756,-3.6413 -2.3938,-4.5847 -2.1168,-3.8535 -4.102,-7.6514 -5.0018,-12.0022 -0.9993,-4.8308 -1.8118,-9.7862 -3.1997,-14.5206 -1.9946,-6.8016 -3.9735,-11.5965 -3.8842,-18.9539 0.074,-6.0628 -0.0247,-12.1262 3e-4,-18.1893 0.0321,-7.8294 -0.4634,-15.556 -0.0996,-23.4152 0.334,-7.2082 1.2185,-15.4456 6.7913,-20.643 4.5261,-5.1708 19.0914,-10.4974 25.4365,-12.4356 3.6855,-1.1258 7.3213,-2.149 11.0144,-3.0413 -0.2347,-1.1706 -0.4071,-2.3547 -0.5239,-3.5049 -7.9226,-5.1344 -14.0804,-12.581 -17.6269,-21.2766 -9.4766,4.966 -19.3255,8.0684 -30.0467,10.2883 -10.6825,2.2118 -21.4587,2.5122 -32.2178,3.9778 -4.2871,0.5838 -8.5332,1.436 -12.6283,2.8542 -4.2656,1.4773 -8.2598,3.9853 -12.3721,5.8723 -4.98,2.2847 -9.944,3.5988 -15.4283,3.8565 -7.4094,0.3486 -13.9533,-1.0367 -20.7696,-3.8837 l -8.4482,-3.5282 0.5351,-9.1403 c 0.3884,-6.6329 1.2965,-13.3419 2.7489,-19.8664 z"
       style="fill:#fee600;fill-rule:evenodd"
       id="path6"
       inkscape:connector-curvature="0" />
    <g
       id="Layer1001">
      <path
         d="m 151.1331,378.9593 -14.1025,-0.0155 v 206.117 c 3.8062,5.7409 7.9903,11.1848 12.5993,16.5455 6.54,7.6062 13.6595,14.7455 19.9519,22.5525 1.2311,1.5275 2.425,3.0786 3.5752,4.6586 v -213.418 c -5.8553,-0.2172 -11.266,-1.5689 -16.8597,-3.9052 l -8.4482,-3.5282 0.5351,-9.1403 c 0.3884,-6.6329 1.2965,-13.3419 2.7489,-19.8664 z"
         style="fill:#111b14;fill-rule:evenodd"
         id="path8"
         inkscape:connector-curvature="0" />
      <path
         d="M 101.4074,378.9042 65.281,378.8641 v 70.9927 l 36.1264,68.908 z"
         style="fill:#111b14;fill-rule:evenodd"
         id="path10"
         inkscape:connector-curvature="0" />
      <path
         d="m 208.7596,629.2094 c 2.9423,-4.2165 6.1558,-8.1754 9.7491,-12.1598 5.5604,-6.1658 11.252,-11.9653 16.4672,-18.4656 3.5423,-4.4151 6.8263,-9.0075 9.9101,-13.7318 v -9.4746 c -8.3687,-0.3956 -16.2394,-1.8311 -23.7885,-4.1172 -4.1907,-1.269 -8.2703,-2.751 -12.3379,-4.4188 z m 0,-70.7351 c 4.166,0.3225 8.3346,0.6059 12.5061,0.8366 7.9378,0.4387 15.6891,0.4364 23.6203,-0.6094 V 399.6959 c -9.0972,1.4498 -18.2498,1.8538 -27.3904,3.099 -2.9432,0.4008 -5.8669,0.9281 -8.736,1.6781 z"
         style="fill:#111b14;fill-rule:evenodd"
         id="path12"
         inkscape:connector-curvature="0" />
      <path
         d="m 280.4885,418.5299 c 2.485,-0.9187 4.733,-1.6667 6.408,-2.1783 3.6855,-1.1258 7.3213,-2.149 11.0144,-3.0413 -0.2347,-1.1706 -0.4071,-2.3547 -0.5239,-3.5049 -7.405,-4.799 -13.2681,-11.6181 -16.8985,-19.5889 z"
         style="fill:#111b14;fill-rule:evenodd"
         id="path14"
         inkscape:connector-curvature="0" />
    </g>
    <g
       id="Layer1002">
      <path
         d="m 313.6626,320.5057 c 3.3199,-7.5316 6.8062,-14.9908 10.5209,-22.3536 6.8725,-13.6219 14.4434,-26.7354 22.7209,-39.5494 4.2048,-6.5095 8.561,-12.9187 12.9982,-19.2715 2.3426,-3.3541 4.7407,-6.6694 7.1866,-9.9489 18.8125,-25.2253 40.7541,-49.1245 63.4552,-70.917 l 7.4027,-7.1066 0.3641,10.2553 c 0.2732,7.6925 0.0651,15.5319 -0.2502,23.2209 -0.4077,9.9437 -1.088,19.8968 -2.0342,29.8037 -0.2743,2.8712 -0.5715,5.742 -0.8966,8.6103 1.4882,-1.1112 2.9822,-2.2155 4.4822,-3.3127 l 8.1355,-5.9503 -1.1572,13.6537 C 482.4664,202.0849 520.8466,180.703 561.29,163.064 l 10.4394,-4.553 -4.364,10.52 c -3.5182,8.481 -7.127,16.9252 -10.889,25.3011 -6.6045,14.7056 -14.0781,30.1755 -22.6592,45.1603 l 17.5842,-5.5065 -4.9358,9.7167 c -14.1691,27.8934 -38.0006,63.4945 -63.8474,81.3923 -7.7384,5.3582 -17.5948,8.8103 -26.6005,11.3421 -11.4618,3.222 -23.359,5.4482 -35.0881,7.4595 -19.6532,3.3698 -39.4728,6.2215 -59.311,8.6112 l -0.5061,0.0542 c 1.4136,0.6413 2.8143,1.2495 4.1692,1.8254 5.4356,2.3097 11.3587,4.5832 17.0735,6.0858 6.0966,1.6032 9.7735,2.5653 11.5604,4.4853 1.2288,1.3204 1.6216,3.4338 0.9626,5.6158 1.3491,2.248 1.9719,5.015 2.2523,7.8572 0.3084,3.1271 0.1885,6.5339 0.6478,9.5824 1.2518,8.3005 2.753,16.0269 4.7258,24.1801 l 0.5595,2.3123 c 10.8035,1.5083 20.8462,4.3551 28.2351,9.5443 5.6149,3.9436 7.5904,9.6208 4.0527,15.8486 -2.9994,5.2796 -7.8868,10.7404 -11.9673,15.237 -5.7225,6.3052 -11.7139,12.4016 -17.6763,18.4799 -8.099,8.2566 -16.8049,16.203 -25.53,23.7974 -5.0403,4.3872 -10.0608,8.8072 -15.161,13.1241 -6.8728,5.8175 -13.9381,11.4124 -21.0031,16.9929 -4.5539,3.5974 -10.5395,7.6291 -15.7517,10.1169 -5.6315,2.6876 -11.7847,4.6693 -17.1268,7.8859 -7.8977,4.7554 -14.839,12.0132 -23.0405,15.9296 -4.2507,2.0299 -8.3937,3.4014 -12.7468,4.6053 -3.0918,0.8544 -6.2112,1.6159 -9.3208,2.4032 -17.585,2.3708 -33.9829,0.5798 -51.5688,-4.1586 16.8876,1.3224 26.0913,0.7437 35.0043,-0.7933 7.2561,-1.2509 15.3575,-4.2251 20.606,-9.6481 3.1085,-3.2109 5.3177,-7.5416 5.1074,-11.5461 -0.1268,-2.4881 -2.3538,-6.2717 -3.5443,-8.4385 -1.825,-3.3222 -3.6667,-6.7359 -4.4414,-10.4819 -1.0091,-4.8778 -1.9115,-10.1901 -3.307,-14.95 -1.8584,-6.3374 -3.7477,-10.4707 -3.6642,-17.3538 0.074,-6.0755 -0.0244,-12.1566 6e-4,-18.2332 0.0215,-5.2687 -0.4912,-14.8502 -0.1053,-23.1854 0.3405,-7.3545 1.2845,-13.5938 5.2973,-17.12 2.7372,-3.7021 17.1372,-9.1828 23.0772,-10.9972 5.7441,-1.7545 10.5,-3.0505 16.5057,-4.2286 -1.4297,-2.4491 -2.2744,-6.9035 -2.3447,-10.722 -9.8171,-5.4784 -17.124,-14.9159 -19.7587,-26.1515 -10.7981,6.7098 -21.789,10.4288 -34.283,13.0159 -10.7006,2.2156 -21.1397,2.4557 -31.8483,3.9144 -4.6626,0.6349 -9.2226,1.562 -13.6767,3.1044 -4.5895,1.5895 -8.495,4.0653 -12.8613,6.0689 -4.3685,2.0041 -8.5902,3.1394 -13.411,3.3658 -6.6438,0.3124 -12.3236,-0.9253 -18.4128,-3.4685 l -4.881,-2.0386 0.309,-5.281 c 0.4473,-7.6345 1.6546,-15.6624 3.653,-23.21 -3.3592,-3.1099 -6.5055,-6.9876 -8.112,-10.6498 -2.0385,-4.6471 0.5779,-11.1805 2.285,-15.6306 2.2672,-5.9104 4.8736,-11.742 7.4013,-17.5469 6.4266,-14.7578 18.6851,-39.3207 30.7511,-49.8858 2.7463,-2.4043 6.3543,-3.9588 10.0865,-4.9174 -4.5551,-4.0782 -13.8652,-12.7112 -16.2033,-14.5561 -7.2455,-5.7168 -15.0918,-11.1481 -23.0778,-15.4817 -4.3617,-2.3668 -8.676,-3.9549 -13.3573,-5.5134 -3.8467,-1.2805 -8.6385,-2.6453 -9.9583,-7.0288 -0.0181,-0.0603 -0.0356,-0.1205 -0.0519,-0.1811 -11.5065,2.1545 -23.0325,5.2078 -34.3628,8.0836 -7.6793,1.9493 -15.175,4.4199 -22.7123,6.8415 -6.6642,2.1412 -13.5642,4.3496 -20.4708,5.5289 -10.006,1.7083 -22.5324,0.9456 -29.6115,-7.3437 -4.2257,-4.9475 -6.8507,-12.8681 -0.8309,-17.6309 4.1821,-3.309 11.5148,-4.4745 16.7725,-4.5396 6.142,-0.0763 12.2528,-0.3762 18.3865,-0.6665 14.5704,-0.6898 29.1142,-2.0457 43.6539,-3.4852 -0.7597,-0.7153 -1.4845,-1.4986 -2.1693,-2.3553 -3.2433,-4.0564 -6.1903,-9.9692 -3.5239,-15.0803 0.5967,-1.1439 1.4348,-2.1283 2.4588,-2.9122 4.3092,-3.2981 11.7707,-4.032 17.0712,-3.7394 6.1435,0.3389 12.282,0.3802 18.4298,0.5538 10.3849,0.2932 20.7842,-0.4404 31.1639,-0.7055 18.1159,-0.4631 36.2355,-0.7787 54.3565,-0.9474 l 0.5368,-0.005 0.5271,0.0999 c 0.9299,0.1758 1.7955,0.5571 2.5349,1.1149 0.9772,-0.4502 2.0945,-0.7724 3.3007,-0.754 2.1292,0.0324 4.5763,1.0042 6.7508,4.9995 2.3255,4.273 4.7359,10.3752 6.6662,14.7039 3.3653,7.5453 6.3713,15.2831 9.2459,23.0281 3.2444,8.7424 6.4679,17.5059 9.6091,26.2875 12.8363,0.2198 28.2704,2.4512 37.5435,11.9819 l 1.9906,2.0457 0.4075,9.9902 c 6.0659,9.3615 8.6094,19.9366 8.6955,30.8687 z m 47.4817,62.6392 c 5.6362,0.2731 11.0087,1.551 15.9439,3.6567 -0.601,-0.9176 -1.1978,-1.7892 -1.7094,-2.74 l -4.9255,-4.3339 c -2.1174,-1.8632 -4.7482,-3.7709 -7.6182,-5.6155 -0.2241,3.1216 -0.7999,6.1463 -1.6908,9.0327 z M 210.7347,275.9419 c 0.2895,-0.006 0.579,-0.0106 0.8685,-0.0132 5.0061,-0.0462 9.8966,0.5503 14.8046,0.7666 7.4753,-5.8522 18.111,-9.2263 28.081,-10.5005 -3.4823,-6.756 -6.6628,-13.4876 -10.9613,-19.893 -7.1207,-10.6113 -15.9683,-21.2639 -25.6285,-28.4584 -2.8953,-2.1561 -3.8229,-3.9232 -3.7236,-5.6565 -11.9053,1.4303 -23.8892,3.3756 -35.647,5.7171 -5.5002,1.0954 -10.9516,2.3774 -16.3981,3.6874 6.3136,5.9501 12.325,12.4114 18.074,18.8355 10.3674,11.5845 20.6218,23.5067 30.5304,35.515 z"
         style="fill:#111b14;fill-rule:evenodd"
         id="path17"
         inkscape:connector-curvature="0" />
      <path
         d="m 225.9048,201.5957 c -18.0355,0.1678 -36.1663,0.4832 -54.2681,0.946 -10.5031,0.2682 -20.9974,1.0004 -31.4569,0.7049 -6.7219,-0.1896 -11.8832,-0.1905 -18.5764,-0.5598 -5.2434,-0.2895 -10.8784,0.6513 -13.4575,2.6253 -2.5788,1.974 -1.2073,6.2358 2.0096,10.2595 4.5866,5.7375 11.8063,7.523 20.9144,6.7322 12.4823,-1.0836 28.7229,-6.2266 46.3938,-9.7462 11.9227,-2.3745 25.2394,-4.4882 36.2518,-5.806 2.5412,-0.3039 4.9378,-0.7147 7.1726,-0.8556 3.9976,-0.2522 6.5563,-4.0091 5.0167,-4.3003 z"
         style="fill:#fee600;fill-rule:evenodd"
         id="path19"
         inkscape:connector-curvature="0" />
      <path
         d="m 115.6806,226.028 c -17.3538,1.7183 -34.6049,3.4568 -51.0099,4.2335 -6.723,0.3181 -11.8832,0.589 -18.5764,0.6722 -5.2433,0.0648 -10.8787,1.323 -13.4575,3.3635 -2.5788,2.0403 -1.5444,6.1414 1.5936,9.8157 4.8204,5.6445 14.2181,7.2739 24.5485,5.5102 12.0037,-2.0494 26.3323,-8.1111 42.7596,-12.2806 11.9225,-3.0261 25.6555,-6.5543 36.6679,-8.5179 2.5406,-0.4531 4.9381,-0.9988 7.1726,-1.2768 2.4287,-0.3027 4.1726,-1.8756 4.8222,-3.1033 -6.1346,1.426 -12.453,2.7515 -18.6599,3.2904 -5.47,0.4748 -10.9705,0.132 -15.8607,-1.7069 z"
         style="fill:#fee600;fill-rule:evenodd"
         id="path21"
         inkscape:connector-curvature="0" />
      <path
         d="m 218.6579,211.5895 c 13.8968,9.0258 28.0842,27.7982 36.8053,43.8996 -6.9813,-19.6658 -15.2565,-43.4967 -23.8324,-54.9111 0.7382,2.7426 -0.6998,5.6081 -2.8178,7.5379 -2.0704,1.8864 -4.7855,3.0441 -7.5818,3.2206 -0.8544,0.0539 -1.7134,0.1454 -2.5733,0.253 z"
         style="fill:#fee600;fill-rule:evenodd"
         id="path23"
         inkscape:connector-curvature="0" />
      <path
         d="m 142.6757,233.5148 c 1.4633,2.483 9.8291,3.1503 20.5343,8.9598 8.1842,4.4412 18.2817,11.2635 28.3929,19.671 -10.3832,-12.6909 -24.3532,-28.5691 -35.6691,-38.8596 0.0502,2.1177 -0.9775,4.267 -2.4724,5.8814 -1.9303,2.0848 -4.5898,3.4387 -7.409,3.7902 -1.1239,0.1397 -2.2511,0.3406 -3.3767,0.5572 z"
         style="fill:#fee600;fill-rule:evenodd"
         id="path25"
         inkscape:connector-curvature="0" />
      <path
         d="m 322.3811,338.0724 c 1.5804,0 3.1343,0.1133 4.6555,0.3276 -1.1539,0.701 -2.1909,1.5979 -3.0447,2.6899 -1.9333,2.4726 -2.6224,5.5395 -2.1312,8.6212 0.7353,4.6111 4.1261,7.387 8.118,9.3087 4.2044,2.0234 9.0473,3.2591 13.4268,5.0211 3.5784,1.4397 7.827,3.4407 12.0447,5.7256 0.0195,0.4669 0.0318,0.9354 0.0318,1.4068 0,4.3341 -0.8346,8.4738 -2.3501,12.2677 -13.9005,1.7083 -25.9033,9.554 -33.2185,20.7411 -15.6171,-1.1517 -28.2231,-13.1433 -30.323,-28.4787 8.1346,-6.6705 13.5794,-14.899 18.0467,-24.9737 1.5384,-3.4697 2.767,-7.0808 3.7026,-10.7677 3.4537,-1.2222 7.1695,-1.8896 11.0414,-1.8896 z"
         style="fill:#fee600;fill-rule:evenodd"
         id="path27"
         inkscape:connector-curvature="0" />
      <path
         d="m 322.3811,338.0724 c 1.5804,0 3.1343,0.1133 4.6555,0.3276 -1.1539,0.701 -2.1909,1.5979 -3.0447,2.6899 -1.9333,2.4726 -2.6224,5.5395 -2.1312,8.6212 0.7353,4.6111 4.1261,7.387 8.118,9.3087 4.0506,1.9493 8.6941,3.1679 12.9445,4.83 -5.0859,4.5723 -12.4668,4.0346 -16.5955,2.4709 -6.3429,-2.4021 -11.8758,-10.5295 -7.6535,-21.3922 l -9.1067,0.9222 c 0.6777,-1.9341 1.2676,-3.9004 1.7722,-5.8887 3.4537,-1.2222 7.1695,-1.8896 11.0414,-1.8896 z m 22.2311,26.4645 c 3.3079,1.3881 7.0851,3.1966 10.838,5.2296 0.0195,0.4669 0.0318,0.9354 0.0318,1.4068 0,4.3341 -0.8346,8.4738 -2.3501,12.2677 -2.6824,0.3296 -5.2933,0.8885 -7.8144,1.6552 0.8633,-6.0095 1.3666,-12.3994 -0.7053,-20.5593 z"
         style="fill:#f1c800;fill-rule:evenodd"
         id="path29"
         inkscape:connector-curvature="0" />
      <path
         d="m 411.3942,459.5428 c 8.625,-8.9922 15.9101,-17.0959 18.9677,-22.4781 2.0931,-3.6846 0.7962,-6.1007 -2.3613,-8.3183 -1.0946,-0.7686 -2.2658,-1.4805 -3.5041,-2.1401 -3.8671,0.5107 -6.9491,1.5387 -10.2512,3.3443 1.4403,5.9885 1.2377,12.6137 0.3199,18.3724 -0.6249,3.9204 -1.6567,7.714 -3.171,11.2198 z"
         style="fill:#f1c800;fill-rule:evenodd"
         id="path31"
         inkscape:connector-curvature="0" />
      <path
         d="m 363.1803,504.5659 c 3.6427,-3.1141 7.5155,-6.5066 13.23,-11.4809 5.4212,-4.7186 12.1233,-10.7634 18.325,-16.7083 -11.9681,5.5986 -15.4318,8.1903 -24.5218,12.859 -0.4789,0.2459 -0.9529,0.4826 -1.4226,0.7107 z"
         style="fill:#f1c800;fill-rule:evenodd"
         id="path33"
         inkscape:connector-curvature="0" />
      <path
         d="m 316.4836,536.4954 c 2.9962,-1.2771 6.0579,-2.4764 9.3067,-4.0269 4.8827,-2.3306 11.6112,-7.0274 14.6665,-9.441 l 9.3753,-27.5522 c -0.6849,0.093 -1.3824,0.1808 -2.0956,0.2642 -5.6658,0.6634 -11.8763,-0.7583 -16.2773,-4.5051 z"
         style="fill:#fee600;fill-rule:evenodd"
         id="path35"
         inkscape:connector-curvature="0" />
      <path
         d="m 280.2071,548.0532 c -1.9419,6.7968 -7.3522,11.7567 -10.7034,13.6185 4.6523,-1.1781 10.059,-2.4936 16.1183,-5.3872 3.6671,-1.751 7.3445,-4.5559 11.2302,-7.5639 1.9129,-4.2966 3.2496,-8.6465 4.4604,-13.4357 l 19.2033,-79.3879 c -5.1447,-7.4816 -8.1576,-16.5422 -8.1576,-26.3065 0,-0.4441 0.006,-0.8868 0.0189,-1.3278 -6.9143,4.8371 -14.0766,11.6034 -14.7535,14.2821 -5.9842,23.6763 -11.1188,65.4831 -15.7347,95.9079 -0.6289,4.1451 -0.9572,7.444 -1.6819,9.6005 z"
         style="fill:#fee600;fill-rule:evenodd"
         id="path37"
         inkscape:connector-curvature="0" />
      <path
         d="m 292.4567,426.3882 c -8.5005,2.3522 -14.0497,5.0719 -18.3532,9.6995 -2.4006,2.5814 -4.6733,5.7487 -5.8668,9.6516 -3.0253,9.8934 -2.1057,31.1272 -2.2796,45.4314 -0.0752,6.1816 1.6925,9.7356 3.4327,15.6693 1.0438,3.5601 2.2511,9.7529 3.4197,15.4025 0.2098,1.0134 0.5391,2.0308 0.9471,3.0508 0.2881,-26.1036 0.6944,-59.1227 5.3163,-82.4909 0.7905,-3.9979 7.129,-11.3088 13.3838,-16.4142 z"
         style="fill:#fee600;fill-rule:evenodd"
         id="path39"
         inkscape:connector-curvature="0" />
      <path
         d="m 309.9921,409.8034 c 0.8126,3.5064 2.0176,6.519 3.4094,9.9646 0.6353,-2.9527 1.5499,-5.8012 2.7168,-8.5163 -2.0993,-0.3262 -4.1459,-0.8134 -6.1262,-1.4483 z"
         style="fill:#f1c800;fill-rule:evenodd"
         id="path41"
         inkscape:connector-curvature="0" />
      <g
         id="Layer1003">
        <path
           d="m 322.2078,534.0873 c 1.1718,-0.5053 2.3642,-1.0375 3.5825,-1.6188 4.8824,-2.3306 11.6112,-7.0274 14.6665,-9.441 l 3.1504,-9.2587 z"
           style="fill:#f1c800;fill-rule:evenodd"
           id="path43"
           inkscape:connector-curvature="0" />
        <path
           d="m 313.7909,441.0835 c -0.9354,-3.6754 -1.4326,-7.5261 -1.4326,-11.493 0,-0.4441 0.006,-0.8868 0.0189,-1.3278 -5.1857,3.6277 -10.5114,8.3409 -13.135,11.6006 z"
           style="fill:#f1c800;fill-rule:evenodd"
           id="path45"
           inkscape:connector-curvature="0" />
        <path
           d="m 292.4567,426.3882 c -8.5005,2.3522 -14.0497,5.0719 -18.3532,9.6995 -1.3502,1.4521 -2.6603,3.0898 -3.7603,4.939 1.9163,0.2823 8.1171,-0.2172 9.7899,-0.9124 2.2089,-4.088 7.2934,-9.6203 12.3236,-13.7261 z"
           style="fill:#f1c800;fill-rule:evenodd"
           id="path47"
           inkscape:connector-curvature="0" />
      </g>
      <path
         d="m 161.2733,399.5806 c 0.6077,-10.3775 2.6671,-19.8311 4.7536,-26.3022 -4.3815,-3.0229 -8.4399,-7.8251 -9.8283,-10.9903 -1.1296,-2.5751 4.3473,-14.9239 9.6943,-27.2025 7.6208,-17.5002 19.347,-38.9523 28.8256,-47.2516 2.8709,-2.5134 8.0681,-3.9092 13.267,-4.298 7.5989,-0.5684 15.7451,0.6507 21.1041,0.6938 7.9539,-7.6653 23.2838,-11.2856 35.0034,-11.1631 11.3579,0.1185 25.4727,1.8673 33.1293,9.7365 l 0.3779,9.2631 c 7.7915,10.9303 9.4289,23.6967 8.2732,35.816 -0.6759,7.0897 -2.398,13.8299 -5.0557,19.8236 -4.8503,10.9381 -10.8041,19.3791 -21.0416,25.9042 -7.959,5.0729 -17.2232,9.3632 -32.6805,12.564 -17.0672,3.534 -31.3356,2.0388 -46.4537,7.2748 -9.756,3.379 -14.2012,8.5633 -24.1813,9.0321 -6.3546,0.2987 -11.054,-1.1741 -15.1873,-2.9004 z m 125.9833,-113.502 c -23.802,3.9437 -43.2448,18.8734 -59.1712,38.1963 -7.3987,8.9764 -15.284,21.9932 -19.2102,29.1194 -1.8951,3.4395 -4.9074,6.8977 -8.0936,9.0898 -6.0832,4.1846 -12.7018,5.2212 -20.4376,6.8604 6.1142,1.8635 14.5214,2.8187 25.652,0.1437 49.0612,0.8665 72.4331,-7.4885 83.6721,-20.8949 11.9641,-14.2718 16.9111,-42.8015 -9.8633,-59.3617 2.2931,-1.1942 5.1588,-2.102 7.4518,-3.153 z"
         style="fill:#fee600;fill-rule:evenodd"
         id="path50"
         inkscape:connector-curvature="0" />
      <g
         id="Layer1004">
        <path
           d="m 374.244,375.4197 c 0.2112,-3.6602 2.3229,-7.1798 6.6519,-9.3971 -9.5026,-2.4988 -26.2347,-9.3147 -34.5464,-14.9214 -2.6858,-1.8118 -3.6346,-3.1856 -5.2746,-5.2881 -4.8016,-6.1561 -14.6253,-3.7661 -13.5474,2.9945 0.355,2.2256 2.1789,3.7124 4.9402,5.0417 3.1296,1.5063 8.3997,2.9851 13.0796,4.8678 7.5737,3.0471 21.1342,10.0484 28.6967,16.7026 z"
           style="fill:#fee600;fill-rule:evenodd"
           id="path52"
           inkscape:connector-curvature="0" />
        <path
           d="m 389.2492,414.2385 c -0.5139,-7.3654 -1.9272,-17.806 -4.0226,-23.8516 -2.5025,-7.2191 -5.493,-8.1877 -5.5768,-11.9159 -0.0442,-1.9662 0.5667,-3.7245 1.5192,-5.0116 1.4975,-2.0236 3.7931,-2.6488 6.1478,-1.9427 3.1173,0.936 3.7815,4.2177 4.1032,7.4779 0.3139,3.1828 0.2975,7.3092 0.6843,9.8748 1.5137,10.038 2.5882,15.4407 4.8225,24.6742 -2.1792,-0.4662 -5.4985,0.264 -7.6776,0.6949 z"
           style="fill:#fee600;fill-rule:evenodd"
           id="path54"
           inkscape:connector-curvature="0" />
        <path
           d="m 369.901,447.6355 c 3.6352,-4.3499 6.69,0.6639 5.4913,2.5019 -1.3474,2.0658 -2.3565,3.6984 -3.9491,5.413 -3.4132,3.6748 -9.1917,7.3456 -13.7622,10.7169 -9.3598,6.9034 -18.1199,12.3173 -23.3481,14.1905 -1.5726,0.5635 -2.5303,3.0267 0.1196,5.7309 2.7378,2.7943 7.0335,4.6876 12.1395,4.0903 12.5597,-1.4699 30.5855,-12.55 39.1399,-20.7785 3.4995,-3.3658 7.3648,-7.9321 9.2344,-15.3006 0.9732,-3.8364 6.4567,-2.1221 6.2065,1.193 -0.2926,3.8814 -3.7976,9.5184 -7.52,15.1592 9.1024,-4.2062 13.6276,-12.9821 15.2455,-23.1323 1.2191,-7.6469 0.9118,-16.1313 -2.4738,-21.8656 -4.4434,-7.5261 -11.4172,-6.9287 -17.3785,-5.4526 -7.9914,1.9789 -22.3567,17.4982 -31.3352,23.7331 -4.3717,3.0362 -6.834,5.3008 -10.6044,6.542 -4.0536,1.3347 -5.9908,5.411 -4.5912,8.8815 1.0214,2.5323 3.861,4.4328 7.8113,4.1279 1.0142,-0.5475 4.6268,-3.5268 7.724,-5.3436 4.5976,-2.6973 7.4983,-5.1989 11.8505,-10.407 z"
           style="fill:#fee600;fill-rule:evenodd"
           id="path56"
           inkscape:connector-curvature="0" />
      </g>
      <g
         id="Layer1005">
        <path
           d="m 369.901,447.6355 c 2.2193,-2.6554 4.2217,-1.821 5.1728,-0.3503 -0.4935,-1.0946 -2.4442,-2.349 -4.0039,-2.5814 -1.7292,-0.2579 -3.319,0.1504 -4.1933,1.1219 -2.7323,3.0361 -5.056,5.153 -7.8523,7.283 -4.2251,3.2184 -9.0599,6.4789 -13.7008,9.278 1.3313,0.7535 3.0281,1.1517 5.003,0.9994 1.0142,-0.5475 4.6268,-3.5268 7.724,-5.3436 4.5976,-2.6973 7.4983,-5.1989 11.8505,-10.407 z"
           style="fill:#f1c800;fill-rule:evenodd"
           id="path59"
           inkscape:connector-curvature="0" />
        <path
           d="m 341.8957,490.1263 c 1.4627,0.2775 3.0367,0.3469 4.6963,0.1527 12.5597,-1.4699 30.5855,-12.55 39.1399,-20.7785 3.4995,-3.3658 7.3648,-7.9321 9.2344,-15.3006 0.9732,-3.8364 6.4567,-2.1221 6.2065,1.193 -0.2926,3.8814 -3.7976,9.5184 -7.52,15.1592 9.1024,-4.2062 13.6276,-12.9821 15.2455,-23.1323 1.2191,-7.6469 0.9118,-16.1313 -2.4738,-21.8656 -1.8819,-3.1874 -4.2171,-4.9175 -6.7376,-5.7409 4.5866,5.5791 5.7179,9.5795 6.3919,14.268 0.826,5.7444 -0.5176,11.0767 -3.1641,15.0462 -1.2524,-4.8767 -5.6362,-5.648 -8.6273,-3.4901 -2.6485,1.9106 -3.7729,5.3281 -6.6295,9.6665 -2.5208,3.8281 -6.1236,8.3255 -11.2201,12.6636 -10.2917,8.7596 -17.9687,13.681 -34.5421,22.1588 z"
           style="fill:#f1c800;fill-rule:evenodd"
           id="path61"
           inkscape:connector-curvature="0" />
      </g>
      <g
         id="Layer1006">
        <path
           d="m 376.4608,369.5832 c 1.0713,-1.3712 2.5412,-2.5906 4.4351,-3.5606 -9.5026,-2.4988 -26.2347,-9.3147 -34.5464,-14.9214 -2.6858,-1.8118 -3.6346,-3.1856 -5.2746,-5.2881 -4.8016,-6.1561 -14.6253,-3.7661 -13.5474,2.9945 0.1111,0.6955 0.3653,1.3193 0.7469,1.8879 2.9523,-1.6905 6.4682,-2.1584 9.9927,-1.215 2.3079,0.6177 4.4128,1.856 6.665,3.0748 3.1877,1.725 6.4941,3.5925 9.5406,5.1677 7.693,3.9775 15.4722,8.0792 21.9881,11.8602 z"
           style="fill:#f1c800;fill-rule:evenodd"
           id="path64"
           inkscape:connector-curvature="0" />
        <path
           d="m 379.7227,377.1262 c 0.1882,-1.4191 0.7173,-2.6818 1.4463,-3.6668 1.4972,-2.0233 3.7931,-2.6488 6.1478,-1.9427 3.1173,0.936 3.7815,4.2177 4.1032,7.4779 0.3139,3.1828 0.2975,7.3092 0.6843,9.8748 1.5137,10.038 2.5882,15.4407 4.8225,24.6742 -0.2723,-0.0582 -0.5627,-0.0978 -0.8662,-0.1217 -0.9428,-3.3643 -2.7651,-10.8396 -4.5468,-18.1838 -0.9176,-3.7813 -2.0635,-8.1372 -3.2338,-11.625 -0.8504,-2.5352 -2.7206,-7.4311 -6.0996,-7.3691 -1.1697,0.0212 -1.9298,0.4797 -2.4577,0.8822 z"
           style="fill:#f1c800;fill-rule:evenodd"
           id="path66"
           inkscape:connector-curvature="0" />
      </g>
      <path
         d="m 358.8596,387.9671 c 7.8569,0 15.2054,2.1791 21.4757,5.9644 1.8147,6.1741 2.765,14.6212 3.1893,20.7064 l 0.1007,1.4446 c -9.5875,4.799 -21.1181,17.435 -29.1876,23.0391 -2.646,1.8374 -6.0628,4.7963 -9.1257,5.8046 -6.8659,2.2606 -10.8798,9.6317 -8.1185,16.4781 1.0463,2.5949 2.4482,4.2547 7.0873,7.1815 -15.7952,-5.9099 -27.0449,-21.1402 -27.0449,-38.995 0,-22.9843 18.6395,-41.6237 41.6237,-41.6237 z"
         style="fill:#95842e;fill-rule:evenodd"
         id="path69"
         inkscape:connector-curvature="0" />
      <g
         id="Layer1007">
        <path
           d="m 225.9048,201.5957 c -18.0355,0.1678 -36.1663,0.4832 -54.2681,0.946 -10.5031,0.2682 -20.9974,1.0004 -31.4569,0.7049 -6.7219,-0.1896 -11.8832,-0.1905 -18.5764,-0.5598 -5.2434,-0.2895 -10.8784,0.6513 -13.4575,2.6253 -2.4981,1.9123 -1.2891,5.9719 1.7135,9.8817 7.7387,-5.7762 15.045,-7.1127 23.2901,-8.0879 13.3178,-1.5769 29.1108,-0.929 43.4282,-0.2685 10.1063,0.4659 23.41,1.4331 31.291,0.6593 2.0044,-0.2697 3.9594,-0.5199 5.8468,-0.7451 2.5406,-0.3036 4.9378,-0.7147 7.1726,-0.8556 3.9976,-0.2522 6.5563,-4.0091 5.0167,-4.3003 z"
           style="fill:#f1c800;fill-rule:evenodd"
           id="path71"
           inkscape:connector-curvature="0" />
        <path
           d="m 218.6582,211.5895 c 1.1987,0.7787 2.3997,1.63 3.599,2.5456 4.179,0.552 7.4863,-0.3495 9.9276,-0.9494 0.9052,-0.2227 1.7362,-0.3446 2.3436,0.5709 7.186,10.8274 15.4048,25.4968 20.9348,41.7325 -6.9813,-19.6658 -15.2565,-43.4967 -23.8324,-54.9111 0.7382,2.7426 -0.6998,5.6081 -2.8178,7.5379 -2.0704,1.8864 -4.7855,3.0441 -7.5818,3.2206 -0.8541,0.0539 -1.7131,0.1454 -2.573,0.253 z"
           style="fill:#f1c800;fill-rule:evenodd"
           id="path73"
           inkscape:connector-curvature="0" />
      </g>
      <g
         id="Layer1008">
        <path
           d="m 433.7234,161.7769 c -19.5639,18.781 -47.7669,48.2685 -70.0574,80.183 -18.6466,26.6972 -33.5467,51.0538 -49.773,89.545 2.7375,-0.5836 5.5765,-0.8923 8.4881,-0.8923 1.5066,0 2.9934,0.0835 4.4576,0.2439 6.7032,-8.4965 13.5407,-16.8865 20.5796,-25.1106 13.1077,-15.315 26.8768,-29.9759 41.5485,-43.8055 13.092,-12.3402 26.8077,-23.9351 41.083,-34.8522 2.9974,-24.1781 4.1683,-51.3789 3.6736,-65.3113 z"
           style="fill:#594726;fill-rule:evenodd"
           id="path76"
           inkscape:connector-curvature="0" />
        <path
           d="m 442.3226,223.6414 -0.6381,7.5302 c -2.3404,1.7028 -4.6701,3.4231 -6.9884,5.1624 -9.0815,6.8126 -17.9742,13.8744 -26.6376,21.2114 -26.8286,22.7203 -50.8472,47.7061 -72.5412,75.244 -1.1566,-0.3959 -2.3367,-0.7414 -3.5374,-1.0329 30.9307,-39.0071 63.2896,-73.6998 110.3427,-108.1151 z"
           style="fill:#594726;fill-rule:evenodd"
           id="path78"
           inkscape:connector-curvature="0" />
        <path
           d="m 563.1251,167.2719 c -43.9289,19.1591 -85.8757,42.8788 -125.6743,72.7344 -35.9102,26.9385 -67.7242,56.9321 -97.517,94.5935 3.3093,1.5919 6.3689,3.6195 9.1055,6.0086 11.5329,-1.8187 27.5359,-4.9943 44.2301,-8.6697 32.5621,-7.1692 68.583,-17.9104 87.8752,-33.6656 36.195,-29.5592 61.2442,-81.0147 81.9805,-131.0012 z"
           style="fill:#95842e;fill-rule:evenodd"
           id="path80"
           inkscape:connector-curvature="0" />
        <path
           d="m 542.3727,241.6236 -12.0025,3.7586 c -12.8226,21.4298 -28.0222,41.5018 -46.322,56.4467 -17.522,14.3093 -45.8759,23.4252 -67.5394,29.2057 -7.3741,1.9674 -14.7992,3.7466 -22.2524,5.3874 -12.2366,2.6942 -24.5479,5.2581 -36.887,7.4412 -1.4438,0.2557 -2.8901,0.5067 -4.3385,0.7497 1.0794,1.2444 2.0842,2.555 3.0078,3.925 22.1533,-2.5977 44.3497,-5.777 64.115,-9.1661 25.2002,-4.3212 47.1736,-9.2728 59.851,-18.051 24.5247,-16.9823 48.1049,-51.6187 62.368,-79.6972 z"
           style="fill:#95842e;fill-rule:evenodd"
           id="path82"
           inkscape:connector-curvature="0" />
      </g>
      <g
         id="Layer1009">
        <path
           d="m 115.6806,226.028 c -17.3538,1.7183 -34.6049,3.4568 -51.0099,4.2335 -6.723,0.3181 -11.8832,0.589 -18.5764,0.6722 -5.2433,0.0648 -10.8787,1.323 -13.4575,3.3635 -2.5788,2.0403 -1.5444,6.1414 1.5936,9.8157 0.4519,0.5294 0.9439,1.0231 1.4733,1.4822 7.5424,-9.3512 24.0427,-11.9018 41.8447,-13.708 23.6281,-2.3972 49.3351,-1.405 55.3139,-2.0354 1.8363,-0.3752 3.6237,-0.7207 5.3441,-1.0271 2.5406,-0.4528 4.9381,-0.9988 7.1726,-1.2768 2.4287,-0.3027 4.1726,-1.8756 4.8222,-3.1033 -6.1346,1.426 -12.453,2.7515 -18.6599,3.2904 -5.47,0.4748 -10.9705,0.132 -15.8607,-1.7069 z"
           style="fill:#f1c800;fill-rule:evenodd"
           id="path85"
           inkscape:connector-curvature="0" />
        <path
           d="m 142.6745,233.5151 c 0.5641,0.958 2.1556,1.6457 4.5126,2.4623 5.695,-0.6513 8.2397,-2.6864 9.7744,-3.6935 1.191,-0.7812 1.7829,-0.993 2.9529,-0.1116 2.2027,1.6592 12.6404,9.7813 25.4016,22.4277 -9.3271,-10.997 -20.2239,-22.9855 -29.3822,-31.314 0.0502,2.1177 -0.9775,4.267 -2.4724,5.8814 -1.9303,2.0848 -4.5898,3.4387 -7.409,3.7902 -1.1241,0.1397 -2.2517,0.3409 -3.3779,0.5575 z"
           style="fill:#f1c800;fill-rule:evenodd"
           id="path87"
           inkscape:connector-curvature="0" />
      </g>
      <g
         id="Layer1010">
        <path
           d="m 208.7326,366.525 c 2.8878,-0.1165 7.4151,-0.0597 10.5651,-0.2169 25.6575,-1.2805 50.1156,-2.5585 66.1008,-20.2572 12.3084,-13.6282 14.7467,-38.513 -6.4427,-56.2662 -3.2022,1.4452 -6.3919,3.2029 -9.5396,5.2116 34.0902,19.7521 14.5673,50.8948 7.2782,56.3121 -8.5277,6.3377 -34.8003,14.2534 -50.0419,-11.8232 -3.5563,5.2104 -6.9359,10.5458 -10.1752,15.916 -2.289,3.7954 -4.9381,8.1806 -7.7447,11.1238 z"
           style="fill:#1f2c27;fill-rule:evenodd"
           id="path90"
           inkscape:connector-curvature="0" />
        <path
           d="m 225.2656,341.5375 c 8.0551,14.775 24.1313,20.7087 36.8753,18.3623 5.9446,-1.0946 11.7225,-3.8648 16.3854,-7.263 4.3643,-3.1802 8.071,-8.2878 10.0751,-14.0118 4.4093,-12.5939 2.6608,-28.1576 -7.7843,-38.1024 -2.1069,-2.0062 -5.3306,-4.657 -9.247,-6.8573 -1.3586,0.8117 -2.7105,1.6724 -4.0536,2.5773 3.8298,1.8351 7.4745,4.4768 10.4317,7.2929 8.9928,8.5621 10.7011,22.363 6.7267,33.7146 -1.6018,4.5746 -4.6535,9.1497 -8.5985,12.0243 -4.2731,3.1139 -9.4637,5.5717 -14.689,6.534 -6.5511,1.2062 -13.5978,-0.1911 -19.4368,-3.3067 -6.2688,-3.3449 -11.0463,-8.53 -14.0081,-14.889 -0.9035,1.3004 -1.7955,2.609 -2.6769,3.9248 z"
           style="fill:#ffffff;fill-rule:evenodd"
           id="path92"
           inkscape:connector-curvature="0" />
        <path
           d="m 231.432,332.7165 c 4.1984,12.6195 13.5783,20.4528 24.4145,21.2232 16.4595,1.17 26.9686,-12.3127 26.5796,-28.4299 -0.2531,-10.4894 -5.3326,-21.3162 -17.3788,-27.5477 -1.1373,0.8177 -2.2666,1.6653 -3.3876,2.5401 8.734,5.7159 12.8059,14.1877 12.9984,22.5065 0.2235,9.6688 -2.9397,15.1489 -7.5149,17.7016 -5.1854,2.8933 -11.6132,1.947 -17.5526,-2.4061 -4.3864,-3.2143 -8.4962,-8.0072 -11.0572,-14.7764 -2.4465,2.9873 -4.8107,6.057 -7.1014,9.1887 z"
           style="fill:#95842e;fill-rule:evenodd"
           id="path94"
           inkscape:connector-curvature="0" />
        <path
           d="m 254.3408,319.0266 c -3.3679,11.7642 -5.2001,24.884 1.1944,33.1374 -4.4598,-1.2817 -8.6809,-3.3787 -12.9023,-7.776 2.6531,-10.9175 6.8245,-18.9127 11.7079,-25.3614 z"
           style="fill:#65706c;fill-rule:evenodd"
           id="path96"
           inkscape:connector-curvature="0" />
        <path
           d="m 249.3229,322.9743 c -4.8581,4.0673 -8.8801,8.3739 -13.0217,13.279 1.1752,2.4523 2.3301,4.0071 3.8229,5.5028 1.6908,-6.8599 5.2353,-13.0802 9.1988,-18.7818 z"
           style="fill:#65706c;fill-rule:evenodd"
           id="path98"
           inkscape:connector-curvature="0" />
        <path
           d="m 251.3264,339.4711 c -0.5821,-0.3569 -1.1611,-0.7457 -1.7358,-1.1669 -1.3706,-1.0045 -2.7145,-2.1628 -3.9922,-3.4877 -1.1247,2.9245 -2.122,6.1001 -2.9655,9.5715 4.2214,4.3973 8.4425,6.4943 12.9023,7.776 -2.7197,-3.5102 -3.9506,-7.9008 -4.2088,-12.6929 z"
           style="fill:#d5cca3;fill-rule:evenodd"
           id="path100"
           inkscape:connector-curvature="0" />
        <path
           d="m 243.5808,332.5085 c -0.6117,-0.7724 -1.2001,-1.5898 -1.7611,-2.4545 -1.8715,1.9696 -3.6834,4.0257 -5.5185,6.1993 1.1752,2.4523 2.3301,4.0071 3.8229,5.5028 0.7933,-3.2192 1.9952,-6.2975 3.4567,-9.2476 z"
           style="fill:#d5cca3;fill-rule:evenodd"
           id="path102"
           inkscape:connector-curvature="0" />
        <path
           d="m 267.7489,305.6997 c 4.5666,5.0999 6.7689,11.2451 6.9092,17.309 0.0477,2.0664 -0.0594,3.9411 -0.3018,5.6371 l 5.452,2.2293 c 1.1098,-9.3876 -1.455,-19.5728 -8.1725,-26.188 z"
           style="fill:#594726;fill-rule:evenodd"
           id="path104"
           inkscape:connector-curvature="0" />
        <path
           d="m 273.7067,331.7671 c -0.789,2.8043 -2.0268,4.9826 -3.579,6.622 1.4137,2.2084 2.8026,4.4323 4.1563,6.7667 2.3272,-2.9584 3.6395,-5.6772 4.5333,-9.4132 -1.7373,-1.621 -3.237,-2.8066 -5.1106,-3.9755 z"
           style="fill:#594726;fill-rule:evenodd"
           id="path106"
           inkscape:connector-curvature="0" />
        <path
           d="m 264.6747,302.8632 a 5.691,6.1508 59.1248 0 1 6.0332,5.4045 5.691,6.1508 59.1248 1 1 -6.0332,-5.4045 z"
           style="fill:#ffffff;fill-rule:evenodd"
           id="path108"
           inkscape:connector-curvature="0" />
        <path
           d="m 271.5441,315.2754 a 3.439,3.5102 36.7553 0 1 3.4646,3.4157 3.439,3.5102 36.7553 1 1 -3.4646,-3.4157 z"
           style="fill:#ffffff;fill-rule:evenodd"
           id="path110"
           inkscape:connector-curvature="0" />
      </g>
      <g
         id="Layer1011">
        <path
           d="m 193.778,288.6939 c 4.5596,5.2064 5.8407,12.0464 2.9997,20.8559 -0.3942,1.2231 2.3174,0.6298 3.5847,-0.2694 9.0786,-6.4398 17.4359,-13.4443 25.5226,-17.6238 3.9666,-2.0498 9.4482,-3.3446 12.6585,-4.6423 4.3909,-1.7746 8.2212,-3.1435 11.8932,-4.2395 14.5908,-4.3545 32.9551,-5.39 46.8703,2.106 l -0.0847,-2.0776 c -7.6566,-7.8692 -21.7714,-9.618 -33.1293,-9.7365 -11.7196,-0.1225 -27.0495,3.4978 -35.0034,11.1631 -5.359,-0.0431 -13.5052,-1.2622 -21.1041,-0.6938 -5.1989,0.3888 -10.3961,1.7846 -13.267,4.298 -0.311,0.2726 -0.6246,0.5595 -0.9405,0.8599 z"
           style="fill:#f1c800;fill-rule:evenodd"
           id="path113"
           inkscape:connector-curvature="0" />
        <path
           d="m 189.5006,323.1754 c -2.8703,2.4819 -11.7905,15.449 -15.6343,27.9187 -1.1947,3.8759 -1.7964,8.1926 -1.4412,11.3001 0.2841,2.4867 1.9201,3.7529 4.5431,1.3325 9.0955,-8.3943 10.8838,-25.7912 12.5324,-40.5513 z"
           style="fill:#f1c800;fill-rule:evenodd"
           id="path115"
           inkscape:connector-curvature="0" />
        <path
           d="m 190.9071,371.1044 c -3.9494,8.6422 -6.5595,15.6668 -6.4195,20.0139 3.1662,-0.0362 16.4151,-9.9787 25.869,-13.1987 5.171,-1.7614 12.0054,-2.4314 18.9384,-3.905 12.344,-2.6238 25.7323,-6.4912 37.1134,-10.9427 -13.7297,4.519 -33.0839,6.8989 -60.4124,6.4163 -5.7326,1.3775 -10.7424,1.7924 -15.0889,1.6162 z"
           style="fill:#f1c800;fill-rule:evenodd"
           id="path117"
           inkscape:connector-curvature="0" />
      </g>
      <g
         id="Layer1012">
        <path
           d="m 322.2925,432.0244 c 0.4097,6.4189 3.5336,14.5283 7.0868,19.1141 l 8.3616,0.1193 c 1.5341,-2.8941 4.2105,-5.2253 7.5711,-6.3316 0.7428,-0.2445 1.5066,-0.6043 2.275,-1.0344 l -5.1791,-16.4486 -9.7357,-3.0777 z"
           style="fill:#ffffff;fill-rule:evenodd"
           id="path120"
           inkscape:connector-curvature="0" />
        <path
           d="m 329.4513,407.2553 4.3663,13.2451 9.7356,3.2924 12.8854,-9.4493 0.0706,-10.1648 -11.5245,-8.4466 c -5.5829,2.1206 -10.7129,6.1642 -15.5334,11.5232 z"
           style="fill:#ffffff;fill-rule:evenodd"
           id="path122"
           inkscape:connector-curvature="0" />
        <path
           d="m 360.3757,404.2492 8e-4,10.1661 12.4817,9.1288 c 3.6729,-3.035 7.3439,-5.7481 10.7671,-7.4616 l -0.1007,-1.4446 c -0.2582,-3.7021 -0.7112,-8.2784 -1.4348,-12.6851 -2.8985,-2.2291 -6.1194,-4.2734 -9.7592,-6.0783 z"
           style="fill:#ffffff;fill-rule:evenodd"
           id="path124"
           inkscape:connector-curvature="0" />
      </g>
      <g
         id="Layer1013">
        <path
           d="m 516.8082,266.1081 c 4.5852,-1.3 9.2559,-2.5759 14.0231,-3.8337 0.7032,-1.1528 1.3947,-2.3045 2.0755,-3.4536 -4.4343,1.139 -8.9521,2.3599 -13.5344,3.6587 -0.8455,1.2183 -1.7003,2.4282 -2.5642,3.6286 z"
           style="fill:#594726;fill-rule:evenodd"
           id="path127"
           inkscape:connector-curvature="0" />
        <path
           d="m 355.1877,347.324 c 2.5805,-1.5284 5.1421,-3.0143 7.6907,-4.4604 -1.4285,0.2654 -2.8573,0.5262 -4.2865,0.7821 -1.4125,0.855 -2.8212,1.7175 -4.2265,2.5883 0.28,0.3586 0.554,0.7219 0.8223,1.09 z m 141.4825,-57.0616 c 5.8571,-1.4549 11.8513,-2.8444 18.0269,-4.1803 0.8444,-1.1184 1.6813,-2.2448 2.51,-3.379 -5.6431,1.2242 -11.3697,2.5633 -17.1539,4.0128 -1.1147,1.2007 -2.2419,2.3834 -3.383,3.5465 z"
           style="fill:#594726;fill-rule:evenodd"
           id="path129"
           inkscape:connector-curvature="0" />
        <path
           d="m 360.7329,347.9787 c 6.3773,-3.0043 12.6604,-5.8051 18.863,-8.4141 -2.726,0.5658 -5.4551,1.1204 -8.1863,1.661 -5.0721,2.3329 -10.162,4.7726 -15.2209,7.2945 1.5149,-0.1781 3.0296,-0.358 4.5442,-0.5414 z M 468.8287,311.788 c 8.9842,-1.8064 18.1486,-3.3443 27.8642,-4.7123 0.9562,-0.9637 1.9079,-1.947 2.8542,-2.9486 -8.1659,1.2108 -16.4236,2.6063 -24.725,4.2116 -1.9321,1.1924 -3.9345,2.3418 -5.9934,3.4493 z"
           style="fill:#594726;fill-rule:evenodd"
           id="path131"
           inkscape:connector-curvature="0" />
        <path
           d="m 372.2772,346.5312 c 16.6383,-5.6924 31.8781,-9.8492 48.842,-13.378 18.3124,-3.8091 35.5822,-6.4794 52.7891,-8.2396 1.7662,-0.8958 3.4203,-1.8366 4.9519,-2.8276 -20.0098,1.9071 -39.9775,4.8716 -58.769,9.1173 -18.4266,4.1632 -36.2972,9.5443 -54.0636,16.1244 2.0871,-0.2608 4.1706,-0.5265 6.2496,-0.7965 z"
           style="fill:#594726;fill-rule:evenodd"
           id="path133"
           inkscape:connector-curvature="0" />
      </g>
      <g
         id="Layer1014">
        <path
           d="m 342.8503,336.1526 c 25.3005,-26.004 45.2202,-42.8167 69.1129,-59.7703 43.0827,-30.5709 81.9999,-51.0833 134.8128,-71.9619 0.5518,-1.1666 1.0992,-2.3361 1.6443,-3.5073 -42.8956,15.9373 -96.2318,43.0365 -138.232,73.9156 -24.3729,17.9193 -47.4427,37.9776 -68.3609,60.7444 0.344,0.1882 0.6852,0.3816 1.0229,0.5795 z"
           style="fill:#594726;fill-rule:evenodd"
           id="path136"
           inkscape:connector-curvature="0" />
        <path
           d="m 345.0779,337.5571 c 24.0625,-20.7076 43.7309,-35.0758 66.7435,-48.7728 39.3333,-23.4118 74.9628,-39.2622 119.2506,-53.8163 0.6825,-1.2105 1.3608,-2.427 2.0333,-3.6498 -39.8236,12.931 -85.3721,32.5379 -122.9397,55.771 -23.1899,14.3417 -45.4463,31.1298 -66.1705,49.7598 0.3649,0.2304 0.7259,0.4665 1.0828,0.7081 z"
           style="fill:#594726;fill-rule:evenodd"
           id="path138"
           inkscape:connector-curvature="0" />
        <path
           d="m 347.15,339.0565 c 22.7031,-16.3694 41.6117,-27.8466 63.6623,-38.7451 34.9071,-17.2525 66.65,-28.7036 103.3176,-38.3916 0.8303,-1.1732 1.6541,-2.3573 2.4706,-3.5524 -35.6794,9.5107 -74.2271,23.0526 -107.3229,40.1221 -21.9416,11.3162 -42.928,24.8139 -62.9978,39.9128 0.2932,0.2141 0.5833,0.4324 0.8702,0.6542 z"
           style="fill:#594726;fill-rule:evenodd"
           id="path140"
           inkscape:connector-curvature="0" />
        <path
           d="m 349.0411,340.6082 c 24.08,-14.1743 43.8008,-23.5484 66.7412,-32.3607 27.5755,-10.5927 53.0307,-18.0278 80.0438,-23.7366 1.0139,-1.0779 2.0184,-2.1731 3.0135,-3.2849 -28.6408,6.0881 -58.021,14.4035 -84.4179,25.0659 -22.8801,9.2421 -44.8627,20.4421 -66.2207,33.6041 0.2826,0.2336 0.562,0.4714 0.8383,0.7124 z"
           style="fill:#594726;fill-rule:evenodd"
           id="path142"
           inkscape:connector-curvature="0" />
        <path
           d="m 356.6458,339.3294 c 21.696,-9.9127 40.2715,-16.6228 61.3641,-22.6621 19.0793,-5.4626 37.0799,-9.5896 55.151,-12.7155 1.7292,-1.0843 3.3773,-2.1966 4.9395,-3.3351 -20.9374,3.4421 -41.8122,8.0485 -61.274,13.9831 -22.0527,6.7247 -43.4747,15.2209 -64.4884,25.4721 1.3858,-0.2318 2.8233,-0.4797 4.3078,-0.7425 z"
           style="fill:#594726;fill-rule:evenodd"
           id="path144"
           inkscape:connector-curvature="0" />
      </g>
      <g
         id="Layer1015">
        <path
           d="m 321.0395,330.6344 c 11.3254,-20.5346 24.7287,-40.4227 37.8342,-57.1433 23.6341,-30.1526 47.807,-53.8745 73.9609,-76.6749 0.1015,-1.5978 0.1954,-3.1787 0.2814,-4.7389 -28.7114,24.675 -54.8009,51.4164 -77.531,81.4445 -13.4752,17.8017 -25.7702,36.5611 -36.7318,57.2428 0.7233,-0.0625 1.4524,-0.1061 2.1863,-0.1302 z"
           style="fill:#95842e;fill-rule:evenodd"
           id="path147"
           inkscape:connector-curvature="0" />
        <path
           d="m 325.0707,330.7012 c 12.5827,-18.1738 26.8094,-35.4906 40.5188,-50.0381 21.3486,-22.6534 42.6661,-41.047 64.9908,-58.0528 0.1738,-1.5345 0.3408,-3.0769 0.5003,-4.6234 -24.7688,18.8418 -47.8093,39.4027 -68.7688,62.4079 -14.149,15.5299 -27.3351,31.9995 -39.5026,50.2201 0.7592,0.008 1.5132,0.037 2.2615,0.0863 z"
           style="fill:#95842e;fill-rule:evenodd"
           id="path149"
           inkscape:connector-curvature="0" />
      </g>
    </g>
    <path
       d="m 144.0512,481.0219 v 15.6602 c 0.0866,0.014 0.1661,0.0258 0.2306,0.035 1.3692,0.1965 2.7243,0.3532 4.1107,0.319 l 5.7334,-0.1417 -8e-4,15.966 H 111.201 v -15.4143 l 5.3143,-0.2668 c 1.5157,-0.0763 3.0766,-0.1679 4.5817,-0.3604 V 444.548 c 0,-0.0284 0,-0.0594 -3e-4,-0.0924 -1.4193,-0.3388 -3.4249,-0.3497 -4.8824,-0.5021 l -5.0133,-0.5239 v -15.0051 h 37.8617 c 8.8795,0 19.4328,0.8656 26.3237,7.1255 5.3042,4.8185 7.0464,11.5553 6.7959,18.5208 -0.3314,9.2349 -5.2733,17.1825 -13.1672,21.8586 -6.4407,3.8154 -14.1237,5.0925 -21.5195,5.0925 z m 0,-36.5706 v 20.0996 h 1.8672 c 7.0547,0 11.7779,-2.468 11.7779,-10.0785 0,-6.8793 -2.9022,-10.0377 -9.8616,-10.0271 z"
       style="fill:#95842e;fill-rule:evenodd"
       id="path153"
       inkscape:connector-curvature="0" />
    <path
       d="m 176.5913,453.87 c -0.2793,7.7745 -4.5857,13.7852 -10.4279,17.2459 -5.3818,3.1881 -12.0422,4.3111 -18.6679,4.3111 h -9.0393 v 22.1765 c 0,3.2533 2.345,4.2662 5.0307,4.6517 1.6106,0.2312 3.2327,0.4189 5.0439,0.3741 l -3e-4,4.6361 h -31.7346 v -4.4985 c 1.1821,-0.0595 3.4071,-0.1913 5.0537,-0.4039 2.7451,-0.3543 4.8423,-1.0757 4.8423,-4.7595 v -53.0554 c 0,-4.0191 -1.5277,-4.8062 -4.0112,-5.4628 -1.699,-0.4491 -4.0373,-0.5032 -5.8848,-0.6962 v -4.3697 h 32.2668 c 14.4615,0 28.1485,2.6091 27.5286,19.8506 z m -13.3001,0.6023 c 0,-9.7185 -5.1118,-15.6377 -15.4651,-15.6219 l -9.3699,0.0147 v 31.2806 h 7.4623 c 9.6717,0 17.3727,-4.4499 17.3727,-15.6734 z"
       style="fill:#ffffff;fill-rule:evenodd"
       id="path155"
       inkscape:connector-curvature="0" />
    <path
       d="m 260.0337,445.1715 c -0.6065,0.779 -0.8271,3.035 -0.8271,3.968 v 64.4118 H 246.3593 L 211.0041,466.0515 210.966,490.59 c -0.002,1.3141 0.5916,4.4059 1.9209,5.0663 1.5487,0.7695 4.0897,1.4415 5.8043,1.5434 l 5.2626,0.3133 v 15.0424 H 182.332 v -14.499 l 4.6621,-0.7882 c 1.5115,-0.2556 4.4051,-0.5047 5.747,-1.102 1.2555,-0.5589 1.718,-4.4331 1.718,-5.5845 v -39.3064 c 0,-1.4357 -0.1147,-3.4673 -0.9178,-4.7189 -1.3109,-2.0425 -5.3562,-2.7446 -7.5078,-3.0341 l -4.8491,-0.6522 v -14.3767 h 29.6042 l 31.9111,43.7274 v -23.0813 c 0,-0.8894 -0.4665,-2.8 -1.0954,-3.4579 -1.976,-1.6773 -4.1508,-1.6595 -6.6863,-1.836 l -5.2061,-0.3626 v -14.9896 h 40.7607 v 14.9348 l -5.1473,0.4131 c -1.4191,0.1137 -4.0613,0.4565 -5.2916,1.3302 z"
       style="fill:#95842e;fill-rule:evenodd"
       id="path157"
       inkscape:connector-curvature="0" />
    <path
       d="m 264.8777,438.2641 c -3.3431,0.2685 -6.3394,1.0041 -8.3194,2.5198 -1.98,1.5154 -2.9466,4.9632 -2.9466,8.3558 v 58.8167 h -4.4423 l -43.7337,-58.7567 -0.0646,41.3819 c -0.007,4.4405 2.0205,8.5918 5.0262,10.0851 2.3375,1.1614 5.6999,1.9834 7.9616,2.118 v 4.176 h -30.432 v -4.176 c 2.6488,-0.4478 5.1522,-0.6451 7.0894,-1.5072 3.2298,-1.4377 5.0377,-5.8302 5.0377,-10.6959 v -39.3063 c 0,-7.5313 -2.8611,-11.8975 -13.2748,-13.2981 v -3.889 h 21.1661 l 40.3493,55.2901 v -40.2386 c 0,-2.6969 -1.2143,-6.1358 -3.0319,-7.6912 -2.6571,-2.2736 -4.819,-2.8265 -9.9559,-3.1844 v -4.1759 h 29.5709 z"
       style="fill:#ffffff;fill-rule:evenodd"
       id="path159"
       inkscape:connector-curvature="0" />
  </g>
</svg>
