<?xml version="1.0" encoding="UTF-8" standalone="no"?>
<!-- Created with Inkscape (http://www.inkscape.org/) -->

<svg
   xmlns:dc="http://purl.org/dc/elements/1.1/"
   xmlns:cc="http://creativecommons.org/ns#"
   xmlns:rdf="http://www.w3.org/1999/02/22-rdf-syntax-ns#"
   xmlns:svg="http://www.w3.org/2000/svg"
   xmlns="http://www.w3.org/2000/svg"
   xmlns:sodipodi="http://sodipodi.sourceforge.net/DTD/sodipodi-0.dtd"
   xmlns:inkscape="http://www.inkscape.org/namespaces/inkscape"
   width="163.13629"
   height="102.76967"
   viewBox="0 0 43.163143 27.191142"
   version="1.1"
   id="svg8"
   sodipodi:docname="fc-spartak-moscow.svg"
   inkscape:export-filename="C:\Users\Karimk\Desktop\corinthians.png"
   inkscape:export-xdpi="96"
   inkscape:export-ydpi="96"
   inkscape:version="0.92.3 (2405546, 2018-03-11)">
  <defs
     id="defs2" />
  <sodipodi:namedview
     id="base"
     pagecolor="#00ffff"
     bordercolor="#666666"
     borderopacity="1.0"
     inkscape:pageopacity="0"
     inkscape:pageshadow="2"
     inkscape:zoom="0.98994949"
     inkscape:cx="263.11944"
     inkscape:cy="-157.05889"
     inkscape:document-units="mm"
     inkscape:current-layer="layer1"
     showgrid="false"
     fit-margin-left="0.1"
     fit-margin-top="0.1"
     fit-margin-right="0.1"
     fit-margin-bottom="0.1"
     units="px"
     inkscape:lockguides="true"
     inkscape:window-width="1920"
     inkscape:window-height="1017"
     inkscape:window-x="-8"
     inkscape:window-y="-8"
     inkscape:window-maximized="1" />
  <metadata
     id="metadata5">
    <rdf:RDF>
      <cc:Work
         rdf:about="">
        <dc:format>image/svg+xml</dc:format>
        <dc:type
           rdf:resource="http://purl.org/dc/dcmitype/StillImage" />
        <dc:title></dc:title>
      </cc:Work>
    </rdf:RDF>
  </metadata>
  <g
     inkscape:label="Layer 1"
     inkscape:groupmode="layer"
     id="layer1"
     transform="translate(-25.194069,-77.990622)">
    <g
       id="g1421"
       transform="matrix(0.48690602,0,0,0.48690602,12.940501,40.030092)">
      <path
         inkscape:connector-curvature="0"
         style="fill:#fcfcfc;fill-rule:evenodd;stroke:none;stroke-width:0.35277778"
         d="M 69.490259,85.118855 25.220527,109.43548 69.502959,133.75315 113.75964,109.43548 Z"
         id="path1218" />
      <path
         inkscape:connector-curvature="0"
         style="fill:#e12e48;fill-rule:evenodd;stroke:none;stroke-width:0.35277778"
         d="M 69.501901,86.814305 28.197266,109.49615 69.501901,132.178 110.7829,109.49615 Z M 33.694602,109.49615 69.490259,89.812563 105.36423,109.49615 69.490259,129.1801 Z"
         id="path1220" />
      <path
         inkscape:connector-curvature="0"
         style="fill:#e12e48;fill-rule:evenodd;stroke:none;stroke-width:0.35277778"
         d="m 73.677378,105.33126 c -1.111602,-1.1176 -2.591505,-1.73567 -4.167716,-1.7399 h -0.01729 c -3.244498,0 -5.89139,2.63948 -5.900915,5.88398 -0.0092,3.25332 2.630312,5.90867 5.884687,5.9182 h 0.01693 c 3.244145,0 5.891389,-2.63984 5.900914,-5.88469 0.0042,-1.57621 -0.605014,-3.05999 -1.716617,-4.17759 z m -5.976055,8.43386 c -0.006,-0.002 -0.647348,-0.25824 -1.1557,-0.62689 -0.508706,-0.3683 -0.846314,-0.8763 -0.848784,-0.88053 l -0.01305,-0.0219 c -0.03493,-0.42193 -0.05433,-0.98496 -0.02399,-1.40371 0.02646,-0.37147 0.05539,-0.73977 0.122061,-1.13735 l 2.224264,-1.01636 c 0.347839,0.28787 0.73413,0.54787 1.105958,0.8255 0.3683,0.27693 0.737306,0.56339 1.110192,0.81598 l -0.192264,2.53012 c -0.739422,0.34925 -2.083859,0.85796 -2.328686,0.91511 z m -2.472973,-7.75371 c -0.06773,0.13512 -0.328789,0.66428 -0.540102,1.24813 -0.168275,0.46637 -0.288573,0.95638 -0.312209,1.05375 l -0.0035,0.0155 c -0.08431,0.0988 -0.240947,0.29175 -0.34678,0.45932 0.134408,-1.04952 0.561622,-2.00625 1.199092,-2.78483 0.0014,0.003 0.0021,0.005 0.0035,0.008 z m -0.769761,2.27507 c 0.03316,-0.13582 0.144286,-0.57362 0.299156,-1.00189 0.212725,-0.58914 0.479072,-1.12713 0.538691,-1.2446 0.148873,-0.11465 0.309739,-0.21061 0.469901,-0.30163 0.360891,-0.20672 0.658988,-0.33549 1.031875,-0.48789 0.214136,-0.0878 0.43815,-0.18803 0.671336,-0.2166 l 1.388533,1.20297 c -0.09172,0.15981 -0.414867,0.9331 -0.773994,2.06939 -0.03246,0.10055 -0.05997,0.2159 -0.07937,0.2914 l -2.242962,1.02482 c -0.422275,-0.41028 -1.153936,-1.19698 -1.303161,-1.33597 z m 5.644445,4.56882 0.194733,-2.54917 c 0.128411,-0.0755 0.402872,-0.24483 0.454025,-0.27764 0.368653,-0.23283 0.751064,-0.49177 1.133122,-0.74788 0.06209,-0.0409 0.378178,-0.26741 0.487892,-0.35031 0.0247,-0.018 0.0628,-0.0392 0.08502,-0.0614 l 1.806927,1.14053 c 0.03951,0.29634 0.02011,0.61913 0.0042,0.94898 -0.01693,0.34007 -0.05433,0.69285 -0.109361,1.03469 -0.02963,0.18592 -0.05609,0.34925 -0.109714,0.49389 l -0.0099,0.0106 c -0.0046,0.005 -0.442383,0.47907 -1.127831,0.91722 -0.475544,0.30303 -0.788105,0.4452 -0.899936,0.49177 -0.394405,-0.1838 -0.788811,-0.38876 -1.164166,-0.60819 -0.07867,-0.0459 -0.594784,-0.35666 -0.745067,-0.44309 z m 2.554817,-7.55438 c 0.129116,0.002 0.20955,0.0596 0.312208,0.11677 0.206022,0.11324 0.403225,0.23389 0.595136,0.35913 0.814211,0.89217 1.338086,2.05281 1.425575,3.33375 -0.202494,0.30727 -0.444853,0.58349 -0.695325,0.83149 l -1.823508,-1.15111 c -0.006,-0.0399 -0.01976,-0.0878 -0.02611,-0.11994 -0.01023,-0.048 -0.03034,-0.1136 -0.04339,-0.15911 -0.225073,-0.78246 -0.445206,-1.48484 -0.779639,-2.14312 l 1.027994,-1.07033 c 0.0021,10e-4 0.0049,10e-4 0.0071,0.002 z m -3.149248,-1.32151 c 0.823736,0.002 1.604434,0.18662 2.305756,0.51259 0.02963,0.0226 0.05997,0.0416 0.08925,0.0653 0.157691,0.12841 0.325966,0.28258 0.475897,0.42969 0.09137,0.0896 0.149225,0.16827 0.207433,0.27234 l -1.024466,1.0661 c -0.52317,-0.10019 -1.061862,-0.14253 -1.623131,-0.15628 -0.347839,-0.008 -0.65405,-0.006 -0.939094,0.0215 -0.02364,0.002 -0.05292,0.003 -0.07796,0.005 l -1.383242,-1.20051 c 0.249767,-0.36971 0.576792,-0.66287 0.938036,-0.9211 0.329142,-0.0614 0.668514,-0.0949 1.015295,-0.0949 z m -4.693708,8.42857 c 0.130175,-0.006 0.269875,-0.0141 0.402872,-0.0363 0.156986,-0.0254 0.33655,-0.0547 0.41275,-0.0797 l 0.0053,0.006 c 0.03563,0.054 0.369358,0.53904 0.866069,0.89958 0.492125,0.35701 1.102784,0.60748 1.171928,0.63606 l 0.01341,0.006 c 0.02364,0.18944 0.13088,0.49883 0.153105,0.56762 0.04269,0.13229 0.09419,0.26141 0.144286,0.387 -1.329972,-0.37747 -2.454275,-1.24072 -3.169708,-2.38619 z m 6.928908,2.11631 c 0.09878,-0.14499 0.231423,-0.40181 0.291042,-0.5468 0.105481,-0.0438 0.425097,-0.18662 0.91687,-0.5013 0.583847,-0.37183 0.98178,-0.762 1.101372,-0.88618 -0.572206,0.84138 -1.3716,1.51448 -2.309284,1.93428 z"
         id="path1222" />
      <path
         inkscape:connector-curvature="0"
         style="fill:#e12e48;fill-rule:evenodd;stroke:none;stroke-width:0.35277778"
         d="m 89.849065,103.91732 -12.938125,7.10283 c -0.706261,3.45123 -3.760259,6.04767 -7.420681,6.04767 -4.183239,0 -7.574139,-3.3916 -7.574139,-7.57449 0,-4.18324 3.3909,-7.57449 7.574139,-7.57449 2.8067,0 5.255331,1.52788 6.563783,3.79589 h 1.461912 v -6.186314 l 2.166408,-1.189213 -10.192103,-5.57142 -30.420735,16.728367 10.146242,5.57178 6.822017,-3.74615 c 0.407106,2.44933 1.648531,4.57623 3.652662,6.22194 0.748241,0.61454 1.583619,1.13806 2.48285,1.56669 l -2.796823,1.53564 10.095795,5.57177 30.51669,-16.72872 z"
         id="path1224" />
      <path
         inkscape:connector-curvature="0"
         style="fill:#fcfcfc;fill-rule:evenodd;stroke:none;stroke-width:0.35277778"
         d="m 68.470731,99.177403 c -3.2004,0 -6.16832,0.989187 -8.3566,2.785177 -2.32657,1.91065 -3.556,4.51415 -3.556,7.52899 0,3.01519 1.22943,5.61869 3.556,7.52933 2.187928,1.79599 5.155494,2.78518 8.3566,2.78518 3.288242,0 6.43502,-1.25024 8.634589,-3.43076 l 0.01411,-0.0138 v -2.57069 h -0.591608 c -1.494367,2.44122 -4.172656,3.94935 -7.037564,3.94935 -4.547659,0 -8.246534,-3.69958 -8.246534,-8.24689 0,-4.54766 3.698875,-8.24689 8.246534,-8.24689 2.826808,0 5.404203,1.41288 6.932083,3.78919 h 0.421217 v -4.75333 l -0.936625,0.514 -0.236714,0.60678 -0.34678,-0.22578 c -1.9812,-1.289756 -4.414662,-1.999897 -6.852709,-1.999897 z"
         id="path1226" />
      <path
         inkscape:connector-curvature="0"
         style="fill:#cfad82;fill-rule:evenodd;stroke:none;stroke-width:0.35277778"
         d="m 64.155553,83.501016 1.782586,-0.978958 1.782586,0.979311 -0.339725,-1.980848 1.443214,-1.406525 -1.994252,-0.290336 -0.891823,-1.806575 -0.892175,1.806575 -1.9939,0.290336 1.443567,1.406525 z"
         id="path1282" />
      <path
         inkscape:connector-curvature="0"
         style="fill:#cfad82;fill-rule:evenodd;stroke:none;stroke-width:0.35277778"
         d="m 56.982522,83.501016 1.782586,-0.978958 1.782587,0.979311 -0.339725,-1.980848 1.443214,-1.406525 -1.994253,-0.290336 -0.892528,-1.806575 -0.89147,1.806575 -1.9939,0.290336 1.443214,1.406525 z"
         id="path1284" />
      <path
         inkscape:connector-curvature="0"
         style="fill:#cfad82;fill-rule:evenodd;stroke:none;stroke-width:0.35277778"
         d="m 71.286956,83.501016 1.782586,-0.978958 1.782586,0.979311 -0.339725,-1.980848 1.443214,-1.406525 -1.994252,-0.290336 -0.892175,-1.806575 -0.891823,1.806575 -1.9939,0.290336 1.443214,1.406525 z"
         id="path1286" />
      <path
         inkscape:connector-curvature="0"
         style="fill:#cfad82;fill-rule:evenodd;stroke:none;stroke-width:0.35277778"
         d="m 78.46034,83.501016 1.782586,-0.978958 1.782586,0.979311 -0.339725,-1.980848 1.443214,-1.406525 -1.994253,-0.290336 -0.892175,-1.806575 -0.891822,1.806575 -1.9939,0.290336 1.443214,1.406525 z"
         id="path1288" />
    </g>
  </g>
</svg>
