<?xml version="1.0" encoding="UTF-8" standalone="no"?>
<!-- Created with Inkscape (http://www.inkscape.org/) -->

<svg
   xmlns:dc="http://purl.org/dc/elements/1.1/"
   xmlns:cc="http://creativecommons.org/ns#"
   xmlns:rdf="http://www.w3.org/1999/02/22-rdf-syntax-ns#"
   xmlns:svg="http://www.w3.org/2000/svg"
   xmlns="http://www.w3.org/2000/svg"
   xmlns:sodipodi="http://sodipodi.sourceforge.net/DTD/sodipodi-0.dtd"
   xmlns:inkscape="http://www.inkscape.org/namespaces/inkscape"
   width="85.941223"
   height="134.95105"
   viewBox="0 0 22.738615 35.7058"
   version="1.1"
   id="svg8"
   sodipodi:docname="shakhtar.svg"
   inkscape:export-filename="C:\Users\Karimk\Desktop\corinthians.png"
   inkscape:export-xdpi="96"
   inkscape:export-ydpi="96"
   inkscape:version="0.92.3 (2405546, 2018-03-11)">
  <defs
     id="defs2" />
  <sodipodi:namedview
     id="base"
     pagecolor="#00ffff"
     bordercolor="#666666"
     borderopacity="1.0"
     inkscape:pageopacity="0"
     inkscape:pageshadow="2"
     inkscape:zoom="0.49497475"
     inkscape:cx="-135.73328"
     inkscape:cy="33.62208"
     inkscape:document-units="mm"
     inkscape:current-layer="layer1"
     showgrid="false"
     fit-margin-left="0.1"
     fit-margin-top="0.1"
     fit-margin-right="0.1"
     fit-margin-bottom="0.1"
     units="px"
     inkscape:lockguides="true"
     inkscape:window-width="1920"
     inkscape:window-height="1017"
     inkscape:window-x="-8"
     inkscape:window-y="-8"
     inkscape:window-maximized="1" />
  <metadata
     id="metadata5">
    <rdf:RDF>
      <cc:Work
         rdf:about="">
        <dc:format>image/svg+xml</dc:format>
        <dc:type
           rdf:resource="http://purl.org/dc/dcmitype/StillImage" />
        <dc:title></dc:title>
      </cc:Work>
    </rdf:RDF>
  </metadata>
  <g
     inkscape:label="Layer 1"
     inkscape:groupmode="layer"
     id="layer1"
     transform="translate(-141.09548,-116.30114)">
    <g
       id="g10"
       transform="matrix(0.17826441,0,0,-0.17826441,141.12197,151.98048)">
      <g
         id="g12"
         transform="scale(0.1)">
        <path
           d="m 636.285,1902.9 c -810.344,-338.82 -808.621,-1467.689 0,-1805.7789 810.365,338.8009 808.625,1467.6789 0,1805.7789 v 0"
           style="fill:#ffffff;fill-opacity:1;fill-rule:nonzero;stroke:none"
           id="path14"
           inkscape:connector-curvature="0" />
        <path
           d="m 636.285,1902.9 c -810.344,-338.82 -808.621,-1467.701 0,-1805.7789 810.365,338.8009 808.625,1467.6789 0,1805.7789 z m 0,97.1 v 0 c 849.005,-391.5 847.795,-1609.051 0,-2000 -847.789,390.949 -848.976,1608.5 0,2000 v 0"
           style="fill:#181a18;fill-opacity:1;fill-rule:nonzero;stroke:none"
           id="path16"
           inkscape:connector-curvature="0" />
        <path
           d="M 1126.36,688.211 C 1062.55,477.73 901.324,328.121 636.285,218.859 415.066,310.078 218.027,451.25 145.691,689.871 480.742,589.551 801.801,579.02 1126.36,688.211 v 0"
           style="fill:#181a18;fill-opacity:1;fill-rule:nonzero;stroke:none"
           id="path18"
           inkscape:connector-curvature="0" />
        <path
           d="m 1082.79,1399.89 c 68.72,-151.94 101.9,-292.5 99.53,-421.652 -295.988,-129.277 -796.562,-129.047 -1092.0427,0 -2.375,129.152 30.8087,269.712 99.5427,421.652 2.664,-241.71 201.547,-436.949 446.485,-436.949 244.922,0 443.815,195.239 446.485,436.949 v 0"
           style="fill:#f0612c;fill-opacity:1;fill-rule:nonzero;stroke:none"
           id="path20"
           inkscape:connector-curvature="0" />
        <path
           d="m 636.305,1772.72 c 261.961,-146.06 310.957,-535.93 62.187,-714.97 108.906,229.78 88.184,418.34 -62.187,565.67 -150.367,-147.33 -171.106,-335.89 -62.2,-565.67 -248.753,179.04 -199.773,568.91 62.2,714.97 v 0"
           style="fill:#181a18;fill-opacity:1;fill-rule:nonzero;stroke:none"
           id="path22"
           inkscape:connector-curvature="0" />
        <path
           d="m 636.305,1013.46 c 125.879,178.79 114.324,427.24 0,550.21 -114.34,-122.97 -125.875,-371.42 0,-550.21 z m -5.918,-8.46 c -204.481,3.18 -369.332,169.94 -369.332,375.17 0,166.56 108.593,307.79 258.808,356.79 -90.617,-70.72 -150.902,-196.12 -150.902,-339.03 0,-195.35 112.605,-358 261.426,-392.93 z m 11.836,0 c 204.48,3.18 369.317,169.94 369.317,375.17 0,166.56 -108.595,307.79 -258.81,356.79 90.614,-70.72 150.899,-196.12 150.899,-339.03 0,-195.35 -112.598,-358 -261.406,-392.93 v 0"
           style="fill:#f0612c;fill-opacity:1;fill-rule:nonzero;stroke:none"
           id="path24"
           inkscape:connector-curvature="0" />
        <path
           d="m 728.48,495.648 c 0,5.372 -0.996,9.493 -3.007,12.364 -1.844,2.699 -4.356,4.058 -7.539,4.058 -4.11,0 -6.844,-1.789 -8.192,-5.351 -0.637,-1.668 -0.949,-3.981 -0.949,-6.918 0,-7.602 1.426,-12.992 4.309,-16.16 1.628,-1.789 3.679,-2.68 6.14,-2.68 6.164,0 9.238,4.879 9.238,14.687 z m 12.532,5.723 c 0,-9.973 -3.547,-17.43 -10.598,-22.41 -3.34,-2.313 -7.488,-3.481 -12.48,-3.481 -7.071,0 -12.579,2.579 -16.571,7.711 -4.082,5.18 -6.133,12.508 -6.133,21.969 0,9.149 1.661,16.719 4.942,22.738 3.496,6.391 8.074,11.442 13.719,15.18 5.8,3.82 12.324,5.774 19.484,5.774 l 4.09,-3.391 -1.61,-1.762 c -1.242,0.211 -2.414,0.289 -3.535,0.289 -5.332,0 -10,-1.937 -14.023,-5.867 -1.789,-1.742 -3.379,-3.992 -4.719,-6.68 -2.215,-4.519 -3.699,-10.679 -4.473,-18.562 4.629,4.359 7.434,6.691 8.36,7.07 2.226,0.949 4.805,1.422 7.746,1.422 4.48,0 8.164,-1.672 11.074,-4.992 3.145,-3.609 4.727,-8.617 4.727,-15.008 z m -54.407,0.508 c 0,-7.379 -3.054,-13.629 -9.218,-18.731 -6.141,-5.097 -13.34,-7.668 -21.629,-7.668 -4.395,0 -8.613,0.969 -12.668,2.86 -0.625,6.039 -1.465,11.109 -2.52,15.281 l 0.332,0.75 2.578,0.758 0.637,-0.258 c 3.426,-8.75 8.934,-13.141 16.473,-13.141 3.906,0 7.051,1.258 9.433,3.821 2.375,2.551 3.555,6.019 3.555,10.449 0,4.398 -1.289,7.809 -3.906,10.199 -2.461,2.281 -5.762,3.43 -9.93,3.43 -1.887,0 -3.957,-0.328 -6.152,-0.949 l -0.645,0.679 c 0.782,2.469 1.434,5.082 1.981,7.911 h 4.25 c 3.086,0 5.75,1.101 8.008,3.308 2.254,2.184 3.386,4.813 3.386,7.844 0,2.887 -0.996,5.207 -3.007,7.019 -1.981,1.809 -4.461,2.68 -7.442,2.68 -4.715,0 -7.91,-1.199 -9.617,-3.633 -0.793,-1.129 -1.543,-2.789 -2.266,-4.918 l -0.586,-1.718 -0.722,-0.461 -2.657,0.211 -0.519,0.679 1.828,8.449 c 0.516,2.391 0.879,4.731 1.133,7.032 4.512,3.379 10.156,5.09 16.992,5.09 5.781,0 10.391,-1.43 13.797,-4.274 3.273,-2.769 4.902,-6.387 4.902,-10.859 0,-6.43 -3.847,-11.668 -11.543,-15.668 3.887,0 7.403,-1.332 10.547,-3.969 3.469,-2.852 5.195,-6.953 5.195,-12.203 z m -66.324,22.652 c 0,6.399 -0.945,11.149 -2.804,14.231 -1.875,3.09 -4.418,4.617 -7.637,4.617 -3.996,0 -6.699,-2.16 -8.11,-6.5 -0.757,-2.32 -1.132,-5.027 -1.132,-8.199 0,-5.371 0.98,-9.489 2.957,-12.36 1.859,-2.699 4.406,-4.058 7.574,-4.058 4.098,0 6.832,1.82 8.207,5.449 0.621,1.668 0.945,3.949 0.945,6.82 z m 13.563,-5.351 c 0,-9.192 -1.653,-16.782 -4.953,-22.801 -3.465,-6.359 -8.039,-11.379 -13.754,-15.129 -5.883,-3.84 -12.34,-5.77 -19.379,-5.77 l -4.098,3.399 1.238,2.031 c 1.051,-0.398 2.329,-0.578 3.86,-0.578 5.387,0 10.117,1.988 14.18,6.008 1.601,1.601 3.117,3.738 4.492,6.449 2.222,4.262 3.75,10.481 4.574,18.652 -5.141,-4.742 -8.016,-7.152 -8.602,-7.23 -2.293,-0.832 -4.765,-1.242 -7.382,-1.242 -4.61,0 -8.368,1.703 -11.27,5.09 -3.137,3.632 -4.668,8.601 -4.668,14.921 0,10.11 3.543,17.579 10.633,22.43 3.375,2.289 7.508,3.442 12.414,3.442 9.293,0 15.887,-4.332 19.805,-12.954 1.933,-4.257 2.91,-9.816 2.91,-16.718 z m -53.781,-41.239 -0.567,-0.621 c -4.84,0.301 -10.758,0.45 -17.762,0.45 -6.832,0 -14.007,-0.149 -21.562,-0.45 l -0.57,0.551 v 3.18 l 0.617,0.519 c 1.773,0.211 3.496,0.36 5.148,0.52 2.977,0.23 4.887,0.539 5.711,0.879 0.606,0.281 1.086,0.929 1.516,1.902 0.652,1.641 0.98,8.238 0.98,19.77 v 12.918 c 0,3.89 -0.066,8.793 -0.219,14.761 l -0.089,3.899 c 0,1.73 -0.36,2.601 -1.102,2.601 -0.293,0 -1.324,-0.398 -3.062,-1.211 -4.731,-2.168 -8.813,-4.097 -12.204,-5.75 l -0.621,0.352 c -0.203,1.988 -0.586,4.18 -1.097,6.609 l 0.05,0.41 c 9.571,2.7 20.258,6.321 32.059,10.86 l 1.09,-0.789 c -0.141,-2.031 -0.313,-5.063 -0.57,-9.09 -0.106,-1.52 -0.207,-5.609 -0.309,-12.25 l -0.156,-20.41 c 0,-14.621 0.238,-22.473 0.742,-23.539 0.328,-0.793 0.84,-1.293 1.527,-1.442 1.262,-0.359 4.512,-0.691 9.778,-0.941 l 0.672,-0.52 v -3.168"
           style="fill:#ffffff;fill-opacity:1;fill-rule:nonzero;stroke:none"
           id="path26"
           inkscape:connector-curvature="0" />
        <path
           d="m 692.066,308.75 -42.382,44.23 30.254,31.598 28.339,-27.437 3.477,31.359 -14.563,14.102 4.082,4.25 c 3.157,3.289 3.028,8.546 -0.253,11.707 l -2,1.921 c -3.301,3.161 -8.575,3.051 -11.719,-0.25 l -3.996,-4.179 -22.168,21.461 -17.364,-17.934 22.258,-21.547 -29.746,-31.062 -29.754,31.051 22.274,21.558 -17.367,17.934 -22.165,-21.461 -3.996,4.179 c -3.168,3.301 -8.429,3.411 -11.718,0.25 l -2.016,-1.921 c -3.285,-3.161 -3.406,-8.418 -0.258,-11.707 l 4.082,-4.25 -22,-21.313 17.363,-17.937 21.911,21.207 30.246,-31.579 -42.379,-44.23 c -3.164,-3.301 -3.043,-8.57 0.246,-11.719 l 2.012,-1.929 c 3.285,-3.161 8.55,-3.032 11.722,0.257 L 636.285,339 678.09,295.359 c 3.156,-3.289 8.418,-3.418 11.719,-0.257 l 2.004,1.929 c 3.281,3.149 3.406,8.418 0.253,11.719 v 0"
           style="fill:#ffffff;fill-opacity:1;fill-rule:nonzero;stroke:none"
           id="path28"
           inkscape:connector-curvature="0" />
        <path
           d="m 1066.73,807.84 38.47,8.691 c 10,2.278 17.81,6.489 23.34,12.617 5.59,6.172 8.56,13.34 8.99,21.582 0.4,7.442 -1.7,13.219 -6.28,17.461 -4.62,4.188 -13.33,4.829 -26.09,1.938 l -35.54,-8.02 z m -5.33,-99.738 -32.51,-7.364 9.67,181.114 73.87,16.679 c 21.06,4.739 36.38,2.938 46,-5.41 9.57,-8.34 13.99,-19.793 13.22,-34.281 -0.88,-16.57 -7.11,-31.219 -18.66,-43.942 -11.55,-12.769 -25.8,-21.027 -42.71,-24.847 l -45.04,-10.199 -3.84,-71.75"
           style="fill:#222324;fill-opacity:1;fill-rule:nonzero;stroke:none"
           id="path30"
           inkscape:connector-curvature="0" />
        <path
           d="m 955.707,753.602 -19.422,76.5 -35.988,-85.59 z m 53.903,-59.454 -36.587,-6.007 -10.812,40.769 -73.106,-11.988 -19.296,-45.692 -29.239,-4.781 81.633,191.961 42.168,6.918 45.239,-171.18"
           style="fill:#222324;fill-opacity:1;fill-rule:nonzero;stroke:none"
           id="path32"
           inkscape:connector-curvature="0" />
        <path
           d="m 802.164,663.941 -37.207,-1.832 9.199,152.653 -51.093,-2.5 1.687,27.886 139.367,6.872 -1.691,-27.918 -51.074,-2.524 -9.188,-152.637"
           style="fill:#222324;fill-opacity:1;fill-rule:nonzero;stroke:none"
           id="path34"
           inkscape:connector-curvature="0" />
        <path
           d="m 709.781,656.961 h -40.363 l -42.402,71.16 -45.008,-71.16 h -32.203 l 60.738,94.059 -52.148,86.511 h 40.203 l 35.422,-60.051 37.519,60.051 h 32.332 l -53.398,-82.402 59.308,-98.168"
           style="fill:#222324;fill-opacity:1;fill-rule:nonzero;stroke:none"
           id="path36"
           inkscape:connector-curvature="0" />
        <path
           d="m 481.758,736.289 -33.367,86.109 -22.688,-81.347 z m 63.902,-77.039 -37.023,3.148 -18.41,46.012 -73.938,6.289 -12.031,-43.398 -29.547,2.508 51.059,182.293 42.648,-3.633 77.242,-193.219"
           style="fill:#222324;fill-opacity:1;fill-rule:nonzero;stroke:none"
           id="path38"
           inkscape:connector-curvature="0" />
        <path
           d="m 140.309,723.02 -21.536,190.05 33.75,-7.121 18.196,-160.551 57.996,-12.226 -18.192,160.508 33.75,-7.121 18.192,-160.52 58,-12.25 -18.195,160.539 33.75,-7.117 21.535,-190.039 -217.246,45.848"
           style="fill:#222324;fill-opacity:1;fill-rule:nonzero;stroke:none"
           id="path40"
           inkscape:connector-curvature="0" />
      </g>
    </g>
  </g>
</svg>
