<?xml version="1.0" encoding="UTF-8" standalone="no"?>
<!-- Created with Inkscape (http://www.inkscape.org/) -->

<svg
   xmlns:dc="http://purl.org/dc/elements/1.1/"
   xmlns:cc="http://creativecommons.org/ns#"
   xmlns:rdf="http://www.w3.org/1999/02/22-rdf-syntax-ns#"
   xmlns:svg="http://www.w3.org/2000/svg"
   xmlns="http://www.w3.org/2000/svg"
   xmlns:xlink="http://www.w3.org/1999/xlink"
   xmlns:sodipodi="http://sodipodi.sourceforge.net/DTD/sodipodi-0.dtd"
   xmlns:inkscape="http://www.inkscape.org/namespaces/inkscape"
   width="62.498825mm"
   height="78.376373mm"
   viewBox="0 0 62.498825 78.376373"
   version="1.1"
   id="svg17175"
   inkscape:version="0.92.3 (2405546, 2018-03-11)"
   sodipodi:docname="FC Sheriff.svg">
  <defs
     id="defs17169">
    <linearGradient
       inkscape:collect="always"
       id="linearGradient18385">
      <stop
         style="stop-color:#725a1d;stop-opacity:1"
         offset="0"
         id="stop18381" />
      <stop
         id="stop18389"
         offset="0.3463212"
         style="stop-color:#f8e365;stop-opacity:1" />
      <stop
         style="stop-color:#f8e365;stop-opacity:1"
         offset="0.66799766"
         id="stop18391" />
      <stop
         style="stop-color:#725a1d;stop-opacity:1"
         offset="1"
         id="stop18383" />
    </linearGradient>
    <clipPath
       clipPathUnits="userSpaceOnUse"
       id="clipPath7446">
      <path
         d="m 1090.593,513.325 h 38.485 v 48.262 h -38.485 z"
         id="path7444"
         inkscape:connector-curvature="0" />
    </clipPath>
    <linearGradient
       inkscape:collect="always"
       xlink:href="#linearGradient18385"
       id="linearGradient18387"
       x1="-65.693237"
       y1="9.6547966"
       x2="-65.693237"
       y2="-1.8515818"
       gradientUnits="userSpaceOnUse"
       gradientTransform="translate(-13.134513)" />
  </defs>
  <sodipodi:namedview
     id="base"
     pagecolor="#ffffff"
     bordercolor="#666666"
     borderopacity="1.0"
     inkscape:pageopacity="0.0"
     inkscape:pageshadow="2"
     inkscape:zoom="1.4142136"
     inkscape:cx="181.46597"
     inkscape:cy="155.25042"
     inkscape:document-units="mm"
     inkscape:current-layer="layer1"
     showgrid="false"
     fit-margin-top="0"
     fit-margin-left="0"
     fit-margin-right="0"
     fit-margin-bottom="0"
     inkscape:window-width="1920"
     inkscape:window-height="1001"
     inkscape:window-x="-9"
     inkscape:window-y="-9"
     inkscape:window-maximized="1" />
  <metadata
     id="metadata17172">
    <rdf:RDF>
      <cc:Work
         rdf:about="">
        <dc:format>image/svg+xml</dc:format>
        <dc:type
           rdf:resource="http://purl.org/dc/dcmitype/StillImage" />
        <dc:title></dc:title>
      </cc:Work>
    </rdf:RDF>
  </metadata>
  <g
     inkscape:label="Layer 1"
     inkscape:groupmode="layer"
     id="layer1"
     transform="translate(110.2065,2.5869202)">
    <path
       inkscape:connector-curvature="0"
       id="path7526"
       style="fill:#76664f;fill-opacity:1;fill-rule:nonzero;stroke:none;stroke-width:1.62398696"
       d="m -79.054777,-2.5869202 1.742538,4.6770826 4.980768,0.2111183 -3.905689,3.0985672 1.333294,4.8053771 -4.150911,-2.7477856 -4.139543,2.7477856 1.321926,-4.8053771 -3.894321,-3.0985672 4.980768,-0.2111183 z" />
    <path
       d="m -79.053972,-1.8853578 1.578361,4.2090495 4.477332,0.1997504 -3.507648,2.7939073 1.193135,4.3263013 -3.741501,-2.4788537 -3.741828,2.4788537 1.203862,-4.3263013 -3.519343,-2.7939073 4.490324,-0.1997504 z"
       style="fill:url(#linearGradient18387);fill-opacity:1;fill-rule:nonzero;stroke:none;stroke-width:1.45191646"
       id="path18376"
       inkscape:connector-curvature="0"
       sodipodi:nodetypes="ccccccccccc" />
    <path
       inkscape:connector-curvature="0"
       id="path7450"
       style="fill:#302c2a;fill-opacity:1;fill-rule:evenodd;stroke:none;stroke-width:1.62398696"
       d="m -94.23191,75.683894 c 1.414493,-0.328045 2.478204,-1.040976 3.321053,-2.221614 0.79413,-1.239102 1.086448,-2.608123 0.79413,-4.05672 l 11.155167,-7.95104 11.096703,7.903945 c -0.06983,0.584635 -0.03573,1.14491 0.06983,1.718178 0.573268,2.5253 2.596756,4.17527 5.180519,4.233734 l 0.53754,-0.02436 c 2.466836,-0.315053 4.25647,-2.021864 4.699818,-4.465964 0.164023,-1.297566 -0.05846,-2.421365 -0.71293,-3.54354 -0.958153,-1.508684 -2.408373,-2.408372 -4.198007,-2.548035 l -3.728674,-12.991896 10.487708,-8.324558 c 0.573268,0.303686 1.169271,0.490444 1.801002,0.596004 2.630859,0.328045 4.94504,-1.169271 5.787889,-3.671835 0.384885,-1.344661 0.292318,-2.595131 -0.280949,-3.858593 -0.665835,-1.286198 -1.614243,-2.150159 -2.958905,-2.676331 -1.437228,-0.492068 -2.817617,-0.409244 -4.185014,0.245222 -1.040976,0.548908 -1.859465,1.333294 -2.385637,2.397005 l -13.190022,-0.350781 -4.349038,-12.74505 c 0.514804,-0.492068 0.899689,-1.076703 1.192007,-1.73117 0.876953,-2.138791 0.375141,-4.396133 -1.308934,-5.997384 l -0.386509,-0.316678 c -1.9634,-1.403124 -4.349037,-1.403124 -6.325429,0 l -0.384885,0.316678 c -2.151783,2.046223 -2.327173,5.178894 -0.410869,7.424868 0.09419,0.103936 0.188383,0.209495 0.293942,0.303686 l -4.350661,12.74505 -13.188395,0.350781 c -0.37514,-0.760026 -0.90132,-1.369021 -1.56715,-1.895193 -1.97639,-1.414492 -4.38476,-1.42586 -6.36116,-0.01137 l -0.38651,0.316678 c -1.81237,1.729546 -2.24435,4.196382 -1.09781,6.430988 0.7243,1.25047 1.71818,2.06896 3.08557,2.536668 1.39176,0.397877 2.81925,0.292318 4.10544,-0.409245 l 10.48771,8.324558 -3.869961,13.48234 c -1.70681,0.139663 -3.145663,1.110807 -4.058343,2.536667 -0.654466,1.123799 -0.876956,2.245974 -0.712926,3.54354 l 0.10556,0.526172 c 0.690189,2.385637 2.642221,3.905689 5.133418,3.964152 0.362149,0 0.701562,-0.03573 1.063711,-0.105559" />
    <path
       inkscape:connector-curvature="0"
       id="path7454"
       style="fill:#000000;fill-opacity:1;fill-rule:evenodd;stroke:none;stroke-width:1.62398696"
       d="m -80.329445,22.610862 -5.25035,15.364541 -15.983285,0.420613 c -0.18675,-1.672707 -1.62561,-2.993008 -3.35515,-2.993008 -1.8481,0 -3.36815,1.520051 -3.36815,3.355157 0,1.859465 1.52005,3.368149 3.36815,3.368149 1.01661,0 1.92929,-0.456341 2.54803,-1.169271 L -89.68361,51.024139 -94.336333,67.277 c -0.305309,-0.09419 -0.631731,-0.139662 -0.959776,-0.139662 -1.859465,0 -3.368149,1.50706 -3.368149,3.355157 0,1.859465 1.508684,3.368149 3.368149,3.368149 1.848097,0 3.368149,-1.508684 3.368149,-3.368149 0,-0.654467 -0.199751,-1.27483 -0.526172,-1.789634 l 13.492084,-9.610755 13.318317,9.471092 c -0.209494,0.444973 -0.339413,0.935417 -0.339413,1.450221 0,1.859465 1.521676,3.366525 3.368149,3.366525 1.859465,0 3.368149,-1.50706 3.368149,-3.366525 0,-1.848098 -1.508684,-3.356782 -3.368149,-3.356782 -0.373517,0 -0.73729,0.05846 -1.075079,0.175391 l -4.53742,-15.807889 12.686587,-10.067096 c 0.620363,0.71293 1.531419,1.169271 2.549659,1.169271 1.846473,0 3.366525,-1.508684 3.366525,-3.368149 0,-1.835106 -1.520052,-3.355157 -3.366525,-3.355157 -1.73117,0 -3.170022,1.320301 -3.345413,2.993008 l -15.994648,-0.420613 -5.25035,-15.364541 c 1.169271,-0.526172 1.98776,-1.70681 1.98776,-3.075831 0,-1.846474 -1.508684,-3.366525 -3.368149,-3.366525 -1.835105,0 -3.355157,1.520051 -3.355157,3.366525 0,1.369021 0.818489,2.549659 1.98776,3.075831" />
    <path
       inkscape:connector-curvature="0"
       id="path7458"
       style="fill:#fdcb00;fill-opacity:1;fill-rule:evenodd;stroke:none;stroke-width:1.62398696"
       d="m -80.329445,22.610862 -5.25035,15.364541 -15.983285,0.420613 c -0.18675,-1.672707 -1.62561,-2.993008 -3.35515,-2.993008 -1.8481,0 -3.36815,1.520051 -3.36815,3.355157 0,1.859465 1.52005,3.368149 3.36815,3.368149 1.01661,0 1.92929,-0.456341 2.54803,-1.169271 L -89.68361,51.024139 -94.336333,67.277 c -0.305309,-0.09419 -0.631731,-0.139662 -0.959776,-0.139662 -1.859465,0 -3.368149,1.50706 -3.368149,3.355157 0,1.859465 1.508684,3.368149 3.368149,3.368149 1.848097,0 3.368149,-1.508684 3.368149,-3.368149 0,-0.654467 -0.199751,-1.27483 -0.526172,-1.789634 l 13.492084,-9.610755 13.318317,9.471092 c -0.209494,0.444973 -0.339413,0.935417 -0.339413,1.450221 0,1.859465 1.521676,3.366525 3.368149,3.366525 1.859465,0 3.368149,-1.50706 3.368149,-3.366525 0,-1.848098 -1.508684,-3.356782 -3.368149,-3.356782 -0.373517,0 -0.73729,0.05846 -1.075079,0.175391 l -4.53742,-15.807889 12.686587,-10.067096 c 0.620363,0.71293 1.531419,1.169271 2.549659,1.169271 1.846473,0 3.366525,-1.508684 3.366525,-3.368149 0,-1.835106 -1.520052,-3.355157 -3.366525,-3.355157 -1.73117,0 -3.170022,1.320301 -3.345413,2.993008 l -15.994648,-0.420613 -5.25035,-15.364541 c 1.169271,-0.526172 1.98776,-1.70681 1.98776,-3.075831 0,-1.846474 -1.508684,-3.366525 -3.368149,-3.366525 -1.835105,0 -3.355157,1.520051 -3.355157,3.366525 0,1.369021 0.818489,2.549659 1.98776,3.075831" />
    <path
       inkscape:connector-curvature="0"
       id="path7462"
       style="fill:#ffffff;fill-opacity:1;fill-rule:evenodd;stroke:none;stroke-width:1.62398696"
       d="m -79.534341,22.260081 -0.186759,0.548908 -5.250349,15.375909 -0.139663,0.422236 -0.456341,0.01137 -15.983277,0.420613 -0.58464,0.02274 -0.0714,-0.596004 c -0.0698,-0.677202 -0.40925,-1.286197 -0.88832,-1.718178 -0.49045,-0.433605 -1.12218,-0.701562 -1.82374,-0.701562 -1.49732,0 -2.72505,1.216366 -2.72505,2.712058 0,0.748658 0.31668,1.438852 0.80712,1.929296 0.49044,0.492069 1.16927,0.795754 1.91793,0.795754 0.40924,0 0.79413,-0.08282 1.13354,-0.245222 0.36377,-0.164023 0.67883,-0.397877 0.92405,-0.690194 l 0.40924,-0.467709 0.47908,0.373517 12.697955,10.067096 0.328045,0.269582 -0.116927,0.409244 -4.654346,16.252862 -0.186759,0.620363 -0.618739,-0.188382 c -0.129919,-0.0341 -0.246846,-0.05846 -0.375141,-0.0812 -0.128295,-0.02273 -0.25659,-0.02273 -0.397877,-0.02273 -0.747034,0 -1.437228,0.303685 -1.929296,0.794129 -0.490444,0.492068 -0.79413,1.169271 -0.79413,1.917929 0,0.760026 0.303686,1.438852 0.79413,1.929296 0.503436,0.490445 1.182262,0.795754 1.929296,0.795754 0.748658,0 1.427485,-0.305309 1.917929,-0.795754 0.503436,-0.490444 0.807121,-1.16927 0.807121,-1.929296 0,-0.25659 -0.03573,-0.514804 -0.105559,-0.748658 -0.06983,-0.245222 -0.17539,-0.479076 -0.315053,-0.701562 l -0.328046,-0.514804 0.492068,-0.350782 13.492084,-9.610755 0.375141,-0.269581 v 1.578515 l -12.66385,9.027744 c 0.06983,0.15103 0.128295,0.315053 0.17539,0.479076 0.10556,0.362149 0.164023,0.73729 0.164023,1.110807 0,1.110807 -0.45634,2.116055 -1.180638,2.841977 -0.725923,0.724298 -1.731171,1.169271 -2.83061,1.169271 -1.110807,0 -2.104687,-0.444973 -2.828985,-1.169271 -0.73729,-0.725922 -1.180639,-1.73117 -1.180639,-2.841977 0,-1.099439 0.443349,-2.104687 1.180639,-2.828985 0.724298,-0.725923 1.718178,-1.169271 2.828985,-1.169271 0.164023,0 0.339413,0.01137 0.503436,0.02274 l 4.384765,-15.258982 -11.915192,-9.435365 c -0.28095,0.233855 -0.596,0.431981 -0.92405,0.584636 -0.51318,0.233854 -1.07508,0.362149 -1.67108,0.362149 -1.09944,0 -2.10469,-0.444973 -2.83061,-1.169271 -0.7243,-0.73729 -1.18064,-1.73117 -1.18064,-2.841977 0,-2.197254 1.81237,-3.998256 4.01125,-3.998256 1.02798,0 1.9634,0.397877 2.67795,1.027984 0.57165,0.514804 0.99388,1.19363 1.20338,1.953656 l 14.991021,-0.397877 4.933673,-14.429124 c -0.479077,-0.315054 -0.888321,-0.724298 -1.204999,-1.203375 -0.396253,-0.631731 -0.643099,-1.380389 -0.643099,-2.176142 0,-2.208623 1.801002,-4.009624 3.99988,-4.009624 v 1.286198 c -1.485948,0 -2.713682,1.227734 -2.713682,2.723426 0,0.550531 0.164023,1.052343 0.433605,1.47458 0.292317,0.443348 0.701562,0.79413 1.180638,1.016616 z m 0.573267,36.036272 v 0 l 0.373517,0.269581 13.30695,9.48246 0.444972,0.303686 -0.235478,0.492068 c -0.0812,0.186759 -0.151031,0.373517 -0.198126,0.573268 -0.0471,0.186758 -0.06983,0.384884 -0.06983,0.596003 0,0.748658 0.315054,1.437228 0.807122,1.929296 0.490444,0.490444 1.169271,0.79413 1.916305,0.79413 0.748658,0 1.438852,-0.303686 1.929296,-0.79413 0.492068,-0.492068 0.795754,-1.180638 0.795754,-1.929296 0,-0.748658 -0.303686,-1.427485 -0.795754,-1.917929 -0.490444,-0.490444 -1.180638,-0.795754 -1.929296,-0.795754 -0.151031,0 -0.303686,0.01299 -0.443349,0.02436 -0.141287,0.0341 -0.292318,0.06983 -0.433604,0.116927 l -0.630107,0.209495 -0.188383,-0.643099 -4.535796,-15.80789 -0.116927,-0.409244 0.339414,-0.269582 12.686586,-10.067096 0.479076,-0.373517 0.409245,0.467709 c 0.245222,0.292317 0.573267,0.526171 0.924049,0.690194 0.337789,0.162399 0.724298,0.245222 1.133543,0.245222 0.748658,0 1.42586,-0.303685 1.917928,-0.795754 0.501812,-0.490444 0.807122,-1.180638 0.807122,-1.929296 0,-0.748658 -0.30531,-1.425861 -0.807122,-1.904937 -0.492068,-0.492068 -1.16927,-0.807121 -1.917928,-0.807121 -0.701563,0 -1.333294,0.267957 -1.81237,0.701562 -0.490444,0.431981 -0.829857,1.040976 -0.899689,1.718178 l -0.05846,0.596004 -0.596004,-0.02274 -15.984904,-0.420613 -0.443348,-0.01137 -0.152655,-0.422236 -5.25035,-15.375909 -0.186758,-0.548908 0.526172,-0.233854 c 0.490444,-0.222486 0.899688,-0.573268 1.180638,-1.016616 0.269582,-0.422237 0.431981,-0.924049 0.431981,-1.47458 0,-0.747034 -0.303686,-1.425861 -0.79413,-1.916305 -0.503436,-0.492068 -1.180639,-0.807121 -1.929297,-0.807121 v -1.286198 c 1.110808,0 2.104688,0.45634 2.828986,1.180638 0.725922,0.724299 1.180638,1.731171 1.180638,2.828986 0,0.795753 -0.233854,1.544411 -0.643099,2.176142 -0.315053,0.479077 -0.724298,0.888321 -1.203374,1.203375 l 4.933673,14.429124 14.991024,0.397877 c 0.209494,-0.760026 0.630107,-1.438852 1.203374,-1.953656 0.71293,-0.630107 1.648347,-1.027984 2.677955,-1.027984 1.099439,0 2.104687,0.45634 2.828985,1.180638 0.725922,0.724299 1.182262,1.718179 1.182262,2.817618 0,1.110807 -0.45634,2.104687 -1.182262,2.841977 -0.724298,0.724298 -1.729546,1.169271 -2.828985,1.169271 -0.596004,0 -1.157903,-0.128295 -1.659715,-0.362149 -0.339413,-0.152655 -0.656091,-0.350781 -0.935417,-0.584636 l -11.903824,9.435365 4.245102,14.802641 c 0.209494,-0.0341 0.420612,-0.04709 0.630107,-0.04709 1.110807,0 2.104687,0.444972 2.841977,1.16927 0.724298,0.725923 1.16927,1.731171 1.16927,2.83061 0,1.110807 -0.444972,2.116055 -1.16927,2.840353 -0.73729,0.725922 -1.73117,1.169271 -2.841977,1.169271 -1.097816,0 -2.104688,-0.443349 -2.828986,-1.169271 -0.724298,-0.724298 -1.180638,-1.729546 -1.180638,-2.840353 0,-0.292318 0.03573,-0.596003 0.105559,-0.876953 0.02274,-0.116927 0.05846,-0.233854 0.09257,-0.339414 l -12.533932,-8.922184 z" />
    <path
       inkscape:connector-curvature="0"
       id="path7466"
       style="fill:#e8e8e8;fill-opacity:1;fill-rule:evenodd;stroke:none;stroke-width:1.62398696"
       d="m -78.470142,40.711172 c 6.512188,0 11.786898,5.342917 11.786898,11.937928 0,6.595012 -5.27471,11.950921 -11.786898,11.950921 -6.50082,0 -11.773906,-5.355909 -11.773906,-11.950921 0,-6.595011 5.273086,-11.937928 11.773906,-11.937928" />
    <path
       inkscape:connector-curvature="0"
       id="path7470"
       style="fill:#302c2a;fill-opacity:1;fill-rule:evenodd;stroke:none;stroke-width:1.62398696"
       d="m -78.470142,64.681057 c -3.26259,0 -6.232862,-1.344661 -8.383021,-3.530548 -2.151783,-2.176142 -3.485076,-5.180518 -3.485076,-8.501572 0,-3.308061 1.333293,-6.314061 3.485076,-8.499948 2.150159,-2.174518 5.120431,-3.532171 8.383021,-3.532171 v 0.17539 c -3.215494,0 -6.138671,1.333294 -8.254726,3.485076 -2.116055,2.151783 -3.426612,5.109063 -3.426612,8.371653 0,3.26259 1.310557,6.232862 3.426612,8.384645 2.116055,2.138791 5.039232,3.472084 8.254726,3.472084 z m 0,-24.064239 c 3.273958,0 6.232862,1.357653 8.383021,3.532171 2.151783,2.185887 3.485076,5.191887 3.485076,8.499948 0,3.321054 -1.333293,6.32543 -3.485076,8.501572 -2.150159,2.185887 -5.109063,3.530548 -8.383021,3.530548 v -0.175391 c 3.215494,0 6.138671,-1.333293 8.266094,-3.472084 2.117679,-2.151783 3.426612,-5.122055 3.426612,-8.384645 0,-3.26259 -1.308933,-6.21987 -3.426612,-8.371653 -2.127423,-2.151782 -5.0506,-3.485076 -8.266094,-3.485076 z" />
    <path
       inkscape:connector-curvature="0"
       id="path7474"
       style="fill:#302c2a;fill-opacity:1;fill-rule:evenodd;stroke:none;stroke-width:1.62398696"
       d="m -78.704159,53.315909 0.771394,2.385637 2.491196,0.09257 -1.98776,1.485948 0.690194,2.455469 -2.000752,-1.472957 -2.057591,1.414493 0.748658,-2.397005 -1.952033,-1.567147 2.455469,-0.01137 z" />
    <path
       inkscape:connector-curvature="0"
       id="path7478"
       style="fill:#302c2a;fill-opacity:1;fill-rule:evenodd;stroke:none;stroke-width:1.62398696"
       d="m -87.192901,56.390929 1.636979,1.801002 1.508684,-0.456341 -0.350781,1.801002 2.093319,1.684074 c -0.773018,-0.222486 -1.567148,-0.246846 -2.29307,-0.65609 l 0.105559,1.263461 -1.589883,-1.870833 -1.636979,-0.924048 0.81849,-0.28095 z" />
    <path
       inkscape:connector-curvature="0"
       id="path7482"
       style="fill:#302c2a;fill-opacity:1;fill-rule:evenodd;stroke:none;stroke-width:1.62398696"
       d="m -82.398892,62.576533 c 2.478204,1.870833 5.144791,1.893569 8.043608,0.0812 -0.805498,-0.490444 -1.35603,-1.192006 -1.53142,-2.197254 -1.78801,0.384885 -3.553284,0.362149 -5.331549,-0.08282 -0.0812,0.73729 -0.479077,1.47458 -1.180639,2.198878" />
    <path
       inkscape:connector-curvature="0"
       id="path7486"
       style="fill:#302c2a;fill-opacity:1;fill-rule:evenodd;stroke:none;stroke-width:1.62398696"
       d="m -83.544939,56.718324 1.614243,-2.794882 -5.929176,1.180639 z" />
    <path
       inkscape:connector-curvature="0"
       id="path7490"
       style="fill:#302c2a;fill-opacity:1;fill-rule:evenodd;stroke:none;stroke-width:1.62398696"
       d="m -73.687825,56.882185 -1.614243,-2.794882 5.940544,1.180639 z" />
    <path
       inkscape:connector-curvature="0"
       id="path7494"
       style="fill:#302c2a;fill-opacity:1;fill-rule:evenodd;stroke:none;stroke-width:1.62398696"
       d="m -82.282127,42.74554 c 2.478204,-1.859465 4.595883,-1.765274 7.4947,0.0471 -0.71293,0.665834 -0.888321,1.378765 -1.180639,2.16315 -1.776641,-0.397877 -3.554907,-0.375141 -5.331549,0.0812 -0.08282,-0.735666 -0.28095,-1.554156 -0.982512,-2.291446" />
    <path
       inkscape:connector-curvature="0"
       id="path7498"
       style="fill:#302c2a;fill-opacity:1;fill-rule:evenodd;stroke:none;stroke-width:1.62398696"
       d="m -85.415772,43.797884 0.397877,0.841225 2.16315,-0.876953 -1.789633,1.801002 1.917928,4.560155 c -0.620363,-0.490444 -1.356029,-0.818489 -1.870833,-1.472956 l -0.373517,1.216366 -1.520051,-2.338541 -0.807122,-1.789634 0.81849,-0.06983 z" />
    <path
       inkscape:connector-curvature="0"
       id="path7502"
       style="fill:#302c2a;fill-opacity:1;fill-rule:evenodd;stroke:none;stroke-width:1.62398696"
       d="m -71.758529,43.762806 -0.409245,0.829857 -2.151782,-0.865585 1.789633,1.801002 -1.929296,4.560155 c 0.631731,-0.490444 1.367397,-0.818489 1.870833,-1.484324 l 0.384885,1.216367 1.508683,-2.338542 0.807122,-1.778266 -0.818489,-0.06983 z" />
    <path
       inkscape:connector-curvature="0"
       id="path7506"
       style="fill:#302c2a;fill-opacity:1;fill-rule:evenodd;stroke:none;stroke-width:1.62398696"
       d="m -95.927515,47.317551 c 0.152655,-0.198126 0.315053,-0.386509 0.526172,-0.514804 0.211118,-0.128295 0.444972,-0.17539 0.678826,-0.233854 0.454717,-0.116927 0.911057,-0.105559 1.367397,0 l 0.456341,0.152655 0.315053,0.28095 0.316678,-0.422237 0.15103,-0.01137 h 0.409245 v 0.19975 l 30.470868,-0.02436 -0.01137,11.190894 c -11.92656,-4.28083 -23.607899,-3.894321 -35.125214,0 l -0.04547,-9.086207 c 0.01137,-0.373517 0.175391,-1.110807 0.490444,-1.53142" />
    <path
       inkscape:connector-curvature="0"
       id="path7510"
       style="fill:#ffffff;fill-opacity:1;fill-rule:evenodd;stroke:none;stroke-width:1.62398696"
       d="m -84.503579,46.919999 h 4.162279 c 0.01137,0.339413 0.02436,0.690194 0.03573,1.040976 l 0.0341,1.052343 h -0.267958 c -0.05846,-0.537539 -0.222486,-0.888321 -0.492068,-1.088071 -0.279326,-0.198126 -0.571643,-0.303686 -0.876953,-0.303686 -0.116927,0.01137 -0.233854,0.01137 -0.350781,0.01137 v 1.369021 1.367397 c 0.175391,0 0.328045,-0.05846 0.433605,-0.164022 0.116927,-0.116927 0.198126,-0.25659 0.245222,-0.456341 0.0471,-0.186758 0.06983,-0.43198 0.0812,-0.71293 h 0.292318 v 1.661339 1.648347 c -0.103936,0.01137 -0.198127,0.01137 -0.292318,0.02273 -0.01137,-0.420612 -0.0812,-0.748658 -0.186759,-0.96952 -0.116927,-0.222486 -0.303685,-0.328045 -0.573267,-0.328045 v 1.133543 1.135167 c 0,0.303685 0.03573,0.490444 0.105559,0.584635 0.06983,0.0812 0.175391,0.116927 0.316678,0.116927 0.220862,-0.02436 0.454716,-0.09419 0.677202,-0.222486 0.222486,-0.139663 0.409245,-0.328046 0.584636,-0.5619 0.164022,-0.233854 0.292317,-0.526172 0.362149,-0.852593 0.105559,0.0471 0.19975,0.09257 0.292317,0.139663 -0.05846,0.339413 -0.116927,0.690194 -0.17539,1.029608 -0.05846,0.339413 -0.116927,0.677202 -0.175391,1.027984 -1.414493,0.07146 -2.828985,0.17539 -4.23211,0.328045 v -0.373517 c 0.0471,0 0.09419,-0.01299 0.139663,-0.01299 0.129919,-0.01137 0.222486,-0.116927 0.258214,-0.292318 0.04709,-0.17539 0.05846,-0.420612 0.05846,-0.724298 v -2.630859 -2.619491 c 0,-0.303685 -0.01137,-0.548907 -0.05846,-0.724298 -0.03573,-0.175391 -0.128295,-0.258214 -0.258214,-0.258214 h -0.139663 z m -4.162279,3.835857 c 0.467709,-0.04709 0.935417,-0.08282 1.403125,-0.116927 v -1.146535 -1.133543 c 0,-0.339413 -0.02436,-0.597627 -0.06983,-0.773017 -0.0471,-0.175391 -0.129919,-0.267958 -0.269582,-0.267958 -0.0471,0 -0.09419,0.01137 -0.128295,0.01137 v -0.397877 c 0.899689,0 1.801001,0 2.712058,-0.01137 v 0.373517 h -0.128295 c -0.139663,0 -0.222486,0.09419 -0.269582,0.258214 -0.04547,0.175391 -0.06983,0.420613 -0.06983,0.748658 v 2.689322 2.676331 c 0,0.292318 0.02436,0.539164 0.05846,0.714554 0.0471,0.175391 0.128295,0.25659 0.258214,0.245222 0.04547,-0.01137 0.09257,-0.01137 0.151031,-0.02436 v 0.375141 c -0.911057,0.128294 -1.812369,0.267957 -2.712058,0.409244 v -0.386509 c 0.0341,-0.01137 0.0812,-0.01137 0.116927,-0.02273 0.139663,-0.02436 0.233854,-0.128295 0.28095,-0.316678 0.04547,-0.175391 0.06983,-0.431981 0.06983,-0.771394 v -1.25047 -1.252094 c -0.467708,0.0471 -0.935416,0.09419 -1.403125,0.141287 v 1.286198 1.286198 c 0,0.233854 0.01137,0.420612 0.02274,0.573267 0.01137,0.139663 0.0471,0.25659 0.09419,0.337789 0.05846,0.08282 0.128295,0.116927 0.209495,0.09419 0.0471,0 0.09419,-0.01137 0.129919,-0.02273 v 0.396252 c -0.901313,0.164023 -1.801002,0.350782 -2.702315,0.5619 v -0.420613 c 0.0471,-0.01137 0.08282,-0.02436 0.129919,-0.03573 0.139663,-0.02274 0.220862,-0.139663 0.267958,-0.339414 0.0471,-0.186758 0.05846,-0.467708 0.05846,-0.841225 v -2.958904 -2.968648 c 0,-0.375141 -0.02274,-0.656091 -0.05846,-0.831482 -0.0341,-0.186758 -0.128295,-0.279326 -0.25659,-0.279326 -0.04709,0 -0.09419,0 -0.141287,0.01137 v -0.420612 c 0.901313,-0.01299 1.801002,-0.01299 2.702315,-0.02436 v 0.397877 h -0.116927 c -0.129919,0 -0.222487,0.09419 -0.269582,0.25659 -0.0471,0.17539 -0.06983,0.444972 -0.06983,0.818489 v 1.169271 z m 11.985024,-3.835857 v 0.807122 c -0.164022,-0.06983 -0.350781,-0.116928 -0.584635,-0.116928 v 1.391757 1.378765 c 0.209494,0 0.409245,-0.04709 0.584635,-0.139663 v 2.280078 c -0.186758,-0.492068 -0.375141,-0.971144 -0.561899,-1.45022 h -0.02274 v 1.110807 1.099439 c 0,0.209494 0.01137,0.373517 0.02274,0.514804 0.01137,0.128295 0.04709,0.245222 0.09419,0.315053 0.05846,0.0812 0.128295,0.128295 0.222486,0.128295 h 0.128295 v 0.350782 c -0.91268,-0.01137 -1.812369,-0.02274 -2.70069,-0.01137 v -0.35078 h 0.116927 c 0.116927,0 0.209494,-0.0812 0.25659,-0.233854 0.0471,-0.152654 0.0812,-0.386509 0.0812,-0.724298 v -2.526924 -2.525299 c 0,-0.326422 -0.0341,-0.573268 -0.0812,-0.724299 -0.0471,-0.152654 -0.139663,-0.222486 -0.25659,-0.222486 h -0.116927 v -0.362149 c 0.935416,0 1.870833,0 2.817617,0.01137 M -91.951184,50.0072 c -0.09419,0 -0.188383,0.01137 -0.28095,0.02274 -0.06983,-0.607371 -0.222486,-1.169271 -0.45634,-1.671083 -0.233855,-0.503435 -0.596004,-0.748658 -1.088072,-0.73729 -0.209494,0 -0.409244,0.09419 -0.571643,0.269582 -0.175391,0.186759 -0.258214,0.443349 -0.258214,0.782762 0,0.28095 0.04709,0.526172 0.164023,0.71293 0.105559,0.199751 0.245222,0.350781 0.409244,0.467709 0.175391,0.116927 0.386509,0.245222 0.631731,0.362149 0.245222,0.129919 0.431981,0.222486 0.548908,0.305309 0.420612,0.279326 0.73729,0.654467 0.959776,1.133543 0.209494,0.479076 0.315054,1.063712 0.315054,1.742538 0,0.748658 -0.116927,1.378765 -0.339414,1.882201 -0.233854,0.514804 -0.501812,0.899689 -0.829857,1.180639 -0.328045,0.269581 -0.654467,0.45634 -0.99388,0.550531 -0.350781,0.103935 -0.73729,0.09257 -1.146535,-0.03573 -0.139663,-0.0471 -0.25659,-0.10556 -0.350781,-0.128295 -0.09257,-0.02436 -0.175391,-0.03573 -0.245222,-0.01137 -0.105559,0.0341 -0.175391,0.116927 -0.233854,0.245222 -0.0471,0.128295 -0.06983,0.292317 -0.06983,0.467708 -0.09419,0.0341 -0.198126,0.06983 -0.292317,0.09257 v -1.974768 -1.965024 c 0.09419,-0.02274 0.198126,-0.0471 0.292317,-0.05846 0.06983,0.5619 0.211119,1.063712 0.420613,1.484324 0.211118,0.422237 0.467708,0.714555 0.760026,0.901313 0.28095,0.186759 0.561899,0.245222 0.818489,0.175391 0.211119,-0.0471 0.397877,-0.211119 0.5619,-0.467709 0.151031,-0.258214 0.233854,-0.608995 0.233854,-1.040975 0,-0.292318 -0.0471,-0.514804 -0.141287,-0.665835 -0.0812,-0.152655 -0.198126,-0.269582 -0.326421,-0.339413 -0.128295,-0.06983 -0.409245,-0.222486 -0.865585,-0.420613 -0.339414,-0.164023 -0.654467,-0.328045 -0.912681,-0.550531 -0.267958,-0.222487 -0.479076,-0.548908 -0.654467,-0.982513 -0.17539,-0.43198 -0.267958,-0.99388 -0.267958,-1.695442 0,-0.665835 0.09257,-1.261838 0.279326,-1.765274 0.188383,-0.514804 0.45634,-0.899689 0.795754,-1.16927 0.350781,-0.267958 0.748658,-0.397877 1.192006,-0.397877 0.30531,0 0.608995,0.105559 0.912681,0.328045 0.09419,0.06983 0.17539,0.128295 0.233854,0.164023 0.05846,0.04709 0.105559,0.0812 0.139663,0.09257 0.03573,0.02436 0.08282,0.03573 0.116927,0.03573 0.07146,0 0.129919,-0.03573 0.175391,-0.116927 0.05846,-0.06983 0.08282,-0.175391 0.08282,-0.303686 v -0.116927 h 0.28095 v 1.601251 z m 26.17867,-3.051471 c 1.416117,0.01137 2.830609,0.02274 4.245102,0.0341 0,0.479077 0.02274,0.971145 0.03573,1.450221 0.01137,0.479076 0.02274,0.971144 0.0341,1.45022 -0.09257,-0.01137 -0.186759,-0.02436 -0.28095,-0.02436 -0.0812,-1.273205 -0.571644,-1.940664 -1.50706,-1.974768 -0.09419,0 -0.188383,0 -0.28095,-0.01299 v 1.753906 1.742538 c 0.315054,0.05846 0.53754,-0.05846 0.665835,-0.326421 0.128295,-0.269582 0.19975,-0.690195 0.211118,-1.263462 0.0812,0.01137 0.175391,0.01137 0.25659,0.02274 v 2.29307 2.280077 c -0.0812,-0.02436 -0.175391,-0.04709 -0.25659,-0.05846 0,-0.620363 -0.05846,-1.099439 -0.186758,-1.450221 -0.141287,-0.339413 -0.363774,-0.537539 -0.690195,-0.596003 v 1.472956 1.472957 c 0,0.362149 0.02274,0.643098 0.05846,0.829857 0.0341,0.19975 0.06983,0.328045 0.128295,0.386509 0.04709,0.06983 0.128295,0.116927 0.222486,0.139663 0.04709,0.02436 0.105559,0.03573 0.164022,0.05846 v 0.467708 c -0.948408,-0.315053 -1.883824,-0.596003 -2.819241,-0.865585 v -0.43198 c 0.03573,0.01137 0.07146,0.02274 0.116927,0.03573 0.116927,0.0341 0.211118,-0.03573 0.269582,-0.188383 0.05846,-0.151031 0.08282,-0.443348 0.08282,-0.876953 V 51.66692 48.556985 c 0,-0.373517 -0.02436,-0.665835 -0.07146,-0.865585 -0.0471,-0.198127 -0.139663,-0.303686 -0.267958,-0.303686 h -0.129919 z m -4.722554,-0.02436 c 1.414493,0 2.828985,0.01137 4.23211,0.02436 0.01137,0.420612 0.02274,0.829857 0.03573,1.25047 0.01137,0.409244 0.02274,0.829857 0.04547,1.25047 -0.09257,-0.01137 -0.198126,-0.01137 -0.279325,-0.02274 -0.07146,-1.099439 -0.584636,-1.659715 -1.508684,-1.695443 h -0.28095 v 1.53142 1.53142 c 0.303685,0.02436 0.526172,-0.0812 0.654467,-0.315054 0.141287,-0.233854 0.211118,-0.607371 0.222486,-1.110807 0.0812,0.01137 0.17539,0.02274 0.25659,0.02274 v 1.98776 1.98776 c -0.0812,-0.02273 -0.175391,-0.0341 -0.25659,-0.05846 0,-0.526172 -0.06983,-0.946785 -0.198127,-1.239102 -0.129918,-0.292318 -0.350781,-0.456341 -0.678826,-0.490444 v 1.286197 1.297566 c 0,0.315053 0.01137,0.561899 0.0471,0.724298 0.0341,0.164023 0.0812,0.269582 0.139662,0.328046 0.0471,0.04709 0.116927,0.0812 0.211119,0.09419 0.05846,0.01137 0.105559,0.02274 0.164022,0.0341 v 0.409244 c -0.935416,-0.198126 -1.870833,-0.384885 -2.806249,-0.537539 v -0.386509 c 0.0341,0 0.06983,0.01299 0.116927,0.01299 0.116927,0.02274 0.209494,-0.03573 0.267958,-0.188383 0.04709,-0.139663 0.08282,-0.409245 0.08282,-0.782762 v -2.759154 -2.759154 c 0,-0.339413 -0.02436,-0.597627 -0.07146,-0.773017 -0.04547,-0.175391 -0.139663,-0.267958 -0.267958,-0.267958 h -0.128295 z m -3.228486,7.858473 v -0.363773 c 0.04709,0.01299 0.08282,0.01299 0.129919,0.01299 0.139663,0.02274 0.245222,-0.0471 0.279325,-0.211119 0.03573,-0.164022 0.06009,-0.409244 0.06009,-0.724298 V 50.884151 48.26466 c 0,-0.328045 -0.02436,-0.561899 -0.06009,-0.73729 -0.0341,-0.162399 -0.139662,-0.245222 -0.279325,-0.245222 h -0.129919 v -0.362149 c 0.901312,0 1.801001,0 2.713682,0.01137 v 0.375141 h -0.116927 c -0.105559,0 -0.186759,0.0341 -0.233854,0.128295 -0.0471,0.0812 -0.08282,0.198126 -0.09419,0.339413 -0.02274,0.139663 -0.02274,0.315054 -0.02274,0.53754 v 2.689322 2.677955 c 0,0.220862 0,0.396253 0.02274,0.53754 0.01137,0.15103 0.04709,0.267957 0.09419,0.362149 0.04709,0.09419 0.128295,0.152654 0.233854,0.164022 0.0341,0 0.0812,0.01137 0.116927,0.01137 v 0.386509 c -0.901313,-0.141287 -1.81237,-0.246846 -2.713682,-0.350781 m -2.957281,-2.26871 v -2.280078 c 0.0812,-0.03573 0.152655,-0.08282 0.222487,-0.141286 0.245222,-0.186759 0.373517,-0.571644 0.373517,-1.156279 0,-0.620363 -0.198127,-1.029608 -0.596004,-1.216366 v -0.807122 h 0.373517 c 0.420613,0 0.771394,0.06983 1.040976,0.222486 0.269582,0.139663 0.479076,0.326422 0.607371,0.53754 0.129919,0.222486 0.211119,0.444972 0.258214,0.654467 0.0471,0.211118 0.06983,0.420612 0.06983,0.596003 0,0.444972 -0.10556,0.842849 -0.303686,1.19363 -0.19975,0.350782 -0.514804,0.573268 -0.924049,0.690195 0.198127,0.501812 0.409245,1.016616 0.607372,1.520052 0.19975,0.51318 0.409244,1.027983 0.608995,1.542787 0.128295,0.315054 0.25659,0.490444 0.409244,0.526172 v 0.362149 c -0.643098,-0.04709 -1.286197,-0.09257 -1.929296,-0.128295 -0.233854,-0.607371 -0.456341,-1.204998 -0.690195,-1.789633 z" />
    <path
       inkscape:connector-curvature="0"
       id="path7514"
       style="fill:#302c2a;fill-opacity:1;fill-rule:evenodd;stroke:none;stroke-width:1.62398696"
       d="M -93.869436,53.573149 V 53.38639 c -0.116927,-0.05846 -0.25659,-0.116927 -0.420613,-0.186758 -0.17539,-0.08282 -0.328045,-0.164023 -0.479076,-0.258214 -0.152655,-0.0812 -0.292317,-0.175391 -0.422236,-0.28095 -0.128295,-0.103935 -0.233855,-0.233854 -0.33779,-0.396253 -0.105559,-0.152654 -0.211118,-0.339413 -0.292317,-0.550531 -0.08282,-0.209494 -0.152655,-0.45634 -0.188383,-0.735666 -0.04547,-0.28095 -0.06983,-0.584636 -0.06983,-0.935417 0,-0.328045 0.02436,-0.643099 0.06983,-0.935416 0.0471,-0.292318 0.116927,-0.5619 0.211118,-0.807122 0.0812,-0.245222 0.198127,-0.467708 0.328046,-0.654467 0.128295,-0.188382 0.267958,-0.350781 0.43198,-0.4807 0.164023,-0.128295 0.339414,-0.220862 0.53754,-0.279325 0.186759,-0.07146 0.397877,-0.09419 0.608995,-0.09419 h 0.02274 v -0.164022 h -0.02274 c -0.233854,0 -0.45634,0.03573 -0.667458,0.105559 -0.198127,0.06983 -0.397877,0.164022 -0.573268,0.303685 -0.17539,0.141287 -0.337789,0.316678 -0.479076,0.514804 -0.128295,0.198127 -0.245222,0.431981 -0.339413,0.690195 -0.09257,0.25659 -0.162399,0.537539 -0.209495,0.841225 -0.05846,0.303686 -0.06983,0.620363 -0.06983,0.959776 0,0.350781 0.01137,0.677203 0.05846,0.958153 0.04547,0.292317 0.116927,0.548907 0.198127,0.771393 0.09419,0.222487 0.198126,0.420613 0.303685,0.584636 0.116927,0.164022 0.245222,0.316677 0.375141,0.420612 0.139663,0.116927 0.279326,0.211119 0.443349,0.30531 0.152655,0.09257 0.328045,0.175391 0.503436,0.25659 0.186758,0.09419 0.350781,0.164023 0.479076,0.222486 z m 0,3.554908 c -0.139663,0.02274 -0.28095,0.0341 -0.431981,0.0341 -0.19975,-0.01137 -0.397876,-0.04547 -0.608995,-0.116927 -0.0812,-0.02274 -0.15103,-0.04547 -0.209494,-0.06983 -0.0471,-0.02274 -0.09419,-0.0341 -0.141287,-0.0471 -0.0341,-0.02274 -0.06983,-0.02274 -0.105559,-0.02274 -0.0341,0 -0.06983,0 -0.09257,0.01137 -0.03573,0 -0.06983,0.02436 -0.105559,0.05846 -0.02274,0.03573 -0.0471,0.08282 -0.06983,0.128295 -0.02436,0.07146 -0.04709,0.129919 -0.05846,0.211118 -0.01137,0.06983 -0.01137,0.152655 -0.01137,0.233854 v 0.05846 l -0.05846,0.02274 c -0.02436,0.01299 -0.04709,0.01299 -0.08282,0.02436 -0.06983,0.02274 -0.139663,0.0471 -0.209495,0.06983 l -0.105559,0.02274 v -4.115183 l 0.05846,-0.01137 c 0.0341,-0.01137 0.09257,-0.02436 0.151031,-0.03573 0.116927,-0.02274 0.141287,-0.02274 0.152654,-0.02274 l 0.0812,-0.02436 0.01299,0.09419 c 0.0341,0.280949 0.0812,0.537539 0.15103,0.782761 0.06983,0.246846 0.152655,0.467709 0.258214,0.678827 0.103936,0.198126 0.220863,0.373517 0.33779,0.526172 0.129919,0.139663 0.258214,0.25659 0.386509,0.339413 0.139662,0.09257 0.269581,0.151031 0.397876,0.17539 0.10556,0.02274 0.209495,0.02274 0.303686,0.01137 v 0.164023 c -0.105559,0.01137 -0.222486,0.01137 -0.339413,-0.02436 -0.151031,-0.02274 -0.292318,-0.09257 -0.443349,-0.186758 -0.152655,-0.09257 -0.292317,-0.222486 -0.422236,-0.384885 -0.128295,-0.152655 -0.25659,-0.339413 -0.362149,-0.550532 -0.10556,-0.209494 -0.198127,-0.443348 -0.267958,-0.701562 -0.07146,-0.233854 -0.116927,-0.467708 -0.152655,-0.724298 -0.03573,0 -0.0471,0.01137 -0.05846,0.01137 -0.02273,0 -0.05846,0.01137 -0.0812,0.01137 v 3.777393 l 0.103935,-0.03573 c 0.01299,0 0.02436,-0.01137 0.02436,-0.01137 0,-0.06983 0.01137,-0.139663 0.02274,-0.198127 0.01137,-0.09419 0.03573,-0.164022 0.05846,-0.233854 0.02436,-0.08282 0.06983,-0.141287 0.10556,-0.188382 0.05846,-0.05846 0.105559,-0.09257 0.17539,-0.116927 0.0471,-0.01137 0.09419,-0.01137 0.139663,-0.01137 0.0471,0 0.105559,0.01137 0.152655,0.02436 0.04709,0.01137 0.09419,0.0341 0.152655,0.05846 0.05846,0.02274 0.128295,0.04547 0.198126,0.06983 0.198126,0.05846 0.386509,0.09257 0.573267,0.10556 0.139663,0 0.28095,-0.01299 0.420613,-0.03573 z m 0,-9.423997 c -0.05846,0.01137 -0.116927,0.0341 -0.175391,0.05846 -0.09419,0.04547 -0.17539,0.103935 -0.245222,0.186758 -0.08282,0.0812 -0.141287,0.186759 -0.17539,0.303686 -0.03573,0.116927 -0.05846,0.25659 -0.05846,0.420612 0,0.128295 0.01137,0.258214 0.0341,0.375141 0.02436,0.103935 0.05846,0.209495 0.116927,0.303686 0.0471,0.09257 0.105559,0.17539 0.175391,0.245222 0.05846,0.06983 0.141286,0.139663 0.211118,0.198126 0.03573,0.02436 0.0812,0.0471 0.116927,0.07146 v 0.186758 c -0.06983,-0.03573 -0.139663,-0.08282 -0.211118,-0.128295 -0.0812,-0.05846 -0.162399,-0.141287 -0.233854,-0.222486 -0.0812,-0.08282 -0.139663,-0.175391 -0.198127,-0.269582 -0.05846,-0.105559 -0.105559,-0.222486 -0.128295,-0.350781 -0.03573,-0.128295 -0.0471,-0.267958 -0.0471,-0.409245 0,-0.17539 0.02274,-0.339413 0.06983,-0.467708 0.0471,-0.139663 0.116927,-0.267958 0.211118,-0.362149 0.0812,-0.105559 0.186759,-0.175391 0.292318,-0.222486 0.0812,-0.0471 0.164023,-0.06983 0.245222,-0.0812 z m 5.904817,2.910185 v 0.164022 c -0.233854,0.01137 -0.467709,0.03573 -0.701563,0.05846 h -0.0812 v -2.431109 c 0,-0.188382 0,-0.350781 0.01137,-0.492068 0.01137,-0.139663 0.0341,-0.25659 0.05846,-0.350781 0.0341,-0.09257 0.06983,-0.17539 0.128295,-0.222486 0.05846,-0.05846 0.139663,-0.0812 0.222487,-0.09257 h 0.0341 v -0.316678 l -0.06983,0.08282 c -0.81849,0.01137 -1.648347,0.01137 -2.466836,0.02273 v 0.258214 c 0.02273,0 0.03573,-0.01299 0.05846,-0.01299 0.0812,0 0.164023,0.03573 0.222486,0.09419 0.0471,0.05846 0.09257,0.139662 0.116927,0.245222 0.02274,0.105559 0.0341,0.222486 0.0471,0.375141 0.01137,0.128295 0.01137,0.292317 0.01137,0.479076 v 5.927552 c 0,0.186759 0,0.350782 -0.01137,0.492068 -0.01299,0.151031 -0.02436,0.267958 -0.0471,0.373517 -0.02436,0.10556 -0.06983,0.198127 -0.116927,0.269582 -0.05846,0.06983 -0.128295,0.116927 -0.211118,0.128295 -0.01137,0 -0.0341,0.01137 -0.06983,0.01137 v 0.25659 c 0.420612,-0.09257 0.829857,-0.186758 1.25047,-0.267958 0.433604,-0.09419 0.865585,-0.17539 1.286197,-0.258214 V 55.1744 c -0.01137,0.01299 -0.02273,0.01299 -0.02273,0.01299 -0.06983,0.01137 -0.116928,0 -0.175391,-0.02436 -0.0471,-0.01137 -0.09419,-0.05846 -0.116927,-0.105559 -0.03573,-0.04547 -0.05846,-0.103935 -0.0812,-0.17539 -0.01299,-0.05846 -0.02436,-0.128295 -0.03573,-0.209495 -0.01137,-0.06983 -0.01137,-0.164022 -0.02274,-0.258214 v -0.315053 -2.642227 l 0.06983,-0.01137 c 0.222487,-0.02436 0.443349,-0.03573 0.701563,-0.07146 h 0.01137 v 0.164022 c -0.186759,0.02436 -0.409245,0.0471 -0.631731,0.05846 v 2.502564 c 0,0.116927 0.01137,0.222486 0.01137,0.315053 0.01299,0.09419 0.01299,0.175391 0.02436,0.246846 0,0.06983 0.01137,0.128295 0.0341,0.186759 0.01299,0.04709 0.02436,0.09257 0.0471,0.128295 0.02436,0.02274 0.03573,0.03573 0.05846,0.0471 0.02436,0.01137 0.0471,0.01137 0.06983,0 h 0.04709 c 0.02436,-0.01137 0.05846,-0.01137 0.08282,-0.01137 l 0.09257,-0.02436 v 0.561899 l -0.05846,0.01137 c -0.456341,0.0812 -0.911057,0.164023 -1.35603,0.25659 -0.444972,0.09419 -0.899688,0.188383 -1.344661,0.292318 l -0.105559,0.02436 v -0.514803 l 0.105559,-0.09419 c 0.02274,0 0.0471,0 0.09419,-0.01137 0.04547,-0.01137 0.0812,-0.0341 0.116927,-0.0812 0.0341,-0.0471 0.06983,-0.116927 0.0812,-0.19975 0.02274,-0.09257 0.03573,-0.209495 0.04709,-0.350781 0.01137,-0.139663 0.02274,-0.292318 0.02274,-0.479077 v -5.927552 c 0,-0.175391 -0.01137,-0.339413 -0.02274,-0.467708 -0.01137,-0.141287 -0.02436,-0.258214 -0.04709,-0.350782 -0.01137,-0.06983 -0.03573,-0.128295 -0.06983,-0.164022 -0.02436,-0.03573 -0.06983,-0.0471 -0.105559,-0.0471 h -0.06983 -0.06983 l -0.08282,0.01137 v -0.584635 h 0.08282 c 0.852593,-0.01137 1.695443,-0.01137 2.78189,0.05846 v 0.4807 h -0.0812 -0.05846 -0.05846 c -0.0471,0 -0.08282,0.01137 -0.10556,0.04547 -0.03573,0.03573 -0.06983,0.08282 -0.09419,0.152655 -0.02274,0.0812 -0.0341,0.186758 -0.04547,0.315053 -0.01299,0.129919 -0.02436,0.292318 -0.02436,0.4807 v 2.255718 c 0.211118,-0.01137 0.420612,-0.0341 0.620363,-0.0471 z m -5.904817,5.531299 c 0.02274,0 0.03573,-0.01137 0.05846,-0.01137 0.09419,-0.02436 0.186758,-0.06983 0.269581,-0.141286 0.0812,-0.0812 0.162399,-0.175391 0.245222,-0.303686 0.06983,-0.116927 0.128295,-0.267958 0.164023,-0.43198 0.04547,-0.164023 0.05846,-0.350782 0.05846,-0.5619 0,-0.139663 -0.01299,-0.267958 -0.02436,-0.373517 -0.02274,-0.09419 -0.05846,-0.186758 -0.09257,-0.258214 -0.0471,-0.06983 -0.09419,-0.128295 -0.152655,-0.186758 -0.0471,-0.0471 -0.105559,-0.09257 -0.152655,-0.116927 -0.0812,-0.0471 -0.198126,-0.10556 -0.373517,-0.186759 V 53.38639 l 0.06983,0.0341 c 0.175391,0.08282 0.303686,0.152655 0.375141,0.199751 0.06983,0.0341 0.139663,0.0812 0.198127,0.15103 0.05846,0.05846 0.116927,0.129919 0.164023,0.211119 0.05846,0.09419 0.09257,0.198126 0.116927,0.315053 0.02273,0.116927 0.0341,0.246846 0.0341,0.397877 0,0.222486 -0.02274,0.420613 -0.05846,0.596003 -0.04547,0.188383 -0.103935,0.350781 -0.186759,0.4807 -0.09257,0.139663 -0.186758,0.25659 -0.280949,0.33779 -0.103936,0.09419 -0.220863,0.152654 -0.33779,0.17539 -0.03573,0.01299 -0.05846,0.01299 -0.09419,0.02436 z m 0,-6.278333 v 0.186758 c 0.02274,0.02274 0.05846,0.0341 0.0812,0.05846 0.10556,0.05846 0.222487,0.116927 0.350782,0.186758 0.129919,0.05846 0.233854,0.116927 0.316677,0.164023 0.09257,0.0471 0.175391,0.09257 0.233854,0.128295 0.198127,0.128295 0.373517,0.292318 0.526172,0.467708 0.164023,0.186759 0.292318,0.397877 0.384885,0.631731 0.105559,0.233854 0.188382,0.490444 0.233854,0.771394 0.05846,0.292318 0.08282,0.596003 0.08282,0.935416 0,0.373517 -0.03573,0.712931 -0.08282,1.016616 -0.05846,0.30531 -0.139663,0.584636 -0.25659,0.831482 -0.105559,0.25659 -0.233854,0.479076 -0.362149,0.665834 -0.141287,0.186759 -0.28095,0.350781 -0.433605,0.490444 -0.162398,0.129919 -0.326421,0.246846 -0.479076,0.328046 -0.164022,0.09419 -0.326421,0.164022 -0.479076,0.211118 -0.0471,0 -0.0812,0.01137 -0.116927,0.02274 v 0.164023 c 0.0471,-0.01137 0.105559,-0.02436 0.152655,-0.03573 0.17539,-0.0471 0.350781,-0.116927 0.51318,-0.222486 0.17539,-0.09257 0.339413,-0.209495 0.503436,-0.350782 0.17539,-0.139662 0.328045,-0.315053 0.467708,-0.513179 0.139663,-0.199751 0.269582,-0.433605 0.386509,-0.690195 0.116927,-0.258214 0.198126,-0.550532 0.25659,-0.865585 0.05846,-0.315053 0.09419,-0.665835 0.09419,-1.052344 0,-0.339413 -0.03573,-0.665834 -0.08282,-0.958152 -0.05846,-0.305309 -0.139663,-0.573267 -0.245222,-0.818489 -0.10556,-0.246846 -0.245222,-0.467709 -0.409245,-0.656091 -0.164023,-0.198127 -0.350781,-0.362149 -0.573268,-0.51318 -0.05846,-0.03573 -0.139662,-0.08282 -0.233854,-0.129919 -0.09257,-0.05846 -0.209494,-0.116927 -0.326421,-0.175391 -0.129919,-0.05846 -0.233854,-0.116927 -0.339413,-0.17539 -0.05846,-0.0341 -0.116927,-0.06983 -0.164023,-0.103935 m 1.999128,0.209494 -0.06983,0.01137 c -0.0812,0 -0.128295,0 -0.139663,0.01299 h -0.01299 c -0.128295,0.01137 -0.116927,0 -0.139663,0.01137 h -0.06983 l -0.01137,-0.06983 c -0.03573,-0.305309 -0.09419,-0.597627 -0.164023,-0.865585 -0.06983,-0.269582 -0.164023,-0.53754 -0.28095,-0.784386 -0.116927,-0.233854 -0.25659,-0.420612 -0.420613,-0.537539 -0.164022,-0.105559 -0.362149,-0.164023 -0.596003,-0.164023 -0.02436,0 -0.05846,0.01299 -0.09419,0.01299 v -0.164023 h 0.09419 c 0.25659,-0.01137 0.490444,0.05846 0.688571,0.186759 0.188382,0.139663 0.350781,0.339413 0.467708,0.607371 0.116927,0.246846 0.222486,0.514804 0.292318,0.795754 0.07146,0.25659 0.129919,0.526171 0.164022,0.807121 h 0.05846 c 0.03573,0 0.05846,-0.01137 0.08282,-0.01137 v -3.064463 h -0.129919 v 0.0471 c 0,0.06983 -0.01137,0.139663 -0.02274,0.198127 -0.01137,0.05846 -0.03573,0.105559 -0.06983,0.152655 -0.03573,0.04709 -0.06983,0.0812 -0.105559,0.105559 -0.0471,0.02274 -0.09419,0.04709 -0.139663,0.04709 -0.02436,0 -0.05846,-0.01299 -0.08282,-0.01299 -0.02274,-0.01137 -0.0471,-0.02273 -0.06983,-0.0341 l -0.06983,-0.03573 c -0.02436,-0.01137 -0.05846,-0.0341 -0.08282,-0.05846 l -0.0812,-0.05846 c -0.06983,-0.0471 -0.139663,-0.105559 -0.152655,-0.105559 -0.151031,-0.103935 -0.292317,-0.186759 -0.43198,-0.245222 -0.139663,-0.0471 -0.269582,-0.06983 -0.409245,-0.06983 v -0.164022 c 0.152655,0 0.303686,0.03573 0.45634,0.08282 0.164023,0.05846 0.315054,0.151031 0.479077,0.25659 0.105559,0.0812 0.139662,0.105559 0.152654,0.116927 0.05846,0.03573 0.04547,0.03573 0.0812,0.05846 0.02273,0.02274 0.04709,0.03573 0.06983,0.0471 0.02436,0.02274 0.0471,0.0341 0.05846,0.0341 0.01137,0.01299 0.02436,0.01299 0.03573,0.02436 h 0.0471 c 0.02274,0 0.0341,-0.01137 0.05846,-0.01137 0.01137,-0.01299 0.0341,-0.03573 0.05846,-0.07146 0.01137,-0.02274 0.0341,-0.05846 0.0341,-0.103935 0.01137,-0.03573 0.02436,-0.09419 0.02436,-0.152655 V 46.71018 h 0.0812 0.28095 0.0812 z m 7.436236,4.396133 0.01299,-0.01137 z m -3.530547,-2.934545 v -0.164022 c 0.222486,-0.02274 0.45634,-0.04547 0.690194,-0.06983 h 0.09257 v 2.583763 c 0,0.164023 -0.01137,0.316678 -0.02273,0.444973 -0.01137,0.139663 -0.03573,0.25659 -0.05846,0.350781 -0.02274,0.105559 -0.05846,0.186759 -0.116927,0.245222 -0.05846,0.06983 -0.128295,0.105559 -0.222486,0.128295 -0.02274,0 -0.0341,0 -0.0471,0.01299 v 0.220862 c 0.422237,-0.06983 0.842849,-0.128295 1.263462,-0.198126 0.420613,-0.05846 0.841225,-0.116927 1.286198,-0.186759 v -0.211118 c -0.02274,0 -0.0471,0.01137 -0.05846,0.01137 -0.09419,0.01299 -0.164022,-0.01137 -0.222486,-0.06983 -0.05846,-0.05846 -0.09257,-0.128294 -0.116927,-0.233854 -0.02274,-0.09257 -0.0471,-0.209494 -0.05846,-0.326421 -0.01137,-0.116927 -0.01137,-0.258214 -0.01137,-0.409245 v -5.367277 c 0,-0.152655 0.01137,-0.303685 0.02274,-0.420612 0.01299,-0.141287 0.02436,-0.258214 0.0471,-0.339414 0.02436,-0.105559 0.06983,-0.17539 0.128295,-0.233854 0.05846,-0.05846 0.129919,-0.09419 0.222486,-0.09419 h 0.0471 v -0.209494 c -0.420613,0 -0.829858,0.01137 -1.25047,0.01137 h -1.29919 v 0.233854 h 0.0471 c 0.09419,-0.01137 0.164023,0.02273 0.222486,0.0812 0.05846,0.05846 0.09419,0.128295 0.128295,0.233854 0.02436,0.105559 0.03573,0.211118 0.0471,0.339413 0.01137,0.128295 0.02273,0.28095 0.02273,0.456341 v 2.349909 l -0.0812,0.01137 c -0.222486,0.01137 -0.45634,0.03573 -0.701562,0.05846 V 50.61425 c 0.198126,-0.02274 0.409244,-0.0341 0.620363,-0.05846 v -2.197254 c 0,-0.164023 -0.01299,-0.303686 -0.02436,-0.433605 -0.01137,-0.128295 -0.02274,-0.233854 -0.0471,-0.315053 -0.01137,-0.0812 -0.0341,-0.128295 -0.06983,-0.164023 -0.0341,-0.0341 -0.06983,-0.0471 -0.116927,-0.0471 h -0.06983 -0.05846 l -0.0812,0.01299 v -0.561899 h 0.0812 1.380389 c 0.443348,0 0.888321,0 1.331669,-0.01137 h 0.08282 v 0.53754 h -0.08282 -0.04547 -0.08282 c -0.04709,0 -0.0812,0.01137 -0.116927,0.04709 -0.0341,0.0341 -0.05846,0.0812 -0.06983,0.151031 -0.02274,0.08282 -0.0471,0.188383 -0.05846,0.316677 -0.01137,0.116928 -0.01137,0.25659 -0.01137,0.409245 v 5.367277 c 0,0.139663 0,0.279326 0.01137,0.396253 0.01137,0.116927 0.02274,0.211118 0.0471,0.30531 0.01137,0.06983 0.0341,0.116927 0.06983,0.15103 0.02274,0.02436 0.05846,0.03573 0.09419,0.02436 0.0341,0 0.06983,-0.01299 0.103936,-0.01299 h 0.04709 l 0.09419,-0.01137 v 0.526172 l -0.06983,0.01137 c -0.444972,0.05846 -0.901313,0.129919 -1.357653,0.199751 -0.467708,0.06983 -0.922425,0.139662 -1.356029,0.209494 l -0.09257,0.01299 v -0.550532 l 0.06983,-0.01137 h 0.0341 c 0.03573,-0.01137 0.05846,-0.01137 0.08282,-0.02274 0.0471,0 0.09257,-0.02436 0.128295,-0.07146 0.03573,-0.0341 0.05846,-0.103935 0.0812,-0.175391 0.02436,-0.09257 0.03573,-0.198126 0.0471,-0.326421 0.01137,-0.128295 0.02436,-0.28095 0.02436,-0.433605 V 51.47983 c -0.199751,0.01137 -0.409245,0.03573 -0.620363,0.05846 m 3.543539,2.923177 v 0.164023 h -0.01299 v 0.211118 h 0.01299 v 0.162399 h -0.08282 l -0.0812,0.01299 V 54.48583 l 0.06983,-0.01299 h 0.0812 z m 0,-7.622995 v 0.164023 h -0.01299 v 0.209494 h 0.01299 v 0.164023 h -0.08282 -0.0812 v -0.53754 h 0.0812 z m 7.564532,7.319309 z m -0.06983,0 z m -7.483332,-6.945792 z m -0.01137,7.249478 z m 0,0.164023 h 0.01137 0.05846 c 0.0812,-0.01137 0.151031,-0.0471 0.209494,-0.116927 0.05846,-0.05846 0.09419,-0.128295 0.116927,-0.233855 0.02436,-0.09419 0.03573,-0.211118 0.0471,-0.328045 0.01137,-0.128295 0.01137,-0.267958 0.01137,-0.420613 V 48.2757 c 0,-0.162398 0,-0.292317 -0.01137,-0.420612 -0.01137,-0.116927 -0.02274,-0.222486 -0.0471,-0.315054 -0.02274,-0.105559 -0.05846,-0.186758 -0.116927,-0.233854 -0.05846,-0.06983 -0.128295,-0.09419 -0.220862,-0.09419 h -0.0471 -0.01137 v 0.164023 h 0.01137 0.0471 c 0.04547,0 0.0812,0.01137 0.103935,0.03573 0.03573,0.0341 0.05846,0.09257 0.08282,0.162399 0.01137,0.08282 0.02274,0.175391 0.0341,0.30531 0.01299,0.116927 0.02436,0.245222 0.02436,0.396252 v 5.25035 c 0,0.152655 -0.01137,0.28095 -0.02436,0.409245 -0.01137,0.116927 -0.02274,0.222486 -0.0341,0.303686 -0.02436,0.07146 -0.04709,0.129919 -0.08282,0.164022 -0.02274,0.03573 -0.06983,0.05846 -0.103935,0.05846 h -0.05846 z m 0,0.373517 v -0.162399 c 0.677203,-0.07146 1.35603,-0.129919 2.021864,-0.188383 0.690195,-0.04547 1.369021,-0.09257 2.057592,-0.128295 0.03573,-0.15103 0.05846,-0.303685 0.08282,-0.45634 0.0341,-0.175391 0.05846,-0.350781 0.0812,-0.501812 0.0471,-0.245222 0.08282,-0.45634 0.116927,-0.678826 0.02436,-0.10556 0.03573,-0.209495 0.05846,-0.292318 -0.0341,-0.02274 -0.06983,-0.0341 -0.09257,-0.0471 -0.02436,-0.01137 -0.0471,-0.01137 -0.05846,-0.02274 -0.03573,0.128295 -0.08282,0.25659 -0.129919,0.373517 -0.06983,0.152655 -0.139663,0.28095 -0.233854,0.397877 -0.0812,0.128295 -0.17539,0.233854 -0.279326,0.339414 -0.09419,0.09419 -0.211118,0.17539 -0.328045,0.245222 -0.116927,0.06983 -0.233854,0.128295 -0.350781,0.164022 -0.116927,0.0471 -0.245222,0.06983 -0.362149,0.06983 -0.08282,0.01137 -0.152655,0 -0.211119,-0.02274 -0.06983,-0.02436 -0.116927,-0.05846 -0.164022,-0.116927 -0.04547,-0.0471 -0.0812,-0.128295 -0.103935,-0.245222 -0.01299,-0.105559 -0.02436,-0.233854 -0.02436,-0.386509 v -2.338541 h 0.08282 c 0.139663,-0.01137 0.267958,0.02273 0.384885,0.0812 0.105559,0.05846 0.186758,0.152655 0.258214,0.28095 0.05846,0.116927 0.103935,0.258214 0.139663,0.433604 0.02274,0.139663 0.04709,0.303686 0.05846,0.479076 h 0.05846 0.06983 v -3.15703 h -0.04709 -0.0812 c -0.01137,0.116927 -0.01137,0.222486 -0.03573,0.326421 -0.01137,0.116927 -0.0341,0.222486 -0.05846,0.328045 -0.02274,0.10556 -0.05846,0.186759 -0.09257,0.269582 -0.0471,0.0812 -0.105559,0.151031 -0.164023,0.220862 -0.05846,0.05846 -0.128295,0.10556 -0.222486,0.141287 -0.0812,0.0341 -0.164023,0.0471 -0.267958,0.0471 l -0.08282,0.01137 v -2.911809 h 0.08282 0.198126 0.152655 c 0.162399,0 0.315054,0.02274 0.467708,0.06983 0.162399,0.05846 0.303686,0.128295 0.454717,0.233854 0.141287,0.105559 0.269582,0.258214 0.350781,0.45634 0.08282,0.164023 0.129919,0.373517 0.164023,0.620363 h 0.06983 0.0471 c 0,-0.09419 0,-0.17539 -0.01137,-0.269582 -0.01137,-0.233854 -0.02274,-0.45634 -0.02274,-0.701562 -0.01299,-0.164023 -0.01299,-0.339413 -0.02436,-0.514804 0,-0.151031 -0.01137,-0.292318 -0.01137,-0.45634 -0.665834,0 -1.333293,0.01299 -1.999128,0.01299 h -1.999128 v -0.164023 h 1.999128 2.080328 0.07146 l 0.01137,0.06983 c 0,0.175391 0.01137,0.350782 0.01137,0.53754 0.01137,0.164023 0.01137,0.339413 0.02274,0.514804 0,0.222486 0.01299,0.467708 0.02436,0.701562 0,0.105559 0.01137,0.222487 0.01137,0.339414 v 0.0812 h -0.0812 c -0.03573,0 -0.08282,0 -0.129919,0.01137 h -0.139663 -0.06983 l -0.01137,-0.0812 c -0.02436,-0.245223 -0.08282,-0.467709 -0.152655,-0.643099 -0.0812,-0.164023 -0.186758,-0.292318 -0.303685,-0.386509 -0.141287,-0.09257 -0.269582,-0.162399 -0.409245,-0.209495 -0.141287,-0.04709 -0.28095,-0.06983 -0.420613,-0.06983 h -0.152655 -0.116927 v 2.583763 c 0.0471,-0.01137 0.09419,-0.02436 0.128295,-0.03573 0.06983,-0.02274 0.128295,-0.05846 0.175391,-0.10556 0.0471,-0.04547 0.08282,-0.103935 0.116927,-0.17539 0.0471,-0.06983 0.06983,-0.151031 0.09419,-0.233854 0.02274,-0.09257 0.0471,-0.198127 0.05846,-0.315054 0.01137,-0.116927 0.02274,-0.245222 0.0341,-0.386509 v -0.0812 h 0.07146 0.151031 0.128295 0.08282 v 3.472084 h -0.06983 c -0.0471,0.01299 -0.09419,0.01299 -0.141287,0.01299 -0.0471,0 -0.09257,0 -0.139663,0.01137 h -0.08282 v -0.08282 c -0.01137,-0.209495 -0.0341,-0.384885 -0.06983,-0.53754 -0.02274,-0.164023 -0.06983,-0.292318 -0.128295,-0.397877 -0.0471,-0.09257 -0.105559,-0.162399 -0.186758,-0.209494 -0.06983,-0.03573 -0.141287,-0.05846 -0.222487,-0.06983 v 2.185887 c 0,0.139663 0,0.269582 0.02274,0.362149 0.01299,0.08282 0.03573,0.141287 0.05846,0.164023 0.03573,0.03573 0.05846,0.05846 0.105559,0.06983 0.03573,0.02436 0.08282,0.02436 0.141287,0.02436 0.116927,-0.01299 0.220862,-0.03573 0.326421,-0.07146 0.105559,-0.0341 0.211118,-0.0812 0.316678,-0.139662 0.103935,-0.06983 0.209494,-0.152655 0.303685,-0.233855 0.09257,-0.09419 0.175391,-0.198126 0.25659,-0.303685 0.08282,-0.116927 0.152655,-0.245222 0.211118,-0.375141 0.05846,-0.139663 0.10556,-0.292318 0.139663,-0.443349 l 0.02436,-0.105559 0.09257,0.0471 c 0.0471,0.02274 0.09419,0.0471 0.152655,0.06983 0.05846,0.02274 0.105559,0.0471 0.139663,0.06983 l 0.05846,0.02436 -0.01137,0.05846 c -0.02274,0.128295 -0.03573,0.245222 -0.05846,0.350781 -0.04709,0.233854 -0.0812,0.467709 -0.116927,0.677203 -0.03573,0.175391 -0.05846,0.339413 -0.0812,0.503436 -0.03573,0.17539 -0.07146,0.362149 -0.09419,0.526172 l -0.01137,0.05846 -0.05846,0.01137 c -0.71293,0.03573 -1.414493,0.0812 -2.129047,0.128295 -0.677202,0.05846 -1.367397,0.116927 -2.033232,0.186759 m 7.704195,-7.377773 c -0.162399,-0.05846 -0.33779,-0.0812 -0.548908,-0.0812 h -0.0812 v 2.923177 h 0.0812 c 0.152655,0 0.303686,-0.02436 0.45634,-0.08282 0.02274,0 0.05846,-0.01137 0.09257,-0.0341 v -0.175391 c -0.04547,0.02274 -0.103935,0.0471 -0.151031,0.06983 -0.105559,0.02274 -0.211118,0.0471 -0.316678,0.05846 v -2.608123 c 0.175391,0.01299 0.328046,0.0471 0.467709,0.105559 z m 0,-0.782762 v 0.151031 h -1.192007 -1.508684 v 0.19975 h 0.03573 c 0.06983,0 0.152655,0.02274 0.209494,0.06983 0.0471,0.05846 0.09419,0.116927 0.129919,0.211118 0.02274,0.0812 0.04547,0.186758 0.05846,0.315053 0.01137,0.128295 0.02274,0.269582 0.02274,0.431981 v 5.052223 c 0,0.164023 -0.01137,0.315054 -0.02274,0.431981 -0.01299,0.128295 -0.03573,0.233854 -0.05846,0.316677 -0.03573,0.09257 -0.08282,0.162399 -0.129919,0.209495 -0.05684,0.0471 -0.139663,0.08282 -0.209494,0.08282 h -0.03573 v 0.186759 h 1.263462 c 0.420613,0 0.841225,0.01137 1.27483,0.01137 v -0.186759 h -0.0471 c -0.05846,0 -0.116927,-0.02436 -0.164022,-0.0471 -0.0471,-0.02274 -0.09419,-0.05846 -0.116927,-0.116927 -0.03573,-0.04709 -0.05846,-0.105559 -0.06983,-0.164022 -0.02274,-0.05846 -0.03573,-0.116927 -0.04709,-0.186759 0,-0.0812 -0.01137,-0.152655 -0.01137,-0.245222 -0.01137,-0.08282 -0.01137,-0.175391 -0.01137,-0.28095 v -2.302813 l 0.09257,0.01137 h 0.01137 0.05846 l 0.02436,0.05846 c 0.105559,0.292318 0.222486,0.584636 0.339414,0.876953 l 0.103935,0.25659 v 0.444973 l -0.25659,-0.643099 c -0.06983,-0.186759 -0.139663,-0.362149 -0.211119,-0.550532 v 1.848097 0.28095 c 0.01299,0.0812 0.01299,0.151031 0.02436,0.222486 0,0.05846 0.01137,0.116927 0.0341,0.162399 0.01299,0.0471 0.02436,0.09419 0.0471,0.129919 0.02436,0.02274 0.04709,0.04547 0.06983,0.05846 0.02436,0.01137 0.0471,0.02273 0.08282,0.02273 h 0.06983 0.05846 l 0.0812,0.01137 v 0.503436 h -0.0812 c -0.45634,-0.01137 -0.91268,-0.01137 -1.356029,-0.01137 -0.45634,-0.01299 -0.901313,-0.01299 -1.344661,0 h -0.08282 V 54.14638 h 0.08282 0.06983 0.0471 c 0.0471,0 0.06983,-0.01137 0.105559,-0.03573 0.0341,-0.0341 0.05846,-0.0812 0.0812,-0.139663 0.02273,-0.06983 0.03573,-0.164023 0.04709,-0.28095 0.01137,-0.116927 0.02274,-0.25659 0.02274,-0.420613 V 48.21724 c 0,-0.162399 -0.01137,-0.303686 -0.02274,-0.409245 -0.01137,-0.116927 -0.02436,-0.220862 -0.04709,-0.292318 -0.02274,-0.05846 -0.0471,-0.103935 -0.0812,-0.128294 -0.03573,-0.02274 -0.05846,-0.0341 -0.105559,-0.0341 h -0.19975 v -0.514804 h 0.08282 1.589883 z m 0,3.507812 c 0.105559,-0.0471 0.211118,-0.105559 0.316677,-0.186759 0.128295,-0.105559 0.233854,-0.258214 0.292318,-0.467708 0.06983,-0.19975 0.09257,-0.444972 0.09257,-0.748658 0,-0.45634 -0.103935,-0.807121 -0.303685,-1.040976 -0.116928,-0.128295 -0.245223,-0.222486 -0.397877,-0.280949 v 0.17539 c 0.105559,0.0471 0.19975,0.116927 0.269582,0.211119 0.186758,0.198126 0.280949,0.514803 0.280949,0.935416 0,0.28095 -0.03573,0.514804 -0.09419,0.701562 -0.05846,0.175391 -0.139663,0.303686 -0.245222,0.384885 -0.06983,0.05846 -0.139663,0.10556 -0.211118,0.141287 z m 0,2.280078 v -0.444973 l 0.235478,0.631731 c 0.162399,0.397877 0.279326,0.724298 0.407621,1.040976 0.105559,0.267958 0.222486,0.573267 0.269581,0.701562 0.303686,0.02274 0.620363,0.0471 0.912681,0.05846 0.292318,0.02273 0.596003,0.04709 0.876953,0.06983 V 54.46147 c -0.07146,-0.0341 -0.129919,-0.0812 -0.19975,-0.164023 -0.06983,-0.09257 -0.139663,-0.220862 -0.198127,-0.384885 -0.06983,-0.164022 -0.128295,-0.328045 -0.19975,-0.479076 -0.128295,-0.339413 -0.25659,-0.678826 -0.420613,-1.065335 -0.105559,-0.267958 -0.222486,-0.571644 -0.339413,-0.876953 -0.09257,-0.220863 -0.175391,-0.431981 -0.25659,-0.654467 l -0.03573,-0.0812 0.08282,-0.02436 c 0.198126,-0.04547 0.373517,-0.128295 0.514803,-0.233854 0.151031,-0.116927 0.267958,-0.245222 0.36215,-0.409245 0.09257,-0.175391 0.164022,-0.350781 0.209494,-0.548908 0.05846,-0.186758 0.08282,-0.386509 0.08282,-0.607371 0,-0.09419 -0.01137,-0.188382 -0.02436,-0.28095 -0.01137,-0.09419 -0.02273,-0.19975 -0.04547,-0.303685 -0.01299,-0.09419 -0.0471,-0.199751 -0.09419,-0.30531 -0.03573,-0.103935 -0.09419,-0.209494 -0.152655,-0.315053 -0.05846,-0.105559 -0.139663,-0.198127 -0.233854,-0.28095 -0.09257,-0.09257 -0.209495,-0.164023 -0.33779,-0.233854 -0.129919,-0.06983 -0.280949,-0.128295 -0.444972,-0.164023 -0.164023,-0.0341 -0.350781,-0.05846 -0.5619,-0.05846 h -0.409244 v -0.151031 h 0.409244 c 0.222487,0 0.409245,0.01137 0.597628,0.05846 0.17539,0.0341 0.337789,0.09257 0.490444,0.164023 0.139663,0.0812 0.25659,0.162399 0.362149,0.267958 0.105559,0.09419 0.19975,0.19975 0.269582,0.316677 0.06983,0.116928 0.116927,0.220863 0.164022,0.33779 0.04547,0.105559 0.0812,0.222486 0.103936,0.339413 0.02436,0.105559 0.03573,0.211118 0.04709,0.303686 0.01137,0.116927 0.01137,0.211118 0.01137,0.305309 0,0.233854 -0.02274,0.443349 -0.06983,0.654467 -0.05846,0.198126 -0.128295,0.397877 -0.233855,0.573267 -0.105559,0.186759 -0.245222,0.33779 -0.409244,0.467709 -0.139663,0.09257 -0.292318,0.17539 -0.479076,0.233854 0.0812,0.186758 0.152654,0.373517 0.222486,0.571643 0.116927,0.28095 0.233854,0.5619 0.350781,0.876953 0.128295,0.316678 0.267958,0.690195 0.420613,1.065336 0.05846,0.15103 0.128295,0.315053 0.186758,0.479076 0.05846,0.151031 0.128295,0.25659 0.186759,0.339413 0.06009,0.0812 0.116927,0.116927 0.17539,0.139663 l 0.05846,0.01137 v 0.514804 l -0.0812,-0.01137 c -0.328045,-0.02436 -0.654466,-0.0471 -0.971144,-0.06983 -0.326421,-0.02436 -0.643099,-0.04709 -0.958152,-0.05846 l -0.05846,-0.01299 -0.01137,-0.04547 c -0.164022,-0.422236 -0.222486,-0.561899 -0.292317,-0.748658 -0.141287,-0.375141 -0.292318,-0.748658 -0.397877,-1.040975 z m 4.350661,-5.776522 v 0.152655 h -1.27483 v 0.198126 h 0.0471 c 0.09257,0 0.17539,0.03573 0.233854,0.0812 0.05846,0.05846 0.105559,0.129919 0.128295,0.233854 0.01137,0.08282 0.03573,0.188383 0.03573,0.316678 0.01137,0.128295 0.02274,0.267958 0.02274,0.43198 V 53.5033 c 0,0.164022 -0.01137,0.303685 -0.02274,0.420612 0,0.128295 -0.02436,0.233854 -0.03573,0.315054 -0.02274,0.105559 -0.06983,0.17539 -0.128295,0.222486 -0.06983,0.0471 -0.152655,0.06983 -0.245222,0.05846 l -0.03573,-0.09257 v 0.292318 c 0.420613,0.04547 0.854217,0.09257 1.27483,0.151031 v 0.164022 l -0.01137,-0.01137 c -0.45634,-0.0471 -0.912681,-0.105559 -1.357653,-0.152654 l -0.06983,-0.01137 v -0.431981 l 0.222487,-0.05846 c 0.04709,0 0.09419,-0.01299 0.116927,-0.03573 0.03573,-0.02274 0.05846,-0.05846 0.06983,-0.128295 0.02436,-0.06983 0.03573,-0.164023 0.0471,-0.292318 0,-0.116927 0.01137,-0.258214 0.01137,-0.409244 v -5.238983 c 0,-0.15103 -0.01137,-0.292317 -0.01137,-0.420612 -0.01137,-0.116927 -0.02274,-0.211118 -0.0471,-0.292318 -0.01137,-0.06983 -0.0341,-0.116927 -0.06983,-0.139663 -0.03573,-0.03573 -0.0812,-0.04709 -0.128295,-0.04709 h -0.0471 -0.0812 -0.08282 v -0.526172 h 0.08282 c 0.43198,0 0.863961,0 1.356029,0.01137 m 1.239102,0.373517 z m -1.239102,7.811377 v -0.164022 h 0.01137 c 0.409245,0.0471 0.829857,0.105559 1.263462,0.17539 v -0.222486 h -0.01299 -0.0341 c -0.05846,-0.01137 -0.116927,-0.0341 -0.175391,-0.06983 -0.04709,-0.0341 -0.08282,-0.0812 -0.116927,-0.139663 -0.02436,-0.0471 -0.04709,-0.105559 -0.06983,-0.175391 -0.01299,-0.05846 -0.03573,-0.128295 -0.03573,-0.211118 -0.01137,-0.0812 -0.01137,-0.164023 -0.01137,-0.245222 -0.01137,-0.09419 -0.01137,-0.198127 -0.01137,-0.303686 v -5.367277 c 0,-0.116927 0,-0.211118 0.01137,-0.303685 0,-0.08282 0,-0.164023 0.01137,-0.245222 0.01137,-0.07146 0.02274,-0.141287 0.03573,-0.199751 0.02274,-0.06983 0.04547,-0.128295 0.06983,-0.17539 0.0341,-0.05846 0.0812,-0.09257 0.128295,-0.128295 0.05846,-0.02274 0.116927,-0.03573 0.175391,-0.03573 h 0.02274 0.01299 v -0.292318 l -0.199751,0.07146 h -1.075079 v -0.152655 c 0.420613,0.01137 0.888321,0.03573 1.437228,0.0812 v 0.456341 h -0.0812 -0.09419 -0.02274 c -0.03573,0 -0.06983,0 -0.09419,0.02436 -0.0341,0.01137 -0.05684,0.0341 -0.06983,0.05846 -0.02274,0.0341 -0.0341,0.0812 -0.05846,0.128295 -0.01137,0.05846 -0.02274,0.116927 -0.0341,0.186758 0,0.05846 0,0.139663 -0.01299,0.233854 v 0.292318 5.367277 0.292318 c 0.01299,0.09257 0.01299,0.17539 0.01299,0.245222 0.01137,0.05846 0.02274,0.128295 0.0341,0.17539 0.02436,0.05846 0.03573,0.10556 0.05846,0.152655 0.02436,0.0341 0.0471,0.05846 0.06983,0.0812 0.03573,0.01137 0.07146,0.03573 0.105559,0.03573 0.01137,0 0.02436,0 0.03573,0.01137 h 0.01137 0.06983 l 0.06983,0.01137 v 0.548908 l -0.09257,-0.02274 c -0.444972,-0.05846 -0.888321,-0.128295 -1.344661,-0.175391 m 4.022616,-8.173526 v 0.164022 h -0.03573 c -0.678827,-0.01137 -1.356029,-0.01137 -2.034856,-0.01137 v 0.222486 h 0.0471 c 0.09419,0 0.164023,0.0341 0.222486,0.09257 0.05846,0.05846 0.09257,0.128295 0.128295,0.233854 0.02436,0.09419 0.03573,0.211118 0.0471,0.339413 0.01137,0.128295 0.02273,0.28095 0.02273,0.456341 v 5.518308 c 0,0.186758 -0.01137,0.350781 -0.02273,0.492068 -0.01137,0.139663 -0.03573,0.245222 -0.06983,0.326421 -0.03573,0.08282 -0.08282,0.152655 -0.141287,0.186759 -0.05846,0.04709 -0.128295,0.05846 -0.209494,0.04709 h -0.02436 v 0.222486 c 0.444973,0.06983 0.888321,0.164023 1.333294,0.245222 0.245222,0.0471 0.490444,0.09419 0.73729,0.141287 v 0.162399 c -0.246846,-0.04547 -0.503436,-0.09257 -0.760026,-0.151031 -0.467709,-0.08282 -0.935417,-0.17539 -1.403125,-0.258214 l -0.07146,-0.01137 V 54.74242 l 0.09419,0.01137 c 0.01137,0 0.03573,0.01137 0.05846,0.01137 0.02274,0 0.03573,0 0.05846,0.01299 0.03573,0 0.06983,0 0.105559,-0.02436 h -0.01137 c 0.0341,-0.02274 0.06983,-0.05846 0.0812,-0.116928 0.02274,-0.06983 0.0471,-0.164022 0.05846,-0.292317 0.01137,-0.116927 0.02274,-0.28095 0.02274,-0.467708 v -5.518308 c 0,-0.164023 -0.01137,-0.316678 -0.02274,-0.444973 -0.01137,-0.116927 -0.02274,-0.222486 -0.0471,-0.315053 -0.01137,-0.06983 -0.04709,-0.128295 -0.0812,-0.152655 -0.02436,-0.0341 -0.05846,-0.0471 -0.105559,-0.0471 h -0.0471 -0.01137 -0.06983 l -0.08282,-0.01137 v -0.53754 h 0.08282 c 0.701562,0 1.414493,0.01137 2.116055,0.01137 z m 2.664962,0.444972 z m -2.664962,8.394389 v -0.162399 c 0.186758,0.04547 0.384885,0.0812 0.571643,0.116927 V 55.42123 c -0.01137,-0.01299 -0.0341,-0.01299 -0.04547,-0.01299 -0.02436,-0.01137 -0.03573,-0.01137 -0.04709,-0.01137 -0.0471,-0.01137 -0.105559,-0.02274 -0.141287,-0.04709 -0.04547,-0.02274 -0.0812,-0.04547 -0.116927,-0.06983 -0.0341,-0.0341 -0.06983,-0.09257 -0.09257,-0.15103 -0.02436,-0.05846 -0.0471,-0.129919 -0.05846,-0.211119 -0.02436,-0.09419 -0.03573,-0.198126 -0.0471,-0.328045 -0.01137,-0.116927 -0.01137,-0.25659 -0.01137,-0.420613 v -2.677954 l 0.09257,0.01299 c 0.17539,0.02273 0.328045,0.06983 0.444972,0.162398 0.128295,0.09419 0.222486,0.211119 0.303686,0.375141 0.05846,0.151031 0.116927,0.339414 0.141287,0.560276 0.0341,0.188382 0.04547,0.409244 0.05846,0.656091 h 0.01137 c 0.02274,0 0.05846,0.01137 0.0812,0.01137 v -3.800129 h -0.10556 c 0,0.209494 -0.02273,0.409245 -0.05846,0.573267 -0.0341,0.198127 -0.09257,0.362149 -0.162399,0.479076 -0.07146,0.139663 -0.164023,0.233855 -0.292318,0.292318 -0.129919,0.05846 -0.269581,0.0812 -0.444972,0.06983 l -0.06983,-0.01137 v -3.215495 h 0.0812 0.116927 0.164023 c 0.490444,0.02274 0.865585,0.175391 1.133543,0.479077 0.246846,0.280949 0.397876,0.690194 0.444972,1.227734 h 0.06983 0.0471 c 0,-0.175391 -0.01137,-0.350781 -0.01137,-0.526172 -0.01137,-0.211118 -0.01137,-0.420613 -0.02436,-0.631731 0,-0.209494 -0.01137,-0.420613 -0.01137,-0.631731 -0.01137,-0.175391 -0.01137,-0.362149 -0.01137,-0.53754 -0.678827,-0.01137 -1.344662,-0.01137 -2.010496,-0.01137 v -0.164022 c 0.701562,0 1.390133,0.01137 2.080327,0.01137 h 0.08282 v 0.08282 c 0.01137,0.198126 0.01137,0.409245 0.02274,0.618739 0,0.211118 0.01137,0.422237 0.01137,0.631731 0.01137,0.19975 0.01137,0.409245 0.02436,0.620363 0,0.209494 0.01137,0.420613 0.02274,0.631731 v 0.0812 h -0.09419 c -0.04547,-0.01137 -0.09257,-0.01137 -0.139662,-0.01137 -0.0471,0 -0.09419,-0.01137 -0.139663,-0.01137 h -0.07146 v -0.07146 c -0.0341,-0.53754 -0.173766,-0.935416 -0.409244,-1.203374 -0.245222,-0.269582 -0.584636,-0.409245 -1.027984,-0.420613 h -0.152655 -0.0341 v 2.898817 c 0.103935,0.01137 0.198127,-0.01137 0.28095,-0.0471 0.09257,-0.04547 0.173767,-0.116927 0.220862,-0.220862 0.06983,-0.116927 0.116927,-0.258214 0.152655,-0.433605 0.0341,-0.186758 0.0471,-0.397876 0.05846,-0.643098 v -0.0812 l 0.0812,0.01137 c 0.09419,0 0.164023,0.01137 0.339413,0.09419 v 4.068088 l -0.09419,-0.02274 c -0.06983,-0.01137 -0.128295,-0.02436 -0.186759,-0.03573 -0.02273,0 -0.04709,-0.01137 -0.06983,-0.01137 l -0.06983,-0.01137 v -0.06983 c 0,-0.258214 -0.01137,-0.492068 -0.0471,-0.690194 -0.03573,-0.199751 -0.0812,-0.375141 -0.139663,-0.514804 -0.05846,-0.139663 -0.141287,-0.245222 -0.245222,-0.315054 -0.08282,-0.05846 -0.177015,-0.09419 -0.28095,-0.116927 v 2.489572 c 0,0.152655 0,0.292318 0.01137,0.420613 0.01137,0.116927 0.02274,0.211118 0.0341,0.292318 0.01299,0.07146 0.03573,0.141286 0.05846,0.188382 0.01299,0.0341 0.03573,0.06983 0.05846,0.09257 0.01299,0.01137 0.03573,0.03573 0.07146,0.0471 0.02274,0.01137 0.05846,0.02274 0.103936,0.03573 h 0.03573 c 0.0471,0.01137 0.09419,0.02273 0.128295,0.02273 l 0.05846,0.01137 v 0.573268 l -0.09257,-0.02274 c -0.211119,-0.03573 -0.422237,-0.08282 -0.643099,-0.129919 m 4.722554,-8.803634 v 0.164023 h -0.0341 c -0.678826,-0.01299 -1.356029,-0.01299 -2.034856,-0.02436 v 0.269582 h 0.01137 0.03573 c 0.09257,0 0.164023,0.0341 0.233854,0.105559 0.0471,0.06983 0.09257,0.151031 0.116927,0.267958 0.02274,0.105559 0.03573,0.233854 0.0471,0.375141 0.01137,0.151031 0.02274,0.315054 0.02274,0.501812 v 6.221494 c 0,0.209495 -0.01137,0.396253 -0.02274,0.548908 -0.01137,0.152655 -0.03573,0.269582 -0.07146,0.362149 -0.0341,0.09419 -0.0812,0.152655 -0.139662,0.19975 -0.05846,0.0341 -0.139663,0.04547 -0.222487,0.02274 h -0.01137 v 0.269582 c 0.456341,0.128295 0.912681,0.267958 1.344662,0.396253 0.245222,0.07146 0.490444,0.152655 0.724298,0.222486 v 0.175391 c -0.25659,-0.0812 -0.51318,-0.164023 -0.771394,-0.245222 -0.479076,-0.139663 -0.946784,-0.28095 -1.403125,-0.409245 l -0.05846,-0.02274 v -0.584635 l 0.105559,0.02274 c 0.01137,0 0.03573,0.01137 0.0471,0.01137 0.01137,0 0.02273,0 0.05846,0.01137 0.0471,0.01299 0.06983,0.01299 0.105559,-0.01137 0.02274,-0.01137 0.04547,-0.05846 0.06983,-0.116927 0.0341,-0.06983 0.04709,-0.175391 0.05846,-0.315054 0.01137,-0.152655 0.02274,-0.328045 0.02274,-0.53754 v -6.221494 c 0,-0.17539 0,-0.339413 -0.01137,-0.490444 -0.01137,-0.141287 -0.03573,-0.258214 -0.0471,-0.350781 -0.02273,-0.09419 -0.05846,-0.152655 -0.09257,-0.199751 -0.02436,-0.0341 -0.05846,-0.04547 -0.105559,-0.04547 h -0.03573 -0.09257 -0.08282 v -0.597627 h 0.08282 c 0.71293,0.01299 1.414493,0.01299 2.116055,0.02436 z m 0,10.078464 v -0.175391 c 0.19975,0.06983 0.386509,0.128295 0.584635,0.186759 v -0.292318 c -0.02274,-0.01137 -0.04547,-0.01137 -0.05846,-0.02274 -0.01137,0 0.02436,0.01137 -0.04547,-0.01137 -0.05846,-0.02436 -0.105559,-0.04709 -0.152655,-0.06983 -0.04709,-0.02436 -0.0812,-0.05846 -0.116927,-0.105559 -0.02274,-0.03573 -0.05846,-0.09419 -0.0812,-0.164023 -0.02436,-0.06983 -0.0471,-0.152655 -0.05846,-0.245222 -0.02436,-0.105559 -0.03573,-0.222486 -0.04709,-0.362149 0,-0.141287 -0.01137,-0.30531 -0.01137,-0.492068 v -3.051472 l 0.09257,0.02274 c 0.175391,0.03573 0.328045,0.105559 0.45634,0.222486 0.128295,0.105559 0.222487,0.245222 0.292318,0.433605 0.06983,0.17539 0.116927,0.384885 0.152655,0.630107 0.02274,0.233854 0.04547,0.492068 0.04547,0.773018 0.02436,0.01137 0.0471,0.01137 0.07146,0.02274 h 0.02274 V 49.87855 c -0.03573,0 -0.06983,0 -0.09419,-0.01137 -0.01137,0.25659 -0.0341,0.479076 -0.06983,0.677202 -0.0341,0.222486 -0.0812,0.397877 -0.151031,0.53754 -0.07146,0.152655 -0.17539,0.258214 -0.305309,0.328045 -0.116927,0.05846 -0.267958,0.06983 -0.443349,0.0471 l -0.06983,-0.01137 v -3.649099 h 0.0812 c 0.06983,0.01137 0.128295,0.01137 0.186759,0.01137 h 0.09419 c 0.490444,0.02436 0.876953,0.211118 1.133543,0.5619 0.258214,0.328045 0.409245,0.795753 0.444972,1.414492 0.01137,0 0.02274,0.01137 0.0341,0.01137 h 0.09419 c -0.01137,-0.198126 -0.01137,-0.409244 -0.02274,-0.630107 0,-0.233854 -0.01299,-0.4807 -0.01299,-0.725922 -0.01137,-0.245222 -0.01137,-0.490444 -0.02273,-0.735666 0,-0.211118 -0.01137,-0.422237 -0.01137,-0.631731 -0.667459,0 -1.333294,-0.01137 -2.01212,-0.01137 v -0.164023 c 0.701562,0 1.391757,0.01137 2.093319,0.01137 h 0.06983 v 0.0812 c 0.01299,0.233854 0.01299,0.4807 0.02436,0.714554 0,0.245222 0.01137,0.490444 0.01137,0.735666 0.01137,0.233854 0.01137,0.479076 0.02274,0.725922 0.01299,0.233854 0.01299,0.479076 0.02436,0.724298 v 0.0812 h -0.09419 c -0.06983,-0.01137 -0.128295,-0.01137 -0.175391,-0.02274 -0.0471,0 -0.0812,0 -0.105559,-0.01137 h -0.06983 v -0.06983 c -0.0341,-0.620363 -0.17539,-1.088072 -0.420612,-1.403125 -0.233854,-0.30531 -0.573268,-0.467708 -1.005248,-0.492068 h -0.105559 c -0.02274,0 -0.05846,0 -0.09419,-0.01137 v 3.343789 c 0.10556,0.01137 0.199751,0 0.28095,-0.04709 0.09419,-0.04547 0.175391,-0.128295 0.233854,-0.245222 0.05846,-0.128295 0.105559,-0.292318 0.141287,-0.490445 0.0341,-0.211118 0.05846,-0.45634 0.05846,-0.73729 v -0.09257 l 0.09257,0.01137 c 0.06983,0.01137 0.128295,0.01137 0.186759,0.02274 h 0.07146 l 0.06983,0.01137 v 4.748538 l -0.105559,-0.02436 c -0.05846,-0.02274 -0.09419,-0.02274 -0.128295,-0.0341 -0.05846,-0.01299 -0.09419,-0.02436 -0.128295,-0.03573 l -0.05846,-0.01137 v -0.05846 c 0,-0.316677 -0.01299,-0.584635 -0.0471,-0.818489 -0.02436,-0.233855 -0.06983,-0.433605 -0.141287,-0.596004 -0.05846,-0.164022 -0.139663,-0.280949 -0.245222,-0.375141 -0.0812,-0.06983 -0.17539,-0.128295 -0.28095,-0.15103 v 2.840353 c 0,0.17539 0,0.339413 0.01299,0.479076 0.01137,0.141287 0.02274,0.258214 0.0341,0.339413 0.02436,0.09419 0.03573,0.164023 0.05846,0.233854 0.02436,0.0471 0.03573,0.09419 0.05846,0.116927 0.02436,0.02436 0.0471,0.0471 0.08282,0.05846 0.02274,0.02436 0.05846,0.0471 0.103936,0.05846 0.03573,0.01137 0,0 0.04709,0.01137 0.03573,0.01299 0.06983,0.02436 0.116927,0.03573 l 0.0471,0.02274 v 0.631731 l -0.105559,-0.0341 c -0.209495,-0.07146 -0.420613,-0.129919 -0.631731,-0.19975" />
    <path
       inkscape:connector-curvature="0"
       id="path7518"
       style="fill:#302c2a;fill-opacity:1;fill-rule:evenodd;stroke:none;stroke-width:1.62398696"
       d="m -89.262673,41.739967 h -0.01137 c -0.28095,0.28095 -0.433604,0.596003 -0.444972,0.935417 -0.01137,0.17539 0.01137,0.328045 0.05846,0.490444 0.05846,0.152654 0.141287,0.292317 0.258214,0.409244 0.04547,0.03573 0.09257,0.08282 0.139663,0.116927 z m -0.152655,2.817617 c 0.05846,0.0471 0.105559,0.06983 0.152655,0.09419 v 0.829857 l -0.0471,0.05846 c -0.04709,0.06983 -0.0812,0.116927 -0.128295,0.139662 -0.03573,0.03573 -0.0812,0.02436 -0.139662,-0.01137 -0.0471,-0.02274 -0.05846,-0.0812 -0.0471,-0.175391 0,-0.05846 0,-0.105559 -0.02436,-0.128295 -0.02274,-0.03573 -0.0812,-0.09419 -0.198126,-0.164023 l -1.052344,-0.71293 -0.03573,0.0471 c -0.05846,0.0812 -0.103935,0.139663 -0.139662,0.164022 -0.03573,0.02274 -0.09419,0.01137 -0.164023,-0.03573 -0.0341,-0.03573 -0.06983,-0.06983 -0.0812,-0.10556 -0.01137,-0.04709 0.01137,-0.116927 0.06983,-0.198126 l 0.05846,-0.08282 c -0.164022,-0.103935 -0.292317,-0.198127 -0.386508,-0.279326 -0.103936,-0.08282 -0.186759,-0.175391 -0.25659,-0.28095 -0.0812,-0.152655 -0.116927,-0.292317 -0.10556,-0.45634 0.01137,-0.152655 0.05846,-0.303686 0.164023,-0.444973 0.06983,-0.103935 0.152655,-0.186758 0.25659,-0.245222 0.105559,-0.05846 0.19975,-0.04709 0.28095,0.01137 0.06983,0.03573 0.105559,0.09419 0.128295,0.164023 0.01299,0.06983 0,0.141287 -0.04547,0.19975 -0.02436,0.0341 -0.04709,0.05846 -0.08282,0.0812 -0.0341,0.02274 -0.06983,0.03573 -0.116927,0.05846 -0.0471,0.01137 -0.06983,0.02274 -0.06983,0.02274 -0.03573,0.0471 0.02274,0.116927 0.175391,0.211118 l 0.479076,0.328046 0.08282,-0.116927 0.04547,-0.08282 c 0.0471,-0.05846 0.09419,-0.105559 0.129919,-0.128295 0.04547,-0.02274 0.09257,-0.01137 0.162399,0.02274 0.05846,0.0471 0.09419,0.09419 0.08282,0.152655 -0.01137,0.0471 -0.0471,0.128295 -0.116927,0.233854 l -0.08282,0.116927 z m 0.409245,-3.028735 v 0.433604 c -0.01137,0.01137 -0.0341,0.02274 -0.04547,0.0471 -0.141287,0.139663 -0.17539,0.292318 -0.116927,0.467708 0.0341,0.116927 0.09257,0.220862 0.162399,0.315054 v 1.040975 c -0.09257,-0.03573 -0.175391,-0.08282 -0.25659,-0.141287 v -1.952032 c 0.0812,-0.0812 0.164023,-0.152655 0.25659,-0.211118 m -0.25659,3.122927 c 0.03573,0.02274 0.05846,0.0341 0.0812,0.0341 0.02436,0 0.07146,-0.01137 0.129919,-0.0341 0.01137,-0.01137 0.0341,-0.02436 0.04547,-0.02436 v 0.45634 l -0.25659,0.397877 z m 1.520052,-1.578516 v 0.501812 c -0.222486,0.188383 -0.467708,0.30531 -0.73729,0.328046 -0.175391,0.01137 -0.33779,0 -0.501812,-0.05846 0,-0.01137 -0.01137,-0.01137 -0.02436,-0.01137 v -1.040975 c 0.0471,0.06983 0.105559,0.128295 0.164023,0.186758 0.164022,0.164023 0.339413,0.28095 0.514804,0.350781 0.17539,0.06983 0.339413,0.03573 0.479076,-0.105559 0.04709,-0.04547 0.08282,-0.09257 0.105559,-0.151031 m 0,-1.602875 v 1.252094 c -0.05846,-0.152655 -0.175391,-0.328045 -0.373517,-0.514804 -0.141287,-0.152655 -0.30531,-0.25659 -0.4807,-0.315053 -0.151031,-0.0471 -0.279326,-0.02436 -0.409245,0.06983 v -0.433604 c 0.0471,-0.02274 0.09419,-0.04547 0.141287,-0.06983 0.151031,-0.06983 0.303685,-0.116927 0.467708,-0.128295 0.164023,-0.01137 0.315054,0.01137 0.467708,0.05846 0.06983,0.02274 0.128295,0.05846 0.186759,0.0812 m 0,-1.016616 v 0.186759 c -0.03573,-0.0471 -0.0471,-0.09257 -0.02274,-0.128295 0,-0.01137 0.01137,-0.03573 0.02274,-0.05846 m -1.263462,4.173647 c 0.05846,-0.02274 0.09419,-0.02274 0.129919,0 0.05846,0.0471 0.0812,0.08282 0.06983,0.129919 -0.01137,0.04547 -0.03573,0.103935 -0.08282,0.17539 l -0.116927,0.151031 z m 1.520052,-2.934545 v 1.602876 c -0.0341,0.05846 -0.0812,0.116927 -0.128295,0.162398 -0.0471,0.0471 -0.0812,0.08282 -0.128295,0.116927 v -0.50182 c 0.04709,-0.105559 0.04709,-0.222486 0,-0.350781 v -1.252094 c 0.0812,0.0471 0.152655,0.116927 0.222486,0.188383 z m 0,-2.41974 v 1.403125 c -0.0341,0.02273 -0.0812,0.04709 -0.116927,0.04709 -0.04547,0.01137 -0.09257,-0.01299 -0.139663,-0.08282 v -0.186759 c 0.01137,-0.01137 0.03573,-0.03573 0.05846,-0.05846 0.06983,-0.05846 0.10556,-0.105559 0.139663,-0.152655 0.02436,-0.0341 0.0471,-0.09257 0.0471,-0.151031 -0.01137,-0.105559 -0.0471,-0.245222 -0.139663,-0.433604 -0.03573,-0.0812 -0.0471,-0.151031 -0.03573,-0.198127 0.01137,-0.03573 0.0471,-0.09419 0.128295,-0.139663 0.02436,-0.01299 0.0471,-0.03573 0.05846,-0.04709 m 0,4.022616 c 0.105559,-0.116928 0.17539,-0.258214 0.222486,-0.409245 0.08282,-0.211118 0.105559,-0.433605 0.05846,-0.656091 -0.0341,-0.198126 -0.128295,-0.384885 -0.28095,-0.53754 z m 1.636979,-1.976393 v 0.560276 l -0.0812,0.05846 c -0.09419,0.05846 -0.164022,0.09419 -0.222486,0.10556 -0.0471,0.02436 -0.105559,0.01137 -0.151031,-0.01137 -0.04709,-0.03573 -0.105559,-0.09419 -0.164022,-0.175391 l -0.854218,-1.27483 -0.0812,0.0471 c -0.02436,0.02274 -0.05846,0.03573 -0.08282,0.0471 v -1.403125 c 0.05846,-0.02436 0.09419,-0.03573 0.129919,-0.03573 0.0341,0.01137 0.06983,0.05846 0.128295,0.141287 l 0.315053,0.467708 0.233854,-0.152655 c 0.08282,-0.05846 0.141287,-0.0812 0.199751,-0.09419 0.05846,-0.01137 0.103935,0.01299 0.151031,0.08282 0.06983,0.10556 0.02436,0.209495 -0.128295,0.315054 l -0.233855,0.152655 0.678827,0.99388 c 0.05846,0.09257 0.116927,0.151031 0.162399,0.17539 m 0,-3.649098 v 1.369021 l -0.116927,-0.258214 c -0.06983,-0.151031 -0.116927,-0.25659 -0.162399,-0.315054 -0.02436,-0.03573 -0.0471,-0.05846 -0.07146,-0.06983 -0.02273,-0.01137 -0.06983,-0.02436 -0.116927,-0.02436 -0.05846,-0.01137 -0.09257,-0.01137 -0.116927,-0.02274 -0.01137,0 -0.0341,-0.02274 -0.04547,-0.05846 -0.02436,-0.0471 -0.01299,-0.0812 0.02274,-0.128295 0.03573,-0.03573 0.09419,-0.08282 0.164022,-0.152655 0.209495,-0.175391 0.350781,-0.292318 0.443349,-0.339413 m 0,4.209374 v -0.560276 c 0,0.01137 0.01299,0.01137 0.02436,0.01137 0.0471,0.02274 0.128295,0 0.222487,-0.05846 0.09257,-0.05846 0.162398,-0.105559 0.220862,-0.105559 0.0471,-0.01137 0.105559,0.01137 0.141287,0.08282 0.06983,0.09257 0.01137,0.198126 -0.164023,0.326421 z m 1.602875,-3.49482 v 0.51318 c -0.105559,-0.05846 -0.222486,-0.06983 -0.328046,-0.02274 -0.139662,0.06983 -0.222486,0.175391 -0.256589,0.328045 -0.01137,0.103935 0.01137,0.233854 0.09257,0.396253 l 0.141287,0.339413 c 0.09257,0.186759 0.186758,0.339414 0.292317,0.444973 0.01137,0.02274 0.0341,0.0341 0.05846,0.04709 v 0.467709 c -0.02436,0.01137 -0.03573,0.01137 -0.0471,0.01137 -0.139663,0.02273 -0.28095,0.02273 -0.397877,0 -0.105559,-0.02436 -0.186758,-0.05846 -0.25659,-0.116927 -0.08282,-0.05846 -0.141286,-0.128295 -0.186758,-0.199751 -0.05846,-0.0812 -0.105559,-0.17539 -0.152655,-0.292317 l -0.561899,-1.261838 v -1.369021 l 0.01299,-0.01137 c 0.116927,-0.0471 0.220862,0.03573 0.326421,0.258214 l 0.03573,0.09257 0.43198,0.959776 c 0.116927,-0.233854 0.292318,-0.397877 0.503436,-0.503436 0.105559,-0.03573 0.198127,-0.06983 0.292318,-0.0812 m 0,2.513932 v -0.467709 c 0.09257,0.06983 0.198126,0.06983 0.326421,0.01137 0.164023,-0.06983 0.246846,-0.19975 0.246846,-0.386509 0,-0.186758 -0.03573,-0.373517 -0.129919,-0.560275 -0.0812,-0.188383 -0.186758,-0.363773 -0.337789,-0.503436 -0.03573,-0.03573 -0.07146,-0.06983 -0.105559,-0.09419 v -0.51318 c 0.04709,-0.01299 0.105559,-0.02436 0.151031,-0.02436 0.152654,0 0.280949,0.02436 0.409244,0.08282 0.129919,0.04547 0.246846,0.128295 0.339414,0.233855 0.105559,0.103935 0.186758,0.233854 0.258214,0.384884 0.103935,0.245222 0.139662,0.467709 0.09257,0.701563 -0.0341,0.222486 -0.139663,0.420612 -0.292318,0.596003 -0.164023,0.175391 -0.350781,0.316678 -0.596003,0.422237 -0.116927,0.05846 -0.233854,0.09257 -0.362149,0.116927 m 2.923176,-2.572396 v 0.326422 c -0.09419,0.03573 -0.164022,0.09419 -0.233854,0.152654 -0.105559,0.116928 -0.152654,0.25659 -0.116927,0.431981 0.01137,0.09419 0.05846,0.175391 0.116927,0.222486 0.06983,0.05846 0.139663,0.0812 0.233854,0.06983 v 0.375141 c -0.05846,0.02274 -0.105559,0.0341 -0.17539,0.04547 -0.152655,0.02436 -0.292318,0.02436 -0.433605,-0.01137 -0.128295,-0.0341 -0.245222,-0.09257 -0.337789,-0.186758 -0.105559,-0.105559 -0.164023,-0.222486 -0.188382,-0.373517 -0.0341,-0.164023 -0.01137,-0.30531 0.05846,-0.422237 0.07146,-0.128295 0.164023,-0.233854 0.292318,-0.315053 0.129919,-0.0812 0.269582,-0.152655 0.409244,-0.211119 0.129919,-0.04547 0.258214,-0.0812 0.375141,-0.103935 m 0,-0.807121 v 0.397877 c -0.08282,-0.0471 -0.17539,-0.07146 -0.292317,-0.0471 -0.06983,0.01137 -0.116927,0.0341 -0.152655,0.06983 -0.0341,0.02274 -0.0812,0.06983 -0.128295,0.139663 -0.0471,0.05846 -0.09419,0.105559 -0.128295,0.141287 -0.0471,0.02274 -0.09419,0.0471 -0.152655,0.05846 -0.0812,0.01137 -0.151031,0.01137 -0.222486,-0.02436 -0.05846,-0.02274 -0.09257,-0.06983 -0.103935,-0.151031 -0.02436,-0.09419 0.02274,-0.186758 0.128295,-0.258214 0.105559,-0.0812 0.233854,-0.139663 0.384885,-0.198126 0.141287,-0.0471 0.269582,-0.0812 0.375141,-0.09419 0.105559,-0.02274 0.198126,-0.0341 0.292317,-0.0341 m 1.859466,-0.53754 c -0.01299,-0.175391 -0.01299,-0.292318 -0.02436,-0.363773 -0.01137,-0.04547 -0.02274,-0.06983 -0.0471,-0.09257 -0.01137,-0.02436 -0.04547,-0.0471 -0.09257,-0.06983 -0.0471,-0.02436 -0.08282,-0.0471 -0.09419,-0.05846 -0.02274,-0.01299 -0.02274,-0.03573 -0.02274,-0.07146 0,-0.0341 0,-0.05846 0.02274,-0.0812 0.02436,-0.01137 0.04709,-0.03573 0.08282,-0.0471 0.02274,-0.01137 0.05846,-0.02274 0.09257,-0.0341 0.03573,-0.01299 0.05846,-0.01299 0.08282,-0.02436 0.25659,-0.09257 0.443348,-0.139663 0.548907,-0.139663 0.128295,-0.01137 0.186759,0.105559 0.199751,0.350781 v 0.105559 l 0.04547,2.466837 c 0,0.128295 0.01137,0.209494 0.02436,0.25659 0.01137,0.02436 0.04547,0.05846 0.103935,0.08282 0.07146,0.0341 0.116927,0.0812 0.116927,0.139663 0,0.06983 -0.02274,0.105559 -0.06983,0.128295 -0.0471,0.01137 -0.105559,0.02436 -0.186759,0.02436 l -0.724298,0.01137 c -0.08282,0 -0.141287,0 -0.188382,-0.02436 -0.04547,-0.01137 -0.06983,-0.05846 -0.06983,-0.116927 0,-0.05846 0.03573,-0.103936 0.105559,-0.151031 0.05846,-0.02436 0.09419,-0.0471 0.105559,-0.08282 0.01137,-0.0341 0.02274,-0.128295 0.02274,-0.25659 z m -1.859466,2.923177 v -0.375141 c 0.139663,-0.0341 0.245222,-0.128295 0.315054,-0.292318 0.03573,-0.0812 0.0471,-0.164023 0.0471,-0.233854 0,-0.06983 -0.01137,-0.164023 -0.03573,-0.28095 l -0.02274,-0.151031 -0.09419,0.02274 c -0.06983,0.01137 -0.139663,0.03573 -0.209495,0.05846 v -0.326422 c 0.02274,0 0.0471,-0.01299 0.06983,-0.01299 l 0.152655,-0.02273 c -0.02436,-0.152655 -0.08282,-0.269582 -0.164023,-0.339414 -0.02436,-0.01137 -0.03573,-0.0341 -0.05846,-0.0341 v -0.397877 c 0.198127,-0.01137 0.36215,0.01137 0.514804,0.06983 0.151031,0.05846 0.267958,0.128295 0.350782,0.245222 0.06983,0.105559 0.128294,0.245222 0.15103,0.420613 l 0.128295,0.725922 c 0.02436,0.139663 0.0471,0.222486 0.07146,0.25659 0.02274,0.03573 0.06983,0.05846 0.116927,0.06983 0.09257,0.02436 0.139663,0.07146 0.139663,0.129919 0.01137,0.05846 0,0.103936 -0.03573,0.128295 -0.04547,0.02274 -0.103935,0.0471 -0.186759,0.05846 l -0.45634,0.0812 c -0.0812,0.01137 -0.139663,0.01137 -0.175391,0 -0.0341,-0.01137 -0.06983,-0.0341 -0.0812,-0.06983 -0.01137,-0.03573 -0.03573,-0.09419 -0.04709,-0.175391 -0.09257,0.222486 -0.25659,0.362149 -0.490445,0.444973 m 8.816626,0.888321 v 0.362149 l -0.05846,-0.03573 c -0.07146,-0.0341 -0.116927,-0.0812 -0.152654,-0.116927 -0.03573,-0.0341 -0.03573,-0.0812 0,-0.139663 0.02274,-0.0471 0.0812,-0.06983 0.17539,-0.06983 z m 0,-2.140415 v 0.678826 c -0.0471,0.01137 -0.09419,0 -0.141287,-0.01137 -0.06983,-0.03573 -0.116927,-0.07146 -0.151031,-0.116927 -0.02436,-0.04709 -0.05846,-0.116927 -0.08282,-0.19975 -0.02274,-0.09257 -0.05846,-0.164023 -0.0812,-0.209494 -0.03573,-0.05846 -0.08282,-0.09419 -0.164023,-0.116927 -0.105559,-0.0471 -0.211118,-0.03573 -0.315054,0.02273 -0.105559,0.05846 -0.188382,0.152655 -0.269581,0.25659 -0.06983,0.116927 -0.139663,0.233854 -0.175391,0.339414 -0.06983,0.19975 -0.09419,0.386508 -0.05846,0.561899 0.0471,0.186759 0.152655,0.315054 0.339414,0.384885 h 0.02273 c 0.08282,0.03573 0.175391,0.0471 0.28095,0.0471 0.105559,-0.01137 0.211119,-0.0341 0.303686,-0.0812 0.105559,-0.03573 0.17539,-0.05846 0.222486,-0.03573 0.03573,0.01137 0.06983,0.03573 0.0812,0.06983 0.01299,0.03573 0.01299,0.08282 0,0.116927 -0.04547,0.105559 -0.17539,0.188383 -0.384885,0.246846 -0.292317,0.05846 -0.561899,0.04547 -0.807121,-0.0471 -0.152655,-0.05846 -0.292318,-0.141286 -0.420613,-0.245222 -0.128295,-0.105559 -0.222486,-0.233854 -0.303685,-0.363773 -0.07146,-0.139663 -0.105559,-0.279325 -0.116927,-0.443348 -0.01299,-0.164023 0.01137,-0.328045 0.06983,-0.492068 0.09257,-0.220862 0.222486,-0.396253 0.384885,-0.526172 0.175391,-0.139663 0.375141,-0.209494 0.597627,-0.233854 0.220862,-0.02274 0.431981,0 0.654467,0.08282 0.116927,0.0471 0.233854,0.116927 0.362149,0.198127 0.05846,0.03573 0.105559,0.08282 0.152655,0.116927 m 0,0.678826 c 0.02274,0 0.04547,0 0.06983,-0.01137 0.05846,-0.02436 0.105559,-0.07146 0.139663,-0.141286 0.03573,-0.116928 0.02436,-0.222487 -0.05846,-0.339414 -0.0341,-0.06983 -0.09257,-0.128295 -0.151031,-0.186758 z m 1.78801,1.612619 -0.198127,0.233854 c -0.06983,0.09419 -0.128295,0.175391 -0.186758,0.258214 -0.0471,0.09257 -0.07146,0.151031 -0.07146,0.198127 -0.0341,0.28095 0.05846,0.514804 0.292318,0.71293 0.05846,0.03573 0.105559,0.08282 0.164023,0.105559 z m 0,-2.793257 v 1.203374 l -0.876953,1.578515 c -0.05846,0.116928 -0.09257,0.186759 -0.10556,0.233855 0,0.03573 0.01299,0.06983 0.0471,0.128295 0.0471,0.07146 0.05846,0.129919 0.03573,0.17539 -0.03573,0.05846 -0.06983,0.08282 -0.116927,0.08282 -0.0471,-0.01137 -0.105559,-0.03573 -0.175391,-0.06983 l -0.596003,-0.328045 V 40.79317 c 0.04547,0 0.06983,-0.01137 0.09257,-0.02436 0.03573,-0.02274 0.08282,-0.09257 0.141287,-0.209495 l 0.958152,-1.719802 c 0.0812,-0.151031 0.128295,-0.25659 0.164023,-0.315053 0.01137,-0.0471 0.01137,-0.0812 0.01137,-0.116927 -0.01137,-0.02274 -0.02274,-0.05846 -0.05846,-0.105559 -0.02274,-0.0471 -0.03573,-0.0812 -0.04709,-0.09257 -0.01137,-0.02436 0,-0.04709 0.01137,-0.08282 0.01299,-0.02274 0.03573,-0.0341 0.05846,-0.0471 0.03573,-0.01137 0.05846,-0.01137 0.09419,-0.01137 0.03573,0 0.06983,0.01137 0.10556,0.02436 0.0341,0.01137 0.05846,0.01137 0.0812,0.02274 0.05846,0.01137 0.116927,0.02274 0.175391,0.03573 m 0,1.203374 v -1.203374 c 0.186758,0.0341 0.316677,0.0812 0.386508,0.116927 0.10556,0.05846 0.10556,0.198126 -0.01137,0.409245 l -0.0471,0.0812 z m 2.129047,3.917057 c -0.0471,0.03573 -0.08282,0.06983 -0.116928,0.105559 -0.07146,0.05846 -0.116927,0.139663 -0.164022,0.222486 -0.03573,0.0812 -0.05846,0.175391 -0.05846,0.28095 0,0.116927 0.0341,0.245222 0.0812,0.384885 0.05846,0.141287 0.128295,0.258214 0.211118,0.375141 0.01137,0.02274 0.0341,0.04547 0.0471,0.05846 z m 0,-2.046224 v 0.748658 l -0.667459,0.795754 c -0.0812,0.103935 -0.139663,0.17539 -0.151031,0.220862 -0.01299,0.03573 0,0.08282 0.02274,0.129919 0.03573,0.0812 0.03573,0.139663 0,0.186758 -0.0471,0.05846 -0.09419,0.06983 -0.128295,0.05846 -0.0471,-0.02436 -0.105559,-0.05846 -0.164023,-0.105559 l -0.315053,-0.25659 c -0.05846,-0.05846 -0.09419,-0.09419 -0.116927,-0.129919 -0.01299,-0.04547 -0.02436,-0.0812 -0.01299,-0.116927 0.01299,-0.0341 0.04709,-0.09257 0.08282,-0.162399 -0.258214,0.02274 -0.479076,-0.02436 -0.678826,-0.141287 v -1.508684 l 0.303685,-0.362149 0.07146,-0.0812 c 0.0341,-0.03573 0.05846,-0.08282 0.06983,-0.105559 0,-0.03573 0,-0.06983 -0.01137,-0.128295 -0.01299,-0.06983 -0.01299,-0.116927 0.02274,-0.141287 0.02274,-0.0341 0.06983,-0.05846 0.116927,-0.04547 0.0812,0.01137 0.222486,0.0812 0.444972,0.198127 0.01137,0 0.0341,0 0.05846,0.02274 0.0341,0.01299 0.06983,0.03573 0.09257,0.04709 0.08282,0.08282 0.116927,0.152655 0.105559,0.211118 -0.02274,0.06983 -0.06983,0.151031 -0.164022,0.25659 l -0.690195,0.829858 c -0.06983,0.08282 -0.116927,0.152655 -0.151031,0.211118 -0.03573,0.05846 -0.05846,0.128295 -0.05846,0.198126 0.01137,0.07146 0.0471,0.129919 0.116927,0.188383 0.05846,0.04547 0.116927,0.06983 0.175391,0.09257 0.06983,0.01137 0.139662,0.02436 0.198126,0.01137 0.09419,-0.02274 0.186758,-0.09257 0.303686,-0.233854 l 0.467708,-0.560276 0.05846,-0.06983 c 0.03573,-0.0471 0.05846,-0.08282 0.07146,-0.116927 0.01137,-0.02436 0.01137,-0.07146 0,-0.116927 -0.01299,-0.07146 -0.01299,-0.116927 0.01137,-0.152655 0.0341,-0.03573 0.06983,-0.04709 0.128295,-0.03573 0.06983,0 0.198126,0.05846 0.386509,0.164023 m 0,0.748658 v -0.748658 l 0.05846,0.03573 c 0.09257,0.04709 0.151031,0.0812 0.186759,0.116927 0.0812,0.05846 0.105559,0.128295 0.0812,0.209494 z m 0.96952,0.584635 v 0.971145 c -0.01137,0.01137 -0.02274,0.01137 -0.0341,0.02273 l -0.30531,0.222487 c -0.162398,0.116927 -0.292317,0.245222 -0.373517,0.362149 -0.0812,0.128295 -0.0812,0.25659 0.02274,0.397877 0.105559,0.15103 0.246846,0.198126 0.433605,0.164022 0.0812,-0.02436 0.17539,-0.04709 0.25659,-0.08282 v 0.678827 c -0.164023,-0.02436 -0.326422,-0.06983 -0.479076,-0.164023 -0.186759,-0.105559 -0.350782,-0.245222 -0.490444,-0.431981 v -1.427484 c 0.0341,-0.0341 0.0812,-0.06983 0.128294,-0.105559 z m 0,2.736419 v -0.678827 c 0.09419,-0.0471 0.17539,-0.09257 0.269582,-0.164023 0.164022,-0.116927 0.303685,-0.25659 0.409244,-0.43198 0.116927,-0.164023 0.128295,-0.315054 0.02274,-0.456341 -0.09257,-0.116927 -0.209494,-0.17539 -0.362149,-0.17539 -0.09419,0 -0.211118,0.04709 -0.339413,0.141287 v -0.971145 l 0.503436,-0.373517 c 0.139663,-0.09419 0.233854,-0.164022 0.280949,-0.211118 0.0341,-0.03573 0.05846,-0.06983 0.05846,-0.09419 v -0.116927 c 0,-0.05846 -0.01299,-0.09257 0,-0.116927 0,-0.02274 0.01137,-0.04547 0.0341,-0.05846 0.04709,-0.0341 0.09419,-0.0341 0.128295,-0.01137 0.04709,0.02436 0.116927,0.06983 0.188382,0.141287 0.233854,0.162399 0.384885,0.292318 0.443349,0.362149 0.06983,0.105559 0.01137,0.233854 -0.175391,0.373517 l -0.09257,0.05846 -0.842849,0.620363 c 0.245222,0.06983 0.444972,0.198126 0.584635,0.397877 0.105559,0.128295 0.164023,0.267958 0.19975,0.409244 0.0341,0.139663 0.0341,0.267958 0.01137,0.409245 -0.02436,0.139663 -0.08282,0.25659 -0.164023,0.384885 -0.0812,0.116927 -0.198126,0.222486 -0.328045,0.328045 -0.209494,0.151031 -0.43198,0.233855 -0.654467,0.233855 -0.05846,0.01137 -0.116927,0 -0.17539,0" />
    <path
       inkscape:connector-curvature="0"
       id="path7522"
       style="fill:#302c2a;fill-opacity:1;fill-rule:evenodd;stroke:none;stroke-width:1.62398696"
       d="m -70.051556,56.390929 -1.648347,1.801002 -1.508684,-0.456341 0.350781,1.801002 -2.081951,1.684074 c 0.760026,-0.222486 1.567148,-0.246846 2.29307,-0.65609 l -0.116927,1.263461 1.589883,-1.870833 1.636979,-0.924048 -0.807122,-0.28095 z" />
  </g>
</svg>
