<?xml version="1.0" encoding="utf-8"?>
<!-- Generator: Adobe Illustrator 13.0.0, SVG Export Plug-In . SVG Version: 6.00 Build 14948)  -->
<!DOCTYPE svg PUBLIC "-//W3C//DTD SVG 1.1 Tiny//EN" "http://www.w3.org/Graphics/SVG/1.1/DTD/svg11-tiny.dtd">
<svg version="1.1" baseProfile="tiny" id="Ebene_1" xmlns="http://www.w3.org/2000/svg" xmlns:xlink="http://www.w3.org/1999/xlink"
	 x="0px" y="0px" width="275.534865696" height="362.930476139" viewBox="0 0 466.992 615.115" xml:space="preserve">
<path fill-rule="evenodd" d="M466.992,0v415.293c0,55.043-26.37,105.021-68.78,141.258
	c-42.298,36.121-100.636,58.563-164.744,58.563c-64.107,0-122.447-22.442-164.743-58.563C26.313,520.314,0,470.336,0,415.293V0
	H466.992L466.992,0z"/>
<path fill-rule="evenodd" fill="#FFFFFF" d="M462.09,4.903H4.847v410.391c0,53.546,25.677,102.245,67.052,137.56
	c41.431,35.376,98.673,57.36,161.569,57.36c62.954,0,120.136-21.984,161.569-57.36c41.374-35.314,67.053-84.014,67.053-137.56V4.903
	L462.09,4.903z"/>
<path fill-rule="evenodd" fill="#58AB27" d="M457.127,108.078v307.216c0,52.391-25.275,99.941-65.956,134.388
	c-40.507,34.275-96.362,55.569-157.703,55.569c-61.339,0-117.195-21.294-157.704-55.569C35.083,515.235,9.867,467.684,9.867,415.293
	V108.078H457.127L457.127,108.078z"/>
<path fill-rule="evenodd" fill="#FFE600" d="M449.799,115.406H17.195v299.888c0,50.142,24.235,95.724,63.301,128.789
	c39.238,33.182,93.422,53.84,152.972,53.84c59.607,0,113.731-20.658,152.973-53.84c39.063-33.065,63.358-78.647,63.358-128.789
	V115.406L449.799,115.406z"/>
<path fill-rule="evenodd" d="M343.565,534.738L343.565,534.738c-5.308,4.498-12.466,9.058-21.64,13.85
	c-4.672,2.133-9.348,4.156-13.962,6.118c-4.618,1.962-9.522,3.575-14.602,4.901l-0.807-0.232c-5.425,1.907-10.849,3.35-16.099,4.327
	c-5.25,0.984-10.213,1.736-14.656,2.427c-10.042,1.791-18.521,2.304-25.507,1.613c-9.231,1.271-18.752,1.217-28.562-0.232
	c-9.924-1.381-19.677-3.63-29.082-6.576l0,0c-4.791-1.846-9.465-3.808-14.255-5.824c-4.789-1.907-9.174-3.985-13.271-6.063
	c-9.348-4.785-17.254-9.864-23.715-15.347c-6.174-3.288-12.985-8.251-20.486-14.943C91.171,503.06,78.593,486.039,69.128,467.8l0,0
	c-5.135-9.577-8.309-17.773-9.521-24.521c-1.442-3.808-2.828-8.025-4.213-12.694c-1.442-4.737-2.423-9.352-3.057-13.966
	c-1.675-9.352-2.598-19.448-2.829-30.181c0-2.714,0-5.366,0.059-7.848h367.512c0.058,1.326,0.058,2.714,0.058,4.04
	c0.117,6.118,0,11.942-0.287,17.486c-0.348,5.537-0.752,10.438-1.154,14.943c-1.098,4.901-2.137,9.461-3.23,13.617
	c-1.039,4.211-2.369,8.196-3.924,11.942c-2.311,9.871-5.312,18.696-9.119,26.544c-3.059,7.506-8.076,16.044-15.117,25.621
	l-0.229,0.752c-5.944,8.367-12.581,15.866-19.852,22.449c-3.521,3.862-6.866,7.15-10.445,10.097
	C350.316,529.023,346.97,531.908,343.565,534.738L343.565,534.738z"/>
<path fill-rule="evenodd" fill="#FFFFFF" d="M239.006,561.74c3.002-0.287,6.293-0.636,9.868-0.861
	c3.579-0.294,7.386-0.69,11.542-1.155c4.037-0.868,8.422-1.962,13.33-3.35c4.844-1.381,10.155-2.707,15.809-3.979l0,0
	c5.254-1.729,10.158-3.575,14.715-5.537c4.617-2.078,9.002-3.985,13.158-5.715c8.077-4.272,14.25-8.367,18.406-12.346
	l-13.563-19.852l-46.854,0.116l-36.641,28.273L239.006,561.74L239.006,561.74z"/>
<path fill-rule="evenodd" fill="#FFFFFF" d="M402.078,435.945c1.039-3.404,2.133-6.979,3.117-10.671
	c1.035-3.691,1.729-7.615,2.307-11.833c0.807-6.979,1.385-15.579,1.672-25.908h-44.256l14.481,41.316L402.078,435.945
	L402.078,435.945z"/>
<path fill-rule="evenodd" fill="#FFFFFF" d="M67.858,444.141c1.673,5.77,4.5,12.469,8.542,19.906l0,0l0,0l0,0l0,0l0,0
	c5.942,11.484,13.617,23.023,22.965,34.569c9.348,11.594,19.33,21.178,30.005,28.848l16.389-21.69l-14.83-44.611l-36.47-27.002
	L67.858,444.141L67.858,444.141z"/>
<polygon fill-rule="evenodd" fill="#FFFFFF" points="321.349,500.75 370.168,430.353 355.799,387.827 311.252,388.633 
	263.127,456.61 277.264,500.059 321.349,500.75 "/>
<polygon fill-rule="evenodd" fill="#FFFFFF" points="96.942,387.533 97.401,427.407 135.661,452.276 169.705,426.484 
	169.013,387.533 96.942,387.533 "/>
<polygon fill-rule="evenodd" fill="#FFFFFF" points="153.202,503.689 235.199,529.372 268.726,502.595 255.396,459.317 
	173.457,433.696 140.104,459.72 153.202,503.689 "/>
<polygon fill-rule="evenodd" points="174.725,260.762 174.725,303.461 103.578,303.461 103.578,370.053 54.703,370.053 
	54.703,260.762 174.725,260.762 "/>
<polygon fill-rule="evenodd" points="298.209,192.44 227.754,277.033 303.001,370.053 240.277,370.053 183.497,298.672 
	183.497,260.935 240.277,192.44 298.209,192.44 "/>
<path fill-rule="evenodd" d="M365.146,260.762v44.201c0,9.233,1.326,15.235,4.04,18.12c2.652,2.885,8.251,4.266,16.792,4.266h31.333
	v42.704h-45.298c-19.158,0-33.121-4.963-42.008-14.95c-8.77-9.98-13.155-25.847-13.155-47.66v-46.681H365.146L365.146,260.762z"/>
<polygon fill-rule="evenodd" points="423.139,192.44 423.139,235.141 308.483,235.141 308.483,192.44 423.139,192.44 "/>
<polygon fill-rule="evenodd" fill="#58AB27" points="174.725,192.44 174.725,235.141 54.703,235.141 54.703,192.44 174.725,192.44 
	"/>
<polygon fill-rule="evenodd" fill="#58AB27" points="33.122,13.272 62.723,13.272 79.977,13.272 79.977,41.834 62.723,41.834 
	62.723,98.96 33.122,98.96 33.122,41.834 15.812,41.834 15.812,13.272 33.122,13.272 "/>
<path fill-rule="evenodd" fill="#58AB27" d="M444.084,13.272V98.96h-29.6V37.333h-15.291v31.622
	c0,21.525-8.022,30.006-26.432,30.006h-13.904V72.013c8.713,0.865,11.078-5.25,10.732-12.407V13.272
	C394.459,13.272,419.273,13.272,444.084,13.272L444.084,13.272z"/>
<path fill-rule="evenodd" fill="#58AB27" d="M131.161,11.136c24.754,0,45.008,20.255,45.008,45.009
	c0,24.755-20.253,45.008-45.008,45.008l0,0v-28.39l0,0c9.174,0,16.616-7.5,16.616-16.618c0-9.117-7.442-16.62-16.616-16.62l0,0
	V11.136L131.161,11.136L131.161,11.136z M131.161,101.153c-24.757,0-45.01-20.253-45.01-45.008c0-24.754,20.253-45.009,45.01-45.009
	v28.39c-9.119,0-16.62,7.502-16.62,16.62c0,9.118,7.501,16.618,16.62,16.618V101.153L131.161,101.153z"/>
<path fill-rule="evenodd" fill="#58AB27" d="M307.615,11.136c24.756,0,45.012,20.255,45.012,45.009
	c0,24.755-20.256,45.008-45.012,45.008l0,0v-28.39l0,0c9.119,0,16.621-7.5,16.621-16.618c0-9.117-7.502-16.62-16.621-16.62l0,0
	V11.136L307.615,11.136L307.615,11.136z M307.615,101.153c-24.753,0-45.008-20.253-45.008-45.008
	c0-24.754,20.255-45.009,45.008-45.009v28.39c-9.115,0-16.618,7.502-16.618,16.62c0,9.118,7.503,16.618,16.618,16.618V101.153
	L307.615,101.153z"/>
<path fill-rule="evenodd" fill="#58AB27" d="M221.234,13.272h19.967v24.061h-19.967V13.272L221.234,13.272L221.234,13.272z
	 M221.234,45.008h5.886c38.026,0,38.026,53.953,0,53.953h-5.886V80.9c4.558-0.461,8.079-4.271,8.079-8.945
	c0-4.616-3.521-8.482-8.079-8.887V45.008L221.234,45.008z M183.553,13.272h0.52h37.162v24.061h-8.078v7.675h8.078v18.061
	c-0.289-0.056-0.576-0.056-0.864-0.056v-0.059h-7.214v18.003h7.214V80.9c0.289,0,0.576,0,0.864,0V98.96h-8.078h-22.504h-7.099
	V13.272L183.553,13.272z"/>
<polygon fill-rule="evenodd" points="61.395,166.127 64.338,166.127 73.515,157.587 82.861,157.587 70.456,168.897 84.479,180.554 
	74.727,180.554 64.338,171.84 61.395,171.84 61.395,180.554 54.357,180.554 54.357,157.587 61.395,157.587 61.395,166.127 "/>
<path fill-rule="evenodd" d="M413.5,175.361c0.578,0,1.098-0.232,1.389-0.578c0.345-0.347,0.52-0.864,0.52-1.559
	c0-0.634-0.175-1.095-0.52-1.499c-0.35-0.347-0.811-0.521-1.389-0.521h-5.537v-4.673h8.829c5.308-0.058,5.886,3.058,5.886,7.79
	c0,2.192-0.578,3.751-1.787,4.732c-1.156,0.981-3.002,1.5-5.6,1.5h-7.328v-5.193H413.5L413.5,175.361L413.5,175.361z
	 M407.963,162.723v-5.135h12.521l-0.116,5.135H407.963L407.963,162.723z M407.963,171.205h-7.443v4.156h7.443v5.193h-14.424v-22.967
	h14.424v5.135h-7.443v3.809h7.443V171.205L407.963,171.205z"/>
<path fill-rule="evenodd" d="M191.632,163.126h-14.426v10.273c0,2.769-0.749,4.73-2.365,5.826c-1.559,1.041-4.443,1.617-8.656,1.617
	h-0.056v-5.77c1.5-0.058,2.48-0.345,3.057-0.75c0.692-0.52,1.039-1.559,1.039-3.117v-13.617c9.463,0,18.985,0,28.448,0v22.967
	h-7.041V163.126L191.632,163.126z"/>
<path fill-rule="evenodd" d="M285.689,175.128h3.578c1.962,0,3.288-0.287,3.924-0.865c0.229-0.172,0.461-0.403,0.748-0.75
	c-4.385-5.539-10.038-13.328-12.406-15.926h8.482c1.733,1.905,4.963,6.174,7.965,9.983c2.365-3.809,4.846-8.078,6.234-9.983h8.479
	c-2.827,3.924-11.252,19.677-13.675,21.524c-1.443,1.153-3.924,1.729-7.561,1.729h-5.77V175.128L285.689,175.128z"/>
<polygon fill-rule="evenodd" points="151.414,153.087 144.375,153.087 144.375,135.775 134.794,135.775 134.794,130.121 
	160.993,130.121 160.993,135.775 151.414,135.775 151.414,153.087 "/>
<path fill-rule="evenodd" d="M262.953,135.661h-14.424v10.271c0,2.826-0.752,4.73-2.365,5.827c-1.559,1.096-4.443,1.615-8.656,1.615
	h-0.061v-5.77c1.501-0.058,2.482-0.347,3.06-0.75c0.694-0.52,1.039-1.559,1.039-3.116v-13.619c9.464,0,18.925,0,28.448,0v22.967
	h-7.041V135.661L262.953,135.661z"/>
<path fill-rule="evenodd" d="M102.886,147.663h3.519c1.962,0,3.29-0.291,3.982-0.808c0.23-0.231,0.461-0.462,0.75-0.809
	c-4.385-5.48-10.097-13.328-12.405-15.926h8.481c1.731,1.903,4.961,6.174,7.964,9.982c2.307-3.808,4.789-8.079,6.231-9.982h8.483
	c-2.886,3.924-11.312,19.735-13.677,21.581c-1.442,1.097-3.98,1.673-7.559,1.673h-5.77V147.663L102.886,147.663z"/>
<path fill-rule="evenodd" d="M188.113,147.894c0.634,0,1.097-0.175,1.442-0.578c0.345-0.347,0.52-0.866,0.52-1.559
	c0-0.576-0.174-1.095-0.52-1.442c-0.345-0.403-0.865-0.576-1.442-0.576h-5.482v-4.674h8.829c5.25,0,5.828,3.116,5.828,7.79
	c0,2.192-0.578,3.751-1.731,4.788c-1.152,0.981-3.058,1.444-5.596,1.444h-7.33v-5.193H188.113L188.113,147.894L188.113,147.894z
	 M182.63,135.256v-5.135h12.522l-0.116,5.135H182.63L182.63,135.256z M182.63,143.739h-7.444v4.155h7.444v5.193h-14.482v-22.967
	h14.482v5.135h-7.444v3.809h7.444V143.739L182.63,143.739z"/>
<path fill-rule="evenodd" d="M219.042,129.833h4.154c2.596,0,4.558,0.114,5.828,0.403c1.328,0.229,2.309,0.634,3.059,1.211
	c0.809,0.634,1.442,1.557,1.846,2.654c0.405,1.098,0.578,2.54,0.578,4.327v6.405c0,1.731-0.173,3.174-0.578,4.27
	c-0.403,1.155-1.037,2.02-1.846,2.655c-0.75,0.578-1.731,1.039-3.001,1.27c-1.27,0.231-3.231,0.345-5.886,0.345h-4.154v-5.711h2.249
	c2.481,0,4.156-0.347,4.965-0.981c0.807-0.578,1.211-1.731,1.211-3.462v-3.232c0-1.673-0.405-2.828-1.211-3.462
	c-0.809-0.634-2.483-0.923-4.965-0.923h-2.249V129.833L219.042,129.833z M214.944,153.375c-2.654,0-4.614-0.114-5.886-0.345
	c-1.268-0.231-2.249-0.692-3.057-1.27c-0.865-0.636-1.501-1.5-1.904-2.596c-0.403-1.039-0.577-2.481-0.577-4.213v-6.289
	c0-1.903,0.174-3.406,0.577-4.56c0.403-1.097,1.039-2.02,1.904-2.654c0.808-0.578,1.789-0.983,3.115-1.211
	c1.27-0.289,3.174-0.403,5.828-0.403h4.098v5.77h-2.192c-2.54,0-4.213,0.289-5.021,0.923c-0.75,0.634-1.153,1.789-1.153,3.577v3.173
	c0,1.675,0.403,2.829,1.212,3.406c0.864,0.634,2.481,0.981,4.963,0.981h2.192v5.711H214.944L214.944,153.375z"/>
<polygon fill-rule="evenodd" points="318.871,153.087 311.888,153.087 311.888,130.121 318.871,130.121 318.871,138.545 
	333.236,138.545 333.236,130.121 340.336,130.121 340.336,153.087 333.236,153.087 333.236,144.143 318.871,144.143 
	318.871,153.087 "/>
<polygon fill-rule="evenodd" points="385.514,153.087 378.477,153.087 378.477,130.121 385.514,130.121 385.514,153.087 "/>
<path fill-rule="evenodd" d="M392.152,153.087h10.271l13.792-16.678v16.678h7.041v-22.967h-10.388l-13.733,16.849v-16.849h-6.982
	V153.087L392.152,153.087L392.152,153.087z M401.271,124.754c3.807,0.692,7.673,0.692,11.539,0v3.865
	c-3.866,0.692-7.732,0.692-11.539,0V124.754L401.271,124.754z"/>
<path fill-rule="evenodd" d="M365.03,147.894c0.636,0,1.097-0.175,1.442-0.578c0.291-0.347,0.465-0.866,0.465-1.559
	c0-0.576-0.174-1.095-0.523-1.442c-0.345-0.403-0.807-0.576-1.384-0.576h-5.537v-4.674h8.829c5.308,0,5.885,3.116,5.885,7.79
	c0,2.192-0.577,3.751-1.732,4.788c-1.21,0.981-3.059,1.444-5.653,1.444h-7.328v-5.193H365.03L365.03,147.894z M359.493,143.739
	h-7.444v4.155h7.444v5.193h-14.427v-22.967h6.982c0,3.001,0,5.943,0,8.944h7.444V143.739L359.493,143.739z"/>
<path fill-rule="evenodd" d="M81.247,132.947h2.249c1.559,0,2.77,0.059,3.751,0.232c0.923,0.173,1.673,0.403,2.367,0.749
	c1.154,0.577,1.962,1.5,2.54,2.714c0.518,1.153,0.749,2.826,0.749,4.963c0,3.113-0.52,5.364-1.557,6.634
	c-1.039,1.328-2.828,1.962-5.31,1.962h-4.789v-5.711h1.962c0.981,0,1.615-0.232,2.02-0.694c0.345-0.461,0.52-1.268,0.52-2.423
	c0-0.923-0.174-1.617-0.578-2.077c-0.403-0.405-1.039-0.634-1.962-0.634h-1.962V132.947L81.247,132.947z M76.745,153.087h-6.981
	v-2.887h-4.501v-5.711h4.501v-5.828h-4.501v-5.715h4.501v-2.826h6.981v2.826h4.501v5.715h-4.501v5.828h4.501v5.711h-4.501V153.087
	L76.745,153.087z M65.263,150.201H60.53c-2.481,0-4.271-0.634-5.308-1.962c-1.097-1.27-1.617-3.521-1.617-6.634
	c0-2.137,0.291-3.81,0.809-4.963c0.52-1.214,1.386-2.137,2.539-2.714c0.634-0.346,1.441-0.576,2.365-0.749
	c0.923-0.174,2.193-0.232,3.75-0.232h2.194v5.715h-1.962c-0.865,0-1.557,0.229-1.906,0.634c-0.403,0.459-0.632,1.154-0.632,2.077
	c0,1.155,0.171,1.962,0.576,2.423c0.345,0.462,1.039,0.694,1.962,0.694h1.962V150.201L65.263,150.201z"/>
<path fill-rule="evenodd" d="M297.115,147.894c0.633,0,1.094-0.175,1.442-0.578c0.287-0.347,0.462-0.866,0.462-1.559
	c0-0.576-0.175-1.095-0.52-1.442c-0.346-0.403-0.807-0.576-1.385-0.576h-5.541v-4.674h8.829c5.308,0,5.886,3.116,5.886,7.79
	c0,2.192-0.578,3.751-1.729,4.788c-1.214,0.981-3.06,1.444-5.657,1.444h-7.328v-5.193H297.115L297.115,147.894z M291.574,143.739
	h-7.443v4.155h7.443v5.193H277.15v-22.967h6.98c0,3.001,0,5.943,0,8.944h7.443V143.739L291.574,143.739z"/>
</svg>
