<?xml version="1.0" encoding="UTF-8" standalone="no"?>
<svg
   xmlns:dc="http://purl.org/dc/elements/1.1/"
   xmlns:cc="http://creativecommons.org/ns#"
   xmlns:rdf="http://www.w3.org/1999/02/22-rdf-syntax-ns#"
   xmlns:svg="http://www.w3.org/2000/svg"
   xmlns="http://www.w3.org/2000/svg"
   xmlns:sodipodi="http://sodipodi.sourceforge.net/DTD/sodipodi-0.dtd"
   xmlns:inkscape="http://www.inkscape.org/namespaces/inkscape"
   inkscape:version="1.0 (4035a4fb49, 2020-05-01)"
   sodipodi:docname="FC_Ufa_logo.svg"
   id="svg180"
   viewBox="0 0 18100000 29917603"
   style="shape-rendering:geometricPrecision; text-rendering:geometricPrecision; image-rendering:optimizeQuality; fill-rule:evenodd; clip-rule:evenodd"
   version="1.1"
   height="299px"
   width="181px"
   xml:space="preserve"><metadata
   id="metadata184"><rdf:RDF><cc:Work
       rdf:about=""><dc:format>image/svg+xml</dc:format><dc:type
         rdf:resource="http://purl.org/dc/dcmitype/StillImage" /><dc:title></dc:title></cc:Work></rdf:RDF></metadata><sodipodi:namedview
   inkscape:current-layer="svg180"
   inkscape:window-maximized="1"
   inkscape:window-y="-8"
   inkscape:window-x="-8"
   inkscape:cy="113.74801"
   inkscape:cx="82.800754"
   inkscape:zoom="2.8284271"
   showgrid="false"
   id="namedview182"
   inkscape:window-height="1017"
   inkscape:window-width="1920"
   inkscape:pageshadow="2"
   inkscape:pageopacity="0"
   guidetolerance="10"
   gridtolerance="10"
   objecttolerance="10"
   borderopacity="1"
   bordercolor="#666666"
   pagecolor="#ffffff" />
 <defs
   id="defs100">
  <style
   id="style98"
   type="text/css">
   <![CDATA[
    .fil0 {fill:#A3B100}
    .fil2 {fill:#BD0016}
    .fil1 {fill:white}
    .fil4 {fill:#BD0016;fill-rule:nonzero}
    .fil3 {fill:white;fill-rule:nonzero}
   ]]>
  </style>
 
  
  
  
  
  
  
  
  
  
  
  
  
  
  
  
  
  
  
  
  
  
  
  
  
  
  
  
  
  
  
  
  
  
  
  
  
  
  
  
 </defs>
 <path
   style="fill:#2d1044;fill-opacity:1"
   class="fil1"
   d="m 369288,369258 v 20498389 c 0,4756480 3923484,8680697 8680697,8680697 4767684,0 8680727,-3912295 8680727,-8680697 V 369258 Z"
   id="path105" /><path
   sodipodi:nodetypes="cccccccccccssscc"
   style="display:inline;fill:#addec7;fill-opacity:1"
   class="fil2"
   d="M 738531,738501 V 3040795 H 17361469 V 738501 Z m 0,6982933 v 2413857 H 17361469 V 7721434 Z m 0,2953182 v 10193032 c 0,4552666 3758100,8311454 8311454,8311454 4563885,0 8311484,-3746881 8311484,-8311454 V 10674616 Z"
   id="path113" /><circle
   style="fill:#2d1044;fill-opacity:1"
   class="fil0"
   cx="9010976"
   cy="20833860"
   r="6508999"
   id="circle117" /><polygon
   style="fill:#addec7;fill-opacity:1"
   class="fil2"
   points="12228760,15260520 11964319,17880539 14584308,17616083 13045301,19752873 15446488,20833841 13045301,21914853 14584308,24051613 11964289,23787187 12228760,26407176 10091970,24868155 9010987,27269356 7929990,24868155 5793230,26407176 6057656,23787157 3437667,24051613 4976674,21914823 2575487,20833841 4976674,19752843 3437667,17616083 6057686,17880510 5793230,15260520 7930020,16799542 9010987,14398340 10092000,16799542 "
   id="polygon119" /><circle
   style="fill:#2d1044;fill-opacity:1"
   class="fil1"
   cx="9010976"
   cy="20833860"
   r="3845105"
   id="circle121" /><circle
   style="fill:#addec7;fill-opacity:1"
   class="fil0"
   cx="9010976"
   cy="20833860"
   r="3423103"
   id="circle123" /><circle
   style="fill:#2d1044;fill-opacity:1"
   class="fil1"
   cx="9010976"
   cy="20833860"
   r="2710973"
   id="circle125" /><circle
   style="fill:#addec7;fill-opacity:1"
   class="fil0"
   cx="9010976"
   cy="20833860"
   r="2394471"
   id="circle127" /><circle
   style="fill:#2d1044;fill-opacity:1"
   class="fil1"
   cx="9010976"
   cy="20833860"
   r="1615480"
   id="circle129" /><circle
   style="fill:#addec7;fill-opacity:1"
   r="1304384"
   class="fil0"
   cx="9010976"
   cy="20833860"
   id="circle131" /><circle
   style="fill:#2d1044;fill-opacity:1"
   class="fil1"
   cx="9010976"
   cy="20833860"
   r="592255"
   id="circle133" /><path
   style="fill:#2d1044;fill-opacity:1"
   class="fil3"
   d="m 1868504,8917450 v 296109 h 167823 c 35632,0 62273,-3261 80074,-9619 17831,-6387 30097,-17487 36948,-33508 6866,-16185 10292,-39865 10292,-71578 v -59820 c 0,-33328 -4099,-58683 -12266,-75826 -8332,-17322 -21556,-29274 -39850,-35796 -18489,-6687 -44473,-9963 -78279,-9963 h -164741 z m -162797,-188451 h 162797 v 53119 h 209019 c 58653,0 105744,7046 141032,20912 35318,14061 61600,38594 78938,73717 17322,35138 25983,84009 25983,146447 v 93148 c 0,44128 -3904,80553 -11922,109483 -8018,28930 -21256,52461 -39880,70456 -18624,18145 -43814,31533 -75512,39880 -31713,8482 -71428,12730 -118638,12730 h -209019 v 60793 h -162797 v -60793 h -210650 c -47404,0 -87120,-4248 -118982,-12730 -31862,-8347 -57023,-21735 -75333,-39880 -18489,-17995 -31728,-41870 -39880,-71114 -8168,-29244 -12266,-65520 -12266,-108825 v -93148 c 0,-62438 8661,-111308 25983,-146447 17337,-35123 43650,-59656 79102,-73717 35467,-13867 82528,-20912 141376,-20912 h 210650 v -53119 z m 0,188451 h -163754 c -33822,0 -59985,3276 -78444,9963 -18310,6522 -31548,18474 -39880,35796 -8182,17143 -12266,42498 -12266,75826 v 59820 c 0,31713 3455,55392 10471,71578 6851,16021 19282,27120 37113,33508 17801,6357 44443,9619 80074,9619 h 166686 v -296109 z"
   id="path135" /><path
   style="fill:#2d1044;fill-opacity:1"
   class="fil3"
   d="m 2896129,8728999 h 193178 l -316723,511860 c -25998,40538 -47240,71428 -63904,92505 -16515,21092 -33029,37098 -49379,48212 -16320,11129 -34465,18459 -54405,22393 -19790,3770 -46238,5714 -79267,5714 h -63739 v -128631 h 32356 c 62782,0 94136,-13717 94136,-41167 0,-8332 -3904,-18803 -11758,-31384 l -314763,-479504 h 192191 l 227329,383574 214749,-383574 z"
   id="path137" /><polygon
   style="fill:#2d1044;fill-opacity:1"
   class="fil3"
   points="3844023,8864331 3556874,8864331 3556874,9409684 3394092,9409684 3394092,8864331 3109561,8864331 3109561,8728999 3844023,8728999 "
   id="polygon139" /><path
   style="fill:#2d1044;fill-opacity:1"
   class="fil3"
   d="m 3893223,8728999 h 638322 v 128631 h -475570 v 139072 h 314763 c 54749,0 98564,6208 131563,18624 32864,12266 57202,34001 73059,65041 15856,30890 23710,73882 23710,129109 0,51010 -8182,91204 -24368,120448 -16170,29259 -40703,49858 -73537,61780 -32864,11952 -75991,17980 -129453,17980 h -478487 v -680685 z m 162752,396318 v 155736 h 281420 c 28945,0 50351,-2423 64233,-7165 14061,-4757 23201,-12580 27793,-23366 4562,-10950 6866,-27150 6866,-48721 0,-19446 -1960,-34315 -6043,-44787 -4084,-10441 -12775,-18310 -26163,-23680 -13239,-5385 -33657,-8018 -60957,-8018 h -287149 z"
   id="path141" /><path
   style="fill:#2d1044;fill-opacity:1"
   class="fil3"
   d="m 4796330,9160635 c 314,30067 4248,53119 11758,69439 7524,16350 20105,27793 38070,34315 17980,6731 43964,9963 77801,9963 h 215556 c 35647,0 62273,-3231 80074,-9619 17816,-6387 30082,-17487 36933,-33687 6881,-16006 10307,-39850 10307,-71398 v -173732 c 0,-33328 -4084,-58683 -12266,-75826 -8332,-17322 -21571,-29244 -39716,-35796 -18310,-6687 -44443,-9963 -78279,-9963 h -209842 c -34465,0 -60793,3426 -79102,10441 -18295,6881 -31204,18968 -38713,36290 -7524,17173 -11788,42498 -12580,75826 v 173746 z m 633266,16500 c 0,44128 -3904,80553 -11922,109483 -8018,28945 -21256,52461 -39716,70456 -18624,18145 -43635,31548 -75497,39880 -31728,8482 -71413,12730 -118967,12730 h -298922 c -45594,0 -84338,-4398 -116050,-13239 -31698,-8646 -57517,-22543 -77621,-41167 -19940,-18803 -34495,-42677 -43650,-71772 -9155,-29095 -13717,-64532 -13717,-106372 v -206746 c 0,-47210 4413,-86282 13403,-117008 8990,-30725 23216,-55258 42648,-73552 19461,-18310 44787,-31204 76021,-39072 31354,-7823 70920,-11758 118967,-11758 h 298922 c 58818,0 105893,7046 141346,20912 35318,14061 61600,38594 78938,73717 17173,35138 25819,84009 25819,146761 v 206746 z"
   id="path143" /><path
   style="fill:#2d1044;fill-opacity:1"
   class="fil3"
   d="m 6262263,8728999 v 680685 h -162797 v -545353 h -382571 v 298249 c 0,164741 -64398,247104 -193193,247104 h -68466 v -135332 c 28108,0 49185,-3904 62932,-11922 13867,-7823 23366,-20748 28437,-38893 5056,-18130 7509,-44607 7509,-79581 v -414957 h 124697 419684 163769 z"
   id="path145" /><path
   style="fill:#2d1044;fill-opacity:1"
   class="fil3"
   d="m 6327139,8728999 v 680685 h 463977 c 42169,0 78115,-3261 107703,-9648 29574,-6507 53941,-17487 73223,-32999 19282,-15527 33807,-37113 43620,-64727 9663,-27764 14570,-62932 14570,-105415 0,-56365 -8841,-100179 -26642,-131368 -17831,-31234 -44308,-52805 -79282,-64577 -34974,-11922 -80897,-17980 -137292,-17980 h -297082 v -253971 h -162797 z m 162797,389303 h 267837 c 37262,0 64727,5221 82707,15841 17966,10471 26956,31399 26956,62588 0,30576 -8646,51174 -25654,61615 -17143,10636 -43979,15856 -80074,15856 h -271772 v -155901 z"
   id="path147" /><polygon
   style="fill:#2d1044;fill-opacity:1"
   class="fil3"
   points="7257711,8728999 7257711,8990015 7677395,8990015 7677395,8728999 7841164,8728999 7841164,9409684 7677395,9409684 7677395,9125318 7257711,9125318 7257711,9409684 7094930,9409684 7094930,8728999 "
   id="polygon149" /><path
   style="fill:#2d1044;fill-opacity:1"
   class="fil3"
   d="m 7896886,8728999 v 680685 h 463962 c 42333,0 78294,-3261 107883,-9648 29409,-6507 53912,-17487 73208,-32999 19282,-15527 33822,-37113 43470,-64727 9813,-27764 14719,-62932 14719,-105415 0,-56365 -8990,-100179 -26821,-131368 -17651,-31234 -44128,-52805 -79102,-64577 -35123,-11922 -80897,-17980 -137441,-17980 h -296962 v -253971 z m 162916,389303 h 267867 c 37113,0 64727,5221 82722,15841 17951,10471 26956,31399 26956,62588 0,30576 -8661,51174 -25819,61615 -17173,10636 -43814,15856 -80089,15856 h -271637 v -155901 z m 866848,291382 h -162782 v -680685 h 162782 z"
   id="path151" /><path
   style="fill:#2d1044;fill-opacity:1"
   class="fil3"
   d="m 9867035,9409684 v -680685 h -273567 l -414793,545353 h -22558 v -545353 h -162767 v 680685 h 279640 l 408734,-545039 h 22543 v 545039 h 162767 z m -230410,-878575 h -132400 v 9783 c 0,17831 -3096,30890 -9155,39057 -6043,8332 -15856,13583 -29259,16006 -13388,2648 -34301,3785 -62588,3785 -28422,0 -49349,-1137 -62737,-3785 -13239,-2423 -22902,-7674 -28930,-16006 -6208,-8168 -9155,-21227 -9155,-39057 v -9783 h -132385 v 8811 c 0,35318 6043,62767 18145,82363 11922,19626 34630,34001 67973,43156 33373,8990 82378,13553 147090,13553 64413,0 113418,-4562 146940,-13553 33493,-9155 56200,-23530 68317,-43156 12072,-19596 18145,-47045 18145,-82363 v -8811 z"
   id="path153" /><polygon
   style="fill:#2d1044;fill-opacity:1"
   class="fil3"
   points="10354422,8728999 10354422,8982970 10450353,8982970 10747629,8728999 10991772,8728999 10590712,9047846 11007628,9409684 10768228,9409684 10453614,9118302 10354422,9118302 10354422,9409684 10192613,9409684 10192613,8728999 "
   id="polygon155" /><path
   style="fill:#2d1044;fill-opacity:1"
   class="fil3"
   d="m 11817453,8728999 v 680685 h -162782 v -545353 h -382571 v 298249 c 0,164741 -64413,247104 -193208,247104 h -68466 v -135332 c 28123,0 49185,-3904 62932,-11922 13867,-7823 23366,-20748 28437,-38893 5056,-18130 7509,-44607 7509,-79581 v -414957 h 124712 419669 163769 z"
   id="path157" /><path
   style="fill:#2d1044;fill-opacity:1"
   class="fil3"
   d="m 12471631,8728999 h 193178 l -316708,511860 c -26013,40538 -47240,71428 -63919,92505 -16500,21092 -33014,37098 -49364,48212 -16335,11129 -34480,18459 -54420,22393 -19776,3770 -46238,5714 -79252,5714 h -63754 v -128631 h 32371 c 62767,0 94136,-13717 94136,-41167 0,-8332 -3904,-18803 -11773,-31384 l -314763,-479504 h 192206 l 227329,383574 214734,-383574 z"
   id="path159" /><path
   style="fill:#2d1044;fill-opacity:1"
   class="fil3"
   d="m 12703897,8728999 h 638337 v 128631 h -475570 v 139072 h 314763 c 54749,0 98564,6208 131548,18624 32864,12266 57217,34001 73059,65041 15856,30890 23710,73882 23710,129109 0,51010 -8168,91204 -24368,120448 -16170,29259 -40688,49858 -73537,61780 -32850,11952 -75976,17980 -129439,17980 h -478502 v -680685 z m 162767,396318 v 155736 h 281420 c 28930,0 50351,-2423 64218,-7165 14061,-4757 23216,-12580 27808,-23366 4562,-10950 6851,-27150 6851,-48721 0,-19446 -1945,-34315 -6043,-44787 -4084,-10441 -12760,-18310 -26163,-23680 -13239,-5385 -33657,-8018 -60957,-8018 h -287134 z"
   id="path161" /><path
   style="fill:#2d1044;fill-opacity:1"
   class="fil3"
   d="m 14657187,8728999 h 193178 l -316723,511860 c -25998,40538 -47225,71428 -63904,92505 -16515,21092 -33014,37098 -49364,48212 -16335,11129 -34480,18459 -54420,22393 -19776,3770 -46238,5714 -79252,5714 h -63754 v -128631 h 32356 c 62782,0 94136,-13717 94136,-41167 0,-8332 -3904,-18803 -11758,-31384 l -314763,-479504 h 192191 l 227329,383574 214749,-383574 z"
   id="path163" /><path
   style="fill:#2d1044;fill-opacity:1"
   class="fil3"
   d="m 15393429,8917450 v 296109 h 167823 c 35632,0 62273,-3261 80074,-9619 17831,-6387 30097,-17487 36948,-33508 6866,-16185 10292,-39865 10292,-71578 v -59820 c 0,-33328 -4084,-58683 -12266,-75826 -8332,-17322 -21556,-29274 -39850,-35796 -18489,-6687 -44473,-9963 -78279,-9963 h -164741 z m -162797,-188451 h 162797 v 53119 h 209019 c 58653,0 105744,7046 141032,20912 35318,14061 61615,38594 78938,73717 17322,35138 25983,84009 25983,146447 v 93148 c 0,44128 -3904,80553 -11922,109483 -8018,28930 -21256,52461 -39880,70456 -18624,18145 -43814,31533 -75512,39880 -31698,8482 -71428,12730 -118638,12730 h -209019 v 60793 h -162797 v -60793 h -210650 c -47404,0 -87120,-4248 -118982,-12730 -31862,-8347 -57023,-21735 -75333,-39880 -18489,-17995 -31728,-41870 -39880,-71114 -8168,-29244 -12251,-65520 -12251,-108825 v -93148 c 0,-62438 8646,-111308 25968,-146447 17337,-35123 43650,-59656 79102,-73717 35482,-13867 82528,-20912 141376,-20912 h 210650 v -53119 z m 0,188451 h -163754 c -33822,0 -59985,3276 -78444,9963 -18310,6522 -31548,18474 -39880,35796 -8168,17143 -12266,42498 -12266,75826 v 59820 c 0,31713 3455,55392 10471,71578 6866,16021 19282,27120 37113,33508 17801,6357 44443,9619 80074,9619 h 166686 v -296109 z"
   id="path165" /><path
   style="fill:#2d1044;fill-opacity:1"
   class="fil3"
   d="m 15974728,9409684 h -190081 l 360717,-680685 h 241226 l 357874,680685 h -191188 l -87434,-171592 h -402855 l -88257,171592 z m 153956,-300223 h 271622 l -129424,-252804 h -7704 l -134495,252804 z"
   id="path167" /><polygon
   style="fill:#2d1044;fill-opacity:1"
   class="fil1"
   points="13781514,9423357 13704102,9423357 13704102,8680203 13781514,8680203 "
   id="polygon169" /><polygon
   style="fill:#2d1044;fill-opacity:1"
   class="fil1"
   points="16972899,9423357 16895487,9423357 16895487,8680203 16972899,8680203 "
   id="polygon171" /><path
   style="fill:#addec7;fill-opacity:1"
   class="fil4"
   d="m 7753239.9,5938526 c 0,166117 23455,293746 64727,384022 41256,90291 110755,153238 209453,189752 98982,36634 241809,55123 427882,55123 h 327269 V 4168405 h -311966 c -189588,0 -334314,19417 -435092,57816 -100493,38309 -171592,104981 -213058,200612 -41092,94869 -69214,235033 -69214,419265 v 1092426 z m 1655281,628898 h 258877 c 195960,0 342512.1,-18100 440492.1,-53313 97935,-35213 165295,-96813 203141,-186147 37532,-88541 56649,-220478 56649,-394867 V 4840686 c 0,-184337 -22363,-324546 -67434,-419280 -45579,-95826 -118818,-161525 -218443,-197890 -100718.1,-36724 -244606.1,-55108 -430604.1,-55108 h -242677 V 6567426 Z M 11263023,5977045 c 0,243963 -21586,445473 -65624,605413 -44054,159910 -116873,290051 -218443,389422 -102498,100314 -240014,174390 -415301,220493 -174390,46986 -392863,70486 -654448.1,70486 h -1644182 c -250799,0 -463828,-24398 -638247,-73193 -174390,-47898 -316424,-124697 -426984,-227718 -109678,-103904 -189663,-235826 -240014,-396663 -50351,-160867 -75512,-356932 -75512,-588240 V 4833983 c 0,-261136 24263,-477126 73717,-646998 49424,-169857 127628,-305399 234599,-406610 106985,-101196 246327,-172595 418024,-215960 172595,-43381 390140,-65056 654418,-65056 h 1644182 c 323619.1,0 582526.1,38878 777588.1,115676 194180,77696 338892,213238 434194,407493 94390,194285 142034,464471 142034,811455 v 1143062 z"
   id="path173" /><path
   style="fill:#addec7;fill-opacity:1"
   class="fil4"
   d="m 12395270,5938526 c 0,166117 23455,293746 64727,384022 41256,90291 110755,153238 209453,189752 98982,36634 241809,55123 427882,55123 h 1212097 c 195975,0 342512,-18100 440492,-53313 97935,-35213 165295,-96813 203141,-186147 37532,-88541 56649,-220478 56649,-394867 v -231338 h -2614439 v 236768 z m 2614439,-862734 v -235107 c 0,-184337 -22363,-324546 -67434,-419280 -45579,-95826 -118818,-161525 -218443,-197890 -100718,-36724 -244606,-55108 -430604,-55108 h -1180593 c -189588,0 -334314,19417 -435092,57816 -100493,38309 -171592,104981 -213058,200612 -41092,94869 -69214,235033 -69214,419265 v 229692 h 2614439 z m 895344,901253 c 0,243963 -21586,445473 -65624,605413 -44054,159910 -116873,290051 -218443,389422 -102498,100314 -240014,174390 -415301,220493 -174390,46986 -392863,70486 -654448,70486 h -1644182 c -250799,0 -463828,-24398 -638247,-73193 -174390,-47898 -316424,-124697 -426984,-227718 -109678,-103904 -189663,-235826 -240014,-396663 -50351,-160867 -75512,-356932 -75512,-588240 V 4833983 c 0,-261136 24263,-477126 73717,-646998 49424,-169857 127628,-305399 234599,-406610 106985,-101196 246327,-172595 418024,-215960 172595,-43381 390140,-65056 654418,-65056 h 1644182 c 323619,0 582526,38878 777588,115676 194180,77696 338892,213238 434194,407493 94390,194285 142034,464471 142034,811455 v 1143062 z"
   id="path175" /><path
   style="fill:#addec7;fill-opacity:1"
   class="fil4"
   d="m 3137581.9,5938526 c 0,166117 23455,293746 64727,384022 41256,90291 110755,153238 209453,189752 98982,36634 241809,55123 427882,55123 h 1212097 c 195975,0 342512,-18100 440492,-53313 97935,-35213 165295,-96813 203141,-186147 37532,-88541 56649,-220478 56649,-394867 v -231338 h -2614439 v 236768 z m 2614439,-862734 v -235107 c 0,-184337 -22363,-324546 -67434,-419280 -45579,-95826 -118818,-161525 -218443,-197890 -100718,-36724 -244606,-55108 -430604,-55108 h -1180593 c -189588,0 -334314,19417 -435092,57816 -100493,38309 -171592,104981 -213058,200612 -41092,94869 -69214,235033 -69214,419265 v 229692 h 2614439 z m 895344,901253 c 0,243963 -21586,445473 -65624,605413 -44054,159910 -116873,290051 -218443,389422 -102498,100314 -240014,174390 -415301,220493 -174390,46986 -392863,70486 -654448,70486 h -1644182 c -250799,0 -463828,-24398 -638247,-73193 -174390,-47898 -316424,-124697 -426984,-227718 -109678,-103904 -189663,-235826 -240014,-396663 -50351,-160867 -75512,-356932 -75512,-588240 V 4833983 c 0,-261136 24263,-477126 73717,-646998 49424,-169857 127628,-305399 234599,-406610 106985,-101196 246327,-172595 418024,-215960 172595,-43381 390140,-65056 654418,-65056 h 1644182 c 323619,0 582526,38878 777588,115676 194180,77696 338892,213238 434194,407493 94390,194285 142034,464471 142034,811455 v 1143062 z"
   id="path177" />
</svg>
