<?xml version="1.0" encoding="UTF-8" standalone="no"?>
<!-- Created with Inkscape (http://www.inkscape.org/) -->

<svg
   xmlns:dc="http://purl.org/dc/elements/1.1/"
   xmlns:cc="http://creativecommons.org/ns#"
   xmlns:rdf="http://www.w3.org/1999/02/22-rdf-syntax-ns#"
   xmlns:svg="http://www.w3.org/2000/svg"
   xmlns="http://www.w3.org/2000/svg"
   xmlns:sodipodi="http://sodipodi.sourceforge.net/DTD/sodipodi-0.dtd"
   xmlns:inkscape="http://www.inkscape.org/namespaces/inkscape"
   width="69.414421mm"
   height="79.375008mm"
   viewBox="0 0 69.414421 79.375008"
   version="1.1"
   id="svg178805"
   inkscape:version="0.92.4 (5da689c313, 2019-01-14)"
   sodipodi:docname="FC Vaduz logo.svg">
  <defs
     id="defs178799" />
  <sodipodi:namedview
     id="base"
     pagecolor="#ffffff"
     bordercolor="#666666"
     borderopacity="1.0"
     inkscape:pageopacity="0.0"
     inkscape:pageshadow="2"
     inkscape:zoom="0.35"
     inkscape:cx="166.89131"
     inkscape:cy="87.143156"
     inkscape:document-units="mm"
     inkscape:current-layer="layer1"
     showgrid="false"
     inkscape:window-width="1366"
     inkscape:window-height="705"
     inkscape:window-x="-8"
     inkscape:window-y="-8"
     inkscape:window-maximized="1" />
  <metadata
     id="metadata178802">
    <rdf:RDF>
      <cc:Work
         rdf:about="">
        <dc:format>image/svg+xml</dc:format>
        <dc:type
           rdf:resource="http://purl.org/dc/dcmitype/StillImage" />
        <dc:title></dc:title>
      </cc:Work>
    </rdf:RDF>
  </metadata>
  <g
     inkscape:label="Layer 1"
     inkscape:groupmode="layer"
     id="layer1"
     transform="translate(-48.447507,-92.514956)">
    <path
       style="clip-rule:nonzero;fill:#ffffff;fill-opacity:1;fill-rule:nonzero;stroke:none;stroke-width:1.92335582"
       d="m 83.151285,171.88996 -0.270475,-0.39799 c -0.323088,-0.48087 -1.607794,-1.34486 -2.967683,-2.26145 -2.915077,-1.95341 -6.498829,-4.36512 -6.957132,-6.6867 -1.367386,0.51849 -3.583752,0.3004 -4.665643,-1.32228 -0.77385,-1.16456 -0.73628,-2.65967 0.0977,-3.81664 l 0.593541,-0.82648 v 1.02182 c 0,0.64612 0.368121,0.85646 0.593535,0.93159 0.315564,0.10522 0.661152,0.0218 0.811415,-0.18809 0.195347,-0.27806 0.270476,-0.54085 0.225387,-0.8189 -0.07513,-0.4209 -0.44325,-0.87156 -1.066859,-1.29976 -0.796395,-0.54848 -1.878285,-1.17955 -3.125459,-1.91585 -2.794876,-1.64537 -6.273447,-3.68143 -8.632564,-6.00296 -2.479328,-2.42675 -3.410949,-4.95868 -2.854978,-7.86625 -0.458298,0.81895 -0.841473,1.88581 -0.841473,2.87001 v 0.79643 l -0.623587,-0.6236 c -0.586022,-0.58604 -2.359116,-2.35915 -2.892543,-5.26672 -0.488339,-2.65209 0.150258,-4.50033 0.653639,-5.98044 0.255427,-0.72878 0.473345,-1.36737 0.495862,-1.94589 -3.966921,-1.84824 -3.238148,-7.73098 -3.200583,-7.98641 l 0.05234,-0.40563 0.383169,0.14284 c 0.02999,0.0164 2.915088,1.05181 4.755798,-0.2328 1.04432,-0.72877 1.577752,-2.08862 1.577752,-4.04208 0,-4.77833 -5.514622,-9.03075 -5.567212,-9.07584 l -0.210394,-0.15756 6.528891,-14.034515 0.247904,0.03816 c 0.08265,0.0055 8.17426,1.239683 14.635535,1.239683 5.37939,0 12.020985,-3.155527 12.088612,-3.193092 l 0.135211,-0.06761 0.142679,0.06761 c 0.06771,0.03816 6.709206,3.193092 12.08858,3.193092 6.46129,0 14.56043,-1.232159 14.63555,-1.239683 l 0.24791,-0.03816 6.5289,14.034515 -0.21039,0.15756 c -0.0523,0.0436 -5.5597,4.30498 -5.5597,9.07584 0,1.95341 0.52591,3.31325 1.57775,4.04203 1.84071,1.28471 4.71822,0.24806 4.74829,0.2328 l 0.38317,-0.14285 0.0523,0.40564 c 0.0376,0.2557 0.76634,6.13822 -3.20058,7.98641 0.0224,0.57851 0.24044,1.21716 0.49586,1.94594 0.50339,1.48006 1.142,3.32077 0.65364,5.98044 -0.53343,2.91504 -2.30651,4.68062 -2.89254,5.26666 l -0.62338,0.62361 v -0.79644 c 0,-0.9842 -0.37564,-2.05105 -0.84147,-2.87 0.55597,2.90757 -0.36812,5.43949 -2.84747,7.86625 -2.36663,2.314 -5.83769,4.35759 -8.632556,6.00296 -1.254682,0.73629 -2.336573,1.36737 -3.132978,1.91584 -0.623588,0.42799 -0.99172,0.87903 -1.059347,1.29977 -0.05234,0.27805 0.02235,0.54084 0.217864,0.81895 0.150203,0.21044 0.503386,0.29277 0.818928,0.18809 0.217917,-0.0752 0.586028,-0.28569 0.586028,-0.93164 v -1.02177 l 0.601048,0.82642 c 0.826446,1.15703 0.871529,2.65967 0.0977,3.81664 -1.089388,1.62285 -3.30577,1.84072 -4.673139,1.32234 -0.458298,2.32905 -4.042067,4.73323 -6.957143,6.69417 -1.359873,0.90907 -2.644618,1.77311 -2.967683,2.25392 l -0.278,0.398"
       id="path168207"
       inkscape:connector-curvature="0" />
    <path
       style="clip-rule:nonzero;fill:#bf173f;fill-opacity:1;fill-rule:nonzero;stroke:none;stroke-width:1.92335582"
       d="m 73.564551,161.46933 v 0.57846 c 0,2.12624 3.876766,4.73329 6.7092,6.64161 1.277243,0.85652 2.336589,1.56272 2.877534,2.11119 0.555966,-0.54847 1.60781,-1.25467 2.88503,-2.11119 2.832435,-1.90832 6.709207,-4.51537 6.709207,-6.64161 v -0.57846 l 0.495862,0.30041 c 1.036802,0.61602 3.253184,0.56347 4.237402,-0.9166 0.473345,-0.70625 0.563483,-1.57029 0.285468,-2.35915 -0.18019,0.31568 -0.458298,0.54848 -0.826425,0.66117 -0.593546,0.19518 -1.224641,0.0164 -1.547706,-0.42798 -0.300516,-0.4209 -0.41321,-0.86404 -0.330612,-1.31482 0.105225,-0.60855 0.555988,-1.18701 1.337351,-1.72796 0.811405,-0.56352 1.900813,-1.20212 3.170516,-1.94594 2.757322,-1.6228 6.198322,-3.64381 8.504852,-5.89779 2.74228,-2.69718 3.441,-5.39441 2.26144,-8.75275 l -0.37564,-1.05181 0.88655,0.68363 c 0.81893,0.63865 1.73552,2.29907 1.97594,3.84674 0.73628,-0.8039 1.87077,-2.26897 2.26896,-4.47029 0.4583,-2.48683 -0.14273,-4.23742 -0.63111,-5.64236 -0.30051,-0.87903 -0.56348,-1.63032 -0.5259,-2.38919 l 0.008,-0.21045 0.19535,-0.0752 c 3.15551,-1.31481 3.12545,-5.65741 3.0353,-6.99474 -0.92411,0.27043 -3.24566,0.74383 -4.94362,-0.43561 -1.23218,-0.86404 -1.86327,-2.40419 -1.86327,-4.58304 h 0.66115 -0.66115 c 0,-4.60549 4.56045,-8.57991 5.6198,-9.43643 l -6.10811,-13.110393 c -1.40495,0.202816 -8.61754,1.217112 -14.492798,1.217112 -5.153981,0 -11.202047,-2.712223 -12.231331,-3.193038 -1.021787,0.48087 -7.069841,3.193038 -12.223833,3.193038 -5.875253,0 -13.080326,-1.014242 -14.49279,-1.217112 l -6.100645,13.110393 c 1.051834,0.85646 5.61229,4.83088 5.61229,9.43643 0,2.17885 -0.623587,3.719 -1.855736,4.58304 -1.705477,1.17954 -4.027024,0.7062 -4.951138,0.43561 -0.09018,1.33733 -0.120217,5.67993 3.035294,6.99474 l 0.195346,0.0752 0.0076,0.21045 c 0.03762,0.75887 -0.225387,1.51016 -0.525903,2.38919 -0.480815,1.40494 -1.089398,3.15553 -0.6311,5.64236 0.398217,2.20132 1.532676,3.66639 2.268962,4.47029 0.240434,-1.54767 1.157014,-3.20809 1.975942,-3.84674 l 0.886549,-0.68368 -0.375645,1.05186 c -1.179558,3.35834 -0.480814,6.05557 2.268962,8.75275 2.306526,2.26145 5.740014,4.27499 8.504838,5.90531 1.262201,0.7363 2.351604,1.3749 3.170532,1.93842 0.781363,0.54084 1.232148,1.11941 1.337334,1.72796 0.07513,0.45089 -0.03762,0.89408 -0.33808,1.31482 -0.315564,0.44325 -0.954166,0.6236 -1.547701,0.42798 -0.360652,-0.11286 -0.646126,-0.34566 -0.826441,-0.66117 -0.277999,0.78891 -0.187823,1.6529 0.285468,2.35915 1.021782,1.52515 3.320795,1.46507 4.229878,0.9166 z m 9.586734,10.42063 -0.270475,-0.39799 c -0.323088,-0.48087 -1.607794,-1.34486 -2.967683,-2.26145 -2.915077,-1.95341 -6.498829,-4.36512 -6.957132,-6.6867 -1.367386,0.51849 -3.583752,0.3004 -4.665643,-1.32228 -0.77385,-1.16456 -0.73628,-2.65967 0.0977,-3.81664 l 0.593541,-0.82648 v 1.02182 c 0,0.64612 0.368121,0.85646 0.593535,0.93159 0.315564,0.10522 0.661152,0.0218 0.811415,-0.18809 0.195347,-0.27806 0.270476,-0.54085 0.225387,-0.8189 -0.07513,-0.4209 -0.44325,-0.87156 -1.066859,-1.29976 -0.796395,-0.54848 -1.878285,-1.17955 -3.125459,-1.91585 -2.794876,-1.64537 -6.273447,-3.68143 -8.632564,-6.00296 -2.479328,-2.42675 -3.410949,-4.95868 -2.854978,-7.86625 -0.465822,0.81895 -0.841473,1.88581 -0.841473,2.87001 v 0.79643 l -0.623587,-0.6236 c -0.586022,-0.58604 -2.366629,-2.35915 -2.892543,-5.26672 -0.488339,-2.65209 0.150258,-4.50033 0.653639,-5.98044 0.255427,-0.72878 0.473345,-1.36737 0.495862,-1.94589 -3.966921,-1.84824 -3.238148,-7.73098 -3.200583,-7.98641 l 0.05234,-0.40563 0.383169,0.14284 c 0.02999,0.0164 2.915088,1.05181 4.755798,-0.2328 1.04432,-0.72877 1.577752,-2.08862 1.577752,-4.04208 0,-4.77833 -5.514622,-9.03075 -5.567212,-9.07584 l -0.210394,-0.15756 6.528891,-14.034515 0.247904,0.03816 c 0.08265,0.0055 8.17426,1.239683 14.635535,1.239683 5.37939,0 12.020985,-3.155527 12.088612,-3.193092 l 0.135211,-0.06761 0.142679,0.06761 c 0.06771,0.03816 6.709206,3.193092 12.08858,3.193092 6.46129,0 14.56043,-1.232159 14.63555,-1.239683 l 0.24791,-0.03816 6.5289,14.034515 -0.21039,0.15756 c -0.0523,0.0436 -5.5597,4.30498 -5.5597,9.07584 0,1.95341 0.53343,3.31325 1.57775,4.04203 1.84071,1.28471 4.71822,0.24806 4.74829,0.2328 l 0.38317,-0.14285 0.0523,0.40564 c 0.0376,0.2557 0.76634,6.13822 -3.20058,7.98641 0.0224,0.57851 0.24044,1.21716 0.49586,1.94594 0.50339,1.48006 1.142,3.32077 0.65364,5.98044 -0.53343,2.91504 -2.30651,4.68062 -2.89254,5.26666 l -0.62338,0.62361 v -0.79644 c 0,-0.9842 -0.37564,-2.05105 -0.84147,-2.87 0.55597,2.90757 -0.36812,5.43949 -2.84747,7.86625 -2.36663,2.314 -5.83769,4.35759 -8.632556,6.00296 -1.254682,0.73629 -2.336573,1.36737 -3.132978,1.91584 -0.623588,0.42799 -0.99172,0.87903 -1.059347,1.29977 -0.05234,0.27805 0.02235,0.54084 0.217864,0.81895 0.150203,0.21044 0.503386,0.29277 0.818928,0.18809 0.217917,-0.0752 0.586028,-0.28569 0.586028,-0.93164 v -1.02177 l 0.601048,0.82642 c 0.826446,1.15703 0.871529,2.65967 0.0977,3.81664 -1.089388,1.62285 -3.30577,1.84072 -4.673139,1.32234 -0.458298,2.32905 -4.042067,4.73323 -6.957143,6.69417 -1.359873,0.90907 -2.644618,1.77311 -2.967683,2.25392 l -0.278,0.398"
       id="path168209"
       inkscape:connector-curvature="0" />
    <path
       inkscape:connector-curvature="0"
       id="path168213"
       d="m 107.01292,116.07511 c 0.83395,-3.44852 3.80163,-7.35534 3.80163,-7.35534 l -4.37263,-9.428964 c 0,0 -7.813639,0.44325 -12.351551,1.187074 -4.537923,0.74382 -10.931582,3.65139 -10.931582,3.65139 0,0 -6.401161,-2.90757 -10.939078,-3.65139 -4.537924,-0.743824 -12.351553,-1.187074 -12.351553,-1.187074 l -4.372634,9.428964 c 0,0 2.96017,3.90682 3.801637,7.35534 0.924114,3.79412 0.240434,5.64983 -1.066865,7.98641 -1.62283,2.90004 0.315564,4.10216 1.562727,3.68895 1.059352,-0.36038 1.62283,-1.81067 0.405686,-3.29074 1.359873,0.27806 2.178801,1.1946 2.494354,1.94589 1.487593,3.51612 -2.629586,5.59727 -2.126211,7.41542 1.502624,-0.74377 4.109671,-0.96916 6.341063,0.39091 1.855741,1.12699 3.726503,3.57626 3.193076,6.66413 -1.870767,-3.5086 -4.35009,-3.86926 -6.123184,-3.03531 -2.712233,1.26972 -2.434251,5.30428 0.360652,5.4921 1.502624,0.10523 2.922601,-1.8858 1.367386,-3.65886 5.078863,1.73549 3.410956,6.88199 3.215615,7.43799 0.586022,-0.4885 1.833197,-0.96921 2.97519,-0.51849 0.916596,0.36038 1.622831,1.26973 1.472567,2.59953 -0.360652,-0.74376 -1.247174,-1.26972 -1.968434,-0.78885 -0.698717,0.4656 -0.833954,1.5101 0.277999,2.2464 2.682182,1.79563 3.929356,3.63634 4.07962,5.07137 1.532675,-0.40563 2.719746,0.24807 3.350857,0.87151 -1.397454,0.24807 -2.00601,1.23963 -1.878285,2.29901 0.112693,0.90155 0.773856,1.84819 1.705472,2.56197 2.013523,1.5402 3.809144,3.148 4.222359,3.98947 0.405741,-0.84147 2.201362,-2.44927 4.214863,-3.98947 0.931633,-0.71378 1.59279,-1.66042 1.705478,-2.56197 0.127687,-1.05938 -0.480815,-2.05111 -1.878269,-2.29901 0.631089,-0.6236 1.818166,-1.27725 3.35083,-0.87151 0.150204,-1.43503 1.397454,-3.27574 4.079631,-5.07137 1.111931,-0.7363 0.976699,-1.78058 0.277999,-2.2464 -0.72126,-0.48087 -1.60781,0.0436 -1.96844,0.78885 -0.150203,-1.3298 0.555966,-2.23893 1.472583,-2.59953 1.141988,-0.45088 2.389152,0.0327 2.97518,0.51849 -0.195346,-0.556 -1.863254,-5.7025 3.215622,-7.43799 -1.555227,1.77306 -0.13521,3.76403 1.36737,3.65886 2.79488,-0.18755 3.07287,-4.22238 0.36065,-5.4921 -1.77308,-0.83395 -4.252406,-0.47324 -6.123178,3.03531 -0.533427,-3.08787 1.337329,-5.53714 3.193081,-6.66413 2.223877,-1.35985 4.838437,-1.13446 6.341057,-0.39091 0.50339,-1.81815 -3.6138,-3.8993 -2.12622,-7.41542 0.31557,-0.75129 1.1345,-1.66789 2.48685,-1.94589 -1.2096,1.48007 -0.64614,2.93009 0.40574,3.29074 1.25468,0.41327 3.19308,-0.78891 1.56272,-3.68895 -1.29976,-2.33658 -1.98346,-4.19229 -1.05934,-7.98641"
       style="fill:#bf173f;fill-opacity:1;fill-rule:nonzero;stroke:none;stroke-width:1.92335582" />
    <path
       inkscape:connector-curvature="0"
       id="path168215"
       d="m 90.198577,111.55221 c 0,0 -5.146479,13.80907 -7.047292,14.91354 -1.885793,-1.10447 -7.03979,-14.91354 -7.03979,-14.91354 h -11.89325 v 0.36801 c 1.194584,0 2.051077,1.63038 2.351604,2.29155 0.939134,2.07357 3.313282,8.57991 7.069831,14.86087 4.838444,8.08411 8.61003,11.62281 9.466522,13.97438 h 0.0977 c 0.856487,-2.35157 4.628072,-5.89027 9.466528,-13.97438 3.756543,-6.28096 6.138198,-12.7873 7.06983,-14.86087 0.30052,-0.66117 1.15702,-2.29155 2.35911,-2.29155 v -0.36801 H 90.19861"
       style="fill:#ffffff;fill-opacity:1;fill-rule:nonzero;stroke:none;stroke-width:1.92335582" />
  </g>
</svg>
