<?xml version="1.0" encoding="utf-8"?>
<!-- Generator: Adobe Illustrator 13.0.2, SVG Export Plug-In . SVG Version: 6.00 Build 14948)  -->
<!DOCTYPE svg PUBLIC "-//W3C//DTD SVG 1.0//EN" "http://www.w3.org/TR/2001/REC-SVG-20010904/DTD/svg10.dtd">
<svg version="1.0" id="Ebene_1" xmlns="http://www.w3.org/2000/svg" xmlns:xlink="http://www.w3.org/1999/xlink" x="0px" y="0px"
	 width="325.277px" height="160.02px" viewBox="0 0 325.277 160.02" enable-background="new 0 0 325.277 160.02"
	 xml:space="preserve">
<path fill-rule="evenodd" clip-rule="evenodd" fill="#F3C700" d="M319.34,118.931c-5.939,0-7.916-0.942-7.916-6.507
	c0,0,0-3.463,0-5.73c3.978-0.432,7.415-1.963,10.027-4.525c3.363-3.296,3.826-7.223,3.826-10.973c0-1.48-0.27-3.752-0.737-6.236
	l-6.32-33.232c-0.098-0.517-0.144-0.985-0.144-1.419c0-1.981,0.958-3.203,2.198-4.784c1.451-1.85,3.257-4.152,3.257-7.858V1.631
	l-12.874,12.037c-1.446,1.35-2.572,2.596-3.433,3.831c-1.336-4.79-3.009-8.506-5.563-11.01c-3.62-3.547-13.507-5.461-20.972-5.461
	c-5.809,0-10.896,0.4-14.711,1.158c-3.233,0.642-6.943,1.739-6.943,4.549v8.788c0,1.261,1.041,2.282,2.327,2.282
	c3.863,0,5.822,0.653,5.822,1.94c0,1.115-2.263,2.169-4.658,2.169c-1.285,0-2.327,1.022-2.327,2.283v2.168
	c0,2.179,1.006,5.753,7.47,6.129l-4.856,5.149L251.671,26.07c-3.448-3.583-6.413-5.526-12.194-5.526
	c-6.292,0-11.41,5.018-11.41,11.186c0,0.176,0.007,0.353,0.014,0.526C213.189,12.692,189.398,0,162.639,0
	c-26.758,0-50.549,12.692-65.441,32.256c0.007-0.174,0.014-0.35,0.014-0.526c0-6.168-5.119-11.186-11.41-11.186
	c-5.782,0-8.746,1.942-12.196,5.526L62.465,37.644l-4.854-5.15c6.462-0.375,7.468-3.951,7.468-6.128v-2.168
	c0-1.26-1.042-2.283-2.328-2.283c-2.394,0-4.657-1.054-4.657-2.169c0-1.287,1.958-1.94,5.821-1.94c1.286,0,2.328-1.021,2.328-2.282
	V6.735c0-2.81-3.711-3.907-6.944-4.549c-3.814-0.758-8.901-1.158-14.71-1.158c-7.465,0-17.352,1.914-20.972,5.462
	c-2.555,2.503-4.229,6.22-5.564,11.009c-0.859-1.235-1.986-2.481-3.431-3.831L1.747,1.631v36.034c0,3.707,1.805,6.009,3.256,7.858
	c1.241,1.582,2.198,2.803,2.198,4.784c0,0.434-0.045,0.902-0.144,1.419l-6.32,33.232C0.269,87.443,0,89.715,0,91.195
	c0,3.75,0.463,7.677,3.825,10.973c2.614,2.563,6.052,4.094,10.029,4.525c0,2.268,0,5.73,0,5.73c0,5.564-1.977,6.507-7.917,6.507
	c-1.286,0-2.328,1.021-2.328,2.282v26.363c0,5.915,6.104,11.302,12.807,11.302c5.474,0,11.292-3.562,11.292-10.16
	c0-3.944-2.578-6.468-4.424-8.173c0-1.375,0-6.999,0-9.678c6.304-0.813,14.319-4.895,14.319-14.105c0,0,0-2.488,0-5.143
	c4.092,3.533,9.812,8.478,10.711,9.254c0,1.824,0,16.32,0,16.32c0,0.615,0.257,1.211,0.71,1.641l16.044,15.192
	c1.79,1.694,5.121,4.852,10.255,4.852c6.475,0,11.176-4.657,11.176-11.071c0-4.664-3.39-9.483-9.874-10.153
	c-1.009-1.116-5.672-6.266-5.672-6.266c-1.685-1.86-1.685-2.906-1.685-4.355v-8.445c0-7.105-4.667-12.266-12.179-13.467
	l-16.845-2.693c1.104-1.283,2.398-2.79,3.6-4.186c0.241,0.56,0.701,1.021,1.304,1.247c0.899,0.337,1.917,0.1,2.563-0.602
	l7.483-8.119c5.006,5.379,9.506,10.213,9.999,10.744c0,0.054,0,0.185,0,0.185c0,5.788,4.805,10.497,10.711,10.497
	c4.235,0,7.905-2.42,9.642-5.929c11.107,31.258,41.468,53.755,77.091,53.755s65.982-22.497,77.093-53.755
	c1.735,3.509,5.404,5.929,9.641,5.929c5.905,0,10.711-4.709,10.711-10.497c0,0,0-0.131,0-0.185
	c0.492-0.531,4.992-5.365,9.999-10.744l7.482,8.119c0.646,0.701,1.665,0.938,2.563,0.602c0.604-0.227,1.063-0.688,1.305-1.247
	c1.2,1.396,2.494,2.902,3.599,4.186l-16.844,2.693c-7.514,1.201-12.181,6.361-12.181,13.467v8.445c0,1.449,0,2.495-1.684,4.355
	c0,0-4.664,5.149-5.672,6.266c-6.483,0.67-9.874,5.489-9.874,10.153c0,6.414,4.701,11.071,11.177,11.071
	c5.133,0,8.465-3.157,10.254-4.852l16.045-15.192c0.453-0.43,0.71-1.025,0.71-1.641c0,0,0-14.496,0-16.32
	c0.9-0.776,6.619-5.721,10.711-9.254c0,2.654,0,5.143,0,5.143c0,9.211,8.016,13.293,14.32,14.105c0,2.679,0,8.303,0,9.678
	c-1.846,1.705-4.425,4.229-4.425,8.173c0,6.599,5.818,10.16,11.293,10.16c6.702,0,12.808-5.387,12.808-11.302v-26.363
	C321.67,119.951,320.627,118.931,319.34,118.931L319.34,118.931L319.34,118.931z M19.149,93.326
	c-1.532,2.547-2.768,2.547-3.433,2.547c-2.655,0-5.821-0.932-5.821-5.361c0-2.36,0.275-3.768,0.593-5.4l0.271-1.439l4.185-23.986
	l14.562,16.391L19.149,93.326L19.149,93.326L19.149,93.326z M68.529,76.299c1.913-2.076,6.817-7.397,6.817-7.397
	c2.234-2.424,3.337-5.288,3.337-8.277c0-2.558-0.81-5.208-2.408-7.758c2.605-2.978,7.766-8.881,8.765-10.024
	c0.254,0.017,0.51,0.072,0.762,0.072c1.882,0,3.658-0.452,5.225-1.247c-6.371,11.392-9.999,24.459-9.999,38.342
	c0,3.832,0.282,7.6,0.817,11.293C80.135,89.374,70.568,78.596,68.529,76.299L68.529,76.299L68.529,76.299z M243.434,91.303
	c0.534-3.689,0.816-7.461,0.816-11.293c0-13.883-3.627-26.951-9.999-38.342c1.565,0.795,3.343,1.247,5.226,1.247
	c0.251,0,0.508-0.056,0.761-0.072c0.999,1.143,6.16,7.046,8.765,10.024c-1.598,2.552-2.408,5.202-2.408,7.758
	c0,2.99,1.104,5.853,3.339,8.277c0,0,4.903,5.321,6.815,7.397C254.71,78.596,245.143,89.374,243.434,91.303L243.434,91.303
	L243.434,91.303z M306.13,93.326l-10.357-17.25l14.562-16.391l4.186,23.986l0.27,1.439c0.318,1.633,0.593,3.04,0.593,5.4
	c0,4.43-3.165,5.361-5.82,5.361C308.896,95.873,307.66,95.873,306.13,93.326L306.13,93.326z"/>
<path fill-rule="evenodd" clip-rule="evenodd" fill="#FFFFFF" d="M85.685,80.01c0-41.6,34.521-75.444,76.954-75.444
	c42.434,0,76.953,33.844,76.953,75.444c0,41.6-34.52,75.445-76.953,75.445C120.207,155.455,85.685,121.609,85.685,80.01
	L85.685,80.01z"/>
<path fill-rule="evenodd" clip-rule="evenodd" fill="#0098C9" d="M89.76,80.01c0,39.396,32.693,71.447,72.878,71.447
	c40.185,0,72.879-32.051,72.879-71.447c0-39.398-32.694-71.449-72.879-71.449C122.453,8.561,89.76,40.612,89.76,80.01L89.76,80.01z"
	/>
<path fill-rule="evenodd" clip-rule="evenodd" fill="#FFFFFF" d="M162.639,11.755c-37.843,0-68.729,29.757-69.598,66.656h139.198
	C231.368,41.512,200.482,11.755,162.639,11.755L162.639,11.755z"/>
<path fill-rule="evenodd" clip-rule="evenodd" fill="#FFFFFF" d="M120.378,81.607v52.602c8.073,6.063,17.532,10.437,27.825,12.574
	V81.607H120.378L120.378,81.607z"/>
<path fill-rule="evenodd" clip-rule="evenodd" fill="#FFFFFF" d="M177.074,81.607v65.176c10.294-2.138,19.752-6.511,27.824-12.574
	V81.607H177.074L177.074,81.607z"/>
<polygon fill-rule="evenodd" clip-rule="evenodd" fill="#0098C9" points="140.751,33.727 140.751,38.749 124.918,38.749 
	124.918,48.964 139.821,48.964 139.821,53.986 124.918,53.986 124.918,69.223 119.331,69.223 119.331,33.727 140.751,33.727 "/>
<polygon fill-rule="evenodd" clip-rule="evenodd" fill="#0098C9" points="178.938,69.223 178.938,64.202 199.894,38.749 
	180.336,38.749 180.336,33.727 207.344,33.727 207.344,38.749 186.389,64.202 206.879,64.202 206.879,69.223 178.938,69.223 "/>
<path fill-rule="evenodd" clip-rule="evenodd" fill="#0098C9" d="M161.708,64.83c-3.214,0-5.658-1.094-7.299-3.31
	c-1.642-2.217-2.481-5.555-2.481-10.044s0.839-7.828,2.481-10.044c1.641-2.216,4.085-3.309,7.299-3.309
	c2.289,0,4.036,0.79,5.209,1.875c1.175,1.086,1.774,2.471,1.774,3.66h3.027h3.027c0-2.444-1.008-5.099-3.143-7.141
	s-5.395-3.474-9.896-3.474c-5.915,0-9.873,2.059-12.352,5.393c-2.481,3.334-3.481,7.942-3.481,13.04c0,5.098,1,9.707,3.481,13.04
	c2.479,3.334,6.437,5.393,12.352,5.393c4.501,0,7.761-1.431,9.896-3.474c2.135-2.042,3.143-4.696,3.143-7.141h-3.027h-3.027
	c0,1.189-0.6,2.574-1.774,3.66C165.744,64.04,163.997,64.83,161.708,64.83L161.708,64.83z"/>
<path fill-rule="evenodd" clip-rule="evenodd" fill="#FFFFFF" d="M268.938,109.625c-3.091,0.492-8.272,2.313-8.272,8.962v8.445
	c0,1.786,0,4.231-2.859,7.386l-6.293,6.953c-0.425,0.468-1.027,0.744-1.665,0.766c-4.43,0.145-6.413,2.951-6.413,5.67
	c0,3.892,2.619,6.507,6.52,6.507c2.651,0,4.588-1.372,6.075-2.693c0.654-0.716,0.941-1.499,1.018-2.478l0.491-6.318
	c0.15-1.932,0.765-2.988,2.028-4.182l1.326-1.258l0.327,7.931c0.031,0.741,0.353,1.07,0.862,0.589l0.782-0.738
	c0.826-0.783,1.172-1.633,1.257-2.721l0.491-6.322c0.15-1.932,0.765-2.984,2.028-4.183l1.325-1.255l0.328,7.932
	c0.031,0.74,0.353,1.07,0.862,0.588l3.15-2.983c0-1.726,0-16.38,0-16.38c0-0.656,0.287-1.279,0.788-1.712
	c0,0,9.321-8.056,13.022-11.252C280.954,107.703,268.938,109.625,268.938,109.625L268.938,109.625z"/>
<path fill-rule="evenodd" clip-rule="evenodd" fill="#FFFFFF" d="M317.012,129.771c0,0.949-0.808,0.84-1.863,0.039l-3.492-2.65
	v2.154c0,0.914,0.304,2.063,0.949,2.8l3.223,3.686c0.806,0.921,1.184,1.507,1.184,2.038v0.68c0,0.95-0.808,0.84-1.863,0.039
	l-3.492-2.654v2.158c0,0.911,0.304,2.06,0.949,2.801l3.223,3.682c0.806,0.925,1.184,1.506,1.184,2.037v0.996
	c0,3.398-4.036,6.737-8.149,6.737c-3.195,0-6.635-1.751-6.635-5.596c0-2.126,1.617-3.615,3.181-5.054l0.524-0.486
	c0.464-0.432,0.718-1.023,0.718-1.65v-12.783c0-1.258-1.042-2.283-2.328-2.283c-3.335,0-11.991-1.743-11.991-9.699v-12.1
	c0-0.538-0.195-1.059-0.549-1.474l-9.224-10.717c0.818-1.991,2.214-4.012,4.361-6.433l5.628-6.334l9.569,15.935
	c1.939,3.229,4.374,4.799,7.444,4.799c6.364,0,10.478-3.896,10.478-9.927c0-2.793-0.345-4.554-0.676-6.258l-0.255-1.352
	L315.741,63.6l4.221,22.191c0.412,2.188,0.658,4.207,0.658,5.404c0,3.289-0.411,5.734-2.46,7.744
	c-2.253,2.207-5.302,3.328-9.064,3.328c-1.287,0-2.328,1.02-2.328,2.281v7.875c0,9.317,5.789,10.788,10.244,11.021V129.771
	L317.012,129.771z"/>
<path fill-rule="evenodd" clip-rule="evenodd" fill="#FFFFFF" d="M318.876,36.979v0.686c0,2.154-1.013,3.443-2.292,5.077
	c-1.436,1.83-3.165,4.033-3.165,7.54l-2.868-16.437c-0.653-3.744-1.056-6.381-1.056-8.45c0-3.57,1.198-5.453,4.374-8.422
	l5.007-4.679v2.886c0,1.979-0.532,2.98-1.858,4.571l-2.968,3.561c-0.989,1.184-1.466,2.703-1.45,4.805
	c0.006,0.785,0.08,1.651,0.223,2.611l4.779-5.439c0.661-0.753,1.274-0.806,1.274-0.178v1.255c0,1.522-0.389,2.245-1.074,3.281
	l-2.715,4.11c-1.192,1.808-1.345,3.1-1.143,4.317l0.331,1.988l2.577-2.705C317.865,36.294,318.876,35.838,318.876,36.979
	L318.876,36.979z"/>
<path fill-rule="evenodd" clip-rule="evenodd" fill="#FFFFFF" d="M242.992,38.979c-0.545-0.624-1.391-0.913-2.213-0.755
	c-0.438,0.084-0.877,0.125-1.303,0.125c-3.724,0-6.752-2.97-6.752-6.619c0-3.65,3.028-6.62,6.752-6.62c3.82,0,5.715,0.88,8.81,4.093
	l11.359,11.801l-7.721,8.191L242.992,38.979L242.992,38.979z"/>
<path fill-rule="evenodd" clip-rule="evenodd" fill="#FFFFFF" d="M307.386,42.784l-0.567-3.249
	c-1.221,3.891-3.235,7.602-5.946,10.792c-2.455,3.11-2.291,6.713-1.647,9.319c-0.776,0.009-1.563-0.281-2.114-0.843l-0.837-0.853
	c-0.647-0.66-1.16-1.11-2.158,0.016l-6.995,7.866c-1.863,2.097-2.327,4.54-2.327,7.964c-1.631-0.685-2.477-2.283-2.477-4.108
	c0-1.827,0.467-3.84,2.328-5.936l13.348-15.023c5.379-6.054,7.945-14.714,6.541-22.063c-0.134-0.697-0.27-1.372-0.404-2.037
	c-1.767,4.663-5.304,9.163-9.16,13.685l-8.316,9.761c-2.783,3.258-2.575,7.051-1.851,9.771c-0.775,0.023-1.567-0.252-2.129-0.805
	l-0.854-0.838c-0.66-0.648-1.181-1.089-2.158,0.055l-11.238,13.181c-1.863,2.185-2.328,4.769-2.328,7.965
	c-1.631-0.686-2.475-2.283-2.475-4.11c0-1.826,0.465-3.752,2.328-5.935l26.521-31.094c8.088-9.484,11.795-15.989,8.224-23.186
	c-0.427-0.857-0.873-1.597-1.35-2.235c0.115,9.726-8.293,8.237-8.293,10.958c0,4.166-1.107,7.583-3.981,10.744l-0.127,0.144
	c-2.885,3.172-2.794,6.971-2.154,9.71c-0.775,0-1.558-0.3-2.104-0.869l-0.826-0.864c-0.64-0.667-1.146-1.124-2.158-0.009
	l-7.335,8.071c-2.885,3.173-2.794,6.971-2.152,9.71c-0.777,0-1.56-0.299-2.104-0.867l-0.828-0.863
	c-0.64-0.668-1.146-1.125-2.158-0.01l-4.448,4.896c-1.861,2.049-2.328,4.539-2.328,7.963c-1.63-0.685-2.476-2.283-2.476-4.109
	s0.466-3.885,2.33-5.935l26.436-29.094c2.324-2.559,3.969-6.021,3.969-9.988v-0.913c0-3.709,6.055-1.313,6.055-7.248V11.3
	c0-0.99-0.466-2.132-1.241-2.892c-0.777-0.761-1.939-1.217-3.184-1.217c-1.783,0-3.491,1.065-4.655,2.282
	c-0.873-2.911-1.804-3.881-4.89-3.881c-9.883,0-15.392,1.194-17.017,1.942c0,0.991,0.018,3.658,0.018,5.811
	c6.651,0.589,8.15,3.722,8.15,6.399c0,3.622-3.29,5.857-6.984,6.521c0,0.009,0,0.099,0,0.099c0,0.52,0,1.599,3.958,1.599h0.932
	c3.376,0,6.351-2.566,8.141-4.463l1.341-1.423c1.509-1.602,2.393-4.216,2.393-6.784V9.93c0-0.913-0.814-1.712-2.327-1.712
	c-2.679,0-3.668,2.511-6.695,2.511c-0.757,0-1.688-1.027-1.688-2.168c0-0.384,0-0.584,0-0.685c0-0.514,0.595-0.729,1.461-0.805
	c2.292-0.203,5.059-0.335,8.319-0.335c0.322,0,0.646,0.003,0.969,0.011c2.29,0.055,3.163,4.744,3.163,8.206v1.597
	c0,2.74-1.245,5.797-3.902,8.615l-6.438,6.82c-2.938,3.123-2.916,6.922-2.324,9.672c-0.777-0.013-1.555-0.326-2.088-0.904
	l-0.812-0.877c-0.627-0.68-1.126-1.144-2.158-0.047L254.97,52.69c-4.338,4.602-4.929,9.519-1.581,13.15l8.198,8.9
	c0.792,0.857,0.803,2.158,0.029,3.028l-14.936,16.825c-2.899,3.268-3.363,4.58-3.363,7.103c0,3.271,2.716,5.933,6.055,5.933
	s6.054-2.662,6.054-5.933v-1.07c0-0.57,0.217-1.116,0.608-1.538l16.047-17.244c1.706-1.832,2.32-3.66,2.32-5.943
	c0-2.396-0.466-3.652-0.931-4.908c3.435,0.513,4.773,4.394,4.773,6.962c0,3.271-1.2,5.334-3.002,7.266
	c-0.66,0.709-1.332,1.432-2.008,2.158c1.341,1.453,3.02,3.278,4.493,4.877c1.028-3.375,3.042-6.241,5.683-9.215l19.903-22.403
	C307.543,55.876,308.712,50.394,307.386,42.784L307.386,42.784z"/>
<path fill-rule="evenodd" clip-rule="evenodd" fill="#FFFFFF" d="M56.34,109.625c3.09,0.492,8.273,2.313,8.273,8.962v8.445
	c0,1.786,0,4.231,2.858,7.386l6.294,6.953c0.424,0.468,1.025,0.744,1.665,0.766c4.429,0.145,6.413,2.951,6.413,5.67
	c0,3.892-2.62,6.507-6.519,6.507c-2.653,0-4.588-1.372-6.075-2.693c-0.654-0.716-0.941-1.499-1.018-2.478l-0.493-6.318
	c-0.149-1.932-0.764-2.988-2.027-4.182l-1.325-1.258l-0.329,7.931c-0.03,0.741-0.352,1.07-0.863,0.589l-0.782-0.738
	c-0.827-0.783-1.17-1.633-1.255-2.721l-0.493-6.322c-0.149-1.932-0.764-2.984-2.028-4.183l-1.325-1.255l-0.329,7.932
	c-0.03,0.74-0.353,1.07-0.862,0.588l-3.15-2.983c0-1.726,0-16.38,0-16.38c0-0.656-0.287-1.279-0.789-1.712
	c0,0-9.321-8.056-13.021-11.252C44.324,107.703,56.34,109.625,56.34,109.625L56.34,109.625z"/>
<path fill-rule="evenodd" clip-rule="evenodd" fill="#FFFFFF" d="M8.266,129.771c0,0.949,0.808,0.84,1.864,0.039l3.492-2.65v2.154
	c0,0.914-0.304,2.063-0.95,2.8L9.45,135.8c-0.807,0.921-1.184,1.507-1.184,2.038v0.68c0,0.95,0.808,0.84,1.864,0.039l3.492-2.654
	v2.158c0,0.911-0.304,2.06-0.95,2.801l-3.222,3.682c-0.807,0.925-1.184,1.506-1.184,2.037v0.996c0,3.398,4.036,6.737,8.15,6.737
	c3.195,0,6.635-1.751,6.635-5.596c0-2.126-1.617-3.615-3.181-5.054l-0.525-0.486c-0.464-0.432-0.717-1.023-0.717-1.65v-12.783
	c0-1.258,1.043-2.283,2.328-2.283c3.335,0,11.991-1.743,11.991-9.699v-12.1c0-0.538,0.194-1.059,0.549-1.474l9.224-10.717
	c-0.818-1.991-2.214-4.012-4.362-6.433l-5.628-6.334L23.161,95.64c-1.938,3.229-4.374,4.799-7.444,4.799
	c-6.365,0-10.478-3.896-10.478-9.927c0-2.793,0.344-4.554,0.676-6.258l0.254-1.352L9.537,63.6L5.315,85.791
	c-0.412,2.188-0.659,4.207-0.659,5.404c0,3.289,0.412,5.734,2.461,7.744c2.252,2.207,5.302,3.328,9.065,3.328
	c1.286,0,2.328,1.02,2.328,2.281v7.875c0,9.317-5.79,10.788-10.245,11.021V129.771L8.266,129.771z"/>
<path fill-rule="evenodd" clip-rule="evenodd" fill="#FFFFFF" d="M6.404,36.979v0.686c0,2.154,1.011,3.443,2.291,5.077
	c1.435,1.83,3.163,4.033,3.165,7.541l2.868-16.438c0.653-3.744,1.055-6.38,1.055-8.45c0-3.569-1.198-5.453-4.374-8.422l-5.005-4.679
	v2.887c0,1.978,0.528,2.979,1.856,4.57l2.969,3.561c0.989,1.185,1.465,2.703,1.45,4.805c-0.006,0.785-0.08,1.651-0.222,2.611
	l-4.78-5.44c-0.662-0.752-1.272-0.804-1.272-0.177v1.255c0,1.522,0.388,2.245,1.073,3.281l2.714,4.11
	c1.192,1.808,1.345,3.1,1.142,4.317l-0.331,1.988l-2.576-2.705C7.413,36.294,6.404,35.838,6.404,36.979L6.404,36.979z"/>
<path fill-rule="evenodd" clip-rule="evenodd" fill="#FFFFFF" d="M82.285,38.979c0.545-0.624,1.391-0.913,2.214-0.755
	c0.438,0.084,0.876,0.125,1.303,0.125c3.723,0,6.752-2.97,6.752-6.619c0-3.65-3.029-6.62-6.752-6.62
	c-3.822,0-5.716,0.88-8.809,4.093L65.632,41.004l7.721,8.191L82.285,38.979L82.285,38.979z"/>
<path fill-rule="evenodd" clip-rule="evenodd" fill="#FFFFFF" d="M17.893,42.784l0.567-3.249c1.22,3.891,3.237,7.602,5.947,10.792
	c2.454,3.11,2.289,6.713,1.646,9.319c0.777,0.009,1.563-0.281,2.116-0.843l0.836-0.853c0.648-0.66,1.161-1.11,2.159,0.016
	l6.995,7.866c1.863,2.097,2.329,4.54,2.329,7.964c1.629-0.685,2.475-2.283,2.475-4.108c0-1.827-0.465-3.84-2.328-5.935
	L27.286,48.728c-5.379-6.055-7.947-14.714-6.542-22.063c0.134-0.697,0.269-1.372,0.404-2.037c1.767,4.663,5.303,9.164,9.16,13.685
	l8.317,9.761c2.783,3.258,2.574,7.051,1.849,9.771c0.776,0.023,1.568-0.253,2.129-0.805l0.854-0.838
	c0.66-0.648,1.179-1.089,2.156,0.055l11.24,13.181c1.863,2.185,2.328,4.769,2.328,7.965c1.629-0.686,2.475-2.283,2.475-4.11
	c0-1.826-0.466-3.752-2.328-5.935L32.81,36.263c-8.089-9.483-11.796-15.988-8.225-23.185c0.426-0.857,0.873-1.597,1.351-2.235
	c-0.116,9.726,8.292,8.238,8.292,10.958c0,4.166,1.108,7.583,3.981,10.745l0.128,0.143c2.884,3.172,2.793,6.971,2.154,9.71
	c0.776,0,1.56-0.3,2.104-0.869l0.826-0.864c0.64-0.667,1.146-1.123,2.159-0.009l7.334,8.071c2.884,3.173,2.793,6.971,2.154,9.71
	c0.775,0,1.559-0.299,2.103-0.867l0.828-0.863c0.639-0.668,1.145-1.125,2.157-0.01l4.449,4.896c1.862,2.049,2.328,4.539,2.328,7.963
	c1.629-0.686,2.475-2.283,2.475-4.109s-0.466-3.885-2.329-5.935L40.643,30.418c-2.326-2.559-3.97-6.021-3.97-9.988v-0.913
	c0-3.709-6.054-1.313-6.054-7.248V11.3c0-0.99,0.466-2.132,1.242-2.892c0.776-0.761,1.94-1.217,3.182-1.217
	c1.785,0,3.492,1.065,4.657,2.282c0.873-2.911,1.805-3.881,4.889-3.881c9.882,0,15.392,1.194,17.016,1.942
	c0,0.991-0.018,3.658-0.018,5.811c-6.651,0.589-8.149,3.722-8.149,6.399c0,3.621,3.29,5.858,6.985,6.521c0,0.009,0,0.099,0,0.099
	c0,0.52,0,1.599-3.958,1.599h-0.932c-3.376,0-6.353-2.566-8.141-4.462l-1.341-1.424c-1.508-1.602-2.393-4.216-2.393-6.784V9.93
	c0-0.913,0.814-1.712,2.328-1.712c2.678,0,3.667,2.511,6.695,2.511c0.756,0,1.687-1.027,1.687-2.168c0-0.383,0-0.584,0-0.685
	c0-0.514-0.593-0.729-1.459-0.805c-2.293-0.203-5.06-0.335-8.32-0.335c-0.322,0-0.645,0.003-0.97,0.011
	c-2.29,0.055-3.163,4.744-3.163,8.206v1.597c0,2.74,1.246,5.797,3.904,8.615l6.437,6.82c2.938,3.123,2.916,6.922,2.325,9.671
	c0.776-0.012,1.554-0.325,2.087-0.903l0.812-0.878c0.626-0.679,1.125-1.143,2.158-0.046L70.308,52.69
	c4.338,4.602,4.93,9.519,1.582,13.15l-8.2,8.9c-0.789,0.857-0.802,2.158-0.028,3.028l14.935,16.825
	c2.9,3.268,3.364,4.58,3.364,7.103c0,3.271-2.716,5.933-6.054,5.933c-3.338,0-6.054-2.662-6.054-5.933v-1.07
	c0-0.57-0.217-1.116-0.608-1.538L53.196,81.844c-1.706-1.832-2.321-3.66-2.321-5.943c0-2.396,0.466-3.652,0.931-4.908
	c-3.434,0.513-4.772,4.394-4.772,6.962c0,3.271,1.2,5.334,3.001,7.266c0.661,0.709,1.332,1.432,2.008,2.158
	c-1.34,1.453-3.02,3.278-4.494,4.877c-1.028-3.375-3.042-6.241-5.682-9.215L21.965,60.638
	C17.734,55.877,16.564,50.394,17.893,42.784L17.893,42.784z"/>
</svg>
