<?xml version="1.0" encoding="UTF-8" standalone="no"?>
<svg
   xmlns:dc="http://purl.org/dc/elements/1.1/"
   xmlns:cc="http://creativecommons.org/ns#"
   xmlns:rdf="http://www.w3.org/1999/02/22-rdf-syntax-ns#"
   xmlns:svg="http://www.w3.org/2000/svg"
   xmlns="http://www.w3.org/2000/svg"
   viewBox="0 0 153.02844 254"
   height="254"
   width="153.02844"
   xml:space="preserve"
   id="svg2"
   version="1.1"><metadata
     id="metadata8"><rdf:RDF><cc:Work
         rdf:about=""><dc:format>image/svg+xml</dc:format><dc:type
           rdf:resource="http://purl.org/dc/dcmitype/StillImage" /><dc:title></dc:title></cc:Work></rdf:RDF></metadata><defs
     id="defs6"><clipPath
       id="clipPath14"
       clipPathUnits="userSpaceOnUse"><path
         id="path12"
         d="M 0,0 H 293.57 V 492.47 H 0 Z" /></clipPath></defs><path
     id="path1261"
     d="m 76.51416,4.3309193 c 40.0341,0 72.50006,54.9325927 72.50006,122.6690007 0,67.73691 -32.46596,122.66916 -72.50006,122.66916 -40.033692,0 -72.4999402,-54.93225 -72.4999402,-122.66916 0,-67.736408 32.4662482,-122.6690007 72.4999402,-122.6690007 z"
     style="fill:#ffffff;fill-opacity:1;fill-rule:evenodd;stroke:none;stroke-width:0.05113957" /><path
     id="path18"
     style="fill:#231f20;fill-opacity:1;fill-rule:evenodd;stroke:none;stroke-width:0.05076451"
     d="m 145.02596,144.39498 c -4.91197,57.30237 -33.71779,101.30763 -68.511781,101.30763 -34.794097,0 -63.599809,-44.00526 -68.5118845,-101.30763 7.7491515,30.61912 35.4873875,53.28446 68.5118845,53.28446 33.024341,0 60.762581,-22.66534 68.511781,-53.28446 z m -94.439146,64.2771 6.531768,0.0357 v 22.65783 l -2.596604,-1.46405 v -18.36823 l -1.436636,-0.13046 v 14.04273 c 0,1.33597 -0.153816,2.16267 -0.477288,2.43076 -0.38647,0.32103 -1.148547,0.0811 -2.249324,-0.76685 l -0.817969,-0.63055 v -2.37247 c 0.438859,0.29468 0.72045,0.43327 0.850509,0.41642 0.129906,-0.0164 0.195544,-0.24966 0.195544,-0.69939 z m 12.304201,0.0579 2.66666,0.009 -2.276281,21.471 c -0.150771,1.42476 -0.442667,2.31968 -0.878226,2.6891 -0.430991,0.36626 -1.180783,0.37362 -2.216886,-0.0807 l -0.932037,-0.4083 v -3.04729 c 0.422361,0.17194 0.638618,0.25362 0.655878,0.2556 0.243162,0.0308 0.362966,-0.13899 0.362966,-0.49455 0,-0.0611 -0.0066,-0.15564 -0.02183,-0.28869 l -2.341767,-20.12138 2.705241,0.0111 1.138141,14.92892 0.04873,0.0109 z m 5.989704,26.644 -2.639754,-0.54709 v -26.08564 l 5.344487,0.008 v 3.47219 l -2.704733,-0.0525 z m 10.104168,0.60009 -2.666659,0.053 -0.385303,-6.80625 -2.070684,-0.0553 -0.455358,6.75884 -2.341259,-0.2225 1.999614,-26.95215 h 3.913944 z m -4.03324,-23.47168 -0.839645,13.1042 1.593498,0.0363 z m 4.851564,-3.75277 2.639755,-0.003 v 10.21199 l 1.501614,-0.086 v -10.12595 l 2.639755,-0.006 v 26.19667 l -2.639755,0.51678 v -12.93739 l -1.501614,0.11402 v 13.04267 l -2.639755,0.25839 z m 12.559648,8.15045 v -4.56404 c 0,-0.42236 -0.05635,-0.6877 -0.168538,-0.79715 -0.114728,-0.11224 -0.330985,-0.16123 -0.650294,-0.14752 -0.319816,0.0137 -0.537596,0.0801 -0.661461,0.2058 -0.119297,0.12137 -0.178691,0.40317 -0.178691,0.83624 v 17.60396 c 0,0.43313 0.0599,0.69507 0.178691,0.77239 0.124373,0.0807 0.34266,0.0708 0.661461,-0.0335 0.319817,-0.10412 0.536073,-0.24214 0.650294,-0.39977 0.113204,-0.15585 0.168538,-0.44459 0.168538,-0.86695 v -5.19743 l 2.639754,-0.7474 v 4.95035 c 0,0.70537 -0.04416,1.28896 -0.135541,1.75 -0.287327,1.44182 -1.382318,2.64311 -3.323045,3.39782 -1.187382,0.46186 -2.041241,0.47953 -2.526042,0.16103 -0.625926,-0.41185 -0.932544,-1.45593 -0.932544,-3.08892 v -18.17385 c 0,-1.6338 0.307125,-2.75813 0.932544,-3.36157 0.485817,-0.46881 1.328,-0.7002 2.526042,-0.7002 1.929559,0 3.03521,0.66152 3.323045,1.97246 0.09138,0.41703 0.135541,0.97843 0.135541,1.68376 v 4.34711 z m 6.623753,12.85951 -2.596097,1.48903 v -22.54087 l 2.596097,-0.0137 v 9.02872 l 2.092518,-9.04263 2.55243,-0.0164 -2.36816,9.187 2.48238,8.53636 -2.78088,2.06449 -1.978288,-9.14279 z M 114.5967,161.21884 c 0.0137,-0.0873 0.0264,-0.17463 0.0401,-0.26194 -0.0132,0.0873 -0.0264,0.17463 -0.0401,0.26194 z m -0.15788,0.93153 c 0.0132,-0.0721 0.0264,-0.14417 0.0391,-0.21626 -0.0127,0.0721 -0.0259,0.14468 -0.0391,0.21626 z m -37.924641,33.28426 c -22.212012,0 -40.225341,-18.01328 -40.225341,-40.22529 0,-22.21303 18.013329,-40.22529 40.225341,-40.22529 22.212519,0 40.225801,18.01226 40.225801,40.22529 0,22.2115 -18.01379,40.22529 -40.225801,40.22529 z m -9.966089,-2.76007 c -9.495501,-2.52045 -17.560967,-8.55432 -22.719149,-16.62537 1.182103,0.77365 2.429996,1.38028 3.769671,1.66253 0.335909,0.13301 0.822944,0.37871 0.843757,0.5574 3.062572,3.53473 6.750716,6.57603 10.686488,8.79241 0.797003,0.44825 1.604666,0.86351 2.419944,1.24272 0.613743,0.28428 1.230024,0.54825 1.846813,0.7904 0.12285,0.0477 0.21981,0.0888 0.298495,0.12539 0.654863,1.35541 1.667615,2.47528 2.853981,3.45452 z M 37.820099,157.46887 c -0.04279,-0.74776 -0.06721,-1.5006 -0.06721,-2.25953 0,-9.4224 3.365129,-18.05948 8.956941,-24.77816 -0.394795,1.40719 -0.604199,2.82708 -0.453885,4.23275 -0.02279,0.36093 -0.105489,0.90107 -0.269306,0.97569 -2.415274,4.00532 -4.16802,8.45229 -5.059749,12.88048 -0.179859,0.8965 -0.325655,1.79351 -0.433885,2.68544 -0.08173,0.67162 -0.142191,1.33968 -0.181077,2.00114 -0.0079,0.13148 -0.01645,0.23656 -0.02736,0.32235 -1.126718,1.07977 -1.893364,2.44787 -2.464464,3.93984 z M 62.386416,119.1046 c 4.377423,-1.71482 9.143196,-2.65701 14.127763,-2.65701 5.086604,0 9.942737,0.98179 14.393769,2.76362 -1.446281,0.0624 -2.847381,0.30256 -4.126139,0.87467 -0.350276,0.0899 -0.889395,0.17768 -1.011229,0.0452 -4.555608,-1.05996 -9.326456,-1.35236 -13.813531,-0.83152 -0.908177,0.10559 -1.805694,0.24418 -2.687981,0.41728 -0.664,0.12945 -1.317339,0.27819 -1.959003,0.44622 -0.127418,0.033 -0.229455,0.0569 -0.31474,0.0726 -1.404146,-0.75284 -2.977338,-1.05641 -4.608909,-1.13104 z m 44.221984,11.6799 c 5.41809,6.6664 8.66753,15.16641 8.66753,24.42484 0,0.79599 -0.0269,1.58639 -0.0741,2.3707 -0.49648,-1.28079 -1.13865,-2.46766 -2.03159,-3.45605 -0.19342,-0.30509 -0.44419,-0.79141 -0.35586,-0.94828 -0.40003,-4.66018 -1.59604,-9.28838 -3.47788,-13.39421 -0.38073,-0.83153 -0.7899,-1.64223 -1.22749,-2.42756 -0.32844,-0.59192 -0.67212,-1.16759 -1.0295,-1.72549 -0.0711,-0.11168 -0.1259,-0.20102 -0.16702,-0.27717 0.2721,-1.51278 0.0985,-3.04587 -0.30407,-4.56678 z m 2.38288,45.58501 c -5.19473,7.95581 -13.233291,13.88714 -22.673459,16.34922 1.054379,-0.863 1.975755,-1.83463 2.635186,-2.9814 l 0.01269,-0.0157 0.01472,-0.0178 h 5.08e-4 l 0.01472,-0.0183 h 5.07e-4 l 0.01523,-0.0178 0.01675,-0.0183 0.01624,-0.0188 h 5.07e-4 l 0.01624,-0.0183 0.01675,-0.0188 0.01675,-0.0193 h 5.07e-4 l 0.01726,-0.0188 0.01726,-0.0188 h 5.08e-4 l 0.01726,-0.0188 0.01777,-0.0188 0.01777,-0.0188 0.01878,-0.0183 0.01828,-0.0188 0.01828,-0.0178 0.01828,-0.0183 0.01929,-0.0178 0.01828,-0.0178 0.01828,-0.0173 0.01878,-0.0168 0.01827,-0.0168 0.01828,-0.0157 0.01878,-0.0157 0.01827,-0.0157 0.01828,-0.0147 0.01777,-0.0142 0.01777,-0.0142 0.01777,-0.0127 0.01726,-0.0127 0.01726,-0.0122 0.01726,-0.0117 0.01675,-0.0107 0.01675,-0.0107 0.01624,-0.009 0.01624,-0.009 0.01574,-0.008 0.01523,-0.006 0.01472,-0.006 0.01472,-0.006 0.01421,-0.004 0.01371,-0.004 0.01371,-0.003 0.01218,-10e-4 h 0.01269 c 0.0036,0 0.0076,0 0.01117,0 0.0041,0 0.0081,10e-4 0.01168,0.002 4.308384,-1.8199 8.340609,-4.38808 11.664676,-7.44664 0.67212,-0.61882 1.31683,-1.25896 1.92905,-1.91738 0.46094,-0.49546 0.90208,-0.99955 1.32292,-1.51227 0.0838,-0.10204 0.15229,-0.18174 0.21169,-0.24469 1.47319,-0.20153 2.8352,-0.80614 4.11903,-1.61634 z m -33.393401,-4.70942 c -5.805429,-2.61184 -10.607244,-6.1151 -14.404429,-10.5113 -0.308649,-0.22743 -0.603083,-0.30154 -0.881272,-0.22235 l -11.675634,3.79363 c -0.274078,5.1e-4 -0.684966,0.4249 -0.831066,0.86757 l -0.01071,0.0538 c -0.721211,3.68804 -0.564196,7.37963 0.593894,10.98848 l 0.01249,-0.0117 c -0.01371,0.0746 0.365048,0.88838 0.65933,1.11682 3.002264,3.46518 6.614869,6.44557 10.468403,8.61524 0.779743,0.43861 1.569131,0.84421 2.363596,1.21378 0.643694,0.299 1.29348,0.57567 1.948342,0.82746 0.08934,0.0914 0.759945,0.22032 1.06707,0.25839 3.781956,-0.0411 7.333441,-1.05641 10.609275,-2.90373 l 0.01675,-0.0112 0.02284,-0.0162 0.02132,-0.0168 0.02183,-0.0168 0.02081,-0.0173 0.02132,-0.0173 0.02031,-0.0183 0.02031,-0.0178 0.0198,-0.0188 0.01929,-0.0188 0.01929,-0.0188 0.01828,-0.0193 0.01878,-0.0193 0.01777,-0.0198 0.01726,-0.0198 0.01726,-0.0198 0.01624,-0.0203 0.01675,-0.0203 0.01523,-0.0208 0.01574,-0.0198 0.01472,-0.0213 0.01421,-0.0203 0.01421,-0.0203 0.01371,-0.0208 0.0132,-0.0208 0.01218,-0.0203 0.01218,-0.0208 0.01168,-0.0208 0.01066,-0.0208 0.01066,-0.0198 0.01015,-0.0203 0.01015,-0.0203 0.0086,-0.0198 0.0086,-0.0198 0.0081,-0.0198 0.0071,-0.0193 0.0071,-0.0193 0.0066,-0.0193 0.0056,-0.0183 0.0056,-0.0188 0.0041,-0.0183 0.0046,-0.0178 0.003,-0.0173 0.003,-0.0173 0.0025,-0.0173 0.0015,-0.0162 10e-4,-0.0157 5.08e-4,-0.0157 -5.08e-4,-0.0152 -5.08e-4,-0.0147 -0.0015,-0.0137 -0.002,-0.0142 -0.0025,-0.0132 -0.0036,-0.0127 -0.0036,-0.0117 -0.0051,-0.0122 v -12.23627 c -0.04061,-0.43709 -0.255345,-0.65487 -0.502569,-0.83863 z M 60.74926,159.23598 c 0.5843,-6.40242 2.25699,-12.07941 5.453631,-16.7396 0.128435,-0.37261 0.110159,-0.68176 -0.05482,-0.92696 l -7.215668,-9.93106 c -0.08528,-0.26144 -0.615265,-0.52084 -1.081791,-0.52287 l -0.05483,0.007 c -3.730176,0.45332 -7.192519,1.74376 -10.26697,3.96014 l 0.01528,0.008 c -0.07533,0.01 -0.732126,0.62237 -0.858631,0.97214 -2.36791,3.92613 -4.085375,8.28274 -4.958068,12.61904 -0.177066,0.8767 -0.318852,1.75239 -0.42434,2.6225 -0.08549,0.70461 -0.14737,1.4082 -0.185037,2.10875 -0.0595,0.1127 0.02538,0.79295 0.08427,1.0955 1.207079,3.58347 3.269945,6.64711 6.038997,9.19142 0.403933,0.3117 0.972445,0.39698 1.142404,0.24317 l 11.637612,-3.78145 c 0.507645,-0.2188 0.600037,-0.59344 0.714257,-0.96808 z m 7.120738,-17.75844 c 6.069405,-1.29703 11.922553,-1.29805 17.559444,-0.003 0.42896,0.0213 0.739131,-0.0904 0.932036,-0.33606 l 7.215668,-9.93157 c 0.221841,-0.16244 0.305095,-0.74623 0.162954,-1.19042 l -0.02284,-0.0503 c -1.58436,-3.40731 -3.881455,-6.3014 -6.939509,-8.54011 l -0.0036,0.0157 c -0.03198,-0.068 -0.817816,-0.50307 -1.189413,-0.51475 -4.466261,-1.03915 -9.14015,-1.32648 -13.533818,-0.8168 -0.888379,0.10305 -1.765082,0.23859 -2.62554,0.40713 -0.696489,0.13605 -1.384349,0.29494 -2.062562,0.47566 -0.125896,-0.0218 -0.745223,0.26906 -1.015798,0.41881 -3.03521,2.25547 -5.310476,5.16428 -6.875038,8.58377 -0.171584,0.48023 -0.07716,1.04727 0.121835,1.16149 l 7.192316,9.89959 c 0.364997,0.41526 0.749792,0.38733 1.141694,0.38023 z m 19.037199,0.87721 c 3.191057,4.83532 4.987613,10.68491 5.610494,17.38786 0.117773,0.2457 0.284281,0.40764 0.50003,0.48683 l 11.675329,3.79313 c 0.22235,0.16092 0.8031,0.0594 1.1818,-0.2122 l 0.0411,-0.0381 c 2.75143,-2.56006 4.7942,-5.63842 5.97853,-9.23914 l -0.0173,0.003 c 0.0553,-0.0528 0.22641,-0.93356 0.12285,-1.29094 -0.3919,-4.5688 -1.56354,-9.10309 -3.40528,-13.12364 -0.37261,-0.81325 -0.77263,-1.60517 -1.19855,-2.37121 -0.3452,-0.62034 -0.70867,-1.22596 -1.08991,-1.81483 -0.0183,-0.1264 -0.48633,-0.62593 -0.71223,-0.8366 -3.08293,-2.18998 -6.552682,-3.45503 -10.287935,-3.88653 -0.509676,-0.0142 -1.020367,0.25027 -1.067578,0.47516 l -7.191808,9.89908 c -0.172091,0.29037 -0.184783,0.53708 -0.139602,0.76857 z m 5.083558,18.7915 c -4.098727,4.36016 -9.007655,7.91165 -14.726277,10.65293 -0.221841,0.19595 -0.337076,0.41576 -0.346214,0.65994 v 12.27587 c -0.08427,0.26144 0.192398,0.7833 0.568563,1.05844 l 0.04772,0.0274 c 3.284464,1.82549 6.844072,2.81692 10.633642,2.83012 l -0.0066,-0.0147 c 0.06599,0.036 0.957419,-0.0736 1.265559,-0.28225 0.06549,-0.0279 0.13148,-0.0564 0.196966,-0.0848 0.0665,-0.0279 0.132496,-0.0558 0.197982,-0.0843 0.06599,-0.0294 0.131988,-0.0579 0.196966,-0.0873 0.06599,-0.0284 0.130973,-0.0574 0.196459,-0.0868 0.06599,-0.0289 0.130465,-0.0589 0.196459,-0.0883 l 0.195443,-0.0899 0.194936,-0.0904 0.194935,-0.0914 c 0.06498,-0.031 0.129958,-0.0614 0.194429,-0.0924 l 0.19392,-0.0934 0.192905,-0.0949 0.192905,-0.096 0.192398,-0.0959 v -5.1e-4 c 0.06346,-0.0325 0.127419,-0.065 0.191382,-0.097 v 0 l 0.191382,-0.0995 c 0.06295,-0.033 0.126911,-0.0655 0.190367,-0.099 v 0 l 0.189859,-0.10051 0.18986,-0.10102 0.188844,-0.10305 c 0.06295,-0.0345 0.125388,-0.0685 0.188336,-0.10306 v 0 l 0.187829,-0.10508 c 0.06244,-0.0345 0.12488,-0.0695 0.187321,-0.10457 v -5.1e-4 l 0.186305,-0.1061 v -5.1e-4 l 0.186306,-0.1066 0.184783,-0.10864 c 0.06142,-0.036 0.123358,-0.0721 0.184783,-0.10813 v -5e-4 l 0.184275,-0.10966 v -5e-4 l 0.18326,-0.11067 0.182752,-0.11219 c 0.06092,-0.0376 0.121327,-0.0746 0.181737,-0.11219 v 0 l 0.181229,-0.11422 c 0.06041,-0.0376 0.120312,-0.0756 0.180214,-0.11371 v -5.1e-4 c 0.06041,-0.0386 0.120312,-0.0767 0.180214,-0.11524 v -5e-4 l 0.178691,-0.11575 v -5e-4 l 0.178691,-0.11727 c 0.05939,-0.0386 0.118282,-0.0777 0.177676,-0.11727 v 0 c 0.0594,-0.0396 0.118282,-0.0797 0.176661,-0.11878 v -5.1e-4 c 0.05939,-0.0401 0.117773,-0.0797 0.17666,-0.1193 v 0 c 0.05838,-0.0401 0.116759,-0.0807 0.175138,-0.12082 h 5.07e-4 c 0.05787,-0.0406 0.116251,-0.0807 0.174123,-0.12133 v 0 l 0.174122,-0.12285 c 0.05787,-0.0406 0.115235,-0.0817 0.173107,-0.12285 v 0 c 0.05736,-0.0411 0.114728,-0.0822 0.172092,-0.12386 l 0.171584,-0.12437 0.170568,-0.1259 0.169554,-0.1264 0.169046,-0.12692 c 0.05584,-0.0426 0.111682,-0.0853 0.16803,-0.12843 0.05584,-0.0426 0.111682,-0.0853 0.167015,-0.12843 l 0.166508,-0.12945 c 0.05483,-0.0437 0.110667,-0.0868 0.165492,-0.13047 0.05483,-0.0442 0.109652,-0.0873 0.164477,-0.13148 0.05432,-0.0442 0.109144,-0.0878 0.163462,-0.13199 l 0.162954,-0.13249 c 0.05432,-0.0447 0.108129,-0.0888 0.161431,-0.13351 0.05432,-0.0447 0.107621,-0.0894 0.160924,-0.13402 0.0533,-0.0447 0.106605,-0.0898 0.159908,-0.13503 0.0533,-0.0452 0.106098,-0.0904 0.159401,-0.13605 0.0528,-0.0452 0.105589,-0.0904 0.157879,-0.13605 0.0528,-0.0452 0.10457,-0.0914 0.15686,-0.13707 0.0523,-0.0462 0.10457,-0.0924 0.15635,-0.13807 0.0518,-0.0462 0.10306,-0.0924 0.15484,-0.13859 0.0513,-0.0462 0.10305,-0.0924 0.15381,-0.1391 0.0513,-0.0467 0.10255,-0.0934 0.15331,-0.14011 0.65842,-0.60613 1.2879,-1.23053 1.88489,-1.87219 0.48328,-0.52034 0.94676,-1.05286 1.38841,-1.59756 0.11523,-0.0569 0.4452,-0.65486 0.57617,-0.93458 1.13002,-3.60986 1.2615,-7.30095 0.51729,-10.98747 -0.14417,-0.48886 -0.55384,-0.89193 -0.78177,-0.86756 l -11.637254,-3.78145 c -0.350275,-0.0787 -0.596991,-0.002 -0.81274,0.12742" /><path
     id="path20"
     style="fill:#dd1634;fill-opacity:1;fill-rule:evenodd;stroke:none;stroke-width:0.05076451"
     d="m 76.514179,2.0000176 c 41.146161,0 74.514181,55.9759944 74.514181,124.9999924 C 151.02836,196.02401 117.66034,252 76.514179,252 35.368173,252 2.0000004,196.02401 2.0000004,127.00001 2.0000004,57.976012 35.368173,2.0000176 76.514179,2.0000176 Z m 0,3.2306534 c 39.740491,0 71.968341,54.529714 71.968341,121.769339 0,67.24013 -32.22785,121.7695 -71.968341,121.7695 -39.740083,0 -71.9682217,-54.52937 -71.9682217,-121.7695 0,-67.239625 32.2281387,-121.769339 71.9682217,-121.769339 z m 0,3.0666841 c 34.798061,0 63.606411,44.0173989 68.513301,101.3310349 C 137.2798,79.006226 109.54005,56.338857 76.514179,56.338857 43.494454,56.338857 15.759365,78.997088 8.0052896,109.61012 12.916147,52.305616 41.719473,8.2978627 76.514179,8.2973551 Z M 112.02598,34.900497 v 10.393525 c -1.15692,-0.939143 -2.5433,-1.84732 -3.52305,-2.971246 -0.58735,-0.673138 -0.88737,-2.09759 -0.88737,-4.306354 v -4.640384 c 0,-1.947326 0.13301,-2.419436 0.69142,-2.157491 1.2884,0.604605 2.79763,2.532641 3.719,3.68195 z m 7.19181,31.942045 V 39.362697 c -1.8661,-3.466201 -8.82033,-13.103335 -14.25721,-15.897922 -1.00666,-0.517798 -1.96256,-0.641155 -2.82301,-0.62085 -1.25795,0.02995 -1.89454,1.852905 -1.89454,5.374439 v 4.418035 c 0,4.444941 0.75843,7.488781 2.27324,9.129998 0.58633,0.634048 1.31785,1.307693 2.20521,1.998091 l -5.48663,12.846467 7.57153,3.076329 5.2196,-10.876804 V 62.369173 Z M 85.204048,53.361518 77.952337,52.849812 V 12.177794 l 11.601721,2.264605 c 3.165168,0.617296 6.155197,3.43625 6.92428,6.487704 0.238085,0.939651 0.379718,2.375779 0.379718,4.344935 v 9.664547 c 0,3.548947 -0.335046,6.311552 -4.599772,5.552622 -0.914777,-0.162446 -3.272788,-0.673137 -7.054236,-1.430036 z m 0,-35.018882 V 33.89942 l 2.20521,0.433529 c 2.149877,0.422869 2.1448,-0.769082 2.1448,-2.459033 v -9.308688 c 0,-1.720917 -0.12488,-3.199179 -2.1448,-3.688549 z M 64.532739,19.433058 62.198587,39.262691 66.6085,38.256031 Z M 75.686717,52.84372 68.31368,53.322937 67.246102,43.418781 61.509713,44.642714 60.243646,54.769218 53.749342,56.677456 59.29638,15.972441 70.140187,12.617415 Z M 40.269486,41.504959 33.336374,48.665801 v -3.91699 c 0,-2.098097 0.630191,-4.3825 1.920523,-6.870976 1.276474,-2.462586 3.624891,-5.939448 7.338061,-9.764553 3.136891,-3.231669 5.590847,-4.756635 7.097132,-4.907406 1.484862,-0.149247 2.230846,1.107174 2.230846,3.543871 v 5.920157 c 0,1.763559 -0.433681,3.341828 -1.317694,4.706885 -0.881272,1.360997 -2.454769,2.987999 -4.728663,4.952078 2.515229,-0.974171 4.121875,-1.285865 4.814709,-1.035596 0.831066,0.300019 1.231648,1.469633 1.231648,3.45554 v 4.668305 c 0,3.176335 -0.53917,5.516071 -1.628017,6.982151 -1.244949,1.677259 -3.925722,3.316445 -7.880835,5.419111 -3.893791,2.071192 -6.356072,3.285479 -7.545079,3.282941 -1.1886,-0.003 -1.782494,-1.068085 -1.782494,-3.327106 v -4.033748 l 7.182975,-6.07042 v 4.540378 c 0,1.974739 0.731923,2.48543 2.204906,1.613296 1.567151,-0.927976 2.265366,-1.754929 2.265366,-3.561131 v -6.008995 c 0,-3.669766 -2.997289,-0.903608 -4.470272,0.256361 v -3.794647 l 0.878683,-0.779235 c 2.305013,-2.044287 3.591589,-3.810892 3.591589,-5.741466 v -4.495705 c 0,-1.609743 -0.127926,-3.556562 -2.1448,-1.607712 -1.53781,1.486384 -2.325472,2.936726 -2.325472,5.040915 z m 22.758593,21.633804 v 8.882266 h -2.21181 v -7.466952 l -3.111356,2.301156 -1.332061,-1.044734 3.865717,-2.671736 z m 3.039271,6.400389 h 2.183382 c 0,0.322863 0.04823,0.572116 0.146709,0.746239 0.09696,0.176152 0.26296,0.300525 0.498,0.375657 0.23504,0.07564 0.572624,0.113205 1.008691,0.113205 h 1.043211 c 0.510691,0 0.909192,-0.03604 1.195504,-0.108636 0.286819,-0.07361 0.494954,-0.20052 0.62085,-0.382257 0.125896,-0.181737 0.190367,-0.445712 0.190367,-0.789388 v -1.795541 c -0.268037,0.378196 -0.613236,0.615774 -1.036104,0.716795 -0.424899,0.101021 -1.000061,0.150263 -1.728024,0.150263 -1.037626,0 -1.861534,-0.07107 -2.4768,-0.215749 -0.612728,-0.144171 -1.067578,-0.401547 -1.362012,-0.773651 -0.296973,-0.372612 -0.443682,-0.902593 -0.443682,-1.587407 0,-0.524397 0.06599,-0.967571 0.197474,-1.327999 0.13148,-0.361951 0.363982,-0.662477 0.69852,-0.902085 0.334538,-0.239609 0.802587,-0.419823 1.404654,-0.538104 0.604605,-0.119297 1.374703,-0.178691 2.31943,-0.178691 1.061994,0 1.923467,0.07564 2.586452,0.227425 0.660954,0.152293 1.166568,0.443681 1.522428,0.873149 0.353321,0.429468 0.529473,1.045241 0.529473,1.844783 l 5.08e-4,3.136231 c 0,0.627449 -0.09391,1.13611 -0.280728,1.532073 -0.190367,0.393932 -0.471094,0.696489 -0.845736,0.904623 -0.37515,0.209658 -0.84523,0.35586 -1.409731,0.435052 -0.564501,0.08122 -1.265559,0.12082 -2.102666,0.12082 -0.762483,0 -1.402116,-0.02538 -1.915345,-0.07919 -0.516783,-0.05127 -0.966048,-0.162446 -1.351351,-0.332507 -0.385303,-0.170061 -0.679229,-0.429468 -0.885333,-0.777713 -0.206612,-0.348244 -0.308141,-0.811217 -0.308141,-1.387394 z m 6.886714,-3.716977 c 0,-0.381749 -0.06193,-0.67466 -0.187829,-0.876196 -0.125388,-0.202042 -0.361443,-0.346721 -0.703596,-0.433528 -0.345199,-0.08528 -0.85589,-0.128435 -1.535119,-0.128435 -0.647247,0 -1.139663,0.04315 -1.477247,0.130465 -0.334538,0.08731 -0.569578,0.233517 -0.70055,0.437083 -0.130973,0.204073 -0.197982,0.494953 -0.197982,0.871119 0,0.332507 0.0264,0.587853 0.08021,0.763498 0.05381,0.17666 0.160416,0.312709 0.318293,0.409669 0.160924,0.09899 0.393425,0.164477 0.698012,0.200013 0.302049,0.03401 0.741162,0.05178 1.31074,0.05178 0.736085,0 1.265559,-0.03401 1.588929,-0.101021 0.324385,-0.06549 0.538104,-0.195951 0.645217,-0.38581 0.107113,-0.192398 0.160924,-0.5046 0.160924,-0.938636 z m 13.439904,4.857148 v 1.341706 h -9.082279 v -1.828537 c 0,-0.53049 0.08782,-0.953866 0.261945,-1.272667 0.174122,-0.318293 0.422868,-0.561963 0.746238,-0.727963 0.323878,-0.166507 0.701058,-0.289358 1.132049,-0.370581 0.430483,-0.08071 1.030012,-0.170061 1.795033,-0.26499 0.815786,-0.08325 1.404146,-0.162447 1.771174,-0.239609 0.366012,-0.07513 0.649786,-0.221333 0.855889,-0.437082 0.206104,-0.216257 0.307633,-0.552318 0.307633,-1.009706 0,-0.443175 -0.07259,-0.773652 -0.219302,-0.989401 -0.147217,-0.216257 -0.377688,-0.358397 -0.692936,-0.427437 -0.313217,-0.06904 -0.778727,-0.103052 -1.396532,-0.103052 -0.684813,0 -1.190427,0.03757 -1.514305,0.111174 -0.326416,0.07259 -0.553841,0.223364 -0.682275,0.455358 -0.130972,0.228948 -0.197982,0.593437 -0.197982,1.093975 v 0.28682 h -2.166629 v -0.389872 c 0,-0.785327 0.139095,-1.383333 0.416777,-1.793002 0.276159,-0.411193 0.736085,-0.696489 1.380795,-0.854367 0.644709,-0.160923 1.565069,-0.239608 2.760574,-0.239608 0.789388,-5.08e-4 1.455926,0.03757 1.995552,0.114727 0.543688,0.07513 1.000569,0.213719 1.378257,0.415762 0.374642,0.201535 0.660446,0.488354 0.85589,0.864519 0.195443,0.374135 0.294434,0.858936 0.294434,1.454404 0,0.639632 -0.12285,1.150323 -0.372104,1.530042 -0.248239,0.378195 -0.593945,0.665015 -1.035089,0.856905 -0.441651,0.19189 -0.882794,0.322354 -1.318861,0.393932 -0.438606,0.06904 -1.230532,0.176153 -2.376287,0.318801 -0.547749,0.06701 -0.946758,0.147725 -1.197535,0.245193 -0.249254,0.09645 -0.415254,0.233517 -0.495462,0.40967 -0.0797,0.175645 -0.117266,0.447235 -0.117266,0.817308 v 0.237578 z m 5.965845,-2.567161 v -1.280281 h 1.281804 c 0.572623,0 0.981278,-0.02589 1.23307,-0.07716 0.248238,-0.05178 0.42236,-0.163969 0.516275,-0.338599 0.09645,-0.176153 0.149755,-0.467034 0.162954,-0.876703 0,-0.322355 -0.0665,-0.566025 -0.20052,-0.729994 -0.136049,-0.164477 -0.366012,-0.279205 -0.68989,-0.34063 -0.326415,-0.06295 -0.805125,-0.09493 -1.439681,-0.09493 -0.698012,0 -1.209211,0.04163 -1.524966,0.124881 -0.315248,0.08275 -0.527443,0.235547 -0.631003,0.457388 -0.104575,0.218795 -0.155339,0.567548 -0.155339,1.044734 h -2.150385 c 0,-0.738116 0.141125,-1.323938 0.424391,-1.753914 0.283774,-0.430991 0.738624,-0.741669 1.365058,-0.930006 0.628465,-0.189859 1.473694,-0.284789 2.54381,-0.284789 1.160984,0 2.078806,0.07513 2.744837,0.225395 0.669076,0.150263 1.150324,0.395963 1.447296,0.736593 0.300018,0.340122 0.446728,0.799541 0.446728,1.377241 0,0.409162 -0.04518,0.751822 -0.139095,1.026966 -0.09087,0.275144 -0.277682,0.504599 -0.558917,0.689382 -0.280728,0.185291 -0.690398,0.30408 -1.227994,0.361443 v 0.06142 c 0.54318,0.05178 0.968079,0.150771 1.27622,0.298496 0.304587,0.149247 0.521351,0.354844 0.649786,0.617804 0.128434,0.26296 0.192397,0.604098 0.192397,1.017321 0,0.458911 -0.06701,0.850813 -0.200012,1.177736 -0.134018,0.326416 -0.367028,0.599529 -0.703596,0.824924 -0.334538,0.223363 -0.807664,0.393932 -1.420391,0.50866 -0.613235,0.114728 -1.391455,0.172092 -2.330599,0.172092 -1.169107,0 -2.095051,-0.08884 -2.779357,-0.264991 -0.687859,-0.176153 -1.179767,-0.45485 -1.476739,-0.833046 C 88.718982,70.65343 88.569227,70.1468 88.569227,69.51529 v -0.486324 h 2.134648 c 0,0.52592 0.05381,0.904116 0.157877,1.135602 0.106606,0.233517 0.337077,0.393933 0.690398,0.484801 0.355859,0.09087 0.927975,0.136557 1.719901,0.136557 0.666031,0 1.174691,-0.04772 1.527504,-0.144172 0.350783,-0.09493 0.591407,-0.2457 0.719841,-0.449265 0.130972,-0.206104 0.195443,-0.486832 0.195443,-0.84523 0,-0.358397 -0.06142,-0.627449 -0.187828,-0.801571 -0.125389,-0.174122 -0.32337,-0.290881 -0.595976,-0.348245 -0.273113,-0.05736 -0.658923,-0.08528 -1.160984,-0.08528 z m -38.05663,123.431878 -0.03046,0.0482 c -1.259975,-0.43454 -2.5033,-0.90513 -3.728146,-1.40973 l 0.594453,-0.7772 c 1.020671,0.75842 2.076268,1.47268 3.164152,2.13871 z m -5.966709,-4.41398 -1.342061,1.47522 c -1.280433,-0.61527 -2.537261,-1.27216 -3.772057,-1.96306 l 2.361565,-2.16968 c 0.876856,0.92645 1.795998,1.81229 2.752553,2.65752 z m -5.125032,-5.38814 -3.565598,2.75702 c -1.288352,-0.82797 -2.545942,-1.7001 -3.773021,-2.61031 l 5.084167,-3.24842 c 0.705779,1.06808 1.457906,2.10368 2.254452,3.10171 z m -4.123601,-6.20749 -6.749294,3.5454 c -1.268148,-1.07621 -2.495787,-2.1976 -3.681442,-3.36214 l 8.750735,-3.6388 c 0.510234,1.17977 1.069253,2.33365 1.680001,3.45554 z m -2.977237,-6.84813 -10.837056,3.46163 c -1.198144,-1.35845 -2.342883,-2.76412 -3.430767,-4.21497 l 13.218013,-2.94993 c 0.295652,1.25693 0.645826,2.49254 1.04981,3.70327 z m -1.72838,-7.27658 -15.582521,2.11028 c -1.052805,-1.66203 -2.037129,-3.37229 -2.947337,-5.12773 l 18.144962,-0.8173 c 0.07137,1.29449 0.200266,2.57376 0.384896,3.83475 z m -0.43033,-7.4766 -20.556073,-0.82086 c -0.813603,-1.96408 -1.538368,-3.97385 -2.169371,-6.02473 l 23.012568,2.99713 c -0.152294,1.26658 -0.248848,2.5499 -0.287124,3.84846 z m 0.875484,-7.44715 -25.165287,-5.48054 c -0.4644445,-2.22602 -0.8187808,-4.49215 -1.0607245,-6.79229 l 27.1859685,8.53047 c -0.374591,1.22494 -0.695829,2.47324 -0.959957,3.74236 z m 2.17795,-7.18318 -28.7759638,-11.79361 c -0.00117,-0.16702 -0.00655,-0.33302 -0.00655,-0.50003 0,-2.29913 0.1150323,-4.57186 0.3382947,-6.8126 l 30.0496461,15.58978 c -0.586787,1.14322 -1.121997,2.31689 -1.605428,3.51646 z m 3.413507,-6.68823 -30.788878,-19.45397 c 0.52389,-2.5367 1.19058,-5.02112 1.986161,-7.44665 l 31.003613,23.72175 c -0.780099,1.02443 -1.51461,2.0849 -2.200896,3.17887 z m 4.533474,-5.98767 -30.62963,-27.857533 c 1.113266,-2.448372 2.366895,-4.819075 3.750431,-7.101447 l 29.602461,32.21567 c -0.948078,0.87315 -1.857676,1.78792 -2.723262,2.74331 z m 5.511148,-5.0998 -28.0147,-36.229111 c 1.692692,-2.190488 3.51326,-4.275895 5.454647,-6.243527 l 25.717504,40.245088 c -1.087427,0.69547 -2.140181,1.43968 -3.157451,2.22755 z m 6.314496,-4.0566 -22.975967,-43.738189 c 2.202723,-1.768636 4.517229,-3.403761 6.931539,-4.892176 l 19.54261,46.995245 c -1.193981,0.49343 -2.361057,1.03966 -3.498182,1.63512 z m 6.924279,-2.88088 -13.781549,-43.150342 c 2.105153,1.340691 5.151582,2.50066 8.858407,3.389039 l 8.652303,38.771903 c -1.265052,0.27514 -2.50929,0.6041 -3.729161,0.9894 z m 7.316689,-1.61177 -4.994213,-36.872806 c 2.283895,0.277682 4.700286,0.467034 7.210591,0.556379 l 1.621926,35.999147 c -1.294495,0.0498 -2.575791,0.15432 -3.838304,0.31728 z m 7.473551,-0.3051 1.438158,-36.016403 c 2.508275,-0.0929 4.922635,-0.286312 7.201961,-0.56704 l -4.810445,36.932193 c -1.259975,-0.17158 -2.53721,-0.28935 -3.829674,-0.34875 z m 7.400958,0.99194 8.463966,-38.861756 c 3.701241,-0.895486 6.734924,-2.063069 8.821854,-3.410359 L 89.597208,114.67692 c -1.211749,-0.39139 -2.446849,-0.72948 -3.703778,-1.01224 z m 7.100939,2.26968 19.302191,-47.09322 c 2.40776,1.484355 4.71653,3.115418 6.91413,4.87847 l -22.755196,43.85901 c -1.124942,-0.59749 -2.278819,-1.14778 -3.461125,-1.64426 z m 6.579588,3.4728 25.518813,-40.386213 c 1.93463,1.958495 3.75048,4.034764 5.43942,6.215099 L 102.6909,121.62303 c -1.00412,-0.78329 -2.04378,-1.52293 -3.116943,-2.21587 z m 5.862793,4.55409 29.45966,-32.391316 c 1.3808,2.268666 2.63062,4.62617 3.74439,7.058805 L 108.11864,126.6741 c -0.85284,-0.94371 -1.74884,-1.84834 -2.68189,-2.71285 z m 4.98,5.48409 30.93437,-23.92024 c 0.79802,2.40827 1.46557,4.87542 1.99454,7.39385 l -30.75974,19.65602 c -0.6772,-1.07672 -1.4011,-2.12094 -2.16917,-3.12963 z m 3.95252,6.2486 30.06833,-15.79538 c 0.24266,2.33669 0.36804,4.70892 0.36804,7.11059 l -0.002,0.14315 -28.84338,11.99413 c -0.48074,-1.17824 -1.01072,-2.3306 -1.59096,-3.45249 z m 2.80525,6.82681 27.29455,-8.71779 c -0.22539,2.28136 -0.56297,4.5287 -1.00767,6.73848 l -25.32388,5.65009 c -0.26854,-1.24373 -0.58785,-2.46918 -0.963,-3.67078 z m 1.57218,7.19892 23.2075,-3.14334 c -0.60816,2.03515 -1.30719,4.03171 -2.09556,5.98259 l -20.79771,0.93661 c -0.0503,-1.27317 -0.15382,-2.53366 -0.31423,-3.77586 z m 0.30865,7.35019 18.42142,0.73558 c -0.88381,1.74579 -1.84072,3.44741 -2.86566,5.10284 l -15.88421,-2.06916 c 0.16346,-1.24068 0.27362,-2.49761 0.32845,-3.76926 z m -0.94625,7.28623 13.53737,2.94891 c -1.05844,1.44679 -2.17272,2.85195 -3.34031,4.2099 l -11.16819,-3.50478 c 0.37617,-1.19551 0.70004,-2.41487 0.97113,-3.65403 z m -2.18745,7.00905 9.0833,3.72257 c -1.15743,1.16707 -2.357,2.29455 -3.59667,3.37634 l -7.07505,-3.67129 c 0.57821,-1.11428 1.10819,-2.25851 1.58842,-3.42762 z m -3.36315,6.52121 5.38764,3.40478 c -1.2021,0.91833 -2.43466,1.7996 -3.69819,2.63823 l -3.84288,-2.94079 c 0.76147,-1.00057 1.4803,-2.03515 2.15343,-3.10222 z m -4.42971,5.84655 2.61437,2.37781 c -1.21377,0.70512 -2.45243,1.37115 -3.7124,2.00165 l -1.55441,-1.69148 c 0.92239,-0.8569 1.80823,-1.7529 2.65244,-2.68798 z m -5.36327,5.00488 0.77365,1.00056 c -1.20768,0.52288 -2.43365,1.01174 -3.67687,1.46405 l -0.171584,-0.26854 c 1.057934,-0.68735 2.084394,-1.41938 3.074804,-2.19607" /></svg>