<?xml version="1.0" encoding="UTF-8" standalone="no"?>
<!-- Generator: Adobe Illustrator 16.0.0, SVG Export Plug-In . SVG Version: 6.00 Build 0)  -->

<svg
   xmlns:dc="http://purl.org/dc/elements/1.1/"
   xmlns:cc="http://creativecommons.org/ns#"
   xmlns:rdf="http://www.w3.org/1999/02/22-rdf-syntax-ns#"
   xmlns:svg="http://www.w3.org/2000/svg"
   xmlns="http://www.w3.org/2000/svg"
   xmlns:sodipodi="http://sodipodi.sourceforge.net/DTD/sodipodi-0.dtd"
   xmlns:inkscape="http://www.inkscape.org/namespaces/inkscape"
   version="1.1"
   id="svg8439"
   x="0px"
   y="0px"
   width="434.7088"
   height="304"
   viewBox="0 0 434.7088 304"
   enable-background="new 0 0 300 300"
   xml:space="preserve"
   sodipodi:docname="fc-zenit-st.-petersburg-team-logo.svg"
   inkscape:version="0.92.4 (5da689c313, 2019-01-14)"><metadata
   id="metadata25"><rdf:RDF><cc:Work
       rdf:about=""><dc:format>image/svg+xml</dc:format><dc:type
         rdf:resource="http://purl.org/dc/dcmitype/StillImage" /><dc:title></dc:title></cc:Work></rdf:RDF></metadata><defs
   id="defs23" /><sodipodi:namedview
   pagecolor="#ffffff"
   bordercolor="#666666"
   borderopacity="1"
   objecttolerance="10"
   gridtolerance="10"
   guidetolerance="10"
   inkscape:pageopacity="0"
   inkscape:pageshadow="2"
   inkscape:window-width="1366"
   inkscape:window-height="705"
   id="namedview21"
   showgrid="false"
   fit-margin-top="2"
   fit-margin-right="2"
   fit-margin-bottom="2"
   fit-margin-left="2"
   inkscape:zoom="0.78666667"
   inkscape:cx="139.02007"
   inkscape:cy="48.512912"
   inkscape:window-x="-8"
   inkscape:window-y="-8"
   inkscape:window-maximized="1"
   inkscape:current-layer="svg8439" />

<g
   id="g36"
   transform="matrix(1.5165267,0,0,1.5165267,-9.3587294,-72.971014)"><g
     id="g12">
	<path
   id="path2"
   d="m 126.946,115.426 c 7.172,-5.247 14.396,-10.441 21.618,-15.581 7.229,5.083 14.343,10.273 21.51,15.412 -2.6,-8.356 -5.363,-16.708 -8.126,-25.009 7.166,-5.247 14.394,-10.385 21.616,-15.577 -8.917,-0.057 -17.836,0 -26.815,-0.057 -2.709,-8.41 -5.416,-16.767 -8.185,-25.178 -2.764,8.411 -5.363,16.824 -8.24,25.178 -8.862,-0.056 -17.725,-0.056 -26.587,0 7.055,5.306 14.339,10.332 21.45,15.522 -2.652,8.412 -5.473,16.824 -8.241,25.29 z"
   inkscape:connector-curvature="0"
   style="fill:#cfaf2b" />
	<path
   id="path4"
   d="m 72.525,211.505 c -1.237,4.291 -2.422,8.581 -3.78,12.812 74.232,-31.498 148.576,-62.882 222.755,-94.496 -30.771,0.057 -61.533,0 -92.354,0.057 -4.348,5.873 -8.751,11.799 -13.21,17.612 1.635,-5.869 3.331,-11.739 5.078,-17.552 -3.495,0 -7.052,0 -10.554,0 -2.881,7.448 -6.718,14.507 -10.728,21.394 -1.073,1.92 -2.422,3.724 -4.062,5.25 0,-1.868 0.171,-3.728 0.732,-5.476 2.032,-7.06 4.238,-14.057 6.155,-21.168 -3.387,0 -6.773,0 -10.16,0 -1.696,4.516 -1.977,9.706 -5.251,13.435 -4.119,5.303 -8.071,10.723 -12.194,16.028 2.826,-9.822 5.759,-19.645 8.638,-29.463 -3.616,0 -7.17,0 -10.782,0 -1.752,5.813 -3.387,11.684 -5.195,17.439 -2.933,0.735 -5.869,1.523 -8.858,2.202 1.86,-6.548 3.836,-13.098 5.753,-19.702 -3.837,0 -7.673,0 -11.514,-0.057 -1.809,5.87 -3.443,11.743 -5.139,17.613 -0.619,2.033 -0.96,4.347 -2.534,5.929 -5.537,6.488 -11.126,12.981 -16.602,19.474 -2.197,2.314 -4.23,5.761 -7.901,5.475 -2.314,-3.951 -1.917,-8.749 -1.41,-13.152 6.379,-3.273 12.59,-7.115 17.782,-12.137 4.515,-4.459 8.014,-10.723 7.058,-17.271 -0.285,-3.503 -3.56,-6.324 -7.058,-6.324 -5.927,-0.623 -11.514,2.314 -15.805,6.1 -7.794,6.998 -12.648,16.764 -14.906,26.87 -3.331,1.634 -6.717,3.269 -9.991,4.965 -1.298,-4.231 -3.387,-8.245 -6.263,-11.626 8.071,-5.084 15.917,-11.351 20.096,-20.097 1.92,-4.238 2.881,-9.147 1.298,-13.607 -1.471,-3.953 -5.645,-6.263 -9.711,-6.548 -9.711,-0.899 -19.416,3.105 -26.701,9.373 -2.145,1.976 -4.628,4.062 -5.307,7.054 -0.956,3.388 -1.977,6.718 -2.876,10.104 0.731,-0.056 1.522,-0.112 2.257,-0.168 3.725,-4.971 8.072,-9.711 13.716,-12.419 2.989,-1.41 7.167,-1.808 9.597,0.788 1.973,2.825 0.848,6.549 -0.224,9.486 -3.672,8.469 -11.064,14.452 -18.011,20.151 4.291,3.897 6.268,9.486 7.228,15.019 -17.5,9.992 -34.265,23.987 -41.493,43.409 -2.482,7.171 -3.893,15.355 -0.96,22.578 1.47,3.785 5.251,6.609 9.373,6.385 6.492,-0.229 12.305,-3.842 17.219,-7.852 11.738,-9.874 20.545,-22.972 26.419,-37.089 3.607,-8.747 5.813,-18.232 5.416,-27.77 2.543,-1.297 5.138,-2.543 7.734,-3.784 -0.226,5.419 0,11.232 2.82,16.086 1.527,2.712 4.688,4.463 7.794,3.784 4.91,-1.016 8.807,-4.571 12.077,-8.184 5.138,-6.099 9.879,-12.53 14.961,-18.742 -1.751,6.489 -3.836,12.925 -5.588,19.42 4.291,-1.3 8.582,-2.711 12.816,-4.178 2.033,-7.113 4.005,-14.225 6.151,-21.279 2.993,-0.795 5.925,-1.528 8.918,-2.258 -1.92,6.824 -3.954,13.659 -5.869,20.488 3.443,-1.24 7.002,-2.257 10.497,-3.447 1.298,-0.336 2.146,-1.462 2.938,-2.482 4.122,-5.589 8.353,-11.063 12.479,-16.593 -0.341,2.764 -0.622,5.641 -0.112,8.409 0.449,2.258 1.973,4.628 4.455,4.802 3.442,0.506 6.436,-1.809 8.301,-4.463 3.273,-4.629 5.588,-9.82 8.352,-14.677 -1.011,4.516 -1.748,9.087 -2.31,13.664 3.893,-1.751 9.083,-1.639 11.514,-5.648 4.343,-5.702 8.745,-11.29 13.149,-16.934 1.809,0 3.56,0 5.363,0 -1.466,4.858 -2.876,9.654 -4.402,14.507 3.616,-1.129 7.17,-2.371 10.781,-3.33 1.354,-3.668 2.314,-7.453 3.501,-11.177 11.288,0.056 22.524,0 33.814,0 -57.803,23.543 -115.72,46.97 -173.584,70.507 -1.075,0.167 -1.244,1.519 -1.586,2.481 z m 24.109,-70.504 c 1.012,-1.639 2.146,-3.672 4.23,-4.014 1.635,0.567 1.808,2.712 1.584,4.178 -0.96,6.773 -5.875,12.25 -11.463,15.808 1.246,-5.53 2.937,-11.062 5.649,-15.972 z m -51.878,71.975 c -2.769,6.263 -5.986,12.526 -10.839,17.44 -2.201,2.145 -4.965,4.177 -8.131,4.177 -2.652,-0.735 -3.106,-3.952 -3.331,-6.268 0.285,-8.806 3.729,-17.159 8.469,-24.499 5.419,-8.3 12.647,-15.468 20.831,-21 -0.399,10.391 -3.049,20.547 -6.999,30.15 z"
   inkscape:connector-curvature="0"
   style="fill:#0097db" />
	<path
   id="path6"
   d="m 201.516,194.177 c -3.218,0 -6.376,0 -9.594,0 0,1.804 0,3.608 0,5.415 1.185,0 2.369,0 3.611,0 0,6.101 0,12.25 0,18.35 2.028,0 4.062,0 6.095,0 -0.057,-7.908 0.173,-15.806 -0.112,-23.765 z"
   inkscape:connector-curvature="0"
   style="fill:#0097db" />
	<path
   id="path8"
   d="m 242.16,199.197 c -1.302,-5.816 -9.312,-7.278 -13.714,-4.063 -2.432,1.638 -3.107,4.632 -3.674,7.283 1.978,0.057 3.896,0.057 5.87,0.057 0.226,-2.432 1.752,-4.348 4.351,-4.18 1.463,0.226 2.028,2.372 1.636,3.954 -0.562,1.69 -1.696,3.046 -2.821,4.403 -3.277,3.781 -6.436,7.622 -9.653,11.401 5.981,-0.056 12.024,0 18.062,0 0,-1.747 0,-3.498 0,-5.251 -2.258,0 -4.572,0 -6.829,0 3.273,-3.78 8.413,-7.901 6.772,-13.604 z"
   inkscape:connector-curvature="0"
   style="fill:#0097db" />
	<path
   id="path10"
   d="m 258.926,203.715 c -2.146,-1.753 -5.022,-1.298 -7.564,-1.298 0.173,-1.018 0.284,-1.978 0.45,-2.993 2.936,-0.112 5.872,-0.112 8.807,-0.112 0,-1.691 0,-3.444 0,-5.135 -4.231,0 -8.465,0 -12.7,0 -0.787,4.23 -1.809,8.521 -2.539,12.756 2.707,-0.848 5.757,-1.863 8.464,-0.507 2.938,1.35 2.258,6.264 -0.848,6.938 -3.101,1.134 -5.981,-0.787 -8.353,-2.646 -0.168,1.915 -0.337,3.892 -0.565,5.863 4.464,2.656 10.67,2.993 14.68,-0.562 3.61,-2.932 3.841,-9.254 0.168,-12.304 z"
   inkscape:connector-curvature="0"
   style="fill:#0097db" />
</g><g
     id="g18">
	<path
   id="path14"
   d="m 212.298,204.562 c 0.17,0.168 0.339,0.393 0.567,0.507 h 0.052 c -0.226,-0.114 -0.449,-0.339 -0.619,-0.507 z"
   inkscape:connector-curvature="0"
   style="fill:none" />
	<path
   id="path16"
   d="m 222.347,197.222 c -2.708,-4.065 -8.806,-4.685 -12.873,-2.369 -4.571,2.655 -5.303,9.822 -1.521,13.434 1.746,1.635 4.233,1.748 6.491,1.695 -1.976,2.596 -3.783,5.302 -5.532,8.016 2.258,0 4.573,0 6.83,0 1.977,-3.049 4.179,-5.981 6.095,-9.088 2.091,-3.504 2.655,-8.133 0.51,-11.688 z m -5.814,1.47 c 1.298,0.563 2.198,1.86 2.198,3.384 0,1.47 -0.9,2.768 -2.142,3.33 0,0 -0.792,0.286 -1.074,0.286 -0.168,0 -0.341,0.056 -0.505,0.056 -0.798,0 -1.526,-0.229 -2.094,-0.679 h -0.052 c -0.229,-0.169 -0.397,-0.339 -0.567,-0.507 -0.618,-0.68 -0.959,-1.527 -0.959,-2.486 0,-2.034 1.639,-3.725 3.724,-3.725 0.225,0 0.453,0 0.679,0.056 0.281,0.057 0.792,0.285 0.792,0.285 z"
   inkscape:connector-curvature="0"
   style="fill:#0097db" />
</g></g>
</svg>