<?xml version="1.0" encoding="UTF-8" standalone="no"?>
<svg
   xmlns:dc="http://purl.org/dc/elements/1.1/"
   xmlns:cc="http://creativecommons.org/ns#"
   xmlns:rdf="http://www.w3.org/1999/02/22-rdf-syntax-ns#"
   xmlns:svg="http://www.w3.org/2000/svg"
   xmlns="http://www.w3.org/2000/svg"
   xmlns:sodipodi="http://sodipodi.sourceforge.net/DTD/sodipodi-0.dtd"
   xmlns:inkscape="http://www.inkscape.org/namespaces/inkscape"
   version="1.1"
   width="194.01175"
   height="252"
   id="svg179"
   viewBox="0 0 194.01175 252"
   sodipodi:docname="fk-liepaja.svg"
   inkscape:version="0.92.4 (5da689c313, 2019-01-14)">
  <metadata
     id="metadata185">
    <rdf:RDF>
      <cc:Work
         rdf:about="">
        <dc:format>image/svg+xml</dc:format>
        <dc:type
           rdf:resource="http://purl.org/dc/dcmitype/StillImage" />
        <dc:title></dc:title>
      </cc:Work>
    </rdf:RDF>
  </metadata>
  <defs
     id="defs183" />
  <sodipodi:namedview
     pagecolor="#ffffff"
     bordercolor="#666666"
     borderopacity="1"
     objecttolerance="10"
     gridtolerance="10"
     guidetolerance="10"
     inkscape:pageopacity="0"
     inkscape:pageshadow="2"
     inkscape:window-width="1366"
     inkscape:window-height="705"
     id="namedview181"
     showgrid="false"
     fit-margin-top="1"
     fit-margin-bottom="1"
     fit-margin-right="1"
     fit-margin-left="1"
     inkscape:zoom="1.5857392"
     inkscape:cx="161.44093"
     inkscape:cy="132.33295"
     inkscape:window-x="-8"
     inkscape:window-y="-8"
     inkscape:window-maximized="1"
     inkscape:current-layer="svg179" />
  <g
     id="Layer1000"
     transform="matrix(0.35263833,0,0,0.35263833,-7.9526761,-22.441265)">
    <path
       d="m 25.3877,477.6214 35.998,35.9515"
       style="fill:none"
       id="path2"
       inkscape:connector-curvature="0" />
    <path
       d="m 569.8882,477.6214 -33.9536,35.3559"
       style="fill:none"
       id="path4"
       inkscape:connector-curvature="0" />
    <path
       d="m 398.7142,202.2846 c -2.3363,1.9344 -4.8703,3.0989 -8.0144,2.7257 l -5.0534,2.5269 -3.2924,-6.6038 c -1.5331,-3.0751 -1.4652,-6.577 0.2633,-9.4517 -0.0798,-0.1715 -0.1616,-0.3334 -0.2229,-0.4556 -0.8563,-1.6962 -2.9111,-3.1169 -4.419,-4.1588 -7.7475,-5.3547 -11.8852,-13.3832 -13.7315,-22.4145 -2.2407,-10.9605 1.4364,-21.3561 8.1654,-30.0325 7.7645,-10.0116 17.3843,-13.975 29.7653,-13.1618 6.6257,0.4352 12.1284,2.3762 18.4531,3.8741 4.2455,1.0055 8.9963,-1.0077 12.4964,-3.2658 3.2818,-2.1174 10.2382,-8.739 13.5493,-6.4527 3.5209,2.4313 -0.3721,11.3052 -1.0959,15.006 -1.4791,7.5633 0.5084,12.2167 5.1033,18.4109 5.8623,7.9031 10.4116,17.1868 9.7014,27.278 -0.4896,6.9592 -3.4064,13.1134 -7.7867,18.464 -10.2807,12.5574 -24.1067,18.9104 -40.0473,14.0704 -5.0072,-1.5204 -9.6954,-2.9681 -13.834,-6.3588 z"
       style="fill:#51514e;fill-rule:evenodd"
       id="path6"
       inkscape:connector-curvature="0" />
    <path
       d="m 437.1194,128.0599 c 0.8804,-0.568 1.4762,-0.3386 1.225,0.9458 -1.5492,7.9223 -0.662,14.6728 6.4171,24.2162 9.6761,13.0439 11.5968,25.1208 2.1312,36.6824 -9.6692,11.8106 -20.7992,15.1494 -32.2031,11.6869 -3.9514,-1.1998 -8.0836,-2.3682 -11.3057,-5.0087 -2.5769,-2.112 -5.654,-2.9688 -7.8901,-1.2579 -1.3092,1.0014 -2.4441,2.64 -4.1246,2.337 -1.1635,-0.2099 -1.8522,-0.3001 -2.4193,-0.0165 -0.5083,-1.0194 -0.426,-1.8962 0.1816,-2.6472 1.7888,-2.2107 1.1649,-4.6718 -0.1576,-7.2922 -1.5131,-2.9984 -4.0284,-4.9803 -6.808,-6.9014 -6.2702,-4.3336 -9.28,-10.8761 -10.7013,-17.8277 -1.7088,-8.3592 0.9095,-16.485 6.7685,-24.0396 7.1646,-9.2383 15.2311,-10.8648 23.4586,-10.3242 6.3114,0.4143 11.9208,2.4322 17.2374,3.6915 5.2532,1.2442 11.5878,0.015 18.1903,-4.2444 z"
       style="fill:#008b53;fill-rule:evenodd"
       id="path8"
       inkscape:connector-curvature="0" />
    <path
       d="m 423.9478,146.4063 c -1.0254,-0.7336 -1.6604,-0.2738 -2.3391,0.6952 -4.6971,6.7072 -10.0904,13.588 -14.7934,20.2913 -1.0432,1.4197 -1.473,0.7946 -1.7634,-0.3225 -0.7964,-7.1489 -2.8839,-13.2473 -5.8908,-18.3934 -0.6791,-1.1618 -1.3653,-1.4371 -2.3792,-1.29 -1.3352,0.1933 -2.3739,0.5745 -3.4441,1.8171 -0.6817,0.7914 -0.5129,1.757 0.0331,3.15 3.8629,9.853 5.8981,20.4893 4.5008,31.9741 -0.1843,1.5163 -0.0502,1.4818 1.2147,0.8802 9.3289,-4.4357 19.8213,-7.1003 32.4805,-6.7972 1.3364,0.032 2.3161,-0.3948 2.8669,-1.0679 0.899,-1.0992 1.0603,-1.8624 1.2374,-2.8661 0.259,-1.4685 -0.8649,-2.6442 -2.1514,-2.7552 -6.2817,-0.5413 -13.0327,-0.4505 -19.7607,1.4265 -2.0497,0.5721 -2.4225,-0.025 -1.467,-1.4103 4.8431,-7.0236 10.1015,-13.7802 15.0315,-20.7436 0.5519,-0.7679 0.3641,-1.854 -0.316,-2.4001 z"
       style="fill:#4d4d4b;fill-rule:evenodd"
       id="path10"
       inkscape:connector-curvature="0" />
    <path
       d="m 365.6086,178.4046 c -1.6025,2.5753 -3.6365,4.4832 -6.7367,5.1261 l -3.9914,3.9988 -5.2164,-5.2191 c -2.4291,-2.4303 -3.475,-5.773 -2.7472,-9.0475 -0.1301,-0.1374 -0.259,-0.265 -0.3559,-0.3614 -1.3499,-1.3372 -3.7492,-2.0331 -5.5096,-2.5431 -9.0456,-2.6219 -15.5154,-8.9241 -20.13,-16.904 -5.6003,-9.6845 -5.4091,-20.7097 -1.7784,-31.0719 4.1895,-11.9569 12.0563,-18.766 24.0563,-21.9205 6.4218,-1.688 12.256,-1.592 18.7293,-2.1767 4.3452,-0.3925 8.2125,-3.8081 10.816,-7.0596 2.4412,-3.0487 6.9391,-11.5342 10.8042,-10.4158 4.1102,1.1895 3.2317,10.8399 3.7186,14.5792 0.9954,7.642 4.3558,11.4251 10.6776,15.8428 8.0657,5.6365 15.3239,12.9988 17.8499,22.7945 1.7423,6.7553 0.9273,13.5167 -1.5304,19.9802 -5.7687,15.1692 -16.8669,25.5782 -33.5196,26.0422 -5.231,0.1458 -10.1362,0.2592 -15.1363,-1.6442 z"
       style="fill:#51514e;fill-rule:evenodd"
       id="path12"
       inkscape:connector-curvature="0" />
    <path
       d="m 378.4975,95.8325 c 0.6548,-0.8179 1.2926,-0.7892 1.4616,0.5085 1.0428,8.0048 4.0246,14.1257 13.7643,20.932 13.3127,9.3029 18.9635,20.1476 13.6522,34.1139 -5.4254,14.2671 -14.9226,20.9627 -26.8359,21.2947 -4.1279,0.1149 -8.4174,0.317 -12.3104,-1.1656 -3.1136,-1.1859 -6.3037,-1.0229 -7.8819,1.3087 -0.9241,1.3649 -1.4809,3.2788 -3.1708,3.5242 -1.17,0.1699 -1.8517,0.3028 -2.2997,0.7515 -0.8052,-0.8056 -1.0052,-1.6633 -0.6671,-2.5682 0.9956,-2.6638 -0.3765,-4.8001 -2.4616,-6.866 -2.3857,-2.3639 -5.3996,-3.446 -8.645,-4.3866 -7.3207,-2.1219 -12.2496,-7.3725 -15.8018,-13.5147 -4.271,-7.3861 -4.3643,-15.9228 -1.2029,-24.9454 3.8656,-11.0333 11.0002,-15.1335 18.9746,-17.2296 6.1171,-1.6081 12.0769,-1.4729 17.5184,-1.9643 5.3767,-0.4857 10.9946,-3.66 15.906,-9.7931 z"
       style="fill:#008b53;fill-rule:evenodd"
       id="path14"
       inkscape:connector-curvature="0" />
    <path
       d="m 371.8227,117.4086 c -1.2052,-0.3707 -1.6616,0.2668 -1.9981,1.401 -2.3281,7.8504 -5.2613,16.0863 -7.5963,23.9348 -0.5391,1.6773 -1.145,1.2207 -1.7746,0.2533 -3.022,-6.5274 -6.9354,-11.6494 -11.4188,-15.5765 -1.0125,-0.8865 -1.7506,-0.93 -2.6656,-0.4691 -1.205,0.6067 -2.0692,1.2976 -2.6902,2.8154 -0.3955,0.9667 0.0707,1.829 1.0302,2.977 6.7877,8.1198 12.0904,17.562 14.4067,28.8972 0.3059,1.4965 0.4222,1.4213 1.4311,0.4496 7.4411,-7.1647 16.5472,-13.0187 28.6493,-16.7451 1.2777,-0.3934 2.0714,-1.1088 2.3804,-1.9218 0.5041,-1.3275 0.4151,-2.1025 0.2648,-3.1106 -0.22,-1.4749 -1.6586,-2.2335 -2.914,-1.9309 -6.1292,1.4784 -12.5031,3.7051 -18.2888,7.6185 -1.7625,1.1925 -2.3054,0.7444 -1.8385,-0.8724 2.3662,-8.1968 5.211,-16.272 7.6788,-24.4393 0.2799,-0.9033 -0.2427,-1.8738 -1.0608,-2.1761 z"
       style="fill:#4d4d4b;fill-rule:evenodd"
       id="path16"
       inkscape:connector-curvature="0" />
    <path
       d="m 216.6411,188.3439 c 1.143,2.8096 1.4923,5.5764 0.1916,8.463 l 0.8918,5.5792 -7.2879,1.1561 c -3.3936,0.5382 -6.7133,-0.5787 -8.9358,-3.0911 -0.1876,0.0245 -0.3666,0.054 -0.5016,0.0758 -1.875,0.307 -3.8476,1.84 -5.2944,2.9651 -7.4351,5.7806 -16.3358,7.3149 -25.5046,6.3623 -11.1273,-1.1561 -19.9377,-7.7869 -26.1913,-16.8118 -7.2161,-10.4139 -8.1059,-20.7801 -3.6103,-32.3447 2.4059,-6.1887 5.9106,-10.854 9.2397,-16.4363 2.2346,-3.7472 1.7419,-8.8834 0.6398,-12.9003 -1.0335,-3.7664 -5.2589,-12.3908 -2.0835,-14.862 3.377,-2.6277 10.6711,3.7518 13.9834,5.5541 6.7694,3.6832 11.8049,3.1858 19.0935,0.6643 9.2994,-3.2169 19.521,-4.7665 28.9326,-1.057 6.4904,2.5579 11.4838,7.1891 15.2711,12.9746 8.8882,13.5788 10.7934,28.6748 1.3874,42.4245 -2.9546,4.3191 -5.744,8.3556 -10.2215,11.2842 z"
       style="fill:#51514e;fill-rule:evenodd"
       id="path18"
       inkscape:connector-curvature="0" />
    <path
       d="m 157.3855,129.4113 c -0.2773,-1.0103 0.1206,-1.5097 1.2701,-0.8842 7.0908,3.858 13.796,5.0401 25.0254,1.1556 15.3485,-5.3098 27.4444,-3.5131 35.6277,8.989 8.3597,12.7711 8.2,24.3901 1.471,34.2267 -2.3315,3.4082 -4.6876,6.9985 -8.1742,9.2783 -2.7886,1.8232 -4.5305,4.5007 -3.5705,7.1475 0.5618,1.5497 1.7837,3.1245 0.9897,4.6363 -0.5497,1.0467 -0.8427,1.6764 -0.7426,2.3026 -1.125,0.1784 -1.9366,-0.1635 -2.4703,-0.9687 -1.5711,-2.3704 -4.106,-2.5148 -7.0026,-2.0408 -3.3145,0.5423 -5.9606,2.3459 -8.6281,4.4199 -6.0173,4.6783 -13.1619,5.5833 -20.2193,4.8502 -8.4864,-0.8818 -15.45,-5.8206 -20.8951,-13.6789 -6.6587,-9.6092 -5.7864,-17.7917 -2.7987,-25.4767 2.2916,-5.8952 5.9017,-10.6391 8.7002,-15.3316 2.7651,-4.6367 3.4961,-11.0479 1.4173,-18.6252 z"
       style="fill:#008b53;fill-rule:evenodd"
       id="path20"
       inkscape:connector-curvature="0" />
    <path
       d="m 170.9265,147.4867 c -1.0078,0.7577 -0.76,1.5015 -0.0397,2.44 4.9859,6.4954 9.9283,13.7069 14.9088,20.2067 1.0407,1.4215 0.3153,1.6437 -0.8375,1.585 -7.0578,-1.3884 -13.5017,-1.2298 -19.3134,0.092 -1.3122,0.2987 -1.7809,0.8704 -1.9453,1.8817 -0.2168,1.3316 -0.1653,2.4368 0.6983,3.8309 0.5501,0.888 1.5218,1.0171 3.0144,0.9149 10.5585,-0.724 21.3148,0.5307 31.849,5.3142 1.3908,0.6315 1.3983,0.4932 1.2045,-0.8941 -1.4277,-10.2305 -0.8166,-21.0387 3.2761,-33.0219 0.4321,-1.2651 0.3194,-2.3277 -0.1571,-3.0553 -0.7782,-1.1878 -1.4577,-1.5709 -2.3619,-2.0414 -1.3228,-0.6883 -2.7818,0.0304 -3.2743,1.2241 -2.4037,5.8289 -4.3455,12.2952 -4.5768,19.2763 -0.0702,2.1269 -0.7518,2.303 -1.7859,0.9755 -5.2439,-6.7297 -10.1083,-13.7752 -15.2686,-20.5697 -0.5666,-0.7571 -1.659,-0.9043 -2.3842,-0.4197 z"
       style="fill:#4d4d4b;fill-rule:evenodd"
       id="path22"
       inkscape:connector-curvature="0" />
    <path
       d="m 249.6529,172.6404 c 0.0383,3.0329 -0.6466,5.7363 -2.9113,7.9488 l -1.2067,5.5196 -7.2069,-1.5844 c -3.3559,-0.7379 -6.0387,-2.9897 -7.1905,-6.14 -0.1836,-0.0457 -0.361,-0.0836 -0.4946,-0.1126 -1.8577,-0.3988 -4.2538,0.3083 -6.0115,0.8275 -9.0323,2.6671 -17.8788,0.846 -26.0669,-3.3882 -9.9371,-5.1389 -15.7186,-14.5285 -18.2456,-25.2136 -2.916,-12.3295 0.0402,-22.305 8.4476,-31.43 4.4992,-4.8832 9.4652,-7.9469 14.6026,-11.9285 3.4484,-2.6728 4.8649,-7.6343 5.3053,-11.7763 0.4129,-3.8837 -0.3722,-13.4555 3.4863,-14.5967 4.1032,-1.2135 8.5647,7.3886 10.9904,10.2758 4.9574,5.9004 9.827,7.2757 17.533,7.5893 9.8319,0.4003 19.9138,2.6894 27.3213,9.5788 5.1086,4.751 8.0666,10.8855 9.4802,17.6544 3.3173,15.8864 -0.4205,30.636 -14.197,40.0026 -4.3275,2.9422 -8.3981,5.6818 -13.6357,6.7735 z"
       style="fill:#51514e;fill-rule:evenodd"
       id="path24"
       inkscape:connector-curvature="0" />
    <path
       d="m 216.0031,96.1423 c 0.1107,-1.0419 0.6634,-1.3615 1.5052,-0.3595 5.1929,6.1805 11.0036,9.7289 22.8761,10.2122 16.2276,0.6604 26.8326,6.7491 29.8867,21.3759 3.1201,14.9415 -1.2705,25.7002 -11.1263,32.4011 -3.4149,2.3218 -6.9191,4.804 -10.9973,5.6536 -3.2618,0.6792 -5.861,2.536 -5.9336,5.3506 -0.0427,1.6478 0.5199,3.5599 -0.7713,4.6775 -0.8939,0.7738 -1.3965,1.2531 -1.5319,1.8725 -1.1125,-0.2445 -1.7433,-0.8592 -1.9462,-1.8036 -0.5972,-2.7804 -2.9044,-3.8402 -5.7742,-4.4565 -3.2836,-0.7052 -6.4056,0.008 -9.6461,0.9647 -7.31,2.1586 -14.2917,0.3928 -20.5944,-2.8663 -7.5786,-3.9193 -12.2585,-11.0595 -14.4588,-20.3632 -2.6908,-11.377 1.1086,-18.6762 6.6958,-24.7399 4.2857,-4.6518 9.3785,-7.7502 13.697,-11.097 4.2671,-3.3071 7.2882,-9.0089 8.1193,-16.8221 z"
       style="fill:#008b53;fill-rule:evenodd"
       id="path26"
       inkscape:connector-curvature="0" />
    <path
       d="m 222.0103,117.9137 c -1.2149,0.3374 -1.2557,1.1203 -0.9278,2.257 2.2704,7.8673 4.2388,16.3854 6.5025,24.2549 0.4499,1.7033 -0.3066,1.6453 -1.3584,1.1699 -6.0637,-3.8693 -12.1207,-6.0743 -18.0138,-6.9655 -1.3306,-0.201 -1.9758,0.1601 -2.498,1.0416 -0.688,1.1605 -1.0436,2.2082 -0.7485,3.8214 0.1879,1.0275 1.0454,1.5025 2.4723,1.9523 10.0939,3.1808 19.6497,8.2759 27.7104,16.5751 1.0643,1.0956 1.1217,0.9696 1.4478,-0.3926 2.4059,-10.0457 6.9207,-19.8847 15.1059,-29.5465 0.8641,-1.02 1.1471,-2.0504 0.9691,-2.9018 -0.2909,-1.3899 -0.7835,-1.9947 -1.4535,-2.7628 -0.9803,-1.1237 -2.6009,-0.9873 -3.4952,-0.0557 -4.3659,4.5489 -8.5344,9.8599 -11.2984,16.2747 -0.8419,1.9544 -1.5407,1.8696 -2.0188,0.2561 -2.425,-8.1796 -4.3814,-16.5147 -6.7049,-24.7242 -0.2511,-0.9117 -1.2144,-1.4476 -2.0664,-1.2612 z"
       style="fill:#4d4d4b;fill-rule:evenodd"
       id="path28"
       inkscape:connector-curvature="0" />
    <path
       d="m 308.4106,164.9594 c -0.7569,2.9372 -2.1254,5.3671 -4.8903,6.9097 l -2.6093,5.0114 -6.541,-3.4155 c -3.0458,-1.5905 -5.0457,-4.466 -5.3328,-7.808 -0.1653,-0.0921 -0.3266,-0.1752 -0.4479,-0.2381 -1.6886,-0.8711 -4.1862,-0.8158 -6.0185,-0.7747 -9.4156,0.21 -17.477,-3.8631 -24.2714,-10.0928 -8.2457,-7.5606 -11.368,-18.1361 -11.0103,-29.1101 0.4127,-12.6629 5.8768,-21.517 16.3794,-28.1234 5.6206,-3.5353 11.2153,-5.1925 17.2157,-7.6907 4.0277,-1.6769 6.6934,-6.0947 8.2026,-9.9771 1.4151,-3.6402 3.1626,-13.0838 7.1853,-13.1754 4.2777,-0.0972 6.3323,9.3728 7.9177,12.7942 3.2403,6.9922 7.5801,9.5941 14.9355,11.9137 9.3843,2.9597 18.5156,7.8078 23.8617,16.3959 3.687,5.9224 4.9363,12.6173 4.5289,19.5202 -0.9564,16.2009 -8.4242,29.4579 -24.1721,34.8922 -4.9468,1.7071 -9.5925,3.2857 -14.9332,2.9685 z"
       style="fill:#51514e;fill-rule:evenodd"
       id="path30"
       inkscape:connector-curvature="0" />
    <path
       d="m 295.956,82.3207 c 0.3796,-0.9766 0.9967,-1.1404 1.5469,0.047 3.3942,7.3242 8.0736,12.2698 19.4057,15.8437 15.489,4.8847 24.1307,13.5369 23.25,28.453 -0.8994,15.2374 -7.9529,24.4718 -19.2189,28.3595 -3.9036,1.3471 -7.9353,2.8256 -12.0937,2.5781 -3.3259,-0.1981 -6.3204,0.9137 -7.1272,3.6111 -0.4725,1.5792 -0.43,3.5719 -1.9686,4.3126 -1.0653,0.5128 -1.6759,0.8439 -1.9687,1.4063 -1.0097,-0.5272 -1.4576,-1.2855 -1.4063,-2.2501 0.1514,-2.8398 -1.798,-4.4666 -4.4064,-5.8125 -2.9846,-1.54 -6.1844,-1.669 -9.5624,-1.5936 -7.6201,0.1701 -13.8963,-3.3616 -19.1262,-8.1567 -6.2887,-5.7662 -8.9365,-13.8824 -8.625,-23.4377 0.3807,-11.6847 5.9582,-17.735 12.9376,-22.125 5.3538,-3.3678 11.0801,-5.0253 16.1241,-7.1252 4.9838,-2.0749 9.392,-6.7872 12.2391,-14.1105 z"
       style="fill:#008b53;fill-rule:evenodd"
       id="path32"
       inkscape:connector-curvature="0" />
    <path
       d="m 296.0555,104.9054 c -1.2609,0.008 -1.5052,0.7526 -1.4862,1.9355 0.1321,8.1873 -0.1976,16.9237 -0.0726,25.1113 -0.0116,1.7617 -0.7265,1.5077 -1.6171,0.7736 -4.8396,-5.3215 -10.1084,-9.0349 -15.5628,-11.4375 -1.2317,-0.5423 -1.9488,-0.3626 -2.6836,0.3514 -0.9677,0.94 -1.5851,1.8582 -1.7226,3.4923 -0.0876,1.0409 0.6157,1.7238 1.8751,2.5314 8.9096,5.7118 16.7987,13.1303 22.4062,23.25 0.7404,1.336 0.8289,1.2294 1.5001,0 4.9513,-9.0657 11.884,-17.38 22.3126,-24.5628 1.101,-0.7582 1.6438,-1.6786 1.6949,-2.5469 0.083,-1.4176 -0.2342,-2.1302 -0.6798,-3.0469 -0.652,-1.3411 -2.2518,-1.6337 -3.3588,-0.9686 -5.4042,3.2476 -10.8175,7.2824 -15.1642,12.7502 -1.324,1.6659 -1.9763,1.4012 -2.0154,-0.2812 -0.1996,-8.5292 0.0938,-17.0858 0,-25.6173 -0.004,-0.9456 -0.7931,-1.7149 -1.6642,-1.758 z"
       style="fill:#4d4d4b;fill-rule:evenodd"
       id="path34"
       inkscape:connector-curvature="0" />
    <path
       d="m 298.0528,691.1433 c 3.4038,-0.011 7.7355,-4.9961 13.286,-12.3928 6.1616,-8.2105 11.9474,-15.5239 21.5263,-15.5248 5.2049,-5e-4 10.8813,1.8967 12.2814,9.7971 0.1522,0.8589 -0.813,1.2949 -1.3031,0.5998 -2.4237,-3.4384 -5.1653,-4.528 -8.7279,-4.4716 -6.4871,0.1029 -12.4611,5.1537 -12.4501,12.1501 0.0188,11.5762 8.6264,16.0266 18.7501,15.8998 10.7376,-0.1346 17.9385,-6.6395 24.3,-15.4499 7.2451,-10.0335 13.591,-18.6301 24.3,-18.4496 6.6044,0.1111 10.8768,3.2689 11.9251,9.9 0.1757,1.1129 -0.3685,1.4514 -0.9,0.8252 -2.5197,-3.4892 -5.7583,-5.1347 -9.675,-4.8753 -7.7357,0.5128 -11.7776,7.4834 -12.075,12.9376 -0.2996,5.4958 4.6871,11.4959 10.1248,13.4623 1.6622,0.6009 3.384,0.9777 4.8002,-0.15 76.1287,-60.6313 125.2338,-118.8595 126.1502,-171.7514 -0.0499,-107.1 -0.0998,-214.2 -0.1496,-321.3 -45.0499,3.0123 -90.0998,6.0244 -135.1497,9.0368 -21.9549,-19.3096 -50.7186,-32.7674 -87.0004,-32.9998 -36.2818,0.2324 -65.0452,13.6902 -87.0001,32.9998 -45.0499,-3.0124 -90.0998,-6.0245 -135.1497,-9.0368 -0.0498,107.1 -0.0997,214.2 -0.1496,321.3 0.9164,52.8919 50.0216,111.1201 126.1502,171.7514 1.4162,1.1277 3.138,0.7509 4.8002,0.15 5.4377,-1.9664 10.4244,-7.9665 10.1248,-13.4623 -0.2974,-5.4542 -4.3393,-12.4248 -12.075,-12.9376 -3.9167,-0.2594 -7.1552,1.3861 -9.675,4.8753 -0.5315,0.6262 -1.0757,0.2877 -0.9,-0.8252 1.0483,-6.6311 5.3207,-9.7889 11.9251,-9.9 10.709,-0.1805 17.0549,8.4161 24.3,18.4496 6.3615,8.8104 13.5624,15.3153 24.3,15.4499 10.1237,0.1268 18.7313,-4.3236 18.7501,-15.8998 0.011,-6.9964 -5.963,-12.0472 -12.4501,-12.1501 -3.5626,-0.0564 -6.3042,1.0332 -8.7279,4.4716 -0.4901,0.6951 -1.4553,0.2591 -1.3031,-0.5998 1.4001,-7.9004 7.0765,-9.7976 12.2814,-9.7971 9.5789,9e-4 15.3647,7.3143 21.5263,15.5248 5.5506,7.3967 9.8552,12.3818 13.2591,12.3928 z"
       style="fill:none"
       id="path36"
       inkscape:connector-curvature="0" />
    <path
       d="m 298.6534,775.4156 c 0.4989,0 1.2428,-0.3481 1.893,-0.7605 170.4714,-96.0664 235.1775,-191.3128 235.359,-251.6256 0.3418,-113.4995 0.2409,-224.0756 0.3659,-337.5759 -48.3007,4.0697 -97.3151,7.5744 -145.6157,11.6441 -27.5199,-21.8792 -56.7973,-32.2823 -91.9968,-32.2784 -35.1995,-0.004 -64.476,10.3992 -91.9958,32.2784 -48.3007,-4.0697 -97.3151,-7.5744 -145.6158,-11.6441 0.125,113.5003 0.0241,224.0764 0.366,337.5759 0.1814,60.3128 64.8876,155.5592 235.3589,251.6256 0.6503,0.4124 1.3825,0.7605 1.8813,0.7605 z"
       style="fill:none"
       id="path38"
       inkscape:connector-curvature="0" />
    <path
       d="m 214.0084,704.1665 c 2.3499,-2.55 3.5852,-3.8358 6.2251,-6.7501 2.2743,-2.5101 8.9998,-3.0436 12.0751,0.3002 1.6597,1.8048 3.0311,3.8588 4.6499,5.6999 3.7168,4.2261 8.1094,5.7084 12.8999,5.6999 5.2271,-0.009 9.9516,-1.2824 13.5,-5.55 3.4285,-4.1238 5.6047,-8.386 10.2002,-8.2499 5.921,0.1752 8.4875,4.3387 11.6997,8.1 3.6482,4.2712 8.138,5.6738 12.9751,5.7002 6.5497,0.0357 11.5285,-2.765 15.0015,-8.176 2.3448,-3.6539 5.434,-5.5313 7.95,-5.55 3.0368,-0.0224 6.1124,1.0647 8.8501,4.5375 3.7547,4.7627 7.4857,9.0907 15.9752,9.1876 7.2728,0.0828 12.2712,-3.8024 16.7998,-10.1251 1.5636,-2.1826 3.8296,-3.3876 6.4499,-3.45 5.6807,-0.1355 9.216,3.7947 12.7698,8.7647 l -7.3692,5.747 c -0.9,-1.425 -2.2499,-2.85 -3.1499,-4.275 -0.7613,-1.2047 -1.6761,-1.3628 -2.681,0.0562 -5.3081,7.4945 -13.195,12.1694 -22.519,12.3188 -9.5748,0.1533 -16.1503,-3.8035 -22.763,-12.337 -0.7846,-1.0122 -1.7518,-0.8742 -2.3814,0.0281 -5.9465,8.5201 -13.6876,12.2859 -22.8566,12.4217 -10.785,0.1596 -18.3013,-4.9844 -22.2384,-11.5501 -1.0848,-1.8093 -2.1183,-2.2535 -3.3375,-0.5249 -5.6735,8.043 -13.202,12.0452 -22.1816,12.0931 -10.1696,0.0542 -17.5731,-4.6219 -23.0253,-12.3001 -0.7948,-1.1191 -1.7538,-1.2721 -2.7748,-0.1499 -1.1588,1.2733 -2.2,2.6501 -3.3001,3.975 -2.4812,-1.8805 -4.9624,-3.7613 -7.4435,-5.6418 z"
       style="fill:#ffffff;fill-rule:evenodd"
       id="path40"
       inkscape:connector-curvature="0" />
    <path
       d="m 245.7388,726.1824 24.7502,16.2002 c 3.1873,2.0861 7.8032,2.3857 12.45,0.5063 5.9593,-2.4103 10.7657,-6.2609 14.4,-11.1563 0.9924,-1.3365 2.4497,-1.2691 3.4501,0.15 4.2936,6.0913 11.09,12.005 19.5001,12.1498 1.7373,0.0298 3.5535,-0.328 4.8761,-1.2002 l 27.0751,-17.8509 c 0.9502,-0.7373 -0.1391,-1.599 -0.9748,-2.325 -1.2333,-1.0714 -2.9469,-1.6177 -5.025,-1.5749 -2.7728,0.057 -6.2552,2.3281 -8.1751,5.1001 -3.9019,5.6327 -9.8365,8.8671 -15.0001,8.8501 -4.4648,-0.0145 -9.091,-0.7824 -12.3749,-4.6503 -3.2913,-3.8761 -7.7514,-9.447 -11.4001,-9.2999 -4.5644,0.1843 -7.3463,2.9497 -9.527,5.7745 -4.1317,5.3524 -8.8948,7.632 -14.2506,7.6501 -5.8807,0.0201 -10.8082,-1.5284 -14.5508,-6.3003 -3.096,-3.9469 -6.1146,-7.0395 -9.6001,-7.05 -5.4553,-0.0165 -7.6946,3.6709 -5.6231,5.0267 z"
       style="fill:#ffffff;fill-rule:evenodd"
       id="path42"
       inkscape:connector-curvature="0" />
    <path
       d="m 272.3258,280.6214 v -26.2933 h 15.8029 v -12.2927 h -15.8029 v -14.8541 h 16.9022 v -12.549 h -28.9951 v 65.9891 z m 49.3325,-37.5619 14.9097,-28.4272 h -14.2912 l -9.2758,21.1711 c -1.0307,2.6464 -2.0611,5.2075 -3.0231,7.854 h -0.2061 v -29.0251 h -12.024 v 65.9891 h 12.024 v -21.0858 l 3.5042,-6.1463 10.0312,27.2321 h 13.7418 z"
       style="fill:#51514e;fill-rule:evenodd"
       id="path44"
       inkscape:connector-curvature="0" />
    <path
       d="m 143.8189,269.6862 h -11.5506 v -0.0828 l 2.8763,-2.5234 c 4.1797,-3.8055 8.1348,-8.1073 8.1348,-13.6091 0,-5.2532 -3.4608,-9.5967 -11.1461,-9.5967 -3.9104,0 -7.6408,1.2824 -9.7529,2.6889 l 2.0673,5.2946 c 1.5733,-1.0341 3.8203,-2.1095 6.1124,-2.1095 3.2811,0 4.854,1.9853 4.854,4.3846 0,3.8055 -3.5506,7.4871 -9.4382,13.1542 l -3.9552,3.9296 v 4.5502 h 21.7982 z m 15.5956,6.5356 c 7.2811,0 11.5957,-6.0392 11.5957,-16.2978 0,-7.818 -2.6518,-16.0498 -11.4608,-16.0498 -8.1799,0 -11.7303,7.4044 -11.7303,16.2567 0,7.9007 2.8763,16.0909 11.5954,16.0909 z m 0.0902,-5.7912 c -2.4721,0 -3.7755,-3.2264 -3.7755,-10.3825 0,-7.1563 1.438,-10.3827 3.7755,-10.3827 2.4718,0 3.5954,3.6402 3.5954,10.3827 0,8.5626 -1.7078,10.3825 -3.5954,10.3825 z"
       style="fill:#51514e;fill-rule:evenodd"
       id="path46"
       inkscape:connector-curvature="0" />
    <path
       d="m 441.6347,275.5979 v -30.6502 h -6.5781 l -8.6088,3.8715 1.7215,5.1217 5.7835,-2.702 h 0.0884 v 24.359 z m 28.5633,-7.1382 h 3.5759 v -5.364 h -3.5759 v -18.148 h -8.7412 l -11.4783,18.8739 v 4.6381 h 13.1119 v 7.1382 h 7.1076 z m -13.5091,-5.4446 3.7083,-6.2914 c 1.0596,-1.855 1.8984,-3.6701 2.8256,-5.4848 h 0.1321 c -0.0879,1.8147 -0.2645,3.8716 -0.2645,5.6058 v 6.251 h -6.4015 z"
       style="fill:#51514e;fill-rule:evenodd"
       id="path48"
       inkscape:connector-curvature="0" />
    <path
       d="m 260.2329,280.6214 v -65.9891 h 28.9951 v 12.549 h -16.9022 v 14.8541 h 15.8029 v 12.2927 h -15.8029 v 26.2933 z m 37.5149,0 v -65.9891 h 12.024 v 29.0251 h 0.2061 c 0.962,-2.6465 1.9924,-5.2076 3.0231,-7.854 l 9.2758,-21.1711 h 14.2912 l -14.9097,28.4272 15.3907,37.5619 h -13.7418 l -10.0312,-27.2321 -3.5042,6.1463 v 21.0858 z m 136.2934,-5.0235 v -24.359 h -0.0884 l -5.7835,2.702 -1.7215,-5.1217 8.6088,-3.8715 h 6.5781 v 30.6502 z m 29.0492,0 v -7.1382 h -13.1119 v -4.6381 l 11.4783,-18.8739 h 8.7412 v 18.148 h 3.5759 v 5.364 h -3.5759 v 7.1382 z m -387.1741,-73.2481 -0.1496,321.3 c 0.9164,52.8919 50.0216,111.1201 126.1502,171.7514 1.4162,1.1277 3.138,0.7509 4.8002,0.15 5.4377,-1.9664 10.4244,-7.9665 10.1248,-13.4623 -0.2974,-5.4542 -4.3393,-12.4248 -12.075,-12.9376 -3.9167,-0.2594 -7.1552,1.3861 -9.675,4.8753 -0.5315,0.6262 -1.0757,0.2877 -0.9,-0.8252 1.0483,-6.6311 5.3207,-9.7889 11.9251,-9.9 10.709,-0.1805 17.0549,8.4161 24.3,18.4496 6.3615,8.8104 13.5624,15.3153 24.3,15.4499 10.1237,0.1268 18.7313,-4.3236 18.7501,-15.8998 0.011,-6.9964 -5.963,-12.0472 -12.4501,-12.1501 -3.5626,-0.0564 -6.3042,1.0332 -8.7279,4.4716 -0.4901,0.6951 -1.4553,0.2591 -1.3031,-0.5998 1.4001,-7.9004 7.0765,-9.7976 12.2814,-9.7971 9.5789,9e-4 15.3647,7.3143 21.5263,15.5248 5.5506,7.3967 9.8552,12.3818 13.2591,12.3928 3.4038,-0.011 7.7355,-4.9961 13.286,-12.3928 6.1616,-8.2105 11.9474,-15.5239 21.5263,-15.5248 5.2049,-5e-4 10.8813,1.8967 12.2814,9.7971 0.1522,0.8589 -0.813,1.2949 -1.3031,0.5998 -2.4237,-3.4384 -5.1653,-4.528 -8.7279,-4.4716 -6.4871,0.1029 -12.4611,5.1537 -12.4501,12.1501 0.0188,11.5762 8.6264,16.0266 18.7501,15.8998 10.7376,-0.1346 17.9385,-6.6395 24.3,-15.4499 7.2451,-10.0335 13.591,-18.6301 24.3,-18.4496 6.6044,0.1111 10.8768,3.2689 11.9251,9.9 0.1757,1.1129 -0.3685,1.4514 -0.9,0.8252 -2.5197,-3.4892 -5.7583,-5.1347 -9.675,-4.8753 -7.7357,0.5128 -11.7776,7.4834 -12.075,12.9376 -0.2996,5.4958 4.6871,11.4959 10.1248,13.4623 1.6622,0.6009 3.384,0.9777 4.8002,-0.15 76.1287,-60.6313 125.2338,-118.8595 126.1502,-171.7514 l -0.1496,-321.3 -135.1497,9.0368 c -21.9549,-19.3096 -50.7186,-32.7674 -87.0004,-32.9998 -36.2818,0.2324 -65.0452,13.6902 -87.0001,32.9998 z m 95.0939,57.5742 c 0,10.2586 -4.3146,16.2978 -11.5957,16.2978 -8.7191,0 -11.5954,-8.1902 -11.5954,-16.0909 0,-8.8523 3.5504,-16.2567 11.7303,-16.2567 8.809,0 11.4608,8.2318 11.4608,16.0498 z m -27.1913,9.7622 v 6.0806 h -21.7982 v -4.5502 l 3.9552,-3.9296 c 5.8876,-5.6671 9.4382,-9.3487 9.4382,-13.1542 0,-2.3993 -1.5729,-4.3846 -4.854,-4.3846 -2.2921,0 -4.5391,1.0754 -6.1124,2.1095 l -2.0673,-5.2946 c 2.1121,-1.4065 5.8425,-2.6889 9.7529,-2.6889 7.6853,0 11.1461,4.3435 11.1461,9.5967 0,5.5018 -3.9551,9.8036 -8.1348,13.6091 l -2.8763,2.5234 v 0.0828 z"
       style="fill:#ffffff;fill-rule:evenodd"
       id="path50"
       inkscape:connector-curvature="0" />
    <path
       d="m 163.1001,260.0481 c 0,-6.7425 -1.1236,-10.3827 -3.5954,-10.3827 -2.3375,0 -3.7755,3.2264 -3.7755,10.3827 0,7.1561 1.3034,10.3825 3.7755,10.3825 1.8876,0 3.5954,-1.8199 3.5954,-10.3825 z"
       style="fill:#ffffff;fill-rule:evenodd"
       id="path52"
       inkscape:connector-curvature="0" />
    <path
       d="m 75.7667,523.6498 0.1496,-321.3 135.1497,9.0368 c 21.9549,-19.3096 50.7183,-32.7674 87.0001,-32.9998 36.2818,0.2324 65.0455,13.6902 87.0004,32.9998 l 135.1497,-9.0368 0.1496,321.3 c -0.9164,52.8919 -50.0215,111.1201 -126.1502,171.7514 -1.4162,1.1277 -3.138,0.7509 -4.8002,0.15 -5.4377,-1.9664 -10.4244,-7.9665 -10.1248,-13.4623 0.2974,-5.4542 4.3393,-12.4248 12.075,-12.9376 3.9167,-0.2594 7.1553,1.3861 9.675,4.8753 0.5315,0.6262 1.0757,0.2877 0.9,-0.8252 -1.0483,-6.6311 -5.3207,-9.7889 -11.9251,-9.9 -10.709,-0.1805 -17.0549,8.4161 -24.3,18.4496 -6.3615,8.8104 -13.5624,15.3153 -24.3,15.4499 -10.1237,0.1268 -18.7313,-4.3236 -18.7501,-15.8998 -0.011,-6.9964 5.963,-12.0472 12.4501,-12.1501 3.5626,-0.0564 6.3042,1.0332 8.7279,4.4716 0.4901,0.6951 1.4553,0.2591 1.3031,-0.5998 -1.4001,-7.9004 -7.0765,-9.7976 -12.2814,-9.7971 -9.5789,9e-4 -15.3647,7.3143 -21.5263,15.5248 -5.5505,7.3967 -9.8822,12.3818 -13.286,12.3928 -3.4039,-0.011 -7.7085,-4.9961 -13.2591,-12.3928 -6.1616,-8.2105 -11.9474,-15.5239 -21.5263,-15.5248 -5.2049,-5e-4 -10.8813,1.8967 -12.2814,9.7971 -0.1522,0.8589 0.813,1.2949 1.3031,0.5998 2.4237,-3.4384 5.1653,-4.528 8.7279,-4.4716 6.4871,0.1029 12.4611,5.1537 12.4501,12.1501 -0.0188,11.5762 -8.6264,16.0266 -18.7501,15.8998 -10.7376,-0.1346 -17.9385,-6.6395 -24.3,-15.4499 -7.2451,-10.0335 -13.591,-18.6301 -24.3,-18.4496 -6.6044,0.1111 -10.8768,3.2689 -11.9251,9.9 -0.1757,1.1129 0.3685,1.4514 0.9,0.8252 2.5198,-3.4892 5.7583,-5.1347 9.675,-4.8753 7.7357,0.5128 11.7776,7.4834 12.075,12.9376 0.2996,5.4958 -4.6871,11.4959 -10.1248,13.4623 -1.6622,0.6009 -3.384,0.9777 -4.8002,-0.15 C 125.7883,634.7699 76.6831,576.5417 75.7667,523.6498 Z m 161.1918,179.7667 c 3.7168,4.2261 8.1094,5.7084 12.8999,5.6999 5.2271,-0.009 9.9516,-1.2824 13.5,-5.55 3.4285,-4.1238 5.6047,-8.386 10.2002,-8.2499 5.921,0.1752 8.4875,4.3387 11.6997,8.1 3.6482,4.2712 8.138,5.6738 12.9751,5.7002 6.5497,0.0357 11.5285,-2.765 15.0015,-8.176 2.3448,-3.6539 5.434,-5.5313 7.95,-5.55 3.0368,-0.0224 6.1124,1.0647 8.8501,4.5375 3.7547,4.7627 7.4857,9.0907 15.9752,9.1876 7.2728,0.0828 12.2712,-3.8024 16.7998,-10.1251 1.5636,-2.1826 3.8296,-3.3876 6.4499,-3.45 5.6807,-0.1355 9.216,3.7947 12.7698,8.7647 l -7.3692,5.747 c -0.9,-1.425 -2.2499,-2.85 -3.1499,-4.275 -0.7613,-1.2047 -1.6761,-1.3628 -2.681,0.0562 -5.3081,7.4945 -13.195,12.1694 -22.519,12.3188 -9.5748,0.1533 -16.1503,-3.8035 -22.763,-12.337 -0.7846,-1.0122 -1.7518,-0.8742 -2.3814,0.0281 -5.9465,8.5201 -13.6876,12.2859 -22.8566,12.4217 -10.785,0.1596 -18.3013,-4.9844 -22.2384,-11.5501 -1.0848,-1.8093 -2.1183,-2.2535 -3.3375,-0.5249 -5.6735,8.043 -13.202,12.0452 -22.1816,12.0931 -10.1696,0.0542 -17.5731,-4.6219 -23.0253,-12.3001 -0.7948,-1.1191 -1.7538,-1.2721 -2.7748,-0.1499 -1.1588,1.2733 -2.2,2.6501 -3.3001,3.975 l -7.4435,-5.6418 c 2.3499,-2.55 3.5852,-3.8358 6.2251,-6.7501 2.2743,-2.5101 8.9998,-3.0436 12.0751,0.3002 1.6597,1.8048 3.0311,3.8588 4.6499,5.6999 z m 14.4034,17.7392 c 3.4855,0.0105 6.5041,3.1031 9.6001,7.05 3.7426,4.7719 8.6701,6.3204 14.5508,6.3003 5.3558,-0.0181 10.1189,-2.2977 14.2506,-7.6501 2.1807,-2.8248 4.9626,-5.5902 9.527,-5.7745 3.6487,-0.1471 8.1088,5.4238 11.4001,9.2999 3.2839,3.8679 7.9101,4.6358 12.3749,4.6503 5.1636,0.017 11.0982,-3.2174 15.0001,-8.8501 1.9199,-2.772 5.4023,-5.0431 8.1751,-5.1001 2.0781,-0.0428 3.7917,0.5035 5.025,1.5749 0.8357,0.726 1.925,1.5877 0.9748,2.325 l -27.0751,17.8509 c -1.3226,0.8722 -3.1388,1.23 -4.8761,1.2002 -8.4101,-0.1448 -15.2065,-6.0585 -19.5001,-12.1498 -1.0004,-1.4191 -2.4577,-1.4865 -3.4501,-0.15 -3.6343,4.8954 -8.4407,8.746 -14.4,11.1563 -4.6468,1.8794 -9.2627,1.5798 -12.45,-0.5063 l -24.7502,-16.2002 c -2.0715,-1.3558 0.1678,-5.0432 5.6231,-5.0267 z m 47.2915,54.2599 c 0.4989,0 1.2428,-0.3481 1.893,-0.7605 170.4714,-96.0664 235.1775,-191.3128 235.359,-251.6256 0.3418,-113.4995 0.2409,-224.0756 0.3659,-337.5759 -48.3007,4.0697 -97.3151,7.5744 -145.6157,11.6441 -27.5199,-21.8792 -56.7973,-32.2823 -91.9968,-32.2784 -35.1995,-0.004 -64.476,10.3992 -91.9958,32.2784 -48.3007,-4.0697 -97.3151,-7.5744 -145.6158,-11.6441 0.125,113.5003 0.0241,224.0764 0.366,337.5759 0.1814,60.3128 64.8876,155.5592 235.3589,251.6256 0.6503,0.4124 1.3825,0.7605 1.8813,0.7605 z M 61.3857,513.5729 C 61.3519,501.5602 61.323,489.5787 61.2981,477.6214 H 25.3877 Z m 474.6347,-35.9515 c -0.0246,11.7598 -0.053,23.5428 -0.0858,35.3559 l 33.9536,-35.3559 z m -460.239,14.2979 444.5697,0.2072 -0.007,-14.5051 H 75.7882 Z"
       style="fill:#51514e;fill-rule:evenodd"
       id="path54"
       inkscape:connector-curvature="0" />
    <path
       d="m 460.3972,256.7237 -3.7083,6.2914 v 0.0806 h 6.4015 v -6.251 c 0,-1.7342 0.1766,-3.7911 0.2645,-5.6058 h -0.1321 c -0.9272,1.8147 -1.766,3.6298 -2.8256,5.4848 z"
       style="fill:#ffffff;fill-rule:evenodd"
       id="path56"
       inkscape:connector-curvature="0" />
    <path
       d="M 25.3877,306.4365 H 569.8882 V 477.6214 H 25.3877 Z"
       style="fill:none"
       id="path58"
       inkscape:connector-curvature="0" />
    <path
       d="m 75.8225,334.0443 h 26.8713 l 0.0703,101.6287 22.3234,0.0567 0.0411,13.6399 -22.4348,-0.0134 H 75.8225 Z"
       style="fill:#fbffff;fill-rule:evenodd"
       id="path60"
       inkscape:connector-curvature="0" />
    <path
       d="M 136.8913,334.0551 H 165.204 V 449.3679 H 136.8913 Z"
       style="fill:#fbffff;fill-rule:evenodd"
       id="path62"
       inkscape:connector-curvature="0" />
    <path
       d="m 179.5881,334.0454 49.1709,0.01 -0.008,12.3089 -22.5383,0.003 -3e-4,34.8723 22.5471,0.0307 -6e-4,12.9004 -22.551,0.0159 0.005,40.9416 22.5562,-0.0187 -0.008,14.2597 h -49.13 z"
       style="fill:none"
       id="path64"
       inkscape:connector-curvature="0" />
    <path
       d="m 245.9463,334.0553 -0.0836,115.3126 27.576,8e-4 -0.004,-54.1295 17.5414,0.003 c 10.4318,-6.8513 12.2933,-20.3304 11.9452,-30.9039 -0.3481,-10.5735 -2.1555,-25.4409 -12.2335,-30.2865 z"
       style="fill:none"
       id="path66"
       inkscape:connector-curvature="0" />
    <path
       d="m 273.5192,348.5469 h 6.9752 v 31.8753 h -6.9752 z"
       style="fill:none"
       id="path68"
       inkscape:connector-curvature="0" />
    <path
       d="m 273.5192,380.4222 v -31.8753 h 6.9752 v 31.8753 z m -27.5729,-46.3669 -0.0836,115.3126 27.576,8e-4 -0.004,-54.1295 17.5414,0.003 c 10.4318,-6.8513 12.2933,-20.3304 11.9452,-30.9039 -0.3481,-10.5735 -2.1555,-25.4409 -12.2335,-30.2865 z"
       style="fill:#ffffff;fill-rule:evenodd"
       id="path70"
       inkscape:connector-curvature="0" />
    <path
       d="m 315.2974,359.6788 37.4989,-0.0122"
       style="fill:none"
       id="path72"
       inkscape:connector-curvature="0" />
    <path
       d="m 316.9295,348.9511 33.3664,0.0408"
       style="fill:none"
       id="path74"
       inkscape:connector-curvature="0" />
    <path
       d="m 316.9295,348.9511 33.3664,0.0408 -3.5022,-14.9533 -27.6004,0.0349 z"
       style="fill:#ffffff;fill-rule:evenodd"
       id="path76"
       inkscape:connector-curvature="0" />
    <path
       d="m 352.7963,359.6666 -37.4989,0.0122 -13.6826,89.6894 10.6228,10e-4 8.0054,-52.7451 15.7501,3e-4 12.7502,52.7626 25.0507,-0.0739 z"
       style="fill:#ffffff;fill-rule:evenodd"
       id="path78"
       inkscape:connector-curvature="0" />
    <path
       d="m 384.9834,333.9624 v 13.1252 l 21.6513,-0.087 0.1361,87.8372 H 385.058 l -0.0751,14.5502 37.8002,3e-4 c 5.2501,0 11.7003,-8.6253 11.7,-16.2003 l -2e-4,-99.2254 z"
       style="fill:#ffffff;fill-rule:evenodd"
       id="path80"
       inkscape:connector-curvature="0" />
    <path
       d="m 466.7145,334.057 -18.3492,115.2995 h 10.7342 l 8.5311,-53.306 h 15.9001 l 12.3563,53.3341 25.2938,-0.0187 -27.1539,-115.3111 z"
       style="fill:#ffffff;fill-rule:evenodd"
       id="path82"
       inkscape:connector-curvature="0" />
    <path
       d="m 136.8913,334.0551 h 28.3127 v 115.3128 h -28.3127 z m 42.7391,115.3136 -0.0423,-115.3233 49.1709,0.01 -0.008,12.3089 -22.5383,0.003 -3e-4,34.8723 22.5471,0.0307 -6e-4,12.9004 -22.551,0.0159 0.005,40.9416 22.5562,-0.0187 -0.008,14.2597 z m 66.2323,-8e-4 0.0836,-115.3126 44.7418,-0.003 c 10.078,4.8456 11.8854,19.713 12.2335,30.2865 0.3481,10.5735 -1.5134,24.0526 -11.9452,30.9039 l -17.5414,-0.003 0.004,54.1295 z m 69.4347,-89.6891 1.6321,-10.7277 2.2638,-14.8776 27.6004,-0.0349 3.5022,14.9533 2.5004,10.6747 20.9977,89.6466 -25.0507,0.0739 -12.7502,-52.7626 -15.7501,-3e-4 -8.0054,52.7451 -3.355,-3e-4 h -0.01 l -7.23,0.0553 0.009,-0.0561 h -0.0366 z m 91.4734,75.159 -0.1361,-87.8372 -21.6513,0.087 v -13.1252 l 49.4995,2e-4 2e-4,99.2254 c 3e-4,7.575 -6.4499,16.2003 -11.7,16.2003 l -37.8002,-3e-4 0.0751,-14.5502 z m 41.5945,14.5187 18.3492,-115.2995 27.3124,-0.002 27.1539,115.3111 -25.2938,0.0187 -12.3563,-53.3341 h -15.9001 l -8.5311,53.306 z M 75.8225,334.0443 h 26.8713 l 0.0703,101.6286 22.3234,0.0569 0.0411,13.6398 -22.4348,-0.0133 H 75.8225 Z M 569.8882,306.4365 H 25.3877 v 171.1849 h 544.5005 z"
       style="fill:none"
       id="path84"
       inkscape:connector-curvature="0" />
    <path
       d="m 273.5192,348.5469 v 31.8753 h 6.9752 v -31.8753 z"
       style="fill:#008a55;fill-rule:evenodd"
       id="path86"
       inkscape:connector-curvature="0" />
    <path
       d="m 245.9463,334.0553 44.7418,-0.003 c 10.078,4.8456 11.8854,19.713 12.2335,30.2865 0.3481,10.5735 -1.5134,24.0526 -11.9452,30.9039 l -17.5414,-0.003 0.004,54.1295 -27.576,-8e-4 z m -109.055,-2e-4 h 28.3127 v 115.3128 h -28.3127 z m 69.3212,47.184 22.5471,0.0307 -6e-4,12.9004 -22.551,0.0159 0.005,40.9416 22.5562,-0.0187 -0.008,14.2597 h -49.13 l -0.0423,-115.3233 49.1709,0.01 -0.008,12.3089 -22.5383,0.003 z m 109.0849,-21.5603 1.6321,-10.7277 2.2638,-14.8776 27.6004,-0.0349 3.5022,14.9533 2.5004,10.6747 20.9977,89.6466 -25.0507,0.0739 -12.7502,-52.7626 -15.7501,-3e-4 -8.0054,52.7451 -3.3647,-3e-4 -7.23,0.0553 0.009,-0.0561 h -0.0366 z m 91.4734,75.159 -0.1361,-87.8372 -21.6513,0.087 v -13.1252 l 49.4995,2e-4 2e-4,99.2254 c 3e-4,7.575 -6.4499,16.2003 -11.7,16.2003 l -37.8002,-3e-4 0.0751,-14.5502 z m 41.5945,14.5187 18.3492,-115.2995 27.3124,-0.002 27.1539,115.3111 -25.2938,0.0187 -12.3563,-53.3341 h -15.9001 l -8.5311,53.306 z M 75.8225,334.0443 h 26.8713 l 0.0703,101.6286 22.3234,0.0569 0.0411,13.6398 -22.4348,-0.0133 H 75.8225 Z M 569.8882,306.4365 H 25.3877 v 171.1849 h 544.5005 z m -252.9587,42.5146 -1.6321,10.7277 37.4989,-0.0122 -2.5004,-10.6747 z"
       style="fill:#008a55;fill-rule:evenodd"
       id="path88"
       inkscape:connector-curvature="0" />
    <g
       id="Layer1001">
      <path
         d="m 130.5439,601.3706 c 3.5346,-1.1111 7.3565,-0.0632 9.4014,3.1902 2.1853,3.4761 1.2291,8.1898 -1.885,10.7348 -6.2972,5.1457 -17.7384,15.6954 -15.804,25.0327 0.1491,0.7192 0.3985,1.3972 0.7489,2.0427 3.744,6.8984 21.3993,12.0478 28.5114,14.6599 21.9195,8.051 38.003,25.5141 38.7627,49.5298 0.4946,15.6305 -7.7888,27.595 -18.866,37.8266 -2.6901,2.4849 -6.5166,3.424 -9.8722,1.5494 -3.7608,-2.1007 -4.6962,-6.2733 -3.6468,-10.1372 l 0.0417,-0.1531 0.0482,-0.1511 c 4.0626,-12.7596 6.1273,-29.3363 -2.6176,-40.7089 -5.2265,-6.7969 -16.1722,-10.5163 -23.7994,-13.8733 -11.1424,-4.9042 -22.8753,-11.9461 -31.3903,-20.746 -7.7405,-7.9996 -9.5873,-17.7511 -4.7143,-27.8325 6.8537,-14.1786 20.0623,-25.2456 34.6641,-30.8188 l 0.2063,-0.0788 z"
         style="fill:#ffffff;fill-rule:evenodd"
         id="path90"
         inkscape:connector-curvature="0" />
    </g>
    <path
       d="m 132.7547,608.4014 c -12.4297,4.7441 -24.4619,14.3249 -30.6564,27.1406 -3.4557,7.149 -2.3395,13.5944 3.3752,19.5001 6.5018,6.7195 16.6243,13.6508 29.0628,19.1254 10.2228,4.4994 20.4256,8.0019 26.6728,16.1263 9.718,12.6379 9.2095,30.4404 3.7976,47.4375 -0.4924,1.8127 0.1857,2.3695 1.406,1.2421 10.3776,-9.5853 16.899,-19.5681 16.5002,-32.1797 -0.6375,-20.1453 -13.9184,-35.4918 -33.9372,-42.8446 -14.9434,-5.4887 -31.4255,-10.0065 -33.9361,-22.1258 -2.0855,-10.0661 4.5669,-20.9653 18.3571,-32.2347 0.3243,-0.2648 0.8833,-1.6668 -0.642,-1.1872 z"
       style="fill:#525250;fill-rule:evenodd"
       id="path93"
       inkscape:connector-curvature="0" />
    <g
       id="Layer1002">
      <path
         d="m 183.2584,573.6495 c -0.4005,0.6503 -1.0431,1.2515 -1.853,1.2481 -3.2105,-0.0142 -6.4318,-0.2826 -9.5834,-0.9068 -0.8801,-0.1743 -1.4966,-1.1554 -1.4329,-2.0214 0.4139,-5.6236 1.012,-11.2442 2.0756,-16.7853 0.2556,-1.3326 1.0264,-2.5532 1.9559,-3.5224 2.5324,-2.6413 5.2724,-5.0958 8.2182,-7.2686 0.8175,-0.6032 1.7416,-0.5641 2.694,-0.6324 7.0725,-0.5091 14.1435,-1.1336 21.238,-1.2211 0.94,-0.0117 1.9701,0.5913 2.3069,1.4893 0.3605,0.9618 0.1715,2.2362 -0.576,2.9687 -4.2469,4.1607 -9.0664,7.6584 -13.5357,11.5639 -2.1629,1.8899 -4.692,3.5791 -6.4463,5.876 -2.1161,2.7703 -3.2315,6.2402 -5.0613,9.212 z"
         style="fill:#7e8284;fill-rule:evenodd"
         id="path95"
         inkscape:connector-curvature="0" />
      <path
         d="m 183.0169,573.501 c -0.3458,0.5612 -0.9071,1.1163 -1.6103,1.1131 -3.1924,-0.0138 -6.3959,-0.2806 -9.5296,-0.9014 -0.7381,-0.1462 -1.2583,-0.9995 -1.2053,-1.7226 0.4133,-5.6126 1.0097,-11.2224 2.0713,-16.7527 0.2452,-1.2773 0.9913,-2.4506 1.8819,-3.3795 2.5217,-2.6297 5.2492,-5.0735 8.1822,-7.2369 0.7543,-0.5561 1.6631,-0.5142 2.5458,-0.5777 7.0668,-0.5085 14.1327,-1.1327 21.2213,-1.2203 0.8204,-0.0102 1.7436,0.5199 2.0381,1.3054 0.3209,0.8563 0.1579,2.0131 -0.5091,2.6668 -4.242,4.1562 -9.0589,7.651 -13.5238,11.5529 -2.1826,1.9074 -4.7128,3.5972 -6.4851,5.9173 -2.1288,2.7873 -3.2403,6.2518 -5.0774,9.2356 z"
         style="fill:#6d7374;fill-rule:evenodd"
         id="path97"
         inkscape:connector-curvature="0" />
      <path
         d="m 182.7757,573.3522 c -0.29,0.4708 -0.7742,0.981 -1.3677,0.9785 -3.1743,-0.0139 -6.3598,-0.279 -9.4757,-0.8961 -0.5961,-0.1179 -1.0205,-0.8438 -0.9777,-1.4235 0.4122,-5.6016 1.0075,-11.2008 2.0668,-16.7202 0.2344,-1.2223 0.9564,-2.3485 1.8082,-3.2369 2.5104,-2.618 5.226,-5.051 8.1456,-7.2048 0.6889,-0.5079 1.5872,-0.4649 2.3982,-0.523 7.0611,-0.5082 14.1216,-1.1321 21.2045,-1.2197 0.6999,-0.009 1.5168,0.4487 1.7688,1.1214 0.2815,0.7506 0.1443,1.7903 -0.4419,2.3646 -4.2375,4.1519 -9.0516,7.6442 -13.5119,11.5421 -2.2025,1.9248 -4.7338,3.6154 -6.5236,5.9588 -2.1419,2.804 -3.2494,6.2637 -5.0936,9.2588 z"
         style="fill:#5d6465;fill-rule:evenodd"
         id="path99"
         inkscape:connector-curvature="0" />
    </g>
    <path
       d="m 182.5342,573.2036 c -0.2458,0.3991 -0.6565,0.8456 -1.1251,0.8436 -3.1544,-0.0139 -6.3275,-0.2778 -9.4218,-0.8906 -0.4419,-0.0876 -0.7829,-0.6755 -0.75,-1.1248 0.4116,-5.5894 1.006,-11.1835 2.0624,-16.6876 0.2229,-1.1611 0.9165,-2.2408 1.7346,-3.094 2.4976,-2.6048 5.2052,-5.0306 8.1093,-7.1728 0.6166,-0.4547 1.4862,-0.4136 2.2502,-0.4685 7.0557,-0.5077 14.1139,-1.1314 21.1875,-1.2189 0.5893,-0.007 1.2932,0.3855 1.5001,0.9374 0.2452,0.6542 0.1242,1.5738 -0.375,2.0627 -4.227,4.1417 -9.0437,7.6369 -13.5,11.5311 -2.2317,1.9502 -4.7633,3.6448 -6.5625,6.0001 -2.1436,2.8066 -3.2579,6.275 -5.1097,9.2823 z"
       style="fill:#4c5555;fill-rule:evenodd"
       id="path102"
       inkscape:connector-curvature="0" />
    <g
       id="Layer1003">
      <path
         d="m 176.6792,557.335 c 0.0471,-0.9045 0.5522,-1.7473 1.1359,-2.4143 2.1001,-2.3998 4.6607,-4.445 7.2439,-6.2997 0.5536,-0.3974 1.2384,-0.6712 1.9244,-0.6891 3.0263,-0.0796 6.2153,-0.6639 9.1503,0.3512 0.2106,0.0729 0.3869,0.2092 0.4736,0.419 0.3561,0.8609 -1.2965,2.1382 -1.9119,2.5787 -1.3065,0.9348 -2.8987,1.1296 -4.2565,1.8992 -1.5752,0.8929 -3.0847,1.9091 -4.4881,3.0534 -2.0682,1.6861 -3.6896,3.8546 -5.8825,5.408 -0.676,0.479 -2.0336,0.9187 -2.611,0.0822 -0.8671,-1.2558 -0.8543,-2.9242 -0.7781,-4.3886 z"
         style="fill:#7e8284;fill-rule:evenodd"
         id="path104"
         inkscape:connector-curvature="0" />
      <path
         d="m 176.8207,557.3424 c 0.0453,-0.8708 0.5394,-1.6867 1.1009,-2.3284 2.0929,-2.391 4.6457,-4.4297 7.2202,-6.2779 0.53,-0.3807 1.1882,-0.6455 1.8453,-0.6627 3.0005,-0.0786 6.1926,-0.6619 9.1004,0.3438 1.4368,0.4969 -0.9794,2.3939 -1.4746,2.7482 -1.2918,0.9244 -2.8916,1.1248 -4.244,1.8913 -1.5821,0.8966 -3.098,1.9173 -4.5077,3.0668 -2.065,1.6837 -3.6879,3.8531 -5.8748,5.4022 -0.6052,0.4286 -1.889,0.8757 -2.4126,0.1174 -0.8453,-1.224 -0.8274,-2.8729 -0.7531,-4.3007 z"
         style="fill:#a9acad;fill-rule:evenodd"
         id="path106"
         inkscape:connector-curvature="0" />
      <path
         d="m 176.9624,557.3497 c 0.0434,-0.8368 0.5267,-1.6259 1.0661,-2.2422 2.0852,-2.3828 4.6307,-4.4146 7.1958,-6.2563 0.5071,-0.364 1.1381,-0.6197 1.7665,-0.6361 2.9747,-0.078 6.1702,-0.6602 9.0502,0.3359 1.2126,0.4195 -1.1138,2.2153 -1.5106,2.4993 -1.2764,0.9133 -2.8848,1.1197 -4.2313,1.8831 -1.5888,0.9005 -3.1116,1.9258 -4.5275,3.0804 -2.0622,1.6809 -3.6862,3.8514 -5.8671,5.3963 -0.5335,0.3778 -1.7456,0.8308 -2.2139,0.1525 -0.8235,-1.1923 -0.8008,-2.8219 -0.7282,-4.2129 z"
         style="fill:#d4d5d6;fill-rule:evenodd"
         id="path108"
         inkscape:connector-curvature="0" />
    </g>
    <path
       d="m 177.1038,557.3571 c -0.0725,1.3929 -0.0892,2.9772 0.7033,4.125 0.3833,0.555 1.465,0.2021 2.0155,-0.1877 2.1653,-1.5341 3.8026,-3.7136 5.8594,-5.3906 1.4208,-1.1583 2.9523,-2.1898 4.5471,-3.0938 1.3385,-0.7588 2.9673,-0.9796 4.2188,-1.8751 0.7401,-0.5295 2.4069,-1.9525 1.5469,-2.2498 -2.8372,-0.9814 -5.9993,-0.4071 -9.0003,-0.3283 -0.5976,0.0156 -1.2019,0.2608 -1.6875,0.6095 -2.6421,1.8969 -5.1599,3.9353 -7.1719,6.2345 -0.5247,0.5995 -0.9899,1.3606 -1.0313,2.1563 z"
       style="fill:#ffffff;fill-rule:evenodd"
       id="path111"
       inkscape:connector-curvature="0" />
    <path
       d="m 137.1206,574.6938 c -1.2413,0.8699 -0.6299,1.6248 0.4686,2.4375 6.6875,-1.2186 13.3752,-2.0857 20.0627,-3.3043 0.7311,-0.1341 1.0968,0.7903 0.4221,1.0306 -5.5431,1.9775 -13.5349,3.2962 -19.0786,5.2739 -0.7891,0.2815 -1.004,1.0661 -1.254,1.8281 -0.1641,1.0312 -0.3396,1.6407 -0.0584,2.6719 0.3282,1.1251 0.8671,2.4372 2.2969,1.7342 8.5938,-2.1248 17.4198,-3.7448 26.0158,-5.8592 4.496,-1.1058 7.6893,-1.5613 8.8124,-1.0312 10.8751,3.9373 21.7596,7.8508 32.6256,11.8122 1.9902,0.7257 3.9016,1.6107 3.9376,4.125 0.057,3.9994 0.1534,8.0036 0,12.0002 -0.1227,3.2012 -0.616,4.8943 -6.7501,4.7809 -13.3127,-0.625 -28.2189,-1.3433 -41.5316,-1.9684 -3.6249,2.6249 -4.833,4.2713 -7.7638,6.6963 -1.5001,1.4222 0.2639,3.8347 1.9046,3.2879 2.9687,-0.5624 5.891,-1.7342 8.8597,-2.2966 0.6344,-0.0975 1.0066,0.176 1.2657,0.6092 1.2971,2.4531 2.594,4.9064 3.8911,7.3595 0.5856,1.2756 1.5398,1.444 2.6249,1.2189 4.625,-1.0312 9.25,-2.0624 13.875,-3.0937 0.8456,-0.1664 1.5919,0.1664 2.2501,0.9374 2.8749,2.8749 5.7501,5.7501 8.625,8.625 0.7158,0.7353 1.5659,0.796 2.5314,0.2815 4.1876,-2.3125 8.3749,-4.6253 12.5625,-6.9378 1.2082,-0.7552 1.7703,-0.2733 2.1561,-0.0936 4.6876,2.1249 9.375,4.2497 14.0627,6.3746 1.1046,0.6171 2.1455,0.8218 2.9999,-0.1874 3.5625,-5.8124 7.1248,-11.6251 10.6874,-17.4376 0.404,-0.9312 1.2838,-1.0695 2.4375,-0.75 4.5,0.5624 9,1.125 13.5,1.6874 2.0517,0.4249 3.2616,-0.1128 3.5626,-1.6874 1.0001,-4.125 2.0001,-8.25 3.0002,-12.375 0.2427,-0.8903 0.6012,-1.5474 1.1248,-1.8751 2.1875,-1.1874 4.375,-2.3748 6.5625,-3.5623 0.9008,-0.4941 1.6982,-1.2594 1.3479,-2.6603 -1.0001,-2.8125 -2.2227,-5.5899 -3.2228,-8.4024 -0.2959,-0.6308 0.0463,-1.4939 1.1251,-2.6249 2.5625,-3.0626 5.078,-5.5627 7.6405,-8.6253 1.239,-1.3898 0.7461,-3.1099 -0.8906,-4.1247 -2.2499,-1.6874 -4.2262,-3.17 -6.4761,-4.8574 -0.5218,-0.3433 -0.8773,-1.6739 -0.8365,-3.0178 -0.0623,-6.2501 -0.125,-12.4999 -0.1873,-18.75 0.002,-1.9029 -1.2493,-1.8519 -2.8126,-1.3125 -7.0625,2.3125 -14.1692,4.3353 -21.1643,6.844 -0.381,0.1366 -0.633,-0.2778 -0.2324,-0.5057 4.9124,-2.7978 31.4589,-14.8224 32.4093,-15.2532 0.8816,-0.4 1.1234,-0.3345 1.0885,-1.397 -0.008,-1.5312 0.0202,-2.5228 -0.019,-4.0552 -0.0351,-0.4025 0.0119,-1.3204 -0.8787,-1.0312 -9.8983,3.5543 -19.7963,7.109 -29.6946,10.6633 -1.5534,0.6869 -2.5016,0.8073 -4.0431,-0.7563 -0.8121,-0.8237 -1.9255,-1.7526 -1.9332,-2.7124 -0.01,-1.224 1.1639,-2.8126 1.6639,-4.2188 2.3125,-5.2501 4.6251,-10.5001 6.9376,-15.7502 1.2812,-2.586 -0.3204,-2.4531 -2.2502,-1.6874 -16.7811,7.031 -33.9372,13.1244 -50.7183,20.1554 -4.6715,1.6402 -9.2651,3.672 -13.6874,6.5625 -16.6181,11.7349 -33.1965,23.5273 -49.8546,35.2049 z"
       style="fill:none"
       id="path113"
       inkscape:connector-curvature="0" />
    <path
       d="m 208.3017,546.9976 c -4.2469,4.1607 -9.0664,7.6584 -13.5357,11.5639 -2.1629,1.8899 -4.692,3.5791 -6.4463,5.876 -2.1161,2.7703 -3.2315,6.2402 -5.0613,9.212 -0.4005,0.6503 -1.0431,1.2515 -1.853,1.2481 -3.2105,-0.0142 -6.4318,-0.2826 -9.5834,-0.9068 -0.8801,-0.1743 -1.4966,-1.1554 -1.4329,-2.0214 0.4139,-5.6236 1.012,-11.2442 2.0756,-16.7853 0.2556,-1.3326 1.0264,-2.5532 1.9559,-3.5224 2.5324,-2.6413 5.2724,-5.0958 8.2182,-7.2686 0.8175,-0.6032 1.7416,-0.5641 2.694,-0.6324 7.0725,-0.5091 14.1435,-1.1336 21.238,-1.2211 0.94,-0.0117 1.9701,0.5913 2.3069,1.4893 0.3605,0.9618 0.1715,2.2362 -0.576,2.9687 z m -71.1811,27.6962 c -1.2413,0.8699 -0.6299,1.6248 0.4686,2.4375 6.6875,-1.2186 13.3752,-2.0857 20.0627,-3.3043 0.7311,-0.1341 1.0968,0.7903 0.4221,1.0306 -5.5431,1.9775 -13.5349,3.2962 -19.0786,5.2739 -0.7891,0.2815 -1.004,1.0661 -1.254,1.8281 -0.1641,1.0312 -0.3396,1.6407 -0.0584,2.6719 0.3282,1.1251 0.8671,2.4372 2.2969,1.7342 8.5938,-2.1248 17.4198,-3.7448 26.0158,-5.8592 4.496,-1.1058 7.6893,-1.5613 8.8124,-1.0312 10.8751,3.9373 21.7596,7.8508 32.6256,11.8122 1.9902,0.7257 3.9016,1.6107 3.9376,4.125 0.057,3.9994 0.1534,8.0036 0,12.0002 -0.1227,3.2012 -0.616,4.8943 -6.7501,4.7809 -13.3127,-0.625 -28.2189,-1.3433 -41.5316,-1.9684 -3.6249,2.6249 -4.833,4.2713 -7.7638,6.6963 -1.5001,1.4222 0.2639,3.8347 1.9046,3.2879 2.9687,-0.5624 5.891,-1.7342 8.8597,-2.2966 0.6344,-0.0975 1.0066,0.176 1.2657,0.6092 l 3.8911,7.3595 c 0.5856,1.2756 1.5398,1.444 2.6249,1.2189 l 13.875,-3.0937 c 0.8456,-0.1664 1.5919,0.1664 2.2501,0.9374 l 8.625,8.625 c 0.7158,0.7353 1.5659,0.796 2.5314,0.2815 l 12.5625,-6.9378 c 1.2082,-0.7552 1.7703,-0.2733 2.1561,-0.0936 l 14.0627,6.3746 c 1.1046,0.6171 2.1455,0.8218 2.9999,-0.1874 l 10.6874,-17.4376 c 0.404,-0.9312 1.2838,-1.0695 2.4375,-0.75 l 13.5,1.6874 c 2.0517,0.4249 3.2616,-0.1128 3.5626,-1.6874 l 3.0002,-12.375 c 0.2427,-0.8903 0.6012,-1.5474 1.1248,-1.8751 l 6.5625,-3.5623 c 0.9008,-0.4941 1.6982,-1.2594 1.3479,-2.6603 -1.0001,-2.8125 -2.2227,-5.5899 -3.2228,-8.4024 -0.2959,-0.6308 0.0463,-1.4939 1.1251,-2.6249 2.5625,-3.0626 5.078,-5.5627 7.6405,-8.6253 1.239,-1.3898 0.7461,-3.1099 -0.8906,-4.1247 l -6.4761,-4.8574 c -0.5218,-0.3433 -0.8773,-1.6739 -0.8365,-3.0178 l -0.1873,-18.75 c 0.002,-1.9029 -1.2493,-1.8519 -2.8126,-1.3125 -7.0625,2.3125 -14.1692,4.3353 -21.1643,6.844 -0.381,0.1366 -0.633,-0.2778 -0.2324,-0.5057 4.9124,-2.7978 31.4589,-14.8224 32.4093,-15.2532 0.8816,-0.4 1.1234,-0.3345 1.0885,-1.397 -0.008,-1.5312 0.0202,-2.5228 -0.019,-4.0552 -0.0351,-0.4025 0.0119,-1.3204 -0.8787,-1.0312 l -29.6946,10.6633 c -1.5534,0.6869 -2.5016,0.8073 -4.0431,-0.7563 -0.8121,-0.8237 -1.9255,-1.7526 -1.9332,-2.7124 -0.01,-1.224 1.1639,-2.8126 1.6639,-4.2188 l 6.9376,-15.7502 c 1.2812,-2.586 -0.3204,-2.4531 -2.2502,-1.6874 -16.7811,7.031 -33.9372,13.1244 -50.7183,20.1554 -4.6715,1.6402 -9.2651,3.672 -13.6874,6.5625 -16.6181,11.7349 -33.1965,23.5273 -49.8546,35.2049 z"
       style="fill:#e4002c;fill-rule:evenodd"
       id="path115"
       inkscape:connector-curvature="0" />
    <path
       d="m 270.3589,542.3842 c 0.7066,-0.1834 1.4136,-0.3671 2.1203,-0.5505 0.9076,-0.2622 1.0321,0.1823 1.078,1.5001 0.1678,4.7974 0.6497,9.6449 1.2892,14.3439 0.2035,1.4975 1.1171,2.937 2.2499,3.9376 2.9809,2.6342 6.4924,4.6066 9.8438,6.7499 2.1422,1.3702 3.1133,2.6501 1.1251,4.5938 -3.5544,3.4756 -7.0075,7.0546 -10.4981,10.5942 -1.0072,1.021 -0.8807,1.8635 0.1876,2.9064 2.943,2.8717 5.7473,5.8909 8.4376,9 1.5693,1.8136 1.7932,3.5146 -0.4688,4.1249 -3.7979,1.025 -7.6249,1.9375 -11.4375,2.9064 -2.1989,0.6338 -3.1762,2.6155 -3.5626,5.25 -0.6871,4.2188 -1.2115,8.4671 -2.0614,12.6562 -0.3792,1.8694 -1.9485,2.5928 -4.5,2.2501 -4.9901,-0.6701 -9.9858,-1.3235 -15,-1.7813 -1.5736,-0.1437 -2.7624,0.7265 -3.4688,2.3437 -2.8123,5.125 -5.6245,10.2501 -8.4368,15.3751 -1.2254,2.4903 -2.9304,2.3885 -4.7814,1.5001 -5.7187,-2.9063 -11.4376,-5.8124 -17.1562,-8.7188 -1.3501,-0.5848 -2.6189,-0.0408 -3.8437,1.1248 -4.1562,3.9688 -8.3124,7.9373 -12.4685,11.9061 -1.6795,1.7008 -2.6068,0.5068 -3.4688,-0.9374 -3.2187,-5.0001 -6.4607,-9.6251 -9.6794,-14.6251 -0.5783,-0.7498 -3.0082,-1.3127 -4.0082,-0.6327 -4.8436,4.0782 -8.6806,7.1365 -11.2728,9.3042 -1.7527,1.4658 -3.2709,0.8668 -3.5391,-1.4531 -0.3793,-3.2805 -1.078,-6.4454 -1.453,-9.7268 -0.4014,-2.336 -1.6756,-3.1266 -3.7035,-3.2108 -4.1873,-0.1874 -8.5371,-0.3268 -12.7264,-0.4569 -1.283,-0.0397 -1.8159,-0.3365 -0.2109,-1.5353 2.3499,-1.7552 5.4949,-3.992 7.9645,-5.5754"
       style="fill:none"
       id="path117"
       inkscape:connector-curvature="0" />
    <path
       d="m 201.1533,633.8506 c -0.9655,0.5145 -1.8156,0.4538 -2.5314,-0.2815 l -8.625,-8.625 c -0.6582,-0.771 -1.4045,-1.1038 -2.2501,-0.9374 l -13.875,3.0937 c -1.0851,0.2251 -2.0393,0.0567 -2.6249,-1.2189 l -3.8911,-7.3595 c -0.2591,-0.4332 -0.6313,-0.7067 -1.2657,-0.6092 -2.9687,0.5624 -5.891,1.7342 -8.8597,2.2966 -1.6407,0.5468 -3.4047,-1.8657 -1.9046,-3.2879 0.5854,-0.4844 1.1021,-0.9377 1.5832,-1.3739 -2.4696,1.5834 -5.6146,3.8202 -7.9645,5.5754 -1.605,1.1988 -1.0721,1.4956 0.2109,1.5353 4.1893,0.1301 8.5391,0.2695 12.7264,0.4569 2.0279,0.0842 3.3021,0.8748 3.7035,3.2108 0.375,3.2814 1.0737,6.4463 1.453,9.7268 0.2682,2.3199 1.7864,2.9189 3.5391,1.4531 2.5922,-2.1677 6.4292,-5.226 11.2728,-9.3042 1,-0.68 3.4299,-0.1171 4.0082,0.6327 3.2187,5 6.4607,9.625 9.6794,14.6251 0.862,1.4442 1.7893,2.6382 3.4688,0.9374 l 12.4685,-11.9061 c 1.2248,-1.1656 2.4936,-1.7096 3.8437,-1.1248 l 17.1562,8.7188 c 1.851,0.8884 3.556,0.9902 4.7814,-1.5001 l 8.4368,-15.3751 c 0.7064,-1.6172 1.8952,-2.4874 3.4688,-2.3437 5.0142,0.4578 10.0099,1.1112 15,1.7813 2.5515,0.3427 4.1208,-0.3807 4.5,-2.2501 0.8499,-4.1891 1.3743,-8.4374 2.0614,-12.6562 0.3864,-2.6345 1.3637,-4.6162 3.5626,-5.25 3.8126,-0.9689 7.6396,-1.8814 11.4375,-2.9064 2.262,-0.6103 2.0381,-2.3113 0.4688,-4.1249 -2.6903,-3.1091 -5.4946,-6.1283 -8.4376,-9 -1.0683,-1.0429 -1.1948,-1.8854 -0.1876,-2.9064 3.4906,-3.5396 6.9437,-7.1186 10.4981,-10.5942 1.9882,-1.9437 1.0171,-3.2236 -1.1251,-4.5938 -3.3514,-2.1433 -6.8629,-4.1157 -9.8438,-6.7499 -1.1328,-1.0006 -2.0464,-2.4401 -2.2499,-3.9376 -0.6395,-4.699 -1.1214,-9.5465 -1.2892,-14.3439 -0.0459,-1.3178 -0.1704,-1.7623 -1.078,-1.5001 l -2.1203,0.5505 c 1.1369,-0.2398 1.9522,0.023 1.9508,1.5594 l 0.1873,18.75 c -0.0408,1.3439 0.3147,2.6745 0.8365,3.0178 l 6.4761,4.8574 c 1.6367,1.0148 2.1296,2.7349 0.8906,4.1247 -2.5625,3.0626 -5.078,5.5627 -7.6405,8.6253 -1.0788,1.131 -1.421,1.9941 -1.1251,2.6249 1.0001,2.8125 2.2227,5.5899 3.2228,8.4024 0.3503,1.4009 -0.4471,2.1662 -1.3479,2.6603 l -6.5625,3.5623 c -0.5236,0.3277 -0.8821,0.9848 -1.1248,1.8751 l -3.0002,12.375 c -0.301,1.5746 -1.5109,2.1123 -3.5626,1.6874 l -13.5,-1.6874 c -1.1537,-0.3195 -2.0335,-0.1812 -2.4375,0.75 l -10.6874,17.4376 c -0.8544,1.0092 -1.8953,0.8045 -2.9999,0.1874 l -14.0627,-6.3746 c -0.3858,-0.1797 -0.9479,-0.6616 -2.1561,0.0936 z"
       style="fill:#f9665c;fill-rule:evenodd"
       id="path119"
       inkscape:connector-curvature="0" />
    <path
       d="m 137.5892,577.1313 c -1.9557,0.3345 -4.6375,0.9037 -5.8198,0.5817 -1.0548,-0.4533 -1.6405,-1.0219 -2.2502,-1.7807 -0.811,-1.2564 -0.1128,-2.0203 0.5037,-3.2347 0.3753,-0.7392 1.2172,-1.5499 2.2499,-2.2266 18.0292,-11.8134 36.051,-23.9258 54.1995,-35.5552 2.4001,-1.5378 5.0091,-2.7746 7.6876,-3.7503 18.8691,-6.8734 37.9381,-13.1873 56.9069,-19.781 2.9265,-1.0391 4.4238,-0.6573 2.8968,2.2839"
       style="fill:none"
       id="path121"
       inkscape:connector-curvature="0" />
    <path
       d="m 137.5892,577.1313 c -1.0985,-0.8127 -1.7099,-1.5676 -0.4686,-2.4375 16.6581,-11.6776 33.2365,-23.47 49.8546,-35.2049 4.4223,-2.8905 9.0159,-4.9223 13.6874,-6.5625 16.7811,-7.031 33.9372,-13.1244 50.7183,-20.1554 1.707,-0.6772 3.1572,-0.8595 2.5827,0.8974 1.527,-2.9412 0.0297,-3.323 -2.8968,-2.2839 -18.9688,6.5937 -38.0378,12.9076 -56.9069,19.781 -2.6785,0.9757 -5.2875,2.2125 -7.6876,3.7503 -18.1485,11.6294 -36.1703,23.7418 -54.1995,35.5552 -1.0327,0.6767 -1.8746,1.4874 -2.2499,2.2266 -0.6165,1.2144 -1.3147,1.9783 -0.5037,3.2347 0.6097,0.7588 1.1954,1.3274 2.2502,1.7807 1.1823,0.322 3.8641,-0.2472 5.8198,-0.5817 z"
       style="fill:#f9665c;fill-rule:evenodd"
       id="path123"
       inkscape:connector-curvature="0" />
    <path
       d="m 201.2295,603.7739 c 2.194,0.191 2.5486,-0.1106 2.5997,-1.1965 0.0527,-1.1169 -0.0227,-1.361 -0.0491,-3.0308 -0.14,-0.7801 -1.1687,-1.4287 -1.889,-1.7091 -9.6502,-3.7561 -17.9368,-6.6784 -27.648,-10.2228 -1.4621,-0.5335 -3.223,-0.5944 -4.4971,-0.2812 -8.5031,2.1109 -21.9892,5.4669 -30.4824,7.842 -5.381,1.5047 -6.7275,-0.5003 -7.213,-2.8513 l -1.0758,-5.207 c -0.3977,-1.0633 -1.4298,-1.3791 -2.685,-1.3714 -2.4038,0.0145 -3.6844,-1.309 -3.6856,-3.0076 l -0.8396,-2.6538 -1.7237,-5.303 c -1.2578,-3.8699 -0.0726,-6.4202 3.374,-8.737 17.8305,-11.9851 38.6629,-25.1951 57.2341,-37.0953 2.8437,-1.8221 5.9142,-3.287 9.0853,-4.4421 18.902,-6.8854 38.0055,-13.1928 56.9999,-19.8142 3.7945,-1.3227 12.8767,-6.1217 15.8207,-2.7876 2.6096,2.9548 -2.5075,11.2688 -4.0668,14.5553 -0.129,0.3323 -0.2724,0.6588 -0.4269,0.98 l -2.9518,6.7014 c -0.61,1.4779 1.4052,2.6277 3.1624,1.9023 l 17.8086,-6.9245 5.2603,-2.0962 c 5.1004,-2.0109 6.8632,-0.9215 6.9517,2.4814 0.0351,1.3763 -0.1375,11.818 -0.1315,13.1936 -0.0437,7.1422 -2.6689,7.2037 -8.0677,9.3084 -0.9794,0.4442 -1.4718,1.4216 -1.3079,2.7457 0.485,3.9186 0.9586,6.7422 1.3813,10.8725 0.112,0.7076 0.447,1.0945 1.4003,1.7635 2.4086,1.6911 5.8929,3.9634 8.2933,5.4986 5.9341,3.7953 8.6752,6.1557 3.8257,11.2598 -2.312,2.2606 -6.8245,7.2723 -9.0882,9.5811 -0.845,0.8144 -0.4688,1.7101 -0.0136,2.1461 1.6325,1.5633 3.5991,3.3673 4.9671,4.9482 2.435,2.8139 6.626,6.9542 5.9537,9.7985 -0.6639,2.8085 -6.1526,4.333 -9.9587,5.3603 -2.7771,0.7492 -5.1154,1.3493 -7.9399,1.9896 -1.0377,0.2353 -1.7492,0.5477 -2.0616,2.0325 -0.6715,4.2967 -1.7362,11.162 -2.5002,15.3655 -1.2234,6.0301 -2.2776,5.5502 -8.0416,4.7763 -3.5702,-0.4796 -10.0862,-1.3203 -14.3626,-1.8014 -0.5728,-0.0643 -1.8425,0.3274 -2.1353,0.8283 l -8.0977,16.5983 c -2.8681,5.6389 -4.307,5.6403 -13.2214,1.0845 l -11.0707,-6.0052 c -1.7733,-0.9621 -3.1167,-1.0451 -4.7721,0.4037 l -9.3844,8.2133 c -2.416,2.1144 -5.3572,5.6472 -7.5793,5.4233 -2.8074,-0.0553 -5.5046,-4.8345 -6.9049,-7.1447 -1.8071,-2.8046 -3.8523,-6.0273 -5.6129,-8.7614 -0.623,-0.9674 -1.4082,-1.8068 -2.7839,-0.7659 -2.5752,1.7983 -3.8599,2.4781 -6.3056,4.3024 -3.045,2.5464 -9.0448,6.143 -10.8332,5.402 -2.7825,-1.1534 -4.0958,-4.9728 -4.1749,-7.8681 -0.2625,-2.2708 -0.4133,-6.1798 -0.6284,-8.4648 -0.169,-1.7943 -0.7563,-2.2734 -2.3525,-2.1926 -2.5857,0.1309 -13.2347,-0.9842 -15.7223,-1.0616 -3.2707,-0.1015 -6.7238,-0.4637 -7.2179,-3.9807 -0.4127,-2.9381 6.8528,-7.6802 10.1112,-9.9405 2.6192,-1.8167 5.4504,-3.5694 7.9857,-5.5103 2.2703,-1.7379 4.017,-3.3108 6.1969,-5.0043 1.6854,-1.3144 2.9962,-1.7858 4.6349,-1.6942 l 3.6972,0.0507 c 13.642,0.6404 21.119,0.877 34.7607,1.518 z"
       style="fill:none"
       id="path125"
       inkscape:connector-curvature="0" />
    <path
       d="m 194.1599,531.1655 c 18.8691,-6.8734 37.9381,-13.1873 56.9069,-19.781 2.9265,-1.0391 4.4238,-0.6573 2.8968,2.2839 -0.0752,0.2293 -0.1846,0.4915 -0.3325,0.79 l -6.9376,15.7502 c -0.5,1.4062 -1.6738,2.9948 -1.6639,4.2188 0.008,0.9598 1.1211,1.8887 1.9332,2.7124 1.5415,1.5636 2.4897,1.4432 4.0431,0.7563 l 29.6946,-10.6633 c 0.8906,-0.2892 0.8436,0.6287 0.8787,1.0312 0.0392,1.5324 0.0111,2.524 0.019,4.0552 0.0349,1.0625 -0.2069,0.997 -1.0885,1.397 -0.9504,0.4308 -27.4969,12.4554 -32.4093,15.2532 -0.4006,0.2279 -0.1486,0.6423 0.2324,0.5057 6.9951,-2.5087 14.1018,-4.5315 21.1643,-6.844 0.3011,-0.1037 0.5905,-0.1896 0.8618,-0.2469 l 2.1203,-0.5505 c 0.9076,-0.2622 1.0321,0.1823 1.078,1.5001 0.1678,4.7974 0.6497,9.6449 1.2892,14.3439 0.2035,1.4975 1.1171,2.937 2.2499,3.9376 2.9809,2.6342 6.4924,4.6066 9.8438,6.7499 2.1422,1.3702 3.1133,2.6501 1.1251,4.5938 -3.5544,3.4756 -7.0075,7.0546 -10.4981,10.5942 -1.0072,1.021 -0.8807,1.8635 0.1876,2.9064 2.943,2.8717 5.7473,5.8909 8.4376,9 1.5693,1.8136 1.7932,3.5146 -0.4688,4.1249 -3.7979,1.025 -7.6249,1.9375 -11.4375,2.9064 -2.1989,0.6338 -3.1762,2.6155 -3.5626,5.25 -0.6871,4.2188 -1.2115,8.4671 -2.0614,12.6562 -0.3792,1.8694 -1.9485,2.5928 -4.5,2.2501 -4.9901,-0.6701 -9.9858,-1.3235 -15,-1.7813 -1.5736,-0.1437 -2.7624,0.7265 -3.4688,2.3437 l -8.4368,15.3751 c -1.2254,2.4903 -2.9304,2.3885 -4.7814,1.5001 l -17.1562,-8.7188 c -1.3501,-0.5848 -2.6189,-0.0408 -3.8437,1.1248 l -12.4685,11.9061 c -1.6795,1.7008 -2.6068,0.5068 -3.4688,-0.9374 -3.2187,-5.0001 -6.4607,-9.6251 -9.6794,-14.6251 -0.5783,-0.7498 -3.0082,-1.3127 -4.0082,-0.6327 -4.8436,4.0782 -8.6806,7.1365 -11.2728,9.3042 -1.7527,1.4658 -3.2709,0.8668 -3.5391,-1.4531 -0.3793,-3.2805 -1.078,-6.4454 -1.453,-9.7268 -0.4014,-2.336 -1.6756,-3.1266 -3.7035,-3.2108 -4.1873,-0.1874 -8.5371,-0.3268 -12.7264,-0.4569 -1.283,-0.0397 -1.8159,-0.3365 -0.2109,-1.5353 2.3499,-1.7552 5.4949,-3.992 7.9645,-5.5754 1.9267,-1.7479 3.2797,-3.2219 6.1806,-5.3224 13.3127,0.6251 28.2189,1.3434 41.5316,1.9684 6.1341,0.1134 6.6274,-1.5797 6.7501,-4.7809 0.1534,-3.9966 0.057,-8.0008 0,-12.0002 -0.036,-2.5143 -1.9474,-3.3993 -3.9376,-4.125 -10.866,-3.9614 -21.7505,-7.8749 -32.6256,-11.8122 -1.1231,-0.5301 -4.3164,-0.0746 -8.8124,1.0312 -8.596,2.1144 -17.422,3.7344 -26.0158,5.8592 -1.4298,0.703 -1.9687,-0.6091 -2.2969,-1.7342 -0.2812,-1.0312 -0.1057,-1.6407 0.0584,-2.6719 0.25,-0.762 0.4649,-1.5466 1.254,-1.8281 5.5437,-1.9777 13.5355,-3.2964 19.0786,-5.2739 0.6747,-0.2403 0.309,-1.1647 -0.4221,-1.0306 -6.6875,1.2186 -13.3752,2.0857 -20.0627,3.3043 -1.9557,0.3345 -4.6375,0.9037 -5.8198,0.5817 -1.0548,-0.4533 -1.6405,-1.0219 -2.2502,-1.7807 -0.811,-1.2564 -0.1128,-2.0203 0.5037,-3.2347 0.3753,-0.7392 1.2172,-1.5499 2.2499,-2.2266 18.0292,-11.8134 36.051,-23.9258 54.1995,-35.5552 2.4001,-1.5378 5.0091,-2.7746 7.6876,-3.7503 z"
       style="fill:none"
       id="path127"
       inkscape:connector-curvature="0" />
    <path
       d="m 132.2728,570.471 c 18.0292,-11.8134 36.051,-23.9258 54.1995,-35.5552 2.4001,-1.5378 5.0091,-2.7746 7.6876,-3.7503 18.8691,-6.8734 37.9381,-13.1873 56.9069,-19.781 2.9265,-1.0391 4.4238,-0.6573 2.8968,2.2839 -0.0752,0.2293 -0.1846,0.4915 -0.3325,0.79 l -6.9376,15.7502 c -0.5,1.4062 -1.6738,2.9948 -1.6639,4.2188 0.008,0.9598 1.1211,1.8887 1.9332,2.7124 1.5415,1.5636 2.4897,1.4432 4.0431,0.7563 l 29.6946,-10.6633 c 0.8906,-0.2892 0.8436,0.6287 0.8787,1.0312 0.0392,1.5324 0.0111,2.524 0.019,4.0552 0.0349,1.0625 -0.2069,0.997 -1.0885,1.397 -0.9504,0.4308 -27.4969,12.4554 -32.4093,15.2532 -0.4006,0.2279 -0.1486,0.6423 0.2324,0.5057 6.9951,-2.5087 14.1018,-4.5315 21.1643,-6.844 0.3011,-0.1037 0.5905,-0.1896 0.8618,-0.2469 l 2.1203,-0.5505 c 0.9076,-0.2622 1.0321,0.1823 1.078,1.5001 0.1678,4.7974 0.6497,9.6449 1.2892,14.3439 0.2035,1.4975 1.1171,2.937 2.2499,3.9376 2.9809,2.6342 6.4924,4.6066 9.8438,6.7499 2.1422,1.3702 3.1133,2.6501 1.1251,4.5938 -3.5544,3.4756 -7.0075,7.0546 -10.4981,10.5942 -1.0072,1.021 -0.8807,1.8635 0.1876,2.9064 2.943,2.8717 5.7473,5.8909 8.4376,9 1.5693,1.8136 1.7932,3.5146 -0.4688,4.1249 -3.7979,1.025 -7.6249,1.9375 -11.4375,2.9064 -2.1989,0.6338 -3.1762,2.6155 -3.5626,5.25 -0.6871,4.2188 -1.2115,8.4671 -2.0614,12.6562 -0.3792,1.8694 -1.9485,2.5928 -4.5,2.2501 -4.9901,-0.6701 -9.9858,-1.3235 -15,-1.7813 -1.5736,-0.1437 -2.7624,0.7265 -3.4688,2.3437 l -8.4368,15.3751 c -1.2254,2.4903 -2.9304,2.3885 -4.7814,1.5001 l -17.1562,-8.7188 c -1.3501,-0.5848 -2.6189,-0.0408 -3.8437,1.1248 l -12.4685,11.9061 c -1.6795,1.7008 -2.6068,0.5068 -3.4688,-0.9374 -3.2187,-5.0001 -6.4607,-9.6251 -9.6794,-14.6251 -0.5783,-0.7498 -3.0082,-1.3127 -4.0082,-0.6327 -4.8436,4.0782 -8.6806,7.1365 -11.2728,9.3042 -1.7527,1.4658 -3.2709,0.8668 -3.5391,-1.4531 -0.3793,-3.2805 -1.078,-6.4454 -1.453,-9.7268 -0.4014,-2.336 -1.6756,-3.1266 -3.7035,-3.2108 -4.1873,-0.1874 -8.5371,-0.3268 -12.7264,-0.4569 -1.283,-0.0397 -1.8159,-0.3365 -0.2109,-1.5353 2.3499,-1.7552 5.4949,-3.992 7.9645,-5.5754 1.9267,-1.7479 3.2797,-3.2219 6.1806,-5.3224 13.3127,0.6251 28.2189,1.3434 41.5316,1.9684 6.1341,0.1134 6.6274,-1.5797 6.7501,-4.7809 0.1534,-3.9966 0.057,-8.0008 0,-12.0002 -0.036,-2.5143 -1.9474,-3.3993 -3.9376,-4.125 -10.866,-3.9614 -21.7505,-7.8749 -32.6256,-11.8122 -1.1231,-0.5301 -4.3164,-0.0746 -8.8124,1.0312 -8.596,2.1144 -17.422,3.7344 -26.0158,5.8592 -1.4298,0.703 -1.9687,-0.6091 -2.2969,-1.7342 -0.2812,-1.0312 -0.1057,-1.6407 0.0584,-2.6719 0.25,-0.762 0.4649,-1.5466 1.254,-1.8281 5.5437,-1.9777 13.5355,-3.2964 19.0786,-5.2739 0.6747,-0.2403 0.309,-1.1647 -0.4221,-1.0306 -6.6875,1.2186 -13.3752,2.0857 -20.0627,3.3043 -1.9557,0.3345 -4.6375,0.9037 -5.8198,0.5817 -1.0548,-0.4533 -1.6405,-1.0219 -2.2502,-1.7807 -0.811,-1.2564 -0.1128,-2.0203 0.5037,-3.2347 0.3753,-0.7392 1.2172,-1.5499 2.2499,-2.2266 z m 41.9703,17.1437 c 9.7112,3.5444 17.9978,6.4667 27.648,10.2228 0.7203,0.2804 1.749,0.929 1.889,1.7091 0.0264,1.6698 0.1018,1.9139 0.0491,3.0308 -0.0511,1.0859 -0.4057,1.3875 -2.5997,1.1965 -13.6417,-0.641 -21.1187,-0.8776 -34.7607,-1.518 l -3.6972,-0.0507 c -1.6387,-0.0916 -2.9495,0.3798 -4.6349,1.6942 -2.1799,1.6935 -3.9266,3.2664 -6.1969,5.0043 -2.5353,1.9409 -5.3665,3.6936 -7.9857,5.5103 -3.2584,2.2603 -10.5239,7.0024 -10.1112,9.9405 0.4941,3.517 3.9472,3.8792 7.2179,3.9807 2.4876,0.0774 13.1366,1.1925 15.7223,1.0616 1.5962,-0.0808 2.1835,0.3983 2.3525,2.1926 0.2151,2.285 0.3659,6.194 0.6284,8.4648 0.0791,2.8953 1.3924,6.7147 4.1749,7.8681 1.7884,0.741 7.7882,-2.8556 10.8332,-5.402 2.4457,-1.8243 3.7304,-2.5041 6.3056,-4.3024 1.3757,-1.0409 2.1609,-0.2015 2.7839,0.7659 1.7606,2.7341 3.8058,5.9568 5.6129,8.7614 1.4003,2.3102 4.0975,7.0894 6.9049,7.1447 2.2221,0.2239 5.1633,-3.3089 7.5793,-5.4233 l 9.3844,-8.2133 c 1.6554,-1.4488 2.9988,-1.3658 4.7721,-0.4037 l 11.0707,6.0052 c 8.9144,4.5558 10.3533,4.5544 13.2214,-1.0845 l 8.0977,-16.5983 c 0.2928,-0.5009 1.5625,-0.8926 2.1353,-0.8283 4.2764,0.4811 10.7924,1.3218 14.3626,1.8014 5.764,0.7739 6.8182,1.2538 8.0416,-4.7763 0.764,-4.2035 1.8287,-11.0688 2.5002,-15.3655 0.3124,-1.4848 1.0239,-1.7972 2.0616,-2.0325 2.8245,-0.6403 5.1628,-1.2404 7.9399,-1.9896 3.8061,-1.0273 9.2948,-2.5518 9.9587,-5.3603 0.6723,-2.8443 -3.5187,-6.9846 -5.9537,-9.7985 -1.368,-1.5809 -3.3346,-3.3849 -4.9671,-4.9482 -0.4552,-0.436 -0.8314,-1.3317 0.0136,-2.1461 2.2637,-2.3088 6.7762,-7.3205 9.0882,-9.5811 4.8495,-5.1041 2.1084,-7.4645 -3.8257,-11.2598 -2.4004,-1.5352 -5.8847,-3.8075 -8.2933,-5.4986 -0.9533,-0.669 -1.2883,-1.0559 -1.4003,-1.7635 -0.4227,-4.1303 -0.8963,-6.9539 -1.3813,-10.8725 -0.1639,-1.3241 0.3285,-2.3015 1.3079,-2.7457 5.3988,-2.1047 8.024,-2.1662 8.0677,-9.3084 -0.006,-1.3756 0.1666,-11.8173 0.1315,-13.1936 -0.0885,-3.4029 -1.8513,-4.4923 -6.9517,-2.4814 l -5.2603,2.0962 -17.8086,6.9245 c -1.7572,0.7254 -3.7724,-0.4244 -3.1624,-1.9023 l 2.9518,-6.7014 c 0.1545,-0.3212 0.2979,-0.6477 0.4269,-0.98 1.5593,-3.2865 6.6764,-11.6005 4.0668,-14.5553 -2.944,-3.3341 -12.0262,1.4649 -15.8207,2.7876 -18.9944,6.6214 -38.0979,12.9288 -56.9999,19.8142 -3.1711,1.1551 -6.2416,2.62 -9.0853,4.4421 -18.5712,11.9002 -39.4036,25.1102 -57.2341,37.0953 -3.4466,2.3168 -4.6318,4.8671 -3.374,8.737 l 1.7237,5.303 0.8396,2.6538 c 10e-4,1.6986 1.2818,3.0221 3.6856,3.0076 1.2552,-0.008 2.2873,0.3081 2.685,1.3714 l 1.0758,5.207 c 0.4855,2.351 1.832,4.356 7.213,2.8513 8.4932,-2.3751 21.9793,-5.7311 30.4824,-7.842 1.2741,-0.3132 3.035,-0.2523 4.4971,0.2812 z"
       style="fill:#51514e;fill-rule:evenodd"
       id="path129"
       inkscape:connector-curvature="0" />
    <g
       id="Layer1004">
      <path
         d="m 414.3359,573.6495 c 0.4005,0.6503 1.0432,1.2515 1.853,1.2481 3.2105,-0.0142 6.4318,-0.2826 9.5834,-0.9068 0.8801,-0.1743 1.4967,-1.1554 1.4329,-2.0214 -0.4139,-5.6236 -1.012,-11.2442 -2.0755,-16.7853 -0.2557,-1.3326 -1.0265,-2.5532 -1.9559,-3.5224 -2.5325,-2.6413 -5.2725,-5.0958 -8.2182,-7.2686 -0.8176,-0.6032 -1.7416,-0.5641 -2.6941,-0.6324 -7.0724,-0.5091 -14.1435,-1.1336 -21.238,-1.2211 -0.94,-0.0117 -1.9701,0.5913 -2.3068,1.4893 -0.3606,0.9618 -0.1715,2.2362 0.576,2.9687 4.2468,4.1607 9.0663,7.6584 13.5357,11.5639 2.1628,1.8899 4.6919,3.5791 6.4462,5.876 2.1161,2.7703 3.2315,6.2402 5.0613,9.212 z"
         style="fill:#7e8284;fill-rule:evenodd"
         id="path131"
         inkscape:connector-curvature="0" />
      <path
         d="m 414.5774,573.501 c 0.3458,0.5612 0.9071,1.1163 1.6104,1.1131 3.1924,-0.0138 6.3958,-0.2806 9.5295,-0.9014 0.7381,-0.1462 1.2583,-0.9995 1.2053,-1.7226 -0.4133,-5.6126 -1.0097,-11.2224 -2.0713,-16.7527 -0.2452,-1.2773 -0.9913,-2.4506 -1.8819,-3.3795 -2.5217,-2.6297 -5.2492,-5.0735 -8.1822,-7.2369 -0.7543,-0.5561 -1.6631,-0.5142 -2.5458,-0.5777 -7.0668,-0.5085 -14.1327,-1.1327 -21.2213,-1.2203 -0.8204,-0.0102 -1.7436,0.5199 -2.0381,1.3054 -0.3209,0.8563 -0.1579,2.0131 0.5091,2.6668 4.242,4.1562 9.0589,7.651 13.5238,11.5529 2.1827,1.9074 4.7129,3.5972 6.4851,5.9173 2.1288,2.7873 3.2403,6.2518 5.0774,9.2356 z"
         style="fill:#6d7374;fill-rule:evenodd"
         id="path133"
         inkscape:connector-curvature="0" />
      <path
         d="m 414.8186,573.3522 c 0.29,0.4708 0.7742,0.981 1.3678,0.9785 3.1742,-0.0139 6.3598,-0.279 9.4756,-0.8961 0.5961,-0.1179 1.0205,-0.8438 0.9777,-1.4235 -0.4122,-5.6016 -1.0074,-11.2008 -2.0668,-16.7202 -0.2344,-1.2223 -0.9564,-2.3485 -1.8082,-3.2369 -2.5103,-2.618 -5.2259,-5.051 -8.1456,-7.2048 -0.6888,-0.5079 -1.5871,-0.4649 -2.3981,-0.523 -7.0611,-0.5082 -14.1217,-1.1321 -21.2046,-1.2197 -0.6999,-0.009 -1.5168,0.4487 -1.7688,1.1214 -0.2815,0.7506 -0.1443,1.7903 0.4419,2.3646 4.2375,4.1519 9.0516,7.6442 13.5119,11.5421 2.2025,1.9248 4.7339,3.6154 6.5237,5.9588 2.1418,2.804 3.2493,6.2637 5.0935,9.2588 z"
         style="fill:#5d6465;fill-rule:evenodd"
         id="path135"
         inkscape:connector-curvature="0" />
    </g>
    <path
       d="m 415.0602,573.2036 c 0.2457,0.3991 0.6565,0.8456 1.125,0.8436 3.1544,-0.0139 6.3275,-0.2778 9.4218,-0.8906 0.4419,-0.0876 0.783,-0.6755 0.7501,-1.1248 -0.4116,-5.5894 -1.006,-11.1835 -2.0625,-16.6876 -0.2228,-1.1611 -0.9165,-2.2408 -1.7345,-3.094 -2.4976,-2.6048 -5.2053,-5.0306 -8.1094,-7.1728 -0.6165,-0.4547 -1.4862,-0.4136 -2.2501,-0.4685 -7.0557,-0.5077 -14.114,-1.1314 -21.1876,-1.2189 -0.5893,-0.007 -1.2932,0.3855 -1.5001,0.9374 -0.2452,0.6542 -0.1241,1.5738 0.375,2.0627 4.2271,4.1417 9.0437,7.6369 13.5,11.5311 2.2318,1.9502 4.7634,3.6448 6.5625,6.0001 2.1436,2.8066 3.2579,6.275 5.1098,9.2823 z"
       style="fill:#4c5555;fill-rule:evenodd"
       id="path138"
       inkscape:connector-curvature="0" />
    <g
       id="Layer1005">
      <path
         d="m 420.9151,557.335 c -0.047,-0.9045 -0.5522,-1.7473 -1.1358,-2.4143 -2.1002,-2.3998 -4.6607,-4.445 -7.244,-6.2997 -0.5536,-0.3974 -1.2384,-0.6712 -1.9244,-0.6891 -3.0263,-0.0796 -6.2152,-0.6639 -9.1502,0.3512 -0.2107,0.0729 -0.387,0.2092 -0.4737,0.419 -0.356,0.8609 1.2966,2.1382 1.912,2.5787 1.3064,0.9348 2.8987,1.1296 4.2565,1.8992 1.5752,0.8929 3.0846,1.9091 4.4881,3.0534 2.0681,1.6861 3.6895,3.8546 5.8824,5.408 0.6761,0.479 2.0336,0.9187 2.611,0.0822 0.8671,-1.2558 0.8544,-2.9242 0.7781,-4.3886 z"
         style="fill:#7e8284;fill-rule:evenodd"
         id="path140"
         inkscape:connector-curvature="0" />
      <path
         d="m 420.7737,557.3424 c -0.0454,-0.8708 -0.5395,-1.6867 -1.101,-2.3284 -2.0928,-2.391 -4.6457,-4.4297 -7.2201,-6.2779 -0.5301,-0.3807 -1.1883,-0.6455 -1.8454,-0.6627 -3.0005,-0.0786 -6.1926,-0.6619 -9.1003,0.3438 -1.4369,0.4969 0.9793,2.3939 1.4745,2.7482 1.2918,0.9244 2.8917,1.1248 4.2441,1.8913 1.582,0.8966 3.098,1.9173 4.5076,3.0668 2.0651,1.6837 3.6879,3.8531 5.8748,5.4022 0.6052,0.4286 1.889,0.8757 2.4126,0.1174 0.8453,-1.224 0.8274,-2.8729 0.7532,-4.3007 z"
         style="fill:#a9acad;fill-rule:evenodd"
         id="path142"
         inkscape:connector-curvature="0" />
      <path
         d="m 420.6319,557.3497 c -0.0433,-0.8368 -0.5266,-1.6259 -1.0661,-2.2422 -2.0851,-2.3828 -4.6307,-4.4146 -7.1957,-6.2563 -0.5071,-0.364 -1.1381,-0.6197 -1.7666,-0.6361 -2.9746,-0.078 -6.1701,-0.6602 -9.0501,0.3359 -1.2127,0.4195 1.1137,2.2153 1.5105,2.4993 1.2765,0.9133 2.8849,1.1197 4.2313,1.8831 1.5888,0.9005 3.1116,1.9258 4.5275,3.0804 2.0622,1.6809 3.6862,3.8514 5.8672,5.3963 0.5334,0.3778 1.7455,0.8308 2.2138,0.1525 0.8235,-1.1923 0.8008,-2.8219 0.7282,-4.2129 z"
         style="fill:#d4d5d6;fill-rule:evenodd"
         id="path144"
         inkscape:connector-curvature="0" />
    </g>
    <path
       d="m 420.4905,557.3571 c 0.0726,1.3929 0.0893,2.9772 -0.7033,4.125 -0.3832,0.555 -1.4649,0.2021 -2.0154,-0.1877 -2.1654,-1.5341 -3.8027,-3.7136 -5.8595,-5.3906 -1.4207,-1.1583 -2.9523,-2.1898 -4.5471,-3.0938 -1.3385,-0.7588 -2.9673,-0.9796 -4.2188,-1.8751 -0.7401,-0.5295 -2.4069,-1.9525 -1.5468,-2.2498 2.8372,-0.9814 5.9992,-0.4071 9.0002,-0.3283 0.5976,0.0156 1.2019,0.2608 1.6875,0.6095 2.6422,1.8969 5.1599,3.9353 7.1719,6.2345 0.5247,0.5995 0.9899,1.3606 1.0313,2.1563 z"
       style="fill:#ffffff;fill-rule:evenodd"
       id="path147"
       inkscape:connector-curvature="0" />
    <path
       d="m 460.4737,574.6938 c 1.2413,0.8699 0.6299,1.6248 -0.4685,2.4375 -6.6875,-1.2186 -13.3753,-2.0857 -20.0628,-3.3043 -0.7311,-0.1341 -1.0967,0.7903 -0.4221,1.0306 5.5432,1.9775 13.5349,3.2962 19.0786,5.2739 0.7892,0.2815 1.004,1.0661 1.254,1.8281 0.1642,1.0312 0.3396,1.6407 0.0584,2.6719 -0.3282,1.1251 -0.8671,2.4372 -2.2969,1.7342 -8.5938,-2.1248 -17.4197,-3.7448 -26.0158,-5.8592 -4.496,-1.1058 -7.6892,-1.5613 -8.8123,-1.0312 -10.8752,3.9373 -21.7596,7.8508 -32.6257,11.8122 -1.9902,0.7257 -3.9016,1.6107 -3.9376,4.125 -0.057,3.9994 -0.1533,8.0036 0,12.0002 0.1228,3.2012 0.616,4.8943 6.7502,4.7809 13.3126,-0.625 28.2189,-1.3433 41.5315,-1.9684 3.6249,2.6249 4.8331,4.2713 7.7638,6.6963 1.5001,1.4222 -0.2639,3.8347 -1.9046,3.2879 -2.9687,-0.5624 -5.891,-1.7342 -8.8597,-2.2966 -0.6344,-0.0975 -1.0066,0.176 -1.2656,0.6092 -1.2972,2.4531 -2.594,4.9064 -3.8912,7.3595 -0.5856,1.2756 -1.5397,1.444 -2.6248,1.2189 -4.6251,-1.0312 -9.2501,-2.0624 -13.8751,-3.0937 -0.8455,-0.1664 -1.5919,0.1664 -2.2501,0.9374 -2.8749,2.8749 -5.7501,5.7501 -8.625,8.625 -0.7157,0.7353 -1.5658,0.796 -2.5313,0.2815 -4.1877,-2.3125 -8.375,-4.6253 -12.5626,-6.9378 -1.2081,-0.7552 -1.7702,-0.2733 -2.156,-0.0936 -4.6877,2.1249 -9.3751,4.2497 -14.0627,6.3746 -1.1047,0.6171 -2.1456,0.8218 -2.9999,-0.1874 -3.5626,-5.8124 -7.1249,-11.6251 -10.6875,-17.4376 -0.4039,-0.9312 -1.2838,-1.0695 -2.4375,-0.75 -4.5,0.5624 -9,1.125 -13.5,1.6874 -2.0517,0.4249 -3.2615,-0.1128 -3.5626,-1.6874 -1,-4.125 -2.0001,-8.25 -3.0002,-12.375 -0.2426,-0.8903 -0.6012,-1.5474 -1.1248,-1.8751 -2.1875,-1.1874 -4.375,-2.3748 -6.5624,-3.5623 -0.9009,-0.4941 -1.6983,-1.2594 -1.3479,-2.6603 1,-2.8125 2.2226,-5.5899 3.2227,-8.4024 0.2959,-0.6308 -0.0462,-1.4939 -1.1251,-2.6249 -2.5625,-3.0626 -5.078,-5.5627 -7.6405,-8.6253 -1.239,-1.3898 -0.7461,-3.1099 0.8907,-4.1247 2.2498,-1.6874 4.2261,-3.17 6.476,-4.8574 0.5218,-0.3433 0.8773,-1.6739 0.8365,-3.0178 0.0624,-6.2501 0.125,-12.4999 0.1874,-18.75 -0.002,-1.9029 1.2492,-1.8519 2.8125,-1.3125 7.0625,2.3125 14.1693,4.3353 21.1643,6.844 0.381,0.1366 0.633,-0.2778 0.2325,-0.5057 -4.9125,-2.7978 -31.4589,-14.8224 -32.4094,-15.2532 -0.8816,-0.4 -1.1234,-0.3345 -1.0885,-1.397 0.008,-1.5312 -0.0201,-2.5228 0.019,-4.0552 0.0351,-0.4025 -0.0119,-1.3204 0.8787,-1.0312 9.8983,3.5543 19.7963,7.109 29.6946,10.6633 1.5534,0.6869 2.5016,0.8073 4.0431,-0.7563 0.8121,-0.8237 1.9256,-1.7526 1.9332,-2.7124 0.01,-1.224 -1.1639,-2.8126 -1.6639,-4.2188 -2.3125,-5.2501 -4.625,-10.5001 -6.9375,-15.7502 -1.2813,-2.586 0.3203,-2.4531 2.2501,-1.6874 16.7811,7.031 33.9372,13.1244 50.7183,20.1554 4.6715,1.6402 9.2651,3.672 13.6874,6.5625 16.6181,11.7349 33.1966,23.5273 49.8546,35.2049 z"
       style="fill:none"
       id="path149"
       inkscape:connector-curvature="0" />
    <path
       d="m 389.2927,546.9976 c 4.2468,4.1607 9.0663,7.6584 13.5357,11.5639 2.1628,1.8899 4.6919,3.5791 6.4462,5.876 2.1161,2.7703 3.2315,6.2402 5.0613,9.212 0.4005,0.6503 1.0432,1.2515 1.853,1.2481 3.2105,-0.0142 6.4318,-0.2826 9.5834,-0.9068 0.8801,-0.1743 1.4967,-1.1554 1.4329,-2.0214 -0.4139,-5.6236 -1.012,-11.2442 -2.0755,-16.7853 -0.2557,-1.3326 -1.0265,-2.5532 -1.9559,-3.5224 -2.5325,-2.6413 -5.2725,-5.0958 -8.2182,-7.2686 -0.8176,-0.6032 -1.7416,-0.5641 -2.6941,-0.6324 -7.0724,-0.5091 -14.1435,-1.1336 -21.238,-1.2211 -0.94,-0.0117 -1.9701,0.5913 -2.3068,1.4893 -0.3606,0.9618 -0.1715,2.2362 0.576,2.9687 z m 71.181,27.6962 c 1.2413,0.8699 0.6299,1.6248 -0.4685,2.4375 -6.6875,-1.2186 -13.3753,-2.0857 -20.0628,-3.3043 -0.7311,-0.1341 -1.0967,0.7903 -0.4221,1.0306 5.5432,1.9775 13.5349,3.2962 19.0786,5.2739 0.7892,0.2815 1.004,1.0661 1.254,1.8281 0.1642,1.0312 0.3396,1.6407 0.0584,2.6719 -0.3282,1.1251 -0.8671,2.4372 -2.2969,1.7342 -8.5938,-2.1248 -17.4197,-3.7448 -26.0158,-5.8592 -4.496,-1.1058 -7.6892,-1.5613 -8.8123,-1.0312 -10.8752,3.9373 -21.7596,7.8508 -32.6257,11.8122 -1.9902,0.7257 -3.9016,1.6107 -3.9376,4.125 -0.057,3.9994 -0.1533,8.0036 0,12.0002 0.1228,3.2012 0.616,4.8943 6.7502,4.7809 13.3126,-0.625 28.2189,-1.3433 41.5315,-1.9684 3.6249,2.6249 4.8331,4.2713 7.7638,6.6963 1.5001,1.4222 -0.2639,3.8347 -1.9046,3.2879 -2.9687,-0.5624 -5.891,-1.7342 -8.8597,-2.2966 -0.6344,-0.0975 -1.0066,0.176 -1.2656,0.6092 l -3.8912,7.3595 c -0.5856,1.2756 -1.5397,1.444 -2.6248,1.2189 l -13.8751,-3.0937 c -0.8455,-0.1664 -1.5919,0.1664 -2.2501,0.9374 l -8.625,8.625 c -0.7157,0.7353 -1.5658,0.796 -2.5313,0.2815 l -12.5626,-6.9378 c -1.2081,-0.7552 -1.7702,-0.2733 -2.156,-0.0936 l -14.0627,6.3746 c -1.1047,0.6171 -2.1456,0.8218 -2.9999,-0.1874 l -10.6875,-17.4376 c -0.4039,-0.9312 -1.2838,-1.0695 -2.4375,-0.75 l -13.5,1.6874 c -2.0517,0.4249 -3.2615,-0.1128 -3.5626,-1.6874 l -3.0002,-12.375 c -0.2426,-0.8903 -0.6012,-1.5474 -1.1248,-1.8751 l -6.5624,-3.5623 c -0.9009,-0.4941 -1.6983,-1.2594 -1.3479,-2.6603 1,-2.8125 2.2226,-5.5899 3.2227,-8.4024 0.2959,-0.6308 -0.0462,-1.4939 -1.1251,-2.6249 -2.5625,-3.0626 -5.078,-5.5627 -7.6405,-8.6253 -1.239,-1.3898 -0.7461,-3.1099 0.8907,-4.1247 l 6.476,-4.8574 c 0.5218,-0.3433 0.8773,-1.6739 0.8365,-3.0178 l 0.1874,-18.75 c -0.002,-1.9029 1.2492,-1.8519 2.8125,-1.3125 7.0625,2.3125 14.1693,4.3353 21.1643,6.844 0.381,0.1366 0.633,-0.2778 0.2325,-0.5057 -4.9125,-2.7978 -31.4589,-14.8224 -32.4094,-15.2532 -0.8816,-0.4 -1.1234,-0.3345 -1.0885,-1.397 0.008,-1.5312 -0.0201,-2.5228 0.019,-4.0552 0.0351,-0.4025 -0.0119,-1.3204 0.8787,-1.0312 l 29.6946,10.6633 c 1.5534,0.6869 2.5016,0.8073 4.0431,-0.7563 0.8121,-0.8237 1.9256,-1.7526 1.9332,-2.7124 0.01,-1.224 -1.1639,-2.8126 -1.6639,-4.2188 l -6.9375,-15.7502 c -1.2813,-2.586 0.3203,-2.4531 2.2501,-1.6874 16.7811,7.031 33.9372,13.1244 50.7183,20.1554 4.6715,1.6402 9.2651,3.672 13.6874,6.5625 16.6181,11.7349 33.1966,23.5273 49.8546,35.2049 z"
       style="fill:#e4002c;fill-rule:evenodd"
       id="path151"
       inkscape:connector-curvature="0" />
    <path
       d="m 327.2355,542.3842 c -0.7067,-0.1834 -1.4137,-0.3671 -2.1204,-0.5505 -0.9076,-0.2622 -1.032,0.1823 -1.078,1.5001 -0.1678,4.7974 -0.6497,9.6449 -1.2892,14.3439 -0.2035,1.4975 -1.1171,2.937 -2.2498,3.9376 -2.9809,2.6342 -6.4925,4.6066 -9.8439,6.7499 -2.1421,1.3702 -3.1133,2.6501 -1.1251,4.5938 3.5544,3.4756 7.0076,7.0546 10.4981,10.5942 1.0072,1.021 0.8808,1.8635 -0.1876,2.9064 -2.9429,2.8717 -5.7473,5.8909 -8.4376,9 -1.5693,1.8136 -1.7932,3.5146 0.4688,4.1249 3.7979,1.025 7.6249,1.9375 11.4375,2.9064 2.1989,0.6338 3.1763,2.6155 3.5626,5.25 0.6871,4.2188 1.2116,8.4671 2.0614,12.6562 0.3793,1.8694 1.9485,2.5928 4.5,2.2501 4.9901,-0.6701 9.9859,-1.3235 15.0001,-1.7813 1.5735,-0.1437 2.7623,0.7265 3.4687,2.3437 2.8123,5.125 5.6245,10.2501 8.4368,15.3751 1.2254,2.4903 2.9304,2.3885 4.7815,1.5001 5.7186,-2.9063 11.4375,-5.8124 17.1561,-8.7188 1.3501,-0.5848 2.6189,-0.0408 3.8438,1.1248 4.1561,3.9688 8.3123,7.9373 12.4684,11.9061 1.6796,1.7008 2.6068,0.5068 3.4688,-0.9374 3.2187,-5.0001 6.4607,-9.6251 9.6795,-14.6251 0.5782,-0.7498 3.0081,-1.3127 4.0082,-0.6327 4.8435,4.0782 8.6805,7.1365 11.2728,9.3042 1.7526,1.4658 3.2709,0.8668 3.539,-1.4531 0.3793,-3.2805 1.078,-6.4454 1.4531,-9.7268 0.4014,-2.336 1.6755,-3.1266 3.7034,-3.2108 4.1874,-0.1874 8.5371,-0.3268 12.7265,-0.4569 1.2829,-0.0397 1.8158,-0.3365 0.2109,-1.5353 -2.35,-1.7552 -5.495,-3.992 -7.9645,-5.5754"
       style="fill:none"
       id="path153"
       inkscape:connector-curvature="0" />
    <path
       d="m 396.4411,633.8506 c 0.9655,0.5145 1.8156,0.4538 2.5313,-0.2815 l 8.625,-8.625 c 0.6582,-0.771 1.4046,-1.1038 2.2501,-0.9374 l 13.8751,3.0937 c 1.0851,0.2251 2.0392,0.0567 2.6248,-1.2189 l 3.8912,-7.3595 c 0.259,-0.4332 0.6312,-0.7067 1.2656,-0.6092 2.9687,0.5624 5.891,1.7342 8.8597,2.2966 1.6407,0.5468 3.4047,-1.8657 1.9046,-3.2879 -0.5854,-0.4844 -1.1021,-0.9377 -1.5831,-1.3739 2.4695,1.5834 5.6145,3.8202 7.9645,5.5754 1.6049,1.1988 1.072,1.4956 -0.2109,1.5353 -4.1894,0.1301 -8.5391,0.2695 -12.7265,0.4569 -2.0279,0.0842 -3.302,0.8748 -3.7034,3.2108 -0.3751,3.2814 -1.0738,6.4463 -1.4531,9.7268 -0.2681,2.3199 -1.7864,2.9189 -3.539,1.4531 -2.5923,-2.1677 -6.4293,-5.226 -11.2728,-9.3042 -1.0001,-0.68 -3.43,-0.1171 -4.0082,0.6327 -3.2188,5 -6.4608,9.625 -9.6795,14.6251 -0.862,1.4442 -1.7892,2.6382 -3.4688,0.9374 l -12.4684,-11.9061 c -1.2249,-1.1656 -2.4937,-1.7096 -3.8438,-1.1248 l -17.1561,8.7188 c -1.8511,0.8884 -3.5561,0.9902 -4.7815,-1.5001 l -8.4368,-15.3751 c -0.7064,-1.6172 -1.8952,-2.4874 -3.4687,-2.3437 -5.0142,0.4578 -10.01,1.1112 -15.0001,1.7813 -2.5515,0.3427 -4.1207,-0.3807 -4.5,-2.2501 -0.8498,-4.1891 -1.3743,-8.4374 -2.0614,-12.6562 -0.3863,-2.6345 -1.3637,-4.6162 -3.5626,-5.25 -3.8126,-0.9689 -7.6396,-1.8814 -11.4375,-2.9064 -2.262,-0.6103 -2.0381,-2.3113 -0.4688,-4.1249 2.6903,-3.1091 5.4947,-6.1283 8.4376,-9 1.0684,-1.0429 1.1948,-1.8854 0.1876,-2.9064 -3.4905,-3.5396 -6.9437,-7.1186 -10.4981,-10.5942 -1.9882,-1.9437 -1.017,-3.2236 1.1251,-4.5938 3.3514,-2.1433 6.863,-4.1157 9.8439,-6.7499 1.1327,-1.0006 2.0463,-2.4401 2.2498,-3.9376 0.6395,-4.699 1.1214,-9.5465 1.2892,-14.3439 0.046,-1.3178 0.1704,-1.7623 1.078,-1.5001 l 2.1204,0.5505 c -1.137,-0.2398 -1.9523,0.023 -1.9508,1.5594 l -0.1874,18.75 c 0.0408,1.3439 -0.3147,2.6745 -0.8365,3.0178 l -6.476,4.8574 c -1.6368,1.0148 -2.1297,2.7349 -0.8907,4.1247 2.5625,3.0626 5.078,5.5627 7.6405,8.6253 1.0789,1.131 1.421,1.9941 1.1251,2.6249 -1.0001,2.8125 -2.2227,5.5899 -3.2227,8.4024 -0.3504,1.4009 0.447,2.1662 1.3479,2.6603 l 6.5624,3.5623 c 0.5236,0.3277 0.8822,0.9848 1.1248,1.8751 l 3.0002,12.375 c 0.3011,1.5746 1.5109,2.1123 3.5626,1.6874 l 13.5,-1.6874 c 1.1537,-0.3195 2.0336,-0.1812 2.4375,0.75 l 10.6875,17.4376 c 0.8543,1.0092 1.8952,0.8045 2.9999,0.1874 l 14.0627,-6.3746 c 0.3858,-0.1797 0.9479,-0.6616 2.156,0.0936 z"
       style="fill:#f9665c;fill-rule:evenodd"
       id="path155"
       inkscape:connector-curvature="0" />
    <path
       d="m 460.0052,577.1313 c 1.9556,0.3345 4.6374,0.9037 5.8198,0.5817 1.0547,-0.4533 1.6404,-1.0219 2.2501,-1.7807 0.811,-1.2564 0.1128,-2.0203 -0.5037,-3.2347 -0.3753,-0.7392 -1.2172,-1.5499 -2.2499,-2.2266 -18.0292,-11.8134 -36.051,-23.9258 -54.1995,-35.5552 -2.4001,-1.5378 -5.0091,-2.7746 -7.6876,-3.7503 -18.8691,-6.8734 -37.938,-13.1873 -56.9069,-19.781 -2.9265,-1.0391 -4.4238,-0.6573 -2.8967,2.2839"
       style="fill:none"
       id="path157"
       inkscape:connector-curvature="0" />
    <path
       d="m 460.0052,577.1313 c 1.0984,-0.8127 1.7098,-1.5676 0.4685,-2.4375 -16.658,-11.6776 -33.2365,-23.47 -49.8546,-35.2049 -4.4223,-2.8905 -9.0159,-4.9223 -13.6874,-6.5625 -16.7811,-7.031 -33.9372,-13.1244 -50.7183,-20.1554 -1.707,-0.6772 -3.1572,-0.8595 -2.5826,0.8974 -1.5271,-2.9412 -0.0298,-3.323 2.8967,-2.2839 18.9689,6.5937 38.0378,12.9076 56.9069,19.781 2.6785,0.9757 5.2875,2.2125 7.6876,3.7503 18.1485,11.6294 36.1703,23.7418 54.1995,35.5552 1.0327,0.6767 1.8746,1.4874 2.2499,2.2266 0.6165,1.2144 1.3147,1.9783 0.5037,3.2347 -0.6097,0.7588 -1.1954,1.3274 -2.2501,1.7807 -1.1824,0.322 -3.8642,-0.2472 -5.8198,-0.5817 z"
       style="fill:#f9665c;fill-rule:evenodd"
       id="path159"
       inkscape:connector-curvature="0" />
    <path
       d="m 396.3648,603.7739 c -2.194,0.191 -2.5486,-0.1106 -2.5996,-1.1965 -0.0528,-1.1169 0.0226,-1.361 0.049,-3.0308 0.14,-0.7801 1.1687,-1.4287 1.889,-1.7091 9.6503,-3.7561 17.9368,-6.6784 27.648,-10.2228 1.4621,-0.5335 3.223,-0.5944 4.4972,-0.2812 8.5031,2.1109 21.9892,5.4669 30.4823,7.842 5.381,1.5047 6.7275,-0.5003 7.2131,-2.8513 l 1.0757,-5.207 c 0.3977,-1.0633 1.4298,-1.3791 2.685,-1.3714 2.4038,0.0145 3.6845,-1.309 3.6856,-3.0076 l 0.8396,-2.6538 1.7238,-5.303 c 1.2577,-3.8699 0.0725,-6.4202 -3.3741,-8.737 -17.8305,-11.9851 -38.6629,-25.1951 -57.234,-37.0953 -2.8438,-1.8221 -5.9143,-3.287 -9.0854,-4.4421 -18.902,-6.8854 -38.0055,-13.1928 -56.9999,-19.8142 -3.7944,-1.3227 -12.8766,-6.1217 -15.8207,-2.7876 -2.6096,2.9548 2.5075,11.2688 4.0669,14.5553 0.1289,0.3323 0.2724,0.6588 0.4269,0.98 l 2.9517,6.7014 c 0.61,1.4779 -1.4052,2.6277 -3.1623,1.9023 l -17.8087,-6.9245 -5.2603,-2.0962 c -5.1003,-2.0109 -6.8632,-0.9215 -6.9516,2.4814 -0.0352,1.3763 0.1374,11.818 0.1315,13.1936 0.0436,7.1422 2.6688,7.2037 8.0677,9.3084 0.9793,0.4442 1.4717,1.4216 1.3079,2.7457 -0.485,3.9186 -0.9587,6.7422 -1.3814,10.8725 -0.1119,0.7076 -0.447,1.0945 -1.4003,1.7635 -2.4086,1.6911 -5.8929,3.9634 -8.2933,5.4986 -5.934,3.7953 -8.6751,6.1557 -3.8256,11.2598 2.3119,2.2606 6.8244,7.2723 9.0881,9.5811 0.845,0.8144 0.4689,1.7101 0.0136,2.1461 -1.6324,1.5633 -3.5991,3.3673 -4.9671,4.9482 -2.435,2.8139 -6.626,6.9542 -5.9536,9.7985 0.6639,2.8085 6.1526,4.333 9.9587,5.3603 2.7771,0.7492 5.1154,1.3493 7.9398,1.9896 1.0378,0.2353 1.7493,0.5477 2.0616,2.0325 0.6716,4.2967 1.7363,11.162 2.5002,15.3655 1.2234,6.0301 2.2776,5.5502 8.0416,4.7763 3.5702,-0.4796 10.0862,-1.3203 14.3626,-1.8014 0.5729,-0.0643 1.8425,0.3274 2.1353,0.8283 l 8.0978,16.5983 c 2.868,5.6389 4.3069,5.6403 13.2213,1.0845 l 11.0707,-6.0052 c 1.7734,-0.9621 3.1167,-1.0451 4.7721,0.4037 l 9.3844,8.2133 c 2.416,2.1144 5.3572,5.6472 7.5793,5.4233 2.8074,-0.0553 5.5046,-4.8345 6.9049,-7.1447 1.8071,-2.8046 3.8523,-6.0273 5.6129,-8.7614 0.623,-0.9674 1.4082,-1.8068 2.7839,-0.7659 2.5753,1.7983 3.8599,2.4781 6.3057,4.3024 3.0449,2.5464 9.0448,6.143 10.8331,5.402 2.7825,-1.1534 4.0958,-4.9728 4.1749,-7.8681 0.2625,-2.2708 0.4133,-6.1798 0.6284,-8.4648 0.169,-1.7943 0.7563,-2.2734 2.3525,-2.1926 2.5858,0.1309 13.2347,-0.9842 15.7224,-1.0616 3.2706,-0.1015 6.7238,-0.4637 7.2178,-3.9807 0.4128,-2.9381 -6.8527,-7.6802 -10.1111,-9.9405 -2.6193,-1.8167 -5.4505,-3.5694 -7.9858,-5.5103 -2.2703,-1.7379 -4.017,-3.3108 -6.1968,-5.0043 -1.6855,-1.3144 -2.9963,-1.7858 -4.635,-1.6942 l -3.6972,0.0507 c -13.642,0.6404 -21.1189,0.877 -34.7607,1.518 z"
       style="fill:none"
       id="path161"
       inkscape:connector-curvature="0" />
    <path
       d="m 403.4344,531.1655 c -18.8691,-6.8734 -37.938,-13.1873 -56.9069,-19.781 -2.9265,-1.0391 -4.4238,-0.6573 -2.8967,2.2839 0.0751,0.2293 0.1845,0.4915 0.3325,0.79 l 6.9375,15.7502 c 0.5,1.4062 1.6738,2.9948 1.6639,4.2188 -0.008,0.9598 -1.1211,1.8887 -1.9332,2.7124 -1.5415,1.5636 -2.4897,1.4432 -4.0431,0.7563 l -29.6946,-10.6633 c -0.8906,-0.2892 -0.8436,0.6287 -0.8787,1.0312 -0.0391,1.5324 -0.0111,2.524 -0.019,4.0552 -0.0349,1.0625 0.2069,0.997 1.0885,1.397 0.9505,0.4308 27.4969,12.4554 32.4094,15.2532 0.4005,0.2279 0.1485,0.6423 -0.2325,0.5057 -6.995,-2.5087 -14.1018,-4.5315 -21.1643,-6.844 -0.301,-0.1037 -0.5905,-0.1896 -0.8617,-0.2469 l -2.1204,-0.5505 c -0.9076,-0.2622 -1.032,0.1823 -1.078,1.5001 -0.1678,4.7974 -0.6497,9.6449 -1.2892,14.3439 -0.2035,1.4975 -1.1171,2.937 -2.2498,3.9376 -2.9809,2.6342 -6.4925,4.6066 -9.8439,6.7499 -2.1421,1.3702 -3.1133,2.6501 -1.1251,4.5938 3.5544,3.4756 7.0076,7.0546 10.4981,10.5942 1.0072,1.021 0.8808,1.8635 -0.1876,2.9064 -2.9429,2.8717 -5.7473,5.8909 -8.4376,9 -1.5693,1.8136 -1.7932,3.5146 0.4688,4.1249 3.7979,1.025 7.6249,1.9375 11.4375,2.9064 2.1989,0.6338 3.1763,2.6155 3.5626,5.25 0.6871,4.2188 1.2116,8.4671 2.0614,12.6562 0.3793,1.8694 1.9485,2.5928 4.5,2.2501 4.9901,-0.6701 9.9859,-1.3235 15.0001,-1.7813 1.5735,-0.1437 2.7623,0.7265 3.4687,2.3437 l 8.4368,15.3751 c 1.2254,2.4903 2.9304,2.3885 4.7815,1.5001 l 17.1561,-8.7188 c 1.3501,-0.5848 2.6189,-0.0408 3.8438,1.1248 l 12.4684,11.9061 c 1.6796,1.7008 2.6068,0.5068 3.4688,-0.9374 3.2187,-5.0001 6.4607,-9.6251 9.6795,-14.6251 0.5782,-0.7498 3.0081,-1.3127 4.0082,-0.6327 4.8435,4.0782 8.6805,7.1365 11.2728,9.3042 1.7526,1.4658 3.2709,0.8668 3.539,-1.4531 0.3793,-3.2805 1.078,-6.4454 1.4531,-9.7268 0.4014,-2.336 1.6755,-3.1266 3.7034,-3.2108 4.1874,-0.1874 8.5371,-0.3268 12.7265,-0.4569 1.2829,-0.0397 1.8158,-0.3365 0.2109,-1.5353 -2.35,-1.7552 -5.495,-3.992 -7.9645,-5.5754 -1.9268,-1.7479 -3.2797,-3.2219 -6.1807,-5.3224 -13.3126,0.6251 -28.2189,1.3434 -41.5315,1.9684 -6.1342,0.1134 -6.6274,-1.5797 -6.7502,-4.7809 -0.1533,-3.9966 -0.057,-8.0008 0,-12.0002 0.036,-2.5143 1.9474,-3.3993 3.9376,-4.125 10.8661,-3.9614 21.7505,-7.8749 32.6257,-11.8122 1.1231,-0.5301 4.3163,-0.0746 8.8123,1.0312 8.5961,2.1144 17.422,3.7344 26.0158,5.8592 1.4298,0.703 1.9687,-0.6091 2.2969,-1.7342 0.2812,-1.0312 0.1058,-1.6407 -0.0584,-2.6719 -0.25,-0.762 -0.4648,-1.5466 -1.254,-1.8281 -5.5437,-1.9777 -13.5354,-3.2964 -19.0786,-5.2739 -0.6746,-0.2403 -0.309,-1.1647 0.4221,-1.0306 6.6875,1.2186 13.3753,2.0857 20.0628,3.3043 1.9556,0.3345 4.6374,0.9037 5.8198,0.5817 1.0547,-0.4533 1.6404,-1.0219 2.2501,-1.7807 0.811,-1.2564 0.1128,-2.0203 -0.5037,-3.2347 -0.3753,-0.7392 -1.2172,-1.5499 -2.2499,-2.2266 -18.0292,-11.8134 -36.051,-23.9258 -54.1995,-35.5552 -2.4001,-1.5378 -5.0091,-2.7746 -7.6876,-3.7503 z"
       style="fill:none"
       id="path163"
       inkscape:connector-curvature="0" />
    <path
       d="m 465.3215,570.471 c -18.0292,-11.8134 -36.051,-23.9258 -54.1995,-35.5552 -2.4001,-1.5378 -5.0091,-2.7746 -7.6876,-3.7503 -18.8691,-6.8734 -37.938,-13.1873 -56.9069,-19.781 -2.9265,-1.0391 -4.4238,-0.6573 -2.8967,2.2839 0.0751,0.2293 0.1845,0.4915 0.3325,0.79 l 6.9375,15.7502 c 0.5,1.4062 1.6738,2.9948 1.6639,4.2188 -0.008,0.9598 -1.1211,1.8887 -1.9332,2.7124 -1.5415,1.5636 -2.4897,1.4432 -4.0431,0.7563 l -29.6946,-10.6633 c -0.8906,-0.2892 -0.8436,0.6287 -0.8787,1.0312 -0.0391,1.5324 -0.0111,2.524 -0.019,4.0552 -0.0349,1.0625 0.2069,0.997 1.0885,1.397 0.9505,0.4308 27.4969,12.4554 32.4094,15.2532 0.4005,0.2279 0.1485,0.6423 -0.2325,0.5057 -6.995,-2.5087 -14.1018,-4.5315 -21.1643,-6.844 -0.301,-0.1037 -0.5905,-0.1896 -0.8617,-0.2469 l -2.1204,-0.5505 c -0.9076,-0.2622 -1.032,0.1823 -1.078,1.5001 -0.1678,4.7974 -0.6497,9.6449 -1.2892,14.3439 -0.2035,1.4975 -1.1171,2.937 -2.2498,3.9376 -2.9809,2.6342 -6.4925,4.6066 -9.8439,6.7499 -2.1421,1.3702 -3.1133,2.6501 -1.1251,4.5938 3.5544,3.4756 7.0076,7.0546 10.4981,10.5942 1.0072,1.021 0.8808,1.8635 -0.1876,2.9064 -2.9429,2.8717 -5.7473,5.8909 -8.4376,9 -1.5693,1.8136 -1.7932,3.5146 0.4688,4.1249 3.7979,1.025 7.6249,1.9375 11.4375,2.9064 2.1989,0.6338 3.1763,2.6155 3.5626,5.25 0.6871,4.2188 1.2116,8.4671 2.0614,12.6562 0.3793,1.8694 1.9485,2.5928 4.5,2.2501 4.9901,-0.6701 9.9859,-1.3235 15.0001,-1.7813 1.5735,-0.1437 2.7623,0.7265 3.4687,2.3437 l 8.4368,15.3751 c 1.2254,2.4903 2.9304,2.3885 4.7815,1.5001 l 17.1561,-8.7188 c 1.3501,-0.5848 2.6189,-0.0408 3.8438,1.1248 l 12.4684,11.9061 c 1.6796,1.7008 2.6068,0.5068 3.4688,-0.9374 3.2187,-5.0001 6.4607,-9.6251 9.6795,-14.6251 0.5782,-0.7498 3.0081,-1.3127 4.0082,-0.6327 4.8435,4.0782 8.6805,7.1365 11.2728,9.3042 1.7526,1.4658 3.2709,0.8668 3.539,-1.4531 0.3793,-3.2805 1.078,-6.4454 1.4531,-9.7268 0.4014,-2.336 1.6755,-3.1266 3.7034,-3.2108 4.1874,-0.1874 8.5371,-0.3268 12.7265,-0.4569 1.2829,-0.0397 1.8158,-0.3365 0.2109,-1.5353 -2.35,-1.7552 -5.495,-3.992 -7.9645,-5.5754 -1.9268,-1.7479 -3.2797,-3.2219 -6.1807,-5.3224 -13.3126,0.6251 -28.2189,1.3434 -41.5315,1.9684 -6.1342,0.1134 -6.6274,-1.5797 -6.7502,-4.7809 -0.1533,-3.9966 -0.057,-8.0008 0,-12.0002 0.036,-2.5143 1.9474,-3.3993 3.9376,-4.125 10.8661,-3.9614 21.7505,-7.8749 32.6257,-11.8122 1.1231,-0.5301 4.3163,-0.0746 8.8123,1.0312 8.5961,2.1144 17.422,3.7344 26.0158,5.8592 1.4298,0.703 1.9687,-0.6091 2.2969,-1.7342 0.2812,-1.0312 0.1058,-1.6407 -0.0584,-2.6719 -0.25,-0.762 -0.4648,-1.5466 -1.254,-1.8281 -5.5437,-1.9777 -13.5354,-3.2964 -19.0786,-5.2739 -0.6746,-0.2403 -0.309,-1.1647 0.4221,-1.0306 6.6875,1.2186 13.3753,2.0857 20.0628,3.3043 1.9556,0.3345 4.6374,0.9037 5.8198,0.5817 1.0547,-0.4533 1.6404,-1.0219 2.2501,-1.7807 0.811,-1.2564 0.1128,-2.0203 -0.5037,-3.2347 -0.3753,-0.7392 -1.2172,-1.5499 -2.2499,-2.2266 z m -41.9703,17.1437 c -9.7112,3.5444 -17.9977,6.4667 -27.648,10.2228 -0.7203,0.2804 -1.749,0.929 -1.889,1.7091 -0.0264,1.6698 -0.1018,1.9139 -0.049,3.0308 0.051,1.0859 0.4056,1.3875 2.5996,1.1965 13.6418,-0.641 21.1187,-0.8776 34.7607,-1.518 l 3.6972,-0.0507 c 1.6387,-0.0916 2.9495,0.3798 4.635,1.6942 2.1798,1.6935 3.9265,3.2664 6.1968,5.0043 2.5353,1.9409 5.3665,3.6936 7.9858,5.5103 3.2584,2.2603 10.5239,7.0024 10.1111,9.9405 -0.494,3.517 -3.9472,3.8792 -7.2178,3.9807 -2.4877,0.0774 -13.1366,1.1925 -15.7224,1.0616 -1.5962,-0.0808 -2.1835,0.3983 -2.3525,2.1926 -0.2151,2.285 -0.3659,6.194 -0.6284,8.4648 -0.0791,2.8953 -1.3924,6.7147 -4.1749,7.8681 -1.7883,0.741 -7.7882,-2.8556 -10.8331,-5.402 -2.4458,-1.8243 -3.7304,-2.5041 -6.3057,-4.3024 -1.3757,-1.0409 -2.1609,-0.2015 -2.7839,0.7659 -1.7606,2.7341 -3.8058,5.9568 -5.6129,8.7614 -1.4003,2.3102 -4.0975,7.0894 -6.9049,7.1447 -2.2221,0.2239 -5.1633,-3.3089 -7.5793,-5.4233 l -9.3844,-8.2133 c -1.6554,-1.4488 -2.9987,-1.3658 -4.7721,-0.4037 l -11.0707,6.0052 c -8.9144,4.5558 -10.3533,4.5544 -13.2213,-1.0845 l -8.0978,-16.5983 c -0.2928,-0.5009 -1.5624,-0.8926 -2.1353,-0.8283 -4.2764,0.4811 -10.7924,1.3218 -14.3626,1.8014 -5.764,0.7739 -6.8182,1.2538 -8.0416,-4.7763 -0.7639,-4.2035 -1.8286,-11.0688 -2.5002,-15.3655 -0.3123,-1.4848 -1.0238,-1.7972 -2.0616,-2.0325 -2.8244,-0.6403 -5.1627,-1.2404 -7.9398,-1.9896 -3.8061,-1.0273 -9.2948,-2.5518 -9.9587,-5.3603 -0.6724,-2.8443 3.5186,-6.9846 5.9536,-9.7985 1.368,-1.5809 3.3347,-3.3849 4.9671,-4.9482 0.4553,-0.436 0.8314,-1.3317 -0.0136,-2.1461 -2.2637,-2.3088 -6.7762,-7.3205 -9.0881,-9.5811 -4.8495,-5.1041 -2.1084,-7.4645 3.8256,-11.2598 2.4004,-1.5352 5.8847,-3.8075 8.2933,-5.4986 0.9533,-0.669 1.2884,-1.0559 1.4003,-1.7635 0.4227,-4.1303 0.8964,-6.9539 1.3814,-10.8725 0.1638,-1.3241 -0.3286,-2.3015 -1.3079,-2.7457 -5.3989,-2.1047 -8.0241,-2.1662 -8.0677,-9.3084 0.006,-1.3756 -0.1667,-11.8173 -0.1315,-13.1936 0.0884,-3.4029 1.8513,-4.4923 6.9516,-2.4814 l 5.2603,2.0962 17.8087,6.9245 c 1.7571,0.7254 3.7723,-0.4244 3.1623,-1.9023 l -2.9517,-6.7014 c -0.1545,-0.3212 -0.298,-0.6477 -0.4269,-0.98 -1.5594,-3.2865 -6.6765,-11.6005 -4.0669,-14.5553 2.9441,-3.3341 12.0263,1.4649 15.8207,2.7876 18.9944,6.6214 38.0979,12.9288 56.9999,19.8142 3.1711,1.1551 6.2416,2.62 9.0854,4.4421 18.5711,11.9002 39.4035,25.1102 57.234,37.0953 3.4466,2.3168 4.6318,4.8671 3.3741,8.737 l -1.7238,5.303 -0.8396,2.6538 c -10e-4,1.6986 -1.2818,3.0221 -3.6856,3.0076 -1.2552,-0.008 -2.2873,0.3081 -2.685,1.3714 l -1.0757,5.207 c -0.4856,2.351 -1.8321,4.356 -7.2131,2.8513 -8.4931,-2.3751 -21.9792,-5.7311 -30.4823,-7.842 -1.2742,-0.3132 -3.0351,-0.2523 -4.4972,0.2812 z"
       style="fill:#51514e;fill-rule:evenodd"
       id="path165"
       inkscape:connector-curvature="0" />
    <g
       id="Layer1006">
      <path
         d="m 467.4677,601.5158 c 14.6018,5.5732 27.8104,16.6402 34.664,30.8188 4.873,10.0814 3.0263,19.8329 -4.7143,27.8325 -8.515,8.7999 -20.2479,15.8418 -31.3903,20.746 -7.6272,3.357 -18.5729,7.0764 -23.7994,13.8733 -8.7449,11.3726 -6.6801,27.9493 -2.6175,40.7089 l 0.0482,0.1511 0.0416,0.1531 c 1.0494,3.8639 0.114,8.0365 -3.6467,10.1372 -3.3557,1.8746 -7.1822,0.9355 -9.8723,-1.5494 -11.0772,-10.2316 -19.3606,-22.1961 -18.8659,-37.8266 0.7596,-24.0157 16.8431,-41.4788 38.7626,-49.5298 1.4593,-0.536 2.9231,-1.0593 4.3875,-1.5815 6.4048,-2.283 23.2611,-7.3417 24.8728,-15.1211 1.9344,-9.3373 -9.5068,-19.887 -15.804,-25.0327 -1.1999,-0.9805 -2.0899,-2.3179 -2.5999,-3.7761 -2.2481,-6.4312 3.5464,-12.2147 10.1163,-10.1489 l 0.2109,0.0664 z"
         style="fill:#ffffff;fill-rule:evenodd"
         id="path167"
         inkscape:connector-curvature="0" />
    </g>
    <path
       d="m 464.8397,608.4014 c 12.4296,4.7441 24.4618,14.3249 30.6564,27.1406 3.4557,7.149 2.3394,13.5944 -3.3752,19.5001 -6.5019,6.7195 -16.6244,13.6508 -29.0628,19.1254 -10.2229,4.4994 -20.4256,8.0019 -26.6729,16.1263 -9.718,12.6379 -9.2095,30.4404 -3.7976,47.4375 0.4924,1.8127 -0.1856,2.3695 -1.406,1.2421 -10.3776,-9.5853 -16.899,-19.5681 -16.5002,-32.1797 0.6376,-20.1453 13.9184,-35.4918 33.9373,-42.8446 14.9434,-5.4887 31.4254,-10.0065 33.9361,-22.1258 2.0854,-10.0661 -4.5669,-20.9653 -18.3572,-32.2347 -0.3243,-0.2648 -0.8833,-1.6668 0.6421,-1.1872 z"
       style="fill:#525250;fill-rule:evenodd"
       id="path170"
       inkscape:connector-curvature="0" />
    <path
       d="m 75.869,303.9948 444.3945,-0.207"
       style="fill:none"
       id="path172"
       inkscape:connector-curvature="0" />
    <path
       d="m 520.2635,303.7878 -444.3945,0.207 -0.0011,2.4417 h 444.3967 z"
       style="fill:#90cfa8;fill-rule:evenodd"
       id="path174"
       inkscape:connector-curvature="0" />
    <path
       d="M 520.3511,492.1265 75.7814,491.9193"
       style="fill:none"
       id="path176"
       inkscape:connector-curvature="0" />
  </g>
</svg>
