<?xml version="1.0" encoding="UTF-8" standalone="no"?>
<svg
   xmlns:dc="http://purl.org/dc/elements/1.1/"
   xmlns:cc="http://creativecommons.org/ns#"
   xmlns:rdf="http://www.w3.org/1999/02/22-rdf-syntax-ns#"
   xmlns:svg="http://www.w3.org/2000/svg"
   xmlns="http://www.w3.org/2000/svg"
   xmlns:sodipodi="http://sodipodi.sourceforge.net/DTD/sodipodi-0.dtd"
   xmlns:inkscape="http://www.inkscape.org/namespaces/inkscape"
   version="1.1"
   width="212.54114"
   height="252"
   id="svg93"
   viewBox="0 0 212.54114 252"
   sodipodi:docname="fk-rabotnicki-skopje.svg"
   inkscape:version="0.92.4 (5da689c313, 2019-01-14)">
  <metadata
     id="metadata99">
    <rdf:RDF>
      <cc:Work
         rdf:about="">
        <dc:format>image/svg+xml</dc:format>
        <dc:type
           rdf:resource="http://purl.org/dc/dcmitype/StillImage" />
        <dc:title></dc:title>
      </cc:Work>
    </rdf:RDF>
  </metadata>
  <defs
     id="defs97" />
  <sodipodi:namedview
     pagecolor="#ffffff"
     bordercolor="#666666"
     borderopacity="1"
     objecttolerance="10"
     gridtolerance="10"
     guidetolerance="10"
     inkscape:pageopacity="0"
     inkscape:pageshadow="2"
     inkscape:window-width="1366"
     inkscape:window-height="705"
     id="namedview95"
     showgrid="false"
     fit-margin-top="1"
     fit-margin-bottom="1"
     fit-margin-right="1"
     fit-margin-left="1"
     inkscape:zoom="0.28032173"
     inkscape:cx="20.33302"
     inkscape:cy="277.32996"
     inkscape:window-x="-8"
     inkscape:window-y="-8"
     inkscape:window-maximized="1"
     inkscape:current-layer="svg93" />
  <g
     id="Layer1000"
     transform="matrix(0.44097225,0,0,0.44097225,-24.979439,-59.625041)">
    <path
       d="m 296.8034,137.4804 c 33.3631,0 64.374,9.791 90.9376,24.4789 36.0032,19.9074 64.6888,55.9089 75.996,87.8224 h -66.1427 c -21.3229,-32.4525 -58.0449,-53.8887 -99.7688,-53.8887 -41.7235,0 -78.4447,21.4362 -99.768,53.8887 h -67.86 c 10.3487,-33.8929 40.7604,-68.8563 80.7115,-90.5765 25.6176,-13.9275 54.4719,-21.7248 85.8944,-21.7248 z m 168.7544,223.3306 4e-4,180.3141 c 0,102.3222 -75.9178,163.2844 -168.7548,163.2844 -92.8371,0 -167.4925,-70.6569 -167.4925,-163.2844 V 360.811 h 15.1255 v 196.8888 l 9.2907,7.5743 9.7562,-7.5743 V 360.811 h 24.0871 c 17.9192,43.2472 60.5373,73.6812 110.2551,73.6812 49.7182,0 92.3367,-30.434 110.2559,-73.6812 h 22.0749 v 196.8888 l 9.2907,7.5743 9.7561,-7.5743 V 360.811 Z"
       style="fill:#e3001e;fill-rule:evenodd"
       id="path2"
       inkscape:connector-curvature="0" />
    <g
       id="Layer1001">
      <g
         id="Layer1002">
        <path
           d="m 58.914,259.9582 h 133.1556 c -3.9959,7.6333 -7.1864,15.7529 -9.4675,24.2446 H 71.1171 Z"
           style="fill:#e3001e;fill-rule:evenodd"
           id="path4"
           inkscape:connector-curvature="0" />
        <path
           d="M 76.1666,294.4634 H 180.326 c -1.1799,6.7332 -1.7997,13.659 -1.7997,20.7297 0,1.1761 0.0214,2.3467 0.0555,3.5149 H 88.3697 Z"
           style="fill:#e3001e;fill-rule:evenodd"
           id="path6"
           inkscape:connector-curvature="0" />
        <path
           d="m 93.84,329.3894 h 85.5312 c 0.9047,7.624 2.5273,15.0266 4.8005,22.1406 h -79.391 z"
           style="fill:#e3001e;fill-rule:evenodd"
           id="path8"
           inkscape:connector-curvature="0" />
      </g>
      <g
         id="Layer1003">
        <path
           d="M 536.3616,261.2206 H 404.2382 c 3.8857,7.6442 6.9739,15.7618 9.1511,24.2446 h 110.7692 z"
           style="fill:#e3001e;fill-rule:evenodd"
           id="path11"
           inkscape:connector-curvature="0" />
        <path
           d="M 519.109,295.7258 H 415.5349 c 1.0406,6.3359 1.5906,12.8372 1.5906,19.4673 0,1.6007 -0.0408,3.1917 -0.1035,4.7773 h 89.8839 z"
           style="fill:#e3001e;fill-rule:evenodd"
           id="path13"
           inkscape:connector-curvature="0" />
        <path
           d="m 501.4356,330.6518 h -85.3061 c -0.9876,7.6303 -2.6994,15.0329 -5.0592,22.1406 h 79.4246 z"
           style="fill:#e3001e;fill-rule:evenodd"
           id="path15"
           inkscape:connector-curvature="0" />
      </g>
    </g>
    <g
       id="Layer1004">
      <path
         d="m 254.8383,488.6894 h 7.7422 v -41.4757 h -5.6959 c -0.3871,1.4194 -0.9493,2.59 -1.6773,3.5208 -0.7284,0.9308 -1.5855,1.6592 -2.59,2.1844 -0.9956,0.5348 -2.0921,0.9127 -3.2998,1.1336 -1.198,0.2306 -2.4794,0.3412 -3.8251,0.3505 v 5.5301 h 9.3459 z"
         style="fill:#ffffff;fill-rule:evenodd"
         id="path19"
         inkscape:connector-curvature="0" />
      <path
         d="m 284.48,462.2555 c 0.009,0.8664 -0.009,1.742 -0.0552,2.6085 -0.0555,0.8756 -0.1935,1.6773 -0.4241,2.4056 -0.2214,0.7373 -0.5992,1.3272 -1.1337,1.7695 -0.5255,0.4422 -1.2628,0.6728 -2.2028,0.6821 -0.8201,-0.009 -1.4837,-0.1751 -1.9815,-0.4885 -0.4978,-0.3228 -0.8757,-0.7465 -1.1337,-1.2814 -0.2583,-0.5344 -0.4241,-1.1243 -0.5163,-1.7787 -0.0921,-0.6543 -0.138,-1.3179 -0.138,-1.9907 0,-0.6822 0,-1.318 0.009,-1.9264 -0.009,-1.3365 -0.0181,-2.553 -0.009,-3.6589 0.009,-1.1062 0.1102,-2.0648 0.2946,-2.8757 0.1847,-0.8113 0.5348,-1.4378 1.0418,-1.8893 0.5159,-0.452 1.2717,-0.6822 2.2673,-0.7007 1.0229,-0.0921 1.8157,0.0922 2.3779,0.5344 0.5622,0.452 0.9586,1.0971 1.1887,1.9542 0.2306,0.8479 0.3687,1.8435 0.3964,2.9864 0.0371,1.1336 0.0463,2.3501 0.0186,3.6496 z m 7.7422,0.5529 c 0.0366,-2.4423 -0.1107,-4.6267 -0.4608,-6.5716 -0.3413,-1.9352 -0.9493,-3.5944 -1.8157,-4.9586 -0.8572,-1.3731 -2.0464,-2.4145 -3.5671,-3.1337 -1.5115,-0.728 -3.4194,-1.0873 -5.7144,-1.0966 -2.2307,0 -4.0922,0.3316 -5.5764,0.9952 -1.4837,0.6729 -2.6636,1.6685 -3.5296,2.9864 -0.8757,1.3179 -1.4934,2.9679 -1.862,4.9309 -0.3687,1.9634 -0.5437,4.2491 -0.5344,6.848 -0.009,2.8391 0.3223,5.2263 0.9766,7.1522 0.6548,1.9264 1.6777,3.3828 3.06,4.3691 1.392,0.9767 3.18,1.4745 5.3643,1.4745 1.1799,-0.009 2.1478,-0.1473 2.8943,-0.4237 0.7465,-0.2677 1.3545,-0.6178 1.843,-1.0327 0.4886,-0.4237 0.9401,-0.8571 1.3457,-1.3086 v 2.6543 c -0.0185,0.5071 -0.0273,1.0971 -0.0458,1.7606 -0.009,0.6636 -0.0648,1.3458 -0.1662,2.0367 -0.0922,0.7006 -0.2765,1.3457 -0.5437,1.9357 -0.2765,0.5992 -0.6729,1.0785 -1.198,1.4471 -0.5163,0.3593 -1.2169,0.5529 -2.0829,0.5622 -0.7836,0.037 -1.4013,-0.0459 -1.8528,-0.2487 -0.4515,-0.1936 -0.7835,-0.4608 -0.9956,-0.8021 -0.2117,-0.3408 -0.3501,-0.7006 -0.4145,-1.0966 -0.0648,-0.3871 -0.1014,-0.765 -0.1107,-1.1155 h -7.1892 c -0.0459,1.6407 0.1662,3.0508 0.6543,4.2399 0.4793,1.1795 1.1799,2.1474 2.1014,2.9031 0.9128,0.7557 2.0093,1.3091 3.2814,1.6685 1.2628,0.3593 2.6636,0.5344 4.1937,0.5344 1.6406,0.009 3.097,-0.1473 4.3872,-0.4701 1.2905,-0.3316 2.4056,-0.8664 3.355,-1.6221 0.9493,-0.7558 1.7328,-1.7695 2.3594,-3.0601 0.6177,-1.2809 1.0785,-2.8757 1.3827,-4.7831 0.3131,-1.9172 0.4608,-4.1848 0.4608,-6.8207 z"
         style="fill:#ffffff;fill-rule:evenodd"
         id="path21"
         inkscape:connector-curvature="0" />
      <path
         d="m 305.6051,469.5554 c 0.5437,-0.009 1.1429,0 1.7972,0.0181 0.6451,0.0185 1.2995,0.0741 1.9538,0.1662 0.6548,0.0922 1.2628,0.258 1.825,0.4886 0.5622,0.2301 1.0234,0.5621 1.392,0.9859 0.2764,0.3412 0.47,0.7742 0.5988,1.2906 0.1292,0.5159 0.2028,1.0507 0.2398,1.6036 0.037,0.5437 0.0551,1.0415 0.0459,1.4745 0.009,0.9771 0,1.9356 -0.0459,2.8572 -0.0463,0.9312 -0.1935,1.7698 -0.4334,2.5256 -0.2394,0.7465 -0.6451,1.3457 -1.2258,1.7879 -0.5714,0.4427 -1.3915,0.6729 -2.4423,0.6822 -0.9771,-0.009 -1.7513,-0.1936 -2.332,-0.553 -0.5715,-0.3686 -1.0045,-0.8479 -1.2809,-1.4563 -0.2857,-0.6081 -0.47,-1.2809 -0.5622,-2.0279 -0.0922,-0.7464 -0.1384,-1.5022 -0.1477,-2.2765 -0.009,-0.7742 -0.0185,-1.5115 -0.0459,-2.2028 h -7.2444 v 2.4334 c -0.037,0.8757 0.009,1.8524 0.12,2.9216 0.1102,1.0693 0.3686,2.1478 0.7738,3.2258 0.4056,1.0785 1.0234,2.0741 1.862,2.9772 0.8294,0.9127 1.9538,1.6406 3.3731,2.1936 1.4105,0.5529 3.1892,0.8293 5.3184,0.8479 2.8295,-0.009 5.1337,-0.5344 6.9124,-1.5759 1.7792,-1.0415 3.0786,-2.5349 3.908,-4.4794 0.8298,-1.9449 1.2443,-4.2765 1.235,-6.9957 0.0278,-2.12 -0.2302,-3.8987 -0.7558,-5.3365 -0.5344,-1.4379 -1.2716,-2.553 -2.2213,-3.3365 -0.9582,-0.7835 -2.0459,-1.2443 -3.2717,-1.3916 v -0.1106 c 1.0044,-0.1658 1.8523,-0.5256 2.553,-1.0878 0.6913,-0.5622 1.2535,-1.2624 1.6684,-2.0829 0.4237,-0.8202 0.728,-1.6958 0.9215,-2.6359 0.1844,-0.9308 0.2765,-1.8527 0.2765,-2.765 0.009,-2.2029 -0.3964,-4.1015 -1.1892,-5.6959 -0.8016,-1.5856 -2.0366,-2.8113 -3.7051,-3.6778 -1.6587,-0.8571 -3.7972,-1.2901 -6.3872,-1.2994 -2.6359,0.009 -4.7743,0.4978 -6.4331,1.4745 -1.6592,0.9771 -2.8572,2.3779 -3.5856,4.2029 -0.7373,1.825 -1.023,4.0278 -0.8753,6.5993 h 7.2444 v -2.9308 c 0.0459,-0.8757 0.2672,-1.5485 0.6544,-2.0278 0.3871,-0.4701 0.8479,-0.8021 1.4008,-0.9771 0.5529,-0.1843 1.1058,-0.2672 1.6499,-0.258 1.2717,-0.009 2.2029,0.3779 2.8109,1.1429 0.5993,0.7558 0.9035,1.9264 0.8942,3.5023 0.009,0.6914 -0.037,1.355 -0.1477,2.0093 -0.1102,0.6451 -0.3315,1.235 -0.6816,1.7699 -0.3413,0.5344 -0.8572,0.9674 -1.5486,1.3086 -0.4978,0.2121 -1.0229,0.3594 -1.567,0.4238 -0.5437,0.074 -1.0966,0.1106 -1.6588,0.1291 -0.5533,0.009 -1.1063,0.0278 -1.6407,0.0552 z"
         style="fill:#ffffff;fill-rule:evenodd"
         id="path23"
         inkscape:connector-curvature="0" />
      <path
         d="m 326.6743,453.9603 h 16.5352 c -0.47,0.7099 -0.9401,1.4934 -1.4101,2.3506 -0.47,0.8479 -0.9127,1.705 -1.3364,2.5807 -0.4335,0.866 -0.8113,1.6866 -1.1614,2.4608 -0.3409,0.7743 -0.6266,1.4471 -0.8479,2.0093 -1.0785,2.7095 -2.0737,5.4561 -2.9957,8.2396 -0.9215,2.7743 -1.6958,5.5949 -2.3224,8.4428 -0.6269,2.848 -1.0507,5.733 -1.2628,8.6453 h 7.9632 c 0.1199,-2.553 0.3964,-5.0971 0.8205,-7.6408 0.433,-2.5437 0.9678,-5.0416 1.6129,-7.5116 0.8479,-3.4287 1.8894,-6.8295 3.1429,-10.1845 1.2536,-3.355 2.7836,-6.6545 4.5993,-9.89 v -5.5852 h -23.3373 z"
         style="fill:#ffffff;fill-rule:evenodd"
         id="path25"
         inkscape:connector-curvature="0" />
    </g>
    <g
       id="Layer1005">
      <path
         d="m 223.306,647.481 c -0.2827,0.3371 -0.6228,0.7616 -1.0212,1.2632 -0.3922,0.5062 -0.8324,1.0137 -1.3197,1.5229 -0.4776,0.5075 -0.9859,0.9447 -1.5249,1.312 -0.5285,0.3653 -1.0789,0.5748 -1.6352,0.6308 -0.5601,0.0614 -1.1105,-0.1119 -1.6655,-0.5138 -0.6733,-0.518 -1.1383,-1.0755 -1.3903,-1.6676 -0.2525,-0.5925 -0.3472,-1.1959 -0.2891,-1.8153 0.0576,-0.6194 0.2226,-1.2325 0.4843,-1.8376 0.2676,-0.6005 0.5811,-1.1753 0.9363,-1.7194 0.3593,-0.5495 0.7056,-1.044 1.0532,-1.4909 l 5.6071,-7.4123 c 0.3127,-0.4262 0.6905,-0.9253 1.132,-1.4963 0.4313,-0.5702 0.924,-1.1227 1.4753,-1.6668 0.5478,-0.5386 1.1407,-0.9771 1.7854,-1.3108 0.6392,-0.3387 1.3251,-0.4919 2.0467,-0.4591 0.7179,0.0383 1.472,0.3379 2.2547,0.9207 0.4822,0.3746 0.7948,0.7882 0.9211,1.2389 0.1321,0.4544 0.1393,0.9266 0.021,1.4159 -0.1123,0.4945 -0.2987,0.9881 -0.5605,1.4817 -0.2609,0.4931 -0.5352,0.9669 -0.8294,1.4172 -0.292,0.4603 -0.5483,0.8736 -0.778,1.251 l 4.9174,3.7199 c 0.2744,-0.3249 0.5243,-0.6683 0.7566,-1.0243 0.2323,-0.3568 0.4528,-0.722 0.6733,-1.0877 1.5413,-2.42 2.1342,-4.6607 1.7766,-6.7428 -0.3623,-2.0762 -1.6458,-3.9719 -3.852,-5.6968 -1.5902,-1.1933 -3.0524,-2.0008 -4.3902,-2.4052 -1.3385,-0.4153 -2.5891,-0.5025 -3.7476,-0.2677 -1.1584,0.2349 -2.2592,0.728 -3.32,1.4758 -1.0562,0.7418 -2.0922,1.6672 -3.1126,2.7814 -1.0264,1.1101 -2.0683,2.3388 -3.1371,3.6778 l -2.8845,3.8132 c -1.0941,1.4223 -2.0636,2.7903 -2.9224,4.1104 -0.8488,1.3196 -1.5107,2.6017 -1.9761,3.8469 -0.4654,1.2447 -0.6611,2.4784 -0.5841,3.6853 0.0825,1.2115 0.5054,2.4179 1.2835,3.623 0.7742,1.2115 1.9802,2.4318 3.6032,3.6685 1.3878,1.0411 2.7121,1.6971 3.9728,1.9693 1.2602,0.2715 2.4713,0.226 3.6184,-0.1296 1.153,-0.3518 2.2605,-0.9514 3.3137,-1.7888 1.0583,-0.8428 2.0825,-1.8515 3.0664,-3.0406 0.2062,-0.2361 0.4174,-0.4776 0.6328,-0.7259 0.2155,-0.2474 0.4263,-0.4894 0.6329,-0.7259 z"
         style="fill:#ffffff;fill-rule:evenodd"
         id="path28"
         inkscape:connector-curvature="0" />
      <path
         d="m 241.6611,670.6462 3.5536,-8.9251 3.3731,-2.5525 0.5866,14.4694 6.5594,2.6115 -0.9788,-20.9741 13.0021,-10.3095 -6.5589,-2.6114 -5.9336,4.9961 c -0.7276,0.6 -1.4758,1.2316 -2.2593,1.8902 -0.7759,0.6606 -1.5439,1.3406 -2.2866,2.0387 -0.7498,0.6956 -1.4433,1.3895 -2.0821,2.0888 l -0.0829,-0.0328 5.504,-13.8239 -5.8116,-2.314 -12.397,31.1346 z"
         style="fill:#ffffff;fill-rule:evenodd"
         id="path30"
         inkscape:connector-curvature="0" />
      <path
         d="m 271.2842,664.3532 c -0.2638,1.7749 -0.4447,3.4417 -0.5525,5.0134 -0.0993,1.5653 -0.0538,3.0078 0.1456,4.3215 0.1995,1.3146 0.6291,2.4873 1.2835,3.5044 0.6614,1.0179 1.6179,1.8662 2.8845,2.5403 1.2658,0.6813 2.9132,1.1606 4.9326,1.4509 2.0219,0.2765 3.7375,0.2689 5.1417,-0.0378 1.4033,-0.2996 2.5559,-0.8521 3.4724,-1.6487 0.9089,-0.7974 1.6444,-1.8069 2.1978,-3.0158 0.5529,-1.2081 0.9935,-2.5825 1.3293,-4.115 0.3286,-1.5405 0.6131,-3.1926 0.8474,-4.9717 l 0.6641,-4.7348 c 0.194,-1.7025 0.329,-3.3078 0.3905,-4.8181 0.069,-1.5094 -0.007,-2.8967 -0.2273,-4.1684 -0.2192,-1.2788 -0.648,-2.4069 -1.299,-3.3933 -0.6514,-0.9859 -1.596,-1.8102 -2.8277,-2.4641 -1.238,-0.6628 -2.8425,-1.1282 -4.8101,-1.4118 -1.9702,-0.2689 -3.6407,-0.2626 -5.0058,0.0349 -1.3718,0.2887 -2.5067,0.821 -3.4042,1.5902 -0.8972,0.7688 -1.6197,1.7354 -2.1823,2.9047 -0.5617,1.1623 -1.0162,2.4747 -1.3654,3.945 -0.3565,1.469 -0.6683,3.0495 -0.9506,4.7394 z m 7.2289,-5.2128 c 0.0656,-0.5243 0.1527,-1.1441 0.2605,-1.8582 0.0993,-0.7078 0.2608,-1.4303 0.478,-2.1739 0.2163,-0.7372 0.5209,-1.4088 0.9215,-2.0139 0.3935,-0.6068 0.9182,-1.0747 1.5645,-1.3974 0.646,-0.3156 1.4509,-0.4208 2.4179,-0.2929 0.9131,0.1359 1.6281,0.454 2.1452,0.9476 0.5189,0.4869 0.8858,1.0869 1.1021,1.7943 0.2167,0.7069 0.3375,1.4538 0.3631,2.239 0.0177,0.7848 -0.013,1.5397 -0.0934,2.2732 -0.0803,0.733 -0.162,1.3684 -0.2457,1.9133 l -1.1917,8.4959 c -0.0829,0.6421 -0.1927,1.3192 -0.3219,2.0227 -0.1359,0.7032 -0.3144,1.3844 -0.5483,2.0363 -0.2352,0.6589 -0.55,1.2388 -0.9434,1.7399 -0.3939,0.5012 -0.8976,0.8745 -1.5035,1.1202 -0.6136,0.2449 -1.36,0.3135 -2.2387,0.1974 -0.8399,-0.125 -1.5174,-0.3859 -2.0261,-0.7806 -0.5087,-0.3947 -0.8849,-0.8757 -1.1357,-1.445 -0.2512,-0.5694 -0.4052,-1.185 -0.4713,-1.841 -0.0585,-0.6552 -0.0644,-1.3099 -0.0185,-1.958 0.0467,-0.6547 0.1081,-1.2556 0.1944,-1.8149 z"
         style="fill:#ffffff;fill-rule:evenodd"
         id="path32"
         inkscape:connector-curvature="0" />
      <path
         d="m 337.9647,664.3498 c 0.3025,0.7225 0.6354,1.4387 1.004,2.1617 0.3724,0.7132 0.7524,1.3898 1.1458,2.0265 0.3901,0.6299 0.7705,1.1736 1.1425,1.6302 0.3716,0.457 0.712,0.7797 1.0158,0.9792 0.8908,0.5184 1.7669,0.8538 2.6283,0.9888 0.8576,0.1456 1.6836,0.1402 2.4713,0.005 0.7907,-0.1456 1.5195,-0.3846 2.1919,-0.7208 0.9207,-0.4406 1.7712,-0.9048 2.5719,-1.403 0.7945,-0.4948 1.4829,-1.0541 2.0619,-1.6844 0.5828,-0.6405 1.0032,-1.3756 1.275,-2.229 0.21,-0.7073 0.2832,-1.4063 0.234,-2.1027 -0.0497,-0.6964 -0.1826,-1.3772 -0.396,-2.0354 -0.2163,-0.6652 -0.4666,-1.2969 -0.7435,-1.899 -0.2836,-0.5992 -0.558,-1.1618 -0.8159,-1.6739 l -10.711,-21.9697 -5.623,2.7414 11.279,23.1345 c 0.2091,0.4115 0.3883,0.813 0.5407,1.2111 0.1557,0.3879 0.2419,0.7683 0.2651,1.1218 0.0198,0.3631 -0.0732,0.6985 -0.2702,1.0095 -0.199,0.3046 -0.5449,0.5811 -1.0372,0.8289 -0.4516,0.2121 -0.8589,0.2946 -1.2014,0.2378 -0.3488,-0.0534 -0.6539,-0.2028 -0.9148,-0.4486 -0.2542,-0.2491 -0.4839,-0.5512 -0.6699,-0.916 l -1.8212,-3.7354 z"
         style="fill:#ffffff;fill-rule:evenodd"
         id="path34"
         inkscape:connector-curvature="0" />
      <path
         d="m 386.4155,648.3668 -2.9208,-3.953 -9.1279,6.745 -6.1339,-8.3015 8.4088,-6.2134 -2.9212,-3.9534 -8.4088,6.2139 -5.0188,-6.7921 9.1279,-6.7445 -2.9212,-3.9534 -14.1589,10.4623 19.9163,26.9523 z"
         style="fill:#ffffff;fill-rule:evenodd"
         id="path36"
         inkscape:connector-curvature="0" />
      <path
         d="m 301.4718,648.2695 20.8905,-4.2041 6.6056,32.8238 -6.0999,1.2276 -5.6099,-27.8742 -8.6907,1.7489 5.6099,27.8742 -6.0999,1.2276 z"
         style="fill:#ffffff;fill-rule:evenodd"
         id="path38"
         inkscape:connector-curvature="0" />
    </g>
    <g
       id="Layer1006">
      <path
         d="m 298.4911,156.9334 c 0.01,-5.1418 -4.1877,-7.8877 -8.8222,-8.0365 v -1.9629 h -4.7542 v 1.9629 c -4.6317,0.1488 -8.4466,2.8993 -8.4466,7.7953 0,4.9448 3.7212,8.0488 8.4466,8.2377 v 2.1871 h 4.7542 v -2.1871 c 4.7252,-0.1883 8.812,-2.6314 8.8222,-7.9965 z m -5.0174,-0.0233 c 0,2.4978 -1.2157,4.1875 -3.8048,4.3032 v -8.712 c 2.6753,0.1035 3.8048,1.8049 3.8048,4.4088 z m -8.559,4.3032 c -2.6011,-0.117 -3.7713,-1.8122 -3.7767,-4.3032 -0.006,-2.5967 1.0976,-4.3053 3.7767,-4.4088 z"
         style="fill:#ffffff;fill-rule:evenodd"
         id="path41"
         inkscape:connector-curvature="0" />
      <path
         d="m 314.5806,171.4595 -5.5436,-0.3331 -0.4917,8.1855 -7.6017,-0.4567 0.4917,-8.1854 -5.5438,-0.3331 -1.3411,22.3242 5.5438,0.3331 0.5914,-9.8432 7.6016,0.4567 -0.5913,9.8431 5.5436,0.3331 z"
         style="fill:#ffffff;fill-rule:evenodd"
         id="path43"
         inkscape:connector-curvature="0" />
      <path
         d="m 341.498,177.3121 -5.6093,-1.2466 -10.6317,11.0454 -0.0919,-0.0204 2.8395,-12.7771 -5.2088,-1.1575 -4.8518,21.8318 4.9713,1.1048 11.3475,-12.2577 0.0921,0.0205 -3.1299,14.0838 5.4213,1.2048 z"
         style="fill:#ffffff;fill-rule:evenodd"
         id="path45"
         inkscape:connector-curvature="0" />
      <path
         d="m 407.7966,219.5698 -4.1947,-3.9272 -14.7726,4.0996 -0.0687,-0.0643 8.9454,-9.555 -3.8953,-3.6467 -15.2847,16.3262 3.7177,3.4804 16.0055,-4.7789 0.0688,0.0644 -9.8602,10.5322 4.0542,3.7955 z"
         style="fill:#ffffff;fill-rule:evenodd"
         id="path47"
         inkscape:connector-curvature="0" />
      <path
         d="m 388.8911,201.642 -5.5986,-3.5394 -11.3948,4.8271 5.4341,-8.5955 -4.6411,-2.9341 -11.9509,18.9035 4.6411,2.9342 3.977,-6.2907 1.9389,-0.5719 0.3932,10.8512 5.7563,3.6391 -0.7576,-14.6911 z"
         style="fill:#ffffff;fill-rule:evenodd"
         id="path49"
         inkscape:connector-curvature="0" />
      <path
         d="m 318.0607,147.1893 h -5.8398 l -6.2175,8.9658 v -8.9658 h -4.841 v 19.7179 h 4.841 v -6.5617 l 1.1755,-1.3397 5.4054,7.9014 h 6.0043 l -7.4861,-10.5914 z"
         style="fill:#ffffff;fill-rule:evenodd"
         id="path51"
         inkscape:connector-curvature="0" />
      <path
         d="m 350.5562,196.8294 c 1.452,0.6299 3.1072,1.0283 4.6555,1.3479 l -3.2602,7.4644 5.0895,2.2229 8.9515,-20.4948 -5.0895,-2.223 -4.02,9.2039 c -1.0685,0.128 -3.1815,-0.4152 -4.2666,-1.3652 -1.1985,-1.0496 -1.6237,-2.7472 -0.8315,-4.561 l 2.663,-6.097 -5.2892,-2.3101 -2.8122,6.4386 c -0.5737,1.3136 -0.8929,2.5016 -0.9615,3.5618 -0.0681,1.0553 0.0884,2.006 0.4759,2.8472 0.3861,0.8379 0.9763,1.5835 1.7714,2.2361 0.7937,0.6514 1.7715,1.2286 2.9239,1.7283 z"
         style="fill:#ffffff;fill-rule:evenodd"
         id="path53"
         inkscape:connector-curvature="0" />
      <path
         d="m 289.1289,170.6776 -18.4606,2.2165 0.498,4.1479 6.4576,-0.7754 2.1681,18.0571 5.5453,-0.6658 -2.168,-18.0571 6.4576,-0.7753 z"
         style="fill:#ffffff;fill-rule:evenodd"
         id="path55"
         inkscape:connector-curvature="0" />
      <path
         d="m 186.18,219.3859 15.2466,16.3618 4.0402,-3.7648 -5.0363,-5.4047 2.2421,-2.0893 c 3.2489,-3.0275 4.413,-7.7036 1.1948,-11.1572 -3.6139,-3.8782 -7.7482,-3.2075 -11.2701,0.0743 z m 6.7811,-0.8233 1.7826,-1.6611 c 1.5308,-1.4264 3.3542,-1.7992 5.1953,0.1766 1.6308,1.7501 0.9299,3.8107 -0.3828,5.0339 l -1.7596,1.6397 z"
         style="fill:#ffffff;fill-rule:evenodd"
         id="path57"
         inkscape:connector-curvature="0" />
      <path
         d="m 233.6979,209.81 -10.1359,-19.9357 14.2875,-7.2427 1.8533,3.6451 -9.3561,4.757 1.8811,3.6998 2.7319,-1.3889 c 5.1379,-2.6123 8.9411,-2.0873 11.0806,2.1207 2.4025,4.7254 -0.428,8.2871 -4.7176,10.468 z m 3.0562,-6.1738 2.259,-1.1485 c 1.8651,-0.9483 3.1949,-2.3173 2.1611,-4.4838 -1.0302,-2.1588 -3.2056,-1.72 -4.8027,-0.9081 l -2.3382,1.1889 z"
         style="fill:#ffffff;fill-rule:evenodd"
         id="path59"
         inkscape:connector-curvature="0" />
      <path
         d="m 212.4309,197.0335 -4.8676,3.3845 6.3149,22.8483 4.663,-3.2422 -1.4099,-4.8371 5.761,-4.0056 4.1708,2.9175 4.5873,-3.1896 z m 7.3673,11.407 -4.1586,2.8915 -2.1502,-7.556 z"
         style="fill:#ffffff;fill-rule:evenodd"
         id="path61"
         inkscape:connector-curvature="0" />
      <path
         d="m 256.424,175.7652 c -1.6309,0.383 -3.0525,0.9971 -4.2482,1.8436 -1.202,0.8426 -2.1548,1.8799 -2.8719,3.0991 -0.716,1.2246 -1.1666,2.597 -1.3519,4.1177 -0.18,1.5194 -0.0766,3.1504 0.3199,4.8858 0.4019,1.7124 1.0211,3.2025 1.8534,4.4769 0.8325,1.2742 1.8394,2.3039 3.0206,3.0889 1.1801,0.7799 2.4906,1.2879 3.9367,1.5227 1.441,0.2359 2.9737,0.1713 4.5968,-0.1992 1.6055,-0.3771 2.995,-0.9891 4.1806,-1.8333 1.1844,-0.8492 2.132,-1.8854 2.8431,-3.1086 0.7172,-1.2192 1.1637,-2.5855 1.3513,-4.0958 0.1877,-1.5106 0.0887,-3.1212 -0.3006,-4.8258 -0.4019,-1.7124 -1.0221,-3.2079 -1.8558,-4.4872 -0.8348,-1.2845 -1.8376,-2.3204 -3.0149,-3.1119 -1.1776,-0.7912 -2.4803,-1.3117 -3.9123,-1.5551 -1.432,-0.2434 -2.9492,-0.1824 -4.5468,0.1822 z m 0.895,4.1433 c 3.4298,-0.7941 5.6583,2.3927 6.5172,6.1021 0.8523,3.6807 0.6142,7.5834 -3.0894,8.4233 -3.7037,0.8399 -5.7243,-2.3982 -6.5999,-6.1797 -0.9155,-3.9541 -0.2577,-7.5515 3.1721,-8.3457 z"
         style="fill:#ffffff;fill-rule:evenodd"
         id="path63"
         inkscape:connector-curvature="0" />
    </g>
    <path
       d="m 269.4462,524.7999 v 19.0098 h 59.3759 c 8.0367,0 10.3734,-4.4095 10.514,-8.8472 0.1594,-5.0293 -2.7651,-10.1626 -10.514,-10.1626 z m -59.0426,63.7319 h 15.795 V 524.7999 H 209.939 v -26.0152 h 152.5501 c 13.3169,0 14.6907,8.0843 14.6907,17.3199 v 39.0397 c 0,8.8952 -3.2502,14.6807 -15.1115,14.6807 H 269.867 v 18.7068 h 17.1886 v 22.9519 h -76.652 z"
       style="fill:#ffffff;fill-rule:evenodd"
       id="path66"
       inkscape:connector-curvature="0" />
    <g
       id="Layer1007">
      <path
         d="m 298.0253,214.0682 c 42.6422,0 78.9909,26.3317 94.3065,63.5743 4.8945,11.9021 8.0323,24.9191 8.0323,38.5471 0,26.8164 -10.0281,51.8211 -27.0708,69.9655 -18.7192,19.9294 -45.8142,31.7204 -75.268,31.7204 -27.6248,0 -52.2581,-11.1185 -70.6681,-28.9739 -19.0901,-18.5151 -31.4533,-44.2841 -31.4533,-72.9296 0,-30.773 13.5453,-59.0058 35.1163,-77.6922 17.8733,-15.4828 41.5076,-24.2116 67.0051,-24.2116 z"
         style="fill:#26312c;fill-rule:evenodd"
         id="path68"
         inkscape:connector-curvature="0" />
      <g
         id="Layer1008">
        <path
           d="m 233.0398,245.9445 6.0913,9.6191 c -7.4257,10.7155 -12.5017,25.1947 -16.0298,42.4779 -6.305,7.2668 -12.4499,14.6939 -18.7549,21.9607 -1.4961,-0.3206 -2.5116,-0.6412 -4.0078,-0.9618 -0.6943,-4.1675 -1.0682,-9.136 -0.9615,-13.3035 2.6971,-17.2025 6.9381,-27.3024 12.8817,-37.8263 5.5833,-9.8864 17.6368,-24.7376 20.781,-21.9661 z"
           style="fill:#ffffff;fill-rule:evenodd"
           id="path70"
           inkscape:connector-curvature="0" />
        <path
           d="m 272.6428,241.131 c -1.6655,-1.1625 -3.4809,-0.73 -5.4465,-0.2177 -6.7699,1.7652 -15.0732,7.1378 -21.4653,12.0717 -3.0011,2.3166 -5.0052,4.9519 -6.7279,8.3298 -4.5808,8.9825 -8.3011,18.6583 -11.2132,29.7951 -0.6066,2.3192 0.3228,4.5397 1.6019,6.5677 5.1722,8.2016 11.9647,14.5837 18.7421,19.0625 2.0546,1.3577 4.2091,0.8166 5.927,-0.1602 8.9346,-5.0801 20.4589,-11.59 30.596,-16.3393 1.4761,-8.4214 5.0386,-18.1261 8.6903,-26.9117 1.4094,-3.3914 1.4282,-7.3576 -0.4005,-10.2521 -5.2512,-8.3108 -13.492,-17.1915 -20.3039,-21.9458 z"
           style="fill:#ffffff;fill-rule:evenodd"
           id="path72"
           inkscape:connector-curvature="0" />
        <path
           d="m 289.783,307.4491 c -2.4299,-1.4086 -5.8561,-2.0961 -8.9706,-0.9611 -10.3435,3.769 -20.3351,9.4272 -29.7951,15.0577 -1.8511,1.1018 -2.9716,2.8834 -3.5242,4.9659 -2.0324,7.6557 -2.4812,16.2676 -3.5241,23.7079 -0.3592,2.5619 0.6305,5.6441 2.4028,7.5289 6.1975,6.5901 15.0532,14.0983 24.629,19.0224 6.479,3.3315 12.1487,1.813 18.622,-0.4405 3.5579,-1.2387 9.1529,-4.3003 13.8563,-7.1685 2.3684,-1.4443 4.3284,-4.3477 4.9658,-7.0483 2.8123,-11.9092 4.3785,-26.1375 5.6867,-36.4029 -9.558,-8.8639 -15.5152,-13.1411 -24.3486,-18.2615 z"
           style="fill:#ffffff;fill-rule:evenodd"
           id="path74"
           inkscape:connector-curvature="0" />
        <path
           d="m 311.0881,365.5175 c 1.9222,-13.1354 4.3251,-26.0306 6.2473,-39.1661 4.555,-6.1838 18.0728,-15.2538 27.2948,-20.0636 1.5777,-0.8228 2.9583,-0.4473 3.942,0 11.3541,5.1623 24.6406,12.8044 30.7563,18.2615 0.2803,9.2509 -1.5022,19.4431 -3.0036,28.3534 -0.3356,1.9928 -0.8377,2.7924 -2.2827,4.2049 -7.847,7.6702 -19.4433,15.8572 -30.3958,22.3464 -1.2227,0.7245 -3.1815,1.1648 -4.5654,0.841 -10.6889,-2.5028 -20.184,-8.3799 -27.9929,-14.7775 z"
           style="fill:#ffffff;fill-rule:evenodd"
           id="path76"
           inkscape:connector-curvature="0" />
        <path
           d="m 351.3411,240.7009 c -4.892,6.2866 -11.3829,15.8182 -14.1823,20.7741 -0.6601,1.1689 -1.1364,3.2886 -0.7209,4.5653 3.7188,11.4228 7.7209,22.8241 11.1732,34.2404 0.4109,1.359 1.549,2.5077 2.7633,3.2438 10.1473,6.1531 20.2638,11.2933 30.6361,17.0601 5.757,-5.1241 9.4611,-12.8538 13.8162,-20.9046 0.1981,-9.745 -7.3401,-28.9413 -14.2367,-39.0463 -6.2685,-9.1843 -14.688,-18.8992 -25.1024,-20.8127 -2.076,-0.3814 -2.8619,-0.7707 -4.1465,0.8799 z"
           style="fill:#ffffff;fill-rule:evenodd"
           id="path78"
           inkscape:connector-curvature="0" />
        <path
           d="m 333.1941,260.9944 c 4.9659,-6.0071 10.6208,-13.3096 14.5371,-21.3852 2.027,-4.1801 -3.8131,-9.5201 -7.5689,-12.2544 -11.6056,-8.4493 -36.8014,-10.4961 -42.1697,-10.3322 -3.9244,0.1199 -7.2248,1.2034 -9.9717,3.3639 -4.6466,3.6544 -10.2036,9.9317 -11.6538,14.417 -0.5423,1.6772 -0.573,3.5126 0.4806,4.9258 1.5686,2.1038 6.0395,7.1652 9.9585,11.7389 4.5834,5.3487 9.2483,10.5689 12.508,11.929 11.3734,-0.9211 22.5065,-1.4817 33.8799,-2.4028 z"
           style="fill:#ffffff;fill-rule:evenodd"
           id="path80"
           inkscape:connector-curvature="0" />
        <path
           d="m 221.102,364.5564 c -0.0801,3.6844 -0.04,7.8493 -0.1201,11.5336 2.4722,5.3641 6.6731,9.4178 9.9861,12.6253 9.2011,8.9077 19.2394,13.6193 28.0988,17.8907 7.3251,3.5317 13.2155,2.1225 22.106,-1.2015 -0.3001,-5.9267 -2.5027,-14.0163 -5.0459,-21.8657 -11.7891,-6.7978 -21.1706,-14.6993 -31.4771,-23.1873 -1.6378,-1.3488 -3.9318,-1.4041 -6.0071,-0.9612 -5.6865,1.2136 -11.9741,3.4841 -17.5407,5.1661 z"
           style="fill:#ffffff;fill-rule:evenodd"
           id="path82"
           inkscape:connector-curvature="0" />
        <path
           d="m 200.5578,322.1464 3.4615,0.6007 c 1.3065,17.1751 7.8627,30.1693 14.6799,43.1309 -0.0401,2.6431 -0.2002,5.7668 -0.2403,8.4099 -5.796,-8.9948 -10.0264,-15.1614 -12.9059,-22.885 -3.4754,-9.3221 -6.426,-19.3491 -4.9952,-29.2565 z"
           style="fill:#ffffff;fill-rule:evenodd"
           id="path84"
           inkscape:connector-curvature="0" />
        <path
           d="m 378.968,358.309 c -5.7537,4.0209 -11.4898,7.9588 -16.9255,11.8399 -5.3302,3.8051 -10.3971,7.6137 -16.1378,10.8199 -1.5285,0.8536 -3.0908,1.6036 -4.1884,2.7093 -2.455,2.4724 -5.1301,5.2166 -8.0371,8.8589 -3.0943,3.8772 -6.0005,7.7223 -8.5346,11.9064 -0.4886,0.8068 1.8968,3.1428 4.3465,3.6267 2.008,0.3965 5.2022,0.025 8.1482,-1.1037 12.4423,-5.8273 23.1639,-12.6808 31.6547,-20.8637 7.9764,-7.6869 14.3454,-15.3459 17.6034,-26.8325 -2.6431,-0.5206 -5.2862,-1.0813 -7.9294,-0.9612 z"
           style="fill:#ffffff;fill-rule:evenodd"
           id="path86"
           inkscape:connector-curvature="0" />
        <path
           d="m 277.9666,412.4703 c 4.7363,1.3413 14.0849,2.3706 19.093,2.5549 8.2934,0.3054 16.2698,-0.846 24.6357,-2.8444 2.0599,-0.4921 2.5295,-1.4737 0.7945,-1.9501 -6.5904,-1.8093 -15.2868,-2.8599 -22.8152,-3.024 -7.7141,-0.1681 -15.3859,1.1615 -22.0971,2.5948 -3.1124,0.6647 -2.1647,1.9455 0.3891,2.6688 z"
           style="fill:#ffffff;fill-rule:evenodd"
           id="path88"
           inkscape:connector-curvature="0" />
      </g>
    </g>
  </g>
</svg>
