<?xml version="1.0" encoding="UTF-8" standalone="no"?>
<!-- Created with sK1/UniConvertor (http://sk1project.org/) -->

<svg
   xmlns:dc="http://purl.org/dc/elements/1.1/"
   xmlns:cc="http://creativecommons.org/ns#"
   xmlns:rdf="http://www.w3.org/1999/02/22-rdf-syntax-ns#"
   xmlns:svg="http://www.w3.org/2000/svg"
   xmlns="http://www.w3.org/2000/svg"
   xmlns:sodipodi="http://sodipodi.sourceforge.net/DTD/sodipodi-0.dtd"
   xmlns:inkscape="http://www.inkscape.org/namespaces/inkscape"
   width="189.5pt"
   height="144.73503pt"
   viewBox="0 0 189.5 144.73503"
   version="1.1"
   id="svg262"
   sodipodi:docname="suduva.svg"
   style="fill-rule:evenodd"
   inkscape:version="0.92.4 (5da689c313, 2019-01-14)">
  <metadata
     id="metadata268">
    <rdf:RDF>
      <cc:Work
         rdf:about="">
        <dc:format>image/svg+xml</dc:format>
        <dc:type
           rdf:resource="http://purl.org/dc/dcmitype/StillImage" />
        <dc:title />
      </cc:Work>
    </rdf:RDF>
  </metadata>
  <defs
     id="defs266" />
  <sodipodi:namedview
     pagecolor="#ffffff"
     bordercolor="#666666"
     borderopacity="1"
     objecttolerance="10"
     gridtolerance="10"
     guidetolerance="10"
     inkscape:pageopacity="0"
     inkscape:pageshadow="2"
     inkscape:window-width="1366"
     inkscape:window-height="705"
     id="namedview264"
     showgrid="false"
     fit-margin-top="1"
     fit-margin-bottom="1"
     fit-margin-right="1"
     fit-margin-left="1"
     inkscape:zoom="1.6819299"
     inkscape:cx="304.1675"
     inkscape:cy="124.4361"
     inkscape:window-x="-8"
     inkscape:window-y="-8"
     inkscape:window-maximized="1"
     inkscape:current-layer="svg262" />
  <g
     id="g528">
    <path
       style="fill:#1f211d;stroke:none;stroke-width:0.3268671"
       d="m 68.196556,9.3419757 c -1.949762,0 -3.878932,0.087927 -5.786528,0.2507071 C 56.502231,4.2529817 48.672783,1.0000002 40.083043,1.0000002 c -18.396735,0 -33.3119427,14.9139658 -33.3119427,33.3116808 0,3.876644 0.6692277,7.595084 1.8865135,11.055299 -4.8880034,9.317021 -7.65761382,19.919936 -7.65761382,31.171356 0,37.111834 30.08537202,67.196684 67.19655602,67.196684 37.111834,0 67.196684,-30.08485 67.196684,-67.196684 0,-37.111512 -30.08485,-67.1963603 -67.196684,-67.1963603 z"
       id="path2"
       inkscape:connector-curvature="0" />
    <path
       style="fill-opacity:1;stroke:none;stroke-opacity:1;opacity:1;paint-order:markers stroke fill;fill:#ff0000"
       d="m 177.5555,113.87506 c -0.82109,0.24744 -1.19731,0.37622 -1.31596,0.37622 h -0.50469 l -2.05828,0.0592 -0.12846,0.25234 2.18674,0.0644 h 0.25725 c 0.17814,0 0.36609,0 0.55437,0.12356 0.3164,0.12388 0.50468,0.18794 0.69263,0.24743 0.43538,0.18795 0.75179,0.25234 0.94007,0.25234 l 6.56055,0.24744 0.37589,-2.18674 -6.31311,0.25202 c -0.43538,0.0595 -0.88058,0.18795 -1.247,0.31183 z"
       id="path4"
       inkscape:connector-curvature="0" />
    <path
       style="fill-opacity:1;stroke:none;stroke-opacity:1;opacity:1;paint-order:markers stroke fill;fill:#ff0000"
       d="m 162.22772,113.68711 -0.62333,0.18795 -0.94007,0.31183 c -0.18828,0.0644 -0.31673,0.0644 -0.37622,0.0644 h -0.50469 l -2.05795,0.0592 -0.12879,0.31673 h 2.37469 c 0.25757,0.0595 0.62366,0.18304 1.18751,0.43539 0.12879,0.0641 0.31673,0.12355 0.44552,0.12355 0.3066,0.12879 0.62333,0.18795 0.81128,0.18795 l 5.93722,0.25267 1.75135,-2.31553 -7.12439,0.25202 c -0.25725,0 -0.50469,0.0595 -0.75213,0.12388 z"
       id="path6"
       inkscape:connector-curvature="0" />
    <path
       style="fill-opacity:1;stroke:none;stroke-opacity:1;opacity:1;paint-order:markers stroke fill;fill:#ff0000"
       d="m 177.05115,116.12619 -0.88091,0.31183 c -0.11865,0.0641 -0.24744,0.0641 -0.3066,0.0641 h -0.12879 l -2.62212,0.12388 -0.12879,0.18828 2.56297,0.0641 c 0.0693,0.0592 0.12845,0.0592 0.18794,0.0592 0.12879,0 0.25725,0.0647 0.25725,0.0647 l 1.18751,0.43538 c 0.37589,0.12846 0.81128,0.18795 1.43494,0.18795 h 5.81824 l 0.30693,-1.99879 -6.3726,0.24744 c -0.31674,0 -0.81162,0.12846 -1.31597,0.25201 z"
       id="path8"
       inkscape:connector-curvature="0" />
    <path
       style="fill-opacity:1;stroke:none;stroke-opacity:1;opacity:1;paint-order:markers stroke fill;fill:#ff0000"
       d="m 168.16494,108.99689 h -1.05872 c -0.50469,0 -0.99956,0.0592 -1.37546,0.18795 l -0.31673,0.12356 -1.24668,0.31183 c -0.0693,0.0641 -0.0693,0.0641 -0.12878,0.0641 h -2.50348 l -0.11898,0.31184 h 0.18828 l 2.37469,0.0641 1.12834,0.37132 c 0.3759,0.18795 0.6825,0.25234 0.99924,0.25234 0.18795,0 0.93026,0.0644 2.31552,0.0644 l 7.31267,0.0595 9.75699,0.12846 0.37589,-2.19197 -10.13288,0.12388 z"
       id="path10"
       inkscape:connector-curvature="0" />
    <path
       style="fill-opacity:1;stroke:none;stroke-opacity:1;opacity:1;paint-order:markers stroke fill;fill:#ff0000"
       d="m 163.22728,111.68309 c -0.56417,0.25267 -0.94007,0.31183 -1.12834,0.31183 l -0.49455,0.0644 h -2.00893 l -0.11865,0.25234 h 0.3066 l 1.82098,0.0641 h 0.43539 c 0.11865,0 0.24743,0.0595 0.43538,0.12388 0.88058,0.371 1.56341,0.56417 2.06809,0.56417 l 5.63061,0.24744 1.93931,-2.37501 -7.51043,0.43538 c -0.31673,0 -0.75212,0.12356 -1.37546,0.31151 z"
       id="path12"
       inkscape:connector-curvature="0" />
    <path
       style="fill-opacity:1;stroke:none;stroke-opacity:1;opacity:1;paint-order:markers stroke fill;fill:#ff0000"
       d="m 160.91143,115.87418 c -0.31641,0.0641 -0.6825,0.12846 -1.12802,0.25201 h -0.0592 c -0.75212,0.24744 -1.18751,0.3759 -1.31629,0.3759 l -2.31553,0.0595 -0.3066,0.0644 -0.12879,0.25234 h 0.43539 l 2.06841,0.0592 c 0.18795,0 0.43539,0.0647 0.62334,0.12878 0.3759,0.18795 0.69263,0.24744 0.99923,0.37132 0.44552,0.12846 0.75212,0.18795 0.99956,0.18795 h 5.88786 l 1.62289,-1.99879 -6.68933,0.24744 z"
       id="path14"
       inkscape:connector-curvature="0" />
    <path
       style="fill-opacity:1;stroke:none;stroke-opacity:1;opacity:1;paint-order:markers stroke fill;fill:#ff0000"
       d="m 178.36712,111.49514 -1.18751,0.3759 c -0.12846,0.0647 -0.31674,0.12388 -0.50469,0.12388 h -0.94007 l -1.5634,0.0644 -0.11865,0.18795 1.68205,0.0644 h 0.81162 c 0.25724,0 0.63314,0.12356 1.12801,0.371 0.50469,0.18795 0.94007,0.31673 1.18719,0.31673 l 6.25394,0.24744 0.37623,-2.18707 -6.18465,0.24744 c -0.25725,0 -0.56418,0.0644 -0.94007,0.18795 z"
       id="path16"
       inkscape:connector-curvature="0" />
    <path
       style="fill-opacity:1;stroke:none;stroke-opacity:1;opacity:1;paint-order:markers stroke fill;fill:#ff0000"
       d="m 175.9228,97.988009 -0.18795,0.05949 -0.49455,0.128459 c -0.56417,0.05949 -0.94039,0.183372 -1.12834,0.247438 -0.18795,0.06439 -0.3759,0.123883 -0.56385,0.123883 l -2.56296,0.06407 -0.18795,0.252668 2.24623,0.123229 c 0.3759,0 0.63314,0 0.82142,0.05949 l 1.18718,0.440616 c 0.24744,0.06407 0.43539,0.06407 0.68282,0.123556 0.56418,0 1.12802,0.06439 1.63271,0.06439 l 0.13891,0.0026 -1.77162,0.120941 -1.50391,0.06439 c -0.17814,0 -0.49488,0.05949 -0.87077,0.187941 l -0.37623,0.12356 c -0.87077,0.31183 -1.31597,0.43539 -1.37546,0.43539 l -2.50347,0.0647 -0.11865,0.3164 2.37469,0.0595 c 0.18827,0 0.56417,0.12356 1.24699,0.44029 0.50469,0.18795 1.06853,0.371 1.75136,0.371 l 1.37545,0.0644 3.6315,0.12388 0.62366,-0.93549 c 0.18795,0.0595 0.31673,0.12388 0.3759,0.12388 0.43538,0.25234 0.75212,0.44029 0.94007,0.44029 0.11865,0.0592 0.49487,0.0592 0.99956,0.12389 l 4.7497,0.24743 0.3759,-2.187061 -4.93765,0.123555 c -0.3759,0 -0.62334,0 -0.81129,0.06439 h -0.56417 c -0.12879,0.0644 -0.24744,0.0644 -0.31674,0.0644 l 0.23339,-0.371974 6.39646,0.119634 0.31673,-2.251461 -10.885,0.247438 c -0.3164,0 -0.62333,0.06472 -0.94007,0.128786 z"
       id="path18"
       inkscape:connector-curvature="0" />
    <path
       style="fill-opacity:1;stroke:none;stroke-opacity:1;opacity:1;paint-order:markers stroke fill;fill:#ff0000"
       d="m 177.05115,95.984314 c -0.56417,0.123555 -0.99956,0.252014 -1.3163,0.311504 h -0.43538 l -2.44399,0.128786 -0.11898,0.247111 2.31553,0.06472 c 0.24744,0.05916 0.49488,0.05916 0.68282,0.123556 0,0 0.0693,0 0.12879,0 l 1.12802,0.44029 c 0.24744,0.05949 0.99923,0.123555 2.24623,0.183045 l 8.56947,0.128459 0.31641,-2.191644 -9.45005,0.252341 c -0.3759,0 -0.87078,0.05949 -1.62257,0.311832 z"
       id="path20"
       inkscape:connector-curvature="0" />
    <path
       style="fill-opacity:1;stroke:none;stroke-opacity:1;opacity:1;paint-order:markers stroke fill;fill:#ff0000"
       d="m 180.49469,92.857503 c -0.63347,0 -1.12834,0.06407 -1.50424,0.187948 l -1.31597,0.499453 h -0.37622 l -1.56341,0.06439 h -0.94007 l -0.11865,0.311505 h 1.05872 l 1.25681,0.05949 c 0.3066,0 0.56384,0.06439 0.87077,0.187949 l 0.94007,0.316734 c 0.18795,0.123883 0.56385,0.183373 0.99956,0.183373 l 8.3812,0.187948 0.31674,-1.998792 z"
       id="path22"
       inkscape:connector-curvature="0" />
    <path
       style="fill-opacity:1;stroke:none;stroke-opacity:1;opacity:1;paint-order:markers stroke fill;fill:#ff0000"
       d="m 180.17796,104.61785 -1.12802,0.31184 c -0.37622,0.12355 -0.94007,0.18794 -1.68238,0.18794 h -0.63315 l 0.7518,-0.81651 -1.75136,0.0647 -5.31387,0.12846 c -0.3759,0.0595 -0.88058,0.12355 -1.43462,0.3115 -0.63347,0.24744 -0.94007,0.31183 -1.12835,0.31183 l -2.56264,0.0644 -0.12878,0.24744 2.56296,0.0644 c 0.62334,0.18795 1.12802,0.3759 1.50392,0.49945 0.18827,0.12388 0.30693,0.12388 0.43571,0.12388 l 5.94702,0.44029 0.11865,-0.12878 0.75213,-0.99923 h 0.99923 c 0.50468,0 1.31629,0.25234 2.31585,0.68772 0.24711,0.0641 0.43506,0.12356 0.56385,0.12356 l 5.87805,0.25234 0.3759,-2.19197 -5.74927,0.25267 c -0.25724,0 -0.50468,0.0641 -0.69263,0.0641 z"
       id="path24"
       inkscape:connector-curvature="0" />
    <path
       style="fill-opacity:1;stroke:none;stroke-opacity:1;opacity:1;paint-order:markers stroke fill;fill:#ff0000"
       d="m 168.72878,106.8046 c -0.3066,0 -0.62333,0 -0.87077,0.0647 l -1.50391,0.43538 c -0.18795,0.12846 -0.56418,0.12846 -1.05873,0.12846 l -1.88014,0.0595 -0.18795,0.31151 2.56264,0.0644 c 0.18828,0 0.31674,0 0.50469,0.12355 0.87077,0.31184 1.75168,0.50469 2.62245,0.50469 l 6.81779,0.12388 10.13288,0.12356 0.37623,-2.25114 -10.50911,0.18828 z"
       id="path26"
       inkscape:connector-curvature="0" />
    <path
       style="fill-opacity:1;stroke:none;stroke-opacity:1;opacity:1;paint-order:markers stroke fill;fill:#ff0000"
       d="m 180.49469,102.42621 c -0.8809,0.25202 -1.44475,0.31151 -1.88014,0.3759 l 0.69264,-0.7518 -3.57234,0.12846 -3.37424,0.12356 c -0.3759,0.0644 -0.62334,0.12388 -0.75213,0.12388 l -1.50424,0.49945 c -0.18795,0 -0.3066,0.0647 -0.43506,0.0647 l -2.5038,0.0641 -0.12846,0.24744 2.57277,0.0644 c 0.24744,0 0.62334,0.12356 1.18751,0.3759 0.43539,0.24744 0.75212,0.31183 0.99923,0.31183 l 3.93842,0.18795 1.82065,0.0592 0.74232,-1.12279 c 0.44519,0 0.69263,0.0641 0.75212,0.12356 l 1.2568,0.50468 c 0.24712,0.12388 0.56385,0.18305 0.87078,0.18305 l 5.44234,0.3115 0.37589,-2.25081 -5.50182,0.18795 c -0.25725,0 -0.56385,0.0641 -0.99924,0.18795 z"
       id="path28"
       inkscape:connector-curvature="0" />
    <path
       style="fill-opacity:1;stroke:none;stroke-opacity:1;opacity:1;paint-order:markers stroke fill;fill:#ff0000"
       d="m 117.2531,103.17833 0.0595,-0.18795 h 0.0592 l 0.36903,-0.009 c 0.0719,-0.37164 0.13467,-0.76683 0.19514,-1.17802 h -0.56417 l -0.62333,0.0592 h -0.94007 l -0.99924,0.0644 h -1.05905 l -2.25603,0.12388 c -0.49488,0.0641 -0.87078,0.12846 -1.18751,0.25202 -0.87078,0.31183 -1.37546,0.43539 -1.50392,0.43539 l -2.56296,0.0644 -0.11865,0.25234 2.56263,0.0595 c 0.18795,0.0644 0.37623,0.0644 0.56418,0.12846 0.75212,0.31183 1.37545,0.49978 1.81084,0.56417 l 2.69142,0.0592 1.05905,0.0647 h 0.99924 l 0.94007,0.0592 h 0.75212 c 0.0745,-0.24744 0.13794,-0.51907 0.19677,-0.80246 l -0.32556,-0.009 z"
       id="path30"
       inkscape:connector-curvature="0" />
    <path
       style="fill-opacity:1;stroke:none;stroke-opacity:1;opacity:1;paint-order:markers stroke fill;fill:#ff0000"
       d="m 117.37175,104.61785 c 0,-0.12355 0.0693,-0.31673 0.0693,-0.50468 h -0.69263 l -0.94007,0.0644 -0.99924,0.0644 h -1.05905 l -2.87937,0.12388 c -0.24744,0 -0.75212,0.12846 -1.37546,0.3115 -0.69263,0.25235 -1.05872,0.3759 -1.1875,0.3759 l -2.56297,0.0644 -0.18795,0.24744 2.50348,0.0644 c 0.11865,0 0.30693,0 0.43539,0.0644 l 1.1875,0.43539 c 0.3759,0.12355 0.94007,0.18794 1.69219,0.25201 l 2.37469,0.0595 h 2.05829 l 0.8809,0.0644 c 0.0592,-0.0644 0.0592,-0.12388 0.0592,-0.18795 0.0693,-0.0644 0.12878,-0.18794 0.12878,-0.24743 l 0.135,-0.3759 h -0.26378 l -0.68283,-0.0644 0.11898,-0.18828 0.56385,-0.0592 h 0.37622 l 0.12846,-0.31674 c 0.0595,-0.0595 0.0595,-0.18795 0.11865,-0.24744 z"
       id="path32"
       inkscape:connector-curvature="0" />
    <path
       style="fill-opacity:1;stroke:none;stroke-opacity:1;opacity:1;paint-order:markers stroke fill;fill:#ff0000"
       d="m 128.63298,101.92643 -6.12549,0.25234 c -0.3759,0.0595 -0.81129,0.12356 -1.37546,0.31151 -0.50468,0.18795 -0.94007,0.31183 -1.25648,0.43538 l -2.13477,0.0552 c -0.0134,0.0713 -0.0291,0.13696 -0.0435,0.20626 l 1.98997,0.0552 c 0.0693,0 0.0693,0.0595 0.12878,0.0595 l 0.43539,0.12388 1.12802,0.43996 c 0.0595,0 0.31673,0 0.62333,0.0647 l 5.57113,0.24711 z"
       id="path34"
       inkscape:connector-curvature="0" />
    <path
       style="fill-opacity:1;stroke:none;stroke-opacity:1;opacity:1;paint-order:markers stroke fill;fill:#ff0000"
       d="m 99.609793,94.044684 1.315967,0.44029 c 0.12879,0.05949 0.31673,0.05949 0.62334,0.123883 l 12.20096,0.123556 h 1.05905 l 0.99924,0.06439 h 0.18794 c -0.0592,-0.128458 -0.11865,-0.187948 -0.18794,-0.252341 -0.30661,-0.247438 -0.62334,-0.49978 -0.99924,-0.746891 -0.30692,-0.188276 -0.68282,-0.316735 -1.05905,-0.504683 -0.81128,-0.247439 -1.75135,-0.435387 -2.82021,-0.435387 l -8.56914,0.06407 c -0.55437,0 -1.05905,0.05949 -1.6229,0.247438 -0.940069,0.252342 -1.687287,0.44029 -2.315525,0.44029 h -1.622896 l -0.128785,0.247439 2.444312,0.06407 c 0.118653,0 0.306601,0.05949 0.494877,0.123882 z"
       id="path36"
       inkscape:connector-curvature="0" />
    <path
       style="fill-opacity:1;stroke:none;stroke-opacity:1;opacity:1;paint-order:markers stroke fill;fill:#ff0000"
       d="m 94.483863,103.17833 h 0.05949 c 0.187948,0 0.375897,0 0.563845,0.0641 l 1.063626,0.43538 c 0.375897,0.12879 0.876004,0.18795 1.499339,0.18795 l 4.878487,0.24744 c 0.3759,-0.81128 0.69264,-1.37545 0.82142,-1.74645 l 0.3066,-0.56384 -6.253945,0.24743 c -0.316734,0 -0.752121,0.12846 -1.251901,0.31641 -0.628239,0.24744 -1.123116,0.371 -1.499013,0.371 h -0.187948 l -1.128019,0.0644 h -1.128018 l -0.05949,0.25234 1.187508,0.0595 z"
       id="path38"
       inkscape:connector-curvature="0" />
    <path
       style="fill-opacity:1;stroke:none;stroke-opacity:1;opacity:1;paint-order:markers stroke fill;fill:#ff0000"
       d="m 104.86418,99.422956 -6.501385,0.375897 c -0.252342,0.06439 -0.504683,0.06439 -0.752122,0.187948 l -1.251901,0.375899 c -0.187948,0.0647 -0.687401,0.12388 -1.563078,0.12388 h -0.311831 l -1.128019,0.0644 v 0.0592 l -0.05949,0.19318 h 1.187509 l 0.811284,0.0595 c 0.376224,0 0.687728,0 0.94007,0.12845 l 1.128345,0.43539 0.49455,0.0644 c 0.128786,0.0592 0.187948,0.0592 0.187948,0.0592 l 5.44266,0.25267 h 0.18795 0.0595 z"
       id="path40"
       inkscape:connector-curvature="0" />
    <path
       style="fill-opacity:1;stroke:none;stroke-opacity:1;opacity:1;paint-order:markers stroke fill;fill:#ff0000"
       d="m 97.486791,98.675737 0.999559,0.370995 c 0.375898,0.128785 0.628566,0.187948 0.687729,0.187948 l 14.575981,0.128786 h 2.99836 l 0.62333,0.05949 h 0.63347 c 0,-0.687729 -0.18795,-1.434947 -0.44519,-2.187068 h -0.11898 c -0.0693,-0.123556 -0.0693,-0.187949 -0.0693,-0.252015 -0.18795,-0.435387 -0.36609,-0.811611 -0.62333,-1.123442 -0.18795,-0.316734 -0.3759,-0.564173 -0.62334,-0.816187 h -2.37502 l -12.63635,0.187948 c -0.24744,0 -0.43539,0.06407 -0.56385,0.06407 l -0.43571,0.06472 -1.563407,0.435387 c -0.187948,0 -0.316407,0.06407 -0.375897,0.06407 h -2.503475 l -0.128786,0.311831 2.567868,0.123556 c 0.187949,0 0.311832,0 0.49978,0.128786 0.94007,0.370994 1.627797,0.559269 2.186737,0.559269 l 12.95309,0.187949 h 2.05829 l 0.94007,0.06407 h -1.93931 l -1.05905,0.06439 -13.63591,0.183045 c -0.440291,0 -0.811286,0.06439 -1.251902,0.187949 l -1.439523,0.440617 c -0.187949,0.06407 -0.316734,0.06407 -0.375897,0.06407 l -2.503475,0.05949 -0.05949,0.06439 -0.06439,0.187949 h 1.875236 c 0.564173,0 0.94007,0.05949 1.192085,0.187948 z"
       id="path42"
       inkscape:connector-curvature="0" />
    <path
       style="fill-opacity:1;stroke:none;stroke-opacity:1;opacity:1;paint-order:markers stroke fill;fill:#ff0000"
       d="m 110.30652,101.30277 c 0.25724,0.12388 0.43539,0.18827 0.69263,0.18827 l 2.75091,0.0592 1.05905,0.0647 h 0.99924 l 0.94007,0.0641 h 1.1875 c 0.0693,-0.56417 0.0693,-1.00413 0.0693,-1.19241 l -0.0693,-0.999232 -0.56417,0.06407 h -0.62333 l -0.94007,0.05949 h -0.99924 l -1.05905,0.06439 -2.06808,0.05949 c -0.43539,0 -0.81129,0.128459 -1.24668,0.252014 -0.99956,0.311828 -1.50424,0.440618 -1.56373,0.440618 l -2.50347,0.0592 -0.12846,0.25234 2.25604,0.0644 c 0.24743,0 0.37589,0.0595 0.49487,0.0595 z"
       id="path44"
       inkscape:connector-curvature="0" />
    <path
       style="fill-opacity:1;stroke:none;stroke-opacity:1;opacity:1;paint-order:markers stroke fill;fill:#ff0000"
       d="m 118.00522,105.49386 c 0.43539,0 0.94007,0.12355 1.6229,0.3759 0.62333,0.24743 1.12801,0.37099 1.5634,0.37099 l 5.25439,0.25234 1.06885,-2.31553 -6.13529,0.18828 c -0.31674,0 -0.62334,0.0641 -0.94007,0.18795 l -1.24667,0.43996 c -0.24744,0.12388 -0.69263,0.18828 -1.25681,0.18828 h -0.81128 l -0.11244,0.31183 z"
       id="path46"
       inkscape:connector-curvature="0" />
    <path
       style="fill-opacity:1;stroke:none;stroke-opacity:1;opacity:1;paint-order:markers stroke fill;fill:#ff0000"
       d="m 143.20864,99.551414 -6.25363,0.311832 c -0.24743,0 -0.62366,0.05949 -1.05905,0.187944 -1.00936,0.31151 -1.50391,0.43539 -1.50391,0.43539 l -2.44431,0.12356 -0.11866,0.19318 2.37469,0.0595 c 0.18828,0.0641 0.37623,0.12845 0.50469,0.12845 l 1.30648,0.43539 c 0.25725,0.0644 0.50469,0.12356 0.69264,0.12356 0.43538,0 0.81128,0.0647 0.99923,0.0647 l 4.4431,0.12323 z"
       id="path48"
       inkscape:connector-curvature="0" />
    <path
       style="fill-opacity:1;stroke:none;stroke-opacity:1;opacity:1;paint-order:markers stroke fill;fill:#ff0000"
       d="m 134.8866,102.42621 c -0.92994,0.31151 -1.56341,0.49945 -1.81085,0.49945 l -2.31552,0.0647 -0.0592,0.18795 2.31552,0.0641 c 0.18795,0 0.3066,0.0595 0.43539,0.0595 l 1.25648,0.50468 c 0.30692,0.0592 0.68282,0.12388 1.30648,0.18305 l 5.00695,0.18794 1.05873,-2.25113 -6.31311,0.31183 c -0.31674,0 -0.56418,0.12846 -0.88091,0.18795 z"
       id="path50"
       inkscape:connector-curvature="0" />
    <path
       style="fill-opacity:1;stroke:none;stroke-opacity:1;opacity:1;paint-order:markers stroke fill;fill:#ff0000"
       d="m 138.08303,96.795598 c 0.24744,0.06439 0.43539,0.128785 0.56385,0.188275 l 5.74926,0.187949 0.50273,-1.087487 -0.0575,0.151993 h 2.18706 c 0.18795,0 0.43539,0.05949 0.87078,0.247439 0.69263,0.252668 1.18751,0.376224 1.5634,0.376224 l 6.066,0.311831 0.50469,-2.187068 -5.87805,0.188276 c -0.3759,0.05916 -0.69264,0.123228 -0.99924,0.187948 l -0.44552,0.123556 -0.62333,0.247438 c -0.18795,0.06439 -0.3759,0.128459 -0.56385,0.128459 l -1.68238,0.05949 h -0.8662 l 0.17356,-0.376224 0.24744,-0.558943 h -0.24744 l -5.81856,0.247438 c -0.37589,0.06407 -0.75212,0.128786 -1.1875,0.252342 -0.94007,0.311831 -1.43462,0.435387 -1.43462,0.435387 l -2.63227,0.06439 -0.11865,0.311504 h 2.62213 c 0.12879,0 0.62334,0.187949 1.50424,0.49978 z"
       id="path52"
       inkscape:connector-curvature="0" />
    <path
       style="fill-opacity:1;stroke:none;stroke-opacity:1;opacity:1;paint-order:markers stroke fill;fill:#ff0000"
       d="m 94.983316,106.86932 c -0.123556,0 -0.311505,0.0592 -0.499453,0.0592 -0.06439,0.0644 -0.06439,0.0644 -0.128786,0.0644 l -0.999233,0.31183 -0.311831,0.0641 c -0.311504,0.12388 -0.49978,0.18795 -0.563846,0.18795 H 89.97898 l -0.123882,0.24744 1.249613,0.0644 1.375456,0.0644 c 0.123556,0 0.44029,0.0592 0.875677,0.24744 0.128459,0.0644 0.187949,0.12356 0.316408,0.18795 0.247438,0.0644 0.564172,0.18795 0.811611,0.18795 h 0.05949 l 5.694677,0.25234 1.12312,-2.19197 z"
       id="path54"
       inkscape:connector-curvature="0" />
    <path
       style="fill-opacity:1;stroke:none;stroke-opacity:1;opacity:1;paint-order:markers stroke fill;fill:#ff0000"
       d="m 144.33665,97.235888 -6.32291,0.311831 c -0.18795,0 -0.43539,0.06407 -0.68283,0.123556 l -1.37546,0.504683 c -0.18794,0 -0.31673,0.05949 -0.43538,0.05949 l -2.57277,0.06439 -0.11866,0.311505 h 2.50348 c 0.0592,0 0.24711,0 0.49455,0.06439 l 1.2568,0.49978 0.49488,0.05916 5.69958,0.188276 z"
       id="path56"
       inkscape:connector-curvature="0" />
    <path
       style="fill-opacity:1;stroke:none;stroke-opacity:1;opacity:1;paint-order:markers stroke fill;fill:#ff0000"
       d="m 138.1422,94.109077 1.2568,0.49978 c 0.18795,0.05949 0.68282,0.123556 1.5634,0.123556 l 4.18586,0.187948 0.3759,0.06439 0.31674,-0.751794 0.1278,-0.312158 h -0.76095 l 0.18795,-0.311505 h 0.4452 l 0.2592,-0.0092 0.30497,-0.742642 h -3.31509 c -1.82065,0 -3.06765,0.123556 -3.63149,0.311504 l -1.18751,0.311831 c -0.3759,0.128459 -0.69263,0.187949 -1.06885,0.187949 h -1.9988 l -0.12846,0.311504 h 2.44399 c 0.24744,0 0.43539,0.06439 0.62334,0.128786 z"
       id="path58"
       inkscape:connector-curvature="0" />
    <path
       style="fill-opacity:1;stroke:none;stroke-opacity:1;opacity:1;paint-order:markers stroke fill;fill:#ff0000"
       d="m 147.52328,93.920802 c 0.18795,0 0.3759,0.05949 0.63314,0.188275 l 1.05873,0.311831 c 0.50468,0.123556 0.94007,0.187949 1.31629,0.187949 l 5.56099,0.187948 0.37622,-1.939302 h -5.37337 c -0.18794,0 -0.94006,0.187948 -2.44398,0.499453 -0.49488,0.123882 -0.81161,0.187948 -0.99956,0.187948 l -1.55164,0.05524 -0.1314,0.320657 z"
       id="path60"
       inkscape:connector-curvature="0" />
    <path
       style="fill-opacity:1;stroke:none;stroke-opacity:1;opacity:1;paint-order:markers stroke fill;fill:#ff0000"
       d="m 122.0028,101.36226 c 0.50469,0.18795 0.81162,0.31673 0.99956,0.31673 l 5.75908,0.24744 1.05872,-2.375016 -6.12516,0.247439 c -0.31674,0 -0.75213,0.123882 -1.18751,0.252337 -0.43539,0.12356 -0.81129,0.24744 -0.99924,0.37623 -0.18794,0.0592 -0.31673,0.0592 -0.44552,0.0592 l -2.62212,0.12356 -0.12879,0.31673 2.5038,0.0644 c 0.18795,0 0.62334,0.12356 1.18718,0.371 z"
       id="path62"
       inkscape:connector-curvature="0" />
    <path
       style="fill-opacity:1;stroke:none;stroke-opacity:1;opacity:1;paint-order:markers stroke fill;fill:#ff0000"
       d="m 146.89962,98.611345 c 0.24744,0 0.69296,0.123882 1.31629,0.435387 0.3759,0.128785 0.68283,0.252668 0.94007,0.252668 l 5.81824,0.187948 0.49487,-2.25146 -5.81856,0.247438 c -0.94007,0.187949 -1.68206,0.375897 -2.24623,0.564173 -0.18795,0.128459 -0.3759,0.128459 -0.44519,0.128459 h -2.49367 l -0.12879,0.371321 h 1.50425 z"
       id="path64"
       inkscape:connector-curvature="0" />
    <path
       style="fill-opacity:1;stroke:none;stroke-opacity:1;opacity:1;paint-order:markers stroke fill;fill:#ff0000"
       d="m 122.69576,98.799293 c 0.81129,0.376224 1.43462,0.500107 1.68206,0.500107 l 5.51163,0.252014 0.99956,-2.315526 -6.32324,0.311831 c -0.24744,0 -0.55404,0.06407 -0.92994,0.252341 -0.63347,0.187949 -1.12834,0.375898 -1.56373,0.435387 l -2.44398,0.06439 -0.12879,0.311505 2.44431,0.06439 c 0.18795,0 0.43539,0.05949 0.75212,0.123556 z"
       id="path66"
       inkscape:connector-curvature="0" />
    <path
       style="fill-opacity:1;stroke:none;stroke-opacity:1;opacity:1;paint-order:markers stroke fill;fill:#ff0000"
       d="m 125.44635,94.420908 c 0.50468,0.187949 1.05905,0.311505 1.69219,0.311505 l 4.99715,0.252341 0.8809,-2.127251 h -5.44266 c -0.24711,0 -0.69263,0.123556 -1.31597,0.311504 l -1.18751,0.311831 c -0.75212,0.128459 -1.31596,0.187949 -1.62289,0.187949 l -1.6327,0.06407 -0.11866,0.247438 2.50348,0.06439 c 0.17814,0 0.55404,0.123556 1.24667,0.376223 z"
       id="path68"
       inkscape:connector-curvature="0" />
    <path
       style="fill-opacity:1;stroke:none;stroke-opacity:1;opacity:1;paint-order:markers stroke fill;fill:#ff0000"
       d="m 123.695,96.483767 c 0.56417,0.311831 1.31596,0.500106 2.05828,0.564172 l 5.19522,0.187949 1.12802,-2.251134 -6.32324,0.247438 c -0.24744,0 -0.55404,0.06407 -0.99956,0.252342 -0.87078,0.247438 -1.37546,0.375897 -1.49411,0.375897 l -2.57277,0.123883 -0.11866,0.311504 h 2.56297 c 0.12846,0 0.31641,0.06439 0.56385,0.187949 z"
       id="path70"
       inkscape:connector-curvature="0" />
    <path
       style="fill-opacity:1;stroke:none;stroke-opacity:1;opacity:1;paint-order:markers stroke fill;fill:#ff0000"
       d="m 165.84941,92.857503 c -0.36609,0 -0.68282,0.06407 -0.81161,0.123556 l -1.75135,0.499779 c -0.24744,0.06407 -0.49455,0.06407 -0.68283,0.06407 h -0.99923 l -1.82098,0.06439 -0.11865,0.311505 h 1.93963 l 0.62333,0.05949 c 0.11866,0 0.3759,0 0.56418,0.06439 l 0.6825,0.311831 c 0.31673,0.128459 0.62366,0.187949 1.06885,0.252342 l 6.12516,0.187948 1.44476,-1.939302 z"
       id="path72"
       inkscape:connector-curvature="0" />
    <path
       style="fill-opacity:1;stroke:none;stroke-opacity:1;opacity:1;paint-order:markers stroke fill;fill:#ff0000"
       d="m 147.96847,111.2477 c -0.69263,0 -1.37545,0.0595 -2.12757,0.24744 -0.25725,0.0644 -0.50469,0.12878 -0.69264,0.18795 -0.18794,0.0647 -0.37622,0.12878 -0.56417,0.18795 -0.18795,0.0647 -0.3759,0.12388 -0.49455,0.12388 l -2.50347,0.0644 -0.12879,0.18795 2.56297,0.0644 c 0.0693,0 0.18794,0.0641 0.25724,0.12356 l 0.87077,0.12388 0.69264,0.12356 2.31552,0.38112 7.93601,0.18305 h 0.44552 l 1.75135,-2.18707 h -2.19687 z"
       id="path74"
       inkscape:connector-curvature="0" />
    <path
       style="fill-opacity:1;stroke:none;stroke-opacity:1;opacity:1;paint-order:markers stroke fill;fill:#ff0000"
       d="m 146.27628,113.62272 c -0.0595,0 -0.24744,0.0644 -0.43538,0.0644 -0.18795,0.0641 -0.4452,0.12356 -0.69264,0.18795 -0.30692,0.12355 -0.62333,0.18827 -0.99955,0.31183 -0.18795,0.12356 -0.3759,0.12356 -0.50469,0.12356 l -2.56264,0.12878 -0.11898,0.18795 2.43451,0.0595 c 0.12846,0 0.31641,0.0641 0.50468,0.12355 l 1.11789,0.44029 c 0.0693,0 0.0693,0 0.12878,0 0.12846,0.12356 0.3759,0.12356 0.69264,0.12356 l 8.94537,0.25267 1.30616,-1.62813 0.37622,-0.56384 h -0.37622 z"
       id="path76"
       inkscape:connector-curvature="0" />
    <path
       style="fill-opacity:1;stroke:none;stroke-opacity:1;opacity:1;paint-order:markers stroke fill;fill:#ff0000"
       d="m 145.7716,115.87418 c -0.24744,0.0641 -0.43539,0.12846 -0.62334,0.18795 -0.62333,0.12355 -1.12801,0.25201 -1.50424,0.37589 -0.18795,0.0641 -0.36609,0.12356 -0.55404,0.12356 l -2.63226,0.0644 v 0.25234 l 2.31553,0.0592 c 0.31673,0 0.75212,0.12878 1.31629,0.31673 0.3759,0.18337 0.7518,0.24744 1.05872,0.31183 0.18795,0 0.31674,0.0595 0.50469,0.0595 h 7.56991 l 1.49411,-1.99879 -8.87607,0.24744 z"
       id="path78"
       inkscape:connector-curvature="0" />
    <path
       style="fill-opacity:1;stroke:none;stroke-opacity:1;opacity:1;paint-order:markers stroke fill;fill:#ff0000"
       d="m 134.70846,104.42991 c -0.31641,0.0644 -0.69264,0.12388 -1.00904,0.18794 l -1.05905,0.3759 c -0.43539,0.18828 -0.94007,0.18828 -1.50392,0.18828 h -1.50424 l -0.0595,0.24744 2.5038,0.0644 c 0,0 0.0592,0 0.12846,0 l 0.49488,0.18795 0.81128,0.3115 0.50468,0.12388 c 0.0595,0 0.12879,0 0.12879,0.0641 l 5.44234,0.12388 h 0.30693 l 1.06852,-2.12758 z"
       id="path80"
       inkscape:connector-curvature="0" />
    <path
       style="fill-opacity:1;stroke:none;stroke-opacity:1;opacity:1;paint-order:markers stroke fill;fill:#ff0000"
       d="m 156.09243,108.86811 -8.68813,0.18795 c -0.3759,0 -0.88058,0.0644 -1.37546,0.25234 l -0.18794,0.0644 -0.69264,0.24744 -0.30692,0.0641 -0.18795,0.0595 -2.57277,0.0644 -0.11866,0.25201 2.56297,0.0595 c 0.12846,0 0.31641,0.0644 0.3759,0.12879 l 0.24743,0.0592 0.69264,0.31183 c 0.18794,0.0644 0.49487,0.12879 0.81161,0.18828 l 9.43992,0.18795 2.25636,0.0641 1.43462,-1.87491 0.25725,-0.37622 h -0.25725 z"
       id="path82"
       inkscape:connector-curvature="0" />
    <path
       style="fill-opacity:1;stroke:none;stroke-opacity:1;opacity:1;paint-order:markers stroke fill;fill:#ff0000"
       d="m 147.71123,102.30233 -1.247,0.3759 c -0.12846,0.0595 -0.3759,0.0595 -0.62333,0.12388 h -0.69264 l -1.62289,0.0644 -0.12846,0.18795 1.62257,0.0595 c 0,0 0.0693,0 0.12878,0 0.24744,0 0.50469,0 0.69264,0.0644 0.30692,0 0.49487,0.0641 0.68282,0.12356 l 0.88058,0.37589 c 0.30693,0.0644 0.56417,0.12879 0.75212,0.12879 l 5.74927,0.24744 0.24744,-0.94007 0.37589,0.0644 h 1.12802 l 0.43539,0.12356 1.06885,0.37589 c 0.18795,0.12879 0.3759,0.12879 0.62334,0.12879 l 1.99879,0.12388 1.82098,0.0592 2.05828,0.0644 1.69187,-2.19197 -3.75015,0.12878 -1.82098,0.0595 h -1.49411 c -0.25724,0 -0.56384,0.0641 -0.88058,0.18795 l -1.18751,0.3759 c -0.0595,0 -0.12878,0.0641 -0.12878,0.0641 -0.3066,0.0595 -0.74199,0.12388 -1.30616,0.12388 h -0.63314 l 0.25724,-0.94007 -4.94779,0.18827 c -0.81128,0.0641 -1.37545,0.12846 -1.75135,0.25202 z"
       id="path84"
       inkscape:connector-curvature="0" />
    <path
       style="fill-opacity:1;stroke:none;stroke-opacity:1;opacity:1;paint-order:markers stroke fill;fill:#ff0000"
       d="m 160.97092,97.611785 -1.18751,0.312158 -0.43538,0.123556 c -0.18795,0.128459 -0.31641,0.128459 -0.43539,0.128459 l -2.50348,0.05949 -0.18795,0.252342 h 2.31553 c 0.24744,0 0.49488,0.123556 0.94007,0.247438 0.0592,0.06407 0.18795,0.06407 0.3066,0.128786 0.63347,0.182719 1.18751,0.311504 1.56373,0.370667 h 0.25725 l 5.56099,0.188276 1.63303,-2.187068 -7.19402,0.247438 z"
       id="path86"
       inkscape:connector-curvature="0" />
    <path
       style="fill-opacity:1;stroke:none;stroke-opacity:1;opacity:1;paint-order:markers stroke fill;fill:#ff0000"
       d="m 162.66311,95.296258 -1.05872,0.312158 -0.63347,0.187949 c -0.18795,0.06407 -0.3066,0.06407 -0.3759,0.06407 h -0.81161 l -1.68206,0.05949 -0.18794,0.316407 h 2.56263 c 0.24744,0.05949 0.43539,0.123883 0.56418,0.188276 0.18795,0.05916 0.37589,0.123882 0.56417,0.187948 0.3759,0.123883 0.74199,0.183046 0.94007,0.247439 l 6.3726,0.311831 1.6327,-2.187068 -7.26331,0.188276 z"
       id="path88"
       inkscape:connector-curvature="0" />
    <path
       style="fill-opacity:1;stroke:none;stroke-opacity:1;opacity:1;paint-order:markers stroke fill;fill:#ff0000"
       d="m 160.15964,99.798853 c -0.11898,0 -0.24744,0 -0.37623,0.06439 -0.37589,0.05949 -0.6825,0.123555 -0.92993,0.187947 l -1.06886,0.24744 c -0.18795,0.12879 -0.43539,0.18795 -0.62334,0.18795 h -1.06885 l -1.43462,0.0644 0.24711,-1.063625 -5.68977,0.247439 c -0.31641,0.06407 -0.56385,0.128459 -0.69264,0.128459 l -1.49411,0.499457 c -0.18794,0.0647 -0.37589,0.12388 -0.62333,0.12388 h -1.25681 l -1.1875,0.0644 -0.12846,0.25235 1.31596,0.0595 h 1.18751 c 0.18795,0 0.31674,0.0641 0.4452,0.0641 l 1.1875,0.49978 c 0.24744,0.12356 0.74199,0.18828 1.49411,0.18828 l 4.94779,0.24711 0.24744,-1.05872 h 1.88014 c 0.3759,0 0.74199,0.0595 1.11821,0.18794 l 1.06853,0.371 c 0.24744,0.12878 0.49488,0.12878 0.81128,0.12878 l 0.24744,0.0592 h 1.82098 l 3.80964,0.12878 1.62289,-2.191645 -5.43253,0.247439 z"
       id="path90"
       inkscape:connector-curvature="0" />
    <path
       style="fill-opacity:1;stroke:none;stroke-opacity:1;opacity:1;paint-order:markers stroke fill;fill:#ff0000"
       d="m 159.78341,104.36584 -3.12681,0.12846 c -0.18795,0 -0.3759,0 -0.56417,0.0595 -0.3066,0.0641 -0.68283,0.12355 -1.11821,0.25201 -0.50469,0.12389 -0.93975,0.24744 -1.31597,0.24744 l 0.18795,-0.81128 -5.75907,0.25234 c -0.24744,0 -0.62334,0.12355 -1.18751,0.24744 -0.43539,0.12355 -0.68283,0.18795 -0.7518,0.25201 l -0.30692,0.0595 -0.12879,0.0644 h -0.56385 l -2.12757,0.0644 -0.11866,0.24744 2.24623,0.0644 h 0.31674 c 0.11865,0 0.24711,0 0.3759,0.0592 0,0 0.0595,0 0.0595,0.0644 0.81128,0.31184 1.37545,0.49978 1.75135,0.49978 l 5.68978,0.18795 0.18827,-0.87567 c 0.31641,0.0644 0.56385,0.12355 0.69263,0.12355 l 1.05873,0.44029 0.43538,0.12388 c 0.0693,0.0641 0.12846,0.0641 0.18795,0.0641 h 0.18795 l 3.69098,0.18795 1.82098,0.0595 -1.82098,0.0644 -3.69098,0.18828 h -1.30616 c -0.18795,0 -0.69263,0.12323 -1.6327,0.37589 l 0.12878,-0.62856 -5.57112,0.25267 c -0.30693,0.0641 -0.81161,0.18795 -1.49444,0.37589 -0.12846,0.0595 -0.25724,0.12356 -0.37589,0.12356 -0.3759,0.12388 -0.56418,0.18795 -0.69264,0.18795 -0.0595,0 -0.0595,0 -0.12878,0 l -2.49334,0.0644 -0.12879,0.31151 h 2.25604 c 0.18795,0 0.30693,0.0595 0.49487,0.0595 0.12846,0 0.24744,0.0644 0.3759,0.12878 l 0.31674,0.12388 0.68282,0.24712 c 0.18795,0.0644 0.31674,0.12878 0.43539,0.12878 l 5.81856,0.3759 0.18795,-0.7518 c 0.69263,0.24712 1.18751,0.3759 1.5634,0.3759 l 1.56341,0.0641 3.69098,0.12388 h 0.31674 l 1.50424,-1.87524 0.18795,-0.31673 h 0.0595 l 1.69186,-2.18674 -1.9393,0.0592 z"
       id="path92"
       inkscape:connector-curvature="0" />
    <path
       style="fill-opacity:1;stroke:none;stroke-opacity:1;opacity:1;paint-order:markers stroke fill;fill:#ff0000"
       d="m 132.20498,107.11675 c -0.63314,0.18795 -0.99923,0.31641 -1.18751,0.31641 h -2.44398 l -0.18795,0.24744 1.81084,0.0641 c 0.56385,0 0.94007,0.0595 1.06853,0.12388 l 1.31629,0.43539 c 0.24744,0.12878 0.49455,0.12878 0.74199,0.12878 l 5.44267,0.18795 1.06853,-2.12758 -6.19446,0.18828 c -0.3759,0.0641 -0.81129,0.18795 -1.43495,0.43538 z"
       id="path94"
       inkscape:connector-curvature="0" />
    <path
       style="fill-opacity:1;stroke:none;stroke-opacity:1;opacity:1;paint-order:markers stroke fill;fill:#ff0000"
       d="m 120.00401,116.06213 -0.31673,0.12355 -1.18718,0.31641 c -0.11898,0.0595 -0.18828,0.0595 -0.18828,0.12388 h -2.62213 l -0.0595,0.25234 h 1.11822 l 0.62333,0.0592 h 0.56417 c 0.12879,0 0.25725,0 0.3759,0.0647 l 1.18751,0.37589 c 1.50424,0.49946 3.44354,0.68773 5.88786,0.68773 3.93842,0 6.81779,-0.81161 8.68812,-2.43908 l -13.07174,0.24744 c -0.37622,0 -0.68282,0.0641 -0.99956,0.18795 z"
       id="path96"
       inkscape:connector-curvature="0" />
    <path
       style="fill-opacity:1;stroke:none;stroke-opacity:1;opacity:1;paint-order:markers stroke fill;fill:#ff0000"
       d="m 117.37175,107.80416 0.18828,0.0644 c 0.12846,0 0.25724,0.0644 0.37589,0.0644 0.82142,0.371 1.37546,0.56385 1.6922,0.56385 l 5.68977,0.24744 1.06886,-2.25114 -6.19479,0.25234 c -0.99923,0.24744 -1.75135,0.43539 -2.31553,0.62334 -0.12845,0.0644 -0.24711,0.12388 -0.24711,0.12388 h -1.37643 c -0.0507,0.10068 -0.10166,0.20168 -0.15821,0.31151 z"
       id="path98"
       inkscape:connector-curvature="0" />
    <path
       style="fill-opacity:1;stroke:none;stroke-opacity:1;opacity:1;paint-order:markers stroke fill;fill:#ff0000"
       d="m 93.355844,113.56323 -1.375456,0.0595 c -0.311832,0.0644 -0.625951,0.12846 -0.875677,0.18795 -0.561885,0.12388 -1.061665,0.25266 -1.375457,0.31183 -0.314446,0.12878 -0.502395,0.18795 -0.688056,0.18795 h -2.50086 l -0.126171,0.31673 2.503476,0.0595 c 0.123555,0 0.373609,0.0641 0.623335,0.12355 l 0.564173,0.18795 c 0.49978,0.18795 0.811284,0.25234 0.99956,0.31674 h 1.251574 l 0.999559,0.0592 h 1.128019 l 14.318737,0.18828 0.12846,-0.12356 0.24744,-0.18828 1.2568,-0.94006 c 0.43539,-0.31184 0.87078,-0.62334 1.24668,-0.99924 l -17.198117,0.25202 z"
       id="path100"
       inkscape:connector-curvature="0" />
    <path
       style="fill-opacity:1;stroke:none;stroke-opacity:1;opacity:1;paint-order:markers stroke fill;fill:#ff0000"
       d="m 93.355844,115.81469 -2.251133,0.0595 h -0.373936 c -0.249727,0 -0.625624,0.0641 -1.063626,0.18795 l -1.313352,0.43996 c -0.188276,0.0595 -0.314446,0.0595 -0.376224,0.0595 l -2.562965,0.0644 -0.126171,0.25234 2.377632,0.0592 c 0.185333,0 0.373282,0.0647 0.56123,0.12878 l 1.063953,0.37132 c 0.375897,0.12846 0.813899,0.18795 1.375457,0.18795 h 10.387841 c 3.12681,0 5.63028,-0.68805 7.55978,-2.06318 l -14.130467,0.25234 z"
       id="path102"
       inkscape:connector-curvature="0" />
    <path
       style="fill-opacity:1;stroke:none;stroke-opacity:1;opacity:1;paint-order:markers stroke fill;fill:#ff0000"
       d="m 91.104711,110.06019 c 0.249726,0.0595 0.563845,0.12388 0.875677,0.24744 0.499779,0.18828 0.940069,0.31183 1.375456,0.44062 l 1.128019,0.0595 4.631053,0.25201 1.123114,-2.25113 -5.754167,0.18827 -0.49978,0.0592 c -0.252342,0 -0.44029,0.0644 -0.628239,0.0644 -0.187948,0.0644 -0.311831,0.12355 -0.494877,0.12355 -0.316734,0.12879 -0.563845,0.18828 -0.692631,0.25235 -0.438002,0.12388 -0.813899,0.18794 -0.99956,0.18794 h -0.06406 l -2.251461,0.0595 -0.126171,0.31641 h 2.253749 c 0.06178,0 0.06178,0 0.123883,0 z"
       id="path104"
       inkscape:connector-curvature="0" />
    <path
       style="fill-opacity:1;stroke:none;stroke-opacity:1;opacity:1;paint-order:markers stroke fill;fill:#ff0000"
       d="m 115.74918,108.43272 c 0,0 0,-0.0644 0.0592,-0.0644 0.101,-0.20201 0.19644,-0.38832 0.28633,-0.56417 h -0.28633 l -0.87078,-0.0595 0.12879,-0.25202 h 1.18653 c 0.16833,-0.33635 0.30464,-0.62791 0.37687,-0.876 l -0.82141,0.0647 h -0.99924 l -1.05905,0.0641 -4.50226,0.12389 c -0.18795,0 -0.63347,0.12355 -1.18751,0.3115 -0.75212,0.25234 -1.25681,0.3759 -1.37546,0.3759 l -2.57277,0.0595 -0.11865,0.25234 2.43418,0.0644 c 0.44519,0.12388 0.88058,0.24744 1.18751,0.371 0.56384,0.19285 1.06852,0.31673 1.50391,0.31673 l 4.63105,0.12356 1.05905,0.0644 h 0.63314 0.11866 c 0.0693,-0.18795 0.12878,-0.31183 0.18827,-0.3759 z"
       id="path106"
       inkscape:connector-curvature="0" />
    <path
       style="fill-opacity:1;stroke:none;stroke-opacity:1;opacity:1;paint-order:markers stroke fill;fill:#ff0000"
       d="m 127.82137,111.43565 c -0.30661,0 -0.49455,-0.0641 -0.62334,-0.0641 l -0.69263,-0.18795 c -0.0595,0 -0.0595,0 -0.11865,0 l -7.3823,0.12356 c -0.24711,0 -0.69263,0.0644 -1.31596,0.31673 -0.12846,0 -0.24744,0.0592 -0.31674,0.12389 -0.24711,0.0641 -0.43539,0.12323 -0.62333,0.12323 -0.18795,0.12388 -0.3759,0.12388 -0.43539,0.12388 h -0.50468 l -0.99924,0.0644 h -1.05905 l -0.12845,0.25234 h 0.12845 l 1.05905,0.0641 h 1.25648 c 0.24744,0.0595 0.49488,0.12388 0.68283,0.18337 0.25724,0.12356 0.43538,0.18795 0.56417,0.25202 0,0 0,0 0.0592,0 0.37623,0.12388 0.75212,0.25266 1.06886,0.25266 l 17.89074,0.18305 c 0.37623,-0.62366 0.81161,-1.37578 1.247,-2.18707 l -8.06479,0.0595 c -0.62334,0.18795 -1.18751,0.31641 -1.69219,0.31641 z"
       id="path108"
       inkscape:connector-curvature="0" />
    <path
       style="fill-opacity:1;stroke:none;stroke-opacity:1;opacity:1;paint-order:markers stroke fill;fill:#ff0000"
       d="m 131.20575,109.37279 c -0.56417,0.18795 -1.00937,0.3115 -1.3163,0.3115 l -2.50347,0.0595 -0.12846,0.25235 2.50348,0.0641 c 0.24743,0 0.62333,0.12388 1.25647,0.37132 0.43572,0.18795 0.81161,0.31674 1.11822,0.31674 l 5.51196,0.18795 1.05872,-2.19197 -6.19446,0.31183 c -0.30693,0 -0.75212,0.12878 -1.30616,0.31673 z"
       id="path110"
       inkscape:connector-curvature="0" />
    <path
       style="fill-opacity:1;stroke:none;stroke-opacity:1;opacity:1;paint-order:markers stroke fill;fill:#ff0000"
       d="m 118.44061,113.81067 -1.06886,0.37622 -0.24711,0.0644 c -0.11898,0 -0.24744,0.0592 -0.37622,0.0592 -0.24744,0.0644 -0.56385,0.12878 -0.87078,0.12878 h -1.88014 l -0.0595,0.24744 h 0.8711 l 0.99924,0.0641 h 0.31673 c 0.24744,0 0.43539,0 0.62334,0.0595 l 0.62333,0.25235 0.69296,0.25234 c 0.18795,0 0.43539,0.0592 0.69263,0.12388 l 15.44643,0.18795 c 0.68283,-0.62857 1.37546,-1.37546 1.99912,-2.19197 l -17.01016,0.25234 c -0.37623,0.0641 -0.62334,0.0641 -0.75212,0.12356 z"
       id="path112"
       inkscape:connector-curvature="0" />
    <path
       style="fill-opacity:1;stroke:none;stroke-opacity:1;opacity:1;paint-order:markers stroke fill;fill:#ff0000"
       d="m 114.72968,109.99613 h 0.0794 l 0.99924,0.0641 h 0.94007 c 0.12878,0.0595 0.31673,0.12388 0.56417,0.18828 0,0 0,0.0592 0.0592,0.0592 0.50468,0.18828 1.00937,0.31183 1.38559,0.37622 l 7.44113,0.3759 c -0.75212,-0.3759 -1.12802,-0.87568 -1.12802,-1.37546 0,-0.18794 0.0595,-0.49945 0.18795,-0.94006 l -5.63028,0.25266 c -0.43539,0.0592 -0.94007,0.12356 -1.50425,0.31151 -0.3066,0.0644 -0.56384,0.18795 -0.75212,0.25234 -0.36609,0.0595 -0.55404,0.12355 -0.55404,0.12355 h -0.0693 l -0.94007,0.0595 h -0.91294 c -0.0301,0.0418 -0.0539,0.0889 -0.0863,0.12846 -0.0258,0.0392 -0.0539,0.0833 -0.0794,0.12389 z"
       id="path114"
       inkscape:connector-curvature="0" />
    <path
       style="fill-opacity:1;stroke:none;stroke-opacity:1;opacity:1;paint-order:markers stroke fill;fill:#ff0000"
       d="m 113.93801,111.05975 h 0.0595 c 0.2834,-0.33667 0.51024,-0.71649 0.73218,-1.06362 h -0.60339 l 0.11865,-0.18795 0.56417,-0.0644 h 0.0863 c 0.2105,-0.28535 0.38243,-0.60666 0.54684,-0.93516 l -0.63314,0.0595 h -1.05905 l -7.00574,0.25234 c -0.37622,0.0644 -0.69263,0.12355 -0.94007,0.18795 l -0.43539,0.12388 -0.8809,0.25201 c -0.11866,0.0595 -0.3066,0.12389 -0.43539,0.12389 l -2.56264,0.0641 -0.0595,0.24744 h 1.81085 c 0.49487,0 0.94007,0.0644 1.1875,0.18795 l 1.06853,0.37622 c 0.30693,0.12389 0.74232,0.18795 1.247,0.18795 l 7.00574,0.18795 -19.266197,0.31183 -1.128019,0.0641 h -0.247438 c -0.375897,0 -0.692632,0 -0.88058,0.0595 l -1.123115,0.31673 -0.438002,0.18305 c -0.185661,0.0644 -0.49978,0.0644 -0.937455,0.0644 l -2.001408,0.0644 -0.12617,0.31151 h 2.44137 c 0.438002,0.12388 0.749833,0.18795 1.061665,0.24744 0.249726,0.12846 0.502067,0.18795 0.687728,0.25234 0.435387,0.12878 0.811284,0.18827 1.187181,0.18827 h 1.504243 l 17.267407,0.18795 c 0.74232,-0.62856 1.43495,-1.31629 1.99879,-2.06351 0.0595,-0.0641 0.11898,-0.12846 0.18795,-0.18795 z"
       id="path116"
       inkscape:connector-curvature="0" />
    <path
       style="fill-opacity:1;stroke:none;stroke-opacity:1;opacity:1;paint-order:markers stroke fill;fill:#ff0000"
       d="m 102.48917,104.11317 h -0.43539 l -5.818563,0.31674 c -0.316408,0 -0.563846,0.0644 -0.751795,0.12388 l -0.999559,0.3115 -0.435387,0.18795 c -0.128786,0.0644 -0.376224,0.12879 -0.692632,0.12879 H 92.97962 l -1.874909,0.0592 -0.123883,0.25267 h 0.123883 l 2.127251,0.12355 c 0,0 0.06439,0 0.123882,0 0.252342,0 0.504683,0.0644 0.628239,0.12389 l 0.49978,0.18795 0.875677,0.37589 c 0.123882,0.0641 0.499779,0.0641 1.123115,0.12356 l 4.819005,0.18795 h 0.0595 0.0693 z"
       id="path118"
       inkscape:connector-curvature="0" />
    <path
       style="fill-opacity:1;stroke:none;stroke-opacity:1;opacity:1;paint-order:markers stroke fill;fill:#ff0000"
       d="m 68.837216,100.92687 0.999559,0.0644 c 0.252342,0 0.625951,0.12356 1.251901,0.371 0.438002,0.18795 0.749506,0.31673 0.999233,0.31673 l 5.695006,0.24744 1.061337,-2.375016 -6.066,0.247439 c -0.375897,0 -0.752121,0.123882 -1.251574,0.252337 -0.438002,0.12356 -0.749833,0.24744 -0.937782,0.37623 -0.249726,0.0592 -0.375897,0.0592 -0.499779,0.0592 l -1.251901,0.0644 -0.114731,0.01 c -0.02419,0.12388 -0.05524,0.24417 -0.08335,0.36609 z"
       id="path120"
       inkscape:connector-curvature="0" />
    <path
       style="fill-opacity:1;stroke:none;stroke-opacity:1;opacity:1;paint-order:markers stroke fill;fill:#ff0000"
       d="m 68.149487,103.2424 h 0.564173 c 0.05949,0 0.05949,0.0595 0.123556,0.0595 l 0.435387,0.12388 1.128345,0.43996 c 0.12617,0 0.311504,0 0.62595,0.0647 l 5.627671,0.24711 1.063953,-2.25113 -6.191844,0.25234 c -0.376224,0.0595 -0.814226,0.12356 -1.313679,0.31151 -0.561558,0.18795 -0.999559,0.31183 -1.313679,0.43538 h -0.749833 l -0.151666,0.006 c -0.03988,0.10035 -0.07714,0.20429 -0.120287,0.3017 z"
       id="path122"
       inkscape:connector-curvature="0" />
    <path
       style="fill-opacity:1;stroke:none;stroke-opacity:1;opacity:1;paint-order:markers stroke fill;fill:#ff0000"
       d="m 74.77966,95.232192 c -0.187949,0 -0.564173,0.06407 -1.001848,0.252342 -0.813899,0.247438 -1.313679,0.375897 -1.501628,0.375897 l -2.501187,0.123883 -0.187948,0.311504 h 2.565253 c 0.123882,0 0.311831,0.06439 0.564172,0.187949 0.625951,0.311831 1.313679,0.500106 2.063186,0.564172 l 5.189996,0.187949 1.12573,-2.251134 z"
       id="path124"
       inkscape:connector-curvature="0" />
    <path
       style="fill-opacity:1;stroke:none;stroke-opacity:1;opacity:1;paint-order:markers stroke fill;fill:#ff0000"
       d="m 42.003714,74.026362 2.750913,0.999559 c 0.437676,0.128459 0.937455,0.187949 1.563406,0.187949 l 17.200401,0.192852 h 0.690343 l 2.063185,0.05949 h 2.565254 l 6.004221,0.06439 2.312912,-4.56666 -8.317133,0.249726 h -0.687729 l -1.877525,0.06178 -2.063185,0.06211 h -0.690343 l -16.574451,0.437675 c -0.62595,0 -1.187508,0.06439 -1.62551,0.187949 l -2.814979,0.940069 c -0.49978,0.123883 -0.814226,0.187949 -1.002175,0.187949 l -5.254389,0.187949 -0.249726,0.688055 h 5.442337 c 0.249727,0 0.438002,0 0.564173,0.05916 z"
       id="path126"
       inkscape:connector-curvature="0" />
    <path
       style="fill-opacity:1;stroke:none;stroke-opacity:1;opacity:1;paint-order:markers stroke fill;fill:#ff0000"
       d="m 40.440308,79.409536 c 0.875677,0.370994 2.312912,0.558943 4.44049,0.623336 l 12.822016,0.311504 c 1.375457,-0.999233 3.31476,-1.499012 5.81562,-1.563405 h 0.06439 c 0.187948,0 0.438002,0.06439 0.62595,0.06439 0.687729,0 1.375457,0.06439 2.063185,0.123555 0.625951,0.06472 1.251901,0.188276 1.877525,0.311832 0.250053,0.06439 0.435387,0.128785 0.687729,0.192851 0.749833,0.183373 1.437561,0.435387 2.189682,0.682826 l 1.375457,0.564172 2.439082,-4.942557 -6.004221,0.128458 h -0.687729 l -1.877525,0.05949 -2.063185,0.06407 h -0.690343 l -19.701588,0.440617 c -0.625624,0 -1.189797,0.05916 -1.627798,0.187949 l -3.000641,0.999559 c -0.564172,0.123556 -0.875677,0.182719 -1.063625,0.182719 l -5.128545,0.128786 -0.187949,0.623335 h 5.066441 c 0.373609,0 1.249286,0.252342 2.565579,0.816514 z"
       id="path128"
       inkscape:connector-curvature="0" />
    <path
       style="fill-opacity:1;stroke:none;stroke-opacity:1;opacity:1;paint-order:markers stroke fill;fill:#ff0000"
       d="m 48.695337,69.588487 1.939303,0.749506 c 0.49978,0.249727 1.249613,0.311832 2.251461,0.311832 l 10.632333,0.187948 h 2.753528 l 1.877525,0.06439 h 0.687729 l 8.381526,0.06178 1.501627,-3.127138 C 75.778892,66.773181 72.464133,66.14723 68.837216,66.021059 h -0.687729 c -0.375897,-0.06178 -0.690016,-0.06178 -1.001521,-0.06178 -0.311831,0 -0.561884,0 -0.876004,0.06178 -0.62595,0 -1.375456,0 -2.063185,0.06439 h -0.690343 c -3.062418,0.185661 -6.377504,0.687729 -10.068488,1.311064 -3.752761,0.752121 -6.130065,1.066241 -7.070135,1.066241 h -3.688369 l -0.250053,0.623335 3.753088,0.06439 c 0.875677,0 1.748739,0.123883 2.50086,0.438002 z"
       id="path130"
       inkscape:connector-curvature="0" />
    <path
       style="fill-opacity:1;stroke:none;stroke-opacity:1;opacity:1;paint-order:markers stroke fill;fill:#ff0000"
       d="m 70.962505,98.675737 c 0.187949,0 0.437676,0.05949 0.752122,0.123556 0.875677,0.376224 1.439522,0.500107 1.689576,0.500107 l 5.504442,0.252014 1.061011,-2.315526 -6.377505,0.311831 c -0.249726,0 -0.564172,0.06407 -0.940069,0.252341 -0.625951,0.187949 -1.125404,0.375898 -1.501628,0.435387 l -2.069069,0.0572 c -0.01079,0.105251 -0.02419,0.215079 -0.03824,0.32556 z"
       id="path132"
       inkscape:connector-curvature="0" />
    <path
       style="fill-opacity:1;stroke:none;stroke-opacity:1;opacity:1;paint-order:markers stroke fill;fill:#ff0000"
       d="m 75.341217,93.169007 -1.249286,0.311831 c -0.749506,0.128459 -1.313679,0.187949 -1.627798,0.187949 l -1.625183,0.06407 -0.126498,0.247438 2.503475,0.06439 c 0.188276,0 0.561885,0.123556 1.251901,0.376224 0.49978,0.187949 1.061338,0.311505 1.687288,0.311505 l 5.004663,0.252341 0.937455,-2.127251 h -5.442665 c -0.311504,0 -0.749179,0.123556 -1.313352,0.311503 z"
       id="path134"
       inkscape:connector-curvature="0" />
    <path
       style="fill-opacity:1;stroke:none;stroke-opacity:1;opacity:1;paint-order:markers stroke fill;fill:#ff0000"
       d="M 68.149487,91.482046 C 67.897473,90.981939 67.585641,90.477257 67.27381,89.977804 h -1.001848 l -2.063185,0.06407 -0.690343,0.06472 -17.57401,0.499453 c -0.376224,0 -0.752121,0.05949 -1.251901,0.187949 l -2.627031,0.752121 c -0.749507,0.247438 -1.566021,0.371321 -2.43941,0.371321 l -4.128658,0.187949 -0.187949,0.499453 4.88078,0.128785 c 0.937782,0.187949 1.687288,0.375897 2.186741,0.55927 1.313679,0.563846 2.503802,0.87535 3.503035,0.87535 l 17.638403,0.188275 h 0.690343 l 2.063185,0.06439 h 2.689136 c 0,-0.252668 -0.06178,-0.500106 -0.123882,-0.752121 -0.123556,-0.747218 -0.375898,-1.499339 -0.687729,-2.186741 z"
       id="path136"
       inkscape:connector-curvature="0" />
    <path
       style="fill-opacity:1;stroke:none;stroke-opacity:1;opacity:1;paint-order:markers stroke fill;fill:#ff0000"
       d="m 37.560609,83.723855 c 1.877525,0.752121 3.817154,1.128019 5.754169,1.187508 L 61.2673,85.287261 c -0.375897,-0.247112 -1.251574,-0.375898 -1.501301,-0.49978 -1.813458,-0.875677 -2.689135,-1.87491 -2.689135,-2.879373 0,-0.311831 0.123556,-0.747218 0.375897,-1.187508 L 42.12727,81.349166 c -0.375898,0 -1.249286,0.187948 -2.689136,0.623335 -1.563405,0.563846 -2.627031,0.811284 -3.191204,0.811284 l -4.502267,0.06439 -0.31412,0.49978 5.192284,0.187949 c 0.250054,0 0.564173,0.06407 0.937782,0.187948 z"
       id="path138"
       inkscape:connector-curvature="0" />
    <path
       style="fill-opacity:1;stroke:none;stroke-opacity:1;opacity:1;paint-order:markers stroke fill;fill:#ff0000"
       d="m 25.114588,114.62718 c -1.753871,0.62333 -2.879535,0.93517 -3.379283,0.93517 l -5.06644,0.12355 -0.187981,0.49978 4.692962,0.12846 c 0.561459,0 1.061207,0.0595 1.375457,0.12388 l 4.128756,1.06363 c 2.877182,0.81161 6.941513,1.18751 12.134451,1.18751 4.878165,0 8.819202,-0.3759 11.884235,-1.18751 3.065033,-0.75212 6.003895,-2.06286 8.757423,-3.93842 l -32.026439,0.55927 c -0.875743,0.0644 -1.625412,0.25234 -2.313141,0.50468 z"
       id="path140"
       inkscape:connector-curvature="0" />
    <path
       style="fill-opacity:1;stroke:none;stroke-opacity:1;opacity:1;paint-order:markers stroke fill;fill:#ff0000"
       d="m 40.002307,86.415606 c -1.753969,0.558943 -2.815307,0.87535 -3.315087,0.87535 l -4.880779,0.123883 -0.185661,0.499779 4.690543,0.187949 c 0.811284,0 1.751354,0.247438 2.938862,0.751794 0.99956,0.376224 1.877852,0.564173 2.689136,0.564173 l 21.579113,0.311831 h 3.50565 C 66.836135,89.418534 66.586082,89.042637 66.271962,88.731133 65.772509,88.043077 65.022676,87.478905 64.208777,86.915059 64.020829,86.72711 63.770775,86.603554 63.518434,86.474769 62.831032,86.039382 62.081526,85.663485 61.2673,85.287261 l -18.763806,0.564172 c -0.564173,0 -1.375457,0.187949 -2.501187,0.564173 z"
       id="path142"
       inkscape:connector-curvature="0" />
    <path
       style="fill-opacity:1;stroke:none;stroke-opacity:1;opacity:1;paint-order:markers stroke fill;fill:#ff0000"
       d="m 66.271962,103.17833 v -0.12388 l 0.06178,-0.0641 1.664081,-0.0588 c 0.05034,-0.12748 0.107212,-0.24809 0.151666,-0.38178 0.193179,-0.50207 0.358573,-1.05382 0.489647,-1.6229 h -1.241441 l 0.12617,-0.31673 h 0.625624 l 0.572998,-0.0494 c 0.04543,-0.23077 0.08433,-0.46382 0.114731,-0.697534 0,-0.128459 0.0621,-0.187949 0.0621,-0.311832 0.06243,-0.333731 0.106886,-0.639678 0.143822,-0.933205 l -0.205926,-0.0069 h -0.313793 l 0.125844,-0.311505 h 0.187949 l 0.244169,-0.0072 c 0.04674,-0.45696 0.06766,-0.871101 0.06766,-1.24471 0,-0.252341 0,-0.875677 -0.123556,-2.003695 h -0.188275 l -0.687729,0.06407 -1.877525,0.06472 -2.063185,0.05916 H 63.51843 l -10.756216,0.44029 c -0.499453,0 -1.063626,0.123883 -1.689576,0.311832 l -3.003255,0.875677 c -0.311505,0.06439 -0.563846,0.123882 -0.687729,0.123882 l -5.19261,0.187949 -0.185334,0.439963 5.06644,0.188275 c 0.373282,0 0.749506,0.05916 1.251574,0.311832 1.749066,0.752121 3.188916,1.122788 4.314646,1.122788 l 10.88206,0.188276 h 0.690343 l 2.063185,0.06439 1.877525,0.06407 -1.877525,0.05949 -2.063185,0.123883 H 63.51843 l -10.382607,0.380804 c -0.937455,0.18304 -1.689576,0.37099 -2.377304,0.55927 -1.499013,0.49945 -2.500861,0.81618 -3.000641,0.94007 l -5.19261,0.0641 -0.188276,0.49978 5.316494,0.18795 c 0.190236,0 0.502068,0.0595 0.937455,0.31151 1.689902,0.68805 2.879699,1.06395 3.690983,1.06395 l 11.196506,0.24744 h 0.690343 l 2.063185,0.0644 1.187509,0.0592 c 0.145456,-0.28797 0.285681,-0.57953 0.418063,-0.87992 z"
       id="path144"
       inkscape:connector-curvature="0" />
    <path
       style="fill-opacity:1;stroke:none;stroke-opacity:1;opacity:1;paint-order:markers stroke fill;fill:#ff0000"
       d="m 86.03827,99.863246 c -0.250053,0 -0.561884,0.05949 -1.061664,0.187944 -1.001848,0.31151 -1.503916,0.43539 -1.503916,0.43539 l -2.50086,0.12356 -0.126497,0.19318 2.442024,0.0595 c 0.185333,0.0641 0.373282,0.12845 0.499453,0.12845 l 1.313679,0.43539 c 0.250053,0.0644 0.499779,0.12356 0.687728,0.12356 0.438002,0 0.813899,0.0647 1.001848,0.0647 l 4.314646,0.12323 h 0.125843 l 1.066568,-2.186746 -1.192411,0.05949 z"
       id="path146"
       inkscape:connector-curvature="0" />
    <path
       style="fill-opacity:1;stroke:none;stroke-opacity:1;opacity:1;paint-order:markers stroke fill;fill:#ff0000"
       d="m 67.024084,105.49386 c 0.311831,0 0.687728,0.0592 1.125403,0.18795 0.123883,0.0595 0.311831,0.12355 0.49978,0.18795 0.06439,0 0.123883,0 0.187949,0.0595 0.564172,0.18794 0.999559,0.3115 1.375783,0.3115 l 5.254389,0.25234 1.063626,-2.31553 -6.130066,0.18828 c -0.249727,0 -0.564173,0.0641 -0.937455,0.18795 l -0.626277,0.25201 -0.625624,0.18795 c 0,0.0595 -0.06211,0.0595 -0.06211,0.0595 -0.252014,0.0644 -0.690016,0.12879 -1.189796,0.12879 h -0.06668 c -0.06145,0.10394 -0.126171,0.20756 -0.18991,0.31183 z"
       id="path148"
       inkscape:connector-curvature="0" />
    <path
       style="fill-opacity:1;stroke:none;stroke-opacity:1;opacity:1;paint-order:markers stroke fill;fill:#ff0000"
       d="m 81.285623,107.11675 c -0.628239,0.18795 -1.063626,0.31641 -1.251575,0.31641 h -2.439082 l -0.188275,0.24744 1.875236,0.0641 c 0.564173,0 0.875677,0.0595 1.002175,0.12388 l 1.313352,0.43539 c 0.314446,0.12878 0.564172,0.12878 0.813899,0.12878 l 5.504442,0.18795 1.001848,-2.12758 -6.194459,0.18828 c -0.375897,0.0641 -0.811284,0.18795 -1.437561,0.43538 z"
       id="path150"
       inkscape:connector-curvature="0" />
    <path
       style="fill-opacity:1;stroke:none;stroke-opacity:1;opacity:1;paint-order:markers stroke fill;fill:#ff0000"
       d="m 82.784962,104.61785 -1.125403,0.3759 c -0.438002,0.18828 -0.937782,0.18828 -1.501955,0.18828 h -1.437235 l -0.12617,0.24744 2.501187,0.0644 c 0.06439,0 0.06439,0 0.126171,0 l 0.502067,0.18795 0.937782,0.3115 0.437675,0.12388 c 0.06178,0 0.123883,0 0.188276,0.0641 l 5.377944,0.12388 h 0.311831 l 1.065914,-2.12758 -6.256236,0.25235 c -0.31412,0.0644 -0.625951,0.12388 -1.001848,0.18794 z"
       id="path152"
       inkscape:connector-curvature="0" />
    <path
       style="fill-opacity:1;stroke:none;stroke-opacity:1;opacity:1;paint-order:markers stroke fill;fill:#ff0000"
       d="m 92.227826,92.857503 c -0.435387,0 -0.809323,0 -1.123115,0.06407 -1.249613,0 -2.127579,0.05949 -2.56558,0.247438 l -1.187509,0.311831 c -0.311831,0.128459 -0.687728,0.187949 -1.063625,0.187949 h -2.001408 l -0.123555,0.311504 h 2.439082 c 0.249727,0 0.437675,0.06439 0.687728,0.128786 l 1.249287,0.49978 c 0.187948,0.05949 0.687728,0.123556 1.503915,0.123556 l 1.061665,0.06439 2.251133,0.123556 h 1.128019 l 0.123555,0.06439 0.935167,-2.127251 z"
       id="path154"
       inkscape:connector-curvature="0" />
    <path
       style="fill-opacity:1;stroke:none;stroke-opacity:1;opacity:1;paint-order:markers stroke fill;fill:#ff0000"
       d="m 91.104711,95.10831 -2.689136,0.123882 c -0.376224,0.06407 -0.749506,0.128786 -1.125731,0.252342 -0.937781,0.311831 -1.439849,0.435387 -1.501627,0.435387 l -2.627358,0.06439 -0.123556,0.311504 h 2.627031 c 0.123883,0 0.687729,0.187949 1.563733,0.49978 0.249726,0.06439 0.438002,0.128785 0.499779,0.188275 l 3.376865,0.06407 2.251133,0.06439 0.128459,0.05949 0.99956,-2.127578 0.05949,-0.05949 h -1.187509 z"
       id="path156"
       inkscape:connector-curvature="0" />
    <path
       style="fill-opacity:1;stroke:none;stroke-opacity:1;opacity:1;paint-order:markers stroke fill;fill:#ff0000"
       d="m 91.104711,97.35977 -4.002815,0.187949 c -0.187949,0 -0.438002,0.06407 -0.687729,0.123556 l -1.378071,0.504683 c -0.123556,0 -0.311831,0.05949 -0.437675,0.05949 l -2.562965,0.06439 -0.123556,0.311505 h 2.50086 c 0.123556,0 0.250054,0 0.49978,0.06439 l 1.251574,0.49978 0.49978,0.05916 4.440817,0.188276 h 1.251574 l 0.999559,-1.99912 0.06439,-0.187948 h -0.06439 z"
       id="path158"
       inkscape:connector-curvature="0" />
    <path
       style="fill-opacity:1;stroke:none;stroke-opacity:1;opacity:1;paint-order:markers stroke fill;fill:#ff0000"
       d="m 84.850762,102.23826 c -0.252341,0 -0.564173,0.12846 -0.876004,0.18795 -0.937455,0.31151 -1.563405,0.49945 -1.813132,0.49945 l -2.377304,0.0647 -0.06439,0.18795 2.377305,0.0641 c 0.187948,0 0.375897,0.0595 0.502394,0.0595 l 1.187182,0.50468 c 0.311831,0.0592 0.749506,0.12388 1.313679,0.18305 l 5.004662,0.18794 0.99956,-2.06318 0.125843,-0.18795 h -0.125843 z"
       id="path160"
       inkscape:connector-curvature="0" />
    <path
       style="fill-opacity:1;stroke:none;stroke-opacity:1;opacity:1;paint-order:markers stroke fill;fill:#ff0000"
       d="m 63.20693,109.99613 0.06178,-0.18795 0.249727,-0.0644 h 0.06276 c 0.230115,-0.22782 0.455653,-0.46153 0.627585,-0.74689 0.06178,-0.0647 0.126171,-0.18827 0.250054,-0.25266 h 0.123555 c 0.236652,-0.33079 0.45598,-0.64949 0.674981,-0.96917 l -1.04859,-0.0304 h -0.252341 l 0.188275,-0.25202 h 1.309103 c 0.288951,-0.43146 0.562865,-0.86293 0.818148,-1.31139 0.14611,-0.22881 0.289932,-0.45794 0.431138,-0.6874 h -0.431138 l -1.125403,-0.0644 0.06178,-0.18828 1.063625,-0.0592 h 0.621048 c 0.210829,-0.35498 0.405642,-0.71127 0.566461,-1.06886 h -1.187509 l -2.063185,0.0644 h -0.690343 l -31.336096,0.62824 c -0.561558,0 -1.125731,0.0595 -1.563406,0.18795 l -3.253145,0.99956 c -0.314086,0.12388 -0.687728,0.24744 -1.125501,0.24744 l -4.878426,0.12846 -0.252342,0.43539 5.066441,0.18827 c 0.188013,0 0.564041,0.0644 1.125534,0.31183 1.877721,0.6874 3.129491,1.06363 3.755114,1.06363 l 32.461827,0.31641 0.690343,0.0595 h -0.690343 l -33.713433,0.68805 c -2.565286,0.49945 -4.502399,0.94007 -5.692228,1.43952 l -5.06644,0.12389 -0.249955,0.43996 4.314417,0.18827 c 0.875742,0.0592 1.439751,0.12389 1.754034,0.18795 l 2.186872,0.87078 c 0.564042,0.18795 1.501529,0.31673 2.941281,0.31673 l 29.898861,0.24744 c 0.123883,-0.12356 0.252342,-0.18305 0.311832,-0.18305 l 0.314119,-0.31673 c 1.109714,-0.93353 2.05011,-1.86576 2.83165,-2.75091 z"
       id="path162"
       inkscape:connector-curvature="0" />
    <path
       style="fill-opacity:1;stroke:none;stroke-opacity:1;opacity:1;paint-order:markers stroke fill;fill:#ff0000"
       d="m 66.271962,107.80416 0.31412,0.0644 c 0.18566,0 0.250053,0.0644 0.373609,0.0644 0.49978,0.18795 0.876004,0.371 1.189796,0.43539 0.188276,0.0644 0.373936,0.12846 0.49978,0.12846 h 0.187949 l 5.504442,0.24744 1.063952,-2.25114 -6.19217,0.25234 c -0.126171,0.0592 -0.252342,0.0592 -0.376224,0.12389 -0.252342,0 -0.499453,0.0592 -0.687729,0.12355 -0.502068,0.12388 -0.875677,0.25234 -1.251574,0.3759 -0.126171,0.0644 -0.187949,0.12388 -0.249727,0.12388 h -1.194372 c -0.0621,0.0928 -0.132708,0.18958 -0.196447,0.28241 z"
       id="path164"
       inkscape:connector-curvature="0" />
    <path
       style="fill-opacity:1;stroke:none;stroke-opacity:1;opacity:1;paint-order:markers stroke fill;fill:#ff0000"
       d="m 80.221997,109.37279 c -0.563846,0.18795 -1.001848,0.3115 -1.251901,0.3115 l -2.565253,0.0595 -0.123556,0.25235 2.50086,0.0641 c 0.250054,0 0.687729,0.12388 1.251901,0.37132 0.438002,0.18795 0.811285,0.31674 1.125731,0.31674 l 5.56622,0.18795 1.125403,-2.19197 -6.318341,0.31183 c -0.311504,0 -0.746891,0.12878 -1.311064,0.31673 z"
       id="path166"
       inkscape:connector-curvature="0" />
    <path
       style="fill-opacity:1;stroke:none;stroke-opacity:1;opacity:1;paint-order:markers stroke fill;fill:#ff0000"
       d="m 68.649267,108.99689 c -0.125844,0 -0.311504,0.0592 -0.49978,0.0592 -0.313792,0.0644 -0.625624,0.12878 -1.001521,0.25234 -0.376224,0.12388 -0.626277,0.18795 -0.876004,0.25234 -0.249726,0.0595 -0.373609,0.12355 -0.438001,0.12355 l -1.625184,0.0595 h -0.627585 c -0.02125,0.0209 -0.04118,0.0435 -0.06276,0.0644 -0.05328,0.0618 -0.114077,0.12584 -0.16899,0.18795 h 0.16899 l 0.690343,0.0641 h 1.563732 c 0.125844,0 0.249727,0.0595 0.499453,0.18828 0.06178,0 0.06178,0 0.06178,0 0.564173,0.24744 1.063953,0.37099 1.501955,0.43538 h 0.313792 l 0.687729,0.0644 6.380445,0.3115 c -0.749833,-0.3759 -1.12573,-0.87568 -1.12573,-1.37546 0,-0.18794 0.06178,-0.49945 0.249727,-0.94006 l -5.504442,0.25266 z"
       id="path168"
       inkscape:connector-curvature="0" />
    <path
       style="fill-opacity:1;stroke:none;stroke-opacity:1;opacity:1;paint-order:markers stroke fill;fill:#ff0000"
       d="m 69.025491,116.06213 -0.188275,0.0641 -0.123556,0.0595 -0.564173,0.18795 -0.625624,0.12846 c -0.12617,0.0595 -0.187948,0.0595 -0.187948,0.12388 h -2.56558 l -0.123556,0.25234 1.625183,0.0592 h 0.687729 c 0.126171,0 0.250053,0 0.438002,0.0647 l 0.751794,0.25201 0.373936,0.12388 c 0.125844,0.0595 0.190237,0.0595 0.313793,0.0595 1.437561,0.43997 3.315086,0.62824 5.56622,0.62824 3.941036,0 6.818121,-0.81161 8.757423,-2.43908 l -13.136135,0.24744 c -0.311505,0 -0.687729,0.0641 -0.999233,0.18795 z"
       id="path170"
       inkscape:connector-curvature="0" />
    <path
       style="fill-opacity:1;stroke:none;stroke-opacity:1;opacity:1;paint-order:markers stroke fill;fill:#ff0000"
       d="m 76.842845,111.43565 c -0.311831,0 -0.49978,-0.0641 -0.625951,-0.0641 l -0.687728,-0.18795 c -0.06178,0 -0.06178,0 -0.123556,0 l -6.568394,0.12356 h -0.751795 c -0.311831,0 -0.749506,0.0644 -1.313679,0.31673 -0.18566,0.0592 -0.311504,0.0592 -0.49978,0.12389 -0.499453,0.18795 -0.811284,0.24711 -0.937454,0.24711 l -1.125731,0.0644 h -1.439523 l -0.123882,0.25234 0.873062,0.0641 h 1.628125 c 0.437675,0.12388 0.813899,0.24744 1.125403,0.37132 0.06178,0 0.06178,0 0.06178,0.0641 0.438002,0.12388 0.814226,0.25266 1.190123,0.25266 h 1.313353 l 16.577392,0.18305 c 0.373609,-0.62366 0.811611,-1.37578 1.249286,-2.18707 l -8.131473,0.0595 c -0.561558,0.18795 -1.12573,0.31641 -1.689576,0.31641 z"
       id="path172"
       inkscape:connector-curvature="0" />
    <path
       style="fill-opacity:1;stroke:none;stroke-opacity:1;opacity:1;paint-order:markers stroke fill;fill:#ff0000"
       d="m 68.149487,113.68711 c -0.313792,0.0641 -0.563846,0.0641 -0.690016,0.12356 l -1.187509,0.37622 -0.123555,0.0644 c -0.375898,0.12356 -0.752122,0.18795 -1.251901,0.18795 h -1.877525 l -0.06178,0.24744 h 1.251574 l 0.99956,0.0641 c 0.187948,0 0.375897,0 0.625624,0.0595 l 0.438001,0.18795 0.876004,0.31674 c 0.125844,0 0.375897,0.0592 0.687729,0.12388 h 1.001521 l 14.450141,0.18795 c 0.749506,-0.62857 1.375457,-1.37546 2.00108,-2.19197 l -16.451221,0.25234 z"
       id="path174"
       inkscape:connector-curvature="0" />
    <path
       style="fill-opacity:1;stroke:none;stroke-opacity:1;opacity:1;paint-order:markers stroke fill;fill:#ff0000"
       d="m 81.785402,84.352094 1.313679,0.435387 c 0.250054,0.123882 0.687729,0.187948 1.437235,0.187948 0.376224,0 0.814226,0.06472 1.251901,0.06472 l 7.884035,0.247112 0.999559,-2.127252 h -9.321269 c -1.002175,0 -2.063185,0.187949 -3.127138,0.563846 -0.250053,0.06407 -0.438002,0.123556 -0.62595,0.123556 h -2.688809 l -0.06439,0.252668 2.441371,0.123556 c 0.123882,0 0.311831,0 0.499779,0.128459 z"
       id="path176"
       inkscape:connector-curvature="0" />
    <path
       style="fill-opacity:1;stroke:none;stroke-opacity:1;opacity:1;paint-order:markers stroke fill;fill:#ff0000"
       d="m 93.608186,85.287261 -10.570883,0.188275 c -0.187948,0 -0.502068,0.06407 -0.940069,0.187949 -0.185334,0.06407 -0.311832,0.123555 -0.437675,0.123555 l -0.749834,0.187949 c -0.252341,0.123883 -0.437675,0.123883 -0.502068,0.123883 l -2.689135,0.06407 -0.123556,0.252668 2.439082,0.05916 c 0.187949,0 0.373609,0 0.564173,0.06407 l 1.125403,0.435714 c 0.876004,0.128458 1.563733,0.187948 2.063186,0.252341 0.687728,0 1.189796,0 1.563732,0.06407 l 7.129625,0.187949 z"
       id="path178"
       inkscape:connector-curvature="0" />
    <path
       style="fill-opacity:1;stroke:none;stroke-opacity:1;opacity:1;paint-order:markers stroke fill;fill:#ff0000"
       d="m 92.415774,87.478905 -10.442423,0.183372 c -0.313792,0 -0.687728,0.06407 -1.187181,0.192852 l -1.25419,0.371321 c -0.123882,0.06407 -0.250053,0.06407 -0.311831,0.06407 l -2.689135,0.05949 -0.126171,0.187949 2.565253,0.128459 c 0.188275,0 0.311831,0.06472 0.438002,0.06472 l 1.437235,0.499452 c 0.250053,0.05949 0.502394,0.123883 0.814226,0.123883 h 9.694878 z"
       id="path180"
       inkscape:connector-curvature="0" />
    <path
       style="fill:#ffffff;stroke:none;stroke-width:0.3268671"
       d="m 83.974758,75.095217 c -0.751794,0.182719 -1.37513,0.311505 -1.751354,0.435387 l -2.0658,0.05916 -0.123556,0.188276 2.127578,0.06407 c 0.123556,0 0.311505,0.06439 0.438002,0.123882 0.749507,0.252015 1.37513,0.375897 1.87491,0.439963 l 4.378712,0.123883 0.876004,-1.751354 -5.130833,0.187949 c -0.185661,0 -0.373609,0.05949 -0.623663,0.128785 z"
       id="path182"
       inkscape:connector-curvature="0" />
    <path
       style="fill:#ffffff;stroke:none;stroke-width:0.3268671"
       d="m 86.913947,68.836366 c 0.375897,0.187948 0.687729,0.249726 0.937455,0.249726 l 11.822457,0.126171 0.876001,-1.686961 -12.070219,0.185334 c -0.378185,0 -0.751795,0.06178 -1.189797,0.250053 -0.62595,0.187948 -1.063625,0.311504 -1.187508,0.311504 l -2.127578,0.06439 -0.12617,0.187949 h 2.0658 c 0.249726,0.0621 0.62595,0.187948 0.999559,0.311831 z"
       id="path184"
       inkscape:connector-curvature="0" />
    <path
       style="fill:#ffffff;stroke:none;stroke-width:0.3268671"
       d="m 82.661406,76.906061 c -0.813899,0.247438 -1.251901,0.375897 -1.375783,0.375897 l -2.127252,0.06407 -0.06178,0.188276 2.063186,0.05916 c 0.06178,0 0.187948,0 0.314119,0.06472 0.999233,0.311505 1.686961,0.435387 2.063185,0.435387 h 4.44049 l 0.813899,-1.563732 -5.192611,0.188275 c -0.438002,0.06407 -0.749506,0.128459 -0.937455,0.187949 z"
       id="path186"
       inkscape:connector-curvature="0" />
    <path
       style="fill:#ffffff;stroke:none;stroke-width:0.3268671"
       d="m 85.976166,70.649825 c 0.375897,0.187948 0.687728,0.252341 0.937781,0.252341 l 11.760352,0.123556 0.935494,-1.751354 -11.00627,0.249726 h -0.123882 c -0.94007,0 -1.877525,0.126171 -2.815307,0.438002 -0.249726,0.06407 -0.563845,0.125844 -0.813572,0.125844 h -1.813459 l -0.12617,0.250053 2.124963,0.06178 c 0.187948,0 0.502394,0.06439 0.94007,0.250054 z"
       id="path188"
       inkscape:connector-curvature="0" />
    <path
       style="fill:#ffffff;stroke:none;stroke-width:0.3268671"
       d="m 105.74476,67.710636 c -0.31673,0 -0.56417,0.06178 -0.75212,0.12617 l -1.31597,0.376224 c -0.18795,0 -0.24744,0.05916 -0.3066,0.05916 l -2.12758,0.06439 -0.12878,0.187949 h 1.93963 c 0.18795,0 0.37589,0.0621 0.56384,0.12617 l 0.99956,0.311832 11.44885,0.311831 -0.18795,-1.749066 z"
       id="path190"
       inkscape:connector-curvature="0" />
    <path
       style="fill:#ffffff;stroke:none;stroke-width:0.3268671"
       d="m 104.42879,69.524094 -0.62366,0.126171 -0.3759,0.126171 -0.94006,0.249726 c -0.0592,0 -0.12846,0.06178 -0.12846,0.06178 l -2.18707,0.06211 -0.0595,0.12617 2.05828,0.123556 c 0.12879,0 0.25757,0 0.44552,0.06439 l 1.11821,0.311504 c 0.069,0.06211 0.25725,0.06211 0.4452,0.06211 l 4.69021,0.187949 0.37623,-0.561558 h 0.24743 c 0.7518,0.311504 1.24668,0.438002 1.43462,0.438002 l 5.25472,0.123556 -0.11898,-1.687288 -4.87816,0.250053 c -0.18828,0 -0.37623,0 -0.56418,0.06178 l -0.81161,0.249726 c 0,0 -0.12846,0 -0.31641,0.06211 l 0.3759,-0.687728 z"
       id="path192"
       inkscape:connector-curvature="0" />
    <path
       style="fill:#ffffff;stroke:none;stroke-width:0.3268671"
       d="m 91.230554,59.643555 0.811611,0.311505 c 0.185661,0.0621 0.502068,0.126497 1.001848,0.126497 l 11.325287,0.123556 0.74232,-1.501628 H 93.484303 c -0.563846,0.06178 -0.94007,0.06178 -1.256477,0.187949 l -0.935167,0.250053 c -0.187948,0.06178 -0.561884,0.06178 -1.12573,0.123556 h -1.43985 l -0.123556,0.252342 h 1.563406 c 0.438002,0 0.749506,0.06178 1.063625,0.12617 z"
       id="path194"
       inkscape:connector-curvature="0" />
    <path
       style="fill:#ffffff;stroke:none;stroke-width:0.3268671"
       d="m 90.354877,61.518792 0.749834,0.249726 c 0.187948,0.06178 0.437675,0.06178 0.687728,0.126171 l 11.636791,0.06178 0.87078,-1.689576 -11.819843,0.250053 c -0.373936,0 -0.623662,0 -0.873389,0.06407 l -1.251901,0.373609 c -0.187948,0.06439 -0.375897,0.06439 -0.687728,0.06439 l -1.877525,0.06178 -0.06178,0.249726 h 1.563406 c 0.249726,0 0.62595,0.0621 1.063625,0.188276 z"
       id="path196"
       inkscape:connector-curvature="0" />
    <path
       style="fill:#ffffff;stroke:none;stroke-width:0.3268671"
       d="m 108.93106,59.890994 c 0.31674,0.12617 0.62334,0.190563 0.94007,0.252341 l 4.74971,0.123556 0.82141,-1.563406 h -4.4431 c -0.75212,0 -1.50392,0.187949 -2.38482,0.438002 -0.24711,0.06178 -0.43539,0.123556 -0.55404,0.123556 h -2.12758 l -0.12846,0.252342 2.18674,0.06178 c 0.12879,0 0.44552,0.123556 0.94007,0.311832 z"
       id="path198"
       inkscape:connector-curvature="0" />
    <path
       style="fill:#ffffff;stroke:none;stroke-width:0.3268671"
       d="m 90.228707,64.207928 c -0.311505,0 -0.623336,0.06407 -1.001848,0.187948 -0.687728,0.249727 -1.061338,0.314119 -1.249286,0.314119 l -2.127578,0.06178 -0.06178,0.249727 H 87.8514 c 0.187949,0.06211 0.314119,0.126497 0.438002,0.126497 0.877965,0.311505 1.377745,0.435387 1.627798,0.435387 l 4.626151,0.187949 0.940069,-1.813459 z"
       id="path200"
       inkscape:connector-curvature="0" />
    <path
       style="fill:#ffffff;stroke:none;stroke-width:0.3268671"
       d="m 89.355645,63.270146 0.811284,0.250053 c 0.250053,0.125844 0.563846,0.125844 0.937782,0.187949 l 4.319222,0.12617 h 7.065237 l 0.8809,-1.753968 -11.827684,0.187948 c -0.311832,0 -0.749507,0.126171 -1.375457,0.314119 -0.561558,0.123556 -1.063626,0.250054 -1.375457,0.250054 l -1.939629,0.06178 -0.125844,0.187948 2.00108,0.06178 c 0.126171,0 0.314119,0.06178 0.628566,0.126171 z"
       id="path202"
       inkscape:connector-curvature="0" />
    <path
       style="fill:#ffffff;stroke:none;stroke-width:0.3268671"
       d="m 94.543353,65.771333 h -0.05949 l -5.257004,0.187949 c -0.309216,0.06178 -0.873062,0.187948 -1.749066,0.437675 -0.126171,0.0621 -0.249726,0.126497 -0.375897,0.126497 l -2.251134,0.06178 v 0.187949 h 2.063185 c 0.125844,0.06178 0.31412,0.123555 0.49978,0.187948 0.375897,0.06178 0.625624,0.185661 0.875677,0.250054 0.249727,0.123555 0.375897,0.123555 0.437675,0.123555 l 11.822781,0.190564 0.94007,-1.753969 z"
       id="path204"
       inkscape:connector-curvature="0" />
    <path
       style="fill:#ffffff;stroke:none;stroke-width:0.3268671"
       d="m 109.74267,75.906501 c 0.63314,0.247439 1.06853,0.376224 1.18718,0.376224 0.12879,0.05916 0.37623,0.05916 0.75213,0.05916 l 4.94778,0.187949 -0.12878,-1.751354 -5.00695,0.187949 c -0.56418,0.187948 -0.99956,0.247438 -1.247,0.376224 -0.43539,0.123555 -0.7518,0.187948 -0.94007,0.187948 l -2.06809,0.05916 -0.11865,0.188276 2.05828,0.06407 c 0.12846,0 0.31673,0 0.56417,0.06439 z"
       id="path206"
       inkscape:connector-curvature="0" />
    <path
       style="fill:#ffffff;stroke:none;stroke-width:0.3268671"
       d="m 106.3681,64.333771 c -0.56385,0.123883 -0.94007,0.250054 -1.12802,0.311832 l -2.18674,0.06439 -0.0595,0.123556 2.11777,0.06211 c 0.069,0 0.18795,0.06407 0.31641,0.125844 0.62366,0.188275 1.06885,0.311831 1.2568,0.376224 0.18795,0 0.62334,0.06178 1.30616,0.123556 l 3.69099,0.187948 0.37622,-0.561231 c 0.18795,0 0.31641,0.06178 0.50468,0.123556 l 0.3066,0.126171 c 0.25725,0.06178 0.69264,0.123556 1.31597,0.123556 l 3.93842,0.187948 2.06809,-1.815747 -6.25395,0.252342 c -0.24711,0 -0.69263,0.06211 -1.18718,0.187948 -0.0693,0.06211 -0.18795,0.06211 -0.31673,0.123883 l 0.24744,-0.564173 -5.25439,0.252342 c -0.30693,0 -0.62367,0.06211 -1.05905,0.187948 z"
       id="path208"
       inkscape:connector-curvature="0" />
    <path
       style="fill:#ffffff;stroke:none;stroke-width:0.3268671"
       d="m 111.75127,76.718112 c -0.25724,0.06407 -0.50468,0.06407 -0.75212,0.128459 l -1.06853,0.306928 c -0.24744,0.0693 -0.37622,0.128459 -0.43539,0.128459 l -2.12757,0.06407 -0.12879,0.188276 h 2.12758 c 0.12878,0 0.50468,0.123882 1.00936,0.306601 0.43539,0.187949 0.81162,0.252668 1.11822,0.252668 h 5.32368 l -0.12846,-1.563732 z"
       id="path210"
       inkscape:connector-curvature="0" />
    <path
       style="fill:#ffffff;stroke:none;stroke-width:0.3268671"
       d="m 105.80425,66.021059 -1.18751,0.31412 c -0.12878,0.123882 -0.43538,0.123882 -0.88058,0.123882 h -1.56373 l -0.11865,0.249727 1.81084,0.06439 c 0.43539,0 0.62334,0 0.56417,0 l 1.24668,0.438002 c 0.18794,0.06178 0.94007,0.123555 2.12757,0.123555 l 8.0746,0.126171 2.18707,-1.751681 -10.82584,0.188276 c -0.6825,0 -1.11788,0.06178 -1.43462,0.123555 z"
       id="path212"
       inkscape:connector-curvature="0" />
    <path
       style="fill:#ffffff;stroke:none;stroke-width:0.3268671"
       d="m 117.62932,60.58101 -1.18751,0.373609 c -0.31673,0.06439 -0.75212,0.126171 -1.44475,0.126171 h -0.81161 l 0.37622,-0.813899 -5.19522,0.250053 c -0.3066,0 -0.68283,0.06407 -1.24667,0.252342 -0.50468,0.123555 -0.81161,0.249726 -0.94007,0.311504 l -2.18707,0.06178 -0.12846,0.126171 2.19688,0.06178 c 0.17781,0.0621 0.3066,0.126498 0.36609,0.126498 1.00936,0.311504 1.5634,0.499453 1.75135,0.499453 l 4.5124,0.188275 0.3759,-0.876003 0.93026,0.06178 h 0.25725 c 0.49487,0 0.81128,0 1.05872,0.126498 l 0.87077,0.249726 0.56418,0.123556 h 0.0693 l 4.69022,0.187949 2.05828,-1.751354 -6.31311,0.250053 c -0.31674,0 -0.50468,0.06407 -0.62334,0.06407 z"
       id="path214"
       inkscape:connector-curvature="0" />
    <path
       style="fill:#ffffff;stroke:none;stroke-width:0.3268671"
       d="m 114.80911,62.582417 c -0.49487,0.185661 -0.8711,0.250054 -1.1875,0.250054 h -0.30693 l 0.30693,-0.687729 -5.25439,0.187949 c -0.24744,0 -0.62367,0.123556 -1.12835,0.311504 -0.49455,0.123883 -0.87077,0.250054 -1.05872,0.250054 l -2.12758,0.06178 -0.12846,0.187948 2.06809,0.06178 c 0.18795,0 0.50468,0.06439 0.99956,0.252341 0.43539,0.187949 0.75179,0.250054 0.88058,0.250054 l 4.8092,0.185333 0.44519,-0.749506 h 0.30693 c 0.3164,0 0.56384,0 0.69263,0.06178 l 0.94007,0.314446 c 0.18795,0.06178 0.43538,0.125844 0.68282,0.125844 l 4.57157,0.188275 2.05828,-1.689576 -6.12516,0.187949 c -0.50469,0 -0.99956,0.123556 -1.44476,0.249726 z"
       id="path216"
       inkscape:connector-curvature="0" />
    <path
       style="fill:#ffffff;stroke:none;stroke-width:0.3268671"
       d="m 85.664334,71.525502 c -0.628238,0.190236 -0.940069,0.249726 -0.940069,0.249726 -0.249727,0.06439 -0.375898,0.06439 -0.375898,0.06439 -0.06178,0.06178 -0.06178,0.06178 -0.185333,0.06178 h -2.189683 v 0.252341 h 2.12529 c 0.06439,0 0.187948,0.06178 0.375897,0.123883 l 0.94007,0.314119 c 0.18566,0.123556 0.373609,0.123556 0.623662,0.123556 l 4.692505,0.252341 0.937781,-1.753969 -5.380559,0.187949 c -0.185661,0 -0.438002,0.06178 -0.623663,0.123884 z"
       id="path218"
       inkscape:connector-curvature="0" />
    <path
       style="fill:#ffffff;stroke:none;stroke-width:0.3268671"
       d="m 108.49568,73.967199 c 0.56417,0 0.94006,0.05916 1.12801,0.123556 l 0.87078,0.311831 c 0.24744,0.06407 0.99956,0.128459 2.25636,0.187948 l 3.75015,0.06407 -0.12846,-1.751354 -4.99715,0.252342 c -0.18794,0.05949 -0.44552,0.05949 -0.56417,0.123556 l -1.12802,0.311831 c -0.18795,0.05949 -0.50468,0.05949 -0.94007,0.05949 l -1.24667,0.06929 0.3759,-0.816514 -5.19523,0.187949 c -0.3164,0.06439 -0.75179,0.123883 -1.18718,0.311831 -0.50468,0.128786 -0.8809,0.247439 -0.99956,0.247439 l -2.191968,0.06929 -0.123556,0.182719 1.874914,0.06472 c 0.25266,0 0.44061,0 0.68805,0.05916 l 0.81129,0.316734 c 0.25724,0.05949 0.44552,0.123556 0.56417,0.123556 l 4.87849,0.187948 0.3759,-0.752121 z"
       id="path220"
       inkscape:connector-curvature="0" />
    <path
       style="fill:#ffffff;stroke:none;stroke-width:0.3268671"
       d="m 100.04976,76.846571 -1.187512,0.376224 c -0.187949,0.05916 -0.499453,0.05916 -0.87535,0.05916 l -1.628126,0.06407 -0.123555,0.188276 h 1.563732 l 0.499453,0.05916 c 0.187948,0 0.375897,0.06472 0.563846,0.128785 l 0.876003,0.247439 c 0.247439,0.123882 0.870779,0.123882 1.998789,0.123882 h 3.37458 l 0.82109,-1.563732 -5.1949,0.188275 c -0.18795,0 -0.37622,0.06407 -0.68805,0.128459 z"
       id="path222"
       inkscape:connector-curvature="0" />
    <path
       style="fill:#ffffff;stroke:none;stroke-width:0.3268671"
       d="m 83.78681,73.531812 c -0.249727,0.118653 -0.437675,0.118653 -0.563846,0.187948 l -2.127578,0.05916 -0.05949,0.188276 h 2.063185 c 0.188276,0 0.561558,0.123556 1.125731,0.375897 0.123555,0 0.187948,0.05949 0.187948,0.05949 l 0.438002,0.06407 0.125844,0.06439 4.814099,0.123555 0.876004,-1.686961 -5.252101,0.187949 c -0.314119,0.05949 -0.878292,0.187948 -1.627798,0.376224 z"
       id="path224"
       inkscape:connector-curvature="0" />
    <path
       style="fill:#ffffff;stroke:none;stroke-width:0.3268671"
       d="m 108.8026,72.15374 c 0.25725,0 0.50436,0 0.69263,0.06178 l 0.94007,0.376224 c 0.18795,0.06178 0.81129,0.123556 1.87001,0.187949 l 4.06721,0.123555 -0.18795,-1.689576 -4.8092,0.187949 c -0.31673,0 -0.50468,0.06178 -0.63346,0.06178 l -1.30617,0.376224 h -0.94006 l 0.30692,-0.625951 -5.12593,0.187949 c -0.3066,0.06178 -0.56417,0.06178 -0.75212,0.123883 l -1.18751,0.314119 c -0.18794,0.06178 -0.3066,0.06178 -0.37589,0.06178 l -2.127581,0.06178 -0.118653,0.190563 1.939634,0.06178 c 0.24711,0 0.43538,0.06211 0.55404,0.06211 l 0.94006,0.314119 c 0.25725,0.06178 0.82142,0.123556 1.63271,0.187949 l 3.69098,0.123555 0.43539,-0.749506 z"
       id="path226"
       inkscape:connector-curvature="0" />
    <path
       style="fill:#ffffff;stroke:none;stroke-width:0.3268671"
       d="m 100.30242,75.342656 c -0.12878,0.06407 -0.25266,0.06407 -0.31673,0.06407 -0.187949,0.05949 -0.311831,0.05949 -0.375897,0.05949 -0.05949,0.06439 -0.123883,0.06439 -0.123883,0.06439 l -2.191644,0.05916 -0.11898,0.188276 2.127578,0.06407 c 0.370995,0.06439 0.623336,0.123882 0.746896,0.187948 0.55927,0.187949 0.876,0.311831 1.06395,0.311831 l 4.87849,0.187949 0.94007,-1.751354 -5.38317,0.247438 c -0.18795,0 -0.62334,0.128459 -1.24668,0.316735 z"
       id="path228"
       inkscape:connector-curvature="0" />
    <path
       style="fill:#ffffff;stroke:none;stroke-width:0.3268671"
       d="m 120.94408,58.765263 c -0.62333,0 -1.37545,0.126171 -2.31552,0.376224 -0.18795,0.06178 -0.31674,0.06178 -0.43539,0.06178 l -2.12758,0.06178 -0.12846,0.187949 2.18674,0.06439 c 0.31674,0.06178 0.63347,0.185333 0.88058,0.249726 0.43539,0.187949 0.81161,0.314446 1.12835,0.314446 l 4.62092,0.123556 1.75168,-1.501628 z"
       id="path230"
       inkscape:connector-curvature="0" />
    <path
       style="fill:#ffffff;stroke:none;stroke-width:0.3268671"
       d="m 60.526292,32.461613 -0.09773,-1.478093 c 7.484603,-2.356385 7.296328,-8.019357 7.836639,-9.834777 l 0.92961,0.305293 c 3.27e-4,3.27e-4 6.54e-4,3.27e-4 9.81e-4,3.27e-4 C 65.435509,12.918882 58.289541,6.7734539 49.931222,4.0470554 49.858331,4.0297314 49.786747,4.0124075 49.730525,3.9944298 45.274019,3.3364463 40.855103,5.4676198 38.745829,7.2912114 l -2.006964,-0.469708 c 0.605685,-0.9524907 1.235231,-3.2251978 1.339502,-4.2744412 3.27e-4,-0.00163 3.27e-4,-0.00294 3.27e-4,-0.00458 C 35.166961,2.7274929 32.232022,3.3093163 29.34791,4.3425432 20.662789,7.4533375 14.169345,13.952436 10.810328,21.816859 l 0.04181,0.0072 c 2.425354,0.428523 5.699745,-0.0961 7.80794,-0.850835 l 0.103748,1.800384 c -5.14734,3.141193 -7.109817,7.627771 -7.009927,13.646048 L 10.301531,36.29087 c -0.08858,-1.136843 -0.8738469,-5.676374 -1.6057678,-7.219513 -0.00271,-0.0052 -0.00526,-0.01046 -0.00798,-0.01602 -0.8749579,5.195226 -0.4773895,10.679075 1.4258918,15.991647 0.268293,0.749179 0.570089,1.476131 0.887706,2.191317 0,0 0,0 1.63e-4,-6.54e-4 0.450554,-2.334485 0.07469,-6.371621 -0.410349,-8.023934 l 1.52039,0.319676 c 1.697061,6.852115 6.338313,11.351114 11.298619,12.817767 l 0.09672,1.479074 c -2.001113,-0.865871 -5.836375,-0.555674 -8.521686,0.05589 -0.0019,3.27e-4 -0.0042,6.54e-4 -0.0059,0.0013 7.507581,9.630159 20.120958,14.298475 32.363438,11.414854 l -0.0742,-0.09316 C 46.281751,64.265456 45.3845,62.965506 43.883853,62.098 l 2.26617,-0.920784 c 6.035274,2.054033 11.246517,-1.21758 13.519224,-3.328488 l 1.141747,0.614837 c 0.772387,-0.66354 1.507838,-1.360421 2.206353,-2.089008 l -0.686421,-0.453038 c 2.601862,-1.796134 6.144448,-9.118284 6.628865,-11.995042 l 1.297008,0.460883 c 0.201351,-0.600455 0.386357,-1.206794 0.55306,-1.819996 l -2.06482,-1.050878 C 68.617561,34.21166 65.27894,31.839912 60.526292,32.461613 Z M 21.579226,21.873734 21.405595,19.881152 c 5.49895,-1.861181 10.400846,-5.996377 13.233803,-10.468573 l 2.745357,0.4213317 c -1.748412,5.3828473 -1.157764,8.8460043 1.613416,13.2590373 l -1.581383,1.321851 C 35.804679,22.938994 31.303065,18.822429 21.579226,21.873734 Z M 41.601014,60.860482 C 38.963196,58.021968 30.137784,55.12952 27.130541,54.584633 l -0.192492,-1.444099 c 7.650358,0.827628 11.272045,-2.956186 13.762119,-6.874342 l 1.953358,0.922092 c -1.76018,2.034748 -3.330122,8.21842 0.954778,12.629165 z M 44.43201,44.605053 41.992927,43.531949 c 1.886677,-4.999433 1.436908,-10.783673 -2.238713,-16.819274 l 1.423507,-1.15711 c 5.64859,4.894508 10.292064,5.177248 16.613674,5.614596 l 0.165722,1.670291 C 51.117423,35.182455 47.701661,39.540901 44.43201,44.605053 Z"
       id="path232"
       inkscape:connector-curvature="0" />
    <path
       style="fill:#ffffff;stroke:none;stroke-width:0.3268671"
       d="m 70.278373,24.261825 c -0.0033,0.02092 -0.0072,0.04086 -0.01046,0.06178 -0.647851,5.744689 0.165721,11.939148 1.024401,15.847825 0.002,0.0056 0.01863,0.06766 0.04642,0.170951 1.008711,-5.201109 0.726952,-10.716992 -1.060357,-16.080554 z"
       id="path234"
       inkscape:connector-curvature="0" />
    <path
       style="fill:#ffffff;stroke:none;stroke-width:0.3268671"
       d="m 56.075016,122.44453 c -0.373936,-0.31183 -0.937782,-0.44061 -1.749066,-0.44061 h -2.815306 l -2.815307,7.19401 h 1.501628 l 1.063952,-2.75091 h 1.187182 c 0.438002,0 0.687728,0.0647 0.813899,0.18795 l 0.0621,0.0647 c 0.12944,0.16213 0.12944,0.4076 0.06407,0.6874 l -0.375897,1.31139 c -0.07322,0.23763 -0.06145,0.42918 0,0.49945 h 1.751354 l 0.06178,-0.24743 c -0.187948,-0.12323 -0.249726,-0.31641 -0.187948,-0.56385 l 0.0621,-0.25234 0.253649,-0.8845 c 0.142187,-0.55404 0.107539,-0.79952 0.06047,-0.92634 -0.06439,-0.18795 -0.188276,-0.31184 -0.438002,-0.3759 0.499779,-0.12388 0.868812,-0.38309 1.187508,-0.68806 0.294834,-0.28176 0.51645,-0.7884 0.625623,-1.25157 0.160165,-0.77173 0.06439,-1.2519 -0.313792,-1.56341 z m -1.249613,1.6229 c -0.125844,0.75212 -0.625624,1.12802 -1.501301,1.12802 -0.0621,0 -0.0621,0 -0.123882,0 h -1.43985 l 0.813899,-1.93931 h 1.375457 c 0.687729,0 0.99956,0.25202 0.875677,0.81129 z"
       id="path236"
       inkscape:connector-curvature="0" />
    <path
       style="fill:#ffffff;stroke:none;stroke-width:0.3268671"
       d="m 86.03827,122.56809 c -0.311831,-0.3759 -0.937781,-0.56417 -1.751681,-0.56417 h -2.439082 l -2.189356,5.44266 -0.688055,1.75135 h 1.501954 l 1.001848,-2.49824 h 1.937014 c 0.734144,0 1.313353,-0.31674 1.751354,-0.62857 0.625951,-0.49945 1.001848,-1.12311 1.189797,-1.93963 0.123882,-0.6874 0.0621,-1.1875 -0.313793,-1.5634 z m -1.187508,1.69219 c -0.126497,0.74722 -0.816514,1.24667 -1.43985,1.24667 h -1.437561 l 0.876004,-2.25081 h 1.125403 c 0.749507,0 1.001848,0.3759 0.876004,1.00414 z"
       id="path238"
       inkscape:connector-curvature="0" />
    <path
       style="fill:#ffffff;stroke:none;stroke-width:0.3268671"
       d="m 105.74476,120.06461 h -1.44475 l -0.43539,1.31597 h 1.37546 z"
       id="path240"
       inkscape:connector-curvature="0" />
    <path
       style="fill:#ffffff;stroke:none;stroke-width:0.3268671"
       d="m 60.080119,122.00392 h -1.501628 l -2.503475,6.19478 -0.435387,0.99923 h 1.560791 l 2.127578,-5.31387 z"
       id="path242"
       inkscape:connector-curvature="0" />
    <path
       style="fill:#ffffff;stroke:none;stroke-width:0.3268671"
       d="m 43.567119,122.00392 h -2.189356 l -3.503034,5.19522 0.561557,-5.19522 H 36.24693 l -2.877084,7.19401 h 1.43985 l 2.251133,-5.75384 -0.687728,5.75384 h 1.375457 l 3.878932,-5.87772 -2.377305,5.87772 h 1.375457 l 1.815747,-4.50226 z"
       id="path244"
       inkscape:connector-curvature="0" />
    <path
       style="fill:#ffffff;stroke:none;stroke-width:0.3268671"
       d="m 45.944424,123.00871 -3.503035,4.69021 -1.063626,1.49901 h 1.563406 l 1.061337,-1.37545 h 2.691424 l -0.187949,1.37545 h 1.501628 l 0.438002,-7.19401 H 46.69393 Z m 0.811284,3.50303 h -1.87491 l 1.063626,-1.50424 1.12573,-1.49934 z"
       id="path246"
       inkscape:connector-curvature="0" />
    <path
       style="fill:#ffffff;stroke:none;stroke-width:0.3268671"
       d="m 97.927408,122.00392 h -1.568636 l -2.562638,6.57068 -0.252341,0.62333 h 4.819002 l 0.564172,-1.25157 h -3.384382 z"
       id="path248"
       inkscape:connector-curvature="0" />
    <path
       style="fill:#ffffff;stroke:none;stroke-width:0.3268671"
       d="m 106.18015,123.25614 0.50468,-1.25222 h -4.75951 l -2.874797,7.19401 h 4.942887 l 0.49455,-1.25157 h -3.43341 l 0.75179,-1.87524 h 2.99835 l 0.49488,-1.25157 h -3.05784 l 0.68282,-1.56341 z"
       id="path250"
       inkscape:connector-curvature="0" />
    <path
       style="fill:#ffffff;stroke:none;stroke-width:0.3268671"
       d="m 63.518434,122.00392 -2.124636,5.3191 c -0.188276,0.49946 -0.49978,0.81129 -0.937782,0.81129 -0.375897,0 -0.564173,-0.18795 -0.44029,-0.62334 0.04805,-0.22161 0.128459,-0.44061 0.314119,-0.94007 h -1.313679 c -0.187948,0.44029 -0.311831,0.81619 -0.375897,1.06363 -0.123882,0.56417 -0.06472,1.00087 0.187949,1.31597 0.12617,0.12388 0.314119,0.24743 0.49978,0.31215 0.229133,0.085 0.502067,0.12356 0.816187,0.12356 0.749833,0 1.360094,-0.19677 1.813458,-0.55894 0.386031,-0.3187 0.734144,-0.87274 1.125404,-1.81608 l 0.873389,-2.25603 1.06624,-2.75124 z"
       id="path252"
       inkscape:connector-curvature="0" />
    <path
       style="fill:#ffffff;stroke:none;stroke-width:0.3268671"
       d="m 67.459471,123.00871 -3.503035,4.69021 -1.125404,1.49901 h 1.627799 l 1.001847,-1.37545 h 2.688809 l -0.125844,1.37545 h 1.501628 l 0.437675,-7.19401 h -1.751354 z m 0.813899,3.50303 h -1.875237 l 1.061338,-1.50424 1.063952,-1.49934 z"
       id="path254"
       inkscape:connector-curvature="0" />
    <path
       style="fill:#ffffff;stroke:none;stroke-width:0.3268671"
       d="m 74.653489,127.19914 0.564172,-5.19522 h -2.189682 l -2.876758,7.19401 h 1.436908 l 2.254076,-5.75384 -0.688056,5.75384 h 1.375784 l 3.94071,-5.87772 -2.441697,5.87772 h 1.439849 l 2.189356,-5.50182 0.687729,-1.69219 h -2.189356 z"
       id="path256"
       inkscape:connector-curvature="0" />
    <path
       style="fill:#ffffff;stroke:none;stroke-width:0.3268671"
       d="m 91.418503,121.7568 c -2.856165,0 -4.952364,3.14185 -4.952364,5.39723 0,1.10122 0.481476,2.23218 2.575059,2.23218 3.653394,0 4.973937,-3.80669 4.973937,-5.33513 0,-1.44802 -0.90869,-2.29428 -2.596632,-2.29428 z m -2.003695,6.37751 c -0.984197,0 -1.378072,-0.52822 -1.378072,-1.3601 0,-1.63793 1.412393,-3.70634 3.00587,-3.70634 0.908037,0 1.439849,0.50109 1.439849,1.29995 0,1.2823 -1.307795,3.76649 -3.067647,3.76649 z"
       id="path258"
       inkscape:connector-curvature="0" />
  </g>
</svg>
