<?xml version="1.0" encoding="UTF-8" standalone="no"?>
<!-- Created with Inkscape (http://www.inkscape.org/) -->

<svg
   xmlns:dc="http://purl.org/dc/elements/1.1/"
   xmlns:cc="http://creativecommons.org/ns#"
   xmlns:rdf="http://www.w3.org/1999/02/22-rdf-syntax-ns#"
   xmlns:svg="http://www.w3.org/2000/svg"
   xmlns="http://www.w3.org/2000/svg"
   xmlns:sodipodi="http://sodipodi.sourceforge.net/DTD/sodipodi-0.dtd"
   xmlns:inkscape="http://www.inkscape.org/namespaces/inkscape"
   version="1.1"
   id="svg2"
   xml:space="preserve"
   width="191.06065"
   height="252"
   viewBox="0 0 191.06065 251.99999"
   sodipodi:docname="fk-sarajevo-seeklogo.com.svg"
   inkscape:version="0.92.4 (5da689c313, 2019-01-14)"><metadata
     id="metadata8"><rdf:RDF><cc:Work
         rdf:about=""><dc:format>image/svg+xml</dc:format><dc:type
           rdf:resource="http://purl.org/dc/dcmitype/StillImage" /><dc:title></dc:title></cc:Work></rdf:RDF></metadata><defs
     id="defs6" /><sodipodi:namedview
     pagecolor="#ffffff"
     bordercolor="#666666"
     borderopacity="1"
     objecttolerance="10"
     gridtolerance="10"
     guidetolerance="10"
     inkscape:pageopacity="0"
     inkscape:pageshadow="2"
     inkscape:window-width="1366"
     inkscape:window-height="705"
     id="namedview4"
     showgrid="false"
     fit-margin-top="1"
     fit-margin-right="1"
     fit-margin-bottom="1"
     fit-margin-left="1"
     inkscape:zoom="0.29732614"
     inkscape:cx="-75.97052"
     inkscape:cy="98.64508"
     inkscape:window-x="-8"
     inkscape:window-y="-8"
     inkscape:window-maximized="1"
     inkscape:current-layer="g10" /><g
     id="g10"
     inkscape:groupmode="layer"
     inkscape:label="fk-sarajevo-seeklogo.com"
     transform="matrix(1.3333333,0,0,-1.3333333,-57.438972,354.18619)"><g
       id="g87"
       transform="matrix(0.27901786,0,0,0.27901786,31.600092,55.796555)"><path
         inkscape:connector-curvature="0"
         id="path12"
         style="fill:#510520;fill-opacity:1;fill-rule:nonzero;stroke:none"
         d="m 297.9292,77.38965 h -0.005 c 42,43.0498 65.98681,52.36035 110.7749,77.1748 38.8501,21.52539 78.2251,46.09571 108.6748,93.10059 21.45557,33.12012 34.65039,62.82471 34.65039,161.52441 l -3.15039,340.2002 c 0,0 -71.3999,-31.5 -142.2749,-33.07495 -67.71045,-1.50489 -108.66992,24.67431 -108.66992,24.67431 0,0 -40.96484,-26.1792 -108.67481,-24.67431 -70.875,1.57495 -142.27514,33.07495 -142.27514,33.07495 l -3.1499,-340.2002 c 0,-98.6997 13.19482,-128.40429 34.65014,-161.52441 30.44971,-47.00488 69.82471,-71.5752 108.67481,-93.10059 44.78759,-24.81445 68.7749,-34.125 110.7749,-77.1748 h -0.005 0.005 z" /><path
         inkscape:connector-curvature="0"
         id="path14"
         style="fill:#ffffff;fill-opacity:1;fill-rule:nonzero;stroke:none"
         d="m 209.92236,151.12939 -18.95166,10.32374 c -37.30078,20.66699 -76.20263,44.67822 -105.88232,90.49414 -20.16577,31.12939 -33.38403,58.89209 -33.38403,157.24218 0,0 2.84179,306.86621 3.04223,328.521 22.95313,-8.91528 78.35645,-28.0249 134.33301,-29.2688 57.69336,-1.28223 96.45654,16.73584 108.84961,23.4624 12.39209,-6.72656 51.15185,-24.74463 108.84521,-23.4624 55.97608,1.2439 111.37989,20.35352 134.33252,29.2688 0.20069,-21.65527 3.04248,-328.59375 3.04248,-328.59375 0,-98.27734 -13.21875,-126.04004 -33.38476,-157.16943 -29.6792,-45.81592 -68.58008,-69.82715 -105.88184,-90.49414 l -18.95019,-10.32227 c -31.4375,-16.96338 -54.62793,-29.50391 -88.00586,-62.57471 -33.37744,33.06983 -56.56787,45.61035 -88.0044,62.57324 m -21.28613,537.36695 c -42.69043,0.94897 -84.94629,11.69922 -114.19897,21.12036 -0.57105,-61.70239 -2.77979,-300.2168 -2.78247,-300.51514 0.0078,-92.78955 11.95459,-118.17724 30.17773,-146.3081 27.19873,-41.98535 62.25781,-63.63965 98.80664,-83.89014 l 18.75684,-10.2168 c 28.39941,-15.32373 50.36474,-27.19043 78.53076,-52.62939 28.16699,25.43994 50.13183,37.30566 78.53222,52.63037 l 18.75538,10.21582 c 36.54882,20.25049 71.60791,41.90479 98.80664,83.89014 18.22314,28.13086 30.16992,53.51758 30.17822,146.30615 -0.003,0.2959 -2.21192,238.81421 -2.78272,300.51709 -29.25244,-9.42114 -71.50879,-20.17139 -114.19921,-21.12036 -51.39747,-1.14185 -89.58106,12.21289 -109.28858,21.21216 -19.70898,-8.99878 -57.89453,-22.3545 -109.29248,-21.21216 z" /><path
         inkscape:connector-curvature="0"
         id="path16"
         style="fill:#ffffff;fill-opacity:1;fill-rule:nonzero;stroke:none"
         d="M 505.35596,379.97656 C 502.94922,310.37598 491.55811,292.7876 478.59912,272.78418 453.70752,234.3584 420.74023,214.05371 386.30859,194.97656 l -18.57568,-10.11767 c -24.51709,-13.2295 -45.42187,-24.542 -69.80615,-44.58008 -24.38379,20.03711 -45.28858,31.34961 -69.80469,44.5791 l -18.57764,10.11865 c -34.43115,19.07715 -67.39843,39.38184 -92.29004,77.80762 -14.60107,22.53809 -27.21142,42.00928 -27.2246,136.25879 0.0044,0.45752 1.77685,191.89404 2.55615,276.07056 27.69385,-7.51001 61.50244,-14.22876 95.64209,-14.98755 3.0664,-0.0684 6.08838,-0.0889 9.06494,-0.0649 l 1.23633,-0.12159 V 439.11381 c 0,-70.69971 39.90039,-157.5 161.00049,-157.5 81.69628,0 124.97558,52.09619 145.97656,101.49072 l -0.15039,-3.12793 z" /><path
         inkscape:connector-curvature="0"
         id="path18"
         style="fill:#ffffff;fill-opacity:1;fill-rule:nonzero;stroke:none"
         d="m 410.12061,647.07153 c 4.8706,-13.2644 12.61084,-39.70044 10.65869,-69.70727 -2.57862,-39.65283 -23.20459,-65.94922 -23.20459,-65.94922 3.6372,-2.54541 7.6289,-5.1875 12.00439,-7.90039 5.69385,-3.52979 11.32617,-6.61279 16.70752,-9.28906 0,0 18.52051,24.00341 22.84277,60.73925 3.54883,30.15918 -3.18066,56.28174 -7.16357,68.39893 l -0.29102,0.97803 c -9.14062,9.50341 -19.90283,17.43457 -31.84277,23.34863 z" /><path
         inkscape:connector-curvature="0"
         id="path20"
         style="fill:#ffffff;fill-opacity:1;fill-rule:nonzero;stroke:none"
         d="m 448.5625,615.79346 c 3.41309,-11.86328 7.69238,-32.96045 5.46729,-59.4292 -3.50098,-41.64942 -21.5376,-65.10303 -21.5376,-65.10303 8.87988,-4.07178 16.79004,-6.9834 22.75439,-8.94336 l 0.29541,0.51172 c 11.49658,17.87549 18.16602,39.15088 18.16602,61.98389 0,27.32812 -9.55371,52.42431 -25.50342,72.13086 z" /><path
         inkscape:connector-curvature="0"
         id="path22"
         style="fill:#ffffff;fill-opacity:1;fill-rule:nonzero;stroke:none"
         d="m 376.32959,603.26465 c -0.21436,-35.00586 -12.25049,-60.8999 -12.25049,-60.8999 0,0 6.82715,-11.15039 27.82129,-26.84571 0,0 18.37158,21.54785 23.2793,57.99561 3.76416,27.95703 -4.74658,59.65771 -10.08887,75.91333 l -0.18652,0.55932 c -11.31446,4.94849 -23.58203,8.12452 -36.44971,9.17725 0,0 8.05029,-27.19971 7.875,-55.8999 z" /><path
         inkscape:connector-curvature="0"
         id="path24"
         style="fill:#ffffff;fill-opacity:1;fill-rule:nonzero;stroke:none"
         d="m 421.95361,449.38721 c -13.92285,2.41406 -40.6875,8.92822 -65.69824,25.62207 -33.05127,22.06006 -45.51172,53.0708 -45.51172,53.0708 -4.02246,-1.87695 -8.30664,-4.0127 -12.84375,-6.44629 -5.90381,-3.16553 -11.38965,-6.50244 -16.39844,-9.82471 0,0 11.52686,-28.04053 41.17969,-50.15185 24.34473,-18.15284 50.33252,-25.38623 62.81739,-27.99561 l 0.99267,-0.23682 c 12.79981,3.16407 25.05029,8.51954 36.14209,15.90235 l -0.67969,0.0601 z" /><path
         inkscape:connector-curvature="0"
         id="path26"
         style="fill:#ffffff;fill-opacity:1;fill-rule:nonzero;stroke:none"
         d="m 375.64453,431.73438 c -11.98047,2.97509 -32.39111,9.81835 -54.20117,24.97949 -34.31934,23.85693 -45.61182,51.20361 -45.61182,51.20361 -7.96631,-5.65478 -14.44287,-11.04883 -19.12256,-15.23437 l 0.29541,-0.51172 c 9.73243,-18.89453 24.82276,-35.30713 44.59668,-46.72412 23.667,-13.66358 50.17774,-17.93799 75.21875,-13.97852 z" /><path
         inkscape:connector-curvature="0"
         id="path28"
         style="fill:#ffffff;fill-opacity:1;fill-rule:nonzero;stroke:none"
         d="m 400.91016,500.5542 c -30.20899,17.68848 -46.61524,41.05908 -46.61524,41.05908 0,0 -13.07031,-0.3374 -37.16015,-10.6709 0,0 9.47558,-26.68457 38.58642,-49.15869 22.3291,-17.23828 54.03809,-25.71777 70.78711,-29.21924 l 0.57813,-0.11816 c 9.94238,7.32422 18.82714,16.36035 26.17236,26.97803 0,0 -27.58106,6.62744 -52.34863,21.12988 z" /><path
         inkscape:connector-curvature="0"
         id="path30"
         style="fill:#ffffff;fill-opacity:1;fill-rule:nonzero;stroke:none"
         d="m 244.83643,537.98145 c 9.05224,10.85009 28.07666,30.77197 55.03857,44.08447 35.62988,17.59326 68.71582,12.8789 68.71582,12.8789 0.38672,4.42237 0.6792,9.2002 0.83984,14.3462 0.21045,6.6958 0.064,13.11523 -0.30859,19.11377 0,0 -30.04785,4.03759 -64.02344,-10.58692 -27.89306,-12.00635 -47.15088,-30.89551 -55.65332,-40.40381 l -0.70166,-0.74072 c -3.65918,-12.66748 -5.14746,-25.9541 -4.29883,-39.25098 z" /><path
         inkscape:connector-curvature="0"
         id="path32"
         style="fill:#ffffff;fill-opacity:1;fill-rule:nonzero;stroke:none"
         d="m 252.70361,586.91211 c 8.56641,8.88769 24.69776,23.14209 48.73243,34.44922 37.8208,17.79297 67.1499,13.89941 67.1499,13.89941 -0.91358,9.72681 -2.34717,18.03247 -3.63184,24.17798 h -0.59082 c -21.22851,1.0188 -42.98828,-3.84351 -62.76221,-15.26001 -23.66699,-13.66406 -40.62353,-34.48584 -49.71582,-58.15234 z" /><path
         inkscape:connector-curvature="0"
         id="path34"
         style="fill:#ffffff;fill-opacity:1;fill-rule:nonzero;stroke:none"
         d="m 299.66992,530.62109 c 30.42285,17.31739 58.86621,19.84082 58.86621,19.84082 0,0 6.24268,11.4878 9.33838,37.51661 0,0 -27.84668,5.13623 -61.86523,-8.83692 -26.09424,-10.71924 -49.29199,-33.93994 -60.69824,-46.69433 l -0.39112,-0.44092 c 1.3711,-12.27295 4.7544,-24.48535 10.27686,-36.15528 0,0 19.52978,20.57178 44.47314,34.77002 z" /><path
         inkscape:connector-curvature="0"
         id="path36"
         style="fill:#ffffff;fill-opacity:1;fill-rule:nonzero;stroke:none"
         d="m 302.94824,389.0542 h -13.09668 l -10.08154,-13.55371 4.83887,-9.00488 c 0,0 8.46582,11.06152 8.64062,11.29052 0.17285,0 0.56494,0 0.86963,0 0,-0.58447 0,-30.49707 0,-30.49707 h 9.12695 v 41.76514 z" /><path
         inkscape:connector-curvature="0"
         id="path38"
         style="fill:#ffffff;fill-opacity:1;fill-rule:nonzero;stroke:none"
         d="m 321.94971,387.38037 -0.003,-0.003 c -1.61475,-1.6499 -2.40039,-5.39648 -2.40039,-11.45654 0,-5.7832 0.7959,-9.45117 2.43262,-11.21289 1.64794,-1.77881 5.10107,-2.64307 10.55468,-2.64307 3.03125,0 5.4419,0.23975 7.16553,0.7124 1.25635,0.34375 2.21094,0.9795 3.01563,1.74854 -0.0127,-0.0391 -0.0562,-0.17236 -0.0562,-0.17236 l -0.20898,-0.97413 c 0,-3.79394 -0.43799,-5.04931 -0.80567,-5.43457 -0.36474,-0.38134 -1.55664,-0.83691 -5.15966,-0.83691 -3.59522,0 -5.95166,0.15479 -7.00244,0.45947 -0.94825,0.27491 -1.40918,1.08203 -1.40918,2.46826 v 0.29737 h -8.52637 v -0.29737 c 0,-5.96679 0.68945,-9.52001 2.10644,-10.86084 1.77539,-1.65087 6.45069,-2.45312 14.29444,-2.45312 7.10351,0 11.27099,0.98535 12.74267,3.01367 1.54444,2.11035 2.2959,8.15528 2.2959,18.47852 0,10.45508 -0.84521,16.52832 -2.58447,18.56689 -1.78125,2.01709 -6.96973,2.99512 -15.86572,2.99512 -5.5,0 -8.96289,-0.7832 -10.58545,-2.39551 m 7.27685,-14.37891 -0.004,0.002 c -0.71289,0.33252 -1.07471,1.31396 -1.07471,2.91748 0,1.56982 0.36475,2.55224 1.08447,2.92139 0.77246,0.36181 2.82422,0.54736 6.08985,0.54736 3.29199,0 5.34619,-0.16797 6.10595,-0.49951 0.67383,-0.32666 1.021,-1.32764 1.021,-2.96924 0,-1.56592 -0.3584,-2.52881 -1.06641,-2.86084 -0.78857,-0.40625 -2.82422,-0.60889 -6.06054,-0.60889 -3.29053,0 -5.34131,0.18555 -6.09571,0.55029 z" /><path
         inkscape:connector-curvature="0"
         id="path40"
         style="fill:#ffffff;fill-opacity:1;fill-rule:nonzero;stroke:none"
         d="M 395.31836,389.11963 H 380.86084 L 365.39795,371.9043 v -16.53614 c 0,0 20.51318,0 21.09131,0 0,-0.55273 0,-8.05566 0,-8.05566 h 9.12695 c 0,0 0,7.50293 0,8.05566 0.52637,0 5.01221,0 5.01221,0 v 9.79834 c 0,0 -4.48584,0 -5.01221,0 0,0.58057 0,23.95313 0,23.95313 h -0.29785 m -8.8291,-11.26807 c 0,-0.56494 0,-12.43603 0,-12.61035 -0.0195,-0.0283 -0.0244,-0.0366 -0.0498,-0.0747 -0.30371,0 -12.45752,0 -13.02002,0 0,0.28321 0,0.60303 0,0.73926 0.15967,0.16944 11.15918,11.76416 11.33057,11.9458 0.19385,0 1.32715,0 1.73926,0 z" /><path
         inkscape:connector-curvature="0"
         id="path42"
         style="fill:#ffffff;fill-opacity:1;fill-rule:nonzero;stroke:none"
         d="m 417.96143,386.70801 -0.001,-0.002 c -1.49365,-2.07373 -2.21973,-8.104 -2.21973,-18.43554 0,-10.44873 0.85889,-16.50049 2.62598,-18.50098 1.74756,-2.0498 6.92481,-3.04785 15.82422,-3.04785 5.49463,0 8.93018,0.76709 10.50146,2.34521 1.67383,1.69288 2.4878,5.46924 2.4878,11.54395 0,5.79443 -0.79883,9.47168 -2.44141,11.23926 -1.64892,1.77295 -5.09765,2.63525 -10.5415,2.63525 -3.03516,0 -5.43213,-0.23486 -7.12451,-0.69922 -1.27979,-0.34668 -2.2461,-0.98535 -3.05664,-1.76074 0.0132,0.042 0.0571,0.17969 0.0571,0.17969 -4.8e-4,-0.002 0.20362,0.94824 0.20362,0.94824 0,3.77344 0.43799,5.02539 0.80566,5.41113 0.3667,0.37403 1.56397,0.8252 5.16895,0.8252 3.5874,0 5.94043,-0.15088 6.99414,-0.44824 0.94775,-0.26856 1.4082,-1.06495 1.4082,-2.43506 v -0.29737 h 8.52637 v 0.29737 c 0,5.93603 -0.68946,9.47656 -2.10596,10.82422 -1.77783,1.64648 -6.45312,2.44531 -14.29492,2.44531 -7.1084,0 -11.30127,-1.00391 -12.81738,-3.06787 m 7.34716,-29.04639 -0.0107,0.005 c -0.67773,0.29737 -1.02148,1.2876 -1.02148,2.94385 0,1.5791 0.36181,2.56738 1.07666,2.9375 0.77099,0.36426 2.81299,0.55078 6.05957,0.55078 3.28955,0 5.354,-0.18652 6.13623,-0.55566 0.68164,-0.33106 1.02881,-1.31885 1.02881,-2.93262 0,-1.58447 -0.35889,-2.55615 -1.0669,-2.88965 -0.78808,-0.4082 -2.83642,-0.61328 -6.09814,-0.61328 -3.29639,0 -5.35059,0.18652 -6.10401,0.55371 z" /><path
         inkscape:connector-curvature="0"
         id="path44"
         style="fill:#510520;fill-opacity:1;fill-rule:nonzero;stroke:none"
         d="M 106.58643,601.51465 V 649.552 h 33.7373 l -2.97656,-12.36206 h -21.04834 v -8.37549 h 22.69824 l -2.97705,-12.3623 h -19.72119 v -14.9375 z" /><path
         inkscape:connector-curvature="0"
         id="path46"
         style="fill:#510520;fill-opacity:1;fill-rule:nonzero;stroke:none"
         d="m 146.34424,649.552 h 9.7124 v -16.85766 h 5.07568 l 10.99024,16.85766 h 13.37109 l -15.77636,-22.87427 17.81494,-25.04834 h -14.08252 l -12.31739,18.70313 h -5.07568 v -18.76904 h -9.7124 z" /><path
         inkscape:connector-curvature="0"
         id="path48"
         style="fill:#510520;fill-opacity:1;fill-rule:nonzero;stroke:none"
         d="m 124.69873,537.50879 v 27.41797 l 9.4502,3.57178 v -21.71485 c -0.17481,-3.14892 -0.3501,-7.3501 3.84961,-7.52539 4.20019,-0.17529 5.95068,6.30029 10.5,17.3252 4.5498,11.0249 9.62548,13.82519 18.72509,13.125 9.9458,-0.76514 12.25,-7.69971 12.25,-17.6753 v -28.15478 l -9.45019,-3.57178 v 22.80225 c 0,4.54931 0.35058,6.99902 -3.32471,6.64941 -3.08691,-0.29443 -3.5,-4.5498 -7.875,-14.52441 -4.37451,-9.9751 -7.3501,-15.05078 -18.7251,-15.05078 -9.45166,0 -15.5747,4.55078 -15.3999,17.32568 z" /><path
         inkscape:connector-curvature="0"
         id="path50"
         style="fill:#510520;fill-opacity:1;fill-rule:nonzero;stroke:none"
         d="m 156.23096,289.21729 c -15.42383,7.29394 -33.15332,25.97412 -33.15332,25.97412 l 10.84619,15.6455 c 0,0 17.86816,-20.84765 30.78662,-29.24902 10.49121,-6.82275 16.59961,1.39844 41.61426,21.43262 l -18.8418,25.4624 5.93115,7.87207 33.16309,-44.81641 -29.40088,-21.75586 c -8.81836,-6.61669 -18.50879,-11.1748 -40.94531,-0.56542 z" /><path
         inkscape:connector-curvature="0"
         id="path52"
         style="fill:#510520;fill-opacity:1;fill-rule:nonzero;stroke:none"
         d="m 325.44922,247.39258 c 0,10.64062 8.70557,19.34668 19.34619,19.34668 h 17.51807 c 10.64062,0 19.34668,-8.70606 19.34668,-19.34668 v -16.08203 c 0,-10.64063 -8.70606,-19.34668 -19.34668,-19.34668 h -17.51807 c -10.64062,0 -19.34619,8.70605 -19.34619,19.34668 v 16.08203 m 15.91992,-17.64844 c 0,-4.91113 4.01758,-8.9292 8.92871,-8.9292 h 6.51319 c 4.91113,0 8.92871,4.01807 8.92871,8.9292 v 19.21533 c 0,4.91114 -4.01758,8.9292 -8.92871,8.9292 h -6.51319 c -4.91113,0 -8.92871,-4.01806 -8.92871,-8.9292 z" /><path
         inkscape:connector-curvature="0"
         id="path54"
         style="fill:#510520;fill-opacity:1;fill-rule:nonzero;stroke:none"
         d="m 171.72168,370.57373 -13.88428,-10.27783 -3.46777,12.84033 17.35205,-2.5625 m -32.30615,-23.9541 4.9956,-18.49902 47.28076,35.01806 -8.29199,30.70654 -10.19531,1.50684 4.7793,-17.69824 -48.8794,7.1499 2.23584,-8.2793 11.32276,-1.65576 5.80566,-21.49853 z" /><path
         inkscape:connector-curvature="0"
         id="path56"
         style="fill:#510520;fill-opacity:1;fill-rule:nonzero;stroke:none"
         d="m 162.13232,491.74902 -16.08349,-6.30322 v 13.30029 l 16.08349,-6.99707 M 124.69873,477.04541 V 457.8833 l 54.7749,21.48096 v 31.80664 l -9.45019,4.11279 v -18.33203 l -45.32471,19.64502 V 508.021 l 10.5,-4.54981 v -22.26953 z" /><path
         inkscape:connector-curvature="0"
         id="path58"
         style="fill:#510520;fill-opacity:1;fill-rule:nonzero;stroke:none"
         d="m 145.52393,434.87061 h 24.45605 l 0.0435,-3.1504 c 0,-11.72412 -2.9751,-16.27392 -12.07471,-16.09912 -9.1001,0.17481 -12.4248,4.54932 -12.4248,14.69971 v 4.54981 m -11.15625,-13.69336 c 1.1333,-17.07276 6.87939,-22.55225 22.18115,-22.70606 18.89892,-0.19092 22.9248,14.17188 22.9248,32.0835 v 42.9707 l -9.45019,-4.00488 v -15.44287 l -0.0435,-0.30713 h -65.75635 v -18.8999 h 28.56836 l -0.66699,-0.32764 c -2.96191,-1.41065 -8.83398,-4.79199 -15.30127,-11.74756 -9.2749,-9.9751 -12.59961,-19.59961 -14.34961,-38.8501 l 18.8999,-7.69922 c 0,0 -0.87451,14 1.5752,27.4751 1.77978,9.79151 7.81103,15.05567 10.9751,17.20215 l 0.44336,0.25391 z" /><path
         inkscape:connector-curvature="0"
         id="path60"
         style="fill:#510520;fill-opacity:1;fill-rule:nonzero;stroke:none"
         d="m 238.91455,238.98975 8.05274,6.10107 -23.90333,15.02295 -0.39746,0.24609 6.42725,10.22608 0.35205,-0.23487 23.94092,-15.04687 2.00488,9.90185 -21.10156,13.26221 -0.16748,0.11914 7.37988,11.74121 0.28174,0.39209 22.49756,-14.14013 3.79541,-49.74024 21.27344,-6.27929 37.72363,45.97656 -19.70068,5.81494 -31.4043,-38.32178 -3.7417,48.7168 L 229.896,309.354 200.74854,262.97754 Z" /></g></g></svg>