<?xml version="1.0" encoding="UTF-8" standalone="no"?>
<!-- Created with Inkscape (http://www.inkscape.org/) -->

<svg
   xmlns:dc="http://purl.org/dc/elements/1.1/"
   xmlns:cc="http://creativecommons.org/ns#"
   xmlns:rdf="http://www.w3.org/1999/02/22-rdf-syntax-ns#"
   xmlns:svg="http://www.w3.org/2000/svg"
   xmlns="http://www.w3.org/2000/svg"
   xmlns:sodipodi="http://sodipodi.sourceforge.net/DTD/sodipodi-0.dtd"
   xmlns:inkscape="http://www.inkscape.org/namespaces/inkscape"
   version="1.1"
   id="svg2"
   xml:space="preserve"
   width="160.04056"
   height="252"
   viewBox="0 0 160.04056 251.99999"
   sodipodi:docname="fk-vardar.svg"
   inkscape:version="0.92.4 (5da689c313, 2019-01-14)"><metadata
     id="metadata8"><rdf:RDF><cc:Work
         rdf:about=""><dc:format>image/svg+xml</dc:format><dc:type
           rdf:resource="http://purl.org/dc/dcmitype/StillImage" /><dc:title></dc:title></cc:Work></rdf:RDF></metadata><defs
     id="defs6"><linearGradient
       x1="295.17871"
       y1="62.608398"
       x2="295.17581"
       y2="713.72217"
       gradientUnits="userSpaceOnUse"
       spreadMethod="pad"
       id="linearGradient18"><stop
         style="stop-opacity:1;stop-color:#ac8a0b"
         offset="0"
         id="stop12" /><stop
         style="stop-opacity:1;stop-color:#ecde0f"
         offset="0.51454887"
         id="stop14" /><stop
         style="stop-opacity:1;stop-color:#ecde0f"
         offset="1"
         id="stop16" /></linearGradient></defs><sodipodi:namedview
     pagecolor="#ffffff"
     bordercolor="#666666"
     borderopacity="1"
     objecttolerance="10"
     gridtolerance="10"
     guidetolerance="10"
     inkscape:pageopacity="0"
     inkscape:pageshadow="2"
     inkscape:window-width="1366"
     inkscape:window-height="705"
     id="namedview4"
     showgrid="false"
     fit-margin-top="1"
     fit-margin-right="1"
     fit-margin-bottom="1"
     fit-margin-left="1"
     inkscape:zoom="0.42048266"
     inkscape:cx="841.75536"
     inkscape:cy="411.20088"
     inkscape:window-x="-8"
     inkscape:window-y="-8"
     inkscape:window-maximized="1"
     inkscape:current-layer="g10" /><g
     id="g10"
     inkscape:groupmode="layer"
     inkscape:label="fk-vardar-skopje-seeklogo.com"
     transform="matrix(1.3333333,0,0,-1.3333333,-97.166033,334.47787)"><g
       id="g160"
       transform="matrix(0.26749759,0,0,0.26749759,53.930143,45.860804)"><path
         inkscape:connector-curvature="0"
         id="path20"
         style="fill:url(#linearGradient18);fill-opacity:1;fill-rule:nonzero;stroke:none"
         d="m 295.17871,661.72217 c 18.25,4.9e-4 18.55469,-7.76221 34.75,-11.49951 19.5,-4.5 31.5,-2.5 41,0 9.5,2.5 15.5,-2 16.5,-9.5 1,-7.5 10.5,-9.5 17,-5 6.5,4.5 11.07031,2.07177 20,-1.5 7.5,-3 12.66016,-5.14209 14,-10.5 1.5,-6 10.21484,-14.68116 16.5,-7 4.5,5.5 8,8 17,5.5 9,-2.5 9.5,-8.5 12.5,-14 3,-5.5 8.52442,-8.68164 16.5,-7.5 13.5,2 15.50586,-0.5 15.5,-24.5 -0.0186,-71.66895 7.8125,-194.56055 -54.83789,-327.69336 C 402.48926,122.93848 295.17871,62.6084 295.17871,62.6084 c 0,0 -107.31055,60.33008 -166.41211,185.9209 -62.65039,133.13281 -54.81933,256.02441 -54.83789,327.69336 -0.0059,24 2,26.5 15.5,24.5 7.97559,-1.18164 13.5,2 16.5,7.5 3,5.5 3.5,11.5 12.5,14 9,2.5 12.5,0 17,-5.5 6.28516,-7.68116 15,1 16.5,7 1.33984,5.35791 6.5,7.5 14,10.5 8.92969,3.57177 13.5,6 20,1.5 6.5,-4.5 16,-2.5 17,5 1,7.5 7,12 16.5,9.5 9.5,-2.5 21.5,-4.5 41,0 16.19531,3.7373 16.5,11.5 34.75,11.49951 v 0 m -79.41601,31.00049 c -13.33301,-3.33301 -19.33399,-11 -19.33399,-11 0.66699,4 4.33399,12 4.33399,12 -27.667,-1.66651 -41.667,-15.3335 -41.667,-15.3335 -1.33398,4 -4.66699,6.3335 -4.66699,6.3335 -10,-18.33301 -28,-24.3335 -41.33301,-29 -13.33398,-4.66651 -21.66699,-12.3335 -27.333,-24.3335 -8.49512,-17.98926 -1.98731,-25.90332 5.333,-26.3335 5.667,-0.333 8.667,6 10,10.667 1.66993,5.84863 6.667,10 13,12.333 11.09375,4.08692 17,2.3335 20.667,-1.6665 3.66699,-4 7.333,-3.3335 11.66601,3.6665 4.33399,7 8.66699,8.667 18,12.3335 9.33399,3.6665 15.66699,5.6665 19,1.3335 3.83496,-4.98487 9.66699,-4.667 11.66699,-2 2,2.66699 -3,4.333 -3.333,8 -0.33301,3.66699 7.66601,7 17.333,7 9.66602,0 22,-4 30,-3.667 8,0.33301 11.33301,8 8.667,14 -2.667,6 -6,2.667 -7.33399,-2.333 -1.33301,-5 -7.33301,-5 -9.66601,-2.3335 -2.33301,2.6665 -1,4.3335 6,11.3335 7,7 7,12.333 7,24 0,11.66699 -2.667,16 -2.667,16 -4.66699,-10.66651 -12,-17.667 -25.333,-21 m 133.49902,21 c 0,0 -2.66699,-4.33301 -2.66699,-16 0,-11.667 0,-17 7,-24 7,-7 8.333,-8.667 6,-11.3335 -2.33301,-2.6665 -8.33301,-2.6665 -9.66602,2.3335 -1.33398,5 -4.66699,8.333 -7.33398,2.333 -2.66602,-6 0.66699,-13.66699 8.66699,-14 8,-0.333 20.33398,3.667 30,3.667 9.66699,0 17.66601,-3.33301 17.33301,-7 -0.33301,-3.667 -5.33301,-5.33301 -3.33301,-8 2,-2.667 7.83203,-2.98487 11.66699,2 3.33301,4.333 9.66602,2.333 19,-1.3335 9.33301,-3.6665 13.66602,-5.3335 18,-12.3335 4.33301,-7 7.99902,-7.6665 11.66602,-3.6665 3.66699,4 9.57324,5.75342 20.66699,1.6665 6.33301,-2.333 11.33008,-6.48437 13,-12.333 1.33301,-4.667 4.33301,-11 10,-10.667 7.32031,0.43018 13.82812,8.34424 5.33301,26.3335 -5.66602,12 -13.99903,19.66699 -27.33301,24.3335 -13.33301,4.6665 -31.33301,10.66699 -41.33301,29 0,0 -3.33301,-2.3335 -4.66699,-6.3335 0,0 -14,13.66699 -41.66699,15.3335 0,0 3.66699,-8 4.33398,-12 0,0 -6.00098,7.66699 -19.33398,11 -13.33301,3.333 -20.66602,10.33349 -25.33301,21 z" /><path
         inkscape:connector-curvature="0"
         id="path22"
         style="fill:#231f20;fill-opacity:1;fill-rule:nonzero;stroke:none"
         d="m 167.39453,211.18066 v 333.50049 l 0.0342,0.83692 h 85.16797 l -0.0127,-0.75293 v -60.20899 l -0.0713,-1.33301 h -45.58399 c -16,0 -18.5,-0.5 -18.5,-3.5 0,-3 2.33399,-5 15,-5 10.5,0 18.5,-3 18.5,-17.5 V 320.79785 c 0,-14.5 -8,-17.5 -18.5,-17.5 -12.66601,0 -15,-2 -15,-5 0,-3 2.5,-3.5 18.5,-3.5 h 45.66797 l -0.0127,-0.99219 v -176.25 l 0.01,-1.25976 c -25.3291,21.03418 -57.76074,52.55078 -85.15527,93.89062 l -0.0439,0.99414 z" /><path
         inkscape:connector-curvature="0"
         id="path24"
         style="fill:#ee2523;fill-opacity:1;fill-rule:nonzero;stroke:none"
         d="m 252.58398,293.80566 v -176.25 l 0.01,-1.25976 c 24.65723,-20.47656 42.58496,-31.01953 42.58496,-31.01953 0,0 17.95117,10.55664 42.63379,31.06054 l -0.0391,1.21875 v 87.94825 l 0.0273,0.59082 -4.5166,2.7832 4.49512,7.36328 -0.006,0.5752 v 33.8125 l 0.0303,0.42285 h -4.51953 v 5.67578 h 4.48828 l 9.8e-4,0.37012 v 37.70898 l 0.0615,1.3916 c -9.3125,-0.93652 -20.14551,-1.38183 -32.92676,-1.40039 H 252.5967 l -0.0127,-0.99219 z" /><path
         inkscape:connector-curvature="0"
         id="path26"
         style="fill:#231f20;fill-opacity:1;fill-rule:nonzero;stroke:none"
         d="m 250.74121,719.11084 c 0,-24.50342 19.93555,-44.43848 44.43848,-44.43848 24.5039,0 44.43847,19.93506 44.43847,44.43848 0,24.50342 -19.93457,44.43848 -44.43847,44.43848 -24.50293,0 -44.43848,-19.93506 -44.43848,-44.43848 z" /><path
         inkscape:connector-curvature="0"
         id="path28"
         style="fill:#efe218;fill-opacity:1;fill-rule:nonzero;stroke:none"
         d="m 333.28418,251.05176 v 5.67578 h 35.83789 l -31.01953,-50.81934 -4.81836,2.96973 25.74023,42.17383 z" /><path
         inkscape:connector-curvature="0"
         id="path30"
         style="fill:#ee2523;fill-opacity:1;fill-rule:nonzero;stroke:none"
         d="m 322.0957,409.38867 c 13.66602,11.33399 15.66602,33.66748 6.66602,45.66748 -9,12 -23.85352,16.25342 -43.66602,16.25342 -8.33691,0 -10.66699,-1.58691 -10.66699,-14.08691 v -59.167 c 24.66602,0 35.96484,1.62891 47.66699,11.33301 z" /><path
         inkscape:connector-curvature="0"
         id="path32"
         style="fill:#efe218;fill-opacity:1;fill-rule:nonzero;stroke:none"
         d="m 304.9082,294.79785 h -97.97949 c -16,0 -18.5,0.5 -18.5,3.5 0,3 2.33399,5 15,5 10.5,0 18.5,3 18.5,17.5 v 136.42481 c 0,14.5 -8,17.5 -18.5,17.5 -12.66601,0 -15,2 -15,5 0,3 2.5,3.5 18.5,3.5 h 97.97949 c 24.52051,0.1665 51.1875,0.5 72.85352,-17.8335 18.47949,-15.63672 19.33398,-41 1.66699,-55.6665 -17.59375,-14.60645 -39,-16.33301 -39,-16.33301 0,0 30.00098,-0.66699 47.66699,-14.66699 17.66602,-14 21.33399,-39.33301 5,-58 -16.33398,-18.667 -36.04199,-25.84961 -88.1875,-25.92481 m 17.1875,114.59082 c 13.66602,11.33399 15.66602,33.66748 6.66602,45.66748 -9,12 -23.85352,16.25342 -43.66602,16.25342 -8.33691,0 -10.66699,-1.58691 -10.66699,-14.08691 v -59.167 c 24.66602,0 35.96484,1.62891 47.66699,11.33301 m -47.66699,-22.33301 v -67.333 c 0,-9.667 3.76074,-13.01953 12.66699,-13.01172 13.66602,0.0117 31.87305,-1.13477 46.33301,15.67871 14.33301,16.66601 8.19238,42.82519 -3.33301,52.33301 -13.33398,11 -29.66699,12.333 -55.66699,12.333 z" /><path
         inkscape:connector-curvature="0"
         id="path34"
         style="fill:#ffffff;fill-opacity:1;fill-rule:nonzero;stroke:none"
         d="m 252.46484,720.53613 c 0.39356,11.94825 5.71582,22.67139 13.99414,30.19678 l 0.17872,0.14697 c -0.15625,-2.80224 -0.13477,-4.83349 -0.0928,-6.00097 l -0.13867,-0.16358 c -4.44824,-4.96631 -7.64355,-11.06494 -9.08691,-17.80029 l -0.0693,-0.29248 c -1.25195,-1.42725 -3.22559,-3.83936 -4.81543,-6.50879 l 0.0303,0.42236 z" /><path
         inkscape:connector-curvature="0"
         id="path36"
         style="fill:#ffffff;fill-opacity:1;fill-rule:nonzero;stroke:none"
         d="m 280.24707,717.95166 c -5.49219,-1.42773 -11.77441,-2.43018 -14.44238,-2.82471 l -0.19141,0.19092 c -3.61719,3.73926 -5.60254,8.20703 -6.50879,10.70899 l -0.15429,0.38427 c 1.43066,6.81006 4.73339,12.9458 9.3457,17.84961 l 0.16308,0.18848 c 4.92872,1.72168 10.76075,2.24316 13.06055,2.38818 l 0.25488,-0.0132 c 1.08594,-2.72998 3.33204,-8.03223 6.19922,-12.95703 l -0.10058,-0.20703 c -1.58203,-2.63135 -5.62989,-9.66944 -7.41309,-15.64649 l -0.21289,-0.062 z" /><path
         inkscape:connector-curvature="0"
         id="path38"
         style="fill:#ffffff;fill-opacity:1;fill-rule:nonzero;stroke:none"
         d="m 277.99121,680.28662 c -0.8584,1.7002 -1.31933,3.31348 -1.55078,4.33399 l -0.0381,0.16162 c -5.92285,3.3457 -10.89062,8.17675 -14.38671,13.97949 l -0.1836,0.32568 c -1.13379,0.31348 -3.12305,0.99561 -5.55762,2.38721 l 0.11036,-0.29004 c 4.40039,-9.48389 12.17773,-17.09473 21.77929,-21.27783 l -0.17285,0.37988 z" /><path
         inkscape:connector-curvature="0"
         id="path40"
         style="fill:#ffffff;fill-opacity:1;fill-rule:nonzero;stroke:none"
         d="m 323.27246,690.38525 -0.4707,0.0581 c -4.88184,-4.60596 -10.9502,-7.98193 -17.69531,-9.62256 l -0.21387,-0.18701 c -0.90039,-0.95459 -2.22949,-2.2915 -3.73731,-3.57617 l -0.38769,-0.32178 c 10.20117,1.33789 19.28125,6.2876 25.91113,13.51855 0,0 -2.59766,0.0591 -3.40625,0.13086 z" /><path
         inkscape:connector-curvature="0"
         id="path42"
         style="fill:#ffffff;fill-opacity:1;fill-rule:nonzero;stroke:none"
         d="m 293.20508,704.5083 c -0.34375,-3.36182 -1.23145,-10.20947 -3.11035,-15.03906 l -0.19825,-0.0879 c -2.10449,-1.05322 -6.48339,-2.95508 -11.59375,-3.5127 l -0.30957,-0.0215 c -6.30566,3.37353 -11.53711,8.48388 -15.04101,14.68213 l 0.0273,0.37988 c 0.49414,5.04932 2.32227,10.15967 3.17969,12.3418 l 0.0772,0.22168 c 2.77246,0.41357 8.86816,1.39843 14.27734,2.79199 l 0.29492,0.0889 c 1.74707,-1.96143 6.95704,-7.60938 12.42579,-11.57178 l -0.0293,-0.27344 z" /><path
         inkscape:connector-curvature="0"
         id="path44"
         style="fill:#ffffff;fill-opacity:1;fill-rule:nonzero;stroke:none"
         d="m 321.89063,691.92139 c -4.76563,-4.57959 -10.74317,-7.92188 -17.40235,-9.5 l -0.20312,0.0635 c -4.85254,1.62452 -9.9668,5.25733 -12.06543,6.84522 l -0.27539,0.23242 c 1.79394,5.00391 2.6289,11.51709 2.95703,14.79346 l 0.0557,0.28125 c 2.37891,1.07861 8.87012,4.15869 14.3457,7.99365 l 0.23047,0.17187 c 2.2959,-1.39062 7.84375,-4.58642 14.63575,-7.35205 l -0.0107,-0.35351 c -0.17968,-2.44678 -0.73047,-8.39697 -2.05371,-12.9624 l -0.21386,-0.21338 z" /><path
         inkscape:connector-curvature="0"
         id="path46"
         style="fill:#ffffff;fill-opacity:1;fill-rule:nonzero;stroke:none"
         d="m 317.66113,755.44629 c -6.53515,4.05762 -14.23925,6.40283 -22.48144,6.40283 -3.11719,0 -6.15821,-0.33545 -9.08789,-0.97217 l -0.37598,-0.0811 c 1.9209,-0.66211 4.50977,-1.68408 7.02051,-3.08447 l 0.2207,0.021 c 0.92676,0.0654 1.86231,0.0986 2.80567,0.0986 5.083,0 9.94335,-0.96386 14.40625,-2.71728 l 0.22949,-0.0811 c 1.65039,0.12989 4.27734,0.27588 7.53027,0.24512 l -0.26758,0.16846 z" /><path
         inkscape:connector-curvature="0"
         id="path48"
         style="fill:#ffffff;fill-opacity:1;fill-rule:nonzero;stroke:none"
         d="m 309.72754,753.16992 c 1.51465,-2.1792 4.09863,-6.35742 5.96484,-11.80029 l 0.14551,-0.33643 c -3.91309,-4.32031 -7.13281,-7.15039 -8.29492,-8.13525 l -0.20899,-0.19727 c -2.82714,0.39161 -10.96972,1.47803 -17.62402,1.94434 l -0.24023,0.0308 c -2.95801,5.06934 -5.25,10.57227 -6.25586,13.12842 l 0.125,0.19531 c 3.13867,4.10498 6.50195,6.63477 8.55761,7.94287 l 0.21485,0.0137 c 1.20215,0.11573 2.41992,0.17481 3.65137,0.17481 4.82421,0 9.43945,-0.90723 13.68164,-2.55908 l 0.2832,-0.40186 z" /><path
         inkscape:connector-curvature="0"
         id="path50"
         style="fill:#ffffff;fill-opacity:1;fill-rule:nonzero;stroke:none"
         d="m 337.40918,712.5083 c 0.33496,2.15234 0.50879,4.35742 0.50879,6.60254 0,8.75293 -2.64453,16.89941 -7.17676,23.68262 l -0.14844,0.21093 c 0.13282,-2.41503 0.0811,-4.6582 0.0108,-6.15673 l 0.11621,-0.23243 c 2.77832,-5.35253 4.34765,-11.42089 4.34765,-17.84668 0,-0.85498 -0.0273,-1.70361 -0.082,-2.54541 l 0.01,-0.24804 c 0.54492,-0.77832 1.39453,-2.06055 2.36328,-3.77539 l 0.0508,0.30859 z" /><path
         inkscape:connector-curvature="0"
         id="path52"
         style="fill:#ffffff;fill-opacity:1;fill-rule:nonzero;stroke:none"
         d="m 332.88477,714.76563 c -2.73243,-3.55958 -6.00489,-6.41358 -7.62989,-7.73877 l -0.16699,-0.11329 c -6.94336,2.79932 -12.60156,6.08252 -14.79101,7.41456 l -9.8e-4,0.27001 c -0.16309,2.97803 -0.67285,10.86475 -1.74512,16.92579 l 0.26074,0.21972 c 1.33496,1.13672 4.51172,3.96436 8.39453,8.26563 l 0.42676,-0.0972 c 2.53223,-0.37061 7.70313,-1.39746 11.51856,-3.93848 l 0.12988,-0.27539 c 2.6123,-5.08496 4.08594,-10.83935 4.08594,-16.92969 0,-1.21728 -0.0586,-2.42138 -0.17383,-3.60937 l -0.30859,-0.39355 z" /><path
         inkscape:connector-curvature="0"
         id="path54"
         style="fill:#ffffff;fill-opacity:1;fill-rule:nonzero;stroke:none"
         d="m 180.7627,675.38916 c 0,0 -10.33399,-0.33301 -15.33399,-7.6665 -5,-7.3335 -5.33301,-13 -5.33301,-13 0,0 11,2.6665 20.667,20.6665 z" /><path
         inkscape:connector-curvature="0"
         id="path56"
         style="fill:#ffffff;fill-opacity:1;fill-rule:nonzero;stroke:none"
         d="m 134.0957,653.05566 c 0,0 -1.66699,-9.333 -12,-12.6665 -10.333,-3.3335 -18.333,-6.00049 -21.333,-4.3335 0,0 3.66601,8.00049 13.66601,9.667 10,1.6665 19.66699,7.333 19.66699,7.333 z" /><path
         inkscape:connector-curvature="0"
         id="path58"
         style="fill:#ffffff;fill-opacity:1;fill-rule:nonzero;stroke:none"
         d="m 204.0957,671.38916 c 0,0 13,-0.33301 18.667,9.3335 0,0 -11.33399,1.6665 -18.667,-9.3335 z" /><path
         inkscape:connector-curvature="0"
         id="path60"
         style="fill:#ffffff;fill-opacity:1;fill-rule:nonzero;stroke:none"
         d="m 409.59473,675.38916 c 0,0 10.33398,-0.33301 15.33398,-7.6665 5,-7.3335 5.33301,-13 5.33301,-13 0,0 -11,2.6665 -20.66699,20.6665 z" /><path
         inkscape:connector-curvature="0"
         id="path62"
         style="fill:#ffffff;fill-opacity:1;fill-rule:nonzero;stroke:none"
         d="m 456.26172,653.05566 c 0,0 1.66699,-9.333 12,-12.6665 10.33301,-3.3335 18.33301,-6.00049 21.33301,-4.3335 0,0 -3.66602,8.00049 -13.66602,9.667 -10,1.6665 -19.66699,7.333 -19.66699,7.333 z" /><path
         inkscape:connector-curvature="0"
         id="path64"
         style="fill:#ffffff;fill-opacity:1;fill-rule:nonzero;stroke:none"
         d="m 386.26172,671.38916 c 0,0 -13,-0.33301 -18.66699,9.3335 0,0 11.33398,1.6665 18.66699,-9.3335 z" /><path
         inkscape:connector-curvature="0"
         id="path66"
         style="fill:#ee2523;fill-opacity:1;fill-rule:nonzero;stroke:none"
         d="m 209.84668,578.38916 c 0,-2.94531 -2.3877,-5.33301 -5.33301,-5.33301 -2.94531,0 -5.33301,2.3877 -5.33301,5.33301 0,2.94531 2.3877,5.33301 5.33301,5.33301 2.94531,0 5.33301,-2.3877 5.33301,-5.33301 z" /><path
         inkscape:connector-curvature="0"
         id="path68"
         style="fill:#ee2523;fill-opacity:1;fill-rule:nonzero;stroke:none"
         d="m 487.64258,578.38916 c 0,-2.94531 -2.3877,-5.33301 -5.33301,-5.33301 -2.94531,0 -5.33301,2.3877 -5.33301,5.33301 0,2.94531 2.3877,5.33301 5.33301,5.33301 2.94531,0 5.33301,-2.3877 5.33301,-5.33301 z" /><path
         inkscape:connector-curvature="0"
         id="path70"
         style="fill:#ee2523;fill-opacity:1;fill-rule:nonzero;stroke:none"
         d="m 381.49707,560.80664 c 1.16992,-1.21875 2.35156,-3.33398 3.26856,-5.58398 1.46289,-3.58985 0.5,-3.8335 -1.667,-3.8335 -2.16699,0 -2.083,1.91699 -4.75,4.25 -2.66699,2.33301 -4.66699,3.3335 -8.16699,3.25049 h -13.58301 c -2.833,0.083 -5.50097,-0.16651 -8.91699,-4.0835 -1.86133,-2.13379 -2.25,-3.83349 -4.75,-3.83349 -2.5,0 -0.41601,4.25 1.5,7.33349 1.91602,3.0835 3.25,3.83301 4.75,3.83301 l 3.25,9.8e-4 v 31.58252 c 0,3.5 -2.33301,2.9165 -2.83301,4.33349 -0.5,1.41699 2,2.16651 5.08301,2.16651 h 22.08399 c 4.083,0 5.583,-0.91651 5.16601,-2.5 -0.50391,-1.91553 -3.41601,-0.83252 -3.41601,-3.83301 v -31.58447 c 0,0 1.37988,0.16894 2.98144,-1.49854 m -25.7334,33.83301 v -32.37647 l 12.75196,-0.041 v 30.08301 c 0,3.33252 -1.08399,4.66748 -2.917,4.61572 l -8.083,-0.0259 c -1.167,-0.006 -1.75391,-0.42188 -1.75196,-2.25537 z" /><path
         inkscape:connector-curvature="0"
         id="path72"
         style="fill:#ee2523;fill-opacity:1;fill-rule:nonzero;stroke:none"
         d="m 337.01465,596.55615 c 4.16699,-3 4.83398,-10.08349 1.5,-14.41699 -4.16699,-5.4165 -11.16602,-6.25 -17.5,-6.3335 v -10.8667 c 0,-1.74951 0.33398,-2.88281 1.58398,-4.0498 0.73633,-0.6875 0.75,-1.99902 -1.66699,-1.99951 h -9.58301 c -1.25,-0.083 -2.33398,-0.0835 -2.41699,1.1665 -0.083,1.25 2.08301,1.16651 2.08301,3.41602 v 31.16699 c -0.083,2 -1.33594,2.00195 -2.83301,3 -1.75,1.16699 -0.75,2.5835 1.5,2.5835 h 13.5 c 4.25,0 8.46289,0.1997 13.83301,-3.66651 m -7.08301,-7 c -0.0596,5.66699 -3.08301,7.25 -8.91699,7.25 v -17.83398 c 8.41601,0.16601 9,2.75049 8.91699,10.58398 z" /><path
         inkscape:connector-curvature="0"
         id="path74"
         style="fill:#ee2523;fill-opacity:1;fill-rule:nonzero;stroke:none"
         d="m 467.77832,596.55615 c 4.16699,-3 4.83398,-10.08349 1.5,-14.41699 -4.16699,-5.4165 -11.16602,-6.25 -17.5,-6.3335 v -10.8667 c 0,-1.74951 0.33398,-2.88281 1.58398,-4.0498 0.73633,-0.6875 0.75,-1.99902 -1.66699,-1.99951 h -9.58301 c -1.25,-0.083 -2.33398,-0.0835 -2.41699,1.1665 -0.083,1.25 2.08301,1.16651 2.08301,3.41602 v 31.16699 c -0.083,2 -1.33594,2.00195 -2.83301,3 -1.75,1.16699 -0.75,2.5835 1.5,2.5835 h 13.5 c 4.25,0 8.46289,0.1997 13.83301,-3.66651 m -7.08301,-7 c -0.0596,5.66699 -3.08301,7.25 -8.91699,7.25 v -17.83398 c 8.41602,0.16601 9,2.75049 8.91699,10.58398 z" /><path
         inkscape:connector-curvature="0"
         id="path76"
         style="fill:#ee2523;fill-opacity:1;fill-rule:nonzero;stroke:none"
         d="m 193.18066,558.88965 h -9.833 c -2.91602,4.9e-4 -4.00098,0.33301 -4.00098,1.08301 0,1.1665 1.41699,1.4165 0.28613,2.96191 l -10.20508,13.37354 -1.91406,-1.91895 v -9.4165 c -0.083,-3.5 0.53321,-3.12696 1.33301,-4 0.91699,-1 0.74902,-2.08252 -2.33398,-2.08301 h -7.99903 c -1.33301,4.9e-4 -3.16699,0.0386 -3.16699,1.08301 0,1.58349 2.08398,0.9165 2.16699,4.91748 v 27.49902 c 0,5.1665 -2.96875,4.68359 -4,6.3335 -0.83301,1.33349 0.83301,1.5 5.91699,1.5 h 6.83301 c 6,0 6.58301,-1.25 4.66699,-2.41651 -2.16503,-1.31787 -3.41796,-1.58398 -3.41699,-5.41699 v -13.24902 l 15.87696,15.78613 c 1.62304,1.79639 0.62304,2.79639 -0.29395,3.62988 -0.91602,0.8335 -0.74805,1.66651 1.25098,1.66651 h 6.66504 c 1.58398,0 2.66796,-1.167 0.83398,-2.0835 -1.83301,-0.9165 -3.27148,-2.81152 -5.21875,-4.69727 l -9.97754,-9.93896 14.21094,-18.76563 c 3.06933,-3.93115 4.65234,-3.59814 4.65234,-4.93115 0,-0.5 -0.58301,-0.91601 -2.33301,-0.9165 z" /><path
         inkscape:connector-curvature="0"
         id="path78"
         style="fill:#ee2523;fill-opacity:1;fill-rule:nonzero;stroke:none"
         d="m 247.93066,592.05615 c 1.09961,-7.4209 -5.58398,-10.66699 -5.58398,-10.66699 0,0 10.08398,-3.75 8.75,-13 -1.16016,-8.05176 -8,-9.4165 -15.75,-9.49951 h -18.5 c -2.25,4.9e-4 -1.96289,1.61181 -0.66602,2.08301 1.83301,0.6665 2.5,1.58349 2.5,4.083 v 29.33399 c 0,3.66699 -3.75,2.49951 -4.75,4.1665 -0.63769,1.0625 0.91602,1.66651 2.417,1.66651 h 20 c 4.50097,0 10.583,-1.41651 11.583,-8.16651 m -7.16699,-21.99707 c -0.082,5.44434 -4.41699,8.41358 -12.08301,8.41358 v -16.24952 c 8.91602,-0.33398 12.16602,2.33301 12.08301,7.83594 m -2.08301,20.33008 c -0.33398,4.66699 -3.83398,6.5835 -10,6.50049 v -15.16748 c 8.08301,4.9e-4 10.38672,3.2583 10,8.66699 z" /><path
         inkscape:connector-curvature="0"
         id="path80"
         style="fill:#ee2523;fill-opacity:1;fill-rule:nonzero;stroke:none"
         d="m 280.09766,574.05518 h -11.5 l 5.15429,13.42089 6.34571,-13.42089 m 18.83398,-13.41602 c -0.5,1.5 -2.25,1.25 -3.64746,4.55371 l -16.43652,35.02979 h -3.83399 l -12.52246,-32.87403 c -1.81055,-4.04248 -5.06055,-5.04248 -5.72754,-6.37597 -0.52246,-1.0459 -0.082,-2.08252 2.33399,-2.08301 h 4.16601 c 3.08301,0.083 4.08301,1 2.91699,2.4165 -1.16699,1.41651 -1.46289,2.17383 -0.56445,4.87842 l 1.73047,4.53857 h 14.25098 l 3.74121,-7.91406 c 0.75879,-1.58642 -0.90821,-1.50293 -1.0752,-2.66992 -0.15429,-1.08545 1.00098,-1.24902 2.66699,-1.24951 h 9.66797 c 1.917,4.9e-4 2.70313,0.64014 2.33301,1.74951 z" /><path
         inkscape:connector-curvature="0"
         id="path82"
         style="fill:#ee2523;fill-opacity:1;fill-rule:nonzero;stroke:none"
         d="m 411.90918,574.05518 h -11.5 l 5.1543,13.42089 6.3457,-13.42089 m 18.83301,-13.41602 c -0.5,1.5 -2.25,1.25 -3.64746,4.55371 l -16.43555,35.02979 h -3.83398 l -12.52247,-32.87403 c -1.81054,-4.04248 -5.06054,-5.04248 -5.72753,-6.37597 -0.52247,-1.0459 -0.082,-2.08252 2.33398,-2.08301 h 4.16602 c 3.083,0.083 4.083,1 2.91699,2.4165 -1.16699,1.41651 -1.46289,2.17383 -0.56446,4.87842 l 1.73047,4.53857 h 14.25098 l 3.74121,-7.91406 c 0.75781,-1.58642 -0.9082,-1.50293 -1.07519,-2.66992 -0.1543,-1.08545 1,-1.24902 2.66699,-1.24951 h 9.66699 c 1.91699,4.9e-4 2.70312,0.64014 2.33301,1.74951 z" /><path
         inkscape:connector-curvature="0"
         id="path84"
         style="fill:#ee2523;fill-opacity:1;fill-rule:nonzero;stroke:none"
         d="m 102.26465,578.05566 c -9.8e-4,3.75049 0.66601,6.5835 2.7539,8.04297 2.88965,2.021 7.94141,3.44336 13.91797,3.98291 l 0.0772,0.97412 v 3.917 c -9.7e-4,2.58349 -2.33301,2.25 -2.83301,3.33349 -0.5,1.0835 0.917,1.91651 2.66602,1.91651 h 10.25098 c 2.75,0 3.73047,-1.0918 2.16601,-2.41651 -1.08301,-0.91699 -2.33301,-0.66699 -2.25,-2.91699 v -3.9165 l -9.7e-4,-0.87696 c 6.36328,-0.54736 11.66796,-2.12793 14.47265,-4.33593 1.52832,-1.20362 2.27832,-2.70557 2.27832,-6.95459 0,-4.49903 -0.40039,-6.51905 -1.70019,-8.05079 -2.61621,-3.08349 -8.17285,-5.38232 -14.94532,-6.16064 l -0.10449,-0.37061 c -0.083,-2.25 1.16699,-2 2.25,-2.91699 1.56446,-1.3247 0.58399,-2.4165 -2.16601,-2.4165 h -10.25098 c -1.74902,0 -3.16602,0.83301 -2.66602,1.9165 0.5,1.0835 2.83204,0.75 2.83301,3.3335 v 0.44629 c -5.63672,0.64258 -10.69336,2.03906 -13.42285,4.65625 -2.32715,2.23047 -3.32617,3.89648 -3.32617,8.81347 m 13.16699,-9.58642 c 1.11719,-0.29883 2.32617,-0.45801 3.57813,-0.60791 l 0.004,0.69385 v 17.75048 l -0.0947,0.50196 c -1.28809,-0.12256 -2.52442,-0.25489 -3.67383,-0.49805 -2.24024,-0.47461 -3.49903,-2.25342 -3.49024,-8.00342 0.009,-6.5 0.26075,-8.92383 3.67676,-9.83691 m 20.83984,4.17041 v 5.6665 c -0.0762,4.3335 -0.14453,6.20557 -2.17382,7.33301 -1.5,0.8335 -3.01758,1.03711 -5.08399,1.21094 v -0.79492 -17.41602 l -0.006,-0.7793 c 1.40235,0.16748 2.76074,0.31787 3.9834,0.7002 2.14356,0.6709 3.27246,1.49609 3.28027,4.07959 z" /><path
         inkscape:connector-curvature="0"
         id="path86"
         style="fill:#efe218;fill-opacity:1;fill-rule:nonzero;stroke:none"
         d="m 222.20898,251.05176 3.43165,5.67578 h 11.15429 v -49.76367 h -5.93945 v 44.08789 z" /><path
         inkscape:connector-curvature="0"
         id="path88"
         style="fill:#efe218;fill-opacity:1;fill-rule:nonzero;stroke:none"
         d="m 260.81836,209.00977 13.26562,17.88574 -0.13183,0.13281 c -1.45215,-0.72656 -3.10156,-0.9248 -4.81836,-0.9248 -8.25,0 -14.45313,7.39257 -14.45313,15.3125 0,9.10742 7.39161,16.36816 16.4336,16.36816 8.58008,0 16.56543,-7.12793 16.56543,-15.90625 0,-4.9502 -2.50781,-9.24023 -5.41114,-13.13379 l -16.96191,-22.83594 -4.48828,3.10157 m 20.92187,32.80175 c 0,5.28028 -4.75195,10.42871 -10.16406,10.42871 -5.94043,0 -10.95605,-4.75195 -10.95605,-10.42871 0,-5.93945 5.41211,-10.42773 10.56054,-10.42773 6.33594,0 10.55957,5.01562 10.55957,10.42773 z" /><path
         inkscape:connector-curvature="0"
         id="path90"
         style="fill:#efe218;fill-opacity:1;fill-rule:nonzero;stroke:none"
         d="m 327.34473,219.63574 v -5.41211 h -5.67578 v -7.25976 h -5.93946 v 7.25976 h -24.55273 l 30.49219,44.61621 v -39.2041 h 5.67578 m -11.61524,20.52637 h -0.13281 l -13.99121,-20.52637 h 14.12402 z" /><path
         inkscape:connector-curvature="0"
         id="path92"
         style="fill:#ee2523;fill-opacity:1;fill-rule:nonzero;stroke:none"
         d="M 167.39453,544.68115 V 211.18066 l 0.0439,-0.99414 c -5.05567,7.62891 -9.93946,15.5918 -14.5752,23.88477 C 82.34277,360.22168 91.41699,545.51758 91.41699,545.51758 h 76.01172 l -0.0342,-0.83643 z" /><path
         inkscape:connector-curvature="0"
         id="path94"
         style="fill:#ee2523;fill-opacity:1;fill-rule:nonzero;stroke:none"
         d="m 422.96484,211.43164 v 333.2915 l 0.006,0.79444 h 75.96973 c 0,0 9.07422,-185.2959 -61.44629,-311.44629 -4.63281,-8.28809 -9.51269,-16.24609 -14.56445,-23.86914 l 0.0351,1.22949 z" /><path
         inkscape:connector-curvature="0"
         id="path96"
         style="fill:#ee2523;fill-opacity:1;fill-rule:nonzero;stroke:none"
         d="m 252.58398,544.76465 v -60.20899 l -0.0713,-1.333 h 52.3955 c 10.72754,0.0727 21.86621,0.17773 32.81739,-1.2627 l 0.0478,1.7627 v 61.12548 l 0.0303,0.66944 h -85.20703 l -0.0127,-0.75293 z" /><path
         inkscape:connector-curvature="0"
         id="path98"
         style="fill:#ee2523;fill-opacity:1;fill-rule:nonzero;stroke:none"
         d="m 337.77344,330.47266 v 32.75 l 0.0254,1.01562 c -2.01172,4.33008 -4.6709,7.9834 -7.70313,10.48438 -13.33398,11 -29.66699,12.333 -55.66699,12.333 v -67.333 c 0,-9.667 3.76074,-13.01953 12.66699,-13.01172 13.66602,0.0117 31.87305,-1.13477 46.33301,15.67871 1.75977,2.0459 3.21094,4.23437 4.38086,6.51758 l -0.0361,1.56543 z" /><path
         inkscape:connector-curvature="0"
         id="path100"
         style="fill:#231f20;fill-opacity:1;fill-rule:nonzero;stroke:none"
         d="m 337.72559,481.96045 c 14.0791,-1.85254 27.84863,-6.25879 40.03613,-16.57129 18.47949,-15.63672 19.33398,-41 1.66699,-55.6665 -17.59375,-14.60645 -39,-16.33301 -39,-16.33301 0,0 30.00098,-0.66699 47.66699,-14.66699 17.66602,-14 21.33399,-39.33301 5,-58 -12.33007,-14.0918 -26.583,-21.63868 -55.26074,-24.52442 l -0.0615,-1.3916 v -37.70898 l -9.8e-4,-0.37012 h 31.34961 l -31.01953,-50.81934 -0.30176,0.18653 -0.0273,-0.59082 v -87.94825 l 0.0391,-1.21875 c 25.3252,21.03711 57.7373,52.54493 85.11719,93.86524 l 0.0351,1.22949 v 333.2915 l 0.006,0.79493 H 337.8039 l -0.0303,-0.66993 v -61.125 l -0.0478,-1.76269 z" /><path
         inkscape:connector-curvature="0"
         id="path102"
         style="fill:#231f20;fill-opacity:1;fill-rule:nonzero;stroke:none"
         d="m 337.77344,363.22266 v -32.75 l 0.0361,-1.56543 c 5.85547,11.42675 4.68652,25.22265 -0.0107,35.33105 z" /><path
         inkscape:connector-curvature="0"
         id="path104"
         style="fill:#231f20;fill-opacity:1;fill-rule:nonzero;stroke:none"
         d="m 337.77344,250.62891 v -33.8125 l 0.006,-0.5752 21.24511,34.81055 h -21.2207 l -0.0303,-0.42285 z" /></g></g></svg>