<?xml version="1.0" encoding="UTF-8" standalone="no"?>
<svg xmlns:rdf="http://www.w3.org/1999/02/22-rdf-syntax-ns#" xmlns="http://www.w3.org/2000/svg" height="112.5" width="91.4" version="1.1" xmlns:cc="http://creativecommons.org/ns#" xmlns:dc="http://purl.org/dc/elements/1.1/" viewBox="0 0 91.4 112.5">
<g>
	<path fill="#FFFFFF" d="M77.3,18.6l5.5,2.3v3.3l3.8,1.8c2.7,21.4-0.4,40.3-9.5,56.6c4.8,1.1,9.6,3.5,14.2,7.4
		c-9.5,0.5-12.1,2.8-7.8,7c-1.3,1.2-4.6,0.9-10-0.9c0.6,3.4-0.2,5.9-2.4,7.4c-2.2,1.5-8.5,3.3-18.9,5.2c-1.6,1.7-3.9,3-6.9,3.8
		c-3-0.8-5.4-2.1-6.9-3.8c-10.4-1.8-16.7-3.5-18.9-5.1c-2.2-1.6-3-4.1-2.6-7.5c-5.3,1.7-8.6,1.9-9.9,0.7c4.3-4.1,2-6.3-7.1-6.6
		c4.8-3.8,9.4-6.3,13.9-7.4C4.7,66.4,1.5,47.5,4.2,26c1.3-0.6,2.5-1.3,3.8-1.9v-3.2l4.8-2v-5.2l8.8-3.4v1.3l2.2-0.8V9.4l6-2.3V5.3
		l12.3,0c0-0.1,0.2-0.9,0.6-2.5c0.4-1.6,1.4-2.1,2.8-1.7c1.2-1,2.7-1.3,4.5-1.1c0.6,0.1,0.8,0.5,0.7,1.1c-0.1,0.6-0.2,1.5-0.3,2.5
		c-0.1,1,0.1,1.6,0.6,1.7l9.2,0v1.8l6,2.3v1.3l2.2,0.8v-1.3l8.8,3.4V18.6"/>
	<path fill="#014D26" d="M10.7,45.5l0,0.6c1,17.1,5.3,30.8,12.9,41.2l0,0l2.4,3.2c-3-0.8-5.3-1.7-6.9-2.6c-0.8-1.2-1.6-2.5-2.3-3.7
		l-1.5-2.6l-0.5-0.9c-1.2-2.3-2.3-4.7-3.3-7.2l0-0.1l-0.3-0.7C9,66.9,7.4,60.7,6.5,54.1c-0.3-2-0.5-3.9-0.7-5.8
		c-0.3-3.2-0.4-6.4-0.4-9.8c0-2.1,0.1-4.2,0.2-6.4V32c0-0.3,0-0.7,0.1-1.1c0.1-0.8,0.2-1.6,0.2-2.3L6,27.7c0-0.1,0-0.2,0.1-0.3v0
		c0.6-0.3,1.2-0.7,1.9-1l0,0l0.1,0c0.4-0.2,1-0.4,1.6-0.7c2.3-0.9,4.8-1.7,7.4-2.4c3.3-0.9,7.2-1.6,11.7-2.1
		c5.1-0.6,10.5-0.9,16.2-0.9h1.4c5.5,0,10.8,0.3,15.8,0.9c5.2,0.6,9.7,1.5,13.4,2.7l0,0c1.4,0.4,2.6,0.8,3.7,1.1l1.2,0.4
		c1.6,0.6,3,1.2,4.2,1.9l0.4,3l0.1,1.7c0.1,2.2,0.2,4.3,0.2,6.4c0,5.2-0.4,10.3-1.1,15.3l0,0.3c-0.9,6.4-2.5,12.4-4.5,18l0-0.1
		c-1.2,3.4-2.4,6.2-3.6,8.5l-0.5,0.9L74.1,84c-0.6,1.1-1.3,2.1-2,3.2l-0.3,0.5c-1.6,0.9-3.9,1.8-6.9,2.6c0.8-1,1.7-2,2.4-3.1
		c7.7-10.5,12-24.5,12.9-41.8l0,0l0,0l0,0l0,0v0v0v0v0h0l0,0l0,0h0l0,0l0,0l0,0l0,0l0,0c-3.7-1.5-7.4-2.8-11.1-3.9
		C53.5,37,37.6,37,21.7,41.6C18,42.6,14.3,43.9,10.7,45.5L10.7,45.5L10.7,45.5L10.7,45.5L10.7,45.5L10.7,45.5L10.7,45.5L10.7,45.5
		L10.7,45.5L10.7,45.5L10.7,45.5L10.7,45.5L10.7,45.5L10.7,45.5 M80.5,24.6c-9.5-3.3-18.8-5.3-27.9-6.2l-1.8-1.6l-1.5,0.2l-12.2-0.5
		l-1.3,1.9c-8.7,0.9-17.3,3-25.6,6.3v-2.7l19.9-7.6h6.2l0.8-0.9l-4.9,0v-6l10.6,0l0.4-0.4l0.4-0.7L44,3.5c0-0.4,0.2-0.7,0.6-0.9
		c0.4-0.2,0.6-0.2,0.8,0L45.8,3c0.2-0.3,0.5-0.6,1-0.9c0.3-0.2,0.5-0.3,0.7-0.3l0.4-0.1l1-0.1c0.1,0,0.3,0.1,0.4,0.2
		c0.1,0.2,0.1,0.5,0.1,1l-0.2,1.9c0,0.6,0.1,1.1,0.5,1.7c0.1,0.2,0.3,0.5,0.4,0.8L50,7.6l7.7,0l0,6l-7.9,0l0,0l-0.1,0.2l0.5,0.7H60
		l20.5,7.7V24.6 M59.2,13.6V9.1l5.9,2.3v1.9c0,0.2,0.1,0.3,0.2,0.4l3.3,1.3l0.1,0l0.2-0.1c0.1-0.1,0.2-0.2,0.2-0.4v-1.6l5.9,2.3v4.1
		l-14.9-5.6l-0.2,0H59.2L59.2,13.6 M47.4,2.9l-0.3,0.2c-0.2,0.1-0.3,0.3-0.4,0.6l-0.1,0.1c-0.1,0.2-0.3,0.4-0.6,0.7l-0.2-0.3
		l-0.7-0.9L45,3.4c-0.2,0.1-0.3,0.3-0.4,0.5l0,0.2c0,0.3-0.1,0.7-0.2,1.1l-0.1,1.4l-0.6,1c-0.1,0.2-0.3,0.4-0.7,0.6L42,8.8
		c-0.2,0.1-0.7,0.4-1.5,0.6c-0.8,0.3-1.3,0.5-1.4,0.6l0.1,0.1l0.2,0.4c0.1,0.3,0.2,0.4,0.3,0.5l-2.5,1.8l6,0.6h0l5.5,0.5
		c0-0.1,0-0.1,0-0.1l0,0v0l0.2-0.3c0.1-0.1,0.2-0.2,0.5-0.3l-0.8-1.5l0.2,0.2l0.1,0.1c0.5,0.4,1.1,0.7,1.9,0.6
		c0.4,0,0.9-0.1,1.3-0.2l-0.5-0.4c-0.6-0.7-1-1.2-1.4-1.5c-0.3-0.3-0.6-0.6-0.8-1c0-0.7-0.1-1.2-0.2-1.7l-0.1-0.4
		c-0.1-0.3-0.2-0.5-0.3-0.6c-0.3-0.4-0.5-1.2-0.4-2.6v0l0-0.2l-0.5-0.5L48.3,3l0.1-0.2c0-0.1,0-0.2,0-0.2c-0.1-0.1-0.3-0.2-0.5-0.1
		l-0.7,0.2l-0.1,0L46.6,3L46,3.7l0.1,0l0.4-0.4C46.7,3.2,46.9,3.1,47,3C47.2,2.9,47.3,2.8,47.4,2.9 M48.6,7.1
		c0.1,0.1,0.1,0.3,0.1,0.4C48.7,8,48.4,8.5,48,9c0.2-0.7,0.2-1.2,0.1-1.4l0,0C48,7.4,48,7.2,48,7.1c0.1-0.1,0.2-0.2,0.4-0.2
		L48.6,7.1 M50.5,16.3l-1.8-2l-10.5-0.9l-2.2,2.5l12.8,0.7L50.5,16.3 M50.7,25.2l0,11.3l3.7,0.3c0-4.4,0-8.2,0-11.4L50.7,25.2
		 M55.9,25.4c0,2.7,0,6.5,0,11.5l3.7,0.5l0-4l0.5,0.1l1.8,4.3l3.8,0.7L63.7,34c0.5,0.1,0.9,0,1.2-0.1c0.3-0.2,0.4-0.4,0.4-0.7
		c0-2.2,0-4,0-5.4c0-0.4-0.2-0.8-0.6-1.1c-0.4-0.3-1.1-0.5-1.9-0.6L55.9,25.4 M61.7,27.8l0.1,0.2c0,0.9,0,2,0,3.4l0,0.2l-0.3,0
		l-1.8-0.2l0-3.8l1.8,0.2C61.5,27.8,61.6,27.8,61.7,27.8 M66.9,38.8l3.7,0.8c0-4.6,0-8.8,0.1-12.6L67,26.5
		C66.9,30.3,66.9,34.4,66.9,38.8 M49.3,29.5l-3.6,2l0,2.5h-1.7L43.8,34c-0.1,0-0.1-0.1-0.1-0.2l0-6.7c0-0.1,0-0.1,0.1-0.1
		c0-0.1,0.1-0.1,0.3-0.1c1.4,0,2.8,0,4,0l-0.6-1.9c-1.8,0-3.5,0-5.2,0c-0.7,0-1.3,0.1-1.6,0.4c-0.3,0.2-0.5,0.6-0.5,1l0,8.1
		c0,0.7,0.2,1.1,0.7,1.4c0.4,0.3,1.2,0.4,2.2,0.3c2.1-0.1,4.2,0,6.4,0.1L49.3,29.5 M49.8,43.8v8.3h-1.5v-6.5h-1.8v-3.1h-1.8v3.1
		h-1.8l0,6.5h-1.5v-8.3h-1.8l0,8.3h0v1.6h12v-9.9H49.8 M46.5,52.2h-1.8v-5h1.8L46.5,52.2 M79.6,28.4l-5-0.8
		c-0.9-0.1-1.5-0.1-1.8,0.1c-0.4,0.2-0.6,0.5-0.6,1l-0.1,5c0,0.4,0.1,0.8,0.3,1.1c0.2,0.3,0.4,0.5,0.7,0.6l1,0.3L76,36
		c0.2,0,0.4,0.1,0.5,0.2l0.1,0.2l0,1.8c0,0.1,0,0.2-0.1,0.2l-0.4,0l-3.9-1l0.6,2.7l4.5,1.2c1,0.3,1.8,0.3,2.2,0.1
		c0.1,0,0.1-0.1,0.2-0.2c0.3-0.3,0.4-0.7,0.4-1.4v-4.8c0-0.6-0.2-1-0.5-1.3c-0.3-0.3-0.8-0.5-1.3-0.6l-2.3-0.5l-0.4-0.2
		c-0.1-0.1-0.1-0.1-0.1-0.3V32h0l0-1.8c0-0.1,0-0.2,0.1-0.2c0.1,0,0.2,0,0.3,0l4.1,0.7L79.6,28.4 M66.4,42.4
		C69.8,43,74,44.3,79,46.1c-1.1,17.3-5.3,30.8-12.5,40.3V42.4 M30.7,9.1l0,4.5h-0.6l-0.2,0l-15.1,5.8l0-4.2l5.9-2.3v1.6
		c0,0.2,0.1,0.3,0.2,0.4c0.1,0.1,0.1,0.1,0.2,0.1l0.2,0l3.2-1.2c0.2-0.1,0.3-0.2,0.3-0.4v-1.9L30.7,9.1 M31.5,25.7l0,11.8
		c2.3-0.4,4.5-0.6,6.8-0.8l0.6-2.3l-3.7,0.3l0-9.2L31.5,25.7 M15.5,25.9c-0.2-0.1-0.4-0.3-0.9-0.5l-0.1,0c-0.5,0.2-1,0.3-1.6,0.5
		l0.8,0.6l0.7,0.6c0.1,0.1,0.2,0.2,0.3,0.1l0.8-0.1l0.7-0.1c0.1-0.1,0.3-0.4,0.8-1c0.5-0.6,0.8-1.1,1.1-1.4l0.1-0.1
		c-0.6,0.1-1.2,0.3-2,0.5L15.5,25.9 M10.9,30.6l3.8-0.7c-1.4,3.7-2.7,7.9-4.1,12.4c2.6-0.8,5.2-1.5,7.7-2.1c0.2-0.9,0.4-1.8,0.6-2.7
		l-3.4,0.8c1.3-4.4,2.7-8.2,4-11.3l-7.9,1.2C11.3,29,11.1,29.8,10.9,30.6 M26.5,36.7l0.3,1.6l3.7-0.7c-1.1-4.3-2.2-8.2-3.3-11.5
		l-3.9,0.5c-1.1,3.7-2.2,8.1-3.3,13.3l3.7-0.9c0.1-0.6,0.2-1.2,0.3-1.7L26.5,36.7 M24.4,35c0.3-1.5,0.6-3.1,0.9-4.7l0.8,4.4L24.4,35
		 M24.5,42.5l0,44.1c-7.2-9.6-11.4-23-12.5-40.3C16.9,44.4,21.1,43.2,24.5,42.5 M46,58.5c0.4,0.3,0.7,0.5,0.9,0.6
		c2.9,0,4.5,0.1,4.9,0.3c-0.3-0.2-0.6-0.4-1-0.6l-1.3-0.5c-1.6-0.6-3.1-0.8-4.5-0.7L46,58.5 M44.8,63.2c-1.8,0.1-3.4,0.4-4.9,0.8
		l-0.2,0.3l0,0.1l0,0l-0.1,0.3l0,0c-0.3,0.5-0.5,1-0.7,1.7c-0.1,0.2-0.3,1.1-0.8,2.8l2.6,3.3c0.4,0.5,0.8,0.7,1,0.7l1.6-0.1l1.2-0.2
		l2.3-0.6l0.1-0.1l1-2.4c0.4-0.9,0.6-1.8,0.8-2.6c-0.1-0.3-0.4-0.7-0.7-1.1l-1.8-2.1c-0.4-0.4-0.7-0.7-0.9-0.7L44.8,63.2 M39,59.4
		c-0.2,0.1-0.4,0.2-0.7,0.5l-1.1,0.8L36.9,61c-0.3,0.3-0.4,0.4-0.4,0.5c0.1-0.1,0.3-0.2,0.4-0.2c0.3-0.1,0.7-0.3,1.2-0.4l0.1,0
		c0.1-0.2,0.3-0.5,0.6-0.9c0.6-0.6,0.8-0.9,0.5-0.8l-0.1,0L39,59.4L39,59.4L39,59.4 M36.9,60c2.4-2,5.3-3.1,8.5-3.1
		c3.4,0,6.4,1.1,8.8,3.3l0.6,0.6c2.6,2.6,3.9,5.8,3.9,9.5c0,3.7-1.3,6.8-3.9,9.5l-0.6,0.6c-0.6,0.5-1.2,1-1.9,1.4
		c-2.1,1.3-4.4,1.9-7,1.9c-2.6,0-4.9-0.6-7-1.9c-0.6-0.4-1.1-0.7-1.6-1.1L36,79.8c-1-1-1.9-2.2-2.5-3.4c-0.6-1.1-0.9-2.2-1.2-3.4
		c-0.2-0.9-0.2-1.7-0.2-2.7c0-0.9,0.1-1.8,0.2-2.7c0.2-1.2,0.6-2.3,1.2-3.4c0.6-1.2,1.5-2.4,2.5-3.4L36.9,60 M35,63.2l-0.4,0.7
		c-0.5,0.8-0.8,1.5-1.1,2.4l-0.1,0.4c-0.2,0.6-0.3,1.2-0.3,1.7c0,0.4,0.1,0.9,0.4,1.4l0,0.1c0.2,0.5,0.5,0.9,0.9,1.2
		c0.9-0.7,1.8-1.1,2.5-1.5c0.3-0.1,0.5-0.2,0.8-0.3c0.2-1.6,0.8-3.3,1.7-4.9l0.2-0.4c-0.3-0.2-0.6-0.6-0.9-1.1
		c-0.3-0.4-0.5-0.8-0.6-1.3l-0.1,0l-1.1,0.4c-0.8,0.3-1.3,0.6-1.6,0.9C35.2,62.8,35.1,63,35,63.2 M36.9,58.6V40.2
		c5.7-0.5,11.5-0.5,17.4,0l0,18.6c-2.5-2-5.5-3-8.8-3c-2,0-3.9,0.4-5.7,1.1C38.8,57.4,37.8,58,36.9,58.6 M32.8,69.3
		c-0.1,1.7,0.1,3.2,0.5,4.6c0,0.1,0.1,0.3,0.1,0.4c0.4,1,0.9,2,1.5,3l0.5-1c-0.9-1.3-1.3-3-1.3-5c-0.2-0.2-0.5-0.5-0.8-1L32.8,69.3
		 M46.2,72.9c-1.1,0.4-2.6,0.6-4.6,0.8l-1.4,4c0.4,0.6,1,1.3,1.7,1.9c0.8,0.7,1.5,1.2,2.1,1.4c0.7,0.2,1.6,0.2,2.7-0.1
		c0.5-0.1,1.3-0.4,2.4-0.8c0.9-1.2,1.4-2.5,1.7-4v0l-2.7-2.6c-0.6-0.5-0.9-0.8-1-0.8l-0.4,0.1l-0.1,0l-0.1,0L46.2,72.9L46.2,72.9
		L46.2,72.9 M35.3,77.9c0.5,0.6,1,1.2,1.6,1.7l0.7,0.6c0.9,0.7,1.7,1.2,2.5,1.6h0l1.7,0.6l1,0.2l0.6-1.3c-1.5-0.8-2.7-1.8-3.7-3.2
		c-0.6,0.1-1.3-0.1-2.1-0.4l-1.9-0.8l-0.2,0.5C35.4,77.5,35.4,77.7,35.3,77.9 M45.5,84.8c3.3,0,6.3-1,8.8-2.9v10.6
		c-5.8,0.9-11.6,1-17.4,0.1l0-10.5C39.4,83.8,42.2,84.8,45.5,84.8 M10.4,95.6c2.5-3.3,0.4-5.4-6.5-6.5c4.5-2.9,8.5-4.5,11.8-5
		l0.9,1.5c-1.2,0.2-1.8,0.4-1.9,0.8c-0.1,0.4,0.4,1.2,1.4,2.6c0.9,1.4,1.5,3,1.7,4.9c-0.8,0.2-1.6,0.5-2.4,0.8
		C12.2,96,10.5,96.2,10.4,95.6 M18.8,93.7c0-1.4-0.6-3.2-1.7-5.4c2.8,1.4,6.3,2.5,10.3,3.6l0.8,0.2l1.1,0.2l3,0.7l4.4,0.7
		c5.7,0.7,11.5,0.7,17.4-0.1l1.3-0.2c2.8-0.5,6.2-1.2,10.2-2.3l0.6-0.2c2.9-0.8,5.4-1.8,7.6-2.8c-1.1,2.2-1.6,4-1.7,5.4v0.8
		c0.2,1.9,0.3,3.5,0.1,4.8c-0.2,1.3-0.6,2.2-1.3,2.7c-0.7,0.5-1.3,0.9-1.9,1.1c-2,0.8-3.8,1.4-5.5,1.9l0,0
		c-3.8,1.1-7.3,1.9-10.3,2.3c-4.9,0.8-9.8,0.9-14.7,0.2l-0.9-0.1c-3.1-0.4-6.2-1-9.3-1.9l-0.8-0.2c-1.7-0.5-3.5-1.1-5.2-1.7
		l-0.4-0.2c-0.6-0.3-1.2-0.6-1.9-1.1c-0.7-0.5-1.1-1.4-1.3-2.7c-0.2-1.3-0.1-2.9,0.1-4.8V93.7 M43.8,88.4c0,0.2-0.1,0.3-0.2,0.4
		c-0.1,0.1-0.2,0.1-0.3,0.1c-0.2,0-0.4-0.1-0.5-0.2c-0.1-0.1-0.1-0.3-0.1-0.5c0-0.1,0-0.2,0.1-0.4c0.1-0.1,0.1-0.2,0.2-0.3
		c0.1-0.1,0.2-0.1,0.3-0.1c0.1,0,0.2,0,0.3,0.1c0.1,0.1,0.1,0.1,0.2,0.2C43.8,88,43.8,88.2,43.8,88.4 M44,86.8
		c-0.3-0.2-0.6-0.2-1-0.2c-0.2,0-0.4,0.1-0.6,0.2c-0.2,0.1-0.3,0.3-0.4,0.4c-0.1,0.1-0.1,0.3-0.2,0.5c0,0.2-0.1,0.4-0.1,0.6
		c0,0.2,0,0.4,0.1,0.6c0,0.2,0.1,0.4,0.2,0.5c0.1,0.1,0.2,0.2,0.3,0.3c0.1,0.1,0.3,0.1,0.4,0.2c0.1,0,0.2,0,0.4,0
		c0.1,0,0.3,0,0.4-0.1c0.1-0.1,0.2-0.2,0.3-0.4c0,0.1,0,0.3,0,0.4c0,0.2-0.1,0.3-0.3,0.5c-0.1,0.1-0.3,0.2-0.5,0.2
		c-0.2,0-0.3,0-0.5-0.1c-0.1-0.1-0.3-0.2-0.5-0.4v1c0.2,0.1,0.4,0.2,0.5,0.2c0.2,0.1,0.5,0.1,0.7,0.1c0.3,0,0.6-0.1,0.8-0.2
		c0.2-0.1,0.4-0.3,0.5-0.5c0.1-0.2,0.2-0.5,0.2-0.7c0.1-0.5,0.1-1,0-1.6c0-0.1-0.1-0.3-0.1-0.6C44.5,87.2,44.3,87,44,86.8
		 M40.5,86.8l-0.5,0.8h0.4v3.5h1v-4.4H40.5 M45.1,90.2h1.7v0.9h0.9v-0.9H48v-0.8h-0.3v-2.7h-1.4l-1.2,2.7V90.2 M35.6,96.8l0,6.5
		l2,0.2l0-6.5L35.6,96.8 M45.8,100.1l-1-2.8l-1.9,0l0,6.5l1.8,0v-2.5l1,2.5l2,0v-6.5l-2,0V100.1 M38.3,97v6.5l3.6,0.2l0.3-1.2
		l-2-0.1l0-5.3L38.3,97 M24.2,97.7c-0.2,0.1-0.2,0.3-0.2,0.5c0,0.2,0.1,0.4,0.2,0.5c0.1,0.1,0.3,0.2,0.5,0.2c0.2,0,0.4-0.1,0.5-0.2
		c0.1-0.2,0.2-0.3,0.2-0.5c0-0.2-0.1-0.4-0.2-0.5c-0.2-0.2-0.3-0.2-0.5-0.2C24.6,97.5,24.4,97.6,24.2,97.7 M29.4,96.1
		c0.6,2.4,1.2,4.7,1.8,6.8l2,0.2l1.8-6.3l-2-0.2l-0.8,4.3c-0.3-1.5-0.6-3.1-0.8-4.5L29.4,96.1 M43.4,110.1c-0.9-0.4-1.8-0.9-2.6-1.4
		l-0.6-0.4c3.6,0.4,7,0.4,10.2,0l-0.6,0.4c-0.8,0.5-1.7,1-2.6,1.4c-0.6,0.3-1.3,0.6-1.9,0.8C44.7,110.7,44.1,110.4,43.4,110.1
		 M74.3,85.4l0.9-1.5c2.6,0.3,5.6,1.4,8.9,3.3c0.9,0.5,1.9,1.1,2.8,1.7c-6.9,1.1-9.1,3.2-6.5,6.5c-0.2,0.6-1.8,0.4-4.9-0.9
		c-0.8-0.3-1.6-0.6-2.4-0.8c0.2-1.9,0.8-3.5,1.7-4.9c0.4-0.6,0.8-1.2,1-1.6c0.3-0.5,0.4-0.8,0.3-1C76.2,85.8,75.5,85.6,74.3,85.4
		 M52.8,60.7c-0.4-0.7-0.7-1-0.9-1c-0.2,0-0.7-0.1-1.5-0.1c-0.8-0.1-2-0.1-3.4,0c-0.4,0.7-0.8,1.9-1.1,3.4c1.3,1.2,2.4,2.5,3.2,3.9
		c0.7-0.1,1.5-0.1,2.4,0c0.6,0.1,1.4,0.2,2.3,0.4l0.5-1.4l0.3-1.2c0.1-0.4,0.1-0.7,0.1-0.9c0-0.1-0.1-0.3-0.2-0.5L52.8,60.7
		 M56.1,64.3c-0.3-0.2-0.6-0.3-0.9-0.4c-0.1,0.4-0.3,1.1-0.5,1.9l-0.4,1c-0.1,0.3-0.2,0.6-0.2,0.7c0,0.1,0.1,0.3,0.2,0.6l0.5,1
		c0.2,0.6,0.3,1.2,0.4,1.7c0.1,0.5,0.1,1.1,0,1.7l1.8,1.1c0.9-0.8,1.3-2.2,1.1-4.2c-0.2-1.6-0.6-3.1-1.2-4.5L56.1,64.3 M56.8,74
		L56.8,74L55.1,73L55,73.1l-0.1,0l-0.1,0.1l-0.1,0.1l0,0.1l-0.1,0.1l0,0.1l-0.9,0.8v0C53,75,52.2,75.5,51,76.1
		c-0.1,0.8-0.3,1.6-0.6,2.3c-0.2,0.6-0.6,1.2-1.1,1.8c1,1.1,2,1.3,3,0.7c0.7-0.4,1.3-0.9,1.9-1.4l0.9-0.9l0.7-0.9
		c0.4-0.5,0.7-1,0.8-1.3c0.1-0.4,0.2-0.9,0.2-1.6v-0.1l0,0v-0.2l0-0.1L56.8,74L56.8,74 M58.5,96.5c-0.5,0.1-0.8,0.2-1,0.4
		c-0.2,0.2-0.3,0.4-0.3,0.7l0,1.9l0,0.1l0,0.3c0,0.2,0,0.4,0.2,0.5c0.1,0.1,0.2,0.1,0.4,0.2l1.6-0.2h0.3c0.1,0,0.1,0.1,0.1,0.1v1.1
		l0,0.1l-0.2,0l-2.1,0.2l0.4,1.1l2.4-0.3c0.5-0.1,0.9-0.2,1.2-0.4c0.2-0.2,0.3-0.4,0.3-0.7v-2.5c0-0.3-0.1-0.4-0.3-0.5l-0.7-0.1
		l-1.2,0.2h-0.2L59,98.7v-0.8c0-0.1,0-0.1,0.1-0.1c0,0,0.1-0.1,0.2-0.1l2.2-0.3l-0.3-1.2L58.5,96.5 M66.6,97.5
		c-0.1-0.2-0.3-0.2-0.5-0.2c-0.2,0-0.4,0.1-0.5,0.2c-0.1,0.1-0.2,0.3-0.2,0.5c0,0.2,0.1,0.4,0.2,0.5c0.2,0.1,0.3,0.2,0.5,0.2
		c0.2,0,0.4-0.1,0.5-0.2c0.2-0.2,0.2-0.3,0.2-0.5C66.9,97.8,66.8,97.7,66.6,97.5 M50.7,86.8h-2.5v0.8h1.4l-1.3,3.5h1l1.3-3.6V86.8
		 M46.8,89.5H46l0.8-1.8V89.5 M48.6,97.3v6.5l2-0.1v-6.5L48.6,97.3 M54.4,96.9v5.3l0,0.1l-0.1,0l-0.7,0.1l-0.2,0c0,0,0-0.1,0-0.1V97
		l-2,0.1v5.5c0,0.3,0.1,0.5,0.3,0.7c0.2,0.1,0.6,0.2,1.2,0.2l2-0.2c0.5-0.1,0.9-0.2,1.2-0.4c0.2-0.2,0.3-0.4,0.3-0.7v-5.5L54.4,96.9
		"/>
	<path fill="#FFFFFF" d="M80.3,45.3L80.3,45.3l-0.2,0L80.3,45.3L80.3,45.3L80.3,45.3L80.3,45.3 M80.3,45.3L80.3,45.3l-0.2,0
		L80.3,45.3L80.3,45.3L80.3,45.3L80.3,45.3 M10.7,45.4L10.7,45.4L10.7,45.4L10.7,45.4L10.7,45.4L10.7,45.4L10.7,45.4L10.7,45.4
		 M10.7,45.5l0.1,0L10.7,45.5L10.7,45.5L10.7,45.5L10.7,45.5L10.7,45.5L10.7,45.5L10.7,45.5 M46.5,52.2l0-5h-1.8v5H46.5 M49.8,43.8
		h1.8v9.9h-12v-1.6h0l0-8.3h1.8v8.3h1.5l0-6.5h1.8v-3.1h1.8v3.1h1.8v6.5h1.5V43.8 M15.5,25.9l0.8-1c0.8-0.2,1.5-0.4,2-0.5l-0.1,0.1
		c-0.3,0.3-0.7,0.8-1.1,1.4c-0.5,0.6-0.7,0.9-0.8,1L15.7,27l-0.8,0.1c0,0-0.1,0-0.3-0.1l-0.7-0.6L13,25.8c0.6-0.2,1.1-0.3,1.6-0.5
		l0.1,0C15.1,25.6,15.4,25.8,15.5,25.9 M45.1,90.2v-0.7l1.2-2.7h1.4v2.7H48v0.8h-0.3v0.9h-0.9v-0.9H45.1 M40.5,86.8h0.9v4.4h-1v-3.5
		h-0.4L40.5,86.8 M44,86.8c0.3,0.1,0.5,0.4,0.6,0.8c0.1,0.2,0.1,0.4,0.1,0.6c0.1,0.6,0.1,1.1,0,1.6c0,0.3-0.1,0.5-0.2,0.7
		c-0.1,0.2-0.3,0.4-0.5,0.5c-0.2,0.1-0.5,0.2-0.8,0.2c-0.2,0-0.4,0-0.7-0.1c-0.1,0-0.3-0.1-0.5-0.2v-1c0.2,0.2,0.4,0.3,0.5,0.4
		c0.2,0.1,0.3,0.1,0.5,0.1c0.2,0,0.4-0.1,0.5-0.2c0.1-0.1,0.2-0.3,0.3-0.5c0-0.2,0-0.3,0-0.4c-0.1,0.2-0.2,0.3-0.3,0.4
		c-0.2,0.1-0.3,0.1-0.4,0.1c-0.1,0-0.3,0-0.4,0c-0.1,0-0.2-0.1-0.4-0.2c-0.1,0-0.2-0.1-0.3-0.3c-0.1-0.1-0.2-0.3-0.2-0.5
		c0-0.2-0.1-0.4-0.1-0.6c0-0.2,0-0.4,0.1-0.6c0-0.2,0.1-0.3,0.2-0.5c0.1-0.2,0.2-0.3,0.4-0.4c0.2-0.1,0.4-0.2,0.6-0.2
		C43.4,86.6,43.7,86.7,44,86.8 M43.8,88.4c0-0.2,0-0.4-0.1-0.6c0-0.1-0.1-0.2-0.2-0.2c-0.1-0.1-0.2-0.1-0.3-0.1
		c-0.1,0-0.2,0-0.3,0.1c-0.1,0.1-0.1,0.2-0.2,0.3c0,0.1-0.1,0.2-0.1,0.4c0,0.2,0,0.4,0.1,0.5c0.1,0.1,0.2,0.2,0.5,0.2
		c0.1,0,0.2-0.1,0.3-0.1C43.7,88.8,43.7,88.6,43.8,88.4 M46.8,89.5v-1.8L46,89.5H46.8 M50.7,86.8v0.7l-1.3,3.6h-1l1.3-3.5h-1.4v-0.8
		H50.7"/>
</g>
</svg>
