<?xml version="1.0" encoding="UTF-8" standalone="no"?>
<svg
   xmlns:dc="http://purl.org/dc/elements/1.1/"
   xmlns:cc="http://creativecommons.org/ns#"
   xmlns:rdf="http://www.w3.org/1999/02/22-rdf-syntax-ns#"
   xmlns:svg="http://www.w3.org/2000/svg"
   xmlns="http://www.w3.org/2000/svg"
   xmlns:sodipodi="http://sodipodi.sourceforge.net/DTD/sodipodi-0.dtd"
   xmlns:inkscape="http://www.inkscape.org/namespaces/inkscape"
   version="1.1"
   width="207.09592"
   height="252"
   id="svg26"
   viewBox="0 0 207.09592 252"
   sodipodi:docname="cs_fola_esch.svg"
   inkscape:version="0.92.4 (5da689c313, 2019-01-14)">
  <metadata
     id="metadata32">
    <rdf:RDF>
      <cc:Work
         rdf:about="">
        <dc:format>image/svg+xml</dc:format>
        <dc:type
           rdf:resource="http://purl.org/dc/dcmitype/StillImage" />
        <dc:title></dc:title>
      </cc:Work>
    </rdf:RDF>
  </metadata>
  <defs
     id="defs30" />
  <sodipodi:namedview
     pagecolor="#ffffff"
     bordercolor="#666666"
     borderopacity="1"
     objecttolerance="10"
     gridtolerance="10"
     guidetolerance="10"
     inkscape:pageopacity="0"
     inkscape:pageshadow="2"
     inkscape:window-width="1366"
     inkscape:window-height="705"
     id="namedview28"
     showgrid="false"
     fit-margin-top="1"
     fit-margin-bottom="1"
     fit-margin-left="1"
     fit-margin-right="1"
     inkscape:zoom="0.56064347"
     inkscape:cx="215.72362"
     inkscape:cy="362.93441"
     inkscape:window-x="-8"
     inkscape:window-y="-8"
     inkscape:window-maximized="1"
     inkscape:current-layer="svg26" />
  <g
     id="Layer1000"
     transform="matrix(0.36175921,0,0,0.36175921,-4.1252598,-26.280696)">
    <g
       id="Layer1001">
      <path
         d="m 316.914,263.0936 v 83.739 c -6.3751,-0.7897 -12.8399,-1.1925 -19.3663,-1.1925 -41.383,0 -80.2891,16.1154 -109.5505,45.3775 -23.5101,23.5097 -38.5239,53.2467 -43.5227,85.4895 h -35.5623 c 5.2301,-41.6736 24.0094,-80.2102 54.1867,-110.3873 31.3076,-31.3083 71.6126,-50.3492 115.0828,-54.7177 v -48.3085 c -122.529,9.858 -218.8951,112.4076 -218.8951,237.4747 0,95.5029 56.199,177.868 137.3231,215.8666 V 661.7764 C 184.6096,654.2312 173.3686,645.286 163.0989,635.0161 132.9206,604.8397 114.1418,566.3024 108.9122,524.6287 h 35.5623 c 4.9978,32.2427 20.0126,61.9809 43.5227,85.4903 12.998,12.9977 27.9023,23.396 44.0779,30.9443 v 75.3716 h 132.9603 v -48.1213 h -84.8385 v -13.7829 c 5.7215,0.6339 11.5097,0.9658 17.3508,0.9658 41.3834,0 80.289,-16.1154 109.5504,-45.3775 23.511,-23.5094 38.5249,-53.2476 43.5237,-85.4903 h 35.5616 c -5.2299,41.6737 -24.0092,80.211 -54.1865,110.3874 -10.2706,10.2699 -21.5116,19.2151 -33.5113,26.7603 v 54.6585 c 81.1236,-37.9986 137.3231,-120.3637 137.3231,-215.8666 0,-125.0671 -96.3654,-227.6167 -218.8947,-237.4747 z m -84.8389,321.8411 v 0 c -3.4974,-2.7254 -6.8655,-5.6575 -10.0511,-8.8442 -14.3721,-14.3709 -24.1146,-32.1274 -28.5464,-51.4618 h 12.5216 v -48.1216 h -12.5208 c 4.431,-19.3346 14.1735,-37.0901 28.5463,-51.4622 3.1853,-3.1855 6.5534,-6.1174 10.0504,-8.8425 z m 65.4726,22.4398 v 0 c -5.8733,0 -11.6658,-0.4974 -17.3508,-1.42 V 416.1642 h -48.0724 c 18.6421,-14.5103 41.4198,-22.4025 65.4232,-22.4025 6.5691,0 13.0387,0.6154 19.3663,1.7686 v 187.835 h 48.1147 c -19.0089,15.5506 -42.593,24.0092 -67.481,24.0092 z m 75.5219,-31.2814 v 0 c -2.5717,2.5717 -5.2561,4.9929 -8.0342,7.2663 v -58.7307 h 36.582 c -4.4315,19.3344 -14.1745,37.0909 -28.5478,51.4644 z m -8.0342,-99.586 v 0 -58.7304 c 2.7798,2.2742 5.4625,4.6955 8.0359,7.2687 14.3716,14.3716 24.1146,32.1271 28.5461,51.4617 z m 85.5864,0 v 0 C 445.623,444.2643 430.6075,414.5273 407.0981,391.0176 394.6428,378.5609 380.4347,368.497 365.0354,361.0341 v -38.3225 c 24.8363,9.411 47.6173,24.0642 66.9615,43.4082 30.1781,30.1771 48.9559,68.7137 54.1865,110.3873 z"
         style="fill:#ff0000;fill-rule:evenodd"
         id="path2"
         inkscape:connector-curvature="0" />
    </g>
    <path
       d="M 16.2935,75.4112 H 581.108 v 410.381 H 581.1 c -0.0247,54.9139 -24.4698,125.0853 -71.9869,181.4967 -47.5507,56.4511 -118.1954,99.18 -210.5893,99.1797 v 0.008 h -0.1355 v -0.008 l -0.9998,0.002 v 0.008 c -83.9695,0 -154.665,-37.2144 -204.4233,-90.6495 -49.7411,-53.4163 -78.5581,-123.086 -78.788,-188.011 l -0.0014,-0.7758 h -0.0082 l 2e-4,-411.6311 z m 560.5626,4.252 H 18.4195 v 407.3791 h -0.0082 l 0.0014,0.7758 c 0.2262,63.8717 28.6302,132.4696 77.6585,185.1208 49.0108,52.6323 118.6339,89.2877 201.3171,89.2877 v 0.008 l 0.9998,-0.002 v -0.008 h 0.1355 v 0.008 c 90.9641,0 160.5243,-42.0775 207.3504,-97.6683 46.8595,-55.6308 70.9659,-124.7397 70.9903,-178.7726 h -0.008 z"
       style="fill:#ca002a;fill-rule:evenodd"
       id="path5"
       inkscape:connector-curvature="0" />
    <path
       d="M 18.4195,131.6866 H 576.8561 V 79.6632 H 18.4195 Z"
       style="fill:#ff0000;fill-rule:evenodd"
       id="path7"
       inkscape:connector-curvature="0" />
    <path
       d="M 576.8561,183.0617 H 18.4195 v 53.2233 h 558.4366 z"
       style="fill:#00a1de;fill-rule:evenodd"
       id="path9"
       inkscape:connector-curvature="0" />
    <path
       d="M 18.4195,183.0617 H 576.8561 V 131.6866 H 18.4195 Z"
       style="fill:#ffffff;fill-rule:evenodd"
       id="path11"
       inkscape:connector-curvature="0" />
    <path
       d="M 576.8561,236.285 H 18.4195 v 250.7573 h -0.0082 l 0.0014,0.7758 c 0.2262,63.8717 28.6302,132.4696 77.6585,185.1208 49.0108,52.6323 118.6339,89.2877 201.3171,89.2877 v 0.008 l 0.9998,-0.002 v -0.008 h 0.1355 v 0.008 c 90.9641,0 160.5243,-42.0775 207.3504,-97.6683 46.8595,-55.6308 70.9659,-124.7397 70.9903,-178.7726 h -0.008 z M 59.2866,500.5684 c 0,-125.0674 96.3658,-227.6167 218.8956,-237.4747 v 48.3083 c -43.471,4.3682 -83.7757,23.4093 -115.0832,54.7177 -30.1774,30.1768 -48.9563,68.7135 -54.1868,110.3871 h 35.562 c 4.9989,-32.2427 20.0126,-61.9798 43.5229,-85.4893 29.262,-29.2617 68.1673,-45.3772 109.5506,-45.3772 6.5267,0 12.9914,0.4025 19.3665,1.1928 v -83.7394 c 122.529,9.858 218.8945,112.4073 218.8945,237.4747 0,95.5032 -56.1994,177.8678 -137.323,215.8662 v -54.6582 c 11.9996,-7.545 23.2404,-16.4909 33.5112,-26.7602 30.1773,-30.1768 48.9569,-68.7135 54.1868,-110.3876 h -35.5621 c -4.9986,32.2426 -20.0123,61.9809 -43.5234,85.4903 -29.262,29.2621 -68.167,45.3773 -109.5505,45.3773 -5.8414,0 -11.6295,-0.3319 -17.3515,-0.9652 v 13.7821 h 84.839 v 48.1215 H 232.0756 v -75.371 c -16.1762,-7.5484 -31.0802,-17.9473 -44.0785,-30.9447 -23.5103,-23.5094 -38.5248,-53.2477 -43.5229,-85.4903 h -35.562 c 5.2293,41.6741 24.0083,80.2108 54.1868,110.3876 10.2693,10.2693 21.511,19.2152 33.5106,26.7602 v 54.6582 C 115.4854,678.4362 59.2866,596.0716 59.2866,500.5684 Z"
       style="fill:#ffffff;fill-rule:evenodd"
       id="path13"
       inkscape:connector-curvature="0" />
    <path
       d="M 316.9142,583.3653 V 395.53 c -6.3277,-1.1528 -12.7975,-1.7688 -19.3665,-1.7688 -24.0038,0 -46.7813,7.8928 -65.4234,22.4031 h 48.0719 v 189.79 c 5.6855,0.9229 11.4786,1.4201 17.3515,1.4201 24.8881,0 48.4721,-8.4588 67.4812,-24.0091 z"
       style="fill:#ffffff;fill-rule:evenodd"
       id="path15"
       inkscape:connector-curvature="0" />
    <path
       d="m 232.0756,584.9345 v -168.732 c -3.4974,2.725 -6.8661,5.6568 -10.0511,8.8421 -14.3722,14.3725 -24.1149,32.1282 -28.5466,51.4622 h 12.5212 v 48.1218 h -12.5215 c 4.432,19.3342 14.1747,37.091 28.546,51.4618 3.1859,3.1867 6.5543,6.1192 10.052,8.8441 z"
       style="fill:#ffffff;fill-rule:evenodd"
       id="path17"
       inkscape:connector-curvature="0" />
    <path
       d="m 365.0352,524.6286 v 58.7307 c 2.7785,-2.2734 5.4623,-4.6942 8.0342,-7.266 14.3737,-14.3737 24.1163,-32.1305 28.548,-51.4647 z"
       style="fill:#ffffff;fill-rule:evenodd"
       id="path19"
       inkscape:connector-curvature="0" />
    <path
       d="m 365.0352,476.5068 h 36.5822 c -4.4317,-19.334 -14.1743,-37.0897 -28.5457,-51.4613 -2.5742,-2.5725 -5.2563,-4.9949 -8.0365,-7.2692 z"
       style="fill:#ffffff;fill-rule:evenodd"
       id="path21"
       inkscape:connector-curvature="0" />
    <path
       d="m 407.0982,391.0175 c 23.51,23.5095 38.5248,53.2466 43.5234,85.4893 h 35.5621 c -5.2308,-41.6736 -24.0089,-80.2103 -54.1868,-110.3871 -19.3445,-19.3442 -42.1251,-33.997 -66.9617,-43.4083 v 38.323 c 15.3992,7.4627 29.6076,17.5266 42.063,29.9831 z"
       style="fill:#ffffff;fill-rule:evenodd"
       id="path23"
       inkscape:connector-curvature="0" />
  </g>
</svg>
