<?xml version="1.0" encoding="UTF-8" standalone="no"?>
<svg
   xmlns:dc="http://purl.org/dc/elements/1.1/"
   xmlns:cc="http://creativecommons.org/ns#"
   xmlns:rdf="http://www.w3.org/1999/02/22-rdf-syntax-ns#"
   xmlns:svg="http://www.w3.org/2000/svg"
   xmlns="http://www.w3.org/2000/svg"
   viewBox="0 0 201.68771 252"
   height="252"
   width="201.68771"
   xml:space="preserve"
   id="svg2"
   version="1.1"><metadata
     id="metadata8"><rdf:RDF><cc:Work
         rdf:about=""><dc:format>image/svg+xml</dc:format><dc:type
           rdf:resource="http://purl.org/dc/dcmitype/StillImage" /><dc:title></dc:title></cc:Work></rdf:RDF></metadata><defs
     id="defs6"><clipPath
       id="clipPath18"
       clipPathUnits="userSpaceOnUse"><path
         id="path16"
         d="M 0,841.89 H 595.28 V 0 H 0 Z" /></clipPath><linearGradient
       id="linearGradient62"
       spreadMethod="pad"
       gradientTransform="matrix(0,-632.87067,-632.87067,0,187.41348,757.3559)"
       gradientUnits="userSpaceOnUse"
       y2="0"
       x2="1"
       y1="0"
       x1="0"><stop
         id="stop56"
         offset="0"
         style="stop-opacity:1;stop-color:#3b3c3e" /><stop
         id="stop58"
         offset="0.512821"
         style="stop-opacity:1;stop-color:#595c5d" /><stop
         id="stop60"
         offset="1"
         style="stop-opacity:1;stop-color:#37383a" /></linearGradient><linearGradient
       id="linearGradient82"
       spreadMethod="pad"
       gradientTransform="matrix(0,-640.29077,-640.29077,0,409.40115,724.71503)"
       gradientUnits="userSpaceOnUse"
       y2="0"
       x2="1"
       y1="0"
       x1="0"><stop
         id="stop78"
         offset="0"
         style="stop-opacity:1;stop-color:#db2831" /><stop
         id="stop80"
         offset="1"
         style="stop-opacity:1;stop-color:#a0272b" /></linearGradient><clipPath
       id="clipPath92"
       clipPathUnits="userSpaceOnUse"><path
         id="path90"
         d="M 0,841.89 H 595.28 V 0 H 0 Z" /></clipPath><linearGradient
       id="linearGradient118"
       spreadMethod="pad"
       gradientTransform="matrix(0,-60.547707,-60.547707,0,297.64001,524.74066)"
       gradientUnits="userSpaceOnUse"
       y2="0"
       x2="1"
       y1="0"
       x1="0"><stop
         id="stop110"
         offset="0"
         style="stop-opacity:1;stop-color:#db2831" /><stop
         id="stop112"
         offset="0.482906"
         style="stop-opacity:1;stop-color:#db2831" /><stop
         id="stop114"
         offset="0.6808549"
         style="stop-opacity:1;stop-color:#8e292d" /><stop
         id="stop116"
         offset="1"
         style="stop-opacity:1;stop-color:#8e292d" /></linearGradient><linearGradient
       id="linearGradient142"
       spreadMethod="pad"
       gradientTransform="matrix(0,-55.514973,-55.514973,0,144.83391,601.42657)"
       gradientUnits="userSpaceOnUse"
       y2="0"
       x2="1"
       y1="0"
       x1="0"><stop
         id="stop134"
         offset="0"
         style="stop-opacity:1;stop-color:#db2831" /><stop
         id="stop136"
         offset="0.405983"
         style="stop-opacity:1;stop-color:#db2831" /><stop
         id="stop138"
         offset="0.63337882"
         style="stop-opacity:1;stop-color:#8e292d" /><stop
         id="stop140"
         offset="1"
         style="stop-opacity:1;stop-color:#8e292d" /></linearGradient><linearGradient
       id="linearGradient166"
       spreadMethod="pad"
       gradientTransform="matrix(0,-55.514973,-55.514973,0,213.27525,601.42657)"
       gradientUnits="userSpaceOnUse"
       y2="0"
       x2="1"
       y1="0"
       x1="0"><stop
         id="stop158"
         offset="0"
         style="stop-opacity:1;stop-color:#db2831" /><stop
         id="stop160"
         offset="0.405983"
         style="stop-opacity:1;stop-color:#db2831" /><stop
         id="stop162"
         offset="0.63337882"
         style="stop-opacity:1;stop-color:#8e292d" /><stop
         id="stop164"
         offset="1"
         style="stop-opacity:1;stop-color:#8e292d" /></linearGradient><linearGradient
       id="linearGradient190"
       spreadMethod="pad"
       gradientTransform="matrix(0,-55.063633,-55.063633,0,276.77899,601.42657)"
       gradientUnits="userSpaceOnUse"
       y2="0"
       x2="1"
       y1="0"
       x1="0"><stop
         id="stop182"
         offset="0"
         style="stop-opacity:1;stop-color:#db2831" /><stop
         id="stop184"
         offset="0.405983"
         style="stop-opacity:1;stop-color:#db2831" /><stop
         id="stop186"
         offset="0.63337882"
         style="stop-opacity:1;stop-color:#8e292d" /><stop
         id="stop188"
         offset="1"
         style="stop-opacity:1;stop-color:#8e292d" /></linearGradient><linearGradient
       id="linearGradient214"
       spreadMethod="pad"
       gradientTransform="matrix(0,-55.514973,-55.514973,0,339.65988,601.65222)"
       gradientUnits="userSpaceOnUse"
       y2="0"
       x2="1"
       y1="0"
       x1="0"><stop
         id="stop206"
         offset="0"
         style="stop-opacity:1;stop-color:#db2831" /><stop
         id="stop208"
         offset="0.405983"
         style="stop-opacity:1;stop-color:#db2831" /><stop
         id="stop210"
         offset="0.63337882"
         style="stop-opacity:1;stop-color:#8e292d" /><stop
         id="stop212"
         offset="1"
         style="stop-opacity:1;stop-color:#8e292d" /></linearGradient><linearGradient
       id="linearGradient238"
       spreadMethod="pad"
       gradientTransform="matrix(0,-55.514973,-55.514973,0,395.62619,601.42657)"
       gradientUnits="userSpaceOnUse"
       y2="0"
       x2="1"
       y1="0"
       x1="0"><stop
         id="stop230"
         offset="0"
         style="stop-opacity:1;stop-color:#db2831" /><stop
         id="stop232"
         offset="0.405983"
         style="stop-opacity:1;stop-color:#db2831" /><stop
         id="stop234"
         offset="0.63337882"
         style="stop-opacity:1;stop-color:#8e292d" /><stop
         id="stop236"
         offset="1"
         style="stop-opacity:1;stop-color:#8e292d" /></linearGradient><linearGradient
       id="linearGradient262"
       spreadMethod="pad"
       gradientTransform="matrix(0,-55.514973,-55.514973,0,449.91367,601.65222)"
       gradientUnits="userSpaceOnUse"
       y2="0"
       x2="1"
       y1="0"
       x1="0"><stop
         id="stop254"
         offset="0"
         style="stop-opacity:1;stop-color:#db2831" /><stop
         id="stop256"
         offset="0.405983"
         style="stop-opacity:1;stop-color:#db2831" /><stop
         id="stop258"
         offset="0.63337882"
         style="stop-opacity:1;stop-color:#8e292d" /><stop
         id="stop260"
         offset="1"
         style="stop-opacity:1;stop-color:#8e292d" /></linearGradient><clipPath
       id="clipPath272"
       clipPathUnits="userSpaceOnUse"><path
         id="path270"
         d="M 0,841.89 H 595.28 V 0 H 0 Z" /></clipPath></defs><g
     transform="matrix(1.3333333,0,0,-1.3333333,-26.691999,350.01333)"
     id="g10"><g
       transform="matrix(0.27046131,0,0,0.27046131,15.151789,54.175543)"
       id="g366"><g
         id="g12"><g
           id="g14"
           clip-path="url(#clipPath18)"><g
             id="g20"
             transform="translate(297.64,74.26)"><path
               d="m 0,0 c -16.969,11.425 -81.313,74.581 -101.007,94.039 -3.663,3.619 -7.439,7.14 -11.308,10.538 -39.355,34.573 -64.373,64.567 -74.28,80.504 -4.595,7.391 -9.934,25.116 -12.699,33.368 -34.361,102.54 -77.577,359.87 -77.577,359.87 16.549,1.504 147.986,43.629 198.988,70.71 C -23.687,677.806 0,693.26 0,693.26 c 0,0 23.484,-20.412 71.661,-45.736 46.939,-24.673 188.661,-67.701 205.21,-69.205 0,0 -38.944,-263.363 -73.305,-365.903 C 200.8,204.164 197.148,196.242 192.554,188.85 182.189,172.178 159.522,141.019 116.795,104.109 116.795,104.109 6.969,12.337 0,0"
               style="fill:#ffffff;fill-opacity:1;fill-rule:nonzero;stroke:none"
               id="path22" /></g><g
             id="g24"
             transform="translate(161.0822,307.7539)"><path
               d="m 0,0 c 0,0 4.213,9.93 17.452,22.567 h 4.513 c 0,0 14.443,15.647 18.355,15.647 3.911,0 16.248,-7.222 16.248,-7.222 0,0 16.248,6.62 26.178,16.549 9.929,9.93 21.326,10.734 25.237,10.734 l 5.675,2.378 c 1.094,0.458 2.342,-0.141 2.669,-1.28 l 0.548,-1.911 c 0,0 4.084,4.221 9.2,-1.195 3.58,-3.791 8.294,-5.509 10.801,-6.199 1.833,-0.504 3.598,-1.196 5.254,-2.131 2.803,-1.583 7.028,-4.384 11.724,-8.931 0.519,-0.503 1.198,-0.826 1.918,-0.887 l 7.65,-0.656 c 1.112,-0.096 2.219,0.138 3.198,0.675 2.261,1.241 6.629,3.352 8.801,2.483 0,0 16.725,7.91 26.473,15.112 2.367,1.749 5.643,1.534 7.734,-0.537 l 23.258,-20.984 c 2.757,-2.731 7.125,-2.956 10.147,-0.522 4.471,2.436 10.604,-0.155 14.392,-2.878 2.43,-1.747 3.499,-2.654 5.219,-4.487 0.743,-0.791 0.902,-1.97 0.383,-2.922 l -0.948,-1.739 c 0,0 1.805,-7.823 21.664,-17.752 0,0 -88.559,-165.191 -147.185,-160.979 C 77.932,-152.854 0,0 0,0"
               style="fill:#56595a;fill-opacity:1;fill-rule:nonzero;stroke:none"
               id="path26" /></g><g
             id="g28"
             transform="translate(334.7018,347.5097)"><path
               d="m 0,0 -5.721,-2.746 4.514,-1.203 6.302,5.211 c 2.121,1.754 4.592,3.088 7.283,3.666 6.029,1.296 11.602,4.567 15.176,7.046 2.453,1.702 5.751,1.486 7.928,-0.557 l 4.834,-4.534 c -4.814,-3.31 -1.805,-6.62 -1.805,-6.62 l 3.514,3.012 c 0.347,0.298 0.675,0.623 0.93,1.003 0.571,0.853 2.609,2.875 5.184,-0.404 2.935,-3.736 7.222,-11.133 7.222,-11.133 4.244,-5.778 13.239,-3.912 13.239,-3.912 8.124,5.115 11.735,1.986 11.735,1.986 l 6.3,-6.913 -1.428,-1.747 c -0.386,-0.651 -0.492,-1.429 -0.295,-2.159 l 0.538,-1.999 h -6.619 v 8.425 l -21.364,0.602 c -1.203,-4.213 -7.762,-5.115 -7.762,-5.115 0.664,4.212 -1.866,3.911 -1.866,3.911 -4.213,-0.301 -2.408,-7.221 -2.408,-7.221 5.116,-9.93 4.213,-12.036 4.213,-12.036 -6.921,1.504 -4.213,-0.602 -18.054,14.443 -13.841,15.045 -3.611,23.77 -3.611,23.77 L 31.402,1.222 C 34.562,5.453 30.387,7.184 30.387,7.184 10.4,5.278 6.36,-2.422 0.792,-6.331 -0.949,-7.553 -3.181,-7.843 -5.206,-7.195 l -2.621,0.838 -5.115,-3.309 12.036,-7.222 2.826,-0.605 c 0.859,-0.185 1.557,-0.809 1.835,-1.643 l 1.056,-3.168 c 1.805,-3.31 -2.407,-4.213 -2.407,-4.213 -2.709,6.018 -10.532,8.726 -10.532,8.726 h -6.619 l -4.514,5.116 -3.611,0.601 14.392,-15.335 c 0.658,-0.701 -0.2,-1.774 -1.029,-1.286 l -15.469,9.099 v 3.009 c 0,1.805 -10.901,12.717 -10.901,12.717 1.182,3.992 -2.537,2.328 -2.537,2.328 l -1.705,-2.428 c -0.713,-1.016 -2.309,-0.511 -2.309,0.729 v 3.805 c 0,3.31 -3.911,2.407 -3.911,2.407 0.092,-1.668 -0.358,-3.137 -1.024,-4.371 -1.436,-2.655 -5.145,-2.915 -6.927,-0.479 -0.557,0.761 -1.493,1.145 -2.424,0.996 l -2.601,-0.152 c -0.66,-0.105 -0.51,2.499 -0.057,2.991 l 4.908,3.723 c -3.911,6.018 -6.318,8.425 -9.929,9.328 -3.611,0.903 -18.355,-8.425 -25.877,-15.045 -7.522,-6.62 -18.655,-9.628 -18.655,-9.628 h -4.213 c -4.814,-2.709 0.602,-4.213 0.602,-4.213 5.416,0.903 8.726,-2.106 8.124,-4.513 -0.602,-2.408 -4.513,-0.903 -4.513,-0.903 0,-1.805 -4.514,-3.512 -4.514,-3.512 -3.31,3.408 -21.062,13.141 -21.062,13.141 0,0 -16.55,-15.045 -18.355,-12.939 0,0 12.337,14.142 20.16,19.257 l 12.824,-7.328 c 0,0 7.524,2.589 8.765,3.605 0,0 5.755,0.79 8.237,2.144 2.346,1.279 14.164,10.015 16.599,12.02 0.232,0.191 0.477,0.338 0.756,0.452 1.814,0.744 8.784,3.703 9.274,5.468 l 0.357,1.925 c 0.128,0.692 0.638,1.243 1.32,1.413 2.301,0.575 7.548,1.732 9.72,0.95 0,0 2.458,2.321 6.008,0.556 0.344,-0.171 0.585,-0.508 0.671,-0.882 l 0.73,-3.19 c 0.098,-0.428 0.419,-0.772 0.845,-0.876 1.266,-0.31 3.883,-0.526 4.594,2.691 0.066,0.3 0.45,0.394 0.65,0.16 1.53,-1.789 6.317,-6.821 12.932,-8.388 0,0 3.922,-0.339 5.615,-2.257 l 3.836,-0.564 -0.564,-1.241 -1.827,0.049 c -1.475,0.04 -2.598,-1.352 -2.204,-2.773 0.365,-1.319 1.273,-2.703 3.407,-3.192 0.738,-0.169 1.457,0.392 1.513,1.146 l 0.239,3.19 1.242,1.241 v -3.498 l 1.918,0.339 0.561,-0.999 c 0.285,-0.505 0.798,-0.84 1.376,-0.896 l 2.576,-0.249 2.103,0.06 c 0.683,0.019 1.18,-0.63 0.987,-1.285 -0.206,-0.702 -0.132,-1.62 0.859,-2.612 0,0 2.934,-1.354 4.965,1.58 0,0 10.987,4.739 11.814,4.589"
               style="fill:#ffffff;fill-opacity:1;fill-rule:nonzero;stroke:none"
               id="path30" /></g><g
             id="g32"
             transform="translate(369.489,335.0224)"><path
               d="m 0,0 c 1.249,-4.047 7.56,0.903 7.56,0.903 l 3.949,3.215 4.918,-0.381 c 0,0 2.078,3.146 -0.404,4.274 C 13.54,9.14 10.945,9.14 10.945,9.14 10.945,9.14 -2.821,9.14 0,0"
               style="fill:#252729;fill-opacity:1;fill-rule:nonzero;stroke:none"
               id="path34" /></g><g
             id="g36"
             transform="translate(308.3322,339.4923)"><path
               d="m 0,0 v -1.198 h 6.657 l 1.016,-1.467 3.611,1.242 -2.257,1.297 c 0,0 1.241,0.621 -0.677,2.539 C 7.222,3.541 4.534,3.342 2.51,2.987 1.058,2.733 0,1.474 0,0"
               style="fill:#252729;fill-opacity:1;fill-rule:nonzero;stroke:none"
               id="path38" /></g><g
             id="g40"
             transform="translate(443.9039,318.0407)"><path
               d="m 0,0 c 0,0 -9.535,11.171 -13.71,11.622 -4.174,0.451 0,-4.57 0,-4.57 0,0 8.632,-7.898 14.274,-9.027 C 6.206,-3.103 0,0 0,0"
               style="fill:#56595a;fill-opacity:1;fill-rule:nonzero;stroke:none"
               id="path42" /></g></g></g><g
         id="g44"><g
           id="g46"><g
             id="g52"><g
               id="g54"><path
                 d="M 222.05,714.424 C 172.528,688.138 44.961,647.247 28.894,645.784 v 0 c 0,0 41.938,-249.79 75.301,-349.32 v 0 c 2.69,-7.998 7.871,-25.202 12.331,-32.388 v 0 c 9.605,-15.472 33.886,-44.574 72.088,-78.136 v 0 c 3.756,-3.304 7.42,-6.716 10.976,-10.237 v 0 c 10.002,-9.874 31.884,-31.377 52.826,-51.218 v 0 l 45.224,42.3 c -13.089,8.81 -65.877,63.729 -68.856,66.347 v 0 c -30.33,26.648 -52.844,52.067 -55.516,58.223 v 0 C 128.586,394.261 98.581,605.723 98.581,605.723 v 0 c 12.745,1.156 96.244,31.811 136.521,50.768 v 0 c 42.642,20.075 63.297,30.997 63.297,30.997 v 0 c 0,0 25.581,18.27 47.535,37.227 v 0 c -32.425,18.848 -48.294,32.641 -48.294,32.641 v 0 c 0,0 -23.001,-15.003 -75.59,-42.932"
                 style="fill:url(#linearGradient62);stroke:none"
                 id="path64" /></g></g></g></g><g
         id="g66"><g
           id="g68"><g
             id="g74"><g
               id="g76"><path
                 d="m 298.399,687.488 c 0,0 22.765,-18.433 61.273,-35.06 v 0 c 38.31,-16.555 121.501,-44.809 137.515,-48.889 v 0 c 0,0 -24.734,-187.903 -54.522,-282.685 v 0 c -2.004,-6.408 -18.921,-43.924 -51.85,-72.377 v 0 c 0,0 -62.285,-56.417 -93.175,-81.692 v 0 l -45.224,-42.3 c 19.064,-18.072 37.37,-34.771 45.224,-40.061 v 0 c 6.77,11.988 113.377,101.064 113.377,101.064 v 0 c 41.469,35.819 63.458,66.077 73.532,82.253 v 0 c 4.46,7.168 7.998,14.858 10.689,22.874 v 0 c 33.345,99.53 71.148,355.169 71.148,355.169 v 0 c -16.068,1.463 -153.618,43.221 -199.185,67.178 v 0 c -7.745,4.062 -14.84,7.997 -21.267,11.753 v 0 C 323.98,705.758 298.399,687.488 298.399,687.488"
                 style="fill:url(#linearGradient82);stroke:none"
                 id="path84" /></g></g></g></g><g
         id="g86"><g
           id="g88"
           clip-path="url(#clipPath92)"><g
             id="g94"
             transform="translate(357.867,439.016)"><path
               d="m 0,0 c 0,-32.605 -26.431,-59.054 -59.035,-59.054 -32.623,0 -59.054,26.449 -59.054,59.054 0,20.852 10.814,39.194 27.153,49.684 -11.753,-9.045 -18.722,-23.091 -18.722,-38.852 0,-27.297 23.939,-49.413 51.236,-49.413 27.298,0 49.431,22.116 49.431,49.413 0,17.061 -8.647,32.1 -21.79,41 C -12.439,41.83 0,22.368 0,0"
               style="fill:#38393b;fill-opacity:1;fill-rule:nonzero;stroke:none"
               id="path96" /></g></g></g><g
         id="g98"><g
           id="g100"><g
             id="g106"><g
               id="g108"><path
                 d="m 291.769,508.419 -15.655,7.336 7.509,-15.574 -16.257,-5.883 16.321,-5.702 -7.335,-15.655 15.573,7.509 5.883,-16.257 5.703,16.321 15.655,-7.335 -7.51,15.573 16.258,5.883 -16.321,5.702 7.335,15.655 -15.573,-7.508 -5.883,16.256 z"
                 style="fill:url(#linearGradient118);stroke:none"
                 id="path120" /></g></g></g></g><g
         id="g122"><g
           id="g124"><g
             id="g130"><g
               id="g132"><path
                 d="m 138.298,601.427 c -14.1,0 -25.509,-11.41 -25.509,-25.492 v 0 -4.513 c 0,-14.101 11.409,-25.511 25.509,-25.511 v 0 h 13.071 c 4.063,0 7.89,0.94 11.302,2.636 v 0 l 2.239,-2.636 h 11.969 l -7.131,7.836 c 4.423,4.567 7.131,10.814 7.131,17.675 v 0 4.513 c 0,14.082 -11.41,25.492 -25.51,25.492 v 0 z m -16.789,-31.595 v 7.818 c 0,8.142 6.607,14.75 14.749,14.75 v 0 h 17.152 c 8.142,0 14.75,-6.608 14.75,-14.75 v 0 -7.818 c 0,-3.863 -1.499,-7.383 -3.918,-10.019 v 0 l -2.943,3.249 H 150.25 l 6.481,-7.582 c -1.065,-0.271 -2.184,-0.397 -3.321,-0.397 v 0 h -17.152 c -8.142,0 -14.749,6.608 -14.749,14.749"
                 style="fill:url(#linearGradient142);stroke:none"
                 id="path144" /></g></g></g></g><g
         id="g146"><g
           id="g148"><g
             id="g154"><g
               id="g156"><path
                 d="m 192.676,601.427 v -8.937 l 29.175,-0.09 c 8.142,0 14.75,-6.608 14.75,-14.75 v 0 -2.095 H 181.23 v -4.133 c 0,-1.048 0.054,-2.077 0.18,-3.087 v 0 c 1.535,-12.656 12.295,-22.424 25.33,-22.424 v 0 h 13.089 c 14.082,0 25.491,11.41 25.491,25.511 v 0 4.513 c 0,14.082 -11.409,25.492 -25.491,25.492 v 0 z m -2.636,-33.092 h 46.488 c -0.758,-7.439 -7.041,-13.252 -14.677,-13.252 v 0 H 204.7 c -7.637,0 -13.92,5.813 -14.66,13.252"
                 style="fill:url(#linearGradient166);stroke:none"
                 id="path168" /></g></g></g></g><g
         id="g170"><g
           id="g172"><g
             id="g178"><g
               id="g180"><path
                 d="m 248.949,601.427 v -55.064 h 40.242 c 8.521,0 15.418,6.897 15.418,15.418 v 0 1.949 c 0,5.543 -4.478,10.02 -10.002,10.02 v 0 h -1.733 c 3.249,0 6.174,1.318 8.305,3.431 v 0 c 2.112,2.13 3.43,5.072 3.43,8.304 v 0 c 0,9.027 -6.626,15.942 -17.152,15.942 v 0 z m 7.817,-9.334 h 32.443 c 3.917,0 7.077,-3.159 7.077,-7.059 v 0 c 0,-1.95 -0.794,-3.719 -2.076,-5.001 v 0 c -1.264,-1.282 -3.033,-2.076 -5.001,-2.076 v 0 h -32.443 z m 0,-21.954 h 31.974 c 4.151,0 7.528,-3.376 7.528,-7.527 v 0 c 0,-2.077 -0.848,-3.954 -2.203,-5.327 v 0 c -1.372,-1.354 -3.249,-2.202 -5.325,-2.202 v 0 h -31.974 z"
                 style="fill:url(#linearGradient190);stroke:none"
                 id="path192" /></g></g></g></g><g
         id="g194"><g
           id="g196"><g
             id="g202"><g
               id="g204"><path
                 d="m 319.061,601.652 v -8.936 l 29.174,-0.09 c 8.143,0 14.75,-6.608 14.75,-14.75 v 0 -2.095 h -55.37 v -4.134 c 0,-1.047 0.054,-2.076 0.181,-3.087 v 0 c 1.534,-12.656 12.293,-22.423 25.328,-22.423 v 0 h 13.09 c 14.081,0 25.491,11.41 25.491,25.51 v 0 4.513 c 0,14.082 -11.41,25.492 -25.491,25.492 v 0 z m -2.636,-33.092 h 46.488 c -0.758,-7.438 -7.041,-13.252 -14.678,-13.252 v 0 h -17.15 c -7.638,0 -13.92,5.814 -14.66,13.252"
                 style="fill:url(#linearGradient214);stroke:none"
                 id="path216" /></g></g></g></g><g
         id="g218"><g
           id="g220"><g
             id="g226"><g
               id="g228"><path
                 d="m 374.711,601.427 v -55.516 h 41.831 v 9.172 h -32.805 v 46.344 z"
                 style="fill:url(#linearGradient238);stroke:none"
                 id="path240" /></g></g></g></g><g
         id="g242"><g
           id="g244"><g
             id="g250"><g
               id="g252"><path
                 d="m 429.314,601.652 v -8.936 l 29.175,-0.09 c 8.142,0 14.75,-6.608 14.75,-14.75 v 0 -2.095 h -55.371 v -4.134 c 0,-1.047 0.055,-2.076 0.181,-3.087 v 0 c 1.535,-12.656 12.295,-22.423 25.33,-22.423 v 0 h 13.088 c 14.082,0 25.492,11.41 25.492,25.51 v 0 4.513 c 0,14.082 -11.41,25.492 -25.492,25.492 v 0 z m -2.636,-33.092 h 46.489 c -0.759,-7.438 -7.041,-13.252 -14.678,-13.252 v 0 h -17.151 c -7.636,0 -13.919,5.814 -14.66,13.252"
                 style="fill:url(#linearGradient262);stroke:none"
                 id="path264" /></g></g></g></g><g
         id="g266"><g
           id="g268"
           clip-path="url(#clipPath272)"><g
             id="g274"
             transform="translate(483.252,602.5478)"><path
               d="m 0,0 v -0.415 c 0,-0.256 -0.207,-0.463 -0.463,-0.463 h -0.801 c -0.256,0 -0.463,0.207 -0.463,0.463 V 0 c 0,0.256 0.207,0.463 0.463,0.463 h 0.801 C -0.207,0.463 0,0.256 0,0"
               style="fill:#db2831;fill-opacity:1;fill-rule:nonzero;stroke:none"
               id="path276" /></g><path
             d="m 483.252,593.56 h -1.727 v 7.413 h 1.727 z"
             style="fill:#db2831;fill-opacity:1;fill-rule:nonzero;stroke:none"
             id="path278" /><g
             id="g280"
             transform="translate(490.5453,593.5596)"><path
               d="M 0,0 H -1.283 L -3.275,3.432 H -4.573 V 0 H -5.87 v 7.413 h 1.297 V 4.722 h 0.601 l 2.261,2.691 h 1.624 c 0.235,0 0.358,-0.279 0.2,-0.453 L -2.253,4.351 0.355,0.689 C 0.561,0.4 0.354,0 0,0"
               style="fill:#db2831;fill-opacity:1;fill-rule:nonzero;stroke:none"
               id="path282" /></g><g
             id="g284"
             transform="translate(288.9561,228.8441)"><path
               d="m 0,0 c -3.359,0 -6.093,-2.733 -6.093,-6.093 0,-3.359 2.734,-6.093 6.093,-6.093 2.883,0 5.327,1.966 5.943,4.782 0.099,0.429 0.15,0.883 0.15,1.311 0,0.428 -0.051,0.882 -0.15,1.314 C 5.327,-1.966 2.883,0 0,0 m 16.556,0 c -3.361,0 -6.094,-2.733 -6.094,-6.093 0,-3.359 2.733,-6.093 6.094,-6.093 3.359,0 6.092,2.734 6.092,6.093 0,3.36 -2.733,6.093 -6.092,6.093 m 9.83,-16.555 v 4.369 H 39.57 c 1.201,0 2.179,0.977 2.179,2.178 v 0.14 c 0,1.188 -0.967,2.166 -2.156,2.178 l -12.941,0.133 -0.025,-0.199 c -0.119,-0.932 -0.296,-1.473 -0.676,-2.404 -0.241,-0.541 -0.466,-0.974 -0.705,-1.356 -1.919,-3.156 -5.255,-5.039 -8.926,-5.039 -3.078,0 -5.99,1.347 -7.988,3.695 L 8.16,-12.659 7.988,-12.86 C 5.99,-15.208 3.078,-16.555 0,-16.555 c -3.521,0 -6.785,1.764 -8.73,4.719 -0.032,0.048 -0.064,0.096 -0.095,0.157 -0.829,1.311 -1.34,2.737 -1.53,4.26 l -0.025,0.197 h -10.002 c -1.329,0 -2.41,-1.081 -2.41,-2.409 v -2.555 h 13.54 v -4.369 h -17.892 v 7.682 c 0,2.732 2.224,4.956 4.956,4.956 h 8.179 c 0.632,0 1.146,0.514 1.146,1.146 0,1.528 -1.243,2.771 -2.771,2.771 h -11.51 v 4.369 h 12.322 c 2.812,0 5.184,-2.103 5.517,-4.891 l 0.076,-0.644 0.34,0.552 c 1.921,3.12 5.244,4.983 8.889,4.983 3.078,0 5.99,-1.347 7.988,-3.694 L 8.16,0.474 8.332,0.675 c 1.998,2.347 4.91,3.694 7.988,3.694 4.209,0 7.991,-2.511 9.632,-6.397 l 0.434,-1.027 v 4.927 c 0,1.377 1.12,2.497 2.497,2.497 H 44.006 V 0 H 31.685 c -0.912,0 -1.477,-0.691 -1.477,-1.805 -0.004,-0.024 -0.116,-1.167 0.418,-1.759 0.211,-0.235 0.487,-0.353 0.822,-0.353 h 8.016 c 2.192,-0.067 3.968,-0.762 5.128,-2.01 1.071,-1.151 1.597,-2.731 1.52,-4.57 -0.066,-1.599 -0.719,-3.087 -1.84,-4.191 -1.205,-1.204 -2.79,-1.867 -4.463,-1.867 z"
               style="fill:#ffffff;fill-opacity:1;fill-rule:nonzero;stroke:none"
               id="path286" /></g><g
             id="g288"
             transform="translate(288.9562,216.8838)"><path
               d="m 0,0 c -3.232,0 -5.867,2.636 -5.867,5.867 0,3.232 2.635,5.868 5.867,5.868 2.816,0 5.145,-1.968 5.723,-4.604 C 5.813,6.734 5.867,6.301 5.867,5.867 5.867,5.434 5.813,5.001 5.723,4.604 5.145,1.968 2.816,0 0,0 m 16.555,0 c -3.231,0 -5.867,2.636 -5.867,5.867 0,3.232 2.636,5.868 5.867,5.868 3.232,0 5.868,-2.636 5.868,-5.868 C 22.423,2.636 19.787,0 16.555,0 M 44.231,16.555 H 28.883 c -1.504,0 -2.723,-1.219 -2.723,-2.723 V 10.02 c -1.625,3.845 -5.416,6.535 -9.84,6.535 -3.267,0 -6.192,-1.462 -8.16,-3.773 -1.968,2.311 -4.892,3.773 -8.16,3.773 -3.827,0 -7.203,-2.04 -9.081,-5.091 -0.343,2.871 -2.762,5.091 -5.741,5.091 h -12.547 v -4.82 h 11.734 c 1.406,0 2.546,-1.14 2.546,-2.546 0,-0.508 -0.412,-0.92 -0.921,-0.92 h -8.178 c -2.862,0 -5.181,-2.32 -5.181,-5.182 V -4.82 H -9.027 V 0 h -13.54 v 2.329 c 0,1.206 0.978,2.184 2.184,2.184 h 9.803 C -10.381,2.925 -9.839,1.462 -9.027,0.181 -8.991,0.108 -8.955,0.054 -8.919,0 c 1.914,-2.907 5.2,-4.82 8.919,-4.82 3.268,0 6.192,1.462 8.16,3.773 1.968,-2.311 4.893,-3.773 8.16,-3.773 3.864,0 7.24,2.058 9.118,5.145 0.27,0.433 0.505,0.903 0.722,1.39 0.361,0.885 0.564,1.469 0.691,2.462 l 12.74,-0.133 c 1.07,-0.011 1.932,-0.882 1.932,-1.952 V 1.953 C 41.523,0.874 40.649,0 39.571,0 H 26.16 v -4.82 h 13.648 c 1.806,0 3.43,0.74 4.622,1.931 1.13,1.113 1.837,2.647 1.908,4.342 0.156,3.745 -2.138,6.671 -6.874,6.816 h -8.012 -0.003 c -1.212,0 -1.015,1.886 -1.015,1.886 0,0.878 0.373,1.58 1.25,1.58 H 44.231 Z M 0,-0.451 c 2.989,0 5.524,2.039 6.163,4.955 0.102,0.448 0.156,0.92 0.156,1.363 0,0.444 -0.054,0.916 -0.155,1.361 -0.64,2.919 -3.175,4.958 -6.164,4.958 -3.484,0 -6.319,-2.834 -6.319,-6.319 0,-3.484 2.835,-6.318 6.319,-6.318 m 16.555,0 c 3.484,0 6.319,2.834 6.319,6.318 0,3.485 -2.835,6.319 -6.319,6.319 -3.484,0 -6.319,-2.834 -6.319,-6.319 0,-3.484 2.835,-6.318 6.319,-6.318 M 43.78,16.104 V 12.186 H 31.684 c -1.049,0 -1.701,-0.778 -1.699,-1.984 C 29.971,10.071 29.868,8.9 30.458,8.245 30.71,7.965 31.053,7.817 31.452,7.817 l 7.998,10e-4 c 2.137,-0.066 3.858,-0.736 4.976,-1.938 1.03,-1.106 1.535,-2.63 1.461,-4.408 -0.064,-1.541 -0.694,-2.976 -1.776,-4.041 -1.161,-1.161 -2.689,-1.8 -4.303,-1.8 H 26.611 v 3.918 h 12.96 c 1.325,0 2.404,1.078 2.404,2.404 v 0.139 c 0,1.312 -1.068,2.39 -2.38,2.404 L 26.855,4.628 26.454,4.632 26.403,4.234 C 26.287,3.322 26.113,2.795 25.747,1.898 25.513,1.372 25.287,0.935 25.052,0.56 23.175,-2.527 19.911,-4.369 16.32,-4.369 c -3.011,0 -5.86,1.317 -7.816,3.615 L 8.16,-0.351 7.817,-0.754 C 5.861,-3.052 3.012,-4.369 0,-4.369 c -3.445,0 -6.638,1.726 -8.544,4.62 -0.026,0.04 -0.053,0.078 -0.102,0.171 -0.799,1.262 -1.299,2.657 -1.486,4.147 l -0.049,0.396 h -0.399 -9.803 c -1.453,0 -2.635,-1.183 -2.635,-2.636 V 0 -0.451 h 0.451 13.089 v -3.918 h -17.44 v 7.456 c 0,2.608 2.122,4.73 4.73,4.73 h 8.178 c 0.757,0 1.372,0.616 1.372,1.372 0,1.653 -1.344,2.997 -2.997,2.997 h -11.283 v 3.918 h 12.096 c 2.698,0 4.973,-2.018 5.293,-4.693 l 0.153,-1.287 0.679,1.104 c 1.879,3.053 5.131,4.876 8.697,4.876 3.011,0 5.86,-1.318 7.817,-3.615 l 0.343,-0.403 0.344,0.403 c 1.956,2.297 4.805,3.615 7.816,3.615 4.118,0 7.817,-2.457 9.424,-6.26 l 0.867,-2.052 v 2.228 3.812 c 0,1.253 1.019,2.272 2.272,2.272 H 43.78"
               style="fill:#56595a;fill-opacity:1;fill-rule:nonzero;stroke:none"
               id="path290" /></g></g></g></g></g></svg>