<?xml version="1.0" encoding="UTF-8" standalone="no"?>
<!-- Created with Inkscape (http://www.inkscape.org/) -->
<svg id="svg2" xmlns="http://www.w3.org/2000/svg" xml:space="preserve" height="250" width="180.75" version="1.0"><path id="Background-Blue" fill="#25419a" d="m90.374 0.058812h90.376l-90.376 247.05-90.374-247.05 90.374-0.001188z"/><path id="Background-White" fill="#fff" d="m90.374 3.0092h-86.071l86.071 238.14v-238.14z"/><path id="Background-Red-Top" fill="#ef273d" d="m176.44 3.0112l-12.06 33.383h-148.01l-12.063-33.383 172.14 0.0002h-0.01z"/><path id="Background-Red-Bottom" fill="#ef273d" d="m127.04 139.69l-13.32 36.87h-46.69l-13.326-36.87h73.336z"/><path id="Hammers" fill="#fff" d="m78.21 158.67l-5.116-5.69 9.106-8.58 5.253 5.29-3.019 3.02 5.96 5.95 5.773-5.78-3.019-3.01 5.254-5.28 7.138 6.74-1.78 9.22-4.975-5.02-5.764 5.75 6.95 6.95-2.431 2.83-7.146-7.15-7.332 7.33-2.431-2.82 7.136-7.14-5.95-5.94-3.607 3.33z"/><path id="Zabrze" fill="#fff" d="m21.741 6.4693h19.623v5.3127l-12.576 15.536h13.037v5.715h-21.29v-5.509l12.439-15.379h-11.233v-5.6757zm37.012 22.172h-7.9l-1.088 4.392h-7.087l8.439-26.564 7.558 0.0003 8.439 26.564h-7.253l-1.108-4.392zm-1.451-5.744l-2.479-9.547-2.471 9.547h4.95zm12.047-16.428h12.978c2.166 0 3.823 0.6371 4.979 1.9016 1.167 1.2743 1.745 2.8421 1.745 4.7151 0 1.568-0.412 2.911-1.245 4.038-0.549 0.745-1.352 1.343-2.411 1.774 1.608 0.461 2.794 1.255 3.558 2.363 0.755 1.117 1.137 2.519 1.137 4.214 0 1.373-0.274 2.608-0.813 3.715-0.539 1.098-1.275 1.961-2.216 2.608-0.578 0.392-1.46 0.686-2.636 0.862-1.559 0.245-2.598 0.373-3.108 0.373h-11.968v-26.564 0.0003zm6.989 10.42h3.019c1.078 0 1.833-0.226 2.264-0.657 0.422-0.451 0.628-1.088 0.628-1.911 0-0.775-0.206-1.382-0.628-1.814-0.431-0.441-1.166-0.656-2.215-0.656h-3.068v5.038zm0 10.429h3.538c1.196 0 2.039-0.245 2.529-0.745 0.491-0.5 0.736-1.176 0.736-2.019 0-0.784-0.245-1.421-0.726-1.892-0.49-0.48-1.333-0.725-2.548-0.725h-3.529v5.381zm17.477 5.715v-26.564l11.555 0.0003c2.14 0 3.79 0.2157 4.91 0.6568 1.13 0.4312 2.05 1.235 2.74 2.421 0.69 1.1759 1.05 2.6069 1.05 4.2929 0 1.481-0.27 2.745-0.8 3.813-0.53 1.079-1.26 1.941-2.19 2.608-0.6 0.421-1.41 0.774-2.43 1.049 0.82 0.323 1.42 0.646 1.8 0.98 0.25 0.215 0.63 0.676 1.11 1.392 0.49 0.715 0.81 1.264 0.98 1.646l3.35 7.705h-7.84l-3.71-8.126c-0.47-1.039-0.88-1.725-1.25-2.039-0.5-0.412-1.07-0.617-1.71-0.617h-0.61v10.782h-6.955zm6.955-15.801h2.94c0.31 0 0.92-0.118 1.83-0.363 0.46-0.108 0.83-0.382 1.13-0.833 0.28-0.441 0.43-0.961 0.43-1.539 0-0.862-0.23-1.519-0.69-1.97-0.46-0.461-1.32-0.696-2.59-0.696h-3.05v5.401zm16.77-10.763h19.62v5.3127l-12.58 15.536h13.04v5.715h-21.29v-5.509l12.44-15.379h-11.23v-5.6757zm23.19 0h18.58v5.6757h-11.63v4.224h10.79v5.411h-10.79v5.234h11.97v6.019h-18.92v-26.564 0.0003z"/><path id="G-White" fill="#fff" d="m131.5 87.061v-5.685h-41.126v9.969h24.526c-1.99 11.855-12.19 20.885-24.526 20.885v16.36c22.466 0 40.716-18.16 41.106-40.715l0.02-0.01v-0.451-0.294-0.059zm-13.93-31.043c-7.26-6.439-16.77-10.36-27.196-10.36v16.359c6.832 0 13.016 2.774 17.516 7.264l9.68-13.263z"/><path id="G-Blue" fill="#25419a" d="m49.245 87.12c0 22.91 18.418 41.47 41.129 41.47v-16.36c-13.752 0-24.906-11.24-24.906-25.11 0-13.86 11.154-25.103 24.906-25.103v-16.359c-22.711 0-41.129 18.565-41.129 41.462zm32.7 4.225h8.429v-9.969h-8.429v9.969z"/><path id="Shield-Brown" fill="#ce910e" d="m176.45 3.0092l-86.076 238.14-86.071-238.14 172.15-0.0008zm4.28-3.0092h-4.28-172.15-4.2804l1.4605 4.0286 86.071 238.15 2.823 7.82 2.833-7.82 86.063-238.15 1.46-4.03z"/></svg>
