<?xml version="1.0" encoding="UTF-8" standalone="no"?>
<svg
   xmlns:dc="http://purl.org/dc/elements/1.1/"
   xmlns:cc="http://creativecommons.org/ns#"
   xmlns:rdf="http://www.w3.org/1999/02/22-rdf-syntax-ns#"
   xmlns:svg="http://www.w3.org/2000/svg"
   xmlns="http://www.w3.org/2000/svg"
   xmlns:sodipodi="http://sodipodi.sourceforge.net/DTD/sodipodi-0.dtd"
   xmlns:inkscape="http://www.inkscape.org/namespaces/inkscape"
   width="260.76581"
   height="335.12906"
   viewBox="0 0 599.19424 770.06797"
   version="1.1"
   id="svg73"
   sodipodi:docname="HNK_Rijeka.svg"
   inkscape:version="0.92.4 (5da689c313, 2019-01-14)">
  <sodipodi:namedview
     pagecolor="#ffffff"
     bordercolor="#666666"
     borderopacity="1"
     objecttolerance="10"
     gridtolerance="10"
     guidetolerance="10"
     inkscape:pageopacity="0"
     inkscape:pageshadow="2"
     inkscape:window-width="1366"
     inkscape:window-height="705"
     id="namedview75"
     showgrid="false"
     inkscape:zoom="1.3557168"
     inkscape:cx="101.75545"
     inkscape:cy="166.70296"
     inkscape:window-x="-8"
     inkscape:window-y="-8"
     inkscape:window-maximized="1"
     inkscape:current-layer="svg73" />
  <metadata
     id="metadata8">image/svg+xml<rdf:RDF>
  <cc:Work
     rdf:about="">
    <dc:format>image/svg+xml</dc:format>
    <dc:type
       rdf:resource="http://purl.org/dc/dcmitype/StillImage" />
  </cc:Work>
</rdf:RDF>
</metadata>
  <defs
     id="defs5">
    <clipPath
       clipPathUnits="userSpaceOnUse"
       id="clipPath18">
      <path
         d="m -144.75,597.75 h 800 v -600 h -800 z"
         id="path16"
         inkscape:connector-curvature="0" />
    </clipPath>
  </defs>
  <g
     id="g10"
     transform="translate(-36.86174,-12.986266)">
    <title
       id="title7">background</title>
    <rect
       id="canvas_background"
       height="802"
       width="662"
       y="-1"
       x="-1"
       style="fill:none" />
  </g>
  <g
     id="g71"
     transform="translate(-36.86174,-12.986266)">
    <title
       id="title12">Layer 1</title>
    <g
       id="g69"
       transform="matrix(1.3333333,0,0,-1.3333333,0,800)">
      <g
         id="g12">
        <g
           id="g14"
           clip-path="url(#clipPath18)">
          <g
             id="g20">
            <path
               d="m 102.1992,590.26031 c 98.873,-47.604 201.416,-47.604 300.292,0 l 72.906,-82.592 c -10.487,-17.23599 -19.216,-34.62 -25.157,-54.057 -17.089,-55.306 -6.603,-103.79 11.076,-157.773 8.727,-26.627 18.263,-54.28 15.109,-82.665 -5.134,-46.504 -46.284,-76.872 -83.691,-98.657 -20.905,-12.175 -42.835,-22.371995 -65.06,-31.831995 -43.717,-18.705 -58.459,-27.726 -75.33,-69.975 -16.871,42.249 -31.614,51.27 -75.33,69.975 -22.224,9.46 -44.155,19.656995 -65.061,31.831995 -37.407997,21.785 -78.557997,52.153 -83.689997,98.657 -3.154,28.385 6.38,56.038 15.109,82.665 17.678,53.983 28.167,102.467 11.076,157.773 -5.942,19.437 -14.671,36.82101 -25.16,54.057 z"
               id="path22"
               inkscape:connector-curvature="0"
               style="fill:#ddbe80;fill-rule:nonzero" />
          </g>
          <g
             id="g24">
            <path
               d="m 106.1597,137.40041 c 4.767,-3.006 9.534,-5.867 14.082,-8.507 20.319,-11.883 41.662,-21.711 63.301,-30.954004 26.332,-11.296 53.472,-22.885 68.802,-46.504 15.256,23.619 42.468,35.208 68.801,46.504 21.637,9.243004 42.983,19.071004 63.301,30.954004 32.2,18.704 71.001,45.77 75.475,86.039 2.863,25.819 -6.454,51.565 -14.376,75.771 -18.85,57.578 -29.34,108.923 -11.149,167.822 0.733,2.493 1.612,4.987 2.421,7.554 z"
               id="path26"
               inkscape:connector-curvature="0"
               style="fill:#ffffff;fill-rule:nonzero" />
          </g>
          <g
             id="g28">
            <path
               d="m 44.545395,216.76559 c 2.715,-30.294 24.426,-52.884 47.677,-69.829 l 361.978995,359.705 -55.158,62.42 z"
               id="path30"
               inkscape:connector-curvature="0"
               style="fill:#38a1ce;fill-rule:nonzero" />
          </g>
          <g
             id="g32">
            <path
               d="m 106.3062,569.86871 -56.552002,-64.034 c 8.801,-15.403 15.623,-31.246 20.537,-47.309 18.191,-58.9 7.702,-110.244 -11.15,-167.823 -5.206,-15.991 -11.075,-32.64 -13.643,-49.584 l 316.284002,314.375 c -83.62,-27.727 -174.353,-22.886 -255.476,14.375"
               id="path34"
               inkscape:connector-curvature="0"
               style="fill:#ffffff;fill-rule:nonzero" />
          </g>
          <g
             id="g36">
            <path
               d="m 242.14941,521.82617 h -15.403 l -16.431,-32.128 v 32.128 h -13.423 v -18.925 -48.557 h 13.423 v 29.046 l 14.743,-29.046 h 16.356 l -17.896,33.154 z"
               id="path38"
               inkscape:connector-curvature="0"
               style="fill:#ddbe80;fill-rule:nonzero" />
          </g>
          <g
             id="g40">
            <path
               d="m 187.57709,521.82617 h -13.717 v -37.629 l -20.537,37.629 h -12.249 v -18.925 -48.557 h 13.496 v 37.041 l 20.976,-37.041 h 12.031 v 18.631 z"
               id="path42"
               inkscape:connector-curvature="0"
               style="fill:#ddbe80;fill-rule:nonzero" />
          </g>
          <g
             id="g44">
            <path
               d="m 132.05218,521.82617 h -13.71699 v -26.04 h -14.23 v 26.04 H 90.682185 v -18.925 -48.557 h 13.423005 v 25.525 h 14.23 v -25.525 h 13.71699 v 18.631 z"
               id="path46"
               inkscape:connector-curvature="0"
               style="fill:#ddbe80;fill-rule:nonzero" />
          </g>
          <g
             id="g48">
            <path
               d="m 374.25201,501.50781 8.435,-21.492 12.028,12.176 z m 0.807,-61.614 -15.844,51.272 -6.016,20.39 12.03,11.956 49.585,-18.263 19.655,-6.235 -16.869,-16.651 -9.682,3.815 -20.098,-19.732 3.301,-10.488 z"
               id="path50"
               inkscape:connector-curvature="0"
               style="fill:#ddbe80;fill-rule:nonzero" />
          </g>
          <g
             id="g52">
            <path
               d="m 311.1709,425.81149 -3.448,40.856 16.871,16.649 2.639,-44.742 41.957,-4.255 -17.897,-18.044 -35.502,4.841 19.439,-20.612 -14.746,-14.742 -32.711,34.621 -12.691,13.789 14.744,14.671 z"
               id="path54"
               inkscape:connector-curvature="0"
               style="fill:#ddbe80;fill-rule:nonzero" />
          </g>
          <g
             id="g56">
            <path
               d="m 267.23239,333.31839 -32.346,34.62 -12.982,13.79 33.155,32.714 9.974,-10.709 -18.41,-18.045 7.483,-8.214 18.482,18.263 9.975,-10.709 -18.411,-18.043 8.068,-8.509 18.191,18.044 9.976,-10.416 z"
               id="path58"
               inkscape:connector-curvature="0"
               style="fill:#ddbe80;fill-rule:nonzero" />
          </g>
          <g
             id="g60">
            <path
               d="m 214.7168,302.6582 c 1.1,0 2.714,0.806 4.107,1.979 1.833,1.982 2.934,3.888 2.347,5.502 -0.514,1.687 -1.614,3.374 -3.227,4.989 l -30.294,32.419 15.256,15.037 26.774,-28.313 v -0.293 c 3.006,-3.008 5.427,-6.089 7.041,-8.508 1.614,-2.201 2.421,-5.282 3.007,-7.996 0.293,-2.2 0.293,-4.988 -0.22,-7.481 -0.586,-2.201 -1.319,-4.988 -3.228,-7.482 -1.319,-2.127 -2.933,-4.621 -5.06,-6.601 -0.513,-0.515 -1.102,-1.102 -1.32,-1.32 l -0.588,-0.587 c -6.381,-6.382 -12.835,-9.976 -18.704,-10.343 h -1.027 c -5.281,0 -10.341,2.201 -15.183,7.115 l 14.744,14.67 c 1.613,-1.687 3.741,-2.494 5.135,-2.787 z"
               id="path62"
               inkscape:connector-curvature="0"
               style="fill:#ddbe80;fill-rule:nonzero" />
          </g>
          <g
             id="g64">
            <path
               d="m 178.4819,245.1523 -32.714,34.621 -12.69,13.789 15.036,14.597 32.641,-34.842 12.764,-13.2 z"
               id="path66"
               inkscape:connector-curvature="0"
               style="fill:#ddbe80;fill-rule:nonzero" />
          </g>
          <g
             id="g68">
            <path
               d="m 110.48731,246.1797 c -1.614,-0.294 -3.522,-0.809 -5.354,-2.202 -1.615,-1.394 -3.741,-3.08 -5.649005,-4.986 l -3.226,-3.081 11.075005,-11.81 1.906,1.614 c 2.127,2.494 4.254,4.986 5.575,6.674 1.614,1.688 2.422,3.887 2.714,5.794 0.22,1.687 -0.292,3.889 -1.687,5.574 -1.613,1.614 -3.448,2.423 -5.354,2.423 m 6.234,-62.35 -32.713005,34.623 -12.689,13.717 20.024,20.022 c 2.419,2.203 4.84,4.401 6.454,5.796 1.614,1.687 3.741005,3.083 5.648005,4.182 1.834,1.1 3.96,1.981 6.161,2.493 2.421,0.881 5.062,1.394 7.261,1.466 1.834,0 4.25499,-0.585 5.869,-1.099 1.90699,-0.807 4.034,-1.614 5.42699,-3.008 1.101,-1.1 1.90701,-1.613 2.421,-1.904 3.228,-3.597 4.84201,-7.999 5.427,-12.692 0.294,-2.788 0,-6.088 -0.733,-8.583 -0.807,-2.199 -2.126,-5.501 -4.033,-9.095 l 30.658,-0.954 -18.996,-18.923 -26.112,4.034 14.596,-15.402 z"
               id="path70"
               inkscape:connector-curvature="0"
               style="fill:#ddbe80;fill-rule:nonzero" />
          </g>
          <g
             id="g72">
            <path
               d="m 322.7598,172.0957 c -26.699,24.278 -44.231,66.527 -34.034,99.828 l 60.513,14.45 v -8.362 h 8.068 v 8.362 l 60.514,-14.45 c 10.194,-33.301 -7.409,-75.55 -34.035,-99.828 -4.915,-4.548 -10.195,-7.994 -15.624,-11.149 v 41.371 l -1.98,3.667 c -0.733,-0.515 -1.466,-1.1 -2.347,-1.541 l -3.08,-1.467 c -0.807,-0.367 -1.687,-0.587 -2.567,-0.808 l -3.595,-0.587 h -1.319 -1.322 l -3.667,0.587 c -0.879,0.221 -1.687,0.441 -2.567,0.808 l -3.081,1.467 c -0.808,0.441 -1.54,1.026 -2.347,1.541 l -1.907,-3.667 v -41.371 c -5.501,3.155 -10.709,6.601 -15.623,11.149"
               id="path74"
               inkscape:connector-curvature="0"
               style="fill:#38a1ce;fill-rule:nonzero" />
          </g>
          <g
             id="g76">
            <path
               d="m 326.13379,200.62891 c -24.57,20.83 -3.741,69.096 18.631,71.884 6.6,0.438 10.415,0.438 16.943,0 22.445,-2.788 43.277,-51.054 18.703,-71.884 1.835,3.887 2.934,8.068 2.934,12.176 0,41.369 -60.145,41.369 -60.145,0 0,-4.108 1.026,-8.289 2.934,-12.176"
               id="path78"
               inkscape:connector-curvature="0"
               style="fill:#ddbe80;fill-rule:nonzero" />
          </g>
          <g
             id="g80">
            <path
               d="m 332.5137,226.7402 c -2.127,-3.959 -3.593,-8.435 -3.593,-13.349 0,-4.694 1.687,-9.461 3.816,-13.569 v 3.3 c 0,0.513 2.126,4.328 3.446,7.115 -3.446,4.768 -4.769,10.783 -3.669,16.503"
               id="path82"
               inkscape:connector-curvature="0"
               style="fill:#e5f1fb;fill-rule:nonzero" />
          </g>
          <g
             id="g84">
            <path
               d="m 373.95697,226.7402 c 2.199,-3.959 3.595,-8.435 3.595,-13.349 0,-4.694 -1.615,-9.461 -3.741,-13.569 v 3.3 c 0,0.513 -2.126,4.328 -3.522,7.115 3.522,4.768 4.842,10.783 3.668,16.503"
               id="path86"
               inkscape:connector-curvature="0"
               style="fill:#e5f1fb;fill-rule:nonzero" />
          </g>
          <g
             id="g88">
            <path
               d="m 353.27341,205.98441 c 9.168,0 16.649,7.48 16.649,16.723 0,9.169 -7.481,16.65 -16.649,16.65 -9.169,0 -16.65,-7.481 -16.65,-16.65 0,-9.243 7.481,-16.723 16.65,-16.723"
               id="path90"
               inkscape:connector-curvature="0"
               style="fill:#40403d;fill-rule:nonzero" />
          </g>
          <g
             id="g92">
            <path
               d="m 345.7178,202.97659 c -1.027,0.366 -2.054,0.879 -3.081,1.467 l 2.054,3.962 c 0.807,-0.515 1.614,-0.882 2.421,-1.248 z"
               id="path94"
               inkscape:connector-curvature="0"
               style="fill:#c9b27e;fill-rule:nonzero" />
          </g>
          <g
             id="g96">
            <path
               d="m 351.95209,201.582 c -1.246,0.074 -2.493,0.295 -3.667,0.587 l 1.466,4.182 c 0.809,-0.149 1.614,-0.293 2.495,-0.293 z"
               id="path98"
               inkscape:connector-curvature="0"
               style="fill:#c9b27e;fill-rule:nonzero" />
          </g>
          <g
             id="g100">
            <path
               d="m 358.1875,202.1689 c -1.173,-0.292 -2.347,-0.513 -3.595,-0.587 l -0.292,4.476 c 0.879,0 1.687,0.144 2.491,0.293 z"
               id="path102"
               inkscape:connector-curvature="0"
               style="fill:#c9b27e;fill-rule:nonzero" />
          </g>
          <g
             id="g104">
            <path
               d="m 360.75491,202.97659 -1.394,4.181 c 0.879,0.366 1.686,0.733 2.421,1.175 l 2.053,-3.889 c -0.953,-0.588 -1.98,-1.101 -3.08,-1.467"
               id="path106"
               inkscape:connector-curvature="0"
               style="fill:#c9b27e;fill-rule:nonzero" />
          </g>
          <g
             id="g108">
            <path
               d="m 345.1318,157.20509 c -1.322,0.733 -2.642,1.47 -3.961,2.127 v 42.177 l 1.466,2.934 c 1.027,-0.588 2.054,-1.1 3.081,-1.467 l -0.586,-1.833 z"
               id="path110"
               inkscape:connector-curvature="0"
               style="fill:#ddbe80;fill-rule:nonzero" />
          </g>
          <g
             id="g112">
            <path
               d="m 351.8779,153.6123 c -1.317,0.733 -2.64,1.394 -3.959,2.127 v 45.185 l 0.366,1.245 c 1.174,-0.292 2.421,-0.513 3.667,-0.58699 l -0.074,-0.807 z"
               id="path114"
               inkscape:connector-curvature="0"
               style="fill:#ddbe80;fill-rule:nonzero" />
          </g>
          <g
             id="g116">
            <path
               d="m 358.6279,155.7393 c -1.321,-0.733 -2.641,-1.394 -3.963,-2.127 v 47.163 l -0.072,0.807 c 1.248,0.074 2.422,0.295 3.595,0.587 l 0.44,-1.245 z"
               id="path118"
               inkscape:connector-curvature="0"
               style="fill:#ddbe80;fill-rule:nonzero" />
          </g>
          <g
             id="g120">
            <path
               d="m 365.375,159.332 c -1.32,-0.733 -2.642,-1.394 -3.959,-2.127 v 43.939 l -0.661,1.833 c 1.099,0.366 2.127,0.878 3.08,1.466 l 1.54,-2.934 z"
               id="path122"
               inkscape:connector-curvature="0"
               style="fill:#ddbe80;fill-rule:nonzero" />
          </g>
        </g>
      </g>
    </g>
  </g>
</svg>
