<?xml version="1.0" encoding="UTF-8" standalone="no"?>
<svg
   xmlns:dc="http://purl.org/dc/elements/1.1/"
   xmlns:cc="http://creativecommons.org/ns#"
   xmlns:rdf="http://www.w3.org/1999/02/22-rdf-syntax-ns#"
   xmlns:svg="http://www.w3.org/2000/svg"
   xmlns="http://www.w3.org/2000/svg"
   xmlns:sodipodi="http://sodipodi.sourceforge.net/DTD/sodipodi-0.dtd"
   xmlns:inkscape="http://www.inkscape.org/namespaces/inkscape"
   width="54.600372mm"
   height="83.608337mm"
   viewBox="0 0 54.600372 83.608337"
   version="1.1"
   id="svg259"
   inkscape:version="1.0.1 (3bc2e813f5, 2020-09-07)"
   sodipodi:docname="IFK logo.svg">
  <defs
     id="defs253" />
  <sodipodi:namedview
     id="base"
     pagecolor="#ffffff"
     bordercolor="#666666"
     borderopacity="1.0"
     inkscape:pageopacity="0.0"
     inkscape:pageshadow="2"
     inkscape:zoom="0.35"
     inkscape:cx="72.560821"
     inkscape:cy="176.01672"
     inkscape:document-units="mm"
     inkscape:current-layer="layer1"
     inkscape:document-rotation="0"
     showgrid="false"
     inkscape:pagecheckerboard="true"
     inkscape:window-width="1366"
     inkscape:window-height="705"
     inkscape:window-x="-8"
     inkscape:window-y="-8"
     inkscape:window-maximized="1" />
  <metadata
     id="metadata256">
    <rdf:RDF>
      <cc:Work
         rdf:about="">
        <dc:format>image/svg+xml</dc:format>
        <dc:type
           rdf:resource="http://purl.org/dc/dcmitype/StillImage" />
        <dc:title></dc:title>
      </cc:Work>
    </rdf:RDF>
  </metadata>
  <g
     inkscape:label="Layer 1"
     inkscape:groupmode="layer"
     id="layer1"
     transform="translate(-86.634949,-101.59558)">
    <g
       id="g400"
       transform="matrix(1.1147878,0,0,1.1147878,-9.9446324,-11.661929)">
      <path
         style="fill:#ffffff;fill-opacity:1;fill-rule:nonzero;stroke:none;stroke-width:0.352777"
         d="m 134.95473,106.33288 c 0.01,-0.34038 -0.0372,-0.64768 -0.14194,-0.91502 -0.0234,-0.0565 -0.0482,-0.10611 -0.0786,-0.16261 l -0.0427,-0.0827 c -0.0193,-0.0331 -0.0413,-0.0634 -0.0703,-0.10335 -0.16399,-0.23289 -0.38585,-0.41893 -0.63941,-0.53744 -0.41755,-0.19706 -1.01562,-0.20808 -1.54478,-0.21773 -0.11989,-0.001 -0.23427,-0.004 -0.33762,-0.008 -0.062,-0.003 -0.11851,-0.007 -0.16123,-0.011 -0.98392,-0.11713 -1.85622,-0.40239 -2.7795,-0.7028 -1.16996,-0.38034 -2.38125,-0.77584 -3.80063,-0.7841 -0.1695,0 -0.34589,0.004 -0.52366,0.0151 -1.56269,0.0951 -2.94624,0.60359 -4.28294,1.09554 -1.35323,0.49748 -2.63068,0.96739 -4.03903,1.01011 -0.11575,0.003 -0.23702,0.004 -0.36656,10e-4 -0.89021,-0.0193 -2.07395,-0.22325 -2.71611,-0.73175 -0.1943,-0.16261 -0.36932,-0.40101 -0.48507,-0.66559 0,0 -0.64079,0.24116 -1.82039,0.24253 -1.17822,-0.001 -1.81901,-0.24253 -1.81901,-0.24253 -0.11713,0.26458 -0.28939,0.50298 -0.47405,0.65732 -0.65319,0.51677 -1.83692,0.72072 -2.72713,0.74001 -0.12954,0.003 -0.25218,0.003 -0.36932,-0.003 -1.4056,-0.0413 -2.68304,-0.51124 -4.03489,-1.00871 -1.33808,-0.49059 -2.721628,-1.00046 -4.284324,-1.09554 -0.177766,-0.011 -0.352777,-0.0152 -0.523654,-0.0152 -1.41938,0.008 -2.630675,0.40376 -3.80063,0.7841 -0.923285,0.30041 -1.795584,0.58567 -2.771235,0.7028 -0.05099,0.004 -0.107487,0.008 -0.16812,0.011 -0.103353,0.004 -0.219109,0.007 -0.338998,0.008 -0.529166,0.01 -1.127235,0.0207 -1.543403,0.21774 -0.256315,0.11851 -0.476801,0.30454 -0.6463,0.54432 -0.02205,0.0303 -0.0441,0.0606 -0.06615,0.0992 l -0.04823,0.0923 c -0.02481,0.0482 -0.04961,0.0978 -0.07166,0.15158 -0.104731,0.26458 -0.152962,0.57189 -0.141938,0.89573 v 14.76705 c 0,0.65044 0,1.26504 0.354156,1.80523 l 0.158475,0.24116 0.348643,0.33211 0.0028,13.69907 0.412033,-0.21635 c 0.19706,-0.10197 0.381717,-0.13642 0.570508,-0.10611 1.502062,0.22462 1.546159,3.18327 1.546159,3.52089 v 8.26134 c 0,1.42214 -0.276985,2.43086 -0.841981,3.07854 -0.327973,0.35829 -0.759299,0.51676 -1.096918,0.40652 -0.03583,-0.011 -0.08957,-0.0345 -0.151585,-0.0744 l -0.438221,-0.29215 v 11.16211 c 0,6.54017 3.986665,8.86079 7.401444,8.86079 h 7.577839 c 2.59897,0 5.49698,0.35967 7.29258,3.02892 0.15985,0.23978 0.31006,0.48921 0.44509,0.74139 l 0.24806,0.46853 0.24943,-0.46853 c 0.13642,-0.25356 0.28525,-0.50299 0.44648,-0.74139 1.79282,-2.66925 4.6936,-3.02892 7.29258,-3.02892 h 7.57644 c 3.41478,0 7.40282,-2.32062 7.40282,-8.86079 v -11.16211 l -0.43959,0.29215 c -0.062,0.04 -0.11576,0.0634 -0.15158,0.0744 -0.32936,0.11024 -0.76895,-0.0496 -1.08314,-0.39274 -0.57602,-0.6587 -0.85577,-1.67019 -0.85577,-3.09232 v -8.26134 c 0,-0.33762 0.0441,-3.29627 1.55581,-3.52226 0.1819,-0.0289 0.36518,0.006 0.55949,0.10748 l 0.41479,0.21635 v -13.69632 l 0.34864,-0.33486 0.15847,-0.24116 c 0.35554,-0.54019 0.35554,-1.15479 0.35554,-1.80523 V 106.3321"
         id="path7" />
      <path
         style="clip-rule:nonzero;fill:#fabd00;fill-opacity:1;fill-rule:nonzero;stroke:none;stroke-width:0.352777"
         d="m 134.11412,103.8593 c -0.67248,-0.23702 -1.38355,-0.13643 -2.06843,-0.21084 -2.6045,-0.29903 -4.44693,-1.64538 -7.25124,-1.48277 -3.02755,0.18604 -5.43223,2.02985 -8.29992,2.11805 -0.67249,0.0234 -2.32889,-0.0992 -2.80431,-0.74828 -0.011,-0.0138 -0.0234,-0.0358 -0.0372,-0.0496 0.46302,-0.0634 0.82268,-0.46164 0.82268,-0.93431 0,-1.05833 -1.56958,-1.27055 -2.05465,-0.47267 -0.2825,0.45338 -0.24391,1.0542 -0.0345,1.58475 h 0.001 c 0.15296,0.39136 0.39963,0.73587 0.68075,0.96876 0.78548,0.62149 2.08497,0.84198 3.06476,0.86265 0.14056,0.003 0.27423,0.003 0.39825,-0.003 2.94073,-0.0882 5.32198,-1.92098 8.33713,-2.10564 0.16399,-0.011 0.3266,-0.0152 0.48645,-0.0138 2.3909,0.0152 4.16994,1.20303 6.51674,1.48277 0.0606,0.007 0.12816,0.011 0.20119,0.0138 0.51126,0.022 1.27607,-0.011 1.66881,0.17363 0.15296,0.0717 0.30041,0.18603 0.41617,0.3514 0.0165,0.022 0.0331,0.0413 0.0469,0.0648 0.01,0.0165 0.0179,0.0372 0.0262,0.0551 0.0193,0.0358 0.04,0.0717 0.0551,0.11162 0.073,0.1819 0.11162,0.4079 0.10335,0.68902 v 14.76705 c 0,0.6091 0,1.09555 -0.26183,1.4938 h -0.0138 c -0.003,-0.11024 -0.0165,-0.21773 -0.04,-0.32246 -0.003,-0.0124 -0.006,-0.0248 -0.007,-0.0358 -0.022,-0.0923 -0.051,-0.18053 -0.0854,-0.26872 -0.008,-0.0193 -0.0152,-0.04 -0.0248,-0.0593 -0.0345,-0.0785 -0.0758,-0.15434 -0.12264,-0.22738 -0.0138,-0.0221 -0.0248,-0.0455 -0.04,-0.0662 -0.062,-0.0896 -0.13229,-0.17639 -0.21222,-0.25769 -0.71795,-0.7152 -1.93338,-0.75379 -2.71197,-0.0827 -0.54846,0.47956 -0.71934,1.30776 -0.38723,1.88102 0.10335,0.18466 0.25218,0.32246 0.42857,0.40652 -0.19431,0.0827 -0.40515,0.15986 -0.62839,0.23151 -0.85025,0.26597 -1.84657,0.41342 -2.87597,0.4272 -1.40284,0.0138 -2.88836,-0.31144 -4.42074,-0.95912 -1.49793,-0.62976 -2.8236,-1.45658 -3.83646,-2.39227 l -0.11162,-0.10198 c -0.27009,-0.24943 -0.54984,-0.50712 -0.8723,-0.73036 -0.3514,-0.23013 -0.70969,-0.35002 -1.0914,-0.3638 -0.55535,-0.0234 -1.06109,0.19154 -1.42076,0.57464 h -9.05786 c -0.35967,-0.3831 -0.86403,-0.59807 -1.42076,-0.57464 -0.38171,0.0138 -0.74,0.13367 -1.0914,0.3638 -0.32246,0.22324 -0.60221,0.48093 -0.8723,0.73036 l -0.11162,0.10197 c -1.01287,0.9357 -2.33993,1.76252 -3.836474,2.39228 -1.532379,0.64768 -3.017904,0.9729 -4.420747,0.95912 -1.029395,-0.0138 -2.024338,-0.16123 -2.877344,-0.42719 -0.221864,-0.0717 -0.432704,-0.14883 -0.627007,-0.23151 0.176388,-0.0841 0.323838,-0.22187 0.42857,-0.40652 0.330729,-0.57327 0.16123,-1.40147 -0.388607,-1.88103 -0.777214,-0.6711 -1.994022,-0.63252 -2.710602,0.0827 -0.0813,0.0813 -0.150206,0.16812 -0.212218,0.2577 -0.01516,0.0207 -0.02618,0.0441 -0.03996,0.0662 -0.04685,0.073 -0.08819,0.14882 -0.124023,0.22737 -0.0083,0.0193 -0.01516,0.04 -0.02343,0.0593 -0.03583,0.0882 -0.06339,0.17639 -0.08544,0.26872 -0.0014,0.011 -0.0041,0.0234 -0.0069,0.0358 -0.02343,0.10473 -0.03583,0.21222 -0.03996,0.32246 h -0.01378 C 87.8597,122.17733 87.8597,121.69088 87.8597,121.08179 v -14.76706 c -0.0097,-0.28112 0.03169,-0.50711 0.103353,-0.68902 0.01516,-0.04 0.03583,-0.0758 0.05374,-0.11162 0.0097,-0.0179 0.01791,-0.0386 0.02756,-0.0551 0.01378,-0.0234 0.03032,-0.0427 0.04547,-0.0648 0.117133,-0.16536 0.264583,-0.27974 0.417545,-0.3514 0.392741,-0.18465 1.158931,-0.15158 1.668805,-0.17363 0.07304,-0.003 0.14056,-0.007 0.201193,-0.0138 2.3468,-0.27974 4.127225,-1.46761 6.516744,-1.48277 0.159852,-0.001 0.321083,0.003 0.486447,0.0138 3.015143,0.18466 5.396393,2.01745 8.335753,2.10565 0.1254,0.006 0.25907,0.006 0.39825,0.003 0.98116,-0.0207 2.28066,-0.24116 3.06614,-0.86266 0.28112,-0.23288 0.52779,-0.57739 0.68075,-0.96875 h 10e-4 c 0.21084,-0.53055 0.24667,-1.13137 -0.0344,-1.58475 -0.48507,-0.79788 -2.05466,-0.58566 -2.05466,0.47267 0,0.47267 0.35967,0.87092 0.82269,0.93431 -0.0138,0.0138 -0.0262,0.0358 -0.0372,0.0496 -0.47542,0.64905 -2.13183,0.7717 -2.80293,0.74827 -2.86909,-0.0882 -5.27239,-1.932 -8.301319,-2.11804 -2.804308,-0.16261 -4.648124,1.18374 -7.252616,1.48277 -0.683507,0.0744 -1.395953,-0.0262 -2.067057,0.21084 -0.748275,0.26045 -1.546159,0.90951 -1.497928,2.49287 v 14.72985 c 0,1.29536 0.201194,2.26825 1.322917,2.98897 v 13.63155 c 0.385851,-0.38585 0.746896,-0.73587 1.146528,-0.6711 1.157552,0.17363 1.38355,2.40467 1.38355,3.32658 v 8.26134 c 0,0.98392 -0.125401,2.18143 -0.797884,2.95314 -0.424436,0.46164 -1.15893,0.59806 -1.247125,-0.23565 0.151584,0.17363 0.401009,0.17363 0.610471,0.0868 0.649056,-0.29904 0.722092,-1.45797 -0.173633,-1.47037 -0.67386,-0.0138 -0.921907,0.69729 -0.921907,1.24575 v 11.70092 c 0,4.69773 2.429481,9.05922 7.599881,9.05922 h 7.576452 c 3.11437,0 5.54523,0.58567 7.12859,2.94074 0.33624,0.49747 0.67249,1.12172 0.85852,1.69499 0.18741,-0.57327 0.52503,-1.19752 0.8599,-1.69499 1.58198,-2.35507 4.01422,-2.94074 7.12721,-2.94074 h 7.57783 c 5.1704,0 7.59988,-4.36149 7.59988,-9.05922 v -11.70092 c 0,-0.54846 -0.24942,-1.25953 -0.9219,-1.24575 -0.89711,0.0124 -0.82269,1.17133 -0.17501,1.47037 0.21221,0.0868 0.46026,0.0868 0.61185,-0.0868 -0.0882,0.83371 -0.8227,0.69729 -1.24713,0.23564 -0.67386,-0.7717 -0.79651,-1.96921 -0.79651,-2.95313 v -8.26134 c 0,-0.92191 0.22324,-3.15295 1.38218,-3.32659 0.39825,-0.0648 0.76067,0.28526 1.14652,0.67111 v -13.63155 c 1.12035,-0.72072 1.32292,-1.69361 1.32292,-2.98897 v -14.72985 c 0.0482,-1.58336 -0.74965,-2.23242 -1.49793,-2.49287"
         id="path9" />
      <path
         style="fill:#ffffff;fill-opacity:1;fill-rule:nonzero;stroke:none;stroke-width:0.352777"
         d="m 88.439045,123.72923 c 0.09646,0.1571 0.213596,0.30455 0.3514,0.44373 0.617361,0.61598 1.493793,1.09968 2.604492,1.44143 1.014237,0.32659 2.200727,0.50712 3.425803,0.51952 0.02481,0 0.04961,0 0.07304,0 1.63022,0 3.348633,-0.37207 5.1139,-1.10932 1.57923,-0.66008 2.949,-1.49379 4.07761,-2.48185 0.0234,0.24254 0.1378,0.4644 0.33349,0.6339 0.50022,0.43822 1.34634,0.43546 1.92649,-0.007 0.34865,-0.2701 0.58429,-0.64354 0.69591,-1.04869 h 8.16626 c 0.11438,0.40515 0.34864,0.77859 0.69728,1.04869 0.58016,0.44235 1.42765,0.44511 1.9265,0.007 0.19569,-0.1695 0.30868,-0.39136 0.33487,-0.6339 1.12723,0.98806 2.49562,1.82177 4.07623,2.48185 1.76527,0.73725 3.48368,1.10932 5.1139,1.10932 0.0234,0 0.0482,0 0.073,0 1.22508,-0.0124 2.41157,-0.19293 3.42581,-0.51952 1.11069,-0.34175 1.98713,-0.82545 2.60449,-1.44143 0.1378,-0.1378 0.25356,-0.28387 0.34864,-0.43959 v 12.95907 c -0.22186,-0.11714 -0.46577,-0.17915 -0.73725,-0.13505 -1.70463,0.25356 -1.79145,3.20945 -1.79145,3.79925 v 8.26272 c 0,1.49379 0.30041,2.56315 0.92466,3.27835 0.39826,0.43546 0.94396,0.6215 1.38631,0.47543 0.0551,-0.0193 0.13367,-0.0524 0.21773,-0.10887 v 10.6357 c 0,6.33209 -3.83508,8.57829 -7.11894,8.57829 h -7.57784 c -2.67339,0 -5.65822,0.37482 -7.52546,3.15295 -0.16675,0.24942 -0.32384,0.5085 -0.46165,0.76757 -0.13642,-0.25907 -0.29214,-0.51815 -0.46026,-0.76619 -1.86724,-2.77951 -4.85207,-3.15433 -7.52547,-3.15433 h -7.577829 c -3.285244,0 -7.120324,-2.2462 -7.120324,-8.57829 v -10.6357 c 0.08544,0.0565 0.163987,0.0896 0.219108,0.10887 0.440972,0.14469 0.986675,-0.04 1.394575,-0.48369 0.617361,-0.70694 0.916395,-1.7763 0.916395,-3.27009 v -8.26272 c 0,-0.5898 -0.08682,-3.54569 -1.787315,-3.79925 -0.272852,-0.0441 -0.518143,0.0179 -0.742763,0.13505 l -0.0014,-12.96321"
         id="path13" />
      <path
         style="fill:#ffffff;fill-opacity:1;fill-rule:nonzero;stroke:none;stroke-width:0.352777"
         d="m 132.29511,122.21339 c 0.49885,0.11438 0.42444,0.65043 0.13918,0.93707 -0.47542,0.45888 -1.18511,0.82269 -2.0078,1.08176 -0.92053,0.28939 -1.98024,0.43546 -3.01652,0.45062 -1.58061,0.011 -3.16398,-0.38586 -4.60954,-0.9977 -1.42076,-0.59807 -2.82774,-1.42076 -3.97564,-2.48047 -0.29766,-0.27285 -0.59669,-0.55811 -0.92191,-0.78411 -0.24805,-0.1626 -0.52228,-0.27423 -0.84749,-0.28663 -0.64768,-0.0248 -1.10932,0.35002 -1.32016,0.82131 -0.28801,0.63803 -0.0868,1.40836 0.46026,1.83279 0.42444,0.32384 1.02113,0.28801 1.32154,0.0248 0.54708,-0.47266 -0.31144,-1.44556 -0.94809,-1.23334 0,-0.24943 0.17501,-0.48507 0.44924,-0.47405 0.28801,0.0124 0.79788,0.46165 1.20992,0.8475 1.20854,1.1231 2.6789,1.99402 4.19888,2.62929 1.55718,0.64906 3.27697,1.08314 4.99677,1.07074 1.12034,-0.011 2.27927,-0.17225 3.29075,-0.49747 0.97014,-0.29904 1.81763,-0.73587 2.4033,-1.32016 0.1378,-0.13781 0.26045,-0.29904 0.34865,-0.47405 0.2756,-0.57326 0.23702,-1.22094 -0.22325,-1.6812 -0.57464,-0.57465 -1.52135,-0.52504 -2.05603,-0.0634 -0.39825,0.34726 -0.48645,0.93431 -0.28663,1.28433 0.26182,0.46026 0.87229,0.21084 1.15755,-0.0882 0.1502,-0.13643 0.28663,-0.33486 0.23702,-0.59945"
         id="path15" />
      <path
         style="fill:#ffffff;fill-opacity:1;fill-rule:nonzero;stroke:none;stroke-width:0.352777"
         d="m 115.29563,120.75818 c 0.008,-0.0165 0.0193,-0.0317 0.0276,-0.0496 h -8.39638 c 0.008,0.0179 0.0193,0.0331 0.0262,0.0496 0.12678,0.2825 0.17638,0.58429 0.16536,0.88195 h 8.01329 c -0.011,-0.29766 0.0386,-0.59945 0.16399,-0.88195"
         id="path17" />
      <path
         style="fill:#ffffff;fill-opacity:1;fill-rule:nonzero;stroke:none;stroke-width:0.352777"
         d="m 89.954887,122.21339 c -0.49885,0.11438 -0.424436,0.65043 -0.139182,0.93707 0.475423,0.45888 1.185113,0.82269 2.007802,1.08176 0.92053,0.28939 1.980241,0.43546 3.015148,0.45062 1.581988,0.011 3.165354,-0.38586 4.610916,-0.9977 1.420759,-0.59807 2.827729,-1.42076 3.975639,-2.48047 0.29903,-0.27285 0.59669,-0.55811 0.92191,-0.78411 0.24805,-0.1626 0.52365,-0.27423 0.84749,-0.28663 0.64768,-0.0248 1.10932,0.35002 1.32016,0.82131 0.28663,0.63803 0.0868,1.40836 -0.46026,1.83279 -0.42444,0.32384 -1.02113,0.28801 -1.32154,0.0248 -0.54708,-0.47266 0.31144,-1.44556 0.94809,-1.23334 0,-0.24943 -0.17501,-0.48507 -0.44924,-0.47405 -0.28801,0.0124 -0.79789,0.46165 -1.20992,0.8475 -1.20854,1.1231 -2.67891,1.99402 -4.198881,2.62929 -1.557183,0.64907 -3.276975,1.08315 -4.996767,1.07075 -1.121723,-0.011 -2.279275,-0.17226 -3.289377,-0.49748 -0.971517,-0.29903 -1.819011,-0.73587 -2.404677,-1.32016 -0.137804,-0.1378 -0.261827,-0.29903 -0.348643,-0.47404 -0.275608,-0.57327 -0.238401,-1.22094 0.223242,-1.68121 0.574642,-0.57464 1.521354,-0.52503 2.056033,-0.0634 0.398253,0.34727 0.486448,0.93431 0.286632,1.28433 -0.261827,0.46027 -0.872298,0.21084 -1.157552,-0.0882 -0.150206,-0.13643 -0.286632,-0.33487 -0.237023,-0.59945"
         id="path19" />
      <path
         style="fill:#214a99;fill-opacity:1;fill-rule:nonzero;stroke:none;stroke-width:0.352777"
         d="m 123.92629,151.78334 c 0.0827,0.25493 0.14056,0.46302 0.17776,0.65732 -0.10197,-0.13505 -0.20257,-0.2701 -0.29903,-0.40652 -0.49472,-0.71107 -0.72347,-1.30638 -0.69729,-1.80936 0.0386,-0.0358 0.0772,-0.073 0.11713,-0.10887 0.27286,0.54846 0.53055,1.10519 0.70143,1.66743 m -1.66192,4.65501 c -0.55397,0 -1.02802,-0.13505 -1.28433,-0.3638 -0.14056,-0.88746 -0.452,-1.68397 -0.97152,-2.49838 0.25908,-0.339 0.51401,-0.6532 0.76481,-0.93707 0.35003,-0.39412 0.64906,-0.72209 0.92329,-1.01286 0.24529,0.66008 0.60082,1.21405 0.91502,1.69499 l 0.0262,0.04 c 0.41754,0.62149 0.77859,1.15893 0.77859,1.72668 0,0.65457 -0.40377,1.35048 -1.15204,1.35048 m -4.01284,-23.58237 c 0.19016,-0.21222 0.35967,-0.40239 0.52089,-0.58291 0.46027,0.54157 0.91502,1.07625 1.35737,1.59852 -0.43821,0.36243 -0.87781,0.7028 -1.29673,1.01975 l -0.41892,0.3197 1.34358,1.4621 c -0.007,0.0248 -0.0152,0.051 -0.022,0.0717 l -0.17777,0.45614 c -0.14469,0.37069 -0.28801,0.73449 -0.42581,1.1107 -0.19293,0.18879 -0.38723,0.41616 -0.59393,0.65732 l -0.23289,0.2701 c -0.62701,0.75378 -1.31465,1.54477 -2.209,2.271 0.005,-0.22324 -0.007,-0.44235 -0.0469,-0.62287 l -0.011,-0.0289 0.0882,-0.27148 c 0.15296,-0.46026 0.0868,-0.98529 -0.13229,-1.45383 l 0.0661,-0.10473 c 0.31833,-0.49196 0.25907,-1.06385 -0.13229,-1.5999 l 0.0496,-0.11025 c 0.20119,-0.4575 0.18466,-0.93293 -0.0469,-1.37252 -0.0124,-0.0248 -0.0303,-0.0469 -0.0455,-0.0717 l 0.0441,-0.2508 c 0.0234,-0.14332 0.0317,-0.27423 0.0331,-0.39825 1.16306,-1.18512 2.0202,-2.06844 2.28892,-2.36885 m -21.596615,7.68945 -0.0096,0.01 c 0,-0.0124 -0.0041,-0.0234 -0.0055,-0.0345 0.0055,0.008 0.0096,0.0165 0.01516,0.0248 m 13.069255,-12.14459 v 0.17638 c -0.47404,0.2949 -0.92742,0.6091 -1.31465,0.97566 l -0.10748,-0.0786 c -0.0648,-0.0468 -0.14745,-0.0813 -0.2384,-0.10473 0.17639,-0.7469 0.67937,-1.04594 1.66053,-0.96877 m 21.5415,14.78773 h 0.004 l 0.01,-0.0207 v -2.8112 c 0,-0.5898 0.0868,-3.54431 1.79283,-3.79925 0.27009,-0.0441 0.514,0.0179 0.73587,0.13505 v -10.55853 c -0.001,0.004 -0.007,0.0276 -0.007,0.0276 -1.34497,1.95819 -2.30133,3.35001 -3.5705,5.0326 -1.16857,1.52686 -1.69223,2.3275 -4.32979,5.02432 0.0717,-0.2756 0.0193,-0.49333 -0.051,-0.64078 -0.16399,-0.34451 -0.50023,-0.49472 -0.69591,-0.55535 0.0289,-0.30731 -0.0234,-0.56638 -0.16537,-0.76895 -0.10749,-0.15158 -0.31832,-0.34589 -0.71106,-0.40238 l -0.0179,-0.003 c -0.0937,-0.33763 -0.2577,-0.54295 -0.44098,-0.65457 0.0262,-0.022 0.0551,-0.0441 0.0827,-0.0661 l 0.46999,-0.37202 -1.48553,-1.65778 -0.35278,0.45475 c -0.27698,0.35829 -0.5705,0.69591 -0.87505,1.0101 l -1.59301,-1.73908 c 0.001,-0.001 0.007,-0.008 0.007,-0.008 1.1231,-1.32016 1.38906,-1.80799 1.88791,-2.66651 0.36105,-0.62425 0.79375,-1.40973 1.62746,-2.62929 0,0 -0.78685,-0.26183 -1.34496,-0.49472 -1.58061,-0.66008 -2.94901,-1.49379 -4.07624,-2.48184 -0.0262,0.24253 -0.13918,0.46439 -0.33624,0.63389 -0.49747,0.43822 -1.34497,0.43546 -1.92512,-0.007 -0.21222,-0.16398 -0.37621,-0.36793 -0.50161,-0.59255 0.022,0.0482 0.0358,0.0827 0.0289,0.0923 -0.16123,0.2384 -0.31557,0.47542 -0.55122,0.83922 -0.19981,0.29766 -0.43959,0.66422 -0.67661,1.01286 -0.33898,-0.33487 -0.63251,-0.61048 -0.89847,-0.83923 -0.62976,-0.5898 -1.66742,-0.89573 -1.66742,-0.89573 0,0 0.16536,1.07901 0.70004,1.77354 0.26183,0.37207 0.56913,0.77032 0.95774,1.24988 -0.23703,0.28663 -0.52504,0.60634 -0.87368,0.95222 -0.16812,0.16675 -0.35553,0.32247 -0.55397,0.47267 -0.22462,-0.0372 -0.47129,-0.0606 -0.75103,-0.073 h -0.003 c 0.0303,-0.0854 0.0496,-0.17777 0.0496,-0.27423 0,-0.22737 -0.0882,-0.4451 -0.23013,-0.58704 -0.01,-0.011 -0.0207,-0.0179 -0.0303,-0.0276 0.15571,-0.0785 0.26871,-0.23703 0.26871,-0.4203 0,-0.23841 -0.1819,-0.43546 -0.4079,-0.46992 0.0207,-0.0551 0.0344,-0.11299 0.0344,-0.17776 0,-0.10887 -0.0372,-0.20946 -0.11162,-0.30593 l -0.0414,-0.0413 c -0.0937,-0.0717 -0.2067,-0.113 -0.31832,-0.113 -0.26596,0 -0.47405,0.20258 -0.47405,0.46027 0,0.0634 0.0138,0.12402 0.0344,0.17914 -0.22875,0.0386 -0.4079,0.22876 -0.4079,0.46854 0,0.18328 0.11576,0.34313 0.27561,0.4203 -0.16261,0.15572 -0.26596,0.37207 -0.26596,0.6146 0,0.091 0.0221,0.18466 0.0551,0.27286 h -0.0152 c -1.68259,0.0882 -2.31786,0.48782 -2.86632,2.13044 -0.66008,-0.43546 -1.24713,0.16399 -1.37115,0.73587 0.68488,-0.19981 0.81029,0.0868 1.07211,0.57465 l 0.0496,0.0978 c 0.11989,0.24391 0.29628,0.58566 0.54295,0.77032 -0.0675,0.0786 -0.13505,0.1571 -0.20395,0.23151 -0.0248,0.0234 -0.0468,0.0427 -0.073,0.0661 -0.27423,0.2508 -0.61323,0.56499 -0.87368,0.66421 -0.0785,0.0276 -0.59393,0.15986 -0.93568,0.24667 -0.23014,0.0593 -0.45062,0.11438 -0.59532,0.15297 l -0.28663,0.0758 0.008,0.29627 c 0.008,0.29628 0.12403,0.55535 0.32522,0.73725 l -0.004,0.0248 c -0.14469,0.15572 -0.27285,0.30868 -0.37345,0.46302 -1.5434,1.71842 -2.34542,2.72025 -3.68901,4.68258 -0.46853,-0.12127 -1.005965,-0.15434 -1.143768,-0.15434 -0.03996,0 -0.07579,10e-4 -0.110243,0.003 -0.409278,0.0248 -0.830957,0.18603 -1.338076,0.42167 -0.177766,0.0827 -0.395497,0.20671 -0.555349,0.29628 -0.0565,0.0317 -0.103353,0.0579 -0.13367,0.0744 -0.126779,0.0675 -0.402387,0.21498 -0.405143,0.50437 -0.06204,-0.14736 -0.15023,-0.27965 -0.265986,-0.38025 -0.220486,-0.19706 -0.529166,-0.29628 -0.917773,-0.29628 -0.625629,0 -1.340831,0.46578 -1.816254,1.1796 -0.454753,0.65864 -0.694532,1.4896 -0.694532,2.40186 0,0.84198 0.08406,2.11391 0.715202,3.73862 l -0.04547,0.0537 c -0.664215,0.64354 -1.565452,1.54202 -2.600359,2.5287 l -0.0124,0.007 c -0.09784,1.04869 -0.388607,1.83968 -0.877811,2.40054 -0.407899,0.44373 -0.953602,0.62839 -1.394574,0.48369 -0.05512,-0.0193 -0.13367,-0.0524 -0.21773,-0.10886 v 10.6357 c 0,0.0827 0.0028,0.16123 0.0041,0.24253 0.03721,-0.76205 6.011003,-5.51353 10.036252,-9.30451 l 0.06201,-0.073 c 0.01516,0.0152 0.02894,0.0303 0.0441,0.0455 l 0.336242,0.3321 0.337619,-0.33348 c 2.271003,-2.23793 3.825433,-4.3105 4.748723,-6.33898 0.0455,-0.0992 0.0799,-0.19292 0.11989,-0.28939 l 0.14056,-0.16536 c 0,0 0.0386,-0.0386 0.0978,-0.0978 0.24804,0.15296 0.45475,0.3197 0.73863,0.5774 l 0.0372,0.0331 c -0.11576,0.41754 -0.0303,0.853 0.24529,1.14653 0.19017,0.19016 0.45613,0.21221 0.76481,0.2384 0.15434,0.0138 0.32797,0.0289 0.44373,0.0661 0.0276,0.008 0.0537,0.0138 0.0799,0.0193 l 0.25769,0.27561 c 0.1819,0.19292 0.339,0.36242 0.49334,0.54156 0.45199,0.49609 0.71795,0.78135 0.88745,0.94947 l 0.0276,0.0262 c 0.16123,0.1378 0.32384,0.28939 0.4961,0.45889 0.55397,0.55672 1.11896,1.09003 1.78593,1.55443 -0.0896,0.11024 -0.17914,0.2191 -0.26871,0.32384 -1.12862,0.33624 -2.32475,0.50436 -3.38722,0.62149 -1.3932,0.15296 -2.98897,0.41892 -4.29259,1.66329 -0.81856,0.78824 -1.27882,1.78318 -1.36702,2.95452 l -0.0468,0.627 0.61874,-0.11989 c 0.0193,-0.004 0.0386,-0.008 0.0579,-0.0138 -0.13504,0.80891 -0.0193,1.63711 0.54984,2.27652 -0.0331,0.0317 -0.0648,0.0606 -0.0992,0.0923 -2.819467,2.60174 -8.947604,8.02432 -10.380764,9.29074 1.118968,0.66559 2.368848,0.95773 3.549827,0.95773 h 7.577837 c 0.15434,0 0.31143,0.001 0.46715,0.006 0.49472,-0.45062 2.04914,-1.88378 3.4134,-3.14468 0.34176,-0.0772 0.72623,-0.29904 0.93569,-0.86541 0.10335,-0.0951 0.20119,-0.18741 0.29628,-0.27561 0.12127,0.0772 0.2508,0.14745 0.40514,0.20395 l 0.45889,0.16537 0.15847,-0.46027 c 0.10749,-0.31281 0.13781,-0.63114 0.10611,-0.94947 0.32108,-0.28112 1.49379,-1.28019 4.27054,-4.12033 0.0234,-0.0234 0.0455,-0.0496 0.0689,-0.073 0.3762,0.44511 0.91915,0.78824 1.51584,0.91915 l 1.45383,0.31833 -0.21911,-0.24391 c 0.34451,0.0772 0.71383,0.062 1.16445,0.04 0.72622,-0.0358 1.62746,-0.0799 2.02158,0.27698 0.16674,0.1571 0.2632,0.35692 0.28663,0.59393 0.0262,0.26872 0.0744,0.76757 0.0193,1.12724 -0.0827,0.45062 -0.25218,0.45062 -0.3762,0.45062 -0.42444,0 -0.64079,-0.16674 -0.94258,-0.39963 -0.41755,-0.31833 -1.15893,-0.64217 -1.87138,-0.51401 -0.15434,0.0289 -0.29214,0.0827 -0.42168,0.14883 -0.0262,0.0124 -0.0496,0.0248 -0.0744,0.0386 -0.0331,0.0193 -0.0662,0.0372 -0.0978,0.0593 -0.12264,0.0827 -0.23426,0.18741 -0.3321,0.32521 -0.94534,-0.12402 -1.03491,0.41204 -1.08314,0.87093 0.18741,-0.17226 0.62287,-0.34589 1.03353,-0.26045 0.0496,0.10335 0.10197,0.19568 0.15847,0.26871 -0.18052,0.14608 -0.32935,0.34176 -0.42719,0.5526 -0.0138,0.022 -0.0303,0.0427 -0.0413,0.0648 -0.41066,0.0744 -0.66008,0.46026 -0.63528,1.01975 0.19982,-0.12127 0.54846,-0.24943 0.83509,-0.30868 0.0992,0.0854 0.19844,0.16123 0.36105,0.22186 l -10e-4,-0.004 c 0.3266,0.14883 0.64217,0.14056 0.7717,0.13643 0.051,-0.001 0.1006,-0.004 0.15021,-0.007 l -0.0537,0.073 c -0.01,0.007 -0.0165,0.0124 -0.0193,0.0152 -0.54708,0.22324 -0.78686,0.7593 -0.52503,1.24575 0.1254,-0.28112 0.34451,-0.56362 0.6835,-0.67938 l 0.24392,0.0717 c 0.0785,0.0262 0.17363,0.0551 0.28387,0.0703 0.19155,0.0441 0.46027,0.0951 0.69729,0.0951 0.4768,0 0.77583,-0.0524 1.03766,-0.1695 -0.13229,0.13781 -0.20533,0.2136 -0.20533,0.2136 -1.04317,0.99081 -2.39503,2.55902 -3.19429,3.17914 1.05558,-0.23565 2.14974,-0.29629 3.19567,-0.29629 h 7.57784 c 3.28386,0 7.11894,-2.24619 7.11894,-8.57828 v -10.63571 c -0.0841,0.0565 -0.53192,0.339 -0.53192,0.339 -0.011,0 -1.75424,1.06109 -3.84748,3.31694 -2.09462,2.25584 -1.96784,2.10564 -3.7965,4.95404 -0.39412,0.61461 -0.92328,1.3243 -1.50895,2.05879 -0.0469,-0.41203 -0.10611,-0.69729 -0.1943,-0.93293 -0.14194,-0.42444 -0.40653,-0.73036 -0.85301,-0.96876 -0.40514,-0.21773 -0.84198,-0.31557 -1.28295,-0.40239 -0.64631,-0.13505 -0.99219,-0.22048 -1.16583,-0.58015 -0.29489,-0.60772 -0.18741,-1.16996 -0.0152,-1.85208 0.62012,0.17914 1.21267,0.31005 1.85071,0.31005 2.56177,0 3.47128,-2.35231 3.47128,-4.367 0,-1.93752 -0.77722,-3.62562 -1.5186,-5.1263 0.0758,-0.0703 0.14883,-0.13781 0.22875,-0.2136 0.051,-0.004 0.0992,-0.01 0.15572,-0.011 l 0.0565,0.004 c 1.28295,-0.0248 1.27193,0.81029 1.14653,1.75976 -0.1006,0.80891 -0.14883,1.69361 0.1254,2.50252 0.48645,1.44694 1.7818,1.07073 2.62654,2.00779 0.12678,-0.2756 0.27698,-0.56085 0.26183,-0.87367 l 0.3638,0.0744 c -0.0386,-0.37345 -0.0262,-0.82269 -0.15021,-1.16996 l 0.0992,0.0124 c -0.073,-0.49884 -0.1254,-0.99632 -0.13642,-1.50757 -0.0868,-1.82039 -0.21222,-2.30684 -1.64538,-3.11713 -0.17501,-0.0978 -0.32246,-0.19843 -0.48645,-0.34864 -0.23289,-0.21084 -0.63803,-0.49058 -0.93844,-0.66973 h 0.004 c -0.0179,-0.008 -0.0372,-0.0138 -0.0537,-0.0234 0.19981,-0.19017 0.39273,-0.37069 0.58015,-0.5457 0.24529,0.20119 0.50161,0.36242 0.72347,0.50023 l 0.01,0.004 c 0.63389,0.39825 0.66008,0.37344 0.44786,1.0101 0.69729,-0.2136 1.10932,-0.42444 1.18236,-1.32154 l 0.19981,0.11162 c 0.0262,-0.54846 0.04,-1.0101 -0.16123,-1.54478 l 0.26183,0.113 -0.11989,-0.81029 -0.003,-0.0234 c -0.008,-0.051 -0.0179,-0.0978 -0.0262,-0.14745 0.98116,-0.74414 1.67569,-1.19338 2.09737,-1.59439 v -0.003"
         id="path21" />
      <path
         style="fill:#214a99;fill-opacity:1;fill-rule:nonzero;stroke:none;stroke-width:0.352777"
         d="m 89.183186,136.55739 c 0.78686,0.11713 1.225076,0.81304 1.471744,1.58475 0.571886,-0.791 1.001834,-1.46762 1.418002,-2.1525 2.142849,-3.46439 4.817622,-6.56497 8.157988,-8.89662 1.14653,-0.7965 1.96784,-1.32705 3.7896,-3.25492 0.1447,-0.15296 0.36381,-0.41066 0.51401,-0.56086 0.0165,0.007 0.0358,0.0138 0.0551,0.0207 -0.0593,-0.0372 -0.11851,-0.0744 -0.17087,-0.12127 -0.19569,-0.1695 -0.30869,-0.39136 -0.33349,-0.6339 -1.12861,0.98806 -2.49701,1.82177 -4.07762,2.48185 -1.765262,0.73725 -3.483676,1.10932 -5.113895,1.10932 -0.02343,0 -0.04823,0 -0.07304,0 -1.225076,-0.0124 -2.411567,-0.19293 -3.425803,-0.51952 -1.110698,-0.34175 -1.98713,-0.82545 -2.604491,-1.44143 -0.137804,-0.13918 -0.254937,-0.28663 -0.3514,-0.44373 l 0.0014,12.96459 c 0.224617,-0.11714 0.471286,-0.18053 0.74276,-0.13643"
         id="path23" />
      <path
         style="fill:#ffffff;fill-opacity:1;fill-rule:nonzero;stroke:none;stroke-width:0.352777"
         d="m 95.810172,141.67956 c -0.06477,0 -0.107487,-0.01 -0.130914,-0.0207 -0.108865,-0.0565 -0.165364,-0.2136 -0.130914,-0.39137 0.198438,-0.062 0.373449,-0.11162 0.511253,-0.27285 0.186035,-0.21221 0.137803,-0.57464 -0.07579,-0.76067 -0.111621,-0.0992 -0.299035,-0.17502 -0.598069,-0.17502 -0.423057,0 -0.996321,0.33624 -1.420757,0.9729 -0.361046,0.52365 -0.610471,1.23196 -0.610471,2.12907 0,1.04731 0.139181,2.39227 0.910883,4.11206 0.771701,1.69637 2.167654,3.74 4.660525,6.19429 2.491492,-2.45429 3.875042,-4.49792 4.648122,-6.19429 0.7717,-1.71979 0.90813,-3.06475 0.90813,-4.11206 0,-0.89711 -0.24943,-1.60542 -0.59807,-2.12907 -0.43546,-0.63666 -0.99632,-0.9729 -1.43178,-0.9729 -0.30042,0 -0.48783,0.0758 -0.59945,0.17502 -0.21222,0.18603 -0.35278,0.54846 -0.16536,0.76067 0.1502,0.16123 0.50987,0.26872 0.51125,0.27285 0.0221,0.0896 -0.0207,0.23014 -0.0703,0.32247 -0.0317,0.0593 -0.073,0.0675 -0.11576,0.0813 -0.0358,0.005 -0.0923,0.007 -0.0965,0.007 -0.17225,0 -0.0978,0 -0.17501,0 -0.0551,0.001 -0.0193,0 -0.14745,0.001 -0.0841,0.001 -0.13642,0 -0.13229,0 -0.0992,-0.001 -0.20946,-0.007 -0.226,0 0,-0.004 0.004,-0.007 -0.0537,0.0703 -0.17501,0.23013 -0.33073,0.65181 -0.33073,0.65181 -0.003,0.007 -0.31281,-0.22462 -0.52641,-0.39274 -0.14883,-0.11713 -0.487822,-0.25494 -0.486445,-0.25631 -0.0028,0.004 -0.192925,0.19981 -0.281119,0.36517 -0.100597,0.12127 -0.241157,0.52779 -0.245291,0.52779 -0.03307,0 -0.296278,-0.31143 -0.549837,-0.48782 -0.07441,-0.051 -0.549838,-0.35554 -0.522277,-0.42719 -0.04547,0.11713 -0.191547,0.40514 -0.191547,0.40514 -0.07441,0.17225 -0.103353,0.32108 -0.150206,0.60358 l -0.581532,-0.51125 c -0.248047,-0.11438 -0.311437,-0.17088 -0.457509,-0.28801 -0.21084,-0.1695 -0.264583,-0.25632 -0.263205,-0.26045 h -0.785488"
         id="path25" />
      <path
         style="fill:#fabd00;fill-opacity:1;fill-rule:nonzero;stroke:none;stroke-width:0.352777"
         d="m 110.32643,129.04295 c -0.38585,0.12402 -0.33487,0.37345 -0.33487,0.68626 -0.33762,-0.16399 -0.64905,-0.34864 -1.07211,-0.0496 0.11162,0.45889 0.62287,0.43409 0.95911,0.36105 -0.10059,0.50987 -0.49885,0.69728 -0.93431,0.7593 -0.43683,0.0744 -1.67018,0.0372 -1.7942,-0.53606 0.38585,0.0262 0.90813,-0.1502 0.99632,-0.57326 -0.0882,-0.0634 -0.24943,-0.1006 -0.41203,-0.0854 -0.17364,0.011 -0.34865,0.0744 -0.49748,0.20946 -0.0868,0.1006 -0.1502,0.17639 -0.22462,0.28801 -0.16123,-0.18741 -0.27423,-0.39963 -0.46026,-0.56224 -0.26321,-0.22324 -0.63665,-0.13643 -0.82407,0.13918 0.48645,0.011 0.68627,0.43408 0.88608,0.79651 0.113,0.22462 0.38585,0.86127 0.69729,0.86127 h 6.01927 c 0.32246,0 0.59669,-0.63665 0.70969,-0.86127 0.18603,-0.36243 0.38585,-0.78548 0.8723,-0.79651 -0.18742,-0.27561 -0.54846,-0.36242 -0.81029,-0.13918 -0.18603,0.16261 -0.29903,0.37483 -0.47267,0.56224 -0.0758,-0.11162 -0.1254,-0.18741 -0.22461,-0.28801 -0.13781,-0.13505 -0.31144,-0.19844 -0.48508,-0.20946 -0.17501,-0.0152 -0.32521,0.022 -0.42581,0.0854 0.0882,0.42306 0.62287,0.59944 1.0101,0.57326 -0.12402,0.57326 -1.35737,0.61047 -1.80661,0.53606 -0.42305,-0.062 -0.81028,-0.24943 -0.9219,-0.7593 0.34864,0.073 0.83509,0.0978 0.94671,-0.36105 -0.42306,-0.29903 -0.72209,-0.11438 -1.05833,0.0496 0,-0.31281 0.062,-0.56224 -0.33762,-0.68626"
         id="path27" />
      <path
         style="fill:#fabd00;fill-opacity:1;fill-rule:nonzero;stroke:none;stroke-width:0.352777"
         d="m 106.88822,129.50459 c 0.0496,0.0358 0.0868,0.0854 0.12402,0.14745 0.0124,-0.011 0.0248,-0.0248 0.0372,-0.0344 0.18742,-0.18879 0.43684,-0.2756 0.66146,-0.28801 h 0.0868 c 0.26183,-1.15893 1.19614,-1.29535 2.19246,-1.16995 v 0.70969 c 0.113,-0.0634 0.23702,-0.1006 0.33624,-0.1006 0.11162,0 0.226,0.0372 0.33762,0.1006 v -0.70969 c 0.98392,-0.1254 1.93063,0.011 2.18006,1.16995 h 0.0868 c 0.23702,0.0124 0.47267,0.0992 0.67386,0.28801 0.0124,0.01 0.0124,0.0234 0.0248,0.0344 0.0358,-0.062 0.0868,-0.11162 0.12402,-0.16123 -0.57326,-1.61919 -1.05971,-2.01745 -2.77812,-2.06706 -0.14883,0.18742 -0.38723,0.29904 -0.63528,0.29904 -0.2508,0 -0.48507,-0.1006 -0.64905,-0.29904 -1.73082,0.0496 -2.22967,0.44787 -2.80293,2.08084"
         id="path29" />
      <path
         style="fill:#fabd00;fill-opacity:1;fill-rule:nonzero;stroke:none;stroke-width:0.352777"
         d="m 109.75454,126.8877 c 0,0.1502 0.0744,0.29903 0.17501,0.39963 0.0992,0.0992 0.24943,0.16123 0.41066,0.16123 0.31143,0 0.56086,-0.24943 0.56086,-0.56086 0,-0.16261 -0.0648,-0.31144 -0.16261,-0.41204 -0.1006,-0.11162 -0.24943,-0.17363 -0.39825,-0.17363 -0.32522,0 -0.58567,0.26183 -0.58567,0.58567"
         id="path31" />
      <path
         style="fill:#fabd00;fill-opacity:1;fill-rule:nonzero;stroke:none;stroke-width:0.352777"
         d="m 110.2024,125.85279 c 0,-0.1378 -0.113,-0.24805 -0.23702,-0.24805 -0.13643,0 -0.24942,0.11025 -0.24942,0.24805 0,0.12402 0.11299,0.2384 0.24942,0.2384 0.12402,0 0.23702,-0.11438 0.23702,-0.2384"
         id="path33" />
      <path
         style="fill:#fabd00;fill-opacity:1;fill-rule:nonzero;stroke:none;stroke-width:0.352777"
         d="m 110.0894,125.20511 c 0,0.0744 0.0248,0.13781 0.0758,0.18742 0.0372,0.0372 0.0868,0.062 0.16123,0.062 0.13643,0 0.23565,-0.0992 0.23565,-0.24943 0,-0.062 -0.0234,-0.11162 -0.0606,-0.16123 -0.0496,-0.0386 -0.11162,-0.0634 -0.17501,-0.0634 -0.13781,0 -0.23703,0.1006 -0.23703,0.22462"
         id="path35" />
      <path
         style="fill:#fabd00;fill-opacity:1;fill-rule:nonzero;stroke:none;stroke-width:0.352777"
         d="m 110.69987,126.08981 c 0.12541,0 0.23841,-0.113 0.23841,-0.23702 0,-0.1378 -0.113,-0.24805 -0.23841,-0.24805 -0.13642,0 -0.24804,0.11025 -0.24804,0.24805 0,0.12402 0.11162,0.23702 0.24804,0.23702"
         id="path37" />
      <path
         style="fill:#fabd00;fill-opacity:1;fill-rule:nonzero;stroke:none;stroke-width:0.352777"
         d="m 112.69527,137.66258 c 0.008,1.0418 0.41204,1.74046 1.11484,1.92236 0.17087,0.04 0.33486,0.0537 0.49471,0.0675 0.33349,0.0289 0.64906,0.0551 0.9977,0.31006 0.16123,0.11024 0.30455,0.24943 0.46027,0.44924 0.18741,-0.67937 -0.22462,-1.69085 -1.0859,-2.07257 -0.0758,-0.0317 -0.24115,-0.0703 -0.49196,-0.11024 -0.45613,-0.0786 -1.1355,-0.19568 -1.48966,-0.56637"
         id="path39" />
      <path
         style="fill:#fabd00;fill-opacity:1;fill-rule:nonzero;stroke:none;stroke-width:0.352777"
         d="m 112.76004,136.14674 c -0.0537,0.2384 -0.0606,0.51263 -0.0138,0.74138 0.13505,0.66835 0.66284,0.79651 1.51033,0.95085 0.25356,0.0413 0.44235,0.0758 0.58016,0.14056 0.43132,0.18052 0.73035,0.52503 0.91088,0.7965 0.38585,-0.65732 -0.27285,-1.31051 -0.57878,-1.56407 -0.35553,-0.34313 -0.73587,-0.53468 -1.27055,-0.64079 l -0.01,-0.003 c -0.38309,-0.073 -0.8158,-0.1571 -1.12861,-0.42168"
         id="path41" />
      <path
         style="fill:#fabd00;fill-opacity:1;fill-rule:nonzero;stroke:none;stroke-width:0.352777"
         d="m 112.67047,134.60058 c -0.0331,0.12678 -0.0496,0.27147 -0.0496,0.44924 0.051,0.7841 0.75516,1.01699 1.36288,1.13275 0.5898,0.11851 1.03904,0.34726 1.45934,0.74 0.0345,0.0358 0.0662,0.0703 0.0965,0.10611 0.0289,0.0303 0.0565,0.062 0.0868,0.0923 0.13367,-0.33211 0.11714,-0.67248 -0.0496,-0.98805 -0.25494,-0.48645 -0.86541,-0.89573 -1.51722,-1.01975 -0.43408,-0.0813 -1.02526,-0.19155 -1.38906,-0.51263"
         id="path43" />
      <path
         style="fill:#fabd00;fill-opacity:1;fill-rule:nonzero;stroke:none;stroke-width:0.352777"
         d="m 112.64015,133.45267 c -0.006,0.0565 -0.003,0.11438 0.005,0.17226 0.0854,0.82406 0.7345,0.95222 1.48553,1.09967 0.627,0.15021 0.98529,0.30041 1.41111,0.77721 0.0703,-0.47404 -0.0152,-0.85989 -0.25494,-1.14652 -0.27423,-0.33073 -0.75241,-0.51677 -1.34634,-0.52504 -0.37896,-0.0124 -0.80753,-0.0248 -1.30087,-0.37758"
         id="path45" />
      <path
         style="fill:#fabd00;fill-opacity:1;fill-rule:nonzero;stroke:none;stroke-width:0.352777"
         d="m 106.32736,139.80956 c 0.36105,0.17501 0.7717,0.18741 1.08452,-0.0496 0.46026,0.34864 1.09554,0.43684 1.49517,0.0496 0.57188,0.51125 1.48277,0.37345 1.74322,-0.62287 -0.35967,0.42306 -1.23197,0.8847 -2.19246,-0.18604 0.0496,0.21084 0.1254,0.40928 0.22462,0.55949 -0.48645,0.14883 -1.14653,0.0758 -1.78181,-0.63528 0.0358,0.21222 0.12403,0.39826 0.24943,0.56224 -0.28663,0.073 -0.62425,0.0358 -1.02113,-0.2632 -0.051,-0.0496 -0.0386,-0.13643 -0.0386,-0.21084 l 0.10611,-0.60634 -0.10611,-0.42857 0.46027,-0.18604 c 0.051,-0.0896 0.0882,-0.23702 0.17501,-0.29903 0.0882,0.14883 0.19981,0.29903 0.37345,0.35967 h 0.53605 c 0.0758,-0.18741 0.16261,-0.28663 0.33762,-0.37483 0.0496,0.28801 0.21222,0.53744 0.43546,0.69867 0.43546,0.32384 1.27055,0.32384 1.64538,-0.11024 0.26045,-0.30042 0.18603,-0.88608 0.0868,-1.24713 -0.062,-0.21084 -0.17501,-0.39963 -0.33762,-0.53606 -0.19982,-0.16261 -0.53468,-0.38447 -0.83371,-0.53605 -0.67386,-0.31144 -0.94672,0.0496 -1.6068,0.1626 -0.48644,0.0882 -1.04731,0.062 -1.47036,-0.11299 -0.0262,0 -0.0634,-0.0248 -0.113,-0.0372 -0.41204,-0.16123 -1.25815,-0.49748 -1.10932,-1.6068 0.27423,-0.0248 0.39963,-0.1254 0.49885,-0.33624 -0.44787,0.062 -0.78411,-0.18741 -0.79789,-0.62425 0.42444,-0.11162 1.48277,-0.37345 1.57097,-0.41066 0.44786,-0.17363 0.94671,-0.72209 1.32016,-1.03352 h 6.26731 c 0.25081,-0.28664 0.38723,-0.36243 0.67387,-0.31144 0.21084,0.0248 0.42305,0.0978 0.64767,0.14883 -0.0138,0.39963 -0.33761,0.98392 -0.72209,1.34634 -0.42581,0.38585 -1.22232,0.34727 -1.59577,-0.0882 -0.78548,0.50023 -1.85621,0.53606 -2.71611,0.17501 -0.29903,-0.13643 -0.57326,-0.31144 -0.73587,-0.52365 -0.0248,-0.0372 -0.1006,-0.062 -0.13781,-0.0482 -0.54708,0.11162 -1.14515,0.13504 -1.69361,0.13504 -0.13642,0 -0.16123,0.22462 -0.0372,0.26183 l 0.74828,0.2508 c -0.051,0.36105 0.13643,0.7469 0.50987,0.88333 0.67249,0.23702 1.57097,-0.0124 2.15526,-0.34865 0.0386,-0.0248 0.0758,-0.0496 0.0882,-0.10059 0.49747,0.051 1.09554,-0.0496 1.57096,-0.24943 -0.0262,0.1254 -0.0262,0.24943 -0.0138,0.37621 0.0248,0.18603 0.0758,0.35966 0.1502,0.53605 -0.1254,0.27148 -0.18741,0.58291 -0.1626,0.88332 0.0124,0.24943 0.0882,0.49748 0.23702,0.70969 -0.14883,0.3142 -0.18741,0.76206 -0.113,1.1107 -0.18604,1.18098 0.0496,2.84014 1.45796,3.07716 0.43684,0.0758 0.83509,-0.0138 1.24713,0.28663 0.23702,0.17501 0.42306,0.41066 0.59669,0.70969 0.0882,0.39826 0.0138,1.08452 -0.073,1.45935 -0.0372,0.14882 -0.0138,0.28525 0.0372,0.41065 0.11162,0.23427 0.34864,0.37345 0.60909,0.38447 -0.15985,0.9853 -1.644,0.93569 -2.00505,0.0634 -0.27423,-0.67386 -0.22462,-1.95543 -1.27193,-2.08084 0.62426,0.23703 0.7593,1.38356 0.84888,2.00643 0.0482,0.35967 0.32383,0.79788 0.54708,0.93431 -0.31144,1.09692 -1.96784,0.68626 -2.13045,-0.26045 -0.11162,-0.71107 0.21222,-1.93201 -0.78548,-2.29305 0.54846,0.38722 0.37483,1.51997 0.37483,2.16765 -0.0138,0.38585 0.32383,1.12172 0.7717,1.18373 -0.92191,0.56086 -1.94304,0.16123 -2.08084,-0.94671 -0.0758,-0.71107 0.22324,-2.01745 -0.7717,-2.39365 0.55948,0.38723 0.36104,1.63297 0.36104,2.25585 -0.0124,0.64767 0.12403,1.10932 0.41066,1.33256 -0.81029,0.63665 -1.84382,-0.21084 -1.84382,-1.19476 -0.0124,-0.69866 0.41066,-1.9954 -0.56086,-2.44326 0.52366,0.43684 0.23565,1.64538 0.16123,2.29306 -0.062,0.67248 0.113,1.16995 0.42444,1.44556 -0.19982,0.0992 -0.43684,0.1254 -0.67248,0.11299 -0.81029,-0.0882 -1.47037,-0.68763 -1.47037,-1.55855 0,-0.69729 1.12172,-2.04363 0.16123,-2.5039 0.52365,0.43546 -0.51125,1.69361 -0.57326,2.34266 -0.062,0.58429 0.12402,1.02251 0.38585,1.29536 -0.92191,0.16123 -1.56959,-1.04593 -1.56959,-1.82039 0,-1.16995 0.44924,-1.67018 0.84749,-2.11667 0.0372,-0.0634 0.0868,-0.11161 0.11162,-0.1378 0.21222,-0.23702 0.32522,-0.47267 0.37345,-0.72347 0.0262,-0.12402 0.0262,-0.24805 0.0262,-0.37345"
         id="path47" />
      <path
         style="fill:#fabd00;fill-opacity:1;fill-rule:nonzero;stroke:none;stroke-width:0.352777"
         d="m 106.33976,137.4793 c 0.13643,-0.24943 0.28526,-0.34865 0.56086,-0.42306 0.0744,0.16123 0.13643,0.32384 0.26045,0.44787 h 0.24943 c 0.58566,-0.90951 1.7942,-0.27424 2.44326,0.21359 0.18741,-0.66146 -0.36242,-0.94809 -0.92191,-1.09692 -1.47174,-0.38723 -2.53008,0.46027 -3.88882,0.47267 -0.50988,0 -0.92053,-0.37483 -0.8847,-0.90951 -0.48507,0.24943 -0.36105,0.8599 0.0124,1.15893 0.67386,0.52366 1.45796,0.33624 2.16903,0.13643"
         id="path49" />
      <path
         style="fill:#fabd00;fill-opacity:1;fill-rule:nonzero;stroke:none;stroke-width:0.352777"
         d="m 110.32643,133.46783 c -0.19844,-0.0372 -0.41066,-0.113 -0.61047,-0.19982 -0.32384,-0.1378 -0.61048,-0.31281 -0.80891,-0.53605 -0.0386,0 -0.0868,0.0124 -0.13781,0.0234 0.0992,0.13918 0.13781,0.31281 0.13781,0.48782 0,0.17501 -0.0386,0.32384 -0.113,0.43546 -0.0248,0.0386 -0.0372,0.062 -0.062,0.0882 0.54846,0.0868 1.09554,-0.0496 1.59439,-0.29903"
         id="path51" />
      <path
         style="fill:#fabd00;fill-opacity:1;fill-rule:nonzero;stroke:none;stroke-width:0.352777"
         d="m 104.44496,146.4021 c 0.36242,0.19843 0.61185,0.39687 0.9853,0.73587 0.34864,-0.29904 0.12402,-0.51125 -0.0634,-0.9977 -0.14883,-0.39963 -0.29904,-0.83509 -0.21084,-1.28433 -0.0992,-0.0992 -0.18742,-0.21084 -0.27423,-0.33487 -0.0744,0.55949 -0.21222,1.18236 -0.43684,1.88103"
         id="path53" />
      <path
         style="fill:#fabd00;fill-opacity:1;fill-rule:nonzero;stroke:none;stroke-width:0.352777"
         d="m 107.79773,148.36994 c 0,-0.0744 0,-0.16123 0.011,-0.26045 0.0758,-0.64906 0.51263,-1.47037 -0.011,-1.90721 1.19751,0.58567 -0.062,2.16766 0.76067,3.08956 0.13643,0.15021 0.32384,0.24943 0.53606,0.31282 0.48369,0.1254 0.88332,0.0496 1.34359,-0.0496 -0.94671,-0.82269 0.26182,-2.7795 -0.58429,-3.37757 1.36977,0.52227 -0.0744,2.33026 1.13412,3.12815 0.50988,0.34864 0.89711,0.38585 1.38218,-0.0496 -0.24943,-0.16124 -0.56086,-0.62288 -0.56086,-1.08452 0.0124,-0.64906 0.36242,-1.58199 -0.21084,-1.96922 0.99632,0.37345 0.49747,1.38355 0.62287,2.10565 0.12402,0.49747 0.34864,0.63665 0.63527,0.70968 0.64768,0.18741 0.84612,0.22462 1.26918,-0.38447 0.0524,-0.0758 0.10059,-0.15158 0.1378,-0.19982 -0.34726,-0.11299 -0.62287,-0.77445 -0.6339,-1.1355 -0.011,-0.60909 0.41066,-1.39457 -0.17501,-1.62057 0.90951,0.113 0.49747,0.88608 0.52366,1.51033 0.0372,0.7717 0.69729,1.16857 1.43178,0.92191 0.13918,-0.051 0.37483,-0.1254 0.31281,-0.32522 -0.051,-0.19844 -0.28663,-0.43546 -0.36104,-0.58429 -0.15021,-0.32384 -0.0634,-0.51125 0.0744,-0.79788 0.12402,-0.28664 0.26182,-0.61185 0.29765,-0.92329 0.0772,-0.41065 -0.13642,-0.72209 -0.21084,-1.09554 -0.19843,0.0138 -0.42443,0.0138 -0.67248,-0.0248 -0.22462,0.88608 -1.04731,1.10933 -1.81901,0.85852 -0.54846,0.45062 -1.49517,0.52504 -2.13182,0.31144 -0.23703,0.2136 -0.53468,0.30041 -0.83509,0.31282 -0.34865,0.0248 -0.70969,-0.0744 -0.97014,-0.21222 -0.33762,0.22324 -0.72347,0.28663 -1.1107,0.24942 -0.46027,-0.0372 -0.92191,-0.24942 -1.16996,-0.47267 -0.1378,0.0482 -0.2756,0.073 -0.41203,0.073 -0.26183,0 -0.53606,-0.0854 -0.78548,-0.23427 0.0262,0.24805 0.1254,0.49748 0.21222,0.73312 0.24942,0.69729 0.47404,1.07212 -0.19982,1.60817 -0.0868,0.23565 -0.0868,0.54846 0.0992,0.74828 0.1254,0.12402 0.66146,0.073 1.0101,0.18465 0.37345,0.11438 0.69729,0.0386 1.05971,-0.14882"
         id="path55" />
      <path
         style="fill:#fabd00;fill-opacity:1;fill-rule:nonzero;stroke:none;stroke-width:0.352777"
         d="m 116.17069,142.06541 c -0.0248,0.16261 -0.0496,0.32384 -0.0868,0.47267 -0.0248,0.22462 0.13642,0.23702 0.32521,0.19981 0.13643,-0.0234 0.31006,-0.12402 0.37345,-0.18603 0,0.8847 -0.22462,1.48139 -0.81166,1.71979 0.0496,0.44786 0.33624,0.68488 0.24942,1.26917 -0.0606,0.36243 -0.19982,0.73587 -0.34864,1.06109 -0.21222,0.44787 0.32521,0.87092 0.41203,1.25815 0.11162,-0.8599 0.61047,-1.47036 1.09692,-2.05603 0.57189,-0.69867 0.77308,-1.13413 1.02112,-1.95681 0.18742,0.24942 0.34865,0.44786 0.46165,0.73587 0.41065,-0.77446 0.58567,-1.58199 0.66008,-2.40606 0.28525,0.38723 0.43684,0.62425 0.52227,1.10932 0.37483,-0.70969 0.52504,-1.22094 0.56224,-2.00642 0.19844,0.21084 0.34727,0.33624 0.44787,0.62425 0.113,-0.23702 0.21222,-0.47542 0.28801,-0.71107 0.17363,-0.50022 0.26045,-0.9977 0.31006,-1.52135 0.51125,-0.23565 1.0101,-0.47405 1.47174,-0.79651 0.34864,-0.23564 0.64768,-0.51125 0.89572,-0.83371 -0.37344,-0.36243 -1.27055,-1.24713 -1.75699,-1.71979 -0.062,0.32246 -0.26183,0.82131 -0.56086,0.98392 -0.0992,0.0482 -0.18604,0.0992 -0.28664,-0.0758 -0.0978,-0.18604 0,-0.23702 0.0868,-0.28663 0.25081,-0.13643 0.37483,-0.68489 0.38585,-0.98392 0.0138,-0.24943 0,-0.52366 0.0386,-0.76068 0.0372,-0.18741 0.11163,-0.39825 -0.0744,-0.52228 -0.41065,-0.28663 -0.62425,0.24943 -0.87367,0.53468 -0.17364,0.2136 -0.42306,0.48645 -0.60772,1.13413 -0.0772,0.226 -0.13918,0.41203 -0.18879,0.57326 -0.21359,0.54984 -0.42306,1.07074 -0.62287,1.62195 l -0.062,0.0854 c -0.24943,0.23841 -0.50988,0.56087 -0.82407,0.92054 -0.6339,0.76205 -1.43178,1.69636 -2.5039,2.51905"
         id="path57" />
      <path
         style="fill:#fabd00;fill-opacity:1;fill-rule:nonzero;stroke:none;stroke-width:0.352777"
         d="m 121.6291,134.17752 c 0.0882,-0.14883 0.17501,-0.26321 0.27423,-0.34864 0.21083,-0.18742 0.46164,-0.23703 0.73449,-0.27423 0.1254,-0.16123 0.28801,-0.31144 0.46164,-0.42306 0.18741,-0.1254 0.38585,-0.28801 0.57327,-0.43546 l -0.76068,-0.84887 c -0.38585,0.49885 -0.80891,0.97151 -1.27193,1.40835 -0.82131,-0.8971 -1.6316,-1.7818 -2.45429,-2.68028 -3.4506,-3.78547 -5.08358,-5.56866 -6.1929,-6.52777 -0.26045,-0.226 -0.50987,-0.42444 -0.79788,-0.61185 0.1626,0.29904 0.35002,0.57464 0.53743,0.84749 0.68351,0.9729 1.71841,2.18144 3.75102,4.57234 1.44419,1.68396 2.89113,3.37894 4.32291,5.07256 -0.54708,0.47404 -1.10932,0.9095 -1.68259,1.34634 l 0.84749,0.92053 c 0.21222,-0.70831 0.49748,-1.01975 0.69729,-1.25677 0.31144,-0.34865 0.58705,-0.74828 0.9605,-0.76068"
         id="path59" />
      <path
         style="fill:#fabd00;fill-opacity:1;fill-rule:nonzero;stroke:none;stroke-width:0.352777"
         d="m 122.40218,134.35253 c -0.0248,0.0882 -0.0372,0.18604 -0.0634,0.27285 0.0744,0.19982 0.0386,0.43684 0,0.63665 -0.0262,0.14883 -0.0372,0.27423 -0.0372,0.42444 0.28663,0.27285 2.05741,2.00505 2.24345,2.20486 0.0124,0.011 0.0496,0.011 0.0744,-0.0138 0.1254,-0.12265 0.26182,-0.26045 0.41203,-0.37345 0.0358,-0.0248 -0.0496,-0.1502 -0.16261,-0.28663 -0.24942,0.0772 -0.49885,0.15021 -0.74828,0.24943 -0.17363,-0.41066 -0.19843,-0.88471 -0.13642,-1.33257 -0.19844,0.0868 -0.61047,0.21084 -0.80891,0.37345 -0.0882,-0.42306 -0.0634,-0.73587 0,-1.14653 -0.22462,0.13643 -0.45062,0.28801 -0.64906,0.48645 -0.13642,-0.48645 -0.16123,-0.99632 0.0758,-1.45659 0,-0.0262 -0.10198,-0.0262 -0.19981,-0.0386"
         id="path61" />
      <path
         style="fill:#fabd00;fill-opacity:1;fill-rule:nonzero;stroke:none;stroke-width:0.352777"
         d="m 124.93088,135.46047 c -0.2384,0.17501 -0.52228,0.49885 -0.50988,0.79789 0.0124,0.22324 0.18604,0.41203 0.39688,0.46026 0.17501,0.0262 0.41203,-0.19844 0.53743,-0.42306 0.37345,-0.68488 -0.42443,-0.83509 -0.42443,-0.83509"
         id="path63" />
      <path
         style="fill:#fabd00;fill-opacity:1;fill-rule:nonzero;stroke:none;stroke-width:0.352777"
         d="m 124.65803,135.12423 c 0.0868,-0.43408 -0.0138,-0.73449 -0.44925,-0.79788 -0.31281,0.10059 -0.52365,0.51263 -0.59944,0.82269 -0.0482,0.17501 0.0524,0.28801 0.16261,0.42443 0.31143,0.33624 0.82268,-0.10197 0.88608,-0.44924"
         id="path65" />
      <path
         style="fill:#fabd00;fill-opacity:1;fill-rule:nonzero;stroke:none;stroke-width:0.352777"
         d="m 123.79675,133.9777 c -0.24805,-0.8971 -1.02113,-0.14882 -0.9095,0.47405 0.0634,0.36105 0.33624,0.48645 0.56086,0.1502 0.1254,-0.18741 0.30041,-0.46164 0.34864,-0.62425"
         id="path67" />
      <path
         style="fill:#fabd00;fill-opacity:1;fill-rule:nonzero;stroke:none;stroke-width:0.352777"
         d="m 112.19642,157.50495 c 0.31144,-0.63665 0.76068,-1.20992 1.12173,-1.77078 -0.46027,-1.30776 -1.25815,-1.98024 -1.94441,-2.44188 -1.35875,0.53743 -2.87873,0.77308 -4.35047,0.93569 -1.46899,0.16123 -2.86357,0.43546 -4.01147,1.531 -0.64768,0.62287 -1.13413,1.47174 -1.22094,2.64307 0.44786,-0.0868 0.8847,-0.59807 1.17133,-0.94809 -0.61047,1.05971 -0.9853,2.6293 0.062,3.54156 0.21222,-0.62425 -0.0992,-1.28433 0.67386,-1.78318 -0.29903,0.66008 -0.24942,1.45659 0.24943,1.99402 0.63527,0.68489 1.7694,1.06936 2.11804,1.92926 0.0744,0.21359 0.13643,0.44924 0.15021,0.68764 v -0.0124 c 0.0482,0.7717 0,1.83003 -1.02251,1.83003 -0.92328,0 -0.87367,-0.39825 -1.29673,-0.87092 -0.49747,-0.54846 -1.25677,-0.70005 -1.99265,-0.48782 0.17364,0.44786 0.73588,1.06108 1.14653,1.25952 -0.53605,0.69867 -1.59577,-0.99494 -2.55488,0.0372 0.47404,0.71107 1.6564,0.8847 2.41708,0.83509 -0.0744,0.23703 -0.66008,0.36105 -1.25815,0.24943 -0.44786,-0.0744 -0.67386,-0.14883 -1.08452,0.19844 0.58567,0.46164 1.33394,0.81028 2.05604,0.48644 0.46164,-0.19981 1.07211,-0.36105 1.96784,-0.0868 -0.69729,0.051 -1.30776,0.0248 -1.4056,0.80891 0.7717,-0.0482 2.88974,-0.17363 3.48643,-0.17363 0.67386,0 0.8723,-0.50988 0.93569,-1.05834 0.0124,-0.44924 -0.0744,-0.98392 -0.14883,-1.42213 0.42306,0.62425 0.59807,1.25952 1.35875,1.53376 0.34726,-1.00873 -0.30041,-1.93202 -1.0101,-2.57969 0.44924,0.0868 1.13412,0.38722 1.38355,0.56086 -0.18879,-1.32154 -1.45935,-1.32154 -1.68259,-2.20624 0.38585,0.17639 1.10794,0.46164 1.38217,0.87368 0.051,-0.41204 -0.13642,-1.0735 -0.44786,-1.35875 -0.47266,-0.42306 -1.30913,-0.67248 -1.30913,-1.43316 0,-0.9729 0.44924,-1.7942 1.39595,-2.38125 0.83509,-0.5209 2.05603,-0.84612 3.6642,-0.92053"
         id="path69" />
      <path
         style="fill:#fabd00;fill-opacity:1;fill-rule:nonzero;stroke:none;stroke-width:0.352777"
         d="m 128.51791,154.24038 c -0.35967,-0.78548 -1.12034,-0.8723 -1.03215,-1.83279 0.1254,0.57326 0.8089,1.07211 1.33256,1.32016 -0.0248,-0.31006 -0.14883,-0.55949 -0.33624,-0.80891 -0.39825,-0.52366 -0.88195,-0.78548 -0.68351,-2.15525 0.0496,0.83371 0.70969,1.56958 0.95912,1.81763 0.0248,-0.0606 -0.0524,-0.83371 -0.0524,-0.95774 -0.073,-1.58336 -0.0854,-1.98161 -1.39458,-2.71611 -0.19844,-0.113 -0.37345,-0.24943 -0.56086,-0.41203 -0.47267,-0.41066 -0.90951,-0.7221 -1.5062,-0.83509 -0.49885,-0.0868 -0.94809,-0.0744 -1.43454,0.0854 0.1006,0.21497 0.2012,0.43821 0.31282,0.66283 0.23702,-0.0744 0.47266,-0.0992 0.72209,-0.0992 1.6316,-0.0262 1.79558,1.04593 1.644,2.30408 -0.0868,0.73587 -0.14883,1.55718 0.0882,2.27928 0.32384,0.96049 1.17133,0.96049 1.94165,1.34772"
         id="path71" />
      <path
         style="fill:#fabd00;fill-opacity:1;fill-rule:nonzero;stroke:none;stroke-width:0.352777"
         d="m 115.68562,161.98909 c -0.30042,-0.32246 -0.46302,-0.82131 -0.38723,-1.61782 -0.39825,0.48645 -0.60909,1.32016 0.0386,2.04363 -1.19751,-0.26321 -2.34267,-1.67156 -1.17133,-2.7795 -0.59945,0.0758 -0.89848,0.70969 -1.15893,1.17133 -0.49885,-0.79651 -0.23703,-1.86862 0.70969,-2.25585 -0.48645,-0.1254 -1.09692,0.37345 -1.33257,0.83647 -0.28801,-1.23472 0.54708,-2.28203 1.20854,-3.20394 0.16123,-0.22462 0.6091,-1.10932 0.35967,-1.30913 -0.11024,0.18741 -0.21084,0.32521 -0.28525,0.41203 -0.52366,-1.23334 -1.28296,-1.94441 -2.46807,-2.66651 -0.76068,-0.47404 -1.38217,-1.07073 -2.01745,-1.70876 -0.17501,-0.17364 -0.34864,-0.33487 -0.52365,-0.48507 -0.18742,-0.18742 -0.49885,-0.52366 -0.87368,-0.93431 -0.14883,-0.17363 -0.31006,-0.34865 -0.49747,-0.54708 0.16261,-0.0138 0.33762,-0.0386 0.49747,-0.0882 0.1006,0.31281 0.2384,0.56223 0.41204,0.76067 0.21221,0.22325 0.46164,0.37345 0.77307,0.44924 0.63528,0.18604 1.16996,0 1.69361,-0.0758 0.23703,-0.0386 0.46165,-0.0386 0.69867,0.0124 0.37345,0.11438 0.71107,0.21222 1.29536,-0.35002 0.15158,-0.15021 0.31281,-0.11024 0.48644,-0.073 0.69867,0.17364 0.98254,-0.10059 1.38355,-0.67386 0.062,-0.0992 0.11162,-0.17501 0.14883,-0.22324 0.30041,0.0482 0.82269,-0.0868 0.8847,-0.1254 0.42444,-0.13642 0.62425,-0.28525 0.69729,-0.44786 0,0.0482 -0.011,0.11162 -0.011,0.16261 0,0.47267 0.16123,1.04593 0.41065,1.59576 0.26321,0.58291 0.62288,1.14515 1.02251,1.58062 0.7717,0.85989 1.42076,1.60679 1.90583,2.35506 0.47404,0.73588 0.7965,1.49517 0.93293,2.42948 l 0.0772,0.13781 c 0.40927,0.42305 1.10932,0.54846 1.6688,0.54846 1.01011,0 1.63298,-0.89711 1.63298,-1.83141 0,-0.71107 -0.39963,-1.30914 -0.86128,-1.9954 -0.53606,-0.81994 -1.15755,-1.75563 -1.15755,-3.07716 0,-0.41204 0.062,-0.7469 0.18604,-1.02251 0.0868,-0.17225 0.18741,-0.32246 0.32521,-0.46027 l 0.42444,0.94672 c -0.48645,0.95911 0.0234,2.00642 0.59669,2.82911 0.36105,0.51263 0.76068,0.99632 1.13413,1.49517 0.1502,-0.8723 0.113,-1.32154 -0.16261,-2.16903 -0.26183,-0.85852 -0.69729,-1.68259 -1.12173,-2.50389 -0.6587,-1.28434 -1.30775,-2.55489 -1.30775,-3.83922 0,-1.6316 1.0225,-3.12677 2.7795,-3.12677 0.87092,0 2.24207,0.0496 2.94073,0.66008 0.69729,0.59945 0.90951,1.29536 1.04593,2.18143 -0.13642,-0.0992 -1.07073,-0.73587 -1.17133,-1.44555 -0.12402,0.75929 0.19982,1.0225 0.52366,1.29535 0.62287,0.50987 0.57326,0.86127 0.59806,1.6564 -0.47404,-0.64768 -1.34496,-0.87092 -1.47036,-1.84243 -0.23565,1.45796 1.81901,1.74321 1.17133,2.88974 -0.15021,-0.21084 -0.42168,-0.37207 -0.73587,-0.57188 -0.62287,-0.38724 -1.45797,-0.89711 -1.45797,-2.00505 0,-0.79788 -0.11024,-1.29674 -0.33486,-1.60955 -0.26183,-0.33624 -0.62288,-0.43546 -1.12172,-0.43546 -1.29536,0 -2.09324,1.19752 -2.09324,2.39227 0,1.10933 0.57326,2.29168 1.20716,3.58979 0.77308,1.55719 1.61919,3.2756 1.61919,5.22002 0,1.86999 -0.8089,3.88744 -2.99034,3.88744 -0.75792,0 -1.46899,-0.21084 -2.19246,-0.43546 -0.22462,0.90951 -0.52228,1.74459 -0.0744,2.66651 0.28801,0.59944 0.8723,0.71106 1.53238,0.84749 0.37482,0.0744 0.7717,0.16261 1.12172,0.34864 l 0.0193,0.01 c 0.32384,0.17363 0.50436,0.38861 0.60358,0.68764 0.0882,0.23702 0.13642,0.51125 0.17501,0.84887 -0.30041,-0.1378 -0.81029,-0.31281 -0.9977,-0.54845 0.0386,0.52227 0.95911,0.8971 1.04869,1.7942 -0.52365,-0.0648 -0.72347,-0.27423 -0.9729,-0.71107 -0.0234,0.46164 0.19982,0.7469 0.47405,1.01149 0.22462,0.23564 0.43546,0.52227 0.38585,1.09416 -0.051,-0.0124 -0.1006,-0.0358 -0.15021,-0.0496 -0.55948,-0.21222 -0.79788,-0.62288 -1.00872,-1.16995 0.1254,0.95773 0.44924,2.01744 -0.11438,2.87734 -0.22324,0.34864 -0.5705,0.63665 -1.05695,0.74827 -0.31282,0.073 -0.73725,0.11163 -0.99632,-0.11162 0.10059,-0.18741 0.42305,-0.56224 0.70968,-0.69729 -0.59806,-0.0896 -0.9095,0.0496 -1.24574,0.29628 -0.52503,0.41203 -0.68764,0.53606 -1.44556,0.53606 -0.17364,0 -0.39826,-0.0372 -0.61185,-0.0868 -0.1006,-0.0124 -0.19844,-0.0482 -0.28526,-0.0744 0.24805,-0.33624 0.64768,-0.64768 1.15893,-0.64768 -0.44924,-0.41065 -1.09691,-0.0882 -1.73219,-0.0758 -0.36243,0.0138 -0.66008,-0.062 -0.88608,-0.34726 0.0758,-0.23703 0.26321,-0.46165 0.47405,-0.57327 0.52503,-0.113 1.23334,0.32384 1.69498,-0.0634 -0.27423,-0.21084 -0.68626,-0.19844 -1.10932,-0.26183 -0.44924,-0.062 -0.61185,-0.0854 -0.78548,-0.49747 0.47405,-0.74827 1.58337,-0.44786 2.15663,-0.0138 0.32246,0.24943 0.64768,0.49885 1.23334,0.49885 0.52366,0 0.76068,-0.35967 0.8475,-0.84612 0.062,-0.39962 0.0248,-0.8723 -0.0124,-1.25814 -0.0386,-0.38723 -0.21084,-0.68764 -0.43684,-0.89986 -0.68488,-0.6215 -2.09324,-0.38586 -2.95314,-0.38586 -0.52227,0 -0.97151,-0.17225 -1.34496,-0.54845"
         id="path73" />
      <path
         style="fill:#fabd00;fill-opacity:1;fill-rule:nonzero;stroke:none;stroke-width:0.352777"
         d="m 98.020545,144.14763 -0.02343,0.051 -0.04685,-0.0331 c -0.100596,-0.0744 -0.205327,-0.11713 -0.338997,-0.14194 -0.04547,0.43959 0.04823,0.67386 0.285254,0.71658 l 0.0441,0.008 -0.0069,0.0455 c -0.03858,0.25769 -0.230132,0.43822 -0.475423,0.44924 -0.0083,0 -0.01516,0 -0.02343,0 -0.246668,0 -0.44235,-0.17777 -0.480935,-0.43822 l -0.0083,-0.0551 h 0.100596 c 0.26045,-0.0207 0.370693,-0.25218 0.343132,-0.72622 -0.02756,0.004 -0.05374,0.007 -0.0813,0.01 -0.08406,0.011 -0.163987,0.0207 -0.232889,0.0468 l -0.06477,0.0248 v -0.0675 c 0,-0.18604 -0.155718,-0.36518 -0.333485,-0.38585 -0.16123,0.022 -0.319705,0.21084 -0.310058,0.38172 l 0.0041,0.0716 -0.06615,-0.0234 c -0.07717,-0.0275 -0.161231,-0.0372 -0.242535,-0.0469 -0.02756,-0.004 -0.0565,-0.007 -0.08544,-0.011 -0.02481,0.46164 0.09233,0.70555 0.347265,0.72622 h 0.09508 l -0.0069,0.0551 c -0.03996,0.27285 -0.239778,0.44924 -0.502984,0.43822 -0.242534,-0.011 -0.425814,-0.18741 -0.465777,-0.44924 l -0.0069,-0.0455 0.04547,-0.008 c 0.293522,-0.0524 0.307303,-0.37621 0.283876,-0.71658 -0.133669,0.022 -0.230132,0.0634 -0.351399,0.14331 l -0.04685,0.0303 -0.02205,-0.051 c -0.126748,-0.28382 -0.396844,-0.39131 -0.622842,-0.42851 l 0.542947,2.3399 h 2.834626 l 0.55535,-2.3399 c -0.225998,0.0372 -0.497472,0.14607 -0.635276,0.42994"
         id="path75" />
      <path
         style="fill:#fabd00;fill-opacity:1;fill-rule:nonzero;stroke:none;stroke-width:0.352777"
         d="m 100.31773,147.43011 -0.022,0.051 -0.0469,-0.0303 c -0.12402,-0.0827 -0.22324,-0.12127 -0.352773,-0.13505 -0.02205,0.33487 -0.0096,0.65457 0.283873,0.70831 l 0.0455,0.008 -0.007,0.0455 c -0.0386,0.25632 -0.225996,0.43547 -0.465774,0.44787 -0.265961,0.011 -0.464399,-0.16261 -0.501606,-0.43684 l -0.0083,-0.0537 h 0.100597 c 0.08957,-0.006 0.159852,-0.0386 0.216351,-0.10198 0.09784,-0.113 0.141939,-0.32659 0.124024,-0.61874 -0.0096,0.001 -0.01929,0.003 -0.02894,0.003 -0.100596,0.005 -0.202571,0.0138 -0.2949,0.0468 l -0.06752,0.0262 0.0028,-0.0717 c 0.0096,-0.18741 -0.157097,-0.35002 -0.316949,-0.38171 -0.180523,0.0345 -0.326595,0.20395 -0.326595,0.38309 v 0.0703 l -0.06477,-0.0262 c -0.08406,-0.0331 -0.186035,-0.0413 -0.285254,-0.0468 -0.0096,-0.001 -0.01929,-0.001 -0.02894,-0.003 -0.01929,0.30179 0.02067,0.50436 0.119889,0.61874 0.05512,0.0634 0.129536,0.0965 0.225999,0.10198 h 0.09646 l -0.0069,0.0537 c -0.03996,0.27009 -0.248047,0.44924 -0.50574,0.43683 -0.245291,-0.0124 -0.43546,-0.19292 -0.474045,-0.44786 l -0.0069,-0.0455 0.04548,-0.008 c 0.307302,-0.0565 0.314192,-0.41892 0.283875,-0.70831 -0.128157,0.0152 -0.23151,0.0565 -0.340375,0.13367 l -0.04547,0.0331 -0.02343,-0.051 c -0.137789,-0.28526 -0.409263,-0.39136 -0.635261,-0.42995 l 0.555349,2.33991 h 2.833245 l 0.54433,-2.33991 c -0.226,0.0386 -0.4961,0.14332 -0.6215,0.42857"
         id="path77" />
      <path
         style="fill:#fabd00;fill-opacity:1;fill-rule:nonzero;stroke:none;stroke-width:0.352777"
         d="m 102.59977,144.14763 -0.0248,0.051 -0.0455,-0.0331 c -0.1006,-0.0744 -0.20395,-0.11713 -0.339,-0.14194 -0.0455,0.43959 0.0469,0.67386 0.28525,0.71658 l 0.0441,0.008 -0.007,0.0455 c -0.0372,0.25356 -0.23289,0.43822 -0.47542,0.44924 -0.25907,0.0152 -0.4644,-0.16536 -0.50298,-0.43822 l -0.008,-0.0551 h 0.10059 c 0.25907,-0.0207 0.36932,-0.25218 0.34176,-0.72622 -0.0276,0.004 -0.0551,0.007 -0.0827,0.01 -0.0827,0.011 -0.16124,0.0207 -0.23014,0.0468 l -0.0648,0.0262 v -0.0689 c 0,-0.18604 -0.15572,-0.36518 -0.33348,-0.38585 -0.16537,0.022 -0.32109,0.2067 -0.31006,0.38171 l 0.004,0.0717 -0.0675,-0.0234 c -0.0772,-0.0275 -0.16123,-0.0372 -0.24253,-0.0469 -0.0289,-0.004 -0.0565,-0.007 -0.0854,-0.011 -0.0248,0.46164 0.0909,0.70556 0.34726,0.72623 h 0.0951 l -0.007,0.0551 c -0.04,0.27285 -0.2384,0.44924 -0.50298,0.43821 -0.24116,-0.011 -0.4272,-0.19155 -0.4644,-0.44924 l -0.007,-0.0455 0.0441,-0.008 c 0.29628,-0.0524 0.3073,-0.38998 0.2825,-0.71658 -0.1323,0.022 -0.23151,0.0634 -0.350025,0.14194 l -0.04685,0.0317 -0.02205,-0.051 c -0.126779,-0.28388 -0.396875,-0.39136 -0.622873,-0.42857 l 0.542947,2.33991 h 2.834621 l 0.55535,-2.33991 c -0.226,0.0372 -0.49747,0.14607 -0.63527,0.42995"
         id="path79" />
      <path
         style="fill:#fabd00;fill-opacity:1;fill-rule:nonzero;stroke:none;stroke-width:0.352777"
         d="m 97.393538,140.68186 h -0.237023 c -0.08819,0.0262 -0.162608,0.062 -0.22462,0.11162 -0.06339,0.0496 -0.100597,0.13781 -0.100597,0.24943 0,0.2756 0.0565,0.43132 0.205328,0.61873 0.175011,0.19844 0.304546,0.15021 0.461643,0.10198 0.132291,-0.0413 0.184657,-0.0689 0.272851,-0.13229 0.07166,-0.051 0.09784,-0.10335 0.100597,-0.1819 0.0069,-0.19982 -0.03032,-0.31971 -0.143316,-0.48094 -0.09922,-0.1254 -0.163987,-0.24667 -0.334863,-0.28663"
         id="path81" />
      <path
         style="fill:#fabd00;fill-opacity:1;fill-rule:nonzero;stroke:none;stroke-width:0.352777"
         d="m 99.189122,140.50409 c -0.202572,-0.051 -0.350022,-0.0854 -0.526411,-0.0345 -0.322461,0.0951 -0.27423,0.59807 -0.223242,0.78548 0.02894,0.0951 0.07855,0.16261 0.201193,0.25907 0.212219,0.16675 0.398253,0.26321 0.660081,0.051 0.310058,-0.27285 0.191547,-0.46026 0.151584,-0.77721 -0.0014,-0.0179 -0.08544,-0.23702 -0.263205,-0.28388"
         id="path83" />
      <path
         style="fill:#fabd00;fill-opacity:1;fill-rule:nonzero;stroke:none;stroke-width:0.352777"
         d="m 100.96955,140.43795 c -0.10198,-0.27561 -0.41479,-0.29628 -0.43271,-0.29904 -0.15985,-0.0262 -0.3514,0.0524 -0.4644,0.17639 -0.111617,0.11438 -0.187409,0.28664 -0.187409,0.47542 0,0.31006 0.07441,0.4837 0.275609,0.66835 0.18879,0.17226 0.79375,0.0786 0.90261,-0.3073 0.0152,-0.0496 0.011,-0.4451 -0.0937,-0.71382"
         id="path85" />
      <path
         style="fill:#fabd00;fill-opacity:1;fill-rule:nonzero;stroke:none;stroke-width:0.352777"
         d="m 100.56165,139.75168 c -0.2012,-0.18603 -1.147908,-0.33486 -1.532381,-0.31143 -0.340375,0.0179 -0.72347,0.17225 -1.163064,0.3762 -0.225998,0.10473 -0.551215,0.29904 -0.665593,0.35967 -0.208083,0.11024 -0.169498,0.10749 -0.05788,0.10749 0.361046,-0.0248 0.622873,-0.0496 0.859896,0.23702 h 0.0124 c 0.112999,-0.21222 0.274229,-0.47267 0.649056,-0.47267 0.04823,0 0.129536,-0.0152 0.179145,-0.0138 0.347266,0.006 0.649056,0.24253 0.717958,0.23289 0.04961,-0.007 0.06477,-0.2825 0.376204,-0.43546 l 0.293519,-0.0593 0.33073,-0.0207"
         id="path87" />
      <path
         style="fill:#fabd00;fill-opacity:1;fill-rule:nonzero;stroke:none;stroke-width:0.352777"
         d="m 92.064664,108.54325 0.08406,0.008 c 0.220486,0.0234 0.421679,0.11713 0.551215,0.25632 0.165364,0.17639 0.248047,0.41203 0.248047,0.69591 v 6.54292 c 0,0.28801 -0.08268,0.51814 -0.248047,0.68351 -0.122645,0.13367 -0.319705,0.22049 -0.551215,0.24391 l -0.08406,0.01 v 0.51401 h 4.362869 v -0.51401 l -0.08544,-0.01 c -0.225998,-0.0234 -0.412033,-0.10611 -0.549837,-0.24391 -0.155718,-0.16537 -0.237023,-0.40239 -0.237023,-0.68351 v -6.54293 c 0,-0.29352 0.07993,-0.52778 0.234267,-0.69315 0.14745,-0.14745 0.338997,-0.23702 0.552593,-0.25907 l 0.08544,-0.008 v -0.50298 h -4.362869 v 0.50298"
         id="path89" />
      <path
         style="fill:#fabd00;fill-opacity:1;fill-rule:nonzero;stroke:none;stroke-width:0.352777"
         d="m 105.39718,108.54325 0.0854,0.008 c 0.21222,0.0221 0.40515,0.11162 0.55122,0.25632 0.16536,0.17776 0.24805,0.41203 0.24805,0.69591 v 6.54292 c 0,0.27285 -0.0854,0.5085 -0.24529,0.68075 -0.14194,0.14056 -0.32798,0.22325 -0.55398,0.24667 l -0.0854,0.01 v 0.51539 h 4.36287 v -0.51539 l -0.0841,-0.01 c -0.22737,-0.0234 -0.41203,-0.10611 -0.55121,-0.24391 -0.16261,-0.17501 -0.24943,-0.41066 -0.24943,-0.68351 v -3.3693 h 1.25264 c 0.29352,0 0.52641,0.0786 0.69453,0.23565 0.17639,0.16536 0.2701,0.39549 0.2701,0.66559 v 0.31833 h 0.49885 v -2.87873 h -0.49885 v 0.25494 c 0,0.25907 -0.0965,0.49195 -0.2701,0.65594 -0.1695,0.15572 -0.40377,0.23565 -0.69453,0.23565 h -1.25264 v -3.54983 h 2.28617 c 0.49058,0 0.88883,0.0882 1.18649,0.26045 0.40376,0.23564 0.60082,0.61185 0.60082,1.15204 v 0.31833 h 0.52504 V 108.04 h -8.07669 v 0.50298"
         id="path91" />
      <path
         style="fill:#fabd00;fill-opacity:1;fill-rule:nonzero;stroke:none;stroke-width:0.352777"
         d="m 131.72598,116.97409 c -0.64905,-0.0207 -1.15066,-0.2825 -1.72944,-0.90537 l -4.41385,-4.62332 c 0.40652,-0.46164 0.80753,-0.93844 1.19476,-1.39871 l 0.3955,-0.46991 c 0.0482,-0.0593 0.0937,-0.11438 0.1378,-0.16536 0.0579,-0.0689 0.11162,-0.1323 0.16123,-0.19431 0.41065,-0.49885 0.65457,-0.66559 1.28433,-0.66559 h 1.15342 v -0.56224 h -2.88699 l -0.0276,0.0455 c -0.45062,0.73449 -0.8599,1.33669 -1.29122,1.89755 -0.46716,0.60359 -0.96601,1.17685 -1.43868,1.70877 h -0.82268 v -2.13596 c 0,-0.29214 0.0799,-0.52641 0.23702,-0.69728 0.13642,-0.14608 0.32246,-0.23152 0.55121,-0.25632 l 0.0841,-0.008 v -0.50298 h -4.37528 v 0.50298 l 0.0854,0.008 c 0.2384,0.0234 0.42306,0.10887 0.55259,0.25907 0.16399,0.16537 0.24805,0.39826 0.24805,0.69453 v 6.54155 c 0,0.27974 -0.0827,0.51677 -0.23427,0.68075 -0.14331,0.14332 -0.32797,0.22325 -0.56637,0.24667 l -0.0854,0.008 v 0.51677 h 4.37527 v -0.51539 l -0.0841,-0.01 c -0.22737,-0.0235 -0.41341,-0.10619 -0.55121,-0.24399 -0.15434,-0.16674 -0.23702,-0.40377 -0.23702,-0.68351 v -3.68074 h 0.72485 l 3.40651,3.50022 h -0.0165 l 0.16123,0.16123 c 0.20808,0.20532 0.32935,0.37207 0.3762,0.51401 0.0468,0.11988 0.0455,0.21635 -0.006,0.28938 -0.0661,0.0965 -0.22186,0.15572 -0.41616,0.15572 h -0.1695 v 0.51263 h 4.31326 v -0.52227 l -0.0909,-0.003"
         id="path93" />
      <path
         style="fill:#fabd00;fill-opacity:1;fill-rule:nonzero;stroke:none;stroke-width:0.352777"
         d="m 100.76835,111.45367 c -0.62838,0 -1.139634,0.51263 -1.139634,1.14239 0,0.62839 0.511254,1.13964 1.139634,1.13964 0.62977,0 1.1424,-0.51125 1.1424,-1.13964 0,-0.62976 -0.51263,-1.14239 -1.1424,-1.14239"
         id="path95" />
      <path
         style="fill:#fabd00;fill-opacity:1;fill-rule:nonzero;stroke:none;stroke-width:0.352777"
         d="m 116.73155,111.45367 c -0.63941,0 -1.14102,0.5016 -1.14102,1.14239 0,0.62839 0.51263,1.13964 1.14102,1.13964 0.62838,0 1.13963,-0.51125 1.13963,-1.13964 0,-0.62976 -0.51125,-1.14239 -1.13963,-1.14239"
         id="path97" />
    </g>
  </g>
</svg>
