<?xml version="1.0" encoding="UTF-8" standalone="no"?>
<svg
   xmlns:dc="http://purl.org/dc/elements/1.1/"
   xmlns:cc="http://creativecommons.org/ns#"
   xmlns:rdf="http://www.w3.org/1999/02/22-rdf-syntax-ns#"
   xmlns:svg="http://www.w3.org/2000/svg"
   xmlns="http://www.w3.org/2000/svg"
   xmlns:sodipodi="http://sodipodi.sourceforge.net/DTD/sodipodi-0.dtd"
   xmlns:inkscape="http://www.inkscape.org/namespaces/inkscape"
   width="84.666672mm"
   height="82.505501mm"
   viewBox="0 0 84.666672 82.505501"
   version="1.1"
   id="svg550"
   inkscape:version="1.0.1 (3bc2e813f5, 2020-09-07)"
   sodipodi:docname="Ilves logo.svg">
  <defs
     id="defs544" />
  <sodipodi:namedview
     id="base"
     pagecolor="#ffffff"
     bordercolor="#666666"
     borderopacity="1.0"
     inkscape:pageopacity="0.0"
     inkscape:pageshadow="2"
     inkscape:zoom="0.35"
     inkscape:cx="177.14286"
     inkscape:cy="81.630203"
     inkscape:document-units="mm"
     inkscape:current-layer="layer1"
     inkscape:document-rotation="0"
     showgrid="false"
     inkscape:window-width="1267"
     inkscape:window-height="728"
     inkscape:window-x="83"
     inkscape:window-y="0"
     inkscape:window-maximized="0" />
  <metadata
     id="metadata547">
    <rdf:RDF>
      <cc:Work
         rdf:about="">
        <dc:format>image/svg+xml</dc:format>
        <dc:type
           rdf:resource="http://purl.org/dc/dcmitype/StillImage" />
        <dc:title></dc:title>
      </cc:Work>
    </rdf:RDF>
  </metadata>
  <g
     inkscape:label="Layer 1"
     inkscape:groupmode="layer"
     id="layer1"
     transform="translate(-58.964284,-126.56868)">
    <g
       id="surface6447"
       transform="matrix(0.16216028,0,0,0.16216028,58.964284,126.5783)">
      <path
         style="fill:#1e170f;fill-opacity:1;fill-rule:evenodd;stroke:none"
         d="m 502.75391,80.183594 c -23.65235,4.222656 -39.36719,-14.242188 -62.07032,-4.242188 -12.78906,11.804688 -8.91406,29.105474 -14.15234,44.589844 0.0234,9.46484 -14.09766,17.57422 -6.60156,26.48437 20.42578,21.25 26.8164,52.80079 55.58984,66.84375 -14.32031,6.10938 -21.38281,7.51954 -27.02734,6.10938 12,10.58984 22.58984,47.30469 36.67968,56.11719 -5.58593,3.625 -19.76562,2.23047 -26.09375,3.89453 10.59375,10.58984 15.21094,28.07031 18.13282,41.57812 2.63672,13.50782 3.01562,22.35157 -6.83203,32.55078 -4.24219,-0.21093 -4.39844,-8.27343 -9.17969,-7.05859 -0.37891,13.88281 -19.0625,43.76953 -17.64844,61.42188 -8.47266,-9.17969 -13.14453,-9.41797 -13.14453,-9.41797 -2.85156,14.59765 -7.12891,28.65234 -12.82031,42.16797 -4.48047,2.48046 -9.34375,-1.2461 -14.28125,-1.01563 -4.94922,15.76172 -1.41016,24.75 2.12109,40.98828 -29.65625,2.11719 -43.77734,-13.41797 -52.24609,-27.53515 -24.00391,12.70703 -24.71094,33.18359 -21.88672,55.07031 -16.94531,-4.23828 -27.32813,-7.05469 -34.11719,-15.83203 -5.23828,-8.66407 -7.52734,-18.51172 -6.58984,-29.6875 -7.05469,0.55078 -14.47657,4.21093 -20.91016,7.71093 -3.90625,2.89454 -4.96484,6.72657 -5.31641,10.96875 0.13672,7.90625 5.33204,14.3086 6.58204,20.92579 -25.24219,2.27734 -49.38282,-5.35157 -65.54688,-25.26172 -11.64062,-3.60938 -23.47266,-9.75782 -30.875,-21.21094 -2.78906,14.96875 -33.78125,46.54687 -63.5039,42.5 13.48437,-24.19141 15.13281,-38.54688 15.79687,-57.20313 -20.03125,3.54688 -22.15234,29.67188 -63.804687,36.02344 8.46875,-37.42187 -7.765625,-81.1914 7.058593,-98.84375 -10.589843,-7.76562 -40.082031,16.6875 -54.714843,19.76953 -0.59375,-17.92578 3.496093,-33.58203 10.140625,-49.375 5.738281,-11.11718 19.125,-20.95703 11.667968,-35.51172 C 33.402344,300.77734 18.695313,291.42969 8.792969,282.28516 12.691406,279.39062 25.113281,278.89062 20.71875,269.92969 15.914063,261.67969 6.90625,255.19922 0,247.97656 c 15.351563,-5.76172 15.351563,-7.03125 24.5625,-19.75 C 36.007813,187.53516 45.378906,181.48437 71.613281,163.375 55.082031,139.21484 66.207031,92.746094 60.207031,80.847656 47.03125,62.011719 22.578125,68.933594 6.804688,55.226563 8.699219,50.675781 5.09375,46.359375 5.289063,41.132813 c 6.035156,-1.941407 4.0625,-9.816407 9.945312,-12.460938 -1.644531,-5.335937 5.410156,-5.742187 4.472656,-10.953125 2.511719,-1.597656 6.175782,-2.082031 7.386719,-5.492187 -1.058594,-3.9375 -0.839844,-7.753907 1.789063,-10.90625 2.910156,-3.160157 6.496093,0.027343 9.609375,0.535156 11.328125,9.691406 15.796875,23.027344 29.605468,29.285156 21.796875,-5.324219 48.035154,-6.914062 67.851564,3.617188 20.17187,6.988281 35.89062,25.496093 58.09765,27.371093 13.8125,-1.511718 28.36719,-1.0625 41.40235,1.394532 16.05469,-2.679688 31.97265,-4.796875 48.67187,-2.96875 32.24219,-5.363282 54.48438,-33.996094 87.46875,-37.398438 19.80078,-6.277344 39.27344,0.726563 57.15625,5.78125 14.01563,2.15625 20.08985,-14.191406 32.92969,-14.835937 12.80078,-2.910157 27.36328,-1.75 38.61328,3.417968 0.97266,7.328125 -11.10937,18.976563 1.11719,23.707032 1.85937,1.238281 4.52734,0.34375 6.78906,0.585937 1.1875,3.226563 -4.36328,8.832031 1.61328,11.414063 -0.23828,2.6875 1.62891,4.347656 3.5,6.152343 3.25,0.367188 7.74219,-1.125 8.8086,3.234375 -1.1211,8.492188 -11.48828,15.734375 -19.36328,17.570313"
         id="path2" />
      <path
         style="fill:#fac705;fill-opacity:1;fill-rule:evenodd;stroke:none"
         d="m 505.01953,70.214844 c -26.60156,13.316406 -48.75781,-18.355469 -74,0.01953 -16.55859,14.128906 -8.51562,37.996096 -15.97266,55.781256 -1.14062,7.5039 -10.375,12.46874 -11.80859,19.26953 24.69922,15.52734 31.27734,48.45703 52.46094,67.51953 -14.1211,-3.52735 -38.83203,-2.11719 -61.07031,-18.64453 9.59765,23.98046 37.03125,17.99609 49.38281,37.83203 11.33984,10.39453 12.72265,25.05468 19.01562,37.65625 -11.83593,1.62109 -19.54687,-11.37891 -30.0625,-15.14844 -10.21484,-2.78906 -29.48047,-14.31641 -29.48047,-14.31641 7.61329,15.40235 22.27344,30.25782 38.61329,35.90235 18.75,14.22265 25.48046,35.71093 25.4414,57.88281 -14.0664,-4.83984 -17.05859,-22.71875 -31.69922,-27.97266 -9.17578,0.16016 -19.67968,-6.35156 -26,-17.20312 -2.66797,25.1875 31.4961,24.44922 38.08985,46.22656 9.68359,20.87109 -6.67969,38.10547 -11.86719,56.41406 -3.67578,-0.22265 -4.89063,-5 -6.35547,-8.08203 -1.76953,-12.39453 -6.36328,-24.88672 -18.76953,-31.44531 -9.20313,-1.53906 -16.23828,-8.05078 -23.95313,-13.14063 2.5586,17.04297 25.1211,23.42579 30.5,40.14063 4.23047,15.74219 -4.52343,48.23437 -5.9375,48.26172 -5.24218,-9.08985 -3.47656,-21.125 -12.64062,-28.3086 -8.26172,-4.375 -18.93359,-8.84765 -22.77734,-18.52343 l -1.23438,2 c 0.88672,18.48047 28.97656,25.75781 23.125,46.33593 -4.70312,13.92579 -9.48437,31.23829 -3.28906,46.23829 -5.35156,0.9414 -10.08985,-3.63672 -14.9336,-5.94922 -20.8125,-10.9375 -14.58984,-34.91407 -31.34765,-48.17578 -0.33985,-3.38282 -1.94141,-6.1836 -4.25,-8.82422 -3.58594,7.70703 5.51172,24.47265 3.23828,31.85937 -1.19922,12.16797 -19.08203,14.87891 -23.96094,26.82813 l -3.80859,16.30859 c -13.21094,-12.48047 -12.45313,-33.67969 -9.64063,-50.67578 -1.53906,-7.17578 -17.67187,-25.25391 -21.39062,-19.96094 7.3125,6.50781 9.49219,18.05078 6.55469,27.70703 -4.71485,12.9336 -25.15235,14.72266 -35.0586,21.53125 -2.86719,7.42578 -7.76953,-10.59375 -5.89844,-37.76562 -2.57812,17.29297 -16.69921,22.9414 0.53516,63.11719 -12.45312,-1.61719 -22.11719,-13.16797 -24.85937,-24.70313 -4.24219,-16.44922 0.61718,-37.29297 -15.8086,-47.87891 -2.5039,2.01954 0.0898,4.94141 0.13281,7.48047 -3.89843,11.22657 -3.80468,24.78125 3.28907,34.54297 l 0.82031,6.76563 c -15.54688,-1 -29.99219,-11.19922 -38.41406,-24.46875 -4.84766,-10.64844 -5.81641,-25.60157 -2.62891,-37.23828 -0.72656,-1.25782 -2.26562,-0.38282 -3.39844,-0.64844 -14.54687,16.07422 -0.23047,43.5039 -13.92187,59.98437 -3.41406,6.69532 -27.51172,22.5625 -35.40625,23.40625 14.12109,-21.17968 2.11719,-54.36328 13.96094,-86.72265 -0.48047,-3.24219 1.0039,-7.22266 -1.4375,-9.57813 -9.40235,11.46094 -13.66407,26.08203 -18.9375,39.73047 -3.17188,4.15234 -8.5586,3.11719 -12.17578,6.28516 -6.558599,12.54687 -18.64063,24.33593 -31.289067,27.66406 2.148437,-6.25391 3.398437,-15.45313 3.5625,-22.375 2.628906,-19.25781 -7.28125,-36.73438 -2.21875,-54.19141 3.128906,-14.88672 19.859375,-11.08203 26.738277,-21.51172 -4.453121,-4.30078 -11.656246,-4.3164 -17.753902,-5.76562 -21.75,-0.18359 -44.890625,14.88281 -62.820313,23.38672 -2.714844,-27.59766 45.414063,-65.8711 41.722656,-67.07813 -11.347656,-2.91015 -23.664062,-12.72265 -28.238281,-23.9414 8.574219,-2.40625 16.226563,-0.70313 22.894531,-7.17578 5.425782,-4.75391 8.859375,-10.17969 12.007813,-15.88672 -2.179688,-3.49219 -4.210938,1.48828 -6.765625,0.82422 -17.738281,3.13281 -33.835938,-4.77344 -44.390625,-18.85547 L 19.375,249.57422 c 11.421875,-1.04688 27.796875,6.71875 37.214844,-4.03906 11.113281,-10.50391 15.753906,-27.67188 31.207031,-32.46094 1.378906,-2.00391 4.886719,-3.19141 3.984375,-6.14453 -3.746094,-4.59375 -5.59375,2.92578 -8.6875,3.54297 -19.703125,4.15625 -28.738281,28.46484 -49.625,29.39453 -1.84375,-8.72657 7.511719,-14.67578 9.773438,-22.625 3.609375,-19.83594 17.796875,-40.27735 36.988281,-49.3711 C 71.316406,142.75 78.527344,118.89844 77.632813,91.941406 76.410156,78.542969 67.6875,64.292969 54.066406,60.574219 44.3125,60.179688 35.921875,56.9375 27.394531,53.554688 28.335938,51 32.90625,53.882813 32.132813,50.085938 c -2.425782,-1.371094 -5.296875,-4.144532 -6.175782,-5.96875 1.5,-3.128907 4.09375,-0.06641 6.070313,-0.105469 1.804687,-1.726563 -0.480469,-3.238281 -0.789063,-4.785156 l 5.492188,-0.800782 c 1.097656,-1.859375 -1.898438,-3.5 -2.917969,-5.316406 C 32.960938,32.699219 33.226563,31.847656 33.210938,31 c 7.632812,0.289063 9.910156,9.429688 16.464843,12.703125 l 1.953125,-1.445312 C 47.851563,36.394531 37.027344,31.074219 39.117188,21.433594 c 6.109375,2.152344 11.191406,9.972656 17.191406,13.964844 6.617187,6.945312 18.984375,3.480468 27.152344,2.207031 22.417972,-2.085938 44.910152,-0.07813 61.273432,15.171875 19.11329,18.875 44.16407,30.15625 70.14844,21.9375 14.05469,-4.058594 22.05469,9.359375 36.07031,3.324219 8.69141,-3.824219 22.23438,-4.625 31.0625,-0.542969 37.25782,6.832031 54.94532,-31.605469 86.17188,-38.785156 26.17969,-5.117188 56.15625,-2.957032 77.47656,12.910156 9.32813,-20.261719 22.4336,-30.140625 38.98047,-28.734375 2.55859,0.941406 -0.043,11.859375 -0.0156,13.414062 -7.04688,2.117188 -18.34375,4.941407 -26.88282,11.71875 2.125,0.386719 27.02735,-5.132812 27.02735,-5.132812 -1.125,0.304687 -4.20703,1.769531 -3.88672,4.023437 1.86328,1.519532 6.63281,-0.257812 9.48437,1.246094 -1.375,2.140625 -5.76953,1.230469 -6.70703,4.210938 2.46094,3.347656 11.53125,5.167968 11.53125,5.167968 -1.38281,1.71875 -3.16015,5.136719 -0.44531,6.785157 2.60937,3.90625 9.48828,1.53125 10.26953,5.894531"
         id="path4" />
      <path
         style="fill:#1e170f;fill-opacity:1;fill-rule:evenodd;stroke:none"
         d="m 458.67578,60.855469 c 0.125,-0.992188 -1.15234,-1.390625 -0.75,-2.671875 8.62109,0.414062 18.66016,1.226562 26.63672,5.042969 1.55469,0.253906 3.79687,-0.914063 4.67969,1.1875 -10.26172,2.722656 -19.02344,-5.738282 -30.56641,-3.558594"
         id="path6" />
      <path
         style="fill:#1e170f;fill-opacity:1;fill-rule:evenodd;stroke:none"
         d="m 483.03125,56.476563 c -7.21094,-0.582032 -14.31641,-3.140625 -21.76563,-1.035157 -2.76953,-4.75 4.30079,-4.308593 6.07813,-7.589843 1.55078,7.742187 12.35547,3.878906 15.6875,8.625"
         id="path8" />
      <path
         style="fill:#1e170f;fill-opacity:1;fill-rule:evenodd;stroke:none"
         d="m 408.86328,79.378906 c -11.1875,14.316407 -0.75,37.859374 -18.0625,49.179684 0.73828,1.82032 -1.38281,1.85547 -2.07031,2.71485 4.28906,11.22656 5.5,23.77343 12.875,33.67187 -0.25391,1.69922 0.76953,3.80078 -1.32813,4.82422 -13.86718,-9.64062 -5.54297,-34.21875 -26.38672,-38.94141 -8.40234,-4.23046 -16.40234,-9.45703 -23.99609,-15.82031 -25.01172,-0.55468 -42.70312,-24.124997 -62.42969,-37.902341 l 9.45703,-0.167969 c 7.41407,12.300781 22.35547,15.726563 31.71875,26.29688 10.87891,0.23437 15.58204,-13.54688 24.69532,-17.378911 16.61328,-11.023438 35,-17.558594 51.76562,-28.019531 -3.99609,-2.191407 -9.91406,-1.382813 -14.27344,-0.457032 -19.5664,11.640625 -42.08593,16.269532 -60.47265,30.855469 -1.13281,-0.40625 -2.02344,-2.789062 -0.77344,-4.082031 15.42969,-13.96875 37.34375,-12.796875 52.48047,-27.328125 9.55078,-2.847656 20.64844,-6.433594 31.15625,-3.226563 0.38281,5.925782 6.78516,8.496094 11.52734,5.167969 3.08985,-1.042969 5.58594,-3.628906 9.41407,-2.847656 -4.60938,11.09375 -19.85547,11.503906 -25.29688,23.460937"
         id="path10" />
      <path
         style="fill:#fad105;fill-opacity:1;fill-rule:evenodd;stroke:none"
         d="m 398.51562,109.35547 c -3.50781,1.47266 -8.43359,2.41016 -9.34375,6.94531 -1.79296,2.42969 -6.14453,3.77735 -9.41796,2.28125 -2.00782,-1.66015 -3.44922,-3.47265 -2.78907,-6.02344 8.8711,-1.42578 9.39063,-12.16796 16.64453,-17.238277 1.00391,-7.078125 4.54297,-14.765625 11.12891,-17.847657 l 2.11719,-0.03516 c -7.76953,8.042969 -6.83985,20.738281 -8.33985,31.917974"
         id="path12" />
      <path
         style="fill:none;stroke:#fad105;stroke-width:8;stroke-linecap:butt;stroke-linejoin:miter;stroke-miterlimit:3.8637;stroke-opacity:1"
         d="m 3985.1563,3993.7453 c -35.0782,-14.7265 -84.336,-24.1015 -93.4375,-69.4531 -17.9297,-24.2969 -61.4454,-37.7734 -94.1797,-22.8125 -20.0782,16.6016 -34.4922,34.7266 -27.8907,60.2344 88.711,14.2578 93.9063,121.6797 166.4454,172.3828 10.039,70.7812 45.4296,147.6562 111.289,178.4765 l 21.1719,0.3516 c -77.6953,-80.4297 -68.3984,-207.3828 -83.3984,-319.1797 z m 0,0"
         transform="matrix(0.1,0,0,-0.1,0,508.73)"
         id="path14" />
      <path
         style="fill:#1e170f;fill-opacity:1;fill-rule:evenodd;stroke:none"
         d="m 396.63281,308.79687 c -6.36328,-0.3125 -4.2539,-8.96093 -7.71094,-12.85937 -5.50781,-7.94922 -14.80859,-15.13281 -11.33593,-26.20703 -6.14453,-4.26953 -12.42578,-7.97266 -19.78907,-9.1211 -3.99218,5.86329 -5.14062,12.94141 -9.84375,18.53125 13.98438,8.09375 30.28125,19.52735 39.86329,34.46875 -5.79688,-0.46093 -10.17579,-8.57421 -15.74219,-11.86718 -8.73047,-6.76953 -18.59375,-13.51563 -28.83594,-17.85547 -3.625,2.74609 -6.33203,9.57422 -11.32031,6.97656 -1.46875,-3.22266 3.57422,-5.71484 4.50781,-8.83203 -17.0625,-6.625 -36.40234,-14.19531 -54.98437,-10.62109 0.85156,-7.92579 15.42578,-6.34375 15.42578,-6.34375 2.09375,-2.83985 3.79687,-1.0586 6.0625,-0.8125 -0.83985,0.71875 -0.96094,1.85156 -1.22657,2.70312 12.88672,2.03516 24.95704,5.92188 37.44141,8.95313 3.29297,-5.42579 4.59766,-11.51954 5.76172,-17.75391 -12.30859,-1.33984 -25.32422,-2.52344 -38.00391,-0.75 10.09375,3.91797 21.8086,3.42969 31.36719,8.91406 l 0.0391,2.11719 c -3.78515,1.76172 -6.55078,-3.13281 -10.22656,-3.21094 -13.55078,0.51953 -25.94922,-6.04297 -39.42578,-1.42578 -1.22266,-5.34766 -7.47656,0.41016 -8.14063,-5.23047 -0.0469,-2.67969 2.6836,-8.09375 -2.26953,-8.71484 -1.84765,-0.39063 -4.11718,-1.19922 -4.72265,-3.30469 0.125,-1.13281 -0.60938,-2.67187 0.64843,-3.40234 10.85547,6.87109 19.21485,-7.53516 30.36329,-8.01563 9.1289,-2.84375 19.57812,-2.88281 27.52734,-8.67187 1.49219,-3.55469 -3.99219,-2.33203 -2.08203,-6.03516 6.66797,1.71875 10.76562,9.83984 19.05078,7.15234 1.54687,-8.5 -6.46875,-14.57421 -10.54297,-21.5664 3.09766,-0.47656 4.43359,3.17187 6.84766,3.98047 3.2539,-7.82813 -5.86328,-12.1875 -5.70703,-19.53125 3.78515,-1.6211 5.98046,2.85937 8.77343,1.11718 0.46485,2.25 2.86328,2.20704 4.15625,3.31641 0.51953,-2.55078 -2.63672,-5.46094 -3.54297,-8.69531 -3.33203,-4.7461 -9.71484,-6.32813 -11.08203,-11.95313 15.76953,5.375 23.83594,22.46485 27.19922,37.375 l 0.30078,16.94141 c 7.77735,0.71094 15.20313,5.38281 19.82422,11.23437 -7.26562,-3.6875 -15.07422,-5.94921 -23.82422,-5.65625 -1.93359,2.57422 -5.51172,8.00391 -8.8164,4.8125 l -0.57032,-0.55468 c 1.20313,4.21484 3.14063,9.97265 3.65625,15.47265 7.54297,3.25782 15.89844,4.52344 22.4961,10.48047 0.73828,-6.36719 -3.73828,-12.07812 -7.08594,-17.52734 0.41016,-0.9961 2.24219,-1.02735 2.68359,-0.0469 5.3086,4.56641 7.52735,10.46094 10.44922,16.0586 1.41407,0.2539 2.53907,-0.1875 3.36719,-1.33203 -0.35937,-4.51172 -1.84375,-8.58204 -4.30859,-12.21094 l 4.10937,0.63672 c 9.16406,15.51172 -0.0703,36.43359 9.09766,52.08984 l 0.12109,6.77734"
         id="path16" />
      <path
         style="fill:#fad105;fill-opacity:1;fill-rule:evenodd;stroke:none"
         d="m 384.60156,129.37109 c -15.28125,-1.57031 -23.93359,-19.77734 -39.61719,-20.35156 l -2.02343,-2.64844 c 5.11328,-6.30078 11.20312,-13.468746 18.64453,-15.999996 2.80078,6.871094 -11.41797,9.378906 -6.48047,17.058596 2.46875,3.77344 5.88281,5.26562 9.57812,6.61328 3.26172,0.64844 5.34375,-1.22266 8.16407,-1.41406 -0.0664,4.23828 2.40234,8.00781 6.25,10.05859 l 11.5664,-0.90625 c -1.36328,2.84766 -3.0039,5.98047 -6.08203,7.58984"
         id="path18" />
      <path
         style="fill:none;stroke:#fad105;stroke-width:8;stroke-linecap:butt;stroke-linejoin:miter;stroke-miterlimit:3.8637;stroke-opacity:1"
         d="m 3846.0156,3793.5891 c -152.8125,15.7031 -239.3359,197.7734 -396.1718,203.5156 l -20.2344,26.4844 c 51.1328,63.0078 112.0312,134.6875 186.4453,160 28.0078,-68.711 -114.1797,-93.7891 -64.8047,-170.586 24.6875,-37.7343 58.8281,-52.6562 95.7813,-66.1328 32.6171,-6.4844 53.4375,12.2266 81.6406,14.1406 -0.6641,-42.3828 24.0234,-80.0781 62.5,-100.5859 l 115.664,9.0625 c -13.6328,-28.4766 -30.039,-59.8047 -60.8203,-75.8984 z m 0,0"
         transform="matrix(0.1,0,0,-0.1,0,508.73)"
         id="path20" />
      <path
         style="fill:#fad105;fill-opacity:1;fill-rule:evenodd;stroke:none"
         d="m 387.29687,283.82031 c -3.27734,-1.63281 -3.29687,-2.76172 -4.07031,-6.70312 0.95313,-2.13282 1.96875,-0.46094 3.38672,-0.0586 0.74219,2.10157 2.34375,4.61719 0.68359,6.76172"
         id="path22" />
      <path
         style="fill:none;stroke:#fad105;stroke-width:8;stroke-linecap:butt;stroke-linejoin:miter;stroke-miterlimit:3.8637;stroke-opacity:1"
         d="m 3872.9688,2249.0969 c -32.7735,16.3281 -32.9688,27.6172 -40.7032,67.0312 9.5313,21.3282 19.6875,4.6094 33.8672,0.586 7.4219,-21.0157 23.4375,-46.1719 6.836,-67.6172 z m 0,0"
         transform="matrix(0.1,0,0,-0.1,0,508.73)"
         id="path24" />
      <path
         style="fill:#fad105;fill-opacity:1;fill-rule:evenodd;stroke:none"
         d="m 376.59766,91.519531 c -1.23829,2 -3.35547,2.179688 -5.47266,2.074219 -0.92969,-4.644531 0.53516,-9.613281 5.31641,-10.964844 l 4.64843,-0.648437 c 1.48828,4.355469 -6.1289,4.769531 -4.49218,9.539062"
         id="path26" />
      <path
         style="fill:none;stroke:#fad105;stroke-width:8;stroke-linecap:butt;stroke-linejoin:miter;stroke-miterlimit:3.8637;stroke-opacity:1"
         d="m 3765.9766,4172.1047 c -12.3828,-20 -33.5547,-21.7969 -54.7266,-20.7422 -9.2969,46.4453 5.3516,96.1328 53.1641,109.6484 l 46.4843,6.4844 c 14.8829,-43.5547 -61.289,-47.6953 -44.9218,-95.3906 z m 0,0"
         transform="matrix(0.1,0,0,-0.1,0,508.73)"
         id="path28" />
      <path
         style="fill:#1e170f;fill-opacity:1;fill-rule:nonzero;stroke:none"
         d="m 361.75781,333.69531 c -0.15625,-1.125 0.51953,-2.6914 -0.76562,-3.375 -3.11328,-0.36719 -2.20313,3.28906 -3.30469,4.86328 3.82812,8.82813 3.29687,18.72266 2.60156,27.77735 -3.05469,-5.32032 -2.10937,-16.07032 -9.19922,-17.4961 -2.70703,6.54297 -7.55468,12.13672 -12.53906,17.8711 1.89063,-4.83594 3.99609,-13.91016 1.05469,-20.35547 -6.92578,7.46875 -9.30078,17.25 -16.52344,24.01562 -0.5,-4.22656 6.22266,-7.45312 1.77344,-11.61328 -6.38672,6.1875 -12.78516,9.6836 -20.78906,12.22656 -18.64454,-0.24218 -35.02735,2.3086 -51.50782,-3.48046 -18.13672,-3.49219 -36.13281,1.05859 -51.41406,7.67968 -13.77344,3.62891 -25.32422,-2.52343 -38.04687,-3.42968 -5.82422,-1.87891 -7.35938,-8.91016 -13.07422,-12.625 -0.0391,-2.26172 -2.48828,-5.03907 -4.22266,-7.41016 -3.82031,-16.59766 -3.54687,-33.26953 3.94922,-48.79297 5.98047,-13.51953 20.32422,-0.63672 31.70703,-3.94141 26.21875,5.19141 38.52734,-25.8125 64.08203,-18.0664 23.17969,9.19922 46.39844,28.70312 74.13672,15.65234 9.76172,9.15235 10.97656,22.1211 12.1875,34.94922 2.41016,0.52344 2.21875,-2.29297 3.32813,-3.44531 -0.13282,-7.625 2.95312,-11.64063 -2.33985,-27.87891 3.17578,6 5.42188,10.17188 5.42188,10.17188 1.36328,-2.70703 -1.66016,-14.09375 -1.66016,-14.09375 1.69531,-0.0274 4.61719,5.57031 6.91797,7.92968 l 0.53125,-10.17578 c 9.96484,10.40625 1.67969,23.55078 14.08203,30.25782 2.53906,-8.37891 -4.48437,-14.1875 -6.44531,-21.4961 19.73828,6.29688 9.85156,30.33203 17.71875,44.32031 -3.53516,-0.22265 -6.45703,-5.96484 -7.66016,-10.03906"
         id="path30" />
      <path
         style="fill:#fad105;fill-opacity:1;fill-rule:nonzero;stroke:none"
         d="m 359.10156,221.89453 c -0.55859,0.29297 -0.85547,-0.26562 -1.28125,-0.54297 l 0.0352,1.97656 c -5.22656,-8.09765 -6.4336,-20.64453 -12.76953,-27.59765 5.09765,0.75781 8.70312,5.07422 11.03906,9.26953 2.05078,4.33984 2.02734,11.26172 2.97656,16.89453"
         id="path32" />
      <path
         style="fill:none;stroke:#fad105;stroke-width:8;stroke-linecap:butt;stroke-linejoin:miter;stroke-miterlimit:3.8637;stroke-opacity:1"
         d="m 3591.0156,2868.3547 c -5.5859,-2.9297 -8.5547,2.6562 -12.8125,5.4297 l 0.3516,-19.7656 c -52.2656,80.9765 -64.3359,206.4453 -127.6953,275.9765 50.9765,-7.5781 87.0312,-50.7422 110.3906,-92.6953 20.5078,-43.3984 20.2734,-112.6172 29.7656,-168.9453 z m 0,0"
         transform="matrix(0.1,0,0,-0.1,0,508.73)"
         id="path34" />
      <path
         style="fill:#fad105;fill-opacity:1;fill-rule:nonzero;stroke:none"
         d="m 351.33984,238.41016 c -1.16406,-1.8125 -2.32422,-3.62891 -3.48437,-5.44532 3.72265,-5.00781 4.99219,2.87891 3.48437,5.44532"
         id="path36" />
      <path
         style="fill:none;stroke:#fad105;stroke-width:8;stroke-linecap:butt;stroke-linejoin:miter;stroke-miterlimit:3.8637;stroke-opacity:1"
         d="m 3513.3984,2703.1984 c -11.6406,18.125 -23.2421,36.2891 -34.8437,54.4532 37.2266,50.0781 49.9219,-28.7891 34.8437,-54.4532 z m 0,0"
         transform="matrix(0.1,0,0,-0.1,0,508.73)"
         id="path38" />
      <path
         style="fill:#fad105;fill-opacity:1;fill-rule:evenodd;stroke:none"
         d="m 348.32422,340.71094 c -1.56641,-8.8711 -6.21875,-16.55469 -1.71875,-25.67188 6.78125,0.0195 3.67187,8.125 5.57422,12.04688 -0.47657,4.95312 -1.10157,9.625 -3.85547,13.625"
         id="path40" />
      <path
         style="fill:none;stroke:#fad105;stroke-width:8;stroke-linecap:butt;stroke-linejoin:miter;stroke-miterlimit:3.8637;stroke-opacity:1"
         d="m 3483.2422,1680.1906 c -15.6641,88.711 -62.1875,165.5469 -17.1875,256.7188 67.8125,-0.1953 36.7187,-81.25 55.7422,-120.4688 -4.7656,-49.5312 -11.0156,-96.25 -38.5547,-136.25 z m 0,0"
         transform="matrix(0.1,0,0,-0.1,0,508.73)"
         id="path42" />
      <path
         style="fill:#fad105;fill-opacity:1;fill-rule:evenodd;stroke:none"
         d="m 308.23437,252.72266 0.46485,-5.51563 c 9.72656,-1.15625 21.58594,-1.36719 30.49609,-0.53125 l 1.39063,-1.29687 c -9.71485,-6.32813 -23.51953,-4.39063 -35.36719,-3.48047 l -1.30859,-2.09375 c 9.78515,-5.82032 22.0664,-6.03516 33.76562,-7.36719 4.62109,5.70703 8.25391,11.71875 7.82813,19.63281 l -37.26954,0.65235"
         id="path44" />
      <path
         style="fill:none;stroke:#fad105;stroke-width:8;stroke-linecap:butt;stroke-linejoin:miter;stroke-miterlimit:3.8637;stroke-opacity:1"
         d="m 3082.3438,2560.0734 4.6484,55.1563 c 97.2656,11.5625 215.8594,13.6719 304.9609,5.3125 l 13.9063,12.9687 c -97.1485,63.2813 -235.1953,43.9063 -353.6719,34.8047 l -13.0859,20.9375 c 97.8515,58.2032 220.664,60.3516 337.6562,73.6719 46.211,-57.0703 82.5391,-117.1875 78.2813,-196.3281 z m 0,0"
         transform="matrix(0.1,0,0,-0.1,0,508.73)"
         id="path46" />
      <path
         style="fill:#1e170f;fill-opacity:1;fill-rule:evenodd;stroke:none"
         d="m 327.625,166.23828 9.64453,2.51172 c -2.77734,2.59375 -7.60937,0.83984 -10.88281,-0.51563 -2.9375,-6.58593 -6.07031,-0.0352 -9.44531,0.8711 -0.625,4.67187 -7.49219,7.75781 -5.9961,12.39453 -6.05469,9.28516 -17.19922,9.90234 -22.70703,17.90625 7.92578,0.99219 14.89844,-4.21484 22.33984,-6.46094 1.14063,0.54297 0.45704,1.82422 0.61329,2.67188 -6.57032,3.78515 -13.4336,7.15234 -21.46875,7.85937 -3.84375,6.5625 -12.20313,5.01172 -18.28516,4.41406 -1.28516,-0.68359 -3.6875,-0.92578 -2.74219,-3.33984 4.11328,0.91406 7.64063,0.85156 10.8711,-0.19141 1.24609,-1.57421 1.625,-3.98046 3.30859,-4.85937 -4.69141,-1.61328 -10.05859,0.9375 -14.48438,-1.66797 -1.59375,-2.37109 -3.61718,-5.02344 -6.8789,-5.95312 -0.86719,-1.11329 -3.53906,-0.36329 -2.73047,-2.63672 9.53125,-3.83594 8.66797,-15.60157 18.06641,-19.4375 4.46484,-2.90235 2.82031,-8.23828 6.01171,-11.54297 3.625,13.49609 19.57813,5.16797 29.23438,8.24609 9.00781,-1.85156 16.36328,-9.32422 24.22266,-12.0039 0.32812,2.67968 -4.57032,5.30468 -7.36329,6.90625 l 12.15235,0.49609 c -1.45703,5.53516 -9.8711,0.87891 -13.48047,4.33203"
         id="path48" />
      <path
         style="fill:#1e170f;fill-opacity:1;fill-rule:evenodd;stroke:none"
         d="m 333.03516,120.10156 c -5.50391,0.37891 -11.29297,0.48047 -13.65235,-5.26562 0.84375,-0.44141 0.54297,-1.28125 0.53125,-1.98828 5.26563,2.16797 11.94531,4.875 17.67969,1.66797 0.0469,2.54296 -2.16406,5.26171 -4.55859,5.58593"
         id="path50" />
      <path
         style="fill:#1e170f;fill-opacity:1;fill-rule:evenodd;stroke:none"
         d="m 315.22266,386.05859 c -7.54297,4.9336 -19.20313,8.38282 -27.76563,3.16797 -7.06641,-0.30469 -12.36719,3.46094 -18.84766,4.42188 1.30469,-6.09375 9.32422,-7.78907 14.80079,-9.71875 6.07812,0.3164 12.22656,4.72656 18.23437,1.09375 -13.75391,-11.48438 -34.16406,0.59765 -49.54297,-6.6211 -6.32422,1.8086 -12.32031,6.28907 -19.5625,3.73438 -4.63672,1.49219 -1.19922,-4.07813 -4.88672,-4.71875 -25.125,8.91015 -65.3125,10.26172 -86.13281,-9.28906 l 5.35156,1.23828 c 29.89453,21.50781 67.77344,-0.90235 102.50391,6.39843 13.58984,2.02344 30.02734,-2.92187 41.99609,3.22266 7.86328,-2.67969 13.22266,4.85547 19.64844,1.06641 6.04688,-1.51172 11.4375,-8.2461 16.8125,-7.77344 -2.01953,5.54297 -7.72266,10.58203 -12.60937,13.77734"
         id="path52" />
      <path
         style="fill:#ffffff;fill-opacity:1;fill-rule:evenodd;stroke:none"
         d="m 300.28125,185.63672 c 0.89844,-5.37891 -2.41406,-8.9961 -3.625,-13.49219 l 20.6875,-1.57812 c -2.14453,6.53515 -11.04297,11.85937 -17.0625,15.07031"
         id="path54" />
      <path
         style="fill:#ffffff;fill-opacity:1;fill-rule:evenodd;stroke:none"
         d="m 282.56641,335.78906 c -2.99219,-1.5039 -0.35157,-4.09375 -0.10157,-6.07031 4.52735,-7.57031 7.0625,-15.94531 7.60547,-25.27344 l 2.07031,-2.71875 c 6.50391,0.3125 14.1875,-4.34375 19.64844,1.06641 -4.0039,13.20703 -13.57812,30.88281 -29.22265,32.99609"
         id="path56" />
      <path
         style="fill:#ffffff;fill-opacity:1;fill-rule:evenodd;stroke:none"
         d="m 295.26953,369.08203 c -6.5,-0.0273 -13.40234,-0.66016 -18.41406,-4.66797 7.66406,-5.78125 18.76562,-9.08203 24.10156,-18.78125 5.19531,-1.78515 7.02734,6.09375 11.01563,8 -1.84375,7.65625 -10.10938,13.21485 -16.70313,15.44922"
         id="path58" />
      <path
         style="fill:#fad105;fill-opacity:1;fill-rule:evenodd;stroke:none"
         d="m 302.73828,253.38281 c -3.95312,0.21094 -10.01953,0.45703 -10.91797,-2.49219 -2.14062,-1.23437 -2.07812,2.4375 -4.625,2.19922 3.15235,-5.5625 10.78125,-5.41406 16.15625,-5.08203 l -0.61328,5.375"
         id="path60" />
      <path
         style="fill:none;stroke:#fad105;stroke-width:8;stroke-linecap:butt;stroke-linejoin:miter;stroke-miterlimit:3.8637;stroke-opacity:1"
         d="m 3027.3828,2553.4719 c -39.5312,-2.1094 -100.1953,-4.5703 -109.1797,24.9219 -21.4062,12.3437 -20.7812,-24.375 -46.25,-21.9922 31.5235,55.625 107.8125,54.1406 161.5625,50.8203 z m 0,0"
         transform="matrix(0.1,0,0,-0.1,0,508.73)"
         id="path62" />
      <path
         style="fill:#fad105;fill-opacity:1;fill-rule:evenodd;stroke:none"
         d="m 294.08203,259.03906 -0.71875,-0.6914 c 1.94922,-1.30469 6.76953,-0.54297 8.73828,-0.85938 -0.8164,1.71094 -6.5,-0.30859 -8.01953,1.55078"
         id="path64" />
      <path
         style="fill:none;stroke:#fad105;stroke-width:8;stroke-linecap:butt;stroke-linejoin:miter;stroke-miterlimit:3.8637;stroke-opacity:1"
         d="m 2940.8203,2496.9094 -7.1875,6.914 c 19.4922,13.0469 67.6953,5.4297 87.3828,8.5938 -8.164,-17.1094 -65,3.0859 -80.1953,-15.5078 z m 0,0"
         transform="matrix(0.1,0,0,-0.1,0,508.73)"
         id="path66" />
      <path
         style="fill:#1e170f;fill-opacity:1;fill-rule:evenodd;stroke:none"
         d="m 298.54297,280.00781 c -1.70703,-0.67969 -0.74219,-1.96875 -0.0625,-3.39062 l -0.0117,-0.70703 c 1.6875,-0.59375 2.97266,0.51562 3.42578,1.92187 0.60156,2.10547 -2.08984,1.72656 -3.35156,2.17578"
         id="path68" />
      <path
         style="fill:#fad105;fill-opacity:1;fill-rule:nonzero;stroke:none"
         d="m 287.10156,247.58594 c 2.90625,-3.30078 8.66797,-4.95313 12.76563,-4.88672 -4.64844,0.64844 -8.11719,4.23828 -12.76563,4.88672"
         id="path70" />
      <path
         style="fill:none;stroke:#fad105;stroke-width:8;stroke-linecap:butt;stroke-linejoin:miter;stroke-miterlimit:3.8637;stroke-opacity:1"
         d="m 2871.0156,2611.4406 c 29.0625,33.0078 86.6797,49.5313 127.6563,48.8672 -46.4844,-6.4844 -81.1719,-42.3828 -127.6563,-48.8672 z m 0,0"
         transform="matrix(0.1,0,0,-0.1,0,508.73)"
         id="path72" />
      <path
         style="fill:#1e170f;fill-opacity:1;fill-rule:evenodd;stroke:none"
         d="m 297.30859,290.19531 c -0.98828,0.16016 -1.42968,-0.96094 -2,-1.3789 l -0.0351,-1.97266 c 2.51172,-1.45703 3.42578,2.05859 2.03515,3.35156"
         id="path74" />
      <path
         style="fill:#1e170f;fill-opacity:1;fill-rule:evenodd;stroke:none"
         d="m 293.76562,281.35937 c -0.5625,0.29297 -0.99609,-0.26171 -1.42578,-0.67968 l -0.0351,-1.98047 c 1.96484,-0.87891 2.85547,1.78906 1.46093,2.66015"
         id="path76" />
      <path
         style="fill:#1e170f;fill-opacity:1;fill-rule:evenodd;stroke:none"
         d="m 245.30078,110.05469 c -14.54687,-0.0273 -27.72266,-10.390627 -42.71094,-3.35156 l -2.67968,0.0508 c -0.0742,-4.09766 5.30078,-3.625 7.94921,-5.50782 19.125,-4.710934 34.59766,7.8711 53.6875,1.03907 10.74219,0.51953 20.39454,3.59765 29.2461,8.94922 -14.67969,0.54296 -30.51953,-8.92579 -45.49219,-1.17969"
         id="path78" />
      <path
         style="fill:#ffffff;fill-opacity:1;fill-rule:evenodd;stroke:none"
         d="m 286.10937,190.6875 c -2.40625,-0.38281 -3.8789,-3.60547 -4.20312,-6 0.80469,-2.41406 2.44922,-5.55078 4.69531,-6.15234 1.75,3.07421 5.81641,9.64062 -0.49219,12.15234"
         id="path80" />
      <path
         style="fill:#1e170f;fill-opacity:1;fill-rule:evenodd;stroke:none"
         d="m 287.35156,148.58203 c -12.0625,-3.17969 -23.36328,4.78516 -30.95312,14.80469 -4.47266,2.75781 -10.71094,1.3125 -14.84375,-1.01563 l -0.0273,-1.41015 c 14.28516,1.30468 19.15625,-19.11719 34.32032,-16.13282 2.97656,0.79297 7.35546,0.85938 10.17187,0.38672 1.14453,0.82813 1.58984,2.08985 1.33203,3.36719"
         id="path82" />
      <path
         style="fill:#1e170f;fill-opacity:1;fill-rule:evenodd;stroke:none"
         d="m 288.20703,238.10156 c -0.85156,-0.26562 -2.10937,0.60156 -2.69531,-0.66015 l -0.0234,-1.26954 c 1.26953,-0.30468 3.53125,0.0781 2.71875,1.92969"
         id="path84" />
      <path
         style="fill:#1e170f;fill-opacity:1;fill-rule:evenodd;stroke:none"
         d="m 286.28125,281.49219 c -1.28516,-0.6836 -0.46484,-2.25391 -0.76563,-3.37891 l 0.69532,-0.71484 c 0.99218,0.40625 4.17578,4.72656 0.0703,4.09375"
         id="path86" />
      <path
         style="fill:#1e170f;fill-opacity:1;fill-rule:evenodd;stroke:none"
         d="m 287.14453,290.37109 c -0.71094,-0.125 -1.55469,0.17188 -1.99219,-0.66797 0.125,-0.99218 -0.60156,-2.25 0.51953,-2.69531 1.28125,0.6875 1.58594,1.95313 1.47266,3.36328"
         id="path88" />
      <path
         style="fill:#1e170f;fill-opacity:1;fill-rule:evenodd;stroke:none"
         d="m 280.91016,240.91406 c -0.84375,0.0156 -1.69141,0.17188 -2.12891,-0.66797 -0.45703,-1.97265 2.66016,-1.32031 3.32812,-3.44922 1.15625,1.39063 1.34375,4.21485 -1.19921,4.11719"
         id="path90" />
      <path
         style="fill:#1e170f;fill-opacity:1;fill-rule:evenodd;stroke:none"
         d="m 279.24609,266.78516 c -0.5625,0.14843 -0.99609,-0.40235 -1.28515,-0.67969 l -0.0352,-2.1211 1.97656,-0.0351 c -0.26562,0.99219 0.60157,2.25 -0.65625,2.83594"
         id="path92" />
      <path
         style="fill:#1e170f;fill-opacity:1;fill-rule:evenodd;stroke:none"
         d="m 275.66797,255.97266 -1.27344,0.0234 -0.0547,-3.38672 c 1.67969,-0.59765 4.27735,2.46485 1.32813,3.36329"
         id="path94" />
      <path
         style="fill:#ffffff;fill-opacity:1;fill-rule:evenodd;stroke:none"
         d="m 266.22266,195.10156 c -3.09375,0.47656 -4.57032,-3.02734 -6.85938,-4.67969 4.22656,-0.64062 9.16406,-3.52343 12.36719,-6.26171 -0.21875,3.67578 3.07031,6.01953 3.55078,9.39843 l -9.05859,1.54297"
         id="path96" />
      <path
         style="fill:#1e170f;fill-opacity:1;fill-rule:nonzero;stroke:none"
         d="m 274.89453,284.375 c -1.28125,-0.39844 -0.59766,-1.6875 -0.75391,-2.67188 2.79297,-1.74218 4.01563,3.60157 0.75391,2.67188"
         id="path98" />
      <path
         style="fill:#1e170f;fill-opacity:1;fill-rule:evenodd;stroke:none"
         d="m 273.11719,263.50391 c -0.86719,-1.11329 -0.75391,-2.67188 0.64453,-3.40235 l 1.98828,0.53125 c -0.83203,1.00391 -0.36328,3.53906 -2.63281,2.8711"
         id="path100" />
      <path
         style="fill:#1e170f;fill-opacity:1;fill-rule:nonzero;stroke:none"
         d="m 275.29297,274.90234 c -3.16016,-0.32031 -1.7461,-2.93359 -0.63672,-4.08203 1.57031,0.82031 3.48047,2.34766 0.63672,4.08203"
         id="path102" />
      <path
         style="fill:#1e170f;fill-opacity:1;fill-rule:evenodd;stroke:none"
         d="m 265.9375,240.46875 -0.082,-4.66016 c 2.88672,3.76172 5.75781,-1.79687 8.76172,0.55469 -0.9336,3.12109 -6.03516,2.08203 -8.67969,4.10547"
         id="path104" />
      <path
         style="fill:#ffffff;fill-opacity:1;fill-rule:evenodd;stroke:none"
         d="m 273.44141,363.0625 c -3.09766,0.47656 -5.53125,-1.31641 -8.09375,-2.54297 -3.19922,-5.30859 5.34375,-9.41797 8.52734,-13 l -0.43359,15.54297"
         id="path106" />
      <path
         style="fill:#1e170f;fill-opacity:1;fill-rule:evenodd;stroke:none"
         d="m 268.11328,252.01172 -1.97656,0.0312 c 0.39062,-1.98438 1.19531,-4.39844 4.03515,-3.45703 0.0234,1.41015 0.35157,4.08984 -2.05859,3.42578"
         id="path108" />
      <path
         style="fill:#1e170f;fill-opacity:1;fill-rule:evenodd;stroke:none"
         d="m 268.43359,270.36328 c -0.71875,-0.83594 -1.71875,-1.52344 -1.32031,-2.80078 l 3.37891,-0.62109 c 0.45312,1.68359 -0.65235,2.97265 -2.0586,3.42187"
         id="path110" />
      <path
         style="fill:#1e170f;fill-opacity:1;fill-rule:evenodd;stroke:none"
         d="m 265.17187,277.76172 c 0,0 -2.57031,-2.1211 -0.043,-2.67969 2.0625,-1.20703 2.83203,0.65625 2.83203,0.65625 -0.6836,1.28516 -0.66016,2.55469 -2.78907,2.02344"
         id="path112" />
      <path
         style="fill:#ffffff;fill-opacity:1;fill-rule:evenodd;stroke:none"
         d="m 257,311.23828 c -5.76563,-6.67969 -6.51953,-17.53906 -5.27344,-27.02734 2.87891,2.91797 22.50391,2.85547 14.53125,15.28125 -3.33203,3.16797 -6.92969,7.46875 -9.25781,11.74609"
         id="path114" />
      <path
         style="fill:#1e170f;fill-opacity:1;fill-rule:evenodd;stroke:none"
         d="m 261.32422,251.42187 c 0.25781,-1.41796 -2.28906,-1.65234 -1.32813,-3.36718 0.81641,-1.70703 2.51953,-1.3125 4.07032,-1.33985 2.16406,2.50391 -1.48829,3.83985 -2.74219,4.70703"
         id="path116" />
      <path
         style="fill:#1e170f;fill-opacity:1;fill-rule:evenodd;stroke:none"
         d="m 261.51562,262.29687 -0.5664,0.008 -0.0703,-4.09375 c 1.24218,-1.57422 3.66796,-0.20703 3.97656,1.34375 1.46875,3.07812 -2.08594,1.87109 -3.33985,2.74218"
         id="path118" />
      <path
         style="fill:#1e170f;fill-opacity:1;fill-rule:evenodd;stroke:none"
         d="m 250.93359,238.75391 c -0.62109,-3.37891 1.55469,-8.07813 -2.15234,-10.13282 -6.74219,2.23828 -14.01563,6.03516 -17.42578,13.15625 -2.73047,5.27344 -2.3086,13.17578 -5.06641,17.03516 -7.1875,0.83203 -0.39844,-6.76953 -3.5664,-10.10547 -0.42188,-8.04297 -11.65235,-12.22266 -10.51954,-20.15234 9.11719,-11.73828 27.63282,-10.9336 41.23438,-8.20313 3.55469,1.49219 8.42969,5.64063 5.54297,10.07031 -2.63281,2.8711 -3.96875,7.26954 -8.04688,8.33204"
         id="path120" />
      <path
         style="fill:#1e170f;fill-opacity:1;fill-rule:evenodd;stroke:none"
         d="m 246.67187,415.07422 c -8.27734,3.39453 0.0156,17.23047 -9.3164,16.40625 -1.81641,-6.75 1.28906,-14.85547 -5.72266,-20.23828 -5.22265,0.23047 -10.22265,-3.21094 -12.28125,-7.83594 -2.21094,-5.32813 -2.16406,-10.55469 -0.99219,-16.36328 2.54688,0.375 2.1836,3.77344 4.73047,4.01172 l 4.67969,-6.85938 c -0.12891,0.57031 -0.16406,6.78125 2.83984,8.84766 3.79297,-1.19922 3.69532,-6.70313 8.08204,-6.35547 0.47656,3.10156 1.40234,7.74219 5.49609,7.39062 3.81641,0.35547 3.55078,-6.5625 7.41016,-4.22656 0.34375,3.66406 -3.53125,8.25391 0.89453,10.85938 5.33593,-1.64844 4.92187,-9.26563 8.55078,-11.58985 1.91015,11.48438 -5.54297,22.12891 -14.3711,25.95313"
         id="path122" />
      <path
         style="fill:#1e170f;fill-opacity:1;fill-rule:evenodd;stroke:none"
         d="m 254.35156,272.58594 c -0.87109,-1.11328 -0.75,-2.67188 -0.77734,-4.07813 l 1.24609,-1.29687 c 2.53906,-0.1875 0.60938,2.53125 2.17969,3.35156 -0.83594,0.72266 -0.94141,2.84375 -2.64844,2.02344"
         id="path124" />
      <path
         style="fill:#1e170f;fill-opacity:1;fill-rule:evenodd;stroke:none"
         d="m 256.04297,256.31641 c -1.26172,0.44531 -1.98828,-0.67188 -2.70703,-1.36329 -0.73828,-1.82421 0.78906,-3.40234 2.63672,-2.73046 l 0.0703,4.09375"
         id="path126" />
      <path
         style="fill:#1e170f;fill-opacity:1;fill-rule:evenodd;stroke:none"
         d="m 251.08984,247.50781 c 2.67578,-0.32812 3.67578,0.35938 4.14063,2.75 l -4.07031,1.34375 -0.0703,-4.09375"
         id="path128" />
      <path
         style="fill:#1e170f;fill-opacity:1;fill-rule:evenodd;stroke:none"
         d="m 245.96094,261.15234 c -0.0352,-1.83593 -2.89844,-4.04297 0.625,-4.67187 0.4375,0.83984 1.27734,0.54297 1.98828,0.67187 -0.54297,1.28125 0.75,2.53125 2.15234,1.94141 -1.54297,0.73047 -2.21094,2.86328 -4.76562,2.05859"
         id="path130" />
      <path
         style="fill:#ffffff;fill-opacity:1;fill-rule:evenodd;stroke:none"
         d="m 244.94531,356.78125 c -1.18359,-3.08984 1.01563,-6.65625 2.51953,-9.50781 l 3.35157,-2.03516 c 0.49218,3.80469 2.10546,7.16406 1.61328,11.41016 l -7.48438,0.13281"
         id="path132" />
      <path
         style="fill:#1e170f;fill-opacity:1;fill-rule:evenodd;stroke:none"
         d="m 245.82812,253.8125 -0.71484,-0.69531 -0.69141,0.71875 c -1.53906,1.01562 -1.75781,-3.5 -0.65234,-4.78907 1.41797,0.11329 3.09766,-0.62109 3.41406,1.35157 0.44922,1.40625 -0.65625,2.83593 -1.35547,3.41406"
         id="path134" />
      <path
         style="fill:#1e170f;fill-opacity:1;fill-rule:evenodd;stroke:none"
         d="m 244.20703,274.17578 c 0.53516,-1.84375 1.0625,-3.97656 3.35156,-2.17578 l -0.64453,3.40234 -2.70703,-1.22656"
         id="path136" />
      <path
         style="fill:#ffffff;fill-opacity:1;fill-rule:evenodd;stroke:none"
         d="m 242.05859,312.76953 c -2.51562,1.45313 -5.53515,-1.60156 -6.84765,-3.97656 -0.72657,-9.16797 -7.49219,-16.53516 -5.1211,-26.32031 4.75,-3.04688 11.71875,-0.20704 17.64844,-0.3086 -0.66016,10.7461 -0.0391,21.89063 -5.67969,30.60547"
         id="path138" />
      <path
         style="fill:#1e170f;fill-opacity:1;fill-rule:evenodd;stroke:none"
         d="m 244.10156,267.96484 -0.0586,-3.39062 2.69531,0.66015 c 0.0234,1.55469 -0.50391,3.53907 -2.63672,2.73047"
         id="path140" />
      <path
         style="fill:#1e170f;fill-opacity:1;fill-rule:evenodd;stroke:none"
         d="m 237.79687,262.70703 -1.98046,0.0352 -0.043,-2.6836 c 1.09765,-1.85547 2.26562,0.38672 3.40234,0.64844 0.29297,0.84375 -0.25,2.12109 -1.37891,2"
         id="path142" />
      <path
         style="fill:#1e170f;fill-opacity:1;fill-rule:evenodd;stroke:none"
         d="m 237.37109,270.90625 c -1.69531,-0.11328 -2.14843,-1.9375 -2.17578,-3.35156 l 2.09375,-1.44922 2.02344,2.64844 -1.94141,2.15234"
         id="path144" />
      <path
         style="fill:#ffffff;fill-opacity:1;fill-rule:evenodd;stroke:none"
         d="m 229.25391,355.78125 c 1.33593,-4.26172 2.05078,-12.03906 7.24609,-13.67969 0.5,4.50781 2.125,8.57422 1.64844,13.52735 l -8.89453,0.15234"
         id="path146" />
      <path
         style="fill:#1e170f;fill-opacity:1;fill-rule:evenodd;stroke:none"
         d="m 229.31641,165.26953 c -2.95704,0.61719 -6.03516,2.22266 -7.37891,-1.98828 0.40234,-1.27734 -0.73828,-1.82422 -1.46094,-2.66016 -2.40234,-0.0977 -0.66015,2.55469 -1.91406,3.42578 l 0.57422,0.69532 -1.94922,1.44531 c -3.44922,-11.37891 -9.55859,-21.58203 -16.08984,-31.63672 l 1.24609,-1.43359 c 7.33203,7.21875 9.60937,16.5 15.39062,24.16406 l 1.94532,-2.01172 c -3.14844,-10.53516 -8.1211,-20.33594 -14.07422,-29.55078 l 1.38672,-1.4375 c 11.4375,7.99219 11.82422,21.96484 16.12109,33.61328 2.35938,-2.30078 -0.4375,-8.89062 5.375,-7.58203 2.33203,4.05469 4.56641,10.79687 0.82813,14.95703"
         id="path148" />
      <path
         style="fill:#1e170f;fill-opacity:1;fill-rule:evenodd;stroke:none"
         d="m 229.78125,264.82812 c -0.99219,-0.125 -2.24609,0.60157 -2.69141,-0.51953 l -0.0352,-2.12109 3.38672,-0.0547 c -0.26563,0.98828 0.60546,2.2461 -0.66016,2.69531"
         id="path150" />
      <path
         style="fill:#1e170f;fill-opacity:1;fill-rule:evenodd;stroke:none"
         d="m 225.83203,273.08594 -1.97656,0.0312 c -1.85547,-1.09375 0.38281,-2.26563 0.5039,-3.39453 1.55079,-0.17188 2.1211,0.10156 2.85157,1.36328 0.15234,0.84375 -0.2461,2.125 -1.37891,2"
         id="path152" />
      <path
         style="fill:#ffffff;fill-opacity:1;fill-rule:evenodd;stroke:none"
         d="m 221.10547,309.74609 c -4.32813,-5.15234 -7.41016,-11.875 -7.11719,-19.50781 3.32031,-3.87109 7.92578,-6.91797 12.75,-5.58984 0.16406,9.17578 -1.80859,17.54687 -5.63281,25.09765"
         id="path154" />
      <path
         style="fill:#1e170f;fill-opacity:1;fill-rule:evenodd;stroke:none"
         d="m 213,201.42578 c 0.76172,3.09375 5.82422,2.01563 4.90625,5.98828 -1.6875,0.44922 -3.37109,1.04688 -5.35156,0.80078 l 0.17578,10.16407 c -3.94531,0.49218 -3.7461,-4.45313 -5.625,-6.6836 -1.08203,-5.34765 1.92969,-12.36719 -0.25781,-16.42187 -4.66016,0.0781 -6.59766,2.375 -10.8086,3.57422 0.89844,3.23437 4.01953,5.48828 2.96485,9.60156 -7.17969,1.53906 -12.69922,0.92578 -19.09766,-1.64453 -0.59766,-1.96485 0.66797,-2.12891 2.07031,-2.71875 0.65235,-3.11719 -5.40234,-2.16407 -7.5664,-4.67188 -2.02735,-2.92969 -7.37891,-2.1289 -6.89454,-6.65625 4.23829,0.21094 9.54297,4.63672 14.33204,3.84375 -4.29297,-3.17187 -10.47657,-6.86328 -12.41407,-12.62109 -3.49218,-5.86719 -8.38281,-11.00781 -10.47265,-17.46485 -7.40235,-3.40625 -14.72266,3.34375 -21.61328,5.01954 l -1.4336,-1.2461 9.375,-4.96484 c -4.28125,-2.60547 -13.59375,6.02734 -12.88281,-1.75 3.79687,-1.0586 8.73828,-1 11.53125,-2.88672 -3.55859,-1.63281 -7.92578,-0.85156 -11.61719,-1.91406 4.1836,-3.17969 9.27735,-2.70313 14.23828,-1.51953 8.49219,9.17187 23.51563,4.10546 34.00391,6.18359 3.42187,1.91797 6.62109,-0.82031 9.42187,-2.28125 -2.51562,9.50391 13.19141,11.48828 12.53125,22.23437 l 3.4375,2.625 c 3.48829,-2.46484 7.48829,-7.75781 8.07032,-6.92187 -0.27344,0.57031 0.30078,0.98437 0.72656,1.26172 l 1.97656,-0.0391 c -0.64453,3.40234 -1.15234,6.80078 -1.79687,10.20312 l 6.12109,2.71484 c -2.10156,1.16797 -5.36328,0.37891 -7.44922,2.10938 2.29297,2.07812 5.94922,1.16797 8.2461,3.24609 -1.94141,2.00782 -5.89844,1.9375 -8.84766,2.83594"
         id="path156" />
      <path
         style="fill:#1e170f;fill-opacity:1;fill-rule:evenodd;stroke:none"
         d="m 217.41797,260.37891 c -0.41797,0.28906 -5.07813,0.0898 -3.44922,-3.32813 2.09766,-1.30859 1.32812,-4.82422 4.74219,-3.47266 2.71484,1.78907 1.07812,5.20704 -1.29297,6.80079"
         id="path158" />
      <path
         style="fill:#ffffff;fill-opacity:1;fill-rule:evenodd;stroke:none"
         d="m 213.81641,361.41797 -3.38672,0.0625 c 1.73828,-5.53906 1.03125,-13.71875 7.21093,-15.66016 3.05079,5.02735 7.0625,16.25391 -3.82421,15.59766"
         id="path160" />
      <path
         style="fill:#1e170f;fill-opacity:1;fill-rule:evenodd;stroke:none"
         d="m 216.3125,269.86328 c -1.69141,0.16797 -3.8125,0.0664 -4.12891,-1.90234 0.0977,-2.54688 1.5,-3.13672 4.04688,-2.89844 1.98828,0.80859 2.04687,4.05859 0.082,4.80078"
         id="path162" />
      <path
         style="fill:#1e170f;fill-opacity:1;fill-rule:evenodd;stroke:none"
         d="m 214.57031,250.96875 -2.70703,-1.36719 c 1.26563,-0.4414 0.0547,-4.9414 3.33203,-3.44531 1.72266,1.66406 1.1875,3.36719 -0.625,4.8125"
         id="path164" />
      <path
         style="fill:#1e170f;fill-opacity:1;fill-rule:evenodd;stroke:none"
         d="m 209.75391,169 c -3.25782,-8.55859 -9.36329,-18.33594 -18.04297,-22.14063 -1.32422,-3.08203 2.91797,-2.875 3.30468,-4.71484 10.66797,4.33203 13.29297,16.99609 16.85157,26.82031 L 209.75391,169"
         id="path166" />
      <path
         style="fill:#1e170f;fill-opacity:1;fill-rule:evenodd;stroke:none"
         d="m 211.03125,282.80469 c -2.38281,1.03125 -2.28516,-1.51563 -3.43359,-2.6211 0,0 1.34375,-4.1875 4.72656,-4.17968 1.5625,2.10937 1.23437,5.91015 -1.29297,6.80078"
         id="path168" />
      <path
         style="fill:#1e170f;fill-opacity:1;fill-rule:evenodd;stroke:none"
         d="m 205.75781,247.73047 c -1.43359,-1.38672 0.21875,-3.81641 1.90625,-4.125 2.53906,-0.0469 3.13281,1.5 2.75391,4.04687 l -4.66016,0.0781"
         id="path170" />
      <path
         style="fill:#1e170f;fill-opacity:1;fill-rule:nonzero;stroke:none"
         d="m 207.34766,265.92578 -1.26954,0.0195 c -1.8789,-2.36719 0.33594,-4.94922 0.57422,-7.49609 -2.0039,-1.51953 -3.44922,-3.32813 -2.92968,-6.01953 0.83593,-0.71875 1.52343,-1.72266 2.80078,-1.32032 2.57422,1.64844 0.21093,3.94922 0.10547,6.07032 l -0.69141,0.71875 c 1.73047,2.08593 5.10156,1.03906 4.74219,4.57812 -0.39453,1.84375 -1.50391,2.98828 -3.33203,3.44922"
         id="path172" />
      <path
         style="fill:#ffffff;fill-opacity:1;fill-rule:evenodd;stroke:none"
         d="m 209.57422,312.62891 c -8.03516,0.84375 -5.83203,-10.49219 -12.37891,-13.34375 3.21094,-2.17188 6.85156,-3.92969 10.65235,-4.84375 2.6289,5.17968 4.16796,12.49609 1.72656,18.1875"
         id="path174" />
      <path
         style="fill:#1e170f;fill-opacity:1;fill-rule:evenodd;stroke:none"
         d="m 206.19531,272.72266 c -2.32031,-3.35157 -4.80078,0.082 -7.51953,-1.84766 0.26563,-0.99219 -0.60156,-2.25 0.66406,-2.69531 l 1.97266,-0.0312 c 0.92969,4.64062 4.50781,-0.78516 6.8125,1.85547 0.60156,1.96484 -0.66797,2.13281 -1.92969,2.71875"
         id="path176" />
      <path
         style="fill:#ffffff;fill-opacity:1;fill-rule:evenodd;stroke:none"
         d="m 198.25781,198.03906 c 1.80078,-2.14844 1.28125,-7.10937 1.66016,-9.9414 l 6.42187,7.48046 c -1.91406,3.42188 -4.96875,2.69141 -8.08203,2.46094"
         id="path178" />
      <path
         style="fill:#1e170f;fill-opacity:1;fill-rule:evenodd;stroke:none"
         d="m 204.96875,242.94531 c -0.98438,0.29688 -1.42578,-0.82422 -2,-1.375 -1.66797,1.4375 -2.32813,4.13281 -2.02344,5.53906 -2.10547,0.7461 -4.21484,1.20313 -6.02344,2.78907 l 0.0234,1.41406 c -8.16015,1.69531 -11.71875,-8.12891 -18.53125,-9.84375 -5.69922,5.17969 5.19922,6.54687 6.41406,11.32422 1.34766,4.35547 4.7461,5 8.17579,7.34375 -3.3711,0.90234 -1.8711,5.82031 -1.125,8.21094 1.01562,1.53515 1.75,3.21484 3.46875,4.59765 -7.5586,3.94531 -8.9336,-1.96094 -16.41407,-1.6914 -8.44531,1.5625 -19.20703,-0.22657 -24.89453,5.80468 -0.51562,2.6875 0.92969,4.50391 1.39063,6.75391 -5.01563,3.89844 -8.28516,-5.50781 -12.97657,-7.25781 -9.83593,2.85547 -22.07812,5.46875 -26.1289,16.1289 -1.07813,3.125 -2.98828,6.69141 -1.23438,10.19141 6.55079,-5.05859 12.66016,-10.95313 19.50391,-15.3125 1.23828,6.19531 -4.69141,14.48828 -2.45703,21.08594 4.45312,-3.88672 4.45703,-11.80078 10.625,-14.44922 -2.8711,5.41797 -5.875,11.54297 -4.35156,17.73047 2.73046,-5.41407 4.60156,-11.37891 8.46875,-16.39063 -0.0625,4.52344 -4.76563,10.11328 -5.80079,15.63672 -3.10156,16.4375 -6.07812,40.07422 8.94922,51.39063 -10.20703,-2.22266 -16.625,-13.83204 -23.38281,-20.63282 -5.68359,5.89063 -9.66797,12.3125 -12.51172,19.28516 -5.78906,-8.09375 -1.46093,-18.90234 0.9375,-27.13281 l -2.85937,-2.07032 c -3.63281,2.46485 -0.41406,8.76563 -5.19922,9.55469 -2.64453,-5.60156 -1.08984,-13.82031 -1.75391,-19.60156 -3.03906,4.00781 -7.468747,9.17187 -10.50781,13.03516 0.839844,-8.625 5.089844,-15.90625 9.76172,-23.19141 -0.24609,-6.20703 2.62891,-11.33984 2.375,-17.69531 -4.5,1.07031 -10.109376,3.28515 -14.140626,7.02734 -1.703125,-0.53125 -1.292969,-1.39062 -0.753906,-2.66797 7.789062,-6.91406 18.640622,-8.23437 24.835942,-17.38281 8.76953,0.83594 15.40234,-7.46875 24.28515,-8.47266 0.37891,-2.40625 -0.66797,-5.77734 -2.26172,-8.15234 l -11.41015,1.61328 c 0.86328,-7.21875 16.07812,-1.26953 10.52734,-11.76562 l -0.0352,-1.97657 c -6.78906,-0.44531 -16.37109,0.71094 -23.67187,3.09766 -15.218751,10.15234 -25.246095,26 -29.054689,42.44922 -4.085937,-15.46094 2.699219,-31.25781 7.394532,-45.46094 C 93.304688,245.60156 99,239.99219 103.12891,233.84766 l 1.97656,-0.0352 c -3.28906,5.84766 -11.378907,11.5 -7.726564,18.49609 l 17.351564,-17.25 -0.71875,-0.69531 c 0.40234,-1.27734 1.82812,-0.45312 2.67187,-0.75 l 0.0352,2.11719 -9.94141,13.02344 c 3.82813,0.78125 6.70704,-4.21094 10.78907,-4.98829 -0.35547,3.96094 -5.02735,3.33594 -6.66016,6.89454 7.46094,-1.40235 16.62109,-2.55079 24.93359,-3.82422 2.09375,-1.44922 0.62891,-4.39063 2.00782,-6.10938 -2.8711,-2.63281 -7.62891,-0.14844 -10.90625,-1.78515 l -0.0703,-4.09766 c 3.67578,0.082 9.07813,2.24609 13.56641,0.47266 1.38281,-1.57813 1.34766,-3.69532 1.87891,-5.54297 -4.97266,-1.7461 -10.39063,-4.61719 -16.28125,-2.39844 -2.51563,1.31641 -4.16407,4.30859 -7.41016,4.22656 -2.14062,-9.28515 -14.01562,-2.01562 -20.953125,-3.02344 -3.363281,1.61329 -6.875,2.66016 -10.824219,2.8711 l -0.01172,-0.70703 c -0.453125,-1.6836 5.472656,-1.78907 7.398437,-4.78907 C 98.25,205.125 116.83594,185.875 137.51562,181.13672 c 2.40235,0.0977 5.35547,-0.66016 7.35157,0.4375 -6.01172,3.63672 -10.69922,10.07031 -13.84375,15.91797 3.51172,-0.91016 9.55859,-2.42969 14.10547,-0.95313 -3.09766,0.61719 -8.69141,3.82422 -11.30469,7.67969 7.16797,-1.81641 14.23047,-1.80078 21.62109,0.89453 1.36328,5.20313 -4.91797,1.35938 -6.71484,3.50781 -7.91016,-0.004 -17.4336,4.53907 -20.67188,13.35157 8.03907,-0.70313 19.23438,9.6914 24.25782,-1.83594 l 3.39062,-0.0586 c 0.58203,1.1211 -0.79297,3.1211 -1.1875,4.82422 l -1.39062,1.29297 c 9.22656,2.52344 17.36718,7.89063 26.05078,11.83203 3.12109,0.79297 5.05859,-1.35547 7.29297,-2.94922 4.83984,2.17579 1.85156,8.86329 6.98046,11.45704 l 0.71875,0.6914 2.07032,-2.71875 c -2.14063,-1.23047 -2.32032,-3.34765 -2.21485,-5.46875 0.53907,-1.27734 1.82813,-0.45312 2.66797,-0.75 1.28906,0.96485 0.47266,2.67578 2.17969,3.35156 1.27734,0.39844 1.82422,-0.59765 2.66016,-1.32031 l -0.0469,-2.67969 3.38672,-0.0625 c -0.67188,1.98829 1.33984,3.79297 0.0937,5.36719"
         id="path180" />
      <path
         style="fill:#1e170f;fill-opacity:1;fill-rule:evenodd;stroke:none"
         d="m 201.25391,264.75781 c -1.26954,0.16406 -3.53125,-0.0781 -2.71875,-2.07031 l -0.0312,-1.97656 3.38671,-0.0625 c -0.26171,1.28125 0.61719,3.09765 -0.63671,4.10937"
         id="path182" />
      <path
         style="fill:#1e170f;fill-opacity:1;fill-rule:nonzero;stroke:none"
         d="m 200.85547,282.27734 c -2.1211,-0.10547 -1.45703,-2.51562 -2.04688,-3.92187 2.8125,-0.75 4.98047,2.17578 2.04688,3.92187"
         id="path184" />
      <path
         style="fill:#ffffff;fill-opacity:1;fill-rule:evenodd;stroke:none"
         d="m 194.96875,365.84375 c -4.22266,0.63672 -5.70313,-3.00781 -6.88281,-5.95313 -0.52735,-6.0625 -0.35547,-12.42187 4.38672,-15.7539 1.23828,6.1914 7.39843,11.17187 11.16796,16.7539 1.08594,5.48829 -5.58593,3.76954 -8.67187,4.95313"
         id="path186" />
      <path
         style="fill:#1e170f;fill-opacity:1;fill-rule:evenodd;stroke:none"
         d="M 136.4375,119.44141 C 121.51953,130.57422 112.92578,147.8125 101.16797,162 c -6.179689,9.99219 -4.617189,26.63281 -19.820314,29.57812 0.824219,-9.33593 13.601563,-13.79296 12.421875,-24.64843 C 91.03125,155.53906 104.61328,148.94531 108.96875,139.55078 89.144531,128.45703 87.058594,106.17969 86.265625,85.007813 83.511719,72.769531 75.976563,61.746094 66.78125,52.867188 L 66.746094,50.75 c 23.222656,19.648438 69.847656,12.761719 71.417966,54.39453 1.44531,1.8125 2.04688,3.92188 4.19141,5.29688 3.8164,0.35547 6.16015,-2.9336 8.65625,-5.51953 C 147.86328,86.335938 130.75781,69.121094 113.00391,63.5 104.32422,59.699219 93.054688,61.308594 86.425781,53.796875 c 26.011719,1.523438 58.640629,9.847656 68.480469,39.476563 1.60937,3.363281 5.60937,5.832031 8.83594,4.648437 6.39453,-5.761719 10.71093,-18.863281 18.82031,-23.242187 l 12.16797,1.058593 C 174.58984,86.824219 162.14844,119.98047 136.4375,119.44141"
         id="path188" />
      <path
         style="fill:#1e170f;fill-opacity:1;fill-rule:evenodd;stroke:none"
         d="m 194.85547,286.47656 c -2.10156,1.02344 -3.55078,-1.20703 -4.14063,-2.60937 l 3.33985,-2.74219 c 0.69922,-0.4375 2.32422,3.62891 0.80078,5.35156"
         id="path190" />
      <path
         style="fill:#1e170f;fill-opacity:1;fill-rule:nonzero;stroke:none"
         d="m 186.01953,281.97266 c -2.10547,0.60156 -1.73047,-2.08985 -2.17578,-3.35547 0.26172,-0.98828 -0.60547,-2.2461 0.65625,-2.83203 l 2.11719,-0.0391 c -0.52735,1.98828 1.74218,2.79297 2.7539,4.04688 -0.60156,-2.2461 0.32032,-5.9336 4,-5.4336 1.98047,8.15625 -4.19531,2.32813 -7.35156,7.61329"
         id="path192" />
      <path
         style="fill:#ffffff;fill-opacity:1;fill-rule:evenodd;stroke:none"
         d="m 187.10547,190.4375 -1.97656,0.0352 c -2.0625,-4.76563 -0.17579,-10.02344 4.44531,-12.36329 2.89062,3.90235 1.00781,9.30079 -2.46875,12.32813"
         id="path194" />
      <path
         style="fill:#ffffff;fill-opacity:1;fill-rule:evenodd;stroke:none"
         d="m 193.70703,333.94922 c -13.99609,-0.88672 -20.88281,-15.03125 -25.58984,-25.96094 -0.17969,-2.25781 0.47656,-4.95312 -0.82813,-6.76562 4.32422,-3.1836 11.29688,-0.19922 16.94531,-0.29688 4.69922,10.36719 7.57813,21.47656 9.47266,33.02344"
         id="path196" />
      <path
         style="fill:#1e170f;fill-opacity:1;fill-rule:evenodd;stroke:none"
         d="m 185.33984,289.54687 -1.41406,0.0234 c -1.32422,-3.08203 1.92188,-3.13672 2.60156,-4.84375 2.27735,1.23438 1.5,5.0586 -1.1875,4.82031"
         id="path198" />
      <path
         style="fill:#ffffff;fill-opacity:1;fill-rule:evenodd;stroke:none"
         d="m 173.26953,187.54687 c -8.53516,-3.52343 -10.24609,-14.78906 -15.29687,-21.05859 8.29687,-1.98047 18.26562,-0.008 24.70312,4.96094 -2.89453,3.86719 -11.21094,9.91406 -9.40625,16.09765"
         id="path200" />
      <path
         style="fill:#ffffff;fill-opacity:1;fill-rule:evenodd;stroke:none"
         d="m 180.69922,365.38672 c -6.17578,2.22265 -10.84375,-3.65235 -16.61328,-2.42188 -5.88282,2.92969 -11.97657,0.21875 -12.99219,-7.96093 -0.30078,-0.98438 -0.45703,-1.97266 -1.45703,-2.66016 6.10547,1.87109 13.73437,-0.49609 18.48047,-3.68359 5.58984,4.5625 5.30078,12.1914 12.55859,15.3164 l 0.0234,1.41016"
         id="path202" />
      <path
         style="fill:#1e170f;fill-opacity:1;fill-rule:evenodd;stroke:none"
         d="m 177.08984,280.00781 c -0.97656,0.72266 -5.22265,0.23438 -3.98828,-1.90625 l -0.0391,-2.11719 3.96875,0.63672 0.0586,3.38672"
         id="path204" />
      <path
         style="fill:#fad105;fill-opacity:1;fill-rule:nonzero;stroke:none"
         d="m 176.0625,253.61719 c -1.58984,-2.23047 -5.66406,-1.03125 -5.58984,-4.70313 1.86718,1.66016 5.1289,2.59375 5.58984,4.70313"
         id="path206" />
      <path
         style="fill:none;stroke:#fad105;stroke-width:8;stroke-linecap:butt;stroke-linejoin:miter;stroke-miterlimit:3.8637;stroke-opacity:1"
         d="m 1760.625,2551.1281 c -15.8984,22.3047 -56.6406,10.3125 -55.8984,47.0313 18.6718,-16.6016 51.289,-25.9375 55.8984,-47.0313 z m 0,0"
         transform="matrix(0.1,0,0,-0.1,0,508.73)"
         id="path208" />
      <path
         style="fill:#fad105;fill-opacity:1;fill-rule:evenodd;stroke:none"
         d="m 169.37109,258.53516 -0.0273,-1.41016 c 2.10547,-0.88281 4.68359,1.1875 6.82812,2.56641 -1.83593,0.0273 -4.23046,0.49609 -6.80078,-1.15625"
         id="path210" />
      <path
         style="fill:none;stroke:#fad105;stroke-width:8;stroke-linecap:butt;stroke-linejoin:miter;stroke-miterlimit:3.8637;stroke-opacity:1"
         d="m 1693.7109,2501.9484 -0.2734,14.1016 c 21.0547,8.8281 46.8359,-11.875 68.2813,-25.6641 -18.3594,-0.2734 -42.3047,-4.9609 -68.0079,11.5625 z m 0,0"
         transform="matrix(0.1,0,0,-0.1,0,508.73)"
         id="path212" />
      <path
         style="fill:#1e170f;fill-opacity:1;fill-rule:evenodd;stroke:none"
         d="m 158.85156,125.12109 c -0.8125,-6.05859 5.7461,-10.41015 11.33985,-13.7539 l 2.01171,1.9414 c -5.01562,4.04297 -7.89453,8.89454 -13.35156,11.8125"
         id="path214" />
      <path
         style="fill:#fad105;fill-opacity:1;fill-rule:evenodd;stroke:none"
         d="m 162.72266,265.99609 -0.0234,-1.26953 3.95312,-0.0703 c 1.14063,0.68359 5.10547,1.18359 7.51563,1.84766 -2.67188,0.46875 -7.05078,0.40234 -11.44531,-0.50782"
         id="path216" />
      <path
         style="fill:none;stroke:#fad105;stroke-width:8;stroke-linecap:butt;stroke-linejoin:miter;stroke-miterlimit:3.8637;stroke-opacity:1"
         d="m 1627.2266,2427.3391 -0.2344,12.6953 39.5312,0.7031 c 11.4063,-6.8359 51.0547,-11.8359 75.1563,-18.4766 -26.7188,-4.6875 -70.5078,-4.0234 -114.4531,5.0782 z m 0,0"
         transform="matrix(0.1,0,0,-0.1,0,508.73)"
         id="path218" />
      <path
         style="fill:#fad105;fill-opacity:1;fill-rule:evenodd;stroke:none"
         d="m 166.98047,242.90234 c -3.81641,-0.21484 -6.57031,-4.12109 -3.51953,-7.42578 2.66797,-0.89062 5.8125,1.45703 8.24609,3.2461 -1.8125,1.30468 -1.85937,6.53125 -4.72656,4.17968"
         id="path220" />
      <path
         style="fill:none;stroke:#fad105;stroke-width:8;stroke-linecap:butt;stroke-linejoin:miter;stroke-miterlimit:3.8637;stroke-opacity:1"
         d="m 1669.8047,2658.2766 c -38.1641,2.1484 -65.7031,41.2109 -35.1953,74.2578 26.6797,8.9062 58.125,-14.5703 82.4609,-32.461 -18.125,-13.0468 -18.5937,-65.3125 -47.2656,-41.7968 z m 0,0"
         transform="matrix(0.1,0,0,-0.1,0,508.73)"
         id="path222" />
      <path
         style="fill:#1e170f;fill-opacity:1;fill-rule:evenodd;stroke:none"
         d="m 168.45312,286.9375 c -1.43359,-1.24609 -3.04296,-4.46484 -1.53125,-6.75 1.83594,-0.0352 4.51172,-0.50391 4.83985,2.03125 -0.67578,1.70703 -1.0586,4.25781 -3.3086,4.71875"
         id="path224" />
      <path
         style="fill:#fad105;fill-opacity:1;fill-rule:evenodd;stroke:none"
         d="m 147.41406,246.63281 c -1.27344,-0.11719 -0.46484,-2.25 -0.76562,-3.375 7.3125,-1.96484 14.14843,1.44531 20.41406,4.44531 l 0.0352,1.97657 -19.6836,-3.04688"
         id="path226" />
      <path
         style="fill:none;stroke:#fad105;stroke-width:8;stroke-linecap:butt;stroke-linejoin:miter;stroke-miterlimit:3.8637;stroke-opacity:1"
         d="m 1474.1406,2620.9719 c -12.7343,1.1719 -4.6484,22.5 -7.6562,33.75 73.125,19.6484 141.4844,-14.4531 204.1406,-44.4531 l 0.3516,-19.7657 z m 0,0"
         transform="matrix(0.1,0,0,-0.1,0,508.73)"
         id="path228" />
      <path
         style="fill:#1e170f;fill-opacity:1;fill-rule:evenodd;stroke:none"
         d="m 165.63281,278.9375 c -1.98828,-0.53125 -2.18359,-3.77344 -1.48437,-4.06641 l 0.6914,-0.72265 c 1.70703,0.67578 2.74219,3.20312 0.79297,4.78906"
         id="path230" />
      <path
         style="fill:#fad105;fill-opacity:1;fill-rule:evenodd;stroke:none"
         d="m 164.54687,257.21094 -18.33203,1.73047 -0.0937,-5.50782 c 7.02344,-2.24218 14.13282,0.60157 19.8125,2.33985 l -1.38672,1.4375"
         id="path232" />
      <path
         style="fill:none;stroke:#fad105;stroke-width:8;stroke-linecap:butt;stroke-linejoin:miter;stroke-miterlimit:3.8637;stroke-opacity:1"
         d="m 1645.4688,2515.1906 -183.3204,-17.3047 -0.9375,55.0782 c 70.2344,22.4218 141.3282,-6.0157 198.125,-23.3985 z m 0,0"
         transform="matrix(0.1,0,0,-0.1,0,508.73)"
         id="path234" />
      <path
         style="fill:#fad105;fill-opacity:1;fill-rule:evenodd;stroke:none"
         d="m 158.15625,238.96094 -9.48438,-1.10547 c -1.73437,-2.3711 2.59766,-4.98828 3.82422,-7.55078 2.96875,0.23047 6.66407,1.57812 7.55078,3.96093 -0.67578,1.56641 -1.92578,2.85938 -1.89062,4.69532"
         id="path236" />
      <path
         style="fill:none;stroke:#fad105;stroke-width:8;stroke-linecap:butt;stroke-linejoin:miter;stroke-miterlimit:3.8637;stroke-opacity:1"
         d="m 1581.5625,2697.6906 -94.8437,11.0547 c -17.3438,23.711 25.9765,49.8828 38.2421,75.5078 29.6875,-2.3047 66.6407,-15.7812 75.5079,-39.6093 -6.7579,-15.6641 -19.2579,-28.5938 -18.9063,-46.9532 z m 0,0"
         transform="matrix(0.1,0,0,-0.1,0,508.73)"
         id="path238" />
      <path
         style="fill:#fad105;fill-opacity:1;fill-rule:evenodd;stroke:none"
         d="m 148.51172,269.06641 c -1.29297,-1.38672 -0.48828,-3.66407 -0.80078,-5.49219 l 12.14062,-0.21094 c 0.97656,7.32422 -8.14844,2.40234 -11.33984,5.70313"
         id="path240" />
      <path
         style="fill:none;stroke:#fad105;stroke-width:8;stroke-linecap:butt;stroke-linejoin:miter;stroke-miterlimit:3.8637;stroke-opacity:1"
         d="m 1485.1172,2396.6359 c -12.9297,13.8672 -4.8828,36.6407 -8.0078,54.9219 l 121.4062,2.1094 c 9.7657,-73.2422 -81.4843,-24.0234 -113.3984,-57.0313 z m 0,0"
         transform="matrix(0.1,0,0,-0.1,0,508.73)"
         id="path242" />
      <path
         style="fill:#fad105;fill-opacity:1;fill-rule:evenodd;stroke:none"
         d="m 110.82031,205.32812 c 1.01563,-6.65625 8.10157,-13.41796 14.57813,-14.51953 l 3.38672,-0.0586 c -6.40625,5.19531 -9.31641,16.26172 -17.96485,14.57812"
         id="path244" />
      <path
         style="fill:none;stroke:#fad105;stroke-width:8;stroke-linecap:butt;stroke-linejoin:miter;stroke-miterlimit:3.8637;stroke-opacity:1"
         d="m 1108.2031,3034.0188 c 10.1563,66.5625 81.0157,134.1796 145.7813,145.1953 l 33.8672,0.5859 c -64.0625,-51.9531 -93.1641,-162.6172 -179.6485,-145.7812 z m 0,0"
         transform="matrix(0.1,0,0,-0.1,0,508.73)"
         id="path246" />
      <path
         style="fill:#fad105;fill-opacity:1;fill-rule:evenodd;stroke:none"
         d="m 102.23438,222.99219 c -0.35547,-4.08985 3.50781,-9.38282 7.28125,-11.57032 l 1.97656,-0.0312 -3.26953,6.83594 c 7.375,1.84766 10.5625,-9.64844 18.19922,-9.21484 l -9.22266,13.71484 -14.96484,0.26563"
         id="path248" />
      <path
         style="fill:none;stroke:#fad105;stroke-width:8;stroke-linecap:butt;stroke-linejoin:miter;stroke-miterlimit:3.8637;stroke-opacity:1"
         d="m 1022.3437,2857.3781 c -3.5546,40.8985 35.0782,93.8282 72.8126,115.7032 l 19.7656,0.3125 -32.6953,-68.3594 c 73.75,-18.4766 105.625,96.4844 181.9922,92.1484 l -92.2266,-137.1484 z m 0,0"
         transform="matrix(0.1,0,0,-0.1,0,508.73)"
         id="path250" />
      <path
         style="fill:#fad105;fill-opacity:1;fill-rule:evenodd;stroke:none"
         d="m 118.22656,127.80859 c -6.07031,0.2461 -11.57031,0.76563 -16.32031,-4.375 -10.484375,-9.98437 -2.746094,-27.914059 -10.144531,-39.222652 -0.898438,-2.953125 -1.828125,-7.597657 0.386719,-10.179688 4.800781,0.05859 5.46875,5.980469 9.730472,7.316406 8.75,-0.292968 8.96875,12.128907 17.72265,11.976563 4.47657,5.710937 0.79297,13.261721 0.33985,19.625001 -2.63282,2.87109 -5.90625,1.375 -7.375,-1.98828 -1.75782,-3.5 0.40625,-8.90625 -2.33203,-12.105471 -3.23438,0.761719 -1.7461,5.253911 -4.55469,6.152341 -5.3125,-5.13281 0.72265,-15.265622 -6.566409,-20.222654 l -1.246093,1.433594 c 4.574222,11.21875 -6.640625,24.125 8.027342,31.07031 5.8711,-3.63281 9.95313,3.64063 15.55469,1 4.85156,3.02344 0.43359,8.60938 -3.22266,9.51953"
         id="path252" />
      <path
         style="fill:none;stroke:#fad105;stroke-width:8;stroke-linecap:butt;stroke-linejoin:miter;stroke-miterlimit:3.8637;stroke-opacity:1"
         d="m 1182.2656,3809.2141 c -60.7031,-2.461 -115.7031,-7.6563 -163.2031,43.75 -104.84375,99.8437 -27.46094,279.1406 -101.44531,392.2265 -8.98438,29.5313 -18.28125,75.9766 3.86718,101.7969 48.00782,-0.5859 54.6875,-59.8047 97.30473,-73.1641 87.5,2.9297 89.6875,-121.289 177.2265,-119.7656 44.7657,-57.1094 7.9297,-132.6172 3.3985,-196.25 -26.3282,-28.7109 -59.0625,-13.75 -73.75,19.8828 -17.5782,35 4.0625,89.0625 -23.3203,121.0547 -32.3438,-7.6172 -17.461,-52.539 -45.5469,-61.5234 -53.125,51.3281 7.2265,152.6562 -65.66409,202.2265 l -12.46094,-14.3359 c 45.74223,-112.1875 -66.40625,-241.25 80.27343,-310.7031 58.711,36.3281 99.5313,-36.4063 155.5469,-10 48.5156,-30.2344 4.3359,-86.0938 -32.2266,-95.1953 z m 0,0"
         transform="matrix(0.1,0,0,-0.1,0,508.73)"
         id="path254" />
      <path
         style="fill:#fad105;fill-opacity:1;fill-rule:evenodd;stroke:none"
         d="m 118.19922,320.4375 -5.39063,-1.31641 c -1.11328,-7.18359 4.73047,-12.23047 9.88282,-16.41406 -1.73438,5.82031 -4.75,11.09766 -4.49219,17.73047"
         id="path256" />
      <path
         style="fill:none;stroke:#fad105;stroke-width:8;stroke-linecap:butt;stroke-linejoin:miter;stroke-miterlimit:3.8637;stroke-opacity:1"
         d="m 1181.9922,1882.925 -53.9063,13.1641 c -11.1328,71.8359 47.3047,122.3047 98.8282,164.1406 -17.3438,-58.2031 -47.5,-110.9766 -44.9219,-177.3047 z m 0,0"
         transform="matrix(0.1,0,0,-0.1,0,508.73)"
         id="path258" />
      <path
         style="fill:#fad105;fill-opacity:1;fill-rule:evenodd;stroke:none"
         d="m 96.179688,264.47266 0.71875,0.6914 -9.953125,12.32422 c -1.867188,-1.66406 2.480468,-3.57422 0.609375,-5.375 2.738281,-5.13672 6.773437,-8.59375 11.226562,-12.34375 -0.527344,2.12891 -0.367187,3.39453 -2.601562,4.70313"
         id="path260" />
      <path
         style="fill:none;stroke:#fad105;stroke-width:8;stroke-linecap:butt;stroke-linejoin:miter;stroke-miterlimit:3.8637;stroke-opacity:1"
         d="m 961.79687,2442.5734 7.1875,-6.914 -99.53125,-123.2422 c -18.67187,16.6406 24.80469,35.7422 6.09375,53.75 27.38282,51.3672 67.73438,85.9375 112.26563,123.4375 -5.27344,-21.2891 -3.67188,-33.9453 -26.01563,-47.0313 z m 0,0"
         transform="matrix(0.1,0,0,-0.1,0,508.73)"
         id="path262" />
    </g>
  </g>
</svg>
