<?xml version="1.0" encoding="UTF-8" standalone="no"?>
<svg
   xmlns:dc="http://purl.org/dc/elements/1.1/"
   xmlns:cc="http://creativecommons.org/ns#"
   xmlns:rdf="http://www.w3.org/1999/02/22-rdf-syntax-ns#"
   xmlns:svg="http://www.w3.org/2000/svg"
   xmlns="http://www.w3.org/2000/svg"
   viewBox="0 0 175.8564 252"
   id="svg59"
   height="252"
   width="175.8564"
   version="1.1">
  <metadata
     id="metadata65">
    <rdf:RDF>
      <cc:Work
         rdf:about="">
        <dc:format>image/svg+xml</dc:format>
        <dc:type
           rdf:resource="http://purl.org/dc/dcmitype/StillImage" />
        <dc:title></dc:title>
      </cc:Work>
    </rdf:RDF>
  </metadata>
  <defs
     id="defs63" />
  <g
     transform="matrix(0.44097217,0,0,0.44097217,-43.321634,-59.624986)"
     id="Layer1000">
    <path
       id="path2"
       style="fill:#fcfcfc;fill-rule:evenodd"
       d="m 300.9325,138.9893 c 14.1193,4.6716 28.1994,9.9933 42.0147,15.4863 20.7794,8.2616 41.3995,17.2444 61.3992,27.252 25.9597,12.9898 70.8744,37.8946 86.1666,66.3647 4.2258,7.8676 4.1639,16.453 4.253,25.3694 -2.3114,94.7122 -16.0791,179.6872 -48.3706,258.591 -7.0405,17.2034 -14.2898,34.5356 -23.5841,50.6575 -9.8741,17.1277 -20.3428,33.4009 -33.1905,48.4053 -25.3219,29.5729 -55.2877,54.4285 -92.8881,73.294 -39.2406,-22.547 -70.5461,-46.2154 -98.4651,-82.5783 -29.2632,-38.1137 -45.7919,-76.7467 -61.0006,-121.0534 -16.5872,-48.3227 -26.7739,-99.0541 -32.036,-149.815 -2.4764,-23.8904 -3.9973,-48.013 -4.626,-72.0166 -0.4001,-15.279 0.1662,-25.9636 7.277,-36.535 2.5712,-3.8229 5.7049,-7.634 9.446,-11.6422 18.6934,-20.0269 49.1034,-37.0764 73.4801,-49.3076 32.3396,-16.2265 66.8937,-30.3404 101.033,-42.383 l 4.5305,-1.5981 z" />
    <path
       id="path4"
       style="fill:#e5e3e1;fill-rule:evenodd"
       d="m 296.5171,704.285 c -39.1393,-22.5097 -70.3817,-46.1578 -98.2495,-82.4538 -29.2632,-38.1137 -45.7919,-76.7467 -61.0006,-121.0534 -16.5872,-48.3227 -26.7739,-99.0541 -32.036,-149.815 -2.4764,-23.8904 -3.9973,-48.013 -4.626,-72.0166 -0.4001,-15.279 0.1662,-25.9636 7.277,-36.535 2.5712,-3.8229 5.7049,-7.634 9.446,-11.6422 18.6934,-20.0269 49.1034,-37.0764 73.4801,-49.3076 32.3396,-16.2265 66.8937,-30.3404 101.033,-42.383 l 4.5305,-1.5981 0.1455,0.0481 z" />
    <path
       id="path6"
       style="fill:#ff054d;fill-opacity:1;stroke:none;stroke-opacity:1"
       d="m 296.5171,152.3344 c 15.868,5.2502 60.2507,21.3034 101.539,41.9638 38.8507,19.4404 74.8867,43.753 82.377,65.6529 1.5619,4.567 2.0436,8.9406 2.0908,13.6511 0.8395,83.9105 -15.5096,177.0573 -46.6437,253.1261 -7.0237,17.1607 -14.3853,34.0553 -22.9792,48.9607 -9.4848,16.4502 -21.066,32.2486 -33.0631,46.2988 -22.7056,26.5911 -45.7202,43.756 -83.0943,64.3295 -38.4959,-21.2593 -62.8202,-39.6884 -89.7802,-73.2837 -24.0598,-29.9817 -40.9735,-62.6371 -59.5757,-116.82 -14.0214,-40.8409 -25.18,-89.4168 -31.1225,-146.7011 -2.3173,-22.339 -3.2199,-45.9655 -3.8756,-70.9354 -0.4448,-16.9359 3.4246,-25.5861 15.2142,-38.2168 15.0035,-16.0741 41.5448,-32.3044 69.5082,-46.3351 38.3204,-19.2275 79.7418,-34.7545 99.4051,-41.6908 z" />
    <path
       id="path8"
       style="fill:#c20145;fill-opacity:1;stroke:none;stroke-opacity:1"
       d="m 296.5171,686.1917 c -38.3641,-21.2063 -62.647,-39.629 -89.5537,-73.1581 -24.0598,-29.9817 -40.9735,-62.6371 -59.5757,-116.82 -14.0214,-40.8409 -25.18,-89.4168 -31.1225,-146.7011 -2.3173,-22.339 -3.2199,-45.9655 -3.8756,-70.9354 -0.4448,-16.9359 3.4246,-25.5861 15.2142,-38.2168 15.0035,-16.0741 41.5448,-32.3044 69.5082,-46.3351 38.3204,-19.2275 79.7418,-34.7545 99.4051,-41.6908 z" />
    <g
       id="Layer1001">
      <path
         id="path10"
         style="fill:#fddb4d;fill-rule:evenodd"
         d="m 263.5954,429.318 c 1.489,2.2663 3.7569,7.5071 3.7138,11.9631 -0.0786,8.0972 -3.3683,14.4344 -2.9167,21.8057 0.7035,11.4831 9.8396,25.0413 27.342,25.4419 11.8454,0.2712 21.4863,-6.7519 25.2648,-17.2281 1.916,-5.312 2.2341,-10.9861 1.9546,-15.6528 -0.3832,-6.3974 -2.335,-10.637 -1.8863,-16.8758 0.379,-5.2696 3.3039,-10.1951 6.0021,-14.274 -5.9874,-0.6017 -11.4078,1.2665 -17.1757,6.5918 0.3416,-16.2167 -4.9885,-26.0986 -19.0215,-26.1825 1.7426,4.5266 2.7723,8.2348 1.807,11.1028 -0.9654,2.868 -3.4736,5.1232 -5.1776,8.1032 -1.7852,3.1214 -2.9598,8.0954 -3.8964,11.5699 -3.0781,-5.359 -8.5856,-8.2515 -16.0101,-6.3652 z m 35.8577,-6.1479 c -4.53,0.1397 -7.7444,1.8641 -10.266,4.8672 -1.6929,2.0162 -2.9156,5.1944 -3.8753,8.7355 -2.0241,7.4667 -1.8283,13.9144 -4.5267,19.7601 3.6717,-2.0251 5.6671,-5.6365 6.6619,-9.6342 1.6583,-6.6637 1.5726,-14.4034 7.5275,-17.6693 -2.1075,19.5828 9.0522,20.2924 8.5253,34.4748 -3.3148,-4.6108 -7.6245,-8.1236 -13.399,-9.2206 0.6103,10.8044 -7.3264,10.0084 -7.7615,18.0952 -0.2843,5.2839 3.9599,9.3408 9.3422,8.7548 -2.5785,-2.1464 -3.8273,-5.405 -3.7738,-7.2847 0.1422,-4.9846 3.3072,-5.5943 4.7325,-14.2381 9.0452,3.5565 6.1185,15.7118 5.2842,21.1124 7.5907,-4.0077 10.2837,-10.0422 10.2012,-16.8764 -0.1179,-9.7639 -4.4303,-15.0074 -7.1594,-21.6786 -1.9912,-4.8681 -3.0344,-10.4971 -1.5131,-19.1981 z" />
      <path
         id="path12"
         style="fill:#fddb4d;fill-rule:evenodd"
         d="m 337.2936,463.4897 c 1.0454,1.5911 2.6371,5.2701 2.6072,8.3983 -0.0553,5.6839 -2.3647,10.1328 -2.0477,15.3074 0.4938,8.0612 6.9074,17.579 19.1942,17.8604 8.3151,0.1902 15.0833,-4.7398 17.7357,-12.0943 1.3454,-3.7291 1.5685,-7.7123 1.3723,-10.9884 -0.2693,-4.491 -1.6391,-7.4671 -1.3242,-11.8467 0.2659,-3.6996 2.3193,-7.157 4.2133,-10.0202 -4.2031,-0.4224 -8.0081,0.8892 -12.0573,4.6275 0.2399,-11.3842 -3.5019,-18.3215 -13.353,-18.3803 1.2233,3.1777 1.9461,5.7809 1.2684,7.7942 -0.6776,2.0134 -2.4383,3.5964 -3.6345,5.6883 -1.2533,2.1915 -2.0779,5.6832 -2.7356,8.1222 -2.1606,-3.7619 -6.0266,-5.7924 -11.2388,-4.4684 z m 25.1723,-4.3158 c -3.1804,0.0979 -5.437,1.3088 -7.2067,3.4169 -1.1887,1.4154 -2.0468,3.6463 -2.7209,6.1323 -1.421,5.2417 -1.2832,9.7679 -3.1777,13.8715 2.5778,-1.4218 3.9785,-3.9569 4.6768,-6.7632 1.164,-4.6777 1.1037,-10.1112 5.2843,-12.4038 -1.4795,13.7473 6.3547,14.2452 5.9847,24.2013 -2.327,-3.2369 -5.3523,-5.7027 -9.4063,-6.4731 0.4285,7.5849 -5.1429,7.0263 -5.448,12.7031 -0.1998,3.7091 2.7793,6.5571 6.5578,6.1458 -1.8099,-1.5067 -2.6866,-3.7941 -2.649,-5.114 0.0995,-3.499 2.3214,-3.9273 3.3221,-9.9949 6.3497,2.4964 4.2952,11.0296 3.7096,14.8208 5.3285,-2.8134 7.2191,-7.0496 7.1611,-11.8474 -0.0827,-6.8544 -3.1101,-10.5352 -5.0259,-15.2183 -1.3977,-3.4175 -2.13,-7.3688 -1.0619,-13.477 z" />
      <path
         id="path14"
         style="fill:#fddb4d;fill-rule:evenodd"
         d="m 210.7847,463.263 c 1.0454,1.5911 2.6372,5.2701 2.6073,8.3983 -0.0553,5.6838 -2.3647,10.1327 -2.0477,15.3074 0.4937,8.0612 6.9074,17.579 19.1942,17.8604 8.3151,0.1902 15.0833,-4.7398 17.7357,-12.0943 1.3453,-3.7291 1.5684,-7.7123 1.3723,-10.9884 -0.2693,-4.491 -1.6392,-7.4672 -1.3243,-11.8467 0.266,-3.6996 2.3194,-7.157 4.2134,-10.0203 -4.2032,-0.4223 -8.0082,0.8892 -12.0574,4.6276 0.2399,-11.3842 -3.5018,-18.3216 -13.353,-18.3803 1.2234,3.1777 1.9462,5.7809 1.2685,7.7941 -0.6777,2.0135 -2.4384,3.5965 -3.6345,5.6884 -1.2533,2.1915 -2.0779,5.6831 -2.7356,8.1222 -2.1606,-3.762 -6.0266,-5.7924 -11.2389,-4.4684 z m 25.1723,-4.3158 c -3.1804,0.0979 -5.4369,1.3088 -7.2067,3.4169 -1.1887,1.4154 -2.0468,3.6463 -2.7208,6.1322 -1.4211,5.2418 -1.2832,9.768 -3.1777,13.8716 2.5778,-1.4218 3.9785,-3.9569 4.6767,-6.7633 1.164,-4.6776 1.1037,-10.1112 5.2844,-12.4037 -1.4796,13.7473 6.3547,14.2451 5.9847,24.2012 -2.3271,-3.2368 -5.3524,-5.7026 -9.4063,-6.473 0.4285,7.5849 -5.1429,7.0262 -5.4481,12.703 -0.1997,3.7092 2.7794,6.5572 6.5579,6.1459 -1.8099,-1.5067 -2.6867,-3.7941 -2.649,-5.1141 0.0995,-3.4989 2.3213,-3.9272 3.3221,-9.9948 6.3497,2.4964 4.2952,11.0296 3.7095,14.8208 5.3286,-2.8134 7.2192,-7.0496 7.1612,-11.8474 -0.0828,-6.8544 -3.1102,-10.5352 -5.0259,-15.2183 -1.3977,-3.4175 -2.13,-7.3688 -1.062,-13.477 z" />
    </g>
    <g
       id="Layer1002">
      <path
         id="path17"
         style="fill:#00a9d7;fill-rule:evenodd"
         d="m 265.2785,523.6687 c 3.304,10.1261 10.2196,16.151 18.1549,19.1999 9.03,3.4694 19.4983,2.1107 27.6588,-3.0206 6.7793,-4.2628 12.0247,-11.1326 12.503,-18.3755 0.7026,-10.6363 -6.8732,-18.8356 -16.8973,-18.7047 -9.3984,0.1224 -15.4116,6.2789 -18.573,12.7771 4.7421,-3.1613 8.3344,-5.6548 13.6992,-6.0593 4.0649,-0.3065 7.2446,1.2874 8.9346,3.8962 3.3651,5.1953 0.1705,12.5781 -4.1796,16.6293 -5.0674,4.7194 -10.8553,6.583 -17.5639,6.3413 -8.0584,-0.2904 -16.289,-2.9691 -23.7367,-12.6837 z" />
      <path
         id="path19"
         style="fill:#00a9d7;fill-rule:evenodd"
         d="m 331.4779,525.5424 c 2.8486,8.0112 9.0332,12.9148 15.3396,15.0236 7.064,2.3621 15.7115,1.4238 22.0959,-2.5903 3.1491,-1.9798 5.9556,-4.5999 7.7946,-7.5881 2.8381,-4.6121 3.0838,-10.4763 0.2083,-15.1688 -2.2885,-3.7349 -6.311,-6.0929 -11.0904,-6.031 -7.3534,0.0952 -11.9934,5.1252 -14.2038,9.7712 3.7106,-2.4737 6.1426,-3.5192 9.8125,-3.8344 4.1325,-0.3552 7.6915,1.7233 8.1404,5.8976 0.3748,3.4879 -1.9043,7.5451 -4.4562,9.9218 -3.9643,3.6917 -8.6857,5.3913 -13.9336,5.2034 -6.3044,-0.2258 -11.8614,-1.4242 -19.7073,-10.605 z" />
      <path
         id="path21"
         style="fill:#00a9d7;fill-rule:evenodd"
         d="m 209.9569,525.5424 c 2.8486,8.0112 9.0332,12.9148 15.3395,15.0236 7.0641,2.3621 15.7116,1.4238 22.096,-2.5903 2.6518,-1.6672 5.0609,-3.7884 6.8536,-6.2011 3.4044,-4.5813 4.5224,-10.4909 1.8729,-15.6699 -2.1711,-4.2436 -6.667,-6.9835 -11.814,-6.9169 -7.3532,0.0952 -11.9934,5.1252 -14.2038,9.7712 3.7105,-2.4737 6.1425,-3.5192 9.8125,-3.8344 4.1324,-0.3552 7.6915,1.7233 8.1403,5.8976 0.3749,3.4879 -1.9042,7.5451 -4.4562,9.9218 -3.9642,3.6917 -8.6856,5.3913 -13.9336,5.2034 -6.3044,-0.2258 -11.8613,-1.4242 -19.7072,-10.605 z" />
      <path
         id="path23"
         style="fill:#00a9d7;fill-rule:evenodd"
         d="m 202.5664,535.1982 c 10.9203,9.7995 18.8575,12.0775 27.7993,12.2895 10.4572,0.248 22.527,-3.5268 30.2225,-13.6842 8.1763,14.573 21.1288,21.2525 32.252,21.5854 11.1233,0.3325 22.0774,-4.069 33.8137,-19.8098 10.1892,9.6156 19.8492,12.5616 29.3981,12.5511 9.5489,-0.0104 20.2614,-4.9796 27.5028,-13.3854 -3.1644,12.9617 -13.3531,18.7235 -23.7991,20.1033 -9.7865,1.2928 -20.6239,-0.2126 -32.5885,-11.3665 -12.0161,17.1871 -23.5372,20.7465 -34.6607,20.691 -11.1235,-0.0555 -24.2924,-8.4586 -31.8585,-21.2514 -10.0243,10.5965 -23.0579,13.0444 -31.9936,12.2233 -10.7841,-0.9913 -21.5811,-7.2779 -26.088,-19.9463 z" />
    </g>
    <g
       id="Layer1003">
      <path
         id="path26"
         style="fill:#ffffff;fill-rule:evenodd"
         d="m 294.7231,571.6679 c 18.0964,0 32.7719,14.6755 32.7719,32.7719 0,18.0964 -14.6755,32.7719 -32.7719,32.7719 -18.0964,0 -32.7719,-14.6755 -32.7719,-32.7719 0,-18.0964 14.6755,-32.7719 32.7719,-32.7719 z" />
      <path
         id="path28"
         style="fill:#d2113f;fill-rule:evenodd"
         d="m 294.8201,573.2549 c 17.1665,0 31.0879,13.965 31.0879,31.1849 0,17.22 -13.9214,31.1849 -31.0879,31.1849 -17.1664,0 -31.0878,-13.9649 -31.0878,-31.1849 0,-17.2199 13.9214,-31.1849 31.0878,-31.1849 z" />
      <path
         id="path30"
         style="fill:#ffffff;fill-rule:evenodd"
         d="m 294.8199,574.3885 c 0.3528,0 0.704,0.008 1.0538,0.0204 -3.296,0.8434 -6.5567,2.6121 -8.3695,3.9864 -4.0578,-0.1025 -8.3079,0.9715 -11.8991,3.0176 l -0.0111,-0.0138 c 5.2032,-4.3747 11.9079,-7.0106 19.2259,-7.0106 z m 5.512,0.5099 c 4.1761,0.7802 8.0485,2.4286 11.4221,4.7536 -1.9199,-0.4904 -3.8946,-0.8588 -5.8516,-1.0662 -1.9593,-1.5132 -3.854,-2.8109 -5.5705,-3.6874 z m 12.7604,5.7315 c 3.3885,2.622 6.2023,5.9547 8.2185,9.7767 0.2188,3.2843 -0.0165,7.031 -1.2553,9.8208 -2.4821,-1.7392 -5.1744,-2.919 -8.4546,-3.1881 -1.2841,-4.3036 -3.8326,-8.8726 -7.0668,-12.0864 0.9472,-1.7627 1.6478,-3.7553 1.7428,-5.7323 2.2942,0.2709 4.6062,0.7624 6.8154,1.4093 z m 8.8712,11.091 c 1.802,3.8631 2.8109,8.1728 2.8109,12.7189 0,3.2167 -0.5058,6.315 -1.4394,9.2209 -1.2304,-0.1533 -2.3754,-0.4546 -3.5001,-0.9683 0.6572,-3.2816 1.0574,-8.168 0.5423,-11.7685 1.2859,-2.5694 1.67,-6.0017 1.5863,-9.203 z m 1.1831,22.5093 c -2.905,8.4566 -9.4664,15.2062 -17.789,18.3458 -0.4131,-1.3687 -0.9924,-2.8845 -1.7782,-4.4389 2.9056,-3.0648 5.8904,-7.2695 7.3765,-11.0781 2.4186,-0.3719 5.9636,-1.3524 8.5679,-3.8606 1.1649,0.5407 2.3515,0.8633 3.6228,1.0318 z m -38.0776,18.6303 c -6.2438,-2.1567 -11.5549,-6.3252 -15.162,-11.7347 l -0.4276,-2.726 c 1.2222,-2.0008 2.8618,-3.9948 4.6316,-5.7414 3.3638,2.0699 6.6891,3.5427 10.0334,4.6903 0.8121,3.8263 3.0478,8.1079 5.8505,10.9929 -1.4308,1.6562 -3.0539,3.1092 -4.9259,4.5189 z m -17.8802,-16.8011 c -1.4956,-3.5747 -2.3229,-7.5003 -2.3229,-11.6196 0,-3.7739 0.6953,-7.3851 1.9625,-10.7129 0.9381,-0.6917 1.8042,-1.1272 2.4977,-1.4596 0.9196,2.975 2.4023,5.6913 4.3791,8.051 -0.5491,3.5017 -0.4297,7.734 0.0843,11.8293 -1.7344,1.6992 -3.3497,3.6336 -4.5924,5.5906 z m 17.4771,0.8971 c 2.1792,-2.7034 4.5609,-5.6904 6.7274,-9.1517 4.0356,0.7472 9.779,0.9656 13.847,0.1222 2.2906,3.5021 3.7665,6.4374 5.1608,8.9322 -1.4943,3.8227 -4.5468,8.071 -7.4597,11.0922 -4.1836,0.3623 -8.5108,0.2093 -12.4792,0.0252 -2.8116,-2.8716 -5.054,-7.2176 -5.7963,-11.0201 z m 2.6052,-37.9762 4.1567,5.8434 c -2.9467,3.2455 -5.4896,7.6742 -6.6139,12.0267 -3.8884,-0.0213 -8.1101,1.4093 -10.7827,2.9381 -1.9634,-2.3847 -3.4132,-5.1359 -4.2777,-8.1506 0.9558,-2.9598 2.7605,-6.1404 5.1463,-9.1079 3.6293,-2.345 8.1045,-3.6121 12.3713,-3.5497 z m 4.7094,6.1118 c 4.4341,-0.1151 8.3165,-0.0755 11.9746,0.1179 3.2865,3.194 5.8747,7.8452 7.1339,12.1775 -1.4734,2.8598 -3.3913,6.2799 -5.8525,9.938 -4.0553,0.8701 -9.9244,0.6323 -13.9269,-0.1363 -2.5315,-3.8512 -4.5987,-7.216 -5.9878,-9.942 1.0794,-4.3956 3.6717,-8.9091 6.6587,-12.1551 z" />
    </g>
    <g
       id="Layer1004">
      <path
         id="path33"
         style="fill:#ffffff;fill-rule:evenodd"
         d="m 216.157,246.6615 c 0,0.3782 -0.1575,0.8194 -0.4727,1.3236 l -22.5,31.9537 22.5946,33.939 c 0.2521,0.3152 0.3781,0.6618 0.3781,1.04 0,0.6303 -0.4412,0.9454 -1.3235,0.9454 H 198.573 c -0.5673,0 -0.9926,-0.1261 -1.2762,-0.3782 -0.2836,-0.2521 -0.5516,-0.5672 -0.8037,-0.9454 L 177.302,283.3423 v 30.6301 c 0,0.5042 -0.189,0.9454 -0.5672,1.3236 -0.3782,0.3781 -0.8194,0.5672 -1.3236,0.5672 h -12.3845 c -0.504,0 -0.9452,-0.1891 -1.3233,-0.5672 -0.3782,-0.3782 -0.5673,-0.8194 -0.5673,-1.3236 v -66.5546 c 0,-0.5042 0.1891,-0.9295 0.5673,-1.2762 0.3781,-0.3466 0.8193,-0.5198 1.3233,-0.5198 h 12.3845 c 0.5042,0 0.9454,0.1732 1.3236,0.5198 0.3782,0.3467 0.5672,0.772 0.5672,1.2762 v 30.0631 l 20.7983,-30.7248 c 0.4412,-0.7562 1.1345,-1.1343 2.0799,-1.1343 h 14.4642 c 1.0084,0 1.5126,0.3466 1.5126,1.0397 z" />
      <path
         id="path35"
         style="fill:#ffffff;fill-rule:evenodd"
         d="m 261.7224,313.4997 c 0,1.1345 -0.6302,1.7963 -1.8908,1.9853 -1.6385,0.2521 -3.8286,0.5199 -6.5703,0.8035 -2.7415,0.2836 -6.6648,0.4256 -11.7699,0.4256 -3.0253,0 -5.9243,-0.2521 -8.6975,-0.7564 -2.773,-0.5042 -5.2152,-1.4811 -7.3267,-2.9305 -2.1114,-1.4497 -3.7973,-3.5137 -5.0576,-6.1924 -1.2606,-2.6784 -1.8908,-6.1606 -1.8908,-10.4463 v -31.3866 c 0,-4.2857 0.6302,-7.752 1.8908,-10.3991 1.2603,-2.647 2.9462,-4.6954 5.0576,-6.145 2.1115,-1.4496 4.5693,-2.4263 7.374,-2.9306 2.8045,-0.5042 5.7195,-0.7563 8.7448,-0.7563 2.5209,0 4.7425,0.0472 6.6648,0.1417 1.9224,0.0945 3.6083,0.205 5.0579,0.331 1.4494,0.1261 2.6943,0.2521 3.734,0.3782 1.04,0.126 1.9698,0.2521 2.7889,0.3781 1.2606,0.1891 1.8908,0.8192 1.8908,1.8907 v 8.7921 c 0,0.5042 -0.189,0.9452 -0.5672,1.3233 -0.3782,0.3782 -0.8194,0.5673 -1.3236,0.5673 h -19.191 c -2.206,0 -3.7658,0.4571 -4.6797,1.371 -0.9139,0.9136 -1.3708,2.5997 -1.3708,5.0576 v 8.603 h 24.4854 c 0.504,0 0.9452,0.1891 1.3234,0.5673 0.3781,0.3779 0.5672,0.8191 0.5672,1.3233 v 8.9813 c 0,0.5042 -0.1891,0.9452 -0.5672,1.3233 -0.3782,0.3782 -0.8194,0.5673 -1.3234,0.5673 h -24.4854 v 10.0211 c 0,2.4579 0.4569,4.1438 1.3708,5.0577 0.9139,0.9139 2.4737,1.3707 4.6797,1.3707 h 19.191 c 0.5042,0 0.9454,0.1891 1.3236,0.5673 0.3782,0.3781 0.5672,0.8193 0.5672,1.3236 z" />
      <path
         id="path37"
         style="fill:#ffffff;fill-rule:evenodd"
         d="m 316.2768,296.0104 c 0,2.5209 -0.4412,5.0105 -1.3236,7.4683 -0.8824,2.4581 -2.3477,4.6638 -4.3961,6.6177 -2.0482,1.9539 -4.711,3.5452 -7.9884,4.7742 -3.2772,1.2288 -7.311,1.8435 -12.1009,1.8435 -3.7814,0 -7.106,-0.1891 -9.9735,-0.5673 -2.8678,-0.3781 -5.4991,-0.8824 -7.8939,-1.5126 -0.5042,-0.1261 -0.9454,-0.3467 -1.3236,-0.6618 -0.3782,-0.3152 -0.5673,-0.7248 -0.5673,-1.2288 v -9.2649 c 0,-0.6933 0.1576,-1.166 0.4728,-1.4181 0.3151,-0.2519 0.7248,-0.378 1.229,-0.378 h 0.2836 c 0.9452,0.1261 2.2531,0.2522 3.9232,0.378 1.6702,0.126 3.3876,0.2365 5.1524,0.331 1.7647,0.0945 3.4506,0.1891 5.0578,0.2836 1.607,0.0946 2.8832,0.1417 3.8286,0.1417 3.2775,0 5.4991,-0.5357 6.6651,-1.607 1.1658,-1.0714 1.7489,-2.7417 1.7489,-5.0104 0,-1.3866 -0.4256,-2.5683 -1.2762,-3.5452 -0.8509,-0.977 -2.5055,-2.1901 -4.9633,-3.6398 l -13.0463,-7.7521 c -2.2058,-1.3236 -4.0177,-2.6785 -5.4358,-4.0651 -1.4181,-1.3866 -2.5526,-2.8362 -3.4035,-4.3487 -0.8507,-1.5127 -1.4494,-3.0725 -1.7961,-4.6797 -0.3466,-1.6072 -0.5201,-3.2616 -0.5201,-4.9633 0,-2.5839 0.3941,-4.9946 1.1819,-7.2321 0.7876,-2.2372 2.1271,-4.1911 4.0177,-5.8613 1.8908,-1.67 4.3804,-2.978 7.4686,-3.9232 3.0881,-0.9454 6.9328,-1.4181 11.5336,-1.4181 1.7017,0 3.5452,0.063 5.5303,0.1891 1.9854,0.126 3.8919,0.2836 5.7197,0.4727 1.8278,0.1891 3.5293,0.4097 5.105,0.6618 1.5757,0.2521 2.8045,0.504 3.6869,0.7561 0.3781,0.126 0.7091,0.3151 0.9928,0.5672 0.2836,0.2522 0.4253,0.6303 0.4253,1.1345 v 9.5483 c 0,0.4412 -0.1102,0.8193 -0.3308,1.1345 -0.2206,0.3151 -0.6461,0.4727 -1.2764,0.4727 h -0.1891 c -0.6931,-0.063 -1.8119,-0.1417 -3.3561,-0.2362 -1.544,-0.0946 -3.2929,-0.205 -5.2467,-0.3311 -1.9539,-0.126 -3.9549,-0.2362 -6.0031,-0.3307 -2.0484,-0.0946 -3.8603,-0.142 -5.436,-0.142 -2.7102,0 -4.6167,0.4097 -5.7194,1.2291 -1.103,0.8193 -1.6546,2.0799 -1.6546,3.7814 0,0.6933 0.0945,1.2921 0.2836,1.7963 0.1891,0.5042 0.5201,0.9926 0.9928,1.4653 0.4727,0.4727 1.1186,0.9769 1.938,1.5126 0.8194,0.5358 1.8591,1.1502 3.1196,1.8435 l 12.1009,6.5231 c 4.9159,2.6472 8.2721,5.5462 10.0683,8.6974 1.7961,3.1514 2.6944,6.6492 2.6944,10.4939 z m -14.2754,24.1069 c 0,0.2522 -0.126,0.5043 -0.3781,0.7564 l -12.0061,12.2899 c -0.3782,0.3782 -0.6933,0.6618 -0.9454,0.8509 -0.2521,0.1891 -0.6933,0.2836 -1.3236,0.2836 h -10.1155 c -0.5673,0 -0.8509,-0.2206 -0.8509,-0.6618 0,-0.3151 0.1261,-0.6302 0.3782,-0.9454 l 9.1701,-11.8172 c 0.4412,-0.5042 0.8037,-0.8665 1.0871,-1.0871 0.2836,-0.2206 0.7722,-0.331 1.4655,-0.331 h 12.4788 c 0.6933,0 1.0399,0.2206 1.0399,0.6617 z" />
      <path
         id="path39"
         style="fill:#ffffff;fill-rule:evenodd"
         d="m 364.911,313.4997 c 0,1.0714 -0.6303,1.7332 -1.8908,1.9853 -0.7563,0.1891 -1.7648,0.3467 -3.0253,0.4727 -1.2604,0.1261 -2.5998,0.2522 -4.0177,0.3782 -1.4181,0.1261 -2.8519,0.2206 -4.3015,0.2836 -1.4497,0.0631 -2.8048,0.0946 -4.0651,0.0946 -3.0253,0 -5.9402,-0.2521 -8.7448,-0.7564 -2.8047,-0.5042 -5.2625,-1.4811 -7.374,-2.9305 -2.1114,-1.4497 -3.7973,-3.5137 -5.0578,-6.1924 -1.2604,-2.6784 -1.8906,-6.1606 -1.8906,-10.4463 v -48.8761 c 0,-0.5042 0.1891,-0.9454 0.5672,-1.3234 0.3782,-0.3781 0.8194,-0.5672 1.3234,-0.5672 h 12.3845 c 0.5042,0 0.9454,0.1891 1.3235,0.5672 0.3782,0.378 0.5673,0.8192 0.5673,1.3234 v 48.8761 c 0,2.4579 0.4568,4.1438 1.3707,5.0577 0.9139,0.9139 2.4738,1.3707 4.6797,1.3707 h 16.2605 c 0.5042,0 0.9454,0.1891 1.3236,0.5673 0.3781,0.3781 0.5672,0.8193 0.5672,1.3236 z" />
      <path
         id="path41"
         style="fill:#ffffff;fill-rule:evenodd"
         d="m 435.2037,285.6507 c 0,8.7509 -2.3833,18.2998 -9.3107,24.1367 -6.4499,5.4349 -14.4623,7.1924 -22.7357,7.1924 -4.4748,0 -8.6609,-0.5528 -12.5584,-1.6585 -3.8975,-1.1057 -7.2899,-2.8747 -10.1769,-5.3072 -2.8871,-2.4327 -5.1613,-5.5766 -6.8206,-9.4299 -1.6594,-3.8535 -2.7168,-8.5296 -2.7168,-14.0266 v -8.5251 c 0,-1.3211 0.1764,-2.8827 2.6921,-2.8804 l 45.0453,0.0449 c -0.2272,-13.6156 -7.3103,-16.336 -18.6095,-16.2419 -10.2191,0.0852 -13.794,0.7234 -23.2498,1.7713 -1.5963,0.1769 -2.0157,-0.8325 -1.9849,-2.9684 l 0.1122,-7.7538 c 0.0191,-1.3145 0.3419,-2.0567 1.354,-2.4619 4.3834,-1.7541 15.5422,-2.5503 22.191,-2.8004 5.9307,-0.2231 12.0979,0.3997 17.8728,2.0373 13.203,3.7445 18.8959,15.5628 18.8959,28.9539 z m -47.5916,2.408 c 0.4827,9.3809 5.6002,14.4785 15.5452,14.4785 9.4689,0 14.743,-4.3063 15.2051,-14.4785 z" />
    </g>
    <g
       id="Layer1005">
      <path
         id="path44"
         style="fill:#ffffff;fill-rule:evenodd"
         d="m 291.7,370.1189 c 0,0.3152 -0.1145,0.5827 -0.3437,0.8119 -0.2197,0.2197 -0.4872,0.3342 -0.8118,0.3342 h -17.5929 v 18.7485 c 0,0.3151 -0.1145,0.5826 -0.3342,0.8119 -0.2292,0.2194 -0.4968,0.3341 -0.8119,0.3341 h -2.9129 c -0.3153,0 -0.5922,-0.1147 -0.8118,-0.3341 -0.2293,-0.2293 -0.3345,-0.4968 -0.3345,-0.8119 v -31.1743 c 0,-3.7247 1.003,-6.4372 3.0181,-8.1276 2.0153,-1.6906 5.0717,-2.5311 9.1785,-2.5311 0.3725,0 2.3114,0.0191 5.8164,0.0669 3.5149,0.0479 5.3773,0.1719 5.597,0.363 0.2292,0.2004 0.3437,0.4394 0.3437,0.7162 v 2.8557 c 0,0.468 -0.2196,0.6972 -0.6495,0.6972 h -11.0503 c -2.5022,0 -4.2979,0.3249 -5.3963,0.9647 -1.1078,0.6495 -1.6523,2.3114 -1.6523,4.995 v 7.9751 h 17.5929 c 0.3246,0 0.5921,0.1147 0.8118,0.3344 0.2292,0.2292 0.3437,0.4965 0.3437,0.8117 z" />
      <path
         id="path46"
         style="fill:#ffffff;fill-rule:evenodd"
         d="m 308.021,369.2785 17.268,20.6203 c 0.1814,0.1911 0.2771,0.4203 0.2771,0.6973 0,0.3723 -0.258,0.5634 -0.7545,0.5634 h -4.4507 c -0.5446,0 -0.9647,-0.1911 -1.2608,-0.5634 l -16.1698,-19.6653 v 19.0827 c 0,0.2961 -0.105,0.5634 -0.2959,0.7926 -0.2006,0.2387 -0.4393,0.3534 -0.745,0.3534 h -3.1327 c -0.2961,0 -0.5444,-0.1147 -0.7355,-0.3341 -0.2004,-0.2293 -0.2961,-0.4968 -0.2961,-0.8119 V 349.661 c 0,-0.277 0.0957,-0.5253 0.3056,-0.7545 0.2006,-0.2197 0.4682,-0.3344 0.7833,-0.3344 h 3.0181 c 0.3056,0 0.5634,0.1052 0.7735,0.3249 0.2102,0.2099 0.3247,0.4679 0.3247,0.764 v 18.5286 l 16.504,-19.0827 c 0.3344,-0.3532 0.7164,-0.5348 1.1463,-0.5348 h 4.1163 c 0.5443,0 0.8118,0.2101 0.8118,0.64 0,0.2099 -0.0764,0.3916 -0.2197,0.5634 z" />
    </g>
    <g
       id="Layer1006">
      <path
         id="path49"
         style="fill:#ffffff;fill-rule:evenodd"
         d="m 273.3379,663.8434 h 7.6867 c 0.3078,0 0.46,0.1317 0.46,0.3873 v 0.9921 c 0,0.2705 -0.1522,0.4058 -0.46,0.4058 h -9.0561 c -0.1292,0 -0.2358,-0.0413 -0.3233,-0.1202 -0.0914,-0.0827 -0.1369,-0.1843 -0.1369,-0.3083 V 663.37 c 0,-2.4127 1.164,-4.3895 3.4878,-5.9228 1.8827,-1.2551 3.0238,-2.0332 3.4343,-2.3374 0.407,-0.3045 0.7151,-0.6353 0.9205,-0.9885 0.2016,-0.3494 0.3043,-0.8042 0.3043,-1.3642 0,-0.8343 -0.27,-1.4317 -0.8065,-1.7888 -0.54,-0.3571 -1.4111,-0.5337 -2.6129,-0.5337 -0.5589,0 -1.2018,0.0377 -1.9282,0.1091 l -2.1183,0.2217 h -0.0877 c -0.2471,0 -0.3689,-0.1315 -0.3689,-0.3983 v -0.7892 c 0,-0.1354 0.0837,-0.2445 0.2474,-0.3383 0.1596,-0.0902 0.6693,-0.2029 1.5251,-0.3308 0.8518,-0.1276 1.7646,-0.1916 2.7306,-0.1916 1.8564,0 3.2292,0.327 4.1154,0.9847 0.8899,0.6577 1.3311,1.6761 1.3311,3.0552 0,0.8756 -0.2129,1.6274 -0.6466,2.2624 -0.4297,0.6351 -1.179,1.3116 -2.2477,2.0333 l -2.2631,1.5181 c -1.1751,0.7855 -2.0006,1.5144 -2.476,2.1873 -0.4754,0.6689 -0.711,1.5408 -0.711,2.6118 z" />
      <path
         id="path51"
         style="fill:#ffffff;fill-rule:evenodd"
         d="m 295.3103,658.8821 c 0,4.7271 -1.8598,7.0907 -5.5834,7.0907 -3.7422,0 -5.6135,-2.3636 -5.6135,-7.0907 v -3.074 c 0,-4.7271 1.8713,-7.0906 5.6135,-7.0906 3.7236,0 5.5834,2.3635 5.5834,7.0906 z m -2.0729,0 v -3.074 c 0,-3.5529 -1.1676,-5.3313 -3.5105,-5.3313 -2.3465,0 -3.518,1.7784 -3.518,5.3313 v 3.074 c 0,3.5607 1.1715,5.3427 3.518,5.3427 2.3429,0 3.5105,-1.782 3.5105,-5.3427 z" />
      <path
         id="path53"
         style="fill:#ffffff;fill-rule:evenodd"
         d="m 308.6631,658.8821 c 0,4.7271 -1.8598,7.0907 -5.5834,7.0907 -3.7422,0 -5.6135,-2.3636 -5.6135,-7.0907 v -3.074 c 0,-4.7271 1.8713,-7.0906 5.6135,-7.0906 3.7236,0 5.5834,2.3635 5.5834,7.0906 z m -2.0729,0 v -3.074 c 0,-3.5529 -1.1676,-5.3313 -3.5105,-5.3313 -2.3465,0 -3.518,1.7784 -3.518,5.3313 v 3.074 c 0,3.5607 1.1715,5.3427 3.518,5.3427 2.3429,0 3.5105,-1.782 3.5105,-5.3427 z" />
      <path
         id="path55"
         style="fill:#ffffff;fill-rule:evenodd"
         d="m 322.2229,660.7619 c 0,0.263 -0.1444,0.3983 -0.4335,0.3983 h -1.9817 v 4.0175 c 0,0.3006 -0.1331,0.4509 -0.3916,0.4509 h -1.3158 c -0.259,0 -0.3882,-0.1503 -0.3882,-0.4509 v -4.0175 h -6.5988 c -0.346,0 -0.5895,-0.0676 -0.7265,-0.1954 -0.1407,-0.1277 -0.209,-0.3532 -0.209,-0.6763 v -0.857 c 0,-0.3081 0.0914,-0.5899 0.27,-0.838 l 6.7624,-9.3578 c 0.1482,-0.2441 0.3688,-0.3643 0.6579,-0.3643 h 1.3463 c 0.3956,0 0.5933,0.1653 0.5933,0.4961 v 10.0828 h 1.9817 c 0.2891,0 0.4335,0.139 0.4335,0.4097 z m -4.4879,-1.3116 v -7.7152 c 0,-0.0903 -0.0304,-0.1317 -0.0914,-0.1317 h -0.0226 c -0.0572,0 -0.1218,0.0414 -0.1864,0.1317 l -5.2716,7.3958 c -0.0454,0.0675 -0.0685,0.1315 -0.0685,0.1879 0,0.0902 0.061,0.1315 0.1789,0.1315 z" />
    </g>
  </g>
</svg>
