<?xml version="1.0" encoding="UTF-8" standalone="no"?>
<!-- Created with Inkscape (http://www.inkscape.org/) -->

<svg
   xmlns:dc="http://purl.org/dc/elements/1.1/"
   xmlns:cc="http://creativecommons.org/ns#"
   xmlns:rdf="http://www.w3.org/1999/02/22-rdf-syntax-ns#"
   xmlns:svg="http://www.w3.org/2000/svg"
   xmlns="http://www.w3.org/2000/svg"
   xmlns:sodipodi="http://sodipodi.sourceforge.net/DTD/sodipodi-0.dtd"
   xmlns:inkscape="http://www.inkscape.org/namespaces/inkscape"
   version="1.1"
   id="svg766"
   xml:space="preserve"
   width="480"
   height="666.66669"
   viewBox="0 0 480 666.66669"
   sodipodi:docname="K.F. Shkendija.svg"
   inkscape:version="0.92.1 r15371"><metadata
     id="metadata772"><rdf:RDF><cc:Work
         rdf:about=""><dc:format>image/svg+xml</dc:format><dc:type
           rdf:resource="http://purl.org/dc/dcmitype/StillImage" /><dc:title></dc:title></cc:Work></rdf:RDF></metadata><defs
     id="defs770"><clipPath
       clipPathUnits="userSpaceOnUse"
       id="clipPath782"><path
         d="M 0,500 H 360 V 0 H 0 Z"
         id="path780"
         inkscape:connector-curvature="0" /></clipPath></defs><sodipodi:namedview
     pagecolor="#ffffff"
     bordercolor="#666666"
     borderopacity="1"
     objecttolerance="10"
     gridtolerance="10"
     guidetolerance="10"
     inkscape:pageopacity="0"
     inkscape:pageshadow="2"
     inkscape:window-width="1680"
     inkscape:window-height="987"
     id="namedview768"
     showgrid="false"
     inkscape:zoom="0.35399999"
     inkscape:cx="240"
     inkscape:cy="333.33334"
     inkscape:window-x="-8"
     inkscape:window-y="-8"
     inkscape:window-maximized="1"
     inkscape:current-layer="g774" /><g
     id="g774"
     inkscape:groupmode="layer"
     inkscape:label="K.F. Shkendija"
     transform="matrix(1.3333333,0,0,-1.3333333,0,666.66667)"><g
       id="g776"><g
         id="g778"
         clip-path="url(#clipPath782)"><g
           id="g784"
           transform="translate(343.0068,261.8457)"><path
             d="m 0,0 c -0.04,1.148 -0.096,2.291 -0.147,3.436 -0.036,0.79 -0.064,1.582 -0.105,2.37 -0.08,1.546 -0.177,3.085 -0.278,4.623 -0.024,0.356 -0.041,0.716 -0.067,1.071 C -1.131,19.229 -1.94,26.861 -3,34.381 h -320.014 c -1.059,-7.52 -1.868,-15.152 -2.403,-22.881 -0.025,-0.355 -0.043,-0.715 -0.067,-1.071 -0.101,-1.538 -0.198,-3.077 -0.278,-4.623 -0.04,-0.788 -0.07,-1.58 -0.105,-2.37 -0.051,-1.145 -0.107,-2.288 -0.147,-3.436 -0.04,-1.156 -0.064,-2.318 -0.092,-3.479 -0.02,-0.804 -0.048,-1.608 -0.062,-2.416 -0.034,-1.977 -0.052,-3.96 -0.052,-5.952 0,-1.989 0.018,-3.973 0.052,-5.952 0.014,-0.808 0.042,-1.615 0.062,-2.422 0.028,-1.158 0.052,-2.318 0.092,-3.472 0.04,-1.151 0.096,-2.297 0.148,-3.446 0.035,-0.785 0.064,-1.574 0.104,-2.357 0.081,-1.551 0.178,-3.096 0.279,-4.641 0.024,-0.349 0.041,-0.703 0.066,-1.054 3.709,-53.61 20.188,-102.707 47.332,-140.141 30.525,-42.098 71.394,-65.281 115.077,-65.281 43.684,0 84.552,23.183 115.079,65.281 27.144,37.434 43.623,86.531 47.332,140.141 0.025,0.351 0.043,0.705 0.066,1.054 0.102,1.545 0.199,3.09 0.279,4.641 0.041,0.783 0.069,1.572 0.105,2.357 0.051,1.149 0.107,2.295 0.147,3.446 0.04,1.154 0.063,2.314 0.092,3.472 0.014,0.602 0.032,1.203 0.047,1.807 V -5.279 C 0.124,-4.68 0.106,-4.078 0.092,-3.479 0.063,-2.318 0.04,-1.156 0,0"
             style="fill:#e32325;fill-opacity:1;fill-rule:nonzero;stroke:none"
             id="path786"
             inkscape:connector-curvature="0" /></g><g
           id="g788"
           transform="translate(41.959,126.373)"><path
             d="m 0,0 c 6.487,-14.348 14.16,-27.719 22.962,-39.859 0.705,-0.971 1.421,-1.922 2.137,-2.873 V 169.854 H 0 Z"
             style="fill:#231f20;fill-opacity:1;fill-rule:nonzero;stroke:none"
             id="path790"
             inkscape:connector-curvature="0" /></g><g
           id="g792"
           transform="translate(92.1563,267.3936)"><path
             d="m 0,0 v -211.093 c 7.98,-7.041 16.372,-13.08 25.099,-18.056 V -39.05 C 13.689,-28.499 4.956,-15.108 0,0"
             style="fill:#231f20;fill-opacity:1;fill-rule:nonzero;stroke:none"
             id="path794"
             inkscape:connector-curvature="0" /></g><g
           id="g796"
           transform="translate(142.3545,27.1641)"><path
             d="M 0,0 C 8.188,-2.629 16.572,-4.408 25.098,-5.283 V 177.479 C 16.273,178.676 7.85,181.119 0,184.623 Z"
             style="fill:#231f20;fill-opacity:1;fill-rule:nonzero;stroke:none"
             id="path798"
             inkscape:connector-curvature="0" /></g><g
           id="g800"
           transform="translate(192.5518,21.8809)"><path
             d="M 0,0 C 8.525,0.877 16.909,2.656 25.098,5.285 V 189.908 C 17.248,186.402 8.824,183.961 0,182.764 Z"
             style="fill:#231f20;fill-opacity:1;fill-rule:nonzero;stroke:none"
             id="path802"
             inkscape:connector-curvature="0" /></g><g
           id="g804"
           transform="translate(242.748,228.3457)"><path
             d="m 0,0 v -190.098 c 8.728,4.977 17.119,11.016 25.1,18.057 v 211.1 C 20.145,23.948 11.41,10.555 0,0"
             style="fill:#231f20;fill-opacity:1;fill-rule:nonzero;stroke:none"
             id="path806"
             inkscape:connector-curvature="0" /></g><g
           id="g808"
           transform="translate(292.9463,296.2266)"><path
             d="m 0,0 v -212.58 c 0.714,0.949 1.428,1.898 2.132,2.867 8.804,12.143 16.477,25.516 22.966,39.867 L 25.098,0 Z"
             style="fill:#231f20;fill-opacity:1;fill-rule:nonzero;stroke:none"
             id="path810"
             inkscape:connector-curvature="0" /></g><g
           id="g812"
           transform="translate(295.0781,413.4858)"><path
             d="m 0,0 c -30.526,42.097 -71.396,65.281 -115.079,65.281 -43.684,0 -84.552,-23.184 -115.078,-65.281 -23.23,-32.036 -38.64,-72.619 -44.928,-117.259 H 44.929 C 38.641,-72.619 23.229,-32.036 0,0"
             style="fill:#ffffff;fill-opacity:1;fill-rule:nonzero;stroke:none"
             id="path814"
             inkscape:connector-curvature="0" /></g><g
           id="g816"
           transform="translate(343.1611,244.0469)"><path
             d="m 0,0 c -0.014,-0.809 -0.042,-1.615 -0.062,-2.422 -0.029,-1.158 -0.052,-2.318 -0.092,-3.473 -0.04,-1.15 -0.096,-2.296 -0.148,-3.445 -0.035,-0.785 -0.063,-1.574 -0.104,-2.357 -0.08,-1.551 -0.177,-3.096 -0.28,-4.641 -0.022,-0.349 -0.041,-0.703 -0.065,-1.055 -3.709,-53.609 -20.188,-102.707 -47.332,-140.14 -30.527,-42.098 -71.396,-65.281 -115.079,-65.281 -43.684,0 -84.552,23.183 -115.078,65.281 -27.143,37.433 -43.622,86.531 -47.332,140.14 -0.024,0.352 -0.042,0.706 -0.065,1.055 -0.102,1.545 -0.198,3.09 -0.28,4.641 -0.04,0.783 -0.068,1.572 -0.104,2.357 -0.051,1.149 -0.107,2.295 -0.147,3.445 -0.04,1.155 -0.064,2.315 -0.092,3.473 -0.02,0.807 -0.048,1.613 -0.062,2.422 -0.034,1.979 -0.053,3.963 -0.053,5.952 0,1.992 0.019,3.975 0.053,5.952 0.014,0.808 0.042,1.612 0.062,2.416 0.028,1.16 0.052,2.323 0.092,3.479 0.04,1.148 0.096,2.291 0.147,3.435 0.035,0.79 0.064,1.582 0.104,2.37 0.081,1.546 0.178,3.085 0.279,4.624 0.023,0.356 0.042,0.715 0.067,1.071 3.709,53.609 20.188,102.707 47.331,140.14 30.526,42.097 71.394,65.281 115.078,65.281 43.683,0 84.553,-23.184 115.079,-65.281 27.144,-37.433 43.623,-86.531 47.332,-140.14 0.025,-0.356 0.043,-0.715 0.066,-1.071 0.102,-1.539 0.199,-3.078 0.279,-4.624 0.041,-0.788 0.069,-1.58 0.104,-2.37 0.052,-1.144 0.108,-2.287 0.148,-3.435 0.04,-1.156 0.063,-2.319 0.092,-3.479 C -0.042,13.516 -0.014,12.712 0,11.904 0.034,9.927 0.053,7.944 0.053,5.952 0.053,3.963 0.034,1.979 0,0 m 6.448,-0.184 c 0.035,2.041 0.055,4.088 0.055,6.136 0,2.05 -0.02,4.095 -0.055,6.136 -0.002,0.164 -0.01,0.326 -0.012,0.49 -1.161,61.865 -18.546,119.821 -49.264,163.826 -32.057,45.924 -74.792,71.216 -120.334,71.216 -45.542,0 -88.276,-25.292 -120.334,-71.217 -30.715,-44.004 -48.102,-101.96 -49.262,-163.825 -0.003,-0.164 -0.01,-0.326 -0.013,-0.49 -0.035,-2.041 -0.054,-4.086 -0.054,-6.136 0,-2.048 0.019,-4.095 0.054,-6.136 0.003,-0.164 0.01,-0.33 0.013,-0.496 1.161,-61.861 18.548,-119.814 49.262,-163.818 32.058,-45.926 74.793,-71.217 120.334,-71.217 45.542,0 88.277,25.291 120.334,71.217 30.717,44.004 48.102,101.957 49.264,163.818 0.002,0.166 0.01,0.332 0.012,0.496"
             style="fill:#231f20;fill-opacity:1;fill-rule:nonzero;stroke:none"
             id="path818"
             inkscape:connector-curvature="0" /></g><g
           id="g820"
           transform="translate(111.1611,301.4922)"><path
             d="m 0,0 c 0,-38.021 30.82,-68.84 68.838,-68.84 38.019,0 68.84,30.819 68.84,68.84 0,38.016 -30.821,68.835 -68.84,68.835 C 30.82,68.835 0,38.016 0,0"
             style="fill:#ffffff;fill-opacity:1;fill-rule:nonzero;stroke:#231f20;stroke-width:2;stroke-linecap:butt;stroke-linejoin:miter;stroke-miterlimit:10;stroke-dasharray:none;stroke-opacity:1"
             id="path822"
             inkscape:connector-curvature="0" /></g><g
           id="g824"
           transform="translate(240.7637,299.3467)"><path
             d="m 0,0 c 0.078,-3.938 -1.635,-20.251 -7.695,-25.942 -0.881,-0.829 -1.648,-1.335 -2.324,-1.892 -7.743,-3.905 -14.317,-4.866 -17.988,-5.114 -3.003,-0.049 -3.661,1.044 -3.661,1.044 0,0 -11.22,16.579 -12.889,19.45 -0.616,1.058 -0.878,1.937 -0.962,2.611 1.075,2.198 3.193,6.75 4.798,11.328 2.448,6.972 3.541,11.305 3.993,13.37 0.539,0.752 1.653,1.676 3.939,2.53 4.325,1.614 9.518,4.107 18.23,4.764 0.167,0.013 0.351,-0.657 0.535,-0.668 6.876,-4.83 13.988,-21.328 13.988,-21.328 h 0.01 C -0.015,0.153 -0.006,0.298 0,0 m -60.765,-56.604 c -8.275,0.228 -12.304,1.3 -14.244,2.181 -1.072,1.084 -12.653,12.928 -14.102,19.931 0.078,0.584 0.204,1.149 0.412,1.661 1.163,2.876 12.754,19.297 12.754,19.297 0,0 1,1.328 2.592,2.146 2.442,-0.238 7.147,-0.609 12.686,-0.609 6.193,0 12.494,0.599 14.088,0.761 0.895,-0.697 1.421,-1.397 1.421,-1.397 0,0 11.593,-16.423 12.757,-19.298 0.484,-1.201 0.552,-2.7 0.463,-4.043 -3.019,-7.422 -13.539,-17.943 -13.539,-17.943 0.025,-0.023 0.049,-0.049 0.073,-0.074 -2.66,-1.369 -7.399,-2.832 -15.361,-2.613 m -60.121,55.757 c 0.054,3.032 0.341,4.08 0.468,4.405 2.041,4.156 6.959,13.494 11.956,17.767 1.097,0.505 2.241,0.756 3.137,0.69 8.712,-0.659 13.904,-3.15 18.228,-4.766 0.918,-0.34 1.645,-0.695 2.223,-1.043 0.121,-0.736 0.969,-5.338 4.256,-14.715 1.753,-5.001 4.123,-9.962 5.066,-11.868 -0.033,-0.713 -0.263,-1.702 -0.992,-2.956 -1.671,-2.871 -12.891,-19.43 -12.891,-19.43 0,0 -0.294,-0.469 -1.384,-0.766 -3.166,0.053 -10.834,0.746 -20.092,5.542 -0.549,0.467 -1.155,1.005 -1.825,1.633 -6.078,5.675 -8.216,21.568 -8.15,25.507 m 23.44,56.915 c 5.334,3.717 11.23,5.411 14.709,6.144 -0.012,-0.051 -0.019,-0.09 -0.019,-0.09 10.265,0.149 19.138,-4.051 21.95,-5.538 0.36,-0.343 0.716,-0.961 0.799,-2.073 0.18,-2.404 -0.66,-20.789 -0.66,-20.789 0,0 0.006,-0.758 -0.581,-1.576 -1.928,-1.086 -8.23,-4.668 -12.158,-7.216 -3.72,-2.411 -8.677,-6.343 -10.635,-7.924 -1.33,0.092 -2.587,0.645 -2.587,0.645 -5.943,2.67 -16.226,4.808 -18.496,4.942 -0.99,0.058 -1.675,0.586 -2.135,1.162 -0.901,3.249 -2.943,12.256 -0.528,20.136 1.136,2.446 4.178,7.885 10.341,12.177 m 58.727,6.725 c 3.527,-0.789 9.11,-2.495 14.185,-6.029 8.217,-5.722 10.888,-13.478 10.888,-13.478 l 0.259,-0.296 c 2.291,-8.737 -0.544,-18.524 -1.076,-20.223 -0.096,-0.017 -0.195,-0.033 -0.295,-0.039 -2.273,-0.133 -12.557,-2.272 -18.502,-4.942 0,0 -2.268,-1.002 -3.936,-0.533 -0.165,0.045 -0.292,0.033 -0.394,-0.008 -2.13,1.709 -6.795,5.387 -10.339,7.685 -3.53,2.286 -8.969,5.408 -11.44,6.809 -0.45,0.594 -0.956,1.403 -0.905,1.983 0.086,1.023 0.463,19.041 0.714,21.011 0.096,0.778 0.263,1.364 0.453,1.811 6.708,3.969 17.239,5.778 20.388,6.249 M 6.821,9.594 c -0.09,14.688 -9.613,29.469 -9.613,29.469 -4.819,4.147 -8.577,4.977 -10.153,5.133 -1.154,2.06 -4.688,7.684 -11.201,12.563 -4.75,3.554 -10.124,5.429 -13.785,6.377 -2.808,4.393 -8.409,6.377 -8.409,6.377 -15.848,4.095 -30.895,-0.534 -30.895,-0.534 -3.657,-2.482 -4.918,-5.007 -5.328,-6.18 -3.566,-0.793 -9.827,-2.663 -15.266,-6.736 -5.897,-4.414 -9.354,-9.441 -10.812,-11.882 -1.652,-0.197 -5.327,-1.1 -9.994,-5.118 0,0 -9.778,-14.781 -9.866,-29.469 0,0 2.144,-6.358 6.852,-8.015 0.012,-0.296 0.021,-0.61 0.032,-0.956 0.131,-6.277 2.202,-17.028 5.54,-23.104 1.43,-2.603 2.662,-4.38 3.268,-5.209 -0.593,-1.768 -1.96,-7.342 1.029,-15.069 0,0 6.411,-11.131 23.239,-17.986 0,0 8.366,0.771 13.313,5.906 1.936,-0.799 6.097,-1.904 14.463,-2.064 8.687,-0.168 13.53,1.226 15.952,2.304 4.979,-4.812 12.961,-5.548 12.961,-5.548 16.827,6.855 23.234,17.984 23.234,17.984 3.068,7.928 1.552,13.594 0.986,15.203 0.598,0.822 1.83,2.608 3.265,5.232 3.262,5.972 4.918,17.158 5.093,23.506 4.337,1.916 6.095,7.816 6.095,7.816"
             style="fill:#070405;fill-opacity:1;fill-rule:nonzero;stroke:none"
             id="path826"
             inkscape:connector-curvature="0" /></g><g
           id="g828"
           transform="translate(240.7637,299.3467)"><path
             d="m 0,0 c 0.078,-3.938 -1.635,-20.251 -7.695,-25.942 -0.881,-0.829 -1.648,-1.335 -2.324,-1.892 -7.743,-3.905 -14.317,-4.866 -17.988,-5.114 -3.003,-0.049 -3.661,1.044 -3.661,1.044 0,0 -11.22,16.579 -12.889,19.45 -0.616,1.058 -0.878,1.937 -0.962,2.611 1.075,2.198 3.193,6.75 4.798,11.328 2.448,6.972 3.541,11.305 3.993,13.37 0.539,0.752 1.653,1.676 3.939,2.53 4.325,1.614 9.518,4.107 18.23,4.764 0.167,0.013 0.351,-0.657 0.535,-0.668 6.876,-4.83 13.988,-21.328 13.988,-21.328 h 0.01 C -0.015,0.153 -0.006,0.298 0,0 Z m -60.765,-56.604 c -8.275,0.228 -12.304,1.3 -14.244,2.181 -1.072,1.084 -12.653,12.928 -14.102,19.931 0.078,0.584 0.204,1.149 0.412,1.661 1.163,2.876 12.754,19.297 12.754,19.297 0,0 1,1.328 2.592,2.146 2.442,-0.238 7.147,-0.609 12.686,-0.609 6.193,0 12.494,0.599 14.088,0.761 0.895,-0.697 1.421,-1.397 1.421,-1.397 0,0 11.593,-16.423 12.757,-19.298 0.484,-1.201 0.552,-2.7 0.463,-4.043 -3.019,-7.422 -13.539,-17.943 -13.539,-17.943 0.025,-0.023 0.049,-0.049 0.073,-0.074 -2.66,-1.369 -7.399,-2.832 -15.361,-2.613 z m -60.121,55.757 c 0.054,3.032 0.341,4.08 0.468,4.405 2.041,4.156 6.959,13.494 11.956,17.767 1.097,0.505 2.241,0.756 3.137,0.69 8.712,-0.659 13.904,-3.15 18.228,-4.766 0.918,-0.34 1.645,-0.695 2.223,-1.043 0.121,-0.736 0.969,-5.338 4.256,-14.715 1.753,-5.001 4.123,-9.962 5.066,-11.868 -0.033,-0.713 -0.263,-1.702 -0.992,-2.956 -1.671,-2.871 -12.891,-19.43 -12.891,-19.43 0,0 -0.294,-0.469 -1.384,-0.766 -3.166,0.053 -10.834,0.746 -20.092,5.542 -0.549,0.467 -1.155,1.005 -1.825,1.633 -6.078,5.675 -8.216,21.568 -8.15,25.507 z m 23.44,56.915 c 5.334,3.717 11.23,5.411 14.709,6.144 -0.012,-0.051 -0.019,-0.09 -0.019,-0.09 10.265,0.149 19.138,-4.051 21.95,-5.538 0.36,-0.343 0.716,-0.961 0.799,-2.073 0.18,-2.404 -0.66,-20.789 -0.66,-20.789 0,0 0.006,-0.758 -0.581,-1.576 -1.928,-1.086 -8.23,-4.668 -12.158,-7.216 -3.72,-2.411 -8.677,-6.343 -10.635,-7.924 -1.33,0.092 -2.587,0.645 -2.587,0.645 -5.943,2.67 -16.226,4.808 -18.496,4.942 -0.99,0.058 -1.675,0.586 -2.135,1.162 -0.901,3.249 -2.943,12.256 -0.528,20.136 1.136,2.446 4.178,7.885 10.341,12.177 z m 58.727,6.725 c 3.527,-0.789 9.11,-2.495 14.185,-6.029 8.217,-5.722 10.888,-13.478 10.888,-13.478 l 0.259,-0.296 c 2.291,-8.737 -0.544,-18.524 -1.076,-20.223 -0.096,-0.017 -0.195,-0.033 -0.295,-0.039 -2.273,-0.133 -12.557,-2.272 -18.502,-4.942 0,0 -2.268,-1.002 -3.936,-0.533 -0.165,0.045 -0.292,0.033 -0.394,-0.008 -2.13,1.709 -6.795,5.387 -10.339,7.685 -3.53,2.286 -8.969,5.408 -11.44,6.809 -0.45,0.594 -0.956,1.403 -0.905,1.983 0.086,1.023 0.463,19.041 0.714,21.011 0.096,0.778 0.263,1.364 0.453,1.811 6.708,3.969 17.239,5.778 20.388,6.249 z M 6.821,9.594 c -0.09,14.688 -9.613,29.469 -9.613,29.469 -4.819,4.147 -8.577,4.977 -10.153,5.133 -1.154,2.06 -4.688,7.684 -11.201,12.563 -4.75,3.554 -10.124,5.429 -13.785,6.377 -2.808,4.393 -8.409,6.377 -8.409,6.377 -15.848,4.095 -30.895,-0.534 -30.895,-0.534 -3.657,-2.482 -4.918,-5.007 -5.328,-6.18 -3.566,-0.793 -9.827,-2.663 -15.266,-6.736 -5.897,-4.414 -9.354,-9.441 -10.812,-11.882 -1.652,-0.197 -5.327,-1.1 -9.994,-5.118 0,0 -9.778,-14.781 -9.866,-29.469 0,0 2.144,-6.358 6.852,-8.015 0.012,-0.296 0.021,-0.61 0.032,-0.956 0.131,-6.277 2.202,-17.028 5.54,-23.104 1.43,-2.603 2.662,-4.38 3.268,-5.209 -0.593,-1.768 -1.96,-7.342 1.029,-15.069 0,0 6.411,-11.131 23.239,-17.986 0,0 8.366,0.771 13.313,5.906 1.936,-0.799 6.097,-1.904 14.463,-2.064 8.687,-0.168 13.53,1.226 15.952,2.304 4.979,-4.812 12.961,-5.548 12.961,-5.548 16.827,6.855 23.234,17.984 23.234,17.984 3.068,7.928 1.552,13.594 0.986,15.203 0.598,0.822 1.83,2.608 3.265,5.232 3.262,5.972 4.918,17.158 5.093,23.506 4.337,1.916 6.095,7.816 6.095,7.816 z"
             style="fill:none;stroke:#231f20;stroke-width:1;stroke-linecap:butt;stroke-linejoin:miter;stroke-miterlimit:10;stroke-dasharray:none;stroke-opacity:1"
             id="path830"
             inkscape:connector-curvature="0" /></g><g
           id="g832"
           transform="translate(180,471.0596)"><path
             d="m 0,0 4.174,-12.847 h 13.509 l -10.929,-7.94 4.174,-12.847 -10.928,7.94 -10.929,-7.94 4.174,12.847 -10.928,7.94 h 13.508 z"
             style="fill:#d2ac67;fill-opacity:1;fill-rule:nonzero;stroke:none"
             id="path834"
             inkscape:connector-curvature="0" /></g><g
           id="g836"
           transform="translate(67.4946,329.3145)"><path
             d="m 0,0 2.264,6.512 7.965,-2.77 -5.594,9.592 3.012,8.662 5.281,-10.457 15.915,3.474 -2.788,-8.02 -10.213,-1.431 2.355,-4.589 5.143,-1.788 -2.264,-6.513 z"
             style="fill:#231f20;fill-opacity:1;fill-rule:nonzero;stroke:none"
             id="path838"
             inkscape:connector-curvature="0" /></g><g
           id="g840"
           transform="translate(78.9414,357.7759)"><path
             d="m 0,0 9.327,14.27 4.014,-2.624 -5.538,-8.472 3.261,-2.132 4.73,7.237 3.771,-2.466 -4.73,-7.236 7.632,-4.988 -3.789,-5.797 z"
             style="fill:#231f20;fill-opacity:1;fill-rule:nonzero;stroke:none"
             id="path842"
             inkscape:connector-curvature="0" /></g><g
           id="g844"
           transform="translate(111.7842,375.9116)"><path
             d="M 0,0 5.009,4.256 C 5.761,3.488 6.478,3.011 7.162,2.825 8.271,2.526 9.354,2.772 10.411,3.562 11.199,4.151 11.669,4.79 11.819,5.479 11.97,6.167 11.863,6.756 11.498,7.244 11.152,7.707 10.639,7.97 9.959,8.031 9.279,8.093 8.079,7.734 6.356,6.954 3.527,5.688 1.259,5.121 -0.447,5.252 c -1.715,0.125 -3.095,0.886 -4.139,2.285 -0.687,0.918 -1.069,1.984 -1.147,3.199 -0.079,1.215 0.243,2.455 0.962,3.722 0.72,1.266 2.01,2.594 3.872,3.985 2.284,1.707 4.342,2.583 6.176,2.63 1.834,0.047 3.557,-0.772 5.17,-2.455 L 5.468,14.423 C 4.729,15.124 4,15.492 3.285,15.527 2.568,15.562 1.82,15.288 1.04,14.705 0.397,14.225 0.015,13.727 -0.106,13.212 c -0.122,-0.516 -0.037,-0.968 0.254,-1.358 0.213,-0.285 0.539,-0.44 0.977,-0.468 0.436,-0.041 1.218,0.201 2.345,0.727 2.803,1.283 4.926,2.05 6.368,2.298 1.442,0.248 2.696,0.155 3.76,-0.278 1.065,-0.433 1.962,-1.137 2.691,-2.112 0.856,-1.146 1.329,-2.44 1.418,-3.881 C 17.795,6.699 17.458,5.303 16.693,3.953 15.929,2.603 14.681,1.28 12.95,-0.013 9.91,-2.285 7.367,-3.273 5.322,-2.977 3.277,-2.681 1.503,-1.689 0,0"
             style="fill:#231f20;fill-opacity:1;fill-rule:nonzero;stroke:none"
             id="path846"
             inkscape:connector-curvature="0" /></g><g
           id="g848"
           transform="translate(126.2935,404.1846)"><path
             d="m 0,0 6.377,2.622 2.969,-7.222 6.969,2.864 -2.969,7.222 6.404,2.633 8.485,-20.638 -6.406,-2.633 -3.432,8.348 -6.969,-2.864 3.432,-8.348 -6.377,-2.621 z"
             style="fill:#231f20;fill-opacity:1;fill-rule:nonzero;stroke:none"
             id="path850"
             inkscape:connector-curvature="0" /></g><g
           id="g852"
           transform="translate(155.3154,414.7202)"><path
             d="m 0,0 6.845,0.834 1.02,-8.37 6.149,9.244 9.103,1.11 -7.064,-9.346 10.127,-12.76 -8.429,-1.027 -5.78,8.54 -3.085,-4.136 0.659,-5.404 -6.844,-0.835 z"
             style="fill:#231f20;fill-opacity:1;fill-rule:nonzero;stroke:none"
             id="path854"
             inkscape:connector-curvature="0" /></g><g
           id="g856"
           transform="translate(196.7256,420.939)"><path
             d="m 0,0 3.97,-0.509 -0.485,-3.775 -3.97,0.51 z m -6.402,0.821 3.926,-0.503 -0.485,-3.774 -3.925,0.503 z m -4.422,-4.696 18.326,-2.351 -0.606,-4.726 -11.474,1.473 -0.451,-3.518 10.643,-1.366 -0.579,-4.513 -10.643,1.365 -0.559,-4.363 11.805,-1.515 -0.643,-5.012 -18.66,2.395 z"
             style="fill:#231f20;fill-opacity:1;fill-rule:nonzero;stroke:none"
             id="path858"
             inkscape:connector-curvature="0" /></g><g
           id="g860"
           transform="translate(212.9473,412.6035)"><path
             d="m 0,0 5.978,-2.392 3.214,-14.582 4.586,11.461 6.034,-2.414 -8.289,-20.717 -6.034,2.415 -3.207,14.479 -4.551,-11.375 -6.02,2.408 z"
             style="fill:#231f20;fill-opacity:1;fill-rule:nonzero;stroke:none"
             id="path862"
             inkscape:connector-curvature="0" /></g><g
           id="g864"
           transform="translate(243.5547,391.7197)"><path
             d="m 0,0 -7.282,-9.777 1.354,-1.009 c 1.156,-0.861 2.074,-1.345 2.752,-1.453 0.68,-0.107 1.395,0.055 2.148,0.489 0.753,0.432 1.662,1.364 2.729,2.796 1.412,1.896 2.07,3.425 1.973,4.586 -0.098,1.16 -0.862,2.274 -2.294,3.341 z m -2.51,8.172 8.214,-6.12 c 1.62,-1.206 2.765,-2.401 3.435,-3.583 0.668,-1.181 1.022,-2.426 1.06,-3.732 0.039,-1.307 -0.201,-2.615 -0.72,-3.924 -0.519,-1.308 -1.233,-2.573 -2.142,-3.794 -1.425,-1.912 -2.748,-3.233 -3.968,-3.962 -1.221,-0.73 -2.482,-1.162 -3.785,-1.299 -1.305,-0.136 -2.487,0.008 -3.55,0.433 -1.455,0.578 -2.675,1.233 -3.66,1.967 l -8.214,6.119 z"
             style="fill:#231f20;fill-opacity:1;fill-rule:nonzero;stroke:none"
             id="path866"
             inkscape:connector-curvature="0" /></g><g
           id="g868"
           transform="translate(263.1904,381.5083)"><path
             d="m 0,0 4.639,-5.122 -16.54,-14.977 -4.638,5.122 z"
             style="fill:#231f20;fill-opacity:1;fill-rule:nonzero;stroke:none"
             id="path870"
             inkscape:connector-curvature="0" /></g><g
           id="g872"
           transform="translate(278.6445,361.3667)"><path
             d="m 0,0 3.65,-5.867 -10.294,-6.404 c -2.161,-1.345 -3.924,-2.176 -5.291,-2.494 -1.367,-0.318 -2.802,-0.143 -4.306,0.529 -1.505,0.672 -2.82,1.912 -3.945,3.721 -1.19,1.913 -1.854,3.556 -1.991,4.929 -0.136,1.372 0.115,2.654 0.752,3.847 0.64,1.192 1.659,2.295 3.06,3.31 l 4.243,-5.122 c -0.83,-0.529 -1.404,-0.988 -1.724,-1.377 -0.319,-0.39 -0.502,-0.826 -0.548,-1.309 -0.025,-0.326 0.092,-0.696 0.35,-1.11 0.407,-0.654 0.949,-0.983 1.625,-0.986 0.677,-0.003 1.593,0.353 2.745,1.071 z"
             style="fill:#231f20;fill-opacity:1;fill-rule:nonzero;stroke:none"
             id="path874"
             inkscape:connector-curvature="0" /></g><g
           id="g876"
           transform="translate(276.9834,331.8594)"><path
             d="M 0,0 6.803,4.912 -1.576,4.641 Z m -4.108,-2.906 -2.519,7.412 -3.837,-0.154 -2.265,6.666 23.826,-0.764 2.419,-7.121 -18.43,-15.117 -2.322,6.837 z"
             style="fill:#231f20;fill-opacity:1;fill-rule:nonzero;stroke:none"
             id="path878"
             inkscape:connector-curvature="0" /></g><g
           id="g880"
           transform="translate(242.833,251.4009)"><path
             d="m 0,0 c -0.713,0.594 -1.418,0.877 -2.111,0.844 -0.695,-0.032 -1.24,-0.283 -1.634,-0.756 -0.376,-0.449 -0.526,-0.959 -0.451,-1.524 0.073,-0.566 0.477,-1.156 1.211,-1.77 0.745,-0.621 1.425,-0.916 2.044,-0.884 0.619,0.031 1.129,0.289 1.535,0.773 0.389,0.467 0.552,1.001 0.483,1.602 C 1.009,-1.115 0.649,-0.543 0,0 m 0.231,-9.534 1.73,2.549 c 0.484,-0.307 0.931,-0.426 1.343,-0.359 0.412,0.068 0.784,0.301 1.117,0.697 0.419,0.502 0.565,1.104 0.439,1.807 -0.125,0.701 -0.807,1.652 -2.046,2.856 0.133,-1.151 -0.181,-2.184 -0.948,-3.1 -0.833,-0.999 -1.902,-1.567 -3.206,-1.706 -1.304,-0.138 -2.517,0.26 -3.639,1.196 -1.168,0.976 -1.792,2.146 -1.869,3.508 -0.077,1.363 0.377,2.635 1.366,3.816 1.074,1.286 2.407,1.963 4,2.032 C 0.111,3.832 1.942,3.001 4.013,1.271 6.12,-0.488 7.281,-2.188 7.497,-3.827 7.712,-5.465 7.244,-6.973 6.093,-8.352 5.265,-9.344 4.354,-9.944 3.364,-10.155 2.374,-10.366 1.331,-10.159 0.231,-9.534"
             style="fill:#ffffff;fill-opacity:1;fill-rule:nonzero;stroke:none"
             id="path882"
             inkscape:connector-curvature="0" /></g><g
           id="g884"
           transform="translate(226.7412,238.8594)"><path
             d="M 0,0 -1.744,2.025 6.459,9.096 7.824,7.512 C 7.668,6.322 7.729,4.859 8.005,3.123 8.28,1.387 8.784,-0.277 9.517,-1.869 10.249,-3.461 11.05,-4.756 11.921,-5.754 L 9.606,-7.748 C 8.291,-6.141 7.267,-4.229 6.532,-2.012 5.798,0.203 5.438,2.441 5.455,4.701 Z"
             style="fill:#ffffff;fill-opacity:1;fill-rule:nonzero;stroke:none"
             id="path886"
             inkscape:connector-curvature="0" /></g><g
           id="g888"
           transform="translate(223.2422,233.752)"><path
             d="m 0,0 c -0.482,0.793 -1.058,1.287 -1.726,1.479 -0.667,0.195 -1.263,0.13 -1.79,-0.19 -0.501,-0.305 -0.807,-0.736 -0.919,-1.297 -0.112,-0.56 0.081,-1.248 0.579,-2.064 0.503,-0.828 1.053,-1.328 1.648,-1.498 0.596,-0.168 1.164,-0.088 1.702,0.238 0.52,0.318 0.844,0.769 0.974,1.361 C 0.597,-1.381 0.44,-0.725 0,0 m -2.852,-9.1 2.459,1.856 c 0.359,-0.445 0.744,-0.701 1.156,-0.772 0.411,-0.068 0.839,0.032 1.281,0.301 0.559,0.34 0.892,0.861 0.999,1.567 0.106,0.705 -0.232,1.826 -1.018,3.363 -0.243,-1.131 -0.876,-2.008 -1.895,-2.631 -1.11,-0.674 -2.306,-0.869 -3.585,-0.58 -1.279,0.289 -2.299,1.059 -3.059,2.307 -0.792,1.3 -1.005,2.607 -0.639,3.921 0.365,1.315 1.206,2.372 2.521,3.172 1.431,0.871 2.911,1.082 4.443,0.635 C 1.341,3.592 2.808,2.215 4.21,-0.09 5.637,-2.434 6.189,-4.416 5.864,-6.037 5.54,-7.658 4.612,-8.936 3.078,-9.869 c -1.104,-0.672 -2.158,-0.947 -3.164,-0.828 -1.005,0.119 -1.927,0.652 -2.766,1.597"
             style="fill:#ffffff;fill-opacity:1;fill-rule:nonzero;stroke:none"
             id="path890"
             inkscape:connector-curvature="0" /></g><g
           id="g892"
           transform="translate(216.0215,218.8418)"><path
             d="M 0,0 -2.938,-1.18 -6.98,8.889 C -7.688,7.545 -8.683,6.363 -9.964,5.34 l -0.974,2.424 c 0.675,0.537 1.336,1.304 1.98,2.3 0.644,1 0.962,1.991 0.956,2.975 l 2.384,0.955 z"
             style="fill:#ffffff;fill-opacity:1;fill-rule:nonzero;stroke:none"
             id="path894"
             inkscape:connector-curvature="0" /></g><g
           id="g896"
           transform="translate(189.459,227.8594)"><path
             d="m 0,0 -0.273,2.455 2.71,0.301 0.274,-2.453 z m -4.815,-0.537 -0.275,2.455 2.699,0.301 0.275,-2.453 z m -0.536,-16.037 -1.665,14.928 12.174,1.357 0.281,-2.525 -8.858,-0.989 0.368,-3.308 8.243,0.92 0.281,-2.516 -8.244,-0.92 0.455,-4.062 9.171,1.023 0.281,-2.516 z"
             style="fill:#ffffff;fill-opacity:1;fill-rule:nonzero;stroke:none"
             id="path898"
             inkscape:connector-curvature="0" /></g><g
           id="g900"
           transform="translate(170.7803,211.8418)"><path
             d="m 0,0 -4.663,15.449 3.605,-0.293 3.263,-11.42 4.937,10.75 3.527,-0.289 -7.12,-14.486 z"
             style="fill:#ffffff;fill-opacity:1;fill-rule:nonzero;stroke:none"
             id="path902"
             inkscape:connector-curvature="0" /></g><g
           id="g904"
           transform="translate(151.8301,223.709)"><path
             d="m 0,0 c -0.489,-1.629 -0.448,-2.986 0.128,-4.076 0.574,-1.09 1.498,-1.826 2.771,-2.209 1.274,-0.383 2.444,-0.281 3.511,0.306 1.068,0.59 1.853,1.717 2.354,3.385 C 9.26,-0.945 9.231,0.404 8.681,1.455 8.13,2.504 7.196,3.227 5.88,3.623 4.563,4.02 3.379,3.928 2.326,3.35 1.272,2.771 0.498,1.654 0,0 m -3.32,0.893 c 0.44,1.464 1.051,2.623 1.833,3.472 0.58,0.623 1.267,1.133 2.065,1.528 0.798,0.394 1.609,0.621 2.435,0.679 1.099,0.082 2.293,-0.068 3.582,-0.457 2.33,-0.701 3.998,-1.92 5.002,-3.656 1.004,-1.734 1.152,-3.773 0.449,-6.115 -0.699,-2.323 -1.94,-3.93 -3.723,-4.823 -1.783,-0.892 -3.836,-0.99 -6.16,-0.291 -2.353,0.707 -4.027,1.922 -5.022,3.645 -0.997,1.723 -1.15,3.729 -0.461,6.018"
             style="fill:#ffffff;fill-opacity:1;fill-rule:nonzero;stroke:none"
             id="path906"
             inkscape:connector-curvature="0" /></g><g
           id="g908"
           transform="translate(135.7461,222.9766)"><path
             d="M 0,0 5.937,10.977 1.624,13.309 2.833,15.543 14.381,9.299 13.172,7.062 8.87,9.391 2.935,-1.586 Z"
             style="fill:#ffffff;fill-opacity:1;fill-rule:nonzero;stroke:none"
             id="path910"
             inkscape:connector-curvature="0" /></g><g
           id="g912"
           transform="translate(118.5151,235.3613)"><path
             d="M 0,0 9.478,11.65 18.98,3.922 17.377,1.949 10.462,7.574 8.361,4.992 14.795,-0.242 13.198,-2.205 6.764,3.029 4.185,-0.141 11.345,-5.967 9.748,-7.93 Z"
             style="fill:#ffffff;fill-opacity:1;fill-rule:nonzero;stroke:none"
             id="path914"
             inkscape:connector-curvature="0" /></g><g
           id="g916"
           transform="translate(110.1084,244.6074)"><path
             d="M 0,0 9.529,8.057 6.363,11.801 8.304,13.441 16.78,3.416 14.84,1.773 11.683,5.51 2.154,-2.547 Z"
             style="fill:#ffffff;fill-opacity:1;fill-rule:nonzero;stroke:none"
             id="path918"
             inkscape:connector-curvature="0" /></g></g></g></g></svg>