<?xml version="1.0" encoding="UTF-8" standalone="no"?>
<!-- Created with Inkscape (http://www.inkscape.org/) -->

<svg
   xmlns:dc="http://purl.org/dc/elements/1.1/"
   xmlns:cc="http://creativecommons.org/ns#"
   xmlns:rdf="http://www.w3.org/1999/02/22-rdf-syntax-ns#"
   xmlns:svg="http://www.w3.org/2000/svg"
   xmlns="http://www.w3.org/2000/svg"
   xmlns:sodipodi="http://sodipodi.sourceforge.net/DTD/sodipodi-0.dtd"
   xmlns:inkscape="http://www.inkscape.org/namespaces/inkscape"
   version="1.1"
   id="svg388"
   xml:space="preserve"
   width="316"
   height="316"
   viewBox="0 0 666.66669 666.66669"
   sodipodi:docname="K.F. Shkupi.svg"
   inkscape:version="0.92.1 r15371"><metadata
     id="metadata394"><rdf:RDF><cc:Work
         rdf:about=""><dc:format>image/svg+xml</dc:format><dc:type
           rdf:resource="http://purl.org/dc/dcmitype/StillImage" /><dc:title></dc:title></cc:Work></rdf:RDF></metadata><defs
     id="defs392"><clipPath
       clipPathUnits="userSpaceOnUse"
       id="clipPath404"><path
         d="M 0,500 H 500 V 0 H 0 Z"
         id="path402"
         inkscape:connector-curvature="0" /></clipPath></defs><sodipodi:namedview
     pagecolor="#ffffff"
     bordercolor="#666666"
     borderopacity="1"
     objecttolerance="10"
     gridtolerance="10"
     guidetolerance="10"
     inkscape:pageopacity="0"
     inkscape:pageshadow="2"
     inkscape:window-width="1680"
     inkscape:window-height="987"
     id="namedview390"
     showgrid="false"
     inkscape:zoom="1.0012632"
     inkscape:cx="333.33334"
     inkscape:cy="333.33334"
     inkscape:window-x="-8"
     inkscape:window-y="-8"
     inkscape:window-maximized="1"
     inkscape:current-layer="g396" /><g
     id="g396"
     inkscape:groupmode="layer"
     inkscape:label="K.F. Shkupi"
     transform="matrix(1.3333333,0,0,-1.3333333,0,666.66667)"><g
       id="g398"><g
         id="g400"
         clip-path="url(#clipPath404)"><g
           id="g406"
           transform="translate(482.4492,358.6533)"><path
             d="m 0,0 c -97.104,37.968 -111.42,126.982 -111.42,126.982 h -119.55 -0.703 -119.549 c 0,0 -14.317,-89.014 -111.422,-126.982 0,0 -4.029,-259.308 231.674,-345.468 0.119,0.041 -0.118,-0.045 0,0 0.118,-0.045 -0.119,0.041 0,0 C 4.732,-259.308 0,0 0,0"
             style="fill:#ffffff;fill-opacity:1;fill-rule:nonzero;stroke:none"
             id="path408"
             inkscape:connector-curvature="0" /></g><g
           id="g410"
           transform="translate(482.4492,358.6533)"><path
             d="m 0,0 c -97.104,37.968 -111.42,126.982 -111.42,126.982 h -119.55 -0.703 -119.549 c 0,0 -14.317,-89.014 -111.422,-126.982 0,0 -4.029,-259.308 231.674,-345.468 0.119,0.041 -0.118,-0.045 0,0 0.118,-0.045 -0.119,0.041 0,0 C 4.732,-259.308 0,0 0,0 Z"
             style="fill:none;stroke:#3c57a6;stroke-width:15;stroke-linecap:butt;stroke-linejoin:miter;stroke-miterlimit:10;stroke-dasharray:none;stroke-opacity:1"
             id="path412"
             inkscape:connector-curvature="0" /></g><g
           id="g414"
           transform="translate(190.8403,119.7383)"><path
             d="m 0,0 c 0,-33.834 27.429,-61.264 61.265,-61.264 33.834,0 61.263,27.43 61.263,61.264 0,33.836 -27.429,61.266 -61.263,61.266 C 27.429,61.266 0,33.836 0,0"
             style="fill:#ffffff;fill-opacity:1;fill-rule:nonzero;stroke:none"
             id="path416"
             inkscape:connector-curvature="0" /></g><g
           id="g418"
           transform="translate(190.8403,119.7383)"><path
             d="m 0,0 c 0,-33.834 27.429,-61.264 61.265,-61.264 33.834,0 61.263,27.43 61.263,61.264 0,33.836 -27.429,61.266 -61.263,61.266 C 27.429,61.266 0,33.836 0,0 Z"
             style="fill:none;stroke:#3c57a6;stroke-width:3;stroke-linecap:butt;stroke-linejoin:miter;stroke-miterlimit:10;stroke-dasharray:none;stroke-opacity:1"
             id="path420"
             inkscape:connector-curvature="0" /></g><g
           id="g422"
           transform="translate(232.6826,135.0332)"><path
             d="M 0,0 C -8.731,6.92 -11.21,12.828 -11.21,12.828"
             style="fill:#ffffff;fill-opacity:1;fill-rule:nonzero;stroke:#3c57a6;stroke-width:3;stroke-linecap:butt;stroke-linejoin:miter;stroke-miterlimit:10;stroke-dasharray:none;stroke-opacity:1"
             id="path424"
             inkscape:connector-curvature="0" /></g><g
           id="g426"
           transform="translate(278.7197,116.5605)"><path
             d="M 0,0 C 0,0 8.313,11.23 21.944,15.148"
             style="fill:#ffffff;fill-opacity:1;fill-rule:nonzero;stroke:#3c57a6;stroke-width:3;stroke-linecap:butt;stroke-linejoin:miter;stroke-miterlimit:10;stroke-dasharray:none;stroke-opacity:1"
             id="path428"
             inkscape:connector-curvature="0" /></g><g
           id="g430"
           transform="translate(221.4722,147.8613)"><path
             d="M 0,0 C 2.176,22.262 30.633,33.143 30.633,33.143"
             style="fill:#ffffff;fill-opacity:1;fill-rule:nonzero;stroke:#3c57a6;stroke-width:3;stroke-linecap:butt;stroke-linejoin:miter;stroke-miterlimit:10;stroke-dasharray:none;stroke-opacity:1"
             id="path432"
             inkscape:connector-curvature="0" /></g><g
           id="g434"
           transform="translate(254.543,123.0605)"><path
             d="M 0,0 C -9.811,3.711 -16.861,8.008 -21.86,11.973"
             style="fill:#ffffff;fill-opacity:1;fill-rule:nonzero;stroke:#3c57a6;stroke-width:3;stroke-linecap:butt;stroke-linejoin:miter;stroke-miterlimit:10;stroke-dasharray:none;stroke-opacity:1"
             id="path436"
             inkscape:connector-curvature="0" /></g><g
           id="g438"
           transform="translate(311.9297,132.9785)"><path
             d="M 0,0 C -4.061,0.238 -7.831,-0.283 -11.266,-1.27"
             style="fill:#ffffff;fill-opacity:1;fill-rule:nonzero;stroke:#3c57a6;stroke-width:3;stroke-linecap:butt;stroke-linejoin:miter;stroke-miterlimit:10;stroke-dasharray:none;stroke-opacity:1"
             id="path440"
             inkscape:connector-curvature="0" /></g><g
           id="g442"
           transform="translate(278.7197,116.5605)"><path
             d="M 0,0 C -9.498,1.699 -17.478,3.963 -24.177,6.5"
             style="fill:#ffffff;fill-opacity:1;fill-rule:nonzero;stroke:#3c57a6;stroke-width:3;stroke-linecap:butt;stroke-linejoin:miter;stroke-miterlimit:10;stroke-dasharray:none;stroke-opacity:1"
             id="path444"
             inkscape:connector-curvature="0" /></g><g
           id="g446"
           transform="translate(254.543,123.0605)"><path
             d="M 0,0 C 16.729,30.742 45.239,35.148 45.239,35.148"
             style="fill:#ffffff;fill-opacity:1;fill-rule:nonzero;stroke:#3c57a6;stroke-width:3;stroke-linecap:butt;stroke-linejoin:miter;stroke-miterlimit:10;stroke-dasharray:none;stroke-opacity:1"
             id="path448"
             inkscape:connector-curvature="0" /></g><g
           id="g450"
           transform="translate(254.543,123.0605)"><path
             d="M 0,0 Z"
             style="fill:#ffffff;fill-opacity:1;fill-rule:nonzero;stroke:none"
             id="path452"
             inkscape:connector-curvature="0" /></g><g
           id="g454"
           transform="translate(254.543,123.0605)"><path
             d="M 0,0 V 0"
             style="fill:none;stroke:#3c57a6;stroke-width:3;stroke-linecap:butt;stroke-linejoin:miter;stroke-miterlimit:10;stroke-dasharray:none;stroke-opacity:1"
             id="path456"
             inkscape:connector-curvature="0" /></g><g
           id="g458"
           transform="translate(232.6826,135.0332)"><path
             d="M 0,0 V 0"
             style="fill:#ffffff;fill-opacity:1;fill-rule:nonzero;stroke:#3c57a6;stroke-width:3;stroke-linecap:butt;stroke-linejoin:miter;stroke-miterlimit:10;stroke-dasharray:none;stroke-opacity:1"
             id="path460"
             inkscape:connector-curvature="0" /></g><g
           id="g462"
           transform="translate(232.6826,135.0332)"><path
             d="M 0,0 C 19.424,32.955 45.24,40.238 45.24,40.238"
             style="fill:#ffffff;fill-opacity:1;fill-rule:nonzero;stroke:#3c57a6;stroke-width:3;stroke-linecap:butt;stroke-linejoin:miter;stroke-miterlimit:10;stroke-dasharray:none;stroke-opacity:1"
             id="path464"
             inkscape:connector-curvature="0" /></g><g
           id="g466"
           transform="translate(261.332,69.0742)"><path
             d="M 0,0 C -3.46,-3.365 -7.482,-6.881 -12.155,-10.529"
             style="fill:#ffffff;fill-opacity:1;fill-rule:nonzero;stroke:#3c57a6;stroke-width:3;stroke-linecap:butt;stroke-linejoin:miter;stroke-miterlimit:10;stroke-dasharray:none;stroke-opacity:1"
             id="path468"
             inkscape:connector-curvature="0" /></g><g
           id="g470"
           transform="translate(278.7197,116.5605)"><path
             d="M 0,0 C 0,0 8.947,-28.137 -17.388,-47.486"
             style="fill:#ffffff;fill-opacity:1;fill-rule:nonzero;stroke:#3c57a6;stroke-width:3;stroke-linecap:butt;stroke-linejoin:miter;stroke-miterlimit:10;stroke-dasharray:none;stroke-opacity:1"
             id="path472"
             inkscape:connector-curvature="0" /></g><g
           id="g474"
           transform="translate(300.6641,131.709)"><path
             d="M 0,0 C 0.039,-0.098 10.736,-44.268 -35.368,-71.809"
             style="fill:#ffffff;fill-opacity:1;fill-rule:nonzero;stroke:#3c57a6;stroke-width:3;stroke-linecap:butt;stroke-linejoin:miter;stroke-miterlimit:10;stroke-dasharray:none;stroke-opacity:1"
             id="path476"
             inkscape:connector-curvature="0" /></g><g
           id="g478"
           transform="translate(300.6641,131.709)"><path
             d="M 0,0 V 0.002"
             style="fill:#ffffff;fill-opacity:1;fill-rule:nonzero;stroke:#3c57a6;stroke-width:3;stroke-linecap:butt;stroke-linejoin:miter;stroke-miterlimit:10;stroke-dasharray:none;stroke-opacity:1"
             id="path480"
             inkscape:connector-curvature="0" /></g><g
           id="g482"
           transform="translate(221.4722,147.8613)"><path
             d="M 0,0 C 0,0 -12.234,-4.256 -20.576,-22.154"
             style="fill:#ffffff;fill-opacity:1;fill-rule:nonzero;stroke:#3c57a6;stroke-width:3;stroke-linecap:butt;stroke-linejoin:miter;stroke-miterlimit:10;stroke-dasharray:none;stroke-opacity:1"
             id="path484"
             inkscape:connector-curvature="0" /></g><g
           id="g486"
           transform="translate(194.8994,105.8086)"><path
             d="M 0,0 C -0.317,-1.85 -0.592,-3.768 -0.821,-5.775"
             style="fill:#ffffff;fill-opacity:1;fill-rule:nonzero;stroke:#3c57a6;stroke-width:3;stroke-linecap:butt;stroke-linejoin:miter;stroke-miterlimit:10;stroke-dasharray:none;stroke-opacity:1"
             id="path488"
             inkscape:connector-curvature="0" /></g><g
           id="g490"
           transform="translate(200.896,125.707)"><path
             d="M 0,0 C -2.488,-5.338 -4.629,-11.889 -5.997,-19.898"
             style="fill:#ffffff;fill-opacity:1;fill-rule:nonzero;stroke:#3c57a6;stroke-width:3;stroke-linecap:butt;stroke-linejoin:miter;stroke-miterlimit:10;stroke-dasharray:none;stroke-opacity:1"
             id="path492"
             inkscape:connector-curvature="0" /></g><g
           id="g494"
           transform="translate(200.895,125.707)"><path
             d="M 0,0 H 0.001"
             style="fill:#ffffff;fill-opacity:1;fill-rule:nonzero;stroke:#3c57a6;stroke-width:3;stroke-linecap:butt;stroke-linejoin:miter;stroke-miterlimit:10;stroke-dasharray:none;stroke-opacity:1"
             id="path496"
             inkscape:connector-curvature="0" /></g><g
           id="g498"
           transform="translate(276.5527,88.4414)"><path
             d="M 0,0 C -53.567,-0.959 -75.63,37.219 -75.657,37.266"
             style="fill:#ffffff;fill-opacity:1;fill-rule:nonzero;stroke:#3c57a6;stroke-width:3;stroke-linecap:butt;stroke-linejoin:miter;stroke-miterlimit:10;stroke-dasharray:none;stroke-opacity:1"
             id="path500"
             inkscape:connector-curvature="0" /></g><g
           id="g502"
           transform="translate(261.332,69.0742)"><path
             d="M 0,0 H 0.002"
             style="fill:#ffffff;fill-opacity:1;fill-rule:nonzero;stroke:#3c57a6;stroke-width:3;stroke-linecap:butt;stroke-linejoin:miter;stroke-miterlimit:10;stroke-dasharray:none;stroke-opacity:1"
             id="path504"
             inkscape:connector-curvature="0" /></g><g
           id="g506"
           transform="translate(261.332,69.0742)"><path
             d="M 0,0 C -50.28,2.645 -66.383,34.627 -66.433,34.734"
             style="fill:#ffffff;fill-opacity:1;fill-rule:nonzero;stroke:#3c57a6;stroke-width:3;stroke-linecap:butt;stroke-linejoin:miter;stroke-miterlimit:10;stroke-dasharray:none;stroke-opacity:1"
             id="path508"
             inkscape:connector-curvature="0" /></g><g
           id="g510"
           transform="translate(194.8979,105.8125)"><path
             d="M 0,0 C 0,0 0.001,-0.004 0.001,-0.004"
             style="fill:#ffffff;fill-opacity:1;fill-rule:nonzero;stroke:#3c57a6;stroke-width:3;stroke-linecap:butt;stroke-linejoin:miter;stroke-miterlimit:10;stroke-dasharray:none;stroke-opacity:1"
             id="path512"
             inkscape:connector-curvature="0" /></g><g
           id="g514"
           transform="translate(380.5869,353.1338)"><path
             d="m 0,0 h -260.073 l -22.707,-29.095 c 0,0 15.612,-89.056 83.025,-160.371 0,0 23.707,35.522 68.122,35.522 h 3.194 c 44.415,0 68.123,-35.522 68.123,-35.522 67.413,71.315 83.024,160.371 83.024,160.371 z"
             style="fill:#3c57a7;fill-opacity:1;fill-rule:nonzero;stroke:none"
             id="path516"
             inkscape:connector-curvature="0" /></g><g
           id="g518"
           transform="translate(344.7529,353.1338)"><path
             d="m 0,0 v -159.972 c 2.203,3.022 4.334,6.049 6.385,9.073 V 0 Z"
             style="fill:#ffffff;fill-opacity:1;fill-rule:nonzero;stroke:none"
             id="path520"
             inkscape:connector-curvature="0" /></g><g
           id="g522"
           transform="translate(378.1025,353.1338)"><path
             d="m 0,0 h -4.257 v -112.083 c 1.486,2.965 2.906,5.893 4.257,8.78 z"
             style="fill:#ffffff;fill-opacity:1;fill-rule:nonzero;stroke:none"
             id="path524"
             inkscape:connector-curvature="0" /></g><g
           id="g526"
           transform="translate(311.4004,353.1338)"><path
             d="m 0,0 v -179.183 c 4.713,-4.656 7.576,-8.463 8.516,-9.777 V 0 Z"
             style="fill:#ffffff;fill-opacity:1;fill-rule:nonzero;stroke:none"
             id="path528"
             inkscape:connector-curvature="0" /></g><g
           id="g530"
           transform="translate(126.1929,353.1338)"><path
             d="m 0,0 v -109.948 c 1.358,-2.754 2.777,-5.541 4.257,-8.354 V 0 Z"
             style="fill:#ffffff;fill-opacity:1;fill-rule:nonzero;stroke:none"
             id="path532"
             inkscape:connector-curvature="0" /></g><g
           id="g534"
           transform="translate(153.1572,353.1338)"><path
             d="m 0,0 v -155.524 c 2.056,-2.918 4.187,-5.836 6.387,-8.745 V 0 Z"
             style="fill:#ffffff;fill-opacity:1;fill-rule:nonzero;stroke:none"
             id="path536"
             inkscape:connector-curvature="0" /></g><g
           id="g538"
           transform="translate(184.3794,353.1338)"><path
             d="m 0,0 v -184.905 c 2.003,2.361 4.851,5.435 8.516,8.73 V 0 Z"
             style="fill:#ffffff;fill-opacity:1;fill-rule:nonzero;stroke:none"
             id="path540"
             inkscape:connector-curvature="0" /></g><g
           id="g542"
           transform="translate(419.4434,238.0586)"><path
             d="m 0,0 -0.042,0.545 c 0.066,0.658 0.011,1.297 -0.156,1.883 0,0 -0.059,0.703 -0.147,1.754 -0.098,1.052 -0.183,2.455 -0.344,3.853 -0.293,2.799 -0.589,5.594 -0.589,5.594 L -1.32,13.628 c 0.17,1.808 0.567,4.095 1.402,6.951 0.859,2.859 2.178,6.288 4.075,10.406 3.375,7.178 3.335,14.418 0.339,20.826 -0.966,2.009 -2.892,6.902 -4.2,8.723 -1.514,2.083 -2.325,4.923 -2.341,8.711 -0.201,-0.281 -0.332,-0.414 -0.344,-0.494 -0.582,-4.042 -1.27,-11.355 -2.616,-15.451 -0.471,-1.521 -2.107,-4.885 -3.733,-8.273 -1.592,-3.39 -3.304,-6.816 -3.744,-8.604 -0.896,-3.647 -1.642,-7.988 -1.272,-12.104 0.266,-4.125 1.668,-8.037 4.722,-10.921 1.333,-1.244 2.904,-2.459 4.469,-3.459 0,0 0.136,-1.281 0.272,-2.562 0.111,-1.283 0.225,-2.566 0.225,-2.566 -1.119,-0.329 -2.161,-1.25 -2.745,-2.59 -0.977,-2.215 -0.32,-4.727 1.409,-5.653 1.723,-0.925 3.986,0.118 4.943,2.36 0.152,0.349 0.25,0.707 0.322,1.066 z"
             style="fill:#3c57a7;fill-opacity:1;fill-rule:nonzero;stroke:none"
             id="path544"
             inkscape:connector-curvature="0" /></g><g
           id="g546"
           transform="translate(397.7969,195.3281)"><path
             d="m 0,0 0.01,0.523 c 0.129,0.614 0.131,1.225 0.018,1.799 0,0 0.031,2.682 0.061,5.362 0.059,2.677 -0.01,5.359 -0.01,5.359 h -0.04 c 0.315,1.699 0.943,3.826 2.107,6.453 1.136,2.627 2.722,5.754 5.086,9.488 2.025,3.25 3.169,6.604 3.602,9.942 0.387,3.338 -0.066,6.658 -1.219,9.849 C 8.871,50.779 7.391,55.612 6.301,57.466 5.047,59.584 4.417,62.358 4.843,65.967 4.613,65.718 4.468,65.601 4.446,65.527 3.935,63.631 3.346,60.956 2.68,58.287 1.96,55.614 1.164,52.951 0.309,51.061 c -0.61,-1.403 -2.588,-4.452 -4.538,-7.518 -1.924,-3.072 -3.93,-6.158 -4.58,-7.811 -0.651,-1.683 -1.236,-3.539 -1.662,-5.462 -0.469,-1.92 -0.777,-3.909 -0.814,-5.874 -0.031,-3.931 0.792,-7.751 3.627,-10.791 1.205,-1.308 2.687,-2.623 4.116,-3.726 L -3.597,4.98 C -4.738,4.785 -5.862,4.023 -6.567,2.818 -7.71,0.82 -7.413,-1.605 -5.771,-2.666 c 1.635,-1.057 3.955,-0.313 5.183,1.703 0.192,0.313 0.332,0.641 0.449,0.973 z"
             style="fill:#3c57a7;fill-opacity:1;fill-rule:nonzero;stroke:none"
             id="path548"
             inkscape:connector-curvature="0" /></g><g
           id="g550"
           transform="translate(371.8486,157.6406)"><path
             d="m 0,0 0.061,0.486 c 0.192,0.559 0.258,1.129 0.206,1.678 0,0 0.311,2.498 0.621,4.994 0.342,2.488 0.549,5.006 0.549,5.006 l -0.04,0.006 c 0.488,1.551 1.329,3.465 2.75,5.787 1.457,2.316 3.288,5.086 6.026,8.328 2.403,2.819 3.832,5.863 4.591,8.961 0.777,3.098 0.638,6.281 -0.216,9.41 -0.274,0.981 -0.625,2.653 -1.03,4.303 -0.446,1.66 -0.931,3.299 -1.395,4.23 -1.071,2.129 -1.285,4.793 -0.593,8.168 C 11.28,61.145 11.126,61.045 11.1,60.982 10.448,59.236 9.556,56.773 8.595,54.326 7.621,51.881 6.644,49.441 5.543,47.762 4.75,46.508 2.509,43.844 0.286,41.17 -1.956,38.49 -4.294,35.828 -5.072,34.35 -8.278,28.289 -11.121,19.883 -6.188,13.596 -5.119,12.234 -3.783,10.834 -2.486,9.637 L -3.051,5.084 C -4.206,5.039 -5.401,4.465 -6.228,3.43 c -1.336,-1.719 -1.274,-4.01 0.229,-5.198 1.508,-1.183 3.886,-0.783 5.324,0.94 0.227,0.269 0.403,0.555 0.54,0.853 z"
             style="fill:#3c57a7;fill-opacity:1;fill-rule:nonzero;stroke:none"
             id="path552"
             inkscape:connector-curvature="0" /></g><g
           id="g554"
           transform="translate(342.1836,126.252)"><path
             d="m 0,0 0.114,0.437 c 0.252,0.483 0.381,0.997 0.393,1.506 0,0 0.59,2.241 1.18,4.483 0.508,2.271 1.018,4.543 1.018,4.543 l -0.038,0.01 c 0.65,1.353 1.696,2.994 3.365,4.929 1.581,1.975 3.769,4.25 6.815,6.889 5.18,4.637 7.343,10.435 6.227,16.467 -0.164,0.943 -0.346,2.535 -0.569,4.111 -0.27,1.594 -0.592,3.176 -0.956,4.094 -0.858,2.103 -0.793,4.592 0.256,7.65 -0.272,-0.174 -0.434,-0.244 -0.468,-0.303 -0.811,-1.552 -2.001,-3.72 -3.178,-5.882 C 12.951,46.781 11.73,44.635 10.461,43.217 9.544,42.156 7.044,39.969 4.568,37.779 2.1,35.582 -0.528,33.449 -1.442,32.193 c -0.969,-1.273 -1.859,-2.714 -2.68,-4.22 -0.837,-1.498 -1.526,-3.092 -1.949,-4.729 -0.788,-3.295 -0.726,-6.67 1.391,-9.902 0.914,-1.395 2.061,-2.854 3.257,-4.149 0,0 -0.057,-0.259 -0.142,-0.648 C -1.644,8.154 -1.766,7.639 -1.908,7.133 -2.176,6.111 -2.443,5.094 -2.443,5.094 -3.59,5.219 -4.836,4.867 -5.768,4.043 -7.309,2.684 -7.421,0.549 -6.035,-0.771 c 1.384,-1.321 3.744,-1.293 5.294,0.105 0.241,0.215 0.436,0.457 0.61,0.709 z"
             style="fill:#3c57a7;fill-opacity:1;fill-rule:nonzero;stroke:none"
             id="path556"
             inkscape:connector-curvature="0" /></g><g
           id="g558"
           transform="translate(423.6797,263.0303)"><path
             d="m 0,0 0.396,0.333 c 0.394,0.504 0.868,0.896 1.367,1.156 0,0 2.009,1.742 4.018,3.485 2.008,1.77 4.016,3.541 4.016,3.541 L 9.823,8.479 c 1.061,1.435 2.224,3.443 3.336,6.267 1.131,2.824 2.254,6.468 3.137,11.168 1.564,8.164 5.304,13.984 11.013,17.184 1.793,0.994 5.826,3.8 7.795,4.473 2.256,0.759 4.347,2.664 6.082,6.145 0.042,-0.399 0.089,-0.619 0.065,-0.698 C 40.585,50.953 39.5,48.156 38.423,45.317 37.366,42.476 36.343,39.593 35.787,37.306 35.05,33.894 33.686,20.854 32.171,17.174 30.729,13.404 28.482,9.338 25.615,6.371 22.756,3.397 19.227,1.523 15.146,1.98 13.396,2.176 11.481,2.591 9.731,3.161 L 7.874,1.542 C 6.932,0.739 5.991,-0.066 5.991,-0.066 6.529,-1.223 6.612,-2.734 6.092,-4.151 5.234,-6.5 3.081,-7.682 1.287,-6.829 c -1.8,0.853 -2.558,3.397 -1.698,5.719 0.133,0.361 0.308,0.686 0.498,0.991 z"
             style="fill:#3c57a7;fill-opacity:1;fill-rule:nonzero;stroke:none"
             id="path560"
             inkscape:connector-curvature="0" /></g><g
           id="g562"
           transform="translate(404.4824,218.5898)"><path
             d="m 0,0 0.426,0.277 c 0.435,0.442 0.937,0.764 1.463,0.965 0,0 2.187,1.463 4.374,2.926 l 4.361,2.988 0.023,-0.037 c 1.172,1.266 2.507,3.07 3.919,5.66 0.702,1.295 1.443,2.785 2.151,4.502 0.693,1.719 1.389,3.664 2.076,5.865 1.225,3.833 2.823,7.041 4.96,9.623 2.125,2.579 4.724,4.524 7.703,5.787 1.881,0.787 6.158,3.102 8.186,3.565 2.311,0.524 4.589,2.152 6.69,5.318 C 46.33,47.053 46.356,46.84 46.323,46.766 44.531,42.936 40.874,36.512 39.312,32.244 38.751,30.656 37.887,26.756 36.819,22.838 36.303,20.881 35.766,18.92 35.251,17.238 34.712,15.553 34.178,14.146 33.727,13.295 30.097,6.307 23.271,-1.316 15.26,0.402 13.529,0.76 11.678,1.346 9.996,2.057 L 5.963,-0.652 C 6.39,-1.805 6.364,-3.254 5.675,-4.551 4.559,-6.701 2.287,-7.607 0.595,-6.617 c -1.699,0.99 -2.131,3.478 -1.101,5.599 0.164,0.331 0.369,0.623 0.584,0.895 z"
             style="fill:#3c57a7;fill-opacity:1;fill-rule:nonzero;stroke:none"
             id="path564"
             inkscape:connector-curvature="0" /></g><g
           id="g566"
           transform="translate(380.9111,178.6074)"><path
             d="M 0,0 0.45,0.217 C 0.927,0.58 1.457,0.828 2,0.957 c 0,0 2.318,1.133 4.636,2.266 2.322,1.168 4.644,2.334 4.644,2.334 L 11.298,5.52 c 1.343,1.058 2.826,2.621 4.482,4.919 1.627,2.301 3.528,5.327 5.261,9.37 3.153,7.007 7.9,11.541 14.145,13.361 1.955,0.559 6.467,2.344 8.531,2.588 2.364,0.269 4.763,1.601 7.142,4.428 C 50.822,39.814 50.828,39.609 50.79,39.541 48.726,36.049 44.272,30.27 42.392,26.355 41.694,24.895 40.334,21.262 38.943,17.635 38.589,16.732 38.233,15.826 37.89,14.947 37.515,14.074 37.145,13.236 36.787,12.461 36.075,10.916 35.415,9.631 34.881,8.869 33.786,7.314 32.529,5.73 31.094,4.277 29.632,2.828 28.03,1.508 26.325,0.465 22.918,-1.621 19.108,-2.57 15.202,-1.328 13.517,-0.797 11.735,-0.039 10.134,0.82 L 5.859,-1.281 C 6.19,-2.42 5.962,-3.771 5.15,-4.912 3.82,-6.805 1.474,-7.393 -0.104,-6.27 c -1.594,1.131 -1.761,3.504 -0.499,5.375 0.196,0.291 0.426,0.543 0.667,0.774 z"
             style="fill:#3c57a7;fill-opacity:1;fill-rule:nonzero;stroke:none"
             id="path568"
             inkscape:connector-curvature="0" /></g><g
           id="g570"
           transform="translate(353.3506,144.293)"><path
             d="m 0,0 0.469,0.137 c 0.51,0.273 1.063,0.431 1.616,0.482 0,0 2.418,0.74 4.838,1.481 2.431,0.779 4.861,1.556 4.861,1.556 L 11.8,3.619 c 1.403,0.822 3.046,2.086 4.936,4.016 1.871,1.935 4.066,4.517 6.203,8.088 3.872,6.166 9.055,9.873 15.439,10.871 2,0.304 6.666,1.472 8.746,1.467 2.376,-0.014 4.942,0.966 7.567,3.386 -0.072,-0.345 -0.087,-0.541 -0.133,-0.601 -1.204,-1.537 -3.074,-3.557 -4.927,-5.614 -1.845,-2.06 -3.653,-4.16 -4.798,-5.906 -0.857,-1.295 -2.594,-4.562 -4.358,-7.81 C 38.752,8.252 36.709,5.072 35.506,3.768 34.255,2.443 32.821,1.117 31.261,-0.068 c -1.556,-1.188 -3.335,-2.205 -5.127,-2.959 -3.613,-1.506 -7.49,-1.887 -11.225,-0.217 -1.61,0.713 -3.291,1.654 -4.781,2.658 L 5.66,-1.965 C 5.847,-3.055 5.524,-4.293 4.619,-5.246 3.089,-6.812 0.7,-7.033 -0.738,-5.781 c -0.719,0.625 -1.064,1.494 -1.037,2.394 0.01,0.907 0.352,1.862 1.082,2.641 0.223,0.244 0.48,0.443 0.745,0.625 z"
             style="fill:#3c57a7;fill-opacity:1;fill-rule:nonzero;stroke:none"
             id="path572"
             inkscape:connector-curvature="0" /></g><g
           id="g574"
           transform="translate(419.4434,238.0586)"><path
             d="m 0,0 -0.042,0.545 c 0.066,0.658 0.011,1.297 -0.156,1.883 0,0 -0.059,0.703 -0.147,1.754 -0.098,1.052 -0.183,2.455 -0.344,3.853 -0.293,2.799 -0.589,5.594 -0.589,5.594 L -1.32,13.628 c 0.17,1.808 0.567,4.095 1.402,6.951 0.859,2.859 2.178,6.288 4.075,10.406 3.375,7.178 3.335,14.418 0.339,20.826 -0.966,2.009 -2.892,6.902 -4.2,8.723 -1.514,2.083 -2.325,4.923 -2.341,8.711 -0.201,-0.281 -0.332,-0.414 -0.344,-0.494 -0.582,-4.042 -1.27,-11.355 -2.616,-15.451 -0.471,-1.521 -2.107,-4.885 -3.733,-8.273 -1.592,-3.39 -3.304,-6.816 -3.744,-8.604 -0.896,-3.647 -1.642,-7.988 -1.272,-12.104 0.266,-4.125 1.668,-8.037 4.722,-10.921 1.333,-1.244 2.904,-2.459 4.469,-3.459 0,0 0.136,-1.281 0.272,-2.562 0.111,-1.283 0.225,-2.566 0.225,-2.566 -1.119,-0.329 -2.161,-1.25 -2.745,-2.59 -0.977,-2.215 -0.32,-4.727 1.409,-5.653 1.723,-0.925 3.986,0.118 4.943,2.36 0.152,0.349 0.25,0.707 0.322,1.066 z"
             style="fill:#3c57a7;fill-opacity:1;fill-rule:nonzero;stroke:none"
             id="path576"
             inkscape:connector-curvature="0" /></g><g
           id="g578"
           transform="translate(397.7969,195.3281)"><path
             d="m 0,0 0.01,0.523 c 0.129,0.614 0.131,1.225 0.018,1.799 0,0 0.031,2.682 0.061,5.362 0.059,2.677 -0.01,5.359 -0.01,5.359 h -0.04 c 0.315,1.699 0.943,3.826 2.107,6.453 1.136,2.627 2.722,5.754 5.086,9.488 2.025,3.25 3.169,6.604 3.602,9.942 0.387,3.338 -0.066,6.658 -1.219,9.849 C 8.871,50.779 7.391,55.612 6.301,57.466 5.047,59.584 4.417,62.358 4.843,65.967 4.613,65.718 4.468,65.601 4.446,65.527 3.935,63.631 3.346,60.956 2.68,58.287 1.96,55.614 1.164,52.951 0.309,51.061 c -0.61,-1.403 -2.588,-4.452 -4.538,-7.518 -1.924,-3.072 -3.93,-6.158 -4.58,-7.811 -0.651,-1.683 -1.236,-3.539 -1.662,-5.462 -0.469,-1.92 -0.777,-3.909 -0.814,-5.874 -0.031,-3.931 0.792,-7.751 3.627,-10.791 1.205,-1.308 2.687,-2.623 4.116,-3.726 L -3.597,4.98 C -4.738,4.785 -5.862,4.023 -6.567,2.818 -7.71,0.82 -7.413,-1.605 -5.771,-2.666 c 1.635,-1.057 3.955,-0.313 5.183,1.703 0.192,0.313 0.332,0.641 0.449,0.973 z"
             style="fill:#3c57a7;fill-opacity:1;fill-rule:nonzero;stroke:none"
             id="path580"
             inkscape:connector-curvature="0" /></g><g
           id="g582"
           transform="translate(371.8486,157.6406)"><path
             d="m 0,0 0.061,0.486 c 0.192,0.559 0.258,1.129 0.206,1.678 0,0 0.311,2.498 0.621,4.994 0.342,2.488 0.549,5.006 0.549,5.006 l -0.04,0.006 c 0.488,1.551 1.329,3.465 2.75,5.787 1.457,2.316 3.288,5.086 6.026,8.328 2.403,2.819 3.832,5.863 4.591,8.961 0.777,3.098 0.638,6.281 -0.216,9.41 -0.274,0.981 -0.625,2.653 -1.03,4.303 -0.446,1.66 -0.931,3.299 -1.395,4.23 -1.071,2.129 -1.285,4.793 -0.593,8.168 C 11.28,61.145 11.126,61.045 11.1,60.982 10.448,59.236 9.556,56.773 8.595,54.326 7.621,51.881 6.644,49.441 5.543,47.762 4.75,46.508 2.509,43.844 0.286,41.17 -1.956,38.49 -4.294,35.828 -5.072,34.35 -8.278,28.289 -11.121,19.883 -6.188,13.596 -5.119,12.234 -3.783,10.834 -2.486,9.637 L -3.051,5.084 C -4.206,5.039 -5.401,4.465 -6.228,3.43 c -1.336,-1.719 -1.274,-4.01 0.229,-5.198 1.508,-1.183 3.886,-0.783 5.324,0.94 0.227,0.269 0.403,0.555 0.54,0.853 z"
             style="fill:#3c57a7;fill-opacity:1;fill-rule:nonzero;stroke:none"
             id="path584"
             inkscape:connector-curvature="0" /></g><g
           id="g586"
           transform="translate(342.1836,126.252)"><path
             d="m 0,0 0.114,0.437 c 0.252,0.483 0.381,0.997 0.393,1.506 0,0 0.59,2.241 1.18,4.483 0.508,2.271 1.018,4.543 1.018,4.543 l -0.038,0.01 c 0.65,1.353 1.696,2.994 3.365,4.929 1.581,1.975 3.769,4.25 6.815,6.889 5.18,4.637 7.343,10.435 6.227,16.467 -0.164,0.943 -0.346,2.535 -0.569,4.111 -0.27,1.594 -0.592,3.176 -0.956,4.094 -0.858,2.103 -0.793,4.592 0.256,7.65 -0.272,-0.174 -0.434,-0.244 -0.468,-0.303 -0.811,-1.552 -2.001,-3.72 -3.178,-5.882 C 12.951,46.781 11.73,44.635 10.461,43.217 9.544,42.156 7.044,39.969 4.568,37.779 2.1,35.582 -0.528,33.449 -1.442,32.193 c -0.969,-1.273 -1.859,-2.714 -2.68,-4.22 -0.837,-1.498 -1.526,-3.092 -1.949,-4.729 -0.788,-3.295 -0.726,-6.67 1.391,-9.902 0.914,-1.395 2.061,-2.854 3.257,-4.149 0,0 -0.057,-0.259 -0.142,-0.648 C -1.644,8.154 -1.766,7.639 -1.908,7.133 -2.176,6.111 -2.443,5.094 -2.443,5.094 -3.59,5.219 -4.836,4.867 -5.768,4.043 -7.309,2.684 -7.421,0.549 -6.035,-0.771 c 1.384,-1.321 3.744,-1.293 5.294,0.105 0.241,0.215 0.436,0.457 0.61,0.709 z"
             style="fill:#3c57a7;fill-opacity:1;fill-rule:nonzero;stroke:none"
             id="path588"
             inkscape:connector-curvature="0" /></g><g
           id="g590"
           transform="translate(423.6797,263.0303)"><path
             d="m 0,0 0.396,0.333 c 0.394,0.504 0.868,0.896 1.367,1.156 0,0 2.009,1.742 4.018,3.485 2.008,1.77 4.016,3.541 4.016,3.541 L 9.823,8.479 c 1.061,1.435 2.224,3.443 3.336,6.267 1.131,2.824 2.254,6.468 3.137,11.168 1.564,8.164 5.304,13.984 11.013,17.184 1.793,0.994 5.826,3.8 7.795,4.473 2.256,0.759 4.347,2.664 6.082,6.145 0.042,-0.399 0.089,-0.619 0.065,-0.698 C 40.585,50.953 39.5,48.156 38.423,45.317 37.366,42.476 36.343,39.593 35.787,37.306 35.05,33.894 33.686,20.854 32.171,17.174 30.729,13.404 28.482,9.338 25.615,6.371 22.756,3.397 19.227,1.523 15.146,1.98 13.396,2.176 11.481,2.591 9.731,3.161 L 7.874,1.542 C 6.932,0.739 5.991,-0.066 5.991,-0.066 6.529,-1.223 6.612,-2.734 6.092,-4.151 5.234,-6.5 3.081,-7.682 1.287,-6.829 c -1.8,0.853 -2.558,3.397 -1.698,5.719 0.133,0.361 0.308,0.686 0.498,0.991 z"
             style="fill:#3c57a7;fill-opacity:1;fill-rule:nonzero;stroke:none"
             id="path592"
             inkscape:connector-curvature="0" /></g><g
           id="g594"
           transform="translate(404.4824,218.5898)"><path
             d="m 0,0 0.426,0.277 c 0.435,0.442 0.937,0.764 1.463,0.965 0,0 2.187,1.463 4.374,2.926 l 4.361,2.988 0.023,-0.037 c 1.172,1.266 2.507,3.07 3.919,5.66 0.702,1.295 1.443,2.785 2.151,4.502 0.693,1.719 1.389,3.664 2.076,5.865 1.225,3.833 2.823,7.041 4.96,9.623 2.125,2.579 4.724,4.524 7.703,5.787 1.881,0.787 6.158,3.102 8.186,3.565 2.311,0.524 4.589,2.152 6.69,5.318 C 46.33,47.053 46.356,46.84 46.323,46.766 44.531,42.936 40.874,36.512 39.312,32.244 38.751,30.656 37.887,26.756 36.819,22.838 36.303,20.881 35.766,18.92 35.251,17.238 34.712,15.553 34.178,14.146 33.727,13.295 30.097,6.307 23.271,-1.316 15.26,0.402 13.529,0.76 11.678,1.346 9.996,2.057 L 5.963,-0.652 C 6.39,-1.805 6.364,-3.254 5.675,-4.551 4.559,-6.701 2.287,-7.607 0.595,-6.617 c -1.699,0.99 -2.131,3.478 -1.101,5.599 0.164,0.331 0.369,0.623 0.584,0.895 z"
             style="fill:#3c57a7;fill-opacity:1;fill-rule:nonzero;stroke:none"
             id="path596"
             inkscape:connector-curvature="0" /></g><g
           id="g598"
           transform="translate(380.9111,178.6074)"><path
             d="M 0,0 0.45,0.217 C 0.927,0.58 1.457,0.828 2,0.957 c 0,0 2.318,1.133 4.636,2.266 2.322,1.168 4.644,2.334 4.644,2.334 L 11.298,5.52 c 1.343,1.058 2.826,2.621 4.482,4.919 1.627,2.301 3.528,5.327 5.261,9.37 3.153,7.007 7.9,11.541 14.145,13.361 1.955,0.559 6.467,2.344 8.531,2.588 2.364,0.269 4.763,1.601 7.142,4.428 C 50.822,39.814 50.828,39.609 50.79,39.541 48.726,36.049 44.272,30.27 42.392,26.355 41.694,24.895 40.334,21.262 38.943,17.635 38.589,16.732 38.233,15.826 37.89,14.947 37.515,14.074 37.145,13.236 36.787,12.461 36.075,10.916 35.415,9.631 34.881,8.869 33.786,7.314 32.529,5.73 31.094,4.277 29.632,2.828 28.03,1.508 26.325,0.465 22.918,-1.621 19.108,-2.57 15.202,-1.328 13.517,-0.797 11.735,-0.039 10.134,0.82 L 5.859,-1.281 C 6.19,-2.42 5.962,-3.771 5.15,-4.912 3.82,-6.805 1.474,-7.393 -0.104,-6.27 c -1.594,1.131 -1.761,3.504 -0.499,5.375 0.196,0.291 0.426,0.543 0.667,0.774 z"
             style="fill:#3c57a7;fill-opacity:1;fill-rule:nonzero;stroke:none"
             id="path600"
             inkscape:connector-curvature="0" /></g><g
           id="g602"
           transform="translate(353.3506,144.293)"><path
             d="m 0,0 0.469,0.137 c 0.51,0.273 1.063,0.431 1.616,0.482 0,0 2.418,0.74 4.838,1.481 2.431,0.779 4.861,1.556 4.861,1.556 L 11.8,3.619 c 1.403,0.822 3.046,2.086 4.936,4.016 1.871,1.935 4.066,4.517 6.203,8.088 3.872,6.166 9.055,9.873 15.439,10.871 2,0.304 6.666,1.472 8.746,1.467 2.376,-0.014 4.942,0.966 7.567,3.386 -0.072,-0.345 -0.087,-0.541 -0.133,-0.601 -1.204,-1.537 -3.074,-3.557 -4.927,-5.614 -1.845,-2.06 -3.653,-4.16 -4.798,-5.906 -0.857,-1.295 -2.594,-4.562 -4.358,-7.81 C 38.752,8.252 36.709,5.072 35.506,3.768 34.255,2.443 32.821,1.117 31.261,-0.068 c -1.556,-1.188 -3.335,-2.205 -5.127,-2.959 -3.613,-1.506 -7.49,-1.887 -11.225,-0.217 -1.61,0.713 -3.291,1.654 -4.781,2.658 L 5.66,-1.965 C 5.847,-3.055 5.524,-4.293 4.619,-5.246 3.089,-6.812 0.7,-7.033 -0.738,-5.781 c -0.719,0.625 -1.064,1.494 -1.037,2.394 0.01,0.907 0.352,1.862 1.082,2.641 0.223,0.244 0.48,0.443 0.745,0.625 z"
             style="fill:#3c57a7;fill-opacity:1;fill-rule:nonzero;stroke:none"
             id="path604"
             inkscape:connector-curvature="0" /></g><g
           id="g606"
           transform="translate(436.4189,284.395)"><path
             d="m 0,0 -0.099,0.565 c 0.002,0.687 -0.121,1.345 -0.346,1.937 0,0 -0.523,2.885 -1.046,5.771 -0.563,2.877 -1.127,5.754 -1.127,5.754 l -0.039,-0.006 c -0.075,3.789 0.717,9.621 3.726,18.533 2.621,7.767 1.859,15.34 -1.881,21.831 -1.156,2.032 -3.69,7.063 -5.222,8.907 -0.889,1.071 -1.619,2.323 -2.231,3.888 -0.312,0.792 -0.558,1.602 -0.809,2.57 -0.124,0.48 -0.226,0.954 -0.336,1.493 -0.056,0.28 -0.112,0.565 -0.169,0.855 l -0.086,0.454 -0.142,0.642 c -0.1,-0.501 -0.169,-0.79 -0.172,-0.869 0.075,-1.33 0.123,-2.726 0.156,-4.22 0.031,-1.484 0.047,-3.057 0.022,-4.605 -0.039,-3.111 -0.218,-6.177 -0.65,-8.405 -0.307,-1.66 -1.544,-5.341 -2.802,-9.036 -1.256,-3.7 -2.55,-7.416 -2.829,-9.323 -1.089,-7.799 -0.985,-18.236 5.759,-23.652 1.45,-1.171 3.133,-2.292 4.791,-3.188 0,0 0.258,-1.318 0.515,-2.637 0.239,-1.32 0.48,-2.642 0.48,-2.642 -1.081,-0.445 -2.025,-1.497 -2.477,-2.943 -0.729,-2.389 0.132,-4.941 1.945,-5.74 1.821,-0.794 3.935,0.494 4.715,2.914 0.119,0.376 0.179,0.756 0.22,1.135 z"
             style="fill:#3c57a7;fill-opacity:1;fill-rule:nonzero;stroke:none"
             id="path608"
             inkscape:connector-curvature="0" /></g><g
           id="g610"
           transform="translate(84.7656,238.0586)"><path
             d="m 0,0 0.045,0.545 c -0.069,0.658 -0.012,1.297 0.154,1.883 0,0 0.059,0.703 0.147,1.754 0.097,1.052 0.183,2.455 0.344,3.853 0.294,2.799 0.589,5.594 0.589,5.594 L 1.32,13.628 c -0.17,1.808 -0.566,4.095 -1.402,6.951 -0.859,2.859 -2.176,6.288 -4.074,10.406 -3.375,7.178 -3.334,14.418 -0.339,20.826 0.965,2.009 2.893,6.902 4.2,8.723 1.514,2.083 2.326,4.923 2.341,8.711 0.201,-0.281 0.333,-0.414 0.345,-0.494 0.582,-4.042 1.268,-11.355 2.614,-15.451 0.473,-1.521 2.108,-4.885 3.733,-8.273 1.594,-3.39 3.304,-6.816 3.746,-8.604 0.896,-3.647 1.641,-7.988 1.271,-12.104 C 13.489,20.194 12.087,16.282 9.033,13.398 7.7,12.154 6.129,10.939 4.564,9.939 4.564,9.939 4.427,8.658 4.292,7.377 4.179,6.094 4.067,4.811 4.067,4.811 5.186,4.482 6.228,3.561 6.812,2.221 7.79,0.006 7.132,-2.506 5.404,-3.432 3.679,-4.357 1.417,-3.314 0.461,-1.072 0.308,-0.723 0.21,-0.365 0.137,-0.006 Z"
             style="fill:#3c57a7;fill-opacity:1;fill-rule:nonzero;stroke:none"
             id="path612"
             inkscape:connector-curvature="0" /></g><g
           id="g614"
           transform="translate(106.4131,195.3281)"><path
             d="m 0,0 -0.009,0.523 c -0.131,0.614 -0.133,1.225 -0.019,1.799 0,0 -0.031,2.682 -0.061,5.362 -0.06,2.677 0.009,5.359 0.009,5.359 h 0.042 c -0.317,1.699 -0.945,3.826 -2.108,6.453 -1.137,2.627 -2.723,5.754 -5.087,9.488 -2.024,3.25 -3.169,6.604 -3.6,9.942 -0.387,3.338 0.065,6.658 1.216,9.849 0.746,2.004 2.226,6.837 3.316,8.691 1.255,2.118 1.883,4.892 1.457,8.501 0.231,-0.249 0.377,-0.366 0.397,-0.44 0.512,-1.896 1.102,-4.571 1.766,-7.24 0.721,-2.673 1.517,-5.336 2.372,-7.226 C 0.3,49.658 2.278,46.609 4.229,43.543 6.154,40.471 8.16,37.385 8.807,35.732 9.46,34.049 10.046,32.193 10.471,30.27 10.94,28.35 11.248,26.361 11.285,24.396 11.316,20.465 10.493,16.645 7.658,13.605 6.453,12.297 4.97,10.982 3.541,9.879 L 3.596,4.98 C 4.737,4.785 5.862,4.023 6.567,2.818 7.711,0.82 7.413,-1.605 5.77,-2.666 4.135,-3.723 1.817,-2.979 0.587,-0.963 0.395,-0.65 0.255,-0.322 0.139,0.01 Z"
             style="fill:#3c57a7;fill-opacity:1;fill-rule:nonzero;stroke:none"
             id="path616"
             inkscape:connector-curvature="0" /></g><g
           id="g618"
           transform="translate(132.3613,157.6406)"><path
             d="m 0,0 -0.061,0.486 c -0.193,0.559 -0.259,1.129 -0.206,1.678 0,0 -0.311,2.498 -0.621,4.994 -0.344,2.488 -0.55,5.006 -0.55,5.006 l 0.04,0.006 c -0.486,1.551 -1.327,3.465 -2.75,5.787 -1.455,2.316 -3.287,5.086 -6.025,8.328 -2.403,2.819 -3.833,5.863 -4.591,8.961 -0.777,3.098 -0.638,6.281 0.217,9.41 0.271,0.981 0.623,2.653 1.03,4.303 0.445,1.66 0.93,3.299 1.392,4.23 1.074,2.129 1.287,4.793 0.594,8.168 0.251,-0.212 0.404,-0.312 0.432,-0.375 0.651,-1.746 1.542,-4.209 2.505,-6.656 0.972,-2.445 1.951,-4.885 3.051,-6.564 0.793,-1.254 3.034,-3.918 5.256,-6.592 C 1.957,38.49 4.294,35.828 5.072,34.35 8.28,28.289 11.122,19.883 6.188,13.596 5.121,12.234 3.783,10.834 2.485,9.637 L 3.051,5.084 C 4.206,5.039 5.401,4.465 6.226,3.43 7.565,1.711 7.502,-0.58 5.999,-1.768 4.49,-2.951 2.113,-2.551 0.674,-0.828 0.449,-0.559 0.272,-0.273 0.135,0.025 Z"
             style="fill:#3c57a7;fill-opacity:1;fill-rule:nonzero;stroke:none"
             id="path620"
             inkscape:connector-curvature="0" /></g><g
           id="g622"
           transform="translate(162.0269,126.252)"><path
             d="m 0,0 -0.115,0.437 c -0.252,0.483 -0.381,0.997 -0.392,1.506 0,0 -0.59,2.241 -1.18,4.483 -0.51,2.271 -1.019,4.543 -1.019,4.543 l 0.039,0.01 c -0.651,1.353 -1.697,2.994 -3.365,4.929 -1.581,1.975 -3.77,4.25 -6.815,6.889 -5.181,4.637 -7.343,10.435 -6.228,16.467 0.164,0.943 0.346,2.535 0.57,4.111 0.27,1.594 0.591,3.176 0.955,4.094 0.857,2.103 0.794,4.592 -0.254,7.65 0.27,-0.174 0.434,-0.244 0.466,-0.303 0.811,-1.552 2.002,-3.72 3.178,-5.882 1.208,-2.153 2.43,-4.299 3.699,-5.717 0.917,-1.061 3.417,-3.248 5.891,-5.438 2.47,-2.197 5.096,-4.33 6.011,-5.586 0.968,-1.273 1.86,-2.714 2.68,-4.22 0.837,-1.498 1.528,-3.092 1.95,-4.729 0.788,-3.295 0.726,-6.67 -1.393,-9.902 -0.913,-1.395 -2.059,-2.854 -3.255,-4.149 0,0 0.056,-0.259 0.141,-0.648 C 1.644,8.154 1.766,7.639 1.907,7.133 2.175,6.111 2.443,5.094 2.443,5.094 3.59,5.219 4.834,4.867 5.767,4.043 7.308,2.684 7.42,0.549 6.035,-0.771 4.651,-2.092 2.291,-2.064 0.741,-0.666 0.499,-0.451 0.304,-0.209 0.131,0.043 Z"
             style="fill:#3c57a7;fill-opacity:1;fill-rule:nonzero;stroke:none"
             id="path624"
             inkscape:connector-curvature="0" /></g><g
           id="g626"
           transform="translate(80.5303,263.0303)"><path
             d="m 0,0 -0.396,0.333 c -0.394,0.504 -0.867,0.896 -1.366,1.156 0,0 -2.01,1.742 -4.02,3.485 -2.006,1.77 -4.014,3.541 -4.014,3.541 L -9.823,8.479 c -1.061,1.435 -2.223,3.443 -3.336,6.267 -1.132,2.824 -2.254,6.468 -3.137,11.168 -1.565,8.164 -5.304,13.984 -11.012,17.184 -1.793,0.994 -5.827,3.8 -7.797,4.473 -2.256,0.759 -4.347,2.664 -6.081,6.145 -0.04,-0.399 -0.089,-0.619 -0.065,-0.698 0.667,-2.065 1.751,-4.862 2.828,-7.701 1.056,-2.841 2.081,-5.724 2.635,-8.011 0.739,-3.412 2.103,-16.452 3.617,-20.132 1.442,-3.77 3.689,-7.836 6.556,-10.803 2.859,-2.974 6.388,-4.848 10.468,-4.391 1.751,0.196 3.665,0.611 5.416,1.181 0,0 0.929,-0.809 1.857,-1.619 0.942,-0.803 1.883,-1.608 1.883,-1.608 -0.538,-1.157 -0.621,-2.668 -0.101,-4.085 0.857,-2.349 3.011,-3.531 4.805,-2.678 1.8,0.853 2.557,3.397 1.698,5.719 -0.133,0.361 -0.308,0.686 -0.498,0.991 z"
             style="fill:#3c57a7;fill-opacity:1;fill-rule:nonzero;stroke:none"
             id="path628"
             inkscape:connector-curvature="0" /></g><g
           id="g630"
           transform="translate(99.7275,218.5898)"><path
             d="M 0,0 -0.426,0.277 C -0.861,0.719 -1.364,1.041 -1.89,1.242 l -4.372,2.926 c -2.181,1.494 -4.362,2.988 -4.362,2.988 l -0.023,-0.037 c -1.172,1.266 -2.508,3.07 -3.919,5.66 -0.701,1.295 -1.443,2.785 -2.151,4.502 -0.694,1.719 -1.39,3.664 -2.076,5.865 -1.225,3.833 -2.824,7.041 -4.959,9.623 -2.127,2.579 -4.725,4.524 -7.706,5.787 -1.879,0.787 -6.158,3.102 -8.184,3.565 -2.311,0.524 -4.59,2.152 -6.69,5.318 0.002,-0.386 -0.024,-0.599 0.01,-0.673 1.79,-3.83 5.447,-10.254 7.011,-14.522 0.561,-1.588 1.425,-5.488 2.491,-9.406 0.518,-1.957 1.054,-3.918 1.57,-5.6 0.538,-1.685 1.072,-3.092 1.523,-3.943 3.629,-6.988 10.456,-14.611 18.467,-12.893 1.731,0.358 3.582,0.944 5.264,1.655 l 4.033,-2.709 c -0.427,-1.153 -0.401,-2.602 0.288,-3.899 1.116,-2.15 3.388,-3.056 5.079,-2.066 1.7,0.99 2.132,3.478 1.101,5.599 -0.163,0.331 -0.367,0.623 -0.584,0.895 z"
             style="fill:#3c57a7;fill-opacity:1;fill-rule:nonzero;stroke:none"
             id="path632"
             inkscape:connector-curvature="0" /></g><g
           id="g634"
           transform="translate(123.2993,178.6074)"><path
             d="m 0,0 -0.451,0.217 c -0.476,0.363 -1.006,0.611 -1.55,0.74 0,0 -2.318,1.133 -4.635,2.266 -2.322,1.168 -4.645,2.334 -4.645,2.334 L -11.299,5.52 c -1.341,1.058 -2.826,2.621 -4.482,4.919 -1.628,2.301 -3.528,5.327 -5.261,9.37 -3.153,7.007 -7.9,11.541 -14.144,13.361 -1.956,0.559 -6.467,2.344 -8.532,2.588 -2.364,0.269 -4.763,1.601 -7.142,4.428 0.037,-0.372 0.031,-0.577 0.068,-0.645 2.065,-3.492 6.519,-9.271 8.399,-13.186 0.699,-1.46 2.058,-5.093 3.448,-8.72 0.355,-0.903 0.711,-1.809 1.055,-2.688 0.374,-0.873 0.744,-1.711 1.101,-2.486 0.713,-1.545 1.373,-2.83 1.907,-3.592 1.095,-1.555 2.352,-3.139 3.787,-4.592 1.462,-1.449 3.065,-2.769 4.768,-3.812 3.409,-2.086 7.218,-3.035 11.124,-1.793 1.686,0.531 3.468,1.289 5.068,2.148 l 4.276,-2.101 c -0.332,-1.139 -0.104,-2.49 0.708,-3.631 1.329,-1.893 3.677,-2.481 5.256,-1.358 1.592,1.131 1.76,3.504 0.498,5.375 -0.196,0.291 -0.426,0.543 -0.668,0.774 z"
             style="fill:#3c57a7;fill-opacity:1;fill-rule:nonzero;stroke:none"
             id="path636"
             inkscape:connector-curvature="0" /></g><g
           id="g638"
           transform="translate(150.8584,144.293)"><path
             d="m 0,0 -0.468,0.137 c -0.511,0.273 -1.062,0.431 -1.616,0.482 0,0 -2.419,0.74 -4.838,1.481 -2.431,0.779 -4.862,1.556 -4.862,1.556 l -0.015,-0.037 c -1.403,0.822 -3.045,2.086 -4.937,4.016 -1.87,1.935 -4.065,4.517 -6.202,8.088 -3.872,6.166 -9.056,9.873 -15.438,10.871 -2.001,0.304 -6.668,1.472 -8.747,1.467 -2.376,-0.014 -4.944,0.966 -7.567,3.386 0.071,-0.345 0.087,-0.541 0.134,-0.601 1.203,-1.537 3.073,-3.557 4.927,-5.614 1.844,-2.06 3.651,-4.16 4.797,-5.906 0.857,-1.295 2.592,-4.562 4.358,-7.81 1.723,-3.264 3.766,-6.444 4.969,-7.748 1.251,-1.325 2.684,-2.651 4.245,-3.836 1.556,-1.188 3.335,-2.205 5.128,-2.959 3.612,-1.506 7.49,-1.887 11.224,-0.217 1.609,0.713 3.29,1.654 4.781,2.658 l 4.467,-1.379 c -0.185,-1.09 0.137,-2.328 1.042,-3.281 1.53,-1.566 3.919,-1.787 5.357,-0.535 0.719,0.625 1.062,1.494 1.037,2.394 -0.01,0.907 -0.352,1.862 -1.082,2.641 -0.224,0.244 -0.48,0.443 -0.745,0.625 z"
             style="fill:#3c57a7;fill-opacity:1;fill-rule:nonzero;stroke:none"
             id="path640"
             inkscape:connector-curvature="0" /></g><g
           id="g642"
           transform="translate(84.7656,238.0586)"><path
             d="m 0,0 0.045,0.545 c -0.069,0.658 -0.012,1.297 0.154,1.883 0,0 0.059,0.703 0.147,1.754 0.097,1.052 0.183,2.455 0.344,3.853 0.294,2.799 0.589,5.594 0.589,5.594 L 1.32,13.628 c -0.17,1.808 -0.566,4.095 -1.402,6.951 -0.859,2.859 -2.176,6.288 -4.074,10.406 -3.375,7.178 -3.334,14.418 -0.339,20.826 0.965,2.009 2.893,6.902 4.2,8.723 1.514,2.083 2.326,4.923 2.341,8.711 0.201,-0.281 0.333,-0.414 0.345,-0.494 0.582,-4.042 1.268,-11.355 2.614,-15.451 0.473,-1.521 2.108,-4.885 3.733,-8.273 1.594,-3.39 3.304,-6.816 3.746,-8.604 0.896,-3.647 1.641,-7.988 1.271,-12.104 C 13.489,20.194 12.087,16.282 9.033,13.398 7.7,12.154 6.129,10.939 4.564,9.939 4.564,9.939 4.427,8.658 4.292,7.377 4.179,6.094 4.067,4.811 4.067,4.811 5.186,4.482 6.228,3.561 6.812,2.221 7.79,0.006 7.132,-2.506 5.404,-3.432 3.679,-4.357 1.417,-3.314 0.461,-1.072 0.308,-0.723 0.21,-0.365 0.137,-0.006 Z"
             style="fill:#3c57a7;fill-opacity:1;fill-rule:nonzero;stroke:none"
             id="path644"
             inkscape:connector-curvature="0" /></g><g
           id="g646"
           transform="translate(106.4131,195.3281)"><path
             d="m 0,0 -0.009,0.523 c -0.131,0.614 -0.133,1.225 -0.019,1.799 0,0 -0.031,2.682 -0.061,5.362 -0.06,2.677 0.009,5.359 0.009,5.359 h 0.042 c -0.317,1.699 -0.945,3.826 -2.108,6.453 -1.137,2.627 -2.723,5.754 -5.087,9.488 -2.024,3.25 -3.169,6.604 -3.6,9.942 -0.387,3.338 0.065,6.658 1.216,9.849 0.746,2.004 2.226,6.837 3.316,8.691 1.255,2.118 1.883,4.892 1.457,8.501 0.231,-0.249 0.377,-0.366 0.397,-0.44 0.512,-1.896 1.102,-4.571 1.766,-7.24 0.721,-2.673 1.517,-5.336 2.372,-7.226 C 0.3,49.658 2.278,46.609 4.229,43.543 6.154,40.471 8.16,37.385 8.807,35.732 9.46,34.049 10.046,32.193 10.471,30.27 10.94,28.35 11.248,26.361 11.285,24.396 11.316,20.465 10.493,16.645 7.658,13.605 6.453,12.297 4.97,10.982 3.541,9.879 L 3.596,4.98 C 4.737,4.785 5.862,4.023 6.567,2.818 7.711,0.82 7.413,-1.605 5.77,-2.666 4.135,-3.723 1.817,-2.979 0.587,-0.963 0.395,-0.65 0.255,-0.322 0.139,0.01 Z"
             style="fill:#3c57a7;fill-opacity:1;fill-rule:nonzero;stroke:none"
             id="path648"
             inkscape:connector-curvature="0" /></g><g
           id="g650"
           transform="translate(132.3613,157.6406)"><path
             d="m 0,0 -0.061,0.486 c -0.193,0.559 -0.259,1.129 -0.206,1.678 0,0 -0.311,2.498 -0.621,4.994 -0.344,2.488 -0.55,5.006 -0.55,5.006 l 0.04,0.006 c -0.486,1.551 -1.327,3.465 -2.75,5.787 -1.455,2.316 -3.287,5.086 -6.025,8.328 -2.403,2.819 -3.833,5.863 -4.591,8.961 -0.777,3.098 -0.638,6.281 0.217,9.41 0.271,0.981 0.623,2.653 1.03,4.303 0.445,1.66 0.93,3.299 1.392,4.23 1.074,2.129 1.287,4.793 0.594,8.168 0.251,-0.212 0.404,-0.312 0.432,-0.375 0.651,-1.746 1.542,-4.209 2.505,-6.656 0.972,-2.445 1.951,-4.885 3.051,-6.564 0.793,-1.254 3.034,-3.918 5.256,-6.592 C 1.957,38.49 4.294,35.828 5.072,34.35 8.28,28.289 11.122,19.883 6.188,13.596 5.121,12.234 3.783,10.834 2.485,9.637 L 3.051,5.084 C 4.206,5.039 5.401,4.465 6.226,3.43 7.565,1.711 7.502,-0.58 5.999,-1.768 4.49,-2.951 2.113,-2.551 0.674,-0.828 0.449,-0.559 0.272,-0.273 0.135,0.025 Z"
             style="fill:#3c57a7;fill-opacity:1;fill-rule:nonzero;stroke:none"
             id="path652"
             inkscape:connector-curvature="0" /></g><g
           id="g654"
           transform="translate(162.0269,126.252)"><path
             d="m 0,0 -0.115,0.437 c -0.252,0.483 -0.381,0.997 -0.392,1.506 0,0 -0.59,2.241 -1.18,4.483 -0.51,2.271 -1.019,4.543 -1.019,4.543 l 0.039,0.01 c -0.651,1.353 -1.697,2.994 -3.365,4.929 -1.581,1.975 -3.77,4.25 -6.815,6.889 -5.181,4.637 -7.343,10.435 -6.228,16.467 0.164,0.943 0.346,2.535 0.57,4.111 0.27,1.594 0.591,3.176 0.955,4.094 0.857,2.103 0.794,4.592 -0.254,7.65 0.27,-0.174 0.434,-0.244 0.466,-0.303 0.811,-1.552 2.002,-3.72 3.178,-5.882 1.208,-2.153 2.43,-4.299 3.699,-5.717 0.917,-1.061 3.417,-3.248 5.891,-5.438 2.47,-2.197 5.096,-4.33 6.011,-5.586 0.968,-1.273 1.86,-2.714 2.68,-4.22 0.837,-1.498 1.528,-3.092 1.95,-4.729 0.788,-3.295 0.726,-6.67 -1.393,-9.902 -0.913,-1.395 -2.059,-2.854 -3.255,-4.149 0,0 0.056,-0.259 0.141,-0.648 C 1.644,8.154 1.766,7.639 1.907,7.133 2.175,6.111 2.443,5.094 2.443,5.094 3.59,5.219 4.834,4.867 5.767,4.043 7.308,2.684 7.42,0.549 6.035,-0.771 4.651,-2.092 2.291,-2.064 0.741,-0.666 0.499,-0.451 0.304,-0.209 0.131,0.043 Z"
             style="fill:#3c57a7;fill-opacity:1;fill-rule:nonzero;stroke:none"
             id="path656"
             inkscape:connector-curvature="0" /></g><g
           id="g658"
           transform="translate(80.5303,263.0303)"><path
             d="m 0,0 -0.396,0.333 c -0.394,0.504 -0.867,0.896 -1.366,1.156 0,0 -2.01,1.742 -4.02,3.485 -2.006,1.77 -4.014,3.541 -4.014,3.541 L -9.823,8.479 c -1.061,1.435 -2.223,3.443 -3.336,6.267 -1.132,2.824 -2.254,6.468 -3.137,11.168 -1.565,8.164 -5.304,13.984 -11.012,17.184 -1.793,0.994 -5.827,3.8 -7.797,4.473 -2.256,0.759 -4.347,2.664 -6.081,6.145 -0.04,-0.399 -0.089,-0.619 -0.065,-0.698 0.667,-2.065 1.751,-4.862 2.828,-7.701 1.056,-2.841 2.081,-5.724 2.635,-8.011 0.739,-3.412 2.103,-16.452 3.617,-20.132 1.442,-3.77 3.689,-7.836 6.556,-10.803 2.859,-2.974 6.388,-4.848 10.468,-4.391 1.751,0.196 3.665,0.611 5.416,1.181 0,0 0.929,-0.809 1.857,-1.619 0.942,-0.803 1.883,-1.608 1.883,-1.608 -0.538,-1.157 -0.621,-2.668 -0.101,-4.085 0.857,-2.349 3.011,-3.531 4.805,-2.678 1.8,0.853 2.557,3.397 1.698,5.719 -0.133,0.361 -0.308,0.686 -0.498,0.991 z"
             style="fill:#3c57a7;fill-opacity:1;fill-rule:nonzero;stroke:none"
             id="path660"
             inkscape:connector-curvature="0" /></g><g
           id="g662"
           transform="translate(99.7275,218.5898)"><path
             d="M 0,0 -0.426,0.277 C -0.861,0.719 -1.364,1.041 -1.89,1.242 l -4.372,2.926 c -2.181,1.494 -4.362,2.988 -4.362,2.988 l -0.023,-0.037 c -1.172,1.266 -2.508,3.07 -3.919,5.66 -0.701,1.295 -1.443,2.785 -2.151,4.502 -0.694,1.719 -1.39,3.664 -2.076,5.865 -1.225,3.833 -2.824,7.041 -4.959,9.623 -2.127,2.579 -4.725,4.524 -7.706,5.787 -1.879,0.787 -6.158,3.102 -8.184,3.565 -2.311,0.524 -4.59,2.152 -6.69,5.318 0.002,-0.386 -0.024,-0.599 0.01,-0.673 1.79,-3.83 5.447,-10.254 7.011,-14.522 0.561,-1.588 1.425,-5.488 2.491,-9.406 0.518,-1.957 1.054,-3.918 1.57,-5.6 0.538,-1.685 1.072,-3.092 1.523,-3.943 3.629,-6.988 10.456,-14.611 18.467,-12.893 1.731,0.358 3.582,0.944 5.264,1.655 l 4.033,-2.709 c -0.427,-1.153 -0.401,-2.602 0.288,-3.899 1.116,-2.15 3.388,-3.056 5.079,-2.066 1.7,0.99 2.132,3.478 1.101,5.599 -0.163,0.331 -0.367,0.623 -0.584,0.895 z"
             style="fill:#3c57a7;fill-opacity:1;fill-rule:nonzero;stroke:none"
             id="path664"
             inkscape:connector-curvature="0" /></g><g
           id="g666"
           transform="translate(123.2993,178.6074)"><path
             d="m 0,0 -0.451,0.217 c -0.476,0.363 -1.006,0.611 -1.55,0.74 0,0 -2.318,1.133 -4.635,2.266 -2.322,1.168 -4.645,2.334 -4.645,2.334 L -11.299,5.52 c -1.341,1.058 -2.826,2.621 -4.482,4.919 -1.628,2.301 -3.528,5.327 -5.261,9.37 -3.153,7.007 -7.9,11.541 -14.144,13.361 -1.956,0.559 -6.467,2.344 -8.532,2.588 -2.364,0.269 -4.763,1.601 -7.142,4.428 0.037,-0.372 0.031,-0.577 0.068,-0.645 2.065,-3.492 6.519,-9.271 8.399,-13.186 0.699,-1.46 2.058,-5.093 3.448,-8.72 0.355,-0.903 0.711,-1.809 1.055,-2.688 0.374,-0.873 0.744,-1.711 1.101,-2.486 0.713,-1.545 1.373,-2.83 1.907,-3.592 1.095,-1.555 2.352,-3.139 3.787,-4.592 1.462,-1.449 3.065,-2.769 4.768,-3.812 3.409,-2.086 7.218,-3.035 11.124,-1.793 1.686,0.531 3.468,1.289 5.068,2.148 l 4.276,-2.101 c -0.332,-1.139 -0.104,-2.49 0.708,-3.631 1.329,-1.893 3.677,-2.481 5.256,-1.358 1.592,1.131 1.76,3.504 0.498,5.375 -0.196,0.291 -0.426,0.543 -0.668,0.774 z"
             style="fill:#3c57a7;fill-opacity:1;fill-rule:nonzero;stroke:none"
             id="path668"
             inkscape:connector-curvature="0" /></g><g
           id="g670"
           transform="translate(150.8584,144.293)"><path
             d="m 0,0 -0.468,0.137 c -0.511,0.273 -1.062,0.431 -1.616,0.482 0,0 -2.419,0.74 -4.838,1.481 -2.431,0.779 -4.862,1.556 -4.862,1.556 l -0.015,-0.037 c -1.403,0.822 -3.045,2.086 -4.937,4.016 -1.87,1.935 -4.065,4.517 -6.202,8.088 -3.872,6.166 -9.056,9.873 -15.438,10.871 -2.001,0.304 -6.668,1.472 -8.747,1.467 -2.376,-0.014 -4.944,0.966 -7.567,3.386 0.071,-0.345 0.087,-0.541 0.134,-0.601 1.203,-1.537 3.073,-3.557 4.927,-5.614 1.844,-2.06 3.651,-4.16 4.797,-5.906 0.857,-1.295 2.592,-4.562 4.358,-7.81 1.723,-3.264 3.766,-6.444 4.969,-7.748 1.251,-1.325 2.684,-2.651 4.245,-3.836 1.556,-1.188 3.335,-2.205 5.128,-2.959 3.612,-1.506 7.49,-1.887 11.224,-0.217 1.609,0.713 3.29,1.654 4.781,2.658 l 4.467,-1.379 c -0.185,-1.09 0.137,-2.328 1.042,-3.281 1.53,-1.566 3.919,-1.787 5.357,-0.535 0.719,0.625 1.062,1.494 1.037,2.394 -0.01,0.907 -0.352,1.862 -1.082,2.641 -0.224,0.244 -0.48,0.443 -0.745,0.625 z"
             style="fill:#3c57a7;fill-opacity:1;fill-rule:nonzero;stroke:none"
             id="path672"
             inkscape:connector-curvature="0" /></g><g
           id="g674"
           transform="translate(67.7905,284.395)"><path
             d="m 0,0 0.1,0.565 c -0.002,0.687 0.121,1.345 0.345,1.937 0,0 0.523,2.885 1.046,5.771 0.563,2.877 1.128,5.754 1.128,5.754 l 0.04,-0.006 c 0.074,3.789 -0.717,9.621 -3.727,18.533 -2.623,7.767 -1.859,15.34 1.88,21.831 1.157,2.032 3.69,7.063 5.223,8.907 0.888,1.071 1.618,2.323 2.231,3.888 0.312,0.792 0.558,1.602 0.808,2.57 0.124,0.48 0.226,0.954 0.336,1.493 0.057,0.28 0.112,0.565 0.17,0.855 l 0.086,0.454 0.14,0.642 c 0.1,-0.501 0.171,-0.79 0.173,-0.869 C 9.904,70.995 9.857,69.599 9.824,68.105 9.792,66.621 9.776,65.048 9.8,63.5 c 0.041,-3.111 0.219,-6.177 0.652,-8.405 0.305,-1.66 1.545,-5.341 2.802,-9.036 1.255,-3.7 2.549,-7.416 2.829,-9.323 C 17.171,28.937 17.068,18.5 10.323,13.084 8.874,11.913 7.191,10.792 5.533,9.896 5.533,9.896 5.275,8.578 5.017,7.259 4.778,5.939 4.537,4.617 4.537,4.617 5.618,4.172 6.563,3.12 7.013,1.674 7.743,-0.715 6.882,-3.267 5.069,-4.066 3.248,-4.86 1.134,-3.572 0.355,-1.152 c -0.119,0.376 -0.18,0.756 -0.22,1.135 z"
             style="fill:#3c57a7;fill-opacity:1;fill-rule:nonzero;stroke:none"
             id="path676"
             inkscape:connector-curvature="0" /></g><g
           id="g678"
           transform="translate(217.4268,228.7031)"><path
             d="m 0,0 7.546,-25.242 -6.975,-2.086 -4.945,16.541 c -0.872,-1.193 -1.757,-2.215 -2.653,-3.061 -0.898,-0.847 -2.069,-1.75 -3.516,-2.711 l -1.69,5.655 c 2.122,1.459 3.673,2.912 4.653,4.361 0.982,1.449 1.606,3.063 1.874,4.838 z"
             style="fill:#ffffff;fill-opacity:1;fill-rule:nonzero;stroke:none"
             id="path680"
             inkscape:connector-curvature="0" /></g><g
           id="g682"
           transform="translate(241.8809,223.4531)"><path
             d="M 0,0 C -0.128,1.395 -0.581,2.457 -1.358,3.184 -2.135,3.912 -3.028,4.227 -4.036,4.135 -4.986,4.047 -5.742,3.617 -6.304,2.844 -6.866,2.07 -7.081,0.969 -6.95,-0.465 c 0.133,-1.441 0.561,-2.514 1.282,-3.217 0.72,-0.703 1.568,-1.009 2.542,-0.92 1.008,0.094 1.814,0.54 2.414,1.342 0.6,0.799 0.838,1.885 0.712,3.26 m -12.139,-12.725 7.044,1.555 c 0.279,-0.98 0.66,-1.656 1.144,-2.025 0.484,-0.369 1.048,-0.524 1.694,-0.465 1.149,0.105 1.994,0.769 2.531,1.99 0.392,0.9 0.576,2.744 0.557,5.535 -0.776,-0.959 -1.596,-1.685 -2.462,-2.179 -0.866,-0.495 -1.891,-0.795 -3.076,-0.905 -2.311,-0.213 -4.336,0.43 -6.078,1.926 -1.74,1.496 -2.726,3.498 -2.957,6.01 -0.157,1.713 0.104,3.31 0.784,4.793 0.68,1.482 1.696,2.65 3.05,3.5 1.353,0.853 3.102,1.377 5.25,1.576 C -2.078,8.822 0.033,8.57 1.675,7.828 3.317,7.084 4.692,5.791 5.803,3.947 6.913,2.105 7.614,-0.4 7.905,-3.568 8.333,-8.227 7.668,-11.727 5.908,-14.07 c -1.76,-2.346 -4.376,-3.678 -7.848,-3.996 -2.054,-0.19 -3.695,-0.102 -4.923,0.265 -1.229,0.365 -2.279,0.971 -3.149,1.813 -0.87,0.842 -1.579,1.931 -2.127,3.263"
             style="fill:#ffffff;fill-opacity:1;fill-rule:nonzero;stroke:none"
             id="path684"
             inkscape:connector-curvature="0" /></g><g
           id="g686"
           transform="translate(272.3506,204.6641)"><path
             d="m 0,0 -21.477,2.24 c 0.468,2.096 1.422,4.012 2.866,5.752 1.442,1.738 4.012,3.699 7.712,5.885 2.259,1.34 3.724,2.383 4.394,3.129 0.67,0.748 1.043,1.484 1.119,2.211 0.081,0.785 -0.136,1.486 -0.659,2.103 -0.521,0.617 -1.223,0.971 -2.102,1.063 -0.915,0.096 -1.69,-0.113 -2.331,-0.627 -0.638,-0.512 -1.134,-1.486 -1.486,-2.92 l -7.111,1.328 c 0.492,1.986 1.173,3.508 2.041,4.559 0.868,1.052 2.014,1.81 3.443,2.271 1.428,0.461 3.349,0.567 5.764,0.313 2.517,-0.262 4.448,-0.754 5.787,-1.475 1.341,-0.719 2.35,-1.717 3.028,-2.988 C 1.667,21.568 1.93,20.195 1.775,18.719 1.611,17.148 0.995,15.695 -0.073,14.363 -1.143,13.031 -2.979,11.635 -5.583,10.178 -7.129,9.33 -8.165,8.734 -8.692,8.385 -9.221,8.039 -9.846,7.576 -10.569,7 L 0.61,5.834 Z"
             style="fill:#ffffff;fill-opacity:1;fill-rule:nonzero;stroke:none"
             id="path688"
             inkscape:connector-curvature="0" /></g><g
           id="g690"
           transform="translate(280.6279,229.2773)"><path
             d="m 0,0 20.056,-6.268 -1.45,-4.638 c -2.236,-1.03 -4.223,-2.278 -5.966,-3.746 -2.113,-1.782 -4.006,-3.912 -5.682,-6.387 -1.315,-1.922 -2.539,-4.299 -3.671,-7.131 l -6.849,2.143 c 1.802,3.867 3.709,6.986 5.721,9.355 2.012,2.371 4.758,4.723 8.24,7.053 l -12.211,3.818 z"
             style="fill:#ffffff;fill-opacity:1;fill-rule:nonzero;stroke:none"
             id="path692"
             inkscape:connector-curvature="0" /></g><g
           id="g694"
           transform="translate(211.9468,295.1211)"><path
             d="m 0,0 11.765,0.737 c 0.254,-1.911 0.773,-3.367 1.555,-4.367 1.274,-1.62 3.094,-2.43 5.46,-2.43 1.764,0 3.125,0.414 4.08,1.242 0.955,0.828 1.433,1.788 1.433,2.88 0,1.038 -0.455,1.966 -1.364,2.784 -0.91,0.819 -3.021,1.593 -6.333,2.321 -5.423,1.219 -9.29,2.838 -11.601,4.858 -2.329,2.02 -3.494,4.595 -3.494,7.725 0,2.056 0.596,3.999 1.788,5.828 1.191,1.829 2.984,3.266 5.378,4.313 2.392,1.046 5.672,1.569 9.839,1.569 5.114,0 9.013,-0.951 11.697,-2.852 2.685,-1.901 4.281,-4.927 4.791,-9.076 L 23.338,14.85 c -0.309,1.801 -0.96,3.111 -1.952,3.93 -0.992,0.819 -2.361,1.228 -4.108,1.228 -1.437,0 -2.52,-0.305 -3.248,-0.914 -0.728,-0.61 -1.092,-1.351 -1.092,-2.225 0,-0.637 0.301,-1.21 0.901,-1.719 0.582,-0.528 1.966,-1.02 4.149,-1.474 5.405,-1.165 9.276,-2.343 11.615,-3.535 2.337,-1.192 4.04,-2.671 5.104,-4.436 1.065,-1.766 1.596,-3.739 1.596,-5.923 0,-2.566 -0.709,-4.932 -2.128,-7.097 -1.419,-2.166 -3.404,-3.808 -5.951,-4.927 -2.548,-1.119 -5.759,-1.679 -9.635,-1.679 -6.806,0 -11.52,1.311 -14.14,3.931 C 1.829,-7.37 0.345,-4.041 0,0"
             style="fill:#ffffff;fill-opacity:1;fill-rule:nonzero;stroke:none"
             id="path696"
             inkscape:connector-curvature="0" /></g><g
           id="g698"
           transform="translate(254.5293,321.8989)"><path
             d="M 0,0 H 12.364 V -14.003 H 25.877 V 0 H 38.296 V -40.017 H 25.877 V -23.83 H 12.364 V -40.017 H 0 Z"
             style="fill:#ffffff;fill-opacity:1;fill-rule:nonzero;stroke:none"
             id="path700"
             inkscape:connector-curvature="0" /></g><g
           id="g702"
           transform="translate(118.9546,384.8442)"><path
             d="m 0,0 12.993,0.886 c 0.281,-2.297 0.854,-4.046 1.718,-5.248 1.406,-1.946 3.416,-2.919 6.029,-2.919 1.948,0 3.451,0.497 4.507,1.492 1.054,0.995 1.582,2.149 1.582,3.46 0,1.247 -0.503,2.362 -1.507,3.346 C 24.316,2.001 21.985,2.93 18.328,3.805 12.339,5.27 8.069,7.216 5.517,9.643 c -2.573,2.428 -3.859,5.521 -3.859,9.282 0,2.471 0.658,4.805 1.975,7.003 1.316,2.197 3.295,3.925 5.938,5.181 2.643,1.258 6.265,1.887 10.867,1.887 5.647,0 9.953,-1.143 12.917,-3.428 2.964,-2.284 4.728,-5.92 5.291,-10.905 l -12.872,-0.82 c -0.342,2.165 -1.061,3.739 -2.155,4.723 -1.097,0.984 -2.608,1.476 -4.537,1.476 -1.588,0 -2.784,-0.366 -3.587,-1.099 -0.805,-0.733 -1.206,-1.624 -1.206,-2.673 0,-0.766 0.332,-1.454 0.995,-2.066 0.642,-0.635 2.171,-1.225 4.581,-1.771 5.969,-1.4 10.244,-2.816 12.827,-4.248 2.582,-1.433 4.461,-3.209 5.638,-5.33 1.175,-2.121 1.762,-4.493 1.762,-7.118 0,-3.083 -0.783,-5.925 -2.351,-8.527 -1.567,-2.602 -3.759,-4.576 -6.572,-5.92 -2.814,-1.345 -6.36,-2.018 -10.64,-2.018 -7.517,0 -12.721,1.575 -15.616,4.724 C 2.02,-8.855 0.381,-4.854 0,0"
             style="fill:#3c57a7;fill-opacity:1;fill-rule:nonzero;stroke:none"
             id="path704"
             inkscape:connector-curvature="0" /></g><g
           id="g706"
           transform="translate(165.9805,417.02)"><path
             d="M 0,0 H 13.655 V -16.825 H 28.577 V 0 H 42.293 V -48.083 H 28.577 v 19.45 H 13.655 v -19.45 H 0 Z"
             style="fill:#3c57a7;fill-opacity:1;fill-rule:nonzero;stroke:none"
             id="path708"
             inkscape:connector-curvature="0" /></g><g
           id="g710"
           transform="translate(217.4072,417.02)"><path
             d="M 0,0 H 13.655 V -18.17 L 27.959,0 H 46.121 L 29.995,-18.149 46.844,-48.083 H 30.027 L 20.71,-28.309 13.655,-36.35 V -48.083 H 0 Z"
             style="fill:#3c57a7;fill-opacity:1;fill-rule:nonzero;stroke:none"
             id="path712"
             inkscape:connector-curvature="0" /></g><g
           id="g714"
           transform="translate(297.5312,417.02)"><path
             d="m 0,0 h 13.625 v -28.647 c 0,-2.841 -0.407,-5.522 -1.221,-8.046 -0.814,-2.525 -2.091,-4.732 -3.829,-6.622 -1.737,-1.89 -3.561,-3.217 -5.47,-3.982 -2.654,-1.071 -5.838,-1.606 -9.556,-1.606 -2.151,0 -4.498,0.164 -7.04,0.491 -2.542,0.329 -4.666,0.978 -6.374,1.951 -1.709,0.972 -3.273,2.354 -4.689,4.146 -1.417,1.792 -2.385,3.638 -2.908,5.54 -0.845,3.058 -1.267,5.767 -1.267,8.128 V 0 h 13.625 v -29.329 c 0,-2.622 0.668,-4.67 2.006,-6.145 1.336,-1.475 3.19,-2.212 5.561,-2.212 2.352,0 4.195,0.726 5.532,2.179 1.336,1.453 2.005,3.512 2.005,6.178 z"
             style="fill:#3c57a7;fill-opacity:1;fill-rule:nonzero;stroke:none"
             id="path716"
             inkscape:connector-curvature="0" /></g><g
           id="g718"
           transform="translate(333.8555,396.5205)"><path
             d="m 0,0 h 3.346 c 2.632,0 4.48,0.498 5.547,1.493 1.065,0.995 1.596,2.268 1.596,3.821 0,1.509 -0.462,2.788 -1.386,3.837 -0.924,1.05 -2.663,1.575 -5.214,1.575 l -3.889,0 z m -13.717,20.5 h 22.7 c 4.944,0 8.646,-1.28 11.109,-3.838 2.461,-2.558 3.692,-6.198 3.692,-10.922 0,-4.854 -1.342,-8.648 -4.025,-11.381 -2.683,-2.734 -6.778,-4.1 -12.283,-4.1 H 0 v -17.843 h -13.717 z"
             style="fill:#3c57a7;fill-opacity:1;fill-rule:nonzero;stroke:none"
             id="path720"
             inkscape:connector-curvature="0" /></g><path
           d="m 365.327,417.02 h 13.687 v -48.083 h -13.687 z"
           style="fill:#3c57a7;fill-opacity:1;fill-rule:nonzero;stroke:none"
           id="path722"
           inkscape:connector-curvature="0" /><g
           id="g724"
           transform="translate(157.4541,453.7847)"><path
             d="m 0,0 h 14.552 v -4.092 h -8.64 v -3.327 h 7.38 v -3.846 h -7.38 v -7.783 H 0 Z"
             style="fill:#3c57a7;fill-opacity:1;fill-rule:nonzero;stroke:none"
             id="path726"
             inkscape:connector-curvature="0" /></g><g
           id="g728"
           transform="translate(178.5684,441.6104)"><path
             d="m 0,0 c 0,-1.23 0.249,-2.14 0.747,-2.729 0.499,-0.589 1.124,-0.883 1.878,-0.883 0.762,0 1.388,0.29 1.877,0.87 0.49,0.58 0.734,1.512 0.734,2.794 0,1.195 -0.247,2.086 -0.74,2.67 C 4.001,3.307 3.391,3.6 2.664,3.6 1.893,3.6 1.256,3.303 0.753,2.709 0.251,2.116 0,1.212 0,0 m -5.301,-0.013 c 0,2.105 0.71,3.839 2.131,5.203 1.42,1.365 3.339,2.047 5.755,2.047 2.764,0 4.851,-0.801 6.263,-2.404 1.135,-1.291 1.702,-2.879 1.702,-4.768 0,-2.123 -0.703,-3.861 -2.111,-5.217 -1.408,-1.356 -3.355,-2.033 -5.84,-2.033 -2.218,0 -4.011,0.562 -5.38,1.689 -1.68,1.394 -2.52,3.222 -2.52,5.483"
             style="fill:#3c57a7;fill-opacity:1;fill-rule:nonzero;stroke:none"
             id="path730"
             inkscape:connector-curvature="0" /></g><g
           id="g732"
           transform="translate(196.3174,441.6104)"><path
             d="m 0,0 c 0,-1.23 0.249,-2.14 0.746,-2.729 0.499,-0.589 1.125,-0.883 1.879,-0.883 0.762,0 1.388,0.29 1.877,0.87 0.489,0.58 0.734,1.512 0.734,2.794 0,1.195 -0.247,2.086 -0.741,2.67 C 4.001,3.307 3.391,3.6 2.664,3.6 1.892,3.6 1.255,3.303 0.753,2.709 0.251,2.116 0,1.212 0,0 m -5.301,-0.013 c 0,2.105 0.709,3.839 2.131,5.203 1.42,1.365 3.338,2.047 5.756,2.047 2.763,0 4.85,-0.801 6.262,-2.404 1.135,-1.291 1.703,-2.879 1.703,-4.768 0,-2.123 -0.704,-3.861 -2.112,-5.217 -1.407,-1.356 -3.355,-2.033 -5.841,-2.033 -2.217,0 -4.01,0.562 -5.379,1.689 -1.681,1.394 -2.52,3.222 -2.52,5.483"
             style="fill:#3c57a7;fill-opacity:1;fill-rule:nonzero;stroke:none"
             id="path734"
             inkscape:connector-curvature="0" /></g><g
           id="g736"
           transform="translate(215.7944,453.7847)"><path
             d="M 0,0 V -5.249 H 2.911 V -9.121 H 0 v -4.889 c 0,-0.588 0.056,-0.977 0.169,-1.167 0.173,-0.294 0.476,-0.44 0.909,-0.44 0.39,0 0.935,0.112 1.637,0.337 l 0.39,-3.651 c -1.308,-0.286 -2.529,-0.428 -3.664,-0.428 -1.317,0 -2.287,0.168 -2.911,0.505 -0.623,0.338 -1.084,0.851 -1.384,1.538 -0.298,0.688 -0.447,1.801 -0.447,3.342 v 4.853 H -7.25 v 3.872 h 1.949 v 2.534 z"
             style="fill:#3c57a7;fill-opacity:1;fill-rule:nonzero;stroke:none"
             id="path738"
             inkscape:connector-curvature="0" /></g><g
           id="g740"
           transform="translate(226.5527,441.6753)"><path
             d="m 0,0 c 0,-1.187 0.223,-2.046 0.669,-2.579 0.446,-0.534 1.011,-0.799 1.696,-0.799 0.632,0 1.162,0.261 1.592,0.785 C 4.385,-2.068 4.6,-1.187 4.6,0.052 4.6,1.144 4.39,1.944 3.969,2.456 3.549,2.967 3.041,3.222 2.442,3.222 1.723,3.222 1.137,2.956 0.682,2.423 0.227,1.891 0,1.083 0,0 m -5.302,12.109 h 5.341 v -6.6 c 0.528,0.554 1.128,0.97 1.799,1.247 0.671,0.278 1.414,0.416 2.229,0.416 1.68,0 3.07,-0.604 4.171,-1.813 C 9.337,4.151 9.889,2.417 9.889,0.156 9.889,-1.351 9.636,-2.679 9.134,-3.827 8.632,-4.975 7.937,-5.832 7.049,-6.399 6.161,-6.966 5.176,-7.25 4.093,-7.25 c -0.927,0 -1.776,0.199 -2.547,0.597 -0.58,0.312 -1.213,0.897 -1.897,1.755 v -2.04 h -4.951 z"
             style="fill:#3c57a7;fill-opacity:1;fill-rule:nonzero;stroke:none"
             id="path742"
             inkscape:connector-curvature="0" /></g><g
           id="g744"
           transform="translate(248.3818,441.2852)"><path
             d="m 0,0 c -0.728,-0.26 -1.486,-0.489 -2.274,-0.688 -1.074,-0.286 -1.754,-0.568 -2.04,-0.845 -0.295,-0.286 -0.442,-0.611 -0.442,-0.975 0,-0.415 0.145,-0.755 0.435,-1.02 0.291,-0.264 0.717,-0.396 1.28,-0.396 0.589,0 1.137,0.143 1.645,0.429 0.505,0.286 0.866,0.635 1.077,1.046 C -0.106,-2.037 0,-1.503 0,-0.844 Z m -4.587,2.781 -5.054,0.532 c 0.19,0.884 0.466,1.579 0.824,2.087 0.36,0.505 0.878,0.946 1.554,1.318 0.485,0.268 1.151,0.476 2,0.623 0.849,0.148 1.767,0.221 2.755,0.221 1.585,0 2.859,-0.088 3.82,-0.265 C 2.272,7.119 3.074,6.748 3.716,6.185 4.166,5.795 4.521,5.243 4.781,4.528 5.04,3.814 5.171,3.132 5.171,2.482 v -6.094 c 0,-0.649 0.042,-1.158 0.123,-1.527 0.083,-0.368 0.262,-0.837 0.539,-1.409 H 0.87 c -0.199,0.355 -0.33,0.626 -0.39,0.811 -0.061,0.187 -0.122,0.479 -0.182,0.878 -0.693,-0.668 -1.381,-1.144 -2.066,-1.43 -0.935,-0.38 -2.022,-0.571 -3.261,-0.571 -1.646,0 -2.895,0.381 -3.748,1.144 -0.854,0.761 -1.28,1.701 -1.28,2.819 0,1.047 0.307,1.91 0.923,2.586 0.614,0.675 1.748,1.177 3.404,1.507 1.983,0.398 3.269,0.678 3.859,0.837 0.589,0.161 1.212,0.371 1.871,0.631 0,0.649 -0.135,1.105 -0.403,1.364 -0.268,0.26 -0.741,0.39 -1.416,0.39 -0.867,0 -1.516,-0.139 -1.949,-0.415 C -4.107,3.786 -4.379,3.378 -4.587,2.781"
             style="fill:#3c57a7;fill-opacity:1;fill-rule:nonzero;stroke:none"
             id="path746"
             inkscape:connector-curvature="0" /></g><path
           d="m 256.905,453.785 h 5.301 v -19.048 h -5.301 z"
           style="fill:#3c57a7;fill-opacity:1;fill-rule:nonzero;stroke:none"
           id="path748"
           inkscape:connector-curvature="0" /><path
           d="m 265.767,453.785 h 5.301 v -19.048 h -5.301 z"
           style="fill:#3c57a7;fill-opacity:1;fill-rule:nonzero;stroke:none"
           id="path750"
           inkscape:connector-curvature="0" /><g
           id="g752"
           transform="translate(296.3535,442.5327)"><path
             d="M 0,0 5.159,-1.559 C 4.811,-3.006 4.266,-4.214 3.52,-5.185 2.776,-6.154 1.852,-6.886 0.747,-7.38 -0.359,-7.874 -1.764,-8.121 -3.47,-8.121 c -2.069,0 -3.761,0.301 -5.074,0.903 -1.311,0.601 -2.445,1.659 -3.397,3.174 -0.955,1.515 -1.43,3.454 -1.43,5.817 0,3.151 0.838,5.573 2.516,7.266 1.674,1.692 4.045,2.539 7.112,2.539 2.4,0 4.286,-0.487 5.66,-1.456 C 3.29,9.151 4.309,7.662 4.976,5.652 L -0.223,4.496 c -0.179,0.58 -0.371,1.004 -0.572,1.274 -0.327,0.449 -0.729,0.795 -1.207,1.039 -0.476,0.242 -1.009,0.364 -1.599,0.364 -1.334,0 -2.355,-0.537 -3.066,-1.61 -0.536,-0.796 -0.804,-2.046 -0.804,-3.75 0,-2.111 0.321,-3.559 0.96,-4.341 0.642,-0.784 1.542,-1.176 2.702,-1.176 1.127,0 1.978,0.317 2.555,0.949 C -0.678,-2.123 -0.261,-1.205 0,0"
             style="fill:#3c57a7;fill-opacity:1;fill-rule:nonzero;stroke:none"
             id="path754"
             inkscape:connector-curvature="0" /></g><path
           d="m 304.2,453.785 h 5.302 V 434.737 H 304.2 Z"
           style="fill:#3c57a7;fill-opacity:1;fill-rule:nonzero;stroke:none"
           id="path756"
           inkscape:connector-curvature="0" /><g
           id="g758"
           transform="translate(327.4199,434.7368)"><path
             d="M 0,0 H -4.937 V 2.234 C -5.673,1.316 -6.416,0.663 -7.166,0.273 c -0.748,-0.39 -1.67,-0.585 -2.761,-0.585 -1.455,0 -2.596,0.436 -3.425,1.306 -0.826,0.871 -1.239,2.211 -1.239,4.022 v 8.783 h 5.314 V 6.21 c 0,-0.866 0.16,-1.481 0.481,-1.844 0.319,-0.365 0.772,-0.546 1.351,-0.546 0.633,0 1.15,0.242 1.552,0.728 0.405,0.484 0.605,1.355 0.605,2.611 v 6.64 H 0 Z"
             style="fill:#3c57a7;fill-opacity:1;fill-rule:nonzero;stroke:none"
             id="path760"
             inkscape:connector-curvature="0" /></g><g
           id="g762"
           transform="translate(335.9561,441.6753)"><path
             d="m 0,0 c 0,-1.187 0.225,-2.046 0.669,-2.579 0.446,-0.534 1.013,-0.799 1.695,-0.799 0.634,0 1.163,0.261 1.594,0.785 0.428,0.525 0.643,1.406 0.643,2.645 0,1.092 -0.21,1.892 -0.631,2.404 C 3.55,2.967 3.041,3.222 2.443,3.222 1.724,3.222 1.137,2.956 0.683,2.423 0.229,1.891 0,1.083 0,0 m -5.3,12.109 h 5.339 v -6.6 c 0.528,0.554 1.13,0.97 1.8,1.247 0.672,0.278 1.414,0.416 2.229,0.416 1.68,0 3.071,-0.604 4.171,-1.813 1.099,-1.208 1.65,-2.942 1.65,-5.203 0,-1.507 -0.251,-2.835 -0.754,-3.983 C 8.633,-4.975 7.937,-5.832 7.049,-6.399 6.161,-6.966 5.176,-7.25 4.094,-7.25 c -0.927,0 -1.777,0.199 -2.548,0.597 -0.58,0.312 -1.211,0.897 -1.897,1.755 v -2.04 H -5.3 Z"
             style="fill:#3c57a7;fill-opacity:1;fill-rule:nonzero;stroke:none"
             id="path764"
             inkscape:connector-curvature="0" /></g></g></g></g></svg>