<?xml version="1.0" encoding="UTF-8"?>
<!DOCTYPE svg PUBLIC "-//W3C//DTD SVG 1.1//EN" "http://www.w3.org/Graphics/SVG/1.1/DTD/svg11.dtd">
<!-- Creator: CorelDRAW -->
<svg xmlns="http://www.w3.org/2000/svg" xml:space="preserve" width="312.171614319" height="320.33662067" style="shape-rendering:geometricPrecision; text-rendering:geometricPrecision; image-rendering:optimizeQuality; fill-rule:evenodd; clip-rule:evenodd"
viewBox="0 0 3.83858 3.93898"
 xmlns:xlink="http://www.w3.org/1999/xlink">
 <defs>
  <style type="text/css">
   <![CDATA[
    .fil3 {fill:#010101}
    .fil0 {fill:#20315F}
    .fil2 {fill:#EEEFF0}
    .fil4 {fill:#112A48;fill-rule:nonzero}
    .fil1 {fill:url(#id0)}
   ]]>
  </style>
  <radialGradient id="id0" gradientUnits="userSpaceOnUse" cx="1.9193" cy="1.96547" r="1.36349" fx="1.9193" fy="1.96547">
   <stop offset="0" style="stop-color:#173B6A"/>
   <stop offset="0.811765" style="stop-color:#254A74"/>
   <stop offset="1" style="stop-color:#06295F"/>
  </radialGradient>
 </defs>
 <g id="Layer_x0020_1">
  <metadata id="CorelCorpID_0Corel-Layer"/>
  <path class="fil0" d="M1.88628 3.92266c-0.309661,-0.143831 -0.606579,-0.31863 -0.869213,-0.537827 -0.821075,-0.685283 -1.07489,-1.61696 -1.00452,-2.65493l0.00230315 -0.0339882 0.0264213 -0.0215039c0.54513,-0.443673 1.17426,-0.673421 1.87802,-0.673421 0.703764,0 1.33289,0.229752 1.87802,0.673421l0.0264213 0.0215039 0.00230315 0.0339882c0.0703701,1.03798 -0.183449,1.96966 -1.00453,2.65495 -0.262626,0.219189 -0.559539,0.393984 -0.869193,0.537811l-0.0330197 0.0153386 -0.0330197 -0.0153386zm0.00825591 -0.0177717c-0.30813,-0.143118 -0.603583,-0.316988 -0.864909,-0.535098 -0.815035,-0.68024 -1.06757,-1.605 -0.997524,-2.63857l0.00172835 -0.0254921 0.019815 -0.016126c0.541709,-0.440882 1.1659,-0.66902 1.86565,-0.66902 0.699752,0 1.32394,0.228138 1.86565,0.66902l0.019815 0.016126 0.00172835 0.0254921c0.0700433,1.03358 -0.182492,1.95834 -0.997539,2.63858 -0.261319,0.218102 -0.556768,0.391965 -0.86489,0.535083l-0.0247638 0.0115039 -0.0247638 -0.0115039z"/>
  <path class="fil1" d="M1.9193 3.85157c-1.07555,-0.499583 -1.94784,-1.35597 -1.82854,-3.11637 0.52863,-0.43024 1.1388,-0.647142 1.82854,-0.655831 0.689736,0.00868898 1.29991,0.225591 1.82854,0.655831 0.119295,1.7604 -0.752992,2.61679 -1.82854,3.11637zm0.00623622 -3.70037c0.879307,0 1.59213,0.712819 1.59213,1.59213 0,0.879311 -0.712819,1.59213 -1.59213,1.59213 -0.879311,0 -1.59213,-0.712819 -1.59213,-1.59213 0,-0.879307 0.712819,-1.59213 1.59213,-1.59213z"/>
  <circle class="fil2" cx="1.92553" cy="1.74333" r="1.59213"/>
  <path class="fil0" d="M1.92553 0.218012c0.842409,0 1.52531,0.682906 1.52531,1.52531 0,0.842413 -0.682906,1.52532 -1.52531,1.52532 -0.842413,0 -1.52532,-0.682906 -1.52532,-1.52532 0,-0.842409 0.682906,-1.52531 1.52532,-1.52531zm0 0.0471929c0.816343,0 1.47812,0.66178 1.47812,1.47812 0,0.816346 -0.66178,1.47813 -1.47812,1.47813 -0.816346,0 -1.47813,-0.66178 -1.47813,-1.47813 0,-0.816343 0.66178,-1.47812 1.47813,-1.47812z"/>
  <path class="fil3" d="M2.10948 1.80975c0.0152913,0.0245 0.0401181,0.051189 0.0486732,0.0509331 -0.00506693,-0.0216339 -0.0107559,-0.0384055 -0.00626772,-0.0586654 0.00288583,0.00704331 0.0188346,0.0496654 0.0210079,0.0728425 0.00239764,0.0256417 -0.0193307,0.0160354 -0.0280394,0.00901181 -0.0372992,-0.0300984 -0.0793228,-0.0677598 -0.10078,-0.106224 0.0601535,-0.00367717 0.111142,-0.0194409 0.111114,-0.0703071 0.112941,-0.0264528 0.174898,0.0352205 0.174484,0.0845787 -0.000251969,0.0307362 -0.0328268,0.0547126 -0.0722874,0.0543543 0.0385433,-0.0292283 0.00849606,-0.0638583 -0.0309449,-0.0735394 -0.0324921,-0.00797244 -0.0698228,-0.00435433 -0.0978583,0.00285827 -0.0178937,0.00459843 -0.0340236,0.0102559 -0.0191024,0.0341575zm-0.341465 -0.29335c0.0900197,0.0354252 -0.0530079,0.0132874 -0.164988,0.0428937l0.0388228 0.0569252c0.043122,-0.00558661 0.204551,-0.0195472 0.251685,0.00247244 -0.0903543,0.00320866 -0.179087,0.0103504 -0.261213,0.0335315l0.0588071 0.0700984c0.0938307,-0.0425906 0.185925,-0.0500984 0.273902,-0.0187835 -0.104594,-0.00861417 -0.190433,0.000188976 -0.246197,0.054626l0.0844724 0.0575787c0.0309055,-0.0694646 0.118366,-0.100016 0.17311,-0.0747165 -0.0400984,0.0168858 -0.179374,0.0427835 -0.076126,0.0940591 0.0346378,-0.0639843 0.0725787,-0.0724291 0.117055,-0.0718819 0.0515,0.000637795 0.118988,-0.00409055 0.123547,-0.0595039 -0.0226299,0.0183583 -0.0419094,0.0270394 -0.0655,0.0270354 0.000425197,-0.0325748 0.0049252,-0.0658071 -0.00827953,-0.0785591 -0.00929134,-0.00897244 -0.0823189,-0.0404528 -0.0992244,-0.050685 0.0407047,0.00957087 0.0808268,0.0244173 0.120256,0.0454724 0.0360787,0.0192717 0.039378,0.0381024 0.0661024,0.0426969 0.0135591,0.00233071 0.0249449,0.00194882 0.0519055,-0.00281496 0.0276024,-0.00487795 0.0382913,-0.0107283 0.017563,-0.0247795 -0.0250748,-0.0169961 -0.0731929,-0.0444331 -0.124154,-0.0691063 -0.0860472,-0.0416535 -0.180346,-0.077252 -0.179913,-0.0729134 0.000259843,0.00267717 0.00864961,0.0100591 0.0058622,0.0181339 -0.0292795,-0.00862992 -0.120689,-0.0216614 -0.157496,-0.0217795zm0.0258071 0.733256c-0.0313189,0.047815 -0.0571929,0.0977992 -0.0779488,0.149843 -0.0195394,-0.011874 -0.0362244,-0.0265984 -0.047315,-0.0469016 -0.00904724,-0.0912677 0.00501969,-0.188283 0.0400472,-0.246291 0.0128189,-0.0105472 0.0301969,-0.0176693 0.0514606,-0.021878 0.00712598,0.0571339 0.0181929,0.112311 0.0337559,0.165228zm0.220394 -0.138449l0.17487 0.0923189 -0.0337717 0.194831 -0.0978622 0.0140433 -0.0978622 0.0140512 -0.0872087 -0.177465 0.141835 -0.13778zm-0.0162441 -0.0601142c-0.0526181,-0.0161535 -0.10524,-0.0256339 -0.157866,-0.028563 0.00751575,-0.0262165 0.0184685,-0.0524331 0.037315,-0.0786535 0.068622,-0.0302087 0.140563,-0.0403976 0.21485,-0.0365984 0.0269646,0.0188898 0.0460787,0.0416969 0.0617087,0.066248 -0.0544764,0.0225591 -0.107197,0.0474567 -0.156008,0.0775669zm0.269976 0.11478c-0.00181496,-0.0561693 -0.00772835,-0.111303 -0.0189134,-0.165126 0.017063,-0.00266929 0.034126,-0.00076378 0.0511929,0.00594882 0.0697717,0.0688543 0.103673,0.147055 0.119559,0.229972 -0.00594488,0.0199016 -0.0146142,0.0384449 -0.0299173,0.0536654 -0.0382165,-0.0451142 -0.0790118,-0.086378 -0.121921,-0.124461zm-0.0676929 0.24961c0.0523071,-0.0113583 0.106197,-0.0338504 0.160724,-0.0607362 0.0125748,0.0277244 0.0215827,0.058126 0.0252874,0.0925157 -0.037437,0.0693386 -0.0873031,0.124 -0.149142,0.164512 -0.0372835,-0.00495276 -0.0715551,-0.0139094 -0.102181,-0.0277323 0.0257874,-0.0541772 0.0483976,-0.109949 0.065311,-0.168559zm-0.284705 0.064189c-0.0550236,-0.00212992 -0.110051,-0.00827165 -0.165079,-0.0161732 -0.00255512,0.0209488 -0.00223228,0.0430354 0.00484252,0.0678268 0.0526693,0.0549134 0.117445,0.0968976 0.198972,0.121024 0.031315,-0.0115354 0.0583031,-0.0284882 0.0819134,-0.0496535 -0.0449921,-0.0400472 -0.0852795,-0.0810433 -0.12065,-0.123024zm-0.371697 0.0315c-0.117909,-0.190445 -0.169098,-0.488941 -0.090122,-0.787197l-0.0829449 -0.0875787c-0.0700433,0.182394 -0.100933,0.641886 0.134157,0.909469 0.0326969,0.0372126 0.0625945,0.0497953 0.0715433,0.0385866 0.00838976,-0.0105118 -0.00301181,-0.0254331 -0.0326339,-0.0732795zm-0.140559 -0.0268189c-0.142209,-0.190906 -0.20048,-0.525205 -0.0635315,-0.878657l-0.0593504 -0.0649921c-0.119744,0.203693 -0.198311,0.710961 0.0863071,0.957319 0.0332283,0.0287559 0.0734291,0.0503346 0.0774291,0.0415472 0.00244094,-0.00535827 -0.0140945,-0.0192874 -0.0408543,-0.0552165zm-0.217315 -0.178933c-0.10372,-0.202303 -0.0879843,-0.534752 0.0560118,-0.787764l-0.0706339 -0.0360276c-0.125618,0.182413 -0.188909,0.534854 -0.0232008,0.824949 0.0385748,0.0675354 0.0913228,0.129386 0.100394,0.121079 0.00631496,-0.00579134 -0.0203189,-0.039815 -0.0625709,-0.122236zm0.640945 -0.802252c0.12861,-0.1585 0.373563,-0.391591 0.595213,-0.498882 -0.145697,0.0404803 -0.539496,0.253516 -0.715835,0.485945 0.0387402,0.00417323 0.0821181,0.00473228 0.120622,0.012937zm-0.670795 0.867382c-0.208886,-0.250583 -0.295874,-0.671307 0.129114,-1.08475 -0.0399449,0.0520433 -0.0652756,0.101992 -0.067811,0.150264 -0.00170866,0.0325472 0.0129961,0.0439567 0.0237677,0.0432953 0.0176181,-0.00108268 0.0201732,-0.028878 0.0206063,-0.0418386 0.0027126,-0.0808346 0.0638031,-0.156811 0.123701,-0.183913 -0.0211575,0.0296024 -0.125063,0.11061 -0.0860551,0.258535 0.0175197,-0.100933 0.0551969,-0.187795 0.142035,-0.221642 -0.0640591,0.058878 -0.131697,0.161835 -0.0885118,0.265728 0.0162323,-0.084622 0.0385591,-0.16976 0.103677,-0.213795 -0.0696457,0.141866 -0.101287,0.286346 0.0287598,0.366398 0.00830315,-0.130618 -0.0279055,-0.193831 0.022874,-0.285024 0.0230866,0.0556929 0.025374,0.198665 0.0133189,0.254992 -0.00985039,0.0460433 -0.025748,0.0458819 -0.0409213,0.0736969 -0.0233858,0.109657 -0.0199213,0.220992 -0.00884252,0.332803 0.0775118,-0.0225236 0.378622,-0.152543 0.447909,-0.255091 0.0253661,-0.0375315 0.0509606,-0.0584764 0.11087,-0.048248 0.024437,0.0416575 0.057185,0.0765787 0.094811,0.104693 0.0519449,0.0388189 0.0654409,0.00479528 0.0565118,-0.0282323 -0.0154567,-0.0571693 -0.0384134,-0.0816535 0.0281024,-0.0743425 0.0465787,0.00511811 0.0794331,0.040811 0.0119567,0.0682205 0.0601772,0.0232205 0.11915,-0.0113858 0.12115,-0.0585709 0.00142913,-0.0337717 -0.017622,-0.0805157 -0.103701,-0.104047 0.0543701,-0.0180079 -0.0395591,-0.0566102 -0.0984646,-0.0934843 0.0587362,-0.0597087 0.117472,-0.119413 0.176209,-0.179122 -0.0335984,-0.0352913 -0.0578858,-0.0756575 -0.0755236,-0.119646 0.0176811,0.0201142 0.0310394,0.0344488 0.0530512,0.042378 0.0123465,0.00444882 0.0153701,-0.0105787 0.0187047,-0.0199449 0.00892913,0.019374 0.0189449,0.040378 0.0278701,0.0597559 0.0792008,-0.105134 0.129594,-0.255878 0.127476,-0.382177 0.0178504,-0.0131299 0.021252,-0.0325394 0.015563,-0.0392913 -0.0197008,-0.0233976 -0.0812402,0.00466535 -0.148394,0.0380157 -0.241319,0.119854 -0.51361,0.312634 -0.674319,0.471004 -0.0251457,0.0155394 -0.10278,0.0245984 -0.128114,0.0093189 0.0110157,-0.207902 0.333768,-0.435996 0.501618,-0.497937 0.0485512,-0.0179213 0.0252677,-0.0212992 -0.00287795,-0.0231732 -0.234205,-0.0156181 -0.673445,0.0893386 -0.936083,0.409024 -0.237504,0.289102 -0.269795,0.693724 0.0599606,1.00615z"/>
  <path class="fil4" d="M0.784657 1.07998l0.212929 0.122933c0.00475984,0.00275197 0.0086378,0.00374803 0.0117126,0.0031378 0.00180709,-0.000279528 0.00305512,-0.000712598 0.0038622,-0.00140157 0.000771654,-0.000625984 0.00312205,-0.00298031 0.00707874,-0.00697244 0.00464961,-0.00506299 0.00967323,-0.00604331 0.0149921,-0.0029685 0.00315354,0.00182283 0.00479528,0.00483071 0.00488976,0.00909449 0.000102362,0.00311024 -0.00136614,0.00737402 -0.00443307,0.0126929l-0.00353937 0.00612205 -0.0466811 0.0808543 -0.00271654 0.00470472c-0.0025,0.00433071 -0.00526772,0.00726772 -0.00829528,0.00865748 -0.00296457,0.00141732 -0.00599606,0.00123622 -0.00896457,-0.000476378 -0.00494882,-0.00285433 -0.00683858,-0.00716142 -0.00565748,-0.0129213 0.00102756,-0.00476772 0.00153937,-0.00751969 0.00162598,-0.00838189 7.87402e-005,-0.000858268 -0.000204724,-0.00193307 -0.000889764,-0.00331496 -0.00109843,-0.0025315 -0.00376378,-0.00505512 -0.0079685,-0.00748425l-0.181441 -0.104756c-0.00420866,-0.00243307 -0.00772835,-0.00347638 -0.0104646,-0.00315748 -0.00154331,9.44882e-005 -0.00261811,0.000385827 -0.0033189,0.000885827 -0.000704724,0.000503937 -0.00282677,0.00233071 -0.00645276,0.00559843 -0.00438976,0.00389764 -0.00905906,0.00442126 -0.0140157,0.00156299 -0.0029685,-0.00171654 -0.00463386,-0.00425197 -0.00488976,-0.00752756 -0.000311024,-0.00331496 0.000846457,-0.0071811 0.00334646,-0.0115118l0.00271654 -0.00470472 0.0465748 -0.0806654zm0.00917717 -0.0159016l0.0421811 -0.0730591 0.0632244 0.0365039c0.00414567,0.0023937 0.00668504,0.00485039 0.00765354,0.00730709 0.000937008,0.00252362 0.000511811,0.00540551 -0.00134646,0.00862205 -0.00142913,0.00247638 -0.00311811,0.00397244 -0.00524016,0.00464961 -0.00202362,0.000645669 -0.00486614,0.000574803 -0.0084685,-0.000188976 -0.00691339,-0.00159843 -0.0137126,-0.0023937 -0.0203425,-0.00233858 -0.00668898,1.1811e-005 -0.0127874,0.000862205 -0.0183858,0.00241339 -0.00771654,0.00222441 -0.0144764,0.0055 -0.0204409,0.00997638 -0.00596457,0.00447638 -0.0118661,0.0105512 -0.0176142,0.0183661l-0.0212205 -0.012252zm0.131453 0.0770512l-0.0210315 -0.0121457c0.000704724,-0.00907874 8.66142e-005,-0.0164409 -0.00191732,-0.0219724 -0.0020315,-0.00562205 -0.00595669,-0.0111102 -0.0118307,-0.0166496 -0.00404331,-0.00356299 -0.00644882,-0.00668898 -0.00734646,-0.00927165 -0.000807087,-0.00261024 -0.000385827,-0.00533858 0.00129134,-0.00824016 0.00221654,-0.00383858 0.00523228,-0.00564173 0.00912598,-0.00537402 0.00207087,0.000122047 0.00584252,0.00172441 0.0114134,0.00494094l0.0690354 0.0398583c0.00569685,0.0032874 0.00929528,0.00619291 0.0107087,0.00874016 0.00145276,0.00248425 0.00120472,0.00548031 -0.000720472,0.0088189 -0.0016063,0.00278346 -0.00372047,0.00444882 -0.0063189,0.00509055 -0.00256693,0.000586614 -0.00616535,0.000244094 -0.0107165,-0.00114961 -0.00960236,-0.00265748 -0.017689,-0.00336614 -0.0243858,-0.00220079 -0.00659055,0.0011378 -0.0123858,0.00431102 -0.0173071,0.00955512zm0.156256 -0.112181c0.00735827,-0.00846063 0.0166575,-0.013063 0.0278425,-0.0138465 0.011185,-0.000779528 0.0210354,0.00248031 0.0294961,0.00983858 0.00852362,0.00740157 0.0131732,0.016748 0.0139567,0.0279331 0.000779528,0.011185 -0.00248031,0.0210394 -0.00983465,0.0295 -0.00740551,0.00851969 -0.016752,0.0131693 -0.027937,0.0139528 -0.011185,0.000783465 -0.0210906,-0.00252756 -0.0296063,-0.00992913 -0.00846457,-0.00735433 -0.013063,-0.0166575 -0.0138465,-0.0278425 -0.000779528,-0.011185 0.00252756,-0.0210906 0.00992913,-0.0296063zm0.201661 -0.093252l-0.0735669 0.0574803 -0.00427953 0.00334646c-0.00393701,0.0030748 -0.0076063,0.00475984 -0.0109331,0.00491339 -0.00327953,0.000208661 -0.00601969,-0.00109843 -0.00812992,-0.00379921 -0.00352362,-0.00450394 -0.00366142,-0.00920079 -0.000409449,-0.0140945 0.00273622,-0.00404331 0.00424803,-0.00639764 0.00464567,-0.00716535 0.000397638,-0.00076378 0.000535433,-0.00187008 0.000417323,-0.00340551 -6.69291e-005,-0.00275984 -0.00159055,-0.00609843 -0.00458268,-0.0099252l-0.128988 -0.165098c-0.00298819,-0.00383071 -0.0058622,-0.00611811 -0.00852362,-0.00684646 -0.00146457,-0.000488189 -0.00257087,-0.000625984 -0.00340551,-0.000425197 -0.00084252,0.000204724 -0.00349606,0.00110236 -0.0080748,0.00277559 -0.00553543,0.00197244 -0.0100591,0.000700787 -0.0135827,-0.00380709 -0.0021063,-0.00269685 -0.00270866,-0.00567323 -0.00171654,-0.00880315 0.000952756,-0.00319291 0.00347638,-0.00634646 0.00741732,-0.00942126l0.00427953 -0.00334252 0.0735669 -0.0574803 0.00427953 -0.00334252c0.00394094,-0.00307874 0.00761024,-0.00476378 0.0109331,-0.00491732 0.0032874,-0.000208661 0.00601969,0.00109449 0.00813386,0.00379921 0.00351969,0.00450394 0.00365748,0.00920472 0.000405512,0.0140906 -0.00273228,0.00404724 -0.00424409,0.00640157 -0.00464173,0.00716929 -0.000401575,0.00076378 -0.000535433,0.00187008 -0.00042126,0.00340945 6.69291e-005,0.00275591 0.00159449,0.00609843 0.00458268,0.0099252l0.128988 0.165094c0.00479134,0.0061378 0.00922835,0.00856299 0.0132717,0.00712598l0.00639764 -0.00236614c0.00522047,-0.00190551 0.0096378,-0.000551181 0.0132441,0.00406693 0.00443701,0.0056811 0.00279921,0.0115866 -0.00502756,0.0177008l-0.00427953 0.00334252zm-0.0596102 -0.210772l0.151622 0.0913858c0.00407874,0.00243701 0.0075,0.00402756 0.0103543,0.00478346 0.00287402,0.000661417 0.00582677,0.000610236 0.00888583,-0.000232283 0.00318504,-0.000673228 0.00531102,-0.000976378 0.00637795,-0.001 0.00275197,0.000389764 0.00512598,0.00180315 0.00710236,0.00433465 0.0045315,0.00579528 0.00270866,0.0119331 -0.00556693,0.0184016l-0.0829134 0.0647756c-0.00399606,0.00312598 -0.00769291,0.00465748 -0.0111102,0.00469685 -0.00341339,3.54331e-005 -0.00632677,-0.00149213 -0.00875197,-0.00459055 -0.00272441,-0.00348819 -0.00285039,-0.00783071 -0.000279528,-0.0130118 0.00156299,-0.00321654 0.00246063,-0.00554724 0.00270472,-0.00709449 0.000224409,-0.00144882 -0.000145669,-0.00297244 -0.00117717,-0.00452362 -0.000570866,-0.000732283 -0.00242913,-0.0021811 -0.00538583,-0.00422047l-0.0703661 -0.0465512c-0.00649606,-0.00425984 -0.0113819,-0.00842126 -0.0145472,-0.0124724 -0.0030315,-0.00388583 -0.0047126,-0.0092874 -0.00501969,-0.0162913l-0.00405906 -0.0862992c-0.000279528,-0.00812598 -0.00264173,-0.0149843 -0.00699213,-0.0205512 -0.00242126,-0.00309843 -0.00551181,-0.00530709 -0.0092126,-0.00667717 -0.00369685,-0.00137402 -0.00734252,-0.00151575 -0.010937,-0.000429134l-0.00784646 0.00214567c-0.00500394,0.00136614 -0.00883465,0.000279528 -0.0116969,-0.00337402 -0.00233071,-0.00298819 -0.00303937,-0.00632677 -0.00218504,-0.00999213 0.000598425,-0.00236614 0.00264567,-0.00496457 0.0061378,-0.00769291l0.0587126 -0.0458661c0.00387795,-0.00303543 0.00751969,-0.00451969 0.0109803,-0.00450394 0.00350394,7.48031e-005 0.00642126,0.00160236 0.00883858,0.00469685 0.00361024,0.00461811 0.00362598,0.0098622 0.000141732,0.0158465l-0.00603937 0.010248c-0.00254724,0.00416535 -0.00488189,0.0107008 -0.00690157,0.0197126 -0.0013937,0.00679921 -0.00199606,0.0167047 -0.00166929,0.0297677l0.000799213 0.0245787zm0.239299 0.0128661c0.0102441,-0.00456299 0.0206181,-0.00479921 0.0310866,-0.000779528 0.0104685,0.00401575 0.0180157,0.0111378 0.0225787,0.021378 0.00458661,0.010311 0.00485433,0.020752 0.000838583,0.0312165 -0.00401969,0.0104685 -0.0111378,0.0180197 -0.021378,0.0225787 -0.010311,0.00459055 -0.020752,0.00485827 -0.0312205,0.000838583 -0.0104685,-0.00401575 -0.0180433,-0.0112008 -0.0226378,-0.0215118 -0.00455512,-0.0102441 -0.00479528,-0.0206181 -0.000779528,-0.0310866 0.00401969,-0.0104646 0.0112008,-0.0180433 0.0215118,-0.0226339zm0.226201 0.000523622l-0.0913189 0.0194134 -0.00531496 0.00112598c-0.00488583,0.00103937 -0.00892126,0.000948819 -0.0119843,-0.000370079 -0.00303543,-0.00125591 -0.0049252,-0.00362992 -0.0056378,-0.00698031 -0.00119291,-0.00559449 0.000744094,-0.00987795 0.00580709,-0.0128504 0.00423228,-0.00242913 0.00662205,-0.00388976 0.00732283,-0.00440157 0.000688976,-0.000511811 0.00129528,-0.00144488 0.00186614,-0.00288189 0.00114961,-0.00250787 0.00124409,-0.00617717 0.000232283,-0.0109291l-0.0435591 -0.204929c-0.00101181,-0.00475591 -0.00258661,-0.00807087 -0.00466142,-0.0098937 -0.00109843,-0.00107874 -0.00203543,-0.00168504 -0.00287402,-0.00187402 -0.000846457,-0.000185039 -0.00362205,-0.000543307 -0.00847638,-0.00104724 -0.00583858,-0.000653543 -0.00935039,-0.00377559 -0.0105354,-0.00937008 -0.000712598,-0.00335433 5.11811e-005,-0.0062874 0.00231496,-0.00866929 0.00225984,-0.00245276 0.00590551,-0.00417717 0.0107992,-0.0052126l0.00530709 -0.00112992 0.0913228 -0.0194134 0.00531102 -0.00112598c0.00488976,-0.00104331 0.00892913,-0.000948819 0.0119803,0.000370079 0.00304331,0.00125591 0.00493307,0.00362598 0.00564567,0.00697638 0.00118898,0.00559843 -0.000748031,0.00987795 -0.00581102,0.0128465 -0.00423228,0.00243307 -0.00662205,0.0038937 -0.00731496,0.00440551 -0.00069685,0.000515748 -0.00130315,0.00144488 -0.00187402,0.00288583 -0.00114567,0.00250394 -0.00124409,0.00617717 -0.000232283,0.0109291l0.0435591 0.204929c0.00162205,0.00761811 0.00454331,0.0117441 0.00880709,0.0122205l0.0067874 0.000673228c0.00552756,0.000582677 0.00890157,0.00373622 0.0101181,0.00946457 0.00150394,0.00705512 -0.00256299,0.0116457 -0.0122756,0.0137126l-0.00531102 0.00112598zm0.0388189 -0.215575l0.0962165 0.148606c0.00259843,0.00397638 0.00497244,0.00690157 0.00720472,0.00883858 0.00229528,0.00185039 0.00497638,0.00310236 0.00809055,0.00368504 0.00316142,0.000791339 0.00520079,0.00144882 0.00617323,0.00189764 0.00230315,0.00155906 0.00381496,0.00386614 0.00448425,0.00700787 0.00152756,0.00719685 -0.00279921,0.0119134 -0.0130709,0.0140984l-0.102917 0.021874c-0.00496457,0.00105512 -0.00895669,0.000811024 -0.0120433,-0.000649606 -0.00308661,-0.00146457 -0.00503937,-0.00411417 -0.00585827,-0.00796063 -0.00092126,-0.00433071 0.000866142,-0.0082874 0.00544882,-0.0118189 0.0028189,-0.00220472 0.00464961,-0.00390551 0.00554724,-0.00519291 0.000838583,-0.00119685 0.00116535,-0.00273228 0.000925197,-0.00458268 -0.000192913,-0.000905512 -0.00122835,-0.00302362 -0.00299213,-0.00614961l-0.0428346 -0.072689c-0.00397638,-0.00667717 -0.00654331,-0.0125551 -0.00761024,-0.0175906 -0.00102362,-0.0048189 -0.000165354,-0.0104055 0.00262992,-0.0168425l0.0341811 -0.0793425c0.00331102,-0.0074252 0.00419291,-0.014622 0.00272441,-0.0215354 -0.000814961,-0.00385039 -0.00262205,-0.00718504 -0.00534646,-0.0100433 -0.00272835,-0.00285039 -0.00594094,-0.0045748 -0.00964961,-0.00517717l-0.00799213 -0.00151181c-0.00509449,-0.000964567 -0.00806299,-0.00362205 -0.0090315,-0.00816142 -0.000787402,-0.00370472 4.33071e-005,-0.00701575 0.00241732,-0.00993307 0.00157087,-0.00187008 0.00455512,-0.00330315 0.00888583,-0.00422441l0.072878 -0.0154921c0.00481496,-0.00102362 0.00874409,-0.00076378 0.0118425,0.000767717 0.00312205,0.0016063 0.00506693,0.00425591 0.00588583,0.00809843 0.00122047,0.00572835 -0.00106299,0.0104528 -0.0068189,0.0143031l-0.0099252 0.00656693c-0.00411024,0.00262598 -0.00907087,0.00747638 -0.0148425,0.0146929 -0.00423228,0.00549606 -0.00911417,0.0141299 -0.0145472,0.0260197l-0.0100551 0.0224409zm0.17898 0.103l0.0114449 -0.163677c0.00034252,-0.00485039 -0.000267717,-0.0084685 -0.00175197,-0.0107953 -0.00076378,-0.00134252 -0.00149213,-0.0021811 -0.00225197,-0.00259449 -0.000755906,-0.000409449 -0.00333071,-0.00151969 -0.00785827,-0.00334252 -0.00542913,-0.00223622 -0.00794882,-0.0061378 -0.00755906,-0.0116969 0.000251969,-0.00363386 0.00179528,-0.00624803 0.00463386,-0.00790945 0.00284252,-0.00173622 0.00682283,-0.00238583 0.011815,-0.00203937l0.00541339 0.000377953 0.0931378 0.00651181 0.00541339 0.00038189 0.00749606 0.00138189c0.00230315,0.000807087 0.00414173,0.00222441 0.00558268,0.00411417 0.00136614,0.00195669 0.002,0.00414961 0.00182677,0.00664567 -0.000389764,0.00555512 -0.00342913,0.00906693 -0.00911417,0.0105315 -0.00473622,0.00116929 -0.00744094,0.00191339 -0.00824803,0.00221654 -0.000811024,0.000299213 -0.00164567,0.0010315 -0.00259449,0.00225197 -0.0017874,0.00209449 -0.0028937,0.00559843 -0.00323622,0.0104449l-0.012248 0.17515c-0.000826772,0.0118307 -0.00111811,0.0201142 -0.00080315,0.0247913 0.000314961,0.00474803 0.00130315,0.00904331 0.00296457,0.0129488 0.00161024,0.00355118 0.0034252,0.00625591 0.0055315,0.00790945 0.00217323,0.00172835 0.00625591,0.00373622 0.0123937,0.00609449l-0.00191732 0.0273622 -0.00455512 -0.000314961c-0.0181024,-0.00126772 -0.0330276,-0.00388583 -0.0447756,-0.00792913 -0.0138425,-0.00476378 -0.0257087,-0.0111811 -0.035815,-0.0193346 -0.0100276,-0.0080748 -0.0170039,-0.0168701 -0.0207756,-0.026374 -0.00409843,-0.0100945 -0.00545276,-0.024437 -0.00414961,-0.0431063zm0.129311 0.0984055l0.00191732 -0.0273583c0.0140197,-0.000814961 0.0260315,-0.00570472 0.0360394,-0.0146693 0.011315,-0.0102362 0.0176929,-0.025685 0.0191339,-0.0462795l0.00951575 -0.136102c0.00133858,-0.0191024 -0.00507874,-0.0328661 -0.0191535,-0.0414409 -0.00412598,-0.00250787 -0.00683858,-0.00462992 -0.00801181,-0.00629134 -0.00124016,-0.00173228 -0.00172047,-0.00405512 -0.00150394,-0.00711811 0.000251969,-0.0036378 0.00178346,-0.0061063 0.00452756,-0.00749213 0.00274409,-0.00131102 0.00707087,-0.00179134 0.0130551,-0.00137402l0.0511693 0.00357874c0.00434646,0.00030315 0.00718898,0.000570866 0.00867323,0.000889764 0.00140551,0.000314961 0.00279134,0.000984252 0.00416535,0.00187008 0.00348425,0.00238976 0.00506693,0.0053622 0.00481496,0.0089252 -0.000212598,0.00306693 -0.00153937,0.00562205 -0.00388976,0.00753543 -0.000759843,0.000661417 -0.00388976,0.00230709 -0.00937008,0.00500394 -0.00636614,0.00291339 -0.0114961,0.00771654 -0.0154646,0.0143071 -0.00397638,0.00666929 -0.00623622,0.0143858 -0.00685039,0.0231535l-0.0095315 0.136315c-0.00163386,0.023374 -0.00811024,0.0422559 -0.0194961,0.0565709 -0.00825984,0.0105906 -0.0196417,0.0187441 -0.0342205,0.0244567 -0.0071378,0.00279528 -0.0156535,0.00470866 -0.0255197,0.00551969zm0.247142 0.0526496l-0.0871575 -0.0334567 -0.00507087 -0.00194094c-0.00466535,-0.00179134 -0.00800394,-0.00407087 -0.00984646,-0.00684252 -0.00187008,-0.00270472 -0.00215748,-0.00572835 -0.000933071,-0.0089252 0.00205118,-0.00533858 0.00600394,-0.00787795 0.0118701,-0.00761417 0.00487795,0.000267717 0.00767323,0.000346457 0.00853543,0.000295276 0.000862205,-5.11811e-005 0.00187795,-0.000503937 0.0031378,-0.00139764 0.00233071,-0.00147638 0.00440945,-0.00450787 0.00614961,-0.00903937l0.0750787 -0.195594c0.00174016,-0.00453543 0.00222441,-0.00817717 0.00148031,-0.0108346 -0.000334646,-0.00150394 -0.000791339,-0.00252362 -0.0013937,-0.00313386 -0.000606299,-0.00061811 -0.00274016,-0.00243307 -0.00653543,-0.00549606 -0.00453937,-0.00373228 -0.00578346,-0.00825984 -0.00373228,-0.0135984 0.00122835,-0.00320079 0.00346457,-0.00524803 0.00666142,-0.00600787 0.00323228,-0.000826772 0.00723228,-0.000287402 0.0118937,0.00150394l0.0050748 0.00194488 0.0871575 0.0334606 0.00506693 0.00194488c0.00466929,0.0017874 0.00800787,0.00406693 0.00984646,0.00683858 0.00187008,0.00270472 0.00216142,0.00572441 0.000937008,0.0089252 -0.00205118,0.00533858 -0.00600787,0.00787402 -0.011874,0.0076063 -0.00487402,-0.000259843 -0.00767323,-0.000338583 -0.00853543,-0.000287402 -0.000858268,5.11811e-005 -0.00187402,0.000503937 -0.0031378,0.00139764 -0.00232677,0.00147638 -0.00440945,0.00450394 -0.00614961,0.00904331l-0.0750787 0.195591c-0.00279134,0.00726772 -0.00258661,0.0123228 0.000728346,0.0150472l0.00532677 0.00425984c0.0043189,0.00349606 0.00542913,0.00798031 0.00333465,0.0134528 -0.00258661,0.00672835 -0.00849606,0.00836614 -0.0177677,0.00480709l-0.00506693 -0.00194882zm0.149969 -0.159654l-0.000244094 0.177035c1.1811e-005,0.00475197 0.000409449,0.0085 0.00123228,0.0113386 0.000909449,0.00280315 0.00247638,0.00531102 0.00477559,0.00749213 0.00221654,0.00238583 0.00357087,0.00405512 0.00414173,0.00495669 0.00108268,0.00255906 0.00109449,0.0053189 -5.90551e-005,0.00832283 -0.0026378,0.00686614 -0.00883465,0.0084685 -0.0186378,0.00470079l-0.0982323 -0.0377047c-0.00473228,-0.0018189 -0.00795276,-0.00419685 -0.00974016,-0.00711024 -0.00179134,-0.00290551 -0.00198425,-0.00618898 -0.00057874,-0.00985827 0.00158661,-0.00413386 0.00524016,-0.00648425 0.0110079,-0.00694882 0.00356299,-0.000314961 0.00602362,-0.000744094 0.00748031,-0.00133465 0.00135433,-0.000551181 0.0024685,-0.00165354 0.00326772,-0.00333858 0.000334646,-0.000866142 0.00061811,-0.00320472 0.000846457,-0.00679134l0.00366142 -0.0842874c0.000299213,-0.00775984 0.00135433,-0.0140906 0.00319685,-0.0188937 0.00176772,-0.00460236 0.0055315,-0.0088189 0.0113819,-0.0126969l0.071878 -0.0479252c0.00682283,-0.00442126 0.0114843,-0.00997638 0.0140157,-0.0165827 0.00140945,-0.00366535 0.0017126,-0.00744882 0.000984252,-0.0113268 -0.00073622,-0.00387795 -0.00249213,-0.0070748 -0.00527165,-0.00959449l-0.00587402 -0.00562598c-0.00375197,-0.00358661 -0.00479921,-0.00742913 -0.0031378,-0.0117638 0.0013622,-0.00353543 0.0038622,-0.00585827 0.00744094,-0.00701575 0.00233465,-0.000708661 0.00561811,-0.000291339 0.00975197,0.00129921l0.0695551 0.0267008c0.00459843,0.00176378 0.00774803,0.00412205 0.00951575,0.00709449 0.00174409,0.00303937 0.00193307,0.00633071 0.000527559,0.00999606 -0.00210236,0.0054685 -0.00658661,0.00818504 -0.0135118,0.00827953l-0.0118976 0.000102362c-0.00487795,-3.93701e-005 -0.0116772,0.00132677 -0.0204488,0.00423622 -0.00654331,0.00230709 -0.0153425,0.00688976 -0.026374,0.0139016l-0.0206535 0.0133425zm0.295516 0.0824291l-0.175866 0.225098 -0.0733976 -0.0573425 -0.00427953 -0.00334252c-0.00394488,-0.00308268 -0.00646457,-0.00623228 -0.00742126,-0.00942126 -0.000988189,-0.00312992 -0.000389764,-0.00611024 0.00171654,-0.00881102 0.00351969,-0.00450787 0.00804724,-0.00577165 0.0135866,-0.00380315 0.00457874,0.00167717 0.00723228,0.0025748 0.00807087,0.00277559 0.000838583,0.00019685 0.00194488,6.29921e-005 0.00340945,-0.00042126 0.00265748,-0.000728346 0.0055315,-0.00301969 0.00852362,-0.00684646l0.128984 -0.165098c0.00299606,-0.00383071 0.00451969,-0.00716929 0.00458661,-0.0099252 0.00011811,-0.00153937 -1.9685e-005,-0.00264173 -0.000417323,-0.00340945 -0.000401575,-0.000767717 -0.00190945,-0.00312205 -0.00464567,-0.00716535 -0.00324803,-0.00488976 -0.00311811,-0.00959055 0.000401575,-0.0140984 0.00211417,-0.00270079 0.00485827,-0.004 0.0081378,-0.00379134 0.00332677,0.000149606 0.00699213,0.00183858 0.0109331,0.00491339l0.00427953 0.00334646 0.0733976 0.0573425zm0.0146378 0.011437l0.0664764 0.051937 -0.0456063 0.058374c-0.00268504,0.00343307 -0.00529134,0.00538189 -0.00777559,0.00588976 -0.00253543,0.00046063 -0.00523622,-0.000377953 -0.00810236,-0.00261811 -0.00242126,-0.0018937 -0.00377165,-0.00376378 -0.00409055,-0.00555512 -0.000338583,-0.0018937 0.000232283,-0.00470866 0.0016378,-0.00859843 0.00577165,-0.0159764 0.00724803,-0.0305039 0.00437795,-0.0435354 -0.00277559,-0.0130472 -0.010126,-0.0252244 -0.0220039,-0.0365866l0.0150866 -0.0193071zm-0.0945945 0.119449l0.0149488 -0.0191378c0.00878346,0.00187402 0.0161102,0.00224803 0.022063,0.00100394 0.00585433,-0.00122835 0.0118898,-0.00430709 0.0181024,-0.00924409 0.00409449,-0.00350394 0.00752362,-0.00545276 0.0102008,-0.00598425 0.00269685,-0.000437008 0.00533858,0.000358268 0.00798425,0.00242913 0.00348819,0.00272441 0.00485827,0.0059685 0.00405118,0.00978346 -0.000413386,0.0020315 -0.00251969,0.00554724 -0.00648425,0.0106142l-0.0490787 0.0628189c-0.00404331,0.0051811 -0.00742126,0.00834252 -0.0101417,0.00938976 -0.00266929,0.00109055 -0.00559449,0.000433071 -0.0086378,-0.00194488 -0.0025315,-0.00197638 -0.00388583,-0.00430709 -0.00416535,-0.0069685 -0.000216535,-0.00261417 0.000625984,-0.00612992 0.0026378,-0.0104449 0.00402362,-0.00909843 0.00590551,-0.0169646 0.0056811,-0.0237598 -0.000318898,-0.00677559 -0.00265748,-0.0129528 -0.00716142,-0.0185551zm-0.0811063 0.105783l0.0138976 -0.0177913c0.0080315,0.00446063 0.015126,0.00756299 0.0213346,0.00924016 0.00625591,0.00162598 0.0133189,0.00233465 0.021252,0.00192126 0.00789764,-0.000358268 0.0149094,-0.0016811 0.0211142,-0.00381496 0.00620079,-0.0021378 0.0133307,-0.00580709 0.0214488,-0.0109764 0.00396457,-0.00252362 0.00709843,-0.00398031 0.00941339,-0.00416142 0.00230709,-0.000279528 0.00459449,0.000503937 0.00689764,0.00230709 0.00309843,0.00242126 0.0045315,0.00499213 0.0043622,0.00775984 -0.000267717,0.00278346 -0.00211024,0.00641732 -0.00562992,0.0109213l-0.0454724 0.0582008 -0.0686181 -0.0536063zm0.173878 -0.327551c0.00669685,0.00523228 0.0105866,0.0120827 0.0116339,0.0206063 0.00104724,0.00852362 -0.00101969,0.0161535 -0.00625197,0.0228543 -0.00527559,0.00675591 -0.0121811,0.0106024 -0.0207008,0.0116496 -0.00852362,0.00105118 -0.0161142,-0.0010748 -0.022811,-0.00630709 -0.00670079,-0.00523622 -0.0105984,-0.0120827 -0.0116417,-0.0206102 -0.00104724,-0.00851969 0.00101969,-0.0161496 0.00629528,-0.0229055 0.00523228,-0.00669685 0.0121378,-0.0105472 0.0206614,-0.0115984 0.00852362,-0.00103937 0.0161181,0.00107874 0.022815,0.00631102zm0.0628189 0.0490787c0.00669685,0.00523228 0.0105866,0.0120866 0.0116339,0.0206063 0.00104724,0.00852756 -0.00101969,0.0161575 -0.00625197,0.0228543 -0.00527559,0.00675197 -0.0121772,0.0106063 -0.0207087,0.0116496 -0.00851969,0.00105118 -0.0161063,-0.0010748 -0.0228031,-0.00630709 -0.00670079,-0.00523228 -0.0105984,-0.0120827 -0.0116417,-0.0206063 -0.00104724,-0.00852362 0.0010748,-0.0161102 0.00635039,-0.0228622 0.00523622,-0.00669685 0.0120827,-0.0105945 0.0206063,-0.0116457 0.00852362,-0.00103937 0.0161142,0.00107874 0.022815,0.00631102zm0.142909 0.249563l-0.0187047 0.0151496c-0.00727165,-0.00523622 -0.0142362,-0.00804724 -0.0210039,-0.00845276 -0.00666142,-0.000397638 -0.0128189,0.00164961 -0.0184764,0.00623228 -0.00544488,0.00440551 -0.00899606,0.00966929 -0.0106654,0.0158937 -0.00172835,0.00626772 -0.00168898,0.0141417 -5.90551e-005,0.0237638 0.00118898,0.0065748 0.00477559,0.0207677 0.0107165,0.0425197 0.00364961,0.0131299 0.00597638,0.0238386 0.00690945,0.0319094 0.000917323,0.00816929 0.000783465,0.0166378 -0.000452756,0.0255512 -0.00305118,0.0236969 -0.0138701,0.0430315 -0.0324134,0.0580433 -0.0139882,0.0113268 -0.0296417,0.0182165 -0.0468622,0.0206693 -0.0172244,0.00245669 -0.034063,0.000283465 -0.0504646,-0.0064685 -0.00874409,-0.00376378 -0.0172756,-0.00862205 -0.0255709,-0.0147756 -0.00824409,-0.00609843 -0.0151339,-0.0125591 -0.0205709,-0.0192795l0.0185433 -0.0150118c0.00991339,0.00759449 0.0186063,0.0118583 0.0260315,0.0127402 0.00748031,0.000838583 0.014685,-0.00150394 0.021622,-0.00712205 0.00722047,-0.00584646 0.0110039,-0.0143346 0.0112402,-0.0252756 0.000102362,-0.00725591 -0.0021063,-0.0190669 -0.00662205,-0.0355394 -0.00496063,-0.0180433 -0.00821654,-0.0305748 -0.00972047,-0.0375394 -0.0015,-0.00696063 -0.00238189,-0.0140669 -0.00273622,-0.021311 -0.00195276,-0.0321535 0.00915354,-0.0580591 0.0332992,-0.0776102 0.012378,-0.0100236 0.0258228,-0.016689 0.0404528,-0.0200787 0.0145315,-0.00339764 0.0287205,-0.00312598 0.0425315,0.000759843 0.0191772,0.00552362 0.0368386,0.0172323 0.0529764,0.0352323zm-0.00832283 0.0279724l0.017874 -0.0144764c0.00487008,0.00681102 0.00856693,0.0131929 0.0112126,0.0189567 0.00259055,0.00580709 0.00563386,0.0145591 0.00901575,0.0263386 0.00092126,0.00284252 0.00191732,0.00497638 0.00308268,0.00642126 0.00166535,0.00205512 0.00360236,0.0029685 0.00579528,0.00284252l0.00759843 -0.00026378c0.00382283,-0.00015748 0.00675197,0.00096063 0.00877559,0.00346063 0.00233465,0.00288583 0.00303937,0.00590551 0.00200787,0.00894488 -0.000988189,0.00309055 -0.00377953,0.00646063 -0.00832677,0.0101417l-0.053685 0.0434764c-0.00316535,0.00256299 -0.00643307,0.00374016 -0.0099252,0.00362205 -0.00348425,-0.000208661 -0.00632677,-0.00167717 -0.00861811,-0.00450394 -0.00175591,-0.00216929 -0.00265354,-0.00475197 -0.00274803,-0.00770866 7.87402e-005,-0.00171654 0.000503937,-0.00334646 0.00123228,-0.00494882 0.000783465,-0.00164567 0.00238583,-0.0038622 0.00488189,-0.00680315 0.00438189,-0.00547638 0.00815748,-0.0119409 0.011437,-0.0194685 0.00328346,-0.00752362 0.00559055,-0.015 0.00684252,-0.0225394 0.00247638,-0.0148701 0.000291339,-0.029374 -0.00645276,-0.0434921zm-0.210736 0.135445l-0.0185394 0.0150157c-0.00719291,-0.00888189 -0.0125945,-0.0207756 -0.0161654,-0.035626 -0.00144882,-0.0055315 -0.00242913,-0.00924409 -0.00319291,-0.0112047 -0.00065748,-0.00194488 -0.00159449,-0.00366535 -0.00271654,-0.00505906 -0.00175197,-0.00216142 -0.00338976,-0.00350394 -0.00501181,-0.0040315 -0.0015748,-0.000468504 -0.0047874,-0.000807087 -0.0095,-0.000944882 -0.00395669,-1.1811e-005 -0.00688976,-0.00113386 -0.00872835,-0.00340945 -0.00490157,-0.00605118 -0.00270866,-0.012878 0.00661417,-0.0204291l0.0591772 -0.0479252c0.00305118,-0.0024685 0.00638583,-0.00369291 0.00988583,-0.00367717 0.0035,1.1811e-005 0.00636614,0.00127165 0.00859055,0.00379134 0.00204331,0.00230315 0.00290551,0.00472835 0.00248819,0.00727165 -0.000318898,0.00255906 -0.00193307,0.00579134 -0.00488976,0.00974803 -0.00729921,0.0100512 -0.0130945,0.0207126 -0.0174291,0.0320433 -0.0042874,0.0112795 -0.00672441,0.0223504 -0.00730315,0.0332087 -0.000614173,0.0111614 0.00158661,0.0215984 0.00672047,0.0312283zm0.132969 0.236402l-0.0438228 -0.0824331 -0.00255512 -0.00479134c-0.00234646,-0.00441732 -0.00337008,-0.00832283 -0.00294094,-0.011626 0.000366142,-0.00326378 0.00212598,-0.00574016 0.00514961,-0.00734646 0.00504724,-0.00268504 0.00970079,-0.00200394 0.0139567,0.00204331 0.00350394,0.00339764 0.00556299,0.00529528 0.00624409,0.0058189 0.000688976,0.000527559 0.00174803,0.000850394 0.0032874,0.00100394 0.00272441,0.000417323 0.00627953,-0.000507874 0.0105709,-0.0027874l0.184984 -0.0983583c0.00429134,-0.00227953 0.00704331,-0.0047126 0.00822441,-0.00720866 0.00073622,-0.00135433 0.00105906,-0.00242126 0.00100787,-0.00327953 -5.51181e-005,-0.000866142 -0.000472441,-0.00363386 -0.00133071,-0.00843701 -0.000976378,-0.00579134 0.00105906,-0.0100276 0.0061063,-0.0127126 0.00302362,-0.00161024 0.00605906,-0.0016811 0.00897244,-0.000161417 0.00298031,0.00149213 0.00564173,0.00452756 0.00798819,0.00894094l0.00255118 0.00479528 0.0438307 0.0824331 0.00254724 0.00479528c0.00234646,0.00440945 0.00337402,0.0083189 0.00294488,0.0116181 -0.000366142,0.00326772 -0.00212598,0.00574016 -0.00515354,0.00735039 -0.00505118,0.00268504 -0.00969685,0.002 -0.0139488,-0.00204331 -0.00350394,-0.00339764 -0.00556693,-0.00529528 -0.00625197,-0.0058189 -0.000681102,-0.000527559 -0.00174803,-0.000850394 -0.00328346,-0.00100787 -0.00272835,-0.000409449 -0.00628346,0.000507874 -0.0105748,0.00279134l-0.184984 0.0983543c-0.00429134,0.00228346 -0.00703937,0.00472047 -0.00822441,0.00720866 -0.000732283,0.00135827 -0.00105512,0.0024252 -0.00100394,0.00328346 5.51181e-005,0.000866142 0.000476378,0.00363386 0.00133465,0.00843701 0.000972441,0.0057874 -0.00106299,0.0100236 -0.00611024,0.0127087 -0.00302756,0.0016063 -0.00605906,0.00168504 -0.00897638,0.000161417 -0.00297244,-0.00148819 -0.0056378,-0.00452756 -0.00798425,-0.00894094l-0.00255512 -0.00479134z"/>
  <path class="fil4" d="M1.56384 2.6971l-0.129035 0.289823c-0.00288976,0.00648031 -0.00364961,0.0115906 -0.00244094,0.0154567 0.000594488,0.0022874 0.00132283,0.0038189 0.00231496,0.00476378 0.000905512,0.000909449 0.00424803,0.0036063 0.00989764,0.00814567 0.00712598,0.00528346 0.00905906,0.0115945 0.00583465,0.0188386 -0.00191339,0.00429528 -0.00555512,0.00681102 -0.0110079,0.00750787 -0.00398031,0.000547244 -0.00964961,-0.00076378 -0.0168937,-0.00398819l-0.00833465 -0.0037126 -0.0947283 -0.0421772 -0.00816535 -0.00363386c-0.00732677,-0.00326378 -0.0120945,-0.00659449 -0.014185,-0.00984646 -0.00312992,-0.00451969 -0.00369685,-0.00890945 -0.0017874,-0.0132047 0.00322835,-0.00724409 0.00920866,-0.0100276 0.0178307,-0.00830709 0.00723228,0.00120079 0.0113819,0.00184252 0.012752,0.00194094 0.00136614,0.000106299 0.00290945,-0.000413386 0.00483858,-0.00157874 0.0036811,-0.00168898 0.0069685,-0.00567323 0.00985433,-0.0121575l0.102795 -0.230882c0.0037874,-0.00850394 0.00575197,-0.0151929 0.00570866,-0.0198543 7.87402e-005,-0.00470472 -0.00168898,-0.00821654 -0.00525197,-0.0104094l-0.00806299 -0.005c-0.00722441,-0.00462992 -0.00933465,-0.010311 -0.00633858,-0.0170472 0.00232677,-0.00522441 0.0066063,-0.00825984 0.0128858,-0.00899213 0.00304331,-0.000259843 0.00859055,0.00109843 0.0164803,0.00400787l0.105039 0.0403071zm0.109921 0.379472l-0.00664567 0.0264646c-0.017252,-0.00433071 -0.0338071,-0.0129528 -0.0494921,-0.0258228 -0.0132205,-0.0109291 -0.0225984,-0.0231654 -0.0282205,-0.0367402 -0.00561811,-0.0135709 -0.00672441,-0.0269606 -0.00337795,-0.0402835 0.0036378,-0.0144843 0.0115827,-0.025315 0.0237913,-0.0327047 0.0122874,-0.00727165 0.0256732,-0.0091378 0.0403346,-0.00545276 0.0129606,0.00325197 0.023,0.0102362 0.0299803,0.0210118 0.00707874,0.010815 0.00905512,0.0222323 0.00604331,0.0342126 -0.00205906,0.00822441 -0.00587008,0.0146811 -0.0113465,0.0194843l-0.011437 0.00995669c-0.00301969,0.00257087 -0.00494094,0.00531496 -0.00568504,0.00826378 -0.00127559,0.00509843 0.00030315,0.0101496 0.00483858,0.015189 0.00216142,0.00234646 0.0058937,0.00451181 0.0112165,0.00642126zm0.0130197 0.0314016l0.00664567 -0.0264606c0.0060748,-0.000374016 0.0107283,-0.0011063 0.0140866,-0.00235827 0.00333071,-0.00115354 0.0065315,-0.00329921 0.00959449,-0.0064252 0.00621654,-0.00623228 0.0103858,-0.0137362 0.0125866,-0.0225l0.060689 -0.241724c0.00201969,-0.00804724 0.0031811,-0.0138386 0.0035,-0.0173661 0.000322835,-0.0035315 -0.000106299,-0.00677559 -0.00146063,-0.00967717 -0.00185433,-0.00437008 -0.00659055,-0.00859449 -0.0140945,-0.0127598l0.00644488 -0.0256535c0.0163543,0.00600394 0.0307677,0.0148425 0.0433819,0.0266614 0.0126181,0.0118189 0.0229961,0.0261142 0.0310315,0.0429567 0.00901181,0.0186102 0.0140669,0.040878 0.0150866,0.0666969 0.00100394,0.0259134 -0.00197244,0.0529094 -0.00902362,0.0809803 -0.0150827,0.0600748 -0.044185,0.103323 -0.0873543,0.129543 -0.0151417,0.00921654 -0.0306654,0.0153976 -0.0465591,0.0185315 -0.0159016,0.0031378 -0.0307835,0.00301181 -0.0445551,-0.000444882zm0.0557756 -0.196776l-0.00756693 0.030126c-0.0216654,0.00567717 -0.0414094,0.00632677 -0.0592008,0.00186614 -0.010815,-0.00271654 -0.0212047,-0.00751181 -0.0310512,-0.0144528 -0.00985433,-0.00694488 -0.0179646,-0.0151496 -0.0243465,-0.0245472 -0.00694094,-0.0105787 -0.0114449,-0.0225472 -0.0135276,-0.0357992 -0.00209843,-0.0132598 -0.0013937,-0.0266693 0.00201969,-0.0402638 0.00491732,-0.0195787 0.014122,-0.037315 0.0277126,-0.0531969 0.0134961,-0.0159055 0.029063,-0.0272008 0.0464843,-0.033752 0.0253583,-0.00940551 0.0527008,-0.0104291 0.0820197,-0.0030748l-0.00644094 0.0256535c-0.00724409,8.66142e-005 -0.0128504,0.00162992 -0.0169488,0.0046811 -0.00400394,0.00308268 -0.00693701,0.00833071 -0.00877953,0.0156654l-0.0250472 0.0997677c-0.00197638,0.0078622 -0.00180315,0.0143701 0.000385827,0.0196693 0.0021811,0.00529921 0.00611811,0.00856693 0.0117008,0.00977559 0.00532283,0.00114961 0.012811,0.000464567 0.0225866,-0.00211811zm0.739685 0.106965l-0.0100787 -0.0262402c0.00417717,-0.00327953 0.00691732,-0.00591339 0.00833071,-0.00764173 0.00146063,-0.00184252 0.00255512,-0.0041378 0.00345276,-0.00695276 0.00248819,-0.00816535 0.00146457,-0.0180354 -0.00306299,-0.0298228l-0.0877638 -0.228634c-0.00451969,-0.0117913 -0.0103661,-0.019811 -0.0176811,-0.0242087 -0.00255118,-0.00148819 -0.00489764,-0.00246457 -0.00722047,-0.0028622 -0.00220079,-0.000334646 -0.006,-0.000452756 -0.0112953,-0.000102362l-0.0100748 -0.0262441c0.0185,-0.00453543 0.0360748,-0.00555906 0.0527638,-0.00298031 0.0166575,0.00249213 0.033752,0.00896457 0.0512205,0.0192402 0.0190827,0.0111378 0.0362441,0.0262677 0.0512835,0.045374 0.0150315,0.0191102 0.0274055,0.041315 0.0371457,0.0666929 0.00981102,0.0255591 0.0155079,0.0504291 0.017122,0.074685 0.00161024,0.0242598 -0.00101575,0.0469921 -0.00774803,0.0680354 -0.0061063,0.0193268 -0.0144843,0.0355748 -0.025189,0.0485709 -0.0106811,0.0130827 -0.0244252,0.0240827 -0.0412047,0.0330906zm-0.0194488 0.0074685c-0.0184961,0.00452756 -0.0360748,0.00555118 -0.0527598,0.00297244 -0.0166535,-0.00248819 -0.033752,-0.00896063 -0.0512205,-0.0192362 -0.0190827,-0.0111378 -0.0362441,-0.0262677 -0.0512835,-0.045378 -0.0150315,-0.0191024 -0.0274409,-0.0413937 -0.0372559,-0.0669528 -0.00974016,-0.025378 -0.0154016,-0.0501614 -0.0170157,-0.0744213 -0.0016063,-0.0242598 0.00101969,-0.0469882 0.00775197,-0.0680354 0.0061063,-0.0193268 0.0144803,-0.0355748 0.025189,-0.0485669 0.0106772,-0.0130866 0.0244213,-0.0240866 0.0412047,-0.0330945l0.0100709 0.026248c-0.00416929,0.00327559 -0.00691339,0.00590945 -0.00832283,0.00763386 -0.00146063,0.00184646 -0.00255512,0.00414173 -0.00344882,0.00695669 -0.00249606,0.00815748 -0.0014685,0.0180315 0.00305512,0.0298189l0.0877638 0.228634c0.00452362,0.0117874 0.0103661,0.019815 0.017689,0.0242126 0.00254331,0.00149213 0.0048937,0.00246457 0.0072126,0.00285433 0.00220866,0.00034252 0.00600394,0.00046063 0.0112953,0.000106299l0.0100748 0.026248zm-0.3895 0.0713071l0.00488583 0.0279606c-0.0201339,0.000996063 -0.037689,-0.000425197 -0.0527677,-0.00424409 -0.0172126,-0.00429134 -0.0312087,-0.0115787 -0.0420866,-0.0218346 -0.0108701,-0.0102638 -0.0175276,-0.0226654 -0.0200669,-0.0371929 -0.0026063,-0.0148898 3.14961e-005,-0.0281772 0.00782283,-0.0398268 0.0078622,-0.0117598 0.0187913,-0.0188189 0.0329488,-0.0212953 0.015622,-0.00272835 0.029685,0.00116929 0.0421142,0.0118189 0.00882283,0.00762992 0.0141063,0.0164331 0.0158858,0.0266024 0.00126772,0.00726772 0.000688976,0.0146654 -0.00182677,0.0222165 -0.00251181,0.00755118 -0.00650787,0.0141457 -0.0119213,0.0195827 -0.00500394,0.00508661 -0.00726772,0.00875197 -0.00689764,0.0108425 0.000488189,0.0028189 0.00392913,0.00483465 0.0103819,0.00585827 0.00636614,0.00113386 0.0135354,0.000909449 0.0215276,-0.000488189zm-0.0598976 -0.342567l0.00470472 0.0268819c-0.00663386,0.00275197 -0.0113268,0.00535039 -0.0140197,0.00759449 -0.00171654,0.0014252 -0.00309843,0.00316142 -0.00415748,0.00512205 -0.00104331,0.00205512 -0.0014252,0.00361811 -0.00120079,0.0048937 0.000669291,0.00277953 0.00299606,0.00536614 0.00711417,0.00754724l0.0138819 0.00767717c0.00674803,0.00377953 0.011126,0.0117165 0.0132244,0.0237008 0.00226772,0.0129882 -0.000425197,0.0248701 -0.00815748,0.0357677 -0.00765748,0.0107874 -0.0181102,0.0173898 -0.0311811,0.0196772 -0.0131654,0.00229921 -0.0249724,-0.0005 -0.0355394,-0.00848031 -0.0104606,-0.00790551 -0.0169724,-0.0189252 -0.0194173,-0.0329094 -0.00211024,-0.0120748 -0.000929134,-0.0240669 0.00342913,-0.0360591 0.00435433,-0.0119961 0.0115472,-0.0227953 0.0215591,-0.0324016 0.0116102,-0.0112008 0.0281732,-0.0208346 0.0497598,-0.0290118zm0.111654 0.166591c0.0162441,0.00192913 0.0284882,0.004 0.0367559,0.00629921 0.00825591,0.00229528 0.0157717,0.00566142 0.0225906,0.00990157 0.00907874,0.0058937 0.016874,0.0140748 0.0234567,0.0244331 0.00658268,0.0103622 0.0108858,0.0215827 0.0129961,0.0336575 0.00480709,0.0275118 -0.000570866,0.0518465 -0.0162402,0.0730157 -0.00961024,0.0130039 -0.0222244,0.023815 -0.0378189,0.0325354 -0.0155276,0.00860236 -0.0332638,0.0147008 -0.0531535,0.0181772l-0.0116654 0.00175984 -0.00488976 -0.0279646c0.00940157,-0.00453937 0.0158465,-0.00997244 0.0193386,-0.0161969 0.00206693,-0.00372835 0.00338189,-0.00742126 0.00374409,-0.0112323 0.000456693,-0.0038189 0.000145669,-0.0088189 -0.000905512,-0.014811l-0.0133465 -0.0763583c-0.00130315,-0.00744094 -0.00260236,-0.0127402 -0.00391732,-0.0159685 -0.00132677,-0.00332283 -0.00344488,-0.00632677 -0.00644882,-0.00906693 -0.00613386,-0.00566929 -0.0145669,-0.00784252 -0.0252835,-0.0065315 -0.00714567,0.000874016 -0.0120276,0.000791339 -0.014622,-0.00015748 -0.00435039,-0.00185827 -0.00690945,-0.00524803 -0.00776772,-0.0101535 -0.000874016,-0.00499213 -0.000110236,-0.00867717 0.00226772,-0.0111575 0.00248031,-0.0023937 0.00741339,-0.00466142 0.0149134,-0.00672047 0.0195827,-0.00520079 0.0277362,-0.0169213 0.0245276,-0.0352598l-0.00208661 -0.0103031 -0.0105079 -0.0601024c-0.00194882,-0.0111654 -0.00548031,-0.0190669 -0.0107008,-0.0237677 -0.00520472,-0.00461024 -0.0133543,-0.00730315 -0.0244016,-0.0078937l-0.00493307 -0.0282402 0.00744094 -0.00130315c0.0169803,-0.00296457 0.0337323,-0.00346457 0.050378,-0.00141339 0.0166339,0.00205118 0.0312362,0.00633071 0.0438898,0.0129094 0.0124488,0.00642913 0.0225315,0.0148701 0.0303425,0.0252874 0.00772047,0.0104449 0.0127638,0.0221969 0.0150512,0.0352638 0.00412992,0.0236102 5.90551e-005,0.0447205 -0.0122244,0.0633346 -0.00533071,0.00804331 -0.0113701,0.0147165 -0.0180039,0.0200866 -0.00664173,0.00537008 -0.0161732,0.0113386 -0.0287756,0.0179409z"/>
 </g>
</svg>
