<?xml version="1.0" encoding="UTF-8" standalone="no"?>
<svg
   xmlns:dc="http://purl.org/dc/elements/1.1/"
   xmlns:cc="http://creativecommons.org/ns#"
   xmlns:rdf="http://www.w3.org/1999/02/22-rdf-syntax-ns#"
   xmlns:svg="http://www.w3.org/2000/svg"
   xmlns="http://www.w3.org/2000/svg"
   xmlns:sodipodi="http://sodipodi.sourceforge.net/DTD/sodipodi-0.dtd"
   xmlns:inkscape="http://www.inkscape.org/namespaces/inkscape"
   width="69.819504mm"
   height="100.0125mm"
   viewBox="0 0 69.819504 100.0125"
   version="1.1"
   id="svg8110"
   inkscape:version="1.0.1 (3bc2e813f5, 2020-09-07)"
   sodipodi:docname="Kups logo.svg">
  <defs
     id="defs8104" />
  <sodipodi:namedview
     id="base"
     pagecolor="#ffffff"
     bordercolor="#666666"
     borderopacity="1.0"
     inkscape:pageopacity="0.0"
     inkscape:pageshadow="2"
     inkscape:zoom="0.35"
     inkscape:cx="220.5138"
     inkscape:cy="194.71429"
     inkscape:document-units="mm"
     inkscape:current-layer="layer1"
     inkscape:document-rotation="0"
     showgrid="false"
     inkscape:pagecheckerboard="true"
     inkscape:window-width="1267"
     inkscape:window-height="728"
     inkscape:window-x="83"
     inkscape:window-y="0"
     inkscape:window-maximized="0" />
  <metadata
     id="metadata8107">
    <rdf:RDF>
      <cc:Work
         rdf:about="">
        <dc:format>image/svg+xml</dc:format>
        <dc:type
           rdf:resource="http://purl.org/dc/dcmitype/StillImage" />
        <dc:title></dc:title>
      </cc:Work>
    </rdf:RDF>
  </metadata>
  <g
     inkscape:label="Layer 1"
     inkscape:groupmode="layer"
     id="layer1"
     transform="translate(-47.489056,-96.648512)">
    <path
       id="path7961"
       style="fill:#ffffff;fill-opacity:1;fill-rule:nonzero;stroke:none;stroke-width:0.355111"
       d="m 82.399586,96.648512 c -19.249548,0 -34.91053,15.660808 -34.91053,34.908968 v 30.19456 c 0,19.24955 15.660982,34.90897 34.91053,34.90897 19.248164,0 34.908974,-15.65942 34.908974,-34.90897 v -30.19456 c 0,-19.24816 -15.66081,-34.908968 -34.908974,-34.908968 z" />
    <path
       id="path7963"
       style="fill:#211e1e;fill-opacity:1;fill-rule:nonzero;stroke:none;stroke-width:0.355111"
       d="m 82.399586,98.360437 c -18.306284,0 -33.199127,14.892323 -33.199127,33.198613 v 30.19299 c 0,18.3049 14.892843,33.19861 33.199127,33.19861 18.304904,0 33.197054,-14.89371 33.197054,-33.19861 v -30.19299 c 0,-18.30629 -14.89215,-33.198613 -33.197054,-33.198613 z m 0.225764,37.145233 c 12.752115,0 23.34478,9.23967 25.45048,21.38838 h 6.32127 v 4.85799 c 0,17.64322 -14.35428,31.99854 -31.997514,31.99854 -17.64461,0 -31.999064,-14.35532 -31.999064,-31.99854 v -4.85799 h 6.774865 c 2.107085,-12.14871 12.69923,-21.38838 25.449963,-21.38838 z" />
    <path
       style="fill:#fde600;fill-opacity:1;fill-rule:nonzero;stroke:none;stroke-width:0.355113"
       d="m 72.39664,181.79487 c 0.01249,-0.73103 0.0083,-1.46068 0.0042,-2.19032 -2.445554,-1.22347 -4.88556,-2.4622 -7.340826,-3.66625 1.991956,2.44694 4.535995,4.41948 7.336663,5.85657"
       id="path7965" />
    <path
       style="fill:#fde600;fill-opacity:1;fill-rule:nonzero;stroke:none;stroke-width:0.355113"
       d="m 72.893241,178.40605 c 2.80483,-1.61881 5.60827,-3.24594 8.418643,-4.85921 0.181718,-0.13594 0.500763,-0.23165 0.474408,-0.51324 0.02082,-3.28617 0.0013,-6.57235 0.0083,-9.85851 -3.301429,-1.92399 -6.625053,-3.81052 -9.920934,-5.7456 -3.107227,1.69649 -6.186709,3.44431 -9.293937,5.14079 -0.0055,3.1974 -0.02773,6.39756 0.0083,9.59357 0.223329,0.68803 0.617283,1.38716 1.172146,1.86295 2.806213,1.44125 5.647108,2.82009 8.45887,4.25302 0.209458,0.0652 0.456375,0.29268 0.674159,0.12623"
       id="path7967" />
    <path
       style="fill:#fde600;fill-opacity:1;fill-rule:nonzero;stroke:none;stroke-width:0.355113"
       d="m 69.057757,142.94204 c 1.116662,0.64087 2.241645,1.26508 3.369402,1.88237 3.119708,-1.81024 6.247747,-3.60522 9.366068,-5.41684 0.0013,-0.30518 0.0028,-0.61035 0.0055,-0.91414 -4.569288,0.1415 -9.069222,1.72979 -12.741021,4.44861"
       id="path7969" />
    <path
       style="fill:#fde600;fill-opacity:1;fill-rule:nonzero;stroke:none;stroke-width:0.355113"
       d="m 71.880621,145.81068 c -1.248442,-0.72549 -2.520463,-1.40935 -3.77445,-2.12374 -5.007632,4.09766 -8.131507,10.38563 -8.320158,16.85949 0.661673,0.41892 1.344153,0.80316 2.023857,1.19295 3.354141,-1.85602 6.698573,-3.73283 10.059653,-5.57637 0.01803,-3.45124 -0.0042,-6.90248 0.01108,-10.35233"
       id="path7971" />
    <path
       style="fill:#fde600;fill-opacity:1;fill-rule:nonzero;stroke:none;stroke-width:0.355113"
       d="m 58.261529,115.15177 c 1.747817,-0.01 3.494247,-0.003 5.240673,-0.005 0.01527,2.48995 -0.02219,4.97989 0.01944,7.46845 0.982109,-2.4733 1.887922,-4.97712 2.839512,-7.4629 1.842142,-0.005 3.684284,-0.0139 5.525036,0.005 -1.376059,2.85753 -2.767376,5.70675 -4.153144,8.56013 1.532806,3.07671 3.098906,6.13955 4.645583,9.21071 -1.87682,0.01 -3.75364,0.003 -5.63046,0.004 -1.087533,-2.69385 -2.129282,-5.40713 -3.232073,-8.09404 -0.0291,2.69801 -0.0014,5.39741 -0.01249,8.09543 -1.747813,-0.001 -3.495633,0 -5.242059,-0.001 -0.0014,-5.92592 -0.0028,-11.85324 0,-17.78055"
       id="path7973" />
    <path
       style="fill:#fde600;fill-opacity:1;fill-rule:nonzero;stroke:none;stroke-width:0.355113"
       d="m 91.421473,122.5245 c -0.46192,0.47302 -1.155502,0.53406 -1.775558,0.60896 -0.01249,-1.38993 -0.0055,-2.77985 -0.0028,-4.16978 0.475792,0.0361 0.997363,0.0125 1.407962,0.30101 1.023717,0.69635 1.226248,2.35539 0.370371,3.25981 m 15.516712,3.15162 c -0.40921,-1.5231 -1.67568,-2.59259 -2.94631,-3.42072 -0.64919,-0.47441 -1.48287,-0.87114 -1.76863,-1.67708 -0.24275,-0.7227 0.53822,-1.31918 1.19712,-1.33167 1.32057,-0.025 2.39423,0.92663 3.18491,1.88793 -0.0222,-1.81163 0,-3.62326 -0.0125,-5.43488 -2.07935,-0.96268 -4.64559,-1.2956 -6.717998,-0.14427 -1.467612,0.8004 -2.35123,2.32904 -2.777088,3.90069 -0.325977,-0.96824 -0.767093,-1.94202 -1.577192,-2.60369 -1.507842,-1.2748 -3.558053,-1.62298 -5.475102,-1.69372 -1.878208,-0.0263 -3.757803,-0.008 -5.636011,-0.01 -0.0028,5.9287 -0.0013,11.8574 -0.0013,17.78472 1.745041,-10e-4 3.490079,-10e-4 5.235122,-10e-4 -0.0055,-1.94202 -0.0013,-3.88265 -0.0028,-5.82328 1.996118,0.0388 4.183661,-0.11097 5.806636,-1.40796 1.057011,-0.82674 1.556385,-2.13483 1.751976,-3.4235 0.493829,1.40658 1.595231,2.46636 2.768764,3.32779 0.543763,0.42308 1.179083,0.74074 1.628513,1.27479 0.37315,0.42586 0.44251,1.14024 0.018,1.55778 -0.53682,0.54099 -1.39547,0.57705 -2.080727,0.33847 -1.012624,-0.29547 -1.792205,-1.04592 -2.462196,-1.8255 0.04577,1.86711 -0.106815,3.73422 0.0222,5.59995 1.684007,0.57566 3.508113,0.90303 5.279513,0.5715 1.66042,-0.30933 3.17381,-1.36218 4.00055,-2.84089 0.79207,-1.37883 0.95853,-3.07671 0.56458,-4.60536"
       id="path7975" />
    <path
       style="fill:#fde600;fill-opacity:1;fill-rule:nonzero;stroke:none;stroke-width:0.355113"
       d="m 71.504698,120.484 c 1.682619,-0.0139 3.366624,0.001 5.049245,-0.008 0.0069,2.39423 -0.0083,4.78846 0.0055,7.18131 0.03745,0.53821 0.0013,1.21514 0.493827,1.56748 0.40782,0.15675 1.011237,0.14288 1.23318,-0.3024 0.219171,-0.44112 0.194202,-0.9502 0.213622,-1.43016 0.0013,-2.33735 -0.0028,-4.6761 0.0013,-7.01346 1.681229,0.001 3.362463,-10e-4 5.045083,0.001 0.0042,2.44972 0.0069,4.89943 0,7.34915 -0.01109,1.36496 -0.350951,2.8187 -1.35664,3.80497 -1.158272,1.19018 -2.894995,1.54529 -4.497158,1.5758 -1.708975,0.0264 -3.576084,-0.32875 -4.814813,-1.59938 -1.041753,-1.02788 -1.359416,-2.54404 -1.371897,-3.95617 -0.0097,-2.39007 -0.0042,-4.78013 -0.0014,-7.1702"
       id="path7977" />
    <path
       style="fill:#211e1e;fill-opacity:1;fill-rule:nonzero;stroke:none;stroke-width:0.355113"
       d="m 102.57143,161.58679 c -0.41338,-0.0874 -0.75739,-0.35788 -1.12637,-0.54931 -2.742407,-1.53836 -5.490365,-3.067 -8.235544,-4.59981 -0.0013,-3.62463 -0.0055,-7.24927 0.0013,-10.87252 1.24705,-0.68248 2.483009,-1.38299 3.728673,-2.06686 3.728671,3.03093 6.523791,7.21875 7.754201,11.87405 0.4203,1.49119 0.63115,3.02954 0.76293,4.57067 -0.96685,0.53961 -1.89763,1.14718 -2.88528,1.64378 m -0.97101,11.7714 c -3.155778,1.66736 -6.315715,3.32778 -9.463172,5.00763 -3.082258,-1.76585 -6.150647,-3.55805 -9.232908,-5.32529 -0.01945,-3.2182 -0.03051,-6.43639 0.0042,-9.65321 3.366627,-1.92814 6.722158,-3.87848 10.081848,-5.81773 2.722986,1.53697 5.455679,3.05451 8.188372,4.57345 0.15536,0.12346 0.47302,0.1942 0.42309,0.45499 0.004,3.58579 0.005,7.17298 -0.001,10.76016 m -8.915249,8.52685 c -0.0028,-0.85865 -0.0069,-1.7173 0.0028,-2.57456 2.777083,-1.44126 5.523648,-2.94216 8.309059,-4.36955 -2.163968,2.93522 -5.049249,5.32113 -8.311837,6.94411 m 3.286112,-39.11778 c -1.159666,0.65612 -2.331813,1.28866 -3.487306,1.95173 -3.173812,-1.83937 -6.358721,-3.66209 -9.528371,-5.50978 -0.0652,-0.23443 -0.07352,-0.47996 -0.101264,-0.71994 4.680265,-0.0111 9.320294,1.55778 13.116941,4.27799 m -14.178116,-3.35969 c -3.118321,1.81162 -6.24636,3.6066 -9.364687,5.41684 -1.129139,-0.61729 -2.254123,-1.2415 -3.370784,-1.88237 3.671799,-2.71882 8.171734,-4.30711 12.741019,-4.44861 -0.0028,0.30379 -0.0042,0.60896 -0.0055,0.91414 m -0.0069,33.62603 c 0.02635,0.28159 -0.29269,0.3773 -0.474406,0.51324 -2.810375,1.61327 -5.612432,3.2404 -8.418646,4.85921 -0.217784,0.16645 -0.4647,-0.061 -0.674158,-0.12623 -2.811763,-1.43155 -5.652657,-2.81177 -8.45887,-4.25302 -0.554863,-0.47579 -0.948817,-1.17353 -1.172147,-1.86295 -0.03606,-3.19601 -0.01249,-6.39617 -0.0083,-9.59357 3.107227,-1.69648 6.186709,-3.4443 9.293937,-5.14079 3.295881,1.93508 6.619506,3.82161 9.920934,5.74698 -0.0069,3.28478 0.01109,6.57096 -0.0083,9.85713 m -9.389654,8.76127 c -2.800667,-1.43709 -5.344706,-3.40963 -7.336659,-5.85657 2.455263,1.20405 4.893878,2.44139 7.340822,3.66625 0.0042,0.72964 0.0083,1.46067 -0.0042,2.19032 M 59.786062,160.54643 c 0.188652,-6.47386 3.312527,-12.76183 8.320158,-16.86088 1.253987,0.71578 2.526009,1.39964 3.77445,2.12513 -0.01527,3.44985 0.0069,6.90109 -0.01108,10.35233 -3.361079,1.84354 -6.705511,3.72035 -10.059652,5.57637 -0.679702,-0.38979 -1.362182,-0.77403 -2.023855,-1.19295 m 45.186577,-7.85963 c -1.82134,-4.73991 -5.205991,-8.85698 -9.492302,-11.57581 -4.487447,-2.87834 -9.963935,-4.17256 -15.264259,-3.61215 -4.877237,0.46609 -9.588016,2.50798 -13.276462,5.73173 -4.583159,3.94091 -7.573864,9.68373 -8.138435,15.70537 -0.456375,4.3737 0.335689,8.87086 2.254126,12.82841 1.994729,4.14066 5.207378,7.68206 9.138578,10.06381 5.81218,3.57192 13.179362,4.44722 19.672632,2.35955 5.652659,-1.76585 10.565962,-5.73034 13.510892,-10.86559 3.61077,-6.17006 4.19753,-13.98252 1.59523,-20.63532"
       id="path7979" />
    <path
       style="fill:#fde600;fill-opacity:1;fill-rule:nonzero;stroke:none;stroke-width:0.355113"
       d="M 76.573363,179.92082 H 75.619 v -0.84339 c 0.590929,0.0125 1.177695,-0.21085 1.212374,-0.88361 h 0.959911 v 4.07684 h -1.217922 z m 0,0"
       id="path7981" />
    <path
       style="fill:#fde600;fill-opacity:1;fill-rule:nonzero;stroke:none;stroke-width:0.355113"
       d="m 79.552974,179.63368 c 0,0.31766 0.28159,0.55209 0.585377,0.55209 0.317659,0 0.586769,-0.21778 0.586769,-0.54516 0,-0.3232 -0.252463,-0.56873 -0.574283,-0.56873 -0.310722,0 -0.597863,0.23998 -0.597863,0.5618 m 0.03607,1.56471 c 0.02357,0.0874 0.09294,0.17062 0.180329,0.2164 0.09432,0.0472 0.19975,0.0596 0.281591,0.0596 0.527116,0 0.668607,-0.4869 0.732419,-0.8212 l -0.01109,-0.0111 c -0.258008,0.22194 -0.56873,0.32182 -0.914135,0.32182 -0.797613,0 -1.38299,-0.45638 -1.38299,-1.29422 0,-0.99043 0.790675,-1.5231 1.717296,-1.5231 1.19434,0 1.71591,0.91414 1.71591,1.93925 0,1.29421 -0.608965,2.23193 -1.857401,2.23193 -0.755999,0 -1.405189,-0.31766 -1.534192,-1.11944 z m 0,0"
       id="path7983" />
    <path
       style="fill:#fde600;fill-opacity:1;fill-rule:nonzero;stroke:none;stroke-width:0.355113"
       d="m 82.336993,179.90972 c -0.0652,-1.11804 0.632545,-1.76307 1.72701,-1.76307 0.990428,0 1.664586,0.41615 1.664586,1.28312 0,1.04175 -1.019556,1.37051 -1.786657,1.83937 v 0.006 h 1.844919 v 0.99597 h -3.531698 c -0.02358,-0.39256 0.09294,-0.73242 0.292687,-1.00707 0.339855,-0.47441 0.925237,-0.78513 1.446808,-1.10279 0.210844,-0.12762 0.550701,-0.2913 0.550701,-0.59093 0,-0.36898 -0.217784,-0.49798 -0.492443,-0.49798 -0.468857,0 -0.626996,0.33985 -0.61451,0.83784 z m 0,0"
       id="path7985" />
    <path
       style="fill:#fde600;fill-opacity:1;fill-rule:nonzero;stroke:none;stroke-width:0.355113"
       d="m 86.377774,179.55184 c 0.0055,-0.47996 0.198368,-0.83091 0.50909,-1.06534 0.310724,-0.22888 0.732417,-0.33985 1.188791,-0.33985 1.183246,0 1.575808,0.70329 1.575808,1.04869 0,0.85449 -0.538215,0.85449 -0.538215,0.87252 v 0.0111 c 0,0.0472 0.667223,0.0472 0.667223,0.95575 0,0.49799 -0.374533,1.28312 -1.710364,1.28312 -1.833817,0 -1.839368,-1.29006 -1.810237,-1.59384 h 1.113885 c -0.0069,0.2164 0.04578,0.38008 0.158136,0.4855 0.110969,0.13456 0.280207,0.18311 0.485503,0.18311 0.334306,0 0.545155,-0.12346 0.545155,-0.45776 0,-0.3565 -0.276045,-0.4217 -0.545155,-0.4217 -0.16923,0 -0.251076,0.0166 -0.339852,0.0291 V 179.746 c 0.08878,0.005 0.181718,0.0236 0.339852,0.0236 0.246912,0 0.556249,-0.0541 0.556249,-0.37037 0,-0.25662 -0.29269,-0.3565 -0.532667,-0.3565 -0.316272,0 -0.574283,0.16924 -0.561798,0.50909 z m 0,0"
       id="path7987" />
    <path
       style="fill:#211e1e;fill-opacity:1;fill-rule:nonzero;stroke:none;stroke-width:0.355113"
       d="m 57.609568,168.69458 0.453598,1.23873 -1.38438,0.50769 0.0042,0.0111 1.789425,0.59648 0.560416,1.52587 -2.1057,-0.88223 -1.828271,2.59398 -0.565959,-1.54391 1.201277,-1.56471 -0.503538,-0.20529 -1.187404,0.43556 -0.454987,-1.23873 z m 0,0"
       id="path7989" />
    <path
       style="fill:#211e1e;fill-opacity:1;fill-rule:nonzero;stroke:none;stroke-width:0.355113"
       d="m 58.756745,177.38094 c -1.032045,0.58815 -1.844917,0.31211 -2.492719,-0.82397 -0.647801,-1.13608 -0.47302,-1.98085 0.559024,-2.5704 l 2.283255,-1.29976 0.653352,1.14717 -2.028021,1.15412 c -0.380083,0.21639 -0.854488,0.48828 -0.536829,1.04591 0.309337,0.54099 0.783742,0.27188 1.163824,0.0541 l 2.028021,-1.1555 0.653348,1.14718 z m 0,0"
       id="path7991" />
    <path
       style="fill:#211e1e;fill-opacity:1;fill-rule:nonzero;stroke:none;stroke-width:0.355113"
       d="m 59.973281,180.07202 c 0.212231,0.2594 0.710223,0.51741 1.448188,-0.086 0.737969,-0.6048 0.582606,-1.1444 0.370371,-1.40519 -0.213621,-0.2594 -0.711613,-0.5174 -1.449578,0.0874 -0.737969,0.6048 -0.582605,1.14441 -0.368981,1.40381 m 2.643914,-2.16813 c 0.825359,1.00708 0.653352,2.27355 -0.359272,3.10307 -1.011237,0.82952 -2.286032,0.74906 -3.11139,-0.25801 -0.825356,-1.00708 -0.653348,-2.27216 0.359275,-3.10168 1.011238,-0.82952 2.286032,-0.74907 3.111387,0.25662"
       id="path7993" />
    <path
       style="fill:#211e1e;fill-opacity:1;fill-rule:nonzero;stroke:none;stroke-width:0.355113"
       d="m 63.830959,182.1805 0.384242,0.33708 c 0.256625,0.2261 0.542375,0.44527 0.828128,0.12068 0.256628,-0.29269 0.04716,-0.50909 -0.195587,-0.72271 l -0.4425,-0.3884 z m 0.307947,-2.34845 1.659036,1.45651 c 0.873908,0.76848 0.617284,1.67845 0.213621,2.1376 -0.68525,0.77958 -1.528642,0.68526 -2.267998,0.0361 l -0.585378,-0.51463 -0.855874,0.9724 -0.991817,-0.87113 z m 0,0"
       id="path7995" />
    <path
       style="fill:#211e1e;fill-opacity:1;fill-rule:nonzero;stroke:none;stroke-width:0.355113"
       d="m 67.205903,182.40799 1.081983,0.756 -2.4511,3.51366 -1.081983,-0.756 z m 0,0"
       id="path7997" />
    <path
       style="fill:#211e1e;fill-opacity:1;fill-rule:nonzero;stroke:none;stroke-width:0.355113"
       d="m 68.90517,187.36984 c 0.296852,0.15675 0.857261,0.20114 1.30254,-0.64225 0.44389,-0.84339 0.09155,-1.28034 -0.205302,-1.43709 -0.296849,-0.15675 -0.857261,-0.20114 -1.302537,0.64225 -0.44389,0.84339 -0.09155,1.28035 0.205299,1.43709 m 1.595229,-3.02399 c 1.151336,0.60618 1.484253,1.84075 0.873905,2.99764 -0.610348,1.1555 -1.815786,1.57719 -2.967122,0.97101 -1.15134,-0.60758 -1.484256,-1.84076 -0.873908,-2.99765 0.610347,-1.1555 1.815786,-1.57858 2.967125,-0.971"
       id="path7999" />
    <path
       style="fill:#211e1e;fill-opacity:1;fill-rule:nonzero;stroke:none;stroke-width:0.355113"
       d="m 72.63939,185.53741 1.283123,0.41753 0.479954,2.56485 0.01109,0.004 0.707449,-2.17922 1.187405,0.38424 -1.324735,4.07408 -1.219312,-0.39673 -0.527117,-2.63005 -0.01249,-0.004 -0.722708,2.22501 -1.186018,-0.38564 z m 0,0"
       id="path8001" />
    <path
       style="fill:#211e1e;fill-opacity:1;fill-rule:nonzero;stroke:none;stroke-width:0.355113"
       d="m 79.719431,189.22724 0.507701,0.0416 c 0.341238,0.0277 0.701897,0.0319 0.736579,-0.39811 0.03051,-0.3884 -0.266335,-0.43696 -0.588156,-0.46331 l -0.586764,-0.0472 z m -1.156888,-2.06686 2.200026,0.17756 c 1.159666,0.0943 1.496745,0.97656 1.448192,1.58552 -0.08462,1.03481 -0.815647,1.46206 -1.796365,1.38299 l -0.776806,-0.0624 -0.105423,1.29144 -1.315022,-0.10681 z m 0,0"
       id="path8003" />
    <path
       style="fill:#211e1e;fill-opacity:1;fill-rule:nonzero;stroke:none;stroke-width:0.355113"
       d="m 84.623025,190.05954 -0.464695,-1.29422 -0.01249,0.001 -0.331531,1.34277 z m -1.206823,-2.68415 1.287278,-0.0805 1.822722,4.1795 -1.364961,0.0846 -0.217784,-0.59925 -1.359408,0.0846 -0.153977,0.62144 -1.323348,0.0832 z m 0,0"
       id="path8005" />
    <path
       style="fill:#211e1e;fill-opacity:1;fill-rule:nonzero;stroke:none;stroke-width:0.355113"
       d="m 86.32368,187.14096 1.291441,-0.27604 0.667224,3.11416 1.853237,-0.39672 0.230264,1.07365 -3.144679,0.67278 z m 0,0"
       id="path8007" />
    <path
       style="fill:#211e1e;fill-opacity:1;fill-rule:nonzero;stroke:none;stroke-width:0.355113"
       d="m 89.676435,186.40022 1.241501,-0.44666 1.079207,2.99764 1.783881,-0.64225 0.371761,1.03204 -3.025391,1.08892 z m 0,0"
       id="path8009" />
    <path
       style="fill:#211e1e;fill-opacity:1;fill-rule:nonzero;stroke:none;stroke-width:0.355113"
       d="m 96.243224,187.21032 c 0.295468,-0.15952 0.642254,-0.60064 0.188653,-1.43987 -0.454988,-0.83784 -1.014005,-0.78651 -1.309476,-0.62699 -0.29546,0.16091 -0.64225,0.60064 -0.188651,1.43987 0.454986,0.83784 1.014011,0.78651 1.309474,0.62699 m -1.629905,-3.00458 c 1.144405,-0.62144 2.354,-0.21362 2.978221,0.93633 0.622835,1.14857 0.303787,2.38591 -0.839226,3.00735 -1.144405,0.62007 -2.354006,0.21224 -2.978224,-0.93771 -0.622835,-1.14857 -0.305176,-2.38591 0.839229,-3.00597"
       id="path8011" />
    <path
       style="fill:#211e1e;fill-opacity:1;fill-rule:nonzero;stroke:none;stroke-width:0.355113"
       d="m 99.354612,184.68015 c 0.0652,0.086 0.138716,0.1512 0.209463,0.1942 0.234429,0.14565 0.493825,0.0125 0.689415,-0.13732 0.17062,-0.13179 0.3884,-0.3898 0.1942,-0.64226 -0.13594,-0.17617 -0.31904,-0.10958 -1.032038,0.17478 -0.653357,0.26079 -1.380223,0.58677 -1.907344,-0.0985 -0.603409,-0.78374 -0.194199,-1.63684 0.504928,-2.17506 0.736579,-0.56735 1.602166,-0.7879 2.267994,0.0166 l -0.987652,0.76155 c -0.08045,-0.14287 -0.202522,-0.18587 -0.332914,-0.17616 -0.131784,0.004 -0.269108,0.0721 -0.374534,0.15259 -0.141488,0.10958 -0.345403,0.32737 -0.19975,0.51741 0.206685,0.22749 0.731028,-0.0929 1.313635,-0.33015 0.581215,-0.2372 1.229015,-0.38008 1.708975,0.24275 0.68109,0.88363 0.0888,1.7936 -0.66722,2.3762 -0.38563,0.29685 -1.588294,1.0043 -2.433071,-0.0707 z m 0,0"
       id="path8013" />
    <path
       style="fill:#211e1e;fill-opacity:1;fill-rule:nonzero;stroke:none;stroke-width:0.355113"
       d="m 99.79989,180.70873 2.44833,-2.56208 0.79345,0.75739 -1.53697,1.6091 0.38563,0.36898 1.39548,-1.46206 0.73797,0.70468 -1.39548,1.46205 0.38563,0.3676 1.58274,-1.65626 0.79346,0.75738 -2.49272,2.61063 z m 0,0"
       id="path8015" />
    <path
       style="fill:#211e1e;fill-opacity:1;fill-rule:nonzero;stroke:none;stroke-width:0.355113"
       d="m 106.87993,176.13111 c 0.97795,0.67416 1.08337,1.52588 0.34124,2.60231 -0.74213,1.07782 -1.57858,1.28728 -2.55653,0.61451 l -2.16396,-1.49119 0.74768,-1.08615 1.9226,1.32335 c 0.36066,0.2483 0.81009,0.55763 1.17492,0.0291 0.35372,-0.51325 -0.0957,-0.82397 -0.45638,-1.07088 l -1.9226,-1.32474 0.74907,-1.08614 z m 0,0"
       id="path8017" />
    <path
       style="fill:#211e1e;fill-opacity:1;fill-rule:nonzero;stroke:none;stroke-width:0.355113"
       d="m 107.18095,173.86034 0.29268,-0.62422 c 0.10404,-0.22333 0.20808,-0.54515 -0.13871,-0.70745 -0.24553,-0.11374 -0.44944,-0.0444 -0.66306,0.41199 l -0.26217,0.55902 z m -2.25414,0.40366 1.06534,-2.2777 c 0.31766,-0.67832 0.96685,-1.09031 1.69927,-0.74768 0.40227,0.18865 0.74074,0.57151 0.7019,1.0362 0.27743,-0.26772 0.72964,-0.30101 1.23318,-0.1179 0.19836,0.0721 0.66306,0.28297 0.89194,0.25801 l -0.55764,1.19572 c -0.22472,-0.0319 -0.43556,-0.10403 -0.64364,-0.18171 -0.38424,-0.14011 -0.78513,-0.28853 -1.00708,0.18449 l -0.29684,0.6367 1.35247,0.63255 -0.55902,1.19434 z m 0,0"
       id="path8019" />
    <path
       style="fill:#211e1e;fill-opacity:1;fill-rule:nonzero;stroke:none;stroke-width:0.355113"
       d="m 109.96358,168.89988 -1.37467,0.0195 -0.003,0.0111 1.16243,0.75045 z m -2.92968,0.26771 0.34263,-1.24288 4.54432,-0.36344 -0.36482,1.31918 -0.63809,0.0111 -0.36205,1.31226 0.53822,0.34678 -0.35234,1.27896 z m 0,0"
       id="path8021" />
  </g>
</svg>
