<?xml version="1.0" encoding="UTF-8" standalone="no"?>
<!-- Created with Inkscape (http://www.inkscape.org/) -->

<svg
   xmlns:dc="http://purl.org/dc/elements/1.1/"
   xmlns:cc="http://creativecommons.org/ns#"
   xmlns:rdf="http://www.w3.org/1999/02/22-rdf-syntax-ns#"
   xmlns:svg="http://www.w3.org/2000/svg"
   xmlns="http://www.w3.org/2000/svg"
   xmlns:sodipodi="http://sodipodi.sourceforge.net/DTD/sodipodi-0.dtd"
   xmlns:inkscape="http://www.inkscape.org/namespaces/inkscape"
   width="174"
   height="215"
   viewBox="0 0 174 215"
   id="svg2"
   version="1.1"
   inkscape:version="0.91 r13725"
   sodipodi:docname="klaksvikar.svg">
  <defs
     id="defs4" />
  <sodipodi:namedview
     id="base"
     pagecolor="#ffffff"
     bordercolor="#666666"
     borderopacity="1.0"
     inkscape:pageopacity="0.0"
     inkscape:pageshadow="2"
     inkscape:zoom="2.5255814"
     inkscape:cx="86.5"
     inkscape:cy="107.5"
     inkscape:document-units="px"
     inkscape:current-layer="layer1"
     showgrid="false"
     units="px"
     inkscape:window-width="1280"
     inkscape:window-height="744"
     inkscape:window-x="-4"
     inkscape:window-y="-4"
     inkscape:window-maximized="1" />
  <metadata
     id="metadata7">
    <rdf:RDF>
      <cc:Work
         rdf:about="">
        <dc:format>image/svg+xml</dc:format>
        <dc:type
           rdf:resource="http://purl.org/dc/dcmitype/StillImage" />
        <dc:title></dc:title>
      </cc:Work>
    </rdf:RDF>
  </metadata>
  <g
     inkscape:label="Layer 1"
     inkscape:groupmode="layer"
     id="layer1"
     transform="translate(0,-837.36216)">
    <g
       id="g3612"
       transform="translate(-285.04724,418.68101)">
      <path
         d="m 458.31099,419.33615 -172.5275,0 c 0,0 0.20375,123.77 0,137.4 0.2025,67.83125 67.04,20.6325 86.26375,76.29 19.2225,-55.6575 86.06125,-8.45875 86.26375,-76.29 -0.20375,-13.63125 0,-137.4 0,-137.4"
         style="fill:#081e71;fill-opacity:1;fill-rule:evenodd;stroke:none"
         id="path3350"
         inkscape:connector-curvature="0" />
      <path
         d="m 453.40849,424.23115 -162.72375,0 c 0.0362,23.40625 0.175,120.4375 -0.007,132.49 0.0962,32.0725 15.06375,34.81625 35.77875,38.61375 15.545,2.85 34.38,6.30625 45.59125,25.80875 11.21125,-19.5025 30.04625,-22.95875 45.59125,-25.80875 20.71625,-3.7975 35.6825,-6.54125 35.77875,-38.61375 -0.1825,-12.0525 -0.045,-109.08375 -0.009,-132.49"
         style="fill:#ffffff;fill-opacity:1;fill-rule:evenodd;stroke:none"
         id="path3352"
         inkscape:connector-curvature="0" />
      <path
         d="m 295.57099,429.12615 c 0,31.44625 0,127.7275 0,127.58 0.085,28.00625 11.3375,30.06875 31.7675,33.81375 14.09,2.58375 32.21125,5.91 44.70875,21.8625 12.49625,-15.9525 30.6175,-19.27875 44.70875,-21.8625 20.42875,-3.745 31.6825,-5.8075 31.76625,-33.81375 10e-4,0.1475 0,-96.13375 0,-127.58 l -152.95125,0"
         style="fill:#081e71;fill-opacity:1;fill-rule:evenodd;stroke:none"
         id="path3354"
         inkscape:connector-curvature="0" />
      <path
         d="m 300.46599,487.16365 c 0,34.77625 0,69.6625 0,69.52875 0.0525,17.42 0.0713,23.94 27.755,29.01375 1.14,0.20875 2.30625,0.42375 3.4925,0.6475 l -10e-4,-68.065 -31.24625,-31.125"
         style="fill:#ffffff;fill-opacity:1;fill-rule:evenodd;stroke:none"
         id="path3356"
         inkscape:connector-curvature="0" />
      <path
         d="m 372.04724,531.79865 -71.58125,-71.55 c 0,5.48625 0,11.17 0,17.045 l 71.58125,71.6225 71.58,-71.62125 c 0,-5.87625 0,-11.56 0,-17.04625 l -71.58,71.55125 0,-10e-4"
         style="fill:#ffffff;fill-opacity:1;fill-rule:evenodd;stroke:none"
         id="path3358"
         inkscape:connector-curvature="0" />
      <path
         d="m 443.62724,487.16365 -31.245,31.125 -0.002,68.065 c 1.18625,-0.22375 2.3525,-0.4375 3.49375,-0.64625 27.6825,-5.075 27.7025,-11.5925 27.75375,-29.015 10e-4,0.13375 0,-34.7525 0,-69.52875"
         style="fill:#ffffff;fill-opacity:1;fill-rule:evenodd;stroke:none"
         id="path3360"
         inkscape:connector-curvature="0" />
      <path
         d="m 372.04724,558.6824 14.19,-14.29375 0,50.01375 c -4.995,2.55625 -9.81875,5.9 -14.19,10.39625 l 0,0 c -4.3725,-4.4975 -9.19625,-7.8425 -14.19,-10.39625 l 0,-49.9725 14.19,14.2525 0,0"
         style="fill:#ffffff;fill-opacity:1;fill-rule:evenodd;stroke:none"
         id="path3362"
         inkscape:connector-curvature="0" />
      <path
         d="m 385.85724,469.64615 0.001,40.3075 16.42,-16.4125 0.0138,-23.895 -16.435,0"
         style="fill:#ffffff;fill-opacity:1;fill-rule:evenodd;stroke:none"
         id="path3364"
         inkscape:connector-curvature="0" />
      <path
         d="m 363.48224,499.8124 0,15.4925 -17.9475,-17.94125 0,-36.0175 17.9475,0 0,20.31625 11.99375,-20.31625 11.43375,0 -20.7875,27.00875 15.96375,25.37125 -10.09,10.085 -8.51375,-23.99875"
         style="fill:#ffffff;fill-opacity:1;fill-rule:evenodd;stroke:none"
         id="path3366"
         inkscape:connector-curvature="0" />
      <path
         d="m 402.29224,467.77615 -16.435,-0.185 16.435,-6.245 0,6.43"
         style="fill:#ffffff;fill-opacity:1;fill-rule:evenodd;stroke:none"
         id="path3368"
         inkscape:connector-curvature="0" />
      <path
         d="m 304.20724,443.93615 c 0.57375,-0.075 0.66625,-0.265 0.66625,-0.87 l 0,-4.53625 c 0,-0.60375 -0.085,-0.795 -0.66625,-0.88 l 0,-0.59875 2.7725,0 0,0.59875 c -0.58125,0.085 -0.66625,0.27625 -0.66625,0.88 l 0,2.045 1.6525,-1.9075 c 0.16875,-0.19 0.2525,-0.35 0.2525,-0.54 0,-0.265 -0.17625,-0.44625 -0.53,-0.4775 l 0,-0.59875 2.52,0 0,0.59875 c -0.6325,0.10625 -1.02875,0.4775 -1.4675,1.0175 l -1.1625,1.42 c -0.0425,0.0537 -0.0675,0.10625 -0.0675,0.13875 0,0.0412 0.0425,0.095 0.10875,0.17875 l 2.26,2.8525 c 0.355,0.445 0.57375,0.68875 0.80125,0.68875 0.0337,0 0.0587,0 0.0925,-0.01 l 0,0.60875 -1.72875,0 -2.73125,-3.45 0,1.97125 c 0,0.605 0.0925,0.795 0.66625,0.87 l 0,0.60875 -2.7725,0 0,-0.60875"
         style="fill:#ffffff;fill-opacity:1;fill-rule:evenodd;stroke:none"
         id="path3370"
         inkscape:connector-curvature="0" />
      <path
         d="m 313.74474,437.6499 c -0.5825,0.085 -0.6575,0.27625 -0.6575,0.87875 l 0,4.1375 c 0,1.00625 0.10875,1.28125 0.9775,1.28125 0.97,0 1.4675,-0.36 2.04875,-1.56 l 0.46375,0 -0.3625,2.1575 -5.26,0 0,-0.61125 c 0.57375,-0.0738 0.66625,-0.265 0.66625,-0.86875 l 0,-4.535 c 0,-0.60375 -0.0838,-0.795 -0.66625,-0.88 l 0,-0.59875 2.79,0 0,0.59875"
         style="fill:#ffffff;fill-opacity:1;fill-rule:evenodd;stroke:none"
         id="path3372"
         inkscape:connector-curvature="0" />
      <path
         d="m 318.60724,441.25865 0.725,-2.69375 0.7075,2.69375 -1.4325,0 z m -1.6525,3.28625 1.72,0 0,-0.61125 -0.025,0 c -0.32875,0 -0.50625,-0.20125 -0.50625,-0.5625 0,-0.1275 0.025,-0.265 0.0588,-0.42375 l 0.22,-1.02875 1.83625,0 0.245,1.12375 c 0.0425,0.18125 0.0675,0.31875 0.0675,0.425 0,0.29625 -0.16875,0.445 -0.53125,0.46625 l 0,0.61125 2.61375,0 0,-0.61125 c -0.2625,-0.0425 -0.4475,-0.31875 -0.59125,-0.8275 l -1.685,-6.05375 -1.50875,0 c 0.12625,0.16 0.185,0.29875 0.185,0.44625 0,0.0638 -0.0163,0.1375 -0.0337,0.21125 l -1.44125,5.28 c -0.14375,0.53 -0.26875,0.8375 -0.62375,0.94375 l 0,0.61125"
         style="fill:#ffffff;fill-opacity:1;fill-rule:evenodd;stroke:none"
         id="path3374"
         inkscape:connector-curvature="0" />
      <path
         d="m 323.11599,443.93615 c 0.57375,-0.075 0.66625,-0.265 0.66625,-0.87 l 0,-4.53625 c 0,-0.60375 -0.085,-0.795 -0.66625,-0.88 l 0,-0.59875 2.7725,0 0,0.59875 c -0.58125,0.085 -0.66625,0.27625 -0.66625,0.88 l 0,2.045 1.6525,-1.9075 c 0.16875,-0.19 0.2525,-0.35 0.2525,-0.54125 0,-0.26375 -0.17625,-0.445 -0.53125,-0.47625 l 0,-0.59875 2.52125,0 0,0.59875 c -0.6325,0.10625 -1.02875,0.47625 -1.4675,1.0175 l -1.1625,1.42 c -0.0425,0.0537 -0.0675,0.10625 -0.0675,0.13875 0,0.0412 0.0425,0.095 0.11,0.17875 l 2.25875,2.8525 c 0.35375,0.445 0.5725,0.68875 0.8,0.68875 0.035,0 0.06,0 0.0937,-0.01 l 0,0.60875 -1.72875,0 -2.73125,-3.45 0,1.97125 c 0,0.605 0.0925,0.795 0.66625,0.87 l 0,0.60875 -2.7725,0 0,-0.60875"
         style="fill:#ffffff;fill-opacity:1;fill-rule:evenodd;stroke:none"
         id="path3376"
         inkscape:connector-curvature="0" />
      <path
         d="m 330.10224,442.35115 0.45875,0 c 0.1775,1.04 0.74375,1.63375 1.52875,1.63375 0.5825,0 0.9975,-0.45625 0.9975,-1.05 0,-0.76375 -0.66,-1.06125 -1.61,-1.75 -0.91,-0.66875 -1.375,-1.19875 -1.375,-2.2275 0,-1.2725 0.77625,-2.11 2.1425,-2.11 0.6325,0 1.1975,0.2225 1.7575,0.68875 l 0,1.485 -0.4325,0 c -0.1775,-0.965 -0.7425,-1.5375 -1.40875,-1.5375 -0.54875,0 -0.91125,0.3925 -0.91125,0.92375 0,0.625 0.43,0.9 1.18625,1.3875 0.37125,0.245 0.7775,0.47875 1.14875,0.86 0.4475,0.45625 0.68375,1.03875 0.68375,1.63375 0,1.39875 -0.785,2.37125 -2.1275,2.37125 -0.5575,0 -1.2325,-0.1475 -2.03875,-0.4425 l 0,-1.86625"
         style="fill:#ffffff;fill-opacity:1;fill-rule:evenodd;stroke:none"
         id="path3378"
         inkscape:connector-curvature="0" />
      <path
         d="m 335.48974,438.4249 c -0.16,-0.47625 -0.295,-0.73 -0.615,-0.7625 l -0.004,-0.61 2.57875,0 0,0.5325 c -0.295,0 -0.455,0.15875 -0.455,0.43375 0,0.085 0.0337,0.25375 0.10125,0.46625 l 1.1625,3.49125 c 0.7,-2.1475 1.105,-3.365 1.105,-3.71375 0,-0.36 -0.22625,-0.60375 -0.665,-0.6875 l 0,-0.5225 1.97125,0 0,0.5325 c -0.51375,0.0525 -0.68125,0.835 -1.095,2.1475 -0.835,2.635 -1.41625,4.25375 -1.5525,4.965 l -0.45375,0 -2.07875,-6.2725"
         style="fill:#ffffff;fill-opacity:1;fill-rule:evenodd;stroke:none"
         id="path3380"
         inkscape:connector-curvature="0" />
      <path
         d="m 342.78599,434.86615 c 0.21,-0.275 0.37875,-0.41375 0.55625,-0.41375 0.21875,0 0.37125,0.19125 0.37125,0.46625 0,0.265 -0.135,0.38125 -0.38875,0.55 l -1.29,0.8575 -0.37125,0 1.1225,-1.46 z m -1.70375,9.0675 c 0.5725,-0.0738 0.66625,-0.265 0.66625,-0.86875 l 0,-4.53375 c 0,-0.60375 -0.0937,-0.79375 -0.66625,-0.86875 l 0,-0.61125 2.7725,0 0,0.61125 c -0.57375,0.075 -0.6675,0.265 -0.6675,0.86875 l 0,4.53375 c 0,0.60375 0.0937,0.795 0.6675,0.86875 l 0,0.61125 -2.7725,0 0,-0.61125"
         style="fill:#ffffff;fill-opacity:1;fill-rule:evenodd;stroke:none"
         id="path3382"
         inkscape:connector-curvature="0" />
      <path
         d="m 344.37849,443.93615 c 0.57375,-0.075 0.66625,-0.265 0.66625,-0.87 l 0,-4.53625 c 0,-0.60375 -0.085,-0.795 -0.66625,-0.88 l 0,-0.59875 2.7725,0 0,0.59875 c -0.58125,0.085 -0.66625,0.27625 -0.66625,0.88 l 0,2.045 1.6525,-1.9075 c 0.16875,-0.19 0.2525,-0.35 0.2525,-0.54125 0,-0.26375 -0.17625,-0.445 -0.53,-0.47625 l 0,-0.59875 2.52,0 0,0.59875 c -0.6325,0.10625 -1.02875,0.47625 -1.4675,1.0175 l -1.1625,1.42 c -0.0425,0.0537 -0.0675,0.10625 -0.0675,0.13875 0,0.0412 0.0413,0.095 0.10875,0.17875 l 2.25875,2.8525 c 0.355,0.445 0.575,0.68875 0.8025,0.68875 0.0337,0 0.0588,0 0.0925,-0.01 l 0,0.60875 -1.72875,0 -2.73125,-3.45 0,1.97125 c 0,0.605 0.0925,0.795 0.66625,0.87 l 0,0.60875 -2.7725,0 0,-0.60875"
         style="fill:#ffffff;fill-opacity:1;fill-rule:evenodd;stroke:none"
         id="path3384"
         inkscape:connector-curvature="0" />
      <path
         d="m 352.05974,441.25865 0.72625,-2.69375 0.7075,2.69375 -1.43375,0 z m -1.65125,3.28625 1.71875,0 0,-0.61125 -0.025,0 c -0.32875,0 -0.505,-0.20125 -0.505,-0.5625 0,-0.1275 0.025,-0.265 0.0587,-0.42375 l 0.21875,-1.02875 1.8375,0 0.245,1.12375 c 0.0412,0.18125 0.0675,0.31875 0.0675,0.425 0,0.29625 -0.16875,0.445 -0.53125,0.46625 l 0,0.61125 2.6125,0 0,-0.61125 c -0.26125,-0.0425 -0.4475,-0.31875 -0.59,-0.8275 l -1.68625,-6.05375 -1.50875,0 c 0.1275,0.16 0.185,0.29875 0.185,0.44625 0,0.0625 -0.015,0.1375 -0.0325,0.21125 l -1.44125,5.28 c -0.14375,0.53 -0.26875,0.8375 -0.62375,0.94375 l 0,0.61125"
         style="fill:#ffffff;fill-opacity:1;fill-rule:evenodd;stroke:none"
         id="path3386"
         inkscape:connector-curvature="0" />
      <path
         d="m 358.66099,440.5049 0,-2.53125 c 0,-0.15875 0.0675,-0.2225 0.22,-0.2225 0.76625,0 1.12,0.4225 1.12,1.34 0,0.95 -0.37125,1.435 -1.0775,1.435 -0.085,0 -0.16875,-0.0112 -0.2625,-0.0212 z m 0,2.505 0,-1.81625 0.2625,0 1.52375,3.225 c 0.0425,0.095 0.12625,0.12625 0.2525,0.12625 l 1.53375,0 0,-0.61125 c -0.345,-0.1275 -0.58125,-0.43625 -0.83375,-0.92375 l -1.13,-2.1875 c 0.78375,-0.2325 1.2225,-0.89875 1.2225,-1.775 0,-0.62375 -0.21875,-1.13125 -0.64875,-1.51125 -0.48875,-0.4325 -1.0625,-0.485 -1.795,-0.485 l -2.47875,0 0,0.61125 c 0.57375,0.075 0.66625,0.26375 0.66625,0.86625 l 0,4.48125 c 0,0.63625 -0.0588,0.85 -0.66625,0.92375 l 0,0.61125 2.75625,0 0,-0.61125 c -0.605,-0.0738 -0.665,-0.2875 -0.665,-0.92375"
         style="fill:#ffffff;fill-opacity:1;fill-rule:evenodd;stroke:none"
         id="path3388"
         inkscape:connector-curvature="0" />
      <path
         d="m 366.47474,434.86615 c 0.21125,-0.27625 0.38,-0.41375 0.5575,-0.41375 0.21875,0 0.37,0.19125 0.37,0.46625 0,0.265 -0.135,0.38125 -0.3875,0.55 l -1.29,0.8575 -0.3725,0 1.1225,-1.46 z m -1.70375,9.0675 c 0.57375,-0.0738 0.66625,-0.265 0.66625,-0.86875 l 0,-4.53375 c 0,-0.60375 -0.0925,-0.79375 -0.66625,-0.86875 l 0,-0.61125 2.77375,0 0,0.61125 c -0.575,0.075 -0.6675,0.265 -0.6675,0.86875 l 0,4.53375 c 0,0.60375 0.0925,0.795 0.6675,0.86875 l 0,0.61125 -2.77375,0 0,-0.61125"
         style="fill:#ffffff;fill-opacity:1;fill-rule:evenodd;stroke:none"
         id="path3390"
         inkscape:connector-curvature="0" />
      <path
         d="m 371.82724,442.97865 c 0,0.29625 0.009,0.51875 0.0762,0.64625 0.11875,0.2425 0.3875,0.36 0.7925,0.36 l 0.05,0 0,0.56 -3.30375,0 0,-0.56 0.0512,0 c 0.40375,0 0.675,-0.1175 0.7925,-0.36 0.0662,-0.1275 0.0762,-0.35 0.0762,-0.64625 l 0,-5.2525 -0.5825,0 c -0.69125,0 -1.01125,0.38125 -1.25625,1.355 l -0.46375,0 0.1775,-2.03 5.77375,0 0.135,2.03 -0.45625,0 c -0.185,-0.985 -0.53875,-1.355 -1.31375,-1.355 l -0.54875,0 0,5.2525"
         style="fill:#ffffff;fill-opacity:1;fill-rule:evenodd;stroke:none"
         id="path3392"
         inkscape:connector-curvature="0" />
      <path
         d="m 376.70349,440.5049 0,-2.5325 c 0,-0.1575 0.0663,-0.22125 0.21875,-0.22125 0.76625,0 1.12125,0.4225 1.12125,1.34 0,0.95 -0.3725,1.435 -1.08,1.435 -0.0837,0 -0.1675,-0.0112 -0.26,-0.0212 z m 0,2.505 0,-1.81625 0.26,0 1.525,3.225 c 0.0425,0.095 0.1275,0.12625 0.25375,0.12625 l 1.53375,0 0,-0.61125 c -0.34625,-0.1275 -0.5825,-0.43625 -0.835,-0.92375 l -1.12875,-2.1875 c 0.78375,-0.2325 1.22125,-0.89875 1.22125,-1.775 0,-0.62375 -0.21875,-1.13125 -0.64875,-1.51125 -0.4875,-0.4325 -1.06125,-0.485 -1.79375,-0.485 l -2.48,0 0,0.61125 c 0.57375,0.075 0.66625,0.26375 0.66625,0.86625 l 0,4.48125 c 0,0.63625 -0.0588,0.85 -0.66625,0.92375 l 0,0.61125 2.7575,0 0,-0.61125 c -0.6075,-0.0738 -0.665,-0.2875 -0.665,-0.92375"
         style="fill:#ffffff;fill-opacity:1;fill-rule:evenodd;stroke:none"
         id="path3394"
         inkscape:connector-curvature="0" />
      <path
         d="m 382.25474,440.59615 c 0,-2.01625 0.49625,-3.035 1.42,-3.035 0.90875,0 1.43875,1.17875 1.43875,3.42875 0,2.0375 -0.46375,3.04625 -1.4125,3.04625 -0.9075,0 -1.44625,-1.19 -1.44625,-3.44 z m 0.6225,-4.27 0.37,0 1.29125,-0.8575 c 0.2525,-0.16875 0.3875,-0.285 0.3875,-0.55 0,-0.275 -0.15125,-0.46625 -0.37,-0.46625 -0.1775,0 -0.34625,0.1375 -0.5575,0.41375 l -1.12125,1.46 z m 0.7475,8.3725 c 0.96625,0 1.76625,-0.46375 2.37375,-1.385 0.43875,-0.65875 0.6925,-1.5925 0.6925,-2.61125 0,-1.125 -0.30375,-2.07 -0.88625,-2.78125 -0.5575,-0.67625 -1.265,-1.02375 -2.06125,-1.02375 -0.90875,0 -1.70875,0.43125 -2.29,1.2575 -0.50625,0.7225 -0.77625,1.64625 -0.77625,2.69625 0,1.07125 0.26125,1.975 0.75875,2.65375 0.59125,0.79375 1.315,1.19375 2.18875,1.19375"
         style="fill:#ffffff;fill-opacity:1;fill-rule:evenodd;stroke:none"
         id="path3396"
         inkscape:connector-curvature="0" />
      <path
         d="m 390.98724,442.97865 c 0,0.29625 0.007,0.51875 0.075,0.64625 0.11875,0.2425 0.38875,0.36 0.7925,0.36 l 0.0512,0 0,0.56 -3.30375,0 0,-0.56 0.05,0 c 0.405,0 0.675,-0.1175 0.79375,-0.36 0.0663,-0.1275 0.075,-0.35 0.075,-0.64625 l 0,-5.2525 -0.58125,0 c -0.69125,0 -1.01125,0.38125 -1.25625,1.355 l -0.46375,0 0.17625,-2.03 5.775,0 0.13375,2.03 -0.455,0 c -0.185,-0.985 -0.54,-1.355 -1.315,-1.355 l -0.5475,0 0,5.2525"
         style="fill:#ffffff;fill-opacity:1;fill-rule:evenodd;stroke:none"
         id="path3398"
         inkscape:connector-curvature="0" />
      <path
         d="m 397.52099,442.97865 c 0,0.29625 0.009,0.51875 0.075,0.64625 0.11875,0.2425 0.38875,0.36 0.79375,0.36 l 0.05,0 0,0.56 -3.30375,0 0,-0.56 0.0512,0 c 0.40375,0 0.67375,-0.1175 0.7925,-0.36 0.0675,-0.1275 0.0763,-0.35 0.0763,-0.64625 l 0,-5.2525 -0.5825,0 c -0.69125,0 -1.01125,0.38125 -1.25625,1.355 l -0.46375,0 0.1775,-2.03 5.77375,0 0.13375,2.03 -0.455,0 c -0.185,-0.985 -0.54,-1.355 -1.315,-1.355 l -0.5475,0 0,5.2525"
         style="fill:#ffffff;fill-opacity:1;fill-rule:evenodd;stroke:none"
         id="path3400"
         inkscape:connector-curvature="0" />
      <path
         d="m 401.40974,441.2574 0.72375,-2.6925 0.70875,2.6925 -1.4325,0 z m -1.6525,3.2875 1.72,0 0,-0.61125 -0.025,0 c -0.32875,0 -0.50625,-0.20125 -0.50625,-0.5625 0,-0.1275 0.025,-0.265 0.06,-0.42375 l 0.21875,-1.02875 1.83625,0 0.245,1.12375 c 0.0425,0.18125 0.0675,0.31875 0.0675,0.425 0,0.29625 -0.16875,0.445 -0.53125,0.46625 l 0,0.61125 2.61375,0 0,-0.61125 c -0.2625,-0.0425 -0.4475,-0.31875 -0.59125,-0.8275 l -1.685,-6.05375 -1.50875,0 c 0.12625,0.16 0.185,0.29875 0.185,0.44625 0,0.0625 -0.0175,0.1375 -0.0325,0.21125 l -1.4425,5.28 c -0.1425,0.53 -0.27,0.8375 -0.62375,0.94375 l 0,0.61125"
         style="fill:#ffffff;fill-opacity:1;fill-rule:evenodd;stroke:none"
         id="path3402"
         inkscape:connector-curvature="0" />
      <path
         d="m 408.00849,440.5049 0,-2.5325 c 0,-0.1575 0.0688,-0.22125 0.22,-0.22125 0.76625,0 1.12125,0.4225 1.12125,1.34 0,0.95 -0.37125,1.435 -1.07875,1.435 -0.085,0 -0.16875,-0.0112 -0.2625,-0.0212 z m 0,2.505 0,-1.81625 0.2625,0 1.525,3.225 c 0.0412,0.095 0.12625,0.12625 0.2525,0.12625 l 1.53375,0 0,-0.61125 c -0.34625,-0.1275 -0.58125,-0.43625 -0.835,-0.92375 l -1.12875,-2.1875 c 0.78375,-0.2325 1.22125,-0.89875 1.22125,-1.775 0,-0.62375 -0.21875,-1.13125 -0.6475,-1.51125 -0.48875,-0.4325 -1.0625,-0.485 -1.795,-0.485 l -2.47875,0 0,0.61125 c 0.5725,0.0738 0.66625,0.26375 0.66625,0.86625 l 0,4.48125 c 0,0.63625 -0.0588,0.85 -0.66625,0.92375 l 0,0.61125 2.75625,0 0,-0.61125 c -0.60625,-0.0738 -0.66625,-0.2875 -0.66625,-0.92375"
         style="fill:#ffffff;fill-opacity:1;fill-rule:evenodd;stroke:none"
         id="path3404"
         inkscape:connector-curvature="0" />
      <path
         d="m 411.98724,443.93365 c 0.5725,-0.0738 0.66625,-0.265 0.66625,-0.86875 l 0,-4.53375 c 0,-0.60375 -0.0937,-0.79375 -0.66625,-0.86875 l 0,-0.61 5.10125,0 0,1.65875 -0.4075,0 c -0.3175,-0.77875 -0.8825,-1.0625 -1.835,-1.0625 -0.685,0 -0.7275,0.0838 -0.7275,0.515 l 0,2.06125 0.63375,0 c 0.54875,0 0.82,-0.2625 0.89625,-0.87375 l 0.485,0 0,2.48875 -0.485,0 c -0.0512,-0.6275 -0.36375,-0.97875 -0.89625,-0.97875 l -0.63375,0 0,2.0625 c 0,0.7975 0.0675,0.99875 0.80375,1.03 l 0,0.59125 -2.935,0 0,-0.61125"
         style="fill:#ffffff;fill-opacity:1;fill-rule:evenodd;stroke:none"
         id="path3406"
         inkscape:connector-curvature="0" />
      <path
         d="m 417.45099,443.93365 c 0.57125,-0.0738 0.665,-0.265 0.665,-0.86875 l 0,-4.53375 c 0,-0.60375 -0.0937,-0.79375 -0.665,-0.86875 l 0,-0.61 4.69125,0 0,1.54125 -0.45625,0 c -0.24,-0.67375 -0.65875,-0.9575 -1.34375,-0.9575 -0.7175,0 -0.76,0.0838 -0.76,0.52625 l 0,2.0625 0.63375,0 c 0.54875,0 0.82,-0.2625 0.895,-0.87375 l 0.48375,0 0,2.485 -0.48375,0 c -0.05,-0.625 -0.3625,-0.975 -0.895,-0.975 l -0.63375,0 0,2.0575 c 0,0.7 0.21875,0.90125 0.76875,0.90125 0.76,0 1.385,-0.445 1.79125,-1.285 l 0.4725,0 -0.35375,2.01 -4.81,0 0,-0.61125"
         style="fill:#ffffff;fill-opacity:1;fill-rule:evenodd;stroke:none"
         id="path3408"
         inkscape:connector-curvature="0" />
      <path
         d="m 425.83599,437.6499 c -0.58125,0.085 -0.6575,0.275 -0.6575,0.8775 l 0,4.13875 c 0,1.00625 0.11,1.28125 0.9775,1.28125 0.97,0 1.4675,-0.36 2.04875,-1.56125 l 0.465,0 -0.36375,2.15875 -5.25875,0 0,-0.61125 c 0.5725,-0.0738 0.665,-0.265 0.665,-0.86875 l 0,-4.535 c 0,-0.60375 -0.0838,-0.795 -0.665,-0.88 l 0,-0.59875 2.78875,0 0,0.59875"
         style="fill:#ffffff;fill-opacity:1;fill-rule:evenodd;stroke:none"
         id="path3410"
         inkscape:connector-curvature="0" />
      <path
         d="m 430.69224,441.2574 0.725,-2.6925 0.7075,2.6925 -1.4325,0 z m -1.6525,3.2875 1.72,0 0,-0.61125 -0.025,0 c -0.32875,0 -0.505,-0.20125 -0.505,-0.5625 0,-0.1275 0.025,-0.265 0.0575,-0.42375 l 0.22,-1.02875 1.83625,0 0.245,1.12375 c 0.0425,0.18125 0.0675,0.31875 0.0675,0.425 0,0.29625 -0.16875,0.445 -0.53125,0.46625 l 0,0.61125 2.61375,0 0,-0.61125 c -0.2625,-0.0425 -0.4475,-0.31875 -0.59125,-0.8275 l -1.685,-6.05375 -1.50875,0 c 0.1275,0.16 0.18625,0.29875 0.18625,0.44625 0,0.0625 -0.0175,0.1375 -0.035,0.21125 l -1.44,5.28 c -0.14375,0.53 -0.27,0.8375 -0.625,0.94375 l 0,0.61125"
         style="fill:#ffffff;fill-opacity:1;fill-rule:evenodd;stroke:none"
         id="path3412"
         inkscape:connector-curvature="0" />
      <path
         d="m 438.16724,444.68615 c -1.8825,0 -3.135,-1.555 -3.135,-3.845 0,-1.1475 0.32875,-2.12375 0.95875,-2.8675 0.605,-0.70875 1.41625,-1.08875 2.3125,-1.08875 0.7925,0 1.57,0.2425 2.3875,0.72875 l 0,1.61375 -0.4225,0 c -0.44625,-1.13625 -1.0875,-1.73125 -1.81375,-1.73125 -1.08125,0 -1.8675,1.1475 -1.8675,3.02625 0,2.0675 0.8275,3.3725 1.91,3.3725 0.2275,0 0.4975,-0.0738 0.79375,-0.23375 l 0,-1.4425 c 0,-0.6475 -0.0675,-0.8175 -0.6675,-0.86 l 0,-0.56125 2.85125,0 0,0.56125 c -0.60625,0.0525 -0.78375,0.255 -0.78375,0.85 l 0,1.8975 c -1.04625,0.32625 -1.865,0.58 -2.52375,0.58"
         style="fill:#ffffff;fill-opacity:1;fill-rule:evenodd;stroke:none"
         id="path3414"
         inkscape:connector-curvature="0" />
      <path
         d="m 341.22849,453.5099 0.31625,0 c 0.12125,0.68 0.5075,1.06875 1.0425,1.06875 0.3975,0 0.68,-0.29875 0.68,-0.6875 0,-0.49875 -0.45,-0.6925 -1.10625,-1.1525 -0.61875,-0.4375 -0.93375,-0.785 -0.93375,-1.45625 0,-0.8325 0.52625,-1.3825 1.46125,-1.3825 0.435,0 0.8225,0.14625 1.2025,0.4525 l 0,0.97125 -0.2925,0 c -0.12125,-0.63125 -0.51,-1.005 -0.9675,-1.005 -0.3775,0 -0.62625,0.25625 -0.62625,0.6025 0,0.41 0.29625,0.59 0.81875,0.9175 0.2525,0.16 0.52875,0.3125 0.78125,0.5625 0.30375,0.2975 0.465,0.67875 0.465,1.0675 0,0.915 -0.53375,1.5525 -1.4475,1.5525 -0.38,0 -0.84125,-0.0962 -1.39375,-0.29 l 0,-1.22125"
         style="fill:#ffffff;fill-opacity:1;fill-rule:evenodd;stroke:none"
         id="path3416"
         inkscape:connector-curvature="0" />
      <path
         d="m 347.15349,453.9199 c 0,0.19375 0.006,0.34 0.0513,0.4225 0.0813,0.15875 0.26625,0.23625 0.5425,0.23625 l 0.0337,0 0,0.36625 -2.25875,0 0,-0.36625 0.0337,0 c 0.27625,0 0.46,-0.0775 0.54125,-0.23625 0.0462,-0.0825 0.0525,-0.22875 0.0525,-0.4225 l 0,-3.43625 -0.3975,0 c -0.47125,0 -0.69,0.25 -0.8575,0.8875 l -0.31625,0 0.12,-1.33125 3.945,0 0.0925,1.33125 -0.31,0 c -0.1275,-0.645 -0.36875,-0.8875 -0.89875,-0.8875 l -0.37375,0 0,3.43625"
         style="fill:#ffffff;fill-opacity:1;fill-rule:evenodd;stroke:none"
         id="path3418"
         inkscape:connector-curvature="0" />
      <path
         d="m 350.12599,452.3599 c 0,-1.32125 0.34125,-1.99 0.97625,-1.99 0.6225,0 0.98625,0.7725 0.98625,2.2475 0,1.33625 -0.31625,1.9975 -0.96875,1.9975 -0.62375,0 -0.99375,-0.78 -0.99375,-2.255 z m 0.94125,2.68875 c 0.66375,0 1.21125,-0.3025 1.6225,-0.9075 0.29875,-0.43 0.47,-1.0425 0.47,-1.71125 0,-0.7375 -0.20625,-1.35625 -0.60125,-1.8225 -0.3775,-0.44375 -0.8625,-0.67 -1.41,-0.67 -0.62375,0 -1.17125,0.2825 -1.56625,0.8225 -0.34375,0.4725 -0.52625,1.07875 -0.52625,1.7675 0,0.7025 0.1775,1.29375 0.515,1.74 0.40125,0.52 0.89625,0.78125 1.49625,0.78125"
         style="fill:#ffffff;fill-opacity:1;fill-rule:evenodd;stroke:none"
         id="path3420"
         inkscape:connector-curvature="0" />
      <path
         d="m 353.87224,450.9449 c -0.10875,-0.3125 -0.20125,-0.47875 -0.42,-0.49875 l -0.007,-0.4075 1.7625,0 0,0.345 c -0.20125,0 -0.31125,0.10375 -0.31125,0.285 0,0.055 0.0238,0.16625 0.0688,0.305 l 0.795,2.29 c 0.4775,-1.40875 0.755,-2.2075 0.755,-2.43625 0,-0.23625 -0.15625,-0.39625 -0.455,-0.45 l 0,-0.33875 1.3475,0 0,0.345 c -0.35125,0.035 -0.4675,0.5475 -0.74875,1.40875 -0.57,1.72875 -0.96875,2.79 -1.06,3.255 l -0.31125,0 -1.415,-4.1025"
         style="fill:#ffffff;fill-opacity:1;fill-rule:evenodd;stroke:none"
         id="path3422"
         inkscape:connector-curvature="0" />
      <path
         d="m 357.69224,454.5399 c 0.465,-0.0562 0.50625,-0.29125 0.50625,-0.865 l 0,-2.8425 c -0.17375,-0.255 -0.3175,-0.38625 -0.495,-0.38625 l -0.0112,0 0,-0.40625 1.12375,0 c 0.0975,0 0.12125,0.007 0.2075,0.1325 l 2.10625,2.985 0,-2.02 c 0,-0.4225 -0.15,-0.6225 -0.51375,-0.69125 l 0,-0.40625 1.39,0 0,0.40625 c -0.385,0.0763 -0.49375,0.255 -0.49375,0.69125 l 0,3.09125 c 0,0.27625 0.0112,0.54875 0.0238,0.815 l -0.40625,-0.001 -2.56125,-3.6075 0,2.24 c 0,0.595 0.0913,0.8025 0.61125,0.865 l 0,0.405 -1.4875,0 0,-0.405"
         style="fill:#ffffff;fill-opacity:1;fill-rule:evenodd;stroke:none"
         id="path3424"
         inkscape:connector-curvature="0" />
      <path
         d="m 363.40349,452.79365 0.495,-1.76375 0.4825,1.76375 -0.9775,0 z m -1.1275,2.15125 1.1725,0 0,-0.405 -0.0163,0 c -0.225,0 -0.34625,-0.13125 -0.34625,-0.3675 0,-0.0825 0.0175,-0.1725 0.0412,-0.27625 l 0.14875,-0.67125 1.255,0 0.16625,0.73375 c 0.0288,0.1175 0.0462,0.2075 0.0462,0.27625 0,0.19375 -0.115,0.29125 -0.3625,0.305 l 0,0.405 1.7825,0 0,-0.405 c -0.1775,-0.0275 -0.305,-0.20875 -0.4025,-0.54 l -1.15,-3.96 -1.03,0 c 0.0863,0.10375 0.12625,0.195 0.12625,0.29125 0,0.0413 -0.0113,0.09 -0.0225,0.1375 l -0.98375,3.455 c -0.0975,0.34625 -0.18375,0.54625 -0.425,0.61625 l 0,0.405"
         style="fill:#ffffff;fill-opacity:1;fill-rule:evenodd;stroke:none"
         id="path3426"
         inkscape:connector-curvature="0" />
      <path
         d="m 367.94849,453.71865 0,-1.09375 0.96125,0 0,-0.43125 -0.96125,0 0,-1.41625 c 0,-0.2425 0.075,-0.33125 0.2775,-0.33125 0.98625,0 1.57125,0.78 1.57125,2.165 0,1.20375 -0.48125,1.9025 -1.26375,1.9025 -0.51,0 -0.585,-0.20625 -0.585,-0.795 z m -1.43625,1.22625 1.93375,0 c 0.71375,0 1.24125,-0.13875 1.6675,-0.54875 0.49,-0.47125 0.765,-1.1625 0.765,-1.925 0,-1.47875 -0.9325,-2.43125 -2.50125,-2.43125 l -1.865,0 0,0.40625 c 0.39125,0.0475 0.45375,0.1725 0.45375,0.56625 l 0,1.18125 -0.6675,0 0,0.43125 0.6675,0 0,1.35 c 0.005,0.3925 -0.0587,0.51625 -0.44875,0.565 l -0.005,0.405"
         style="fill:#ffffff;fill-opacity:1;fill-rule:evenodd;stroke:none"
         id="path3428"
         inkscape:connector-curvature="0" />
      <path
         d="m 372.74849,454.63865 c 1.425,-1.3725 2.085,-2.52125 2.085,-3.175 0,-0.49375 -0.3375,-0.8425 -0.8075,-0.8425 -0.29375,0 -0.6025,0.145 -0.96125,0.40625 l -0.235,-0.26125 c 0.60875,-0.58125 1.145,-0.885 1.6725,-0.885 0.77,0 1.27375,0.48625 1.27375,1.2475 0,0.88 -0.78125,1.665 -2.01375,2.95875 l 1.145,0 c 0.365,0 0.57,-0.08 0.745,-0.42875 l 0.30125,0.0725 -0.425,1.2475 -2.78,0 0,-0.34"
         style="fill:#ffffff;fill-opacity:1;fill-rule:evenodd;stroke:none"
         id="path3430"
         inkscape:connector-curvature="0" />
      <path
         d="m 377.02599,452.97865 1.35125,-1.95375 0,1.95375 -1.35125,0 z m 1.35125,2.065 0.95625,0 0,-1.30125 0.58,0 0,-0.76375 -0.58,0 0,-3.00875 -0.6575,0 -2.09125,2.90625 0,0.86625 1.7925,0 0,1.30125"
         style="fill:#ffffff;fill-opacity:1;fill-rule:evenodd;stroke:none"
         id="path3432"
         inkscape:connector-curvature="0" />
      <path
         d="m 381.13724,453.88365 c 0.3225,0 0.58625,0.25375 0.58625,0.58 0,0.325 -0.26375,0.58 -0.58625,0.58 -0.33,0 -0.58625,-0.255 -0.58625,-0.58 0,-0.32625 0.25625,-0.58 0.58625,-0.58"
         style="fill:#ffffff;fill-opacity:1;fill-rule:evenodd;stroke:none"
         id="path3434"
         inkscape:connector-curvature="0" />
      <path
         d="m 383.74099,452.7599 c 0.68125,0.48625 1.0625,0.74125 1.0625,1.14125 0,0.3775 -0.315,0.6825 -0.74625,0.6825 -0.49125,0 -0.835,-0.34875 -0.835,-0.87875 0,-0.34875 0.16875,-0.64 0.51875,-0.945 z m -0.35,-0.27625 c -0.63,0.47875 -0.95875,0.82125 -0.95875,1.29375 0,0.68375 0.6575,1.26625 1.57375,1.26625 0.96625,0 1.63625,-0.62 1.63625,-1.41125 0,-0.5525 -0.31625,-0.99625 -0.94125,-1.48375 0.55875,-0.34 0.83875,-0.7475 0.83875,-1.16125 0,-0.61 -0.59,-1.105 -1.44,-1.105 -0.9275,0 -1.56625,0.58875 -1.56625,1.26375 0.008,0.4575 0.29375,0.88625 0.8575,1.3375 z m 0.9525,-0.5875 c -0.59625,-0.4 -0.8925,-0.75 -0.8925,-1.09 0,-0.31375 0.2875,-0.53125 0.71625,-0.53125 0.4425,0 0.78875,0.3125 0.78875,0.6975 0,0.3125 -0.19875,0.6325 -0.6125,0.92375"
         style="fill:#ffffff;fill-opacity:1;fill-rule:evenodd;stroke:none"
         id="path3436"
         inkscape:connector-curvature="0" />
      <path
         d="m 386.93724,453.88365 c 0.3225,0 0.58625,0.25375 0.58625,0.58 0,0.325 -0.26375,0.58 -0.58625,0.58 -0.32875,0 -0.585,-0.255 -0.585,-0.58 0,-0.32625 0.25625,-0.58 0.585,-0.58"
         style="fill:#ffffff;fill-opacity:1;fill-rule:evenodd;stroke:none"
         id="path3438"
         inkscape:connector-curvature="0" />
      <path
         d="m 391.14599,454.5724 0.0888,0 0,0.40625 -2.6175,0 0,-0.40625 0.0738,0 c 0.62375,0 0.6975,-0.095 0.6975,-0.61125 l 0,-3.07625 c 0,-0.225 -0.1175,-0.26875 -0.39625,-0.26875 -0.11,0 -0.2275,0 -0.3675,0.006 l 0,-0.33375 c 0.40375,-0.0438 1.005,-0.19 1.80875,-0.395 l 0,4.0675 c 0,0.52375 0.0813,0.61125 0.7125,0.61125"
         style="fill:#ffffff;fill-opacity:1;fill-rule:evenodd;stroke:none"
         id="path3440"
         inkscape:connector-curvature="0" />
      <path
         d="m 393.67974,452.57115 c -0.36625,0 -0.56375,-0.36875 -0.56375,-1.09125 0,-0.71625 0.19125,-1.0775 0.56375,-1.0775 0.365,0 0.585,0.36125 0.585,1.03375 0,0.7375 -0.22,1.135 -0.585,1.135 z m -1.25375,2.4975 c 0.77875,-0.07 1.4,-0.36625 1.93375,-0.91375 0.615,-0.62 0.9375,-1.40125 0.9375,-2.205 0,-1.22125 -0.6525,-2.03 -1.5875,-2.03 -0.96,0 -1.65,0.75 -1.65,1.71125 0,0.89 0.52125,1.47375 1.28375,1.47375 0.175,0 0.39375,-0.0512 0.6725,-0.16 -0.1975,0.83125 -0.775,1.4225 -1.765,1.88875 l 0.175,0.235"
         style="fill:#ffffff;fill-opacity:1;fill-rule:evenodd;stroke:none"
         id="path3442"
         inkscape:connector-curvature="0" />
      <path
         d="m 397.46849,450.3774 c 0.4975,0 0.6,0.6825 0.6,2.08375 0,1.415 -0.10875,2.11125 -0.57125,2.11125 -0.49125,0 -0.6,-0.67375 -0.6,-2.0825 0,-1.415 0.11625,-2.1125 0.57125,-2.1125 z m 0.0213,4.69 c 0.9525,0 1.5725,-0.9225 1.5725,-2.61375 0,-1.64 -0.65,-2.56 -1.58,-2.56 -0.9225,0 -1.58,0.90625 -1.58,2.5025 0,1.75625 0.5925,2.67125 1.5875,2.67125"
         style="fill:#ffffff;fill-opacity:1;fill-rule:evenodd;stroke:none"
         id="path3444"
         inkscape:connector-curvature="0" />
      <path
         d="m 400.08849,452.97865 1.35125,-1.95375 0,1.95375 -1.35125,0 z m 1.35125,2.065 0.955,0 0,-1.30125 0.58,0 0,-0.76375 -0.58,0 0,-3.00875 -0.65625,0 -2.09125,2.90625 0,0.86625 1.7925,0 0,1.30125"
         style="fill:#ffffff;fill-opacity:1;fill-rule:evenodd;stroke:none"
         id="path3446"
         inkscape:connector-curvature="0" />
    </g>
  </g>
</svg>
