<?xml version="1.0" encoding="UTF-8" standalone="no"?>
<svg
   xmlns:dc="http://purl.org/dc/elements/1.1/"
   xmlns:cc="http://creativecommons.org/ns#"
   xmlns:rdf="http://www.w3.org/1999/02/22-rdf-syntax-ns#"
   xmlns:svg="http://www.w3.org/2000/svg"
   xmlns="http://www.w3.org/2000/svg"
   version="1.1"
   id="svg2"
   xml:space="preserve"
   width="175.5448"
   height="252"
   viewBox="0 0 175.5448 251.99999"><metadata
     id="metadata8"><rdf:RDF><cc:Work
         rdf:about=""><dc:format>image/svg+xml</dc:format><dc:type
           rdf:resource="http://purl.org/dc/dcmitype/StillImage" /><dc:title></dc:title></cc:Work></rdf:RDF></metadata><defs
     id="defs6" /><g
     id="g10"
     transform="matrix(0.38029934,0,0,-0.38029934,-24.900643,281.28282)"><path
       d="m 68.69922,686.61523 -0.59326,-0.2456 V 273.12402 c -0.01221,-25.38574 4.99316,-47.74414 14.87597,-66.45312 17.08399,-32.3418 36.57373,-43.25391 66.64161,-57.38281 l 146.65917,-69.65918 146.646,69.66113 -0.003,-0.002 c 30.06738,14.1289 49.55762,25.04101 66.6416,57.38281 9.88282,18.70898 14.8877,41.06738 14.87598,66.4541 v 413.24463 l -0.59375,0.2456 c -45.46875,18.81934 -135.49609,50.39063 -227.5752,50.39063 -92.0791,0 -182.10644,-31.57129 -227.57519,-50.39063 z"
       style="fill:#231f20;fill-opacity:1;fill-rule:nonzero;stroke:none"
       id="path12" /><path
       d="m 296.27539,735.08594 c 91.3584,0 180.72852,-31.20996 226.24805,-50.00147 0,-1.28418 0,-412.02002 0,-412.04931 0,-25.03418 -4.93067,-47.05957 -14.6543,-65.46778 -16.80371,-31.81152 -36.05469,-42.583 -65.75976,-56.54199 0,0 -145.00782,-68.88086 -145.82667,-69.27148 -0.81933,0.39062 -145.83935,69.2705 -145.83935,69.2705 -29.70947,13.95997 -48.95947,24.73145 -65.76367,56.54297 -9.72364,18.40821 -14.65332,40.4336 -14.65332,65.4668 0,0.0303 0,410.76611 0,412.05029 45.51855,18.79151 134.88916,50.00147 226.24902,50.00147 z"
       style="fill:#ffffff;fill-opacity:1;fill-rule:nonzero;stroke:none"
       id="path14" /><path
       d="m 380.69043,613.41455 c 0,-46.625 -37.79492,-84.41553 -84.41602,-84.41553 -46.62109,0 -84.41552,37.79053 -84.41552,84.41553 0,46.62451 37.79443,84.41602 84.41552,84.41602 46.6211,0 84.41602,-37.79151 84.41602,-84.41602 m -84.41602,68.03516 c -37.57373,0 -68.03466,-30.4585 -68.03466,-68.03516 0,-37.57715 30.46093,-68.03467 68.03466,-68.03467 37.57422,0 68.03418,30.45752 68.03418,68.03467 0,37.57666 -30.45996,68.03516 -68.03418,68.03516 z"
       style="fill:#231f20;fill-opacity:1;fill-rule:nonzero;stroke:none"
       id="path16" /><path
       d="m 223.23486,491.66211 -30.0791,-78.20117 h 23.39063 l 5.23584,13.18603 h 25.60058 l 4.92578,-13.18603 h 23.50684 l -29.45947,78.20117 h -23.1211 m 18.01807,-47.60986 h -13.2124 l 6.64648,19.6958 z"
       style="fill:#231f20;fill-opacity:1;fill-rule:nonzero;stroke:none"
       id="path18" /><path
       d="m 454.61328,454.45459 31.16895,37.10156 h -27.50098 l -22.33594,-29.30761 v 29.30761 H 413.91406 V 413.3457 h 22.03125 v 30.95215 l 23.95215,-30.95215 h 28.56641 z"
       style="fill:#231f20;fill-opacity:1;fill-rule:nonzero;stroke:none"
       id="path20" /><path
       d="m 364.25781,454.69238 c -3.87695,3.41358 -9.16601,5.55957 -15.0498,7.14258 l -5.53125,1.50733 c -1.85645,0.54834 -4.20508,1.24755 -5.99414,2.28466 -1.81739,1.06836 -2.92481,2.29932 -2.92774,4.03467 0.003,1.67188 1.01758,2.94434 2.67383,3.91846 1.63574,0.9541 3.83496,1.45898 5.66504,1.45361 5.06934,0.002 9.96973,-1.92773 13.80566,-4.83838 l 0.88379,-0.66943 9.67481,17.14502 -0.88965,0.46289 c -7.59863,3.9043 -17.97559,6.33398 -26.57422,6.34375 -8.55176,0 -15.99023,-2.57471 -21.30371,-7.19483 -5.31934,-4.61572 -8.47168,-11.28564 -8.4668,-19.24511 -0.0195,-7.52539 2.3711,-12.41699 6.56836,-15.66846 4.17383,-3.24658 9.92871,-4.92871 16.75684,-6.70264 2.33887,-0.60351 5.58105,-1.38086 8.15332,-2.63867 2.61621,-1.28662 4.31836,-2.89209 4.30566,-5.08594 -0.0186,-2.31884 -1.11816,-3.86572 -2.90136,-5.0039 -1.78418,-1.11719 -4.25879,-1.68018 -6.65918,-1.67676 -7.09766,-0.001 -13.32129,3.37158 -18.66114,7.64258 l -0.87402,0.69775 -10.33691,-17.67383 0.78808,-0.50195 c 8.66797,-5.53418 19.13965,-8.81348 29.86328,-8.81348 8.56934,0.005 17.5166,2.14747 24.2793,7.35743 6.96875,5.37841 9.02148,13.49609 9.0166,21.19531 0.0137,6.37305 -2.38086,11.1206 -6.26465,14.52734 z"
       style="fill:#231f20;fill-opacity:1;fill-rule:nonzero;stroke:none"
       id="path22" /><path
       d="m 163.02051,187.55957 c -17.16162,8.22461 -26.83985,14.18066 -35.271,23.82129 -15.78467,18.04883 -17.62353,40.12793 -17.52099,68.35156 v 98.68848 h 53.15966 V 187.42871 Z"
       style="fill:#231f20;fill-opacity:1;fill-rule:nonzero;stroke:none"
       id="path24" /><path
       d="m 216.85449,161.99219 c 17.83594,-8.47266 37.23975,-17.6875 52.40479,-24.8916 l 0.44531,-0.21582 V 378.4209 h -53.1582 V 162.13281 Z"
       style="fill:#231f20;fill-opacity:1;fill-rule:nonzero;stroke:none"
       id="path26" /><path
       d="m 429.52832,187.55957 c 17.16113,8.22461 26.83887,14.18066 35.27148,23.82129 15.78418,18.04883 17.62305,40.12793 17.52051,68.35156 V 378.4209 H 429.16113 V 187.42871 Z"
       style="fill:#231f20;fill-opacity:1;fill-rule:nonzero;stroke:none"
       id="path28" /><path
       d="m 375.69336,161.99219 c -17.83496,-8.47266 -37.23828,-17.6875 -52.40332,-24.8916 l -0.44531,-0.21582 V 378.4209 h 53.15722 V 162.13281 Z"
       style="fill:#231f20;fill-opacity:1;fill-rule:nonzero;stroke:none"
       id="path30" /><path
       d="m 126.49609,490.51074 h -22.1665 v -75.90039 h 52.31348 v 18.33594 h -30.14698 v 57.56445"
       style="fill:#ee2223;fill-opacity:1;fill-rule:nonzero;stroke:none"
       id="path32" /><path
       d="m 266.05078,548.06396 -3.42383,-6.50927 c -0.62451,-1.1875 -1.7539,-3.1167 -5.13769,-1.33692 -1.4209,0.74756 -2.59961,2.14258 -1.90967,3.64258 l 1.96338,-1.03271 c -0.10596,-0.38916 -0.14746,-0.8125 0.89844,-1.3628 0.96923,-0.50927 1.67822,-0.28906 2.26269,0.82178 l 0.43408,0.82617 -0.0117,0.0395 c -0.57617,-0.37353 -1.29199,-0.63916 -2.37744,-0.0684 -1.65332,0.86915 -2.35302,2.70459 -1.08984,5.10645 1.25049,2.37646 3.20508,2.83203 4.71631,2.0376 1.27783,-0.67188 1.40039,-1.69287 1.38183,-2.26074 l 0.0264,-0.0137 0.53613,1.02051 1.73096,-0.91016 m -6.16406,-3.63281 c 1.22607,-0.64551 2.08642,0.2378 2.58252,1.18018 0.58398,1.11084 0.51758,2.30029 -0.48975,2.83008 -0.67236,0.35351 -1.67871,0.25634 -2.52099,-1.34473 -0.46192,-0.87891 -0.64405,-2.10205 0.42822,-2.66553 z"
       style="fill:#ffffff;fill-opacity:1;fill-rule:nonzero;stroke:none"
       id="path34" /><path
       d="m 272.69287,539.6084 c -1.15576,-1.56299 -2.81933,-1.59961 -4.06445,-1.13721 -2.05176,0.76172 -3.26026,2.33008 -2.14795,5.32617 0.32519,0.875 1.6665,3.56836 4.854,2.38526 1.43653,-0.53272 3.16651,-1.95313 1.93262,-5.27735 l -0.12646,-0.34179 -4.99366,1.85302 c -0.14843,-0.56836 -0.49511,-1.83935 1.0503,-2.41308 0.5332,-0.19824 1.18212,-0.12744 1.52539,0.33642 l 1.97021,-0.73144 m -1.06055,2.93066 c 0.32715,1.21729 -0.29296,1.85205 -0.90918,2.08057 -0.90283,0.33496 -1.59472,-0.062 -2.05908,-0.979 z"
       style="fill:#ffffff;fill-opacity:1;fill-rule:nonzero;stroke:none"
       id="path36" /><path
       d="m 283.46729,542.56592 -1.66309,-7.16406 c -0.30371,-1.30713 -0.90869,-3.45899 -4.63232,-2.59424 -1.56348,0.36328 -3.05762,1.41406 -2.77002,3.03955 l 2.16113,-0.50147 c -0.005,-0.40332 0.063,-0.82324 1.21387,-1.09131 1.0664,-0.24755 1.69677,0.146 1.98095,1.36866 l 0.21045,0.90966 -0.0215,0.0347 c -0.46192,-0.50732 -1.08838,-0.9458 -2.28223,-0.66845 -1.81934,0.42236 -2.96094,2.02099 -2.34766,4.66455 0.60791,2.61572 2.38282,3.55175 4.0459,3.16552 1.40772,-0.32666 1.78418,-1.28369 1.91065,-1.83691 l 0.0288,-0.007 0.25976,1.12305 1.90528,-0.44238 m -5.04395,-5.07569 c 1.35107,-0.31347 1.95947,0.75879 2.2002,1.79639 0.2832,1.22266 -0.0815,2.35596 -1.19141,2.61328 -0.73877,0.17139 -1.68897,-0.17724 -2.09766,-1.93994 -0.22509,-0.96631 -0.0903,-2.19531 1.08887,-2.46973 z"
       style="fill:#ffffff;fill-opacity:1;fill-rule:nonzero;stroke:none"
       id="path38" /><path
       d="m 285.7998,542.25342 1.9419,-0.23096 -0.1582,-1.3335 0.0283,-0.003 c 0.51367,0.73193 1.0664,1.43017 2.29882,1.28417 0.12989,-0.0161 0.25879,-0.0459 0.3877,-0.0762 l -0.24512,-2.05761 c -0.17041,0.0503 -0.38769,0.0762 -0.57617,0.0986 -1.5791,0.18799 -1.98633,-0.76318 -2.08789,-1.61768 l -0.47754,-4.01416 -2.02881,0.2417 0.91699,7.7085 z"
       style="fill:#ffffff;fill-opacity:1;fill-rule:nonzero;stroke:none"
       id="path40" /><path
       d="m 292.93701,533.81934 -2.18555,0.12011 0.1167,2.12744 2.18604,-0.12011 z"
       style="fill:#ffffff;fill-opacity:1;fill-rule:nonzero;stroke:none"
       id="path42" /><path
       d="m 300.05859,540.8208 0.29004,0.0273 c 1.96094,0.18262 2.38965,1.24854 2.36133,2.02247 l 1.6709,0.15576 0.96094,-10.31543 -2.03418,-0.18994 -0.66114,7.10498 -2.45507,-0.22852 -0.13282,1.42334 z"
       style="fill:#ffffff;fill-opacity:1;fill-rule:nonzero;stroke:none"
       id="path44" /><path
       d="m 310.83789,535.94775 0.003,-0.0151 c 0.25781,-0.67676 0.7627,-0.88574 1.37695,-0.75928 0.82813,0.16992 1.51465,1.04053 1.09082,3.17334 l -0.0332,0.0225 c -0.31738,-0.77978 -1.06836,-1.11279 -1.75488,-1.25342 -1.94336,-0.39941 -3.375,0.84082 -3.72461,2.54199 -0.50977,2.48731 0.72461,3.94727 2.71191,4.35547 3.5166,0.72168 4.35059,-3.05468 4.64453,-4.48388 0.80664,-3.93067 -0.79004,-5.58399 -2.62011,-5.95996 -1.7295,-0.35547 -3.17871,0.39062 -3.68262,1.97021 l 1.98828,0.4082 m 0.7832,2.85694 c 0.70118,0.14355 1.37012,0.80273 1.12305,2.00293 -0.23828,1.15771 -0.88379,1.77002 -1.91406,1.55859 -0.51367,-0.10547 -1.39063,-0.55371 -1.09082,-2.01172 0.31445,-1.52929 1.125,-1.70556 1.88183,-1.5498 z"
       style="fill:#ffffff;fill-opacity:1;fill-rule:nonzero;stroke:none"
       id="path46" /><path
       d="m 319.23926,546.38818 c 2.30566,0.79004 3.93945,-0.42431 5.11719,-3.86181 1.17773,-3.43701 0.63671,-5.41211 -1.66895,-6.20166 -2.30664,-0.78955 -3.94531,0.43799 -5.12207,3.87549 -1.17773,3.4375 -0.63086,5.39794 1.67383,6.18798 m 2.91894,-8.51709 c 1.10352,0.37793 1.07715,1.44825 0.21094,3.97461 -0.86523,2.52637 -1.49609,3.375 -2.59863,2.99659 -1.10547,-0.37842 -1.08301,-1.43506 -0.21778,-3.96143 0.86622,-2.52637 1.5,-3.38818 2.60547,-3.00977 z"
       style="fill:#ffffff;fill-opacity:1;fill-rule:nonzero;stroke:none"
       id="path48" /><path
       d="m 332.21387,540.28271 c -2.39649,-1.17919 -3.98731,-0.0278 -4.61426,1.24268 -0.23145,0.47119 -0.83691,1.70166 0.25586,3.05225 -0.91406,0.006 -1.59668,0.40185 -2.02149,1.26562 -0.78027,1.58399 0.0186,3.16504 1.64258,3.96387 1.92481,0.94726 3.50586,0.31103 4.1377,-0.97217 0.39258,-0.79883 0.40039,-1.64062 -0.15137,-2.40039 1.1084,-0.007 1.89649,-0.35107 2.48926,-1.55566 0.58008,-1.17823 0.72265,-3.38477 -1.73828,-4.5962 m -2.25782,7.49268 c -0.34765,0.70654 -1.05078,0.91357 -1.63964,0.62354 -0.8252,-0.40625 -1.02539,-1.09034 -0.69043,-1.771 0.2705,-0.5498 0.97265,-0.95215 1.75879,-0.56543 0.7207,0.35449 0.90039,1.04541 0.57128,1.71289 m 0.0723,-3.12012 c -0.66797,-0.32812 -1.09668,-1.07617 -0.60059,-2.08447 0.43848,-0.89014 1.23926,-1.22803 2.07715,-0.81592 0.95508,0.47071 0.91602,1.47559 0.59961,2.11768 -0.32129,0.65478 -1.05469,1.28564 -2.07617,0.78271 z"
       style="fill:#ffffff;fill-opacity:1;fill-rule:nonzero;stroke:none"
       id="path50" /><path
       d="m 223.65088,611.30273 -0.0664,5.20899 1.89649,0.0244 0.0957,-7.39795 -10.47705,-0.13427 -0.0278,2.18847 8.5791,0.11035 z"
       style="fill:#ffffff;fill-opacity:1;fill-rule:nonzero;stroke:none"
       id="path52" /><path
       d="m 225.8418,620.2251 -0.17383,-2.18164 -10.44385,0.83593 0.17383,2.18213 z"
       style="fill:#ffffff;fill-opacity:1;fill-rule:nonzero;stroke:none"
       id="path54" /><path
       d="m 216.84863,630.62939 0.37598,2.00782 10.29834,-1.92725 -0.40332,-2.15137 -8.12988,-2.82861 -0.005,-0.0278 7.34375,-1.37451 -0.37598,-2.0083 -10.29785,1.92724 0.42383,2.26612 7.93603,2.74609 0.006,0.0283 -7.17188,1.34228 z"
       style="fill:#ffffff;fill-opacity:1;fill-rule:nonzero;stroke:none"
       id="path56" /><path
       d="m 230.49316,639.82715 -2.60449,-7.75977 -1.75683,0.58887 -4.69629,7.28809 -1.67627,-4.99414 -1.75733,0.58984 2.5503,7.59424 1.63183,-0.54785 4.79688,-7.39844 1.75586,5.229 z"
       style="fill:#ffffff;fill-opacity:1;fill-rule:nonzero;stroke:none"
       id="path58" /><path
       d="m 226.76563,651.96484 -2.45459,-4.98877 1.97705,-0.97314 2.25488,4.58252 1.6626,-0.81787 -2.25489,-4.58252 2.43506,-1.19824 2.56494,5.21093 1.6626,-0.81884 -3.51172,-7.13477 -9.40039,4.62598 3.40186,6.91259 z"
       style="fill:#ffffff;fill-opacity:1;fill-rule:nonzero;stroke:none"
       id="path60" /><path
       d="m 226.89404,655.87256 2.99561,4.36865 c 1.57568,2.29834 3.56201,1.55615 4.3081,1.04443 0.9502,-0.65234 1.43848,-1.69482 1.14161,-2.74707 0.80029,0.49561 1.32861,0.69873 2.9414,-0.40673 1.26367,-0.8667 1.57617,-1.08106 1.98487,-0.79493 l 0.229,-0.15673 -1.37012,-1.99805 c -0.49219,0.16064 -0.98633,0.39355 -1.87744,1.00439 -1.17871,0.8086 -1.68603,1.04981 -2.60156,-0.28564 l -1.27979,-1.86572 3.38233,-2.31885 -1.21338,-1.76904 -8.64063,5.92529 m 6.46826,1.2793 c 0.64356,0.93896 0.63233,1.61865 -0.22216,2.20459 -0.45703,0.31347 -1.271,0.57128 -1.99805,-0.48731 l -1.54248,-2.25049 2.31055,-1.58496 z"
       style="fill:#ffffff;fill-opacity:1;fill-rule:nonzero;stroke:none"
       id="path62" /><path
       d="m 245.08447,662.32227 -1.65429,-1.60596 -4.61719,10.11914 1.81152,1.7583 9.94629,-4.94629 -1.70654,-1.65625 -1.98584,1.08203 -2.7749,-2.69385 0.98095,-2.05712 m -1.82226,3.76269 1.91601,1.85986 -3.81787,2.06934 -0.021,-0.021 1.92285,-3.9082 z"
       style="fill:#ffffff;fill-opacity:1;fill-rule:nonzero;stroke:none"
       id="path64" /><path
       d="m 254.31934,670.396 -1.74073,-1.32666 -5.22558,6.86035 -2.51953,-1.91846 -1.12305,1.47412 6.7793,5.16358 1.12304,-1.47364 -2.51855,-1.91894 z"
       style="fill:#ffffff;fill-opacity:1;fill-rule:nonzero;stroke:none"
       id="path66" /><path
       d="m 257.50977,678.18506 2.30615,-4.09326 -1.90625,-1.07471 -5.14356,9.12793 1.90723,1.07471 1.94873,-3.45801 3.55957,2.00537 -1.94873,3.45801 1.90723,1.07422 5.14306,-9.12793 -1.90771,-1.07471 -2.30615,4.09375 z"
       style="fill:#ffffff;fill-opacity:1;fill-rule:nonzero;stroke:none"
       id="path68" /><path
       d="m 268.62646,680.62207 4.84815,1.90625 0.69434,-1.76562 -6.88575,-2.70704 -3.83349,9.75098 2.03711,0.80078 z"
       style="fill:#ffffff;fill-opacity:1;fill-rule:nonzero;stroke:none"
       id="path70" /><path
       d="m 281.10303,691.43604 -5.3999,-1.32715 0.52685,-2.14014 4.95898,1.21973 0.44288,-1.79932 -4.95948,-1.21973 0.64746,-2.63525 5.63965,1.38623 0.44239,-1.7998 -7.72266,-1.89795 -2.50098,10.17382 7.48194,1.83936 z"
       style="fill:#ffffff;fill-opacity:1;fill-rule:nonzero;stroke:none"
       id="path72" /><path
       d="m 289.646,683.86475 -2.17579,-0.23633 -0.93164,8.57324 -3.14794,-0.3418 -0.19971,1.84229 8.47217,0.92041 0.1997,-1.84229 -3.14746,-0.34228 z"
       style="fill:#ffffff;fill-opacity:1;fill-rule:nonzero;stroke:none"
       id="path74" /><path
       d="m 296.27344,684.17041 -2.18799,-0.0332 -0.16016,10.47558 2.18946,0.0337 0.15869,-10.47607 z"
       style="fill:#ffffff;fill-opacity:1;fill-rule:nonzero;stroke:none"
       id="path76" /><path
       d="m 300.81445,684.04199 -2.17968,0.19385 0.92675,10.43555 2.18067,-0.19385 -0.37696,-4.24414 4.35938,3.89062 2.81934,-0.25048 -4.6377,-3.89502 3.95801,-6.56299 -2.80567,0.24902 -2.81933,4.86524 -1.11035,-0.95606 z"
       style="fill:#ffffff;fill-opacity:1;fill-rule:nonzero;stroke:none"
       id="path78" /><path
       d="m 317.31055,684.29004 -3.9336,1.04834 0.48828,1.83252 3.93457,-1.04785 z"
       style="fill:#ffffff;fill-opacity:1;fill-rule:nonzero;stroke:none"
       id="path80" /><path
       d="m 324.91797,681.67188 c -0.22852,-0.53711 -0.42285,-1.66749 1.31641,-2.45997 0.94238,-0.42968 2.09375,-0.68164 2.55468,0.32715 0.33789,0.74365 -0.28808,1.26905 -1.18847,1.96875 l -0.91309,0.70508 c -1.37695,1.05957 -2.70605,2.08301 -1.75098,4.18115 0.48438,1.06201 1.90918,2.67383 5.00293,1.26416 2.9209,-1.33105 2.83301,-3.60058 2.31348,-4.7749 l -1.91211,0.87158 c 0.14063,0.44922 0.44141,1.53076 -1.29785,2.32373 -0.75781,0.34424 -1.78809,0.47705 -2.18067,-0.38574 -0.33886,-0.74414 0.19922,-1.18164 0.55469,-1.45605 l 2.06446,-1.62989 c 1.15625,-0.91162 2.10839,-1.98681 1.32812,-3.6997 -1.30762,-2.86914 -4.34277,-1.79004 -5.17969,-1.40821 -3.47851,1.58496 -3.16308,3.86231 -2.62402,5.04395 z"
       style="fill:#ffffff;fill-opacity:1;fill-rule:nonzero;stroke:none"
       id="path82" /><path
       d="m 332.83887,674.01367 -1.84766,1.17383 5.61817,8.84277 4.04101,-2.5664 c 1.71094,-1.08741 2.04883,-2.84082 0.94531,-4.57764 -0.50781,-0.80078 -2.23535,-2.53857 -4.6123,-1.02832 l -2.11914,1.3457 -2.02539,-3.18994 m 4.70898,3.62988 c 1.37891,-0.87695 2.00488,0.1084 2.25586,0.50293 0.54688,0.86182 0.29395,1.52442 -0.85156,2.25196 l -1.46485,0.93115 -1.65234,-2.59863 z"
       style="fill:#ffffff;fill-opacity:1;fill-rule:nonzero;stroke:none"
       id="path84" /><path
       d="m 349.66699,674.99414 c 1.04688,-0.90869 3.41016,-3.75146 0.1875,-7.46533 -3.22363,-3.71436 -6.37011,-1.77539 -7.41797,-0.86719 -1.04687,0.90869 -3.41015,3.75147 -0.1875,7.46582 3.22364,3.71436 6.3711,1.7749 7.41797,0.8667 m -6.01465,-6.93262 c 0.89161,-0.7749 2.62598,-1.31396 4.54883,0.90137 1.92188,2.21533 1.14453,3.85645 0.25196,4.63135 -0.89258,0.7749 -2.62793,1.31347 -4.54981,-0.90137 -1.92187,-2.21582 -1.14355,-3.85644 -0.25098,-4.63135 z"
       style="fill:#ffffff;fill-opacity:1;fill-rule:nonzero;stroke:none"
       id="path86" /><path
       d="m 355.60547,669.04443 3.42187,-4.04248 c 1.80079,-2.12744 0.56055,-3.84668 -0.12988,-4.43115 -0.87988,-0.74463 -2.01465,-0.94043 -2.95117,-0.37646 0.2666,-0.90186 0.32324,-1.46534 -1.16895,-2.72901 -1.16894,-0.98974 -1.45996,-1.23486 -1.29101,-1.70459 l -0.21192,-0.1792 -1.56445,1.84864 c 0.28418,0.43212 0.63965,0.84814 1.46387,1.54541 1.0918,0.92431 1.45801,1.34912 0.41113,2.58545 l -1.46094,1.72607 -3.12988,-2.64893 -1.38574,1.63672 7.99707,6.76953 m -0.47461,-6.57666 c 0.73535,-0.86865 1.39355,-1.03759 2.18555,-0.36767 0.42285,0.35791 0.88672,1.07568 0.0566,2.05517 l -1.76367,2.08301 -2.1377,-1.81006 1.65918,-1.96045 z"
       style="fill:#ffffff;fill-opacity:1;fill-rule:nonzero;stroke:none"
       id="path88" /><path
       d="m 356.51563,650.54883 -1.18067,1.84375 7.2666,4.64648 -1.70605,2.66748 1.56054,0.99805 4.59083,-7.1792 -1.56055,-0.99853 -1.70606,2.66748 z"
       style="fill:#ffffff;fill-opacity:1;fill-rule:nonzero;stroke:none"
       id="path90" /><path
       d="m 359.84375,644.55615 -0.91406,1.98877 9.52051,4.37354 0.91406,-1.98877 -3.87207,-1.77881 5.54004,-1.85449 1.18164,-2.57276 -5.68262,2.09473 -3.7334,-6.69287 -1.17578,2.55859 2.82422,4.86231 -1.38086,0.49023 z"
       style="fill:#ffffff;fill-opacity:1;fill-rule:nonzero;stroke:none"
       id="path92" /><path
       d="m 365.52637,635.4502 1.49707,-4.98926 -1.81543,-0.54541 -2.12793,7.08545 10.03418,3.01367 0.62988,-2.09668 z"
       style="fill:#ffffff;fill-opacity:1;fill-rule:nonzero;stroke:none"
       id="path94" /><path
       d="m 370.45801,620.65479 c -2.72559,-0.42041 -4.14746,1.04345 -4.54981,3.65429 -0.14746,0.95166 -0.13281,2.40039 0.74805,3.48145 0.54785,0.66015 1.34961,1.00537 2.38477,1.19433 l 6.86425,1.05762 0.33985,-2.20654 -6.71973,-1.03565 c -1.44238,-0.22216 -1.94726,-1.15625 -1.79297,-2.16601 0.22852,-1.48535 1.04395,-1.97998 2.29883,-1.78662 l 6.82129,1.05127 0.33984,-2.20655 z"
       style="fill:#ffffff;fill-opacity:1;fill-rule:nonzero;stroke:none"
       id="path96" /><path
       d="m 377.47754,617.9834 0.0244,-5.09277 c 0.0137,-2.56836 -1.58886,-3.23292 -2.66797,-3.23829 -1.50293,-0.007 -1.93066,0.83692 -2.15136,1.27393 -0.47559,-1.28662 -1.49512,-1.62695 -2.53125,-1.63232 -0.83203,-0.004 -1.6211,0.34179 -2.16407,0.89404 -0.58691,0.59521 -0.9541,1.1626 -0.96484,3.30713 l -0.0225,4.43652 10.47754,0.0518 m -8.65723,-2.14453 0.0137,-2.68457 c 0.005,-1.06543 0.47461,-1.67578 1.53907,-1.67041 0.91992,0.004 1.2666,0.79394 1.26367,1.58203 l -0.0156,2.78662 -2.80078,-0.0137 m 4.56739,0.0229 0.0117,-2.56836 c 0.005,-0.86084 0.34473,-1.54492 1.17579,-1.54102 0.86035,0.004 1.12011,0.61817 1.11621,1.61084 l -0.0127,2.51026 -2.29101,-0.0117 z"
       style="fill:#ffffff;fill-opacity:1;fill-rule:nonzero;stroke:none"
       id="path98" /><path
       d="m 281.99463,561.39844 -1.21777,2.67969 -0.14649,0.0586 c -1.60205,0.4834 -2.99072,1.65771 -4.03223,3.4165 -1.50732,2.54541 -2.0874,6.01221 -1.4121,8.43116 l 0.0781,0.23486 -3.07617,6.77392 -0.085,0.24219 c -2.11328,0.13867 -4.26709,1.57959 -4.35742,4.10791 -0.0483,1.35205 0.31298,2.35108 0.73144,3.5083 l 0.0659,0.16895 -21.01026,46.26904 -0.19726,0.32666 c -0.88818,-0.11035 -1.81592,-0.009 -2.45361,0.72705 -0.28223,0.3252 -0.45655,0.72022 -0.51221,1.14893 -0.0845,0.64746 -0.37158,0.86474 -0.73096,0.88379 -1.15722,0.0601 -2.24267,0.28027 -2.91308,1.03466 -0.58985,0.66456 -0.82862,1.38819 -0.70948,2.15186 0.17969,1.15039 1.22119,2.34082 2.93213,3.35156 v 0 c 1.34961,0.79688 3.44483,1.43457 4.84717,0.94678 0.60742,-0.21191 1.0415,-0.61865 1.25684,-1.17822 0.32568,-0.84766 0.32226,-1.71826 0.14453,-2.54932 -0.13477,-0.63232 -0.006,-1.15137 0.70996,-1.45605 0.32666,-0.1167 1.2168,-0.58204 1.2168,-0.58204 0.69628,0.57715 6.59619,5.24561 17.30615,7.0459 11.42431,1.91993 17.04834,1.71534 30.24023,-2.59228 9.40723,-3.07178 20.16016,-0.86377 27.26465,0.47998 7.10254,1.34375 15.45508,3.07226 17.95215,0.0962 0,0 -0.41699,-4.57617 -0.0967,-10.75244 0.30762,-5.9336 1.40918,-11.16748 4.54394,-17.82373 4.72754,-10.03467 8.6084,-14.14404 9.1836,-25.56787 0,0 -5.76172,1.08056 -12.5752,0.28759 -8.25586,-0.95996 -12.76465,-4.33691 -23.61621,-6.52734 -10.46387,-2.1123 -15.83984,0.57568 -22.56054,3.74365 -6.71973,3.16797 -13.05567,3.83985 -17.75977,3.83985 -3.26123,0 -6.10742,-0.73828 -7.54541,-1.19141 0,0 -0.0625,-0.51221 -0.30225,-1.37646 -0.1875,-0.67676 -0.38427,-1.03174 -0.38427,-1.03174 l 1.80908,-3.87207 0.43115,-0.0913 c 1.4165,-0.32959 4.42041,-1.54053 4.49023,-5.87988 0.0215,-1.36963 -0.10205,-2.41455 -0.2915,-3.27784 l -0.10351,-0.43701 4.43115,-9.48144 0.34863,-0.11084 c 1.04395,-0.3169 2.31299,-0.86719 2.80908,-1.74951 0.21924,-0.38965 0.2959,-0.82959 0.25977,-1.16407 -0.061,-0.56592 -0.36621,-0.99951 -1.35742,-1.53418 -0.18604,-0.10058 -0.74024,-0.36279 -0.79248,-0.38672 l -0.12354,0.31739 -5.9834,12.78711 -0.16943,-0.42041 c -0.19971,-0.53223 -0.36963,-1.02588 -0.50342,-1.56592 -0.19043,-0.77344 -0.12012,-1.37598 0.27686,-2.10645 l 4.52832,-9.97216 -0.83887,-0.38135 m -10.67383,46.27588 c -0.69775,3.57519 -1.78516,7.47509 -3.4668,11.32275 -3.66308,8.38037 -8.70605,14.77148 -12.30908,18.67285 l 0.65723,-0.84912 c 2.44238,-3.20996 5.77344,-8.31494 9.91748,-16.33203 2.42334,-4.68848 4.30127,-9.68066 5.48486,-14.33008 l -0.28369,1.51563 m -1.37891,-10.9253 c 0.12598,3.80762 -0.66748,9.53662 -5.1621,19.30323 -3.98291,8.65478 -9.91309,17.42529 -12.667,20.62841 -0.6372,0.74122 -1.07226,1.15821 -1.44824,1.36768 l 0.0737,-0.26563 18.86768,-40.32519 0.33593,-0.7085 z"
       style="fill:#231f20;fill-opacity:1;fill-rule:nonzero;stroke:none"
       id="path100" /><path
       d="m 247.49219,646.99023 c 0.35254,-0.12255 0.58105,-0.33105 0.6997,-0.63867 0.72022,-1.87304 -0.41503,-3.5376 -1.77734,-4.2959 -1.59228,-0.88476 -4.0376,-1.11523 -5.00049,-0.0327 -0.40332,0.45459 -0.56299,0.91162 -0.4873,1.39697 0.13525,0.86035 1.04248,1.84473 2.49023,2.7002 v 0 c 1.41211,0.83496 3.12647,1.20068 4.0752,0.87011 z"
       style="fill:#ffffff;fill-opacity:1;fill-rule:nonzero;stroke:none"
       id="path102" /><path
       d="m 250.7915,641.26855 c -0.33837,0.32911 -0.74707,0.44971 -1.09082,0.50733 -1.30468,0.21924 -2.0625,-0.2002 -2.87109,-0.57861 -0.80762,-0.37891 -1.19971,-0.67237 -1.3916,-1.15235 -0.11182,-0.28027 -0.0483,-0.88769 0.14014,-1.09765 0.33642,-0.375 0.854,-0.4795 1.44238,-0.42823 1.5376,0.13379 2.42529,0.20606 3.28906,0.58985 0.86475,0.38379 1.46631,1.19873 0.48193,2.15966 z"
       style="fill:#ffffff;fill-opacity:1;fill-rule:nonzero;stroke:none"
       id="path104" /><path
       d="m 299.42578,625.75244 c -3.28369,1.33692 -9.61767,3.57373 -15.73486,3.80469 -0.0899,0.003 -0.1792,0.006 -0.26856,0.009 l 0.12012,-0.3291 c 1.45703,-3.63819 3.38672,-8.88282 4.64941,-16.44776 1.3501,-8.0874 1.30274,-14.04004 1.07618,-17.31006 0,0 0.75634,-0.18359 0.979,-0.22998 5.35449,-1.09619 9.1084,-3.23925 12.7959,-4.94922 l 0.0644,-0.0215 c 0.85645,3.62842 2.16992,11.65625 0.26758,21.65772 -0.86328,4.54052 -2.09961,9.17968 -3.6543,13.708 l -0.29492,0.1084 z"
       style="fill:#ffffff;fill-opacity:1;fill-rule:nonzero;stroke:none"
       id="path106" /><path
       d="m 342.96289,630.87988 c -0.12793,0.76026 -0.2373,1.53516 -0.32519,2.3252 -0.37012,3.33838 -0.41993,6.15039 -0.38965,7.99951 0,0 -4.41016,0.42725 -10.63965,-0.93848 -6.22852,-1.36523 -16.12793,-3.49853 -23.20996,-3.66943 -3.80078,-0.0913 -6.22949,0 -9.0459,0.93848 -1.79541,0.59863 -3.02832,0.57666 -3.02832,0.57666 1.20947,-2.53955 2.86621,-6.32227 4.75098,-11.4668 0,0 5.61328,-0.48193 10.3955,-0.28809 6.31348,0.25586 9.38575,1.36475 17.15137,3.15723 7.76563,1.79248 14.34082,1.36572 14.34082,1.36572 z"
       style="fill:#ffffff;fill-opacity:1;fill-rule:nonzero;stroke:none"
       id="path108" /><path
       d="m 349.60645,612.86768 c -0.95801,1.87548 -1.81348,3.49267 -2.36036,4.68945 -0.64843,1.42139 -1.28808,2.92187 -1.8789,4.50537 0,0 -5.22559,0.36914 -11.37012,-0.48389 -6.14258,-0.85302 -13.39648,-3.66943 -19.54102,-4.77881 -5.37011,-0.97021 -10.25878,0.15284 -10.25878,0.15284 0.88378,-3.53955 1.46289,-7.13037 1.77636,-10.56055 0,0 4.56348,-0.64551 8.73828,-0.0889 8.96094,1.19483 10.92286,3.75537 18.60352,5.20557 7.5,1.4165 16.29102,1.35889 16.29102,1.35889 z"
       style="fill:#ffffff;fill-opacity:1;fill-rule:nonzero;stroke:none"
       id="path110" /><path
       d="m 288.52197,647.53613 c 4.12256,-5.60058 7.64893,-12.46533 10.35547,-19.708 l 0.10645,-0.28223 c -3.54688,1.44482 -11.28125,4.13916 -18.64991,3.64306 -6.90966,-0.46533 -12.18212,-2.9082 -14.72949,-4.33544 l -0.19531,-0.0923 c -5.479,8.99316 -11.7959,15.02002 -11.7959,15.02002 0,0 5.50488,3.83984 15.23291,5.82373 7.3291,1.49463 14.29492,1.10059 19.50147,0.13086 l 0.17431,-0.19971 z"
       style="fill:#ffffff;fill-opacity:1;fill-rule:nonzero;stroke:none"
       id="path112" /><path
       d="m 305.05957,589.7627 c 0.65527,2.26562 1.06445,5.26709 1.1709,8.6958 0,0 3.44726,-1.37061 8.9082,-0.94434 5.46192,0.42676 8.875,1.70703 16.12891,4.18115 7.25293,2.47461 11.17871,2.98731 15.95703,3.07227 5.03711,0.0898 6.24316,-0.33399 6.24316,-0.33399 1.17871,-3.10693 2.03418,-6.29443 2.03418,-9.14892 0,0 -4.86425,0.47998 -9.98437,-0.22363 -5.12012,-0.70362 -8.71485,-2.01368 -14.46387,-3.96827 -9.4082,-3.20019 -18.28906,-4.24463 -24.25488,-2.30371 -0.61719,0.20069 -1.22168,0.42432 -1.82031,0.66553 l 0.0811,0.30811 z"
       style="fill:#ffffff;fill-opacity:1;fill-rule:nonzero;stroke:none"
       id="path114" /><path
       d="m 269.10205,592.14111 -20.29248,44.56543 c -0.25146,0.50098 -0.15527,0.57813 0.37256,0.72217 0.51269,0.14014 0.64746,0.0239 0.89209,-0.40283 l 19.39795,-41.45752 c 0.32568,-0.76367 0.54199,-1.1958 0.27734,-2.05957 -0.26367,-0.86377 -0.64746,-1.36768 -0.64746,-1.36768 z"
       style="fill:#ffffff;fill-opacity:1;fill-rule:nonzero;stroke:none"
       id="path116" /><path
       d="m 275.67285,577.98779 c 0.14453,0.72803 0.22559,1.36084 0.24024,1.88916 0.0425,1.60791 -0.0913,2.16016 -0.50147,2.99854 l -3.1582,6.74853 -0.22168,0.38086 c -0.36035,-0.47998 -0.57617,-0.99218 -0.60205,-2.01611 -0.0151,-0.58887 0.19238,-1.53613 0.33252,-1.82666 l 3.82324,-8.4209 z"
       style="fill:#ffffff;fill-opacity:1;fill-rule:nonzero;stroke:none"
       id="path118" /><path
       d="m 258.73389,641.46094 c 0,0 0.83203,0.51172 1.66406,0.76806 0,0 3.58398,-4.47998 6.9126,-9.66455 0,0 0.92724,0.40039 2.12744,0.59278 0,0 0.4917,-0.97071 0.62402,-1.15235 0,0 -1.7915,-0.46386 -3.19971,-1.03955 0,0 -4.48046,6.79932 -8.12841,10.49561 z"
       style="fill:#231f20;fill-opacity:1;fill-rule:nonzero;stroke:none"
       id="path120" /><path
       d="m 273.42188,635.89258 c -0.86377,-0.0957 -1.63477,-0.14356 -1.63477,-0.14356 0.77978,-1.83789 1.14893,-2.85595 1.14893,-2.85595 -0.45801,-0.11475 -1.11524,-0.20166 -1.57813,-0.36036 0,0 -2.83203,7.77588 -4.75195,11.56836 0,0 1.63183,0.62403 3.93603,0.81592 0,0 5.42383,-7.87207 7.58399,-11.37597 0,0 -0.74659,0.0103 -1.87159,-0.0937 0,0 -0.5625,1.01269 -1.4541,2.53271 0,0 -0.51465,0.009 -1.37841,-0.0874 m 0.5205,1.53222 c -1.10937,1.84913 -2.50439,4.08936 -3.91943,6.14795 0,0 -0.91211,-0.14404 -1.72803,-0.33545 0,0 0.85498,-1.58447 2.43897,-5.08837 0.1709,-0.37745 0.33056,-0.73633 0.48047,-1.07666 0,0 0.38378,0.0688 1.34375,0.16503 0.95996,0.0952 1.38427,0.1875 1.38427,0.1875 z"
       style="fill:#231f20;fill-opacity:1;fill-rule:nonzero;stroke:none"
       id="path122" /><path
       d="m 278.41406,636.03711 c 0.72022,-1.87207 1.91992,-2.25635 3.45557,-2.2085 1.53613,0.0483 2.49121,1.39112 2.16016,2.88037 -0.38379,1.72803 -2.12159,2.84913 -4.9917,4.46387 -3.07227,1.72803 -2.92823,3.31201 -1.58399,3.5044 1.1294,0.16113 1.43994,-0.86475 1.43994,-0.86475 l 1.53565,0.19238 c 0,0 -0.84375,2.63916 -3.64795,2.01612 -2.5918,-0.57618 -2.05322,-3.01807 -0.81592,-4.41602 1.48828,-1.68018 4.43848,-2.71045 5.76025,-4.03223 1.15186,-1.15185 0.76807,-2.208 -0.0962,-2.25586 -1.24951,-0.0693 -1.53564,0.95997 -1.53564,0.95997 l -1.68018,-0.23975 z"
       style="fill:#231f20;fill-opacity:1;fill-rule:nonzero;stroke:none"
       id="path124" /><path
       d="m 292.39551,632.31689 c 0.70508,-0.1582 1.30664,-0.35302 1.9541,-0.53369 0,0 -0.91748,1.89209 -2.76904,4.06104 -2.14014,2.50781 -4.20752,4.14892 -4.20752,4.14892 0.38134,1.6709 0.72509,5.45459 0.72509,5.45459 -0.49365,0.0947 -0.88134,0.21387 -1.42138,0.27393 0,0 -0.14014,-1.19141 -0.37744,-2.81787 -0.23633,-1.62598 -0.42871,-2.46777 -0.42871,-2.46777 -1.19385,2.85498 -2.22315,5.49169 -2.22315,5.49169 -1.04443,0.0352 -1.77783,0.0269 -1.77783,0.0269 3.18994,-6.2334 5.1748,-12.6748 5.1748,-12.6748 0,0 0.81641,-0.12354 1.99024,-0.33448 0,0 -1.02002,2.46924 -2.50928,5.91944 0,0 2.15674,-1.88477 3.55274,-3.50684 1.39648,-1.62353 2.31738,-3.04102 2.31738,-3.04102 z"
       style="fill:#231f20;fill-opacity:1;fill-rule:nonzero;stroke:none"
       id="path126" /><path
       d="m 287.61572,595.88574 c 0.16748,2.94922 0.45655,11.69141 -2.49609,23.04688 -1.07129,4.1167 -2.28662,8.02685 -3.26318,10.31006 l -0.15918,0.333 c -7.17383,-0.0977 -12.91553,-2.69629 -15.2417,-3.92724 l -0.26856,-0.19385 c 2.33252,-4.06494 4.44238,-8.6709 5.73096,-13.56201 2.45508,-9.31397 2.08887,-16.51172 2.08887,-16.51172 0,0 5.08398,1.54248 13.59912,0.25537 l 0.01,0.24951 z"
       style="fill:#ee2223;fill-opacity:1;fill-rule:nonzero;stroke:none"
       id="path128" /><path
       d="m 284.40576,565.83203 -0.31396,0.67236 0.31103,-0.0879 c 0.24121,-0.0977 0.47461,-0.20654 0.68457,-0.32617 0,0 -0.37793,-0.14306 -0.68164,-0.2583 z"
       style="fill:#ffffff;fill-opacity:1;fill-rule:nonzero;stroke:none"
       id="path130" /><path
       d="m 285.89551,565.37402 c 0.19287,-0.34472 0.27392,-0.63769 0.14355,-0.81103 -0.27051,-0.36182 -0.79736,-0.52051 -0.79736,-0.52051 l -0.54346,1.16406 c 0,0 0.21973,0.0781 0.53174,0.15039 0.31201,0.0718 0.66553,0.0171 0.66553,0.0171 z"
       style="fill:#ffffff;fill-opacity:1;fill-rule:nonzero;stroke:none"
       id="path132" /><path
       d="m 255.26514,636.53223 c 0.33984,-0.44092 0.69775,-0.91944 1.07422,-1.43994 0,0 -0.41358,0.009 -0.94141,0.009 -0.52832,0 -0.84375,-0.0225 -0.84375,-0.0225 -0.41748,0.56006 -0.80615,1.06348 -1.16016,1.50196 0,0 0.46778,0.0322 0.97168,-0.0156 0.50391,-0.0478 0.89942,-0.0327 0.89942,-0.0327 z"
       style="fill:#ffffff;fill-opacity:1;fill-rule:nonzero;stroke:none"
       id="path134" /><path
       d="m 257.98682,632.71289 c -0.3711,0.55762 -0.72852,1.08008 -1.07129,1.5708 0,0 -0.29346,0.0488 -0.91748,0.0732 -0.62403,0.0239 -0.87012,-0.061 -0.87012,-0.061 0.37402,-0.51611 0.76562,-1.07129 1.17139,-1.66016 0,0 0.34668,0.0171 0.85058,0.0415 0.5044,0.0239 0.83692,0.0356 0.83692,0.0356 z"
       style="fill:#ffffff;fill-opacity:1;fill-rule:nonzero;stroke:none"
       id="path136" /><path
       d="m 259.54102,630.29492 c -0.34034,0.54688 -0.67188,1.06787 -0.99317,1.56348 0,0 -0.53369,0.0503 -0.86963,0.0264 -0.33642,-0.0239 -0.83496,-0.0449 -0.83496,-0.0449 0.36621,-0.54101 0.74121,-1.10644 1.12207,-1.69287 0,0 0.26465,0.0342 0.74463,0.082 0.47998,0.0479 0.83106,0.0659 0.83106,0.0659 z"
       style="fill:#ffffff;fill-opacity:1;fill-rule:nonzero;stroke:none"
       id="path138" /><path
       d="m 260.94922,627.9707 c -0.32617,0.55225 -0.64502,1.08252 -0.95606,1.59131 0,0 -0.39502,-0.005 -0.82714,-0.0293 -0.43213,-0.0239 -0.74317,-0.0957 -0.74317,-0.0957 0.3169,-0.49658 0.63819,-1.00537 0.96045,-1.52637 0,0 0.31104,0.0142 0.83887,0.062 0.52734,0.0483 0.72705,-0.002 0.72705,-0.002 z"
       style="fill:#ffffff;fill-opacity:1;fill-rule:nonzero;stroke:none"
       id="path140" /><path
       d="m 263.47314,623.51416 c -0.27587,0.50586 -0.54736,0.99854 -0.81445,1.47705 0,0 -0.34912,-0.0186 -0.73291,-0.0186 -0.38379,0 -0.76855,-0.0181 -0.76855,-0.0181 0.29736,-0.51172 0.59375,-1.02979 0.88818,-1.55371 0,0 0.12061,0.0601 0.67285,0.084 0.55127,0.0239 0.75488,0.0293 0.75488,0.0293 z"
       style="fill:#ffffff;fill-opacity:1;fill-rule:nonzero;stroke:none"
       id="path142" /><path
       d="m 264.78174,621.0625 c -0.29736,0.56836 -0.59082,1.12109 -0.87988,1.65918 0,0 -0.43995,0.043 -0.79981,0.0195 -0.36035,-0.0239 -0.64892,-0.0737 -0.64892,-0.0737 0.29101,-0.52783 0.5791,-1.06055 0.86328,-1.59619 0,0 0.26562,0.0137 0.62548,0.0137 0.35987,0 0.83985,-0.0225 0.83985,-0.0225 z"
       style="fill:#ffffff;fill-opacity:1;fill-rule:nonzero;stroke:none"
       id="path144" /><path
       d="m 264.6167,618.53174 c -0.2915,0.59082 -0.59082,1.18115 -0.89502,1.76806 0,0 0.4126,0.0171 0.74805,0.0171 0.33593,0 0.72119,-0.0381 0.72119,-0.0381 0.0361,-0.0708 0.0732,-0.1416 0.10986,-0.21289 0.25,-0.48389 0.49463,-0.97168 0.73291,-1.46289 0,0 -0.53174,0.01 -0.8916,-0.0142 -0.36035,-0.0239 -0.52539,-0.0571 -0.52539,-0.0571 z"
       style="fill:#ffffff;fill-opacity:1;fill-rule:nonzero;stroke:none"
       id="path146" /><path
       d="m 267.3584,615.69873 c -0.2627,0.61231 -0.53418,1.22217 -0.81494,1.82764 0,0 -0.29785,0.0308 -0.7295,0.0308 -0.43212,0 -0.67285,-0.10449 -0.67285,-0.10449 0.16114,-0.33789 0.31934,-0.67627 0.47559,-1.01514 0.11133,-0.2417 0.22021,-0.48096 0.32666,-0.71729 0,0 0.49463,0.0606 0.87842,0.0606 0.38427,0 0.53662,-0.082 0.53662,-0.082 z"
       style="fill:#ffffff;fill-opacity:1;fill-rule:nonzero;stroke:none"
       id="path148" /><path
       d="m 268.48193,612.90576 c -0.25732,0.68262 -0.52734,1.36475 -0.80859,2.04492 0,0 -0.29932,-0.01 -0.63525,-0.01 -0.33594,0 -0.72901,-0.0405 -0.72901,-0.0405 0.28565,-0.65039 0.55322,-1.27978 0.80371,-1.89014 0,0 0.45313,0.0347 0.83692,0.0107 0.38427,-0.0239 0.53222,-0.11524 0.53222,-0.11524 z"
       style="fill:#ffffff;fill-opacity:1;fill-rule:nonzero;stroke:none"
       id="path150" /><path
       d="m 270.38574,607.07178 c -0.18115,0.65967 -0.37646,1.32568 -0.58398,1.99463 0,0 -0.29199,0.0425 -0.55615,0.0425 -0.26368,0 -0.64014,-0.061 -0.64014,-0.061 0.23486,-0.69238 0.44482,-1.354 0.63135,-1.98828 0,0 0.4414,0.10547 0.729,0.10547 0.28809,0 0.41992,-0.0933 0.41992,-0.0933 z"
       style="fill:#ffffff;fill-opacity:1;fill-rule:nonzero;stroke:none"
       id="path152" /><path
       d="m 271.29443,603.27881 c -0.17382,0.85937 -0.37451,1.73682 -0.60009,2.62695 0,0 -0.22364,0.0913 -0.48829,0.10694 -0.4082,0.0244 -0.65283,-0.0815 -0.65283,-0.0815 0.25293,-0.9497 0.45264,-1.83301 0.6084,-2.65869 0,0 0.28418,0.12451 0.59619,0.14844 0.31201,0.0239 0.53662,-0.14209 0.53662,-0.14209 z"
       style="fill:#ffffff;fill-opacity:1;fill-rule:nonzero;stroke:none"
       id="path154" /><path
       d="m 271.81836,600.15332 c -0.085,0.64893 -0.18799,1.31397 -0.30908,1.9917 0,0 -0.31787,0.14746 -0.60742,0.14746 -0.35987,0 -0.54834,-0.14893 -0.54834,-0.14893 0.10498,-0.69531 0.17871,-1.34814 0.22753,-1.96386 0,0 0.27295,0.12109 0.63331,0.12109 0.24121,0 0.604,-0.14746 0.604,-0.14746 z"
       style="fill:#ffffff;fill-opacity:1;fill-rule:nonzero;stroke:none"
       id="path156" /><path
       d="m 270.37061,588.76953 c -0.11475,0.0254 -0.24268,0.0474 -0.38086,0.0591 -0.55176,0.0483 -1.20069,-0.0659 -1.20069,-0.0659 0.16651,1.68554 0.69239,2.15625 0.69239,2.15625 0,0 0.3164,-0.0982 0.9165,-0.41016 0.13574,-0.0703 0.38281,-0.19483 0.47998,-0.26367 0,0 -0.22217,-0.39991 -0.31836,-0.62403 -0.0952,-0.22461 -0.18896,-0.85156 -0.18896,-0.85156 z"
       style="fill:#ffffff;fill-opacity:1;fill-rule:nonzero;stroke:none"
       id="path158" /><path
       d="m 269.96582,586.47705 c -0.43115,0.0508 -1.14795,0.0132 -1.14795,0.0132 -0.0864,0.26905 -0.13965,0.56397 -0.15088,0.88575 -0.005,0.14453 -0.005,0.28418 0,0.42041 0,0 0.33887,0.24072 1.10694,0.19238 0.22802,-0.0142 0.40527,-0.0562 0.54052,-0.1084 0,0 0.0186,-0.56348 0.36475,-1.5083 0,0 -0.30518,0.0566 -0.71338,0.10498 z"
       style="fill:#ffffff;fill-opacity:1;fill-rule:nonzero;stroke:none"
       id="path160" /><path
       d="m 271.01904,585.56885 0.48926,-1.07813 0.0845,-0.25586 c -0.82129,0.17285 -1.73047,0.60645 -2.31445,1.37403 0,0 0.30371,0.0283 0.87988,0.004 0.57569,-0.0239 0.86084,-0.0439 0.86084,-0.0439 z"
       style="fill:#ffffff;fill-opacity:1;fill-rule:nonzero;stroke:none"
       id="path162" /><path
       d="m 271.26855,590.77246 c 0,0 -0.18359,0.0962 -0.66552,0.43262 -0.4834,0.33594 -0.80518,0.45605 -0.80518,0.45605 0,0 0.23047,0.33594 0.48291,0.8877 0.25293,0.55224 0.29883,0.86377 0.29883,0.86377 0.1377,0.007 0.25781,0.0435 0.43604,0.0244 0.43652,-0.0483 0.94238,-0.21582 0.94238,-0.21582 0.0464,-1.46435 -0.68946,-2.44873 -0.68946,-2.44873 z"
       style="fill:#ffffff;fill-opacity:1;fill-rule:nonzero;stroke:none"
       id="path164" /><path
       d="m 276.93066,584.84717 c -0.32714,0.27685 -0.67089,0.48584 -0.99902,0.64258 -0.39551,0.18896 -0.77588,0.13818 -0.77588,0.13818 l 0.5791,-1.24072 c 0,0 0.0869,0.0737 0.47119,0.21777 0.38379,0.14404 0.72461,0.24219 0.72461,0.24219 z"
       style="fill:#ffffff;fill-opacity:1;fill-rule:nonzero;stroke:none"
       id="path166" /><path
       d="m 278.2998,582.74365 c -0.18408,0.58496 -0.44628,1.06348 -0.75,1.45508 0,0 -0.81445,-0.082 -1.35791,-0.40185 0,0 0.44776,-0.47999 0.61377,-1.18409 0,0 0.38428,0.0723 0.79248,0.12012 0.40772,0.0479 0.70166,0.0107 0.70166,0.0107 z"
       style="fill:#ffffff;fill-opacity:1;fill-rule:nonzero;stroke:none"
       id="path168" /><path
       d="m 278.3667,578.07715 c 0.0898,0.47119 0.15918,1 0.19385,1.60791 0,0 -0.29102,0.21582 -0.86621,0.21582 -0.57618,0 -0.8628,-0.13672 -0.8628,-0.13672 -0.0396,-0.45312 -0.10302,-0.97705 -0.20263,-1.56641 0,0 0.36914,0.11914 0.94531,0.0708 0.57568,-0.0474 0.79248,-0.1914 0.79248,-0.1914 z"
       style="fill:#ffffff;fill-opacity:1;fill-rule:nonzero;stroke:none"
       id="path170" /><path
       d="m 277.0293,573.5166 c 0.0205,0.27637 0.0762,0.521 0.14941,0.75244 0.0493,0.1958 0.10498,0.38477 0.16553,0.57032 0,0 -0.20215,0.16552 -0.6582,0.21337 -0.45606,0.0483 -0.76416,-0.0283 -0.76416,-0.0283 -0.0752,-0.4873 -0.10206,-1.01171 -0.0859,-1.55566 0,0 0.22607,0.0723 0.58594,0.0723 0.35986,0 0.60742,-0.0244 0.60742,-0.0244 z"
       style="fill:#ffffff;fill-opacity:1;fill-rule:nonzero;stroke:none"
       id="path172" /><path
       d="m 278.47705,569.14355 -0.47021,1.03663 c 0,0 -0.38477,0.1206 -0.88868,0.0967 -0.5039,-0.0239 -0.65722,-0.19581 -0.65722,-0.19581 0.13476,-0.40136 0.29004,-0.79394 0.46484,-1.17089 0,0 0.44776,0.062 0.81592,0.11865 0.62402,0.0962 0.73535,0.11474 0.73535,0.11474 z"
       style="fill:#ffffff;fill-opacity:1;fill-rule:nonzero;stroke:none"
       id="path174" /><path
       d="m 279.30713,567.31641 -0.44873,0.9873 c 0,0 -0.37256,-0.019 -0.82861,-0.0908 -0.45557,-0.0718 -0.63819,-0.18994 -0.63819,-0.18994 0.23535,-0.39844 0.53418,-0.83399 0.90088,-1.25195 0,0 0.32324,0.27246 1.01465,0.54541 z"
       style="fill:#ffffff;fill-opacity:1;fill-rule:nonzero;stroke:none"
       id="path176" /><path
       d="m 279.99072,565.39355 c -0.36718,0.19581 -0.70019,0.42969 -1,0.68555 0,0 0.21485,0.25098 0.70752,0.37695 l 0.52637,-1.16064 -0.23389,0.0981 z"
       style="fill:#ffffff;fill-opacity:1;fill-rule:nonzero;stroke:none"
       id="path178" /><path
       d="m 277.52588,571.2334 c -0.24414,0.5791 -0.38525,1.0581 -0.45361,1.46826 0,0 -0.29053,0.0474 -0.62647,0.0234 -0.33594,-0.0239 -0.54639,-0.11963 -0.54639,-0.11963 0.0576,-0.51709 0.15235,-1.04199 0.28125,-1.5625 0,0 0.28907,0.0498 0.69727,0.12207 0.40771,0.0723 0.64795,0.0684 0.64795,0.0684 z"
       style="fill:#ffffff;fill-opacity:1;fill-rule:nonzero;stroke:none"
       id="path180" /><path
       d="m 276.07422,575.7373 c 0.16406,0.58643 0.29541,1.13672 0.40137,1.64698 0,0 0.30615,0.0684 0.83398,0.0205 0.52832,-0.0479 0.79248,-0.40772 0.79248,-0.40772 -0.13769,-0.45703 -0.28906,-0.86182 -0.43359,-1.25 0,0 -0.38282,0.0498 -0.8628,0.0498 -0.47998,0 -0.73144,-0.0596 -0.73144,-0.0596 z"
       style="fill:#ffffff;fill-opacity:1;fill-rule:nonzero;stroke:none"
       id="path182" /><path
       d="m 276.87793,580.64502 c 0.0102,0.59912 -0.0181,1.10107 -0.022,1.13574 0,0 0.33398,0.0879 0.81396,0.16016 0.47998,0.0718 0.82129,-0.007 0.82129,-0.007 0.0532,-0.32861 0.1084,-0.83349 0.11475,-1.21679 0,0 -0.14307,0.11962 -0.8877,0.11962 -0.64844,0 -0.84033,-0.19189 -0.84033,-0.19189 z"
       style="fill:#ffffff;fill-opacity:1;fill-rule:nonzero;stroke:none"
       id="path184" /><path
       d="m 272.03174,594.18701 c 0.0415,0.51709 0.0654,1.06006 0.0718,1.62598 0,0 -0.16944,0.14404 -0.63086,0.21582 -0.46192,0.0723 -0.69336,0.0478 -0.69336,0.0478 -0.0435,-0.66016 0.0327,-1.23486 -0.0454,-1.77588 0,0 0.15088,-0.0239 0.5708,-0.0239 0.41992,0 0.72705,-0.0899 0.72705,-0.0899 z"
       style="fill:#ffffff;fill-opacity:1;fill-rule:nonzero;stroke:none"
       id="path186" /><path
       d="m 272.09668,596.72461 c -0.0181,0.7417 -0.0649,1.51855 -0.14111,2.32373 0,0 -0.19043,0.12451 -0.52637,0.12451 -0.33594,0 -0.76709,-0.19189 -0.76709,-0.19189 0.0249,-0.74561 0.14355,-1.50977 0.11963,-2.16016 0,0 0.35547,0.14404 0.75928,0.0479 0.40332,-0.0962 0.55566,-0.14404 0.55566,-0.14404 z"
       style="fill:#ffffff;fill-opacity:1;fill-rule:nonzero;stroke:none"
       id="path188" /><path
       d="m 269.43408,610.21436 c -0.18603,0.5625 -0.38086,1.12695 -0.58447,1.69238 0,0 -0.17969,0.10596 -0.58789,0.10596 -0.40772,0 -0.70361,-0.10987 -0.70361,-0.10987 0.24023,-0.61084 0.4624,-1.20068 0.66845,-1.77148 0,0 0.27539,0.10595 0.5874,0.12939 0.31202,0.0239 0.62012,-0.0464 0.62012,-0.0464 z"
       style="fill:#ffffff;fill-opacity:1;fill-rule:nonzero;stroke:none"
       id="path190" /><path
       d="m 262.2207,625.77148 c -0.29004,0.51221 -0.57519,1.00879 -0.85498,1.48877 0,0 -0.27978,0.0405 -0.75976,-0.007 -0.47998,-0.0479 -0.75,-0.11182 -0.75,-0.11182 0.28467,-0.46777 0.5708,-0.94336 0.85644,-1.42627 0,0 0.30176,0.003 0.75733,0.0264 0.47998,0.0234 0.75097,0.0303 0.75097,0.0303 z"
       style="fill:#ffffff;fill-opacity:1;fill-rule:nonzero;stroke:none"
       id="path192" /><path
       d="m 254.59912,637.37695 c -0.52832,0.65284 -1.00244,1.20264 -1.42334,1.66407 0,0 -0.46582,-0.0283 -0.96973,-0.1001 -0.5039,-0.0723 -0.93652,-0.16846 -0.93652,-0.16846 0,0 0.99414,-0.854 1.54248,-1.49072 0,0 0.37793,0.0991 0.90625,0.0991 0.52735,0 0.88086,-0.004 0.88086,-0.004 z"
       style="fill:#ffffff;fill-opacity:1;fill-rule:nonzero;stroke:none"
       id="path194" /></g></svg>