<?xml version="1.0" encoding="UTF-8"?>
<!DOCTYPE svg PUBLIC "-//W3C//DTD SVG 1.1//EN" "http://www.w3.org/Graphics/SVG/1.1/DTD/svg11.dtd">
<!-- Creator: CorelDRAW X7 -->
<svg xmlns="http://www.w3.org/2000/svg" xml:space="preserve" width="2.91945in" height="4.06587in" version="1.1" style="shape-rendering:geometricPrecision; text-rendering:geometricPrecision; image-rendering:optimizeQuality; fill-rule:evenodd; clip-rule:evenodd"
viewBox="0 0 2919 4066"
 xmlns:xlink="http://www.w3.org/1999/xlink">
 <defs>
  <style type="text/css">
   <![CDATA[
    .fil4 {fill:black}
    .fil0 {fill:black;fill-rule:nonzero}
    .fil3 {fill:#78AC42;fill-rule:nonzero}
    .fil2 {fill:#D84235;fill-rule:nonzero}
    .fil1 {fill:#F8E997;fill-rule:nonzero}
   ]]>
  </style>
 </defs>
 <g id="Layer_x0020_1">
  <metadata id="CorelCorpID_0Corel-Layer"/>
  <g id="_777779904">
   <g>
    <path id="path30" class="fil0" d="M1936 2129l8 -18c11,0 20,1 29,3 18,4 30,9 36,17 5,8 7,16 5,24 -1,5 -4,10 -8,15 -4,4 -11,8 -20,9 -8,2 -19,1 -33,-2 -12,-3 -26,-7 -41,-13l4 -20c11,5 22,8 34,11 9,2 16,2 20,0 3,-1 6,-4 7,-8 0,-3 -1,-6 -3,-9 -2,-3 -6,-5 -11,-6 -8,-2 -17,-3 -27,-3l0 0zm-1310 -179l71 -21 25 86 49 -108 94 -27 -59 111 129 116 -87 26 -75 -80 -26 49 16 55 -70 21 -67 -228zm1597 -21l70 23 -75 226 -70 -23 75 -226zm-173 98l59 32c-8,17 -18,30 -30,40 -11,10 -25,17 -39,20 -15,3 -33,2 -54,-2 -25,-6 -45,-14 -59,-25 -15,-11 -26,-27 -33,-48 -8,-21 -9,-46 -2,-74 8,-39 25,-66 50,-82 25,-17 56,-21 93,-13 29,7 51,18 65,33 15,16 23,37 26,63l-67 0c0,-7 -2,-13 -3,-17 -3,-6 -7,-11 -12,-16 -5,-4 -12,-7 -19,-8 -16,-4 -30,0 -41,11 -9,8 -16,23 -20,44 -6,25 -6,44 0,55 6,11 16,19 30,22 13,3 25,1 33,-5 9,-6 17,-16 23,-30zm-312 -47l-18 -87 -34 82 52 5zm10 53l-83 -8 -15 38 -75 -7 111 -229 80 8 67 245 -77 -7 -8 -40zm-394 -214l73 0 2 179 115 -1 0 59 -188 1 -2 -238zm-414 48l180 -29 8 50 -107 17 7 41 91 -14 8 47 -91 15 15 96 -73 11 -38 -234z"/>
   </g>
   <g>
    <path id="path54" class="fil0" d="M1413 2987c0,-14 -4,-25 -12,-33 -7,-8 -16,-12 -26,-12 -11,0 -20,4 -28,13 -8,8 -12,20 -12,34 0,12 4,22 11,30 8,8 17,12 28,12 11,0 21,-4 28,-12 7,-8 11,-18 11,-32l0 0zm227 35c0,32 4,54 11,64 8,11 17,16 28,16 11,0 21,-5 28,-16 8,-11 11,-32 11,-64 0,-32 -3,-54 -11,-64 -7,-11 -17,-16 -28,-16 -11,0 -20,4 -27,14 -8,12 -12,34 -12,66l0 0zm-151 33c0,8 2,16 6,24 3,8 8,13 14,17 7,4 13,6 20,6 11,0 19,-4 27,-12 7,-8 11,-19 11,-34 0,-13 -4,-24 -11,-32 -7,-7 -17,-11 -28,-11 -10,0 -20,4 -27,11 -8,8 -12,18 -12,31l0 0zm-240 64l-25 0 0 -154c-5,6 -13,11 -22,17 -10,5 -18,9 -26,12l0 -23c14,-6 26,-14 36,-23 10,-9 17,-18 21,-26l16 0 0 197zm366 -97c0,-23 3,-42 7,-56 5,-14 12,-25 22,-33 9,-7 21,-11 35,-11 11,0 20,2 28,6 8,4 14,10 20,18 5,8 9,18 12,30 3,11 4,26 4,46 0,23 -2,42 -7,56 -5,14 -12,25 -21,32 -10,8 -21,12 -36,12 -19,0 -34,-7 -44,-20 -13,-17 -20,-43 -20,-80zm-27 -51l-24 1c-2,-9 -5,-16 -9,-20 -7,-7 -15,-11 -24,-11 -8,0 -15,3 -21,7 -7,5 -13,14 -18,24 -4,11 -6,26 -6,46 5,-9 13,-16 21,-20 8,-4 17,-7 26,-7 16,0 30,6 41,18 12,12 17,27 17,46 0,12 -2,24 -8,34 -5,11 -12,19 -22,25 -9,5 -19,8 -31,8 -20,0 -37,-7 -49,-22 -13,-15 -19,-39 -19,-73 0,-38 7,-66 21,-83 12,-15 28,-22 49,-22 16,0 28,4 38,13 10,8 16,20 18,36zm-274 102l23 -2c2,11 6,19 11,24 6,5 13,7 22,7 7,0 13,-1 19,-5 6,-3 10,-8 14,-13 3,-6 6,-14 9,-23 2,-10 3,-20 3,-30 0,-1 0,-2 0,-5 -5,8 -11,14 -20,19 -8,5 -17,7 -27,7 -16,0 -30,-6 -41,-17 -11,-12 -17,-28 -17,-47 0,-20 6,-36 18,-48 12,-12 26,-18 44,-18 13,0 24,3 35,10 11,7 19,17 24,29 6,13 8,32 8,56 0,25 -2,45 -8,59 -5,15 -13,27 -24,34 -11,8 -24,12 -38,12 -15,0 -28,-4 -38,-13 -9,-8 -15,-20 -17,-36z"/>
   </g>
   <g>
    <g id="g68">
     <path id="path70" class="fil1" d="M1819 870l-69 0 0 54 -290 -169 -290 169 0 -54 -69 0c-11,0 -19,9 -19,19 0,11 8,19 19,19l40 0 0 744 6 4c1,1 139,91 313,91 173,0 311,-90 312,-91l7 -4 0 -744 40 0c10,0 18,-8 18,-19 0,-10 -8,-19 -18,-19z"/>
    </g>
    <g id="g72">
     <polygon id="path74" class="fil2" points="1750,957 1460,789 1170,957 1170,1531 1750,1531 "/>
    </g>
    <g id="g76">
     <path id="path78" class="fil3" d="M1186 1645c15,8 37,19 64,30 54,22 128,43 210,43 141,0 261,-65 290,-82l0 -105 -580 0 0 105c4,2 9,5 16,9z"/>
    </g>
    <g id="g80">
     <path id="path82" class="fil1" d="M1667 1017c0,-19 -14,-31 -21,-37 -5,12 -31,29 -31,63 -9,27 -13,56 -13,96 0,55 16,115 16,169 0,31 -7,56 -25,56 -20,0 -39,-46 -72,-83 16,-1 16,-21 5,-32 0,0 8,-10 15,-10 0,0 4,-21 -3,-68 0,0 5,-3 17,0 3,-17 -1,-26 -1,-26 0,0 7,-2 15,-2 3,-20 -8,-31 -8,-31 0,0 7,-9 15,-9 -2,-11 -13,-16 -13,-16 0,0 4,-4 12,-6 0,-10 -3,-18 -3,-18 0,0 1,-4 7,-7 -4,-15 -16,-20 -16,-20 0,0 7,-9 16,-9 0,0 -9,-26 -35,-41 1,-8 7,-18 7,-18 -28,0 -20,-22 -59,-21 3,-5 5,-6 5,-6 0,0 -9,-4 -21,-4 -11,0 -22,3 -22,3 -12,22 -73,59 -73,76 0,12 13,16 13,16 0,0 0,0 1,-1 3,2 7,4 11,4 0,-5 1,-10 2,-14 2,-1 4,-2 7,-2 4,0 8,4 8,9 0,6 -5,8 -11,10 -5,-1 -9,-1 -9,-1 0,1 0,3 1,5 -4,2 -7,5 -7,12 0,0 0,20 28,12 0,0 -2,-11 8,-11 4,0 8,4 8,9 -6,13 -44,25 -32,49 -12,12 -37,14 -57,39 -16,-16 -26,-16 -32,-36 13,-13 3,-17 9,-32 0,-26 -19,-17 -19,-35 0,0 10,-5 22,-1 0,-18 -9,-31 -28,-27 0,-18 -14,-26 -17,-33 -1,7 -14,15 -11,33 -20,-4 -26,9 -23,27 12,-4 22,1 22,1 0,3 -2,7 -4,12 -7,3 -11,8 -11,13 0,6 12,11 12,19 0,13 -3,30 -3,30 6,5 11,0 11,0 4,28 18,63 32,73 10,7 34,-2 45,4 -8,18 -24,11 -31,40 -25,5 -54,44 -45,53 0,0 -7,22 2,22 8,0 14,-2 14,-2 0,0 4,2 9,2 18,0 35,-18 35,-37 19,-19 27,-15 41,-25 1,-10 7,-12 16,-12 11,24 22,43 49,70 0,0 -68,96 -68,148 0,13 6,19 13,19 11,15 -15,17 -33,63 -12,7 -34,-6 -34,12 -15,-4 -28,5 -28,12 0,15 9,14 9,14 0,7 7,12 17,12 5,0 12,-2 12,-2 0,0 7,3 20,3 12,0 21,-4 21,-9 11,0 32,-9 20,-28 27,-20 25,-33 34,-42 21,-22 28,-23 28,-33 0,-8 -8,-17 -8,-17 0,-9 6,-16 6,-16 12,13 10,24 26,40 -7,40 16,40 16,61 0,10 -5,25 -19,35 -13,0 -23,7 -23,15 0,0 -13,7 -13,15 0,5 6,8 13,8 0,5 8,8 18,8 11,0 21,-6 21,-13 0,0 6,2 13,2 23,0 24,-32 41,-44 -7,-5 -13,-14 -13,-14 0,-11 6,-12 6,-20 -10,-28 7,-34 15,-57 -2,-25 -16,-19 -16,-36 -5,-5 -10,-10 -10,-27 0,-35 25,-21 56,-21 59,0 64,-41 64,-91 0,-54 -18,-114 -18,-169 0,-26 2,-50 6,-71 16,-9 28,-23 28,-51z"/>
    </g>
   </g>
   <path class="fil4" d="M1792 2485c0,-183 -149,-332 -332,-332 -184,0 -332,149 -332,332 0,184 148,333 332,333 183,0 332,-149 332,-333zm-332 -325c53,0 102,12 146,35 -14,9 -29,18 -43,28 -55,-4 -99,-4 -143,1 -26,-16 -53,-30 -80,-41 37,-15 78,-23 120,-23l0 0zm151 37c74,39 132,106 158,187 -13,12 -25,23 -38,32 -30,-30 -68,-55 -104,-78 -13,-37 -33,-73 -60,-112 14,-10 29,-20 44,-29l0 0zm154 401c-31,85 -96,153 -179,188l-2 -5c-4,-12 -9,-23 -14,-35 34,-53 41,-78 56,-115 13,-7 27,-14 40,-22 22,-12 45,-27 65,-43 11,10 23,21 34,33l0 -1zm-183 190c-38,15 -79,23 -122,23 -43,0 -83,-8 -120,-22 6,-3 11,-5 17,-8 24,-10 48,-21 71,-33 52,4 100,4 138,0 5,12 9,23 14,35l2 5 0 0zm-248 -2c-55,-23 -103,-61 -138,-109 -1,-10 -1,-21 -2,-30 -1,-15 -2,-29 -2,-44 27,-15 53,-31 80,-46 7,6 15,12 23,17 14,10 29,19 43,27 18,10 35,20 54,29 10,39 20,76 33,115 -23,12 -46,22 -69,32 -7,3 -15,6 -22,9l0 0zm-143 -117c-23,-34 -40,-73 -49,-114 15,15 30,31 45,47 1,15 2,30 3,45 0,7 1,15 1,22l0 0zm-43 -276c9,-32 23,-62 42,-89 -1,21 -2,43 -2,64 -14,9 -27,17 -40,25zm47 -96c35,-49 83,-88 139,-112 28,12 56,26 81,41 -8,33 -16,72 -22,110 -22,10 -42,22 -62,34 -20,12 -40,26 -60,39 -25,-14 -53,-28 -78,-42 0,-21 0,-42 2,-63 0,-2 0,-5 0,-7l0 0zm428 330c-40,-23 -80,-46 -107,-69 2,-26 2,-51 2,-77 0,-24 0,-47 -2,-71 44,-25 73,-45 110,-68 35,22 72,48 102,77 5,44 9,87 2,143 -21,15 -44,30 -67,43 -13,8 -26,15 -40,22l0 0zm-112 -69c-40,27 -79,50 -116,69 -19,-9 -37,-19 -54,-30 -15,-8 -29,-17 -43,-27 -8,-5 -16,-11 -24,-17 -2,-47 -3,-90 -2,-138 20,-15 41,-28 62,-41 19,-12 40,-24 62,-34 49,23 84,46 116,70 1,24 2,47 2,71 0,26 -1,51 -3,77l0 0z"/>
   <path class="fil4" d="M1460 4061c88,0 176,-11 262,-33 367,-93 655,-368 848,-683 238,-389 346,-859 346,-1312 0,-454 -108,-923 -346,-1312 -193,-316 -481,-590 -848,-684 -86,-21 -174,-33 -262,-33 -89,0 -177,12 -263,33 -366,94 -655,368 -847,684 -238,389 -347,858 -347,1312 0,453 109,923 347,1312 192,315 481,590 847,683 86,22 174,33 263,33zm-492 -348l0 -606 192 0 0 699c50,17 99,26 141,27l63 2 0 -553 96 0 96 0 0 553 62 -2c42,-1 91,-10 142,-27l0 -699 192 0 0 606c78,-52 145,-117 180,-188 16,-33 24,-68 24,-105l0 -931 192 0 0 922 114 -207c194,-353 282,-770 282,-1171 0,-401 -88,-818 -282,-1171l-114 -207 0 922 -192 0 0 -931c0,-37 -8,-72 -24,-105 -35,-71 -102,-136 -180,-188l0 428 -192 0 0 -521c-51,-17 -100,-26 -142,-27l-62 -2 0 321 -96 0 -96 0 0 -321 -63 2c-42,1 -91,10 -141,27l0 521 -192 0 0 -428c-79,52 -146,117 -180,188 -16,33 -24,68 -24,105l0 931 -192 0 0 -922 -114 207c-195,353 -282,770 -282,1171 0,401 87,818 282,1171l114 207 0 -922 192 0 0 931c0,37 8,72 24,105 34,71 101,136 180,188z"/>
  </g>
 </g>
</svg>
