<?xml version="1.0" encoding="UTF-8"?>
<svg xmlns="http://www.w3.org/2000/svg" xmlns:xlink="http://www.w3.org/1999/xlink" width="308.193571627" height="324.471401114" viewBox="0 0 284 299" version="1.1">
<g id="surface1">
<path style=" stroke:none;fill-rule:nonzero;fill:rgb(74.901961%,61.568627%,10.588235%);fill-opacity:1;" d="M 129.070312 51.726562 L 142.007812 42.660156 L 154.960938 51.726562 L 150.324219 36.636719 L 162.953125 27.132812 L 147.152344 26.867188 L 142.007812 11.933594 L 136.875 26.867188 L 121.074219 27.132812 L 133.703125 36.636719 Z M 129.070312 51.726562 "/>
<path style=" stroke:none;fill-rule:nonzero;fill:rgb(85.882353%,10.980392%,18.823529%);fill-opacity:1;" d="M 51.875 138.738281 C 49.335938 137.800781 46.535156 138.835938 45.574219 141.433594 C 44.609375 144.03125 46.0625 146.632812 48.605469 147.574219 C 51.234375 148.542969 54.019531 147.269531 54.90625 144.878906 C 55.792969 142.484375 54.507812 139.710938 51.875 138.738281 "/>
<path style=" stroke:none;fill-rule:nonzero;fill:rgb(85.882353%,10.980392%,18.823529%);fill-opacity:1;" d="M 63.304688 114.457031 C 61.941406 113.402344 61.015625 114.109375 60.171875 115.199219 L 59.921875 115.519531 L 63.140625 118.015625 L 63.371094 117.71875 C 64.226562 116.617188 64.695312 115.535156 63.304688 114.457031 "/>
<path style=" stroke:none;fill-rule:nonzero;fill:rgb(85.882353%,10.980392%,18.823529%);fill-opacity:1;" d="M 130.707031 81.472656 L 127.953125 76.839844 L 126.59375 82.050781 Z M 130.707031 81.472656 "/>
<path style=" stroke:none;fill-rule:nonzero;fill:rgb(85.882353%,10.980392%,18.823529%);fill-opacity:1;" d="M 78.671875 96.34375 L 78.363281 96.582031 L 81.074219 100.109375 L 81.445312 99.824219 C 82.636719 98.910156 83.75 97.6875 82.558594 96.132812 C 81.386719 94.609375 79.828125 95.457031 78.671875 96.34375 "/>
<path style=" stroke:none;fill-rule:nonzero;fill:rgb(85.882353%,10.980392%,18.823529%);fill-opacity:1;" d="M 68.15625 116.953125 C 66.792969 115.894531 65.46875 117.007812 64.664062 118.046875 L 64.105469 118.761719 L 67.46875 121.371094 L 68.160156 120.480469 C 68.992188 119.40625 69.53125 118.019531 68.15625 116.953125 "/>
<path style=" stroke:none;fill-rule:nonzero;fill:rgb(85.882353%,10.980392%,18.823529%);fill-opacity:1;" d="M 242.714844 176.523438 L 234.582031 176.996094 L 234.46875 175.046875 L 242.324219 174.589844 C 243.929688 174.496094 244.726562 173.566406 244.628906 171.902344 L 244.253906 165.441406 L 245.585938 165.363281 L 245.992188 172.304688 C 246.148438 175.003906 245.074219 176.386719 242.714844 176.523438 M 233.960938 166.367188 L 240.199219 166.003906 L 240.867188 167.941406 L 234.078125 168.335938 Z M 231.71875 154.335938 L 233.070312 154.066406 L 233.949219 158.503906 C 234.476562 161.148438 236.121094 162.234375 238.828125 161.699219 L 239.339844 161.597656 C 241.007812 161.269531 242.152344 160.652344 242.730469 159.765625 C 243.195312 159.035156 243.316406 158.089844 243.09375 156.957031 C 242.902344 156 242.566406 155.269531 242.09375 154.789062 C 241.484375 154.167969 240.5625 153.96875 239.355469 154.207031 C 238.832031 154.3125 238.390625 154.464844 238.035156 154.664062 L 236.949219 153.097656 C 237.324219 152.785156 238 152.53125 238.964844 152.339844 C 240.25 152.082031 241.390625 152.34375 242.367188 153.105469 C 243.355469 153.878906 244.027344 155.132812 244.367188 156.84375 C 244.695312 158.5 244.542969 159.894531 243.910156 160.992188 C 243.175781 162.261719 241.800781 163.101562 239.820312 163.492188 L 239.375 163.582031 C 237.628906 163.925781 236.140625 163.667969 234.941406 162.808594 C 233.75 161.957031 232.960938 160.605469 232.605469 158.792969 Z M 230.339844 149.902344 L 241.519531 146.578125 L 242.074219 148.449219 L 230.894531 151.769531 Z M 228.683594 142.6875 C 227.976562 142.007812 227.238281 141.210938 226.484375 140.320312 C 225.773438 139.480469 225.027344 138.519531 224.261719 137.472656 L 225.589844 136.933594 C 225.824219 137.242188 226.113281 137.609375 226.457031 138.027344 C 226.816406 138.464844 227.246094 138.980469 227.738281 139.570312 L 228.066406 139.964844 L 236.542969 133.296875 L 237.335938 135.261719 L 229.210938 141.277344 L 229.375 141.453125 C 230.03125 142.160156 230.65625 142.667969 231.226562 142.960938 C 231.941406 143.367188 232.613281 143.574219 233.257812 143.574219 C 233.921875 143.566406 234.816406 143.335938 235.988281 142.859375 L 239.792969 141.324219 L 240.550781 143.195312 L 237.824219 144.296875 C 235.773438 145.125 233.984375 145.363281 232.507812 145.003906 C 231.238281 144.695312 229.953125 143.917969 228.683594 142.6875 M 221.464844 130.050781 L 222.660156 129.378906 C 223.730469 130.453125 224.894531 131.1875 226.121094 131.566406 C 227.265625 131.90625 228.460938 131.738281 229.664062 131.0625 L 232.910156 129.238281 L 229.136719 122.535156 L 233.929688 119.847656 L 234.902344 121.539062 L 231.261719 123.585938 L 235.035156 130.285156 L 231.527344 132.253906 C 229.789062 133.234375 228.117188 133.535156 226.554688 133.148438 C 224.683594 132.695312 222.972656 131.652344 221.464844 130.050781 M 217.582031 123.765625 L 210.734375 115.273438 L 211.84375 114.382812 L 216.542969 120.214844 L 221.441406 116.273438 C 222.105469 115.738281 222.484375 115.164062 222.5625 114.558594 C 222.644531 113.953125 222.421875 113.320312 221.90625 112.683594 L 218.996094 109.070312 L 220.035156 108.234375 L 223.191406 112.148438 C 223.648438 112.710938 223.984375 113.253906 224.1875 113.761719 C 224.386719 114.246094 224.46875 114.71875 224.425781 115.167969 C 224.386719 115.605469 224.222656 116.042969 223.945312 116.460938 C 223.660156 116.894531 223.25 117.324219 222.726562 117.746094 L 217.769531 121.734375 L 218.691406 122.875 Z M 210.566406 108.59375 C 210.441406 110.070312 210.25 112.03125 209.996094 114.421875 L 208.410156 112.910156 L 209.308594 103.867188 L 209.140625 103.816406 C 207.898438 103.457031 206.953125 103.613281 206.324219 104.269531 L 202.996094 107.769531 L 201.59375 106.441406 L 204.339844 103.558594 C 204.949219 102.914062 205.546875 102.523438 206.105469 102.402344 C 206.761719 102.285156 207.789062 102.410156 209.152344 102.769531 L 209.410156 102.835938 L 209.5625 97.933594 L 211.21875 99.507812 C 211.152344 101.238281 211 103.8125 210.761719 107.15625 L 210.75 107.328125 L 210.914062 107.378906 C 211.640625 107.597656 212.222656 107.667969 212.648438 107.585938 C 213.09375 107.5 213.539062 107.222656 213.984375 106.761719 L 216.296875 104.328125 L 217.730469 105.6875 L 215.683594 107.835938 C 215.15625 108.390625 214.523438 108.726562 213.804688 108.824219 C 213.070312 108.929688 212.070312 108.785156 210.84375 108.410156 L 210.585938 108.328125 Z M 198.328125 104.023438 L 202.683594 98.085938 C 203.828125 96.527344 203.65625 95.132812 202.183594 94.058594 L 198.773438 91.5625 L 199.5625 90.484375 L 203.164062 93.117188 C 204.375 94.003906 205.097656 94.90625 205.316406 95.792969 C 205.558594 96.796875 205.226562 97.921875 204.335938 99.136719 L 199.90625 105.179688 Z M 195.199219 94.835938 L 191.496094 92.566406 L 192.207031 91.414062 L 195.910156 93.679688 Z M 187.675781 92.300781 C 186.609375 93.003906 185.230469 93.363281 183.566406 93.363281 L 183.320312 93.359375 C 181.351562 93.324219 178.71875 92.632812 175.484375 91.304688 L 179.46875 80.023438 L 181.300781 80.871094 L 177.667969 90.742188 L 177.871094 90.816406 C 180.015625 91.578125 181.816406 91.984375 183.214844 92.023438 C 184.59375 92.054688 185.6875 91.773438 186.476562 91.167969 C 187.21875 90.628906 187.933594 89.625 188.601562 88.183594 L 190.101562 84.933594 L 191.875 85.753906 L 190.53125 88.664062 C 189.757812 90.335938 188.796875 91.558594 187.675781 92.300781 M 174.605469 82.546875 L 172.804688 88.640625 L 174.207031 89.058594 L 173.804688 90.417969 L 163.335938 87.324219 L 163.738281 85.964844 L 170.925781 88.085938 L 172.710938 82.066406 C 173.195312 80.425781 172.621094 79.3125 171.046875 78.847656 L 166.597656 77.53125 L 166.976562 76.25 L 171.804688 77.675781 C 172.503906 77.886719 173.089844 78.140625 173.539062 78.4375 C 173.980469 78.726562 174.3125 79.070312 174.535156 79.457031 C 174.75 79.84375 174.867188 80.296875 174.878906 80.796875 C 174.890625 81.3125 174.796875 81.902344 174.605469 82.546875 M 157.390625 85.4375 C 156.445312 85.691406 155.382812 85.914062 154.222656 86.097656 C 153.140625 86.273438 151.933594 86.417969 150.632812 86.53125 L 150.855469 85.117188 C 151.214844 85.082031 151.671875 85.023438 152.238281 84.9375 C 152.875 84.84375 153.636719 84.730469 154.527344 84.589844 L 154.734375 84.558594 L 153.386719 73.867188 L 155.480469 74.199219 L 156.449219 84.257812 L 156.683594 84.210938 C 157.625 84.015625 158.382812 83.742188 158.933594 83.402344 C 159.667969 82.988281 160.199219 82.507812 160.507812 81.980469 C 160.84375 81.410156 161.101562 80.527344 161.300781 79.277344 L 161.945312 75.226562 L 163.945312 75.542969 L 163.480469 78.449219 C 163.132812 80.632812 162.414062 82.285156 161.347656 83.359375 C 160.425781 84.289062 159.09375 84.988281 157.390625 85.4375 M 184.832031 82.5 L 186.484375 83.265625 L 183.6875 89.300781 L 181.742188 89.175781 Z M 133.257812 85.640625 L 131.503906 82.773438 L 126.195312 83.523438 L 125.308594 86.757812 L 123.757812 86.976562 L 127.480469 73.515625 L 134.804688 85.421875 Z M 121.089844 88.40625 L 113.144531 76.992188 L 114.699219 76.625 L 120.195312 84.664062 L 121.46875 75.019531 L 123.019531 74.652344 Z M 109.886719 91.09375 L 105.917969 79.46875 L 111.859375 77.449219 L 112.3125 78.773438 L 107.75 80.328125 L 108.863281 83.578125 L 113.292969 82.070312 L 113.742188 83.398438 L 109.316406 84.90625 L 110.8125 89.296875 L 115.375 87.746094 L 115.828125 89.070312 Z M 106.96875 92.257812 L 104.539062 86.878906 L 99.46875 89.167969 L 101.902344 94.542969 L 100.574219 95.140625 L 95.503906 83.945312 L 96.832031 83.347656 L 98.875 87.859375 L 103.945312 85.574219 L 101.902344 81.0625 L 103.230469 80.464844 L 108.300781 91.65625 Z M 96.5 97.753906 C 94.863281 98.699219 92.855469 98.164062 91.65625 96.578125 L 92.765625 95.5625 C 93.429688 96.742188 94.804688 97.074219 95.890625 96.449219 C 96.980469 95.824219 97.203125 94.414062 96.558594 93.300781 C 95.902344 92.160156 94.746094 92.167969 93.652344 92.289062 L 92.773438 92.382812 C 91.320312 92.527344 89.875 92.4375 89.019531 90.957031 C 88.023438 89.238281 88.878906 87.371094 90.410156 86.488281 C 91.539062 85.839844 92.796875 85.882812 93.941406 86.597656 L 93.300781 87.808594 C 92.542969 87.363281 91.863281 87.304688 91.097656 87.746094 C 90.296875 88.210938 89.742188 89.296875 90.28125 90.230469 C 90.761719 91.0625 91.789062 91.050781 92.570312 90.941406 L 93.464844 90.820312 C 95.242188 90.582031 96.796875 90.796875 97.824219 92.574219 C 98.9375 94.503906 98.3125 96.707031 96.5 97.753906 M 87.640625 97.980469 L 86.929688 96.914062 L 89.675781 95.085938 L 90.386719 96.15625 Z M 88.257812 102.753906 L 82.332031 100.746094 L 81.847656 101.117188 L 85.015625 105.242188 L 83.847656 106.136719 L 76.359375 96.390625 L 77.777344 95.304688 C 78.609375 94.664062 79.511719 93.992188 80.597656 93.859375 C 81.746094 93.738281 82.898438 94.3125 83.613281 95.246094 C 84.683594 96.640625 84.683594 98.488281 83.460938 99.695312 L 89.675781 101.667969 Z M 78.046875 111.34375 L 69.753906 102.285156 L 74.425781 98.011719 L 75.371094 99.046875 L 71.78125 102.328125 L 74.105469 104.859375 L 77.589844 101.675781 L 78.535156 102.707031 L 75.050781 105.894531 L 78.183594 109.316406 L 81.777344 106.035156 L 82.722656 107.070312 Z M 72.679688 117.035156 L 63.644531 108.699219 L 67.941406 104.046875 L 68.96875 104.996094 L 65.671875 108.570312 L 68.199219 110.902344 L 71.402344 107.433594 L 72.433594 108.382812 L 69.230469 111.851562 L 72.644531 115.003906 L 75.945312 111.429688 L 76.972656 112.382812 Z M 69.335938 121.195312 L 67.644531 123.371094 L 57.9375 115.84375 L 58.820312 114.707031 C 60.183594 112.949219 61.945312 111.664062 64.136719 113.359375 C 64.84375 113.910156 65.378906 114.921875 65.199219 115.789062 L 65.226562 115.8125 C 66.285156 114.871094 68.003906 114.972656 69.136719 115.851562 C 71.078125 117.359375 70.613281 119.550781 69.335938 121.195312 M 62.316406 131.714844 L 51.765625 125.421875 L 52.519531 124.15625 L 61.867188 129.734375 L 63.707031 126.660156 L 64.910156 127.378906 Z M 58.703125 138.664062 L 47.710938 133.160156 L 50.546875 127.5 L 51.800781 128.128906 L 49.621094 132.472656 L 52.699219 134.011719 L 54.816406 129.792969 L 56.066406 130.421875 L 53.953125 134.640625 L 58.105469 136.722656 L 60.285156 132.378906 L 61.539062 133.007812 Z M 56.25 145.375 C 55.066406 148.574219 51.519531 150.214844 48.09375 148.953125 C 44.789062 147.730469 43.054688 144.105469 44.226562 140.933594 C 45.398438 137.765625 49.082031 136.140625 52.386719 137.359375 C 55.8125 138.625 57.4375 142.175781 56.25 145.375 M 52.40625 157.421875 L 40.476562 154.449219 L 40.886719 152.808594 C 41.765625 149.289062 43.304688 148.511719 45.492188 149.054688 C 48.007812 149.683594 48.511719 151.757812 47.96875 153.929688 L 47.761719 154.75 L 52.765625 155.996094 Z M 51.917969 159.550781 L 48.671875 160.429688 L 47.878906 165.785156 L 50.730469 167.566406 L 50.5 169.128906 L 38.644531 161.6875 L 52.148438 157.984375 Z M 50.480469 171.027344 L 44.582031 170.824219 L 44.382812 176.433594 L 50.285156 176.640625 L 50.234375 178.109375 L 37.941406 177.683594 L 37.992188 176.214844 L 42.949219 176.382812 L 43.144531 170.773438 L 38.191406 170.601562 L 38.238281 169.132812 L 50.535156 169.558594 Z M 142.011719 66.125 C 80.917969 66.125 31.390625 115.597656 31.390625 176.628906 C 31.390625 179.335938 31.527344 182.015625 31.714844 184.679688 L 56.839844 184.679688 C 56.605469 182.101562 56.46875 179.5 56.46875 176.863281 C 56.46875 129.667969 94.765625 91.414062 142.011719 91.414062 C 189.257812 91.414062 227.5625 129.667969 227.5625 176.863281 C 227.5625 179.5 227.425781 182.101562 227.191406 184.679688 L 252.316406 184.679688 C 252.507812 182.015625 252.636719 179.335938 252.636719 176.628906 C 252.636719 115.597656 203.109375 66.125 142.011719 66.125 "/>
<path style=" stroke:none;fill-rule:nonzero;fill:rgb(85.882353%,10.980392%,18.823529%);fill-opacity:1;" d="M 45.125 150.382812 C 43.257812 149.917969 42.609375 151.5625 42.257812 152.972656 L 42.164062 153.351562 L 46.433594 154.417969 L 46.546875 153.960938 C 46.914062 152.503906 47.023438 150.855469 45.125 150.382812 "/>
<path style=" stroke:none;fill-rule:nonzero;fill:rgb(85.882353%,10.980392%,18.823529%);fill-opacity:1;" d="M 46.582031 164.976562 L 47.195312 160.828125 L 41.96875 162.179688 Z M 46.582031 164.976562 "/>
<path style=" stroke:none;fill-rule:nonzero;fill:rgb(85.882353%,10.980392%,18.823529%);fill-opacity:1;" d="M 95.617188 222.097656 C 99.65625 228.777344 105.613281 236.449219 108.058594 239.527344 C 112.597656 239.773438 125.792969 240.441406 134.5 240.441406 C 142.675781 240.441406 153.296875 238.917969 156.601562 238.40625 C 158.113281 235.03125 162.089844 226.335938 166.066406 219.140625 C 169.457031 213.027344 173.695312 206.714844 175.523438 204.058594 C 173.832031 201.300781 169.832031 194.789062 166.578125 189.453125 L 92 189.453125 C 89.023438 195.425781 86.550781 200.792969 85.683594 202.703125 C 87.277344 206.246094 91.382812 215.09375 95.617188 222.097656 "/>
<path style=" stroke:none;fill-rule:nonzero;fill:rgb(85.882353%,10.980392%,18.823529%);fill-opacity:1;" d="M 54.867188 199.699219 C 57.28125 200.027344 62.910156 200.730469 69.292969 201.136719 C 75.191406 201.503906 81.203125 201.316406 83.734375 201.203125 C 84.695312 199.097656 86.796875 194.570312 89.324219 189.453125 L 49.980469 189.453125 C 51.824219 193.796875 53.710938 197.527344 54.867188 199.699219 "/>
<path style=" stroke:none;fill-rule:nonzero;fill:rgb(85.882353%,10.980392%,18.823529%);fill-opacity:1;" d="M 177.472656 202.640625 C 180.25 202.351562 188.277344 201.566406 196.648438 201.136719 C 201.640625 200.878906 209.859375 201.023438 213.09375 201.101562 C 214.324219 198.742188 216.679688 194.191406 219 189.453125 L 169.382812 189.453125 C 172.417969 194.417969 175.867188 200.027344 177.472656 202.640625 "/>
<path style=" stroke:none;fill-rule:nonzero;fill:rgb(85.882353%,10.980392%,18.823529%);fill-opacity:1;" d="M 172.820312 270.769531 C 176.804688 265.34375 178.359375 261.542969 178.835938 260.214844 C 176.820312 259.066406 172.246094 256.296875 167.660156 252.472656 C 162.90625 248.492188 158.453125 243.035156 156.730469 240.832031 C 153.125 241.378906 142.648438 242.863281 134.5 242.863281 C 126.003906 242.863281 113.300781 242.234375 108.371094 241.96875 C 106.742188 244.109375 102.925781 249.046875 100.132812 252.203125 C 97.074219 255.65625 94.382812 258.253906 92.957031 259.574219 C 95.101562 261.988281 100.085938 267.554688 103.402344 270.59375 L 104.277344 271.40625 C 108.46875 275.253906 115.0625 280.296875 121.777344 285.214844 C 128.347656 286.445312 135.117188 287.09375 142.035156 287.09375 C 147.648438 287.09375 153.164062 286.664062 158.554688 285.84375 C 161.976562 282.691406 168.886719 276.117188 172.820312 270.769531 "/>
<path style=" stroke:none;fill-rule:nonzero;fill:rgb(85.882353%,10.980392%,18.823529%);fill-opacity:1;" d="M 56.472656 234.148438 C 55.605469 231.449219 53.632812 224.664062 52.8125 216.996094 C 52.078125 210.183594 52.714844 204.570312 53.191406 201.664062 C 52.027344 199.519531 49.628906 194.917969 47.375 189.453125 L 32.230469 189.453125 C 34.265625 205.550781 39.703125 220.589844 47.78125 233.8125 C 49.855469 233.964844 53.140625 234.199219 54.339844 234.199219 C 55.074219 234.199219 55.871094 234.171875 56.472656 234.148438 "/>
<path style=" stroke:none;fill-rule:nonzero;fill:rgb(85.882353%,10.980392%,18.823529%);fill-opacity:1;" d="M 221.667969 189.453125 C 218.8125 195.339844 215.785156 201.140625 214.714844 203.164062 C 215.164062 206.78125 216.058594 214.492188 216.320312 220.222656 C 216.589844 226.316406 215.796875 233.972656 215.429688 237.082031 C 217.03125 237.929688 220.175781 239.570312 222.171875 240.574219 C 224.78125 241.890625 228.800781 243.0625 229.777344 243.335938 C 241.453125 228.011719 249.300781 209.558594 251.847656 189.453125 Z M 221.667969 189.453125 "/>
<path style=" stroke:none;fill-rule:nonzero;fill:rgb(85.882353%,10.980392%,18.823529%);fill-opacity:1;" d="M 214.441406 239.292969 C 212.292969 241.363281 206.101562 247.121094 199.042969 251.660156 C 192.453125 255.902344 184.425781 259.113281 181.265625 260.304688 L 181.3125 260.316406 C 181.265625 260.503906 179.992188 265.054688 174.742188 272.214844 C 171.09375 277.179688 165.910156 282.292969 162.925781 285.09375 C 189.136719 280.011719 212.089844 265.554688 228.230469 245.316406 C 226.601562 244.867188 223.441406 243.917969 221.101562 242.738281 C 219.140625 241.75 216.085938 240.152344 214.441406 239.292969 "/>
<path style=" stroke:none;fill-rule:nonzero;fill:rgb(85.882353%,10.980392%,18.823529%);fill-opacity:1;" d="M 101.789062 272.382812 C 97.40625 268.355469 90.425781 260.332031 90.128906 259.988281 L 90.390625 259.753906 C 87.054688 257.992188 78.761719 253.464844 72.222656 248.710938 C 65.316406 243.6875 59.796875 238.515625 57.859375 236.570312 L 57.605469 236.515625 C 57.535156 236.515625 55.855469 236.617188 54.339844 236.617188 C 53.179688 236.617188 50.96875 236.453125 49.355469 236.320312 C 64.683594 259.988281 88.636719 277.457031 116.660156 284.125 C 110.609375 279.746094 106.808594 277 102.667969 273.191406 Z M 101.789062 272.382812 "/>
<path style=" stroke:none;fill-rule:nonzero;fill:rgb(85.882353%,10.980392%,18.823529%);fill-opacity:1;" d="M 97.089844 159.28125 L 97.089844 161.585938 L 100.535156 161.585938 L 102.371094 153.371094 L 97.78125 153.371094 L 97.78125 150.300781 L 95.558594 150.300781 L 95.558594 155.601562 L 99.082031 155.601562 L 98.46875 159.28125 Z M 97.089844 159.28125 "/>
<path style=" stroke:none;fill-rule:nonzero;fill:rgb(85.882353%,10.980392%,18.823529%);fill-opacity:1;" d="M 110.558594 153.371094 L 107.269531 153.371094 L 107.269531 155.601562 L 107.882812 155.601562 L 107.882812 157.980469 L 105.738281 153.371094 L 102.832031 153.371094 L 102.832031 155.601562 L 103.980469 155.601562 L 105.507812 159.28125 L 102.832031 159.28125 L 102.832031 161.585938 L 110.558594 161.585938 Z M 110.558594 153.371094 "/>
<path style=" stroke:none;fill-rule:nonzero;fill:rgb(85.882353%,10.980392%,18.823529%);fill-opacity:1;" d="M 131.074219 153.371094 L 124.566406 153.371094 L 124.566406 157.289062 L 127.167969 157.289062 L 127.167969 155.597656 L 128.46875 155.597656 L 128.46875 159.28125 L 124.566406 159.28125 L 124.566406 161.585938 L 131.074219 161.585938 Z M 131.074219 153.371094 "/>
<path style=" stroke:none;fill-rule:nonzero;fill:rgb(85.882353%,10.980392%,18.823529%);fill-opacity:1;" d="M 134.976562 157.289062 L 132.296875 157.289062 L 132.296875 161.585938 L 134.976562 161.585938 Z M 134.976562 157.289062 "/>
<path style=" stroke:none;fill-rule:nonzero;fill:rgb(85.882353%,10.980392%,18.823529%);fill-opacity:1;" d="M 138.265625 161.585938 L 138.265625 153.371094 L 132.296875 153.371094 L 132.296875 155.601562 L 135.816406 155.601562 L 135.816406 161.585938 Z M 138.265625 161.585938 "/>
<path style=" stroke:none;fill-rule:nonzero;fill:rgb(85.882353%,10.980392%,18.823529%);fill-opacity:1;" d="M 126.175781 148.957031 L 122.21875 129.902344 L 119.84375 129.582031 L 121.742188 127.519531 L 123.957031 122.441406 L 134.882812 121.488281 L 126.175781 114.023438 C 126.390625 111.820312 124.089844 111.371094 123.109375 112.363281 C 121.953125 113.3125 122.828125 115.871094 124.75 115.132812 L 128.28125 119.257812 L 120.785156 118.105469 L 119.632812 116.207031 C 120.195312 115.375 119.890625 111.585938 119.367188 111.644531 C 118.046875 110.910156 116.519531 110.789062 114.933594 110.847656 C 114.402344 111.265625 114.136719 111.808594 114.128906 112.488281 L 114.933594 112.59375 L 115.25 115.792969 C 115.777344 116.144531 116.304688 116.292969 116.832031 116.246094 L 117.335938 117.714844 L 104.316406 115.378906 C 114.832031 105.757812 132.8125 108.503906 136.785156 124.503906 C 139.660156 137.738281 133.589844 146.363281 126.175781 148.957031 M 123.183594 150.453125 L 118.484375 156.09375 L 110.847656 148.519531 L 118.90625 135.304688 L 124.78125 149.695312 Z M 141.90625 124.53125 C 139.21875 106.402344 115.742188 100.875 102.371094 115.015625 L 98.339844 114.425781 C 92.183594 111.875 93.75 120.09375 98.757812 116.109375 L 113.449219 120.402344 L 115.96875 130.167969 L 109.839844 147.507812 L 99.765625 137.492188 C 97.804688 135.328125 93.828125 138.667969 96.46875 141.027344 L 117.34375 157.375 L 113.753906 161.589844 L 117.8125 165.277344 L 123.796875 158.609375 L 123.773438 151.96875 C 135.945312 147.550781 143.613281 139.527344 141.90625 124.53125 "/>
<path style=" stroke:none;fill-rule:nonzero;fill:rgb(85.882353%,10.980392%,18.823529%);fill-opacity:1;" d="M 115.691406 148.460938 L 116.605469 148.460938 L 116.605469 153.371094 L 119.210938 153.371094 L 119.210938 146.160156 L 115.691406 146.160156 Z M 115.691406 148.460938 "/>
<path style=" stroke:none;fill-rule:nonzero;fill:rgb(85.882353%,10.980392%,18.823529%);fill-opacity:1;" d="M 179.402344 120.0625 L 175.550781 123.910156 L 175.550781 184.753906 L 177.390625 184.753906 L 177.390625 123.910156 L 181.246094 120.0625 L 181.246094 110.425781 L 179.402344 109.304688 Z M 179.402344 120.0625 "/>
<path style=" stroke:none;fill-rule:nonzero;fill:rgb(85.882353%,10.980392%,18.823529%);fill-opacity:1;" d="M 155.125 109.542969 L 155.125 120.257812 L 158.972656 123.910156 L 158.972656 184.753906 L 160.816406 184.753906 L 160.816406 122.859375 L 156.964844 119.351562 L 156.964844 110.265625 Z M 155.125 109.542969 "/>
<path style=" stroke:none;fill-rule:nonzero;fill:rgb(85.882353%,10.980392%,18.823529%);fill-opacity:1;" d="M 157.898438 117.875 L 157.894531 117.875 L 163.199219 122.59375 L 168.503906 117.875 L 168.527344 117.875 L 168.527344 106.484375 C 165.085938 105.230469 161.550781 104.179688 157.917969 103.378906 Z M 157.898438 117.875 "/>
<path style=" stroke:none;fill-rule:nonzero;fill:rgb(85.882353%,10.980392%,18.823529%);fill-opacity:1;" d="M 176.480469 104.3125 C 175.589844 103.90625 174.6875 103.503906 173.78125 103.125 C 173.277344 102.914062 172.773438 102.707031 172.265625 102.507812 C 171.953125 102.382812 171.652344 102.246094 171.335938 102.125 L 171.335938 102.160156 C 167.011719 100.503906 162.539062 99.148438 157.917969 98.183594 L 157.917969 101.617188 C 162.546875 102.640625 167.027344 104.054688 171.335938 105.804688 L 171.335938 118.640625 L 165.367188 123.886719 L 165.367188 184.707031 L 174.046875 184.707031 L 174.015625 123.886719 L 177.8125 120.09375 L 177.8125 104.917969 C 177.792969 104.90625 177.773438 104.898438 177.75 104.890625 L 177.75 104.871094 C 177.335938 104.675781 176.90625 104.503906 176.480469 104.3125 "/>
<path style=" stroke:none;fill-rule:nonzero;fill:rgb(85.882353%,10.980392%,18.823529%);fill-opacity:1;" d="M 144.140625 184.753906 L 148.324219 184.753906 L 148.324219 171.019531 L 144.140625 171.019531 Z M 144.140625 184.753906 "/>
<path style=" stroke:none;fill-rule:nonzero;fill:rgb(85.882353%,10.980392%,18.823529%);fill-opacity:1;" d="M 187.757812 184.753906 L 191.9375 184.753906 L 191.9375 171.019531 L 187.757812 171.019531 Z M 187.757812 184.753906 "/>
<path style=" stroke:none;fill-rule:nonzero;fill:rgb(85.882353%,10.980392%,18.823529%);fill-opacity:1;" d="M 180.289062 184.753906 L 184.46875 184.753906 L 184.46875 171.019531 L 180.289062 171.019531 Z M 180.289062 184.753906 "/>
<path style=" stroke:none;fill-rule:nonzero;fill:rgb(85.882353%,10.980392%,18.823529%);fill-opacity:1;" d="M 195.222656 184.753906 L 199.40625 184.753906 L 199.40625 171.019531 L 195.222656 171.019531 Z M 195.222656 184.753906 "/>
<path style=" stroke:none;fill-rule:nonzero;fill:rgb(85.882353%,10.980392%,18.823529%);fill-opacity:1;" d="M 151.605469 184.753906 L 155.789062 184.753906 L 155.789062 171.019531 L 151.605469 171.019531 Z M 151.605469 184.753906 "/>
<path style=" stroke:none;fill-rule:nonzero;fill:rgb(85.882353%,10.980392%,18.823529%);fill-opacity:1;" d="M 210.15625 184.753906 L 214.335938 184.753906 L 214.335938 171.019531 L 210.15625 171.019531 Z M 210.15625 184.753906 "/>
<path style=" stroke:none;fill-rule:nonzero;fill:rgb(85.882353%,10.980392%,18.823529%);fill-opacity:1;" d="M 140.855469 171.019531 L 136.675781 171.019531 L 136.675781 184.753906 L 140.855469 184.753906 Z M 140.855469 171.019531 "/>
<path style=" stroke:none;fill-rule:nonzero;fill:rgb(85.882353%,10.980392%,18.823529%);fill-opacity:1;" d="M 221.804688 171.019531 L 217.621094 171.019531 L 217.621094 184.753906 L 221.804688 184.753906 Z M 221.804688 171.019531 "/>
<path style=" stroke:none;fill-rule:nonzero;fill:rgb(85.882353%,10.980392%,18.823529%);fill-opacity:1;" d="M 202.691406 184.753906 L 206.867188 184.753906 L 206.867188 171.019531 L 202.691406 171.019531 Z M 202.691406 184.753906 "/>
<path style=" stroke:none;fill-rule:nonzero;fill:rgb(85.882353%,10.980392%,18.823529%);fill-opacity:1;" d="M 84.410156 184.753906 L 88.59375 184.753906 L 88.59375 171.019531 L 84.410156 171.019531 Z M 84.410156 184.753906 "/>
<path style=" stroke:none;fill-rule:nonzero;fill:rgb(85.882353%,10.980392%,18.823529%);fill-opacity:1;" d="M 69.476562 184.753906 L 73.660156 184.753906 L 73.660156 171.019531 L 69.476562 171.019531 Z M 69.476562 184.753906 "/>
<path style=" stroke:none;fill-rule:nonzero;fill:rgb(85.882353%,10.980392%,18.823529%);fill-opacity:1;" d="M 76.945312 184.753906 L 81.125 184.753906 L 81.125 171.019531 L 76.945312 171.019531 Z M 76.945312 184.753906 "/>
<path style=" stroke:none;fill-rule:nonzero;fill:rgb(85.882353%,10.980392%,18.823529%);fill-opacity:1;" d="M 91.878906 184.753906 L 96.058594 184.753906 L 96.058594 171.019531 L 91.878906 171.019531 Z M 91.878906 184.753906 "/>
<path style=" stroke:none;fill-rule:nonzero;fill:rgb(85.882353%,10.980392%,18.823529%);fill-opacity:1;" d="M 62.011719 184.753906 L 66.191406 184.753906 L 66.191406 171.019531 L 62.011719 171.019531 Z M 62.011719 184.753906 "/>
<path style=" stroke:none;fill-rule:nonzero;fill:rgb(85.882353%,10.980392%,18.823529%);fill-opacity:1;" d="M 114.277344 184.753906 L 118.457031 184.753906 L 118.457031 171.019531 L 114.277344 171.019531 Z M 114.277344 184.753906 "/>
<path style=" stroke:none;fill-rule:nonzero;fill:rgb(85.882353%,10.980392%,18.823529%);fill-opacity:1;" d="M 103.523438 171.019531 L 99.34375 171.019531 L 99.34375 184.753906 L 103.523438 184.753906 Z M 103.523438 171.019531 "/>
<path style=" stroke:none;fill-rule:nonzero;fill:rgb(85.882353%,10.980392%,18.823529%);fill-opacity:1;" d="M 121.738281 184.753906 L 125.925781 184.753906 L 125.925781 171.019531 L 121.738281 171.019531 Z M 121.738281 184.753906 "/>
<path style=" stroke:none;fill-rule:nonzero;fill:rgb(85.882353%,10.980392%,18.823529%);fill-opacity:1;" d="M 133.394531 171.019531 L 129.207031 171.019531 L 129.207031 184.753906 L 133.394531 184.753906 Z M 133.394531 171.019531 "/>
<path style=" stroke:none;fill-rule:nonzero;fill:rgb(85.882353%,10.980392%,18.823529%);fill-opacity:1;" d="M 110.988281 171.019531 L 106.808594 171.019531 L 106.808594 184.753906 L 110.988281 184.753906 Z M 110.988281 171.019531 "/>
</g>
</svg>
