<?xml version="1.0" encoding="UTF-8"?>
<!DOCTYPE svg PUBLIC "-//W3C//DTD SVG 1.1//EN" "http://www.w3.org/Graphics/SVG/1.1/DTD/svg11.dtd">
<!-- Creator: CorelDRAW X8 -->
<svg xmlns="http://www.w3.org/2000/svg" xml:space="preserve" width="316" height="316" version="1.1" style="shape-rendering:geometricPrecision; text-rendering:geometricPrecision; image-rendering:optimizeQuality; fill-rule:evenodd; clip-rule:evenodd"
viewBox="0 0 12040 12040"
 xmlns:xlink="http://www.w3.org/1999/xlink">
 <defs>
  <style type="text/css">
   <![CDATA[
    .fil4 {fill:black}
    .fil1 {fill:#0D55B8}
    .fil0 {fill:#0E0B0A}
    .fil3 {fill:black;fill-rule:nonzero}
    .fil2 {fill:#0E0B0A;fill-rule:nonzero}
   ]]>
  </style>
 </defs>
 <g id="Layer_x0020_1">
  <metadata id="CorelCorpID_0Corel-Layer"/>
  <g id="_1080272704">
   <g>
    <path class="fil0" d="M6422 4141l-398 1285 3936 0c29,194 44,392 44,594 0,2200 -1784,3984 -3984,3984 -778,0 -1503,-223 -2117,-609l1627 -5254 -184 0 759 -485 508 485 -191 0zm-459 68c151,20 250,199 184,417l-93 307 -649 0 95 -317c61,-202 205,-442 463,-407z"/>
    <path class="fil1" d="M8191 5426l-1394 4502c-251,49 -511,76 -777,76 -471,0 -922,-82 -1342,-232l1346 -4346 2167 0z"/>
   </g>
   <path class="fil2" d="M6020 20c1657,0 3157,672 4243,1757 1085,1086 1757,2586 1757,4243 0,1657 -672,3157 -1757,4243 -1086,1085 -2586,1757 -4243,1757 -1657,0 -3157,-672 -4243,-1757 -1085,-1086 -1757,-2586 -1757,-4243 0,-1657 672,-3157 1757,-4243 1086,-1085 2586,-1757 4243,-1757zm4122 1878c-1055,-1055 -2512,-1707 -4122,-1707 -1610,0 -3067,652 -4122,1707 -1055,1055 -1707,2512 -1707,4122 0,1610 652,3067 1707,4122 1055,1055 2512,1707 4122,1707 1610,0 3067,-652 4122,-1707 1055,-1055 1707,-2512 1707,-4122 0,-1610 -652,-3067 -1707,-4122z"/>
   <path class="fil2" d="M6020 287c1583,0 3016,642 4054,1679 1037,1038 1679,2471 1679,4054 0,1583 -642,3016 -1679,4054 -1038,1037 -2471,1679 -4054,1679 -1583,0 -3016,-642 -4054,-1679 -1037,-1038 -1679,-2471 -1679,-4054 0,-1583 642,-3016 1679,-4054 1038,-1037 2471,-1679 4054,-1679zm3976 1757c-1018,-1017 -2423,-1646 -3976,-1646 -1553,0 -2958,629 -3976,1646 -1017,1018 -1646,2423 -1646,3976 0,1553 629,2958 1646,3976 1018,1017 2423,1646 3976,1646 1553,0 2958,-629 3976,-1646 1017,-1018 1646,-2423 1646,-3976 0,-1553 -629,-2958 -1646,-3976z"/>
   <path class="fil2" d="M6020 1754c1178,0 2244,478 3016,1250 772,772 1250,1838 1250,3016 0,1178 -478,2244 -1250,3016 -772,772 -1838,1250 -3016,1250 -1178,0 -2244,-478 -3016,-1250 -772,-772 -1250,-1838 -1250,-3016 0,-1178 478,-2244 1250,-3016 772,-772 1838,-1250 3016,-1250zm2938 1328c-752,-752 -1791,-1217 -2938,-1217 -1147,0 -2186,465 -2938,1217 -752,752 -1217,1791 -1217,2938 0,1147 465,2186 1217,2938 752,752 1791,1217 2938,1217 1147,0 2186,-465 2938,-1217 752,-752 1217,-1791 1217,-2938 0,-1147 -465,-2186 -1217,-2938z"/>
   <path class="fil2" d="M6020 1960c1121,0 2136,455 2871,1189 734,735 1189,1750 1189,2871 0,1121 -455,2136 -1189,2871 -735,734 -1750,1189 -2871,1189 -1121,0 -2136,-455 -2871,-1189 -734,-735 -1189,-1750 -1189,-2871 0,-1121 455,-2136 1189,-2871 735,-734 1750,-1189 2871,-1189zm2792 1268c-714,-715 -1702,-1157 -2792,-1157 -1090,0 -2078,442 -2792,1157 -715,714 -1157,1702 -1157,2792 0,1090 442,2078 1157,2792 714,715 1702,1157 2792,1157 1090,0 2078,-442 2792,-1157 715,-714 1157,-1702 1157,-2792 0,-1090 -442,-2078 -1157,-2792z"/>
   <path class="fil2" d="M10406 3602c305,553 509,1170 586,1825l-111 0c-77,-633 -274,-1229 -569,-1764l94 -61zm-8678 61c-295,535 -492,1131 -569,1764l-111 0c77,-655 281,-1272 586,-1825l94 61zm9264 2950c-77,655 -281,1272 -586,1825l-94 -61c295,-535 492,-1131 569,-1764l111 0zm-9358 1825c-305,-553 -509,-1170 -586,-1825l111 0c77,633 274,1229 569,1764l-94 61z"/>
   <path class="fil1" d="M10969 5621l99 305 320 0 -259 188 99 305 -259 -189 -259 189 100 -305 -260 -188 321 0 98 -305zm-9898 0l98 305 321 0 -260 188 100 305 -259 -189 -259 189 99 -305 -259 -188 320 0 99 -305z"/>
   <path class="fil3" d="M1866 9405l554 -483 347 398 -114 100 -224 -257 -115 100 194 223 -115 100 -194 -222 -210 183 -123 -142zm832 340c-48,57 -74,111 -77,161 -2,50 18,94 61,131 44,37 91,50 140,40 49,-11 98,-45 147,-102 48,-56 74,-110 76,-161 3,-50 -18,-94 -61,-131 -44,-37 -90,-50 -139,-40 -49,11 -98,45 -147,102zm-145 -124c77,-91 164,-142 259,-152 95,-10 186,22 273,95 86,74 132,159 138,255 5,97 -30,190 -108,281 -77,91 -164,141 -260,151 -96,9 -187,-22 -273,-96 -87,-74 -132,-158 -138,-254 -5,-96 31,-189 109,-280zm806 627c-37,65 -53,122 -47,172 7,50 35,89 84,118 49,28 98,33 144,14 47,-19 89,-61 127,-126 37,-64 52,-122 46,-172 -7,-50 -35,-90 -84,-118 -50,-29 -97,-33 -144,-14 -46,19 -88,61 -126,126zm-165 -96c60,-103 136,-169 228,-196 92,-26 187,-12 285,45 98,57 158,132 181,226 23,94 5,192 -55,295 -60,104 -136,169 -229,196 -92,26 -188,11 -286,-46 -98,-56 -158,-131 -181,-225 -22,-93 -3,-191 57,-295zm768 815l220 -544 -196 -79 56 -138 566 228 -56 139 -196 -79 -219 544 -175 -71zm800 -200l148 34c31,7 56,7 74,-1 18,-8 29,-23 35,-47 5,-21 2,-40 -10,-54 -12,-15 -32,-25 -59,-32l-156 -36 -32 136zm-68 293l138 33c44,10 76,11 97,3 20,-8 34,-26 40,-55 6,-26 3,-48 -11,-65 -13,-17 -37,-29 -70,-37l-157 -37 -37 158zm-209 102l168 -717 347 82c84,19 142,49 174,88 33,39 42,90 28,152 -10,39 -26,68 -49,89 -24,22 -55,34 -95,40 39,20 66,47 82,80 16,33 18,70 9,111 -10,40 -27,74 -53,102 -26,28 -58,48 -95,58 -25,7 -54,9 -87,7 -33,-2 -83,-11 -149,-27l-280 -65zm1034 -97l161 12 -63 -259 -98 247zm17 -448l205 15 203 754 -202 -16 -34 -138 -245 -18 -52 131 -195 -15 320 -713zm561 769l-56 -734 189 -14 44 574 355 -27 12 159 -544 42zm700 -61l-135 -723 186 -35 106 566 350 -65 29 157 -536 100zm1536 -755c25,86 21,163 -11,230 -31,68 -88,120 -170,157 -98,45 -192,49 -281,12 -89,-37 -157,-108 -204,-212 -49,-109 -58,-209 -26,-302 32,-92 99,-161 202,-208 81,-37 157,-45 228,-26 71,20 127,65 167,136l-161 73c-22,-29 -48,-46 -77,-53 -30,-6 -62,-1 -98,15 -48,22 -78,58 -88,109 -11,50 -1,108 28,174 30,66 66,111 109,135 43,24 88,26 136,4 39,-18 65,-41 80,-70 15,-29 17,-63 6,-102l160 -72zm277 153l-394 -622 160 -101 308 486 301 -190 86 134 -461 293zm110 -947l146 -115 284 361c31,39 61,62 90,67 28,5 59,-6 94,-34 35,-27 53,-55 54,-84 2,-28 -13,-62 -44,-102l-285 -361 147 -116 271 343c38,49 64,91 77,127 13,37 17,73 11,110 -7,39 -21,75 -43,109 -22,34 -52,66 -90,96 -38,30 -76,52 -114,65 -39,14 -78,19 -117,17 -37,-3 -73,-15 -105,-36 -33,-22 -68,-56 -105,-104l-271 -343zm875 -383l99 -116c20,-24 31,-46 33,-66 1,-19 -8,-37 -26,-52 -17,-15 -35,-20 -53,-17 -18,4 -36,17 -55,39l-104 121 106 91zm230 195l93 -108c29,-35 44,-63 47,-84 2,-22 -8,-43 -31,-62 -20,-17 -41,-24 -63,-19 -21,4 -43,19 -65,45l-105 123 124 105zm-5 232l-560 -477 231 -272c56,-65 108,-103 158,-114 50,-11 99,4 148,45 30,26 49,54 57,85 8,30 5,64 -8,102 36,-26 72,-38 108,-36 37,1 71,15 103,43 31,26 54,58 67,94 13,36 16,73 8,110 -6,26 -17,53 -34,81 -17,28 -48,69 -92,120l-186 219z"/>
   <path class="fil3" d="M2789 6300l-103 0 0 -469 -96 0 0 -81 199 0 0 550zm472 -363c0,-27 -9,-51 -27,-70 -17,-19 -39,-29 -63,-29 -26,0 -47,9 -64,27 -17,18 -26,41 -26,69 0,28 8,51 25,68 17,18 38,27 63,27 25,0 47,-9 65,-27 18,-18 27,-40 27,-65zm-94 363l-112 0 124 -187c-9,2 -17,3 -24,4 -6,1 -12,1 -17,1 -46,0 -84,-18 -115,-54 -31,-36 -47,-80 -47,-132 0,-21 4,-42 13,-64 8,-23 20,-42 34,-60 20,-24 42,-41 66,-52 23,-11 51,-16 82,-16 26,0 51,5 75,14 23,10 44,24 62,42 18,18 32,38 42,61 9,23 14,46 14,70 0,27 -5,55 -16,82 -10,28 -31,65 -61,110l-120 181zm631 0l-363 0 0 -103 200 -186c19,-18 33,-35 43,-52 10,-18 14,-34 14,-49 0,-21 -6,-38 -20,-52 -13,-13 -30,-20 -51,-20 -22,0 -39,7 -51,22 -12,14 -19,34 -19,60l0 9 -108 0 0 -1c0,-57 17,-102 50,-136 33,-35 76,-52 130,-52 50,0 93,16 127,49 34,33 51,74 51,121 0,26 -7,52 -20,77 -14,25 -34,50 -62,75l-154 139 233 0 0 99zm362 -363c0,-27 -9,-51 -27,-70 -17,-19 -39,-29 -63,-29 -26,0 -47,9 -64,27 -17,18 -26,41 -26,69 0,28 8,51 25,68 17,18 38,27 63,27 25,0 47,-9 65,-27 18,-18 27,-40 27,-65zm-94 363l-112 0 124 -187c-9,2 -17,3 -24,4 -6,1 -12,1 -17,1 -46,0 -84,-18 -115,-54 -31,-36 -47,-80 -47,-132 0,-21 4,-42 13,-64 8,-23 20,-42 34,-60 20,-24 42,-41 66,-52 23,-11 51,-16 82,-16 26,0 51,5 75,14 23,10 44,24 62,42 18,18 32,38 42,61 9,23 14,46 14,70 0,27 -5,55 -16,82 -10,28 -31,65 -61,110l-120 181z"/>
   <path class="fil4" d="M2591 2897l292 -306 141 134 -438 460 -652 -621 147 -154 510 487zm65 -1043l174 -124 325 456c25,36 63,79 107,90 42,10 84,-10 117,-33 33,-24 67,-57 71,-100 5,-46 -24,-96 -49,-131l-325 -457 173 -123 336 472c55,78 90,168 72,264 -19,98 -87,173 -166,229 -79,56 -174,98 -272,84 -98,-14 -171,-77 -227,-155l-336 -472zm1323 -574l59 151 350 -138 68 172 -350 137 135 343 -195 77 -330 -837 594 -234 68 172 -399 157zm973 -305l-252 45 -33 -185 712 -128 33 186 -251 45 125 700 -209 37 -125 -700zm1050 -114l-4 150 414 10 -4 182 -414 -10 -5 189 474 11 -5 195 -684 -18 23 -899 663 17 -5 184 -453 -11zm162 -235l5 -179 166 4 -4 179 -167 -4zm-233 -6l5 -179 167 4 -5 179 -167 -4zm1130 350l-249 -57 42 -184 705 163 -42 183 -249 -57 -160 693 -207 -47 160 -694zm1006 904l-284 -128 -125 138 -204 -92 662 -688 209 95 -75 953 -203 -92 20 -186zm1129 443c9,23 14,47 10,73 -6,44 -35,90 -61,125l-61 83c-1,1 -1,2 -2,3 -12,16 -39,56 -30,78l5 9 -34 42 -175 -137 2 -10c4,-17 10,-34 18,-49 11,-20 23,-39 37,-56l54 -74c16,-22 43,-63 40,-92 -3,-28 -33,-55 -53,-71l-136 -107 -208 265 -167 -131 556 -707 344 270c60,47 120,110 134,187 14,75 -19,144 -64,202 -31,38 -69,72 -116,88 -31,11 -62,14 -93,9zm24 622l652 -621 146 154 -651 621 -147 -154zm-1100 -1564l-210 231 177 79 33 -310zm805 614l151 119c22,18 54,38 84,37 28,-1 50,-21 67,-42 16,-21 29,-46 24,-73 -4,-29 -26,-53 -48,-70l-158 -124 -120 153z"/>
  </g>
 </g>
</svg>
