<?xml version="1.0" encoding="UTF-8" standalone="no"?>
<!-- Created with Inkscape (http://www.inkscape.org/) -->

<svg
   xmlns:dc="http://purl.org/dc/elements/1.1/"
   xmlns:cc="http://creativecommons.org/ns#"
   xmlns:rdf="http://www.w3.org/1999/02/22-rdf-syntax-ns#"
   xmlns:svg="http://www.w3.org/2000/svg"
   xmlns="http://www.w3.org/2000/svg"
   xmlns:sodipodi="http://sodipodi.sourceforge.net/DTD/sodipodi-0.dtd"
   xmlns:inkscape="http://www.inkscape.org/namespaces/inkscape"
   id="svg2"
   version="1.1"
   inkscape:version="0.92.4 (5da689c313, 2019-01-14)"
   width="707.49994"
   height="375.38513"
   xml:space="preserve"
   sodipodi:docname="Molde_Fotball_Logo.svg"><metadata
     id="metadata8"><rdf:RDF><cc:Work
         rdf:about=""><dc:format>image/svg+xml</dc:format><dc:type
           rdf:resource="http://purl.org/dc/dcmitype/StillImage" /><dc:title /></cc:Work></rdf:RDF></metadata><defs
     id="defs6"><inkscape:perspective
       sodipodi:type="inkscape:persp3d"
       inkscape:vp_x="0 : 0.5 : 1"
       inkscape:vp_y="0 : 1000 : 0"
       inkscape:vp_z="1 : 0.5 : 1"
       inkscape:persp3d-origin="0.5 : 0.33333333 : 1"
       id="perspective10" /></defs><sodipodi:namedview
     pagecolor="#ffffff"
     bordercolor="#666666"
     borderopacity="1"
     objecttolerance="10"
     gridtolerance="10"
     guidetolerance="10"
     inkscape:pageopacity="0"
     inkscape:pageshadow="2"
     inkscape:window-width="1366"
     inkscape:window-height="705"
     id="namedview4"
     showgrid="false"
     inkscape:zoom="1.1588694"
     inkscape:cx="339.40755"
     inkscape:cy="188.28814"
     inkscape:window-x="-8"
     inkscape:window-y="-8"
     inkscape:window-maximized="1"
     inkscape:current-layer="g12" /><g
     id="g12"
     inkscape:groupmode="layer"
     inkscape:label="Molde_Fotballklubbs [Converted]"
     transform="matrix(1.25,0,0,-1.25,-35.022776,688.74678)"><g
       id="g14"
       transform="matrix(1,0,0,-1,4.3932204,5.3694916)"><path
         d="m 23.625,-395.3208 c 0,-55.89258 132.8252,-150.25781 282.85693,-150.30615 0,0 0,-9.8e-4 0,-9.8e-4 0.0186,0 0.0386,9.8e-4 0.0571,9.8e-4 0.019,0 0.0386,-9.8e-4 0.0571,-9.8e-4 0,0 0,9.8e-4 0,9.8e-4 149.76026,0.0483 282.36768,94.07031 282.84619,150 0,0 0.18262,0 0.18262,0 0,55.89257 -132.8252,150.2583 -282.85693,150.30664 0,0 0,4.9e-4 0,4.9e-4 -0.0186,0 -0.0386,-4.9e-4 -0.0571,-4.9e-4 -0.0186,0 -0.0386,4.9e-4 -0.0571,4.9e-4 0,0 0,-4.9e-4 0,-4.9e-4 -149.76026,-0.0483 -282.36719,-94.07032 -282.84619,-150.00049 0,0 -0.18262,0 -0.18262,0 z"
         style="fill:#176fc1;fill-opacity:1;fill-rule:nonzero;stroke:none"
         id="path16"
         inkscape:connector-curvature="0" /><path
         d="m 36.88232,-395.28027 c -0.61669,-42.14942 91.42139,-110.89746 199.69385,-134.37696 -8.70263,8.17188 -18.79492,22.98145 -23.7998,30.69629 -79.2627,23.4541 -149.04956,72.16504 -151.0149,102.63184 0,30.37402 69.78345,80.28906 154.78492,104.61328 0,0 -0.14356,15.69531 -0.14356,23.48535 -88.09912,-21.7666 -178.8518,-81.32226 -179.52051,-127.0498 z"
         style="fill:#ffffff;fill-opacity:1;fill-rule:nonzero;stroke:none"
         id="path18"
         inkscape:connector-curvature="0" /><path
         d="m 98.84814,-379.35107 c 0,0 -8.93554,0 -8.93554,0 0,0 0,-21.07666 0,-21.07666 0,0 -7.02149,0 -7.02149,0 0,0 0,-7.27491 0,-7.27491 4.73828,-0.10205 8.18116,-2.05029 9.16944,-8.3042 0,0 6.78759,0 6.78759,0 0,0 0,36.65577 0,36.65577 z"
         style="fill:#ffffff;fill-opacity:1;fill-rule:nonzero;stroke:none"
         id="path20"
         inkscape:connector-curvature="0" /><path
         d="m 103.41992,-388.12842 c 1.28906,7.32227 6.70215,9.5249 12.39112,9.5249 8.45166,0 13.28027,-7.47998 13.28027,-18.59961 0,-13.13427 -5.43213,-18.80517 -14.27295,-18.80517 -6.84424,0 -12.12842,3.93359 -12.12842,12.74658 0,5.18604 3.1792,11.70703 10.22998,11.70703 2.90723,0 4.71582,-0.61572 7.12891,-2.61865 0.043,4.71582 -1.33545,8.29492 -4.65235,8.29492 -1.76611,0 -3.14502,-0.86914 -3.61865,-2.86328 0,0 -8.35791,0.61328 -8.35791,0.61328 z m 12.00244,-10.46094 c -2.24365,0 -3.79687,-1.95117 -3.79687,-4.82617 0,-3.08056 1.3374,-5.03174 3.96972,-5.03174 2.15674,0 4.05518,2.0542 4.05518,4.67188 0,2.82373 -1.16504,5.08301 -4.22803,5.18603 z"
         style="fill:#ffffff;fill-opacity:1;fill-rule:nonzero;stroke:none"
         id="path22"
         inkscape:connector-curvature="0" /><path
         d="m 143.78955,-416.23486 c 0,0 -9.29785,41.52099 -9.29785,41.52099 0,0 -5.42383,0 -5.42383,0 0,0 9.29785,-41.52099 9.29785,-41.52099 0,0 5.42383,0 5.42383,0 z"
         style="fill:#ffffff;fill-opacity:1;fill-rule:nonzero;stroke:none"
         id="path24"
         inkscape:connector-curvature="0" /><path
         d="m 171.07324,-406.4834 c -1.28857,-7.32226 -6.70166,-9.5249 -12.39062,-9.5249 -8.45264,0 -13.28028,7.47949 -13.28028,18.59473 0,13.13476 5.43067,18.81005 14.27198,18.81005 6.84521,0 12.12939,-3.9375 12.12939,-12.75244 0,-5.18554 -3.1792,-11.70166 -10.23096,-11.70166 -2.90625,0 -4.71582,0.61573 -7.12793,2.61719 -0.043,-4.71338 1.33497,-8.29346 4.65235,-8.29346 1.76562,0 3.14404,0.86914 3.61816,2.86426 0,0 8.35791,-0.61377 8.35791,-0.61377 z m -12.00244,10.40332 c 2.24316,0 3.79688,1.95117 3.79688,4.82617 0,3.08057 -1.33789,5.03174 -3.96924,5.03174 -2.15723,0 -4.05567,-2.05371 -4.05567,-4.67187 0,-2.82373 1.16455,-5.08301 4.22803,-5.18604 z"
         style="fill:#ffffff;fill-opacity:1;fill-rule:nonzero;stroke:none"
         id="path26"
         inkscape:connector-curvature="0" /><path
         d="m 456.51514,-377.51904 c 0,0 -8.93604,0 -8.93604,0 0,0 0,-21.07715 0,-21.07715 0,0 -7.02148,0 -7.02148,0 0,0 0,-7.27393 0,-7.27393 4.73828,-0.10302 8.18115,-2.05029 9.16943,-8.30468 0,0 6.78809,0 6.78809,0 0,0 0,36.65576 0,36.65576 z"
         style="fill:#ffffff;fill-opacity:1;fill-rule:nonzero;stroke:none"
         id="path28"
         inkscape:connector-curvature="0" /><path
         d="m 461.08691,-386.2959 c 1.28858,7.32129 6.70166,9.52393 12.39063,9.52393 8.45166,0 13.28027,-7.47852 13.28027,-18.59864 0,-13.13427 -5.43164,-18.80615 -14.27295,-18.80615 -6.84423,0 -12.12841,3.93457 -12.12841,12.74805 0,5.18457 3.17919,11.70605 10.22998,11.70605 2.90722,0 4.71582,-0.61621 7.1289,-2.61816 0.043,4.71484 -1.33545,8.29492 -4.65234,8.29492 -1.76563,0 -3.14502,-0.86963 -3.61865,-2.86377 0,0 -8.35743,0.61377 -8.35743,0.61377 z m 12.00196,-10.46191 c -2.24366,0 -3.79639,-1.9502 -3.79639,-4.82617 0,-3.07959 1.33691,-5.03174 3.96924,-5.03174 2.15723,0 4.05566,2.0542 4.05566,4.67285 0,2.82373 -1.16552,5.08301 -4.22851,5.18506 z"
         style="fill:#ffffff;fill-opacity:1;fill-rule:nonzero;stroke:none"
         id="path30"
         inkscape:connector-curvature="0" /><path
         d="m 505.44873,-377.51904 c 0,0 -8.93603,0 -8.93603,0 0,0 0,-21.07715 0,-21.07715 0,0 -7.02149,0 -7.02149,0 0,0 0,-7.27393 0,-7.27393 4.73828,-0.10302 8.18164,-2.05029 9.16943,-8.30468 0,0 6.78809,0 6.78809,0 0,0 0,36.65576 0,36.65576 z"
         style="fill:#ffffff;fill-opacity:1;fill-rule:nonzero;stroke:none"
         id="path32"
         inkscape:connector-curvature="0" /><path
         d="m 524.57373,-377.51904 c 0,0 -8.93603,0 -8.93603,0 0,0 0,-21.07715 0,-21.07715 0,0 -7.02149,0 -7.02149,0 0,0 0,-7.27393 0,-7.27393 4.73828,-0.10302 8.18164,-2.05029 9.16943,-8.30468 0,0 6.78809,0 6.78809,0 0,0 0,36.65576 0,36.65576 z"
         style="fill:#ffffff;fill-opacity:1;fill-rule:nonzero;stroke:none"
         id="path34"
         inkscape:connector-curvature="0" /><path
         d="m 387.24902,-396.27002 c 0,0 -30.31445,59.62451 -30.31445,59.62451 0,0 44.13818,67.22998 44.13818,67.22998 0,0 -26.54052,6.84082 -26.54052,6.84082 0,0 -24.20313,-42.40625 -30.35547,-49.5166 0,0 -9.43653,18.39307 -9.43653,18.39307 0,0 -0.16162,35.60303 -0.16162,35.60303 0,0 -27.34228,0 -27.34228,0 0,0 0,-138.54542 0,-138.54542 0,0 27.34228,0 27.34228,0 0,0 0.0859,56.46778 0.0859,56.46778 0,0 23.25635,-56.09717 23.25635,-56.09717 0,0 29.32812,0 29.32812,0 z"
         style="fill:#ffffff;fill-opacity:1;fill-rule:nonzero;stroke:none"
         id="path36"
         inkscape:connector-curvature="0" /><path
         d="m 294.91113,-396.61377 c 0,0 0,27.03662 0,27.03662 0,0 -41.35742,0 -41.35742,0 0,0 0,26.34961 0,26.34961 0,0 36.66016,0 36.66016,0 0,0 0,22.9126 0,22.9126 0,0 -36.66016,0 -36.66016,0 0,0 -0.11475,58.46045 -0.11475,58.46045 0,0 -26.57861,-4.27735 -26.57861,-4.27735 0,0 -0.11474,-130.48193 -0.11474,-130.48193 0,0 68.16552,0 68.16552,0 z"
         style="fill:#ffffff;fill-opacity:1;fill-rule:nonzero;stroke:none"
         id="path38"
         inkscape:connector-curvature="0" /><path
         d="m 357.28516,-531.31104 c -16.18311,-2.22216 -25.2334,-2.79492 -25.2334,-2.79492 0,0 -25.42676,43.28272 -25.42676,43.28272 0,0 -25.42676,-43.28272 -25.42676,-43.28272 0,0 -9.05029,0.57276 -25.2334,2.79492 0,0 -58.00488,40.9878 -67.48339,134.67041 0,0 29.55761,0 29.55761,0 0,0 13.3208,-79.31005 49.75537,-102.14208 0,0 38.83057,56.57275 38.83057,56.57275 0,0 38.83057,-56.57275 38.83057,-56.57275 36.43457,22.83203 49.75537,102.14208 49.75537,102.14208 0,0 29.55761,0 29.55761,0 -9.47851,-93.68261 -67.48339,-134.67041 -67.48339,-134.67041 z"
         style="fill:#ffffff;fill-opacity:1;fill-rule:nonzero;stroke:none"
         id="path40"
         inkscape:connector-curvature="0" /><path
         d="m 576.36768,-395.28027 c 0.6167,-42.14942 -91.42139,-110.89746 -199.69385,-134.37696 8.70263,8.17188 18.79492,22.98145 23.7998,30.69629 79.2627,23.4541 149.04932,72.16504 151.01465,102.63184 0,30.30078 -69.44873,80.0459 -154.17139,104.43457 0,0 12.52247,20.18555 12.52247,20.18555 83.80615,-24.10938 165.89209,-80.09034 166.52832,-123.57129 z"
         style="fill:#ffffff;fill-opacity:1;fill-rule:nonzero;stroke:none"
         id="path42"
         inkscape:connector-curvature="0" /></g></g></svg>