<?xml version="1.0" encoding="UTF-8" standalone="no"?>
<svg
   xmlns:dc="http://purl.org/dc/elements/1.1/"
   xmlns:cc="http://creativecommons.org/ns#"
   xmlns:rdf="http://www.w3.org/1999/02/22-rdf-syntax-ns#"
   xmlns:svg="http://www.w3.org/2000/svg"
   xmlns="http://www.w3.org/2000/svg"
   xmlns:sodipodi="http://sodipodi.sourceforge.net/DTD/sodipodi-0.dtd"
   xmlns:inkscape="http://www.inkscape.org/namespaces/inkscape"
   width="157.31517pt"
   height="189.5pt"
   viewBox="0 0 157.31517 189.5"
   version="1.1"
   id="svg71"
   sodipodi:docname="NK-Domzale-Logo.svg"
   inkscape:version="0.92.4 (5da689c313, 2019-01-14)">
  <metadata
     id="metadata77">
    <rdf:RDF>
      <cc:Work
         rdf:about="">
        <dc:format>image/svg+xml</dc:format>
        <dc:type
           rdf:resource="http://purl.org/dc/dcmitype/StillImage" />
        <dc:title></dc:title>
      </cc:Work>
    </rdf:RDF>
  </metadata>
  <defs
     id="defs75" />
  <sodipodi:namedview
     pagecolor="#ffffff"
     bordercolor="#666666"
     borderopacity="1"
     objecttolerance="10"
     gridtolerance="10"
     guidetolerance="10"
     inkscape:pageopacity="0"
     inkscape:pageshadow="2"
     inkscape:window-width="1366"
     inkscape:window-height="705"
     id="namedview73"
     showgrid="false"
     fit-margin-top="1"
     fit-margin-right="1"
     fit-margin-bottom="1"
     fit-margin-left="1"
     inkscape:zoom="1.1328"
     inkscape:cx="255.77701"
     inkscape:cy="118.62624"
     inkscape:window-x="-8"
     inkscape:window-y="-8"
     inkscape:window-maximized="1"
     inkscape:current-layer="svg71" />
  <g
     id="g920"
     transform="matrix(0.15,0,0,0.15,-15.047376,1)">
    <g
       id="#ffffffff">
      <path
         id="path2"
         d="m 107.09,0 h 1035.25 c 0.07,244.66 0.01,489.33 0.03,733.99 0.13,23.34 0.17,46.74 -2.42,69.97 -8.01,79.68 -36.82,156.98 -82.04,222.99 -61.4,90.19 -152.79,159.46 -256.1,194.48 -45.12,15.24 -92.31,24.15 -139.82,27.19 -10.21,0.75 -20.45,0.83 -30.67,1.38 H 621.3 c -7.43,-0.42 -14.86,-0.34 -22.29,-0.76 -80.91,-3.56 -161.57,-24.14 -232.53,-63.63 -73.97,-40.67 -137.74,-99.85 -183.19,-171.04 -39.08,-60.91 -64.45,-130.64 -72.96,-202.54 -2.64,-21.58 -3.58,-43.33 -3.3,-65.06 C 107.07,497.98 106.94,248.99 107.09,0 m 17.06,17.23 c 0.01,247.6 0.01,495.2 0,742.8 0.59,79.75 22.81,159.07 62.98,227.91 44.57,76.83 110.85,140.63 188.71,183.22 74.89,41.48 160.82,61.02 246.13,61.5 84.56,0.38 169.91,-17.93 244.79,-57.84 68.1,-35.94 127.78,-87.86 172.27,-150.76 45.2,-63.62 74.49,-138.61 83.25,-216.22 2.63,-21.84 3.23,-43.85 2.95,-65.83 0,-241.59 0,-483.19 0,-724.79 -333.69,0.04 -667.38,0.02 -1001.08,0.01 z"
         inkscape:connector-curvature="0"
         style="opacity:1;fill:#ffffff" />
      <path
         id="path4"
         d="m 771.09,51.71 c 4.85,0.01 9.71,0 14.57,0.01 2.19,2.73 4.43,5.42 6.64,8.14 2.34,-2.7 4.65,-5.42 6.98,-8.13 4.79,-0.03 9.59,-0.02 14.39,-0.01 -5.07,6.2 -10.28,12.28 -15.44,18.4 -3.8,-0.02 -7.59,-0.02 -11.37,0 -5.3,-6.11 -10.45,-12.33 -15.77,-18.41 z"
         inkscape:connector-curvature="0"
         style="opacity:1;fill:#ffffff" />
      <path
         id="path6"
         d="m 590.23,73.27 c 7.49,-1.32 15.37,-0.77 22.49,1.98 11.16,4.23 20.3,13.48 24.33,24.72 3.92,10.66 3.24,22.95 -1.95,33.08 -5.94,11.91 -17.85,20.67 -31.06,22.54 -6.34,0.76 -12.89,0.45 -18.97,-1.61 -12.94,-4.17 -23.48,-15.05 -27.17,-28.14 -3.42,-11.58 -1.43,-24.62 5.32,-34.63 6.12,-9.27 16.07,-15.93 27.01,-17.94 m 0.2,13.46 c -8.86,2.56 -16.05,9.87 -18.78,18.64 -3.81,11.36 0.35,24.77 9.94,31.96 8.53,6.75 21.22,7.5 30.4,1.62 12.24,-7.3 17.04,-24.15 10.93,-36.94 -5.21,-12.12 -19.76,-19.34 -32.49,-15.28 z"
         inkscape:connector-curvature="0"
         style="opacity:1;fill:#ffffff" />
      <path
         id="path8"
         d="m 220.91,74.1 c 4.83,-0.02 9.67,-0.09 14.51,0.04 11.88,18.82 24,37.48 36.03,56.21 0.04,-18.76 0.01,-37.52 0.02,-56.27 4.58,-0.01 9.16,-0.01 13.74,0 0,26.77 0.01,53.53 0,80.3 -4.5,-0.01 -9,-0.01 -13.5,-0.01 -12.32,-19.08 -24.64,-38.16 -36.94,-57.26 0,19.09 0,38.18 0,57.27 -4.62,-0.02 -9.24,0.01 -13.86,-0.02 -0.01,-26.75 0,-53.51 0,-80.26 z"
         inkscape:connector-curvature="0"
         style="opacity:1;fill:#ffffff" />
      <path
         id="path10"
         d="m 311.13,74.07 c 4.65,0.02 9.29,-0.04 13.93,0.05 -0.27,12.09 0.04,24.19 -0.13,36.29 9.47,-12.03 18.73,-24.23 28.11,-36.34 5.68,0 11.36,0.02 17.04,-0.01 -10.5,13.29 -20.94,26.63 -31.43,39.92 10.48,13.46 20.93,26.93 31.41,40.39 -5.66,0.01 -11.33,0 -16.99,0.01 -9.43,-12.24 -18.65,-24.64 -28.15,-36.82 0.07,12.27 0.13,24.54 0.02,36.81 -4.6,0 -9.2,0.01 -13.8,0 -0.01,-26.76 0,-53.53 -0.01,-80.3 z"
         inkscape:connector-curvature="0"
         style="opacity:1;fill:#ffffff" />
      <path
         id="path12"
         d="m 470.6,74.08 c 9.79,0.01 19.58,-0.05 29.37,0.02 9.48,0.05 19.07,3.45 25.9,10.14 14.95,14.42 16.41,40.07 3.86,56.46 -6.73,8.82 -17.95,12.85 -28.72,13.45 -10.13,0.46 -20.27,0.12 -30.4,0.22 -0.02,-26.76 0,-53.53 -0.01,-80.29 m 13.88,12.98 c 0,18.11 0.02,36.22 -0.01,54.33 9.37,0 19.41,0.63 27.89,-4.1 7.03,-3.78 11.1,-11.56 11.87,-19.32 1.42,-11.24 -4.22,-23.68 -14.85,-28.42 -7.77,-3.73 -16.6,-2.14 -24.9,-2.49 z"
         inkscape:connector-curvature="0"
         style="opacity:1;fill:#ffffff" />
      <path
         id="path14"
         d="m 661.33,74.08 c 6.69,0.02 13.4,-0.07 20.1,0.05 7.43,19.14 14.92,38.27 22.45,57.37 7.54,-19.13 15.11,-38.26 22.61,-57.41 6.63,-0.03 13.25,-0.01 19.88,-0.01 -0.01,26.77 0.01,53.53 -0.01,80.3 -4.56,-0.01 -9.11,-0.01 -13.67,0 0,-20.22 -0.04,-40.45 0.02,-60.68 -8.18,20.22 -16.31,40.46 -24.5,60.68 -2.85,-0.01 -5.69,-0.01 -8.53,0 -8.2,-20.17 -16.23,-40.4 -24.5,-60.54 0.03,20.18 0.02,40.35 0.01,60.52 -4.62,0.03 -9.24,0 -13.86,0.03 -0.01,-26.77 0.01,-53.54 0,-80.31 z"
         inkscape:connector-curvature="0"
         style="opacity:1;fill:#ffffff" />
      <path
         id="path16"
         d="m 768.88,74.09 c 15.76,-0.03 31.52,-0.02 47.28,-0.01 -0.26,4.21 0.52,8.59 -0.39,12.7 -10.7,18.24 -21.52,36.42 -32.32,54.61 11.37,0.01 22.73,-0.01 34.1,0 -0.01,4.33 0,8.66 -0.01,12.99 -16.79,-0.01 -33.57,-0.02 -50.35,0 0.09,-4.03 -0.17,-8.07 0.09,-12.1 10.77,-18.48 21.85,-36.8 32.76,-55.2 -10.39,-0.16 -20.8,0.13 -31.19,-0.19 0.05,-4.27 0.02,-8.54 0.03,-12.8 z"
         inkscape:connector-curvature="0"
         style="opacity:1;fill:#ffffff" />
      <path
         id="path18"
         d="m 863.25,74.09 c 3.94,-0.03 7.88,-0.02 11.82,-0.01 10.15,26.77 20.33,53.51 30.46,80.28 -4.83,0.02 -9.65,0.01 -14.47,0.01 -2.98,-7.68 -5.89,-15.38 -8.83,-23.07 -8.76,-0.02 -17.51,0.01 -26.27,-0.02 -2.85,7.7 -5.67,15.41 -8.54,23.11 -4.93,-0.03 -9.86,-0.01 -14.79,-0.02 10.21,-26.76 20.42,-53.52 30.62,-80.28 m 4.92,15.64 c -3.54,10.33 -6.96,20.71 -10.52,31.03 7.67,0.01 15.35,0.01 23.03,0.01 -3.59,-10.25 -6.82,-20.63 -10.56,-30.82 -0.49,-0.05 -1.46,-0.16 -1.95,-0.22 z"
         inkscape:connector-curvature="0"
         style="opacity:1;fill:#ffffff" />
      <path
         id="path20"
         d="m 923.16,74.08 c 4.63,0 9.27,-0.03 13.91,0.02 -0.01,22.43 0.03,44.85 -0.02,67.28 8.92,0.02 17.84,0 26.77,0.01 0,4.33 0,8.65 0,12.98 -13.55,0.01 -27.11,0.01 -40.66,0 0,-26.77 0,-53.53 0,-80.29 z"
         inkscape:connector-curvature="0"
         style="opacity:1;fill:#ffffff" />
      <path
         id="path22"
         d="m 983.93,74.08 c 14.84,-0.01 29.68,0 44.51,0 -0.01,4.33 0.01,8.67 -0.02,13.01 -10.22,-0.3 -20.45,0.02 -30.67,0 0.06,6.79 0.01,13.57 0.03,20.36 10.22,0.02 20.44,-0.01 30.67,0.02 -0.02,4.3 -0.02,8.61 0,12.91 -10.23,0.03 -20.46,-0.01 -30.68,0.02 0.01,7 0,13.99 0,20.98 10.23,0.02 20.45,0 30.68,0.02 -0.02,4.32 -0.01,8.65 -0.02,12.97 -14.83,0 -29.66,0 -44.5,0 -0.01,-26.76 0,-53.53 0,-80.29 z"
         inkscape:connector-curvature="0"
         style="opacity:1;fill:#ffffff" />
      <path
         id="path24"
         d="m 495.57,573.2 c 24.59,1.01 49.2,0.97 73.8,1.3 28.54,0.35 57.09,0.44 85.64,0.73 18.45,1.37 35.84,9.38 50.8,19.96 24.47,17.38 42.8,44.1 47.59,73.98 3.63,23.14 0.44,47.46 -9.59,68.68 -15.44,33.08 -48.81,58.5 -85.81,60.34 -54.47,0.1 -108.94,0.02 -163.41,0.04 0,-14.27 0.01,-28.55 -0.01,-42.82 10.78,-0.02 21.56,0 32.35,-0.01 -0.03,-45.51 -0.04,-91.02 0,-136.52 -10.45,-0.03 -20.9,-0.01 -31.35,-0.01 0.01,-15.23 0.03,-30.45 -0.01,-45.67 m 101.64,46.59 c 0.04,45.2 0.02,90.41 0.02,135.62 9.93,-0.02 19.86,-0.01 29.79,0 5.9,0.09 11.48,-2.17 16.74,-4.62 14.83,-7.28 27.52,-19.26 34.83,-34.15 6.46,-13.17 8.19,-28.46 5.5,-42.83 -4.89,-28.23 -29.99,-50.86 -58.07,-54.69 -9.59,-0.54 -19.25,-0.25 -28.81,0.67 z"
         inkscape:connector-curvature="0"
         style="opacity:1;fill:#ffffff" />
    </g>
    <g
       id="#00529cff">
      <path
         id="path27"
         d="m 124.15,17.23 c 333.7,0.01 667.39,0.03 1001.08,-0.01 0,241.6 0,483.2 0,724.79 0.28,21.98 -0.32,43.99 -2.95,65.83 -8.76,77.61 -38.05,152.6 -83.25,216.22 -44.49,62.9 -104.17,114.82 -172.27,150.76 -74.88,39.91 -160.23,58.22 -244.79,57.84 -85.31,-0.48 -171.24,-20.02 -246.13,-61.5 C 297.98,1128.57 231.7,1064.77 187.13,987.94 146.96,919.1 124.74,839.78 124.15,760.03 c 0.01,-247.6 0.01,-495.2 0,-742.8 m 646.94,34.48 c 5.32,6.08 10.47,12.3 15.77,18.41 3.78,-0.02 7.57,-0.02 11.37,0 5.16,-6.12 10.37,-12.2 15.44,-18.4 -4.8,-0.01 -9.6,-0.02 -14.39,0.01 -2.33,2.71 -4.64,5.43 -6.98,8.13 -2.21,-2.72 -4.45,-5.41 -6.64,-8.14 -4.86,-0.01 -9.72,0 -14.57,-0.01 M 590.23,73.27 c -10.94,2.01 -20.89,8.67 -27.01,17.94 -6.75,10.01 -8.74,23.05 -5.32,34.63 3.69,13.09 14.23,23.97 27.17,28.14 6.08,2.06 12.63,2.37 18.97,1.61 13.21,-1.87 25.12,-10.63 31.06,-22.54 5.19,-10.13 5.87,-22.42 1.95,-33.08 -4.03,-11.24 -13.17,-20.49 -24.33,-24.72 -7.12,-2.75 -15,-3.3 -22.49,-1.98 M 220.91,74.1 c 0,26.75 -0.01,53.51 0,80.26 4.62,0.03 9.24,0 13.86,0.02 0,-19.09 0,-38.18 0,-57.27 12.3,19.1 24.62,38.18 36.94,57.26 4.5,0 9,0 13.5,0.01 0.01,-26.77 0,-53.53 0,-80.3 -4.58,-0.01 -9.16,-0.01 -13.74,0 -0.01,18.75 0.02,37.51 -0.02,56.27 -12.03,-18.73 -24.15,-37.39 -36.03,-56.21 -4.84,-0.13 -9.68,-0.06 -14.51,-0.04 m 90.22,-0.03 c 0.01,26.77 0,53.54 0.01,80.3 4.6,0.01 9.2,0 13.8,0 0.11,-12.27 0.05,-24.54 -0.02,-36.81 9.5,12.18 18.72,24.58 28.15,36.82 5.66,-0.01 11.33,0 16.99,-0.01 -10.48,-13.46 -20.93,-26.93 -31.41,-40.39 10.49,-13.29 20.93,-26.63 31.43,-39.92 -5.68,0.03 -11.36,0.01 -17.04,0.01 -9.38,12.11 -18.64,24.31 -28.11,36.34 0.17,-12.1 -0.14,-24.2 0.13,-36.29 -4.64,-0.09 -9.28,-0.03 -13.93,-0.05 m 159.47,0.01 c 0.01,26.76 -0.01,53.53 0.01,80.29 10.13,-0.1 20.27,0.24 30.4,-0.22 10.77,-0.6 21.99,-4.63 28.72,-13.45 12.55,-16.39 11.09,-42.04 -3.86,-56.46 -6.83,-6.69 -16.42,-10.09 -25.9,-10.14 -9.79,-0.07 -19.58,-0.01 -29.37,-0.02 m 190.73,0 c 0.01,26.77 -0.01,53.54 0,80.31 4.62,-0.03 9.24,0 13.86,-0.03 0.01,-20.17 0.02,-40.34 -0.01,-60.52 8.27,20.14 16.3,40.37 24.5,60.54 2.84,-0.01 5.68,-0.01 8.53,0 8.19,-20.22 16.32,-40.46 24.5,-60.68 -0.06,20.23 -0.02,40.46 -0.02,60.68 4.56,-0.01 9.11,-0.01 13.67,0 0.02,-26.77 0,-53.53 0.01,-80.3 -6.63,0 -13.25,-0.02 -19.88,0.01 -7.5,19.15 -15.07,38.28 -22.61,57.41 -7.53,-19.1 -15.02,-38.23 -22.45,-57.37 -6.7,-0.12 -13.41,-0.03 -20.1,-0.05 m 107.55,0.01 c -0.01,4.26 0.02,8.53 -0.03,12.8 10.39,0.32 20.8,0.03 31.19,0.19 -10.91,18.4 -21.99,36.72 -32.76,55.2 -0.26,4.03 0,8.07 -0.09,12.1 16.78,-0.02 33.56,-0.01 50.35,0 0.01,-4.33 0,-8.66 0.01,-12.99 -11.37,-0.01 -22.73,0.01 -34.1,0 10.8,-18.19 21.62,-36.37 32.32,-54.61 0.91,-4.11 0.13,-8.49 0.39,-12.7 -15.76,-0.01 -31.52,-0.02 -47.28,0.01 m 94.37,0 c -10.2,26.76 -20.41,53.52 -30.62,80.28 4.93,0.01 9.86,-0.01 14.79,0.02 2.87,-7.7 5.69,-15.41 8.54,-23.11 8.76,0.03 17.51,0 26.27,0.02 2.94,7.69 5.85,15.39 8.83,23.07 4.82,0 9.64,0.01 14.47,-0.01 -10.13,-26.77 -20.31,-53.51 -30.46,-80.28 -3.94,-0.01 -7.88,-0.02 -11.82,0.01 m 59.91,-0.01 c 0,26.76 0,53.52 0,80.29 13.55,0.01 27.11,0.01 40.66,0 0,-4.33 0,-8.65 0,-12.98 -8.93,-0.01 -17.85,0.01 -26.77,-0.01 0.05,-22.43 0.01,-44.85 0.02,-67.28 -4.64,-0.05 -9.28,-0.02 -13.91,-0.02 m 60.77,0 c 0,26.76 -0.01,53.53 0,80.29 14.84,0 29.67,0 44.5,0 0.01,-4.32 0,-8.65 0.02,-12.97 -10.23,-0.02 -20.45,0 -30.68,-0.02 0,-6.99 0.01,-13.98 0,-20.98 10.22,-0.03 20.45,0.01 30.68,-0.02 -0.02,-4.3 -0.02,-8.61 0,-12.91 -10.23,-0.03 -20.45,0 -30.67,-0.02 -0.02,-6.79 0.03,-13.57 -0.03,-20.36 10.22,0.02 20.45,-0.3 30.67,0 0.03,-4.34 0.01,-8.68 0.02,-13.01 -14.83,0 -29.67,-0.01 -44.51,0 M 140.16,208.1 c 0,164.28 0,328.56 0,492.85 0.15,23.34 -0.34,46.69 0.29,70.03 2.48,75.63 25.23,150.28 64.29,215.01 -0.1,-95.8 -0.02,-191.6 -0.04,-287.4 8.91,5.06 17.87,10.02 26.81,15.04 -0.03,104.02 0,208.03 -0.02,312.04 21.79,28.95 46.97,55.34 74.75,78.59 -0.01,-71.77 0.01,-143.54 -0.01,-215.31 9.03,4.97 18.02,10.01 27.04,15.02 0.02,73.75 -0.05,147.49 0.03,221.24 23.51,16.9 48.52,31.68 74.58,44.3 -0.02,-74.56 0,-149.11 -0.01,-223.66 8.97,4.89 17.84,9.97 26.85,14.8 0.21,73.55 0.04,147.1 0.08,220.64 24.29,9.55 49.32,17.21 74.79,22.88 -0.03,-67.18 0.01,-134.36 -0.02,-201.54 8.97,5.03 17.95,10.03 26.91,15.08 -0.04,63.85 0,127.7 -0.02,191.55 24.74,4.16 49.78,6.5 74.86,7.09 -0.01,-52.25 0.02,-104.51 -0.02,-156.76 4.49,2.49 8.92,5.08 13.44,7.53 4.45,-2.51 8.88,-5.04 13.35,-7.52 -0.01,52.25 0.02,104.5 -0.01,156.74 25.05,-0.56 50.06,-2.93 74.78,-7.06 0.01,-63.85 0.01,-127.69 0,-191.54 8.98,-5.07 17.99,-10.08 26.98,-15.13 -0.04,67.2 0,134.39 -0.02,201.59 25.44,-5.74 50.46,-13.34 74.74,-22.88 -0.02,-73.51 0,-147.01 -0.01,-220.51 8.95,-5.04 17.97,-9.95 26.93,-14.98 0,74.57 0.01,149.14 -0.01,223.71 26.07,-12.69 51.18,-27.39 74.66,-44.42 -0.02,-73.71 0.02,-147.41 -0.02,-221.12 9,-5.04 18.02,-10.06 27.04,-15.06 0,71.77 0.02,143.54 -0.01,215.31 27.77,-23.33 53.25,-49.64 74.68,-78.9 0.12,-103.9 0.03,-207.8 0.04,-311.69 8.95,-5.03 17.92,-10.03 26.87,-15.06 -0.02,95.75 -0.01,191.49 0,287.24 39.02,-64.68 61.74,-139.27 64.19,-214.83 0.62,-21.99 0.14,-43.99 0.3,-65.99 0,-165.64 0,-331.28 0,-496.92 -21.5,0 -43,0 -64.5,0 0,154.83 0,309.66 0,464.49 -8.94,-5.08 -17.98,-9.98 -26.87,-15.14 0.06,-149.78 0,-299.57 0.03,-449.35 -24.91,0 -49.82,0 -74.73,0 0.01,91.44 0,182.88 0,274.32 -9.01,-4.99 -17.97,-10.05 -27,-15 -0.06,-86.44 -0.01,-172.88 -0.02,-259.32 -24.89,0 -49.77,0 -74.66,0 0.04,72.53 -0.02,145.05 0.03,217.57 -8.97,-5.05 -17.95,-10.1 -26.95,-15.08 0.02,-67.5 -0.02,-134.99 0.01,-202.49 -24.91,0 -49.83,0 -74.74,0 0,53.54 0,107.07 0,160.61 -8.98,-5.04 -17.99,-10.03 -26.94,-15.11 -0.03,-48.5 -0.01,-97 -0.01,-145.5 -24.93,0 -49.86,0 -74.78,0 0,34.6 0,69.21 0,103.81 -4.46,-2.52 -8.94,-5.02 -13.38,-7.56 -4.48,2.53 -8.97,5.04 -13.43,7.58 0.09,-34.61 0.01,-69.22 0.04,-103.83 -24.96,0 -49.91,-0.01 -74.87,0 0.02,48.52 0.02,97.04 0,145.56 -8.95,5.02 -17.92,10.01 -26.86,15.06 -0.02,-53.53 -0.01,-107.07 -0.01,-160.61 -24.92,-0.01 -49.84,-0.02 -74.77,0 0,67.49 0,134.99 0,202.48 -9,5 -17.96,10.06 -26.95,15.08 0.03,-72.53 0,-145.05 0.01,-217.57 -24.87,0 -49.74,-0.01 -74.61,0 0.01,86.42 -0.01,172.84 0.01,259.27 -9.01,5.01 -18.02,10.03 -27.03,15.04 0.01,-91.43 -0.01,-182.87 0.01,-274.31 -24.92,-0.01 -49.84,-0.01 -74.76,0 0,149.83 0.03,299.65 -0.02,449.47 -8.92,5 -17.86,9.97 -26.77,15.02 -0.01,-154.83 0,-309.66 0,-464.49 -21.52,-0.01 -43.03,0 -64.54,0 z"
         inkscape:connector-curvature="0"
         style="opacity:1;fill:#00529c" />
      <path
         id="path29"
         d="m 590.43,86.73 c 12.73,-4.06 27.28,3.16 32.49,15.28 6.11,12.79 1.31,29.64 -10.93,36.94 -9.18,5.88 -21.87,5.13 -30.4,-1.62 -9.59,-7.19 -13.75,-20.6 -9.94,-31.96 2.73,-8.77 9.92,-16.08 18.78,-18.64 z"
         inkscape:connector-curvature="0"
         style="opacity:1;fill:#00529c" />
      <path
         id="path31"
         d="m 484.48,87.06 c 8.3,0.35 17.13,-1.24 24.9,2.49 10.63,4.74 16.27,17.18 14.85,28.42 -0.77,7.76 -4.84,15.54 -11.87,19.32 -8.48,4.73 -18.52,4.1 -27.89,4.1 0.03,-18.11 0.01,-36.22 0.01,-54.33 z"
         inkscape:connector-curvature="0"
         style="opacity:1;fill:#00529c" />
      <path
         id="path33"
         d="m 868.17,89.73 c 0.49,0.06 1.46,0.17 1.95,0.22 3.74,10.19 6.97,20.57 10.56,30.82 -7.68,0 -15.36,0 -23.03,-0.01 3.56,-10.32 6.98,-20.7 10.52,-31.03 z"
         inkscape:connector-curvature="0"
         style="opacity:1;fill:#00529c" />
      <path
         id="path35"
         d="M 323.41,501.41 C 423.82,445.16 524.26,388.96 624.7,332.77 725.13,388.96 825.55,445.17 925.97,501.39 898.01,520.73 870.11,540.17 842.14,559.5 769.67,518.96 697.18,478.46 624.73,437.89 552.2,478.39 479.74,519.01 407.2,559.5 379.27,540.14 351.38,520.72 323.41,501.41 Z"
         inkscape:connector-curvature="0"
         style="opacity:1;fill:#00529c" />
      <path
         id="path37"
         d="M 232.2,685.66 C 363.05,612.55 493.85,539.38 624.69,466.27 755.54,539.39 886.36,612.54 1017.2,685.68 886.35,758.84 755.53,832.04 624.7,905.24 493.87,832.05 363.03,758.87 232.2,685.66 M 495.57,573.2 c 0.04,15.22 0.02,30.44 0.01,45.67 10.45,0 20.9,-0.02 31.35,0.01 -0.04,45.5 -0.03,91.01 0,136.52 -10.79,0.01 -21.57,-0.01 -32.35,0.01 0.02,14.27 0.01,28.55 0.01,42.82 54.47,-0.02 108.94,0.06 163.41,-0.04 37,-1.84 70.37,-27.26 85.81,-60.34 10.03,-21.22 13.22,-45.54 9.59,-68.68 -4.79,-29.88 -23.12,-56.6 -47.59,-73.98 -14.96,-10.58 -32.35,-18.59 -50.8,-19.96 -28.55,-0.29 -57.1,-0.38 -85.64,-0.73 -24.6,-0.33 -49.21,-0.29 -73.8,-1.3 m -104.68,51.18 c -4.36,13.25 -8.58,26.55 -12.89,39.82 -13.99,-0.01 -27.98,0.04 -41.97,-0.03 11.32,8.22 22.67,16.4 33.95,24.68 -4.45,13.22 -8.63,26.53 -13.09,39.75 11.38,-8.15 22.65,-16.44 34,-24.62 11.31,8.2 22.59,16.45 33.93,24.61 -4.33,-13.26 -8.57,-26.54 -12.88,-39.79 11.3,-8.22 22.61,-16.42 33.92,-24.63 -13.98,0.08 -27.96,0.01 -41.94,0.03 -4.36,-13.26 -8.68,-26.55 -13.03,-39.82 m 467.64,0.02 c -4.42,13.25 -8.68,26.55 -13.05,39.81 -13.98,-0.04 -27.96,0.05 -41.94,-0.05 11.29,8.22 22.61,16.42 33.91,24.64 -4.31,13.25 -8.56,26.53 -12.87,39.78 11.36,-8.15 22.62,-16.45 33.98,-24.6 11.28,8.23 22.58,16.45 33.91,24.62 -4.39,-13.26 -8.67,-26.55 -13.05,-39.81 11.32,-8.19 22.61,-16.42 33.92,-24.62 -13.98,0.07 -27.97,0.02 -41.95,0.03 -4.29,-13.27 -8.54,-26.54 -12.86,-39.8 z"
         inkscape:connector-curvature="0"
         style="opacity:1;fill:#00529c" />
      <path
         id="path39"
         d="m 306.24,519.76 c 9.01,6.18 18,12.38 27.01,18.57 0.02,20.8 0.02,41.6 0.01,62.41 -9.02,5 -18.03,10.01 -27.03,15.04 0.02,-32 0.01,-64.01 0.01,-96.02 z"
         inkscape:connector-curvature="0"
         style="opacity:1;fill:#00529c" />
      <path
         id="path41"
         d="m 916.14,538.33 c 9.01,-6.19 18,-12.39 27.01,-18.58 0,32.01 0.01,64.02 0,96.03 -9,-5.04 -18.02,-10.04 -27.03,-15.05 0.02,-20.8 -0.02,-41.6 0.02,-62.4 z"
         inkscape:connector-curvature="0"
         style="opacity:1;fill:#00529c" />
      <path
         id="path43"
         d="m 597.21,619.79 c 9.56,-0.92 19.22,-1.21 28.81,-0.67 28.08,3.83 53.18,26.46 58.07,54.69 2.69,14.37 0.96,29.66 -5.5,42.83 -7.31,14.89 -20,26.87 -34.83,34.15 -5.26,2.45 -10.84,4.71 -16.74,4.62 -9.93,-0.01 -19.86,-0.02 -29.79,0 0,-45.21 0.02,-90.42 -0.02,-135.62 z"
         inkscape:connector-curvature="0"
         style="opacity:1;fill:#00529c" />
      <path
         id="path45"
         d="m 306.24,755.57 c 9.01,5.03 18.05,10.01 27.04,15.09 -0.03,20.78 -0.01,41.56 -0.02,62.34 -8.99,6.2 -18.01,12.39 -27.02,18.58 0,-32.01 0.01,-64.01 0,-96.01 z"
         inkscape:connector-curvature="0"
         style="opacity:1;fill:#00529c" />
      <path
         id="path47"
         d="m 916.21,770.51 c 9.04,-4.87 17.94,-10 26.94,-14.93 0,32 0.01,64 0,96 -9.01,-6.21 -18.06,-12.37 -27.04,-18.61 0.09,-20.82 -0.11,-41.65 0.1,-62.46 z"
         inkscape:connector-curvature="0"
         style="opacity:1;fill:#00529c" />
      <path
         id="path49"
         d="m 323.43,869.97 c 27.92,-19.4 55.86,-38.76 83.79,-58.14 72.51,40.52 144.97,81.11 217.49,121.6 72.49,-40.52 144.97,-81.07 217.45,-121.6 27.95,19.36 55.86,38.78 83.83,58.13 C 825.55,926.14 725.14,982.38 624.71,1038.58 524.26,982.41 423.87,926.15 323.43,869.97 Z"
         inkscape:connector-curvature="0"
         style="opacity:1;fill:#00529c" />
      <path
         id="path51"
         d="m 773.4,1072.65 c 6.49,-1.25 13.96,0.33 18.32,5.61 5.11,6.35 6.41,14.81 6.39,22.74 0.08,8.46 -0.32,17.62 -5.33,24.81 -6.6,9.85 -23.25,9.89 -30.07,0.29 -4.53,-6.37 -5.26,-14.49 -5.54,-22.05 0.02,-7.21 0.39,-14.74 3.57,-21.34 2.41,-5.03 7.04,-9.17 12.66,-10.06 m 0.77,6.33 c -6.18,2.1 -7.85,9.24 -8.5,14.99 -0.66,8.02 -0.88,16.29 1.24,24.12 1.27,4.92 5.88,9.31 11.2,8.87 5.84,-0.04 10.04,-5.58 10.9,-10.95 1.61,-9.19 1.69,-18.78 -0.33,-27.9 -1.22,-6.37 -8.06,-11.5 -14.51,-9.13 z"
         inkscape:connector-curvature="0"
         style="opacity:1;fill:#00529c" />
      <path
         id="path53"
         d="m 471.19,1072.88 c 1.89,-0.02 3.79,-0.02 5.69,-0.01 0,19.63 -0.01,39.26 0,58.9 -2.56,-0.01 -5.11,-0.01 -7.66,-0.01 0,-13.83 0.02,-27.66 0,-41.49 -4.54,0.01 -9.07,0.01 -13.6,0.01 -0.01,-2.04 -0.01,-4.06 -0.02,-6.07 4.15,-0.22 8.79,-0.56 11.98,-3.57 2.27,-1.95 3.04,-4.96 3.61,-7.76 z"
         inkscape:connector-curvature="0"
         style="opacity:1;fill:#00529c" />
      <path
         id="path55"
         d="m 556.89,1081.94 c 5.84,-10.22 21.27,-11.96 30.18,-4.89 6.26,5.37 7.99,14.11 8.18,21.98 0.09,9.41 -0.92,19.63 -6.8,27.38 -5.99,7.91 -18,8.99 -26.34,4.41 -4.87,-2.66 -7.39,-8.2 -7.44,-13.59 2.6,-0.03 5.2,-0.04 7.81,-0.05 0.25,2.9 1.32,5.91 3.9,7.54 4.88,3.14 12.31,2.29 15.8,-2.57 3.55,-4.75 4.07,-10.88 4.56,-16.58 -7.2,9.16 -23.45,8.26 -29.51,-1.72 -3.9,-6.55 -4.01,-15.24 -0.34,-21.91 m 12.45,-1.41 c -6.98,3.11 -8.41,12.78 -5.08,19.04 4.09,7.56 16.84,6.76 20.45,-0.86 2.08,-4.53 1.83,-10.21 -0.93,-14.39 -3.06,-4.57 -9.54,-5.82 -14.44,-3.79 z"
         inkscape:connector-curvature="0"
         style="opacity:1;fill:#00529c" />
      <path
         id="path57"
         d="m 668,1075.83 c 7.84,-4.72 19.05,-3.97 25.74,2.45 5.43,5.44 5.93,14.52 2.55,21.17 -6.53,12.03 -24.65,11.46 -29.51,24.89 10.53,0.05 21.05,0 31.58,0.02 -0.01,2.46 -0.01,4.94 -0.01,7.42 -13.29,-0.03 -26.58,-0.02 -39.87,-0.01 -0.29,-6.5 1.7,-13.25 6.38,-17.91 6.18,-6.6 15.49,-8.84 21.99,-15 4.54,-4.24 5,-12.74 -0.3,-16.55 -4.54,-3.08 -11.5,-3.26 -15.58,0.71 -2.93,2.91 -3.43,7.2 -3.73,11.12 -2.57,-0.01 -5.13,-0.01 -7.69,-0.01 -0.07,-6.91 2.24,-14.53 8.45,-18.3 z"
         inkscape:connector-curvature="0"
         style="opacity:1;fill:#00529c" />
    </g>
    <g
       id="#fff200ff">
      <path
         id="path60"
         d="m 140.16,208.1 c 21.51,0 43.02,-0.01 64.54,0 0,154.83 -0.01,309.66 0,464.49 8.91,-5.05 17.85,-10.02 26.77,-15.02 0.05,-149.82 0.02,-299.64 0.02,-449.47 24.92,-0.01 49.84,-0.01 74.76,0 -0.02,91.44 0,182.88 -0.01,274.31 9.01,-5.01 18.02,-10.03 27.03,-15.04 -0.02,-86.43 0,-172.85 -0.01,-259.27 24.87,-0.01 49.74,0 74.61,0 -0.01,72.52 0.02,145.04 -0.01,217.57 8.99,-5.02 17.95,-10.08 26.95,-15.08 0,-67.49 0,-134.99 0,-202.48 24.93,-0.02 49.85,-0.01 74.77,0 0,53.54 -0.01,107.08 0.01,160.61 8.94,-5.05 17.91,-10.04 26.86,-15.06 0.02,-48.52 0.02,-97.04 0,-145.56 24.96,-0.01 49.91,0 74.87,0 -0.03,34.61 0.05,69.22 -0.04,103.83 4.46,-2.54 8.95,-5.05 13.43,-7.58 4.44,2.54 8.92,5.04 13.38,7.56 0,-34.6 0,-69.21 0,-103.81 24.92,0 49.85,0 74.78,0 0,48.5 -0.02,97 0.01,145.5 8.95,5.08 17.96,10.07 26.94,15.11 0,-53.54 0,-107.07 0,-160.61 24.91,0 49.83,0 74.74,0 -0.03,67.5 0.01,134.99 -0.01,202.49 9,4.98 17.98,10.03 26.95,15.08 -0.05,-72.52 0.01,-145.04 -0.03,-217.57 24.89,0 49.77,0 74.66,0 0.01,86.44 -0.04,172.88 0.02,259.32 9.03,4.95 17.99,10.01 27,15 0,-91.44 0.01,-182.88 0,-274.32 24.91,0 49.82,0 74.73,0 -0.03,149.78 0.03,299.57 -0.03,449.35 8.89,5.16 17.93,10.06 26.87,15.14 0,-154.83 0,-309.66 0,-464.49 21.5,0 43,0 64.5,0 0,165.64 0,331.28 0,496.92 -0.16,22 0.32,44 -0.3,65.99 -2.45,75.56 -25.17,150.15 -64.19,214.83 -0.01,-95.75 -0.02,-191.49 0,-287.24 -8.95,5.03 -17.92,10.03 -26.87,15.06 -0.01,103.89 0.08,207.79 -0.04,311.69 -21.43,29.26 -46.91,55.57 -74.68,78.9 0.03,-71.77 0.01,-143.54 0.01,-215.31 -9.02,5 -18.04,10.02 -27.04,15.06 0.04,73.71 0,147.41 0.02,221.12 -23.48,17.03 -48.59,31.73 -74.66,44.42 0.02,-74.57 0.01,-149.14 0.01,-223.71 -8.96,5.03 -17.98,9.94 -26.93,14.98 0.01,73.5 -0.01,147 0.01,220.51 -24.28,9.54 -49.3,17.14 -74.74,22.88 0.02,-67.2 -0.02,-134.39 0.02,-201.59 -8.99,5.05 -18,10.06 -26.98,15.13 0.01,63.85 0.01,127.69 0,191.54 -24.72,4.13 -49.73,6.5 -74.78,7.06 0.03,-52.24 0,-104.49 0.01,-156.74 -4.47,2.48 -8.9,5.01 -13.35,7.52 -4.52,-2.45 -8.95,-5.04 -13.44,-7.53 0.04,52.25 0.01,104.51 0.02,156.76 -25.08,-0.59 -50.12,-2.93 -74.86,-7.09 0.02,-63.85 -0.02,-127.7 0.02,-191.55 -8.96,-5.05 -17.94,-10.05 -26.91,-15.08 0.03,67.18 -0.01,134.36 0.02,201.54 -25.47,-5.67 -50.5,-13.33 -74.79,-22.88 -0.04,-73.54 0.13,-147.09 -0.08,-220.64 -9.01,-4.83 -17.88,-9.91 -26.85,-14.8 0.01,74.55 -0.01,149.1 0.01,223.66 -26.06,-12.62 -51.07,-27.4 -74.58,-44.3 -0.08,-73.75 -0.01,-147.49 -0.03,-221.24 -9.02,-5.01 -18.01,-10.05 -27.04,-15.02 0.02,71.77 0,143.54 0.01,215.31 -27.78,-23.25 -52.96,-49.64 -74.75,-78.59 0.02,-104.01 -0.01,-208.02 0.02,-312.04 -8.94,-5.02 -17.9,-9.98 -26.81,-15.04 0.02,95.8 -0.06,191.6 0.04,287.4 -39.06,-64.73 -61.81,-139.38 -64.29,-215.01 -0.63,-23.34 -0.14,-46.69 -0.29,-70.03 0,-164.29 0,-328.57 0,-492.85 m 183.25,293.31 c 27.97,19.31 55.86,38.73 83.79,58.09 72.54,-40.49 145,-81.11 217.53,-121.61 72.45,40.57 144.94,81.07 217.41,121.61 27.97,-19.33 55.87,-38.77 83.83,-58.11 C 825.55,445.17 725.13,388.96 624.7,332.77 524.26,388.96 423.82,445.16 323.41,501.41 M 232.2,685.66 C 363.03,758.87 493.87,832.05 624.7,905.24 755.53,832.04 886.35,758.84 1017.2,685.68 886.36,612.54 755.54,539.39 624.69,466.27 493.85,539.38 363.05,612.55 232.2,685.66 m 74.04,-165.9 c 0,32.01 0.01,64.02 -0.01,96.02 9,-5.03 18.01,-10.04 27.03,-15.04 0.01,-20.81 0.01,-41.61 -0.01,-62.41 -9.01,-6.19 -18,-12.39 -27.01,-18.57 m 609.9,18.57 c -0.04,20.8 0,41.6 -0.02,62.4 9.01,5.01 18.03,10.01 27.03,15.05 0.01,-32.01 0,-64.02 0,-96.03 -9.01,6.19 -18,12.39 -27.01,18.58 m -609.9,217.24 c 0.01,32 0,64 0,96.01 9.01,-6.19 18.03,-12.38 27.02,-18.58 0.01,-20.78 -0.01,-41.56 0.02,-62.34 -8.99,-5.08 -18.03,-10.06 -27.04,-15.09 m 609.97,14.94 c -0.21,20.81 -0.01,41.64 -0.1,62.46 8.98,6.24 18.03,12.4 27.04,18.61 0.01,-32 0,-64 0,-96 -9,4.93 -17.9,10.06 -26.94,14.93 m -592.78,99.46 c 100.44,56.18 200.83,112.44 301.28,168.61 100.43,-56.2 200.84,-112.44 301.28,-168.62 -27.97,-19.35 -55.88,-38.77 -83.83,-58.13 -72.48,40.53 -144.96,81.08 -217.45,121.6 -72.52,-40.49 -144.98,-81.08 -217.49,-121.6 -27.93,19.38 -55.87,38.74 -83.79,58.14 m 449.97,202.68 c -5.62,0.89 -10.25,5.03 -12.66,10.06 -3.18,6.6 -3.55,14.13 -3.57,21.34 0.28,7.56 1.01,15.68 5.54,22.05 6.82,9.6 23.47,9.56 30.07,-0.29 5.01,-7.19 5.41,-16.35 5.33,-24.81 0.02,-7.93 -1.28,-16.39 -6.39,-22.74 -4.36,-5.28 -11.83,-6.86 -18.32,-5.61 m -302.21,0.23 c -0.57,2.8 -1.34,5.81 -3.61,7.76 -3.19,3.01 -7.83,3.35 -11.98,3.57 0.01,2.01 0.01,4.03 0.02,6.07 4.53,0 9.06,0 13.6,-0.01 0.02,13.83 0,27.66 0,41.49 2.55,0 5.1,0 7.66,0.01 -0.01,-19.64 0,-39.27 0,-58.9 -1.9,-0.01 -3.8,-0.01 -5.69,0.01 m 85.7,9.06 c -3.67,6.67 -3.56,15.36 0.34,21.91 6.06,9.98 22.31,10.88 29.51,1.72 -0.49,5.7 -1.01,11.83 -4.56,16.58 -3.49,4.86 -10.92,5.71 -15.8,2.57 -2.58,-1.63 -3.65,-4.64 -3.9,-7.54 -2.61,0.01 -5.21,0.02 -7.81,0.05 0.05,5.39 2.57,10.93 7.44,13.59 8.34,4.58 20.35,3.5 26.34,-4.41 5.88,-7.75 6.89,-17.97 6.8,-27.38 -0.19,-7.87 -1.92,-16.61 -8.18,-21.98 -8.91,-7.07 -24.34,-5.33 -30.18,4.89 M 668,1075.83 c -6.21,3.77 -8.52,11.39 -8.45,18.3 2.56,0 5.12,0 7.69,0.01 0.3,-3.92 0.8,-8.21 3.73,-11.12 4.08,-3.97 11.04,-3.79 15.58,-0.71 5.3,3.81 4.84,12.31 0.3,16.55 -6.5,6.16 -15.81,8.4 -21.99,15 -4.68,4.66 -6.67,11.41 -6.38,17.91 13.29,-0.01 26.58,-0.02 39.87,0.01 0,-2.48 0,-4.96 0.01,-7.42 -10.53,-0.02 -21.05,0.03 -31.58,-0.02 4.86,-13.43 22.98,-12.86 29.51,-24.89 3.38,-6.65 2.88,-15.73 -2.55,-21.17 -6.69,-6.42 -17.9,-7.17 -25.74,-2.45 z"
         inkscape:connector-curvature="0"
         style="opacity:1;fill:#fff200" />
      <path
         id="path62"
         d="m 390.89,624.38 c 4.35,13.27 8.67,26.56 13.03,39.82 13.98,-0.02 27.96,0.05 41.94,-0.03 -11.31,8.21 -22.62,16.41 -33.92,24.63 4.31,13.25 8.55,26.53 12.88,39.79 -11.34,-8.16 -22.62,-16.41 -33.93,-24.61 -11.35,8.18 -22.62,16.47 -34,24.62 4.46,-13.22 8.64,-26.53 13.09,-39.75 -11.28,-8.28 -22.63,-16.46 -33.95,-24.68 13.99,0.07 27.98,0.02 41.97,0.03 4.31,-13.27 8.53,-26.57 12.89,-39.82 z"
         inkscape:connector-curvature="0"
         style="opacity:1;fill:#fff200" />
      <path
         id="path64"
         d="m 858.53,624.4 c 4.32,13.26 8.57,26.53 12.86,39.8 13.98,-0.01 27.97,0.04 41.95,-0.03 -11.31,8.2 -22.6,16.43 -33.92,24.62 4.38,13.26 8.66,26.55 13.05,39.81 -11.33,-8.17 -22.63,-16.39 -33.91,-24.62 -11.36,8.15 -22.62,16.45 -33.98,24.6 4.31,-13.25 8.56,-26.53 12.87,-39.78 -11.3,-8.22 -22.62,-16.42 -33.91,-24.64 13.98,0.1 27.96,0.01 41.94,0.05 4.37,-13.26 8.63,-26.56 13.05,-39.81 z"
         inkscape:connector-curvature="0"
         style="opacity:1;fill:#fff200" />
      <path
         id="path66"
         d="m 774.17,1078.98 c 6.45,-2.37 13.29,2.76 14.51,9.13 2.02,9.12 1.94,18.71 0.33,27.9 -0.86,5.37 -5.06,10.91 -10.9,10.95 -5.32,0.44 -9.93,-3.95 -11.2,-8.87 -2.12,-7.83 -1.9,-16.1 -1.24,-24.12 0.65,-5.75 2.32,-12.89 8.5,-14.99 z"
         inkscape:connector-curvature="0"
         style="opacity:1;fill:#fff200" />
      <path
         id="path68"
         d="m 569.34,1080.53 c 4.9,-2.03 11.38,-0.78 14.44,3.79 2.76,4.18 3.01,9.86 0.93,14.39 -3.61,7.62 -16.36,8.42 -20.45,0.86 -3.33,-6.26 -1.9,-15.93 5.08,-19.04 z"
         inkscape:connector-curvature="0"
         style="opacity:1;fill:#fff200" />
    </g>
  </g>
</svg>
