<svg width="260" height="300" xmlns="http://www.w3.org/2000/svg">
 <metadata id="metadata8">image/svg+xml</metadata>
 <defs>
  <clipPath clipPathUnits="userSpaceOnUse" id="clipPath16">
   <path d="m-37.6,305.06l283.46,0l0,-283.46l-283.46,0l0,283.46z" id="path18"/>
  </clipPath>
 </defs>
 <g>
  <title>background</title>
  <rect fill="none" id="canvas_background" height="302" width="262" y="-1" x="-1"/>
 </g>
 <g>
  <title>Layer 1</title>
  <g id="g10" transform="matrix(1.25,0,0,-1.25,0,354.325) ">
   <g id="g12">
    <g id="g14" clip-path="url(#clipPath16)">
     <g id="g20">
      <path fill="#fbc707" fill-rule="nonzero" d="m104.771094,47.891c0,0 92.902,53.24 92.902,154.469c-33.217,23.707 -92.237,23.385 -92.237,23.385c-59.017,0 -94.785,-23.528 -94.785,-23.528c0,0 -5.857,-90.255 94.12,-154.326" id="path22"/>
     </g>
     <g id="g24">
      <path fill="#451f74" fill-rule="nonzero" d="m104.771094,50.3344c0,0 87.706,51.952 87.706,148.519c-31.476,22.616 -87.401,22.309 -87.401,22.309c-55.92,0 -89.233,-22.309 -89.233,-22.309c0,0 -5.806,-87.399 88.928,-148.519" id="path26"/>
     </g>
     <g id="g28">
      <path fill="#fbc707" fill-rule="nonzero" d="m184.835501,178.989099c-29.949,21.394 -80.064,19.56 -80.064,19.56c-55.922,0 -80.98,-19.252 -80.98,-19.252c0,0 -2.139,-74.259 80.98,-125.904c0,0 75.178,42.78 80.064,125.596" id="path30"/>
     </g>
     <g id="g32">
      <path fill="#fbc707" fill-rule="nonzero" d="m27.439101,199.712793l1.626,0.691l9.525,-5.496l0.031,0.013l-3.305,7.777l2.254,0.958l5.014,-11.795l-1.627,-0.692l-9.524,5.496l-0.031,-0.013l3.337,-7.853l-2.254,-0.959l-5.046,11.873z" id="path34"/>
     </g>
     <g id="g36">
      <path fill="#fbc707" fill-rule="nonzero" d="m47.024496,206.723993l2.878,0.904l-2.81,-6.962l6.83,-4.947l-3.005,-0.944l-5.525,4.187l-0.032,-0.01l1.693,-5.391l-2.338,-0.733l-3.765,11.988l2.337,0.735l1.588,-5.057l0.032,0.01l2.117,6.22z" id="path38"/>
     </g>
     <g id="g40">
      <path fill="#fbc707" fill-rule="nonzero" d="m68.328703,206.784997l-0.033,-0.006l-1.323,-8.357l-0.835,-0.158l-4.18,7.318l-0.033,-0.006l0.35,-7.872l-2.424,-0.457l-0.313,13.069l1.703,0.321l4.583,-7.564l1.379,8.69l1.735,0.327l4.245,-12.326l-2.425,-0.458l-2.429,7.479z" id="path42"/>
     </g>
     <g id="g44">
      <path fill="#fbc707" fill-rule="nonzero" d="m78.717902,209.659097l-0.033,-0.004l-0.855,-4.694l2.964,0.339l-2.076,4.359zm-1.357,-6.765l-0.725,-2.75l-2.566,-0.294l3.401,13.373l1.888,0.216l6.203,-12.274l-2.601,-0.298l-1.261,2.523l-4.339,-0.496z" id="path46"/>
     </g>
     <g id="g48">
      <path fill="#fbc707" fill-rule="nonzero" d="m88.893202,208.143396l0.316,0.02c0.332,0.02 0.639,0.067 0.918,0.14c0.279,0.072 0.517,0.19 0.713,0.352c0.196,0.163 0.341,0.369 0.438,0.62c0.095,0.251 0.131,0.57 0.107,0.958c-0.023,0.378 -0.1,0.684 -0.232,0.921c-0.131,0.237 -0.304,0.416 -0.517,0.536c-0.214,0.121 -0.46,0.197 -0.741,0.23c-0.28,0.033 -0.581,0.039 -0.902,0.019l-0.333,-0.02l0.233,-3.776zm6.456,-6.398l-2.961,-0.183l-3.356,4.87l-0.034,-0.002l0.312,-5.058l-2.445,-0.15l-0.774,12.543l3.311,0.204c0.62,0.038 1.194,0.001 1.718,-0.111c0.525,-0.113 0.979,-0.311 1.364,-0.593c0.385,-0.282 0.695,-0.655 0.93,-1.119c0.234,-0.465 0.372,-1.029 0.413,-1.695c0.024,-0.399 -0.007,-0.797 -0.094,-1.191c-0.087,-0.396 -0.229,-0.758 -0.425,-1.087c-0.197,-0.33 -0.45,-0.615 -0.757,-0.857c-0.308,-0.241 -0.666,-0.408 -1.072,-0.5l3.87,-5.071z" id="path50"/>
     </g>
     <g id="g52">
      <path fill="#fbc707" fill-rule="nonzero" d="m99.160696,201.818201l-2.449,-0.071l-0.362,12.562l2.449,0.071l0.362,-12.562z" id="path54"/>
     </g>
     <g id="g56">
      <path fill="#fbc707" fill-rule="nonzero" d="m104.234,203.841699l0.516,0.01c0.334,0.007 0.647,0.029 0.94,0.069c0.295,0.039 0.551,0.121 0.771,0.248c0.22,0.126 0.394,0.31 0.522,0.552c0.129,0.241 0.189,0.567 0.181,0.978c-0.007,0.411 -0.089,0.729 -0.244,0.954c-0.154,0.225 -0.355,0.391 -0.601,0.497c-0.246,0.106 -0.523,0.167 -0.828,0.184c-0.307,0.016 -0.614,0.021 -0.925,0.015l-0.4,-0.008l0.068,-3.499zm-0.105,5.366l0.299,0.006c0.3,0.005 0.561,0.035 0.783,0.089c0.22,0.055 0.405,0.144 0.552,0.27c0.148,0.124 0.255,0.297 0.323,0.515c0.07,0.217 0.099,0.488 0.094,0.81c-0.007,0.311 -0.056,0.571 -0.149,0.78c-0.093,0.21 -0.219,0.374 -0.376,0.493c-0.159,0.119 -0.347,0.202 -0.564,0.248c-0.218,0.045 -0.455,0.066 -0.711,0.061l-0.315,-0.006l0.064,-3.266zm-2.552,5.184l3.05,0.06c0.578,0.011 1.1,-0.04 1.569,-0.153c0.47,-0.113 0.871,-0.303 1.203,-0.568c0.333,-0.267 0.59,-0.614 0.771,-1.044c0.18,-0.43 0.277,-0.955 0.29,-1.578c0.007,-0.456 -0.069,-0.913 -0.233,-1.371c-0.163,-0.46 -0.436,-0.82 -0.821,-1.083c0.369,-0.06 0.69,-0.19 0.967,-0.39c0.275,-0.2 0.506,-0.446 0.69,-0.737c0.183,-0.291 0.319,-0.607 0.409,-0.95c0.091,-0.343 0.139,-0.686 0.146,-1.031c0.012,-0.622 -0.08,-1.157 -0.277,-1.605c-0.197,-0.449 -0.469,-0.824 -0.82,-1.125c-0.351,-0.301 -0.771,-0.526 -1.262,-0.675c-0.492,-0.148 -1.021,-0.228 -1.587,-0.239l-3.85,-0.075l-0.245,12.564z" id="path58"/>
     </g>
     <g id="g60">
      <path fill="#fbc707" fill-rule="nonzero" d="m117.584601,212.136606c-0.532,0.028 -1.032,-0.063 -1.5,-0.273c-0.467,-0.209 -0.871,-0.497 -1.213,-0.863c-0.342,-0.366 -0.616,-0.789 -0.824,-1.267c-0.209,-0.479 -0.326,-0.974 -0.354,-1.484c-0.024,-0.477 0.045,-0.973 0.207,-1.487c0.163,-0.516 0.397,-0.992 0.702,-1.431c0.305,-0.438 0.676,-0.805 1.112,-1.101c0.435,-0.295 0.913,-0.456 1.435,-0.483c0.521,-0.026 1.014,0.084 1.478,0.333c0.463,0.248 0.869,0.575 1.219,0.979c0.348,0.405 0.631,0.854 0.845,1.35c0.215,0.495 0.334,0.981 0.359,1.458c0.028,0.511 -0.039,1.015 -0.196,1.513c-0.158,0.497 -0.388,0.946 -0.69,1.346c-0.302,0.399 -0.674,0.727 -1.117,0.984c-0.443,0.257 -0.931,0.398 -1.463,0.426m-0.561,-10.802c-0.921,0.047 -1.752,0.269 -2.494,0.663c-0.741,0.394 -1.368,0.906 -1.881,1.533c-0.512,0.627 -0.901,1.351 -1.164,2.171c-0.263,0.821 -0.372,1.681 -0.325,2.579c0.045,0.877 0.241,1.707 0.588,2.49c0.347,0.783 0.807,1.462 1.383,2.039c0.573,0.577 1.252,1.023 2.029,1.338c0.779,0.316 1.629,0.45 2.55,0.403c0.909,-0.048 1.738,-0.269 2.485,-0.664c0.748,-0.395 1.377,-0.908 1.89,-1.541c0.512,-0.633 0.9,-1.357 1.164,-2.171c0.264,-0.815 0.372,-1.661 0.327,-2.537c-0.047,-0.899 -0.243,-1.743 -0.59,-2.532c-0.346,-0.789 -0.806,-1.468 -1.383,-2.039c-0.574,-0.572 -1.253,-1.014 -2.038,-1.33c-0.784,-0.315 -1.631,-0.449 -2.541,-0.402" id="path62"/>
     </g>
     <g id="g64">
      <path fill="#fbc707" fill-rule="nonzero" d="m128.239798,207.6l0.315,-0.035c0.331,-0.037 0.64,-0.043 0.928,-0.019c0.288,0.024 0.542,0.099 0.763,0.225c0.221,0.127 0.4,0.306 0.537,0.536c0.138,0.231 0.228,0.54 0.27,0.926c0.042,0.375 0.019,0.691 -0.071,0.947c-0.089,0.256 -0.228,0.461 -0.418,0.616c-0.189,0.156 -0.419,0.273 -0.69,0.353c-0.271,0.081 -0.567,0.139 -0.886,0.174l-0.332,0.037l-0.416,-3.76zm5.266,-7.409l-2.949,0.327l-2.473,5.372l-0.032,0.003l-0.559,-5.035l-2.436,0.27l1.385,12.49l3.296,-0.365c0.618,-0.069 1.176,-0.204 1.674,-0.404c0.498,-0.201 0.912,-0.473 1.243,-0.817c0.331,-0.344 0.572,-0.765 0.724,-1.263c0.151,-0.497 0.19,-1.077 0.117,-1.739c-0.044,-0.398 -0.143,-0.784 -0.296,-1.158c-0.152,-0.375 -0.355,-0.707 -0.606,-0.998c-0.25,-0.291 -0.547,-0.529 -0.892,-0.715c-0.345,-0.185 -0.725,-0.288 -1.14,-0.309l2.944,-5.659z" id="path66"/>
     </g>
     <g id="g68">
      <path fill="#fbc707" fill-rule="nonzero" d="m143.988898,209.034097l0.417,2.092l4.02,-0.802l-2.458,-12.324l-2.404,0.479l2.043,10.232l-1.618,0.323z" id="path70"/>
     </g>
     <g id="g72">
      <path fill="#fbc707" fill-rule="nonzero" d="m155.814993,206.867105c-0.301,0.078 -0.588,0.081 -0.859,0.009c-0.272,-0.073 -0.519,-0.195 -0.741,-0.366c-0.224,-0.172 -0.415,-0.383 -0.571,-0.635c-0.158,-0.252 -0.271,-0.512 -0.342,-0.781c-0.073,-0.279 -0.101,-0.565 -0.086,-0.856c0.016,-0.291 0.079,-0.566 0.189,-0.825c0.111,-0.258 0.267,-0.485 0.469,-0.682c0.2,-0.196 0.452,-0.333 0.754,-0.412c0.3,-0.078 0.585,-0.081 0.858,-0.009c0.271,0.073 0.518,0.195 0.742,0.366c0.223,0.172 0.414,0.38 0.576,0.625c0.161,0.245 0.279,0.507 0.352,0.786c0.07,0.269 0.096,0.552 0.076,0.851c-0.019,0.298 -0.085,0.576 -0.195,0.834c-0.112,0.259 -0.268,0.486 -0.468,0.682c-0.202,0.197 -0.453,0.334 -0.754,0.413m-4.767,-9.211l3.423,2.878l-0.024,0.041c-0.332,-0.04 -0.664,-0.016 -0.998,0.071c-0.559,0.146 -1.032,0.39 -1.419,0.732c-0.388,0.343 -0.689,0.74 -0.903,1.193c-0.215,0.452 -0.343,0.942 -0.383,1.469c-0.04,0.527 0.009,1.054 0.146,1.581c0.162,0.623 0.421,1.173 0.776,1.649c0.354,0.476 0.767,0.853 1.243,1.131c0.474,0.278 1.003,0.456 1.586,0.533c0.582,0.078 1.186,0.035 1.809,-0.128c0.591,-0.154 1.121,-0.402 1.59,-0.742c0.467,-0.341 0.845,-0.741 1.133,-1.201c0.287,-0.46 0.475,-0.974 0.561,-1.542c0.087,-0.568 0.051,-1.159 -0.11,-1.771c-0.192,-0.743 -0.527,-1.419 -1.002,-2.03c-0.476,-0.611 -0.99,-1.159 -1.542,-1.647l-4.476,-3.946l-1.41,1.729z" id="path74"/>
     </g>
     <g id="g76">
      <path fill="#fbc707" fill-rule="nonzero" d="m162.732993,195.153696c0.294,-0.101 0.579,-0.126 0.857,-0.074c0.275,0.053 0.53,0.155 0.766,0.309c0.234,0.155 0.44,0.349 0.614,0.583c0.174,0.233 0.306,0.482 0.396,0.744c0.091,0.263 0.14,0.543 0.147,0.84c0.008,0.297 -0.033,0.578 -0.124,0.844c-0.091,0.267 -0.228,0.505 -0.415,0.716c-0.186,0.21 -0.427,0.367 -0.72,0.467c-0.294,0.102 -0.58,0.126 -0.856,0.073c-0.277,-0.051 -0.532,-0.154 -0.767,-0.308c-0.235,-0.155 -0.444,-0.35 -0.625,-0.588c-0.182,-0.237 -0.317,-0.487 -0.407,-0.75c-0.091,-0.262 -0.136,-0.541 -0.136,-0.834c-0.001,-0.293 0.043,-0.573 0.134,-0.839c0.091,-0.266 0.229,-0.505 0.415,-0.716c0.186,-0.211 0.427,-0.366 0.721,-0.467m5.445,8.827l-3.63,-2.614l0.022,-0.042c0.154,0.006 0.315,-0.006 0.482,-0.033c0.166,-0.028 0.333,-0.071 0.501,-0.129c0.547,-0.187 1,-0.466 1.362,-0.837c0.359,-0.37 0.63,-0.789 0.81,-1.256c0.18,-0.467 0.271,-0.965 0.271,-1.494c0,-0.529 -0.087,-1.051 -0.264,-1.566c-0.209,-0.609 -0.508,-1.136 -0.894,-1.578c-0.387,-0.443 -0.829,-0.785 -1.322,-1.027c-0.495,-0.241 -1.036,-0.379 -1.623,-0.412c-0.586,-0.033 -1.184,0.054 -1.794,0.263c-0.589,0.203 -1.101,0.491 -1.536,0.863c-0.436,0.373 -0.78,0.799 -1.032,1.28c-0.252,0.48 -0.402,1.004 -0.447,1.572c-0.047,0.568 0.034,1.151 0.239,1.75c0.249,0.725 0.634,1.374 1.154,1.948c0.52,0.573 1.072,1.082 1.66,1.527l4.761,3.599l1.28,-1.814z" id="path78"/>
     </g>
     <g id="g80">
      <path fill="#fbc707" fill-rule="nonzero" d="m175.997702,199.685907c-0.263,0.12 -0.526,0.15 -0.791,0.093c-0.264,-0.057 -0.521,-0.173 -0.769,-0.346c-0.251,-0.174 -0.488,-0.389 -0.715,-0.646c-0.226,-0.258 -0.436,-0.525 -0.629,-0.804c-0.194,-0.278 -0.362,-0.549 -0.506,-0.813c-0.145,-0.264 -0.26,-0.493 -0.347,-0.685c-0.083,-0.182 -0.177,-0.417 -0.283,-0.704c-0.107,-0.288 -0.199,-0.596 -0.281,-0.925c-0.083,-0.328 -0.148,-0.666 -0.195,-1.01c-0.046,-0.345 -0.052,-0.669 -0.017,-0.971c0.033,-0.302 0.113,-0.573 0.243,-0.815c0.128,-0.241 0.324,-0.421 0.587,-0.54c0.262,-0.12 0.527,-0.148 0.793,-0.086c0.266,0.063 0.524,0.18 0.774,0.354c0.249,0.173 0.489,0.391 0.717,0.654c0.228,0.262 0.439,0.532 0.634,0.811c0.192,0.278 0.362,0.549 0.506,0.813c0.143,0.265 0.259,0.492 0.347,0.685c0.087,0.192 0.182,0.43 0.286,0.712c0.104,0.282 0.197,0.588 0.279,0.916c0.082,0.33 0.144,0.664 0.189,1.003c0.045,0.34 0.049,0.661 0.016,0.963c-0.035,0.302 -0.117,0.571 -0.247,0.807c-0.132,0.237 -0.327,0.415 -0.591,0.534m0.881,1.943c0.768,-0.349 1.323,-0.842 1.663,-1.478c0.34,-0.636 0.533,-1.327 0.579,-2.073c0.045,-0.747 -0.02,-1.504 -0.197,-2.272c-0.178,-0.767 -0.407,-1.46 -0.687,-2.077c-0.182,-0.405 -0.408,-0.821 -0.676,-1.249c-0.266,-0.427 -0.57,-0.833 -0.909,-1.217c-0.338,-0.383 -0.707,-0.731 -1.104,-1.045c-0.399,-0.313 -0.82,-0.555 -1.264,-0.726c-0.443,-0.171 -0.906,-0.257 -1.388,-0.258c-0.483,-0.001 -0.976,0.113 -1.483,0.343c-0.506,0.229 -0.917,0.526 -1.233,0.889c-0.318,0.364 -0.558,0.768 -0.722,1.215c-0.164,0.446 -0.259,0.922 -0.285,1.428c-0.027,0.506 -0.008,1.013 0.058,1.52c0.065,0.508 0.17,1.003 0.316,1.486c0.146,0.483 0.31,0.926 0.494,1.331c0.28,0.617 0.65,1.245 1.111,1.885c0.46,0.639 0.987,1.187 1.579,1.645c0.591,0.457 1.239,0.768 1.942,0.931c0.701,0.163 1.436,0.071 2.206,-0.278" id="path82"/>
     </g>
     <g id="g84">
      <path fill="#451f74" fill-rule="nonzero" d="m60.721297,114.511102c0,0 8.654,-5.729 19.196,-9.243l0,-4.126c0,0 -9.928,-5.807 -7.028,-15.434c0,0 2.752,-9.166 13.908,-8.403c4.337,0.299 7.35,3.917 11.155,5.564l-0.101,-0.063c4.101,1.898 8.852,1.846 12.98,0.063c3.806,-1.647 6.82,-5.265 11.161,-5.564c11.152,-0.763 13.903,8.403 13.903,8.403c2.905,9.627 -7.03,15.434 -7.03,15.434l0,4.126c10.544,3.514 19.204,9.243 19.204,9.243c34.224,25.061 18.637,39.423 18.637,39.423c-15.89,12.833 -36.366,-7.946 -36.366,-7.946l-3.054,2.902c0,0 7.821,28.499 -7.003,38.733c-16.182,11.179 -31.906,-0.304 -31.906,-0.304c-14.823,-10.237 -6.88,-38.352 -6.88,-38.352l-3.053,-2.903c0,0 -20.475,20.781 -36.367,7.947c0,0 -15.586,-14.365 18.644,-39.423" id="path86"/>
     </g>
     <g id="g88">
      <path fill="#fbc707" fill-rule="nonzero" d="m124.939093,138.397798c0,0 -0.098,-4.287 -4.43,-4.43c-4.839,0 -4.889,4.43 -4.889,4.43l-4.278,0l0,-7.334l-12.985,0l0,7.334l-4.281,0c0,0 -0.102,-4.338 -4.788,-4.43l-0.102,0c-4.532,0.195 -4.43,4.43 -4.43,4.43l-4.736,0l0,-30.252l18.337,0l0,14.897c0,0 5.754,6.952 12.833,0l0,-14.897l18.338,0l0,30.252l-4.589,0z" id="path90"/>
     </g>
     <g id="g92">
      <path fill="#fbc707" fill-rule="nonzero" d="m109.502493,139.417398l0,18.818l-0.005,0c-0.006,0.321 -0.262,0.575 -0.572,0.575l-0.665,0c-0.318,0 -0.568,-0.254 -0.579,-0.575l-0.011,0l0,-15.888l-0.921,0l0,16.083l0,1.757l0,0.086l-0.015,0c-0.045,0.294 -0.286,0.525 -0.593,0.525l-2.859,0c-0.302,0 -0.547,-0.231 -0.588,-0.525l-0.015,0l0,-0.085l0,-0.001l0,-1.757l0,-16.083l-0.92,0l0,15.888l-0.017,0c-0.036,0.299 -0.286,0.536 -0.592,0.536l-0.702,0c-0.312,0 -0.557,-0.237 -0.592,-0.536l-0.017,0l0,-0.076l0,-2.248l0,-16.494l2.921,0.023c-0.716,-0.585 -1.176,-1.46 -1.176,-2.453c0,-1.755 1.422,-3.18 3.182,-3.18c1.759,0 3.18,1.425 3.18,3.18c0,0.996 -0.464,1.87 -1.176,2.455l0.844,0l1.888,-0.025z" id="path94"/>
     </g>
     <g id="g96">
      <path fill="#fbc707" fill-rule="nonzero" d="m104.130499,280.356287l6.57,-13.311l14.69,-2.135l-10.631,-10.362l2.51,-14.631l-13.139,6.912l-13.14,-6.912l2.509,14.631l-10.63,10.362l14.689,2.135l6.572,13.311z" id="path98"/>
     </g>
    </g>
   </g>
  </g>
 </g>
</svg>