<?xml version="1.0" encoding="UTF-8" standalone="no"?>
<svg
   xmlns:dc="http://purl.org/dc/elements/1.1/"
   xmlns:cc="http://creativecommons.org/ns#"
   xmlns:rdf="http://www.w3.org/1999/02/22-rdf-syntax-ns#"
   xmlns:svg="http://www.w3.org/2000/svg"
   xmlns="http://www.w3.org/2000/svg"
   xmlns:sodipodi="http://sodipodi.sourceforge.net/DTD/sodipodi-0.dtd"
   xmlns:inkscape="http://www.inkscape.org/namespaces/inkscape"
   viewBox="0 0 154.24533 226.77198"
   height="226.77199"
   width="154.24533"
   xml:space="preserve"
   id="svg2"
   version="1.1"
   inkscape:version="0.91 r13725"
   sodipodi:docname="NkOsijek_Grb_Boja_2016 ink.svg"><sodipodi:namedview
     pagecolor="#ffffff"
     bordercolor="#666666"
     borderopacity="1"
     objecttolerance="10"
     gridtolerance="10"
     guidetolerance="10"
     inkscape:pageopacity="0"
     inkscape:pageshadow="2"
     inkscape:window-width="1366"
     inkscape:window-height="705"
     id="namedview101"
     showgrid="false"
     inkscape:snap-page="false"
     fit-margin-top="0"
     fit-margin-left="0"
     fit-margin-right="0"
     fit-margin-bottom="0"
     inkscape:zoom="2.0259033"
     inkscape:cx="157.52517"
     inkscape:cy="112.38761"
     inkscape:window-x="-8"
     inkscape:window-y="-8"
     inkscape:window-maximized="1"
     inkscape:current-layer="g10" /><metadata
     id="metadata8"><rdf:RDF><cc:Work
         rdf:about=""><dc:format>image/svg+xml</dc:format><dc:type
           rdf:resource="http://purl.org/dc/dcmitype/StillImage" /><dc:title></dc:title></cc:Work></rdf:RDF></metadata><defs
     id="defs6"><clipPath
       id="clipPath18"
       clipPathUnits="userSpaceOnUse"><path
         id="path16"
         d="m 0,198.43 198.43,0 L 198.43,0 0,0 Z"
         inkscape:connector-curvature="0" /></clipPath></defs><g
     transform="matrix(1.3333333,0,0,-1.3333333,-55.164132,245.67279)"
     id="g10"><g
       id="g12"><g
         clip-path="url(#clipPath18)"
         id="g14"><g
           transform="translate(99.2141,14.1756)"
           id="g20"><path
             id="path22"
             style="fill:#ffffff;fill-opacity:1;fill-rule:nonzero;stroke:none"
             d="m 0,0 -2.567,1.913 c -9.927,7.407 -15.591,9.459 -22.499,11.556 -7.435,2.256 -15.859,4.81 -23.385,13.06 -8.063,8.838 -9.344,22.006 -9.39,29.068 l 0,114.482 115.684,0 0,-114.452 C 57.797,48.549 56.515,35.365 48.453,26.529 40.926,18.279 32.499,15.725 25.066,13.469 18.154,11.372 12.494,9.312 2.567,1.913 Z"
             inkscape:connector-curvature="0" /></g><path
           id="path24"
           style="fill:#2d5da7;fill-opacity:1;fill-rule:nonzero;stroke:none"
           d="m 152.635,179.699 -27.029,0 0,-26.888 27.029,0 z"
           inkscape:connector-curvature="0" /><path
           id="path26"
           style="fill:#2d5da7;fill-opacity:1;fill-rule:nonzero;stroke:none"
           d="m 72.771,179.699 -27.227,0 0,-26.888 27.227,0 z"
           inkscape:connector-curvature="0" /><path
           id="path28"
           style="fill:#ffffff;fill-opacity:1;fill-rule:nonzero;stroke:none"
           d="m 125.606,179.121 -52.835,0 0,-26.31 52.835,0 z"
           inkscape:connector-curvature="0" /><g
           transform="translate(46.4169,152.4984)"
           id="g30"><path
             id="path32"
             style="fill:#2d5da7;fill-opacity:1;fill-rule:nonzero;stroke:none"
             d="m 0,0 0,-82.696 c 0.04,-6.339 1.144,-18.108 8.071,-25.7 6.591,-7.222 14.311,-9.565 21.122,-11.63 7.067,-2.146 13.31,-4.402 23.604,-12.012 10.296,7.61 16.538,9.866 23.606,12.012 6.809,2.065 14.531,4.408 21.121,11.63 6.929,7.592 8.032,19.361 8.07,25.706 l 0,82.69 z"
             inkscape:connector-curvature="0" /></g><g
           transform="translate(134.9076,36.3047)"
           id="g34"><path
             id="path36"
             style="fill:#5cb7e8;fill-opacity:1;fill-rule:nonzero;stroke:none"
             d="M 0,0 -0.01,0 C -0.054,-0.02 -0.094,-0.044 -0.135,-0.066 -0.088,-0.044 -0.044,-0.024 0,0"
             inkscape:connector-curvature="0" /></g><g
           transform="translate(60.4018,37.9846)"
           id="g38"><path
             id="path40"
             style="fill:#5cb7e8;fill-opacity:1;fill-rule:nonzero;stroke:none"
             d="m 0,0 c 0.945,-0.614 1.903,-1.172 2.872,-1.68 l 71.624,0 c 0.972,0.512 1.933,1.06 2.881,1.68 z"
             inkscape:connector-curvature="0" /></g><g
           transform="translate(75.2078,31.7753)"
           id="g42"><path
             id="path44"
             style="fill:#5cb7e8;fill-opacity:1;fill-rule:nonzero;stroke:none"
             d="M 0,0 0,0 C -0.492,0.147 -0.984,0.301 -1.477,0.452 -0.984,0.301 -0.492,0.147 0,0"
             inkscape:connector-curvature="0" /></g><g
           transform="translate(92.8214,23.8841)"
           id="g46"><path
             id="path48"
             style="fill:#5cb7e8;fill-opacity:1;fill-rule:nonzero;stroke:none"
             d="m 0,0 12.538,0 -0.006,-0.004 c 0.953,0.61 1.873,1.168 2.76,1.684 l -18.048,0 C -1.869,1.166 -0.95,0.606 0,0"
             inkscape:connector-curvature="0" /></g><g
           transform="translate(143.3309,42.5201)"
           id="g50"><path
             id="path52"
             style="fill:#5cb7e8;fill-opacity:1;fill-rule:nonzero;stroke:none"
             d="M 0,0 0,0 C -0.002,-0.004 -0.004,-0.006 -0.008,-0.012 -0.004,-0.006 -0.002,-0.004 0,0"
             inkscape:connector-curvature="0" /></g><g
           transform="translate(75.2715,31.7553)"
           id="g54"><path
             id="path56"
             style="fill:#5cb7e8;fill-opacity:1;fill-rule:nonzero;stroke:none"
             d="m 0,0 c 1.744,-0.53 3.41,-1.062 5.061,-1.662 l 37.515,0 c 1.652,0.6 3.316,1.132 5.064,1.662 0.02,0.006 0.042,0.014 0.06,0.02 l -47.764,0 C -0.046,0.014 -0.022,0.006 0,0"
             inkscape:connector-curvature="0" /></g><g
           transform="translate(117.8479,30.0934)"
           id="g58"><path
             id="path60"
             style="fill:#5cb7e8;fill-opacity:1;fill-rule:nonzero;stroke:none"
             d="M 0,0 Z"
             inkscape:connector-curvature="0" /></g><g
           transform="translate(53.222,44.3015)"
           id="g62"><path
             id="path64"
             style="fill:#5cb7e8;fill-opacity:1;fill-rule:nonzero;stroke:none"
             d="M 0,0 C -0.787,0.927 -1.494,1.911 -2.134,2.939 -1.494,1.911 -0.787,0.927 0,0"
             inkscape:connector-curvature="0" /></g><g
           transform="translate(46.2396,61.154)"
           id="g66"><path
             id="path68"
             style="fill:#5cb7e8;fill-opacity:1;fill-rule:nonzero;stroke:none"
             d="m 0,0 105.7,0 c 0.09,0.564 0.169,1.124 0.241,1.678 l -106.178,0 C -0.167,1.124 -0.088,0.564 0,0"
             inkscape:connector-curvature="0" /></g><g
           transform="translate(143.3229,42.5081)"
           id="g70"><path
             id="path72"
             style="fill:#5cb7e8;fill-opacity:1;fill-rule:nonzero;stroke:none"
             d="M 0,0 C -0.412,-0.415 -0.827,-0.809 -1.245,-1.19 -0.827,-0.809 -0.415,-0.41 0,0"
             inkscape:connector-curvature="0" /></g><g
           transform="translate(47.6544,54.9406)"
           id="g74"><path
             id="path76"
             style="fill:#5cb7e8;fill-opacity:1;fill-rule:nonzero;stroke:none"
             d="m 0,0 102.87,0 c 0.17,0.558 0.329,1.118 0.474,1.68 l -103.82,0 C -0.329,1.118 -0.169,0.558 0,0"
             inkscape:connector-curvature="0" /></g><g
           transform="translate(152.4914,152.8112)"
           id="g78"><path
             id="path80"
             style="fill:#5cb7e8;fill-opacity:1;fill-rule:nonzero;stroke:none"
             d="m 0,0 0,-18.423 -106.419,0 0,18.423 -0.528,0 0,-83.009 c 0.004,-0.785 0.033,-1.606 0.069,-2.439 L 0.074,-85.454 c 0.038,0.837 0.068,1.656 0.069,2.445 L 0.143,0 Z"
             inkscape:connector-curvature="0" /></g><g
           transform="translate(50.223,48.7314)"
           id="g82"><path
             id="path84"
             style="fill:#5cb7e8;fill-opacity:1;fill-rule:nonzero;stroke:none"
             d="m 0,0 97.733,0 c 0.297,0.548 0.578,1.11 0.841,1.678 l -99.413,0 C -0.578,1.11 -0.295,0.548 0,0"
             inkscape:connector-curvature="0" /></g><g
           transform="translate(53.8099,43.5982)"
           id="g86"><path
             id="path88"
             style="fill:#5cb7e8;fill-opacity:1;fill-rule:nonzero;stroke:none"
             d="m 0,0 c 0.345,-0.375 0.69,-0.731 1.036,-1.078 l 88.485,0 c 0.349,0.345 0.695,0.703 1.038,1.078 0.178,0.197 0.337,0.4 0.504,0.6 l -91.569,0 C -0.333,0.4 -0.177,0.197 0,0"
             inkscape:connector-curvature="0" /></g><g
           transform="translate(147.0892,47.2388)"
           id="g90"><path
             id="path92"
             style="fill:#5cb7e8;fill-opacity:1;fill-rule:nonzero;stroke:none"
             d="M 0,0 C -0.642,-1.026 -1.345,-2.011 -2.128,-2.937 -1.345,-2.011 -0.64,-1.028 0,0"
             inkscape:connector-curvature="0" /></g><path
           id="path94"
           style="fill:#ffffff;fill-opacity:1;fill-rule:nonzero;stroke:none"
           d="m 152.491,152.873 -106.419,0 0,-18.484 106.419,0 z"
           inkscape:connector-curvature="0" /><g
           transform="translate(133.3134,96.4331)"
           id="g96"><path
             id="path98"
             style="fill:#ffffff;fill-opacity:1;fill-rule:nonzero;stroke:none"
             d="m 0,0 c -9.966,1.644 -20.874,2.579 -20.874,2.579 l -0.036,16.175 2.109,0 0,3.702 -2.091,0 0,3.696 -6.301,0 0,-3.696 -3.696,0 0,3.696 -6.293,0 0,-3.696 -3.699,0 0,3.696 -6.323,0 0,-3.696 -2.09,0 0,-3.702 2.096,0 -0.035,-16.137 c 0,0 -12.794,-1.085 -21.938,-2.764 -8.43,-1.555 -17.164,-3.96 -18.479,-4.329 l 0,-26.535 13.367,0 0,8.85 c 0,3.559 2.882,6.442 6.435,6.442 3.559,0 6.44,-2.883 6.44,-6.442 l 0,-8.85 17.002,0 0,13.491 c 0,5.691 4.615,10.306 10.307,10.306 5.695,0 10.306,-4.615 10.306,-10.306 l 0,-13.491 17.002,0 0,8.85 c 0,3.559 2.883,6.442 6.44,6.442 3.555,0 6.439,-2.883 6.439,-6.442 l 0,-8.85 13.365,0 0,26.494 C 17.727,-4.021 8.266,-1.365 0,0"
             inkscape:connector-curvature="0" /></g><g
           transform="translate(56.0856,152.1217)"
           id="g100"><path
             id="path102"
             style="fill:#ffffff;fill-opacity:1;fill-rule:nonzero;stroke:none"
             d="m 0,0 0,10.952 -10.735,0 0,6.62 10.735,0 0,10.579 6.62,0 0,-10.579 10.956,0 0,-6.62 -10.956,0 L 6.62,0 Z"
             inkscape:connector-curvature="0" /></g><g
           transform="translate(73.0237,169.0598)"
           id="g104"><path
             id="path106"
             style="fill:#323235;fill-opacity:1;fill-rule:nonzero;stroke:none"
             d="m 0,0 -10.952,0 0,10.579 -5.352,0 0,-10.579 -10.735,0 0,-5.35 10.735,0 0,-10.954 5.352,0 0,10.954 10.952,0 z"
             inkscape:connector-curvature="0" /></g><g
           transform="translate(97.9865,17.8861)"
           id="g108"><path
             id="path110"
             style="fill:#323235;fill-opacity:1;fill-rule:nonzero;stroke:none"
             d="M 0,0 1.228,-0.917 2.459,0 c 10.213,7.616 16.051,9.738 23.187,11.903 7.156,2.172 15.267,4.633 22.377,12.426 7.56,8.284 8.762,20.844 8.805,27.593 l 0,112.206 -111.199,0 0,-112.232 c 0.043,-6.737 1.243,-19.283 8.802,-27.567 7.112,-7.793 15.224,-10.254 22.38,-12.426 C -16.057,9.74 -10.221,7.62 0,0 m 1.228,-3.71 -2.567,1.913 c -9.928,7.406 -15.591,9.459 -22.5,11.555 -7.435,2.256 -15.858,4.811 -23.384,13.061 -8.063,8.837 -9.344,22.005 -9.39,29.068 l 0,114.481 115.683,0 0,-114.452 C 59.024,44.838 57.743,31.654 49.681,22.819 42.154,14.569 33.727,12.014 26.294,9.758 19.381,7.662 13.722,5.602 3.794,-1.797 Z"
             inkscape:connector-curvature="0" /></g><g
           transform="translate(136.3623,161.4596)"
           id="g112"><path
             id="path114"
             style="fill:#ffffff;fill-opacity:1;fill-rule:nonzero;stroke:none"
             d="m 0,0 -8.009,-1.174 4.93,6.098 -4.93,6.1 L 0,9.848 l 2.768,7.339 2.766,-7.339 8.005,1.176 -4.93,-6.1 4.93,-6.098 L 5.534,0 2.768,-7.335 Z"
             inkscape:connector-curvature="0" /></g><g
           transform="translate(138.2056,167.2106)"
           id="g116"><path
             id="path118"
             style="fill:#323235;fill-opacity:1;fill-rule:nonzero;stroke:none"
             d="M 0,0 C 0.036,0.038 0.07,0.074 0.108,0.106 L -1.969,3.697 -8.14,4.603 Z"
             inkscape:connector-curvature="0" /></g><g
           transform="translate(137.9147,166.6348)"
           id="g120"><path
             id="path122"
             style="fill:#323235;fill-opacity:1;fill-rule:nonzero;stroke:none"
             d="M 0,0 C 0.01,0.05 0.026,0.096 0.046,0.143 L -8.134,4.765 -4.286,0 Z"
             inkscape:connector-curvature="0" /></g><g
           transform="translate(137.9605,165.989)"
           id="g124"><path
             id="path126"
             style="fill:#323235;fill-opacity:1;fill-rule:nonzero;stroke:none"
             d="m 0,0 c -0.018,0.05 -0.036,0.094 -0.046,0.148 l -4.286,0 -3.92,-4.857 z"
             inkscape:connector-curvature="0" /></g><g
           transform="translate(139.3893,167.6091)"
           id="g128"><path
             id="path130"
             style="fill:#323235;fill-opacity:1;fill-rule:nonzero;stroke:none"
             d="M 0,0 C 0.052,-0.01 0.098,-0.028 0.143,-0.044 L 2.162,3.453 0,9.19 Z"
             inkscape:connector-curvature="0" /></g><g
           transform="translate(140.0767,167.2006)"
           id="g132"><path
             id="path134"
             style="fill:#323235;fill-opacity:1;fill-rule:nonzero;stroke:none"
             d="M 0,0 8.059,4.599 1.965,3.707 -0.114,0.116 C -0.07,0.078 -0.03,0.042 0,0"
             inkscape:connector-curvature="0" /></g><g
           transform="translate(138.8911,167.6091)"
           id="g136"><path
             id="path138"
             style="fill:#323235;fill-opacity:1;fill-rule:nonzero;stroke:none"
             d="M 0,0 0,9.194 -2.164,3.455 -0.145,-0.044 C -0.1,-0.028 -0.052,-0.01 0,0"
             inkscape:connector-curvature="0" /></g><g
           transform="translate(140.3617,166.1366)"
           id="g140"><path
             id="path142"
             style="fill:#323235;fill-opacity:1;fill-rule:nonzero;stroke:none"
             d="M 0,0 C -0.008,-0.042 -0.022,-0.084 -0.034,-0.126 L 8.104,-4.727 4.286,0 Z"
             inkscape:connector-curvature="0" /></g><g
           transform="translate(138.3132,165.451)"
           id="g144"><path
             id="path146"
             style="fill:#323235;fill-opacity:1;fill-rule:nonzero;stroke:none"
             d="m 0,0 c -0.038,0.036 -0.072,0.07 -0.108,0.108 l -8.026,-4.586 6.058,0.889 z"
             inkscape:connector-curvature="0" /></g><g
           transform="translate(140.3259,166.7642)"
           id="g148"><path
             id="path150"
             style="fill:#323235;fill-opacity:1;fill-rule:nonzero;stroke:none"
             d="m 0,0 c 0.012,-0.042 0.028,-0.084 0.036,-0.129 l 4.286,0 3.904,4.826 z"
             inkscape:connector-curvature="0" /></g><g
           transform="translate(140.0867,165.5746)"
           id="g152"><path
             id="path154"
             style="fill:#323235;fill-opacity:1;fill-rule:nonzero;stroke:none"
             d="M 0,0 C -0.038,-0.044 -0.08,-0.084 -0.124,-0.124 L 1.955,-3.712 8.182,-4.625 Z"
             inkscape:connector-curvature="0" /></g><g
           transform="translate(138.8911,165.1601)"
           id="g156"><path
             id="path158"
             style="fill:#323235;fill-opacity:1;fill-rule:nonzero;stroke:none"
             d="M 0,0 C -0.052,0.01 -0.1,0.028 -0.145,0.044 L -2.164,-3.453 0,-9.19 Z"
             inkscape:connector-curvature="0" /></g><g
           transform="translate(139.5327,165.2039)"
           id="g160"><path
             id="path162"
             style="fill:#323235;fill-opacity:1;fill-rule:nonzero;stroke:none"
             d="m 0,0 c -0.046,-0.016 -0.092,-0.034 -0.143,-0.044 l 0,-9.19 2.162,5.737 z"
             inkscape:connector-curvature="0" /></g><g
           transform="translate(102.8069,164.0681)"
           id="g164"><path
             id="path166"
             style="fill:#323235;fill-opacity:1;fill-rule:nonzero;stroke:none"
             d="m 0,0 c -0.44,0.211 -0.865,0.42 -1.283,0.638 -0.676,0.354 -1.397,0.524 -2.21,0.524 -0.528,0 -1.084,-0.07 -1.764,-0.215 -0.998,-0.226 -1.781,-0.788 -2.544,-1.332 -0.297,-0.213 -0.602,-0.43 -0.913,-0.623 -0.269,-0.166 -0.532,-0.341 -0.795,-0.51 0.526,0.629 1.008,1.305 1.55,1.913 0.054,0.051 0.1,0.107 0.152,0.161 0.705,0.763 1.468,1.471 2.479,1.736 1.125,0.297 2.01,0.075 2.773,-0.265 1.128,-0.506 1.927,-1.23 2.724,-2.109 C 0.114,-0.054 0.058,-0.028 0,0 M 19.688,3.677 C 19.377,4.207 18.873,4.272 18.423,3.868 17.735,3.256 17.61,2.312 17.056,1.61 16.677,1.136 16.364,0.578 15.896,0.209 14.569,-0.843 13.016,-1.385 11.323,-1.401 10.171,-1.413 9.208,-1.335 8.037,-0.61 7.744,-0.458 3.42,2.589 1.913,3.34 1.399,3.639 -0.634,4.522 -1.166,4.627 -2.367,5.014 -4.266,5.48 -6.433,4.978 -7.867,4.693 -9.236,4.225 -10.577,3.631 c -1.979,-0.873 -3.91,-1.838 -5.825,-2.838 -1.18,-0.616 -2.326,-0.388 -3.085,0.715 -0.747,1.083 -1.737,1.882 -2.873,2.523 -0.299,0.17 -0.508,0.184 -0.5,-0.295 -0.252,0.234 -0.21,0.55 -0.449,0.726 -0.313,0.223 -0.61,0.484 -0.779,-0.12 -0.07,-0.269 -0.295,-0.339 -0.508,-0.416 -0.425,-0.152 -0.927,-0.194 -1.265,-0.457 -0.61,-0.468 -1.23,-0.89 -1.927,-1.203 -0.25,-0.11 -0.182,-0.239 -0.102,-0.427 0.335,-0.809 1.028,-1.018 1.795,-1.032 1.439,-0.032 2.523,-0.699 3.442,-1.757 0.833,-0.961 1.429,-2.167 2.776,-2.677 -0.805,-0.713 -1.519,-1.401 -2.611,-1.524 -0.335,-0.036 -0.845,-0.028 -0.911,-0.614 1.019,-0.197 1.991,-0.239 3.019,0.104 0.794,0.263 1.605,0.54 2.444,0.689 0.57,0.106 1.137,0.271 1.669,0.496 0.279,0.124 0.411,0.514 0.845,0.2 0.214,-0.156 2.94,0.548 3.896,1.028 0.263,0.131 0.502,0.293 0.732,0.466 0.201,0.134 0.404,0.267 0.607,0.399 0.566,0.376 1.104,0.729 1.662,1.072 0.319,0.199 0.63,0.422 0.929,0.638 0.769,0.545 1.488,1.064 2.415,1.271 0.65,0.143 1.19,0.209 1.688,0.209 0.753,0 1.423,-0.157 2.046,-0.484 0.421,-0.219 0.847,-0.429 1.294,-0.64 0.205,-0.099 0.41,-0.201 0.625,-0.305 L 0.566,-0.669 C 0.819,-1.102 1.078,-1.528 1.397,-1.921 1.919,-2.567 2.606,-2.989 3.402,-3.123 4.075,-3.236 4.735,-3.408 5.398,-3.547 5.795,-3.627 6.257,-3.882 6.217,-4.372 6.181,-4.808 5.952,-5.231 5.793,-5.655 5.671,-5.97 5.348,-5.889 5.109,-5.97 4.95,-6.028 4.79,-6.106 4.657,-6.205 4.516,-6.309 4.412,-6.48 4.436,-6.646 4.47,-6.867 4.681,-6.851 4.85,-6.851 c 0.467,-0.002 0.931,0.002 1.395,-0.006 0.229,-0.004 0.361,0.07 0.5,0.283 0.55,0.861 0.829,1.865 1.457,2.68 0.09,0.114 0.1,0.277 -0.106,0.339 -1.092,0.319 -1.775,1.112 -2.367,2.019 -0.249,0.376 -0.506,0.751 -0.781,1.11 -0.128,0.169 -0.046,0.283 0.032,0.41 0.097,0.161 0.223,0.004 0.273,-0.026 0.626,-0.388 1.18,-0.683 1.757,-1.04 1.591,-0.779 3.442,-1.62 6.307,-2.048 1.13,-0.156 2.25,0.091 3.229,0.551 1.147,0.541 2.142,1.381 2.811,2.523 0.608,1.033 0.995,2.613 0.331,3.733"
             inkscape:connector-curvature="0" /></g><g
           transform="translate(66.4318,148.7401)"
           id="g168"><path
             id="path170"
             style="fill:#323235;fill-opacity:1;fill-rule:nonzero;stroke:none"
             d="m 0,0 0,-1.851 -0.791,0 0,-8.306 -2.433,0 -3.691,5.871 -0.032,0 0,-4.02 0.867,0 0,-1.851 -3.852,0 0,1.851 0.805,0 0,6.455 -0.805,0 0,1.851 3.123,0 3.808,-6.197 0.03,0 0,4.346 -0.867,0 0,1.851 z"
             inkscape:connector-curvature="0" /></g><g
           transform="translate(72.4957,148.7401)"
           id="g172"><path
             id="path174"
             style="fill:#323235;fill-opacity:1;fill-rule:nonzero;stroke:none"
             d="m 0,0 0,-1.851 -0.805,0 0,-2.898 2.776,2.898 -0.626,0 0,1.851 4.3,0 0,-1.851 -0.835,0 -2.54,-2.511 2.809,-3.944 0.716,0 0,-1.851 -4.436,0 0,1.851 0.717,0 -1.598,2.284 -1.283,-1.239 0,-1.045 0.805,0 0,-1.851 -3.988,0 0,1.851 0.808,0 0,6.455 -0.808,0 0,1.851 z"
             inkscape:connector-curvature="0" /></g><g
           transform="translate(87.4769,143.7364)"
           id="g176"><path
             id="path178"
             style="fill:#323235;fill-opacity:1;fill-rule:nonzero;stroke:none"
             d="m 0,0 c 0,-1.943 0.327,-3.453 2.104,-3.453 1.782,0 2.109,1.51 2.109,3.453 0,1.941 -0.327,3.3 -2.109,3.3 C 0.327,3.3 0,1.941 0,0 m -2.509,0 c 0,2.895 0.999,5.155 4.613,5.155 3.617,0 4.617,-2.26 4.617,-5.155 0,-2.899 -1,-5.305 -4.617,-5.305 -3.614,0 -4.613,2.406 -4.613,5.305"
             inkscape:connector-curvature="0" /></g><g
           transform="translate(98.0642,141.6739)"
           id="g180"><path
             id="path182"
             style="fill:#323235;fill-opacity:1;fill-rule:nonzero;stroke:none"
             d="m 0,0 0,-1 c 0.899,-0.18 1.57,-0.269 2.094,-0.269 0.953,0 1.433,0.374 1.433,0.972 0,0.819 -1.032,1.014 -2.256,1.373 -1.809,0.522 -3.108,1.509 -3.108,3.226 0,2.093 1.749,2.916 3.796,2.916 1.18,0 2.224,-0.152 3.659,-0.584 l 0,-2.674 -1.852,0 0,1.09 C 2.991,5.199 2.479,5.229 1.959,5.229 1.136,5.229 0.672,4.9 0.672,4.362 0.672,3.691 1.554,3.348 2.842,3.047 4.649,2.63 6.038,1.748 6.038,-0.032 c 0,-2.24 -1.748,-3.21 -3.944,-3.21 -1.181,0 -2.51,0.151 -3.945,0.584 l 0,2.658 z"
             inkscape:connector-curvature="0" /></g><g
           transform="translate(107.1769,140.4344)"
           id="g184"><path
             id="path186"
             style="fill:#323235;fill-opacity:1;fill-rule:nonzero;stroke:none"
             d="m 0,0 0,6.454 -0.807,0 0,1.852 3.987,0 0,-1.852 -0.805,0 0,-6.454 0.805,0 0,-1.851 -3.987,0 0,1.851 z"
             inkscape:connector-curvature="0" /></g><g
           transform="translate(117.7523,148.7401)"
           id="g188"><path
             id="path190"
             style="fill:#323235;fill-opacity:1;fill-rule:nonzero;stroke:none"
             d="m 0,0 0,-1.851 -0.807,0 0,-5.53 c 0,-2.074 -1.122,-2.927 -2.842,-2.927 -0.685,0 -1.251,0.061 -1.688,0.133 l 0.196,1.855 c 0.285,-0.045 0.54,-0.075 0.837,-0.075 0.568,0 1.122,0.163 1.122,1.014 l 0,5.53 -0.807,0 0,1.851 z"
             inkscape:connector-curvature="0" /></g><g
           transform="translate(127.7578,148.7401)"
           id="g192"><path
             id="path194"
             style="fill:#323235;fill-opacity:1;fill-rule:nonzero;stroke:none"
             d="m 0,0 0,-2.674 -1.851,0 0,0.823 -2.916,0 0,-2.152 4.02,0 0,-1.838 -4.02,0 0,-2.465 2.916,0 0,0.819 1.851,0 0,-2.67 -7.949,0 0,1.851 0.807,0 0,6.455 -0.807,0 0,1.851 z"
             inkscape:connector-curvature="0" /></g><g
           transform="translate(134.0149,148.7401)"
           id="g196"><path
             id="path198"
             style="fill:#323235;fill-opacity:1;fill-rule:nonzero;stroke:none"
             d="m 0,0 0,-1.851 -0.807,0 0,-2.898 2.78,2.898 -0.628,0 0,1.851 4.3,0 0,-1.851 -0.833,0 -2.542,-2.511 2.809,-3.944 0.718,0 0,-1.851 -4.436,0 0,1.851 0.715,0 -1.596,2.284 -1.287,-1.239 0,-1.045 0.807,0 0,-1.851 -3.987,0 0,1.851 0.807,0 0,6.455 -0.807,0 0,1.851 z"
             inkscape:connector-curvature="0" /></g><path
           id="path200"
           style="fill:#323235;fill-opacity:1;fill-rule:nonzero;stroke:none"
           d="m 93.559,108.114 3.198,0 0,4.763 -3.198,0 z m 8.116,0 3.194,0 0,4.763 -3.194,0 z m 50.336,45.319 -25.656,0 0,25.776 25.656,0 z m 0,-18.297 -105.594,0 0,16.803 105.594,0 z m 0,-42.232 c -3.087,0.861 -11.291,3.063 -18.576,4.266 -8.461,1.397 -17.701,2.292 -20.248,2.525 l -0.034,14.746 2.104,0 0,5.191 -2.092,0 0,3.703 -7.787,0 0,-3.703 -2.206,0 0,3.703 -7.79,0 0,-3.703 -2.202,0 0,3.703 -7.813,0 0,-3.703 -2.093,0 0,-5.191 2.095,0 -0.034,-14.706 C 82.555,99.482 71.878,98.468 64.009,97.019 56.715,95.678 49.131,93.677 46.417,92.94 l 0,40.701 105.594,0 z m -55.134,25.236 0,3.698 4.802,0 0,-3.698 5.193,0 0,3.698 4.802,0 0,-3.698 2.091,0 0,-2.206 -28.996,0 0,2.206 2.088,0 0,3.698 4.827,0 0,-3.698 z m 55.134,-28.446 c -14.798,4.471 -33.173,7.231 -49.902,7.518 l 0,4.95 c 0,1.604 -1.301,2.914 -2.915,2.914 -1.608,0 -2.913,-1.31 -2.913,-2.914 l 0,-4.95 C 79.55,96.915 61.195,94.145 46.417,89.67 l 0,1.724 c 2.278,0.623 10.235,2.751 17.859,4.154 9.003,1.658 21.738,2.746 21.866,2.76 l 0.683,0.056 0.034,16.077 24.8,0 0.035,-16.113 0.686,-0.058 c 0.106,-0.01 10.988,-0.952 20.81,-2.574 7.556,-1.246 16.133,-3.585 18.821,-4.346 z m 0,-3.201 c -15.645,4.729 -35.289,7.549 -52.751,7.549 -17.502,0 -37.18,-2.83 -52.843,-7.572 l 0,1.622 c 15.597,4.784 35.319,7.638 52.843,7.638 17.484,0 37.172,-2.842 52.751,-7.613 z m 0,-16.685 c -0.006,-1.072 -0.048,-2.309 -0.135,-3.638 l -11.728,0 0,8.102 c 0,3.966 -3.224,7.188 -7.185,7.188 -3.964,0 -7.186,-3.222 -7.186,-7.188 l 0,-8.102 -15.509,0 0,12.743 c 0,6.096 -4.956,11.054 -11.054,11.054 -6.094,0 -11.052,-4.958 -11.052,-11.054 l 0,-12.743 -15.509,0 0,8.102 c 0,3.966 -3.224,7.188 -7.188,7.188 -3.959,0 -7.183,-3.222 -7.183,-7.188 l 0,-8.102 -11.728,0 c -0.091,1.329 -0.129,2.562 -0.137,3.632 l 0,15.091 c 15.597,4.785 35.319,7.64 52.843,7.64 17.484,0 37.172,-2.847 52.751,-7.614 z m -8.07,-25.706 C 137.351,36.881 129.629,34.537 122.82,32.473 115.752,30.327 109.51,28.071 99.214,20.461 88.92,28.071 82.676,30.327 75.61,32.473 68.799,34.537 61.079,36.881 54.487,44.102 49.153,49.949 47.276,58.263 46.678,64.675 l 13.098,0 0,9.597 c 0,3.141 2.553,5.695 5.689,5.695 3.141,0 5.694,-2.554 5.694,-5.695 l 0,-9.597 18.496,0 0,14.238 c 0,5.273 4.29,9.561 9.559,9.561 5.273,0 9.561,-4.288 9.561,-9.561 l 0,-14.238 18.495,0 0,9.597 c 0,3.141 2.554,5.695 5.693,5.695 3.138,0 5.689,-2.554 5.689,-5.695 l 0,-9.597 13.1,0 c -0.602,-6.414 -2.477,-14.726 -7.811,-20.573 m -97.524,135.107 25.607,0 0,-25.776 -25.607,0 z m 27.101,0 51.34,0 0,-25.776 -51.34,0 z m 79.99,-86.731 0,88.225 -108.584,0 0,-88.174 -0.008,-0.006 0.008,-0.382 0,-22.347 c 0.038,-6.552 1.198,-18.737 8.459,-26.696 6.869,-7.529 14.796,-9.936 21.795,-12.056 7.024,-2.132 13.224,-4.376 23.59,-12.108 l 0.446,-0.333 0.45,0.333 c 10.361,7.732 16.562,9.976 23.586,12.108 6.999,2.12 14.924,4.527 21.795,12.056 7.263,7.959 8.419,20.144 8.463,26.704 l 0,22.293 0.004,0.383 z"
           inkscape:connector-curvature="0" /></g></g></g></svg>