<?xml version="1.0" encoding="UTF-8" standalone="no"?>
<svg
   xmlns:dc="http://purl.org/dc/elements/1.1/"
   xmlns:cc="http://creativecommons.org/ns#"
   xmlns:rdf="http://www.w3.org/1999/02/22-rdf-syntax-ns#"
   xmlns:svg="http://www.w3.org/2000/svg"
   xmlns="http://www.w3.org/2000/svg"
   xmlns:sodipodi="http://sodipodi.sourceforge.net/DTD/sodipodi-0.dtd"
   xmlns:inkscape="http://www.inkscape.org/namespaces/inkscape"
   version="1.1"
   width="195.68347"
   height="252"
   id="svg67"
   viewBox="0 0 195.68347 252"
   sodipodi:docname="sd-nk-olimpija-ljubljana-seeklogo.com.svg"
   inkscape:version="0.92.4 (5da689c313, 2019-01-14)">
  <metadata
     id="metadata73">
    <rdf:RDF>
      <cc:Work
         rdf:about="">
        <dc:format>image/svg+xml</dc:format>
        <dc:type
           rdf:resource="http://purl.org/dc/dcmitype/StillImage" />
        <dc:title></dc:title>
      </cc:Work>
    </rdf:RDF>
  </metadata>
  <defs
     id="defs71" />
  <sodipodi:namedview
     pagecolor="#ffffff"
     bordercolor="#666666"
     borderopacity="1"
     objecttolerance="10"
     gridtolerance="10"
     guidetolerance="10"
     inkscape:pageopacity="0"
     inkscape:pageshadow="2"
     inkscape:window-width="1366"
     inkscape:window-height="705"
     id="namedview69"
     showgrid="false"
     fit-margin-top="1"
     fit-margin-right="1"
     fit-margin-bottom="1"
     fit-margin-left="1"
     inkscape:zoom="0.79286959"
     inkscape:cx="179.05114"
     inkscape:cy="323.14229"
     inkscape:window-x="-8"
     inkscape:window-y="-8"
     inkscape:window-maximized="1"
     inkscape:current-layer="svg67" />
  <g
     id="g945"
     transform="matrix(0.48430916,0,0,0.48430916,-49.639056,-38.703768)">
    <path
       d="m 104.55936,81.980212 1.7931,400.162598 c 0.1253,32.0288 15.596,50.0279 44.8746,60.4205 13.465,4.7796 28.7922,7.0427 42.8839,9.3091 13.7097,2.2048 27.5106,4.3935 40.9146,8.0824 14.1539,3.8953 26.2877,7.1644 38.5877,15.9736 l 31.07,22.251 31.0939,-22.2921 c 13.8601,-9.9364 34.1308,-15.2301 50.652,-18.8658 23.6775,-5.2107 53.344,-5.5715 75.7257,-14.2392 10.1741,-3.9403 19.3002,-9.7773 26.7132,-17.8286 12.5616,-13.6427 14.6955,-29.3027 14.7153,-47.4168 l 0.893,-395.556698 z"
       style="fill:#008f39;fill-rule:evenodd"
       id="path6"
       inkscape:connector-curvature="0" />
    <path
       d="m 111.93726,89.325012 1.76,392.787898 c 0.1124,28.734 13.4875,44.1227 39.9866,53.5286 13.1917,4.6828 27.8035,6.7614 41.5933,8.9793 13.9953,2.2507 28.0114,4.486 41.6973,8.2525 15.0274,4.1358 27.9983,7.8328 40.9153,17.0838 l 26.7912,19.1866 26.8168,-19.2257 c 14.9076,-10.6873 35.6024,-16.1635 53.3527,-20.0696 11.8522,-2.6083 24.0693,-3.9256 36.0916,-5.54 12.7258,-1.7091 26.55,-3.7241 38.5601,-8.3752 9.1163,-3.5305 17.3197,-8.7396 23.9626,-15.9544 11.2433,-12.211 12.7563,-26.5097 12.7738,-42.4563 l 0.8765,-388.197498 z"
       style="fill:#ffffff;fill-rule:evenodd"
       id="path8"
       inkscape:connector-curvature="0" />
    <path
       d="m 216.91376,284.40901 c 11.4214,-13.1688 7.3723,-32.3579 -6.715,-42.317 l 36.869,5.3213 -36.4889,-22.0454 c -0.014,-41.8446 -18.5079,-62.4486 -43.3305,-73.4846 35.8618,-6.159 65.3702,-4.9063 85.014,7.8553 -5.776,11.8439 -5.9805,21.5154 -3.3887,30.2362 -5.2735,6.4512 -14.2202,10.4537 -25.4885,12.5361 4.8263,3.386 10.5001,6.213 16.2791,7.3772 5.4211,1.0918 13.1068,0.5465 18.5121,-1.5006 l 0.1675,0.2563 c 0.2949,9.8831 5.067,17.4007 13.9367,21.792 5.1595,-6.7889 11.0549,-12.2594 17.0631,-17.0918 7.4986,-6.0307 14.7105,-10.2393 18.6957,-14.7228 3.3022,-3.7146 4.3504,-8.0717 1.8704,-11.7694 4.249,-0.3158 6.1864,-2.9599 6.9929,-5.3933 1.4825,-4.4739 0.2346,-9.91 -4.1998,-11.9624 -2.2147,-1.025 -5.9438,-1.1719 -8.8746,4.3059 -11.6724,1.4981 -16.5737,9.8099 -17.991,17.1042 -4.5983,-1.4515 -7.9875,-4.1225 -8.9955,-8.9956 8.9055,-1.782 13.2366,-5.2659 15.4942,-8.4793 2.2604,-3.217 2.7559,-7.054 1.1431,-9.069 -1.1034,-1.3785 -3.3293,-1.7026 -6.1178,-1.1944 -2.699,0.4919 -5.6525,2.3935 -7.6055,7.5934 -3.6742,-4.3922 -10.1358,-2.0694 -12.5431,0.7601 0.9292,1.0136 1.3515,1.9005 2.2806,2.9141 l -7.6019,-1.267 -2.5339,-8.1086 c 11.9135,-6.9962 20.0838,-6.8633 25.9452,-10.2827 3.3506,-1.9544 3.2962,-4.8102 0.9147,-5.8079 9.9455,-6.8206 20.3769,-11.5506 34.5884,-16.2173 -5.4705,4.3589 -4.6839,14.9232 5.7014,12.9231 0.7602,1.4359 1.267,2.3651 2.0272,3.801 -3.9157,8.017 1.6484,13.9181 7.7285,14.6969 -3.5686,6.7255 -0.908,13.9686 6.4616,15.2037 -5.0358,5.6197 -2.2714,9.9382 -2.6092,17.9568 -0.5305,12.5883 -7.2161,25.7763 -15.2552,35.1295 13.5778,-2.1644 21.5597,-10.7165 21.6653,-27.1133 11.3925,-9.1645 14.7077,-28.2111 6.5883,-44.8509 22.3821,-14.1718 56.7174,-14.8046 89.4485,-8.4888 -35.9337,15.9093 -43.1284,43.6404 -43.4573,73.3579 l -35.3486,21.792 35.4753,-4.9412 c -13.4935,10.3206 -18.0549,27.2661 -6.8417,42.4437 l -29.0137,-5.7014 25.7196,14.6969 -4.5611,3.5475 c -13.0781,-2.0053 -25.5899,-3.6708 -37.2968,-4.8533 v -11.9974 l -8.0541,-0.9441 -0.0651,6.364 -10.8178,-1.1464 -0.0192,-6.5729 -15.4604,-0.9629 -0.0332,6.7253 -15.9054,-0.014 -0.0248,-6.558 -15.327,0.9682 -0.056,6.4218 -10.461,1.1695 -2e-4,-6.3374 -8.1325,0.8869 v 12.0275 c -12.7194,1.441 -23.8972,2.9184 -38.3655,5.0766 l -3.9277,-3.8009 25.5929,-14.1901 z m 74.1181,-127.0777 c 0.6117,-2.1334 2.2289,-4.2216 4.4339,-5.3833 2.0949,-1.1033 5.4276,-1.4606 7.6659,-1.0154 -1.0007,2.9359 -2.8094,5.0048 -4.5613,6.0182 -2.1578,1.2477 -4.8565,1.0585 -7.5385,0.3805 z"
       style="fill:#008f39;fill-rule:evenodd"
       id="path10"
       inkscape:connector-curvature="0" />
    <path
       d="m 274.30776,176.58931 c -4.0213,0.9051 -6.6803,2.0727 -10.0151,4.7193 -5.0002,3.9689 -6.0665,12.5695 -12.7905,17.9596 -0.9738,-2.0272 -1.0572,-4.0543 -1.0135,-6.0815 -4.983,5.1903 -11.0638,9.3401 -18.878,10.5159 8.0455,4.0224 15.943,4.3814 24.8327,2.0272 -1.098,-0.8447 -2.1116,-1.6049 -2.5339,-2.7874 5.9419,-5.8053 7.2495,-11.1528 9.5294,-15.8982 1.9493,-4.0578 4.6786,-7.71 10.8689,-10.4549 z"
       style="fill:#008f39;fill-rule:evenodd"
       id="path12"
       inkscape:connector-curvature="0" />
    <path
       d="m 189.92716,306.66001 c 79.5133,-11.8145 152.8499,-10.1464 227.8023,0 v 56.2776 c -76.6064,-11.087 -152.5478,-11.2121 -227.8023,0 z"
       style="fill:#008f39;fill-rule:evenodd"
       id="path14"
       inkscape:connector-curvature="0" />
    <path
       d="m 211.90506,365.07561 c -5.6532,29.4299 4.966,44.8948 20.8406,56.0761 25.2121,17.7578 60.8913,21.2372 72.2229,38.3533 7.6388,-13.5009 33.5955,-18.0794 60.1958,-31.4804 21.5942,-10.8793 39.2838,-27.677 33.0217,-62.5893 -13.224,-1.6012 -26.4623,-2.8737 -39.7089,-3.8133 0.7861,3.7176 1.2009,7.5717 1.2009,11.523 0,2.7936 -0.2086,5.5382 -0.6073,8.2211 -7.567,6.892 -15.6977,13.2693 -24.7986,17.5483 l -0.3362,-0.0151 -0.008,0.1762 c -5.5164,2.5547 -11.3886,4.3355 -17.7076,4.9913 -3.8317,-3.834 -7.233,-7.8149 -10.1847,-11.9759 18.6468,-7.5718 36.2862,-17.266 51.4514,-30.5396 -1.3083,-0.0912 -2.6169,-0.1781 -3.9256,-0.2628 -14.6014,12.2742 -31.415,21.3347 -49.1176,28.475 -3.0426,-4.621 -5.5425,-9.4651 -7.4735,-14.5762 l 0.1019,-0.1014 c 5.7838,-5.7684 11.9848,-10.851 18.6936,-15.3334 -1.5842,-0.0262 -3.1683,-0.0484 -4.7525,-0.0647 -5.3227,3.7988 -10.3273,7.9948 -15.0578,12.6295 -1.3296,-4.0306 -2.3154,-8.2261 -2.9454,-12.6064 -0.9253,0.012 -1.8507,0.0255 -2.7759,0.0409 2.4674,17.7237 10.5508,32.5737 23.4732,45.6942 -3.9157,4.1718 -8.3728,7.5027 -13.1866,10.2033 -15.5342,-14.3262 -24.8672,-34.4762 -26.5654,-55.4554 -0.9181,0.0346 -1.8364,0.0709 -2.7545,0.1088 1.7042,21.39 11.0986,41.9362 26.7481,56.7141 -2.8939,1.4582 -5.899,2.7123 -8.9786,3.8051 l -0.4223,-0.2397 c -8.7724,-4.9786 -16.1774,-12.0266 -21.4553,-20.6322 -3.7233,-6.0707 -6.2917,-12.7668 -7.5899,-19.7687 -1.1825,-6.3792 -1.2869,-12.8763 -0.4017,-19.2828 -0.9337,0.0535 -1.8676,0.1088 -2.8013,0.1655 -0.8463,6.5224 -0.7081,13.1302 0.4948,19.6193 1.3598,7.334 4.0505,14.3483 7.9503,20.7068 5.1776,8.4423 12.3113,15.4548 20.7479,20.5902 -1.6165,0.5054 -3.2492,0.972 -4.8928,1.4056 -18.8527,-8.8672 -31.9092,-28.0312 -31.9092,-50.2409 0,-4.0024 0.4276,-7.9046 1.233,-11.6667 -12.6835,0.8786 -25.3583,2.0765 -38.0189,3.5973 z m 146.3178,20.7399 c -1.1267,4.822 -2.8824,9.4024 -5.1758,13.65 -0.01,-2.8335 -0.4094,-5.6885 -1.2073,-8.36 2.1745,-1.6922 4.2995,-3.4651 6.3831,-5.29 z m -8.4201,18.9261 c -7.3058,10.5274 -18.1611,18.404 -30.832,21.9005 7.4193,-4.828 13.7595,-11.2774 16.4064,-19.4127 0.6734,-2.0703 1.0866,-4.2072 1.2233,-6.378 4.5075,-2.2237 8.7821,-4.9346 12.8768,-7.9551 0.8644,3.4144 1.037,7.1127 0.5408,10.5691 -0.0617,0.429 -0.1336,0.8546 -0.2153,1.2762 z m -39.3945,23.5474 c -2.0432,0.2288 -4.1192,0.3495 -6.2237,0.3495 -6.8665,0 -13.4401,-1.2511 -19.5105,-3.5323 11.851,-3.5019 22.9221,-8.8973 31.4969,-18.2672 6.247,-0.6092 12.0615,-2.2549 17.5325,-4.6405 -1.5534,12.0521 -12.3188,20.7616 -23.2952,26.0905 z"
       style="fill:#008f39;fill-rule:evenodd"
       id="path16"
       inkscape:connector-curvature="0" />
    <path
       d="m 190.04216,368.02571 14.0751,12.1666 c 0.5819,-4.9455 2.4163,-9.8911 5.5031,-14.8369 -6.3202,0.7788 -12.6367,1.6363 -18.9491,2.5766 z"
       style="fill:#008f39;fill-rule:evenodd"
       id="path18"
       inkscape:connector-curvature="0" />
    <path
       d="m 418.03856,368.08451 -12.6796,10.9602 c -0.7219,-4.2652 -2.4633,-8.8362 -5.1053,-13.3565 5.5871,0.6911 11.1714,1.4391 16.7525,2.2468 z"
       style="fill:#008f39;fill-rule:evenodd"
       id="path20"
       inkscape:connector-curvature="0" />
    <path
       d="m 206.39786,446.32851 23.2345,-6.1915 -0.0105,9.3185 c 21.0605,2.4708 42.0337,4.0194 62.9345,4.4668 2.0735,1.3113 4.0167,2.7568 5.6846,4.3518 -29.3658,-0.3524 -58.6706,-2.9483 -87.7341,-7.1594 l -0.2147,45.6998 c 31.3855,5.4227 63.3397,7.7719 95.1731,7.6957 30.6239,-0.0732 61.6691,-2.5468 91.8916,-7.7063 0,-15.2168 0,-30.4336 0,-45.6504 -28.4478,4.3158 -57.2001,6.8075 -85.971,7.1265 1.5872,-1.5954 3.5328,-3.0419 5.6254,-4.3456 20.2966,-0.4152 40.8134,-1.8749 60.9154,-4.2613 l -0.0317,-9.705 23.5933,6.3604 c 0,17.9066 0,36.0427 0,53.9493 -30.2709,5.3818 -63.2639,8.2856 -96.0131,8.3638 -32.335,0.0774 -65.9277,-2.3459 -99.3307,-8.3638 z"
       style="fill:#008f39;fill-rule:evenodd"
       id="path22"
       inkscape:connector-curvature="0" />
    <path
       d="m 281.52956,245.00601 h -3.8012 l -3.2976,2.0658 v 3.239 l 3.1711,-1.8362 v 18.1967 h 3.9277 z"
       style="fill:#ffffff;fill-rule:evenodd"
       id="path24"
       inkscape:connector-curvature="0" />
    <path
       d="m 322.15536,245.00601 h -3.8011 l -3.2976,2.0658 v 3.239 l 3.1711,-1.8362 v 18.1967 h 3.9276 z"
       style="fill:#ffffff;fill-rule:evenodd"
       id="path26"
       inkscape:connector-curvature="0" />
    <path
       d="m 335.49696,245.00601 h -3.8012 l -3.2975,2.0658 v 3.239 l 3.1711,-1.8362 v 18.1967 h 3.9276 z"
       style="fill:#ffffff;fill-rule:evenodd"
       id="path28"
       inkscape:connector-curvature="0" />
    <path
       d="m 306.94276,255.37961 c -2.6175,2.2666 -5.5731,3.4635 -9.1735,3.5106 -4.2854,0.0562 -9.9517,-1.7586 -10.1119,-6.8616 -0.1721,-5.4691 6.199,-7.735 10.7413,-7.5282 5.1097,0.2327 9.9485,2.4951 11.6798,7.6138 0.5828,1.7226 0.7164,3.5656 0.4623,5.3626 -0.8061,5.7025 -6.1708,9.5613 -11.7533,9.6487 -3.954,0.0618 -7.0331,-1.2178 -9.9189,-3.5803 l 2.122,-2.7114 c 2.1215,1.8697 4.5788,2.8987 7.7428,2.8493 4.5732,-0.0755 8.3778,-3.6632 8.2094,-8.3035 z m -0.8878,-3.7463 c -1.6499,-2.5406 -4.7452,-3.5539 -7.8128,-3.6937 -2.3451,-0.1067 -6.9746,0.8648 -6.8766,3.9806 0.0902,2.8739 4.1875,3.5558 6.3588,3.5276 3.3109,-0.0434 6.1439,-1.3999 8.3306,-3.8145 z"
       style="fill:#ffffff;fill-rule:evenodd"
       id="path30"
       inkscape:connector-curvature="0" />
    <path
       d="m 221.14666,464.00921 c 1.8506,0.2932 2.7759,0.4349 4.6286,0.7132 0.1535,7.6714 0.2303,11.5093 0.3838,19.1816 3.6342,0.5437 5.4531,0.7987 9.0948,1.2804 0.0211,1.1897 0.0317,1.7857 0.0532,2.9754 -5.4848,-0.725 -8.2236,-1.1227 -13.6927,-1.9893 -0.1864,-8.8642 -0.2804,-13.298 -0.4677,-22.1613 z"
       style="fill:#008f39;fill-rule:evenodd"
       id="path32"
       inkscape:connector-curvature="0" />
    <path
       d="m 243.21176,467.03871 c 0.1299,8.2876 0.194,12.4337 0.3239,20.7222 0.0768,4.9348 -2.6982,7.1139 -6.7833,6.5851 -0.0181,-1.0502 -0.0266,-1.5757 -0.0459,-2.6258 0.8464,-0.1426 1.2976,-0.4678 1.5844,-0.935 0.3771,-0.6128 0.6491,-2.0957 0.6234,-3.6468 -0.1396,-8.2641 -0.2088,-12.3962 -0.3475,-20.6603 1.8573,0.2324 2.7868,0.3442 4.645,0.5606 z"
       style="fill:#008f39;fill-rule:evenodd"
       id="path34"
       inkscape:connector-curvature="0" />
    <path
       d="m 253.53276,468.14021 c 0.0674,5.0862 0.0992,7.6288 0.1665,12.715 0.0565,4.3313 1.4007,6.8419 5.0808,7.1641 3.5169,0.3079 4.9006,-2.4692 4.8622,-6.0414 -0.0543,-5.1854 -0.0818,-7.7782 -0.1362,-12.9647 1.665,0.1303 2.4976,0.1931 4.1639,0.3092 0.0522,5.5032 0.0779,8.2534 0.1311,13.7545 0.0532,5.5969 -3.665,8.5091 -9.1159,8.0308 -6.2384,-0.5482 -9.5254,-3.8614 -9.6106,-9.9029 -0.0768,-5.4146 -0.1151,-8.1214 -0.1919,-13.5357 1.8594,0.1949 2.7889,0.2898 4.6501,0.4711 z"
       style="fill:#008f39;fill-rule:evenodd"
       id="path36"
       inkscape:connector-curvature="0" />
    <path
       d="m 278.05656,489.35741 c 0.9477,0.048 1.4221,0.0725 2.371,0.116 2.568,0.1218 4.5051,-1.1012 4.4924,-3.5668 -0.0139,-2.5915 -2.0332,-3.7728 -4.5734,-3.8934 -0.9362,-0.0438 -1.4052,-0.0662 -2.3423,-0.1151 0.0215,2.9838 0.0308,4.4742 0.0523,7.4593 z m -0.0704,-10.1778 c 0.5811,0.0299 0.8709,0.0447 1.452,0.0725 2.6738,0.1311 4.4806,-1.4445 4.47,-3.4988 -0.0106,-1.9606 -1.5372,-2.872 -3.5544,-2.9669 -0.9646,-0.0459 -1.4487,-0.0692 -2.4136,-0.1194 0.0182,2.6055 0.0278,3.9083 0.046,6.5126 z m -4.5489,12.6394 c -0.0725,-8.8527 -0.1076,-13.278 -0.1792,-22.1307 3.3465,0.2007 5.0203,0.288 8.3698,0.4382 3.9049,0.1738 6.6609,1.9606 6.6736,4.9638 0.0148,3.5402 -2.9839,4.8943 -4.6,5.2376 0,0.0254 9e-4,0.0384 9e-4,0.0637 2.873,0.2433 6.0831,2.2357 6.0967,5.6172 0.0152,3.8239 -3.2993,6.4627 -8.7288,6.2143 -3.0542,-0.14 -4.5809,-0.2209 -7.633,-0.4041 z"
       style="fill:#008f39;fill-rule:evenodd"
       id="path38"
       inkscape:connector-curvature="0" />
    <path
       d="m 294.33896,470.54291 c 1.8678,0.0384 2.8016,0.0544 4.6694,0.078 0.0139,7.663 0.0194,11.4932 0.0321,19.1538 3.6649,0.0459 5.4965,0.0523 9.1618,0.0341 -0.001,1.1898 -0.001,1.7827 -0.001,2.9712 -5.5201,0.0266 -8.28,0.003 -13.799,-0.1118 -0.0248,-8.8515 -0.0384,-13.2747 -0.0631,-22.1253 z"
       style="fill:#008f39;fill-rule:evenodd"
       id="path40"
       inkscape:connector-curvature="0" />
    <path
       d="m 316.56086,470.55231 c -0.0223,8.2825 -0.0341,12.4198 -0.0565,20.7019 -0.0127,4.9318 -2.8484,7.4935 -6.9592,7.5234 10e-4,-1.0501 0.002,-1.5735 0.002,-2.6227 0.857,-0.2599 1.3166,-0.6458 1.6161,-1.1523 0.3913,-0.6663 0.6929,-2.1888 0.6959,-3.7375 0.013,-8.2559 0.0182,-12.3826 0.0312,-20.6382 1.8687,-0.0202 2.8025,-0.0371 4.6703,-0.0746 z"
       style="fill:#008f39;fill-rule:evenodd"
       id="path42"
       inkscape:connector-curvature="0" />
    <path
       d="m 333.54616,483.31081 c -0.9682,-2.8572 -1.9413,-5.4956 -3.0107,-8.8602 -0.0266,0.001 -0.0372,0.001 -0.065,0.003 -0.9797,3.4595 -2.0851,6.1928 -3.1908,9.1446 2.5076,-0.1012 3.7601,-0.1577 6.2665,-0.2877 z m -0.5343,-13.3408 c 3.4199,8.6756 5.1195,12.9996 8.4989,21.6209 -2.0791,0.1375 -3.1174,0.2024 -5.1962,0.3218 -0.8368,-2.3656 -1.2568,-3.551 -2.0957,-5.9196 -3.2697,0.1737 -4.904,0.2484 -8.1746,0.372 -0.9607,2.4507 -1.4414,3.6746 -2.3997,6.1212 -1.6068,0.0535 -2.4094,0.0779 -4.017,0.1193 3.7855,-8.9485 5.6875,-13.4375 9.5124,-22.4534 1.549,-0.0659 2.3229,-0.1034 3.8719,-0.1822 z"
       style="fill:#008f39;fill-rule:evenodd"
       id="path44"
       inkscape:connector-curvature="0" />
    <path
       d="m 364.88886,489.51451 c -1.3381,0.1493 -2.0065,0.2209 -3.3443,0.3605 -4.3241,-4.6332 -8.6693,-9.2866 -12.9613,-14.6626 -0.0254,0.002 -0.0393,0.002 -0.065,0.004 -0.0692,6.3506 -0.1024,9.523 -0.1717,15.8735 -1.4837,0.1173 -2.2268,0.175 -3.7142,0.2826 0.0876,-8.8536 0.1312,-13.2789 0.2176,-22.1313 1.3614,-0.0982 2.0416,-0.1514 3.4039,-0.2593 4.373,4.71 8.6937,9.3377 12.9528,14.5807 0.0254,-0.002 0.0372,-0.005 0.0629,-0.008 0.0885,-6.3131 0.1332,-9.471 0.2218,-15.7832 1.4925,-0.1544 2.2365,-0.2345 3.7278,-0.3998 -0.132,8.857 -0.1991,13.2856 -0.3303,22.1422 z"
       style="fill:#008f39;fill-rule:evenodd"
       id="path46"
       inkscape:connector-curvature="0" />
    <path
       d="m 381.94786,478.60421 c -0.9262,-2.7708 -1.8581,-5.3231 -2.8792,-8.5925 -0.0278,0.004 -0.0396,0.004 -0.0674,0.008 -1.0148,3.5478 -2.1459,6.3847 -3.2803,9.439 2.4925,-0.3285 3.7378,-0.4989 6.2269,-0.8549 z m -0.3677,-13.2992 c 3.2887,8.3707 4.923,12.5452 8.1682,20.8661 -2.0606,0.3251 -3.0938,0.4838 -5.1575,0.7908 -0.8008,-2.293 -1.2048,-3.438 -2.0087,-5.7332 -3.247,0.4681 -4.8728,0.6896 -8.1232,1.1088 -0.9851,2.5384 -1.4756,3.8079 -2.4595,6.3421 -1.598,0.1991 -2.3976,0.2952 -3.9968,0.4817 3.8741,-9.2927 5.8196,-13.9592 9.73,-23.3244 1.5393,-0.2067 2.3093,-0.3146 3.8475,-0.5319 z"
       style="fill:#008f39;fill-rule:evenodd"
       id="path48"
       inkscape:connector-curvature="0" />
    <path
       d="m 225.62396,327.97831 c 0.0375,-5.9975 -2.6699,-11.441 -9.165,-10.6371 -6.4975,0.8036 -9.2735,6.9252 -9.3203,12.9236 -0.0477,6.2312 2.3137,12.288 9.1485,11.4419 6.8343,-0.8436 9.2974,-7.4981 9.3368,-13.7284 z m -25.4397,3.2755 c 0.0757,-9.1157 6.9836,-17.4092 16.3068,-18.5632 9.3233,-1.153 16.1613,5.4414 16.1095,14.5541 -0.0551,9.718 -6.3466,17.8756 -16.3464,19.1126 -10,1.2361 -16.1513,-5.3821 -16.0699,-15.1035 z"
       style="fill:#ffffff;fill-rule:evenodd"
       id="path50"
       inkscape:connector-curvature="0" />
    <path
       d="m 238.81776,310.73741 c 2.6868,-0.2402 4.0306,-0.3545 6.7183,-0.5703 -0.0532,11.2754 -0.0818,16.9119 -0.1353,28.1873 5.3126,-0.4248 7.7413,-0.6125 13.0581,-0.9425 -0.006,1.7487 -0.01,2.6231 -0.0151,4.3718 -8.0184,0.4972 -11.7948,0.8013 -19.8005,1.5171 0.0704,-13.0251 0.1054,-19.5381 0.1745,-32.5634 z"
       style="fill:#ffffff;fill-rule:evenodd"
       id="path52"
       inkscape:connector-curvature="0" />
    <path
       d="m 263.44726,341.76991 c 0.0435,-13.0019 0.0649,-19.5043 0.1084,-32.5062 2.691,-0.1498 4.0382,-0.2175 6.7301,-0.3436 -0.0363,13.0031 -0.0544,19.5047 -0.0906,32.5065 -2.6994,0.1248 -4.0496,0.1926 -6.7479,0.3433 z"
       style="fill:#ffffff;fill-rule:evenodd"
       id="path54"
       inkscape:connector-curvature="0" />
    <path
       d="m 315.70396,340.74431 c -2.6643,-0.0441 -3.997,-0.0604 -6.6613,-0.0788 -0.004,-10.18 -0.007,-15.2703 -0.0116,-25.45 -0.0379,-10e-4 -0.0557,-10e-4 -0.0935,-10e-4 -3.6262,9.0648 -7.4026,17.2704 -11.1392,25.4607 -1.4355,0.012 -2.1538,0.0196 -3.5905,0.0402 -3.5359,-8.1083 -7.1129,-16.234 -10.5376,-25.2253 -0.0378,0 -0.0565,10e-4 -0.0943,0.002 -0.017,10.1809 -0.0253,15.2712 -0.042,25.4509 -2.135,0.0607 -3.2031,0.0953 -5.3373,0.1731 0.0274,-13.0509 0.042,-19.5774 0.0694,-32.6293 3.2776,-0.1188 4.9169,-0.1694 8.1957,-0.2493 3.3805,7.9321 8.8413,20.6231 10.1131,24.8047 0.0378,-9e-4 0.0568,-9e-4 0.0946,-9e-4 1.5605,-4.3978 7.5089,-17.0153 11.2759,-25.0115 3.0915,0.0175 4.6365,0.0337 7.7283,0.0855 0.0113,13.0518 0.0178,19.5783 0.0303,32.629 z"
       style="fill:#ffffff;fill-rule:evenodd"
       id="path56"
       inkscape:connector-curvature="0" />
    <path
       d="m 330.48366,341.12211 c -2.6439,-0.0965 -3.967,-0.1393 -6.6109,-0.2101 -0.0198,-12.9377 -0.0305,-19.4078 -0.0512,-32.3477 4.116,0.1112 6.1721,0.1831 10.2863,0.3544 7.3868,0.3085 11.9275,3.6495 11.9493,9.9344 0.0178,5.4534 -4.7366,10.5061 -12.603,10.1848 -0.6183,-0.0258 -0.9268,-0.0373 -1.5451,-0.0622 -0.004,-1.6078 -0.005,-2.4112 -0.01,-4.0191 0.5808,-0.0331 0.8707,-0.0504 1.4514,-0.0822 3.136,-0.0568 6.1242,-1.8031 6.1115,-6.1467 -0.008,-3.3271 -2.2112,-5.3378 -6.0908,-5.4951 -1.1792,-0.0483 -1.7691,-0.072 -2.9474,-0.1148 0.0239,11.2015 0.0367,16.8038 0.0594,28.0043 z"
       style="fill:#ffffff;fill-rule:evenodd"
       id="path58"
       inkscape:connector-curvature="0" />
    <path
       d="m 352.01586,342.18651 c -0.0513,-13.0204 -0.0758,-19.5324 -0.1268,-32.5536 2.691,0.1766 4.0358,0.2704 6.7246,0.4709 0.0595,13.0215 0.0873,19.5332 0.1458,32.5548 -2.6961,-0.2005 -4.0454,-0.2955 -6.7436,-0.4721 z"
       style="fill:#ffffff;fill-rule:evenodd"
       id="path60"
       inkscape:connector-curvature="0" />
    <path
       d="m 373.23356,311.47941 c 0.0683,12.104 0.1033,18.1581 0.1715,30.262 0.0404,7.2085 -4.0466,10.4583 -10.0247,9.9796 -0.007,-1.5346 -0.0118,-2.3022 -0.0191,-3.8356 3.7644,-0.1229 3.3207,-4.6694 3.3095,-6.8378 -0.0628,-12.0666 -0.0936,-18.1013 -0.1554,-30.1679 2.6888,0.227 4.0315,0.3469 6.7182,0.5997 z"
       style="fill:#ffffff;fill-rule:evenodd"
       id="path62"
       inkscape:connector-curvature="0" />
    <path
       d="m 397.37356,333.61411 c -1.4333,-4.4508 -2.8616,-8.5703 -4.4383,-13.7717 -0.0377,-0.004 -0.0563,-0.008 -0.094,-0.0119 -1.3174,4.8442 -2.8325,8.6017 -4.3464,12.6881 3.5527,0.4172 5.328,0.6345 8.8787,1.0955 z m -1.0329,-19.7384 c 5.003,13.6213 7.5083,20.4522 12.529,34.1648 -2.9505,-0.4309 -4.4268,-0.6405 -7.3805,-1.0407 -1.2433,-3.71 -1.8634,-5.5622 -3.1034,-9.2661 -4.6349,-0.6074 -6.955,-0.8923 -11.5954,-1.4232 -1.3246,3.3897 -1.9864,5.085 -3.3124,8.4811 -2.2866,-0.2492 -3.4294,-0.3696 -5.7172,-0.6018 5.2667,-12.4474 7.8932,-18.6463 13.1232,-30.9946 2.1832,0.2633 3.2747,0.3989 5.4567,0.6805 z"
       style="fill:#ffffff;fill-rule:evenodd"
       id="path64"
       inkscape:connector-curvature="0" />
  </g>
</svg>
