<?xml version="1.0" encoding="UTF-8"?>
<!DOCTYPE svg PUBLIC "-//W3C//DTD SVG 1.1//EN" "http://www.w3.org/Graphics/SVG/1.1/DTD/svg11.dtd">
<!-- Creator: CorelDRAW X6 -->
<svg xmlns="http://www.w3.org/2000/svg" xml:space="preserve" width="288.878445026" height="346.166360702" version="1.1" style="shape-rendering:geometricPrecision; text-rendering:geometricPrecision; image-rendering:optimizeQuality; fill-rule:evenodd; clip-rule:evenodd"
viewBox="0 0 6583 7889"
 xmlns:xlink="http://www.w3.org/1999/xlink">
 <defs>
  <style type="text/css">
   <![CDATA[
    .fil4 {fill:#373435;fill-rule:nonzero}
    .fil2 {fill:#00A859;fill-rule:nonzero}
    .fil1 {fill:#201E1E;fill-rule:nonzero}
    .fil0 {fill:#848688;fill-rule:nonzero}
    .fil3 {fill:#FEFEFE;fill-rule:nonzero}
    .fil5 {fill:#FFDE20;fill-rule:nonzero}
   ]]>
  </style>
 </defs>
 <g id="Layer_x0020_1">
  <metadata id="CorelCorpID_0Corel-Layer"/>
  <path class="fil0" d="M2582 89c462,-106 946,-106 1408,0 288,67 561,160 832,252 305,104 608,199 925,260 271,53 542,79 816,98 0,232 2,465 4,697 5,561 9,1098 -28,1613 -82,1114 -390,2164 -962,3032 -564,855 -1343,1463 -2291,1842 -948,-379 -1727,-987 -2291,-1842 -572,-868 -880,-1918 -962,-3032 -37,-515 -33,-1052 -28,-1613 2,-232 4,-465 4,-697 274,-19 545,-45 816,-98 317,-61 620,-156 925,-260 271,-92 544,-185 832,-252z"/>
  <path class="fil1" d="M2593 142c455,-105 931,-105 1385,0 285,65 557,158 827,250 307,105 613,200 932,262 256,50 513,78 772,96 0,215 2,431 4,646 5,560 9,1095 -28,1609 -81,1105 -386,2147 -953,3006 -559,848 -1312,1429 -2246,1814 -934,-385 -1687,-967 -2246,-1814 -567,-859 -872,-1901 -953,-3006 -37,-514 -33,-1049 -28,-1609 2,-215 4,-431 4,-646 259,-18 516,-46 772,-96 319,-62 625,-157 932,-262 270,-92 542,-185 826,-250z"/>
  <path class="fil0" d="M2619 253c-278,65 -547,156 -815,248 -313,106 -623,203 -948,266 -223,43 -447,72 -679,90 0,183 -2,363 -3,540 -5,556 -10,1087 28,1600 80,1086 378,2109 934,2951 500,758 1207,1370 2150,1753 943,-383 1650,-995 2150,-1753 556,-842 854,-1865 934,-2951 38,-513 33,-1044 28,-1600 -1,-177 -3,-357 -3,-540 -232,-18 -457,-47 -679,-90 -325,-63 -635,-160 -948,-266 -268,-92 -537,-183 -815,-248 -438,-100 -896,-100 -1334,0z"/>
  <path class="fil1" d="M2631 306c-275,63 -543,155 -810,246 -315,107 -627,204 -955,268 -209,40 -419,69 -635,87 0,166 -2,329 -3,491 -5,553 -10,1082 28,1595 79,1078 375,2091 925,2926 491,743 1183,1345 2105,1724l0 -7411c-220,0 -440,24 -655,74z"/>
  <path class="fil2" d="M3286 7643c922,-379 1614,-981 2105,-1724 550,-835 846,-1848 925,-2926 38,-513 33,-1042 28,-1595 -1,-162 -3,-325 -3,-491 -216,-18 -426,-47 -635,-87 -328,-64 -640,-161 -955,-268 -267,-91 -535,-183 -810,-246 -215,-50 -435,-74 -655,-74l0 7411z"/>
  <path class="fil3" d="M3286 5032c536,0 974,-438 974,-974 0,-536 -438,-974 -974,-974 -536,0 -974,438 -974,974 0,536 438,974 974,974z"/>
  <polygon class="fil1" points="3286,4385 3591,4164 3474,3806 3098,3806 2981,4164 "/>
  <path class="fil4" d="M2558 3412c93,-104 208,-189 338,-246l189 96 -164 294 -330 65 -33 -209z"/>
  <path class="fil4" d="M2446 4550c-70,-118 -115,-253 -129,-397l150 -150 228 247 -40 334 -209 -34z"/>
  <path class="fil4" d="M3494 5009c-67,15 -137,23 -208,23 -71,0 -141,-8 -208,-23l-97 -189 305 -141 305 141 -97 189z"/>
  <path class="fil4" d="M4255 4153c-14,144 -59,279 -129,397l-209 34 -40 -334 228 -247 150 150z"/>
  <path class="fil4" d="M3676 3166c130,57 245,142 338,246l-33 209 -330 -65 -164 -294 189 -96z"/>
  <polygon class="fil1" points="1119,2639 963,2047 963,2639 668,2639 668,1284 899,1284 1070,1905 1070,1284 1373,1284 1642,1284 1642,1810 1824,1284 2148,1284 2138,1308 1889,1921 2191,2639 1850,2639 1642,2108 1642,2639 "/>
  <path class="fil1" d="M2478 2640l0 -1356 507 0 143 149 0 -149 327 0 0 1098 62 0 0 -1098 819 1 193 191 0 715 117 -907 433 0 141 1056 0 -1056 507 0 177 185 0 367 -133 128 133 127 0 548 -303 0 0 -541 -67 -1 0 540c-105,1 -209,2 -314,3l0 -1 -277 0 -15 -246 -126 0 -25 246 -306 0 20 -152 -148 152 -532 0 0 -156 -146 151 -5 5 -342 0 -156 -157 0 157 -303 0 0 -541 -67 -1 0 540 -17 0 -280 2 -17 1zm381 -801l0 0 0 -296 -67 -2 0 297 67 1zm269 30l0 0 -99 95 99 95 0 -190zm1008 511l0 0 72 0 0 -834 -72 0 0 834zm686 -248l0 0 89 0 -43 -522 -16 0 -30 522zm779 -293l0 0 0 -296 -67 -2 0 297 67 1z"/>
  <polygon class="fil5" points="1373,2605 1608,2605 1608,2012 1629,1970 1874,2605 2140,2605 1852,1920 2097,1319 1848,1319 1628,1961 1608,1906 1608,1319 1373,1319 "/>
  <polygon class="fil5" points="1338,2605 1338,1319 1104,1319 1104,2147 873,1319 702,1319 702,2605 929,2605 929,1800 1146,2605 "/>
  <path class="fil5" d="M3845 2605l483 0 167 -171 0 -944 -173 -171 -477 0 0 1286zm257 -190l0 0 0 -903 140 0 0 903 -140 0z"/>
  <path class="fil5" d="M4510 2605l236 0 26 -246 188 0 15 246 245 0 -171 -1286 -373 0 -166 1286zm275 -439l0 0 35 -591 79 0 50 591 -164 0z"/>
  <path class="fil5" d="M5255 2605l244 -2 0 -541 136 3 0 540 235 0 0 -499 -148 -141 148 -144 0 -338 -157 -164 -459 0 1 1286zm380 -731l0 0 -136 -3 0 -365 136 3 0 365z"/>
  <path class="fil5" d="M2512 2605l245 -2 0 -541 136 3 0 540 235 0 0 -499 -148 -141 148 -144 0 -338 -157 -164 -459 0 0 1286zm381 -731l0 0 -136 -3 0 -365 136 3 0 365z"/>
  <polygon class="fil5" points="3162,1476 3162,2433 3334,2605 3646,2605 3811,2434 3811,1319 3551,1319 3551,2416 3420,2416 3420,1319 3162,1319 "/>
  <polygon class="fil4" points="2852,6130 2852,5459 2986,5459 2986,5990 3125,5990 3125,6130 "/>
  <polygon class="fil5" points="2870,6113 3108,6113 3108,6007 2969,6007 2969,5476 2870,5476 "/>
  <path class="fil1" d="M3961 6120l0 -162c19,18 54,66 104,41 27,-16 18,-107 18,-134l0 -406 146 0 0 464c0,96 -23,191 -124,212 -42,9 -107,4 -144,-15z"/>
  <path class="fil5" d="M3979 6110c28,13 89,15 123,8 93,-19 110,-110 110,-195l0 -447 -111 0 0 389c0,37 10,127 -28,149 -35,21 -72,7 -93,-12 -1,0 -1,9 -1,8l0 100z"/>
  <polygon class="fil1" points="4318,6130 4318,5459 4593,5459 4593,5597 4462,5597 4462,5719 4572,5719 4572,5860 4462,5860 4462,5990 4593,5990 4593,6130 "/>
  <polygon class="fil5" points="4335,6113 4575,6113 4575,6008 4445,6008 4445,5843 4555,5843 4555,5736 4445,5736 4445,5580 4575,5580 4575,5476 4335,5476 "/>
  <path class="fil1" d="M3511 6130l0 -671 137 0 138 358c1,2 2,4 3,6 -2,-17 -3,-35 -4,-51 0,-19 -1,-36 -1,-53l0 -260 141 -2 0 671 -133 2 -141 -367c1,8 1,15 1,23 0,19 1,39 1,60l0 284 -142 0z"/>
  <path class="fil5" d="M3528 6113l107 0 0 -267c0,-21 0,-41 0,-60 0,-21 -1,-41 -2,-62l20 0 151 389 104 -2 0 -636 -107 1 0 243c0,16 1,34 2,52 0,17 2,36 3,55 1,13 2,25 4,37l-27 0c-3,-14 -7,-27 -13,-40l-134 -347 -108 0 0 637z"/>
  <polygon class="fil1" points="3165,6130 3165,5459 3439,5459 3439,5597 3308,5597 3308,5719 3419,5719 3419,5860 3308,5860 3308,5990 3439,5990 3439,6130 "/>
  <polygon class="fil5" points="3182,6113 3422,6113 3422,6008 3291,6008 3291,5843 3401,5843 3401,5736 3291,5736 3291,5580 3422,5580 3422,5476 3182,5476 "/>
  <polygon class="fil1" points="2496,6130 2496,5459 2771,5459 2771,5597 2641,5597 2641,5719 2751,5719 2751,5860 2641,5860 2641,5990 2771,5990 2771,6130 "/>
  <polygon class="fil5" points="2513,6113 2754,6113 2754,6008 2624,6008 2624,5843 2734,5843 2734,5736 2624,5736 2624,5580 2754,5580 2754,5476 2513,5476 "/>
  <path class="fil1" d="M2164 6130l-185 -671 146 0 76 303c8,30 14,62 19,93 1,6 2,12 3,18 0,-4 1,-9 2,-13 4,-32 10,-64 18,-96l6 -24 68 -281 149 0 -183 671 -119 0z"/>
  <path class="fil5" d="M2178 6113l92 0 174 -637 -113 0 -65 269c-10,39 -18,78 -24,117 -2,12 -3,24 -5,35l-29 0c-5,-44 -13,-88 -24,-131l-72 -290 -110 0 176 637z"/>
 </g>
</svg>
