<?xml version="1.0" encoding="utf-8"?>
<!-- Generator: Adobe Illustrator 16.0.2, SVG Export Plug-In . SVG Version: 6.00 Build 0)  -->
<!DOCTYPE svg PUBLIC "-//W3C//DTD SVG 1.1//EN" "http://www.w3.org/Graphics/SVG/1.1/DTD/svg11.dtd">
<svg version="1.1" id="Layer_1" xmlns="http://www.w3.org/2000/svg" xmlns:xlink="http://www.w3.org/1999/xlink" x="0px" y="0px"
	 width="155.043px" height="250.5px" viewBox="0 0 155.043 250.5" enable-background="new 0 0 155.043 250.5" xml:space="preserve">
<g>
	<path fill-rule="evenodd" clip-rule="evenodd" fill="#EB222A" d="M0.25,42.556c25.757,0,51.514,0,77.271,0
		c25.757,0,51.514,0,77.271,0c0,69.483,0,62.863,0,132.347c0,31.042-43.002,70.006-77.271,75.347
		C43.252,244.909,0.25,205.945,0.25,174.903C0.25,105.419,0.25,112.04,0.25,42.556z"/>
	<path fill-rule="evenodd" clip-rule="evenodd" fill="#FFFFFF" d="M77.521,76.354l23.215,45.539l50.483,8.006l-36.136,36.15
		l7.985,50.488L77.521,193.34l-45.548,23.197l7.985-50.488l-36.135-36.15l50.483-8.006L77.521,76.354L77.521,76.354z
		 M77.396,118.162c-17.826,0.061-32.567,13.21-35.116,30.342c4.409,3.454,9.035,6.16,13.899,7.492
		c0.165-11.26,3.332-20.061,8.547-26.872C68.163,124.638,72.476,121.029,77.396,118.162L77.396,118.162z M41.959,151.584
		c-0.044,0.731-0.07,1.466-0.07,2.208c0,4.558,0.856,8.916,2.417,12.923c5.605,3.957,11.71,6.698,18.285,7.654
		c8.087,1.176,16.928-0.34,26.479-5.599c-1.865-5.181-5.463-9.786-11.553-13.446c-7.841,4.503-15.148,5.1-21.988,3.238
		C50.762,157.267,46.25,154.773,41.959,151.584L41.959,151.584z M46.459,171.258c6.11,10.842,17.729,18.165,31.063,18.165
		c4.42,0,8.651-0.806,12.557-2.277c0.867-5.537,0.978-10.898-0.229-15.795c-9.914,5.346-19.143,6.869-27.629,5.636
		C56.623,176.172,51.365,174.16,46.459,171.258L46.459,171.258z M92.923,185.932c4.831-2.321,9.059-5.698,12.382-9.833
		c0.628-6.831-0.047-13.485-2.5-19.654c-3.017-7.588-8.744-14.487-18.075-20.138c-3.559,4.207-5.752,9.626-5.882,16.729
		c7.759,4.652,11.845,10.749,13.556,17.639C93.595,175.473,93.617,180.63,92.923,185.932L92.923,185.932z M108.166,171.977
		c3.166-5.323,4.986-11.541,4.986-18.185c0-11.093-5.067-21.001-13.016-27.535c-5.224,2.011-9.919,4.593-13.558,8.083
		c9.578,5.917,15.508,13.155,18.678,21.131C107.347,160.726,108.23,166.281,108.166,171.977L108.166,171.977z M97.669,124.402
		c-4.458-3.062-9.647-5.136-15.254-5.906c-6.184,2.965-11.55,6.96-15.587,12.232c-4.966,6.485-7.951,14.941-8.014,25.845
		c5.443,0.897,11.226-0.002,17.395-3.542c0.152-9.053,3.392-15.64,8.506-20.563C88.273,129.042,92.729,126.448,97.669,124.402z"/>
	<polygon fill-rule="evenodd" clip-rule="evenodd" fill="#EB222A" points="77.521,0.25 81.458,12.444 94.271,12.42 83.891,19.932 
		87.874,32.112 77.521,24.56 67.169,32.112 71.152,19.932 60.771,12.42 73.585,12.444 	"/>
	<path fill-rule="evenodd" clip-rule="evenodd" fill="#FFFFFF" d="M145.774,47.503h4.205v22.206h-4.205V47.503L145.774,47.503z
		 M27.239,61.049h2.995l-2.995-7.644l-2.995,7.644H27.239L27.239,61.049z M27.239,47.503h2.124l9.304,22.206h-5.154l-1.732-4.577
		h-4.542h-4.541l-1.732,4.577h-5.154l9.304-22.206H27.239L27.239,47.503z M9.269,56.194h1.355c1.067,0,1.804-0.078,2.222-0.228
		c0.417-0.154,0.742-0.402,0.984-0.752c0.237-0.351,0.356-0.773,0.356-1.273c0-0.861-0.335-1.49-1.005-1.881
		c-0.484-0.293-1.392-0.443-2.711-0.443H9.269V56.194L9.269,56.194z M5.062,47.503v22.206h4.207v-9.402
		c2.159,0,3.649-0.114,4.469-0.345c1.397-0.402,2.5-1.119,3.309-2.144c0.815-1.026,1.222-2.314,1.222-3.866
		c0-1.402-0.31-2.603-0.928-3.603c-0.619-1-1.469-1.727-2.541-2.175c-1.073-0.449-2.82-0.67-5.248-0.67H5.062L5.062,47.503z
		 M45.183,56.194h1.34c1.361,0,2.294-0.176,2.809-0.532c0.511-0.355,0.769-0.943,0.769-1.768c0-0.484-0.129-0.907-0.381-1.268
		c-0.252-0.361-0.593-0.619-1.021-0.773c-0.423-0.16-1.206-0.237-2.345-0.237h-1.17V56.194L45.183,56.194z M40.977,47.503h4.49
		c2.454,0,4.206,0.216,5.247,0.654c1.047,0.439,1.882,1.17,2.516,2.186c0.634,1.015,0.953,2.216,0.953,3.608
		c0,1.459-0.351,2.68-1.046,3.66c-0.701,0.984-1.753,1.727-3.16,2.227l5.242,9.871H50.6l-4.99-9.402h-0.428v9.402h-4.206V47.503
		L40.977,47.503z M56.763,47.503h13.035v4.175h-4.43v18.03H61.07v-18.03h-4.307V47.503L56.763,47.503z M73.527,47.503h4.206v22.206
		h-4.206V47.503L73.527,47.503z M81.983,47.503h14.21l-8.306,18.123h7.779v4.083H81.333l8.265-18.03h-7.614V47.503L81.983,47.503z
		 M109.255,61.049h2.995l-2.995-7.644l-2.994,7.644H109.255L109.255,61.049z M109.255,47.503h2.124l9.303,22.206h-5.153
		l-1.732-4.577h-4.541h-4.541l-1.731,4.577h-5.154l9.304-22.206H109.255L109.255,47.503z M122.86,47.503h4.011l10.323,14.613V47.503
		h4.206v22.206h-4.041l-10.293-14.566v14.566h-4.206V47.503z"/>
	<path fill-rule="evenodd" clip-rule="evenodd" fill="#FFFFFF" d="M45.1,212.114h7.498v2.549h-2.474v11.012h-2.625v-11.012H45.1
		V212.114L45.1,212.114z M54.165,212.114h2.569v13.561h-2.569V212.114L54.165,212.114z M59.809,212.114h2.742
		c1.499,0,2.569,0.132,3.205,0.399c0.639,0.268,1.149,0.715,1.537,1.334c0.387,0.62,0.582,1.354,0.582,2.204
		c0,0.891-0.214,1.637-0.639,2.234c-0.428,0.602-1.07,1.055-1.93,1.36l3.201,6.028h-2.82l-3.047-5.742h-0.261v5.742h-2.569V212.114
		L59.809,212.114z M62.378,217.421h0.818c0.832,0,1.4-0.107,1.716-0.325c0.312-0.216,0.469-0.575,0.469-1.079
		c0-0.295-0.079-0.554-0.233-0.774c-0.154-0.22-0.362-0.378-0.623-0.472c-0.258-0.098-0.737-0.145-1.432-0.145h-0.714V217.421
		L62.378,217.421z M74.738,212.114h2.6l5.22,13.561h-2.686l-1.057-2.796h-5.56l-1.083,2.796h-2.685L74.738,212.114L74.738,212.114z
		 M76.042,215.718l-1.838,4.668h3.667L76.042,215.718L76.042,215.718z M84.581,212.114h2.449l5.842,8.923v-8.923h2.569v13.561
		h-2.468l-5.823-8.896v8.896h-2.569V212.114L84.581,212.114z M98.551,212.114h7.403v2.53h-4.834v2.437h4.834v2.492h-4.834v3.569
		h4.834v2.532h-7.403V212.114L98.551,212.114z M100.21,208.412c0.368,0,0.68,0.129,0.938,0.388c0.259,0.258,0.387,0.566,0.387,0.928
		c0,0.372-0.128,0.684-0.387,0.941c-0.258,0.258-0.569,0.387-0.938,0.387c-0.366,0-0.674-0.129-0.932-0.387
		c-0.259-0.258-0.388-0.569-0.388-0.941c0-0.361,0.129-0.67,0.388-0.928C99.536,208.541,99.844,208.412,100.21,208.412
		L100.21,208.412z M104.289,208.412c0.368,0,0.68,0.129,0.938,0.388c0.258,0.258,0.387,0.566,0.387,0.928
		c0,0.372-0.129,0.684-0.387,0.941c-0.259,0.258-0.57,0.387-0.938,0.387c-0.365,0-0.674-0.129-0.932-0.387s-0.388-0.569-0.388-0.941
		c0-0.361,0.13-0.67,0.388-0.928C103.615,208.541,103.924,208.412,104.289,208.412z"/>
	<path fill-rule="evenodd" clip-rule="evenodd" fill="#FFFFFF" d="M87.255,236.59c-0.317,0-0.585,0.114-0.801,0.346
		c-0.214,0.229-0.322,0.517-0.322,0.864c0,0.346,0.111,0.638,0.339,0.873c0.226,0.235,0.487,0.354,0.79,0.354
		c0.316,0,0.589-0.117,0.816-0.349c0.228-0.233,0.342-0.525,0.342-0.879c0-0.348-0.111-0.636-0.334-0.864
		C87.864,236.704,87.588,236.59,87.255,236.59L87.255,236.59z M89.303,231.201l-1.952,3.775c0.762,0,1.41,0.273,1.943,0.817
		c0.533,0.545,0.8,1.222,0.8,2.032c0,0.782-0.272,1.442-0.821,1.986c-0.547,0.544-1.208,0.814-1.983,0.814
		c-0.81,0-1.485-0.281-2.024-0.846c-0.54-0.563-0.809-1.209-0.809-1.938c0-0.277,0.042-0.557,0.125-0.835
		c0.084-0.282,0.277-0.713,0.577-1.297l2.309-4.511H89.303L89.303,231.201z M80.799,236.989v-3.013l-2.055,3.013H80.799
		L80.799,236.989z M80.777,231.201h1.696v5.788h0.8v1.575h-0.8v1.838h-1.675v-1.838h-3.925v-1.57L80.777,231.201L80.777,231.201z
		 M73.119,235.239c0.316,0,0.583-0.116,0.8-0.349c0.215-0.23,0.323-0.517,0.323-0.858c0-0.35-0.112-0.641-0.339-0.876
		c-0.225-0.235-0.488-0.354-0.79-0.354c-0.317,0-0.59,0.116-0.816,0.35c-0.227,0.233-0.342,0.525-0.342,0.875
		c0,0.346,0.11,0.634,0.333,0.864C72.508,235.123,72.785,235.239,73.119,235.239L73.119,235.239z M71.16,240.402l1.854-3.551
		c-0.76,0-1.406-0.272-1.938-0.816c-0.532-0.544-0.798-1.221-0.798-2.029c0-0.785,0.273-1.447,0.821-1.99s1.208-0.814,1.984-0.814
		c0.81,0,1.485,0.282,2.024,0.844c0.54,0.563,0.808,1.211,0.808,1.942c0,0.276-0.042,0.554-0.125,0.833
		c-0.083,0.277-0.277,0.709-0.577,1.289l-2.193,4.293H71.16L71.16,240.402z M65.938,231.427h2.56v8.976h-1.7v-7.376h-1.85
		L65.938,231.427z"/>
</g>
</svg>
