<?xml version="1.0" encoding="UTF-8" standalone="no"?>
<svg
   xmlns:dc="http://purl.org/dc/elements/1.1/"
   xmlns:cc="http://creativecommons.org/ns#"
   xmlns:rdf="http://www.w3.org/1999/02/22-rdf-syntax-ns#"
   xmlns:svg="http://www.w3.org/2000/svg"
   xmlns="http://www.w3.org/2000/svg"
   xmlns:sodipodi="http://sodipodi.sourceforge.net/DTD/sodipodi-0.dtd"
   xmlns:inkscape="http://www.inkscape.org/namespaces/inkscape"
   id="svg212"
   version="1.1"
   viewBox="0 0 244.78832 189"
   height="252"
   width="326.38443"
   sodipodi:docname="pfk-levski-sofia-seeklogo.com.svg"
   style="fill-rule:evenodd"
   inkscape:version="0.92.4 (5da689c313, 2019-01-14)">
  <sodipodi:namedview
     pagecolor="#ffffff"
     bordercolor="#666666"
     borderopacity="1"
     objecttolerance="10"
     gridtolerance="10"
     guidetolerance="10"
     inkscape:pageopacity="0"
     inkscape:pageshadow="2"
     inkscape:window-width="1366"
     inkscape:window-height="705"
     id="namedview110"
     showgrid="false"
     units="px"
     fit-margin-top="1"
     fit-margin-bottom="1"
     fit-margin-right="1"
     fit-margin-left="1"
     inkscape:zoom="1.189304"
     inkscape:cx="280.13814"
     inkscape:cy="229.46068"
     inkscape:window-x="-8"
     inkscape:window-y="-8"
     inkscape:window-maximized="1"
     inkscape:current-layer="svg212" />
  <metadata
     id="metadata218">
    <rdf:RDF>
      <cc:Work
         rdf:about="">
        <dc:format>image/svg+xml</dc:format>
        <dc:type
           rdf:resource="http://purl.org/dc/dcmitype/StillImage" />
        <dc:title></dc:title>
      </cc:Work>
    </rdf:RDF>
  </metadata>
  <defs
     id="defs216" />
  <g
     id="g210"
     transform="matrix(0.42913383,0,0,0.42913383,-5.3321996,-86.143164)">
    <g
       id="g208">
      <path
         id="path2"
         d="m 129.089,214.03 c 2.177,12.652 0.969,26.363 -4.534,38.054 -2.08,4.419 -4.807,8.419 -8.019,11.977 6.869,-0.618 13.857,-0.034 21.106,1.225 l 8.248,1.433 v -54.525 h 302.056 v 53.549 c 8.925,-1.473 17.969,-2.602 26.916,-2.126 -2.861,-3.003 -5.355,-6.552 -7.373,-10.859 -7.72,-16.478 -5.764,-31.903 -2.806,-48.915 l 3.05,1.619 c 0.129,-0.767 0.261,-1.536 0.395,-2.308 15.465,8.213 30.643,15.921 39.082,32.387 1.262,2.462 2.288,5.121 3.101,7.9 3.358,-4.469 7.326,-8.499 11.813,-12.015 l 9.221,-7.226 1.32,3.631 4.193,-3.286 4.002,11.01 c 4.752,13.077 6.961,25.561 3.324,39.215 -0.278,1.044 -0.603,2.085 -0.97,3.123 0.252,-0.136 0.505,-0.272 0.759,-0.405 l 10.372,-5.446 0.609,3.608 4.904,-2.575 1.951,11.551 c 2.295,13.579 2.233,26.187 -3.638,38.831 l 10.213,-3.404 0.147,3.598 5.711,-1.904 0.46,11.283 c 0.569,13.96 -1.235,26.763 -9.173,38.553 -0.465,0.69 -0.945,1.364 -1.44,2.021 0.228,-0.037 0.456,-0.075 0.684,-0.11 l 11.161,-1.717 -0.467,3.623 5.635,-0.867 -1.444,11.2 c -1.788,13.856 -5.721,26.173 -15.529,36.46 l -0.237,0.246 10.999,-0.237 -0.855,3.223 5.651,-0.123 -2.896,10.916 c -3.584,13.502 -9.093,25.2 -20.161,34.116 -1.454,1.172 -2.958,2.239 -4.504,3.21 l 10.822,2.546 -1.751,3.115 7.264,1.708 -5.532,9.845 c -6.844,12.179 -15.102,22.129 -28.047,27.996 -2.625,1.19 -5.307,2.11 -8.027,2.796 0.415,0.213 0.829,0.43 1.239,0.652 l 9.933,5.372 -1.2,1.221 6.024,3.258 -7.917,8.054 c -9.794,9.963 -20.369,17.403 -34.399,19.677 -3.065,0.496 -6.111,0.673 -9.129,0.581 2.886,1.768 5.628,3.776 8.188,5.994 l 8.537,7.393 -9.472,6.151 c -11.716,7.609 -23.649,12.587 -37.839,11.773 -3.74,-0.215 -7.343,-0.873 -10.821,-1.889 2.46,2.486 4.71,5.184 6.717,8.054 l 6.474,9.253 -10.686,3.654 c -12.091,4.134 -23.823,6.089 -36.116,3.137 -38.865,16.401 -83.803,26.495 -126.58,25.453 -35.671,-0.869 -73.295,-8.875 -109.029,-25.631 -14.399,3.58 -30.116,0.079 -48.411,-6.212 0.882,-1.256 1.757,-2.494 2.63,-3.71 -1.435,-0.467 -2.886,-0.953 -4.353,-1.458 2.633,-3.75 5.198,-7.335 7.877,-10.678 -1.461,0.203 -2.943,0.348 -4.447,0.432 -18.494,1.029 -32.64,-8.463 -47.2791,-18.005 l 3.292,-2.577 c -1.3256,-0.858 -2.6512,-1.725 -3.9811,-2.592 l 8.5484,-6.689 c 0.6068,-0.524 1.2237,-1.036 1.8501,-1.536 -1.0479,-0.099 -2.0986,-0.233 -3.1513,-0.406 -18.2797,-2.995 -29.0042,-16.009 -41.2327,-28.492 0.8075,-0.435 1.6096,-0.865 2.4065,-1.287 -1.0246,-1.064 -2.0545,-2.13 -3.0956,-3.192 4.5794,-2.467 8.9757,-4.748 13.3853,-6.643 -1.7562,-0.559 -3.4932,-1.225 -5.2064,-2.005 -16.8579,-7.676 -28.4239,-26.785 -33.1685,-42.034 6.299,-1.272 12.5163,-1.906 18.7001,-1.788 -2.5578,-1.424 -5.0243,-3.076 -7.3815,-4.981 -14.4046,-11.646 -19.5596,-32.998 -21.9449,-47.829 5.817,0.136 11.3011,0.721 16.5643,1.884 -0.4464,-0.434 -0.8855,-0.878 -1.3182,-1.333 -13.6385,-14.354 -15.0067,-32.002 -16.8892,-50.445 6.5788,1.024 12.9256,2.552 18.9634,4.816 -1.203,-1.401 -2.3348,-2.883 -3.3871,-4.452 -7.838,-11.685 -9.3436,-26.225 -8.7602,-39.946 l 0.5038,-11.829 11.0441,4.266 c 2.5993,1.004 5.0971,2.172 7.4899,3.491 -1.005,-1.571 -1.9038,-3.179 -2.6736,-4.815 -5.997,-12.744 -6.0617,-26.212 -3.73,-39.867 l 1.9722,-11.547 10.3625,5.463 c 3.0298,1.597 5.8955,3.443 8.5813,5.507 -1.391,-2.805 -2.5111,-5.677 -3.2735,-8.56 -3.6132,-13.66 -1.3824,-26.141 3.3929,-39.21 l 4.021,-11.003 9.2083,7.242 c 6.4323,5.059 11.7937,11.175 15.8152,18.126 0.8925,-5.099 2.3896,-10.013 4.6055,-14.319 6.5602,-12.745 15.8431,-20.871 28.4381,-27.532 l 10.355,-5.477 z m 16.801,60.564 v -1.098 l -0.698,1.313 z"
         style="fill:#2a3c6a;stroke:none"
         inkscape:connector-curvature="0" />
      <g
         id="g44">
        <path
           id="path4"
           d="m 474.444,216.16 c 13.932,7.368 20.763,14.598 25.201,23.221 3.555,6.906 5.888,18.702 4.108,31.778 -10.646,-4.449 -20.149,-12.14 -25.116,-22.692 -4.265,-9.063 -6.293,-20.102 -4.193,-32.307 z"
           style="fill:#ffffff;stroke:none"
           inkscape:connector-curvature="0" />
        <path
           id="path6"
           d="m 474.444,216.16 c 13.932,7.368 20.763,14.598 25.201,23.221 3.555,6.906 5.888,18.702 4.108,31.778 -10.646,-4.449 -20.149,-12.14 -25.116,-22.692 -4.265,-9.063 -6.293,-20.102 -4.193,-32.307 z"
           style="fill:#ffffff;stroke:none"
           inkscape:connector-curvature="0" />
        <path
           id="path8"
           d="m 532.869,238.364 c 5.41,14.803 5.64,24.747 3.16,34.122 -1.987,7.509 -8.156,17.831 -18.235,26.348 -4.926,-10.434 -6.83,-22.51 -3.45,-33.672 2.903,-9.587 8.79,-19.142 18.525,-26.798 z"
           style="fill:#ffffff;stroke:none"
           inkscape:connector-curvature="0" />
        <path
           id="path10"
           d="m 459.318,273.655 c 15.528,-2.697 25.354,-1.159 34.141,2.945 7.038,3.287 16.101,11.19 22.694,22.621 -11.142,2.996 -23.364,2.727 -33.75,-2.579 -8.92,-4.559 -17.278,-12.048 -23.085,-22.987 z"
           style="fill:#ffffff;stroke:none"
           inkscape:connector-curvature="0" />
        <path
           id="path12"
           d="m 475.023,307.251 c 15.758,0.194 25.137,3.508 33.022,9.153 6.316,4.521 13.778,13.951 18.164,26.397 -11.502,0.903 -23.468,-1.602 -32.705,-8.722 -7.934,-6.115 -14.778,-15.01 -18.481,-26.828 z"
           style="fill:#ffffff;stroke:none"
           inkscape:connector-curvature="0" />
        <path
           id="path14"
           d="m 485.959,344.814 c 15.595,2.274 24.454,6.797 31.525,13.434 5.663,5.316 11.814,15.648 14.518,28.564 -11.521,-0.623 -23.051,-4.686 -31.267,-12.964 -7.056,-7.11 -12.666,-16.83 -14.776,-29.034 z"
           style="fill:#ffffff;stroke:none"
           inkscape:connector-curvature="0" />
        <path
           id="path16"
           d="m 489.958,381.723 c 15.032,4.737 23.054,10.617 28.973,18.299 4.741,6.152 9.162,17.335 9.767,30.517 -11.273,-2.457 -22.006,-8.31 -28.793,-17.794 -5.83,-8.146 -9.814,-18.638 -9.947,-31.022 z"
           style="fill:#ffffff;stroke:none"
           inkscape:connector-curvature="0" />
        <path
           id="path18"
           d="m 553.51,285.914 c 2.653,15.535 1.087,25.357 -3.042,34.132 -3.308,7.028 -11.236,16.069 -22.686,22.63 -2.964,-11.151 -2.66,-23.372 2.676,-33.743 4.583,-8.907 12.097,-17.244 23.052,-23.019 z"
           style="fill:#ffffff;stroke:none"
           inkscape:connector-curvature="0" />
        <path
           id="path20"
           d="m 566.375,334.288 c 0.67,15.746 -2.273,25.424 -7.673,33.476 -4.857,7.241 -12.485,13.328 -24.671,18.39 -1.533,-11.436 0.312,-23.523 6.915,-33.135 5.671,-8.255 14.521,-15.074 25.429,-18.731 z"
           style="fill:#ffffff;stroke:none"
           inkscape:connector-curvature="0" />
        <path
           id="path22"
           d="m 571.482,385.018 c -1.989,15.634 -6.518,24.679 -13.196,31.707 -6.006,6.321 -14.549,11.038 -27.414,13.977 0.414,-11.53 4.266,-23.134 12.392,-31.498 6.979,-7.184 16.85,-12.417 28.218,-14.186 z"
           style="fill:#ffffff;stroke:none"
           inkscape:connector-curvature="0" />
        <path
           id="path24"
           d="m 569.977,433.882 c -4.016,15.24 -9.688,23.615 -17.227,29.711 -6.781,5.481 -15.868,9.041 -29.006,10.274 1.917,-11.378 7.253,-22.379 16.402,-29.609 7.859,-6.21 18.329,-10.107 29.831,-10.376 z"
           style="fill:#ffffff;stroke:none"
           inkscape:connector-curvature="0" />
        <path
           id="path26"
           d="m 490.182,421.849 c -0.844,15.737 1.991,25.448 7.302,33.558 4.776,7.295 12.337,13.466 24.466,18.663 1.659,-11.418 -0.052,-23.525 -6.547,-33.209 -5.58,-8.318 -14.354,-15.234 -25.221,-19.012 z"
           style="fill:#ffffff;stroke:none"
           inkscape:connector-curvature="0" />
        <path
           id="path28"
           d="m 483.043,454.145 c -4.955,14.961 -4.43,25.765 -1.44,34.986 2.688,8.294 8.359,15.893 18.694,24.098 3.915,-10.924 5.795,-22.71 2.076,-33.762 -3.195,-9.492 -9.839,-18.818 -19.33,-25.322 z"
           style="fill:#ffffff;stroke:none"
           inkscape:connector-curvature="0" />
        <path
           id="path30"
           d="m 467.711,484.41 c -8.655,13.171 -10.942,23.743 -10.438,33.424 0.452,8.707 3.965,17.514 11.827,28.112 6.607,-9.54 11.47,-20.439 10.735,-32.076 -0.631,-9.995 -4.638,-20.723 -12.124,-29.46 z"
           style="fill:#ffffff;stroke:none"
           inkscape:connector-curvature="0" />
        <path
           id="path32"
           d="m 444.373,510.782 c -11.218,11.069 -15.665,20.93 -17.197,30.502 -1.378,8.609 0.216,17.956 5.688,29.964 8.455,-7.948 15.49,-17.589 17.205,-29.123 1.473,-9.906 -0.203,-21.235 -5.696,-31.343 z"
           style="fill:#ffffff;stroke:none"
           inkscape:connector-curvature="0" />
        <path
           id="path34"
           d="m 416.174,530.547 c -13.604,7.956 -20.349,16.413 -24.197,25.31 -3.462,8.002 -4.226,17.453 -1.89,30.44 10.157,-5.613 19.355,-13.218 23.866,-23.971 3.873,-9.235 5.048,-20.626 2.221,-31.779 z"
           style="fill:#ffffff;stroke:none"
           inkscape:connector-curvature="0" />
        <path
           id="path36"
           d="m 556.481,486.464 c -7.697,13.753 -15.283,20.445 -24.106,24.463 -7.936,3.612 -17.624,4.788 -30.653,2.698 4.7,-10.537 12.616,-19.855 23.281,-24.57 9.161,-4.048 20.274,-5.205 31.478,-2.591 z"
           style="fill:#ffffff;stroke:none"
           inkscape:connector-curvature="0" />
        <path
           id="path38"
           d="m 530.449,534.596 c -11.029,11.258 -20.103,15.73 -29.67,17.298 -8.604,1.409 -18.262,0.007 -30.29,-5.421 7.294,-8.939 17.374,-15.86 28.902,-17.617 9.901,-1.509 20.929,0.283 31.058,5.74 z"
           style="fill:#ffffff;stroke:none"
           inkscape:connector-curvature="0" />
        <path
           id="path40"
           d="m 494.612,573.816 c -13.203,8.607 -23.029,11.012 -32.708,10.474 -8.706,-0.485 -17.833,-3.942 -28.402,-11.843 9.055,-7.15 20.392,-11.728 32.028,-10.951 9.993,0.668 20.372,4.803 29.082,12.32 z"
           style="fill:#ffffff;stroke:none"
           inkscape:connector-curvature="0" />
        <path
           id="path42"
           d="m 450.387,603.824 c -14.904,5.125 -25.019,5.059 -34.275,2.176 -8.324,-2.595 -16.331,-8.174 -24.653,-18.415 10.526,-4.725 22.637,-6.398 33.731,-2.805 9.529,3.086 18.585,9.629 25.197,19.044 z"
           style="fill:#ffffff;stroke:none"
           inkscape:connector-curvature="0" />
      </g>
      <g
         id="g86">
        <path
           id="path46"
           d="m 121.062,216.16 c -13.931,7.368 -20.762,14.598 -25.2006,23.221 -3.5549,6.906 -5.8876,18.702 -4.1075,31.778 10.6461,-4.449 20.1481,-12.14 25.1151,-22.692 4.266,-9.063 6.294,-20.102 4.193,-32.307 z"
           style="fill:#ffffff;stroke:none"
           inkscape:connector-curvature="0" />
        <path
           id="path48"
           d="m 121.062,216.16 c -13.931,7.368 -20.762,14.598 -25.2006,23.221 -3.5549,6.906 -5.8876,18.702 -4.1075,31.778 10.6461,-4.449 20.1481,-12.14 25.1151,-22.692 4.266,-9.063 6.294,-20.102 4.193,-32.307 z"
           style="fill:#ffffff;stroke:none"
           inkscape:connector-curvature="0" />
        <path
           id="path50"
           d="m 62.6372,238.364 c -5.4095,14.803 -5.6393,24.747 -3.1594,34.122 1.9863,7.509 8.1553,17.831 18.235,26.348 4.9255,-10.434 6.8296,-22.51 3.4501,-33.672 -2.9032,-9.587 -8.7907,-19.142 -18.5257,-26.798 z"
           style="fill:#ffffff;stroke:none"
           inkscape:connector-curvature="0" />
        <path
           id="path52"
           d="m 136.188,273.655 c -15.527,-2.697 -25.354,-1.159 -34.141,2.945 -7.0373,3.287 -16.1006,11.19 -22.6936,22.621 11.1422,2.996 23.3646,2.727 33.7496,-2.579 8.92,-4.559 17.278,-12.048 23.085,-22.987 z"
           style="fill:#ffffff;stroke:none"
           inkscape:connector-curvature="0" />
        <path
           id="path54"
           d="m 120.484,307.251 c -15.759,0.194 -25.1373,3.508 -33.0229,9.153 -6.316,4.521 -13.7774,13.951 -18.1637,26.397 11.5026,0.903 23.4685,-1.602 32.7056,-8.722 7.933,-6.115 14.777,-15.01 18.481,-26.828 z"
           style="fill:#ffffff;stroke:none"
           inkscape:connector-curvature="0" />
        <path
           id="path56"
           d="m 109.548,344.814 c -15.5955,2.274 -24.4542,6.797 -31.5252,13.434 -5.6636,5.316 -11.8144,15.648 -14.5187,28.564 11.5211,-0.623 23.0515,-4.686 31.2673,-12.964 7.0566,-7.11 12.6656,-16.83 14.7766,-29.034 z"
           style="fill:#ffffff;stroke:none"
           inkscape:connector-curvature="0" />
        <path
           id="path58"
           d="m 105.548,381.723 c -15.031,4.737 -23.053,10.617 -28.9725,18.299 -4.7413,6.152 -9.1617,17.335 -9.7671,30.517 11.2733,-2.457 22.0063,-8.31 28.7936,-17.794 5.829,-8.146 9.813,-18.638 9.946,-31.022 z"
           style="fill:#ffffff;stroke:none"
           inkscape:connector-curvature="0" />
        <path
           id="path60"
           d="m 41.9966,285.914 c -2.653,15.535 -1.0868,25.357 3.0424,34.132 3.3072,7.028 11.2356,16.069 22.6852,22.63 2.9643,-11.151 2.6607,-23.372 -2.6754,-33.743 -4.5836,-8.907 -12.0969,-17.244 -23.0522,-23.019 z"
           style="fill:#ffffff;stroke:none"
           inkscape:connector-curvature="0" />
        <path
           id="path62"
           d="m 29.1313,334.288 c -0.6698,15.746 2.2731,25.424 7.6729,33.476 4.8572,7.241 12.4853,13.328 24.6717,18.39 1.5325,-11.436 -0.3125,-23.523 -6.915,-33.135 -5.6714,-8.255 -14.5215,-15.074 -25.4296,-18.731 z"
           style="fill:#ffffff;stroke:none"
           inkscape:connector-curvature="0" />
        <path
           id="path64"
           d="m 24.0243,385.018 c 1.989,15.634 6.5183,24.679 13.1958,31.707 6.0062,6.321 14.5498,11.038 27.4142,13.977 -0.4135,-11.53 -4.2658,-23.134 -12.3914,-31.498 -6.9794,-7.184 -16.8506,-12.417 -28.2186,-14.186 z"
           style="fill:#ffffff;stroke:none"
           inkscape:connector-curvature="0" />
        <path
           id="path66"
           d="m 25.5297,433.882 c 4.0153,15.24 9.6881,23.615 17.227,29.711 6.7808,5.481 15.8676,9.041 29.0058,10.274 -1.917,-11.378 -7.2529,-22.379 -16.4021,-29.609 -7.8584,-6.21 -18.3289,-10.107 -29.8307,-10.376 z"
           style="fill:#ffffff;stroke:none"
           inkscape:connector-curvature="0" />
        <path
           id="path68"
           d="m 105.324,421.849 c 0.845,15.737 -1.991,25.448 -7.3013,33.558 -4.7766,7.295 -12.3369,13.466 -24.4665,18.663 -1.659,-11.418 0.052,-23.525 6.5477,-33.209 5.5796,-8.318 14.3536,-15.234 25.2201,-19.012 z"
           style="fill:#ffffff;stroke:none"
           inkscape:connector-curvature="0" />
        <path
           id="path70"
           d="m 112.463,454.145 c 4.955,14.961 4.431,25.765 1.441,34.986 -2.689,8.294 -8.359,15.893 -18.6942,24.098 -3.9154,-10.924 -5.795,-22.71 -2.0763,-33.762 3.1946,-9.492 9.8395,-18.818 19.3295,-25.322 z"
           style="fill:#ffffff;stroke:none"
           inkscape:connector-curvature="0" />
        <path
           id="path72"
           d="m 127.795,484.41 c 8.656,13.171 10.943,23.743 10.439,33.424 -0.453,8.707 -3.965,17.514 -11.827,28.112 -6.607,-9.54 -11.471,-20.439 -10.736,-32.076 0.632,-9.995 4.639,-20.723 12.124,-29.46 z"
           style="fill:#ffffff;stroke:none"
           inkscape:connector-curvature="0" />
        <path
           id="path74"
           d="m 151.133,510.782 c 11.218,11.069 15.665,20.93 17.197,30.502 1.378,8.609 -0.215,17.956 -5.687,29.964 -8.456,-7.948 -15.491,-17.589 -17.206,-29.123 -1.472,-9.906 0.203,-21.235 5.696,-31.343 z"
           style="fill:#ffffff;stroke:none"
           inkscape:connector-curvature="0" />
        <path
           id="path76"
           d="m 179.332,530.547 c 13.604,7.956 20.349,16.413 24.198,25.31 3.462,8.002 4.226,17.453 1.889,30.44 -10.156,-5.613 -19.355,-13.218 -23.865,-23.971 -3.874,-9.235 -5.048,-20.626 -2.222,-31.779 z"
           style="fill:#ffffff;stroke:none"
           inkscape:connector-curvature="0" />
        <path
           id="path78"
           d="m 39.0259,486.464 c 7.6967,13.753 15.2826,20.445 24.1056,24.463 7.9356,3.612 17.6236,4.788 30.653,2.698 C 89.0849,503.088 81.169,493.77 70.5032,489.055 61.3423,485.007 50.2299,483.85 39.0259,486.464 Z"
           style="fill:#ffffff;stroke:none"
           inkscape:connector-curvature="0" />
        <path
           id="path80"
           d="m 65.0578,534.596 c 11.0289,11.258 20.1023,15.73 29.6695,17.298 8.6047,1.409 18.2627,0.007 30.2907,-5.421 -7.295,-8.939 -17.374,-15.86 -28.9023,-17.617 -9.9013,-1.509 -20.9291,0.283 -31.0579,5.74 z"
           style="fill:#ffffff;stroke:none"
           inkscape:connector-curvature="0" />
        <path
           id="path82"
           d="m 100.895,573.816 c 13.202,8.607 23.028,11.012 32.708,10.474 8.706,-0.485 17.832,-3.942 28.402,-11.843 -9.055,-7.15 -20.393,-11.728 -32.028,-10.951 -9.993,0.668 -20.373,4.803 -29.082,12.32 z"
           style="fill:#ffffff;stroke:none"
           inkscape:connector-curvature="0" />
        <path
           id="path84"
           d="m 145.12,603.824 c 14.903,5.125 25.019,5.059 34.275,2.176 8.324,-2.595 16.331,-8.174 24.653,-18.415 -10.526,-4.725 -22.638,-6.398 -33.732,-2.805 -9.528,3.086 -18.585,9.629 -25.196,19.044 z"
           style="fill:#ffffff;stroke:none"
           inkscape:connector-curvature="0" />
      </g>
      <g
         id="g126">
        <path
           id="path88"
           d="m 476.281,220.782 c 8.505,4.932 15.596,10.84 20.278,19.935 3.785,7.355 4.82,17.459 4.216,26.081 -8.478,-4.295 -15.898,-10.889 -19.987,-19.574 -3.916,-8.322 -5.366,-17.381 -4.507,-26.442 z"
           style="fill:#cdb470;stroke:none"
           inkscape:connector-curvature="0" />
        <path
           id="path90"
           d="m 531.011,243.355 c 3.012,9.359 4.32,18.495 1.704,28.384 -2.115,7.998 -8.114,16.194 -14.338,22.191 -3.419,-8.868 -4.511,-18.734 -1.73,-27.922 2.666,-8.802 7.657,-16.5 14.364,-22.653 z"
           style="fill:#cdb470;stroke:none"
           inkscape:connector-curvature="0" />
        <path
           id="path92"
           d="m 463.496,275.887 c 9.745,-1.304 18.969,-0.97 28.237,3.359 7.495,3.5 14.496,10.859 19.294,18.048 -9.334,1.791 -19.237,1.116 -27.786,-3.252 -8.189,-4.186 -14.88,-10.463 -19.745,-18.155 z"
           style="fill:#cdb470;stroke:none"
           inkscape:connector-curvature="0" />
        <path
           id="path94"
           d="m 478.713,310.301 c 9.818,0.504 18.825,2.522 27.142,8.477 6.727,4.815 12.261,13.332 15.66,21.279 -9.504,0.05 -19.116,-2.429 -26.719,-8.29 -7.284,-5.615 -12.71,-13.012 -16.083,-21.466 z"
           style="fill:#cdb470;stroke:none"
           inkscape:connector-curvature="0" />
        <path
           id="path96"
           d="m 489.209,348.389 c 9.667,1.797 18.327,4.987 25.786,11.988 6.031,5.661 10.392,14.834 12.712,23.16 -9.427,-1.205 -18.627,-4.932 -25.39,-11.745 -6.479,-6.529 -10.881,-14.577 -13.108,-23.403 z"
           style="fill:#cdb470;stroke:none"
           inkscape:connector-curvature="0" />
        <path
           id="path98"
           d="m 492.589,385.85 c 9.255,3.318 17.295,7.851 23.539,15.954 5.049,6.552 7.888,16.305 8.847,24.894 -9.113,-2.697 -17.599,-7.845 -23.187,-15.652 -5.352,-7.48 -8.411,-16.129 -9.199,-25.196 z"
           style="fill:#cdb470;stroke:none"
           inkscape:connector-curvature="0" />
        <path
           id="path100"
           d="m 550.774,290.576 c 1.277,9.748 0.917,18.971 -3.439,28.227 -3.522,7.485 -10.901,14.465 -18.103,19.243 -1.764,-9.339 -1.061,-19.24 3.331,-27.777 4.209,-8.178 10.505,-14.85 18.211,-19.693 z"
           style="fill:#cdb470;stroke:none"
           inkscape:connector-curvature="0" />
        <path
           id="path102"
           d="m 563.064,338.48 c 0.032,9.881 -1.562,19.135 -7.277,27.657 -4.832,7.203 -12.003,12.088 -19.734,15.717 -0.58,-9.499 1.368,-19.26 6.809,-27.181 4.972,-7.238 12.153,-12.764 20.202,-16.193 z"
           style="fill:#cdb470;stroke:none"
           inkscape:connector-curvature="0" />
        <path
           id="path104"
           d="m 567.506,388.675 c -1.632,9.746 -4.76,18.6 -11.827,26.039 -5.974,6.287 -13.865,9.896 -22.097,12.173 1.027,-9.461 4.589,-18.756 11.285,-25.649 6.119,-6.298 14.128,-10.537 22.639,-12.563 z"
           style="fill:#cdb470;stroke:none"
           inkscape:connector-curvature="0" />
        <path
           id="path106"
           d="m 565.552,437.053 c -2.891,9.449 -7.149,17.818 -15.128,24.269 -6.745,5.452 -15.04,7.999 -23.499,9.18 2.255,-9.246 7.001,-17.994 14.541,-23.953 6.89,-5.444 15.383,-8.601 24.086,-9.496 z"
           style="fill:#cdb470;stroke:none"
           inkscape:connector-curvature="0" />
        <path
           id="path108"
           d="m 492.465,426.072 c 8.011,3.517 15.13,9.123 20.022,16.415 5.357,7.986 7.194,17.761 6.508,27.256 -7.691,-3.715 -14.808,-8.679 -19.559,-15.935 -5.62,-8.584 -7.112,-17.855 -6.971,-27.736 z"
           style="fill:#cdb470;stroke:none"
           inkscape:connector-curvature="0" />
        <path
           id="path110"
           d="m 484.127,458.972 c 6.817,5.578 12.184,13.095 14.988,21.426 3.064,9.105 1.989,18.804 -0.739,27.855 -6.32,-5.482 -11.863,-11.93 -14.486,-20.022 -3.211,-9.903 -2.486,-19.548 0.237,-29.259 z"
           style="fill:#cdb470;stroke:none"
           inkscape:connector-curvature="0" />
        <path
           id="path112"
           d="m 467.493,489.48 c 5.143,7.151 8.384,15.801 8.938,24.573 0.605,9.587 -2.941,18.68 -7.917,26.717 -4.688,-6.93 -8.374,-14.592 -8.816,-23.087 -0.541,-10.396 2.653,-19.526 7.795,-28.203 z"
           style="fill:#cdb470;stroke:none"
           inkscape:connector-curvature="0" />
        <path
           id="path114"
           d="m 443.089,515.796 c 3.534,8.069 4.894,17.205 3.602,25.899 -1.413,9.502 -6.782,17.652 -13.328,24.471 -3.135,-7.757 -5.138,-16.021 -3.794,-24.42 1.645,-10.279 6.678,-18.54 13.52,-25.95 z"
           style="fill:#cdb470;stroke:none"
           inkscape:connector-curvature="0" />
        <path
           id="path116"
           d="m 413.676,535.211 c 1.432,8.691 0.494,17.88 -2.907,25.986 -3.715,8.858 -10.931,15.429 -18.958,20.42 -1.122,-8.291 -1.022,-16.793 2.355,-24.6 4.133,-9.555 11.05,-16.316 19.51,-21.806 z"
           style="fill:#cdb470;stroke:none"
           inkscape:connector-curvature="0" />
        <path
           id="path118"
           d="m 551.388,488.551 c -5.161,8.427 -11.375,15.466 -20.713,19.718 -7.894,3.594 -16.562,3.986 -25.048,3.016 4.494,-8.389 11.276,-15.674 20.066,-19.559 8.032,-3.549 17.045,-4.483 25.695,-3.175 z"
           style="fill:#cdb470;stroke:none"
           inkscape:connector-curvature="0" />
        <path
           id="path120"
           d="m 524.97,535.405 c -7.187,6.782 -15.028,11.948 -25.153,13.607 -8.559,1.402 -17.028,-0.489 -24.964,-3.646 6.534,-6.92 14.987,-12.175 24.487,-13.624 8.681,-1.323 17.624,0.136 25.63,3.663 z"
           style="fill:#cdb470;stroke:none"
           inkscape:connector-curvature="0" />
        <path
           id="path122"
           d="m 489.076,573.528 c -8.483,5.067 -17.256,8.416 -27.5,7.846 -8.661,-0.482 -16.52,-4.159 -23.585,-8.958 7.875,-5.343 17.265,-8.647 26.853,-8.007 8.762,0.586 17.178,3.944 24.232,9.119 z"
           style="fill:#cdb470;stroke:none"
           inkscape:connector-curvature="0" />
        <path
           id="path124"
           d="m 445.074,602.313 c -9.463,2.844 -18.788,3.951 -28.583,0.899 -8.281,-2.581 -15.005,-8.065 -20.686,-14.443 8.941,-3.26 18.853,-4.172 27.995,-1.211 8.354,2.706 15.696,8.016 21.274,14.755 z"
           style="fill:#cdb470;stroke:none"
           inkscape:connector-curvature="0" />
      </g>
      <g
         id="g166">
        <path
           id="path128"
           d="m 118.735,220.782 c -8.505,4.932 -15.596,10.84 -20.2776,19.935 -3.7858,7.355 -4.8205,17.459 -4.2163,26.081 8.4779,-4.295 15.8979,-10.889 19.9869,-19.574 3.916,-8.322 5.366,-17.381 4.507,-26.442 z"
           style="fill:#cdb470;stroke:none"
           inkscape:connector-curvature="0" />
        <path
           id="path130"
           d="m 64.0052,243.355 c -3.0125,9.359 -4.3206,18.495 -1.7047,28.384 2.1152,7.998 8.1149,16.194 14.3383,22.191 3.4188,-8.868 4.5114,-18.734 1.7298,-27.922 -2.6659,-8.802 -7.6563,-16.5 -14.3634,-22.653 z"
           style="fill:#cdb470;stroke:none"
           inkscape:connector-curvature="0" />
        <path
           id="path132"
           d="m 131.52,275.887 c -9.745,-1.304 -18.969,-0.97 -28.237,3.359 -7.4948,3.5 -14.4962,10.859 -19.294,18.048 9.3338,1.791 19.237,1.116 27.786,-3.252 8.189,-4.186 14.879,-10.463 19.745,-18.155 z"
           style="fill:#cdb470;stroke:none"
           inkscape:connector-curvature="0" />
        <path
           id="path134"
           d="m 116.303,310.301 c -9.818,0.504 -18.8247,2.522 -27.1424,8.477 -6.7262,4.815 -12.2603,13.332 -15.6593,21.279 9.504,0.05 19.1152,-2.429 26.7187,-8.29 7.284,-5.615 12.71,-13.012 16.083,-21.466 z"
           style="fill:#cdb470;stroke:none"
           inkscape:connector-curvature="0" />
        <path
           id="path136"
           d="m 105.807,348.389 c -9.6666,1.797 -18.3276,4.987 -25.786,11.988 -6.0315,5.661 -10.3924,14.834 -12.7122,23.16 9.4274,-1.205 18.6271,-4.932 25.3902,-11.745 6.4785,-6.529 10.881,-14.577 13.108,-23.403 z"
           style="fill:#cdb470;stroke:none"
           inkscape:connector-curvature="0" />
        <path
           id="path138"
           d="m 102.427,385.85 c -9.2552,3.318 -17.295,7.851 -23.5388,15.954 -5.0492,6.552 -7.888,16.305 -8.8474,24.894 9.1135,-2.697 17.5995,-7.845 23.1868,-15.652 5.3519,-7.48 8.4114,-16.129 9.1994,-25.196 z"
           style="fill:#cdb470;stroke:none"
           inkscape:connector-curvature="0" />
        <path
           id="path140"
           d="m 44.2416,290.576 c -1.2764,9.748 -0.9162,18.971 3.4393,28.227 3.522,7.485 10.9006,14.465 18.103,19.243 1.7645,-9.339 1.061,-19.24 -3.3312,-27.777 -4.2087,-8.178 -10.5049,-14.85 -18.2111,-19.693 z"
           style="fill:#cdb470;stroke:none"
           inkscape:connector-curvature="0" />
        <path
           id="path142"
           d="m 31.9522,338.48 c -0.0318,9.881 1.5619,19.135 7.2769,27.657 4.8317,7.203 12.0029,12.088 19.7343,15.717 0.5792,-9.499 -1.3681,-19.26 -6.8092,-27.181 -4.9723,-7.238 -12.1532,-12.764 -20.202,-16.193 z"
           style="fill:#cdb470;stroke:none"
           inkscape:connector-curvature="0" />
        <path
           id="path144"
           d="m 27.5103,388.675 c 1.6312,9.746 4.7592,18.6 11.8264,26.039 5.9747,6.287 13.8656,9.896 22.0975,12.173 C 60.4069,417.426 56.845,408.131 50.1487,401.238 44.0296,394.94 36.0212,390.701 27.5103,388.675 Z"
           style="fill:#cdb470;stroke:none"
           inkscape:connector-curvature="0" />
        <path
           id="path146"
           d="m 29.4639,437.053 c 2.891,9.449 7.1494,17.818 15.1283,24.269 6.7452,5.452 15.0401,7.999 23.4989,9.18 -2.2551,-9.246 -7.0011,-17.994 -14.541,-23.953 -6.8898,-5.444 -15.3835,-8.601 -24.0862,-9.496 z"
           style="fill:#cdb470;stroke:none"
           inkscape:connector-curvature="0" />
        <path
           id="path148"
           d="m 102.551,426.072 c -8.0112,3.517 -15.1302,9.123 -20.0221,16.415 -5.3566,7.986 -7.1938,17.761 -6.5079,27.256 7.6906,-3.715 14.8076,-8.679 19.5588,-15.935 5.6202,-8.584 7.1122,-17.855 6.9712,-27.736 z"
           style="fill:#cdb470;stroke:none"
           inkscape:connector-curvature="0" />
        <path
           id="path150"
           d="m 110.889,458.972 c -6.817,5.578 -12.1842,13.095 -14.9878,21.426 -3.0638,9.105 -1.9893,18.804 0.739,27.855 6.3198,-5.482 11.8628,-11.93 14.4858,-20.022 3.211,-9.903 2.486,-19.548 -0.237,-29.259 z"
           style="fill:#cdb470;stroke:none"
           inkscape:connector-curvature="0" />
        <path
           id="path152"
           d="m 127.523,489.48 c -5.143,7.151 -8.384,15.801 -8.938,24.573 -0.605,9.587 2.941,18.68 7.917,26.717 4.688,-6.93 8.374,-14.592 8.816,-23.087 0.541,-10.396 -2.653,-19.526 -7.795,-28.203 z"
           style="fill:#cdb470;stroke:none"
           inkscape:connector-curvature="0" />
        <path
           id="path154"
           d="m 151.927,515.796 c -3.534,8.069 -4.894,17.205 -3.602,25.899 1.413,9.502 6.782,17.652 13.328,24.471 3.135,-7.757 5.138,-16.021 3.794,-24.42 -1.645,-10.279 -6.678,-18.54 -13.52,-25.95 z"
           style="fill:#cdb470;stroke:none"
           inkscape:connector-curvature="0" />
        <path
           id="path156"
           d="m 181.34,535.211 c -1.432,8.691 -0.494,17.88 2.906,25.986 3.716,8.858 10.932,15.429 18.959,20.42 1.122,-8.291 1.022,-16.793 -2.355,-24.6 -4.133,-9.555 -11.05,-16.316 -19.51,-21.806 z"
           style="fill:#cdb470;stroke:none"
           inkscape:connector-curvature="0" />
        <path
           id="path158"
           d="m 43.6277,488.551 c 5.1608,8.427 11.3757,15.466 20.7135,19.718 7.8939,3.594 16.5619,3.986 25.0476,3.016 -4.4942,-8.389 -11.2762,-15.674 -20.0659,-19.559 -8.0318,-3.549 -17.0449,-4.483 -25.6952,-3.175 z"
           style="fill:#cdb470;stroke:none"
           inkscape:connector-curvature="0" />
        <path
           id="path160"
           d="m 70.0456,535.405 c 7.187,6.782 15.028,11.948 25.1534,13.607 8.559,1.402 17.028,-0.489 24.964,-3.646 -6.534,-6.92 -14.987,-12.175 -24.4872,-13.624 -8.6809,-1.323 -17.624,0.136 -25.6302,3.663 z"
           style="fill:#cdb470;stroke:none"
           inkscape:connector-curvature="0" />
        <path
           id="path162"
           d="m 105.94,573.528 c 8.483,5.067 17.256,8.416 27.5,7.846 8.66,-0.482 16.52,-4.159 23.585,-8.958 -7.876,-5.343 -17.265,-8.647 -26.853,-8.007 -8.762,0.586 -17.178,3.944 -24.232,9.119 z"
           style="fill:#cdb470;stroke:none"
           inkscape:connector-curvature="0" />
        <path
           id="path164"
           d="m 149.941,602.313 c 9.464,2.844 18.789,3.951 28.584,0.899 8.281,-2.581 15.005,-8.065 20.686,-14.443 -8.941,-3.26 -18.853,-4.172 -27.995,-1.211 -8.354,2.706 -15.696,8.016 -21.275,14.755 z"
           style="fill:#cdb470;stroke:none"
           inkscape:connector-curvature="0" />
      </g>
      <g
         id="g178">
        <path
           id="path168"
           d="M 155.283,220.198 H 439.769 V 505.953 H 155.283 Z"
           style="fill:#ffffff;stroke:none"
           inkscape:connector-curvature="0" />
        <path
           id="path170"
           d="m 436.053,446.668 v 55.569 H 159 v -55.569 h 56.082 l 82.296,-126.892 83.215,126.892 z"
           style="fill:#fbc60d;stroke:none"
           inkscape:connector-curvature="0" />
        <path
           id="path172"
           d="m 269.793,502.237 h -55.17 v -55.569 h 0.459 l 54.711,-84.358 z"
           style="fill:#da2931;stroke:none"
           inkscape:connector-curvature="0" />
        <path
           id="path174"
           d="m 380.749,502.237 h -55.17 V 362.779 l 55.014,83.889 h 0.156 z"
           style="fill:#da2931;stroke:none"
           inkscape:connector-curvature="0" />
        <path
           id="path176"
           d="M 159,223.914 H 436.053 V 437.932 H 422.89 L 294.584,243.457 h -55.908 v 8.736 h 14.396 L 274.13,284.386 172.714,437.932 H 159 Z"
           style="fill:#006cad;stroke:none"
           inkscape:connector-curvature="0" />
      </g>
      <g
         id="g190">
        <path
           id="path180"
           d="m 360.224,489.583 h 5.861 v -30.129 h -5.861 l -13.782,20.801 v -20.801 h -5.861 v 30.129 h 5.964 l 13.679,-20.652 z"
           style="fill:#ffffff;stroke:none"
           inkscape:connector-curvature="0" />
        <path
           id="path182"
           d="m 402.496,489.582 7.157,-9.989 h 4.722 v 9.989 h 4.782 v 0.001 h 1.079 v -30.129 h -13.345 c -6.021,0 -10.42,4.318 -10.42,10.136 0,4.372 2.828,7.821 6.499,9.267 l -7.684,10.725 z m -0.311,-20.156 c 0,-3.193 3.047,-4.697 5.094,-4.697 h 7.096 v 9.708 h -7.14 c -2.802,0 -5.05,-1.817 -5.05,-5.011 z"
           style="fill:#ffffff;stroke:none"
           inkscape:connector-curvature="0" />
        <path
           id="path184"
           d="m 294.96,492.963 h 5.33 v -3.684 c 8.158,-0.842 14.895,-6.078 14.895,-14.88 0,-8.802 -6.737,-14.037 -14.895,-14.879 v -3.601 h -5.33 v 3.672 c -7.879,1.036 -14.281,6.227 -14.281,14.808 0,8.581 6.402,13.772 14.281,14.808 z m 5.33,-8.539 v -20.05 c 5.594,0.867 8.989,4.846 8.989,10.025 0,5.179 -3.395,9.159 -8.989,10.025 z m -5.33,-19.941 v 19.832 c -5.228,-1.055 -8.376,-4.929 -8.376,-9.916 0,-4.986 3.148,-8.861 8.376,-9.916 z"
           style="fill:#ffffff;stroke:none"
           inkscape:connector-curvature="0" />
        <path
           id="path186"
           d="m 242.06,458.867 c 8.577,0 15.532,6.956 15.532,15.532 0,8.577 -6.955,15.532 -15.532,15.532 -8.576,0 -15.532,-6.955 -15.532,-15.532 0,-8.576 6.956,-15.532 15.532,-15.532 z m 0,5.862 c 5.34,0 9.671,4.33 9.671,9.67 0,5.34 -4.331,9.671 -9.671,9.671 -5.34,0 -9.671,-4.331 -9.671,-9.671 0,-5.34 4.331,-9.67 9.671,-9.67 z"
           style="fill:#ffffff;stroke:none"
           inkscape:connector-curvature="0" />
        <path
           id="path188"
           d="m 188.971,458.867 c 4.633,0 8.792,2.031 11.638,5.249 l -4.39,3.882 c -1.772,-2.005 -4.363,-3.269 -7.248,-3.269 -5.34,0 -9.671,4.33 -9.671,9.67 0,5.34 4.331,9.671 9.671,9.671 2.908,0 5.516,-1.284 7.289,-3.315 l 4.237,4.053 c -2.842,3.146 -6.954,5.123 -11.526,5.123 -8.576,0 -15.532,-6.955 -15.532,-15.532 0,-8.576 6.956,-15.532 15.532,-15.532 z"
           style="fill:#ffffff;stroke:none"
           inkscape:connector-curvature="0" />
      </g>
      <path
         id="path192"
         d="m 235.158,602.711 h 8.65 v 14.687 h -33.094 v -14.687 h 8.723 v -25.532 l -8.105,2.287 -3.797,-13.814 18.178,-5.255 h 9.445 z"
         style="fill:#ffffff;stroke:none"
         inkscape:connector-curvature="0" />
      <path
         id="path194"
         d="m 232.238,563.317 h -6.111 l -15.012,4.34 2.253,8.201 8.989,-2.537 v 32.31 h -8.723 v 8.847 h 27.254 v -8.847 h -8.65 z"
         style="fill:#cdb470;stroke:none"
         inkscape:connector-curvature="0" />
      <path
         id="path196"
         d="m 326.471,602.711 h 8.65 v 14.687 h -33.094 v -14.687 h 8.723 v -25.532 l -8.105,2.287 -3.797,-13.814 18.178,-5.255 h 9.445 z"
         style="fill:#ffffff;stroke:none"
         inkscape:connector-curvature="0" />
      <path
         id="path198"
         d="m 323.551,563.317 h -6.111 l -15.012,4.34 2.253,8.201 8.989,-2.537 v 32.31 h -8.723 v 8.847 h 27.254 v -8.847 h -8.65 z"
         style="fill:#cdb470;stroke:none"
         inkscape:connector-curvature="0" />
      <path
         id="path200"
         d="m 380.091,593.389 h 7.312 v 12.049 h -7.312 v 11.9 h -14.128 v -11.9 h -24.337 l -2.007,-10.535 29.033,-33.975 h 11.439 z m -23.307,0 h 9.179 v -10.967 z"
         style="fill:#ffffff;stroke:none"
         inkscape:connector-curvature="0" />
      <path
         id="path202"
         d="m 377.171,563.848 h -7.173 l -27.248,31.886 1.292,6.784 h 24.841 v 11.901 h 8.288 v -11.901 h 7.312 v -6.209 h -7.312 z m -26.638,32.461 18.35,-21.926 v 21.926 z"
         style="fill:#cdb470;stroke:none"
         inkscape:connector-curvature="0" />
      <path
         id="path204"
         d="m 278.32,596.428 c -3.7,1.642 -7.761,2.383 -11.865,1.993 -5.425,-0.517 -10.671,-3.04 -13.941,-7.489 -1.833,-2.493 -2.888,-5.395 -3.11,-8.481 -0.124,-1.735 -0.02,-3.486 0.305,-5.195 1.891,-9.951 10.321,-16.298 20.285,-16.479 3.952,-0.072 7.894,0.729 11.352,2.691 8.851,5.022 11.411,15.443 11.401,24.932 -0.01,9.853 -3.186,20.611 -12.01,26.09 -3.55,2.204 -7.565,3.221 -11.729,3.202 -6.781,-0.031 -11.66,-1.992 -16.909,-6.214 l -2.165,-1.74 7.64,-10.537 2.379,1.823 c 2.739,2.098 5.653,3.58 9.166,3.528 5.425,-0.081 8.092,-3.703 9.201,-8.124 z m -7.203,-22.254 c -3.604,0 -7.126,1.647 -7.126,5.664 0,4.004 3.363,6.194 7.126,6.194 3.9,0 7.125,-1.433 7.125,-5.734 0,-4.293 -3.117,-6.124 -7.125,-6.124 z"
         style="fill:#ffffff;stroke:none"
         inkscape:connector-curvature="0" />
      <path
         id="path206"
         d="m 253.929,609.203 c 4.737,3.809 8.964,5.542 15.092,5.569 12.641,0.058 20.79,-10.626 20.807,-26.376 0.017,-17.047 -8.334,-24.908 -19.781,-24.7 -11.726,0.214 -18.381,9.48 -17.73,18.546 0.88,12.245 17.29,18.151 29.581,8.671 -0.128,12.471 -6.72,16.469 -12.735,16.559 -3.149,0.047 -6.669,-0.824 -10.985,-4.13 z m 17.188,-37.949 c 6.078,0 10.045,3.48 10.045,9.044 0,5.563 -3.967,8.654 -10.045,8.654 -6.078,0 -10.046,-4.081 -10.046,-9.114 0,-5.033 3.968,-8.584 10.046,-8.584 z"
         style="fill:#cdb470;stroke:none"
         inkscape:connector-curvature="0" />
    </g>
  </g>
</svg>
