<?xml version="1.0" encoding="UTF-8" standalone="no"?>
<svg
   xmlns:dc="http://purl.org/dc/elements/1.1/"
   xmlns:cc="http://creativecommons.org/ns#"
   xmlns:rdf="http://www.w3.org/1999/02/22-rdf-syntax-ns#"
   xmlns:svg="http://www.w3.org/2000/svg"
   xmlns="http://www.w3.org/2000/svg"
   viewBox="0 0 212.94124 251.99999"
   height="252"
   width="212.94124"
   xml:space="preserve"
   id="svg2"
   version="1.1"><metadata
     id="metadata8"><rdf:RDF><cc:Work
         rdf:about=""><dc:format>image/svg+xml</dc:format><dc:type
           rdf:resource="http://purl.org/dc/dcmitype/StillImage" /><dc:title></dc:title></cc:Work></rdf:RDF></metadata><defs
     id="defs6" /><g
     transform="matrix(1.3333333,0,0,-1.3333333,-46.813038,386.07421)"
     id="g10"><g
       transform="matrix(0.30435559,0,0,0.30435559,24.945655,70.472716)"
       id="g205"><path
         d="m 483.44336,374.37744 c 0,-103.6499 -84.03418,-187.68213 -187.68213,-187.68213 -103.64941,0 -187.68262,84.03223 -187.68262,187.68213 0,103.64551 84.03321,187.68115 187.68262,187.68115 103.64795,0 187.68213,-84.03564 187.68213,-187.68115 z"
         style="fill:#231f20;fill-opacity:1;stroke:none;stroke-opacity:1"
         id="path12" /><path
         d="M 452.5,283.88428 139.02197,283.88525 295.76123,555.36377 452.5,283.88428 M 336.55469,355.1875 c -7.22119,-15.29004 -22.79199,-25.89453 -40.79346,-25.89453 -24.86084,0 -45.08594,20.22461 -45.08594,45.08447 0,24.85986 20.2251,45.08447 45.08594,45.08447 18.01514,0 33.59619,-10.6206 40.81055,-25.93017 l 27.99414,16.12256 c -12.84375,24.9497 -38.86426,42.05371 -68.80469,42.05371 -42.64062,0 -77.33105,-34.69043 -77.33105,-77.33057 0,-42.64062 34.69043,-77.33056 77.33105,-77.33056 29.95264,0 55.98145,17.11669 68.82031,42.08251 z"
         style="fill:#231f20;fill-opacity:1;fill-rule:nonzero;stroke:none"
         id="path14" /><path
         d="m 295.76416,577.10986 c 25.5791,0 50.06006,-3.87744 72.62451,-10.958 0,0 0.50391,7.18115 1.53418,16.27929 0,0 2.40332,-0.68652 2.91846,1.37354 0.51465,2.06006 -2.40381,2.57519 -2.40381,2.57519 0,0 0.22754,4.03076 1.10254,9.75928 L 371.60938,596 c 1.80224,-3.34863 11.33886,-20.15918 27.49658,-32.62354 15.26172,-11.77343 38.27588,-16.53173 44.97412,-17.71386 l 0.51025,-0.14063 c 10.63233,-9.2583 20.39697,-19.48828 29.1543,-30.55078 l -0.48877,0.23145 c -10.49316,5.04736 -23.66602,17.52685 -33.72217,20.8789 -20.39502,6.79785 -36.56494,1.80225 -36.56494,1.80225 0,0 24.97754,-20.34229 43.00244,-30.8999 18.74219,-10.97754 34.82617,-10.5586 40.12647,-10.02979 l 0.53808,0.002 c 6.61865,-10.27148 12.43213,-21.10791 17.34961,-32.42089 l -0.34228,0.30615 c -2.58545,2.48779 -6.40918,6.64844 -10.54932,12.7876 -7.46777,11.07226 -22.40234,18.79736 -41.2002,18.54004 0,0 7.20997,-10.81495 20.6001,-25.23536 12.99512,-13.99463 23.56543,-21.44043 37.59473,-22.80908 l 0.31494,-0.10156 c 3.11523,-9.0542 5.67285,-18.36572 7.63135,-27.89307 l -0.34424,0.38037 c -4.97412,6.10303 -5.07471,11.96045 -14.5542,19.78125 -8.46924,6.98682 -25.49268,7.72461 -25.49268,7.72461 0,0 8.24024,-13.13232 14.93506,-27.03711 6.43457,-13.36474 12.63184,-23.39892 29.33545,-31.93212 l 0.29688,-0.16602 c 0.3042,-4.7959 0.45849,-9.63232 0.45849,-14.50342 0,-6.8833 -0.3081,-13.69531 -0.91113,-20.42383 l -0.16113,1.05323 c -1.03223,9.49414 -3.54444,22.80078 -8.9336,29.92187 -7.20996,9.52783 -20.85742,13.39014 -20.85742,13.39014 0,0 3.16699,-25.88672 10.55762,-38.10987 5.021,-8.30468 13.37402,-16.60888 17.23633,-20.24218 l 0.40967,-0.35889 c -1.74366,-11.29297 -4.32325,-22.31348 -7.67334,-32.99658 l -0.0449,0.87451 c -0.29931,6.84668 -1.35595,19.21094 -5.03515,29.54785 -5.40772,15.19287 -16.7378,15.4502 -16.7378,15.4502 0,0 0.25782,-14.93506 -2.31738,-32.70264 -2.55078,-17.60254 -2.06933,-23.83154 8.45606,-49.98779 l 0.19726,-0.46533 c -3.70312,-7.06055 -7.7666,-13.90235 -12.16748,-20.50147 l -0.11328,0.34082 c -0.37353,2.89746 -0.72607,5.63135 -1.03564,8.03662 l 0.10302,0.70361 c 0.4751,4.4126 0.52051,9.70508 -0.84765,14.49366 -3.08985,10.81494 -11.84473,17.76758 -11.84473,17.76758 0,0 0.77246,-5.40772 -6.69482,-21.8877 -6.9087,-15.24561 -12.71485,-29.83008 -7.63379,-43.55029 l -0.21436,-0.23584 c -3.91308,-4.34668 -8.00683,-8.52783 -12.26855,-12.53272 l 0.22558,0.60254 c 8.53955,20.72119 1.09326,35.37402 1.09326,35.37402 0,0 -4.89257,-6.95263 -15.19238,-18.54003 -9.16357,-10.30909 -14.45459,-17.96827 -15.87353,-26.78565 l -0.22657,-0.1167 C 380.52249,179.27788 339.7305,165.68071 295.76419,165.68071 h -0.003 c -43.96631,0 -84.7583,13.59717 -118.39941,36.81592 l -0.22657,0.1167 c -1.41894,8.81738 -6.70996,16.47656 -15.87353,26.78565 -10.29981,11.5874 -15.19238,18.54003 -15.19238,18.54003 0,0 -7.44629,-14.65283 1.09326,-35.37402 l 0.22558,-0.60254 c -4.26172,4.00489 -8.35547,8.18604 -12.26855,12.53272 l -0.21436,0.23584 c 5.08106,13.72021 -0.72509,28.30468 -7.63379,43.55029 -7.46728,16.47998 -6.69482,21.8877 -6.69482,21.8877 0,0 -8.75488,-6.95264 -11.84473,-17.76758 -1.36816,-4.78858 -1.32275,-10.08106 -0.84765,-14.49366 l 0.10302,-0.70361 c -0.30957,-2.40527 -0.6621,-5.13916 -1.03564,-8.03662 l -0.11328,-0.34082 c -4.40088,6.59912 -8.46436,13.44092 -12.16748,20.50147 l 0.19726,0.46533 c 10.52539,26.15625 11.00684,32.38525 8.45606,49.98779 -2.5752,17.76758 -2.31738,32.70264 -2.31738,32.70264 0,0 -11.33008,-0.25733 -16.7378,-15.4502 -3.6792,-10.33691 -4.73584,-22.70117 -5.03515,-29.54785 l -0.04493,-0.87451 c -3.35009,10.6831 -5.92993,21.70361 -7.67358,32.99658 l 0.40991,0.35889 c 3.8628,3.6333 12.21534,11.9375 17.23633,20.24218 7.39063,12.22315 10.55762,38.10987 10.55762,38.10987 0,0 -13.64746,-3.86231 -20.85742,-13.39014 -5.38892,-7.12109 -7.90113,-20.42773 -8.9336,-29.92187 l -0.16089,-1.05323 c -0.60351,6.72852 -0.91137,13.54053 -0.91137,20.42383 0,4.8711 0.15429,9.70752 0.45825,14.50342 l 0.29712,0.16602 c 16.70361,8.5332 22.90088,18.56738 29.33545,31.93212 6.69482,13.90479 14.93506,27.03711 14.93506,27.03711 0,0 -17.02344,-0.73779 -25.49268,-7.72461 -9.47949,-7.8208 -9.58008,-13.67822 -14.5542,-19.78125 l -0.34399,-0.38037 c 1.95825,9.52735 4.51587,18.83887 7.6311,27.89307 l 0.31494,0.10156 c 14.0293,1.36865 24.59961,8.81445 37.59473,22.80908 13.39014,14.42041 20.6001,25.23536 20.6001,25.23536 -18.79786,0.25732 -33.73243,-7.46778 -41.2002,-18.54004 -4.14014,-6.13916 -7.96387,-10.29981 -10.54932,-12.7876 L 87.54,464.53521 c 4.91748,11.31298 10.73096,22.14941 17.34961,32.42089 l 0.53808,-0.002 c 5.3003,-0.52881 21.38428,-0.94775 40.12647,10.02979 18.0249,10.55761 43.00244,30.8999 43.00244,30.8999 0,0 -16.16992,4.9956 -36.56494,-1.80225 -10.05615,-3.35205 -23.229,-15.83154 -33.72217,-20.8789 l -0.48877,-0.23145 c 8.75733,11.0625 18.52197,21.29248 29.1543,30.55078 l 0.51025,0.14063 c 6.69824,1.18213 29.7124,5.94043 44.97412,17.71386 16.15772,12.46436 25.69434,29.27491 27.49659,32.62354 l 0.0693,0.13916 c 0.875,-5.72852 1.10254,-9.75928 1.10254,-9.75928 0,0 -2.91846,-0.51513 -2.40381,-2.57519 0.51514,-2.06006 2.91846,-1.37354 2.91846,-1.37354 1.03027,-9.09814 1.53418,-16.27929 1.53418,-16.27929 22.56445,7.08056 47.04541,10.958 72.62451,10.958 h 0.003 m 0,-475.8042 c 30.31836,0 59.49756,4.96631 86.76855,14.12842 l 4.55323,-10.61377 c 63.1499,20.95899 116.14404,64.3916 149.45556,120.77198 l 0.1958,0.29638 c -6.42382,-1.45019 -41.04394,-9.26611 -47.7749,-10.78613 -0.12207,0.94922 -0.31689,2.46484 -0.56494,4.39111 l -0.10303,0.45313 c 11.50733,5.17822 20.05713,14.44287 27.7168,25.93213 8.23975,12.35986 19.05518,28.06738 19.05518,28.06738 0,0 -13.90528,-0.25733 -24.46289,-7.98242 -7.46924,-5.46533 -14.29444,-10.28662 -19.74512,-14.09864 l -0.95117,-0.68652 c 3.32959,5.22949 6.45459,10.60156 9.36279,16.10596 l 0.50439,0.1499 c 13.97217,4.01465 27.1211,11.43164 40.95655,33.03418 14.67773,22.91748 14.93506,46.09277 14.93506,46.09277 0,0 -9.78467,-5.92285 -21.11475,-19.3125 -7.3833,-8.72509 -13.89111,-14.17041 -17.52979,-16.90527 l -0.39697,-0.229 c 2.57862,8.84814 4.63867,17.91552 6.14502,27.1665 l 0.45947,0.32031 c 25.65967,11.39307 30.875,22.69483 29.86231,43.46485 -1.03027,21.11474 -0.51514,37.3374 -0.51514,37.3374 0,0 -6.95263,-3.34766 -14.41992,-19.05518 -6.76123,-14.22119 -6.3457,-24.64355 -12.32178,-36.04345 l -0.36963,-0.64551 c 0.1958,3.88135 0.29444,7.78808 0.29444,11.71777 0,5.77197 -0.21338,11.49512 -0.6333,17.16162 l 0.22119,0.30274 c 3.42383,5.6167 13.84277,23.57715 16.41406,38.14941 5.3042,30.05762 -8.75488,52.01514 -8.75488,52.01514 0,0 -2.31787,-8.49756 -6.95264,-29.35498 -2.89697,-13.03614 -4.28516,-24.46241 -4.91846,-31.19922 l -0.0869,-0.63574 c -1.96729,9.5581 -4.52979,18.90185 -7.64648,27.99072 l 0.12793,0.29932 c 11.08251,20.44677 6.76855,46.59716 1.70898,63.7998 -5.1499,17.51025 -14.1626,21.11523 -14.1626,21.11523 0,0 -3.60498,-11.07275 -4.37744,-22.91748 -0.53467,-8.20117 0.53516,-20.104 1.24365,-26.65185 l 0.0391,-0.57666 c -3.52491,6.4834 -7.35254,12.77978 -11.46338,18.86914 l 0.12744,0.30517 c 6.93652,17.53077 0.7539,38.53809 -11.57666,53.88916 -12.61768,15.70752 -29.35498,28.32471 -29.35498,28.32471 0,0 0.77246,-15.96484 5.1499,-27.55224 4.05469,-10.7334 10.8125,-21.97901 14.55371,-27.83448 l 0.71191,-1.14648 c -6.18164,6.81689 -12.76611,13.26172 -19.71533,19.29785 l -0.19531,0.53467 c -1.86133,5.48974 -8.96533,23.33984 -25.99756,35.41357 -14.89062,10.55518 -44.35742,12.38916 -48.44922,12.59522 l -0.16113,0.023 c 0.85498,5.46631 2.29346,12.37793 4.66406,18.79638 7.63867,20.68604 8.4458,20.9502 10.98633,26.35059 0.68652,1.45947 1.24805,3.46973 1.24805,4.55078 0,4.87671 -3.96729,8.84448 -8.84424,8.84448 -2.2002,0 -4.21533,-0.80786 -5.76465,-2.14209 l 0.009,0.32837 c 0.0708,0.4209 0.10742,0.85303 0.10742,1.2937 0,4.31543 -3.51172,7.82691 -7.82715,7.82691 -1.9292,0 -3.69775,-0.70142 -5.06347,-1.86328 l -0.021,0.25854 c 0.0195,0.21216 0.0293,0.42749 0.0293,0.64478 0,3.83886 -3.12305,6.96191 -6.96192,6.96191 -1.59277,0 -3.06201,-0.5376 -4.23681,-1.44092 l 0.0293,0.27246 c 0.003,0.0855 0.006,0.17139 0.006,0.25782 0,3.43335 -2.79345,6.2268 -6.22705,6.2268 -1.61865,0 -3.0957,-0.62133 -4.2041,-1.63769 l -0.0928,0.40063 c -0.52295,2.5503 -2.78516,4.47437 -5.48828,4.47437 -1.17383,0 -2.26416,-0.36304 -3.16504,-0.98242 l -0.0762,0.28051 c -0.65674,2.03882 -2.57227,3.51807 -4.82715,3.51807 -1.27784,0 -2.44678,-0.47534 -3.33936,-1.25806 l -0.13086,0.22657 c -0.78857,1.41967 -2.30371,2.38232 -4.04004,2.38232 -1.13427,0 -2.17431,-0.41089 -2.979,-1.09155 l -0.17383,0.17285 c -0.77685,0.95434 -1.96094,1.56494 -3.28467,1.56494 -1.57373,0 -2.94922,-0.86255 -3.67871,-2.13965 l -0.13965,0.24219 c -2.19189,5.17163 -8.28418,8.73511 -8.28418,8.73511 l -0.12841,11.51416 c 0,0 5.02099,0.1289 11.71582,-1.93116 v 10.24439 c -6.69483,-2.06006 -11.71582,-1.93115 -11.71582,-1.93115 0.38623,5.66504 1.54492,10.81494 1.54492,10.81494 h -10.98731 c 0,0 1.15869,-5.1499 1.54492,-10.81494 0,0 -5.02099,-0.12891 -11.71582,1.93115 V 698.2332 c 6.69483,2.06006 11.71582,1.93116 11.71582,1.93116 l -0.12841,-11.51416 c 0,0 -6.09229,-3.56348 -8.28418,-8.73511 l -0.13965,-0.24219 c -0.72949,1.2771 -2.10498,2.13965 -3.67871,2.13965 -1.32373,0 -2.50781,-0.6106 -3.28467,-1.56494 l -0.17383,-0.17285 c -0.80469,0.68066 -1.84472,1.09155 -2.979,1.09155 -1.73633,0 -3.25147,-0.96265 -4.04004,-2.38232 l -0.13086,-0.22657 c -0.89258,0.78272 -2.06152,1.25806 -3.33936,1.25806 -2.25488,0 -4.17041,-1.47925 -4.82714,-3.51807 l -0.0762,-0.28051 c -0.90088,0.61938 -1.99121,0.98242 -3.16504,0.98242 -2.70312,0 -4.96533,-1.92407 -5.48828,-4.47437 l -0.0928,-0.40063 c -1.1084,1.01636 -2.58545,1.63769 -4.2041,1.63769 -3.4336,0 -6.22705,-2.79345 -6.22705,-6.2268 0,-0.0864 0.002,-0.17237 0.006,-0.25782 l 0.0293,-0.27246 c -1.17431,0.90332 -2.64404,1.44092 -4.23681,1.44092 -3.83887,0 -6.96192,-3.12305 -6.96192,-6.96191 0,-0.21729 0.01,-0.43262 0.0293,-0.64478 l -0.021,-0.25854 c -1.36572,1.16186 -3.13427,1.86328 -5.06347,1.86328 -4.31543,0 -7.82715,-3.51148 -7.82715,-7.82691 0,-0.44067 0.0366,-0.8728 0.10742,-1.2937 l 0.009,-0.32837 c -1.54932,1.33423 -3.56445,2.14209 -5.76465,2.14209 -4.87695,0 -8.84424,-3.96777 -8.84424,-8.84448 0,-1.08105 0.56153,-3.09131 1.24805,-4.55078 2.54053,-5.40039 3.34766,-5.66455 10.98633,-26.35059 2.3706,-6.41845 3.80908,-13.33007 4.66406,-18.79638 l -0.16113,-0.023 c -4.0918,-0.20606 -33.5586,-2.04004 -48.44922,-12.59522 -17.03223,-12.07373 -24.13623,-29.92383 -25.99756,-35.41357 l -0.19531,-0.53467 c -6.94922,-6.03613 -13.53369,-12.48096 -19.71533,-19.29785 l 0.71191,1.14648 c 3.74121,5.85547 10.49902,17.10108 14.55371,27.83448 4.37744,11.5874 5.1499,27.55224 5.1499,27.55224 0,0 -16.7373,-12.61719 -29.35498,-28.32471 -12.33056,-15.35107 -18.51318,-36.35839 -11.57666,-53.88916 l 0.12744,-0.30517 C 100.89713,496.65527 97.0695,490.35889 93.5446,483.87549 l 0.03906,0.57666 c 0.70849,6.54785 1.77832,18.45068 1.24365,26.65185 -0.77246,11.84473 -4.37744,22.91748 -4.37744,22.91748 0,0 -9.0127,-3.60498 -14.1626,-21.11523 -5.05933,-17.20264 -9.37353,-43.35303 1.70899,-63.7998 l 0.12744,-0.29932 c -3.11621,-9.08887 -5.67871,-18.43262 -7.64624,-27.99072 l -0.08643,0.63574 c -0.63379,6.73681 -2.02173,18.16308 -4.9187,31.19922 -4.63501,20.85742 -6.95239,29.35498 -6.95239,29.35498 0,0 -14.05957,-21.95752 -8.75513,-52.01514 2.57153,-14.57226 12.99023,-32.53271 16.41357,-38.14941 l 0.22193,-0.30274 c -0.41992,-5.6665 -0.63379,-11.38965 -0.63379,-17.16162 0,-3.92969 0.09912,-7.83642 0.29468,-11.71777 l -0.36963,0.64551 c -5.97681,11.3999 -5.56079,21.82226 -12.32178,36.04345 -7.46753,15.70752 -14.41992,19.05518 -14.41992,19.05518 0,0 0.51489,-16.22266 -0.51489,-37.3374 -1.01343,-20.77002 4.20239,-32.07178 29.86132,-43.46485 l 0.45972,-0.32031 c 1.50684,-9.25098 3.56665,-18.31836 6.146,-27.1665 l -0.39746,0.229 c -3.63941,2.73486 -10.14722,8.18018 -17.52979,16.90527 -11.32983,13.38965 -21.11499,19.3125 -21.11499,19.3125 0,0 0.25757,-23.17529 14.93506,-46.09277 13.8352,-21.60254 26.98462,-29.01953 40.95679,-33.03418 l 0.50439,-0.1499 c 2.9082,-5.5044 6.0332,-10.87647 9.36279,-16.10596 l -0.95117,0.68652 c -5.45068,3.81202 -12.27588,8.63331 -19.74511,14.09864 -10.55762,7.72509 -24.46265,7.98242 -24.46265,7.98242 0,0 10.81494,-15.70752 19.05493,-28.06738 7.65967,-11.48926 16.20947,-20.75391 27.7168,-25.93213 l -0.10303,-0.45313 c -0.24805,-1.92627 -0.44287,-3.44189 -0.56494,-4.39111 -6.73096,1.52002 -41.35108,9.33594 -47.77564,10.78613 l 0.19629,-0.29638 C 88.2959,169.21191 141.28955,125.7793 204.43945,104.82031 l 4.55323,10.61377 c 27.27099,-9.16211 56.45019,-14.12842 86.76855,-14.12842 h 0.003 z"
         style="fill:#8d7149;fill-opacity:1;stroke:none;stroke-opacity:1"
         id="path16" /><path
         d="m 295.76416,161.56055 c 46.8501,0 90.2124,15.21728 125.40479,40.96826 l 0.27734,0.19092 31.84814,-46.16602 -0.25927,-0.23486 c -44.25733,-32.00928 -98.6001,-50.89307 -157.271,-50.89307 h -0.003 c -58.6709,0 -113.01367,18.88379 -157.271,50.89307 l -0.25927,0.23486 31.84814,46.16602 0.27735,-0.19092 c 35.19238,-25.75098 78.55468,-40.96826 125.40478,-40.96826 z"
         style="fill:#ffffff;fill-opacity:1;fill-rule:nonzero;stroke:none"
         id="path18" /><path
         d="m 454.98633,288.38867 c 13.87695,25.59278 21.76221,54.88721 21.76221,85.98877 0,98.18848 -78.59571,178.36524 -176.17872,180.92334 l 0.12061,-0.23437 154.12598,-266.95508 z"
         style="fill:#ffffff;fill-opacity:1;fill-rule:nonzero;stroke:none"
         id="path20" /><path
         d="m 141.99316,279.76514 307.96973,-9.8e-4 -0.19824,-0.37695 c -31.92578,-51.57178 -89.02051,-85.99707 -154.00342,-85.99707 -65.14844,0 -122.36768,34.60009 -154.24707,86.38965 l 0.479,-0.0147 z"
         style="fill:#ffffff;fill-opacity:1;fill-rule:nonzero;stroke:none"
         id="path22" /><path
         d="m 137.00391,288.62939 153.83545,266.44874 0.10742,0.22265 c -97.58057,-2.56103 -176.17334,-82.73682 -176.17334,-180.92334 0,-31.23242 7.95215,-60.64306 21.93847,-86.3125 z"
         style="fill:#ffffff;fill-opacity:1;fill-rule:nonzero;stroke:none"
         id="path24" /><path
         d="m 202.15625,109.94824 c -57.48633,19.9878 -106.1626,58.96533 -138.48291,109.38574 l -0.21631,0.37452 42.61377,-9.62207 5.0332,39.06982 0.34961,-0.36865 c 13.09961,-20.2461 29.54102,-38.13721 48.53711,-52.88672 l 0.24463,-0.19385 -27.66211,-40.1001 0.21387,-0.20947 c 21.8374,-16.29394 46.1831,-29.40332 72.34375,-38.63379 z"
         style="fill:#ffffff;fill-opacity:1;fill-rule:nonzero;stroke:none"
         id="path26" /><path
         d="m 389.36914,109.94824 c 57.48633,19.9878 106.1626,58.96533 138.48291,109.38574 l 0.21631,0.37452 -42.61377,-9.62207 -5.0332,39.06982 -0.34961,-0.36865 c -13.09961,-20.2461 -29.54102,-38.13721 -48.53711,-52.88672 l -0.24463,-0.19385 27.66211,-40.1001 -0.21387,-0.20947 c -21.8374,-16.29394 -46.1831,-29.40332 -72.34375,-38.63379 z"
         style="fill:#ffffff;fill-opacity:1;fill-rule:nonzero;stroke:none"
         id="path28" /><path
         d="m 338.19629,349.49023 c -8.55957,-14.53955 -24.37695,-24.31738 -42.43506,-24.31738 -27.13232,0 -49.20605,22.07227 -49.20605,49.20459 0,27.13184 22.07373,49.20459 49.20605,49.20459 18.0669,0 33.88965,-9.78711 42.44678,-24.33789 l 20.80713,11.96387 c -12.7085,21.74219 -36.30371,36.37988 -63.25391,36.37988 -40.36865,0 -73.21094,-32.84228 -73.21094,-73.21045 0,-40.36816 32.84229,-73.21045 73.21094,-73.21045 26.94629,0 50.53955,14.63379 63.24951,36.3711 z"
         style="fill:#ffffff;fill-opacity:1;fill-rule:nonzero;stroke:none"
         id="path30" /><path
         d="m 202.60352,165.29932 -1.99659,-3.89453 c -2.01953,2.72167 -4.16259,4.66601 -6.4331,5.8291 -2.91455,1.49463 -5.85108,1.8125 -8.8086,0.95459 -2.95898,-0.85743 -5.14013,-2.65479 -6.54394,-5.39258 -1.43066,-2.79151 -1.604,-5.64404 -0.521,-8.55664 1.08399,-2.91309 3.16114,-5.15625 6.23242,-6.73047 2.23047,-1.14356 4.95557,-1.64941 8.17383,-1.51367 l -1.99658,-3.896 c -2.89844,-0.0571 -5.67285,0.59277 -8.32373,1.95264 -3.88672,1.9917 -6.53418,5.00732 -7.94385,9.04883 -1.40967,4.0415 -1.16308,7.91504 0.73828,11.62451 1.86817,3.64306 4.82178,6.0664 8.86231,7.27246 4.04101,1.20508 7.97217,0.82861 11.79248,-1.12988 2.45459,-1.2583 4.70947,-3.11377 6.76807,-5.56836 z"
         style="fill:#8d7149;fill-opacity:1;stroke:none;stroke-opacity:1"
         id="path32" /><path
         d="m 276.36426,148.67871 10.86133,-30.30566 -3.99952,0.33593 -2.67236,7.45948 -11.93506,1.00195 -3.83349,-6.91357 -3.98926,0.33496 15.56836,28.08691 m -0.71582,-8.82471 -5.31934,-9.59668 9.03028,-0.7583 z"
         style="fill:#8d7149;fill-opacity:1;stroke:none;stroke-opacity:1"
         id="path34" /><path
         d="m 310.55859,147.10352 4.43946,0.4375 c 2.91504,0.28759 5.3584,-0.10987 7.3291,-1.1919 1.97119,-1.08252 3.05176,-2.58838 3.2417,-4.51855 0.23242,-2.35352 -0.91846,-4.45362 -3.45313,-6.29737 4.32422,-1.00293 6.65967,-3.25 7.00391,-6.74121 0.24023,-2.43115 -0.65381,-4.49853 -2.68359,-6.20117 -2.02881,-1.70312 -4.8667,-2.73389 -8.51465,-3.09424 l -4.59375,-0.45361 -2.76905,28.06055 m 4.17725,-2.99659 0.81787,-8.28418 c 2.08789,0.23536 3.64893,0.79639 4.68408,1.68262 1.03418,0.88623 1.48487,2.00977 1.34961,3.37305 -0.11621,1.18652 -0.71191,2.08496 -1.78418,2.69726 -1.07226,0.61182 -2.45019,0.83399 -4.13525,0.66797 -0.36279,-0.0361 -0.67383,-0.0815 -0.93213,-0.13672 m 1.14648,-11.61572 0.94776,-9.60889 0.30273,0.0303 c 3.24268,0.31982 5.40332,1.06592 6.48047,2.24121 1.07764,1.1748 1.5625,2.31348 1.45361,3.41455 -0.14404,1.45459 -0.92236,2.55078 -2.33251,3.28613 -1.41211,0.73633 -3.271,0.99072 -5.57764,0.76367 l -1.27442,-0.12695 z"
         style="fill:#8d7149;fill-opacity:1;stroke:none;stroke-opacity:1"
         id="path36" /><path
         d="M 242.29199,259.7124 V 220.98975 H 229.4248 v 27.93164 h -4.8623 v 10.79101 z"
         style="fill:#231f20;fill-opacity:1;stroke:none;stroke-opacity:1"
         id="path38" /><path
         d="m 265.46777,226.33008 c 0.65235,0.70898 1.83789,2.19189 2.84668,3.49609 1.00684,1.24561 1.42188,1.83887 2.19483,3.02197 0.70947,1.13038 1.00635,1.60303 1.48193,2.37549 l -0.11767,0.11573 c -2.43165,-1.12452 -3.61963,-1.42041 -5.51709,-1.42041 -6.64112,0 -11.44288,5.0415 -11.44288,11.97509 0,8.77784 7.17432,14.76514 17.66846,14.76514 9.3125,0 15.47803,-5.92871 15.47803,-14.76514 0,-2.48681 -0.35547,-4.49951 -1.3042,-6.9917 -1.18506,-3.20605 -3.37988,-7.2373 -5.57422,-10.32226 l -5.45557,-7.59033 h -15.00146 l 4.74316,5.34033 m 2.13477,19.62744 c 0,-2.72803 1.48193,-4.38965 3.97314,-4.38965 2.19483,0 3.85303,1.77734 3.85303,4.21045 0,2.37598 -1.6582,4.21045 -3.73486,4.21045 -2.43067,0 -4.09131,-1.66162 -4.09131,-4.03125 z"
         style="fill:#231f20;fill-opacity:1;stroke:none;stroke-opacity:1"
         id="path40" /><path
         d="m 320.46289,259.7124 v -38.72265 h -12.8667 v 27.93164 h -4.86328 v 10.79101 z"
         style="fill:#231f20;fill-opacity:1;stroke:none;stroke-opacity:1"
         id="path42" /><path
         d="m 335.31982,248.02832 c 0.35401,3.97803 1.95508,7.1167 4.74366,9.37158 2.90283,2.3711 6.04687,3.32227 10.96972,3.32227 9.36866,0 15.06153,-4.20947 15.06153,-11.09033 0,-4.08985 -2.54883,-6.76075 -7.65039,-7.82764 v -0.11963 c 2.13623,-0.35303 2.96533,-0.59082 4.15234,-1.24658 0.94922,-0.53076 1.78027,-1.18262 2.43018,-1.9502 1.48242,-1.66162 2.25293,-3.91601 2.25293,-6.64355 0,-6.99707 -6.69922,-11.91748 -16.18604,-11.91748 -5.98926,0 -10.20166,1.24609 -13.04834,3.96924 -2.01367,1.90283 -3.43799,4.45166 -4.0293,7.35351 -0.12256,0.59473 -0.23925,1.24658 -0.3584,2.07715 h 12.68799 c 0.47705,-2.5498 1.89942,-3.8584 3.917,-3.8584 2.37158,0 4.15039,1.60352 4.15039,3.8584 0,2.1958 -1.77881,3.85742 -4.15039,3.85742 h -1.12647 v 7.87988 h 0.82861 c 1.78028,0 3.31934,1.54493 3.31934,3.26319 0,1.89795 -1.36377,3.49756 -2.96338,3.49756 -2.13428,0 -3.37939,-1.36328 -3.55859,-3.79639 z"
         style="fill:#231f20;fill-opacity:1;stroke:none;stroke-opacity:1"
         id="path44" /><path
         d="m 239.80518,149.63525 -9.8584,2.81348 -0.0996,0.0381 -2.46192,-8.62744 c -2.3125,-8.16846 -6.44043,-11.06836 -9.74707,-11.86475 -2.3916,-0.61279 -3.80029,-0.25391 -3.80029,-0.25391 l 1.14209,4.00244 c 0,0 5.81348,-0.98974 8.68897,9.16846 l 3.52148,12.33984 17.49658,-4.99316 -7.7373,-27.11279 -3.71436,1.05908 6.67578,23.39453 -0.10595,0.0361 z"
         style="fill:#8d7149;fill-opacity:1;stroke:none;stroke-opacity:1"
         id="path46" /><path
         d="m 380.56104,132.91992 -3.69629,-1.11963 -5.79493,19.1416 -13.79541,-26.41601 -8.54248,28.21826 3.69629,1.12061 5.87744,-19.41309 13.76905,26.50244 z"
         style="fill:#8d7149;fill-opacity:1;stroke:none;stroke-opacity:1"
         id="path48" /><path
         d="m 421.27539,151.36523 -3.42725,-1.78027 -5.34082,10.28369 -0.74218,-0.38525 -1.6416,-13.90967 -3.93018,-2.04102 1.71094,14.48536 c -2.58887,-0.68116 -4.76367,-0.66211 -6.52393,0.0522 -1.75928,0.71533 -3.07568,1.91016 -3.9458,3.58594 -1.0874,2.09424 -1.13086,4.25293 -0.13086,6.47559 1.00195,2.22314 2.85156,4.03662 5.55127,5.43896 l 5.42676,2.81738 12.99365,-25.02295 m -18.96973,17.6128 c -0.85302,-0.75049 -1.39697,-1.61768 -1.63427,-2.59912 -0.23535,-0.98096 -0.0786,-2.00293 0.47265,-3.06592 1.57422,-3.03174 4.84815,-3.19092 9.82129,-0.47363 l -4.53955,8.74072 c -1.89307,-0.98291 -3.26709,-1.85059 -4.12012,-2.60205 z"
         style="fill:#8d7149;fill-opacity:1;stroke:none;stroke-opacity:1"
         id="path50" /><path
         d="m 288.97803,650.28369 c 0,-3.74585 3.03857,-6.78418 6.78467,-6.78418 3.74707,0 6.78418,3.03833 6.78418,6.78418 0,3.74732 -3.03711,6.78443 -6.78418,6.78443 -3.7461,0 -6.78467,-3.03711 -6.78467,-6.78443 z"
         style="fill:#ffffff;fill-opacity:1;fill-rule:nonzero;stroke:none"
         id="path52" /><path
         d="m 247.94971,648.73853 c 0,-3.74585 3.03808,-6.78394 6.78467,-6.78394 3.74658,0 6.78369,3.03809 6.78369,6.78394 0,3.74731 -3.03711,6.78466 -6.78369,6.78466 -3.74659,0 -6.78467,-3.03735 -6.78467,-6.78466 z"
         style="fill:#ffffff;fill-opacity:1;fill-rule:nonzero;stroke:none"
         id="path54" /><path
         d="m 258.51709,659.16626 c 0,-2.24756 1.82324,-4.07007 4.0708,-4.07007 2.24805,0 4.07031,1.82251 4.07031,4.07007 0,2.24878 -1.82226,4.0708 -4.07031,4.0708 -2.24756,0 -4.0708,-1.82202 -4.0708,-4.0708 z"
         style="fill:#ffffff;fill-opacity:1;fill-rule:nonzero;stroke:none"
         id="path56" /><path
         d="m 267.09766,664.57373 c 0,-1.34814 1.09375,-2.44214 2.44287,-2.44214 1.34863,0 2.44238,1.094 2.44238,2.44214 0,1.34937 -1.09375,2.44287 -2.44238,2.44287 -1.34912,0 -2.44287,-1.0935 -2.44287,-2.44287 z"
         style="fill:#ffffff;fill-opacity:1;fill-rule:nonzero;stroke:none"
         id="path58" /><path
         d="m 273.37988,668.30762 c 0,-1.07886 0.875,-1.95386 1.9541,-1.95386 1.07959,0 1.95411,0.875 1.95411,1.95386 0,1.07959 -0.87452,1.9541 -1.95411,1.9541 -1.0791,0 -1.9541,-0.87451 -1.9541,-1.9541 z"
         style="fill:#ffffff;fill-opacity:1;fill-rule:nonzero;stroke:none"
         id="path60" /><path
         d="m 279.17822,670.88257 c 0,-0.86304 0.69971,-1.56299 1.56348,-1.56299 0.86377,0 1.56299,0.69995 1.56299,1.56299 0,0.86352 -0.69922,1.56347 -1.56299,1.56347 -0.86377,0 -1.56348,-0.69995 -1.56348,-1.56347 z"
         style="fill:#ffffff;fill-opacity:1;fill-rule:nonzero;stroke:none"
         id="path62" /><path
         d="m 265.31396,578.74854 c 2.00928,0.28759 3.32178,2.83593 2.917,5.66357 -0.4043,2.82617 -2.37891,4.90478 -4.38916,4.6167 -2.00928,-0.28711 -9.95264,-1.42481 -11.96241,-1.7124 -2.00878,-0.2876 -3.32177,-2.83594 -2.91699,-5.66358 0.4043,-2.82666 2.37891,-4.90527 4.38916,-4.6167 2.00928,0.28711 9.95264,1.42481 11.9624,1.71241 z"
         style="fill:#ffffff;fill-opacity:1;fill-rule:nonzero;stroke:none"
         id="path64" /><path
         d="m 223.90625,570.46338 c 2.81494,0.71142 5.98584,1.51318 7.14404,1.80517 1.96729,0.49805 3.00489,3.16993 2.30518,5.93946 -0.69922,2.76904 -2.88281,4.62695 -4.8501,4.12988 -0.97021,-0.24512 -3.35254,-0.84717 -5.75439,-1.45459 0,0 0.22461,-1.88525 0.56836,-5.14697 0.34326,-3.26172 0.58691,-5.27295 0.58691,-5.27295 z"
         style="fill:#ffffff;fill-opacity:1;fill-rule:nonzero;stroke:none"
         id="path66" /><path
         d="m 280.85303,585.51367 c 0.2041,-2.85986 -1.36231,-5.30273 -3.5,-5.45605 -2.13819,-0.15283 -4.03711,2.04199 -4.2417,4.90185 -0.20459,2.86084 1.36181,5.30274 3.49951,5.45703 2.13818,0.15284 4.03711,-2.04199 4.24219,-4.90283 z"
         style="fill:#ffffff;fill-opacity:1;fill-rule:nonzero;stroke:none"
         id="path68" /><path
         d="m 244.83105,580.80859 c 0.53321,-2.81787 -0.74023,-5.4248 -2.8457,-5.82421 -2.10596,-0.39942 -4.24609,1.56103 -4.78027,4.3789 -0.53369,2.81738 0.74023,5.42481 2.84521,5.82422 2.10645,0.39941 4.24659,-1.56152 4.78076,-4.37891 z"
         style="fill:#ffffff;fill-opacity:1;fill-rule:nonzero;stroke:none"
         id="path70" /><path
         d="m 205.07617,646.29248 c 0,-3.74609 3.03809,-6.78418 6.78418,-6.78418 3.74707,0 6.78418,3.03809 6.78418,6.78418 0,3.74707 -3.03711,6.78442 -6.78418,6.78442 -3.74609,0 -6.78418,-3.03735 -6.78418,-6.78442 z"
         style="fill:#ffffff;fill-opacity:1;fill-rule:nonzero;stroke:none"
         id="path72" /><path
         d="m 219.56885,654.61694 c 0,-3.18408 2.58252,-5.7666 5.76709,-5.7666 3.18457,0 5.7666,2.58252 5.7666,5.7666 0,3.18482 -2.58203,5.76709 -5.7666,5.76709 -3.18457,0 -5.76709,-2.58227 -5.76709,-5.76709 z"
         style="fill:#ffffff;fill-opacity:1;fill-rule:nonzero;stroke:none"
         id="path74" /><path
         d="m 232.45068,661.48389 c 0,-2.7063 2.19532,-4.90161 4.90235,-4.90161 2.70654,0 4.90136,2.19531 4.90136,4.90161 0,2.70727 -2.19482,4.9021 -4.90136,4.9021 -2.70703,0 -4.90235,-2.19483 -4.90235,-4.9021 z"
         style="fill:#ffffff;fill-opacity:1;fill-rule:nonzero;stroke:none"
         id="path76" /><path
         d="m 254.0249,671.39722 c 0,-1.95533 1.58594,-3.54102 3.54199,-3.54102 1.95557,0 3.54102,1.58569 3.54102,3.54102 0,1.9563 -1.58545,3.54199 -3.54102,3.54199 -1.95605,0 -3.54199,-1.58569 -3.54199,-3.54199 z"
         style="fill:#ffffff;fill-opacity:1;fill-rule:nonzero;stroke:none"
         id="path78" /><path
         d="m 262.62451,674.74487 c 0,-1.66211 1.34815,-3.01001 3.01074,-3.01001 1.6626,0 3.00977,1.3479 3.00977,3.01001 0,1.6626 -1.34717,3.0105 -3.00977,3.0105 -1.66259,0 -3.01074,-1.3479 -3.01074,-3.0105 z"
         style="fill:#ffffff;fill-opacity:1;fill-rule:nonzero;stroke:none"
         id="path80" /><path
         d="m 270.58643,676.54736 c 0,-1.41284 1.14599,-2.55835 2.55908,-2.55835 1.41308,0 2.5581,1.14551 2.5581,2.55835 0,1.41309 -1.14502,2.55884 -2.5581,2.55884 -1.41309,0 -2.55908,-1.14575 -2.55908,-2.55884 z"
         style="fill:#ffffff;fill-opacity:1;fill-rule:nonzero;stroke:none"
         id="path82" /><path
         d="m 277.40771,677.57739 c 0,-1.20093 0.97364,-2.1748 2.1753,-2.1748 1.20117,0 2.1748,0.97387 2.1748,2.1748 0,1.20117 -0.97363,2.17505 -2.1748,2.17505 -1.20166,0 -2.1753,-0.97388 -2.1753,-2.17505 z"
         style="fill:#ffffff;fill-opacity:1;fill-rule:nonzero;stroke:none"
         id="path84" /><path
         d="m 243.61475,667.53516 c 0,-2.30054 1.86621,-4.16626 4.16699,-4.16626 2.30078,0 4.16601,1.86572 4.16601,4.16626 0,2.30127 -1.86523,4.16674 -4.16601,4.16674 -2.30078,0 -4.16699,-1.86547 -4.16699,-4.16674 z"
         style="fill:#ffffff;fill-opacity:1;fill-rule:nonzero;stroke:none"
         id="path86" /><path
         d="m 295.76123,594.53369 c -24.20605,0 -47.86572,-2.90576 -70.36914,-8.63965 -0.85693,-0.21826 -1.7124,-0.44043 -2.56592,-0.66699 -0.92187,-0.38037 -0.53711,-1.25049 0.26465,-0.9956 0.82178,0.21826 1.64502,0.43261 2.46973,0.64306 22.44629,5.72705 46.04931,8.6294 70.20068,8.6294 h 0.003 c 24.15137,0 47.75439,-2.90235 70.20068,-8.6294 0.82471,-0.21045 1.64795,-0.4248 2.46973,-0.64306 0.80176,-0.25489 1.18652,0.61523 0.26465,0.9956 -0.85352,0.22656 -1.70899,0.44873 -2.56592,0.66699 -22.50342,5.73389 -46.16309,8.63965 -70.36914,8.63965 z"
         style="fill:#ffffff;fill-opacity:1;fill-rule:nonzero;stroke:none"
         id="path88" /><path
         d="m 301.80469,580.54346 c 2.03027,0 3.69092,2.33642 3.69092,5.19238 0,2.85645 -1.66065,5.19287 -3.69092,5.19287 -2.02979,0 -10.0542,0 -12.08399,0 -2.02978,0 -3.69091,-2.33642 -3.69091,-5.19287 0,-2.85596 1.66113,-5.19238 3.69091,-5.19238 2.02979,0 10.0542,0 12.08399,0 z"
         style="fill:#ffffff;fill-opacity:1;fill-rule:nonzero;stroke:none"
         id="path90" /><path
         d="m 343.57568,648.73853 c 0,-3.74585 -3.03808,-6.78394 -6.78466,-6.78394 -3.74659,0 -6.7837,3.03809 -6.7837,6.78394 0,3.74731 3.03711,6.78466 6.7837,6.78466 3.74658,0 6.78466,-3.03735 6.78466,-6.78466 z"
         style="fill:#ffffff;fill-opacity:1;fill-rule:nonzero;stroke:none"
         id="path92" /><path
         d="m 333.0083,659.16626 c 0,-2.24756 -1.82324,-4.07007 -4.0708,-4.07007 -2.24805,0 -4.07031,1.82251 -4.07031,4.07007 0,2.24878 1.82226,4.0708 4.07031,4.0708 2.24756,0 4.0708,-1.82202 4.0708,-4.0708 z"
         style="fill:#ffffff;fill-opacity:1;fill-rule:nonzero;stroke:none"
         id="path94" /><path
         d="m 324.42773,664.57373 c 0,-1.34814 -1.09375,-2.44214 -2.44287,-2.44214 -1.34863,0 -2.44189,1.094 -2.44189,2.44214 0,1.34937 1.09326,2.44287 2.44189,2.44287 1.34912,0 2.44287,-1.0935 2.44287,-2.44287 z"
         style="fill:#ffffff;fill-opacity:1;fill-rule:nonzero;stroke:none"
         id="path96" /><path
         d="m 318.14551,668.30762 c 0,-1.07886 -0.875,-1.95386 -1.9541,-1.95386 -1.07959,0 -1.95411,0.875 -1.95411,1.95386 0,1.07959 0.87452,1.9541 1.95411,1.9541 1.0791,0 1.9541,-0.87451 1.9541,-1.9541 z"
         style="fill:#ffffff;fill-opacity:1;fill-rule:nonzero;stroke:none"
         id="path98" /><path
         d="m 312.34717,670.88257 c 0,-0.86304 -0.69971,-1.56299 -1.56348,-1.56299 -0.86328,0 -1.56299,0.69995 -1.56299,1.56299 0,0.86352 0.69971,1.56347 1.56299,1.56347 0.86377,0 1.56348,-0.69995 1.56348,-1.56347 z"
         style="fill:#ffffff;fill-opacity:1;fill-rule:nonzero;stroke:none"
         id="path100" /><path
         d="m 326.21143,578.74854 c -2.00928,0.28759 -3.32178,2.83593 -2.917,5.66357 0.4043,2.82617 2.37891,4.90478 4.38916,4.6167 2.00928,-0.28711 9.95264,-1.42481 11.96241,-1.7124 2.00927,-0.2876 3.32177,-2.83594 2.91699,-5.66358 -0.4043,-2.82666 -2.37891,-4.90527 -4.38916,-4.6167 -2.00928,0.28711 -9.95264,1.42481 -11.9624,1.71241 z"
         style="fill:#ffffff;fill-opacity:1;fill-rule:nonzero;stroke:none"
         id="path102" /><path
         d="m 367.61914,570.46338 c -2.81494,0.71142 -5.98584,1.51318 -7.14404,1.80517 -1.96729,0.49805 -3.00489,3.16993 -2.30518,5.93946 0.69922,2.76904 2.88281,4.62695 4.8501,4.12988 0.97021,-0.24512 3.35254,-0.84717 5.75439,-1.45459 0,0 -0.22461,-1.88525 -0.56836,-5.14697 -0.34326,-3.26172 -0.58691,-5.27295 -0.58691,-5.27295 z"
         style="fill:#ffffff;fill-opacity:1;fill-rule:nonzero;stroke:none"
         id="path104" /><path
         d="m 310.67236,585.51367 c -0.2041,-2.85986 1.36231,-5.30273 3.5,-5.45605 2.13819,-0.15283 4.03711,2.04199 4.2417,4.90185 0.20459,2.86084 -1.36181,5.30274 -3.49951,5.45703 -2.13818,0.15284 -4.03711,-2.04199 -4.24219,-4.90283 z"
         style="fill:#ffffff;fill-opacity:1;fill-rule:nonzero;stroke:none"
         id="path106" /><path
         d="m 346.69434,580.80859 c -0.53321,-2.81787 0.74023,-5.4248 2.8457,-5.82421 2.10596,-0.39942 4.24609,1.56103 4.78027,4.3789 0.53369,2.81738 -0.74023,5.42481 -2.84521,5.82422 -2.10645,0.39941 -4.24658,-1.56152 -4.78076,-4.37891 z"
         style="fill:#ffffff;fill-opacity:1;fill-rule:nonzero;stroke:none"
         id="path108" /><path
         d="m 386.44971,646.29248 c 0,-3.74609 -3.03858,-6.78418 -6.78467,-6.78418 -3.74707,0 -6.78418,3.03809 -6.78418,6.78418 0,3.74707 3.03711,6.78442 6.78418,6.78442 3.74609,0 6.78467,-3.03735 6.78467,-6.78442 z"
         style="fill:#ffffff;fill-opacity:1;fill-rule:nonzero;stroke:none"
         id="path110" /><path
         d="m 371.95654,654.61694 c 0,-3.18408 -2.58252,-5.7666 -5.76709,-5.7666 -3.18457,0 -5.7666,2.58252 -5.7666,5.7666 0,3.18482 2.58203,5.76709 5.7666,5.76709 3.18457,0 5.76709,-2.58227 5.76709,-5.76709 z"
         style="fill:#ffffff;fill-opacity:1;fill-rule:nonzero;stroke:none"
         id="path112" /><path
         d="m 359.07471,661.48389 c 0,-2.7063 -2.19532,-4.90161 -4.90235,-4.90161 -2.70654,0 -4.90136,2.19531 -4.90136,4.90161 0,2.70727 2.19482,4.9021 4.90136,4.9021 2.70703,0 4.90235,-2.19483 4.90235,-4.9021 z"
         style="fill:#ffffff;fill-opacity:1;fill-rule:nonzero;stroke:none"
         id="path114" /><path
         d="m 337.50049,671.39722 c 0,-1.95533 -1.58594,-3.54102 -3.54199,-3.54102 -1.95557,0 -3.54102,1.58569 -3.54102,3.54102 0,1.9563 1.58545,3.54199 3.54102,3.54199 1.95605,0 3.54199,-1.58569 3.54199,-3.54199 z"
         style="fill:#ffffff;fill-opacity:1;fill-rule:nonzero;stroke:none"
         id="path116" /><path
         d="m 328.90088,674.74487 c 0,-1.66211 -1.34815,-3.01001 -3.01074,-3.01001 -1.6626,0 -3.00977,1.3479 -3.00977,3.01001 0,1.6626 1.34717,3.0105 3.00977,3.0105 1.66259,0 3.01074,-1.3479 3.01074,-3.0105 z"
         style="fill:#ffffff;fill-opacity:1;fill-rule:nonzero;stroke:none"
         id="path118" /><path
         d="m 320.93896,676.54736 c 0,-1.41284 -1.14599,-2.55835 -2.55908,-2.55835 -1.41308,0 -2.5581,1.14551 -2.5581,2.55835 0,1.41309 1.14502,2.55884 2.5581,2.55884 1.41309,0 2.55908,-1.14575 2.55908,-2.55884 z"
         style="fill:#ffffff;fill-opacity:1;fill-rule:nonzero;stroke:none"
         id="path120" /><path
         d="m 314.11768,677.57739 c 0,-1.20093 -0.97364,-2.1748 -2.1753,-2.1748 -1.20068,0 -2.1748,0.97387 -2.1748,2.1748 0,1.20117 0.97412,2.17505 2.1748,2.17505 1.20166,0 2.1753,-0.97388 2.1753,-2.17505 z"
         style="fill:#ffffff;fill-opacity:1;fill-rule:nonzero;stroke:none"
         id="path122" /><path
         d="m 347.91064,667.53516 c 0,-2.30054 -1.86621,-4.16626 -4.16699,-4.16626 -2.30078,0 -4.16601,1.86572 -4.16601,4.16626 0,2.30127 1.86523,4.16674 4.16601,4.16674 2.30078,0 4.16699,-1.86547 4.16699,-4.16674 z"
         style="fill:#ffffff;fill-opacity:1;fill-rule:nonzero;stroke:none"
         id="path124" /><path
         d="m 295.76123,635.21826 c -8.271,4.9e-4 -12.87402,2.53516 -15.09277,4.45459 -0.73926,0.63965 -1.60059,1.85449 -1.5542,4.04248 0.0605,2.85474 0.25439,7.93775 1.75635,13.77735 1.31005,5.09399 3.21875,7.72485 3.21875,7.72485 0,0 -7.5962,-4.37744 -11.97413,-10.04248 -3.29052,-4.25879 -4.708,-9.43726 -5.28955,-12.44312 -0.29541,-1.52636 -0.93847,-3.05517 -1.98974,-3.81103 -2.4668,-1.77295 -7.61817,-4.60498 -14.47901,-3.70215 -9.78515,1.2876 -12.58935,4.89551 -9.1416,13.13257 2.31738,5.53638 10.17139,10.81494 10.17139,10.81494 0,0 -5.53613,-0.77246 -11.20117,-7.0813 -5.66504,-6.30859 -11.29785,-13.95898 -15.70752,-17.76758 -5.66504,-4.89209 -11.71631,-1.80224 -11.71631,-1.80224 2.96142,-7.46778 4.27685,-12.38965 4.27685,-12.38965 l 5.54444,1.09131 -0.48535,-8.23194 9.28173,2.87744 1.90235,-8.81054 -9.01611,-0.37549 4.22119,-13.69189 c 5.47656,0.74609 8.06054,2.67236 9.26464,4.15429 l -0.32226,0.17578 c -0.86035,0.44043 -1.44922,1.33594 -1.44922,2.36914 0,1.46973 1.19092,2.66065 2.66065,2.66065 1.46923,0 2.66015,-1.19092 2.66015,-2.66065 0,-0.88916 -0.43603,-1.67627 -1.10596,-2.15869 l -0.23584,-0.21777 c 1.36036,-0.8916 4.27491,-1.62256 10.51758,-0.73145 l -0.3789,15.0127 -8.66553,-2.51758 -1.00293,8.9585 9.71387,0.22998 -3.08106,7.64795 11.46533,1.49707 -1.01464,-8.18311 9.44775,2.27246 1.33105,-8.91455 -9.02148,0.20654 3.33008,-13.93554 c 6.55469,0.58105 9.64209,2.3706 11.09668,3.9248 l 0.17383,0.16016 c -0.90918,0.42285 -1.54004,1.34473 -1.54004,2.41357 0,1.46973 1.19091,2.66065 2.66064,2.66065 1.46973,0 2.66065,-1.19092 2.66065,-2.66065 0,-0.9834 -0.5337,-1.84277 -1.32813,-2.30273 l 0.18897,-0.20215 c 1.7124,-1.2207 5.3291,-2.37744 12.94433,-2.12354 l 1.49854,13.72706 -9.27002,-1.37354 0.17236,9.0127 10.04248,-1.03028 -2.146,7.98291 H 301.771 l -2.146,-7.98291 10.04248,1.03028 0.17236,-9.0127 -9.27002,1.37354 1.49854,-13.72706 c 7.61523,-0.2539 11.23193,0.90284 12.94434,2.12354 l 0.18896,0.20215 c -0.79443,0.45996 -1.32812,1.31933 -1.32812,2.30273 0,1.46973 1.19091,2.66065 2.66064,2.66065 1.46973,0 2.66064,-1.19092 2.66064,-2.66065 0,-1.06884 -0.63086,-1.99072 -1.54003,-2.41357 l 0.17382,-0.16016 c 1.45459,-1.5542 4.542,-3.34375 11.09668,-3.9248 l 3.33008,13.93554 -9.02148,-0.20654 1.33105,8.91455 9.44776,-2.27246 -1.01465,8.18311 11.46533,-1.49707 -3.08106,-7.64795 9.71387,-0.22998 -1.00293,-8.9585 -8.66553,2.51758 -0.3789,-15.0127 c 6.24267,-0.89111 9.15722,-0.16015 10.51758,0.73145 l -0.23584,0.21777 c -0.66993,0.48242 -1.10596,1.26953 -1.10596,2.15869 0,1.46973 1.19092,2.66065 2.66016,2.66065 1.46972,0 2.66064,-1.19092 2.66064,-2.66065 0,-1.0332 -0.58887,-1.92871 -1.44922,-2.36914 l -0.32226,-0.17578 c 1.2041,-1.48193 3.78808,-3.4082 9.26464,-4.15429 l 4.2212,13.69189 -9.01612,0.37549 1.90283,8.81054 9.28125,-2.87744 -0.48535,8.23194 5.54444,-1.09131 c 0,0 1.31543,4.92187 4.27685,12.38965 0,0 -6.05127,-3.08985 -11.71631,1.80224 -4.40966,3.8086 -10.04248,11.45899 -15.70752,17.76758 -5.66504,6.30884 -11.20117,7.0813 -11.20117,7.0813 0,0 7.85401,-5.27856 10.17139,-10.81494 3.44775,-8.23706 0.64355,-11.84497 -9.14111,-13.13257 -6.86133,-0.90283 -12.0127,1.9292 -14.4795,3.70215 -1.05127,0.75586 -1.69433,2.28467 -1.98974,3.81103 -0.58155,3.00586 -1.99903,8.18433 -5.28955,12.44312 -4.37793,5.66504 -11.97412,10.04248 -11.97412,10.04248 0,0 1.90869,-2.63086 3.21875,-7.72485 1.50195,-5.8396 1.69628,-10.92261 1.75634,-13.77735 0.0464,-2.18799 -0.81445,-3.40283 -1.5542,-4.04248 -2.21875,-1.91943 -6.82177,-4.4541 -15.09277,-4.45459 h -0.003 z"
         style="fill:#ffffff;fill-opacity:1;fill-rule:nonzero;stroke:none"
         id="path126" /><path
         d="m 291.40527,658.81519 c -0.20361,0.52368 -0.31543,1.09301 -0.31543,1.68798 0,2.57642 2.0962,4.67188 4.67286,4.67188 2.57666,0 4.67236,-2.09546 4.67236,-4.67188 0,-0.62768 -0.12451,-1.22729 -0.34961,-1.77441 l -0.0767,-0.10571 c -1.2749,0.65185 -2.71826,1.02002 -4.24609,1.02002 -1.54151,0 -2.99756,-0.37476 -4.28077,-1.0376 l -0.0767,0.20972 z"
         style="fill:#ffffff;fill-opacity:1;fill-rule:nonzero;stroke:none"
         id="path128" /><path
         d="m 292.49463,666.34253 c 0,1.80151 1.46631,3.26709 3.26758,3.26709 1.80175,0 3.26806,-1.46558 3.26806,-3.26709 l 0.009,-0.18726 c -0.96387,0.56079 -2.0835,0.88208 -3.27685,0.88208 -1.19239,0 -2.31104,-0.3208 -3.27442,-0.88086 l 0.006,0.18604 z"
         style="fill:#ffffff;fill-opacity:1;fill-rule:nonzero;stroke:none"
         id="path130" /></g></g></svg>