<?xml version="1.0" encoding="utf-8"?>
<!-- Generator: Adobe Illustrator 19.0.0, SVG Export Plug-In . SVG Version: 6.00 Build 0)  -->
<svg version="1.1" id="Layer_1" xmlns="http://www.w3.org/2000/svg" xmlns:xlink="http://www.w3.org/1999/xlink" x="0px" y="0px"
	 viewBox="0 0 566.9 566.9" style="enable-background:new 0 0 566.9 566.9;" xml:space="preserve">
<style type="text/css">
	.st0{fill-rule:evenodd;clip-rule:evenodd;fill:#234B6A;}
	.st1{fill-rule:evenodd;clip-rule:evenodd;fill:#FFFFFF;}
</style>
<path class="st0" d="M283.5,0C440,0,566.9,126.9,566.9,283.5S440,566.9,283.5,566.9S0,440,0,283.5S126.9,0,283.5,0"/>
<path class="st1" d="M283.5,8.1c152.1,0,275.3,123.3,275.3,275.3c0,152.1-123.3,275.3-275.3,275.3S8.1,435.5,8.1,283.5
	C8.1,131.4,131.4,8.1,283.5,8.1"/>
<path class="st0" d="M253.3,508.8c-63.4-8.6-119.1-43.3-154.8-93.4c-26.6-37.2-42.6-82.8-42.6-132.1c0-32.1,6.6-62.6,18.6-90.2
	c2.5,18.8,6,37.5,10.7,55.9c5.1,20.2,11.6,39.8,18.8,59.3C134.5,390.5,182.5,459.4,253.3,508.8 M492.7,193.3
	c11.8,27.5,18.4,58.2,18.4,90c0,115.2-86.3,210.8-197.4,225.7c71-48.5,120.4-120.5,149.9-201.3C477.5,269.6,486.7,232.7,492.7,193.3
	z M283.2,55.9c75.6,0,143.2,37,184.6,93.9c-55.7-31-121.8-46.6-185-46.6c-60.9,0-128.9,16.6-183.6,47.1
	C140.5,93.1,207.4,55.9,283.2,55.9z"/>
<path class="st0" d="M30.2,260.4C39.4,157.8,109.5,72.7,204,41.6l1.3,3.7c-93,30.6-162,114.2-171.2,215.1H30.2z M101.2,461
	c-36.9-38-62.1-87.4-69.7-142.4h4c7.6,54,32.3,102.4,68.5,139.6L101.2,461z M535.7,318.5c-7.6,55.1-32.8,104.6-69.8,142.5l-2.8-2.7
	c36.3-37.3,61.1-85.8,68.7-139.8H535.7z M363.2,41.6C457.7,72.7,527.8,157.8,537,260.4h-3.9c-9.2-100.9-78.2-184.5-171.2-215.1
	L363.2,41.6z"/>
<polygon class="st0" points="536.4,272.7 539.1,278.9 545.6,279.2 540.3,283.4 542.1,289.6 536.4,286.2 530.7,289.6 532.4,283.4 
	527.2,279.2 533.7,278.9 "/>
<polygon class="st0" points="519,301.5 523.2,296.4 520.2,290.6 526.5,292.9 531.1,288.8 531,294.9 537,298.1 530.4,300.2 
	529.4,306.3 525.5,301.2 "/>
<polygon class="st0" points="553.8,302 549.6,296.5 552.2,290.9 546,292.9 541.6,288.8 541.8,294.7 535.7,298.3 542.2,300.1 
	543,306.2 546.8,301.1 "/>
<polygon class="st0" points="30.9,272.7 33.6,278.9 40.1,279.2 34.8,283.4 36.6,289.6 30.9,286.2 25.2,289.6 26.9,283.4 21.7,279.2 
	28.2,278.9 "/>
<polygon class="st0" points="13.5,301.5 17.7,296.4 14.6,290.6 21,292.9 25.6,288.8 25.5,294.9 31.5,298.1 24.9,300.2 23.9,306.3 
	20,301.2 "/>
<polygon class="st0" points="48.3,302 44,296.5 46.7,290.9 40.5,292.9 36.1,288.8 36.3,294.7 30.2,298.3 36.7,300.1 37.5,306.2 
	41.3,301.1 "/>
<path class="st0" d="M240.6,27.9l1.2,7.6l5.5-0.9c2-0.3,4.1-1.7,3.6-4.5c-0.5-2.7-2.5-3.6-4.6-3.2L240.6,27.9z M234.4,23.9l10.7-1.7
	c5.8-0.9,10.6,0.8,11.5,7.2c0.6,3.8-0.9,6.4-3.3,7.9l2.4,3.6c1.5,2.1,2.9,1,4.5,0.4l2.1,3.5c-2.2,1.3-4.7,2.1-6.3,2.1
	c-3.2,0-5.2-2.6-8.3-7.6l-5.1,0.8l1.3,8.4l-5.5,0.9L234.4,23.9z"/>
<rect x="265.9" y="19.7" transform="matrix(-0.9984 5.677412e-002 -5.677412e-002 -0.9984 538.7661 49.6643)" class="st0" width="5.6" height="25.5"/>
<path class="st0" d="M303.3,43c-2.8,1.7-6.4,2.7-10.2,2.7c-9.1-0.1-15.3-4.5-15.2-13.8c0.1-9.3,6.2-13.2,15.4-13.1
	c3.8,0,6.9,1,9.7,2.8l-2.4,4.9c-2.3-1.6-5.2-2.4-7.7-2.4c-4.8,0-9.1,2-9.1,8.2c-0.1,5.4,4.5,8.2,9.1,8.3c1.4,0,3.2-0.3,4.9-1l0-4.1
	l-7.4-0.1l0-4.1l12.9,0.1L303.3,43z"/>
<path class="st0" d="M324.8,38.5l-2.3-10.3l-5,9.2L324.8,38.5z M326.7,22.7l6.5,27l-6-0.9l-1.3-5.6l-10.7-1.6l-2.7,5l-6-0.9l13.7-24
	L326.7,22.7z"/>
<polygon class="st0" points="289.5,523.2 295.3,522.8 296.5,543.4 310.4,542.6 310.7,547.7 291,548.8 "/>
<polygon class="st0" points="313,521.6 318.7,520.7 321.8,541 335.6,538.9 336.4,543.9 316.9,546.9 "/>
<polygon class="st0" points="372.9,506.1 378.2,503.8 386.4,522.6 399.2,517 401.3,521.7 383.2,529.6 "/>
<polygon class="st0" points="116.4,489.4 121,492.9 126.9,485 136.7,492.3 139.4,488.7 129.6,481.4 133.4,476.4 145.7,485.7 
	148.8,481.7 131.8,468.9 "/>
<polygon class="st0" points="220.4,519.9 214.7,539.9 209.1,538.3 214.8,518.3 205.3,515.6 206.6,510.8 231.6,518 230.3,522.7 "/>
<path class="st0" d="M275.2,538.9l-3.4-10l-4,9.7L275.2,538.9z M275.5,522.9l9.2,26.3l-6.1-0.3l-1.8-5.5l-10.8-0.5l-2.1,5.3
	l-6.1-0.3l11.1-25.4L275.5,522.9z"/>
<path class="st0" d="M160.3,494.6c-4.2-2.5-8.6-2.2-11.5,2.6c-2.9,4.8-1.1,8.8,3,11.4c4.2,2.5,8.6,2.2,11.5-2.6
	C166.2,501.2,164.5,497.2,160.3,494.6 M163.1,490.1c8,4.9,9.3,12.6,5.4,19c-3.8,6.4-11.3,8.9-19.3,4c-8-4.9-9.3-12.6-5.4-19
	C147.6,487.8,155,485.2,163.1,490.1z"/>
<path class="st0" d="M189.1,509c-4.6-1.7-8.8-0.4-10.7,4.8c-1.9,5.2,0.6,8.9,5.2,10.5c4.6,1.7,8.8,0.4,10.7-4.8
	C196.2,514.3,193.7,510.6,189.1,509 M190.9,504c8.8,3.2,11.6,10.6,9.1,17.6c-2.5,7-9.3,10.9-18.2,7.8c-8.8-3.2-11.6-10.6-9.1-17.6
	C175.3,504.7,182.1,500.8,190.9,504z"/>
<path class="st0" d="M376.4,529.8c-2.2,2.5-6.3,5.5-10,6.6c-8.7,2.6-15.8,0.2-18.5-8.7c-2.7-8.9,2.3-14.7,10.7-17.2
	c3.6-1,6.9-1,9.7-0.5l-0.3,5.3c-2.7-0.6-5.8-0.4-8.1,0.4c-4.5,1.5-7.8,5-6.2,10.4c1.6,5.5,6.6,6.6,11.1,5.3c3.3-0.9,6.8-4,8.5-5.9
	L376.4,529.8z"/>
<path class="st0" d="M238.5,534.1l-0.9,5.8l6.5,1c1.5,0.2,3.9,0.4,4.3-2.2c0.4-2.7-1.5-3.3-3.2-3.5L238.5,534.1z M248.6,528.5
	c0.2-1.7-0.4-2.9-3.1-3.3l-5.4-0.9l-0.9,5.8l5.4,0.9C247.4,531.4,248.4,530.1,248.6,528.5z M235.1,518.6l13.4,2.1
	c2.2,0.3,7.2,1.9,6.3,7.5c-0.6,3.9-3.2,4.9-5,5.3c3.7,1.4,5,4.1,4.2,7.2c-0.9,3.9-4,6.3-10.2,5.3l-12.8-2L235.1,518.6z"/>
<path class="st0" d="M431.9,490.1l3.5,4.7l5.2-3.9c1.2-0.9,2.8-2.8,1.4-4.7c-1.5-1.9-3.4-1.2-4.8-0.1L431.9,490.1z M435,478.9
	c-0.9-1.1-2.4-1.7-4.6,0l-4.4,3.3l3.5,4.7l4.4-3.3C436.2,481.9,435.9,480,435,478.9z M418.5,481.8l10.8-8.1c2.3-1.7,6.8-3.4,9.9,0.7
	c2.3,3,1.2,5.8,0.3,7.4c3.6-1.6,6.5-0.7,8.2,1.9c2,2.9,1.6,7.3-3.4,11.1l-10.4,7.8L418.5,481.8z"/>
<path class="st0" d="M393.7,496.5l5-2.9l8,13.4c2.5,4.2,5.4,3.6,8,2c2.2-1.3,4.3-3.4,1.9-7.6l-8.1-13.6l5-2.9l8.7,14.6
	c2.6,4.4,2.4,9.7-4.5,13.7c-5.7,3.4-11.3,4.5-15.3-2.2L393.7,496.5z"/>
<path class="st0" d="M141.5,300c-7.6,3.5-17.9,8.3-22.9,10.8c39.3,102,99.8,164.7,165.1,202.2c85.8-49.9,135.7-126.6,165.3-202.1
	c-7.1-3.4-18.4-8.6-26-12l-22.8,78.7l-13.9,29l-27.3,23.8L334,460.9l2.4-10.2l-52.9,46.9l-57-51.6l1.2,8.1l-13.2-18.4l-32.4-27.4
	l-13.1-38.7L141.5,300z M84.9,173.6c5.6,53.4,16.3,90,29.1,125.2c5.1-2.5,16.2-7.4,23.8-10.8l32.8-95.4l-7.1-18.2l7.5-19.9l21.7,2.1
	l0.1-1.8l47.7-23.3l44.1-5.8l24.3,7.2l41.9,4.5l22.7,21.7l23.3-4.5l7.7,19.7l-8.8,21.7l9.1,20.4l21,69.7c9,3.9,18.7,8.5,27.5,12.6
	c14.4-40.4,23-77.8,28.8-125.3c-58.7-39.1-131.4-57.9-199.3-57.9C217.8,115.8,141.4,135.7,84.9,173.6z"/>
<polygon class="st0" points="217.8,152 204.1,160.1 205.6,182.3 177.4,198.3 149.8,285.3 159.3,313.4 183.5,278.9 223.7,299.2 
	224.4,298.7 195.8,256.6 206.5,234.4 195.1,222.7 213.4,231.6 203.2,251 234.5,295.1 239.9,293.1 249.2,278 243.4,297.3 
	229.9,306.8 240.9,336.8 265,325.3 279.4,315.9 276,288.7 253.5,294.6 251.4,289.2 259.6,266.3 257.4,281.7 262.1,276.8 
	277.3,279.6 291.2,279.6 306,276.7 310.7,280.2 308.7,266.6 316.8,288.8 314.3,294.6 291.9,288.8 288.8,315.9 295.8,322.1 
	326.3,336.2 336.2,306.7 324.2,297.4 319.4,278.8 328.4,293.3 333.3,295.3 364.9,251 354.4,231.5 371.9,223.4 361.8,234.1 
	371.9,256.6 343.3,299.2 344.8,299.3 386.3,279.1 407.9,312.8 415.4,287.7 395.9,217.3 387.1,198.1 356.1,179.9 360,167.8 
	364.5,164.1 356.7,156 346.4,160.9 349.4,171.1 340,158.5 346.4,145.7 321.6,142.1 311.7,157.8 311,145.9 284.2,136.3 258.5,138.6 
	272.6,154.4 244.1,140.4 227.2,147.9 216.8,164.5 "/>
<polygon class="st0" points="163.8,327.1 178.6,371 192.6,330.5 208.6,315.5 199.3,330.2 185.2,387.2 191.7,403.5 212,422.1 
	211,370.3 223.2,351 216.8,370.4 225,433.4 267.9,469.3 242.6,409 255.8,390.8 250.5,411.8 285.7,484 292.6,477.9 321.4,399.7 
	318.8,379.6 329.4,400 306.6,465.3 343.9,432.3 351,420.5 350.9,385.6 343.5,359.9 359.8,386.3 360.4,417.9 379.6,401.3 
	384.8,391.5 370.5,333.9 360.8,319.3 376.9,334.5 391.8,377.1 394.4,372.3 407.2,324.1 382.4,289.2 349.6,303.9 320.3,366 
	287.1,377.3 285.5,383.9 285.4,391.7 277.8,378.1 267.6,371.8 270.4,379.8 250.1,363 218.8,303.6 185.9,289.1 "/>
<polygon class="st0" points="367.2,173.4 366.4,175.9 385.5,187.5 388.7,172.3 389.9,182.7 395.3,173.2 392.3,164.3 "/>
<polygon class="st0" points="195.3,171 196.3,177.8 182.2,185.3 179.4,174 177.4,181.9 172.7,172.8 175.3,164.3 "/>
<polygon class="st0" points="283.9,324.7 270.7,329.1 242.1,340.7 244.9,348 258.2,362.4 254.3,353.2 266.1,364.1 285,370 
	309.8,362.1 317.3,349.4 318.2,360.5 323.8,344.1 297.8,329.3 "/>
<polygon class="st1" points="250.3,247.6 236.5,243.7 229.3,230.3 224.2,227.8 244.2,227.7 257.9,240.4 256.3,246.2 256,255.6 "/>
<polygon class="st1" points="317.9,247.6 331.7,243.7 338.9,230.3 344,227.8 324,227.7 310.3,240.4 311.9,246.2 312.2,255.6 "/>
<polygon class="st1" points="226.4,178.4 267.5,188.2 283.4,196.7 299.3,188.4 341.1,178.2 283.7,185.4 "/>
<path class="st1" d="M148.2,177.7c1,0,1.9,0.8,1.9,1.8c0,1-0.8,1.8-1.9,1.8c-1,0-1.9-0.8-1.9-1.8
	C146.4,178.6,147.2,177.7,148.2,177.7"/>
<path class="st1" d="M130.8,177.7c1,0,1.9,0.8,1.9,1.8c0,1-0.8,1.8-1.9,1.8c-1,0-1.9-0.8-1.9-1.8
	C128.9,178.6,129.8,177.7,130.8,177.7"/>
<path class="st1" d="M116.1,177.7c1,0,1.9,0.8,1.9,1.8c0,1-0.8,1.8-1.9,1.8c-1,0-1.9-0.8-1.9-1.8
	C114.3,178.6,115.1,177.7,116.1,177.7"/>
<path class="st1" d="M144.9,180.1l-0.9-2.5l-0.3,0.2c-0.9,0.6-2.5,1.2-3.6,1.2c-1.8,0-3.2-1-3.2-2.9c0-1.9,1.3-2.8,3.1-2.8
	c1,0,2,0.3,2.9,0.7l0.3,0.2l0.9-2.5l-0.2-0.1c-1.2-0.6-2.4-0.9-3.8-0.9c-3.5,0-6.1,1.7-6.1,5.4c0,3.8,2.5,5.5,6.1,5.6
	c1.4,0,3.3-0.6,4.6-1.4L144.9,180.1z"/>
<polygon class="st1" points="128.9,173.4 128.9,170.9 120.2,170.9 120.2,181.3 123,181.3 123,177.5 127.6,177.5 127.6,175.2 
	123,175.2 123,173.4 "/>
<path class="st1" d="M105.7,173.3l1.9,0c0.8,0,1.2,0.4,1.3,1.2c0,0.8-0.6,1.2-1.3,1.2h-1.8V173.3z M103,170.8v10.4h2.7V178h1.5
	l0,0.1c0.5,1.3,1.3,3,2.8,3.3c0.8,0.1,1.9-0.1,2.7-0.4l0.3-0.1l-0.8-1.9l-0.2,0.1c-0.6,0.1-1,0.4-1.4-0.3l-0.6-1.2l0.1-0.1
	c1-0.6,1.5-1.7,1.5-2.9c0-2.6-1.8-3.7-4.2-3.7H103z"/>
<path class="st1" d="M122.5,243.9c-1,0-1.9,0.8-1.9,2.7c0,1.9,0.9,2.8,1.9,2.8c1,0,1.9-0.9,1.9-2.8
	C124.4,244.7,123.5,243.9,122.5,243.9 M122.5,242.1c2.7,0,4.2,2,4.2,4.6s-1.5,4.6-4.2,4.6c-2.7,0-4.2-2-4.2-4.6
	S119.8,242.1,122.5,242.1z"/>
<polygon class="st1" points="133.3,250.8 131,250.8 131,244.6 128.8,246 127.8,244.2 131.2,242.3 133.3,242.3 "/>
<polygon class="st1" points="141.6,250.8 139.4,250.8 139.4,249.3 135,249.3 135,247.5 137.3,242.3 139.8,242.3 137.5,247.5 
	139.4,247.5 139.4,245.5 141.6,245.5 141.6,247.5 142.7,247.5 142.7,249.3 141.6,249.3 "/>
<path class="st1" d="M109.8,250.8l0-1.7l3.3-2.3c0.6-0.4,1.5-1.1,1.5-1.7c0-0.9-0.8-1.2-1.6-1.2c-0.8,0.1-1.6,0.3-2.4,0.8l-0.9-1.8
	c0.9-0.4,2-0.8,3.2-0.9c3.1-0.2,3.9,1.5,4,2.8c0,1-0.4,1.5-0.9,2c-0.8,0.8-1.8,1.5-2.7,2.1h3.8l0,1.8H109.8z"/>
<path class="st1" d="M111.1,234.7l-0.9-2.2l-0.8,2.2H111.1z M111.9,236.8h-3.3l-0.6,1.8h-2.7l3.7-9.2h2.7l3.8,9.2h-2.7L111.9,236.8z
	"/>
<path class="st1" d="M141.6,231.9c-1.4,0-2.4,0.8-2.4,2.4c0,1.6,1,2.4,2.4,2.4c1.4,0,2.4-0.8,2.4-2.4
	C144,232.7,143,231.9,141.6,231.9 M141.9,229.7c3.1,0,4.7,2,4.7,4.5s-1.7,4.5-4.7,4.5c-3.1,0-4.7-2-4.7-4.5S138.9,229.7,141.9,229.7
	z"/>
<polygon class="st1" points="121.9,234.1 121.9,229.4 124.5,229.4 124.5,238.6 122.3,238.6 118.5,234.2 118.5,238.6 116,238.6 
	116,229.4 117.8,229.4 "/>
<polygon class="st1" points="132.5,234.1 132.5,229.4 135.1,229.4 135.1,238.6 132.9,238.6 129.2,234.2 129.2,238.6 126.6,238.6 
	126.6,229.4 128.5,229.4 "/>
<path class="st1" d="M122.8,201.1l-1.1,4.7l3.3,3.3l4.7-1.3l1.1-4.7l-3.4-3.3L122.8,201.1z M133.8,211.5l4.3-1.2l1.4-4.4l-3.4-3.4
	l-4.7,1l-1.1,4.6L133.8,211.5z M118.7,215.5l4.5-1.1l1.2-4.8l-3.3-3.3l-4.7,1.1l-1.3,4.6L118.7,215.5z M112.7,196.8
	c1.4-2.4,3.5-4.5,5.9-5.9l1.2,1.2l-1.2,4.6l-4.7,1.3L112.7,196.8z M110.6,203.6c0.1-2.2,0.7-4.3,1.7-6.1l1.1,1.1l-1.2,4.8
	L110.6,203.6z M112.4,212.1c-1.2-2.2-1.9-4.7-1.9-7.4c0-0.1,0-0.2,0-0.4l1.8-0.3l3.5,3.3l-1.2,4.4L112.4,212.1z M126.3,220.4
	c-2.8,0-5.5-0.8-7.8-2.1l0.5-2.1l4.4-1.1l3.5,3.3L126.3,220.4z M133.4,218.7c-2,1-4.1,1.6-6.5,1.7l0.5-1.9l4.6-1.2L133.4,218.7z
	 M140,212.4c-1.4,2.5-3.5,4.6-5.9,6l-1.5-1.5l1.3-4.6l4.6-1.3L140,212.4z M140.3,197.3c1.1,2.2,1.8,4.7,1.8,7.3c0,0.1,0,0.2,0,0.3
	l-2.1,0.4l-3.5-3.5l1-4.2L140.3,197.3z M134,190.9c2.4,1.4,4.5,3.4,5.9,5.8l-2.7,0.4l-3.6-3.5L134,190.9z M126.3,188.9
	c2.5,0,4.9,0.6,7.1,1.7l-0.5,2.8l-4.4,0.8l-3.2-3.4l0.3-1.9C125.8,188.9,126.1,188.9,126.3,188.9z M119.2,197l3.4,3.4l4.6-1.3
	l0.8-4.5l-3.2-3.3l-4.3,0.9L119.2,197z M126.3,188.2c9.1,0,16.4,7.4,16.4,16.4c0,9.1-7.4,16.4-16.4,16.4c-9.1,0-16.4-7.4-16.4-16.4
	C109.9,195.6,117.2,188.2,126.3,188.2z"/>
<path class="st1" d="M437.9,192.1h6c-0.9,1.6-1.4,3-1.6,4.4c1.5-0.2,3-0.9,4.4-1.7v6.1c-1.4-0.9-3-1.5-4.4-1.7
	c0.2,1.5,0.9,3,1.7,4.4h-6.1c0.9-1.4,1.5-3,1.7-4.4c-1.5,0.2-2.9,0.8-4.4,1.7v-6c1.6,0.9,3,1.4,4.4,1.6
	C439.3,195,438.7,193.6,437.9,192.1"/>
<path class="st1" d="M427.7,220.5c-0.1,0.2-0.3,0.4-0.6,0.5c-0.9,0.5-2,0.2-2.5-0.7c-0.5-0.9-0.2-2,0.7-2.5c0.4-0.2,0.8-0.3,1.2-0.2
	c0.2-0.7,0.1-1.4-0.3-2c-0.8-1.3-2.5-1.8-3.8-1s-1.8,2.5-1,3.8c0.2,0.3,0.4,0.6,0.7,0.8c0.4,0.3,0.2,0.6,0,0.9
	c-0.2,0.3-0.4,0.6-0.8,0.4c-0.8-0.3-1.7-0.3-2.4,0.2c-1.3,0.8-1.8,2.5-1,3.8c0.8,1.3,2.5,1.8,3.8,1c0.8-0.4,1.2-1.2,1.4-2
	c0.1-0.4,0.5-0.5,0.9-0.5c0.4,0,0.8,0.1,0.9,0.7c0,0.4,0.1,0.7,0.3,1.1c0.8,1.3,2.5,1.8,3.8,1c1.3-0.8,1.8-2.5,1-3.8
	C429.3,221.1,428.5,220.6,427.7,220.5 M428.2,216.5c0.4-0.2,0.9-0.2,1.3,0.1l0.1-0.1c-0.2-0.6,0-1.3,0.6-1.6h0
	c0.6-0.3,1.3-0.2,1.7,0.3l29.4-17c0-0.7,0.3-1.3,0.9-1.6c0.9-0.5,2-0.2,2.5,0.7c0.5,0.9,0.2,2-0.7,2.5c-0.6,0.3-1.2,0.3-1.7,0.1
	l-2.4,1.4l0.2,0.4l2.2-1.3l0.6,1.1l-1.2,0.7l0.6,1l1.2-0.7l1.8,3.1l-2.4,1.4l-1-1.8l-1.5,0.9l1,1.8l-1.6,0.9l-1-1.8l-1.5,0.9l1,1.8
	l-2.4,1.4l-1.8-3.1l1.5-0.8l-0.6-1l-1.5,0.8l-0.6-1.1l2.4-1.4l-0.2-0.4l-22.4,13c0.3,0.6,0.1,1.4-0.5,1.8v0
	c-0.6,0.3-1.4,0.2-1.8-0.4c0.2,0.5,0,1.1-0.5,1.4c0.5,0.4,0.9,0.8,1.3,1.4c1.3,2.2,0.5,5-1.7,6.2c-2.1,1.2-4.6,0.6-6-1.3
	c-0.3,0.4-0.8,0.8-1.3,1.1c-2.2,1.3-5,0.5-6.2-1.7c-1.3-2.2-0.5-5,1.7-6.2c0.5-0.3,1.1-0.5,1.6-0.6c-0.8-2.1,0-4.4,2-5.6
	c2.2-1.3,5-0.5,6.2,1.7C428,215.2,428.2,215.9,428.2,216.5z"/>
<path class="st1" d="M453.6,220.5c0.1,0.2,0.3,0.4,0.6,0.5c0.9,0.5,2,0.2,2.5-0.7c0.5-0.9,0.2-2-0.7-2.5c-0.4-0.2-0.8-0.3-1.2-0.2
	c-0.2-0.7-0.1-1.4,0.3-2c0.8-1.3,2.5-1.8,3.8-1s1.8,2.5,1,3.8c-0.2,0.3-0.4,0.6-0.7,0.8c-0.4,0.3-0.2,0.6,0,0.9
	c0.2,0.3,0.4,0.6,0.8,0.4c0.8-0.3,1.7-0.3,2.4,0.2c1.3,0.8,1.8,2.5,1,3.8c-0.8,1.3-2.5,1.8-3.8,1c-0.8-0.4-1.2-1.2-1.4-2
	c-0.1-0.4-0.5-0.5-0.9-0.5c-0.4,0-0.8,0.1-0.9,0.7c0,0.4-0.1,0.7-0.3,1.1c-0.8,1.3-2.5,1.8-3.8,1c-1.3-0.8-1.8-2.5-1-3.8
	C451.9,221.1,452.7,220.6,453.6,220.5 M453,216.5c-0.4-0.2-0.9-0.2-1.3,0.1l-0.1-0.1c0.2-0.6,0-1.3-0.6-1.6h0
	c-0.6-0.3-1.3-0.2-1.7,0.3l-29.4-17c0-0.7-0.3-1.3-0.9-1.6c-0.9-0.5-2-0.2-2.5,0.7c-0.5,0.9-0.2,2,0.7,2.5c0.6,0.3,1.2,0.3,1.7,0.1
	l2.4,1.4l-0.2,0.4l-2.2-1.3l-0.6,1.1l1.2,0.7l-0.6,1l-1.2-0.7l-1.8,3.1l2.4,1.4l1-1.8l1.5,0.9l-1,1.8l1.6,0.9l1-1.8l1.5,0.9l-1,1.8
	l2.4,1.4l1.8-3.1l-1.5-0.8l0.6-1l1.5,0.8l0.6-1.1l-2.4-1.4l0.2-0.4l22.4,13c-0.3,0.6-0.1,1.4,0.5,1.8l0,0c0.6,0.3,1.4,0.2,1.8-0.4
	c-0.2,0.5,0,1.1,0.5,1.4c-0.5,0.4-0.9,0.8-1.3,1.4c-1.3,2.2-0.5,5,1.7,6.2c2.1,1.2,4.6,0.6,6-1.3c0.3,0.4,0.8,0.8,1.3,1.1
	c2.2,1.3,5,0.5,6.2-1.7c1.3-2.2,0.5-5-1.7-6.2c-0.5-0.3-1.1-0.5-1.6-0.6c0.8-2.1,0-4.4-2-5.6c-2.2-1.3-5-0.5-6.2,1.7
	C453.3,215.2,453.1,215.9,453,216.5z"/>
<path class="st1" d="M427.2,187.1c8.6-3.6,17.8-3.6,27.2,0v2c-9-3.6-18.3-3.6-27.2,0V187.1z"/>
<path class="st1" d="M426.8,189.8c9.1-3.7,18.6-4,27.9-0.1v1.3c-8.9-3.6-18.4-3.4-27.9,0.1V189.8z"/>
<path class="st1" d="M432.3,176.4c-0.4,1-0.5,1.8-0.2,2.8c0.2,0.8,0.8,1.7,1.2,2.4l0.5-0.1c0-0.9,0.3-2.2-0.2-3.3
	C433.5,177.4,432.9,176.8,432.3,176.4 M449.2,176.4c0.4,1,0.5,1.8,0.2,2.8c-0.2,0.8-0.8,1.7-1.2,2.4l-0.5-0.1c0-0.9-0.3-2.2,0.2-3.3
	C448.1,177.4,448.6,176.8,449.2,176.4z M433.2,181.9l1.1-0.2c0.3-0.1,0.6,0.2,0.7,0.5c0.1,0.3-0.2,0.6-0.5,0.7l-1.1,0.2
	c-0.3,0.1-0.6-0.2-0.7-0.5C432.7,182.2,432.9,181.9,433.2,181.9z M448.3,181.9l-1.1-0.2c-0.3-0.1-0.6,0.2-0.7,0.5
	c-0.1,0.3,0.2,0.6,0.5,0.7l1.1,0.2c0.3,0.1,0.6-0.2,0.7-0.5C448.9,182.2,448.6,181.9,448.3,181.9z M432.9,181.6
	c-0.4-0.8-2.1-2.3-2.7-1.5c-0.4,0.5-0.1,1.3,0.4,1.9c0.5,0.8,1.1,1.2,0.3,1.8c1.3,0.2,1.2-0.9,1-1.3c-0.3-0.4-0.8-0.9-0.5-1.3
	C431.6,180.7,432.1,181.9,432.9,181.6z M448.7,181.6c0.4-0.8,2.1-2.3,2.7-1.5c0.4,0.5,0.1,1.3-0.4,1.9c-0.5,0.8-1.1,1.2-0.3,1.8
	c-1.3,0.2-1.2-0.9-1-1.3c0.3-0.4,0.8-0.9,0.5-1.3C449.9,180.7,449.5,181.9,448.7,181.6z M434.3,181.4c0.1-0.9,1.1-3,1.9-2.5
	c0.5,0.3,0.6,1.2,0.4,1.9c-0.2,1-0.6,1.5,0.4,1.8c-1.1,0.7-1.5-0.3-1.4-0.9c0.1-0.5,0.4-1.1,0-1.4
	C435.1,180.1,435.1,181.4,434.3,181.4z M447.3,181.4c-0.1-0.9-1.1-3-1.9-2.5c-0.5,0.3-0.6,1.2-0.4,1.9c0.2,1,0.6,1.5-0.4,1.8
	c1.1,0.7,1.5-0.3,1.4-0.9c-0.1-0.5-0.4-1.1,0-1.4C446.5,180.1,446.5,181.4,447.3,181.4z M454.5,186.6c0.5-3.3,1.2-4.4,2.9-6.6
	c-1-0.2-1.9-0.7-2.7-1.5c0.3,0.8,0.4,1.9,0,3.1c-0.7-0.4-1.2-1.6-1.8-3c-0.2,1.7-0.6,3.2-1.4,4.7c1-0.2,1.7-0.2,2.3,0
	c-0.8,1.2-1.9,1.9-2.9,1.9c-1,0-2-0.5-2.3-1.8l-1.9-0.3c-0.3,0.5-0.9,1-1.8,1.2C448.1,184.6,451.3,185.4,454.5,186.6z M436.6,184.2
	c-0.8-0.2-1.4-0.7-1.6-1.2l-1.9,0.3c-0.3,1.3-1.4,1.8-2.4,1.9c-1,0-2-0.7-2.8-1.9c0.5-0.2,1.3-0.2,2.3,0c-0.8-1.4-1.3-3-1.4-4.7
	c-0.5,1.4-1.1,2.5-1.8,3c-0.4-1.2-0.3-2.3,0-3.1c-0.9,0.8-1.7,1.3-2.7,1.5c1.6,2.2,2.4,3.3,2.9,6.6
	C430.2,185.3,433.4,184.5,436.6,184.2z M438.1,176.3c0.7,1,1.3,1.9,1.7,2.8c-0.8-0.2-1.6-0.6-2.4-0.9c0.4,1.2,0.5,2.6,0.5,3.8
	c0.7-0.5,1.4-0.8,2.1-1c-0.3,1.1-1.3,2.3-2.5,3.1c2.2-0.2,4.6-0.2,6.9,0c-1.3-1-2.3-2-2.6-3.2c0.7,0.1,1.5,0.4,2.2,0.9
	c-0.2-1.2-0.1-2.5,0.4-3.7c-0.9,0.4-1.7,0.7-2.4,0.9c0.3-0.9,0.8-1.8,1.3-2.8C441.3,176.7,440,176.7,438.1,176.3z"/>
</svg>
