<?xml version="1.0" encoding="UTF-8" standalone="no"?>
<svg
   xmlns:dc="http://purl.org/dc/elements/1.1/"
   xmlns:cc="http://creativecommons.org/ns#"
   xmlns:rdf="http://www.w3.org/1999/02/22-rdf-syntax-ns#"
   xmlns:svg="http://www.w3.org/2000/svg"
   xmlns="http://www.w3.org/2000/svg"
   xmlns:sodipodi="http://sodipodi.sourceforge.net/DTD/sodipodi-0.dtd"
   xmlns:inkscape="http://www.inkscape.org/namespaces/inkscape"
   viewBox="0 0 224.61676 252"
   id="svg64"
   height="252"
   width="224.61676"
   version="1.1"
   sodipodi:docname="fk-shakhtyor-soligorsk.svg"
   inkscape:version="0.92.4 (5da689c313, 2019-01-14)">
  <sodipodi:namedview
     pagecolor="#ffffff"
     bordercolor="#666666"
     borderopacity="1"
     objecttolerance="10"
     gridtolerance="10"
     guidetolerance="10"
     inkscape:pageopacity="0"
     inkscape:pageshadow="2"
     inkscape:window-width="1366"
     inkscape:window-height="705"
     id="namedview39"
     showgrid="false"
     inkscape:zoom="1.3244222"
     inkscape:cx="282.4531"
     inkscape:cy="109.88131"
     inkscape:window-x="-8"
     inkscape:window-y="-8"
     inkscape:window-maximized="1"
     inkscape:current-layer="svg64"
     fit-margin-top="1"
     fit-margin-bottom="1"
     fit-margin-left="1"
     fit-margin-right="1" />
  <metadata
     id="metadata70">
    <rdf:RDF>
      <cc:Work
         rdf:about="">
        <dc:format>image/svg+xml</dc:format>
        <dc:type
           rdf:resource="http://purl.org/dc/dcmitype/StillImage" />
        <dc:title></dc:title>
      </cc:Work>
    </rdf:RDF>
  </metadata>
  <defs
     id="defs68" />
  <g
     id="g89"
     transform="translate(-1.0948039e-7,-6.4067798)">
    <g
       id="g83">
      <g
         id="g153"
         transform="translate(3.2203404e-7,6.4067796)">
        <g
           id="g111">
          <g
             transform="matrix(0.44097225,0,0,0.44097225,-18.941722,-59.624997)"
             id="Layer1000">
            <path
               id="path2"
               style="fill:#1b1918;fill-rule:evenodd"
               d="m 47.5633,172.1344 c 81.3818,-23.6554 164.9187,-34.6541 249.6295,-34.6541 29.3575,0 58.7176,0.9953 87.971,3.5275 26.5666,2.2991 52.9404,5.8836 79.1382,10.8633 28.1446,5.3499 55.9057,12.2686 83.4102,20.2633 l 2.1203,0.6162 0.003,2.2078 c 0.0176,14.3043 0.2013,28.6081 0.2171,42.9127 0.014,12.3732 -0.0868,24.7553 -0.5429,37.1207 -0.4288,11.6337 -1.1621,23.3083 -2.5734,34.8673 -0.8834,7.2338 -1.8865,14.4529 -3.0103,21.6532 -7.0586,45.2244 -18.9544,90.8986 -37.0032,133.0239 -23.0731,53.8533 -54.1599,104.9061 -91.1094,150.3616 -33.0385,40.6441 -72.2051,78.6121 -115.7601,107.8806 l -2.4151,1.631 -2.407,-1.6251 C 251.6721,673.514 212.5041,635.5452 179.4652,594.9007 142.5146,549.4445 111.4266,498.3906 88.3532,444.5362 70.3043,402.4109 58.4086,356.7367 51.3499,311.5123 c -1.1237,-7.2003 -2.1268,-14.4194 -3.0102,-21.6532 -1.4113,-11.559 -2.1446,-23.2336 -2.5734,-34.8673 -0.4561,-12.3654 -0.5569,-24.7475 -0.5429,-37.1207 0.0158,-14.3046 0.1991,-28.6084 0.2171,-42.9127 l 0.0026,-2.2078 z m 0.822,2.8277 c 69.6446,-20.2438 151.8928,-34.537 248.8075,-34.537 96.915,0 168.2087,10.8507 249.6975,34.537 0.0467,37.7424 1.324,80.1302 -2.8774,114.5399 -6.5591,53.7138 -19.843,107.3016 -39.7971,153.8743 -47.1602,110.0731 -126.0709,203.3771 -205.8094,256.9609 l -0.7686,0.519 -0.7631,-0.5153 C 217.1344,646.7578 138.2211,553.4519 91.0598,443.3763 71.1057,396.8036 57.8218,343.2158 51.2627,289.502 47.0613,255.0923 48.3382,212.7045 48.3853,174.9621 Z"
               inkscape:connector-curvature="0" />
            <path
               id="path4"
               style="fill:#db0620;fill-rule:evenodd"
               d="m 87.627,361.6493 c 3.1317,13.5791 6.777,27.0227 11.0583,40.2098 h 398.569 c 4.1536,-13.0086 7.6594,-26.2674 10.6634,-39.6591 -41.7819,-14.3808 -123.577,-32.4297 -208.3349,-32.4297 -75.2794,0 -148.8383,9.6577 -211.9558,31.879 z m 37.943,104.3013 c 11.4975,22.8713 24.7317,45.5431 39.4559,67.4647 h 265.9872 c 14.7243,-21.9216 27.9581,-44.5934 39.4556,-67.4647 z m 88.8607,131.5562 c 25.4796,28.8338 53.5919,54.8858 83.5888,76.4508 29.9966,-21.565 58.1088,-47.617 83.5885,-76.4508 z"
               inkscape:connector-curvature="0" />
            <g
               id="Layer1001">
              <path
                 id="path6"
                 style="fill:#d5dee0;fill-rule:evenodd"
                 d="m 98.6853,401.8591 c 3.6199,11.1481 7.6943,22.113 12.3,32.8195 4.4871,10.4307 9.3603,20.8718 14.5884,31.272 H 470.465 c 5.2281,-10.4006 10.1013,-20.8413 14.5884,-31.272 4.6056,-10.7065 8.6411,-21.671 12.2009,-32.8195 z"
                 inkscape:connector-curvature="0" />
              <path
                 id="path8"
                 style="fill:#d5dee0;fill-rule:evenodd"
                 d="m 165.0259,533.4153 c 15.0051,22.3398 31.5591,43.8974 49.4048,64.0915 H 381.608 c 17.8457,-20.1941 34.4001,-41.7517 49.4051,-64.0915 z"
                 inkscape:connector-curvature="0" />
            </g>
            <path
               id="path11"
               style="fill:#1b1918;fill-rule:evenodd"
               d="m 69.8236,189.9035 c -0.2967,30.4917 1.1588,63.7463 4.6597,93.7355 25.924,-9.5054 55.1818,-17.1728 86.5366,-22.8033 v -90.5352 c -30.6547,4.9601 -61.0698,11.5288 -91.1963,19.603 z m 180.587,60.7934 c 15.5661,-0.8128 31.335,-1.1672 47.1911,-1.0402 14.9547,0.12 30.4364,0.6478 45.626,1.5088 V 160.363 c -15.0368,-0.7766 -30.2329,-1.165 -45.6551,-1.165 -15.7652,0 -31.488,0.4495 -47.162,1.3344 z m 182.2078,10.1944 c 38.7098,6.5113 68.7803,14.8697 88.2449,22.3413 3.4156,-29.8957 4.1742,-63.0016 3.879,-93.367 -30.9654,-8.4382 -61.4773,-15.1089 -92.1239,-20.0454 z"
               inkscape:connector-curvature="0" />
            <g
               id="Layer1002">
              <path
                 id="path13"
                 style="fill:#ffd700;fill-rule:evenodd"
                 d="m 161.0199,260.8357 c 28.3839,-5.097 58.4861,-8.5251 89.3907,-10.1388 v -90.1645 c -29.9902,1.6928 -59.802,4.981 -89.3907,9.7681 z"
                 inkscape:connector-curvature="0" />
              <path
                 id="path15"
                 style="fill:#ffd700;fill-rule:evenodd"
                 d="m 343.2277,251.1655 c 19.7483,1.1194 39.0027,2.8012 55.9631,4.8813 11.7552,1.4418 22.9093,3.0751 33.4276,4.8445 v -91.0711 c -29.4963,-4.7514 -59.1185,-7.8935 -89.3907,-9.4572 z"
                 inkscape:connector-curvature="0" />
            </g>
            <path
               id="path18"
               style="fill:#ffffff;fill-rule:evenodd"
               d="m 289.178,194.1184 9.8949,10.0717 10.0717,-9.895 -6.4983,-6.6143 9.6589,-9.4894 13.853,14.1004 -3.2097,16.0539 -9.0779,-9.2401 -10.0717,9.8949 19.1266,19.4683 -4.8104,4.726 -19.1266,-19.4683 -19.4683,19.1266 -4.726,-4.8104 19.4683,-19.1266 -9.895,-10.0717 -6.6143,6.4982 -9.4894,-9.6589 18.0391,-17.7225 9.4894,9.6589 z"
               inkscape:connector-curvature="0" />
            <g
               id="Layer1003">
              <path
                 id="path20"
                 style="fill:#1b1918;fill-rule:evenodd"
                 d="m 262.3263,412.6557 c 2.9297,12.4509 6.1557,24.83 9.0828,37.2816 7.0339,1.9719 13.9954,4.1974 20.9185,6.526 8.5263,2.8682 16.9958,5.9068 25.3891,9.1427 7.2434,-10.1911 19.0093,-19.9265 29.6546,-26.44 0.3298,-15.5613 -3.3592,-28.8444 -11.1979,-42.2714 -10.8989,-8.1508 -25.2992,-12.9964 -38.7852,-14.04 -13.7476,7.2059 -26.0237,17.1044 -35.0619,29.8011 z"
                 inkscape:connector-curvature="0" />
              <path
                 id="path22"
                 style="fill:#1b1918;fill-rule:evenodd"
                 d="m 317.3869,467.4513 c -8.4773,-3.2738 -17.0326,-6.346 -25.6456,-9.2433 -6.9416,-2.3348 -13.9215,-4.5658 -20.9749,-6.5396 -9.2742,9.431 -18.2782,18.9206 -28.3504,27.5351 -0.6254,13.8011 2.0042,30.5554 10.7296,41.6572 11.0672,9.0827 24.7125,13.1826 38.8721,13.6449 13.6641,-5.4298 26.0612,-18.3691 34.3659,-30.238 -2.7814,-12.3276 -6.2235,-24.4865 -8.9967,-36.8163 z"
                 inkscape:connector-curvature="0" />
              <path
                 id="path24"
                 style="fill:#1b1918;fill-rule:evenodd"
                 d="m 300.1692,551.5422 c 13.4782,1.6473 26.9115,0.5452 39.739,-4.0498 7.9512,-2.8479 15.2866,-6.9077 22.0383,-11.9653 2.4331,-3.0364 4.6255,-6.2072 6.3161,-9.7218 -0.3802,-8.3127 -2.397,-16.3619 -6.7755,-23.4963 -11.6245,3.9474 -21.7461,4.5154 -33.8601,3.3894 -8.2347,11.6731 -20.1478,24.0511 -33.3919,29.8732 1.874,5.3614 4.0623,10.6086 5.9341,15.9706 z"
                 inkscape:connector-curvature="0" />
              <path
                 id="path26"
                 style="fill:#1b1918;fill-rule:evenodd"
                 d="m 349.2055,439.4428 c 10.2169,4.7794 18.6699,11.9893 25.8975,20.5818 8.0937,-1.6182 14.1121,-7.7186 18.0621,-14.6694 0.282,-4.2206 0.2061,-8.4305 -0.0924,-12.6474 -3.812,-12.1859 -9.9467,-23.365 -18.8487,-32.585 -5.6945,-5.8981 -12.4193,-10.867 -19.765,-14.5167 -5.3591,3.6582 -11.0234,7.4304 -15.9757,11.6139 7.5735,13.3928 11.0867,26.8198 10.7222,42.2228 z"
                 inkscape:connector-curvature="0" />
              <path
                 id="path28"
                 style="fill:#ffffff;fill-opacity:1;stroke:none;stroke-opacity:1"
                 d="M 297.7532,358.4472 A 100.9422,100.9422 0 0 1 398.6954,459.3894 100.9422,100.9422 0 1 1 297.7532,358.4472 Z"
                 inkscape:connector-curvature="0" />
              <path
                 id="path30"
                 style="fill:#1b1918;fill-rule:evenodd"
                 d="m 214.1097,457.2212 c -5.8693,3.5223 -10.6523,9.0364 -13.6785,15.1519 -0.5322,2.6363 -0.9548,5.298 -1.257,7.9704 l -0.0611,0.5397 c -0.9909,-4.5681 -1.6749,-9.2503 -2.0264,-14.0249 l 0.1646,0.2047 c 0.7608,0.946 1.5846,1.857 2.4945,2.6639 3.2908,-5.8682 8.142,-11.0731 13.9958,-14.4239 2.3194,-13.285 5.4136,-25.1366 10.7363,-37.5193 -1.8346,-7.5585 -1.2118,-15.9128 0.2481,-23.5048 -1.623,0.1166 -3.2544,0.5308 -4.7849,1.0604 l -0.2787,0.0965 c 4.0384,-4.9251 8.5347,-9.459 13.4212,-13.5419 l 0.102,0.0935 -0.0928,0.1321 c -2.1972,3.1233 -4.2055,6.328 -5.9775,9.7126 -1.7396,7.7753 -2.7331,16.546 -1.0955,24.4192 11.4121,-5.4166 22.5441,-6.2941 34.9037,-4.7982 9.0073,-12.6028 21.1383,-22.4973 34.7512,-29.7746 -1.2622,-5.4875 -2.8693,-10.8875 -4.1429,-16.3725 -7.5879,-2.033 -15.2175,-2.6588 -23.0528,-2.0757 -0.406,0.0298 -0.812,0.0637 -1.2173,0.1001 l -0.1645,0.0147 -0.0283,-0.141 c 2.3904,-0.7627 4.8198,-1.4374 7.2838,-2.0234 6.0979,0.0269 12.0758,0.8246 17.9701,2.4331 8.3849,-2.1346 16.2972,-3.5731 24.9139,-3.2797 6.1123,1.1959 12.0287,2.9392 17.6926,5.1846 7.3858,4.9233 13.8169,10.3962 18.9264,17.7522 8.0897,3.7969 15.4884,9.1472 21.6923,15.5735 7.3527,7.6159 12.9014,16.5842 16.818,26.38 -0.0299,-0.2702 -0.0604,-0.54 -0.091,-0.8102 l -0.0184,-0.162 0.1351,-0.032 c 3.879,10.4297 6.0791,21.6735 6.2812,33.4044 l -0.1807,-0.5039 c -1.1474,-3.2017 -2.5903,-6.4888 -4.7459,-9.155 -4.2423,6.7377 -10.4127,12.3383 -18.4107,13.892 -1.5121,12.3898 -5.5767,28.6909 -12.4048,39.2859 4.3137,6.9415 6.4748,14.7352 7.0667,22.8411 2.1434,-0.1292 4.3303,-0.7785 6.3371,-1.5007 l 0.2838,-0.1024 c -5.8144,7.2696 -12.6106,13.7194 -20.1904,19.1455 -5.0194,3.1122 -10.3277,5.7025 -15.8989,7.6983 -13.5043,4.8368 -27.6551,5.8881 -41.8216,3.9843 -6.9673,2.52 -13.8585,4.1735 -21.1891,5.0912 -9.7623,-1.9878 -19.0129,-5.3868 -27.5296,-9.9714 -4.0417,-4.3929 -7.7812,-9.0872 -11.4099,-13.8224 -5.1478,-1.6001 -10.0855,-3.6239 -14.7235,-6.3714 -1.4863,-1.5975 -2.9241,-3.2411 -4.3056,-4.9325 l 0.0961,-0.1008 0.1303,0.0979 c 5.6429,4.218 11.6701,7.0718 18.357,9.2352 4.4469,-3.7189 8.5365,-7.5847 12.6341,-11.6728 -8.1574,-11.2851 -10.7488,-27.4327 -10.2132,-41.1013 -10.7569,-6.0872 -18.4387,-13.226 -26.4444,-22.4402 z m 135.0958,-17.7784 c 10.2169,4.7794 18.6699,11.9893 25.8975,20.5818 8.0937,-1.6182 14.1121,-7.7186 18.0621,-14.6694 0.282,-4.2206 0.2061,-8.4305 -0.0924,-12.6474 -3.812,-12.1859 -9.9467,-23.365 -18.8487,-32.585 -5.6945,-5.8981 -12.4193,-10.867 -19.765,-14.5167 -5.3591,3.6582 -11.0234,7.4304 -15.9757,11.6139 7.5735,13.3928 11.0867,26.8198 10.7222,42.2228 z m -49.0363,112.0994 c 13.4782,1.6473 26.9115,0.5452 39.739,-4.0498 7.9512,-2.8479 15.2866,-6.9077 22.0383,-11.9653 2.4331,-3.0364 4.6255,-6.2072 6.3161,-9.7218 -0.3802,-8.3127 -2.397,-16.3619 -6.7755,-23.4963 -11.6245,3.9474 -21.7461,4.5154 -33.8601,3.3894 -8.2347,11.6731 -20.1478,24.0511 -33.3919,29.8732 1.874,5.3614 4.0623,10.6086 5.9341,15.9706 z m 17.2177,-84.0909 c -8.4773,-3.2738 -17.0326,-6.346 -25.6456,-9.2433 -6.9416,-2.3348 -13.9215,-4.5658 -20.9749,-6.5396 -9.2742,9.431 -18.2782,18.9206 -28.3504,27.5351 -0.6254,13.8011 2.0042,30.5554 10.7296,41.6572 11.0672,9.0827 24.7125,13.1826 38.8721,13.6449 13.6641,-5.4298 26.0612,-18.3691 34.3659,-30.238 -2.7814,-12.3276 -6.2235,-24.4865 -8.9967,-36.8163 z m -55.0606,-54.7956 c 2.9297,12.4509 6.1557,24.83 9.0828,37.2816 7.0339,1.9719 13.9954,4.1974 20.9185,6.526 8.5263,2.8682 16.9958,5.9068 25.3891,9.1427 7.2434,-10.1911 19.0093,-19.9265 29.6546,-26.44 0.3298,-15.5613 -3.3592,-28.8444 -11.1979,-42.2714 -10.8989,-8.1508 -25.2992,-12.9964 -38.7852,-14.04 -13.7476,7.2059 -26.0237,17.1044 -35.0619,29.8011 z"
                 inkscape:connector-curvature="0" />
            </g>
            <g
               id="Layer1004">
              <path
                 id="path33"
                 style="fill:#ffffff;fill-rule:evenodd"
                 d="m 266.2583,631.7543 v -19.1806 c -0.7237,0.0646 -1.6351,0.1196 -1.991,0.1471 -0.3501,0.0269 -0.6335,0.0409 -0.8305,0.0409 h -3.6239 v -3.9037 c 4.9351,0 6.9795,-1.5246 7.9815,-4.2922 h 4.289 v 27.1885 z"
                 inkscape:connector-curvature="0" />
              <path
                 id="path35"
                 style="fill:#ffffff;fill-rule:evenodd"
                 d="m 325.8899,631.7543 v -19.1806 c -0.7236,0.0646 -1.635,0.1196 -1.991,0.1471 -0.3501,0.0269 -0.6335,0.0409 -0.8304,0.0409 h -3.6239 v -3.9037 c 4.935,0 6.9794,-1.5246 7.9814,-4.2922 h 4.2891 v 27.1885 z"
                 inkscape:connector-curvature="0" />
              <path
                 id="path37"
                 style="fill:#ffffff;fill-rule:evenodd"
                 d="m 283.218,625.2882 c 0,1.2739 0.713,2.6438 2.7596,2.6438 1.5692,0 2.9186,-1.1185 2.9186,-2.0913 v -4.3954 c -1.2055,1.2372 -2.6609,1.8214 -4.5526,1.8214 -4.0288,0 -7.2055,-2.0672 -7.2055,-6.2505 v -5.8843 c 0,-4.3126 3.0689,-7.6156 8.2067,-7.6156 5.357,0 9.2632,2.8818 9.2632,7.6156 v 14.0507 c 0,4.328 -3.5466,7.2514 -8.3142,7.2514 -5.1055,0 -9.1557,-1.812 -9.1557,-7.1458 z m -0.3681,-14.8089 v 5.6649 c 0,1.7925 1.4772,2.7033 3.2333,2.7033 1.1669,0 2.813,-0.9786 2.813,-2.703 v -5.6649 c 0,-2.2945 -1.6833,-2.9024 -3.0769,-2.9024 -1.324,0 -2.9694,0.8912 -2.9694,2.9021 z"
                 inkscape:connector-curvature="0" />
              <path
                 id="path39"
                 style="fill:#ffffff;fill-rule:evenodd"
                 d="m 310.982,610.6623 c 0,-1.274 -0.713,-2.6439 -2.7596,-2.6439 -1.5692,0 -2.9186,1.1185 -2.9186,2.0913 v 4.3954 c 1.2055,-1.2372 2.6609,-1.8214 4.5526,-1.8214 4.0288,0 7.2055,2.0673 7.2055,6.2505 v 5.8843 c 0,4.3126 -3.0688,7.6156 -8.2067,7.6156 -5.3569,0 -9.2632,-2.8818 -9.2632,-7.6156 v -14.0507 c 0,-4.328 3.5466,-7.2514 8.3142,-7.2514 5.1055,0 9.1557,1.8121 9.1557,7.1459 z m 0.3681,14.8088 v -5.6649 c 0,-1.7925 -1.4771,-2.7033 -3.2333,-2.7033 -1.1669,0 -2.813,0.9786 -2.813,2.703 v 5.6649 c 0,2.2945 1.6833,2.9024 3.0769,2.9024 1.324,0 2.9694,-0.8912 2.9694,-2.9021 z"
                 inkscape:connector-curvature="0" />
              <path
                 id="path41"
                 style="fill:#ffffff;fill-rule:evenodd"
                 d="m 254.4104,616.1513 a 3.6846,3.6846 0 0 1 3.6846,3.6846 3.6846,3.6846 0 1 1 -3.6846,-3.6846 z"
                 inkscape:connector-curvature="0" />
              <path
                 id="path43"
                 style="fill:#ffffff;fill-rule:evenodd"
                 d="m 340.545,616.1513 a 3.6846,3.6846 0 0 1 3.6846,3.6846 3.6846,3.6846 0 1 1 -3.6846,-3.6846 z"
                 inkscape:connector-curvature="0" />
            </g>
            <g
               id="Layer1005">
              <path
                 id="path46"
                 style="fill:#1b1918;fill-rule:evenodd"
                 d="m 266.4079,264.6211 16.8962,-0.1769 9.6565,19.7602 9.3207,-19.959 16.7379,-0.1752 -15.2038,25.9531 16.7601,27.2499 -16.6838,0.1748 -10.8737,-21.1497 -10.8414,21.3771 -16.6837,0.1747 16.2909,-27.5961 z"
                 inkscape:connector-curvature="0" />
              <path
                 id="path48"
                 style="fill:#1b1918;fill-rule:evenodd"
                 d="m 354.8561,278.3311 -2.2978,40.7779 -14.5741,-0.8213 2.2978,-40.7778 -13.7678,-0.7758 0.703,-12.4749 42.6554,2.4036 -0.7029,12.4749 z"
                 inkscape:connector-curvature="0" />
              <path
                 id="path50"
                 style="fill:#1b1918;fill-rule:evenodd"
                 d="m 392.294,269.412 29.1707,3.7603 -1.4671,11.3809 -24.451,-3.1519 -1.28,9.9301 22.9892,2.9634 -1.2503,9.6994 -22.9892,-2.9635 -1.3204,10.2433 24.4509,3.1519 -1.467,11.3809 -27.409,-3.4278 c -6.1556,-0.7701 -10.4418,-4.1916 -9.5363,-11.216 l 4.361,-33.8312 c 0.5381,-4.1747 3.3,-8.809 10.1985,-7.9198 z"
                 inkscape:connector-curvature="0" />
              <path
                 id="path52"
                 style="fill:#1b1918;fill-rule:evenodd"
                 d="m 440.3286,276.4354 26.7275,6.3227 c 1.511,0.3572 10.0319,1.2337 12.6856,9.4189 1.0385,3.2024 1.2347,7.5389 -0.1424,13.4229 -1.874,8.0085 -4.3682,12.3511 -7.651,14.441 -5.293,3.3698 -12.017,1.0382 -13.7771,0.6231 l -12.5763,-2.966 -3.3089,14.0302 -14.2074,-3.3507 z m 25.2767,26.5124 c 1.8701,-7.9295 -1.6391,-9.0397 -4.8915,-9.8067 l -8.8359,-2.0839 -3.6317,15.3987 8.6311,2.0356 c 2.227,0.5252 6.9259,2.0974 8.728,-5.5437 z"
                 inkscape:connector-curvature="0" />
              <path
                 id="path54"
                 style="fill:#1b1918;fill-rule:evenodd"
                 d="m 221.3614,267.1647 10.7275,-0.7641 c 8.4158,-0.5994 11.1745,2.9368 13.6175,9.1138 l 16.7862,42.4402 -14.1931,1.0109 -3.47,-9.352 -19.2333,1.3699 -1.8469,9.7308 -14.5604,1.0371 z m 19.8994,32.8315 -8.9832,-24.211 -4.7818,25.1914 z"
                 inkscape:connector-curvature="0" />
              <path
                 id="path56"
                 style="fill:#1b1918;fill-rule:evenodd"
                 d="m 115.2506,284.6181 13.5628,-2.6774 8.0244,40.65 17.133,-3.3821 -8.0244,-40.65 13.5629,-2.6773 8.0244,40.6499 17.133,-3.3821 -8.0245,-40.6499 13.5629,-2.6774 10.2671,52.0111 -64.956,12.8225 c -5.2273,1.0319 -10.494,-0.5365 -12.1189,-8.7677 z"
                 inkscape:connector-curvature="0" />
              <path
                 id="path58"
                 style="fill:#1b1918;fill-rule:evenodd"
                 d="m 85.5861,306.7131 a 10.488,10.488 0 0 1 10.4879,10.488 10.488,10.488 0 1 1 -10.4879,-10.488 z"
                 inkscape:connector-curvature="0" />
              <path
                 id="path60"
                 style="fill:#1b1918;fill-rule:evenodd"
                 d="m 509.2651,306.7131 a 10.488,10.488 0 0 1 10.488,10.488 10.488,10.488 0 1 1 -10.488,-10.488 z"
                 inkscape:connector-curvature="0" />
            </g>
          </g>
        </g>
        <path
           inkscape:connector-curvature="0"
           id="path115"
           d="M 107.4977,245.82744 C 65.555706,215.68363 29.0002,164.46995 13.494487,114.13046 8.8877105,99.174497 5.0583632,79.960507 3.2676911,62.816869 3.0399673,60.636673 2.7652813,49.579784 2.6572778,38.246002 L 2.4609079,17.639127 9.0158653,15.884675 C 47.517406,5.5796372 87.132594,1.2239883 128.44206,2.7538891 c 32.97882,1.2213747 57.53003,4.9385755 87.82107,13.2966359 l 5.51286,1.521137 0.24437,3.993938 c 0.59809,9.77512 -0.0265,35.613815 -1.08777,44.995585 -2.95979,26.166429 -10.15271,52.843555 -20.16296,74.780495 -17.48534,38.31817 -44.75547,73.85358 -75.40837,98.26383 -3.72767,2.96851 -11.39573,8.61278 -12.767,9.39748 -0.20764,0.11882 -2.50109,-1.31018 -5.09656,-3.17555 z m 9.02466,-11.0398 c 24.76806,-18.98518 47.80287,-45.78907 65.05732,-75.70238 8.14714,-14.12436 16.0634,-31.99053 20.07305,-45.30277 1.10078,-3.65464 3.6588,-13.6823 3.52398,-13.81424 -0.0491,-0.04805 -2.38274,-0.792768 -5.18585,-1.654932 -14.71204,-4.525045 -34.13905,-8.448662 -52.28695,-10.560251 -38.00249,-4.421758 -81.423432,-1.532109 -114.011978,7.587456 -5.997107,1.67823 -13.452443,4.065667 -13.870686,4.441843 -0.282871,0.254424 1.552371,7.875654 3.234952,13.433834 5.523749,18.24697 16.757973,41.55062 28.598148,59.3224 17.493567,26.25737 36.565193,47.04716 57.730974,62.93194 1.55728,1.16873 2.9717,2.12824 3.14316,2.13225 0.17145,0.004 1.9687,-1.26281 3.99388,-2.81515 z M 55.160029,85.29785 c 7.862334,-1.546192 14.345021,-2.862396 14.405965,-2.924898 0.131529,-0.13489 -4.362299,-22.700118 -4.562054,-22.90782 -0.217921,-0.226585 -6.206593,0.775119 -6.207873,1.03837 -7.55e-4,0.130344 0.776554,4.11749 1.727089,8.860324 0.950532,4.742838 1.638088,8.71349 1.527901,8.823678 -0.217239,0.217238 -6.783264,1.612027 -6.924378,1.470913 -0.04723,-0.04722 -0.847321,-3.961886 -1.777995,-8.69925 -0.930673,-4.737364 -1.780682,-8.701938 -1.888902,-8.810163 -0.243201,-0.2432 -5.848392,0.691676 -6.034394,1.006462 -0.074,0.125228 0.612599,4.050109 1.525771,8.721958 0.913172,4.671848 1.590694,8.676255 1.505607,8.89868 -0.1224,0.319974 -6.647559,1.774355 -6.902496,1.538486 -0.03609,-0.03341 -0.826111,-3.935761 -1.755566,-8.67191 -0.929453,-4.736144 -1.784173,-8.70543 -1.899376,-8.820635 -0.227267,-0.227265 -5.069308,0.586743 -5.766976,0.969502 -0.302042,0.165707 0.110837,2.941185 1.410775,9.483585 1.010782,5.087124 2.032888,9.722258 2.271347,10.300299 0.628178,1.522751 2.101032,2.535634 3.685598,2.534584 0.750641,-3.77e-4 7.797619,-1.26597 15.659957,-2.812165 z M 176.76089,84.71321 c 0.14471,-0.726732 0.41921,-1.934757 0.61001,-2.684499 l 0.3469,-1.363168 3.68045,0.890535 c 2.02425,0.489791 4.24102,0.89086 4.92615,0.891264 3.58894,0.0023 6.1059,-3.594001 6.72159,-9.603489 0.29049,-2.835357 -0.60974,-5.288132 -2.41185,-6.571345 -0.7301,-0.519879 -3.72635,-1.423926 -8.25116,-2.489591 -3.90762,-0.920311 -7.16079,-1.61726 -7.22928,-1.548777 -0.16387,0.163871 -5.35368,22.162709 -5.3599,22.719809 -0.007,0.591526 6.14729,1.99544 6.46416,1.474699 0.1319,-0.216758 0.35822,-0.988706 0.50293,-1.715438 z M 21.031737,84.395475 c 2.900004,-1.555286 3.356422,-5.097551 0.964956,-7.489017 -1.087258,-1.087259 -1.505708,-1.253803 -3.150206,-1.253803 -2.317786,0 -3.987345,1.214005 -4.632937,3.368801 -0.362571,1.210154 -0.314654,1.679748 0.317143,3.108027 1.199453,2.711564 3.909139,3.656047 6.501044,2.265992 z m 186.786623,0.06178 c 1.87266,-0.888637 2.93479,-3.293176 2.37423,-5.374956 -0.5926,-2.200759 -2.24285,-3.429646 -4.6056,-3.429646 -1.6445,0 -2.06294,0.166544 -3.1502,1.253803 -2.39687,2.396868 -1.92274,6.045116 0.97769,7.523024 1.62267,0.826829 2.70561,0.833658 4.40388,0.02779 z m -43.49994,-2.292328 c 0.13562,-1.193917 0.27526,-2.422525 0.31031,-2.73024 0.0633,-0.555367 -0.78899,-0.723493 -8.50423,-1.677671 l -2.15006,-0.265905 0.22096,-1.957419 c 0.12153,-1.076579 0.27233,-2.018431 0.33511,-2.093007 0.0628,-0.07458 2.26519,0.154067 4.89422,0.508097 2.62903,0.354033 4.91115,0.499991 5.07137,0.324356 0.16022,-0.175635 0.40063,-1.191719 0.53422,-2.257962 l 0.24291,-1.938619 -1.2342,-0.216245 c -0.6788,-0.118931 -2.96372,-0.425336 -5.07758,-0.680893 l -3.84339,-0.464652 0.21543,-1.910761 c 0.11849,-1.050919 0.26025,-1.965223 0.31503,-2.031792 0.0548,-0.06656 2.40651,0.176964 5.22608,0.541176 2.81956,0.364215 5.22465,0.564038 5.34463,0.444058 0.21056,-0.21056 0.97185,-4.925443 0.81541,-5.050093 -0.0424,-0.03375 -3.25226,-0.458728 -7.13307,-0.944359 -7.82357,-0.979012 -8.71519,-0.889743 -9.78388,0.97957 -0.63438,1.109605 -2.60501,14.486827 -2.60331,17.671948 0.002,3.249292 1.24147,3.892135 9.62727,4.992041 3.53003,0.463009 6.53342,0.861477 6.67421,0.885484 0.14079,0.02401 0.36694,-0.933195 0.50256,-2.127112 z m -85.844738,-0.0911 1.366596,-0.0034 0.445639,-2.265139 c 0.436889,-2.22067 0.470085,-2.265138 1.691013,-2.265138 0.684952,0 2.513923,-0.107232 4.064376,-0.238293 l 2.819003,-0.238293 0.772681,2.031528 0.772684,2.031527 3.166309,-0.133685 c 1.741468,-0.07353 3.226505,-0.190347 3.300073,-0.259603 0.260978,-0.245677 -7.925392,-20.524041 -8.66527,-21.464639 -1.037165,-1.318545 -2.883985,-1.734138 -6.554952,-1.475074 l -3.12494,0.22053 -2.563307,11.556236 c -1.409822,6.35593 -2.648007,11.880376 -2.751528,12.276549 -0.173521,0.66406 -0.02877,0.70117 1.853405,0.475185 1.122893,-0.134821 2.656592,-0.246606 3.408218,-0.24841 z M 136.7219,80.088552 c 0.10403,-0.674823 0.28538,-3.435461 0.403,-6.134751 0.11762,-2.69929 0.31523,-6.204354 0.43911,-7.78903 l 0.22526,-2.881227 3.13247,0.195429 3.13247,0.195425 0.126,-2.874593 0.12599,-2.874597 -1.51009,-0.183608 c -2.32984,-0.283275 -17.23722,-1.031016 -17.39569,-0.872551 -0.0772,0.07723 -0.2516,1.336575 -0.38747,2.798534 -0.23921,2.573764 -0.21854,2.66574 0.65131,2.898543 0.4941,0.132239 1.89856,0.242755 3.12103,0.24559 l 2.22268,0.0052 -0.2317,3.114566 c -0.12743,1.713011 -0.33042,5.408018 -0.45109,8.211127 -0.12068,2.80311 -0.29571,5.470295 -0.38896,5.927076 -0.15672,0.767689 -0.005,0.840827 2.00366,0.966806 5.02159,0.314926 4.57367,0.403708 4.78202,-0.947893 z m -28.80483,-4.110234 2.33611,-4.582138 2.30311,4.487757 2.30311,4.487757 3.86961,0.107586 c 2.12829,0.05917 3.86961,0.01563 3.86961,-0.09678 0,-0.1124 -1.62846,-2.845939 -3.61881,-6.074535 -2.09058,-3.391173 -3.52843,-6.105727 -3.40478,-6.427962 0.11773,-0.306782 1.38267,-2.548334 2.811,-4.981221 1.42832,-2.432887 2.79656,-4.805673 3.04053,-5.272858 l 0.44358,-0.849427 h -3.81482 -3.81483 l -2.00959,4.247135 -2.00959,4.247135 -2.02247,-4.226114 -2.02247,-4.226118 -3.86961,-0.02103 c -2.12829,-0.01155 -3.869614,0.08173 -3.869614,0.207305 0,0.125583 1.505709,2.73004 3.346024,5.787682 l 3.34602,5.559357 -3.53478,5.957243 c -1.944135,3.276492 -3.534787,6.023426 -3.534787,6.104307 0,0.08088 1.6923,0.147052 3.760667,0.147052 h 3.76067 z M 17.661465,64.351199 c 20.210032,-7.011477 46.952007,-11.831254 73.41398,-13.2316 14.732615,-0.779638 36.466205,-0.385927 52.475715,0.950614 22.98059,1.91852 46.82502,6.420241 62.85122,11.866035 2.38433,0.81021 4.36741,1.440847 4.40683,1.401422 0.0394,-0.03942 0.25218,-1.769462 0.47279,-3.844521 0.77078,-7.250037 1.16363,-16.313178 1.16537,-26.885586 l 0.002,-10.654482 -1.982,-0.570872 C 206.41679,22.215596 192.7912,19.023656 186.31914,17.725284 138.20552,8.073125 88.577103,8.0196103 39.54354,17.567015 31.767337,19.081133 20.187879,21.699288 14.605123,23.205678 l -2.998293,0.809026 0.0036,4.960824 c 0.0067,9.221338 1.445173,34.185975 2.075076,36.012099 0.222046,0.643726 0.340834,0.62471 3.975972,-0.636428 z"
           style="fill:#ffffff;fill-opacity:1;stroke:none;stroke-opacity:1" />
      </g>
    </g>
    <path
       inkscape:connector-curvature="0"
       id="path44"
       d="m 181.21224,82.402474 c -1.39876,-0.339375 -2.20233,-0.665036 -2.20233,-0.892531 0,-0.337103 1.33241,-6.0789 1.43729,-6.19375 0.0268,-0.02938 1.18597,0.235614 2.57587,0.588876 3.13377,0.796489 3.58745,1.232842 3.37943,3.250353 -0.18269,1.771756 -0.83192,3.132524 -1.67861,3.518303 -0.83021,0.378267 -0.83668,0.377767 -3.51165,-0.271251 z"
       style="fill:#ffffff;fill-opacity:1;stroke:none;stroke-width:0.26694915;stroke-opacity:1" />
    <path
       inkscape:connector-curvature="0"
       id="path47"
       d="m 81.573463,79.211302 c 0,-0.307035 1.889899,-9.958285 1.964663,-10.033049 0.04807,-0.04807 0.888997,2.09416 1.868727,4.76051 0.97973,2.666351 1.735256,4.893982 1.678947,4.950291 -0.143041,0.143041 -5.512337,0.456927 -5.512337,0.322248 z"
       style="fill:#ffffff;fill-opacity:1;stroke:none;stroke-width:0.26694915;stroke-opacity:1" />
  </g>
</svg>
