<?xml version="1.0" encoding="UTF-8" standalone="no"?>
<svg
   xmlns:dc="http://purl.org/dc/elements/1.1/"
   xmlns:cc="http://creativecommons.org/ns#"
   xmlns:rdf="http://www.w3.org/1999/02/22-rdf-syntax-ns#"
   xmlns:svg="http://www.w3.org/2000/svg"
   xmlns="http://www.w3.org/2000/svg"
   viewBox="0 0 200.39306 252"
   height="252"
   width="200.39307"
   xml:space="preserve"
   id="svg2"
   version="1.1"><metadata
     id="metadata8"><rdf:RDF><cc:Work
         rdf:about=""><dc:format>image/svg+xml</dc:format><dc:type
           rdf:resource="http://purl.org/dc/dcmitype/StillImage" /><dc:title></dc:title></cc:Work></rdf:RDF></metadata><defs
     id="defs6"><clipPath
       id="clipPath18"
       clipPathUnits="userSpaceOnUse"><path
         id="path16"
         d="M 0,600 H 800 V 0 H 0 Z" /></clipPath></defs><g
     transform="matrix(1.3333333,0,0,-1.3333333,-362.45475,436.93226)"
     id="g10"><g
       transform="matrix(0.58392698,0,0,0.58392698,113.41779,58.02105)"
       id="g201"><g
         id="g12"><g
           id="g14"
           clip-path="url(#clipPath18)"><g
             id="g20"
             transform="translate(527.2783,301.0352)"><path
               d="m 0,0 0.062,0.192 -0.51,1.468 0.034,-0.065 -0.108,0.222 c -5.536,11.013 -26.569,35.855 -51.677,53.861 -29.35,21.049 -63.137,34.251 -74.045,37.04 l -1.034,0.243 -1.034,-0.243 C -139.221,89.929 -173.009,76.727 -202.358,55.678 -227.467,37.672 -248.5,12.83 -254.034,1.817 l -0.109,-0.222 0.035,0.065 -0.512,-1.468 0.063,-0.192 c -0.729,-11.137 1.366,-47.086 12.357,-81.361 9.395,-29.301 26.606,-56.895 35.416,-65.548 l 0.281,-0.277 -0.679,0.73 c 0,0 2.735,-1.779 2.797,-1.817 11.922,-4.567 42.897,-12.853 77.107,-13.313 34.209,0.46 65.183,8.746 77.105,13.313 0.063,0.038 2.797,1.817 2.797,1.817 l -0.678,-0.73 0.282,0.277 c 8.808,8.653 26.019,36.247 35.415,65.548 C -1.365,-47.086 0.729,-11.137 0,0"
               style="fill:#0a689b;fill-opacity:1;stroke:none;stroke-opacity:1"
               id="path22" /></g><g
             id="g24"
             transform="translate(507.3643,222.0586)"><path
               d="m 0,0 c -9.595,-29.91 -26.001,-54.713 -33.056,-61.933 -11.292,-4.361 -41.002,-12.357 -74.308,-12.805 -33.308,0.448 -63.018,8.444 -74.31,12.805 -7.055,7.22 -23.461,32.023 -33.055,61.933 -9.001,28.068 -12.123,59.199 -12.123,73.958 0,1.442 0.035,2.688 0.092,3.802 4.702,8.905 23.321,32.125 48.958,50.511 26.209,18.795 58.088,32.129 70.438,35.534 12.348,-3.405 44.227,-16.739 70.436,-35.534 C -11.29,109.885 7.328,86.665 12.03,77.76 12.089,76.646 12.122,75.4 12.122,73.958 12.122,59.199 9.001,28.068 0,0"
               style="fill:#2cb2e7;fill-opacity:1;stroke:none;stroke-opacity:1"
               id="path26" /></g><g
             id="g28"
             transform="translate(400,367.3296)"><path
               d="m 0,0 c 58.362,0 105.964,-47.599 105.964,-105.96 0,-58.364 -47.602,-105.967 -105.964,-105.967 -58.362,0 -105.964,47.603 -105.964,105.967 C -105.964,-47.599 -58.362,0 0,0"
               style="fill:#ffffff;fill-opacity:1;fill-rule:nonzero;stroke:none"
               id="path30" /></g><g
             id="g32"
             transform="translate(395.291,249.748)"><path
               d="m 0,0 -1.066,0.014 c -10.926,0.136 -22.566,-0.817 -34.607,-2.795 0.002,2.026 0.013,14.06 0.017,16.126 12.66,-2.566 24.11,-2.931 34.59,-2.88 l 1.075,0.005 0.012,21.116 -1.145,-0.069 c -6.034,-0.362 -11.416,-1.08 -20.024,-2.673 0.002,2.076 0.01,13.998 0.014,16.07 8.043,-1.478 13.492,-2.18 19.621,-2.511 l 1.225,-0.068 -0.092,1.225 c -0.452,6.086 -1.291,11.307 -2.944,20.139 2.083,0 13.989,-0.012 16.065,-0.012 -1.647,-8.829 -2.49,-14.046 -2.942,-20.119 l -0.094,-1.224 1.227,0.068 c 6.125,0.336 11.574,1.031 19.623,2.514 0.002,-2.072 0.01,-13.994 0.015,-16.07 -8.632,1.595 -14.017,2.313 -20.029,2.665 L 9.4,31.59 9.415,10.47 10.488,10.465 c 10.491,-0.037 21.949,0.332 34.592,2.893 0,-2.062 0.01,-14.104 0.013,-16.126 -12.046,1.977 -23.688,2.932 -34.607,2.79 L 9.421,0.008 c 0,0 0.004,-5.217 0.008,-11.135 0.739,-0.129 1.458,-0.285 2.154,-0.468 -0.002,4.718 -0.005,8.722 -0.005,9.464 10.866,0.073 22.436,-0.92 34.412,-2.953 l 1.26,-0.215 -0.018,21.275 -1.303,-0.279 C 33.389,13.02 22.016,12.606 11.568,12.623 c 0,1.787 -0.008,14.754 -0.011,16.668 5.76,-0.387 11.152,-1.144 19.892,-2.79 l 1.279,-0.24 -0.02,21.26 -1.275,-0.24 c -8.113,-1.525 -13.53,-2.264 -19.381,-2.638 0.493,5.754 1.368,10.993 3.047,19.92 l 0.239,1.276 -21.261,0.022 0.241,-1.281 c 1.684,-8.932 2.558,-14.178 3.049,-19.945 -5.858,0.372 -11.274,1.108 -19.38,2.634 l -1.278,0.241 -0.015,-21.262 1.279,0.24 c 8.721,1.643 14.107,2.403 19.891,2.793 -0.002,-1.912 -0.012,-14.875 -0.015,-16.662 -10.432,-0.02 -21.794,0.383 -34.361,3.065 l -1.299,0.279 -0.021,-21.271 1.261,0.216 c 11.972,2.029 23.542,3.022 34.412,2.956 -0.001,-0.776 -0.003,-4.833 -0.006,-9.459 0.697,0.183 1.417,0.34 2.157,0.468 C -0.004,-5.304 0,0 0,0"
               style="fill:#24629b;fill-opacity:1;fill-rule:nonzero;stroke:none"
               id="path34" /></g><g
             id="g36"
             transform="translate(358.0508,227.7432)"><path
               d="m 0,0 c 6.261,2.933 13.525,2.438 19.184,-1.065 2.567,3.806 7.788,9.353 15.891,11.475 0.003,4.626 0.005,8.683 0.006,9.459 -10.87,0.066 -22.439,-0.927 -34.412,-2.956 l -1.261,-0.216 0.022,21.271 1.299,-0.28 c 12.566,-2.681 23.928,-3.084 34.36,-3.064 0.003,1.787 0.014,14.75 0.015,16.662 -5.784,-0.39 -11.169,-1.15 -19.891,-2.793 l -1.278,-0.24 0.014,21.262 1.279,-0.242 c 8.105,-1.525 13.521,-2.261 19.379,-2.633 -0.491,5.767 -1.365,11.013 -3.048,19.945 l -0.242,1.281 21.261,-0.022 -0.239,-1.276 C 50.66,77.641 49.785,72.402 49.292,66.647 c 5.852,0.374 11.269,1.114 19.381,2.639 l 1.275,0.24 0.02,-21.26 -1.279,0.24 c -8.74,1.646 -14.131,2.403 -19.892,2.79 0.003,-1.914 0.012,-14.881 0.012,-16.668 10.447,-0.017 21.82,0.396 34.36,3.074 l 1.304,0.278 0.017,-21.274 -1.26,0.215 c -11.976,2.033 -23.545,3.026 -34.412,2.953 0,-0.742 0.003,-4.746 0.005,-9.464 C 56.928,8.288 62.147,2.741 64.715,-1.065 70.373,2.438 77.638,2.933 83.898,0 c 6.756,-3.167 10.907,-9.478 11.614,-17.495 12.713,13.312 20.538,31.332 20.538,51.121 0,40.814 -33.288,74.101 -74.101,74.101 -40.815,0 -74.102,-33.287 -74.102,-74.101 0,-19.791 7.825,-37.811 20.539,-51.123 C -10.907,-9.479 -6.757,-3.167 0,0"
               style="fill:#ee2d24;fill-opacity:1;stroke:none;stroke-opacity:1"
               id="path38" /></g><g
             id="g40"
             transform="translate(400,189.3721)"><path
               d="m 0,0 c -18.409,0 -35.858,6.997 -49.296,19.667 0.365,6.838 3.651,12.207 9.177,14.797 5.527,2.588 12.06,1.858 16.64,-1.86 l 1.967,-1.595 1.263,2.196 c 2.319,4.04 8.981,12.12 20.249,12.12 v 10e-4 -10e-4 c 11.268,0 17.93,-8.08 20.248,-12.12 l 1.264,-2.196 1.967,1.595 c 4.58,3.718 11.113,4.448 16.64,1.86 5.526,-2.59 8.812,-7.959 9.176,-14.797 C 35.858,6.997 18.409,0 0,0"
               style="fill:#0a689b;fill-opacity:1;stroke:none;stroke-opacity:1"
               id="path42" /></g><g
             id="g44"
             transform="translate(357.832,345.2432)"><path
               d="m 0,0 -4.469,-2.613 -0.802,1.366 c -0.374,0.641 -0.67,1.015 -0.887,1.122 -0.216,0.107 -0.457,0.085 -0.726,-0.069 -0.286,-0.171 -0.437,-0.416 -0.448,-0.739 -0.011,-0.322 0.126,-0.726 0.403,-1.204 0.363,-0.618 0.717,-1.035 1.069,-1.246 0.341,-0.219 1.015,-0.331 2.02,-0.335 2.885,-0.022 4.846,-0.275 5.88,-0.765 1.03,-0.49 2.08,-1.642 3.138,-3.456 0.773,-1.319 1.184,-2.376 1.242,-3.185 0.059,-0.803 -0.231,-1.675 -0.866,-2.616 -0.638,-0.942 -1.542,-1.754 -2.716,-2.442 -1.286,-0.752 -2.53,-1.151 -3.725,-1.195 -1.195,-0.046 -2.155,0.228 -2.876,0.817 -0.723,0.589 -1.494,1.577 -2.301,2.961 l -0.711,1.212 4.467,2.614 1.319,-2.249 c 0.402,-0.696 0.727,-1.104 0.968,-1.228 0.244,-0.125 0.525,-0.095 0.845,0.094 0.321,0.189 0.485,0.451 0.493,0.795 0.008,0.344 -0.132,0.76 -0.422,1.259 -0.636,1.088 -1.204,1.71 -1.695,1.874 -0.501,0.159 -1.578,0.275 -3.232,0.362 -1.661,0.094 -2.788,0.205 -3.388,0.335 -0.597,0.133 -1.209,0.438 -1.834,0.919 -0.626,0.486 -1.227,1.216 -1.799,2.2 -0.83,1.419 -1.255,2.558 -1.278,3.426 -0.019,0.868 0.265,1.719 0.855,2.562 0.592,0.846 1.459,1.598 2.601,2.269 1.25,0.731 2.433,1.152 3.549,1.259 1.115,0.112 1.996,-0.056 2.638,-0.503 0.647,-0.443 1.4,-1.401 2.259,-2.871 z"
               style="fill:#0a689b;fill-opacity:1;stroke:none;stroke-opacity:1"
               id="path46" /></g><g
             id="g48"
             transform="translate(369.6221,356.8599)"><path
               d="m 0,0 5.479,-16.233 3.21,1.083 1.37,-4.061 -8.485,-2.867 -6.852,20.299 z"
               style="fill:#0a689b;fill-opacity:1;stroke:none;stroke-opacity:1"
               id="path50" /></g><g
             id="g52"
             transform="translate(389.7061,355.5576)"><path
               d="M 0,0 C -0.122,0.984 -0.251,1.612 -0.396,1.874 -0.54,2.136 -0.78,2.248 -1.123,2.205 -1.41,2.17 -1.619,2.033 -1.743,1.788 -1.869,1.547 -1.864,0.881 -1.732,-0.215 l 1.22,-9.919 c 0.15,-1.238 0.292,-1.99 0.429,-2.269 0.137,-0.276 0.39,-0.391 0.757,-0.345 0.376,0.048 0.596,0.241 0.657,0.59 0.066,0.344 0.022,1.142 -0.13,2.389 z m 6.383,-6.305 c 0.263,-2.135 0.396,-3.653 0.406,-4.556 0.008,-0.898 -0.207,-1.749 -0.646,-2.548 -0.441,-0.8 -1.086,-1.453 -1.938,-1.956 -0.853,-0.507 -1.88,-0.829 -3.076,-0.98 -1.14,-0.137 -2.183,-0.077 -3.135,0.18 -0.951,0.263 -1.749,0.731 -2.391,1.411 -0.642,0.674 -1.069,1.444 -1.28,2.307 -0.214,0.86 -0.455,2.382 -0.723,4.573 l -0.447,3.636 c -0.261,2.136 -0.394,3.653 -0.405,4.551 -0.006,0.899 0.207,1.75 0.647,2.549 0.439,0.8 1.086,1.453 1.937,1.96 0.854,0.503 1.878,0.83 3.079,0.976 1.137,0.141 2.18,0.077 3.132,-0.181 C 2.496,5.355 3.292,4.887 3.932,4.212 4.576,3.537 5.005,2.768 5.216,1.904 5.43,1.04 5.668,-0.481 5.937,-2.669 Z"
               style="fill:#0a689b;fill-opacity:1;stroke:none;stroke-opacity:1"
               id="path54" /></g><g
             id="g56"
             transform="translate(418.8252,360.3022)"><path
               d="m 0,0 -5.109,-20.978 -8.403,0.903 -0.895,21.631 5.838,-0.632 c 0.041,-5.935 -0.012,-10.942 -0.159,-15.021 0.73,4.058 1.425,7.663 2.082,10.813 l 0.809,3.916 z"
               style="fill:#0a689b;fill-opacity:1;stroke:none;stroke-opacity:1"
               id="path58" /></g><g
             id="g60"
             transform="translate(429.8682,342.9219)"><path
               d="M 0,0 C 0.518,2.385 1.22,5.308 2.105,8.771 0.249,5.084 -1.056,2.364 -1.803,0.615 Z m 7.245,12.073 -3.91,-21.292 -5.394,1.844 0.981,3.73 -1.89,0.65 -1.556,-3.538 -5.458,1.866 9.607,19.344 z"
               style="fill:#0a689b;fill-opacity:1;stroke:none;stroke-opacity:1"
               id="path62" /></g><g
             id="g64"
             transform="translate(459.6699,343.0166)"><path
               d="m 0,0 -11.367,-18.18 -4.143,2.587 2.709,9.808 -5.17,-8.269 -3.952,2.471 11.369,18.184 3.951,-2.471 -2.466,-9.846 5.118,8.187 z"
               style="fill:#0a689b;fill-opacity:1;stroke:none;stroke-opacity:1"
               id="path66" /></g><g
             id="g68"
             transform="translate(336.6309,207.5908)"><path
               d="m 0,0 -3.632,-3.086 c 0.158,-0.172 0.28,-0.306 0.365,-0.404 0.348,-0.413 0.67,-0.589 0.973,-0.523 0.301,0.059 0.935,0.501 1.905,1.326 0.508,0.435 0.827,0.788 0.956,1.053 0.126,0.267 0.15,0.5 0.079,0.693 C 0.573,-0.747 0.357,-0.435 0,0 m -6.173,-5.247 -4.569,-3.882 c 0.518,-0.571 0.932,-0.867 1.237,-0.886 0.306,-0.015 0.787,0.254 1.449,0.813 l 1.521,1.293 c 0.7,0.598 1.06,1.029 1.089,1.3 0.02,0.27 -0.221,0.725 -0.727,1.362 M -0.756,6.55 2.785,2.39 C 3.903,1.07 4.646,-0.013 5.016,-0.867 5.38,-1.723 5.423,-2.63 5.142,-3.584 4.859,-4.544 4.013,-5.617 2.601,-6.821 1.645,-7.63 0.855,-8.05 0.228,-8.075 c -0.625,-0.026 -1.408,0.304 -2.345,1.001 0.596,-1.153 0.785,-2.118 0.563,-2.901 -0.221,-0.782 -0.866,-1.625 -1.928,-2.528 l -1.512,-1.285 c -1.104,-0.936 -2.026,-1.508 -2.768,-1.709 -0.74,-0.207 -1.44,-0.121 -2.096,0.258 -0.656,0.373 -1.697,1.4 -3.122,3.08 l -4.105,4.828 z"
               style="fill:#0a689b;fill-opacity:1;stroke:none;stroke-opacity:1"
               id="path70" /></g><g
             id="g72"
             transform="translate(350.1504,194.6152)"><path
               d="m 0,0 -2.87,-3.804 c 0.493,-0.373 0.886,-0.561 1.188,-0.575 0.301,-0.008 0.735,0.361 1.304,1.113 l 0.71,0.942 c 0.41,0.541 0.583,0.97 0.522,1.284 C 0.789,-0.73 0.506,-0.383 0,0 M -2.164,6.225 0.932,3.891 C 2.995,2.334 4.328,1.199 4.935,0.486 5.544,-0.227 5.828,-1.087 5.786,-2.102 5.742,-3.115 5.173,-4.35 4.072,-5.811 3.069,-7.139 2.229,-7.912 1.562,-8.122 0.892,-8.338 0.043,-8.131 -0.981,-7.499 -0.282,-8.371 0.078,-9.102 0.1,-9.691 c 0.021,-0.594 -0.047,-1.071 -0.204,-1.432 -0.161,-0.361 -0.762,-1.228 -1.801,-2.608 l -3.406,-4.513 -4.059,3.059 4.29,5.687 c 0.689,0.916 1.048,1.535 1.071,1.861 0.024,0.326 -0.268,0.714 -0.871,1.168 l -5.817,-7.713 -4.371,3.3 z"
               style="fill:#0a689b;fill-opacity:1;stroke:none;stroke-opacity:1"
               id="path74" /></g><g
             id="g76"
             transform="translate(362.7197,175.4463)"><path
               d="M 0,0 C 0.754,2.325 1.743,5.168 2.97,8.524 0.767,5.03 -0.794,2.451 -1.706,0.783 Z m 8.355,11.329 -6.036,-20.787 -5.102,2.329 1.347,3.614 -1.786,0.816 -1.893,-3.368 -5.163,2.355 11.423,18.33 z"
               style="fill:#0a689b;fill-opacity:1;stroke:none;stroke-opacity:1"
               id="path78" /></g><g
             id="g80"
             transform="translate(387.8281,182.0703)"><path
               d="m 0,0 -0.98,-4.173 -3.166,0.743 -3.933,-16.683 -5.334,1.254 3.931,16.684 -3.156,0.743 0.986,4.178 z"
               style="fill:#0a689b;fill-opacity:1;stroke:none;stroke-opacity:1"
               id="path82" /></g><g
             id="g84"
             transform="translate(398.6279,181.3311)"><path
               d="m 0,0 -1.064,-21.391 -5.47,0.272 1.064,21.39 z"
               style="fill:#0a689b;fill-opacity:1;stroke:none;stroke-opacity:1"
               id="path86" /></g><g
             id="g88"
             transform="translate(417.2061,176.4873)"><path
               d="M 0,0 -5.037,-0.701 -5.255,0.872 C -5.357,1.607 -5.485,2.067 -5.643,2.248 -5.8,2.433 -6.032,2.503 -6.33,2.462 -6.656,2.415 -6.885,2.248 -7.016,1.952 -7.145,1.659 -7.171,1.233 -7.096,0.687 c 0.098,-0.708 0.269,-1.228 0.507,-1.56 0.229,-0.335 0.801,-0.695 1.712,-1.083 2.617,-1.125 4.306,-2.109 5.062,-2.957 0.755,-0.85 1.278,-2.312 1.569,-4.392 0.209,-1.508 0.187,-2.647 -0.058,-3.413 -0.25,-0.764 -0.838,-1.456 -1.766,-2.083 -0.931,-0.624 -2.057,-1.023 -3.377,-1.208 -1.451,-0.203 -2.731,-0.095 -3.836,0.322 -1.107,0.416 -1.874,1.036 -2.314,1.858 -0.436,0.815 -0.764,2.022 -0.987,3.613 l -0.194,1.388 5.04,0.701 0.356,-2.583 c 0.113,-0.794 0.255,-1.294 0.429,-1.505 0.174,-0.206 0.439,-0.283 0.8,-0.231 0.36,0.047 0.608,0.228 0.744,0.542 0.137,0.312 0.164,0.751 0.087,1.323 -0.172,1.246 -0.453,2.042 -0.842,2.376 -0.398,0.336 -1.333,0.864 -2.806,1.578 -1.478,0.717 -2.462,1.256 -2.957,1.603 -0.495,0.348 -0.934,0.868 -1.325,1.551 -0.389,0.689 -0.661,1.59 -0.817,2.716 -0.226,1.629 -0.188,2.842 0.118,3.654 0.304,0.803 0.881,1.487 1.731,2.038 0.852,0.544 1.923,0.914 3.212,1.09 1.407,0.199 2.639,0.134 3.697,-0.193 1.058,-0.326 1.795,-0.815 2.214,-1.474 0.418,-0.662 0.747,-1.831 0.98,-3.515 z"
               style="fill:#0a689b;fill-opacity:1;stroke:none;stroke-opacity:1"
               id="path90" /></g><g
             id="g92"
             transform="translate(427.1143,186.3086)"><path
               d="m 0,0 5.721,-16.152 3.134,1.113 1.435,-4.039 -8.298,-2.941 -7.151,20.191 z"
               style="fill:#0a689b;fill-opacity:1;stroke:none;stroke-opacity:1"
               id="path94" /></g><g
             id="g96"
             transform="translate(448.0937,181.3916)"><path
               d="m 0,0 c -1.497,1.929 -3.292,4.345 -5.38,7.25 1.653,-3.786 2.912,-6.528 3.779,-8.222 z M -4.679,13.289 9.138,-3.403 4.344,-6.319 2.11,-3.168 0.43,-4.187 2.152,-7.651 -2.696,-10.599 -11.454,9.172 Z"
               style="fill:#0a689b;fill-opacity:1;stroke:none;stroke-opacity:1"
               id="path98" /></g><g
             id="g100"
             transform="translate(458.624,207.6562)"><path
               d="m 0,0 12.642,-17.519 -6.06,-5.69 -16.972,13.448 4.209,3.95 c 4.528,-3.843 8.294,-7.148 11.288,-9.923 -2.61,3.197 -4.897,6.072 -6.862,8.616 l -2.453,3.163 z"
               style="fill:#0a689b;fill-opacity:1;stroke:none;stroke-opacity:1"
               id="path102" /></g><g
             id="g104"
             transform="translate(476.2832,208.4199)"><path
               d="m 0,0 c -2.15,1.161 -4.769,2.643 -7.852,4.457 3.043,-2.797 5.302,-4.796 6.779,-5.99 z M -9.649,10.26 9.726,0.58 6.52,-4.019 3.204,-2.041 2.08,-3.652 5.056,-6.119 1.813,-10.775 -14.177,3.757 Z"
               style="fill:#0a689b;fill-opacity:1;stroke:none;stroke-opacity:1"
               id="path106" /></g><g
             id="g108"
             transform="translate(428.1172,440.123)"><path
               d="m 0,0 c 0,0 -18.199,2.644 -19.431,2.823 -0.549,1.115 -8.686,17.605 -8.686,17.605 0,0 -8.138,-16.49 -8.687,-17.605 C -38.035,2.644 -56.235,0 -56.235,0 c 0,0 13.168,-12.837 14.057,-13.705 -0.209,-1.225 -3.321,-19.353 -3.321,-19.353 0,0 16.28,8.558 17.382,9.136 1.1,-0.578 17.381,-9.136 17.381,-9.136 0,0 -3.113,18.128 -3.322,19.353 C -13.168,-12.837 0,0 0,0"
               style="fill:#096799;fill-opacity:1;stroke:none;stroke-opacity:1"
               id="path110" /></g><g
             id="g112"
             transform="translate(400,419.085)"><path
               d="m 0,0 c 0,0 -10.646,-5.594 -13.987,-7.352 0.637,3.721 2.673,15.576 2.673,15.576 0,0 -8.612,8.396 -11.315,11.03 3.735,0.543 14.974,2.175 14.974,2.175 l 0.664,0.097 c 0,0 5.32,10.781 6.991,14.167 1.67,-3.386 6.99,-14.167 6.99,-14.167 l 0.664,-0.097 c 0,0 11.239,-1.632 14.975,-2.175 C 19.925,16.62 11.313,8.224 11.313,8.224 c 0,0 2.036,-11.855 2.674,-15.576 C 10.646,-5.594 0,0 0,0"
               style="fill:#f7941d;fill-opacity:1;stroke:none;stroke-opacity:1"
               id="path114" /></g><g
             id="g116"
             transform="translate(482.3779,404.356)"><path
               d="m 0,0 c 0,0 -12.374,1.796 -13.402,1.946 -0.461,0.932 -5.014,10.159 -5.014,10.159 l -0.98,1.984 -0.98,-1.984 c 0,0 -4.552,-9.227 -5.013,-10.159 C -26.417,1.796 -38.791,0 -38.791,0 c 0,0 8.952,-8.726 9.698,-9.453 -0.175,-1.024 -2.291,-13.348 -2.291,-13.348 0,0 11.069,5.817 11.988,6.301 0.92,-0.484 11.989,-6.301 11.989,-6.301 0,0 -2.117,12.324 -2.292,13.348 C -8.952,-8.726 0,0 0,0"
               style="fill:#096799;fill-opacity:1;stroke:none;stroke-opacity:1"
               id="path118" /></g><g
             id="g120"
             transform="translate(462.9824,390.3223)"><path
               d="m 0,0 c 0,0 -6.488,-3.409 -9.087,-4.774 0.495,2.89 1.736,10.118 1.736,10.118 0,0 -5.248,5.116 -7.348,7.162 2.903,0.423 9.59,1.393 9.59,1.393 l 0.566,0.083 c 0,0 3.243,6.574 4.543,9.204 1.299,-2.63 4.542,-9.204 4.542,-9.204 l 0.567,-0.083 c 0,0 6.687,-0.97 9.59,-1.393 -2.1,-2.046 -7.348,-7.162 -7.348,-7.162 0,0 1.241,-7.228 1.736,-10.118 C 6.487,-3.409 0,0 0,0"
               style="fill:#f7941d;fill-opacity:1;stroke:none;stroke-opacity:1"
               id="path122" /></g><g
             id="g124"
             transform="translate(356.4121,404.356)"><path
               d="m 0,0 c 0,0 -12.374,1.796 -13.402,1.946 -0.461,0.932 -5.014,10.159 -5.014,10.159 l -0.98,1.984 -0.98,-1.984 c 0,0 -4.552,-9.227 -5.013,-10.159 C -26.417,1.796 -38.791,0 -38.791,0 c 0,0 8.951,-8.726 9.698,-9.453 -0.175,-1.024 -2.291,-13.348 -2.291,-13.348 0,0 11.068,5.817 11.988,6.301 0.92,-0.484 11.989,-6.301 11.989,-6.301 0,0 -2.117,12.324 -2.292,13.348 C -8.951,-8.726 0,0 0,0"
               style="fill:#096799;fill-opacity:1;stroke:none;stroke-opacity:1"
               id="path126" /></g><g
             id="g128"
             transform="translate(337.0166,390.3223)"><path
               d="m 0,0 c 0,0 -6.488,-3.409 -9.087,-4.774 0.495,2.89 1.736,10.118 1.736,10.118 0,0 -5.248,5.116 -7.349,7.162 2.903,0.423 9.59,1.393 9.59,1.393 l 0.567,0.083 c 0,0 3.243,6.574 4.543,9.204 1.299,-2.63 4.542,-9.204 4.542,-9.204 l 0.567,-0.083 c 0,0 6.687,-0.97 9.59,-1.393 C 12.599,10.46 7.35,5.344 7.35,5.344 c 0,0 1.242,-7.228 1.736,-10.118 C 6.487,-3.409 0,0 0,0"
               style="fill:#f7941d;fill-opacity:1;stroke:none;stroke-opacity:1"
               id="path130" /></g></g></g></g></g></svg>