<?xml version="1.0" encoding="UTF-8" standalone="no"?>
<svg
   xmlns:dc="http://purl.org/dc/elements/1.1/"
   xmlns:cc="http://creativecommons.org/ns#"
   xmlns:rdf="http://www.w3.org/1999/02/22-rdf-syntax-ns#"
   xmlns:svg="http://www.w3.org/2000/svg"
   xmlns="http://www.w3.org/2000/svg"
   xmlns:sodipodi="http://sodipodi.sourceforge.net/DTD/sodipodi-0.dtd"
   xmlns:inkscape="http://www.inkscape.org/namespaces/inkscape"
   width="211.01952"
   height="252.00002"
   viewBox="0 0 211.01952 252.00002"
   version="1.1"
   id="svg50"
   sodipodi:docname="trnava.svg"
   inkscape:version="0.92.4 (5da689c313, 2019-01-14)">
  <metadata
     id="metadata56">
    <rdf:RDF>
      <cc:Work
         rdf:about="">
        <dc:format>image/svg+xml</dc:format>
        <dc:type
           rdf:resource="http://purl.org/dc/dcmitype/StillImage" />
        <dc:title>logo-spartak</dc:title>
      </cc:Work>
    </rdf:RDF>
  </metadata>
  <defs
     id="defs54" />
  <sodipodi:namedview
     pagecolor="#ffffff"
     bordercolor="#666666"
     borderopacity="1"
     objecttolerance="10"
     gridtolerance="10"
     guidetolerance="10"
     inkscape:pageopacity="0"
     inkscape:pageshadow="2"
     inkscape:window-width="1366"
     inkscape:window-height="705"
     id="namedview52"
     showgrid="false"
     fit-margin-top="1"
     fit-margin-right="1"
     fit-margin-bottom="1"
     fit-margin-left="1"
     inkscape:zoom="0.98333333"
     inkscape:cx="-39.839075"
     inkscape:cy="264.57478"
     inkscape:window-x="-8"
     inkscape:window-y="-8"
     inkscape:window-maximized="1"
     inkscape:current-layer="svg50" />
  <!-- Generator: Sketch 54.1 (76490) - https://sketchapp.com -->
  <title
     id="title2">logo-spartak</title>
  <desc
     id="desc4">Created with Sketch.</desc>
  <g
     id="Design"
     transform="matrix(2.0845323,0,0,2.0845323,1.0000489,1.0000167)"
     style="fill:none;fill-rule:evenodd;stroke:none;stroke-width:1">
    <g
       id="Artboard">
      <g
         id="logo-spartak">
        <g
           id="g45">
          <path
             d="m 91.905679,83.368964 c -4.170797,8.266492 -9.899725,15.411255 -16.787199,21.507896 -5.253927,4.65065 -10.875997,8.43007 -16.501435,11.41321 -1.97362,1.04659 -3.810182,1.92024 -5.464481,2.62977 -0.584664,0.25076 -1.106626,0.46368 -1.560237,0.63983 -0.281015,0.10913 -0.482277,0.1836 -0.598138,0.22448 -0.554803,0.19577 -1.159892,0.19577 -1.714701,2e-5 -0.115861,-0.0409 -0.317126,-0.11534 -0.598147,-0.22447 -0.453622,-0.17614 -0.975596,-0.38905 -1.560273,-0.63979 -1.65434,-0.70949 -3.490948,-1.58309 -5.464619,-2.62963 -5.625584,-2.98298 -11.247802,-6.76219 -16.50187,-11.4126 C 18.266351,98.780877 12.536896,91.635843 8.3658954,83.368959 5.8780951,78.438126 3.9785948,73.116338 2.6195127,67.463568 0.77258894,59.78174 -0.04129524,51.662382 0.00158326,43.322687 0.03495274,36.832456 0.58149975,30.568158 1.4722228,24.747329 1.7949295,22.638457 2.141235,20.735471 2.4884672,19.068102 c 0.1223868,-0.587687 0.2364914,-1.10518 0.3394869,-1.548753 0.063237,-0.272344 0.1096998,-0.463244 0.1365646,-0.568967 0.4010741,-1.578366 2.1475425,-2.39346 3.614914,-1.687115 -0.00265,-0.0013 0.00487,0.0023 0.02235,0.01031 0.037519,0.01727 0.084571,0.03843 0.140936,0.06315 0.1714021,0.07518 0.3775329,0.160909 0.6166347,0.254682 0.7011482,0.27498 1.5139758,0.552611 2.4242679,0.813096 2.5243007,0.722342 5.2676327,1.166973 8.1264107,1.195897 3.636308,0.03679 7.203154,-0.606338 10.620649,-2.061926 3.443293,-1.46666 6.879782,-3.537184 10.232466,-6.057943 2.510975,-1.8879088 4.827659,-3.915204 6.889572,-5.9408778 0.719551,-0.7069045 1.354418,-1.3614947 1.897377,-1.9461347 0.187621,-0.2020234 0.349653,-0.3800307 0.485206,-0.5318196 0.07772,-0.0870339 0.127231,-0.14348908 0.147635,-0.16716453 1.027839,-1.1926376 2.875535,-1.19274113 3.903508,-2.1872e-4 0.02041,0.0236802 0.06994,0.0801402 0.14768,0.16717875 0.135586,0.1517941 0.297657,0.3298066 0.48532,0.531835 0.543079,0.5846514 1.178075,1.239253 1.897761,1.9461688 2.062297,2.025702 4.379332,4.0530243 6.890592,5.940958 3.353065,2.5207908 6.789785,4.5913408 10.233067,6.0579968 3.417544,1.455609 6.98439,2.098739 10.620698,2.061947 2.858778,-0.02892 5.60211,-0.473555 8.126411,-1.195897 0.910292,-0.260485 1.723119,-0.538116 2.424268,-0.813096 0.239101,-0.09377 0.445232,-0.179501 0.616634,-0.254682 0.05637,-0.02472 0.103417,-0.04588 0.140936,-0.06315 0.01748,-0.008 0.025,-0.01159 0.02235,-0.01031 1.46737,-0.706345 3.213837,0.108747 3.614913,1.687112 0.02687,0.105722 0.07333,0.296622 0.136566,0.568967 0.102996,0.443573 0.217102,0.961067 0.339489,1.548755 0.347235,1.66737 0.693543,3.570358 1.016252,5.679231 0.890728,5.82083 1.437278,12.085128 1.470648,18.575359 0.0429,8.339694 -0.771006,16.459052 -2.617939,24.14088 -1.359089,5.65277 -3.258599,10.974559 -5.746412,15.905393 z"
             id="Fill-1"
             inkscape:connector-curvature="0"
             style="fill:#ffffff;fill-rule:nonzero" />
          <path
             d="M 29.540429,17.90908 C 17.125477,23.196889 5.4671724,17.587535 5.4618423,17.58497 5.4589801,17.596228 -3.713654,53.70702 10.666362,82.208282 23.69135,108.02369 50.13681,117.35429 50.13681,117.35429 c 0,0 26.443435,-9.3306 39.468405,-35.146008 14.382335,-28.505705 5.20454,-64.623313 5.20454,-64.623313 0,0 -11.660798,5.613129 -24.078589,0.324111 C 59.073774,12.943649 50.140851,2.5837226 50.134788,2.5766907 50.130153,2.5820613 41.198756,12.943251 29.540429,17.90908 Z"
             id="Path"
             inkscape:connector-curvature="0"
             style="fill:#040506;fill-rule:nonzero" />
          <path
             d="m 29.09411,77.118957 c 0,-11.60411 9.439878,-21.044724 21.043252,-21.044724 11.60319,0 21.043067,9.440614 21.043067,21.044724 0,11.604295 -9.439877,21.044908 -21.043067,21.044908 -11.603374,0 -21.043252,-9.440613 -21.043252,-21.044908 z m 1.443866,0 c 0,10.80773 8.792392,19.600859 19.599386,19.600859 10.806994,0 19.599202,-8.793129 19.599202,-19.600859 0,-10.80773 -8.792208,-19.600491 -19.599202,-19.600491 -10.806994,0 -19.599386,8.792761 -19.599386,19.600491 z"
             id="Fill-2"
             inkscape:connector-curvature="0"
             style="fill:#ffffff" />
          <path
             d="M 5.6200123,51.766196 C 5.4152945,48.987423 5.3326196,46.32184 5.3326196,43.829448 c 0,-1.531841 0.031086,-2.997976 0.084386,-4.384969 0.00234,-0.06074 0.00467,-0.121473 0.0071,-0.182025 l 0.034417,-0.01307 C 17.791159,35.155583 33.960552,32.82092 50.13589,32.82092 c 16.190245,0 32.374785,2.33908 44.711963,6.439878 l 0.0068,0.183681 c 0.05319,1.386993 0.08429,2.853128 0.08429,4.384969 0,2.497362 -0.08282,5.168834 -0.288405,7.953865 l -0.0053,0.05301 c -2.631534,-0.790491 -5.923252,-1.722147 -9.514049,-2.606871 -10.23,-2.520736 -22.547117,-4.099325 -34.995276,-4.099325 -12.448344,0 -24.765461,1.578589 -34.995461,4.099325 -3.588515,0.884172 -6.8783002,1.815276 -9.5090977,2.605399 z"
             id="Fill-3"
             inkscape:connector-curvature="0"
             style="fill:#ffffff" />
          <path
             d="m 83.064663,50.403129 v 37.5 l 0.04896,-0.07951 c 1.443497,-2.132393 2.802515,-4.416074 4.033435,-6.855645 v 1.84e-4 C 91.648715,72.045827 93.706935,62.298404 94.506997,53.5246 l 0.0013,-0.03681 c -2.668711,-0.806503 -6.064969,-1.774233 -9.76454,-2.685828 -0.514049,-0.126626 -1.031963,-0.250491 -1.553558,-0.371595 z"
             id="Fill-4"
             inkscape:connector-curvature="0"
             style="fill:#c00000" />
          <path
             d="m 83.158344,22.923497 c 3.971411,-0.125153 7.338773,-0.919693 9.630736,-1.640246 0.642147,3.310123 1.584478,9.102148 1.97319,16.183436 l -0.0018,0.06055 C 91.199632,36.370675 87.307546,35.346442 83.162761,34.476994 l -0.0981,-0.02466 v -11.51853 z"
             id="Fill-5"
             inkscape:connector-curvature="0"
             style="fill:#c00000" />
          <path
             d="M 56.534356,31.17 V 12.396994 l 0.142638,0.09074 c 3.558773,2.839141 8.014417,5.841534 12.975276,7.954417 0.170797,0.07288 0.617301,0.252331 0.617301,0.252331 v 11.687117 l -0.08356,-0.01031 C 65.778221,31.849141 61.207362,31.491902 56.54411,31.319632 Z"
             id="Fill-6"
             inkscape:connector-curvature="0"
             style="fill:#c00000" />
          <path
             d="m 30.002024,20.709939 v 11.671656 l 0.08724,-0.01067 c 4.411104,-0.522331 8.985276,-0.87957 13.65184,-1.05184 l -0.0018,-0.12589 V 12.373988 l -0.140614,0.110061 c -3.559141,2.840246 -8.016257,5.844295 -12.979325,7.958098 z"
             id="Fill-7"
             inkscape:connector-curvature="0"
             style="fill:#c00000" />
          <path
             d="M 17.086141,22.922577 C 13.126675,22.794663 9.7693068,22.002331 7.4825337,21.283251 6.838362,24.603313 5.8924969,30.420184 5.5057914,37.530736 l 0.041705,-0.01509 c 3.5397981,-1.1481 7.4061726,-2.165707 11.5221166,-3.03037 l 0.137319,-0.03313 V 22.94908 Z"
             id="Fill-8"
             inkscape:connector-curvature="0"
             style="fill:#c00000" />
          <path
             d="m 17.080031,50.430736 c -0.521135,0.12092 -1.038589,0.244601 -1.552105,0.371227 -3.673435,0.905154 -7.0478646,1.865522 -9.7078708,2.668712 l -0.058859,0.01564 c 0.7974847,8.783926 2.8551902,18.546626 7.3633988,27.481656 1.224092,2.426135 2.575068,4.698221 4.009804,6.820491 l 0.07253,0.114663 v -37.48472 z"
             id="Fill-9"
             inkscape:connector-curvature="0"
             style="fill:#c00000" />
          <path
             d="m 70.197791,87.672883 c -2.803803,5.319019 -7.661042,9.387792 -13.516564,11.151166 l -0.146871,0.06074 v 12.469391 l 0.124969,-0.0643 c 2.055092,-1.10969 4.416994,-2.50336 6.928528,-4.20563 2.025828,-1.37317 4.267914,-3.03249 6.587669,-4.99215 l 0.09405,-0.0784 V 87.504294 Z"
             id="Fill-10"
             inkscape:connector-curvature="0"
             style="fill:#c00000" />
          <path
             d="M 43.540307,98.808037 C 37.761902,97.052209 32.960797,93.049693 30.154049,87.817914 l -0.152025,-0.259877 v 14.470933 l 0.09902,0.0669 c 2.318282,1.95805 4.55908,3.61611 6.58362,4.98838 2.521104,1.70875 4.891472,3.10638 6.952086,4.21804 l 0.102515,0.0519 V 98.854049 Z"
             id="Fill-11"
             inkscape:connector-curvature="0"
             style="fill:#c00000" />
          <path
             d="m 43.739264,55.22319 v -8.34773 l -0.136565,0.01988 c -4.511595,0.198957 -9.04638,0.599448 -13.47957,1.186749 l -0.121105,0.02043 v 18.393497 l 1.85e-4,0.211473 c 2.81503,-5.433129 7.764662,-9.582516 13.738343,-11.33724 z"
             id="Fill-12"
             inkscape:connector-curvature="0"
             style="fill:#c00000" />
          <path
             d="M 56.534356,55.372454 V 46.89092 l 0.121104,0.0037 c 4.52319,0.199141 9.069939,0.600921 13.514356,1.19043 l 0.09976,0.01748 v 18.611963 l -0.04049,-0.09 C 67.41773,61.253006 62.515399,57.147975 56.603374,55.390675 Z"
             id="Fill-13"
             inkscape:connector-curvature="0"
             style="fill:#c00000" />
          <polygon
             id="Fill-14"
             points="9.1722147,43.53 10.628429,43.135031 11.031939,44.623252 9.5757239,45.018221 10.47808,48.345276 8.8941718,48.774847 6.7206258,40.760061 9.9201902,39.89227 10.323699,41.380491 8.7080429,41.818712 "
             style="fill:#040506" />
          <path
             d="m 15.59192,40.098957 c -0.216313,-0.0042 -0.416724,0.01067 -0.620098,0.06 -1.40192,0.340859 -1.70227,1.762638 -1.400393,3.004233 0.291442,1.198528 1.260571,2.526994 2.651816,2.188712 0.203356,-0.04933 0.393608,-0.152393 0.581356,-0.265951 l 0.36692,1.509018 c -0.211987,0.153497 -0.447717,0.256197 -0.704558,0.318589 -2.300889,0.559509 -4.079282,-1.206994 -4.594491,-3.325951 -0.486625,-2.001165 0.340786,-4.378711 2.513246,-4.906932 0.278227,-0.06773 0.558791,-0.07933 0.849699,-0.04785 z"
             id="Fill-15"
             inkscape:connector-curvature="0"
             style="fill:#040506" />
          <path
             d="m 22.984785,38.966135 c -0.37638,-0.222699 -0.820491,-0.388344 -1.264969,-0.307546 -0.498405,0.09055 -0.757583,0.451104 -0.666994,0.949509 0.244233,1.343743 2.717669,0.9727 3.119264,3.183313 0.263742,1.452147 -0.371963,2.69816 -1.888896,2.973681 -0.455153,0.08264 -1.044294,0.04417 -1.461957,-0.159755 l -0.279497,-1.538834 c 0.426515,0.191227 0.826362,0.297607 1.303233,0.211104 0.520307,-0.09442 0.868896,-0.516073 0.770614,-1.057914 -0.114111,-0.628527 -0.655951,-0.776319 -1.170184,-1.018711 -1.046006,-0.459387 -1.730614,-0.961841 -1.947111,-2.153743 -0.234202,-1.289632 0.310767,-2.541534 1.697908,-2.793497 0.519939,-0.09442 1.011534,-0.03828 1.503129,0.141166 z"
             id="Fill-16"
             inkscape:connector-curvature="0"
             style="fill:#040506" />
          <path
             d="m 25.600307,45.046564 -1.19724,-8.217607 1.689387,-0.246074 c 0.348773,-0.0508 2.758343,-0.624294 3.143926,2.023988 0.223988,1.536626 -0.639202,2.563988 -2.143251,2.783006 l -0.362761,0.03074 0.493804,3.389447 -1.623865,0.236503 z m 0.937914,-4.944662 c 0.78957,-0.08172 1.193558,-0.440982 1.071165,-1.280246 -0.08577,-0.588589 -0.384478,-1.034724 -1.08184,-0.933128 l -0.305337,0.04454 z"
             id="Fill-17"
             inkscape:connector-curvature="0"
             style="fill:#040506" />
          <path
             d="m 32.785767,35.730736 2.900613,8.032638 -1.740368,0.193804 -0.461411,-1.35589 -1.652945,0.184049 -0.140613,1.423068 -1.62,0.180552 0.996074,-8.466626 z m -0.346933,3.451841 -0.325214,-1.227055 -0.02172,0.0026 -0.03626,1.267362 -0.105092,2.239141 1.149387,-0.128282 z"
             id="Fill-18"
             inkscape:connector-curvature="0"
             style="fill:#040506" />
          <path
             d="m 36.396994,43.706871 -0.613988,-8.281472 1.647423,-0.122393 c 1.043375,-0.0773 2.918835,-0.106012 3.086504,2.156687 0.06773,0.911595 -0.237056,1.718283 -1.01632,2.229019 l 1.718099,3.660552 -1.724356,0.127914 -1.722332,-3.715583 -0.0219,0.0017 0.283435,3.822147 -1.636564,0.121472 z m 1.286319,-4.844356 0.286564,-0.01012 c 0.746687,-0.0554 1.005828,-0.582516 0.955215,-1.263681 -0.0438,-0.593007 -0.365337,-1.055154 -1.185828,-0.950062 l -0.219571,0.0162 z"
             id="Fill-19"
             inkscape:connector-curvature="0"
             style="fill:#040506" />
          <polygon
             id="Fill-20"
             points="44.50546,43.209571 42.865951,43.279325 42.578282,36.523068 41.290859,36.577914 41.225337,35.037423 45.450736,34.857607 45.516258,36.398098 44.217791,36.453313 "
             style="fill:#040506" />
          <path
             d="m 49.071534,34.802761 2.094294,8.279448 -1.751043,0.02135 -0.325398,-1.394908 -1.662884,0.02025 -0.280307,1.40227 -1.629938,0.01988 1.826319,-8.327301 1.728957,-0.02098 z m -0.685583,3.400859 -0.202454,-1.253191 -0.02209,1.85e-4 -0.160859,1.257791 -0.325583,2.217791 1.156381,-0.01417 z"
             id="Fill-21"
             inkscape:connector-curvature="0"
             style="fill:#040506" />
          <polygon
             id="Fill-22"
             points="55.123988,34.878405 56.797362,34.922945 55.165215,38.71362 56.774724,43.229632 55.046319,43.18362 53.650307,38.915706 53.628405,38.915153 53.515951,43.142945 51.875521,43.099325 52.096196,34.797975 53.736626,34.841595 53.637976,38.55184 53.660061,38.552393 "
             style="fill:#040506" />
          <polygon
             id="Fill-23"
             points="62.867301,43.63546 61.231104,43.508834 61.752883,36.766748 60.468037,36.667362 60.586933,35.13 64.803497,35.456319 64.684601,36.993497 63.388896,36.893374 "
             style="fill:#040506" />
          <path
             d="m 65.106442,43.807546 0.913987,-8.253681 1.641902,0.181841 c 1.039878,0.11503 2.888835,0.43049 2.63908,2.685644 -0.100491,0.908466 -0.547914,1.645767 -1.407607,2.004846 l 1.018343,3.91362 -1.71865,-0.190307 -1.01227,-3.968282 -0.0219,-0.0024 -0.421656,3.809448 -1.631227,-0.180736 z m 2.15227,-4.526319 0.283435,0.04233 c 0.744295,0.08245 1.095644,-0.388343 1.17092,-1.067116 0.06534,-0.590982 -0.166012,-1.104295 -0.99184,-1.151411 l -0.219018,-0.02411 z"
             id="Fill-24"
             inkscape:connector-curvature="0"
             style="fill:#040506" />
          <path
             d="m 73.007117,40.950368 -0.568712,3.768037 -1.622577,-0.244785 1.239019,-8.21135 1.557239,0.235031 1.278037,5.260674 c 0,0 0.01767,-0.854908 0.08172,-1.279693 l 0.556933,-3.69184 1.622761,0.244969 -1.239019,8.211166 -1.535521,-0.231534 -1.256135,-5.257546 c 0,0 -0.02724,0.516994 -0.113742,1.196871 z"
             id="Fill-25"
             inkscape:connector-curvature="0"
             style="fill:#040506" />
          <path
             d="m 81.788834,37.902699 0.372148,8.532148 -1.718835,-0.334233 -0.03589,-1.431718 -1.632516,-0.317301 -0.558773,1.316135 -1.600122,-0.311043 3.476687,-7.783804 z m -1.360858,3.191227 0.05577,-1.268098 -0.02153,-0.0042 -0.412638,1.198896 -0.768405,2.105705 1.135214,0.220859 z"
             id="Fill-26"
             inkscape:connector-curvature="0"
             style="fill:#040506" />
          <path
             d="m 85.407055,38.673681 0.04031,4.10816 c 0.02963,0.493803 -0.02669,0.967177 -0.03994,1.450858 l 0.02135,0.0052 c 0.198037,-0.450921 0.339939,-0.904049 0.580859,-1.344847 l 1.893681,-3.624662 1.67135,0.398098 -4.163559,7.544908 -1.307116,-0.311411 -0.411166,-8.634663 z"
             id="Fill-27"
             inkscape:connector-curvature="0"
             style="fill:#040506" />
          <path
             d="m 93.001656,40.611902 -0.256932,8.53638 -1.689755,-0.459754 0.06976,-1.430798 -1.604724,-0.436564 -0.65411,1.271595 -1.573068,-0.428098 4.04043,-7.50681 1.668404,0.454049 z m -1.592024,3.08227 0.14908,-1.260552 -0.02135,-0.0059 -0.499693,1.165215 -0.92135,2.043497 1.11589,0.303681 z"
             id="Fill-28"
             inkscape:connector-curvature="0"
             style="fill:#040506" />
          <polygon
             id="Fill-29"
             points="63.640123,66.25454 63.638466,66.189939 56.385092,60.919877 56.34773,60.899816 50.381595,63.269448 50.379755,63.317485 50.379755,69.072699 50.420061,69.101595 57.816258,74.317914 57.857853,74.310184 63.177791,72.638282 63.23227,72.618589 "
             style="fill:#ffffff" />
          <path
             d="m 65.839877,87.852147 -0.651718,-1.033435 -0.03699,-0.04196 2.805276,-8.633374 0.04399,-0.01914 1.189326,-0.474846 0.05411,-0.01822 c -0.100859,3.815705 -1.325337,7.356441 -3.353742,10.302331 z"
             id="Fill-30"
             inkscape:connector-curvature="0"
             style="fill:#ffffff" />
          <polygon
             id="Fill-31"
             points="63.317669,73.103558 63.392945,73.082025 67.454908,77.980859 67.48454,78.022638 64.70135,86.589018 64.596442,86.615706 58.497791,88.174049 58.473865,88.130429 55.143313,83.185215 55.173129,83.036687 57.929264,74.800307 58.015767,74.769939 "
             style="fill:#ffffff" />
          <path
             d="m 44.71546,95.449693 0.884908,-1.063435 0.05798,-0.0035 h 8.94957 l 0.06386,1.84e-4 0.81773,0.983006 0.06294,0.08687 c -1.717362,0.508344 -3.534847,0.781104 -5.415092,0.781104 -1.863313,0 -3.665153,-0.267975 -5.369264,-0.767484 -0.01656,-0.005 -0.03331,-0.0099 -0.04988,-0.01472 z"
             id="Fill-32"
             inkscape:connector-curvature="0"
             style="fill:#ffffff" />
          <polygon
             id="Fill-33"
             points="36.884172,73.078712 36.949509,73.101166 42.280859,74.776933 42.342515,74.79589 45.140797,83.157423 45.107117,83.22092 41.778037,88.163926 41.705153,88.155644 35.58184,86.591227 35.554049,86.529571 32.805092,78.069755 32.789264,78.017485 "
             style="fill:#ffffff" />
          <path
             d="M 34.351104,87.884908 C 32.33908,84.943436 31.126932,81.413742 31.030123,77.611472 l 0.0508,0.03644 1.224663,0.488834 0.02871,0.05632 2.767547,8.517976 0.01748,0.05577 -0.73546,1.166135 z"
             id="Fill-34"
             inkscape:connector-curvature="0"
             style="fill:#ffffff" />
          <path
             d="m 63.947117,65.813374 -7.288528,-5.295276 -0.0427,-0.03847 -0.09074,-1.38 0.05632,0.02245 c 3.478528,1.249509 6.493252,3.48092 8.708099,6.358159 l -0.07933,0.01822 -1.184171,0.300552 z"
             id="Fill-35"
             inkscape:connector-curvature="0"
             style="fill:#ffffff" />
          <polygon
             id="Fill-36"
             points="36.632761,66.231166 36.628528,66.195276 43.863313,60.939018 43.927362,60.9 49.901411,63.273129 49.893865,63.317485 49.893865,69.072699 49.858344,69.098282 42.450368,74.322883 42.377301,74.297853 37.094172,72.637546 37.04227,72.620245 "
             style="fill:#ffffff" />
          <path
             d="m 36.256564,65.801043 -1.214724,-0.308282 -0.05061,-0.02061 c 2.212638,-2.871165 5.222209,-5.098343 8.694478,-6.3473 l 0.06331,-0.01841 -0.08963,1.36546 -0.02466,0.03221 -7.31043,5.311657 z"
             id="Fill-37"
             inkscape:connector-curvature="0"
             style="fill:#ffffff" />
          <polygon
             id="Fill-38"
             points="42.210368,88.49227 42.176319,88.442393 45.479448,83.537853 45.520307,83.493497 54.634601,83.493497 54.764356,83.492393 58.014663,88.318528 58.100614,88.435031 54.640307,93.901104 54.569264,93.896687 45.681534,93.896687 45.628528,93.891718 "
             style="fill:#ffffff" />
        </g>
      </g>
    </g>
  </g>
</svg>
