<svg clip-rule="evenodd" fill-rule="evenodd" height="391.311896" stroke-linejoin="round" stroke-miterlimit="2" viewBox="0 0 569.78 872.22" width="255.550626" xmlns="http://www.w3.org/2000/svg"><g fill-rule="nonzero"><path d="m0 1.964c7.908-93.806 46.981-177.69 50.065-184.86-14.447-7.414-30.261-11.449-35.703-12.865-20.314 93.934-14.977 182.9-14.362 197.73m-60.638 50.964c-6.346-39.679-19.149-86.097-19.149-86.097 16.817 102.85-10.887 184.75-10.887 184.75h105.72c-49.037-180.1-11.64-342.54-10.201-349.42-8.145-1.828-24.931-3.641-35.929-3.794-1.145 153.51 26.669 254.56 26.669 254.56h-11.312c-24.617-100.05-27.07-225.95-26.307-254.62-19.959.147-35.8 3.367-35.8 3.367l50.819 251.26h-11.23s-47.777-236.21-50.367-249.02c-18.975 4.503-31.101 10.258-37.069 13.196 54.129 98.632 76.247 235.83 76.247 235.83h-11.202zm-35.201 115.66-12.835 35.066h141.73l-12.811-35.066h-116.09z" transform="translate(324.11 201.69)"/><path d="m0-321.44-10.104 34.382c38.072 27.872 62.86 72.865 62.86 123.56 0 55.395-29.577 104.01-73.768 130.89l11.664 32.62c57.334-31.967 96.119-93.202 96.119-163.5 0-66.413-34.608-124.74-86.771-157.94m-253.39 157.94c0-50.692 24.788-95.684 62.86-123.56l-10.104-34.382c-52.163 33.2-86.772 91.526-86.772 157.94 0 70.304 38.786 131.54 96.119 163.5l11.665-32.62c-44.191-26.875-73.768-75.491-73.768-130.89" fill="#00be14" transform="translate(386.62 381.54)"/><path d="m0-348.9 18.282 4.738 2.889-11.148-18.798-4.871c-10.304-2.67-17.359 1.186-19.865 10.859l-7.676 29.625c-.356 1.374-.211 2.667.419 3.738.63 1.073 1.689 1.827 3.062 2.182l6.98 1.81 4.946-19.161 21.157 5.483 2.856-11.023-21.16-5.482.821-3.167c1.088-4.2 2.342-4.553 6.087-3.583m-59.319-16.345-30.506 6.193c-1.393.282-2.494.981-3.183 2.019-.689 1.039-.904 2.324-.62 3.717l6.08 29.956c.988 4.872 3.173 8.381 6.493 10.429 2.195 1.354 4.827 2.032 7.862 2.029 1.545-.002 3.194-.18 4.943-.534l19.067-3.87-2.295-11.307-18.548 3.765c-3.796.771-5.029.35-5.895-3.912l-.653-3.216 21.456-4.355-2.269-11.179-21.456 4.355-1.628-8.023 23.447-4.759zm129.27 42.45c.572-1.746.99-4.325-1.938-6.579l-1.855-1.429c-2.897-2.231-5.188-1.274-6.86-.189l-43.421 28.099 11.349 6.421 27.679-17.902-4.77 16.088-4.2-3.156-7.253 5.196 9.007 6.73-2.093 7.224 9.943 9.099zm-235.42-8.618c34.264-29.576 78.676-45.864 125.06-45.864 46.378 0 90.79 16.288 125.05 45.864 3.56 3.075 6.967 6.27 10.225 9.571l6.454-7.97c-3.205-3.206-6.541-6.317-10.017-9.317-36.113-31.176-82.892-48.344-131.72-48.344-48.825 0-95.603 17.168-131.72 48.344-3.475 2.999-6.812 6.11-10.016 9.316l6.454 7.97c3.258-3.3 6.664-6.496 10.224-9.57m125.06 38.444c33.036 0 63.484 15.315 81.385 37.59l6.251-7.72c-19.71-23.566-52.021-39.501-87.636-39.501-35.616 0-67.927 15.935-87.637 39.501l6.252 7.72c17.899-22.275 48.348-37.59 81.385-37.59m-83.307-4.626c-2.342 1.904-5.065 2.833-7.472 2.549-3.045-.349-4.897-1.596-7.928-5.34l-17.466-21.476-9.419 7.656 19.022 23.403c4.043 4.957 8.651 7.609 14.085 8.108.641.06 1.276.092 1.906.098 5.265.046 10.154-1.811 14.893-5.645 5.281-4.312 8.177-9.32 8.856-15.307.621-5.425-1.037-10.478-5.066-15.448l-19.019-23.396-9.417 7.654 17.459 21.485c3.043 3.733 3.884 5.802 3.602 8.86-.212 2.408-1.683 4.886-4.036 6.799m11.407 84.486h17.671c9.721 0 13.402 5.008 13.402 11.78 0 6.774-3.681 11.781-13.402 11.781h-17.671zm33.281 81.876h26.507l-22.974-41.38c10.456-5.891 17.819-15.169 17.819-28.716 0-20.175-16.349-32.985-37.257-32.985h-40.938v103.08h23.562v-37.109h12.667l20.614 37.109zm-64.556 144.55h25.651v-12.398h-25.651v-11.274h27.888v-12.396h-41.661v60.252h42.352v-12.396h-28.579zm59.655.342 7.061-18.503 7.058 18.503zm-.258-36.41-24.446 60.252h15.58l4.389-11.448h23.586l4.388 11.448h15.582l-24.445-60.252zm260.83-149.27 12.074-31.66 12.077 31.66zm24.59-62.29h-25.033l-41.821 103.08h26.654l7.511-19.587h40.349l7.51 19.587h26.653zm-219.23 250.23h18.607v4.307c-3.015 3.359-7.838 5.943-13.784 5.943-10.421 0-18.26-6.114-18.26-18.776 0-12.661 8.529-18.779 16.712-18.779 7.494 0 12.317 3.618 14.298 10.337l13.18-3.876c-3.101-11.284-11.888-18.864-27.307-18.864-16.537 0-30.665 11.888-30.665 31.182s13.954 31.18 30.836 31.18c13.095 0 21.191-5.166 27.824-13.263v-20.156h-31.441zm75.023-2.859c0 8.092-4.136 13.085-11.708 13.085-7.576 0-11.706-4.993-11.706-13.085v-35.807h-13.773v36.58c0 16.787 11.618 24.704 25.479 24.704 13.859 0 25.48-8.004 25.48-24.704v-36.58h-13.772zm35.328.254h25.648v-12.396h-25.648v-11.275h27.887v-12.397h-41.661v60.252h42.35v-12.394h-28.576zm-284.77-36.068h-13.773v60.252h42.349v-12.396h-28.576zm41.647-211.56h-23.56v61.258c0 13.843-7.069 22.385-20.027 22.385s-20.028-8.542-20.028-22.385v-61.258h-23.56v62.586c0 28.715 19.878 42.262 43.588 42.262 23.708 0 43.587-13.696 43.587-42.262zm241.52 21.205h15.61c10.454 0 14.58 5.449 14.58 12.958 0 7.511-4.126 12.959-14.58 12.959h-15.61zm-23.562 81.876h23.562v-34.753h16.783c20.326 0 36.966-11.779 36.966-34.165 0-22.384-16.64-34.163-36.966-34.163h-40.345v103.08zm-63.888-84.245c14.716 0 26.34 10.594 26.34 32.667s-11.624 32.669-26.34 32.669c-14.717 0-26.34-10.596-26.34-32.669s11.623-32.667 26.34-32.667m0 86.524c30.313 0 49.885-20.454 49.885-53.857 0-33.406-19.572-53.859-49.885-53.859-30.315 0-49.884 20.453-49.884 53.859 0 33.403 19.569 53.857 49.884 53.857m-303.62-43.659h43.88v-21.206h-43.88v-19.29h47.71v-21.205h-71.269v103.08h72.448v-21.206h-48.889v-20.174z" transform="translate(326.73 833.65)"/><path d="m0-17.972-5.479 14.363-5.478-14.363h-3.365v17.972h3.162v-10.778l4.121 10.778h3.121l4.121-10.778v10.778h3.162v-17.972zm-30.65 2.847h5.527v15.125h3.118v-15.125h5.528v-2.835h-14.173z" transform="translate(492.2 828.87)"/><path d="m0-7.873h-10.325v-13.767h10.325c5.681 0 7.831 2.926 7.831 6.884 0 3.957-2.15 6.883-7.831 6.883m21.598-6.883c0-11.789-9.553-19.274-21.77-19.274h-23.92v60.23h13.767v-21.682h7.401l12.045 21.682h15.488l-13.423-24.177c6.109-3.443 10.412-8.864 10.412-16.779m-310.87-8.096c6.449 0 10.748 3.611 12.382 10.405l13.928-2.753c-2.492-12.897-12.38-20.206-26.224-20.206-16.938 0-29.493 11.953-29.493 31.47s12.382 31.469 29.15 31.469c13.842 0 23.731-8.082 26.567-21.495l-13.585-2.665c-1.374 6.448-5.587 11.607-12.982 11.607-8.684 0-15.221-6.792-15.221-18.916s6.88-18.916 15.478-18.916m364.2 36.662h-28.567v-11.787h25.64v-12.391h-25.64v-11.272h27.877v-12.389h-41.642v60.229h42.332zm-215.02-47.839h-13.421v38.032l-23.317-38.032h-14.886v60.231h13.423v-38.031l23.316 38.031h14.885zm-89.124 49.181c-8.6 0-15.391-6.191-15.391-19.088 0-12.898 6.791-19.088 15.391-19.088 8.598 0 15.389 6.19 15.389 19.088 0 12.897-6.791 19.088-15.389 19.088m0-50.558c-17.714 0-29.148 11.95-29.148 31.47 0 19.517 11.434 31.469 29.148 31.469 17.711 0 29.147-11.952 29.147-31.469 0-19.52-11.436-31.47-29.147-31.47m193.7 49.216h-28.565v-11.787h25.639v-12.391h-25.639v-11.272h27.877v-12.389h-41.643v60.229h42.331zm209.57-36.662c6.448 0 10.748 3.611 12.381 10.405l13.928-2.753c-2.491-12.897-12.38-20.206-26.224-20.206-16.938 0-29.493 11.953-29.493 31.47s12.382 31.469 29.15 31.469c13.842 0 23.73-8.082 26.567-21.495l-13.585-2.665c-1.374 6.448-5.587 11.607-12.982 11.607-8.685 0-15.22-6.792-15.22-18.916s6.879-18.916 15.478-18.916m-262.79 1.212v-12.389h-41.643v60.229h13.766v-24.177h25.639v-12.391h-25.639v-11.272zm311.25 23.663h25.639v-12.391h-25.639v-11.272h27.876v-12.389h-41.642v60.229h42.332v-12.39h-28.566zm-100.29 1.98-23.317-38.032h-14.886v60.231h13.423v-38.031l23.316 38.031h14.885v-60.231h-13.421z" transform="translate(318.68 760.48)"/></g></svg>