<?xml version="1.0" encoding="UTF-8" standalone="no"?>
<!-- Created with Inkscape (http://www.inkscape.org/) -->

<svg
   xmlns:dc="http://purl.org/dc/elements/1.1/"
   xmlns:cc="http://creativecommons.org/ns#"
   xmlns:rdf="http://www.w3.org/1999/02/22-rdf-syntax-ns#"
   xmlns:svg="http://www.w3.org/2000/svg"
   xmlns="http://www.w3.org/2000/svg"
   xmlns:sodipodi="http://sodipodi.sourceforge.net/DTD/sodipodi-0.dtd"
   xmlns:inkscape="http://www.inkscape.org/namespaces/inkscape"
   width="317"
   height="316.99969"
   viewBox="0 0 83.872916 83.87284"
   version="1.1"
   id="svg8"
   inkscape:version="0.92.0 r15299"
   sodipodi:docname="vikingur gota.svg">
  <defs
     id="defs2">
    <clipPath
       id="clipPath26"
       clipPathUnits="userSpaceOnUse">
      <path
         inkscape:connector-curvature="0"
         id="path24"
         d="M 0,841.89 H 595.276 V 0 H 0 Z" />
    </clipPath>
  </defs>
  <sodipodi:namedview
     id="base"
     pagecolor="#ffffff"
     bordercolor="#666666"
     borderopacity="1.0"
     inkscape:pageopacity="0.0"
     inkscape:pageshadow="2"
     inkscape:zoom="0.47482464"
     inkscape:cx="382.1654"
     inkscape:cy="411.64934"
     inkscape:document-units="mm"
     inkscape:current-layer="layer1"
     showgrid="false"
     fit-margin-top="0"
     fit-margin-left="0"
     fit-margin-right="0"
     fit-margin-bottom="0"
     units="px"
     inkscape:window-width="1280"
     inkscape:window-height="744"
     inkscape:window-x="-4"
     inkscape:window-y="-4"
     inkscape:window-maximized="1" />
  <metadata
     id="metadata5">
    <rdf:RDF>
      <cc:Work
         rdf:about="">
        <dc:format>image/svg+xml</dc:format>
        <dc:type
           rdf:resource="http://purl.org/dc/dcmitype/StillImage" />
        <dc:title></dc:title>
      </cc:Work>
    </rdf:RDF>
  </metadata>
  <g
     inkscape:label="Layer 1"
     inkscape:groupmode="layer"
     id="layer1"
     transform="translate(-3.8854034,-173.54272)">
    <g
       id="g4019"
       transform="matrix(0.41671881,0,0,0.41671881,1.3698392,151.50651)"
       style="stroke-width:2.39969969">
      <path
         d="m 106.67133,53.515202 c 55.21925,0 100.00016,44.780908 100.00016,99.999808 0,55.2189 -44.78091,99.99998 -100.00016,99.99998 -55.218902,0 -99.9998103,-44.78108 -99.9998103,-99.99998 0,-55.2189 44.7809083,-99.999808 99.9998103,-99.999808 z m 0,28.365452 c 39.55627,0 71.6347,32.078436 71.6347,71.634356 0,39.55591 -32.07843,71.63446 -71.6347,71.63446 -39.555568,0 -71.634112,-32.07855 -71.634112,-71.63446 0,-39.55592 32.078544,-71.634356 71.634112,-71.634356"
         style="fill:#231f20;fill-opacity:1;fill-rule:evenodd;stroke:none;stroke-width:0.08465607"
         id="path3875"
         inkscape:connector-curvature="0" />
      <path
         d="m 106.67133,85.820124 c 37.38068,0 67.69488,30.314546 67.69488,67.694886 0,37.38069 -30.3142,67.69488 -67.69488,67.69488 -37.38034,0 -67.694536,-30.31419 -67.694536,-67.69488 0,-37.38034 30.314196,-67.694886 67.694536,-67.694886"
         style="fill:#bfd2e6;fill-opacity:1;fill-rule:evenodd;stroke:none;stroke-width:0.08465607"
         id="path3877"
         inkscape:connector-curvature="0" />
      <path
         d="m 83.206311,93.585821 c -9.360607,7.002639 -14.588774,16.070089 -15.424857,23.474889 -1.908175,16.89841 14.31784,29.86617 31.632174,28.01444 4.095752,-0.43779 11.505852,-2.31775 12.805132,-11.16295 1.18568,-8.07085 -3.02543,-14.3891 -10.70152,-15.19025 -15.847482,-1.65347 -23.32496,-8.32944 -18.310929,-25.136129"
         style="fill:#231f20;fill-opacity:1;fill-rule:evenodd;stroke:none;stroke-width:0.08465607"
         id="path3879"
         inkscape:connector-curvature="0" />
      <path
         d="m 69.640946,139.19223 4.78155,0.34466 c -1.089378,-0.96872 -2.1082,-2.01894 -3.044119,-3.14854 -0.587023,0.94086 -1.165931,1.87607 -1.737431,2.80388 z m 41.387534,2.98274 33.47862,2.413 -0.33726,-11.12873 -3.03495,-0.67451 c -6.9409,-20.17995 -18.06998,-29.17191 -30.85712,-34.0607 -8.14952,2.31387 -15.172264,7.45737 -21.356459,13.91497 2.98697,2.00836 7.302148,3.15383 12.841469,3.73168 9.40047,0.98108 14.11322,8.90835 12.79454,17.88513 -0.47872,3.26108 -1.71838,5.88751 -3.52884,7.91916"
         style="fill:#231f20;fill-opacity:1;fill-rule:evenodd;stroke:none;stroke-width:0.08465607"
         id="path3881"
         inkscape:connector-curvature="0" />
      <path
         d="m 125.90477,218.43036 c -3.63643,1.07632 -8.07544,1.93992 -11.93906,2.39324 l -16.080315,-32.48025 10.664115,32.82633 c -0.7366,0.0236 0.0737,0.0402 -1.87818,0.0402 -1.95157,0 -6.27063,-0.22331 -9.317571,-0.64276 -4.302478,-10.88954 -6.956779,-21.15009 -7.100712,-30.5368 -0.268464,-17.5394 6.553553,-32.36136 19.350213,-44.93648 -8.51182,27.78584 -3.28648,53.90762 16.30151,73.33651"
         style="fill:#231f20;fill-opacity:1;fill-rule:evenodd;stroke:none;stroke-width:0.08465607"
         id="path3883"
         inkscape:connector-curvature="0" />
      <path
         d="m 92.750714,219.77232 c -4.956528,-1.0361 -9.712678,-2.61549 -14.206362,-4.67183 l 2.562931,-38.22806 -7.536392,35.69652 c -3.666773,-2.06022 -7.122584,-4.45064 -10.326512,-7.13316 l 12.888737,-31.25612 -17.408174,27.11627 c -2.4765,-2.48426 -4.756855,-5.16502 -6.825544,-8.0077 14.050787,-12.92966 25.07474,-28.35029 30.623229,-48.56587 5.328709,2.36467 11.316054,3.3267 17.142532,2.70334 1.072801,-0.11465 2.111371,-0.29527 3.106911,-0.5401 -10.727617,12.98363 -15.955784,24.53569 -16.982368,37.32495 -0.906286,11.2903 1.393826,23.81179 6.961012,35.56176"
         style="fill:#231f20;fill-opacity:1;fill-rule:evenodd;stroke:none;stroke-width:0.08465607"
         id="path3885"
         inkscape:connector-curvature="0" />
      <path
         d="m 49.464172,189.70895 c -1.872191,-2.9524 -3.435703,-5.80637 -4.671483,-9.04451 L 63.656423,162.71863 42.699658,175.6878 c -1.046692,-3.01625 -1.882775,-6.13057 -2.49802,-9.32392 11.011254,-4.87856 20.812832,-12.70459 31.059264,-24.68492 l 6.577542,0.47378 c 0.358069,0.2667 0.902758,0.58067 1.233664,0.78846 -6.444193,19.68641 -14.750699,33.05069 -29.607936,46.76775"
         style="fill:#231f20;fill-opacity:1;fill-rule:evenodd;stroke:none;stroke-width:0.08465607"
         id="path3887"
         inkscape:connector-curvature="0" />
      <path
         d="m 136.21364,212.09623 1.48485,-16.01858 10.98091,5.11104 -8.86777,-10.65706 7.12187,1.64006 -8.69209,-12.06817 -3.12455,0.42333 1.34937,7.9308 -6.16161,-4.30248 c -3.0346,7.62106 -0.9525,17.17111 5.90902,27.94106"
         style="fill:#231f20;fill-opacity:1;fill-rule:evenodd;stroke:none;stroke-width:0.08465607"
         id="path3889"
         inkscape:connector-curvature="0" />
      <path
         d="m 131.18656,209.50578 c -5.91009,-7.84542 -7.48982,-14.79338 -6.78956,-20.6375 0.49989,-4.17054 2.30258,-7.59213 4.93183,-10.17376 3.16124,-3.10444 6.52428,-4.63303 12.60546,-4.41713 0.36336,-0.60536 0.60501,-1.3335 0.58632,-2.37207 l -0.0367,-2.0246 2.90936,0.043 1.60196,-1.84996 c -1.27494,-7.71596 -3.32952,-14.16051 -5.77497,-18.59598 l -1.51871,-0.508 c 1.27212,2.42887 3.9758,15.11794 4.0707,18.409 l -6.82801,0.004 2.29305,-5.84658 -6.53062,5.67337 c -10.33463,0.89288 -18.13807,7.48559 -18.73568,17.09843 -0.38452,6.1849 1.78083,12.97588 4.6535,17.61067 l 0.59019,-5.56507 c 3.27343,6.24099 7.57414,10.84827 11.97187,13.15226"
         style="fill:#231f20;fill-opacity:1;fill-rule:evenodd;stroke:none;stroke-width:0.08465607"
         id="path3891"
         inkscape:connector-curvature="0" />
      <path
         d="m 82.169849,79.594301 -0.940152,-2.327275 -5.641976,2.27965 0.249767,-0.487539 c 0.228247,-0.446264 0.445558,-0.900994 0.662164,-1.353608 0.318205,-0.663928 0.60078,-1.344789 0.856192,-2.03447 0.360538,-0.994833 0.640644,-2.061986 0.696383,-3.122083 0.04798,-0.926042 -0.104422,-1.824567 -0.451556,-2.683934 -0.453672,-1.123597 -1.0414,-1.978025 -2.200628,-2.438753 -1.22943,-0.488244 -2.619375,-0.361244 -3.827639,0.126295 -1.89865,0.766233 -3.12808,2.652889 -3.451225,4.629855 l 2.37737,0.330906 c 0.0889,-0.232481 0.220839,-0.7747 0.29845,-0.971903 0.223308,-0.570089 0.567266,-1.11125 1.136297,-1.386064 0.601839,-0.291042 1.261181,-0.347133 1.882422,-0.08114 0.6096,0.261409 0.992364,0.795514 1.234723,1.394531 0.242711,0.601839 0.313972,1.243542 0.269169,1.888419 -0.06279,0.843139 -0.324908,1.744839 -0.596194,2.541764 -0.286103,0.844198 -0.638528,1.680281 -0.99942,2.495198 -0.412044,0.926394 -0.847372,1.842558 -1.310217,2.744964 l 0.832203,2.060575 8.923867,-3.605389"
         style="fill:#ffffff;fill-opacity:1;fill-rule:evenodd;stroke:none;stroke-width:0.08465607"
         id="path3893"
         inkscape:connector-curvature="0" />
      <path
         d="m 100.98596,68.325872 c -0.53375,-3.2258 -2.510368,-7.403747 -6.448074,-6.722181 -3.924653,0.678745 -4.502503,5.300487 -3.96628,8.542868 0.543983,3.290005 2.491669,7.364942 6.49605,6.728178 4.020964,-0.639939 4.457704,-5.29202 3.918304,-8.548865 z m -2.876904,0.476603 c 0.244475,1.478139 0.634294,5.324828 -1.434042,5.693481 -2.071511,0.369711 -2.980972,-3.343628 -3.224389,-4.81577 -0.239183,-1.444272 -0.492478,-5.32765 1.474611,-5.700183 1.98755,-0.376414 2.950634,3.410303 3.18382,4.822472"
         style="fill:#ffffff;fill-opacity:1;fill-rule:evenodd;stroke:none;stroke-width:0.08465607"
         id="path3895"
         inkscape:connector-curvature="0" />
      <path
         d="m 112.54543,68.409834 c 0.53375,-3.225801 2.51072,-7.403395 6.44807,-6.721829 3.92501,0.678745 4.50286,5.300134 3.96628,8.542515 -0.54363,3.290358 -2.49131,7.365295 -6.4957,6.728531 -4.02131,-0.639939 -4.4577,-5.29202 -3.91865,-8.549217 z m 2.8769,0.476955 c -0.24447,1.478139 -0.63394,5.324828 1.43404,5.693481 2.07152,0.369711 2.98133,-3.343628 3.22475,-4.81577 0.23883,-1.444272 0.49212,-5.32765 -1.47497,-5.700536 -1.98755,-0.376061 -2.95063,3.410656 -3.18382,4.822825"
         style="fill:#ffffff;fill-opacity:1;fill-rule:evenodd;stroke:none;stroke-width:0.08465607"
         id="path3897"
         inkscape:connector-curvature="0" />
      <path
         d="m 136.08418,81.888415 c 2.53682,1.017411 5.24157,0.728133 6.32989,-2.066572 0.61595,-1.581856 0.0434,-3.547887 -1.42593,-5.02144 1.66088,0.117123 3.05047,-0.283986 3.66783,-1.891947 0.97331,-2.53612 -0.92534,-4.681714 -3.0988,-5.516034 -2.24049,-0.859366 -5.09446,-0.246591 -6.04097,1.946628 -0.53516,1.241073 -0.32067,3.411009 1.04423,4.500387 -1.63337,-0.03634 -3.1168,0.397227 -3.8728,2.127603 -1.14018,2.608791 1.13594,5.015442 3.39655,5.921375 z m 5.91961,-9.880248 c -0.35525,0.927453 -0.81633,1.280231 -2.11067,1.461559 -0.83961,-0.751064 -2.21016,-1.885951 -1.71239,-3.187348 0.38206,-0.99695 1.70463,-1.158169 2.58269,-0.82303 1.08056,0.414513 1.67181,1.425575 1.24037,2.548819 z m -2.37455,6.934553 c -0.44274,1.147234 -1.71097,1.534937 -2.788,1.124303 -1.4277,-0.548922 -1.97168,-1.895828 -1.46368,-3.310819 0.35243,-0.982487 1.52894,-1.406878 2.28106,-1.613959 0.38418,0.381706 0.80822,0.71367 1.15747,1.13277 0.75353,0.832908 1.24601,1.537405 0.81315,2.667705"
         style="fill:#ffffff;fill-opacity:1;fill-rule:evenodd;stroke:none;stroke-width:0.08465607"
         id="path3899"
         inkscape:connector-curvature="0" />
      <path
         d="m 127.07846,154.60298 3.19476,-2.81658 -9.72503,-0.81174 c -1.56668,-0.1771 -1.34055,-2.13396 0.0857,-1.96604 l 14.38416,1.20121 -7.83096,6.91692 -3.048,-2.40877 c -1.30528,-0.95991 -0.32456,-2.70087 1.21708,-1.56951 l 1.72226,1.45451"
         style="fill:#231f20;fill-opacity:1;fill-rule:evenodd;stroke:none;stroke-width:0.08465607"
         id="path3901"
         inkscape:connector-curvature="0" />
      <path
         d="m 31.944627,201.61767 0.841834,-0.0907 c 0.02565,-0.008 0.307728,-0.0582 0.845008,-0.15275 0.53908,-0.0921 1.154395,-0.2092 1.845064,-0.34573 0.690527,-0.13758 1.289014,-0.26282 1.792816,-0.37465 0.03951,-0.01 0.338314,-0.0705 0.904523,-0.17956 0.562327,-0.11007 0.987072,-0.19544 1.272116,-0.25964 0.28575,-0.0631 0.62477,-0.15664 1.018823,-0.2847 0.396169,-0.12523 0.914753,-0.32279 1.555397,-0.58949 l 0.469547,-0.15981 0.270934,0.46955 c 0.06703,0.1076 0.142522,0.23989 0.227541,0.40111 0.08502,0.16087 0.165453,0.31327 0.239184,0.46214 0.07161,0.14605 0.147461,0.29033 0.225777,0.42862 0.07726,0.12418 0.16757,0.26247 0.275873,0.41699 0.105833,0.15134 0.203552,0.28927 0.288219,0.41239 0.08431,0.12277 0.14217,0.2092 0.1778,0.25965 0.03351,0.048 0.06879,0.0988 0.103011,0.15346 l 0.46355,0.58243 -0.774347,-0.0208 c -0.281517,-0.0229 -0.671689,-0.0166 -1.165578,0.0247 -0.496005,0.0385 -0.98813,0.09 -1.474611,0.14888 -0.49142,0.0586 -1.127478,0.14216 -1.905353,0.24976 -0.782461,0.10654 -1.514475,0.20849 -2.204508,0.30304 -1.445966,0.20743 -3.593501,0.63218 -6.451001,1.27353 -0.07468,0.0208 -0.169792,0.0339 -0.277248,0.0395 -0.105163,0.009 -0.193075,0.0215 -0.260879,0.0409 -0.06572,0.0176 -0.128447,0.0462 -0.189054,0.084 -0.20768,0.14499 -0.333622,0.38418 -0.377472,0.71755 l -0.165347,0.83009 -0.438926,-0.84279 c -0.0146,-0.0596 -0.131586,-0.29598 -0.352214,-0.71649 -0.21911,-0.41769 -0.413279,-0.75883 -0.576439,-1.02023 -0.137936,-0.22014 -0.283315,-0.43463 -0.436421,-0.63712 -0.153353,-0.20285 -0.277389,-0.37712 -0.37786,-0.52529 l -0.441255,-0.59619 0.949466,-0.83044 c 0.06742,-0.0572 0.39744,-0.41628 0.988766,-1.08021 0.590621,-0.66357 1.293001,-1.4739 2.115009,-2.43487 0.817739,-0.96202 1.410688,-1.66476 1.776553,-2.11984 0.656097,-0.79199 1.12642,-1.36102 1.409348,-1.70991 0.280564,-0.34714 0.551462,-0.69639 0.804898,-1.04987 0.253294,-0.35313 0.520911,-0.77647 0.796925,-1.27035 0.276577,-0.49389 0.497205,-0.97226 0.657577,-1.43228 l 0.128024,-0.49283 0.421569,0.71155 c 0.165806,0.29034 0.313267,0.54998 0.439561,0.77752 0.127,0.22684 0.239536,0.41946 0.340784,0.58209 0.339019,0.54186 0.625122,0.97507 0.858308,1.29928 l 0.270228,0.35877 -0.364773,0.4385 c -1.814759,2.08951 -2.907277,3.34645 -3.275894,3.76026 -0.124989,0.15452 -0.613516,0.73131 -1.457008,1.72473 -0.846667,0.99554 -1.280336,1.51871 -1.303196,1.5681 l -0.504649,0.69744"
         style="fill:#ffffff;fill-opacity:1;fill-rule:nonzero;stroke:none;stroke-width:0.08465607"
         id="path3903"
         inkscape:connector-curvature="0" />
      <path
         d="m 52.869889,212.83424 c -0.602544,0.44662 -1.077736,0.77752 -1.395236,1.03364 -0.480131,0.38806 -0.982133,0.85055 -1.507772,1.3836 l -2.71392,2.75307 c 0.01094,-0.012 -0.179564,0.20497 -0.57785,0.65864 -0.397933,0.45438 -0.768703,0.89429 -1.114778,1.3268 -0.215547,0.25153 -0.478014,0.57961 -0.7874,0.98389 -0.307269,0.4064 -0.553508,0.73237 -0.738011,0.97861 l -0.331611,0.54963 -0.396875,-0.38347 c -0.128411,-0.12383 -0.275167,-0.27023 -0.443442,-0.44627 -0.165805,-0.17391 -0.331611,-0.34713 -0.502355,-0.52563 -0.168275,-0.17604 -0.3175,-0.32456 -0.443442,-0.44627 -0.137583,-0.133 -0.237772,-0.22542 -0.300567,-0.27693 -0.06526,-0.054 -0.142522,-0.11924 -0.230716,-0.19544 -0.08819,-0.0769 -0.209551,-0.18027 -0.363362,-0.31468 l -0.552802,-0.4265 0.48648,-0.36372 c 0.321381,-0.23459 0.963436,-0.76411 1.919464,-1.59067 0.320675,-0.28999 0.636411,-0.56621 0.946503,-0.83079 0.309739,-0.26459 0.607836,-0.53129 0.894292,-0.79517 0.286455,-0.26387 0.595841,-0.59725 0.96908,-0.95743 l 0.808567,-0.77929 c 0.616303,-0.59408 1.205442,-1.3148 1.839384,-2.09621 0.434269,-0.53551 0.747888,-0.92357 0.926747,-1.16487 0.177094,-0.23918 0.343605,-0.54892 0.548569,-0.895 l 0.214136,-0.36159 0.294923,0.36618 c 0.328789,0.40711 0.698147,0.81809 1.117952,1.22379 0.497064,0.47977 0.917223,0.85054 1.273528,1.08549 l 0.445559,0.29493 -0.285045,0.21166"
         style="fill:#ffffff;fill-opacity:1;fill-rule:nonzero;stroke:none;stroke-width:0.08465607"
         id="path3905"
         inkscape:connector-curvature="0" />
      <path
         d="m 62.188868,226.37826 c 0.238477,-0.0422 0.54998,-0.121 0.936625,-0.22697 0.386644,-0.10637 0.75318,-0.20916 1.105605,-0.30579 2.081742,-0.5581 3.588809,-0.98323 4.523317,-1.27124 0.360186,-0.11782 1.151467,-0.36089 2.369256,-0.72499 l 0.191911,0.16676 c 0.139347,0.0953 0.263878,0.17843 0.368653,0.25012 0.105128,0.0716 0.215194,0.14661 0.329494,0.22765 0.113948,0.0809 0.232834,0.1604 0.355953,0.23921 0.185561,0.10707 0.430389,0.23358 0.73025,0.37663 0.298803,0.14263 0.560211,0.27464 0.779992,0.38696 l 0.442383,0.19925 -0.557741,0.14965 c -0.04198,0.0205 -0.684037,0.15931 -1.929695,0.41726 -1.2446,0.25524 -2.142772,0.44842 -2.692047,0.57644 -0.377825,0.0965 -0.779287,0.20204 -1.198387,0.31158 -0.423686,0.11109 -0.811741,0.21279 -1.170516,0.3018 -0.3556,0.0905 -0.676628,0.167 -0.969434,0.22655 l -0.44203,0.10446 c -0.122767,0.0113 -0.236714,0.0204 -0.336198,0.0307 -0.104069,0.0109 -0.190852,0.0318 -0.261055,0.0625 -0.07408,0.0319 -0.129822,0.082 -0.171803,0.15519 -0.03069,0.0536 -0.04445,0.10912 -0.04339,0.16591 0.0035,0.0587 0.01446,0.11698 0.03422,0.1808 0.02117,0.0606 0.03704,0.13035 0.05433,0.20408 -0.0014,0.12609 0.08502,0.59186 0.259291,1.39983 0.171803,0.81082 0.339373,1.60415 0.495653,2.38343 0.266347,1.20594 0.523522,2.32449 0.76447,3.3467 0.241652,1.02761 0.420511,1.70353 0.53728,2.03331 l 0.2921,0.77141 -0.760941,-0.39437 c -0.115006,-0.0661 -0.331612,-0.21043 -0.652287,-0.43299 -0.322439,-0.21979 -0.617361,-0.40887 -0.887236,-0.56445 -0.131586,-0.0761 -0.22613,-0.12689 -0.282928,-0.15212 -0.05927,-0.0269 -0.130175,-0.0604 -0.214841,-0.10156 -0.08749,-0.0431 -0.2032,-0.10252 -0.349956,-0.17226 l -0.682272,-0.30371 -0.147814,-0.71081 c -0.112183,-0.4542 -0.198261,-0.87507 -0.261761,-1.27095 -0.0635,-0.39579 -0.131586,-0.80959 -0.204611,-1.24136 -0.07126,-0.43448 -0.164747,-0.86279 -0.275873,-1.28626 -0.08573,-0.38294 -0.159102,-0.76232 -0.223661,-1.137 -0.06209,-0.37236 -0.113947,-0.69812 -0.153811,-0.97237 -0.04269,-0.27573 -0.08149,-0.55975 -0.119239,-0.85121 -0.03316,-0.29242 -0.06421,-0.45279 -0.0829,-0.4783 l -0.165453,-0.60868 -0.726722,1.25829 c -0.376062,0.65168 -0.729192,1.36108 -1.06292,2.127 -0.450497,1.0203 -0.743656,1.74251 -0.878417,2.17039 l -0.08643,0.4669 -0.457553,-0.30938 c -0.170745,-0.11342 -0.329847,-0.22063 -0.479072,-0.32533 -0.14605,-0.10284 -0.288925,-0.2001 -0.424039,-0.28967 -0.13582,-0.0893 -0.263172,-0.16704 -0.378531,-0.23357 -0.0702,-0.0405 -0.162983,-0.0867 -0.282222,-0.14016 -0.115711,-0.0521 -0.240595,-0.10887 -0.379236,-0.16676 -0.138642,-0.0579 -0.227895,-0.0977 -0.267406,-0.12044 l -0.67945,-0.34752 0.404989,-0.62371 c 0.124531,-0.1899 0.262114,-0.3955 0.410281,-0.61338 0.148519,-0.21759 0.283986,-0.41987 0.409575,-0.60593 0.126294,-0.18559 0.271991,-0.41215 0.438503,-0.67535 0.2286,-0.36947 0.585963,-0.96863 1.068211,-1.79116 0.4826,-0.82229 0.861483,-1.47246 1.137003,-1.94995 l 0.882297,-1.60609 c 0.44203,-0.80447 0.859367,-1.63103 1.247422,-2.48511 0.104422,-0.23177 0.286103,-0.67027 0.546806,-1.31692 0.261055,-0.64664 0.398991,-0.98284 0.415219,-1.0107 l 0.12065,-0.40288 0.353131,0.28293 c 0.575733,0.40358 1.025878,0.70062 1.357489,0.89218 0.14605,0.0843 0.311855,0.1725 0.489655,0.26035 0.180975,0.0892 0.386292,0.19297 0.617714,0.3115 l 0.713317,0.36689 -0.236714,0.21554 c -0.194381,0.18733 -0.357717,0.36619 -0.48895,0.54152 -0.126647,0.17392 -0.295628,0.40217 -0.497064,0.6865 -0.206375,0.2854 -0.456494,0.63465 -0.754944,1.04715 -0.283987,0.42736 -0.482248,0.72528 -0.595137,0.88844 -0.1143,0.16577 -0.258233,0.38241 -0.432152,0.6452 -0.176389,0.26553 -0.280106,0.42594 -0.31115,0.47956 l -0.52705,0.91281"
         style="fill:#ffffff;fill-opacity:1;fill-rule:nonzero;stroke:none;stroke-width:0.08465607"
         id="path3907"
         inkscape:connector-curvature="0" />
      <path
         d="m 89.418728,230.62373 c -0.354542,0.66132 -0.611364,1.17987 -0.773289,1.55413 -0.256823,0.56226 -0.496359,1.20124 -0.715081,1.91742 l -1.479903,4.84103 c 0.0046,-0.0154 -0.06738,0.26433 -0.216253,0.8497 -0.148519,0.58512 -0.278694,1.14571 -0.390525,1.68825 -0.07761,0.32191 -0.162983,0.73325 -0.255058,1.23388 -0.0889,0.50189 -0.161219,0.90385 -0.213078,1.20674 l -0.04657,0.64054 -0.527403,-0.1615 c -0.170745,-0.052 -0.367595,-0.11536 -0.597606,-0.19611 -0.226836,-0.0797 -0.453672,-0.15889 -0.686505,-0.24035 -0.229659,-0.0805 -0.430037,-0.14495 -0.597253,-0.19621 -0.183092,-0.0559 -0.314325,-0.093 -0.3937,-0.11024 -0.0829,-0.0186 -0.180975,-0.0415 -0.293864,-0.0699 -0.113947,-0.0278 -0.268817,-0.065 -0.466725,-0.11532 l -0.686506,-0.12845 0.268111,-0.54529 c 0.18027,-0.35496 0.511881,-1.11855 0.988131,-2.2885 0.154164,-0.40418 0.310444,-0.79389 0.466019,-1.1701 0.156281,-0.37634 0.300214,-0.74894 0.436387,-1.11456 0.135113,-0.36573 0.277283,-0.79689 0.428977,-1.293 l 0.678039,-2.21767 c 0.25012,-0.81869 0.477661,-1.71884 0.686859,-2.70302 0.145344,-0.6744 0.246944,-1.1617 0.296686,-1.45852 0.04939,-0.2938 0.07832,-0.64439 0.0829,-1.04662 l 0.02646,-0.41921 0.429331,0.19223 c 0.47625,0.21706 0.993069,0.41247 1.551516,0.58307 0.6604,0.20214 1.204736,0.33087 1.627717,0.38887 l 0.530578,0.0606 -0.158397,0.31806"
         style="fill:#ffffff;fill-opacity:1;fill-rule:nonzero;stroke:none;stroke-width:0.08465607"
         id="path3909"
         inkscape:connector-curvature="0" />
      <path
         d="m 113.53991,242.73421 -0.2092,-5.99229 c -0.0173,-0.49911 -0.0533,-0.9653 -0.10759,-1.39816 -0.0504,-0.43296 -0.12171,-0.88798 -0.20638,-1.3655 -0.0624,-0.29626 -0.1203,-0.56014 -0.17039,-0.78877 -0.0536,-0.22889 -0.0974,-0.46398 -0.13194,-0.70281 l -0.12312,-0.56691 0.68615,0.0409 c 0.19156,0.0127 0.34467,0.0269 0.46214,0.0358 0.11712,0.0124 0.26988,0.026 0.45191,0.0359 0.18556,0.0134 0.41275,0.0212 0.6858,0.0248 0.2981,-0.0102 0.96449,-0.0725 1.99884,-0.18327 l 0.66287,-0.0622 -0.33373,0.47862 c -0.11042,0.0918 -0.28822,0.29242 -0.5334,0.60632 -0.24589,0.31351 -0.39758,0.60787 -0.45014,0.88208 -0.17181,0.91765 -0.22684,2.22084 -0.16793,3.90303 l 0.17569,5.0334 c 0.0377,1.08839 0.2032,1.92998 0.49671,2.52017 0.15557,0.28635 0.26317,0.47706 0.3182,0.56967 0.0586,0.0922 0.17004,0.21787 0.33162,0.37786 l 0.42227,0.39398 -0.87171,0.0303 c -0.25259,0.009 -0.58103,0.007 -0.98002,-0.005 -0.3997,-0.0123 -0.72708,-0.0102 -0.98989,-7.1e-4 -0.54152,0.0189 -0.90065,0.0378 -1.07245,0.0536 l -0.92604,0.14884 -0.60572,-0.81636 c -0.56974,-0.70006 -1.03117,-1.26147 -1.37936,-1.67774 -0.35172,-0.41261 -0.76482,-0.89176 -1.23472,-1.4333 -0.47308,-0.54173 -1.02694,-1.16819 -1.66829,-1.88214 -0.52035,-0.58209 -1.13947,-1.31026 -1.85773,-2.18405 -0.71861,-0.87023 -1.08091,-1.30556 -1.08761,-1.30514 l -0.65052,-0.701 0.0339,0.96929 0.23531,6.73132 c 0.0116,0.34036 0.0642,0.7342 0.15486,1.1818 0.0395,0.21319 0.10372,0.46055 0.18733,0.73353 l 0.15416,0.59489 -0.66463,0.0233 c -0.22684,0.008 -0.53199,0.006 -0.91193,-0.007 -0.38347,-0.0127 -0.69144,-0.0114 -0.93451,-0.003 -0.17533,0.006 -0.40146,0.0233 -0.67345,0.0587 -0.27093,0.0356 -0.49072,0.0565 -0.66252,0.0623 l -0.88194,0.0307 0.22472,-0.35817 c 0.09,-0.11974 0.25153,-0.32343 0.48154,-0.61736 0.22966,-0.29352 0.369,-0.58371 0.41698,-0.87091 0.14499,-0.77734 0.18662,-2.00889 0.12771,-3.69079 l -0.0205,-0.5799 -0.12983,-4.84339 c -0.0215,-0.6095 -0.0741,-1.09083 -0.15134,-1.45175 -0.0808,-0.35733 -0.24024,-0.74151 -0.48189,-1.15161 -0.0684,-0.11744 -0.15099,-0.23788 -0.25259,-0.36079 -0.0984,-0.12347 -0.23389,-0.29037 -0.40675,-0.50203 l -0.25824,-0.33169 0.46638,-0.0161 c -0.0519,0.002 0.18873,0.0193 0.72213,0.0492 0.53693,0.0335 0.96238,0.0445 1.28623,0.0331 0.21061,-0.007 0.45014,-0.0288 0.72143,-0.0674 0.27129,-0.0386 0.5394,-0.0642 0.80504,-0.0799 l 0.77717,-0.0464 0.496,0.8194 c 0.0166,0.0193 0.20955,0.23647 0.57503,0.65828 0.3616,0.42235 0.68263,0.7939 0.95991,1.11221 0.27728,0.3211 0.68333,0.79389 1.22096,1.42074 0.54116,0.62992 0.96062,1.12159 1.26542,1.47768 0.34184,0.41328 0.67028,0.80726 0.97543,1.17962 0.30868,0.37193 0.67416,0.8104 1.09396,1.31491 0.42051,0.50436 0.73837,0.88621 0.95497,1.13785 0.21943,0.25216 0.34149,0.39038 0.36795,0.41243 l 0.79128,0.90664"
         style="fill:#ffffff;fill-opacity:1;fill-rule:nonzero;stroke:none;stroke-width:0.08465607"
         id="path3911"
         inkscape:connector-curvature="0" />
      <path
         d="m 141.96286,224.9371 c 0.22931,0.0576 0.50695,0.17296 0.84208,0.34519 0.33232,0.17364 0.61454,0.34258 0.84914,0.5074 0.23495,0.16704 0.38947,0.28952 0.46673,0.37733 l 0.25858,0.33609 -0.4452,0.19735 c -0.68616,0.32656 -1.21497,0.59256 -1.58503,0.7947 -0.54399,0.28952 -0.94615,0.53262 -1.19768,0.73201 l -0.3362,0.25838 -0.5207,-0.47516 c -0.53799,-0.49992 -1.20791,-0.66971 -2.01119,-0.50973 -0.34255,0.0613 -0.76165,0.15766 -1.25448,0.27976 -0.49177,0.12484 -0.77858,0.20242 -0.85372,0.23315 l -0.44803,0.18094 c -0.20708,0.0838 -0.44697,0.24338 -0.71931,0.47928 -0.27446,0.23731 -0.54293,0.5165 -0.80786,0.84046 -0.26847,0.32177 -0.49848,0.65278 -0.70132,0.99 -0.20285,0.33718 -0.36442,0.68227 -0.4886,1.03339 -0.27905,0.74567 -0.36407,1.5215 -0.25823,2.32156 0.10971,0.79901 0.26423,1.44985 0.46813,1.95488 l 0.23601,0.5835 c 0.0875,0.2166 0.26282,0.49526 0.53164,0.83079 0.26564,0.33736 0.57114,0.66121 0.92004,0.97871 0.35137,0.31598 0.70238,0.56265 1.05516,0.74193 0.58032,0.28635 1.31586,0.46164 2.20698,0.52818 0.89076,0.0667 1.50636,0.0311 1.84608,-0.10594 l 0.35172,-0.14224 c 0.11607,-0.0674 0.33338,-0.20451 0.64629,-0.40774 0.31186,-0.20687 0.63147,-0.45463 0.95462,-0.74581 0.32314,-0.29147 0.56762,-0.58621 0.73378,-0.88441 0.48365,-0.84586 0.49847,-1.83117 0.043,-2.95865 l -0.4445,-1.1008 -0.69745,-1.14487 0.77223,-0.27023 c 0.22508,-0.0492 0.64135,-0.19622 1.24602,-0.44041 0.26775,-0.1155 0.50905,-0.21953 0.7246,-0.3102 0.21802,-0.0918 0.39547,-0.16344 0.53622,-0.22048 l 0.39335,-0.22187 0.10654,0.41879 c 0.0413,0.15448 0.072,0.29986 0.096,0.43698 0.0208,0.13822 0.0469,0.32368 0.0783,0.54914 0.0286,0.22613 0.0639,0.44277 0.10584,0.64244 0.21448,0.81594 0.35983,1.32348 0.44132,1.5252 l 0.31221,0.77255 c 0.13652,0.3368 0.40463,0.72496 0.81174,1.16924 0.1651,0.19223 0.39688,0.40267 0.68721,0.62798 0.29492,0.22737 0.45579,0.34036 0.4819,0.34396 l 0.40957,0.1742 -0.54998,0.1626 c -0.2032,0.0682 -0.41839,0.13367 -0.63817,0.19459 -0.22014,0.0612 -0.46638,0.13628 -0.73837,0.225 -0.6283,0.20133 -1.05622,0.34633 -1.27882,0.43618 l -1.62031,0.65468 c -0.14146,0.0572 -0.25929,0.11205 -0.34925,0.16591 -0.0903,0.0536 -0.19896,0.1221 -0.32349,0.20412 -0.12418,0.0816 -0.25577,0.1626 -0.40005,0.24857 -0.10337,0.063 -0.23637,0.141 -0.39053,0.23523 -0.15875,0.0918 -0.29175,0.17022 -0.3997,0.23125 -0.1083,0.0611 -0.17533,0.0953 -0.19896,0.10488 l -0.68545,0.27725 c -0.0748,0.0229 -0.14817,0.0489 -0.22296,0.0725 -0.0776,0.024 -0.14287,0.0437 -0.20249,0.0606 -0.0568,0.0157 -0.11042,0.0303 -0.15946,0.047 -0.0494,0.0164 -0.11853,0.0445 -0.21166,0.0819 -0.23425,0.0949 -0.51859,0.24116 -0.84667,0.43296 -0.32667,0.19502 -0.496,0.29507 -0.50835,0.29986 l -0.32456,0.1312 c -0.83114,0.26226 -1.54693,0.42224 -2.14806,0.48341 -0.60184,0.0609 -1.15041,0.045 -1.64924,-0.0477 -0.49883,-0.0919 -0.95003,-0.23883 -1.35572,-0.4385 -0.40464,-0.2038 -0.83538,-0.47392 -1.28941,-0.81841 -0.51152,-0.37415 -0.96696,-0.87919 -1.3656,-1.51902 -0.39723,-0.63666 -0.65405,-1.10007 -0.77047,-1.38836 l -0.30621,-0.75752 c -0.16439,-0.40626 -0.28645,-0.91641 -0.36583,-1.53818 -0.0801,-0.62163 -0.0857,-1.2839 -0.0205,-1.98865 0.0667,-0.70926 0.23107,-1.36673 0.48825,-1.97774 0.27234,-0.64177 0.66639,-1.24174 1.17651,-1.79723 0.51118,-0.55287 1.06363,-1.02831 1.66617,-1.42547 0.60184,-0.39712 1.20086,-0.71613 1.80199,-0.95923 l 0.49318,-0.19901 c 0.0688,-0.028 0.13265,-0.0606 0.18521,-0.0958 0.055,-0.0362 0.10795,-0.0784 0.16545,-0.12637 0.0536,-0.0497 0.10407,-0.0981 0.14535,-0.14235 0.0444,-0.046 0.10195,-0.0941 0.17991,-0.14301 0.59937,-0.37857 1.01107,-0.61489 1.23967,-0.70707 l 1.7018,-0.68792 c 0.33372,-0.1348 0.82408,-0.24543 1.47531,-0.3302 0.64841,-0.0835 1.23402,-0.0543 1.75789,0.0911"
         style="fill:#ffffff;fill-opacity:1;fill-rule:nonzero;stroke:none;stroke-width:0.08465607"
         id="path3913"
         inkscape:connector-curvature="0" />
      <path
         d="m 155.83127,215.33403 c -0.0219,-0.024 0.11183,0.23142 0.39616,0.76059 0.28681,0.53163 0.53905,0.92851 0.75954,1.19203 0.2099,0.24307 0.4953,0.5842 0.85336,1.02094 0.3609,0.43498 0.66111,0.8061 0.90417,1.11054 0.24624,0.30198 0.36654,0.45544 0.36654,0.45544 l 2.19816,2.44122 c 0.19544,0.21696 0.50341,0.50624 0.92816,0.86643 0.42192,0.36159 0.84208,0.62039 1.25871,0.78203 0.79728,0.29034 1.50248,0.15724 2.11455,-0.39398 l 0.72072,-0.64876 c 0.81951,-0.73801 1.0848,-1.98508 0.79552,-3.74473 -0.0695,-0.46532 -0.24801,-0.96379 -0.53481,-1.49543 -0.28434,-0.52952 -0.60255,-1.02799 -0.95497,-1.49683 -0.35419,-0.46638 -0.70591,-0.89571 -1.05728,-1.28623 -0.14358,-0.15911 -0.23424,-0.26035 -0.27799,-0.30374 -0.0437,-0.0437 -0.0875,-0.0833 -0.12947,-0.11924 l -0.4773,-0.53058 c -0.44486,-0.49389 -0.79481,-0.87277 -1.05199,-1.13453 -0.25964,-0.26318 -0.57714,-0.55351 -0.96202,-0.87419 -0.15417,-0.13229 -0.31962,-0.26282 -0.49918,-0.38453 -0.18168,-0.12453 -0.32738,-0.23742 -0.44345,-0.33796 l -0.37218,-0.35454 0.52458,-0.41098 c 0.51647,-0.43004 0.85267,-0.71544 1.00754,-0.85443 0.14675,-0.13265 0.32738,-0.30445 0.54539,-0.51823 0.21802,-0.21343 0.39899,-0.38524 0.54399,-0.51576 l 0.44555,-0.40147 0.19897,0.2794 c 0.3175,0.47343 0.5835,0.87595 0.79798,1.20545 0.21908,0.3309 0.42193,0.62441 0.6149,0.88688 0.84843,1.11231 1.60619,2.04082 2.27682,2.78518 l 2.91606,3.23885 c 0.61842,0.68686 1.1356,1.20333 1.54694,1.54835 0.35595,0.25999 0.80151,0.47871 1.33914,0.64911 l 0.47801,0.11924 -0.71755,0.59372 c -0.0698,0.0632 -0.23212,0.18768 -0.4833,0.37465 -0.25047,0.18203 -0.46849,0.35666 -0.65158,0.52141 -0.19085,0.17109 -0.40464,0.39405 -0.64841,0.67063 -0.24483,0.28151 -0.35454,0.41098 -0.33055,0.38946 l -0.31891,0.33902 -0.6597,-0.81491 c -0.1651,-0.1838 -0.28045,-0.254 -0.35242,-0.20673 -0.0335,0.03 -0.0811,0.10795 -0.14288,0.23812 -0.0638,0.12736 -0.11006,0.21238 -0.14428,0.25153 -0.008,0.0296 -0.0773,0.20038 -0.2152,0.51224 -0.0494,0.0709 -0.10654,0.15769 -0.17427,0.26634 -0.0702,0.11113 -0.15099,0.20567 -0.24518,0.29034 l -0.46002,0.41451 c 0.005,-0.004 -0.12418,0.2212 -0.38488,0.67773 -0.26282,0.45931 -0.47343,0.80683 -0.63324,1.04637 -0.0176,0.0245 -0.115,0.17762 -0.29033,0.45776 -0.17287,0.28251 -0.30304,0.47791 -0.38982,0.59489 -0.0861,0.11702 -0.20532,0.25136 -0.35843,0.40584 l -1.01847,0.94354 c -0.248,0.22327 -0.57961,0.42196 -0.99307,0.59298 -0.4131,0.17128 -0.81244,0.24695 -1.19697,0.22684 -0.32879,-0.0358 -0.66569,-0.13353 -1.01283,-0.29658 -0.34537,-0.16037 -0.57432,-0.30343 -0.68262,-0.424 l -6.67738,-7.41554 c -0.23636,-0.26246 -0.56797,-0.50517 -0.99765,-0.72495 -0.10019,-0.0536 -0.23319,-0.10866 -0.40252,-0.16122 -0.16687,-0.0547 -0.29987,-0.10054 -0.39441,-0.14217 l -0.51259,-0.25436 0.54575,-0.37782 c 0.58491,-0.42651 1.04211,-0.78564 1.36772,-1.07879 0.0843,-0.0762 0.31221,-0.30269 0.68792,-0.68475 0.37606,-0.37747 0.54751,-0.55456 0.51929,-0.52881 l 0.50976,-0.48507 0.0882,0.25224"
         style="fill:#ffffff;fill-opacity:1;fill-rule:nonzero;stroke:none;stroke-width:0.08465607"
         id="path3915"
         inkscape:connector-curvature="0" />
      <path
         d="m 179.68928,201.32698 0.74683,0.45826 c 0.16757,0.0931 0.53869,0.28011 1.1183,0.5715 0.57856,0.28787 1.13383,0.53622 1.67111,0.74472 0.44344,0.18309 0.79199,0.31679 1.04634,0.40604 0.25294,0.0921 0.55915,0.16898 0.91193,0.2346 l 0.40464,0.0727 -0.33902,0.53869 c 0.006,-0.0113 -0.12277,0.18063 -0.38277,0.57009 -0.26246,0.39229 -0.46178,0.71191 -0.59972,0.96168 -0.0522,0.0935 -0.10195,0.2032 -0.1524,0.32737 -0.0497,0.12418 -0.0935,0.22966 -0.12629,0.31574 -0.0328,0.0854 -0.0681,0.16969 -0.10055,0.248 -0.0339,0.0811 -0.0515,0.127 -0.0579,0.13829 l -0.3048,0.74295 -0.31503,-0.27446 c -0.91687,-0.76059 -2.08386,-1.54446 -3.4985,-2.35091 -0.43109,-0.23883 -0.76835,-0.4258 -1.01106,-0.55704 -0.24307,-0.13053 -0.48542,-0.26105 -0.72813,-0.39193 -0.24272,-0.13124 -0.58456,-0.31645 -1.03012,-0.56339 l -1.5113,-0.83785 c -0.0907,-0.0582 -0.18415,-0.11712 -0.28469,-0.17674 -0.0974,-0.0579 -0.30162,-0.17074 -0.61101,-0.34219 -0.98107,-0.54434 -1.77518,-0.89112 -2.38019,-1.03752 -0.40675,-0.0885 -0.88829,-0.13653 -1.43933,-0.14535 l -0.52811,-0.0109 0.3309,-0.43604 c 0.2219,-0.34007 0.44274,-0.69215 0.6604,-1.05762 0.21555,-0.36231 0.41558,-0.69639 0.59232,-0.99484 0.17709,-0.29915 0.37112,-0.63641 0.58173,-1.00189 l 0.20708,-0.37429 c 0.2092,-0.37712 0.45332,-0.89818 0.72848,-1.5614 0.27623,-0.66604 0.5581,-1.25553 0.8442,-1.77165 l 0.5394,-0.97261 c 0.28787,-0.51929 0.59196,-0.9211 0.91369,-1.19979 0.32068,-0.27764 0.72355,-0.46955 1.21356,-0.5768 0.77011,-0.16615 1.46015,-0.0801 2.0701,0.25824 l 0.55033,0.3048 c 0.40288,0.22331 0.73449,0.48119 0.98884,0.77117 0.25506,0.28928 0.48613,0.65476 0.69109,1.09432 0.12383,0.26529 0.21837,0.54363 0.28187,0.84278 0.0691,0.29739 0.10266,0.56445 0.10407,0.79516 l -0.0582,0.6537 c -0.004,0.30903 0.0487,0.49424 0.15946,0.55563 0.0709,0.0392 0.15063,0.0423 0.23001,0.0127 0.084,-0.0314 0.16263,-0.0586 0.23177,-0.0829 0.44803,-0.19297 0.76518,-0.31009 0.95074,-0.34466 0.26952,-0.0508 0.54963,-0.0882 0.83961,-0.10901 0.28928,-0.0215 0.54434,-0.0325 0.76659,-0.0392 0.21766,-0.005 0.46072,-0.007 0.72178,-0.0109 0.26141,-0.004 0.42122,-0.004 0.47907,-0.002 l 0.75248,-0.006 c 0.0639,-0.009 0.24236,-0.036 0.53763,-0.0871 0.29386,-0.0487 0.60748,-0.11959 0.93804,-0.21449 0.32949,-0.0917 0.60466,-0.19473 0.82902,-0.3115 0.16652,-0.0861 0.36513,-0.22401 0.59655,-0.40711 0.23107,-0.18344 0.38453,-0.29845 0.46002,-0.34219 l 0.34678,-0.23001 0.0462,0.21061 c 0.005,0.0437 -0.0307,0.20179 -0.10019,0.47484 -0.0727,0.27128 -0.15663,0.54363 -0.25823,0.8135 -0.14147,0.36266 -0.36407,0.81774 -0.66887,1.36807 l -0.31785,0.57292 c -0.42616,0.7687 -0.99695,1.22343 -1.71274,1.36383 -0.26352,0.0469 -0.50906,0.0815 -0.73272,0.0984 -0.22472,0.0162 -0.52246,0.0254 -0.89394,0.0272 -0.37288,-0.002 -0.69532,-0.003 -0.9652,-0.005 -0.26987,-0.001 -0.48683,0.008 -0.65123,0.0243 l -0.5535,0.042 c -0.79375,-0.006 -1.38325,0.0674 -1.77271,0.22225 -0.72708,0.28681 -1.20015,0.63253 -1.42311,1.03505 z m -1.03259,-0.50517 0.27693,-0.49954 c 0.11924,-0.2159 0.28575,-0.6163 0.49672,-1.20368 0.21202,-0.58349 0.29351,-1.1056 0.24518,-1.56668 -0.0716,-0.52529 -0.2466,-1.02623 -0.52564,-1.49966 -0.28187,-0.47519 -0.57715,-0.79834 -0.88618,-0.96979 l -0.49918,-0.27657 c -0.49953,-0.27658 -0.95391,-0.37324 -1.36948,-0.2921 -0.24448,0.0392 -0.48825,0.14463 -0.72496,0.3175 -0.23672,0.17286 -0.44027,0.35313 -0.61137,0.54751 -0.17145,0.19014 -0.26811,0.30374 -0.28998,0.34325 l -0.21555,0.38876 c -0.1023,0.1845 -0.16227,0.42545 -0.18168,0.72214 -0.0201,0.29668 0.0624,0.61665 0.24624,0.96731 0.23636,0.4498 0.46602,0.78458 0.68862,1.01177 0.22437,0.22472 0.39794,0.37289 0.52529,0.44344 l 2.25213,1.24848 0.57291,0.31786"
         style="fill:#ffffff;fill-opacity:1;fill-rule:nonzero;stroke:none;stroke-width:0.08465607"
         id="path3917"
         inkscape:connector-curvature="0" />
      <path
         d="m 51.206189,207.61031 0.07056,1.55222 c 1.856316,0.39335 3.975453,1.39806 5.483225,2.39607 l -0.102658,-2.71392 c -1.814337,-1.04563 -4.017434,-1.29046 -5.451123,-1.23437"
         style="fill:#ffffff;fill-opacity:1;fill-rule:nonzero;stroke:none;stroke-width:0.08465607"
         id="path3919"
         inkscape:connector-curvature="0" />
    </g>
  </g>
</svg>
