<?xml version="1.0" encoding="UTF-8" standalone="no"?>
<!-- Created with Inkscape (http://www.inkscape.org/) -->

<svg
   xmlns:dc="http://purl.org/dc/elements/1.1/"
   xmlns:cc="http://creativecommons.org/ns#"
   xmlns:rdf="http://www.w3.org/1999/02/22-rdf-syntax-ns#"
   xmlns:svg="http://www.w3.org/2000/svg"
   xmlns="http://www.w3.org/2000/svg"
   xmlns:sodipodi="http://sodipodi.sourceforge.net/DTD/sodipodi-0.dtd"
   xmlns:inkscape="http://www.inkscape.org/namespaces/inkscape"
   version="1.1"
   id="svg2"
   xml:space="preserve"
   width="169.78839"
   height="252"
   viewBox="0 0 169.78839 251.99999"
   sodipodi:docname="ujpest-fc-budapest.svg"
   inkscape:version="0.92.4 (5da689c313, 2019-01-14)"><metadata
     id="metadata8"><rdf:RDF><cc:Work
         rdf:about=""><dc:format>image/svg+xml</dc:format><dc:type
           rdf:resource="http://purl.org/dc/dcmitype/StillImage" /><dc:title></dc:title></cc:Work></rdf:RDF></metadata><defs
     id="defs6"><linearGradient
       x1="174.00244"
       y1="670.63501"
       x2="421.42816"
       y2="423.20819"
       gradientUnits="userSpaceOnUse"
       spreadMethod="pad"
       id="linearGradient22"><stop
         style="stop-opacity:1;stop-color:#270d2e"
         offset="0"
         id="stop12" /><stop
         style="stop-opacity:1;stop-color:#582691"
         offset="0.20751882"
         id="stop14" /><stop
         style="stop-opacity:1;stop-color:#582691"
         offset="0.5"
         id="stop16" /><stop
         style="stop-opacity:1;stop-color:#582691"
         offset="0.79248118"
         id="stop18" /><stop
         style="stop-opacity:1;stop-color:#270d2e"
         offset="1"
         id="stop20" /></linearGradient></defs><sodipodi:namedview
     pagecolor="#ffffff"
     bordercolor="#666666"
     borderopacity="1"
     objecttolerance="10"
     gridtolerance="10"
     guidetolerance="10"
     inkscape:pageopacity="0"
     inkscape:pageshadow="2"
     inkscape:window-width="1366"
     inkscape:window-height="705"
     id="namedview4"
     showgrid="false"
     inkscape:zoom="1.6819306"
     inkscape:cx="69.493685"
     inkscape:cy="72.680012"
     inkscape:window-x="-8"
     inkscape:window-y="-8"
     inkscape:window-maximized="1"
     inkscape:current-layer="g10"
     fit-margin-top="1"
     fit-margin-bottom="1"
     fit-margin-right="1"
     fit-margin-left="1" /><g
     id="g10"
     inkscape:groupmode="layer"
     inkscape:label="ujpest-fc-budapest-seeklogo.com"
     transform="matrix(1.3333333,0,0,-1.3333333,-93.864251,364.7233)"><g
       id="g135"
       transform="matrix(0.27775719,0,0,0.27775719,51.386269,61.60188)"><g
         id="g105"><path
           d="m 204.5708,404.39746 c 4.24561,2.62549 6.5835,3.9624 7.13233,7.49805 0.56982,3.67383 -2.01172,6.7666 -8.59522,9.69287 -10.91406,4.8501 -23.28613,9.44824 -33.52686,25.05322 -12.56494,19.14551 -13.28906,37.48975 -13.28906,56.87403 V 652.9248 h 115.94287 c 0,0 -0.24072,-12.25244 10.21192,-18.10498 v -287.4956 c -30.32813,6.94189 -68.1836,33.11719 -85.37403,53.23291 0,0 2.86524,0.9751 7.49805,3.84033 m 186.28906,0 c -4.24511,2.62549 -6.58349,3.9624 -7.13183,7.49805 -0.57032,3.67383 2.01123,6.7666 8.59472,9.69287 10.91407,4.8501 23.28614,9.44824 33.52735,25.05322 12.56445,19.14551 13.28857,37.48975 13.28857,56.87403 V 652.9248 H 323.19629 c 0,0 0.24072,-12.25244 -10.2124,-18.10498 v -287.4956 c 30.32812,6.94189 68.18359,33.11719 85.37402,53.23291 0,0 -2.86475,0.9751 -7.49805,3.84033 z"
           style="fill:url(#linearGradient22);fill-opacity:1;fill-rule:nonzero;stroke:none"
           id="path24"
           inkscape:connector-curvature="0" /><path
           d="m 161.12793,276.90869 h 41.14404 v -44.89306 c 0,-8.13575 -2.46972,-14.2129 -6.79248,-18.32959 -4.42578,-4.21485 -10.90967,-6.375 -18.73193,-6.3711 -10.33643,0.004 -17.10059,5.51221 -22.04053,11.09912 l 8.41211,11.09473 c 4.1167,-4.31348 8.48975,-7.55957 13.53272,-7.55957 5.96972,0 9.35888,2.81299 9.35888,10.75293 v 30.8208 h -24.88281 z"
           style="fill:#582691;fill-opacity:1;fill-rule:nonzero;stroke:none"
           id="path26"
           inkscape:connector-curvature="0" /><path
           d="m 231.2373,276.90869 h 29.43555 c 17.18799,0 27.5835,-9.70361 27.5835,-23.9165 0,-15.8794 -12.96826,-24.1128 -29.12744,-24.1128 h -12.042 V 208.29492 H 231.2373 v 68.61377 m 28.40674,-34.60058 c 7.9253,0 12.55616,4.5083 12.55616,10.58642 0,6.76318 -4.94043,10.39014 -12.86524,10.39014 h -12.24805 v -20.97656 z"
           style="fill:#582691;fill-opacity:1;fill-rule:nonzero;stroke:none"
           id="path28"
           inkscape:connector-curvature="0" /><path
           d="m 311.38574,276.90869 h 53.41065 v -13.42822 h -37.66358 v -13.91943 h 33.44678 v -13.42823 h -33.44678 v -14.40918 h 38.17823 v -13.42871 h -53.9253 z"
           style="fill:#582691;fill-opacity:1;fill-rule:nonzero;stroke:none"
           id="path30"
           inkscape:connector-curvature="0" /><path
           d="m 388.29932,219.00293 6.70556,12.77978 c 6.48389,-5.08886 16.02735,-10.39501 24.26123,-10.39501 6.48389,0 9.89258,2.56787 9.99707,6.23925 0.12207,4.28272 -4.04345,6.84034 -14.02002,9.05371 -11.58252,2.56885 -22.65869,6.76465 -22.65869,20.56202 0,12.42773 10.49854,20.64697 25.21631,20.64697 10.49805,0 21.82568,-2.29248 28.65283,-7.64795 l -6.94922,-12.41406 c -6.38134,4.208 -15.14111,6.50097 -21.21386,6.50097 -6.07227,0 -7.80274,-3.05761 -7.80274,-5.62646 0,-4.0376 2.95215,-6.61719 13.77686,-9.29834 14.61572,-3.62012 22.45752,-8.6001 22.45752,-20.73389 0,-13.60058 -10.90967,-21.2334 -26.45117,-21.2334 -10.91016,0 -23.32618,4.22803 -31.97168,11.56641 z"
           style="fill:#582691;fill-opacity:1;fill-rule:nonzero;stroke:none"
           id="path32"
           inkscape:connector-curvature="0" /><path
           d="m 487.26709,262.99072 h -21.09326 v 13.91797 h 58.03662 v -13.91797 h -21.09326 v -54.6958 h -15.8501 z"
           style="fill:#582691;fill-opacity:1;fill-rule:nonzero;stroke:none"
           id="path34"
           inkscape:connector-curvature="0" /><path
           d="m 71.14819,237.70068 v 39.20801 h 15.85035 v -38.81592 c 0,-11.17382 5.86669,-16.95752 15.5415,-16.95752 9.6748,0 15.5415,5.58741 15.5415,16.46729 v 39.30615 h 15.8501 v -38.71728 c 0,-20.78028 -12.24805,-30.97461 -31.59717,-30.97461 -19.34961,0 -31.18628,10.29199 -31.18628,30.48388 m 27.11158,52.39991 h 12.31396 l 11.82568,11.09521 -13.89843,4.7544 z"
           style="fill:#582691;fill-opacity:1;fill-rule:nonzero;stroke:none"
           id="path36"
           inkscape:connector-curvature="0" /><path
           d="m 108.56641,167.28223 h 18.71484 v -4.91602 h -13.30713 v -5.23096 h 11.72656 v -4.9165 h -11.72656 v -9.51514 h -5.40771 z"
           style="fill:#582691;fill-opacity:1;fill-rule:nonzero;stroke:none"
           id="path38"
           inkscape:connector-curvature="0" /><path
           d="m 136.55029,154.99268 c 0,6.98779 5.5127,12.71045 13.09717,12.71045 7.58399,0 13.02637,-5.65284 13.02637,-12.71045 0,-6.98682 -5.5127,-12.71045 -13.09668,-12.71045 -7.58447,0 -13.02686,5.65332 -13.02686,12.71045 m 20.47071,0 c 0,4.21386 -3.08985,7.72509 -7.44385,7.72509 -4.35401,0 -7.37354,-3.44091 -7.37354,-7.72509 0,-4.21338 3.08985,-7.72461 7.44385,-7.72461 4.35352,0 7.37354,3.44091 7.37354,7.72461 z"
           style="fill:#582691;fill-opacity:1;fill-rule:nonzero;stroke:none"
           id="path40"
           inkscape:connector-curvature="0" /><path
           d="m 172.43457,154.99268 c 0,6.98779 5.5127,12.71045 13.09668,12.71045 7.58447,0 13.02637,-5.65284 13.02637,-12.71045 0,-6.98682 -5.51221,-12.71045 -13.09619,-12.71045 -7.58497,0 -13.02686,5.65332 -13.02686,12.71045 m 20.47022,0 c 0,4.21386 -3.08936,7.72509 -7.44336,7.72509 -4.3545,0 -7.37354,-3.44091 -7.37354,-7.72509 0,-4.21338 3.08984,-7.72461 7.44336,-7.72461 4.354,0 7.37354,3.44091 7.37354,7.72461 z"
           style="fill:#582691;fill-opacity:1;fill-rule:nonzero;stroke:none"
           id="path42"
           inkscape:connector-curvature="0" /><path
           d="m 214.07715,162.2959 h -7.47852 v 4.98633 h 20.36426 v -4.98633 h -7.47803 v -19.59229 h -5.40771 z"
           style="fill:#582691;fill-opacity:1;fill-rule:nonzero;stroke:none"
           id="path44"
           inkscape:connector-curvature="0" /><path
           d="m 237.14551,167.28223 h 11.41162 c 2.80859,0 5.021,-0.77295 6.4248,-2.17725 1.12403,-1.12353 1.68604,-2.49316 1.68604,-4.24805 0,-2.77392 -1.47461,-4.31933 -3.23047,-5.30224 2.84424,-1.08887 4.59961,-2.73877 4.59961,-6.10938 0,-4.49463 -3.65137,-6.7417 -9.19922,-6.7417 h -11.69238 v 24.57862 m 10.25293,-9.93653 c 2.3872,0 3.89746,0.77246 3.89746,2.66797 0,1.61524 -1.26416,2.52832 -3.54639,2.52832 h -5.3374 v -5.19629 h 4.98633 m 1.43945,-9.90185 c 2.3877,0 3.82715,0.84277 3.82715,2.73828 0,1.65088 -1.22852,2.66894 -4.00244,2.66894 h -6.25049 v -5.40722 z"
           style="fill:#582691;fill-opacity:1;fill-rule:nonzero;stroke:none"
           id="path46"
           inkscape:connector-curvature="0" /><path
           d="m 276.96191,167.45752 h 4.98584 l 10.5337,-24.75391 h -5.65284 l -2.24707,5.5127 h -10.39355 l -2.24707,-5.5127 h -5.51221 l 10.5332,24.75391 m 5.68799,-14.46582 -3.26513,7.96973 -3.26514,-7.96973 z"
           style="fill:#582691;fill-opacity:1;fill-rule:nonzero;stroke:none"
           id="path48"
           inkscape:connector-curvature="0" /><path
           d="m 302.31299,167.28223 h 5.40722 v -19.66309 h 12.25391 v -4.91553 h -17.66113 z"
           style="fill:#582691;fill-opacity:1;fill-rule:nonzero;stroke:none"
           id="path50"
           inkscape:connector-curvature="0" /><path
           d="m 330.08594,167.28223 h 5.40722 v -19.66309 h 12.25391 v -4.91553 h -17.66113 z"
           style="fill:#582691;fill-opacity:1;fill-rule:nonzero;stroke:none"
           id="path52"
           inkscape:connector-curvature="0" /><path
           d="m 373.34277,154.99268 c 0,6.98779 5.26709,12.71045 12.81592,12.71045 4.63477,0 7.23291,-1.75489 9.51563,-4.00245 l -3.23047,-3.72216 c -1.89551,1.7207 -3.51123,2.73925 -6.31983,2.73925 -4.14355,0 -7.12793,-3.44091 -7.12793,-7.72509 0,-4.21338 2.91455,-7.72461 7.12793,-7.72461 2.8086,0 4.5293,1.12402 6.45996,2.8789 l 3.44141,-3.68701 c -2.52783,-2.70264 -5.33691,-4.17773 -10.07666,-4.17773 -7.23389,0 -12.60596,5.58252 -12.60596,12.71045 z"
           style="fill:#582691;fill-opacity:1;fill-rule:nonzero;stroke:none"
           id="path54"
           inkscape:connector-curvature="0" /><path
           d="m 406.38281,167.28223 h 5.40723 v -19.66309 h 12.25439 v -4.91553 h -17.66162 z"
           style="fill:#582691;fill-opacity:1;fill-rule:nonzero;stroke:none"
           id="path56"
           inkscape:connector-curvature="0" /><path
           d="m 433.06836,153.2373 v 14.04493 h 5.40723 v -13.90479 c 0,-4.00244 2.00146,-6.07373 5.30127,-6.07373 3.30078,0 5.30224,2.00147 5.30224,5.89893 v 14.07959 h 5.40723 V 153.4126 c 0,-7.44385 -4.17822,-11.09571 -10.77881,-11.09571 -6.60205,0 -10.63916,3.68702 -10.63916,10.92041 z"
           style="fill:#582691;fill-opacity:1;fill-rule:nonzero;stroke:none"
           id="path58"
           inkscape:connector-curvature="0" /><path
           d="m 466.03857,167.28223 h 11.41114 c 2.80908,0 5.0205,-0.77295 6.42578,-2.17725 1.12305,-1.12353 1.68506,-2.49316 1.68506,-4.24805 0,-2.77392 -1.4751,-4.31933 -3.22998,-5.30224 2.84375,-1.08887 4.59961,-2.73877 4.59961,-6.10938 0,-4.49463 -3.65235,-6.7417 -9.19971,-6.7417 h -11.6919 v 24.57862 m 10.25293,-9.93653 c 2.38672,0 3.89698,0.77246 3.89698,2.66797 0,1.61524 -1.26416,2.52832 -3.54639,2.52832 h -5.3374 v -5.19629 h 4.98681 m 1.43897,-9.90185 c 2.38769,0 3.82715,0.84277 3.82715,2.73828 0,1.65088 -1.22901,2.66894 -4.00244,2.66894 h -6.25049 v -5.40722 z"
           style="fill:#582691;fill-opacity:1;fill-rule:nonzero;stroke:none"
           id="path60"
           inkscape:connector-curvature="0" /><path
           d="m 257.34229,109.84619 c 0,-0.59912 0,-23.53271 0,-24.13232 -0.49317,0 -3.16895,0 -3.66114,0 0,0.60351 0,20.36474 0,20.36474 0,0 -3.63916,0 -5.18408,0 0,1.39014 0,3.35791 0,3.76758 0.5625,0 8.2832,0 8.84522,0 z"
           style="fill:#582691;fill-opacity:1;fill-rule:nonzero;stroke:none"
           id="path62"
           inkscape:connector-curvature="0" /><path
           d="m 270.8501,103.69629 c 0,-2.37207 1.08545,-4.04834 3.41504,-5.27295 l 0.58545,-0.30713 -0.61036,-0.25488 c -2.84814,-1.18945 -4.23242,-3.05957 -4.23242,-5.7168 0,-3.99316 3.72705,-6.78223 9.06397,-6.78223 5.4209,0 9.06396,2.73975 9.06396,6.8169 0,2.54687 -1.34863,4.354 -4.24365,5.68701 l -0.57324,0.26367 0.55908,0.29346 c 2.29785,1.20801 3.41504,2.91016 3.41504,5.20264 0,3.70556 -3.45801,6.39599 -8.22119,6.39599 -4.68701,0 -8.22168,-2.71972 -8.22168,-6.32568 m 3.52099,-0.45654 c 0,2.19482 1.97657,3.78662 4.70069,3.78662 2.72314,0 4.70019,-1.57715 4.70019,-3.75098 0,-2.31641 -1.97705,-3.99756 -4.70019,-3.99756 -2.72412,0 -4.70069,1.66602 -4.70069,3.96192 m -0.77197,-10.88477 c 0,2.41602 2.25,4.10352 5.47266,4.10352 3.1709,0 5.47265,-1.6958 5.47265,-4.03321 0,-2.3955 -2.25097,-4.06787 -5.47265,-4.06787 -3.22266,0 -5.47266,1.64404 -5.47266,3.99756 z"
           style="fill:#582691;fill-opacity:1;fill-rule:nonzero;stroke:none"
           id="path64"
           inkscape:connector-curvature="0" /><path
           d="m 299.95752,103.69629 c 0,-2.37207 1.08496,-4.04785 3.41553,-5.27295 l 0.58545,-0.30713 -0.60987,-0.25488 c -2.84863,-1.18945 -4.2334,-3.05957 -4.2334,-5.7168 0,-3.99316 3.72706,-6.78223 9.06348,-6.78223 5.42188,0 9.06397,2.73975 9.06397,6.8169 0,2.54687 -1.34766,4.354 -4.24268,5.68701 l -0.57422,0.26367 0.55908,0.29346 c 2.29834,1.20801 3.41504,2.91016 3.41504,5.20264 0,3.70556 -3.45703,6.39599 -8.22119,6.39599 -4.68701,0 -8.22119,-2.71972 -8.22119,-6.32568 m 3.52148,-0.45654 c 0,2.19482 1.97657,3.78662 4.69971,3.78662 2.72363,0 4.70068,-1.57715 4.70068,-3.75098 0,-2.31641 -1.97705,-3.99756 -4.70068,-3.99756 -2.72314,0 -4.69971,1.66602 -4.69971,3.96192 m -0.77246,-10.88477 c 0,2.41602 2.25049,4.10352 5.47217,4.10352 3.1709,0 5.47266,-1.6958 5.47266,-4.03321 0,-2.3955 -2.25049,-4.06787 -5.47266,-4.06787 -3.22168,0 -5.47217,1.64404 -5.47217,3.99756 z"
           style="fill:#582691;fill-opacity:1;fill-rule:nonzero;stroke:none"
           id="path66"
           inkscape:connector-curvature="0" /><path
           d="m 330.94629,109.6709 c -0.0146,-0.56055 -0.30908,-11.66797 -0.32764,-12.36279 0.9419,0.14843 3.54834,0.49218 6.47022,0.30908 3.3706,-0.21289 5.38281,-1.85156 5.38281,-4.38379 0,-2.8125 -2.0376,-4.62988 -5.19189,-4.62988 -2.11329,0 -4.17139,0.94189 -6.28077,2.82714 -0.30908,-0.3623 -1.94238,-2.27539 -2.26513,-2.65283 2.46386,-2.29736 5.34424,-3.48535 8.58105,-3.48535 5.25342,0 8.7832,3.21973 8.7832,8.01025 0,4.55176 -3.00146,7.27979 -8.23388,7.48438 -2.2124,0.0864 -3.76123,-0.34522 -3.77637,-0.3501 l -0.42578,-0.1206 0.41309,6.14843 c 0,0 10.34765,0 10.93457,0 0,0.47901 0,2.72754 0,3.20606 -0.5835,0 -13.49463,0 -14.06348,0 z"
           style="fill:#582691;fill-opacity:1;fill-rule:nonzero;stroke:none"
           id="path68"
           inkscape:connector-curvature="0" /><path
           d="m 237.97559,94.54688 h -8.16797 v 2.68164 h 8.16797 z"
           style="fill:#582691;fill-opacity:1;fill-rule:nonzero;stroke:none"
           id="path70"
           inkscape:connector-curvature="0" /><path
           d="m 357.45508,94.54688 h 8.16797 v 2.68164 h -8.16797 z"
           style="fill:#582691;fill-opacity:1;fill-rule:nonzero;stroke:none"
           id="path72"
           inkscape:connector-curvature="0" /><path
           d="m 253.94727,760.34253 6.67089,-20.53174 h 21.58887 l -17.46533,-12.68945 6.6709,-20.53198 -17.46533,12.68945 -17.46582,-12.68945 6.67089,20.53198 -17.46484,12.68945 h 21.58838 z"
           style="fill:#f68b11;fill-opacity:1;fill-rule:nonzero;stroke:none"
           id="path74"
           inkscape:connector-curvature="0" /><path
           d="m 341.4834,760.34253 -6.6709,-20.53174 h -21.58887 l 17.46533,-12.68945 -6.67089,-20.53198 17.46533,12.68945 17.46582,-12.68945 -6.6709,20.53198 17.46484,12.68945 h -21.58837 z"
           style="fill:#f68b11;fill-opacity:1;fill-rule:nonzero;stroke:none"
           id="path76"
           inkscape:connector-curvature="0" /></g></g></g></svg>