<?xml version="1.0" encoding="UTF-8" standalone="no"?>
<svg
   xmlns:dc="http://purl.org/dc/elements/1.1/"
   xmlns:cc="http://creativecommons.org/ns#"
   xmlns:rdf="http://www.w3.org/1999/02/22-rdf-syntax-ns#"
   xmlns:svg="http://www.w3.org/2000/svg"
   xmlns="http://www.w3.org/2000/svg"
   id="svg3336"
   version="1.1"
   viewBox="0 0 202.62791 249.45918"
   height="249.45918pt"
   width="202.62791pt">
  <metadata
     id="metadata3398">
    <rdf:RDF>
      <cc:Work
         rdf:about="">
        <dc:format>image/svg+xml</dc:format>
        <dc:type
           rdf:resource="http://purl.org/dc/dcmitype/StillImage" />
        <dc:title></dc:title>
      </cc:Work>
    </rdf:RDF>
  </metadata>
  <defs
     id="defs3396" />
  <path
     style="fill:#efbf22"
     id="path3340"
     d="m 95.05146,0.28260676 c 10.4001,-0.60043597 21.10189,-0.47409505 31.12342,2.69751754 2.21275,0.6393898 4.35698,1.6702983 5.89466,3.4309977 5.84408,6.173686 10.98258,12.999467 17.2139,18.814482 1.54651,1.401193 3.52904,2.168836 5.45315,2.918327 4.92497,1.826322 9.86859,3.577809 14.73964,5.545036 4.6503,1.710893 6.73265,6.630301 9.0315,10.609662 6.76847,12.018621 10.23442,25.655166 11.15144,39.330122 -0.21071,3.7845 -2.45888,6.984067 -4.43524,10.07311 -2.47142,3.729532 -4.73603,7.597939 -7.12464,11.379669 -1.72607,2.82745 -3.57207,5.744 -3.90696,9.10718 -0.62797,6.3928 -0.35751,12.84089 -0.98527,19.2253 -0.3177,3.68988 -2.82741,6.58193 -5.25369,9.1581 -7.46394,8.41837 -16.82571,15.01709 -26.73513,20.28909 -4.63428,2.08749 -9.45925,5.09055 -14.77576,4.14147 -8.59659,-1.61444 -17.06789,-3.87833 -25.66448,-5.49276 -8.267519,1.42192 -16.251236,4.29799 -24.527582,5.73642 -3.545346,0.20661 -6.807314,-1.53745 -10.031795,-2.75358 -10.886042,-4.9494 -20.91291,-12.01116 -28.668904,-21.14255 -2.204427,-2.68876 -5.115834,-5.35289 -5.192517,-9.07744 -0.323965,-6.32392 -1.271483,-12.59606 -1.511408,-18.91792 -0.257672,-3.88791 -0.39173,-8.01541 -2.664385,-11.34998 C 24.777563,98.793989 21.433572,93.542737 17.95265,88.388553 16.841946,86.705159 16.065373,84.770555 16.006029,82.736276 16.576274,66.370286 22.042247,50.282272 31.32134,36.779917 c 2.133973,-2.658572 5.715418,-3.307671 8.627643,-4.784503 5.507334,-2.710408 11.293204,-4.778257 16.864076,-7.336537 3.2982,-1.442351 5.713003,-4.236312 7.899663,-6.985626 C 67.606614,13.86197 70.591104,10.128182 73.658197,6.4549603 74.715343,5.1839937 75.972545,3.9848161 77.615071,3.5311798 83.251912,1.7106757 89.152517,0.79170421 95.05146,0.28260676 Z" />
  <path
     style="fill:#e6460d"
     id="path3342"
     d="M 88.837661,5.0505071 C 99.634854,3.3471004 110.7171,3.7336589 121.40977,5.9428134 c 2.51057,0.4960503 5.08877,1.320003 6.88306,3.2458885 6.12409,6.4147311 11.82568,13.2542021 17.04023,20.4080901 4.92721,2.077345 10.13096,3.508897 15.08421,5.553413 4.13662,1.740231 9.09749,2.789427 11.72453,6.760033 6.9719,9.898706 10.12616,21.846186 12.06552,33.613548 0.46633,3.951538 1.45903,8.384341 -0.85762,11.975433 -2.97984,4.913444 -6.2247,9.6615 -8.9641,14.714651 -1.32471,2.57786 -3.43529,4.62631 -5.92689,6.09665 1.10292,5.76561 0.23597,11.6172 0.0678,17.41884 -0.19917,2.97331 -0.10606,6.02902 -0.90051,8.92931 -1.0732,2.60907 -3.11634,4.65078 -4.98339,6.71353 -8.38842,8.73888 -18.73861,15.52273 -29.81557,20.39825 -3.7211,1.88381 -7.85425,0.34444 -11.64511,-0.40861 -6.83315,-1.13909 -11.5217,-3.19995 -17.38618,-4.90408 -1.02054,-0.29655 -2.06309,-0.41197 -3.12017,-0.0551 -6.732868,1.93607 -14.222343,3.88051 -21.032279,5.53027 -2.343977,0.59554 -4.833252,0.60193 -7.135347,-0.16511 -11.604957,-3.75382 -21.259132,-11.6096 -29.814584,-20.03264 -2.69863,-2.76771 -5.735671,-5.7946 -5.98001,-9.88296 -1.320091,-5.71084 -0.626303,-25.34811 -2.540794,-27.67663 C 30.975513,99.789618 28.052314,95.209485 24.966353,90.750872 22.889649,87.655307 20.49052,84.334397 20.923634,80.396359 21.429161,67.006951 26.361619,54.151822 32.694646,42.476831 33.849295,40.0087 35.850219,38.316753 38.252599,37.321584 44.97141,34.538363 52.239288,31.068732 58.488555,29.3509 c 1.262152,-0.346947 2.701574,-0.579895 3.817101,-1.28812 0.494709,-0.314081 0.925718,-0.721636 1.249314,-1.274061 C 67.655903,21.082694 71.972035,15.515752 76.485755,10.120926 79.45201,6.445253 84.4474,5.7468759 88.837289,5.0505083 Z" />
  <path
     style="fill:#d62876"
     id="path3344"
     d="m 96.038185,9.4083747 c 8.597185,0.2837857 17.840005,-1.513458 25.736385,1.8805623 5.287,2.27246 8.93535,7.336373 12.73197,11.619847 1.81296,1.85105 1.35387,4.792946 -0.006,6.750896 -8.54452,3.285184 -24.63777,9.293013 -31.44014,9.506021 -12.469252,-2.406658 -26.525484,-8.019652 -33.350933,-11.298774 3.231975,-5.250311 6.954049,-10.25447 11.505628,-14.452094 3.999342,-3.6254597 9.77117,-3.40984 14.822925,-4.0064583 z" />
  <path
     style="fill:#1c140e"
     id="path3346"
     d="m 103.06023,14.201852 c 6.38646,0.0019 13.31669,-0.158299 18.94478,2.844551 3.47811,1.855735 6.06033,5.35373 7.94899,8.729852 -5.84617,2.810922 -12.18997,4.313074 -18.25811,6.574835 -3.25616,1.100385 -6.68575,2.414058 -10.1841,1.735045 -4.101209,-0.785691 -7.909039,-2.559757 -11.917786,-3.68619 -4.413155,-1.437427 -8.935777,-2.52616 -13.231448,-4.295355 2.140558,-3.269102 4.06805,-7.106632 7.47893,-9.028696 5.636745,-3.176352 12.740533,-2.875963 19.218744,-2.874042 z" />
  <path
     style="fill:#efbf22"
     id="path3348"
     d="m 65.366252,33.173874 c 11.061758,3.958174 22.551583,6.579892 33.604516,10.554583 -9.035776,5.309979 -16.89321,12.288266 -25.498567,18.219399 -3.131794,2.199301 -6.124826,4.56929 -9.134255,6.922147 -0.169956,-11.908387 0.509118,-23.804497 1.028306,-35.696129 z" />
  <path
     style="fill:#efbf22"
     id="path3350"
     d="m 106.48882,44.061822 c 11.59671,-3.440746 23.22355,-6.738542 34.9131,-9.850773 0.4641,11.915539 0.22982,23.84756 0.4416,35.765329 -5.32902,-4.889592 -11.3167,-8.983734 -17.09692,-13.30707 -6.01596,-4.312336 -11.63033,-9.225596 -18.25778,-12.607486 z" />
  <path
     style="fill:#d62876"
     id="path3352"
     d="m 52.445974,36.749752 c 2.547543,-1.00886 6.368345,-0.447492 7.228703,2.526485 1.518574,6.645748 -0.547754,13.396745 -0.106763,20.091585 0.308268,4.56675 0.940998,9.618225 -1.864968,13.615689 -5.218953,7.402156 -10.297913,14.92483 -15.888687,22.058616 -1.14651,1.143314 -2.41975,3.337597 -4.331966,2.446187 -3.197403,-1.633746 -5.084903,-4.90039 -7.152194,-7.694564 -2.880186,-3.934945 -4.600544,-8.870646 -3.807645,-13.761974 1.274178,-8.736174 4.339045,-17.110919 7.70891,-25.235646 1.408373,-3.245075 2.844235,-6.924493 6.232229,-8.598899 3.868281,-2.055911 7.842736,-3.983758 11.982381,-5.447479 z" />
  <path
     style="fill:#d62876"
     id="path3354"
     d="m 150.38762,38.470104 c 2.85149,-0.03106 5.47661,1.279239 8.07591,2.271017 3.4358,1.514053 7.29654,2.846027 9.51303,6.070481 3.03778,4.365411 4.79689,9.435909 6.57546,14.398126 1.99744,5.979776 4.17833,12.022573 4.61975,18.357701 0.27039,3.712544 -1.87816,6.964714 -3.58601,10.077022 -1.97863,3.181024 -3.76316,6.676275 -6.82198,8.986112 -2.01333,0.486436 -3.31097,-1.460818 -4.43931,-2.768196 -2.72502,-3.747115 -5.16768,-7.574861 -7.90131,-11.313822 -2.88161,-4.2194 -6.27293,-8.346972 -7.83277,-13.312238 -1.6603,-4.984438 -1.03383,-10.289731 -0.99995,-15.433754 0.1923,-4.746987 -0.0693,-9.513369 0.40042,-14.245254 0.0669,-1.353602 0.79895,-3.084214 2.39676,-3.087195 z" />
  <path
     style="fill:#fefefd"
     id="path3356"
     d="m 118.7828,46.125866 18.34334,-5.593989 -0.47504,18.652114 z" />
  <path
     style="fill:#fefefd"
     id="path3358"
     d="M 69.760696,39.822618 87.994608,45.870889 69.426865,58.888078 Z" />
  <path
     style="fill:#1c140e"
     id="path3360"
     d="m 152.01251,42.500003 c 3.57974,0.789743 7.17647,1.914525 10.26418,3.905319 2.12248,1.917133 3.38647,4.549567 4.65332,7.064953 4.01639,8.003145 6.4667,16.771313 7.4762,25.655031 0.82355,5.499495 -2.98337,10.192066 -6.13637,14.281477 -3.81733,-4.468026 -6.82118,-8.357005 -10.17605,-13.16514 -2.80352,-3.654493 -6.57353,-8.305741 -6.54921,-13.559691 0.18958,-8.059832 -0.16691,-16.141306 0.46793,-24.181949 z" />
  <path
     style="fill:#1c140e"
     id="path3362"
     d="m 43.463902,46.034699 c 2.967409,-2.353879 6.639279,-3.603103 10.121755,-5.015876 1.440319,5.723627 0.756211,11.663305 0.890593,17.489033 -0.0045,4.291445 0.814149,8.962625 -1.53491,12.845713 -3.170476,5.143054 -7.16802,9.722232 -10.495917,14.769435 -1.615534,1.750963 -2.527034,4.966289 -5.14936,5.253891 -0.891269,-1.036655 -1.803721,-2.137208 -2.633075,-3.300033 -1.932222,-2.709119 -3.413401,-5.756207 -3.124816,-9.120663 0.319082,-6.826941 2.540366,-13.381762 4.782959,-19.77712 1.862268,-4.605998 3.729874,-9.429373 7.142771,-13.14438 z" />
  <path
     style="fill:#d62876"
     id="path3364"
     d="m 99.913609,49.506916 c 6.288471,-1.988705 11.477701,3.114994 16.016611,6.621784 6.45128,5.418812 14.07449,9.343579 20.17913,15.180611 3.4882,3.146619 3.22371,8.435616 1.7864,12.516546 -2.4808,6.849679 -5.54518,13.492758 -7.55063,20.504573 -1.34201,3.96613 -2.19986,8.42086 -5.29399,11.48274 -2.56646,2.46402 -6.42743,1.48339 -9.62882,1.72344 -10.10164,0.43201 -20.22005,0.17765 -30.329665,-0.0932 -2.674785,0.027 -5.541178,-1.04658 -6.569018,-3.70673 -4.175798,-9.38734 -6.136953,-19.582507 -9.862814,-29.142952 -1.2412,-3.217473 -2.38316,-7.051589 -0.412939,-10.23281 3.282007,-5.575353 9.41351,-8.362606 14.254306,-12.352425 5.705429,-4.269959 10.661094,-9.854815 17.411429,-12.501537 z" />
  <path
     style="fill:#1c140e"
     id="path3366"
     d="m 101.4046,54.194441 c 2.62892,-0.898128 4.82169,1.238221 6.80623,2.608236 7.38987,5.893375 15.19688,11.236397 22.80424,16.833899 2.76817,1.648401 2.19405,5.164728 1.29038,7.71936 -2.913,8.696338 -5.90962,17.373898 -8.7726,26.088164 -0.73475,2.1823 -1.94982,5.08909 -4.68302,5.09793 -9.22288,0.26096 -18.4599,0.07 -27.6881,0.20518 -2.32796,-0.0565 -4.730748,0.19451 -6.993084,-0.47955 -1.20851,-1.12528 -1.834437,-2.68813 -2.385972,-4.19898 -2.631958,-7.87746 -4.984323,-15.84015 -7.845256,-23.639532 -0.812621,-2.521079 -1.833703,-5.114142 -1.574065,-7.809918 0.860818,-2.179226 3.002718,-3.448915 4.785706,-4.827719 6.048757,-4.211417 11.764042,-8.882686 17.723216,-13.213399 2.122854,-1.521122 4.085431,-3.364031 6.532325,-4.383704 z" />
  <path
     style="fill:#efbf22"
     id="path3368"
     d="m 143.98911,77.11421 19.66434,29.28924 -33.12062,11.16592 z" />
  <path
     style="fill:#efbf22"
     id="path3370"
     d="m 41.057597,104.96207 c 6.53668,-9.695752 13.644004,-19.001193 20.387503,-28.558067 1.263966,7.082925 3.907672,13.797868 6.086274,20.618606 2.237224,6.830531 4.185625,13.779531 7.33954,20.264261 -11.421925,-3.67413 -22.536336,-8.22754 -33.813317,-12.3248 z" />
  <path
     style="fill:#fefefd"
     id="path3372"
     d="m 138.4276,110.09842 7.70054,-21.814329 10.44009,15.571269 z" />
  <path
     style="fill:#fefefd"
     id="path3374"
     d="M 48.879126,102.86842 59.78255,87.941585 66.84631,109.84716 Z" />
  <path
     style="fill:#d62876"
     id="path3376"
     d="m 143.60172,118.21337 c 6.19893,-2.45098 12.67106,-4.38504 19.35282,-4.92529 1.62722,6.67348 1.44505,13.74635 -0.69158,20.27814 -1.63877,3.38169 -4.87143,5.57854 -7.4746,8.16713 -4.84289,4.75943 -10.40685,8.74839 -16.38895,11.95754 -3.31481,1.77658 -6.83012,3.84108 -10.74728,3.4363 -5.05109,-0.45742 -10.09991,-1.3498 -14.95828,-2.80643 -1.9231,-0.4483 -3.29287,-2.53953 -2.42244,-4.42574 2.00906,-5.10437 6.22179,-8.85848 9.34898,-13.26641 3.41949,-4.32554 5.58209,-9.86118 10.4163,-12.89749 4.19996,-2.54977 9.04635,-3.68679 13.56503,-5.51775 z" />
  <path
     style="fill:#d62876"
     id="path3378"
     d="m 47.084166,113.65269 c 5.86002,1.29013 11.493977,3.59198 17.242488,5.31028 4.721025,1.57039 9.945083,2.86022 13.321733,6.78213 4.938711,5.71666 9.045785,12.08235 13.675995,18.03412 1.681537,2.40835 3.939272,4.98128 3.525661,8.12507 -2.704211,2.25152 -6.332591,2.75726 -9.649206,3.58011 -4.606773,0.96715 -9.660824,2.34173 -14.14814,0.15798 -6.860118,-3.1533 -13.537364,-6.90449 -19.216499,-11.91972 -3.949586,-3.53428 -8.624808,-6.9691 -10.116183,-12.32587 -1.214646,-4.26274 -1.007867,-8.68712 -0.771117,-13.09195 0.358968,-6.67873 0.04759,-5.99241 6.135268,-4.65215 z" />
  <path
     style="fill:#1c140e"
     id="path3380"
     d="m 142.08498,124.1579 c 5.59378,-1.77973 11.07896,-3.93017 16.78936,-5.32224 -0.38395,4.6754 1.1648,10.43513 -2.60865,14.10792 -7.35282,7.65979 -15.93443,14.33604 -25.71896,18.63231 -4.21347,2.07261 -8.99783,0.34174 -13.23451,-0.74841 l -1.15836,-0.33804 0.41517,-0.90141 c 1.22161,-2.48835 3.04808,-4.61064 4.63411,-6.87262 3.08107,-4.24173 5.75751,-8.78611 9.1854,-12.76845 2.93609,-3.47563 7.6396,-4.27313 11.69644,-5.78906 z" />
  <path
     style="fill:#1c140e"
     id="path3382"
     d="m 45.075141,118.73751 c 5.69986,0.40628 10.964245,2.79299 16.392042,4.3471 4.729837,1.55388 10.330048,2.59352 13.204261,7.1139 4.632018,6.5625 9.948077,12.66479 14.135475,19.52601 -3.692138,1.04796 -7.403983,2.21255 -11.247171,2.56248 -2.054501,-0.23399 -3.87754,-1.33238 -5.731954,-2.18056 -8.647279,-4.34286 -16.81013,-9.9204 -23.18096,-17.24461 -3.497592,-3.791 -3.227155,-9.32245 -3.571693,-14.12432 z" />
  <path
     style="fill:#efbf22"
     id="path3384"
     d="m 123.9304,122.06848 c -7.17907,9.48775 -14.44936,18.92306 -21.84305,28.24662 -7.432726,-9.28249 -14.21666,-18.44587 -21.135297,-28.11739 z" />
  <path
     style="fill:#fefefd"
     id="path3386"
     d="m 91.631779,127.423 22.186291,-0.0372 -11.48472,14.28528 z" />
  <path
     style="fill:#9ae907"
     id="path3388"
     d="m 143.70073,168.28361 c 17.81403,-9.5373 38.81358,-14.46086 58.92718,-10.73383 -3.32258,11.4356 -10.40835,21.3371 -18.1449,30.24565 -19.85289,22.64947 -52.26154,32.03674 -81.65094,27.40523 5.69859,-11.54968 12.19617,-23.25184 20.85549,-31.60987 6.1589,-5.7167 12.55357,-11.31712 20.01317,-15.30718 z" />
  <path
     style="fill:#9ae907"
     id="path3390"
     d="m 0,157.71956 c 26.563417,-4.19005 57.111446,5.59948 74.820471,21.41026 9.017689,7.96795 16.26351,17.76964 22.187357,28.18561 1.454061,2.48055 2.45338,5.18532 3.444332,7.8817 C 79.228239,218.27382 49.259886,210.28631 33.973242,200.38092 20.636776,191.76238 10.26521,179.11471 3.1098797,165.08157 1.8824095,162.71054 0.86545697,160.23988 0,157.71956 Z" />
  <g
     transform="translate(-7.483871,-5.4193546)"
     id="text4159"
     style="font-style:normal;font-weight:normal;font-size:28.56475639px;line-height:125%;font-family:sans-serif;letter-spacing:0px;word-spacing:0px;fill:#000000;fill-opacity:1;stroke:none;stroke-width:0;stroke-linecap:butt;stroke-linejoin:miter;stroke-miterlimit:4;stroke-dasharray:none;stroke-opacity:1">
    <path
       id="path4166"
       style="font-style:normal;font-variant:normal;font-weight:normal;font-stretch:normal;font-family:sans-serif;-inkscape-font-specification:'sans-serif Bold';text-align:center;text-anchor:middle;stroke:#000000;stroke-width:2.47436166;stroke-miterlimit:4;stroke-dasharray:none;stroke-opacity:1"
       d="m 28.333951,234.16961 15.709484,0.007 -0.0031,3.10686 -11.482119,-0.0358 0.01564,5.54799 9.955344,0.003 0,2.24393 -9.929018,-0.039 -0.08706,5.89607 11.939214,0 -0.03554,2.73973 -16.082831,-0.0323 z" />
    <path
       id="path4168"
       style="font-style:normal;font-variant:normal;font-weight:normal;font-stretch:normal;font-family:sans-serif;-inkscape-font-specification:'sans-serif Bold';text-align:center;text-anchor:middle;stroke:#000000;stroke-width:4.22319984;stroke-miterlimit:4;stroke-dasharray:none;stroke-opacity:1"
       d="m 49.579078,234.94311 2.286727,-1e-5 0.07087,9.94233 c 0.0058,0.81793 0.05869,1.75466 0.256647,2.55353 0.312301,1.26033 0.642154,2.03956 1.109937,2.6095 0.28312,0.3417 0.922628,0.92926 1.43167,1.1394 0.865126,0.35713 1.720775,0.37195 2.799255,0.37195 0.912179,0 1.542474,-0.0378 2.248601,-0.26894 0.61317,-0.20072 1.55173,-0.73778 1.906948,-1.16649 0.403622,-0.49178 0.79668,-1.36794 1.026408,-2.45126 0.205278,-0.96802 0.229171,-2.01543 0.242154,-3.01028 l 0.129032,-9.73299 2.158879,0 -0.129032,10.06242 c -0.03289,2.56498 0.137288,4.37324 -1.136525,5.6822 -1.265029,1.30895 -3.91041,2.09246 -6.387757,2.09246 -2.486133,0 -5.140299,-0.65448 -6.414113,-1.96343 -1.265028,-1.30896 -1.510445,-3.24604 -1.510445,-5.81123 z" />
    <path
       id="path4170"
       style="font-style:normal;font-variant:normal;font-weight:normal;font-stretch:normal;font-family:sans-serif;-inkscape-font-specification:'sans-serif Bold';text-align:center;text-anchor:middle;stroke:#000000;stroke-width:2.6250298;stroke-miterlimit:4;stroke-dasharray:none;stroke-opacity:1"
       d="m 82.660741,244.54948 c 0.759351,0.1888 0.849989,0.84917 1.56261,1.46701 0.724305,0.61786 1.577681,0.69625 2.301986,1.77749 l 0.494635,5.74816 -3.673523,0.0177 -0.217062,-4.94603 c -0.864495,-1.28721 -1.221589,-1.73937 -2.039345,-2.15985 -0.806081,-0.42047 -2.039131,-1.0163 -3.441013,-1.0163 l -2.107521,-0.0505 -1.554075,0.82171 -0.09675,7.35102 -3.61978,-0.002 -0.01678,-19.48517 7.990701,0 c 2.990674,0 4.834787,0.34259 6.306758,1.26078 1.471972,0.9182 2.337028,2.04703 2.337028,3.90059 0,1.20995 -0.127378,2.85658 -0.898413,3.65465 -0.759351,0.79806 -1.86917,1.35155 -3.329458,1.66047 z m -8.653019,-8.16642 0.06037,8.07459 4.693014,0 c 1.70562,0 2.861608,-0.80157 3.726103,-1.37652 0.876171,-0.58353 0.927047,-2.08 0.927047,-3.20414 0,-1.12415 -0.438086,-1.96942 -1.314257,-2.53578 -0.864494,-0.57494 -2.149552,-0.86241 -3.855172,-0.86241 z" />
    <path
       id="path4172"
       style="font-style:normal;font-variant:normal;font-weight:normal;font-stretch:normal;font-family:sans-serif;-inkscape-font-specification:'sans-serif Bold';text-align:center;text-anchor:middle;stroke:#000000;stroke-width:2.38080764;stroke-miterlimit:4;stroke-dasharray:none;stroke-opacity:1"
       d="m 100.42438,235.99211 c -2.129846,0 -2.919508,0.69847 -4.178051,2.09542 -1.248874,1.39694 -1.873311,3.3007 -1.873311,5.71127 0,2.40206 0.624437,4.30155 1.873311,5.69849 1.258543,1.39695 2.048205,2.09542 4.178051,2.09542 2.12985,0 3.16552,-0.7008 4.40747,-2.09542 1.2461,-1.39927 1.8733,-3.29643 1.8733,-5.69849 0,-2.41057 -0.62719,-4.31199 -1.8733,-5.71127 -1.24195,-1.39462 -2.27762,-2.09542 -4.40747,-2.09542 z m 0,-2.09541 c 3.03988,0 5.46986,0.89864 7.28991,2.69593 1.82006,1.78877 2.73009,4.19082 2.73009,7.20617 0,3.00684 -0.91003,5.40889 -2.73009,7.20617 -1.82005,1.78877 -4.25003,2.68316 -7.28991,2.68316 -3.049554,0 -5.489198,-0.89439 -7.318931,-2.68316 -1.820057,-1.78876 -2.730086,-4.19081 -2.730086,-7.20617 0,-3.01535 0.910029,-5.4174 2.730086,-7.20617 1.829733,-1.79729 4.269377,-2.69593 7.318931,-2.69593 z" />
    <path
       id="path4174"
       style="font-style:normal;font-variant:normal;font-weight:normal;font-stretch:normal;font-family:sans-serif;-inkscape-font-specification:'sans-serif Bold';text-align:center;text-anchor:middle;stroke:#000000;stroke-width:2.56503797;stroke-miterlimit:4;stroke-dasharray:none;stroke-opacity:1"
       d="m 118.42727,237.2169 0,6.552 3.48981,0 c 1.57802,0 2.79791,-0.31218 3.65967,-0.93654 0.86175,-0.62435 1.29263,-1.51384 1.29263,-2.66847 0,-1.14607 -0.30185,-1.77321 -1.1636,-2.39756 -0.86176,-0.62435 -2.21068,-0.54943 -3.7887,-0.54943 z m -4.16525,-2.7748 7.65506,0 c 2.8091,0 4.92991,0.48751 6.36243,1.46252 1.44373,0.96647 2.42365,2.64428 2.42365,4.51733 0,1.89017 -0.33476,4.22171 -1.77849,5.18818 -1.43252,0.96645 -4.06946,1.32065 -6.87856,1.32065 l -3.61884,0 -0.12903,6.66524 -4.03622,0 z" />
    <path
       id="path4176"
       style="font-style:normal;font-variant:normal;font-weight:normal;font-stretch:normal;font-family:sans-serif;-inkscape-font-specification:'sans-serif Bold';text-align:center;text-anchor:middle;stroke:#000000;stroke-width:2.38513756;stroke-miterlimit:4;stroke-dasharray:none;stroke-opacity:1"
       d="m 140.15771,238.01243 -3.76304,10.25659 7.79836,0 z m -2.39353,-3.82538 5.02073,0.003 7.34685,19.49548 -4.01523,0 -1.15764,-3.34357 -9.30169,0.12903 -0.89957,3.21454 -4.05786,0 z" />
    <path
       id="path4178"
       style="font-style:normal;font-variant:normal;font-weight:normal;font-stretch:normal;font-family:sans-serif;-inkscape-font-specification:'sans-serif Bold';text-align:center;text-anchor:middle;stroke:#000000;stroke-width:2.29624128;stroke-miterlimit:4;stroke-dasharray:none;stroke-opacity:1"
       d="m 167.36412,243.66109 c -1.26556,0 -2.67303,0.47176 -3.40249,1.14384 -0.72067,0.67207 -1.30876,1.73297 -1.30876,2.91129 0,1.17832 0.90694,2.51066 1.62762,3.18273 0.72945,0.67207 1.95472,0.91763 3.22028,0.91763 1.26556,0 2.44526,-0.38127 3.17472,-1.05334 0.72945,-0.68081 1.36749,-1.69648 1.36749,-2.86607 0,-1.17831 -0.50138,-2.32969 -1.23083,-3.00177 -0.72067,-0.67208 -2.17369,-1.23431 -3.44803,-1.23431 z m -2.57185,-0.7188 c -1.14253,-0.2793 -3.35556,-1.12403 -3.99711,-1.90085 -0.63278,-0.77682 -0.81252,-1.54287 -0.81252,-2.66009 0,-1.56236 0.88212,-2.41481 1.99827,-3.32255 1.12494,-0.90774 3.43213,-1.1561 5.38321,-1.1561 1.95985,0 4.36333,0.18244 5.47949,1.09018 1.11615,0.90773 2.12973,1.9166 2.12973,3.47895 0,1.11722 -0.45744,1.92851 -1.09901,2.70533 -0.63278,0.77681 -2.60926,1.48583 -3.74299,1.76513 1.28314,0.29676 3.51053,1.05815 4.22241,1.92225 0.72066,0.8641 1.30875,1.73926 1.30875,2.98739 0,1.89404 -1.22216,3.03062 -2.39104,4.0431 -1.1601,1.01247 -3.64546,1.83539 -5.81624,1.83539 -2.17079,0 -5.20718,-0.91339 -6.37606,-1.92587 -1.16009,-1.01247 -2.01344,-1.96811 -2.01344,-3.86214 0,-1.24814 0.49699,-1.94234 1.21766,-2.80644 0.72065,-0.8641 3.22574,-1.89692 4.50889,-2.19368 z m -0.97554,-4.17647 c 0,1.01248 0.3164,1.80238 0.94917,2.36972 0.64157,0.56735 1.53801,0.85101 2.68932,0.85101 1.14251,0 2.03455,-0.28366 2.67612,-0.85101 0.65035,-0.56734 0.97553,-1.35724 0.97553,-2.36972 0,-1.01247 -0.32518,-1.80239 -0.97553,-2.36971 -0.64157,-0.56735 -1.53361,-0.85102 -2.67612,-0.85102 -1.15131,0 -2.04775,0.28367 -2.68932,0.85102 -0.63277,0.56732 -0.94917,1.35724 -0.94917,2.36971 z" />
    <path
       id="path4180"
       style="font-style:normal;font-variant:normal;font-weight:normal;font-stretch:normal;font-family:sans-serif;-inkscape-font-specification:'sans-serif Bold';text-align:center;text-anchor:middle;stroke:#000000;stroke-width:2.51631594;stroke-miterlimit:4;stroke-dasharray:none;stroke-opacity:1"
       d="m 186.93167,236.45216 c -1.71605,0 -3.0086,0.6448 -3.87763,1.9344 -0.85802,1.28124 -1.28704,2.93229 -1.28704,5.51152 0,2.57084 0.42902,4.50105 1.28704,5.79067 0.86903,1.28123 2.20704,2.10796 3.92309,2.10796 1.72706,0 2.97414,-0.82673 3.83218,-2.10796 0.86902,-1.28962 1.2126,-3.12678 1.2126,-5.69762 0,-2.57923 -0.34358,-4.32333 -1.2126,-5.60457 -0.85804,-1.2896 -2.15058,-1.9344 -3.87764,-1.9344 z m 0,-2.28896 c 2.76109,0 4.86765,0.83322 6.31968,2.49965 1.46306,1.65807 2.19459,4.06982 2.19459,7.23523 0,3.15701 -0.73153,5.56874 -2.19459,7.23519 -1.45203,1.65807 -3.55859,2.48711 -6.31968,2.48711 -2.76107,0 -4.87314,-0.82904 -6.33618,-2.48711 -1.45205,-1.66645 -2.17808,-4.07818 -2.17808,-7.23519 0,-3.16541 0.72603,-5.57716 2.17808,-7.23523 1.46304,-1.66643 3.57511,-2.49965 6.33618,-2.49965 z" />
  </g>
</svg>
