<?xml version="1.0" encoding="utf-8"?>
<!-- Generator: Adobe Illustrator 27.8.1, SVG Export Plug-In . SVG Version: 6.00 Build 0)  -->
<svg version="1.1" id="Layer_1" xmlns="http://www.w3.org/2000/svg" xmlns:xlink="http://www.w3.org/1999/xlink" x="0px" y="0px"
	 viewBox="0 0 311.53 409.72" width="155.765" height="204.86" style="enable-background:new 0 0 311.53 409.72;" xml:space="preserve">
<style type="text/css">
	.st0{fill:#FFFFFF;}
	.st1{fill:#53B7E8;}
	.st2{fill:#DA2128;}
	.st3{fill:#802A2A;}
	.st4{clip-path:url(#XMLID_00000129912593596113345900000006150602932370775962_);}
	.st5{clip-path:url(#XMLID_00000037677759911094282680000016818089753659174554_);fill:#226390;}
	.st6{clip-path:url(#XMLID_00000001651136809633967850000010856635890182362294_);fill:#802A2A;}
</style>
<g>
	<path class="st0" d="M256.45,0H55.07L0,55.07v299.58l55.07,55.07h201.38l55.07-55.07V55.07L256.45,0z"/>
	<g>
		<g>
			<path class="st1" d="M66.75,381.52h178.02l38.55-38.55v-26.2H28.2v26.2L66.75,381.52z"/>
		</g>
	</g>
	<path class="st2" d="M254.22,404.32H57.31L5.4,352.41V57.31L57.31,5.4h196.91l51.91,51.91v295.1L254.22,404.32z M64.39,387.22
		h182.74l41.89-41.89V64.39L247.13,22.5H64.39L22.5,64.39v280.94L64.39,387.22z"/>
	<g>
		<polygon class="st3" points="254.22,5.4 250.74,13.8 297.73,60.79 297.73,348.93 250.74,395.92 60.79,395.92 60.79,395.92 
			57.31,404.32 254.22,404.32 306.13,352.41 306.13,57.31 		"/>
	</g>
	<g>
		<polygon class="st3" points="22.5,345.33 22.5,64.39 64.39,22.5 247.13,22.5 250.61,14.1 60.91,14.1 14.1,60.91 14.1,348.81 
			60.91,395.62 60.91,395.62 64.39,387.22 		"/>
	</g>
	<g>
		<g>
			<path class="st0" d="M99.8,331.21h29.4v7.72H108.3v8.22h17.52l-2.71,7.72H108.3v14.95h-8.5V331.21z"/>
			<path class="st0" d="M143.71,331.21h8.5v30.89h19.25l-2.71,7.72h-25.04V331.21z"/>
			<path class="st0" d="M185.58,331.21h29.4v7.72h-20.91v8.22h18.43l-2.71,7.72h-15.71v14.95h-8.5V331.21z"/>
		</g>
	</g>
	<g>
		<g>
			<g>
				<defs>
					
						<ellipse id="XMLID_00000049220209408080148250000017655811094800106165_" transform="matrix(0.7192 -0.6948 0.6948 0.7192 -4.6196 114.3772)" cx="139.21" cy="62.9" rx="22.79" ry="18.01"/>
				</defs>
				<use xlink:href="#XMLID_00000049220209408080148250000017655811094800106165_"  style="overflow:visible;fill:#6D6E71;"/>
				<clipPath id="XMLID_00000054970089190629447750000008901797857077226136_">
					<use xlink:href="#XMLID_00000049220209408080148250000017655811094800106165_"  style="overflow:visible;"/>
				</clipPath>
				<g style="clip-path:url(#XMLID_00000054970089190629447750000008901797857077226136_);">
					<defs>
						<path id="XMLID_00000013908369830883965440000015627451856367396770_" d="M114.61,56.77c0.62,12.43,10.94,20.16,23.04,17.25
							c12.1-2.91,23.94-13.1,23.32-25.53l4.63-1.23l4.29,37.18l-59.33-0.95l-2.79-27.92L114.61,56.77z"/>
					</defs>
					<use xlink:href="#XMLID_00000013908369830883965440000015627451856367396770_"  style="overflow:visible;"/>
					<clipPath id="XMLID_00000170266016848692526760000006292926137805708705_">
						<use xlink:href="#XMLID_00000013908369830883965440000015627451856367396770_"  style="overflow:visible;"/>
					</clipPath>
				</g>
			</g>
		</g>
		<g>
			<defs>
				<path id="XMLID_00000033360189293693673600000004469915826779006130_" d="M172.83,301.92c0,0-65.38-124.45-40.58-147.34
					c13.96-13.25,67.51,42.81,67.51,42.81c-8.87-30.21-55.34-86.17-87.55-68.98C76.23,151.22,126.66,262.01,172.83,301.92z"/>
			</defs>
			<use xlink:href="#XMLID_00000033360189293693673600000004469915826779006130_"  style="overflow:visible;fill:#53B7E8;"/>
			<clipPath id="XMLID_00000029753678676189634470000013758340285338796194_">
				<use xlink:href="#XMLID_00000033360189293693673600000004469915826779006130_"  style="overflow:visible;"/>
			</clipPath>
			<path style="clip-path:url(#XMLID_00000029753678676189634470000013758340285338796194_);fill:#226390;" d="M189.14,320.14
				c0,0-78.24-138.56-53.44-161.45c13.96-13.25,74.21,59.4,74.21,59.4c-9.06-30.62-58.86-85.81-83.66-73.32
				C94.93,163.66,140.67,272.66,189.14,320.14z"/>
		</g>
		<g>
			<defs>
				<path id="XMLID_00000168796177451446815440000015413982094562158768_" d="M82.83,111.93c-11.57-0.12-27.19-5.07-27.05-15.02
					c1.18-37.44,160.59,15.12,190.64,39.89C246.42,136.8,166.22,110.95,82.83,111.93z"/>
			</defs>
			<use xlink:href="#XMLID_00000168796177451446815440000015413982094562158768_"  style="overflow:visible;fill:#DA2128;"/>
			<clipPath id="XMLID_00000020361107070307593240000001100438103518543270_">
				<use xlink:href="#XMLID_00000168796177451446815440000015413982094562158768_"  style="overflow:visible;"/>
			</clipPath>
			<path style="clip-path:url(#XMLID_00000020361107070307593240000001100438103518543270_);fill:#802A2A;" d="M82.31,103.22
				c8.93,0.93,51.27,1.5,102.54,13.19c32.13,7.33,79.55,25.08,100.72,45.03c-21.16-2.51-51.68-22.76-72.1-28.46
				c-41.7-11.65-85.26-17.9-125.63-20.82c-5.9-0.43-11.9,0.68-17.7-0.43c-5.79-1.12-19.59-6.95-22.41-11.74
				c-2.21-3.75,20.48-19.84,16.28-14.45C55.69,96.25,67.92,101.72,82.31,103.22z"/>
		</g>
	</g>
	<g>
		<path d="M248.38,222.34l-9.13-4.06l-4.39,11.05l6.92,11.39l8.85-4.17c0.03-0.61,0.05-1.23,0.05-1.84
			C250.67,230.35,249.86,226.18,248.38,222.34z"/>
		<polygon points="202.05,226.17 203.7,240.22 216.71,242.28 222.64,230.42 214.55,220.4 		"/>
		<path d="M237.3,251.1l-14.61,1.67l-5.58,6.87l4.45,3.11c-2.19-0.11-4.41-0.47-6.61-1.1c-0.64-0.18-1.26-0.39-1.87-0.61
			c-0.19-0.05-0.39-0.1-0.58-0.16c-3.15-0.91-6.07-2.33-8.66-4.18l-5.06-10.27l-5.31-3.71c-1.45-4.23-1.86-8.72-1.22-13.15
			l4.21-6.43l3.36-9.17c1.97-2.06,4.26-3.83,6.83-5.25c1.14-0.63,2.3-1.17,3.49-1.63l7.4,4.12l13.5-1l1.48-3.58
			c-0.16-0.06-0.32-0.12-0.48-0.17c3.24,1.07,7.16,3.67,9.72,5.65c0.33,0.26,0.39,0.16,0.4,0.18c-3.64-3.73-8.2-6.48-13.34-7.96
			c-7.82-2.26-16.04-1.33-23.16,2.6c-7.12,3.93-12.29,10.4-14.54,18.22s-1.33,16.04,2.6,23.16c3.93,7.12,10.4,12.29,18.22,14.54
			c7.82,2.26,16.04,1.33,23.16-2.6c0.52-0.29,1.56-0.89,4.07-2.67L237.3,251.1z"/>
	</g>
</g>
</svg>
