<svg height="600" viewBox="0 0 1000 377.358" width="1200" xmlns="http://www.w3.org/2000/svg"><g fill-rule="evenodd"><path d="M0-61.32h1000v500H0z" fill="#d21034"/><path d="M0-61.32h500v500H0z"/></g><path d="M343.75 67.846h312.5v241.667h-312.5z" fill="#fff" fill-rule="evenodd"/><path d="M596.567 185.036s.134 29.19-5.501 45.2c-5.507 15.752-9.863 23.323-9.863 23.323l-44.873-1.026c-6.335 9.796-32.878 13.819-32.878 13.819l-.13-17.79 34.586-24.089c.132.088.237.236.342.407z"/><path d="M594.18 217.185c-.129.797-.265 1.59-.41 2.374-.707 3.854-1.593 7.521-2.704 10.676-5.507 15.753-9.863 23.324-9.863 23.324l-44.873-1.026c-6.335 9.796-32.878 13.819-32.878 13.819l-.025-3.396-.024-3.283-.033-4.574c29.665-12.582 60.131-25.284 90.81-37.914z" fill="#d21034"/><path d="M581.323 159.025s2.693 18.315 2.18 34.196l-45.979 30.811v.049c-30.482 21.644-36.247 23.828-36.247 23.828l-2.685-12.81 37.272-34.7c.025.016.04.047.065.065l45.394-41.439z"/><path d="M583.499 184.381c.085 2.944.099 5.933.005 8.84l-45.98 30.811v.049c-30.481 21.644-36.247 23.828-36.247 23.828l-.475-2.269c31.45-23.566 31.893-23.824 82.697-61.259z" fill="#d21034"/><path d="M556.868 143.656s6.4 11.262 8.578 28.808l-36.621 33.562s-.016-.129-.017-.147c-26.523 25.876-30.338 27.686-30.338 27.686l2.425-19.222 23.307-30.095c.023.011.043.037.065.049z"/><path d="M563.954 163.779c.687 2.657 1.107 5.585 1.492 8.685l-36.621 33.562s-.016-.129-.017-.147c-26.523 25.876-30.338 27.686-30.338 27.686l.564-4.474c35.986-35.986 47.304-47.696 64.92-65.312z" fill="#d21034"/><g stroke="#000" stroke-width=".615"><path d="M596.567 185.281s-.384 23.95-3.33 37.526c-2.919 9.65-4.847 17.391-11.819 29.986M556.993 143.913s6.147 10.63 8.324 28.176" fill="none" stroke-width=".384375"/><path d="M549.18 144.81s1.537-1.281 2.562-1.281c3.202.128 7.428 0 7.428 0s-7.556 1.665-8.581 1.921c-.512.256-.768-.128-1.409-.64z" fill="#fff" stroke-width=".384375"/><path d="M549.18 144.81c.769.768 1.025.768 1.409.64 2.946-.768 8.581-1.921 8.581-1.921s-4.995 2.305-6.532 2.69c-2.305.64-3.586-1.537-3.458-1.41z" stroke-width=".384375"/><g fill="#ffce00"><path d="M559.938 140.327l2.562-2.818s1.537-.64 2.946.513l5.123-12.68s-9.35 7.3-10.759 8.581c0 0 1.793 1.537 1.025 2.69-.64 1.153-2.433 2.818-2.433 2.818zM500.896 214.354l57.634-72.746-1.153-.384-56.48 70.568z" stroke-width=".384375"/><path d="M553.535 139.174l2.177-3.201 8.069 5.507-2.306 3.202z" stroke-width=".384375"/><path d="M554.815 138.918l1.153-1.665 6.404 4.483-1.153 1.665z" stroke-width=".384375"/></g><path d="M559.17 143.529c.128.256.64 2.05 1.025 2.69.384.512 2.945 2.817 3.97 3.201 1.024.385 3.714 3.586 3.97 9.734 0 0-2.05.256-2.433.512 0 0-.385-5.379-2.178-7.172-1.664-1.793-4.61-4.867-5.122-8.709z" stroke-width=".384375"/><path d="M565.702 159.538s-.385-5.379-2.178-7.172c-1.793-1.793-4.738-4.867-5.122-8.58l-.64.383s.255 3.586 1.792 5.892c1.665 2.305 3.458 4.098 4.099 9.99 0 0 1.152-.257 2.049-.513z" fill="#d21034" stroke-width=".384375"/><path d="M561.603 160.563l2.05-.513c-.64-5.89-2.434-7.684-4.099-9.99-1.537-2.305-1.793-5.89-1.793-5.89l-.768.384s0 3.458 2.177 8.068c.384.769 2.05 2.818 2.433 7.94z" fill="#d21034" stroke-width=".384375"/><path d="M559.17 143.529s-2.177-1.665-3.33-2.562c-3.074-2.433-6.66-2.945-8.325-2.049 0 0-1.024 1.537-.384 2.434 0 0 2.946-.897 5.891.256 2.434.896 6.148 1.921 6.148 1.921z" stroke-width=".384375"/><path d="M559.17 143.529s-3.714-1.025-6.148-1.921c-2.945-1.153-5.891-.256-5.891-.256s-.128 1.024.897 2.177c.384.512 1.024-1.409 3.97-.897 1.152.129 7.172.897 7.172.897z" fill="#d21034" stroke-width=".384375"/><path d="M559.17 143.529s-6.02-.768-7.172-.897c-2.946-.512-3.586 1.537-3.97.897l1.152 1.28s1.537-1.28 2.562-1.28c3.202.128 7.428 0 7.428 0z" fill="#d21034" stroke-width=".384375"/><path d="M581.327 159.282s2.69 16.137 2.177 33.94" fill="none" stroke-width=".384375"/><path d="M573.642 159.026s1.665-1.025 2.69-.897c3.202.513 7.428 1.153 7.428 1.153s-7.812.512-8.837.512c-.64.128-.768-.256-1.28-.768z" fill="#fff" stroke-width=".384375"/><path d="M573.642 159.026c.513.896.769.896 1.281.768 2.946-.256 8.837-.512 8.837-.512s-5.379 1.409-7.044 1.665c-2.433.256-3.33-2.05-3.074-1.921z" stroke-width=".384375"/><g fill="#ffce00"><path d="M584.913 156.208l2.945-2.433s1.665-.384 2.818 1.024l7.044-11.782s-10.374 5.763-11.91 6.788c0 0 1.408 1.793.512 2.817-.897 1.153-2.818 2.434-2.818 2.434zM498.591 235.102l84.785-77.87-1.153-.64-83.888 76.717z" stroke-width=".384375"/><path d="M578.765 154.031l2.69-2.818 7.044 6.788-2.818 2.69z" stroke-width=".384375"/><path d="M580.046 154.031l1.409-1.537 5.763 5.507-1.537 1.41z" stroke-width=".384375"/></g><path d="M583.76 159.282c0 .256.256 2.05.512 2.69.257.64 2.434 3.33 3.33 3.97 1.025.512 3.202 3.97 2.434 10.118 0 0-1.921 0-2.434.128 0 0 .385-5.38-1.024-7.429-1.41-2.049-3.97-5.635-3.714-9.349z" stroke-width=".384375"/><path d="M587.602 176.06s.385-5.38-1.024-7.429c-1.41-2.049-3.97-5.507-3.714-9.22l-.64.255s-.385 3.586.896 6.148c1.152 2.561 2.561 4.482 2.433 10.374 0 0 1.153 0 2.05-.128z" fill="#d21034" stroke-width=".384375"/><path d="M583.376 176.444l2.177-.256c.128-5.892-1.28-7.813-2.433-10.374-1.281-2.562-.897-6.148-.897-6.148l-.896.128s-.513 3.586.896 8.325c.256.897 1.665 3.202 1.153 8.325z" fill="#d21034" stroke-width=".384375"/><path d="M583.76 159.282s-1.921-2.05-2.946-3.202c-2.561-2.817-6.147-3.842-7.94-3.202 0 0-1.28 1.41-.897 2.306 0 0 3.202-.385 5.892 1.152 2.305 1.281 5.891 2.946 5.891 2.946z" stroke-width=".384375"/><path d="M583.76 159.282s-3.586-1.665-5.891-2.946c-2.69-1.537-5.892-1.152-5.892-1.152s-.256 1.024.64 2.433c.385.512 1.153-1.28 4.1-.384 1.152.384 7.043 2.049 7.043 2.049z" fill="#d21034" stroke-width=".384375"/><path d="M583.76 159.282s-5.891-1.665-7.044-2.05c-2.946-.896-3.842.897-4.098.385l1.024 1.409s1.665-1.025 2.69-.897c3.202.513 7.428 1.153 7.428 1.153z" fill="#d21034" stroke-width=".384375"/><path d="M600.666 183.488l3.33-1.921s1.665-.256 2.561 1.409l8.837-10.63s-11.27 4.226-12.935 4.994c0 0 1.153 2.05.128 2.946-1.025.897-3.074 1.921-3.074 1.921zM503.458 248.55L599 184.255l-1.153-.768-94.39 63.268z" fill="#ffce00" stroke-width=".384375"/><path d="M599 203.98s1.025-7.172.129-11.527c-.64-4.482-1.793-5.763-1.793-5.763l-.897.256s2.562 12.551-.384 17.546c0 0 1.793-.128 2.946-.512z" fill="#d21034" stroke-width=".384375"/><path d="M596.055 204.492c2.946-6.147.384-17.546.384-17.546l-.768.128s.896 14.6-.768 17.546z" fill="#d21034" stroke-width=".384375"/><path d="M594.903 180.414l3.073-2.305 6.02 7.684-3.202 2.434z" fill="#ffce00" stroke-width=".384375"/><path d="M596.183 180.67l1.665-1.28 4.739 6.275-1.665 1.153z" fill="#ffce00" stroke-width=".384375"/><path d="M602.715 202.699l-3.714 1.28s1.024-7.171.128-11.526c-.64-4.482-1.793-5.763-1.793-5.763l1.28-1.025s1.666.897 3.074 5.123c.385 1.409 1.41 6.532 1.025 11.911z" stroke-width=".384375"/><path d="M598.104 186.69s-4.482.896-5.891.768c-1.409-.128-1.921-.768-1.921-.768.512-.128 2.305-.384 3.842 0s3.97 0 3.97 0zM598.873 186.562s-1.409-2.562-2.306-3.714c-2.049-2.562-3.97-3.843-5.89-3.458 0 0-1.41 1.28-1.154 2.177 0 0 3.074.128 5.636 2.049 2.049 1.665 3.714 2.946 3.714 2.946z" stroke-width=".384375"/><g fill="#d21034"><path d="M598.873 186.562s-1.665-1.281-3.714-2.946c-2.562-1.921-5.636-2.05-5.636-2.05s.129 1.666.385 3.075c.128.768 1.408-1.025 4.098.256 1.025.512 4.867 1.665 4.867 1.665z" stroke-width=".384375"/><path d="M598.873 186.562s-3.842-1.153-4.867-1.665c-2.69-1.281-3.97.512-4.098-.256l.384 2.049s3.33-.384 4.354 0c.897.384 4.227-.128 4.227-.128z" stroke-width=".384375"/></g></g><path d="M399.334 185.036s-.134 29.19 5.501 45.2c5.508 15.752 9.864 23.323 9.864 23.323l44.873-1.026c6.335 9.796 32.877 13.819 32.877 13.819l.13-17.79-34.586-24.089c-.132.088-.237.236-.342.407z"/><path d="M401.72 217.185c.13.797.267 1.59.41 2.374.708 3.854 1.595 7.521 2.705 10.676 5.508 15.753 9.864 23.324 9.864 23.324l44.873-1.026c6.335 9.796 32.877 13.819 32.877 13.819l.025-3.396.024-3.283.034-4.574c-29.665-12.582-60.132-25.284-90.811-37.914z" fill="#d21034"/><path d="M414.579 159.025s-2.694 18.315-2.181 34.196l45.98 30.811v.049c30.481 21.644 36.246 23.828 36.246 23.828l2.686-12.81-37.272-34.7c-.026.016-.04.047-.065.065l-45.394-41.439z"/><path d="M412.402 184.381a146.003 146.003 0 0 0-.005 8.84l45.98 30.811v.049c30.482 21.644 36.247 23.828 36.247 23.828l.476-2.269c-31.45-23.566-31.894-23.824-82.698-61.259z" fill="#d21034"/><path d="M439.033 143.656s-6.4 11.262-8.577 28.808l36.62 33.562s.016-.129.017-.147c26.524 25.876 30.339 27.686 30.339 27.686l-2.425-19.222-23.308-30.095c-.023.011-.042.037-.065.049z"/><path d="M431.947 163.779c-.687 2.657-1.106 5.585-1.491 8.685l36.62 33.562s.016-.129.017-.147c26.524 25.876 30.339 27.686 30.339 27.686l-.565-4.474c-35.986-35.986-47.304-47.696-64.92-65.312z" fill="#d21034"/><path d="M399.334 185.281s.384 23.95 3.33 37.526c2.92 9.65 4.847 17.391 11.82 29.986" fill="none" stroke="#000" stroke-width=".384375"/><path d="M556.733 143.656l-32.6 40.625c-.018-.009-.032-.025-.05-.033l-23.307 30.095-2.441 19.222s3.841-1.8 30.485-27.67v.13l36.637-33.56c-2.177-17.547-8.724-28.81-8.724-28.81z" fill="none"/><g stroke="#000" stroke-width=".615"><path d="M438.909 143.913s-6.148 10.63-8.325 28.176" fill="none" stroke-width=".384375"/><path d="M446.721 144.81s-1.537-1.281-2.561-1.281c-3.202.128-7.428 0-7.428 0s7.556 1.665 8.58 1.921c.513.256.769-.128 1.41-.64z" fill="#fff" stroke-width=".384375"/><path d="M446.721 144.81c-.768.768-1.024.768-1.409.64-2.945-.768-8.58-1.921-8.58-1.921s4.994 2.305 6.531 2.69c2.306.64 3.586-1.537 3.458-1.41z" stroke-width=".384375"/><g fill="#ffce00"><path d="M435.963 140.327l-2.561-2.818s-1.537-.64-2.946.513l-5.123-12.68s9.35 7.3 10.758 8.581c0 0-1.793 1.537-1.024 2.69.64 1.153 2.433 2.818 2.433 2.818zM495.005 214.354l-57.633-72.746 1.153-.384 56.48 70.568z" stroke-width=".384375"/><path d="M442.367 139.174l-2.177-3.201-8.07 5.507 2.306 3.202z" stroke-width=".384375"/><path d="M441.086 138.918l-1.153-1.665-6.403 4.483 1.152 1.665z" stroke-width=".384375"/></g><path d="M436.732 143.529c-.129.256-.64 2.05-1.025 2.69-.384.512-2.946 2.817-3.97 3.201-1.025.385-3.714 3.586-3.97 9.734 0 0 2.049.256 2.433.512 0 0 .384-5.379 2.177-7.172 1.665-1.793 4.61-4.867 5.123-8.709z" stroke-width=".384375"/><path d="M430.2 159.538s.384-5.379 2.177-7.172c1.793-1.793 4.739-4.867 5.123-8.58l.64.383s-.256 3.586-1.793 5.892c-1.665 2.305-3.458 4.098-4.098 9.99 0 0-1.153-.257-2.05-.513z" fill="#d21034" stroke-width=".384375"/><path d="M434.298 160.563l-2.049-.513c.64-5.89 2.433-7.684 4.098-9.99 1.537-2.305 1.793-5.89 1.793-5.89l.769.384s0 3.458-2.177 8.068c-.385.769-2.05 2.818-2.434 7.94z" fill="#d21034" stroke-width=".384375"/><path d="M436.732 143.529s2.177-1.665 3.33-2.562c3.073-2.433 6.66-2.945 8.324-2.049 0 0 1.025 1.537.384 2.434 0 0-2.945-.897-5.89.256-2.434.896-6.148 1.921-6.148 1.921z" stroke-width=".384375"/><path d="M436.732 143.529s3.714-1.025 6.147-1.921c2.946-1.153 5.891-.256 5.891-.256s.129 1.024-.896 2.177c-.384.512-1.025-1.409-3.97-.897-1.153.129-7.172.897-7.172.897z" fill="#d21034" stroke-width=".384375"/><path d="M436.732 143.529s6.019-.768 7.172-.897c2.945-.512 3.586 1.537 3.97.897l-1.153 1.28s-1.537-1.28-2.561-1.28c-3.202.128-7.428 0-7.428 0z" fill="#d21034" stroke-width=".384375"/><path d="M414.575 159.282s-2.69 16.137-2.177 33.94" fill="none" stroke-width=".384375"/><path d="M422.26 159.026s-1.666-1.025-2.69-.897c-3.202.513-7.429 1.153-7.429 1.153s7.813.512 8.837.512c.64.128.769-.256 1.281-.768z" fill="#fff" stroke-width=".384375"/><path d="M422.26 159.026c-.513.896-.77.896-1.282.768-2.945-.256-8.837-.512-8.837-.512s5.38 1.409 7.044 1.665c2.434.256 3.33-2.05 3.074-1.921z" stroke-width=".384375"/><g fill="#ffce00"><path d="M410.989 156.208l-2.946-2.433s-1.665-.384-2.818 1.024l-7.044-11.782s10.374 5.763 11.911 6.788c0 0-1.409 1.793-.512 2.817.896 1.153 2.818 2.434 2.818 2.434zM497.31 235.102l-84.784-77.87 1.152-.64 83.889 76.717z" stroke-width=".384375"/><path d="M417.136 154.031l-2.69-2.818-7.043 6.788 2.817 2.69z" stroke-width=".384375"/><path d="M415.856 154.031l-1.41-1.537-5.763 5.507 1.537 1.41z" stroke-width=".384375"/></g><path d="M412.141 159.282c0 .256-.256 2.05-.512 2.69-.256.64-2.433 3.33-3.33 3.97-1.024.512-3.202 3.97-2.433 10.118 0 0 1.92 0 2.433.128 0 0-.384-5.38 1.025-7.429s3.97-5.635 3.714-9.349z" stroke-width=".384375"/><path d="M408.3 176.06s-.385-5.38 1.024-7.429c1.409-2.049 3.97-5.507 3.714-9.22l.64.255s.384 3.586-.896 6.148c-1.153 2.561-2.562 4.482-2.434 10.374 0 0-1.152 0-2.049-.128z" fill="#d21034" stroke-width=".384375"/><path d="M412.526 176.444l-2.178-.256c-.128-5.892 1.281-7.813 2.434-10.374 1.28-2.562.896-6.148.896-6.148l.897.128s.512 3.586-.897 8.325c-.256.897-1.665 3.202-1.152 8.325z" fill="#d21034" stroke-width=".384375"/><path d="M412.141 159.282s1.921-2.05 2.946-3.202c2.562-2.817 6.148-3.842 7.94-3.202 0 0 1.281 1.41.897 2.306 0 0-3.202-.385-5.891 1.152-2.306 1.281-5.892 2.946-5.892 2.946z" stroke-width=".384375"/><path d="M412.141 159.282s3.586-1.665 5.892-2.946c2.69-1.537 5.891-1.152 5.891-1.152s.256 1.024-.64 2.433c-.384.512-1.153-1.28-4.099-.384-1.152.384-7.044 2.049-7.044 2.049z" fill="#d21034" stroke-width=".384375"/><path d="M412.141 159.282s5.892-1.665 7.044-2.05c2.946-.896 3.843.897 4.099.385l-1.025 1.409s-1.665-1.025-2.69-.897c-3.201.513-7.428 1.153-7.428 1.153z" fill="#d21034" stroke-width=".384375"/><path d="M395.236 183.488l-3.33-1.921s-1.665-.256-2.562 1.409l-8.837-10.63s11.27 4.226 12.936 4.994c0 0-1.153 2.05-.128 2.946s3.073 1.921 3.073 1.921zM492.444 248.55L396.9 184.255l1.152-.768 94.39 63.268z" fill="#ffce00" stroke-width=".384375"/><path d="M396.9 203.98s-1.024-7.172-.127-11.527c.64-4.482 1.793-5.763 1.793-5.763l.896.256s-2.561 12.551.384 17.546c0 0-1.793-.128-2.945-.512z" fill="#d21034" stroke-width=".384375"/><path d="M399.846 204.492c-2.945-6.147-.384-17.546-.384-17.546l.769.128s-.897 14.6.768 17.546z" fill="#d21034" stroke-width=".384375"/><path d="M400.999 180.414l-3.074-2.305-6.02 7.684 3.203 2.434z" fill="#ffce00" stroke-width=".384375"/><path d="M399.718 180.67l-1.665-1.28-4.738 6.275 1.665 1.153z" fill="#ffce00" stroke-width=".384375"/><path d="M393.186 202.699l3.715 1.28s-1.025-7.171-.128-11.526c.64-4.482 1.793-5.763 1.793-5.763l-1.281-1.025s-1.665.897-3.074 5.123c-.384 1.409-1.409 6.532-1.025 11.911z" stroke-width=".384375"/><path d="M397.797 186.69s4.483.896 5.892.768c1.408-.128 1.92-.768 1.92-.768-.512-.128-2.305-.384-3.842 0s-3.97 0-3.97 0zM397.029 186.562s1.408-2.562 2.305-3.714c2.05-2.562 3.97-3.843 5.891-3.458 0 0 1.41 1.28 1.153 2.177 0 0-3.074.128-5.635 2.049-2.05 1.665-3.714 2.946-3.714 2.946z" stroke-width=".384375"/><g fill="#d21034"><path d="M397.029 186.562s1.665-1.281 3.714-2.946c2.561-1.921 5.635-2.05 5.635-2.05s-.128 1.666-.384 3.075c-.128.768-1.409-1.025-4.099.256-1.024.512-4.866 1.665-4.866 1.665z" stroke-width=".384375"/><path d="M397.029 186.562s3.842-1.153 4.866-1.665c2.69-1.281 3.97.512 4.099-.256l-.384 2.049s-3.33-.384-4.355 0c-.896.384-4.226-.128-4.226-.128z" stroke-width=".384375"/></g></g><path d="M343.75 289.533c3.074-2.177 20.876-11.527 28.304-15.753 7.3-4.226 14.729-9.477 19.852-12.551 5.379-3.202 26.383-12.68 30.481-13.704 7.429-1.793 40.984-4.227 75.564-4.227 34.58 0 81.71 8.453 86.065 8.453 4.227 0 32.531 19.98 38.807 24.078 6.275 4.227 33.427 15.753 33.427 15.753v17.93h-312.5v-19.979z" fill="#007e3a"/><g stroke="#000"><path d="M418.93 238.304s3.201 6.147 4.738 7.428c1.537 1.28 2.177 1.793 4.483 2.049 2.433.256 20.491 2.177 22.028 2.305 1.537.385 2.818 7.429 3.97 7.94 1.025.513 1.281.77 3.074 1.538 1.921.896 6.916 2.305 37.014 10.886 0 0 1.537-4.61-.513-5.379-6.531-2.05-11.782-3.586-22.797-7.3-3.074-1.025-5.507-3.202-7.044-4.995-1.665-1.793-7.684-8.325-8.965-8.965-1.28-.513-3.842-2.05-8.709-2.306-4.61-.256-27.28-3.201-27.28-3.201zM576.844 238.304s-3.074 6.147-4.61 7.428c-1.665 1.28-2.178 1.793-4.483 2.049-2.433.256-20.492 2.177-22.029 2.305-1.665.385-2.945 7.429-3.97 7.94-1.025.513-1.28.77-3.202 1.538-1.793.896-6.788 2.305-36.885 10.886 0 0-1.537-4.61.512-5.379 6.532-2.05 11.783-3.586 22.797-7.3 3.074-1.025 5.508-3.202 7.044-4.995 1.537-1.793 7.557-8.325 8.966-8.965 1.28-.513 3.97-2.05 8.58-2.306 4.74-.256 27.28-3.201 27.28-3.201z" fill="#ffce00" stroke-width=".5125"/><g stroke-width=".615"><g fill="#ffce00"><path d="M469.262 237.279s6.02-.512 5.636 3.202c-.129 3.586-6.148.768-6.148.768s.256-1.793.512-3.97zM398.95 221.014c1.024-.128.512 1.024 1.537 1.665l67.366 9.861.513 1.537s.896.128.896 1.537c0 1.28-.896 7.3-1.409 7.428-1.28.513-1.28.513-1.024.513s-.256 1.92-1.025 1.92-66.854-9.99-66.854-9.99-2.05 1.538-2.946.513c0 0-1.024-3.202-.256-8.197.64-3.842 1.153-6.531 3.202-6.787z" stroke-width=".384375"/><path d="M474.898 240.48c.64 3.587-6.148.77-6.148.77s.128-.897.256-2.05c0 0 2.305.384 3.074.384.768 0 2.69-1.024 2.818.897z" stroke-width=".384375"/></g><g fill="none"><path d="M400.487 222.679s-.769.384-.897 1.665M402.024 223.063s-.769.384-.897 1.665M404.2 223.19s-.896.385-.896 1.666M405.994 223.447s-.769.256-.897 1.665M407.787 223.703s-.769.384-.897 1.665M413.038 224.6s-.769.384-.897 1.665M415.087 224.856s-.896.384-.896 1.665M417.008 225.112s-.768.384-.896 1.665M418.93 225.368s-.641.384-.897 1.665M420.978 225.624s-.768.384-.896 1.665M422.9 225.88s-.769.385-.897 1.793M424.82 226.137s-.64.384-.896 1.664M426.742 226.649s-.769.384-.897 1.665M428.663 226.905s-.769.384-.897 1.665M430.584 227.161s-.768.512-.897 1.793M432.633 227.417s-.768.384-.896 1.665M434.426 227.673s-.768.513-.896 1.793M436.475 227.93s-.896.384-.896 1.665M438.397 228.186s-.769.384-.897 1.793M440.318 228.57s-.769.384-.897 1.665M442.239 228.954s-.769.384-1.025 1.665M444.16 229.082s-.769.513-.897 1.793M453.765 230.491s-.768.384-.896 1.665M455.686 230.747s-.768.384-.896 1.665M446.08 229.466s-.768.385-.896 1.665M448.13 229.595s-.768.512-1.024 1.793M449.795 229.979s-.768.384-.896 1.665M451.716 230.235s-.64.384-.896 1.665M460.297 231.644s-.768.384-.896 1.665M462.218 231.9s-.768.384-.896 1.665M463.883 232.156s-.768.384-.896 1.793M465.932 232.412s-.768.384-.896 1.665M398.437 227.801l69.288 10.759M398.181 229.082l69.416 10.758M397.797 230.491l69.416 10.758M397.285 232.028l69.416 10.758M397.285 233.18l69.416 10.63M397.029 233.949l69.416 10.63M396.9 234.59l69.289 10.758M397.029 234.461l69.416 10.63M397.029 233.309l69.416 10.758M396.9 232.54l69.289 10.758M397.67 231.26l69.415 10.758" stroke-width=".384375"/></g><g fill="#ffce00"><path d="M409.452 229.595c.896-3.97 1.921-5.636 1.921-5.636-1.28-1.152-1.409-.384-1.409-.384-.896 0-1.409.897-2.433 6.404-.897 5.507.768 7.3.768 7.3.897.512 1.793.256 1.793.256s-1.665-3.458-.64-7.94zM457.48 236.767c.896-4.099 2.049-6.148 2.049-6.148-.513-1.153-1.153-.256-1.153-.256-.896 0-1.793 1.28-2.818 6.66-.896 5.507.769 7.3.769 7.3.896.384 1.793.256 1.793.256s-1.665-3.458-.64-7.812zM467.341 238.56c.256-4.099-.128-6.148-.128-6.148.769-1.024 1.28.128 1.28.128.897.256 1.154 1.409.513 6.916s-2.561 6.276-2.561 6.276c-.897.128-1.921-.128-1.921-.128s2.561-2.562 2.817-7.044zM526.64 237.279s-6.02-.512-5.764 3.202c.256 3.586 6.276.768 6.276.768s-.257-1.793-.513-3.97zM596.952 221.014c-1.025-.128-.512 1.024-1.537 1.665l-67.367 9.861-.64 1.537s-.769.128-.769 1.537c0 1.28.769 7.3 1.41 7.428 1.28.513 1.28.513 1.024.513-.384 0 .256 1.92.896 1.92.897 0 66.983-9.99 66.983-9.99s1.92 1.538 2.817.513c0 0 1.153-3.202.257-8.197-.64-3.842-1.153-6.531-3.074-6.787z" stroke-width=".384375"/><path d="M520.876 240.48c-.512 3.587 6.276.77 6.276.77s-.128-.897-.385-2.05c0 0-2.305.384-3.073.384-.64 0-2.562-1.024-2.818.897z" stroke-width=".384375"/></g><g fill="none"><path d="M595.415 222.679s.64.384.896 1.665M593.75 223.063s.897.384.897 1.665M591.7 223.19s.77.385.897 1.666M589.78 223.447s.768.256 1.024 1.665M587.987 223.703s.768.384.896 1.665M582.736 224.6s.896.384.896 1.665M580.815 224.856s.768.384.896 1.665M578.765 225.112s.897.384.897 1.665M576.844 225.368s.897.384.897 1.665M574.923 225.624s.769.384.897 1.665M572.874 225.88s.896.385.896 1.793M570.953 226.137s.768.384.896 1.664M569.16 226.649s.768.384.896 1.665M567.239 226.905s.64.384.896 1.665M565.19 227.161s.768.512.896 1.793M563.268 227.417s.769.384.897 1.665M561.347 227.673s.897.513.897 1.793M559.426 227.93s.769.384.897 1.665M557.505 228.186s.769.384.897 1.793M555.456 228.57s.896.384.896 1.665M553.663 228.954s.768.384.896 1.665M551.742 229.082s.768.513.896 1.793M542.136 230.491s.769.384.897 1.665M540.087 230.747s.897.384 1.025 1.665M549.693 229.466s.768.385.896 1.665M547.772 229.595s.768.512.896 1.793M545.978 229.979s.897.384 1.025 1.665M544.057 230.235s.897.384.897 1.665M535.476 231.644s.897.384 1.025 1.665M533.555 231.9s.897.384.897 1.665M531.89 232.156s.769.384.897 1.793M529.97 232.412s.768.384.896 1.665M597.464 227.801l-69.416 10.759M597.72 229.082l-69.416 10.758M597.976 230.491L528.56 241.25M598.489 232.028l-69.416 10.758M598.489 233.18l-69.416 10.63M598.745 233.949l-69.416 10.63M599.001 234.59l-69.416 10.758M598.745 234.461l-69.416 10.63M598.745 233.309l-69.416 10.758M599.001 232.54l-69.416 10.758M598.233 231.26l-69.416 10.758" stroke-width=".384375"/></g><g fill="#ffce00"><path d="M586.45 229.595c-.897-3.97-1.921-5.636-1.921-5.636 1.28-1.152 1.408-.384 1.408-.384.897 0 1.41.897 2.306 6.404s-.64 7.3-.64 7.3c-.897.512-1.794.256-1.794.256s1.665-3.458.64-7.94zM538.422 236.767c-.896-4.099-2.05-6.148-2.05-6.148.513-1.153 1.154-.256 1.154-.256.896 0 1.92 1.28 2.817 6.66.897 5.507-.768 7.3-.768 7.3-.897.384-1.793.256-1.793.256s1.665-3.458.64-7.812zM528.56 238.56c-.384-4.099 0-6.148 0-6.148-.768-1.024-1.28.128-1.28.128-.897.256-1.153 1.409-.385 6.916.64 5.507 2.434 6.276 2.434 6.276 1.024.128 1.921-.128 1.921-.128s-2.433-2.562-2.69-7.044zM461.962 268.529l-33.3-54.816 1.025-.896 33.3 55.2z" stroke-width=".384375"/></g><path d="M429.687 213.713c-.768.513-2.561.769-5.763-4.482-3.074-5.251-4.354-6.02-2.561-7.044 1.793-1.153 3.33 1.537 4.995 4.098 1.536 2.69 5.25 6.404 3.33 7.428z" fill="#fff" stroke-width=".384375"/><path d="M533.811 268.529l33.428-54.816-1.153-.896-33.3 55.2z" fill="#ffce00" stroke-width=".384375"/><path d="M566.086 213.713c.897.513 2.69.769 5.763-4.482 3.202-5.251 4.483-6.02 2.69-7.044-1.793-1.153-3.458 1.537-4.995 4.098-1.665 2.69-5.251 6.404-3.458 7.428z" fill="#fff" stroke-width=".384375"/><g fill="#ffce00"><path d="M433.274 231.516s-.513.512-.897 1.024c-.256.64-.256 29.201-.256 29.201l1.024.897s-2.945.384-3.842.128c0 0 .64-1.025.769-1.665.128-.513.128-28.177.128-28.177s-.769-1.408-1.025-1.665c0 0 1.409-.256 2.05-.128.64.257 2.049.385 2.049.385z" stroke-width=".384375"/><path d="M443.391 237.663s-.768 0-1.408.128c-.64.256-20.748 20.492-20.748 20.492v1.409s-2.306-1.921-2.69-2.69c0 0 1.153-.256 1.665-.64.512-.256 19.98-19.851 19.98-19.851s.512-1.537.512-1.922c0 0 1.152.769 1.537 1.41.256.64 1.152 1.664 1.152 1.664z" stroke-width=".384375"/><path d="M421.363 234.461s.128.769.256 1.41c.128.64 20.364 20.747 20.364 20.747h1.408s-1.793 2.305-2.69 2.69c0 0-.255-1.153-.511-1.665-.257-.513-19.852-20.108-19.852-20.108s-1.537-.384-1.921-.384c0 0 .768-1.28 1.409-1.409.64-.384 1.537-1.28 1.537-1.28z" stroke-width=".384375"/><path d="M446.465 249.318s-.64-.512-1.28-.897c-.513-.384-28.945-.256-28.945-.256l-1.025 1.025s-.384-2.946-.128-3.842c0 0 1.153.64 1.665.896.512.128 28.176 0 28.176 0s1.41-.768 1.665-1.024c0 0 .384 1.408 0 2.049-.128.64-.128 2.049-.128 2.049z" stroke-width=".384375"/></g></g></g><path d="M430.84 262.766c-8.709 0-15.753-6.916-15.753-15.753 0-8.71 7.044-15.754 15.753-15.754s15.753 7.045 15.753 15.754c0 8.837-7.044 15.753-15.753 15.753v5.635c11.783 0 21.26-9.606 21.26-21.388 0-11.655-9.477-21.26-21.26-21.26-11.655 0-21.26 9.605-21.26 21.26 0 11.782 9.605 21.388 21.26 21.388z" fill="#ffce00"/><g stroke="#000"><g stroke-width=".82"><path d="M430.84 250.214a3.17 3.17 0 0 0 3.202-3.201c0-1.665-1.409-3.074-3.202-3.074-1.665 0-3.202 1.409-3.202 3.074 0 1.793 1.537 3.201 3.202 3.201z" fill="#ffce00" stroke-width=".5125"/><g fill="none"><path d="M430.84 268.4c11.783 0 21.26-9.605 21.26-21.387 0-11.655-9.477-21.26-21.26-21.26-11.655 0-21.26 9.605-21.26 21.26 0 11.782 9.605 21.388 21.26 21.388" stroke-width=".5125"/><path d="M430.84 262.766c8.71 0 15.753-6.916 15.753-15.753 0-8.71-7.044-15.754-15.753-15.754s-15.753 7.045-15.753 15.754c0 8.837 7.044 15.753 15.753 15.753" stroke-width=".5125"/></g></g><g stroke-width=".615"><path d="M431.224 229.082c.385 0 .64-.256.64-.64s-.255-.64-.64-.64-.64.256-.64.64.256.64.64.64zM424.308 230.363c.385-.128.513-.512.385-.897s-.513-.512-.897-.384c-.256.256-.384.513-.256.897 0 .256.384.384.768.384zM418.417 234.077a.619.619 0 0 0 0-.896.619.619 0 0 0-.897 0 .619.619 0 0 0 0 .896c.257.256.64.256.897 0zM414.447 239.84c.128-.384 0-.768-.385-.896-.384-.128-.768.128-.896.384s.128.64.384.769c.256.256.64 0 .897-.257zM412.91 246.628c0-.384-.384-.512-.64-.512-.385 0-.64.128-.64.512s.255.769.64.769c.256 0 .64-.384.64-.769zM414.062 253.672c-.128-.384-.512-.64-.768-.384-.384.128-.512.512-.384.769.128.384.512.512.896.384.256-.128.385-.512.256-.769zM417.905 259.564c-.256-.256-.769-.256-.897 0-.256.128-.256.64 0 .896.128.256.64.256.897 0 .128-.256.128-.768 0-.896zM423.54 263.534c-.256-.128-.64 0-.768.384-.129.256 0 .64.384.769.256.128.64 0 .768-.384.256-.257 0-.64-.384-.769zM430.456 265.071c-.384 0-.64.256-.64.64s.256.64.64.64.64-.255.64-.64-.256-.64-.64-.64zM437.372 263.79c-.384.128-.512.513-.384.897s.512.512.896.384c.256-.256.384-.64.384-.897-.128-.384-.512-.512-.896-.384zM443.263 260.076a.619.619 0 0 0 0 .897c.256.256.64.256.897 0a.619.619 0 0 0 0-.897.619.619 0 0 0-.897 0zM447.362 254.313c-.256.384 0 .768.384.768.256.128.64 0 .768-.256.128-.384-.128-.768-.384-.896s-.64 0-.768.384zM448.77 247.525c0 .256.385.512.769.512.256 0 .512-.256.512-.512 0-.384-.256-.769-.512-.769-.384 0-.769.385-.769.769zM447.618 240.48c.128.385.512.641.768.385.384-.128.64-.512.384-.768-.128-.385-.512-.513-.896-.385-.256.128-.384.513-.256.769zM443.904 234.59c.128.256.64.256.896 0 .128-.257.128-.641 0-.897-.256-.256-.768-.256-.896 0a.619.619 0 0 0 0 .896zM438.14 230.62c.257.127.64 0 .769-.385.128-.256 0-.64-.384-.769-.257-.128-.64 0-.769.257-.128.384 0 .768.384.896z" stroke-width=".384375"/><g fill="#ffce00"><path d="M562.628 231.516s.512.512.897 1.024c.384.64.256 29.201.256 29.201l-1.025.897s2.946.384 3.714.128c0 0-.512-1.025-.768-1.665-.128-.513 0-28.177 0-28.177s.768-1.408.896-1.665c0 0-1.28-.256-1.92-.128-.641.257-2.05.385-2.05.385z" stroke-width=".384375"/><path d="M552.51 237.663s.64 0 1.409.128c.512.256 20.748 20.492 20.748 20.492l-.128 1.409s2.305-1.921 2.818-2.69c0 0-1.153-.256-1.665-.64-.64-.256-20.108-19.851-20.108-19.851s-.384-1.537-.384-1.922c0 0-1.281.769-1.537 1.41-.256.64-1.153 1.664-1.153 1.664z" stroke-width=".384375"/><path d="M574.41 234.461s0 .769-.255 1.41c-.128.64-20.236 20.747-20.236 20.747h-1.409s1.793 2.305 2.562 2.69c0 0 .384-1.153.64-1.665s19.852-20.108 19.852-20.108 1.536-.384 1.92-.384c0 0-.768-1.28-1.408-1.409-.64-.384-1.665-1.28-1.665-1.28z" stroke-width=".384375"/><path d="M549.565 249.318s.512-.512 1.024-.897c.64-.384 29.073-.256 29.073-.256l1.024 1.025s.385-2.946 0-3.842c0 0-1.024.64-1.536.896-.513.128-28.177 0-28.177 0s-1.408-.768-1.665-1.024c0 0-.384 1.408-.128 2.049.256.64.385 2.049.385 2.049z" stroke-width=".384375"/></g></g></g><path d="M564.933 262.766c8.837 0 15.882-6.916 15.882-15.753 0-8.71-7.045-15.754-15.882-15.754-8.58 0-15.753 7.045-15.753 15.754 0 8.837 7.172 15.753 15.753 15.753v5.635c-11.654 0-21.132-9.606-21.132-21.388 0-11.655 9.478-21.26 21.132-21.26 11.783 0 21.26 9.605 21.26 21.26 0 11.782-9.477 21.388-21.26 21.388z" fill="#ffce00"/><g stroke="#000"><g stroke-width=".82"><path d="M564.933 250.214c-1.665 0-3.073-1.408-3.073-3.201 0-1.665 1.408-3.074 3.073-3.074 1.793 0 3.202 1.409 3.202 3.074a3.17 3.17 0 0 1-3.202 3.201z" fill="#ffce00" stroke-width=".5125"/><g fill="none"><path d="M564.933 268.4c-11.654 0-21.132-9.605-21.132-21.387 0-11.655 9.478-21.26 21.132-21.26 11.783 0 21.26 9.605 21.26 21.26 0 11.782-9.477 21.388-21.26 21.388" stroke-width=".5125"/><path d="M564.933 262.766c-8.58 0-15.753-6.916-15.753-15.753 0-8.71 7.172-15.754 15.753-15.754 8.837 0 15.882 7.045 15.882 15.754 0 8.837-7.045 15.753-15.882 15.753" stroke-width=".5125"/></g></g><g stroke-width=".615"><path d="M564.677 229.082c-.384 0-.768-.256-.768-.64s.384-.64.768-.64c.256 0 .513.256.513.64s-.257.64-.513.64zM571.465 230.363c-.256-.128-.384-.512-.256-.897 0-.384.512-.512.768-.384.385.256.513.513.385.897-.128.256-.513.384-.897.384zM577.485 234.077c-.385-.256-.385-.64 0-.896.256-.257.512-.257.896 0a.619.619 0 0 1 0 .896c-.384.256-.64.256-.896 0zM581.455 239.84c-.128-.384 0-.768.384-.896.256-.128.64.128.769.384.256.256 0 .64-.257.769-.384.256-.768 0-.896-.257zM582.992 246.628c0-.384.256-.512.64-.512s.64.128.64.512-.256.769-.64.769-.64-.384-.64-.769zM581.711 253.672c.256-.384.64-.64.897-.384.256.128.512.512.384.769-.128.384-.512.512-.897.384-.384-.128-.512-.512-.384-.769zM577.997 259.564a.619.619 0 0 1 .896 0c.257.128.257.64 0 .896a.619.619 0 0 1-.896 0c-.256-.256-.256-.768 0-.896zM572.234 263.534c.256-.128.64 0 .896.384.128.256 0 .64-.384.769-.384.128-.769 0-.897-.384-.128-.257.128-.64.385-.769zM565.318 265.071c.384 0 .768.256.768.64s-.384.64-.768.64c-.257 0-.513-.255-.513-.64s.256-.64.513-.64zM558.53 263.79c.256.128.384.513.256.897 0 .384-.384.512-.769.384-.384-.256-.512-.64-.384-.897.128-.384.512-.512.897-.384zM552.638 260.076a.619.619 0 0 1 0 .897c-.384.256-.768.256-1.024 0a.619.619 0 0 1 0-.897c.256-.256.64-.256 1.024 0zM548.54 254.313c.128.384 0 .768-.256.768a.996.996 0 0 1-1.025-.256c0-.384.128-.768.384-.896.385-.129.769 0 .897.384zM547.003 247.525c0 .256-.256.512-.64.512-.385 0-.64-.256-.64-.512 0-.384.255-.769.64-.769.384 0 .64.385.64.769zM548.284 240.48c-.256.385-.64.641-.897.385-.256-.128-.384-.512-.384-.768.128-.385.512-.513.897-.385.384.128.512.513.384.769zM551.998 234.59a.619.619 0 0 1-.897 0 .619.619 0 0 1 0-.897c.257-.256.64-.256.897 0s.256.64 0 .896zM557.761 230.62c-.256.127-.64 0-.896-.385-.128-.256 0-.64.384-.769s.768 0 .896.257c.129.384 0 .768-.384.896z" stroke-width=".384375"/></g></g><path d="M370.517 231.26s-2.69-.769-5.25 1.536c-1.281 1.153.768 5.764-.641 7.173-1.28 1.28-9.35.128-8.58 3.842 0 0 4.738-1.793 6.275-1.025 1.665.769 4.226.256 4.995-.768.768-1.025.256-4.483 2.177-4.995 1.793-.512 6.275-.512 6.275-.512z" fill="#d21034"/><g stroke="#000"><g stroke-width=".615"><path d="M367.828 228.314l16.521 16.65" fill="none" stroke-width=".384375"/><g fill="#fff"><path d="M404.585 256.49l-21.516-11.014.512-1.41 23.053 12.168z" stroke-width=".384375"/><path d="M396.004 264.815l-12.423-20.748 1.153-.769 13.191 22.541z" stroke-width=".384375"/><path d="M400.23 261.1l-17.418-16.649.769-1.153 18.699 18.187z" stroke-width=".384375"/></g><path d="M385.118 246.244l.512-.768" fill="none" stroke-width=".384375"/><g fill="#ffce00"><path d="M398.694 281.849c1.92 0 3.458-1.537 3.458-3.586 0-1.793-1.537-3.458-3.458-3.458s-3.586 1.665-3.586 3.458c0 2.049 1.665 3.586 3.586 3.586zM406.762 281.849c1.921 0 3.586-1.537 3.586-3.586 0-1.793-1.665-3.458-3.586-3.458-1.92 0-3.458 1.665-3.458 3.458 0 2.049 1.537 3.586 3.458 3.586zM414.959 281.849c1.921 0 3.458-1.537 3.458-3.586 0-1.793-1.537-3.458-3.458-3.458-2.05 0-3.586 1.665-3.586 3.458 0 2.049 1.537 3.586 3.586 3.586zM423.028 281.849c2.049 0 3.458-1.537 3.458-3.586 0-1.793-1.41-3.458-3.458-3.458-1.921 0-3.458 1.665-3.458 3.458 0 2.049 1.537 3.586 3.458 3.586zM402.664 275.573c1.921 0 3.458-1.537 3.458-3.586a3.444 3.444 0 0 0-3.458-3.458c-2.05 0-3.586 1.537-3.586 3.458 0 2.05 1.537 3.586 3.586 3.586zM410.733 275.573c1.92 0 3.458-1.537 3.458-3.586 0-1.921-1.537-3.458-3.458-3.458s-3.586 1.537-3.586 3.458c0 2.05 1.664 3.586 3.586 3.586zM418.801 275.573c2.05 0 3.586-1.537 3.586-3.586 0-1.921-1.537-3.458-3.586-3.458a3.444 3.444 0 0 0-3.458 3.458c0 2.05 1.537 3.586 3.458 3.586zM406.506 269.297c2.05 0 3.586-1.536 3.586-3.458 0-2.049-1.537-3.586-3.586-3.586-1.921 0-3.586 1.537-3.586 3.586 0 1.922 1.665 3.458 3.586 3.458zM414.703 269.297a3.444 3.444 0 0 0 3.458-3.458c0-2.049-1.537-3.586-3.458-3.586s-3.586 1.537-3.586 3.586c0 1.922 1.665 3.458 3.586 3.458zM432.249 276.854a3.444 3.444 0 0 0 3.458-3.458c0-1.921-1.537-3.586-3.458-3.586s-3.458 1.665-3.458 3.586a3.444 3.444 0 0 0 3.458 3.458zM444.544 276.085c1.921 0 3.586-1.537 3.586-3.458 0-2.049-1.665-3.586-3.586-3.586s-3.458 1.537-3.458 3.586a3.444 3.444 0 0 0 3.458 3.458zM452.74 282.745c1.922 0 3.459-1.665 3.459-3.586s-1.537-3.586-3.458-3.586c-2.05 0-3.586 1.665-3.586 3.586s1.537 3.586 3.586 3.586z" stroke-width=".384375"/></g><path d="M451.076 261.87s1.92.896 1.92 1.92-2.304 1.665-3.329 1.793c-1.025.384-3.97 1.281-1.28 4.483 2.689 3.202 8.196.512 9.093-.512 1.408-1.281 1.408-4.867-.513-6.788-2.561-2.69-5.763-2.178-5.763-2.178z" fill="#fff" stroke-width=".384375"/><path d="M451.972 259.82l-.256 3.202-1.28-.256.64-2.946z" fill="#fff" stroke-width=".384375"/><path d="M490.266 222.679c.385 1.92-1.92 1.024-4.098 1.024-.896.128-2.177.384-3.074 1.153-1.024.768-.64 3.458-.64 3.458-2.69-.513-3.202-1.665-3.97-4.355 0 0 1.408 1.153 2.69.769 1.152-.384 3.713-1.281 4.61-1.281.896 0 4.482-.768 4.482-.768z" stroke-width=".384375"/><g fill="#fff"><path d="M488.858 240.48l-2.434-15.624-1.152.128 2.433 16.01z" stroke-width=".384375"/><path d="M490.266 222.679c-.256-2.05-1.92-.897-4.482-.385-3.074.64-4.995-.512-5.507-3.458 0 0-2.562 1.793-1.793 5.123.768 2.69 1.28 3.842 3.97 4.355 0 0-.384-2.69.64-3.458.897-.769 2.178-1.025 3.074-1.153 2.177 0 4.483.897 4.098-1.024z" stroke-width=".384375"/><path d="M486.68 225.368l-.512-3.842-1.793.128.512 4.098zM461.322 156.08l10.63 22.157 3.202-1.665-.513-1.153 1.41-.512-.77-1.409-1.92.897z" stroke-width=".384375"/></g><path d="M494.877 216.147l-21.772-42.136 1.28-.513 20.876 35.989z" fill="#ffce00" stroke-width=".384375"/><path d="M485.656 192.837l-2.306 1.025-2.561-4.867 1.921-1.024zM477.843 144.938l6.148 22.413 2.945-.897-.384-1.92 1.537-.129-.512-1.409-2.177.512z" fill="#fff" stroke-width=".384375"/><path d="M495.645 195.783l-10.373-32.787 1.408-.256 9.734 27.28z" fill="#ffce00" stroke-width=".384375"/><path d="M491.675 176.956l-1.793.513-1.665-5.123 1.537-.769zM467.47 145.45l9.605 25.743 2.817-1.28-.512-1.666 1.409-.512-.512-1.28-2.178.768z" fill="#fff" stroke-width=".384375"/><path d="M493.724 203.596l-15.753-36.758 1.41-.512 14.6 32.019z" fill="#ffce00" stroke-width=".384375"/><path d="M486.168 181.439l-1.665.896-2.05-5.123 1.41-.768zM534.452 156.08l-10.502 22.157-3.202-1.665.512-1.153-1.409-.512.64-1.409 2.05.897z" fill="#fff" stroke-width=".384375"/><path d="M500.897 216.147l21.772-42.136-1.28-.513-20.62 35.989z" fill="#ffce00" stroke-width=".384375"/><path d="M510.246 192.837l2.305 1.025 2.434-4.867-1.921-1.024zM518.058 144.938l-6.147 22.413-3.074-.897.512-1.92-1.537-.129.513-1.409 2.177.512z" fill="#fff" stroke-width=".384375"/><path d="M500.256 195.783l10.246-32.787-1.28-.256-9.734 27.28z" fill="#ffce00" stroke-width=".384375"/><path d="M504.098 176.956l1.921.513 1.537-5.123-1.537-.769zM528.432 145.45l-9.605 25.743-2.946-1.28.64-1.666-1.408-.512.512-1.28 2.177.768z" fill="#fff" stroke-width=".384375"/><path d="M502.177 203.596l15.625-36.758-1.28-.512-14.6 32.019z" fill="#ffce00" stroke-width=".384375"/><path d="M509.606 181.439l1.793.896 2.049-5.123-1.41-.768z" fill="#fff" stroke-width=".384375"/><path d="M505.507 222.679c-.256 1.92 2.05 1.024 4.227 1.024.768.128 2.049.384 2.945 1.153 1.153.768.769 3.458.769 3.458 2.69-.513 3.202-1.665 3.842-4.355 0 0-1.409 1.153-2.562.769s-3.842-1.281-4.738-1.281c-.897 0-4.483-.768-4.483-.768z" stroke-width=".384375"/><g fill="#fff"><path d="M507.044 240.48l2.433-15.624 1.153.128-2.561 16.01z" stroke-width=".384375"/><path d="M505.507 222.679c.256-2.05 2.05-.897 4.61-.385 2.947.64 4.996-.512 5.508-3.458 0 0 2.433 1.793 1.665 5.123-.64 2.69-1.153 3.842-3.842 4.355 0 0 .384-2.69-.769-3.458-.896-.769-2.177-1.025-2.945-1.153-2.178 0-4.483.897-4.227-1.024z" stroke-width=".384375"/><path d="M509.093 225.368l.64-3.842 1.666.128-.513 4.098z" stroke-width=".384375"/></g><path d="M460.297 230.875l.64-9.605s-1.793 1.409-3.97 1.409c-2.049 0-4.61-1.281-4.61-1.281l.512 8.58s.768 6.02 3.842 6.02c3.202 0 3.586-5.123 3.586-5.123z" fill="#007e3a" stroke-width=".384375"/><path d="M452.357 221.398s1.793-1.665 4.354-1.665c2.946 0 4.226 1.537 4.226 1.537s-2.049 1.409-3.97 1.409-4.61-1.281-4.61-1.281zM452.485 223.96s2.049 1.792 4.226 1.664c2.177-.128 4.098-1.665 4.098-1.665l-.128.897s-1.28 2.433-3.97 2.433c-2.561 0-4.226-2.305-4.226-2.305z" fill="#fff" stroke-width=".384375"/><path d="M455.943 223.575l.512-2.177-.769-7.044s1.025-1.665 2.562 0l-.768 7.044.512 2.177z" fill="#007e3a" stroke-width=".384375"/></g><path d="M456.455 221.398s.512.256 1.025 0" fill="none" stroke-width=".5125"/></g><g stroke-width=".615"><path d="M457.095 233.18l.385 2.562s.896-.256 1.152-.64c.256-.513-.64-2.562-.64-2.562zM456.711 227.93c.769 0 1.153.64 1.153 1.536 0 .769-.384 1.41-.897 1.41-.768 0-1.28-.77-1.152-1.41.128-.768.128-1.536.896-1.536z" fill="#fff" stroke="#007e3a" stroke-width=".384375"/><g stroke="#000"><g fill="#ffce00"><path d="M597.208 281.849c-1.921 0-3.458-1.537-3.458-3.586 0-1.793 1.537-3.458 3.458-3.458s3.458 1.665 3.458 3.458c0 2.049-1.537 3.586-3.458 3.586zM589.14 281.849c-2.05 0-3.587-1.537-3.587-3.586 0-1.793 1.537-3.458 3.586-3.458 1.793 0 3.458 1.665 3.458 3.458 0 2.049-1.665 3.586-3.458 3.586zM580.943 281.849c-1.921 0-3.586-1.537-3.586-3.586 0-1.793 1.665-3.458 3.586-3.458s3.586 1.665 3.586 3.458c0 2.049-1.665 3.586-3.586 3.586zM572.746 281.849c-1.921 0-3.458-1.537-3.458-3.586 0-1.793 1.537-3.458 3.458-3.458 2.05 0 3.586 1.665 3.586 3.458 0 2.049-1.537 3.586-3.586 3.586zM593.238 275.573c-1.921 0-3.458-1.537-3.458-3.586a3.444 3.444 0 0 1 3.458-3.458c1.92 0 3.586 1.537 3.586 3.458 0 2.05-1.665 3.586-3.586 3.586zM585.17 275.573c-1.922 0-3.587-1.537-3.587-3.586 0-1.921 1.665-3.458 3.586-3.458s3.458 1.537 3.458 3.458c0 2.05-1.537 3.586-3.458 3.586zM576.972 275.573c-1.92 0-3.458-1.537-3.458-3.586a3.444 3.444 0 0 1 3.458-3.458c2.05 0 3.586 1.537 3.586 3.458 0 2.05-1.536 3.586-3.586 3.586zM589.267 269.297a3.444 3.444 0 0 1-3.458-3.458c0-2.049 1.537-3.586 3.458-3.586 2.05 0 3.586 1.537 3.586 3.586 0 1.922-1.536 3.458-3.586 3.458zM581.199 269.297a3.444 3.444 0 0 1-3.458-3.458c0-2.049 1.537-3.586 3.458-3.586s3.458 1.537 3.458 3.586a3.444 3.444 0 0 1-3.458 3.458zM563.653 276.854c-1.921 0-3.586-1.537-3.586-3.458 0-1.921 1.665-3.586 3.586-3.586s3.458 1.665 3.458 3.586a3.444 3.444 0 0 1-3.458 3.458zM551.358 276.085c-2.05 0-3.586-1.537-3.586-3.458 0-2.049 1.536-3.586 3.586-3.586 1.793 0 3.458 1.537 3.458 3.586 0 1.921-1.665 3.458-3.458 3.458zM543.16 282.745c-1.92 0-3.585-1.665-3.585-3.586s1.665-3.586 3.586-3.586 3.586 1.665 3.586 3.586-1.665 3.586-3.586 3.586z" stroke-width=".384375"/></g><g fill="#fff"><path d="M544.954 261.87s-2.177.896-2.177 1.92 2.305 1.665 3.458 1.793c1.024.384 3.842 1.281 1.28 4.483s-8.196.512-9.22-.512c-1.282-1.281-1.41-4.867.511-6.788 2.562-2.69 5.764-2.178 5.764-2.178z" stroke-width=".384375"/><path d="M543.801 259.82l.256 3.202 1.41-.256-.513-2.946z" stroke-width=".384375"/></g></g></g><path d="M625.384 231.26s2.562-.769 5.251 1.536c1.281 1.153-.768 5.764.513 7.173 1.28 1.28 9.477.128 8.709 3.842 0 0-4.74-1.793-6.404-1.025-1.537.769-4.098.256-4.995-.768-.64-1.025-.128-4.483-2.05-4.995-1.792-.512-6.275-.512-6.275-.512z" fill="#d21034"/><g stroke="#000"><g stroke-width=".615"><path d="M627.946 228.314l-16.394 16.65" fill="none" stroke-width=".384375"/><g fill="#fff"><path d="M591.317 256.49l21.516-11.014-.512-1.41-23.182 12.168z" stroke-width=".384375"/><path d="M599.898 264.815l12.423-20.748-1.153-.769-13.192 22.541z" stroke-width=".384375"/><path d="M595.671 261.1l17.418-16.649-.896-1.153-18.7 18.187z" stroke-width=".384375"/></g><path d="M610.656 246.244l-.513-.768M499.488 134.308s2.433-.128 2.945 0" fill="none" stroke-width=".384375"/><g fill="#ffce00"><path d="M498.463 242.53h2.305c1.41 0 2.562-.128 2.306-1.153-.384-1.408-.64-2.305-.64-2.305H494.492s-.256.768-.64 2.305c-.257 1.025.768 1.153 2.305 1.153z" stroke-width=".384375"/><path d="M498.335 239.328h2.305c1.41 0 2.562-.256 2.306-1.153-.385-1.536-.64-2.433-.64-2.433H494.364s-.256.897-.64 2.433c-.257.897.768 1.153 2.177 1.153z" stroke-width=".384375"/><path d="M498.335 236.639h2.305c1.537 0 2.562-.128 2.306-1.153-.385-1.409-.64-2.305-.64-2.305H494.236s-.256.768-.64 2.305c-.257 1.025.896 1.153 2.305 1.153z" stroke-width=".384375"/><path d="M498.463 234.077h2.305c1.537 0 2.69-.256 2.306-1.28-.256-1.41-.513-2.178-.513-2.178h-8.196s-.256.769-.64 2.177c-.257 1.025.896 1.281 2.305 1.281z" stroke-width=".384375"/><path d="M498.463 231.003h2.434c1.536 0 2.561-.384 2.305-1.28-.384-1.537-.64-2.306-.64-2.306h-8.197s-.256.769-.64 2.306c-.385.896.768 1.28 2.305 1.28z" stroke-width=".384375"/><path d="M498.335 228.058h2.433c1.41 0 2.562-.257 2.306-1.281-.256-1.409-.64-2.305-.64-2.305h-8.325s-.128.896-.64 2.305c-.257 1.024.896 1.28 2.433 1.28z" stroke-width=".384375"/><path d="M498.335 225.624h2.433c1.537 0 2.69-.384 2.434-1.28-.384-1.537-.64-2.306-.64-2.306h-8.453s-.257.769-.64 2.306c-.257.896.768 1.28 2.433 1.28z" stroke-width=".384375"/><path d="M498.335 222.935h2.433c1.665 0 2.69-.256 2.434-1.153-.384-1.537-.64-2.433-.64-2.433h-8.453s-.385.896-.769 2.433c-.128.897.897 1.153 2.434 1.153z" stroke-width=".384375"/><path d="M498.463 219.733h2.434c1.664 0 2.817-.256 2.561-1.153-.512-1.409-.768-2.433-.768-2.433h-8.581s-.128.896-.64 2.433c-.257.897.896 1.153 2.433 1.153z" stroke-width=".384375"/><path d="M498.335 216.531h2.562c1.536 0 2.69-.384 2.433-1.28-.384-1.41-.769-2.306-.769-2.306h-8.58s-.257.896-.64 2.305c-.385.897.896 1.281 2.433 1.281z" stroke-width=".384375"/><path d="M498.335 213.457h2.562c1.536 0 2.817-.256 2.433-1.152-.384-1.537-.64-2.434-.64-2.434h-8.709s-.257.897-.769 2.434c-.256.896.897 1.152 2.562 1.152z" stroke-width=".384375"/><path d="M498.335 210.768h2.562c1.664 0 2.817-.256 2.561-1.281-.384-1.409-.768-2.305-.768-2.305h-8.709s-.385.768-.769 2.305c-.256 1.025.897 1.28 2.562 1.28z" stroke-width=".384375"/><path d="M498.207 207.438h2.561c1.665 0 2.946-.256 2.562-1.153-.384-1.537-.769-2.433-.769-2.433h-8.837s-.256.896-.768 2.433c-.256.897 1.025 1.153 2.69 1.153z" stroke-width=".384375"/><path d="M498.335 203.98h2.562c1.664 0 2.817-.256 2.561-1.153-.384-1.537-.64-2.305-.64-2.305h-8.966s-.256.768-.64 2.305c-.384.897.897 1.153 2.562 1.153z" stroke-width=".384375"/><path d="M498.207 200.778h2.561c1.665 0 2.946-.256 2.562-1.28-.384-1.41-.769-2.306-.769-2.306h-8.837s-.256.896-.768 2.305c-.256 1.025 1.025 1.28 2.69 1.28z" stroke-width=".384375"/><path d="M498.335 198.088h2.562c1.664 0 2.817-.256 2.561-1.152-.384-1.537-.64-2.306-.64-2.306h-8.966s-.256.769-.64 2.306c-.384.896.897 1.152 2.562 1.152z" stroke-width=".384375"/><path d="M498.463 195.015h2.562c1.665 0 2.817-.257 2.561-1.281l-.768-2.305h-8.709s-.385.768-.769 2.305c-.256 1.024.897 1.28 2.562 1.28z" stroke-width=".384375"/><path d="M498.335 191.94h2.562c1.536 0 2.817-.255 2.433-1.152-.384-1.537-.64-2.433-.64-2.433h-8.709s-.257.896-.769 2.433c-.256.897.897 1.153 2.562 1.153z" stroke-width=".384375"/><path d="M498.335 188.867h2.562c1.536 0 2.817-.256 2.433-1.28-.384-1.41-.64-2.306-.64-2.306h-8.709s-.257.897-.769 2.305c-.256 1.025.897 1.281 2.562 1.281z" stroke-width=".384375"/><path d="M498.335 185.921h2.562c1.536 0 2.817-.256 2.433-1.28-.384-1.41-.64-2.178-.64-2.178h-8.709s-.257.769-.769 2.178c-.256 1.024.897 1.28 2.562 1.28z" stroke-width=".384375"/><path d="M498.207 182.848h2.561c1.537 0 2.69-.385 2.434-1.281-.384-1.537-.64-2.305-.64-2.305h-8.71s-.256.768-.64 2.305c-.384.896.897 1.28 2.433 1.28z" stroke-width=".384375"/><path d="M498.335 180.158h2.433c1.665 0 2.818-.256 2.562-1.153-.384-1.536-.769-2.433-.769-2.433h-8.452s-.385.897-.769 2.433c-.256.897.897 1.153 2.434 1.153z" stroke-width=".384375"/><path d="M498.335 177.469h2.433c1.665 0 2.818-.129 2.562-1.153-.384-1.409-.769-2.305-.769-2.305h-8.452s-.385.768-.769 2.305c-.256 1.024.897 1.153 2.434 1.153z" stroke-width=".384375"/><path d="M498.335 175.035h2.433c1.665 0 2.69-.256 2.434-1.28-.384-1.41-.64-2.306-.64-2.306h-8.453s-.385.897-.769 2.305c-.128 1.025.897 1.281 2.434 1.281z" stroke-width=".384375"/><path d="M498.335 172.474h2.433c1.537 0 2.69-.385 2.434-1.281-.384-1.409-.64-2.305-.64-2.305h-8.453s-.257.896-.64 2.305c-.257.896.768 1.28 2.433 1.28z" stroke-width=".384375"/><path d="M498.335 169.912h2.433c1.537 0 2.69-.256 2.306-1.28-.256-1.41-.64-2.178-.64-2.178h-8.325s-.128.769-.64 2.177c-.257 1.025.896 1.281 2.433 1.281z" stroke-width=".384375"/><path d="M498.463 166.966h2.434c1.536 0 2.561-.128 2.305-1.152-.384-1.409-.64-2.306-.64-2.306h-8.197s-.256.769-.64 2.306c-.385 1.024.768 1.152 2.305 1.152z" stroke-width=".384375"/><path d="M498.335 163.765h2.433c1.41 0 2.562-.257 2.306-1.153-.384-1.537-.64-2.433-.64-2.433h-8.197s-.256.896-.64 2.433c-.257.896.896 1.153 2.305 1.153z" stroke-width=".384375"/><path d="M498.335 160.947h2.305c1.537 0 2.69-.384 2.306-1.28-.385-1.538-.64-2.306-.64-2.306H494.236s-.256.768-.64 2.305c-.257.897.896 1.281 2.305 1.281z" stroke-width=".384375"/><path d="M498.463 157.745h2.305c1.41 0 2.562-.384 2.306-1.28-.384-1.281-.64-2.178-.64-2.178H494.492s-.256.769-.64 2.177c-.257.897.768 1.281 2.305 1.281z" stroke-width=".384375"/><path d="M498.591 154.671h2.306c1.408 0 2.433-.256 2.177-1.152-.256-1.41-.64-2.306-.64-2.306H494.62s-.128.897-.512 2.306c-.385.896.768 1.152 2.177 1.152z" stroke-width=".384375"/><path d="M498.463 151.726h2.305c1.41 0 2.434-.385 2.178-1.281-.385-1.409-.513-2.305-.513-2.305h-7.94s-.256.896-.512 2.305c-.257.896.768 1.28 2.177 1.28z" stroke-width=".384375"/><path d="M498.591 148.78h2.05c1.408 0 2.305-.768 2.177-1.665-.385-1.409-.64-2.177-.64-2.177h-7.173s-.256.768-.64 2.177c-.256.897.768 1.665 2.177 1.665z" stroke-width=".384375"/></g><g fill="none"><path d="M499.872 241.25s2.433-.129 2.946 0M500 242.018s2.433-.256 2.946 0M499.744 240.609s2.433-.128 3.074 0M494.109 241.762s2.433-.129 2.69-.129M494.109 241.25h2.69M499.872 232.796s2.561-.256 3.074 0M500 233.437s2.433-.128 2.946 0M499.744 232.156s2.561-.128 3.074 0M493.98 233.18h2.818M493.98 232.796s2.562-.128 2.818-.128M499.872 229.595s2.561-.129 3.074 0M500 230.235s2.561-.128 3.074 0M499.872 228.954s2.433-.128 2.946 0M493.98 229.979h2.818M493.98 229.595h2.818M499.744 226.649h3.074M499.872 227.417s2.561-.128 3.074 0M499.616 226.137s2.561-.129 3.202 0M493.724 227.161h2.946M493.724 226.649h2.946M499.744 221.654s2.69-.128 3.202 0M499.872 222.294s2.69-.128 3.202 0M499.616 221.014s2.69-.257 3.202 0M493.596 222.038h2.946M493.596 221.654s2.69-.128 2.946-.128M499.872 218.452s2.69-.128 3.202 0M500 219.092s2.69-.128 3.33 0M499.872 217.812s2.561-.128 3.202 0M493.724 218.964s2.562-.128 2.946-.128M493.724 218.452h2.946M499.872 212.177s2.69-.129 3.202 0M500 212.817s2.69-.128 3.202 0M499.744 211.536s2.69-.128 3.202 0M493.596 212.689s2.562-.128 2.946-.128M493.596 212.177h2.946M499.872 209.359s2.69-.128 3.202 0M500 210.127s2.69-.256 3.33 0M499.744 208.719s2.69-.129 3.33 0M493.468 209.871s2.69-.128 3.074-.128M493.468 209.359h3.074M499.744 206.157s2.69-.128 3.33 0M499.872 206.797s2.69-.128 3.33 0M499.616 205.517s2.817-.256 3.33 0M493.212 206.67s2.818-.129 3.202-.129M493.212 206.157s2.818-.128 3.202-.128M499.872 202.699s2.69-.128 3.202 0M500 203.34h3.33M499.744 202.059s2.817-.128 3.33 0M493.34 203.211s2.818-.128 3.202-.128M493.34 202.699h3.202M499.744 199.37s2.69-.129 3.33 0M499.872 200.138s2.69-.128 3.33 0M499.616 198.857s2.817-.128 3.33 0M493.212 199.881s2.818-.128 3.202-.128M493.212 199.37h3.202M499.872 196.808s2.69-.128 3.202 0M500 197.448s2.818-.128 3.33 0M499.744 196.167s2.817-.128 3.33 0M493.34 197.192h3.202M493.34 196.808h3.202M500 193.734s2.69-.256 3.33 0M500.128 194.374s2.69-.128 3.202 0M499.872 192.965s2.69-.128 3.33 0M493.596 194.118h3.074M493.596 193.734s2.69-.128 3.074-.128M499.872 190.66s2.69-.128 3.202 0M500 191.3s2.69-.128 3.202 0M499.744 190.02s2.69-.128 3.202 0M493.468 191.172s2.69-.128 3.074-.128M493.468 190.66s2.69-.128 3.074-.128M499.872 187.458s2.69-.128 3.202 0M500 188.227s2.69-.256 3.202 0M499.744 186.946s2.69-.256 3.202 0M493.468 187.97s2.69-.128 3.074-.128M493.468 187.458h3.074M499.872 184.64s2.69-.127 3.202 0M500 185.281s2.69-.128 3.202 0M499.744 184s2.69-.128 3.202 0M493.468 185.025h3.074M493.468 184.64s2.69-.127 3.074-.127M499.616 181.439s2.69-.128 3.33 0M499.872 182.08s2.561-.129 3.202 0M499.616 180.798s2.561-.128 3.202 0M493.34 181.951h3.074M493.34 181.439s2.818-.128 3.074-.128M499.872 178.877s2.561-.128 3.074 0M499.872 179.518s2.69-.128 3.202 0M499.744 178.237s2.69-.128 3.202 0M493.596 179.39s2.69-.128 2.946-.128M493.596 178.877s2.69-.128 2.946-.128M499.872 176.188s2.561-.128 3.074 0M499.872 176.956s2.69-.256 3.202 0M499.744 175.547s2.69-.128 3.202 0M493.596 176.7s2.69-.128 2.946-.128M493.596 176.188h2.946M499.744 171.065s2.69-.128 3.202 0M499.872 171.833s2.561-.256 3.202 0M499.616 170.553s2.69-.257 3.202 0M493.724 171.577s2.562-.128 2.946-.128M493.724 171.065h2.946M499.744 168.631s2.561-.128 3.074 0M499.872 169.272s2.561-.128 3.074 0M499.616 167.991s2.561-.128 3.202 0M493.724 169.016h2.946M493.724 168.631s2.562-.128 2.946-.128M499.616 159.538s2.561-.128 3.074 0M499.872 160.179s2.433-.129 2.946 0M499.616 158.898s2.561-.128 3.074 0M493.852 159.922h2.818M493.852 159.538h2.818" stroke-width=".384375"/></g><path d="M498.72 145.45h2.048c1.281 0 2.178-.384 2.05-1.28a45.565 45.565 0 0 0-.64-2.178h-6.917s-.256.769-.64 2.177c-.128.897.768 1.281 2.05 1.281z" fill="#ffce00" stroke-width=".384375"/><g fill="none"><path d="M494.493 147.5h2.817M494.493 147.115h2.817M499.488 144.17s2.561-.257 3.073 0M499.616 144.682h3.074M499.488 143.4s2.433-.127 2.945 0M494.877 144.81s2.305-.128 2.69-.128M494.877 144.297h2.69M499.488 146.859s2.433-.128 2.945 0M499.616 147.5s2.433-.129 2.945 0M499.36 146.219s2.433-.129 3.073 0M499.616 150.189s2.561-.128 3.074 0M499.744 150.83s2.433-.129 3.074 0M499.616 149.548s2.433-.128 2.945 0M494.109 150.573h2.817M494.109 150.189s2.433-.128 2.817-.128M499.872 153.263s2.433-.129 2.946 0M500 153.903s2.433-.128 2.946 0M499.744 152.622s2.433-.128 3.074 0M494.237 153.775s2.433-.128 2.817-.128M494.237 153.263s2.433-.129 2.817-.129M499.744 156.336s2.433-.128 3.074 0M499.872 156.977s2.561-.128 3.074 0M499.616 155.696s2.561-.128 3.074 0M493.98 156.849s2.434-.128 2.69-.128M493.98 156.336h2.69M499.744 162.484s2.433-.128 3.074 0M499.872 163.124s2.561-.128 3.074 0M499.616 161.844s2.561-.257 3.074 0M493.852 162.996s2.434-.128 2.818-.128M493.852 162.484s2.434-.128 2.818-.128M499.872 165.686s2.561-.128 3.074 0M500 166.454s2.561-.256 3.074 0M499.872 165.045s2.433-.128 2.946 0M493.98 166.198s2.434-.128 2.818-.128M493.98 165.686h2.818M499.744 173.754s2.69-.128 3.202 0M499.872 174.395s2.69-.128 3.202 0M499.744 173.114s2.561-.128 3.074 0M493.596 174.139h2.946M493.596 173.754s2.69-.128 2.946-.128M499.872 215.25s2.561-.128 3.202 0M500 215.89s2.561-.256 3.074 0M499.744 214.482s2.69-.128 3.202 0M493.596 215.634h2.946M493.596 215.122h2.946M499.744 224.215s2.561-.128 3.202 0M499.872 224.856s2.561-.128 3.202 0M499.616 223.575s2.69-.128 3.202 0M493.724 224.728h2.946M493.724 224.215s2.562-.128 2.946-.128M499.616 235.358s2.561-.128 3.074 0M499.872 236.126s2.433-.256 2.946 0M499.616 234.717s2.433-.128 2.945 0M493.852 235.87s2.434-.128 2.818-.128M493.852 235.358h2.818M499.616 238.047s2.561-.128 3.074 0M499.872 238.688s2.433-.128 2.946 0M499.616 237.407s2.433-.256 2.945 0M493.98 238.56s2.306-.128 2.69-.128M493.98 238.047s2.306-.128 2.69-.128" stroke-width=".384375"/></g><path d="M498.72 142.248h2.048c1.281 0 2.178-.128 2.05-1.152-.385-1.41-.64-2.178-.64-2.178h-6.917s-.256.769-.64 2.178c-.128 1.024.768 1.152 2.05 1.152z" fill="#ffce00" stroke-width=".384375"/><g fill="none"><path d="M499.488 140.84s2.561-.129 3.073 0M499.616 141.608s2.561-.256 3.074 0M499.488 140.199s2.433-.128 2.945 0M494.877 141.608h2.69M494.877 141.096h2.69" stroke-width=".384375"/></g><path d="M498.72 139.43h2.048c1.281 0 2.178-.256 2.05-1.152-.385-1.537-.64-2.305-.64-2.305h-6.917s-.256.768-.64 2.305c-.128.896.768 1.153 2.05 1.153z" fill="#ffce00" stroke-width=".384375"/><g fill="none"><path d="M499.488 137.894s2.433-.256 2.945 0M499.616 138.534s2.433-.128 2.945 0M499.36 137.125h3.073M494.749 138.79s2.433-.128 2.818-.128M494.749 138.278h2.818" stroke-width=".384375"/></g><path d="M498.72 136.741h2.048c1.281 0 2.178-.128 1.922-1.153a26.56 26.56 0 0 0-.513-2.305l-3.458-.128-3.458.128s-.256.897-.512 2.305c-.256 1.025.64 1.153 1.921 1.153z" fill="#ffce00" stroke-width=".384375"/><g fill="none"><path d="M499.488 134.948s2.561-.128 3.073 0M499.616 135.716s2.561-.256 3.074 0M494.877 135.845s2.305-.129 2.69-.129M494.877 135.332h2.69" stroke-width=".384375"/></g></g><path d="M499.103 97.038l-2.049 2.818-2.433 32.146s-.256 1.537 1.153 1.537c1.28 0 4.098-.512 5.891.256 1.28.513.896-3.073.896-3.073l-1.024-31.89z" fill="#007e3a" stroke-width=".5125"/><g fill="none" stroke-width=".615"><path d="M497.054 100.368s0-.256.769-.512M499.36 99.856c.64 0 1.408 0 2.177.384M499.488 100.624a5.8 5.8 0 0 1 2.049.384M499.488 101.008a5.8 5.8 0 0 1 2.049.385M499.488 101.905c.64-.128 1.409 0 2.049.256M499.488 102.29c.64 0 1.409 0 2.049.255M499.488 103.058c.64 0 1.409 0 2.049.384M499.616 103.826c.64 0 1.28 0 2.049.256M499.616 104.595c.64 0 1.28.128 2.049.256M499.616 105.491c.64-.128 1.28 0 2.049.256M499.616 106.131c.64 0 1.28 0 2.049.257M499.616 106.9c.64 0 1.28 0 2.049.384M499.616 107.796c.768 0 1.537 0 2.177.257M499.616 108.18c.768 0 1.537 0 2.177.257M499.616 108.949c.768-.128 1.537 0 2.177.256M499.744 109.717c.64 0 1.409 0 2.049.257M499.744 110.358a5.8 5.8 0 0 1 2.049.384M499.744 111.254c.64 0 1.409.128 2.049.257M499.744 111.639c.64 0 1.409 0 2.049.256M499.744 112.407c.64 0 1.409 0 2.049.384M499.744 113.175a5.8 5.8 0 0 1 2.049.385M500.128 121.628c.64 0 1.409 0 2.05.256M500.128 122.397c.64 0 1.409 0 2.05.384M500.128 122.781c.64 0 1.409 0 2.05.384M500 119.58c.768 0 1.409 0 2.177.255M500 120.348c.768 0 1.409 0 2.177.384M500 121.116c.768 0 1.409.128 2.177.384M500 117.914c.768 0 1.409 0 2.177.384M500 118.683c.768 0 1.409.128 2.177.384M500 116.762c.64 0 1.409.128 2.05.256M500 117.53c.64 0 1.409 0 2.05.256M499.872 114.84c.64 0 1.409.129 2.177.385M499.872 115.737c.64 0 1.409 0 2.177.256M499.872 116.121c.64 0 1.409 0 2.177.256M499.872 114.072c.64 0 1.409 0 2.177.256M500.128 123.678c.769 0 1.537 0 2.177.256M500.128 124.446c.769 0 1.537 0 2.177.256M500.128 125.342c.769-.128 1.537 0 2.177.257M500.128 126.11c.769 0 1.537 0 2.177.257M500.128 126.88c.769 0 1.537.127 2.177.256M500.384 127.776c.64 0 1.409 0 2.05.384M500.384 128.672c.64 0 1.409 0 2.05.257M500.384 129.44c.64 0 1.409 0 2.05.257M500.384 130.21c.769-.129 1.409 0 2.177.255M500.384 130.978c.769 0 1.409.128 2.177.256M500.384 131.618a5.8 5.8 0 0 1 2.05.384M500.384 132.387a5.8 5.8 0 0 1 2.05.384M500.384 132.77a5.8 5.8 0 0 1 2.05.385M496.926 101.137s0-.257.897-.257M496.926 102.29s0-.385.769-.385M496.798 103.314s0-.256.769-.512M496.67 104.338s.128-.256.897-.384M496.67 105.363s0-.256.769-.384M496.67 106.388s0-.257.769-.385M496.542 107.412s0-.128.768-.384M496.542 108.565s0-.256.768-.384M496.414 109.59s0-.257.768-.385M496.286 110.614s0-.256.896-.384M496.286 111.639s0-.257.768-.257M496.158 112.791s.128-.384.896-.512M496.03 113.816s0-.256.768-.512M495.902 114.84s0-.256.896-.384M495.902 115.865s0-.256.768-.384M495.774 116.89s0-.257.896-.385M495.774 117.914s0-.128.768-.384M495.774 119.067s0-.384.768-.384M495.517 120.22s0-.257.769-.385M495.39 121.244s0-.256.896-.384M495.39 122.269s0-.256.768-.385M495.261 123.293s0-.128.897-.384M495.261 124.702s0-.256.769-.512M495.261 125.727s0-.256.64-.385M495.133 126.751s0-.256.769-.384M495.005 127.776s0-.256.769-.384M494.877 129.057s0-.257.897-.385M494.877 130.081s0-.256.768-.384M494.749 131.234s.128-.384.896-.512M494.749 132.13s0-.128.768-.384" stroke-width=".384375"/></g><g fill="#007e3a" stroke-width=".82"><path d="M505.763 104.466s11.015 1.153 13.704 4.995c2.562 3.97 7.813 8.966 7.3 18.443 0 0-1.793-6.02-2.305-6.788 0 0-1.025 3.842-2.177 4.098 0 0-.256-6.275-.512-7.3 0 0-1.025 3.202-1.793 4.227 0 0 0-6.02-.897-7.172 0 0-1.28 4.866-1.921 4.866 0 0 .384-5.507-.384-7.684 0 0 0 3.586-.769 4.482 0 0 0-6.275-1.024-7.172 0 0 0 2.946-.769 3.714 0 0-.768-7.556-8.453-8.709zM502.177 92.684s18.059-9.222 29.073-8.837c11.014.256 19.34-1.665 28.56 9.477 0 0-6.531-3.97-8.452-4.867 0 0 3.97 3.97 3.458 6.404 0 0-4.867-5.891-6.276-6.404 0 0 3.714 5.892 2.69 6.66 0 0-4.995-7.172-7.173-7.684 0 0 3.202 4.995 2.69 6.403 0 0-7.172-7.428-10.246-7.684 0 0 5.507 5.25 5.507 7.3 0 0-.64-.512-4.482-3.33-3.97-2.945-3.97-2.945-4.227-3.202s5.763 4.483 5.763 5.508c0 0-6.019-2.818-7.812-3.97 0 0 2.818 1.92 3.33 3.713 0 0-5.507-3.201-7.556-3.842 0 0 3.458 2.05 3.714 4.099 0 0-4.739-4.483-6.788-4.74 0 0 3.586 3.203 4.354 4.74 0 0-5.507-3.97-6.788-4.099-1.28-.384 2.434 3.586 2.434 3.586l-5.507-3.074v3.074s-3.202-2.305-3.97-2.305c-.897 0 .255 2.818.255 2.818s-2.049-3.587-12.55.256z" stroke-width=".5125"/><path d="M499.872 97.294s.64 4.483-.897 8.197c0 0 3.202-2.05 3.202-3.586l-1.409 6.916 3.33-3.074-2.945 6.148 4.61-4.739s-2.817 6.788-3.586 7.172c-.896.512 3.842-2.049 3.842-2.049l-3.201 6.148s5.123-3.202 5.25-4.74c0-1.536-4.098 8.07-4.738 8.197 0 0 3.842-2.561 4.354-4.354 0 0-2.817 6.148-3.97 7.172 0 0 4.995-3.458 5.251-5.507 0 0-2.946 9.477-4.482 10.758 0 0 3.458-1.537 3.586-2.305 0 0-4.099 7.044-5.892 8.068 0 0 4.483-1.536 5.892-4.482 0 0-.769 6.916-3.586 9.477 0 0 4.482-3.97 5.25-8.58 0 0 1.922 6.787 1.537 10.117 0 0 1.41-10.63 0-14.088 0 0 3.715 5.763 3.458 7.556 0 0-.512-11.27-3.073-13.832 0 0 3.586 4.227 4.098 7.045 0 0-3.202-11.015-5.507-13.192l5.763 6.916s-4.995-11.527-6.532-12.295l4.099 4.867s-2.306-6.532-4.099-7.3c-1.793-.769-2.817-1.794-2.817-1.794l4.995 2.05s-5.636-8.069-7.429-8.325l6.532 5.891s0-4.867-1.537-5.891c0 0 4.355 4.098 5.251 6.275 0 0 1.025-3.201-1.793-6.66 0 0 5.892 6.276 6.276 7.941 0 0-.512-5.763-1.665-6.788 0 0 5.507 6.788 6.147 8.837 0 0-.384-6.275-2.945-8.58 0 0 6.02 7.043 6.788 11.014 0 0-.769-9.222-2.05-10.246 0 0 5.508 10.502 6.276 12.807 0 0 0-6.788-1.024-7.812 0 0 4.482 6.788 4.482 8.965 0 0-.384-7.94-1.665-8.965 0 0 4.483 7.044 4.739 9.093 0 0-.512-5.763-1.28-6.404 0 0 3.201 4.355 3.33 6.404l-1.026-5.763s3.202 4.866 3.202 5.763l-1.024-4.098s3.074 2.69 3.33 3.33c0 0-5.764-8.07-8.069-9.606-2.433-1.537-14.728-7.684-18.058-8.197-1.537-.256-14.729-.768-15.497-.512h4.738l-1.92-1.793 1.92 1.793h2.306l-2.05-2.05 2.05 2.05 3.97.256s-1.28-1.665-3.714-3.458c0 0 3.074 2.177 3.714 3.458l3.33.256-3.714-3.714 3.714 3.714s2.177 0 3.458.769c0 0-2.305-3.586-3.97-4.995 0 0 3.458 3.458 3.97 4.995 0 0 2.177.64 2.946 1.28 0 0-2.05-5.379-3.202-5.891 0 0 4.226 4.355 4.482 5.635 0 0-.512-5.507-1.408-6.02 0 0 3.97 5.892 4.226 7.43 0 0-.256-6.02-1.025-7.045 0 0 3.97 6.532 4.227 8.325 0 0-.512-6.276-1.025-7.044 0 0 3.842 5.763 3.33 7.044 0 0 1.665-6.532-.512-7.813 0 0 2.946 4.099 2.69 7.813l.256-3.714s1.28 3.97 1.024 4.995c-.256 1.024.512-3.458.512-3.458s2.306 2.433 1.793 4.354c0 0-1.28-7.428-2.817-9.477 0 0 4.995 7.3 5.507 9.477.512 1.921.256-2.177.256-2.177s1.28 2.305 1.28 4.739c0 0 1.282-7.429-2.56-10.502 0 0 3.842 3.97 4.226 8.452l.768-2.433s1.281 2.946 1.537 6.276c0 0 1.537-5.251-2.177-9.35 0 0 4.867 3.842 5.507 11.527v-6.916s2.69 4.995 2.946 7.172c0 0 .512-9.99-6.276-13.704-6.788-3.586-14.984-4.739-20.748-4.739s-18.058-.256-24.334.513c-6.403.768 0 0 0 0l5.507-2.562-2.69-.512s2.306.512 2.69.512c1.281-.384 3.074-1.28 3.074-1.28s-2.69-1.153-3.97-1.153l3.97 1.152 3.714-1.408s-2.817-.769-4.226-1.025c-1.28-.256 3.97 1.28 4.226 1.025s2.69-.897 3.714-1.153c1.153-.256-3.458-2.177-5.25-2.177 0 0 6.147-1.41 10.117.256 0 0-4.482-2.69-7.556-2.946 0 0 8.965.769 11.27 1.921 0 0-1.793-2.177-4.738-2.69 0 0 5.763.257 8.709 2.05 0 0-4.995-3.842-6.788-4.227 0 0 7.044 1.665 9.35 3.202 0 0-3.715-3.842-4.996-3.842s4.995 2.05 4.995 2.05-2.305-2.05-3.714-2.69c0 0 7.94 2.177 9.477 3.714 0 0-4.994-6.532-6.019-6.532 0 0 4.739 2.305 5.251 3.074 0 0-2.561-2.818-3.33-3.074 0 0 5.763 2.177 7.556 3.586 0 0-5.25-7.044-12.038-5.891-6.916.896-17.418 5.891-19.212 7.556-1.793 1.537-8.324 4.995-10.758 11.783 0 0-3.073-6.276-5.507-8.71-2.305-2.304-8.325-10.63-19.339-11.782 0 0 6.02 2.69 7.556 3.714 0 0-3.714.256-6.02 1.921 0 0 7.301.513 8.966 1.281 0 0-5.891 1.537-6.788 2.305 0 0 8.581.257 10.118.769 0 0-5.123 1.153-6.788 1.793 0 0 9.221.768 10.246 1.409 1.025.512-7.684 1.28-7.684 1.28s8.709 1.537 9.733 2.562l-5.763.896s7.684 1.537 8.197 3.587c0 0-12.68-5.251-19.468-6.532-6.788-1.281-17.546-3.202-22.797-.513-5.25 2.562-10.502 8.581-9.99 12.296 0 0 3.202-5.764 8.453-8.71l-5.25 7.173 6.019-5.251s-3.202 3.97-3.33 6.02c-.384 2.048 0-.77 0-.77s6.788-8.964 8.068-9.477c0 0-3.714 5.507-4.226 7.172 0 0 7.556-7.684 8.965-7.684 0 0-4.995 5.763-5.507 8.197 0 0 7.3-7.172 11.014-7.685 0 0-5.25 4.227-6.02 5.764l6.277-4.995s-3.202 4.482-3.458 5.507c0 0 4.226-5.251 7.684-5.507 0 0-3.714 3.714-4.226 4.995 0 0 6.019-4.483 7.812-4.74 0 0-3.586 2.946-4.483 4.227 0 0 5.251-3.074 6.532-3.458l-2.305 3.714 4.226-2.817-3.202 2.817 3.202.257 2.434-2.05-2.306 1.921h3.33l.897-1.408-1.025 1.537 3.586.512.897-2.05-.897 2.05s3.202.128 6.916.384c0 0-19.339-1.921-25.614-.896-6.276 1.024-21.26 6.916-24.975 17.418-2.05 5.763.512 7.3.512 7.3s.513-7.685 2.69-8.71c0 0-1.025 5.892 0 7.301l1.28-4.995 1.281 2.946s.257-4.995 1.025-6.532c0 0 .256 6.276 1.025 6.788 0 0-.128-9.093 1.665-11.27 0 0-1.665 5.25.256 7.172 0 0 .512-8.453 3.586-10.502 0 0-3.33 7.3-1.28 9.349 0 0 1.92-8.837 6.147-11.27 0 0-4.227 5.507-2.434 8.196 0 0 4.483-9.477 8.069-10.502 0 0-3.586 4.227-3.074 6.788 0 0 4.227-6.788 6.532-7.044l-2.305 5.507s4.226-5.25 5.635-5.507c0 0-1.921 2.561-1.793 3.586 0 0 3.714-3.074 4.738-3.842l-1.408 2.177 2.69-1.409 1.664-1.92-1.665 1.92 3.842-.128 1.153-1.409-1.153 1.41 3.074.127.512-1.409-.512 1.41 2.05.255.512-1.665-.513 1.665 2.69.257s-9.478-1.281-11.655-.513c-2.049.769-10.63 5.251-16.009 9.99-5.123 4.61-12.423 11.527-10.63 23.822 0 0 .768-6.276 1.537-6.788 0 0 0 3.842.768 4.354 0 0-.256-6.531.512-7.556 0 0 .513 5.251 1.537 5.763 0 0-.256-8.709.257-9.733 0 0 .384 4.61 1.152 5.507 0 0 1.537-9.99 3.074-11.27 0 0-1.793 6.66-1.025 11.142 0 0 1.281-5.764 1.793-6.66 0 0 0 3.458 1.665 4.483 0 0-.64-6.788 0-8.453 0 0 .769 2.433 1.537 3.97 0 0-.768-4.995-.512-6.02 0 0 .768 3.97 2.818 4.74 0 0-1.025-3.715-.769-4.996 0 0 1.28 2.946 2.434 2.946 0 0-1.281-4.226-1.153-4.995l2.69 3.714s-1.281-4.867-1.025-5.507l2.305 3.074s-1.793-4.483.897-5.763l.64 3.714s.384-2.946 2.177-4.483c0 0-.256 1.793.256 2.562 0 0 1.025-4.483 2.05-4.74v3.459s1.28-2.69 2.177-3.202l.512 2.177s4.099-2.69 5.251-2.69h8.069s-2.306 1.41-3.714 2.69c0 0 1.92.256 3.458.513 0 0-6.02-.513-7.557 2.305 0 0 5.764-.769 6.788-.256 0 0-6.788 1.152-8.196 3.202 0 0 5.89-1.281 7.428-1.025 0 0-6.276 1.793-7.044 3.074 0 0 4.995-.513 6.02-.256 0 0-6.917 1.28-7.685 3.201 0 0 6.66-.768 7.172 0 0 0-6.404 2.05-7.685 3.587 0 0 4.483.64 5.252.64 0 0-5.508 1.28-6.02 2.818 0 0 3.074.512 4.226 0 0 0-3.458 3.201-4.482 5.763 0 0 3.202-2.562 4.482-3.074 0 0-3.714 4.355-3.458 7.556l2.946-2.945s-3.202 4.738-3.202 6.403l3.202-3.201s-1.28 8.709.512 9.99l.769-9.478s2.05 0 4.226 7.3l-2.433-9.35s3.458 2.306 3.458 4.996c0 2.561 1.025-3.97-3.202-9.222 0 0 5.251 5.251 5.891 7.3 0 0-3.97-9.861-4.994-11.014l5.123 6.66s-.129-6.916-4.099-9.862l6.02 4.995s-1.921-6.275-3.202-7.3l3.458 3.97s-2.69-6.275-4.227-7.556l4.227 4.482s-1.28-7.428-2.306-8.452l2.306 3.586-1.025-5.636 1.793 1.793s-.128-3.33-.64-3.97c-.512-.64 1.024.256 1.024.256l.769-5.123z" stroke-width=".5125"/></g></g><path d="M491.675 96.27s-5.891 2.177-14.472 4.61l2.561 1.281s-6.403 1.025-8.068 1.28c-1.537.385 4.482 1.922 4.482 1.922s-7.684.384-8.453 1.025c-.768.512 6.276 1.28 6.276 1.28s-9.862 1.281-10.63 2.178c-.897.768 9.99 0 9.99 0l-10.502 2.049 7.3.768s-7.94.512-8.453 1.665l6.788.512-8.325 3.33 5.507-.512s-7.3 4.483-6.275 13.448c0 0 1.28-5.892 4.994-8.197 0 0-.896 7.3.769 9.478 0 0 1.793-9.734 2.561-11.655 0 0 1.922 6.916 1.665 8.709 0 0 .769-8.71.769-9.606 0 0 2.817 1.793 2.817 3.33s-1.28-7.556-.768-8.709c.512-1.024 1.793 5.38 1.793 5.38l1.28-7.429 1.922 6.788s.768-8.069.768-8.837c0-.897 2.178 6.532 2.178 6.532s.128-7.557 0-8.71c-.385-1.024 1.536 3.202 1.536 3.202s.513-3.714.257-4.994c-.257-1.281 1.024 7.044 1.024 7.044s2.818-8.069 2.177-9.478c-.768-1.28 1.793 4.995 1.793 4.995s1.025-6.276.513-7.3c-.513-1.025 1.537 2.177 1.537 2.177l.512-4.354 1.28 1.152s3.203-3.97 3.971-4.738l-3.074.384z" fill="#007e3a"/><g stroke="#000"><g fill="none" stroke-width=".82"><path d="M491.675 96.27s-5.891 2.177-14.472 4.61M477.203 100.88l2.561 1.281M479.764 102.161s-6.403 1.025-8.068 1.28c-1.537.385 4.482 1.922 4.482 1.922s-7.684.384-8.453 1.025c-.768.512 6.276 1.28 6.276 1.28s-9.862 1.281-10.63 2.178c-.897.768 9.99 0 9.99 0" stroke-width=".5125"/><path d="M473.36 109.846l-10.501 2.049 7.3.768M470.159 112.663s-7.94.512-8.453 1.665M461.706 114.328l6.788.512-8.325 3.33 5.507-.512" stroke-width=".5125"/><path d="M465.676 117.658s-7.3 4.483-6.275 13.448c0 0 1.28-5.892 4.994-8.197 0 0-.896 7.3.769 9.478 0 0 1.793-9.734 2.561-11.655 0 0 1.922 6.916 1.665 8.709 0 0 .769-8.71.769-9.606 0 0 2.817 1.793 2.817 3.33s-1.28-7.556-.768-8.709c.512-1.024 1.793 5.38 1.793 5.38M474.001 119.835l1.28-7.428 1.922 6.788M477.203 119.195s.768-8.069.768-8.837c0-.897 2.178 6.532 2.178 6.532s.128-7.557 0-8.71c-.385-1.024 1.536 3.202 1.536 3.202s.513-3.714.257-4.994c-.257-1.281 1.024 7.044 1.024 7.044s2.818-8.069 2.177-9.478c-.768-1.28 1.793 4.995 1.793 4.995s1.025-6.276.513-7.3c-.513-1.025 1.537 2.177 1.537 2.177M488.986 103.826l.512-4.354 1.28 1.152M490.779 100.624s3.202-3.97 3.97-4.738" stroke-width=".5125"/></g><g stroke-width=".615"><path d="M497.95 274.42c12.04 0 13.32-2.561 13.32-2.561v-4.61s-1.28 2.305-13.447 2.305c-12.04 0-13.32-2.306-13.32-2.306v4.61s1.28 2.562 13.448 2.562z" fill="#d21034" stroke-width=".384375"/><path d="M497.823 269.554c12.167 0 13.447-2.306 13.447-2.306v-18.955s-1.28 2.434-13.447 2.434c-12.04 0-13.32-2.434-13.32-2.434v18.955s1.537 2.306 13.32 2.306z" fill="#ffce00" stroke-width=".384375"/><path d="M497.95 239.84c12.168 0 13.32 3.074 13.32 3.074v2.177s-1.28-2.305-13.447-2.305c-12.04 0-13.32 2.305-13.32 2.305l.128-2.433s1.409-2.818 13.32-2.818z" fill="#d21034" stroke-width=".384375"/><g fill="none"><path d="M485.656 250.342c.896.513 2.69.897 5.635 1.281M498.591 251.88c1.665-.129 3.202-.129 4.483-.257M506.66 251.239c3.842-.768 4.354-1.665 4.354-1.665M485.656 251.623c.896.384 2.69.897 5.635 1.153M498.591 253.032c1.665 0 3.202-.128 4.483-.128M506.66 252.392c3.842-.64 4.354-1.665 4.354-1.665M485.656 252.648c.896.512 2.69 1.024 5.635 1.28M498.591 254.185c1.665 0 3.202 0 4.483-.256M506.66 253.672c3.842-.768 4.354-1.793 4.354-1.793M485.656 253.929c.896.384 2.69.896 5.635 1.152M498.591 255.465c1.665-.128 3.202-.256 4.483-.256M506.66 254.697c3.842-.64 4.354-1.665 4.354-1.665M485.656 255.081c.896.384 2.69.897 5.635 1.281M498.591 256.618c1.665 0 3.202-.128 4.483-.256M506.66 255.978c3.842-.769 4.354-1.793 4.354-1.793M485.656 256.234c.896.512 2.69.896 5.635 1.28M498.591 257.77c1.665 0 3.202-.127 4.483-.255M506.66 257.13c3.842-.768 4.354-1.665 4.354-1.665M485.656 257.515c.896.384 2.69.896 5.635 1.152M498.591 258.923c1.665 0 3.202-.128 4.483-.128M506.66 258.283c3.842-.64 4.354-1.665 4.354-1.665M485.656 258.667c.896.385 2.69.897 5.635 1.153M498.591 260.076c1.665 0 3.202 0 4.483-.128M506.66 259.564c3.842-.769 4.354-1.793 4.354-1.793M485.656 259.82c.896.384 2.69.896 5.635 1.153M498.591 261.357c1.665-.128 3.202-.128 4.483-.256M506.66 260.588c3.842-.64 4.354-1.665 4.354-1.665M485.656 260.973c.896.384 2.69.896 5.635 1.28M498.591 262.51c1.665 0 3.202-.129 4.483-.257M506.66 261.87c3.842-.641 4.354-1.794 4.354-1.794M485.656 262.125c.896.513 2.69 1.025 5.635 1.281M498.591 263.662c1.665 0 3.202-.128 4.483-.256M506.66 263.022c3.842-.769 4.354-1.665 4.354-1.665M485.656 263.406c.896.384 2.69.897 5.635 1.153M498.591 264.815c1.665 0 3.202-.128 4.483-.128M506.66 264.174c3.842-.64 4.354-1.665 4.354-1.665M485.656 264.559c.896.384 2.69.896 5.635 1.28M498.591 265.967c1.665 0 3.202 0 4.483-.128M506.66 265.455c3.842-.768 4.354-1.793 4.354-1.793M485.656 265.711c.896.385 2.69.897 5.635 1.153M498.591 267.248c1.665 0 3.202-.128 4.483-.256M506.66 266.608c3.842-.769 4.354-1.793 4.354-1.793M485.656 266.864c.896.512 2.69.897 5.635 1.28M498.591 268.4c1.665 0 3.202-.127 4.483-.255M506.66 267.76c3.842-.64 4.354-1.793 4.354-1.793" stroke-width=".384375"/></g><path d="M497.823 270.45c12.167 0 13.447-2.305 13.447-2.305v-.897s-1.28 2.306-13.447 2.306c-12.04 0-13.32-2.306-13.32-2.306v.897s1.28 2.305 13.32 2.305z" fill="#fff" stroke-width=".384375"/><path d="M484.887 248.678l5.123 19.21 4.867-17.417h.897l4.994 17.802 4.867-18.187.769-.128 4.866 16.01v1.28l-.512.513-4.739-15.497-4.482 17.161-1.665.129-4.61-16.522-4.483 16.137-1.793-.256-4.483-18.186v-2.434z" fill="#d21034" stroke-width=".384375"/><g fill="#fff"><path d="M501.28 273.908H500v-2.946h1.28zM510.118 244.451c-1.409-.64-4.355-1.665-12.167-1.665-7.685 0-10.502.897-11.911 1.537l-.256.128c1.28.64 4.482 1.793 12.167 1.793 7.94 0 10.886-1.153 12.167-1.793zM498.463 242.402h-1.153v-2.177h1.153zM489.626 242.786v-1.921l1.153-.128v1.921zM506.276 242.914v-1.92l-1.153-.257v1.921zM490.266 273.396v-2.69l-1.28-.256v2.562zM509.734 272.371v-2.561l1.28-.64v2.689z" stroke-width=".384375"/></g><path d="M497.823 250.727c12.167 0 13.447-2.434 13.447-2.434v-4.866s-1.28 2.817-13.447 2.817c-12.04 0-13.32-3.074-13.32-3.074v5.123s1.28 2.434 13.32 2.434z" fill="#d21034" stroke-width=".384375"/><g fill="#fff"><path d="M505.251 249.574v-2.69l1.409-.128v2.562zM496.158 249.958h-1.409v-3.074h1.409zM485.272 248.293l-.769-.512v-2.69l.769.385z" stroke-width=".384375"/></g><path d="M385.502 275.701l-15.24 7.044c-1.153.128-1.666 1.537-.257 3.074 0 0-1.665.768-2.433.512 0 0-1.537-2.817-3.074-2.305 0 0 1.28-2.946 1.28-4.227s-.384-8.452.385-9.605c0 0-2.562 1.153-3.33 2.818 0 0 .384-6.148 10.63-10.118 0 0-2.946 7.172-2.433 9.99 0 0-2.306-.64-2.69-2.434 0 0-.512 6.148 0 8.325.64 2.049 1.153 1.665 2.818.896 2.177-1.024 12.807-5.635 12.807-5.635s.384-1.409 1.921-2.177c1.41-.897 2.562-.384 3.074.512.897 1.28 0 2.434-.64 2.818-1.537.896-2.69 1.152-2.818.512l-.768-.64s1.024.384 2.049-.128c.512-.256 2.049-1.025 1.409-1.921-.64-1.153-2.05-.129-2.562.256-.384.256-1.153 1.409-.896 1.793z" fill="#ffce00" stroke-width=".384375"/><path d="M382.94 271.859s1.666.512 3.33 6.147c0 0-.512.257-.768.257 0 0-1.665-.513-3.458-5.764 0 0 .256-.64.897-.64z" fill="#ffce00" stroke-width=".384375"/><g fill="#fff"><path d="M382.3 273.14l1.28-.769.513.769-1.537.768zM384.35 277.366l1.408-.896.128.768-1.152.64zM376.409 277.366s2.305-1.025 3.202-1.537c.896-.384 3.586.512 3.97.512l-.384-1.152s-1.793-.897-4.227-.256c-1.409.384-2.177.768-3.458 1.537-1.793 1.28-2.433 2.305-2.433 2.305zM375.128 280.44c0 .896-.896 2.049-2.433 2.69-1.537.512-3.586.768-3.586.768s-.128-.64 1.152-1.153 4.867-2.305 4.867-2.305z" stroke-width=".384375"/></g><g fill="none"><path d="M375.128 277.878c.384-.256-.128-.896.256-1.152M376.537 277.366c-.128-.384.128-1.537.512-1.793M377.946 276.47c0-.64.128-.897.512-1.281M379.355 275.957c.256-.384.384-.896.768-1.152M381.02 275.83c-.257-.257.256-.513.256-.641 0-.256.384-.128.512-.384M382.3 276.213c.128-.512.384-.896 1.025-.896M373.72 281.336c.127.385.383.64.127 1.153M372.182 281.72c.385.513.385 1.281-.128 1.537M370.517 282.489c.385.384 0 .768-.64 1.153M369.62 265.071l2.178-.512M367.572 266.352l3.202-.769M366.035 267.376l3.97-1.024M365.779 268.273l2.561-.512M364.626 269.554l2.69-.513M364.114 270.578l2.049-.384M366.035 272.243l1.024-.512M366.035 273.524l.768-.512M366.035 274.805l1.024-.513M366.035 276.085l1.024-.512M366.035 278.263l1.024-.513M365.779 279.8l1.024-.513M366.035 280.824l1.024-.256M365.523 282.36l1.024-.511" stroke-width=".384375"/></g><path d="M611.424 275.701l15.241 7.044c1.153.128 1.665 1.537.256 3.074 0 0 1.537.768 2.305.512 0 0 1.665-2.817 3.202-2.305 0 0-1.28-2.946-1.28-4.227s.384-8.452-.385-9.605c0 0 2.562 1.153 3.202 2.818 0 0-.256-6.148-10.63-10.118 0 0 2.946 7.172 2.562 9.99 0 0 2.305-.64 2.561-2.434 0 0 .64 6.148 0 8.325-.512 2.049-1.025 1.665-2.69.896-2.177-1.024-12.935-5.635-12.935-5.635s-.384-1.409-1.793-2.177c-1.537-.897-2.562-.384-3.202.512-.768 1.28.128 2.434.769 2.818 1.536.896 2.561 1.152 2.817.512l.64-.64s-1.024.384-1.92-.128c-.513-.256-2.05-1.025-1.41-1.921.641-1.153 1.922-.129 2.434.256.384.256 1.153 1.409.897 1.793z" fill="#ffce00" stroke-width=".384375"/><path d="M613.986 271.859s-1.665.512-3.33 6.147c0 0 .512.257.768.257 0 0 1.665-.513 3.458-5.764 0 0-.384-.64-.896-.64z" fill="#ffce00" stroke-width=".384375"/><g fill="#fff"><path d="M614.626 273.14l-1.409-.769-.384.769 1.537.768zM612.449 277.366l-1.281-.896-.256.768 1.153.64zM620.517 277.366s-2.305-1.025-3.201-1.537c-.897-.384-3.586.512-3.97.512l.384-1.152s1.793-.897 4.098-.256c1.537.384 2.305.768 3.458 1.537 1.921 1.28 2.561 2.305 2.561 2.305zM621.67 280.44c0 .896.897 2.049 2.562 2.69 1.536.512 3.586.768 3.586.768s.128-.64-1.153-1.153-4.995-2.305-4.995-2.305z" stroke-width=".384375"/></g><g fill="none"><path d="M621.798 277.878c-.512-.256.128-.896-.256-1.152M620.39 277.366c.127-.384-.129-1.537-.513-1.793M618.98 276.47c0-.64-.256-.897-.64-1.281M617.444 275.957c-.128-.384-.385-.896-.64-1.152M615.779 275.83c.384-.257-.128-.513-.128-.641 0-.256-.513-.128-.64-.384M614.498 276.213c0-.512-.256-.896-.897-.896M623.207 281.336c-.128.385-.384.64-.256 1.153h.128M624.616 281.72c-.256.513-.384 1.281.256 1.537M626.28 282.489c-.383.384.129.768.77 1.153M627.177 265.071l-2.049-.512M629.226 266.352l-3.073-.769M630.891 267.376l-3.97-1.024M631.148 268.273l-2.69-.512M632.172 269.554l-2.561-.513M632.684 270.578l-1.92-.384M630.891 272.243l-1.152-.512M630.891 273.524l-.768-.512M630.891 274.805l-1.152-.513M630.891 276.085l-1.152-.512M630.891 278.263l-1.152-.513M631.148 279.8l-1.025-.513M630.891 280.824l-1.152-.256M631.404 282.36l-1.025-.511" stroke-width=".384375"/></g><path d="M470.03 269.81c1.281-.128 4.355.384 4.868 1.665.384.896 0 2.817-4.74 2.817-5.763 0-7.171-2.433-4.866-3.714 2.177-1.28 3.074-.64 4.739-.768z" fill="#ffce00" stroke-width=".384375"/></g></g><path d="M466.7 271.475c3.203-2.946 2.69-25.359 2.69-26 0-.384-.384-.768-.384-.768-.128-.512-1.024-.64-1.024-.64h3.714s-.897.384-.897.896c0 1.153.128 2.306.128 2.306-.256-.769.64-1.537 1.793-1.537 4.099 0 3.714 4.354 3.714 4.354v10.887c0 2.945-1.665 4.61-3.714 4.61-1.024 0-1.28-.384-1.28-.384l-.257-3.458c.128.512.513 1.28 1.537 1.28 1.153 0 1.665-1.28 1.665-2.433v-10.246c0-1.026 0-2.561-1.409-2.561-.64 0-1.92.256-2.049 2.177-.128 2.05-.128 19.211 1.921 21.517z" fill="#ffce00"/><g stroke="#000" stroke-width=".615"><g fill="none"><path d="M466.7 271.475c3.203-2.946 2.69-25.359 2.69-26 0-.384-.384-.768-.384-.768-.128-.512-1.024-.64-1.024-.64M467.982 244.067h3.714M471.696 244.067s-.897.384-.897.896c0 1.153.128 2.306.128 2.306-.256-.769.64-1.537 1.793-1.537 4.099 0 3.714 4.354 3.714 4.354v10.887c0 2.945-1.665 4.61-3.714 4.61-1.024 0-1.28-.384-1.28-.384M471.44 265.199l-.257-3.458" stroke-width=".384375"/><path d="M471.183 261.741c.128.512.513 1.28 1.537 1.28 1.153 0 1.665-1.28 1.665-2.433v-10.246c0-1.026 0-2.561-1.409-2.561-.64 0-1.92.256-2.049 2.177-.128 2.05-.128 19.211 1.921 21.517" stroke-width=".384375"/></g><path d="M525.87 269.81c-1.28-.128-4.354.384-4.994 1.665-.384.896.128 2.817 4.867 2.817 5.763 0 7.044-2.433 4.867-3.714-2.306-1.28-3.074-.64-4.74-.768z" fill="#ffce00" stroke-width=".384375"/></g><path d="M529.073 271.475c-3.074-2.946-2.562-25.359-2.562-26 0-.384.256-.768.256-.768.257-.512 1.025-.64 1.025-.64h-3.714s1.024.384 1.024.896c0 1.153-.128 2.306-.128 2.306.257-.769-.64-1.537-1.92-1.537-3.971 0-3.587 4.354-3.587 4.354v10.887c0 2.945 1.665 4.61 3.586 4.61 1.025 0 1.41-.384 1.41-.384l.255-3.458c-.256.512-.64 1.28-1.665 1.28-1.152 0-1.537-1.28-1.665-2.433v-10.246c0-1.026 0-2.561 1.41-2.561.768 0 2.048.256 2.176 2.177.128 2.05.128 19.211-1.92 21.517z" fill="#ffce00"/><g stroke="#000"><g stroke-width=".615"><g fill="none"><path d="M529.073 271.475c-3.074-2.946-2.562-25.359-2.562-26 0-.384.256-.768.256-.768.257-.512 1.025-.64 1.025-.64M527.792 244.067h-3.714M524.078 244.067s1.024.384 1.024.896c0 1.153-.128 2.306-.128 2.306.257-.769-.64-1.537-1.92-1.537-3.971 0-3.587 4.354-3.587 4.354v10.887c0 2.945 1.665 4.61 3.586 4.61 1.025 0 1.41-.384 1.41-.384M524.462 265.199l.256-3.458" stroke-width=".384375"/><path d="M524.718 261.741c-.256.512-.64 1.28-1.665 1.28-1.152 0-1.537-1.28-1.665-2.433v-10.246c0-1.026 0-2.561 1.41-2.561.768 0 2.048.256 2.176 2.177.128 2.05.128 19.211-1.92 21.517" stroke-width=".384375"/></g><path d="M544.57 231.003s-.256-9.477-4.611-9.477c-4.098 0-4.739 9.477-4.739 9.477s2.818.513 4.739.513c1.793 0 4.61-.513 4.61-.513z" fill="#ffce00" stroke-width=".384375"/><path d="M535.22 230.107v.896s2.818.513 4.739.513c1.793 0 4.61-.513 4.61-.513v-1.152s-1.792.768-4.61.768c-2.946 0-4.739-.512-4.739-.512z" fill="#d21034" stroke-width=".384375"/><g fill="none"><path d="M535.989 230.363v.768M537.013 230.363v.768M538.038 230.62v.64M539.19 230.62v.768M540.471 230.62v.768M541.368 230.491v.768M542.649 230.363v.768M543.673 230.235v.896" stroke-width=".384375"/></g><path d="M535.22 231.003s-1.665.769-1.152 1.41c.768.64 4.226.896 7.172-.897h-1.281c-.512 0-4.098-.257-4.739-.513z" fill="#ffce00" stroke-width=".384375"/><path d="M540.343 221.654s0-.512.256-.64c.385-.257 2.818-1.537 2.434-2.69-.128-1.153-1.537-2.177-4.099-2.305-3.97-.256-7.684.768-7.428 3.33.384 2.561 3.97 2.69 4.61 2.69 1.282-.257 2.562-1.41 3.075-1.41.768.128.384.897.384.897z" fill="#d21034" stroke-width=".384375"/><g fill="none"><path d="M539.319 222.679h.64M540.727 222.807c.513-.128 1.025-.128 1.41-.128M539.19 223.19h.897M540.727 223.19c.64 0 1.281 0 1.665-.127M539.062 223.575h1.025M540.856 223.703c.768 0 1.536-.128 1.92-.128M539.19 223.96c.257.127.64.127.897.127M540.984 224.087c.768 0 1.536 0 2.049-.128M539.19 224.472h.897M540.984 224.6c.768 0 1.92 0 2.433-.128M539.19 224.856s.385.128.897.128M540.856 224.984c.896 0 2.049 0 2.561-.128M539.447 225.368s.256 0 .64.128M540.984 225.624c1.024 0 2.049 0 2.69-.256M539.19 226.008h.897M541.112 226.137c1.024 0 2.049 0 2.69-.129M539.19 226.52h.897M540.984 226.649c1.152 0 2.305 0 3.073-.128M539.19 227.033h1.153M541.112 227.161c1.024 0 2.305 0 3.073-.128M539.19 227.673h.897M541.24 227.673c1.152.128 2.305.128 2.945 0M539.319 228.186c.256 0 .64 0 1.024.128M541.24 228.314c1.152 0 2.433 0 3.074-.128M538.934 228.698s.128 0 .257.128M539.19 228.826h1.153M541.368 228.954c1.024 0 2.305 0 2.946-.256M539.19 229.338c.257 0 .64.128 1.153.128M541.368 229.466c1.152 0 2.433 0 3.074-.128M539.319 229.979h1.024M541.368 230.107c1.152 0 2.433 0 3.202-.128M532.147 219.477c-.129.128-.129.768-.129.896M532.787 219.477c-.384.256-.256 1.152-.128 1.665M533.555 219.733l-.384.512c-.128 0 0 .512 0 .512 0 .64 0 .513.384.769M534.196 219.733c-.256.768 0 1.665.64 2.177M534.836 219.989c.128.768.384 1.665.897 1.921M535.733 220.117c.256.769.512 1.409 1.024 1.665M536.501 220.117c.128.256.64 1.28.768 1.28M537.141 219.733c0 .384.513 1.28.769 1.409M538.166 219.86c0 .385.128.897.384 1.026M538.678 219.989c.128-.128.384.512.384.512M539.447 219.86c0 .385.128.77.256 1.026M537.526 231.644c-1.665 0-2.562-.513-2.562-.513M537.398 231.772c-1.793.128-2.818-.513-2.818-.513M537.013 232.028c-1.665.128-2.69-.512-2.69-.512M536.885 232.284c-1.793.128-2.817-.512-2.817-.512M536.757 232.54c-1.793 0-2.69-.512-2.69-.512M536.757 232.668c-1.793.128-2.69-.384-2.69-.384M537.782 231.516c-1.665.128-2.69-.513-2.69-.513" stroke-width=".384375"/></g></g><g fill="#fff" stroke-width=".82"><path d="M497.95 302.34c29.842 0 56.61-3.97 61.86-6.019 3.97-1.665 3.715-1.793 3.715-1.793l-2.69-9.734s-1.025 1.025-3.074 1.537c-2.177.513-17.418 5.251-59.81 5.507-42.52-.256-57.761-4.994-59.81-5.507-2.05-.512-3.074-1.537-3.074-1.537l-2.69 9.734s-.256.128 3.714 1.793c5.123 2.05 31.89 6.02 61.86 6.02z" stroke-width=".5125"/><path d="M435.067 284.794c.512-1.537 8.324-.512 9.605-.768 1.409-.256 1.537-.256 1.537-.256s-1.28-2.69-5.123-2.434c-3.97.256-11.655 1.921-15.24 2.178-3.715.256-21.005 0-27.537 1.536-6.403 1.537-23.309 9.478-28.304 11.783-4.995 2.434-13.96 3.97-16.906 1.537 0 0 5.892 6.916 19.211 1.665 0 0-12.038 5.763-16.521 5.507 0 0 8.837 2.69 18.058-1.665 9.222-4.226 22.541-9.35 27.536-10.118 4.995-.896 21.26-.896 24.718-1.408 3.33-.513 7.044-.769 7.044-.769-.128 0 1.922-6.788 1.922-6.788z" stroke-width=".5125"/><path d="M435.067 284.794s1.024 1.025 3.073 1.537c.769.256 3.074.897 7.94 1.793v-.256s.897-4.098.129-4.098c0 0-.128 0-1.537.256-1.28.256-9.093-.769-9.605.768z" stroke-width=".5125"/></g><g fill="none" stroke-width=".615"><path d="M373.335 296.577s6.66-2.561 10.758-4.739M373.847 297.858s6.916-2.562 11.143-4.61M372.567 301.828s9.477-3.586 13.832-5.763M373.591 299.65s8.581-3.329 12.04-5.122M372.31 303.365s10.759-4.098 14.985-6.276M400.102 286.331c1.793-.256 12.04-1.537 16.778-1.28M400.102 287.868c1.793-.128 11.015-1.28 15.754-1.024M399.078 289.533c1.793-.256 11.783-1.28 16.521-1.025M398.31 291.326c1.792-.256 10.886-1.28 15.752-1.024M395.876 294.016c3.458-1.665 12.68-2.434 17.418-2.178M444.416 283.257s-3.714-.512-6.02-.384c-2.305.384-11.526 2.177-12.55 2.177M433.914 285.307s-7.3 1.28-8.71 1.28M433.658 287.1s-7.044 1.408-8.581 1.408M432.89 290.558s-8.197.768-9.99.768M433.145 289.02c-1.024.257-7.044.513-8.58 1.025M434.682 286.331s2.434 1.025 6.916 2.177M434.426 287.868s2.434 1.665 5.507 2.177M434.17 289.277s2.946 1.793 6.02 2.305M433.402 292.35s1.665 1.41 6.02 2.178M432.89 293.247s.255 1.153 5.507 2.562M433.658 290.558s2.945 1.793 6.02 2.305" stroke-width=".384375"/></g><path d="M560.835 284.794c-.512-1.537-8.325-.512-9.605-.768s-1.665-.256-1.665-.256 1.28-2.69 5.25-2.434c3.97.256 11.527 1.921 15.241 2.178 3.714.256 21.004 0 27.536 1.536 6.404 1.537 23.31 9.478 28.305 11.783 4.994 2.434 13.96 3.97 16.777 1.537 0 0-5.763 6.916-19.083 1.665 0 0 12.04 5.763 16.522 5.507 0 0-8.965 2.69-18.187-1.665-9.093-4.226-22.54-9.35-27.536-10.118-4.866-.896-21.132-.896-24.59-1.408-3.458-.513-7.044-.769-7.044-.769l-1.921-6.788z" fill="#fff" stroke-width=".5125"/><path d="M560.835 284.794s-1.025 1.025-3.074 1.537c-.768.256-3.202.897-7.94 1.793l.128-.256s-1.153-4.098-.384-4.098c0 0 .384 0 1.665.256s9.093-.769 9.605.768z" fill="#fff" stroke-width=".5125"/><g fill="none" stroke-width=".615"><path d="M622.439 296.577s-10.503-4.226-14.6-6.275M621.926 297.858s-7.3-2.818-13.32-5.507M627.433 303.237s-8.324-2.69-18.058-7.172M622.182 299.65s-8.58-2.817-13.575-5.378M631.404 305.286s-4.099.384-22.797-8.197M600.026 287.356c-4.867-1.537-16.394-2.562-21.004-2.306M598.36 288.765c-3.201-1.41-13.703-2.178-18.314-1.921M597.592 290.045c-1.793-.256-9.221-1.537-13.96-1.28M598.617 292.095c-1.793-.257-7.557-1.793-12.551-1.281M600.026 294.016c-2.178-1.025-9.478-2.05-12.167-1.921M551.358 283.257s3.714-.512 6.147-.384c2.305.384 12.039 2.434 15.753 2.177M561.86 285.307s10.502 1.537 13.704 1.28M562.244 287.1s6.275.768 9.605 1.408M563.012 290.558s7.3.768 11.143.768M562.756 289.02c1.025.257 6.788.513 9.99 1.025M560.323 286.075s-1.281 1.665-3.074 1.665M560.835 287.74s-1.025 1.025-2.561 1.28M561.347 289.277s-.512 1.025-2.817 1.537M561.86 290.814s-.769 1.28-3.074 1.537M562.372 292.35s-1.537 1.666-3.074 1.666M563.012 294.016s-.768.64-3.202 1.28" stroke-width=".384375"/></g></g><path d="M557.12 295.809l-4.866.896-1.28-6.66 4.994-.896.128.768-3.97.769.384 2.049 3.586-.64.128.768-3.586.64.385 2.306 3.97-.769zM549.308 292.35c-.384-1.152-1.408-1.152-2.049-1.152-1.152.256-2.049 1.28-1.793 2.946.256 1.665 1.025 2.817 2.69 2.561.512-.128 1.537-.512 1.537-2.177l.896-.128c0 2.69-1.921 3.074-2.561 3.074-1.41.256-3.074-.513-3.458-3.074-.256-2.05.64-3.714 2.561-3.97 1.793-.257 2.818.64 3.074 1.793zM539.575 298.37l-.897.256-.896-6.788 3.074-.384c1.152-.128 2.305.128 2.433 1.537.128 1.025-.256 1.409-.64 1.665.384.256.768.256.896 1.28l.256 1.153c0 .385 0 .513.384.64v.129l-1.152.128c-.128-.384-.256-1.409-.384-1.665 0-.512-.129-1.153-1.281-1.025l-2.177.257zM534.068 299.139c-2.562.256-3.458-1.665-3.715-3.202-.128-1.41.513-3.586 2.946-3.842 2.562-.257 3.586 1.793 3.714 3.201.128 1.41-.384 3.715-2.945 3.843zM526.255 299.65l-.896.129-.513-6.788 4.611-.384.128.768-3.842.384.256 2.05 3.33-.256v.768l-3.33.256zM515.625 298.37l-.64 1.921-.897.128 2.177-6.916 1.025-.128 2.818 6.66-1.025.128-.768-1.92zM510.246 299.65l3.33-.127.128.896-4.355.128-.256-6.788h.897zM498.591 293.888h5.507v.768h-2.305v6.02h-.896v-6.02h-2.306zM497.695 300.675h-.897v-6.787h.897zM491.291 298.626l-.64 2.05-.897-.129 2.562-6.788h1.024l2.434 6.916h-1.025l-.64-2.049zM485.272 300.42h-.897l.256-6.789 4.739.128v.769h-3.842l-.128 2.05h3.33v.896l-3.33-.128zM478.1 293.247l.768.128-.384 6.788-1.025-.128-3.074-5.635-.384 5.507-.896-.128.384-6.66h1.152l3.074 5.635zM468.622 299.65c-2.433-.255-3.074-2.304-3.074-3.841.256-1.41 1.153-3.458 3.714-3.33 2.434.256 3.074 2.433 2.946 3.842-.128 1.537-1.025 3.586-3.586 3.33zM464.14 299.01h-1.025l.64-6.787.897.128zM461.322 291.966l.896.129-.64 6.66h-1.025l-2.945-5.892-.513 5.507-.896-.128.768-6.788 1.025.128 2.817 5.892zM455.43 291.326l-.512 4.355c-.256 1.408-1.153 2.433-3.074 2.177-1.793-.256-2.433-1.537-2.305-2.818l.64-4.482.897.128-.512 4.226c-.257 1.409.64 2.05 1.408 2.177.897 0 1.793-.128 2.05-1.665l.512-4.226zM447.874 290.302l1.025.128-.129.896c-.128.64-.384 1.153-1.28 1.28l.128-.511c.512 0 .64-.513.64-.769l-.512-.128zM442.88 295.424l3.329.64-.128.77-4.227-.641 1.025-6.788.897.128z"/><g fill="#fff"><path d="M539.319 294.656l1.92-.128c.513-.128 1.281-.384 1.153-1.28-.128-.897-.896-.897-1.28-.77l-2.05.257zM533.555 293.12c-1.408.127-2.049 1.28-1.92 2.689.127 1.537 1.024 2.433 2.305 2.305 1.408-.128 2.049-1.28 1.92-2.69-.127-1.408-1.024-2.433-2.305-2.305zM517.93 297.346l-1.024-2.69-.897 2.69zM493.724 297.73l-.896-2.69-1.025 2.562zM469.134 293.631c-1.409-.256-2.305.769-2.305 2.306-.128 1.409.64 2.561 1.921 2.69 1.28.127 2.177-1.025 2.305-2.434.128-1.409-.64-2.562-1.92-2.562z"/></g></svg>