<svg xmlns="http://www.w3.org/2000/svg" xmlns:xlink="http://www.w3.org/1999/xlink" width="900" height="600"><defs><clipPath id="b"><use height="100%" width="100%" xlink:href="#a" overflow="visible"/></clipPath><path id="a" d="M120.841 128.896c.679-.772 1.033-1.293 1.52-2.164.712-1.356 2.455-.42 3.878-.518-.226-.064-.42.064-.42.227 0 .938-.519 2.067-1.614 2.229-1.002.129-1.938-.228-2.908-.162-.165 0-.294.225-.456.388z"/></defs><path d="M0 0h900v600H0z" fill="#ce1126" fill-rule="evenodd"/><path d="M0 200h900v400H0z" fill="#fff" fill-rule="evenodd"/><path d="M0 400h900v200H0z" fill-rule="evenodd"/><path d="M405.504 370.457c-.33.325-.65.654-.971.985-.275-.34-.54-.674-.805-1.01-.25.294-.498.583-.747.872-.353-.43-.705-.867-1.057-1.3.306-.313.613-.623.919-.933.277.327.564.656.852.985.256-.272.512-.549.779-.819.337.404.684.812 1.03 1.22zm-.455 10.715c-.283-.136-.565-.273-.848-.408a1.266 1.266 0 0 1-.409-.31c-.227-.262-.388-.62-.485-1.064-.133-.615-.156-1.38-.053-2.287a5.577 5.577 0 0 1-.859.518c-.282.128-.5.155-.665.076a2.076 2.076 0 0 1-.304-.19c-.252-.185-.506-.365-.757-.55a7.26 7.26 0 0 1-.591-.467.235.235 0 0 1-.072-.23c.025-.127.255-.458.686-.998.43-.539.734-.852.901-.953.123-.075.35-.153.673-.223.19-.04.446-.09.795-.139.122-.017.253-.04.385-.057-.007-.076.006-.144.01-.216.004-.074.017-.14.029-.202.035-.18.122-.385.25-.627a4.54 4.54 0 0 1 .599-.822c-.048.79-.086 1.584-.134 2.372-.048.787-.074 1.584-.114 2.378-.037.743-.003 1.278.113 1.604a.74.74 0 0 0 .381.45l.849.406zm-1.736-5.24c.007-.31.023-.61.04-.915-.15.003-.278 0-.364.008a3.36 3.36 0 0 0-.642.115 1.44 1.44 0 0 0-.315.138c-.107.063-.162.122-.172.173-.013.068.053.16.193.267.148.113.292.2.438.27.097.048.2.07.32.058.109-.01.275-.05.502-.116zm5.419 6.913c-1.364-.606-2.728-1.212-4.083-1.865l.38-1.939c1.13.543 2.277 1.063 3.425 1.572a3.056 3.056 0 0 0-.094-.935c-.042-.154-.16-.436-.336-.848.277-.488.565-.975.852-1.464.255.552.383 1.074.419 1.567.036.5-.029 1.183-.199 2.05zm-.354 1.206c-.34.376-.67.754-1 1.136-.278-.329-.554-.66-.821-.985-.25.298-.5.592-.74.893a82.72 82.72 0 0 1-1.06-1.288l.944-1.06c.279.317.567.64.857.96.252-.308.514-.61.776-.91.345.415.69.831 1.044 1.254zm3.984.41l-4.092-1.82.38-1.94c1.138.506 2.286 1.02 3.434 1.528a3.029 3.029 0 0 0-.104-.94 7.984 7.984 0 0 0-.326-.843c.278-.488.565-.977.853-1.466.244.55.387 1.074.418 1.57.031.492-.029 1.18-.199 2.05zm-.962 1.208c-.37.416-.739.83-1.097 1.246-.452-.524-.894-1.047-1.335-1.57.36-.429.722-.856 1.093-1.28.44.532.89 1.068 1.339 1.604zm6.745 1.34c-.057.29-.29.608-.69.96a4.31 4.31 0 0 1-1.319.802c-.533.205-.954.244-1.28.11-.385-.157-.776-.446-1.174-.866-.344-.362-.868-1.017-1.567-1.969.117-.107.235-.217.362-.324.34.448.619.767.845.97.218.195.466.348.751.466.297.122.621.16.963.096.333-.062.816-.239 1.437-.532.86-.406 1.33-.8 1.405-1.182.037-.188.016-.467-.061-.83a4.03 4.03 0 0 0-.41-1.119c.243-.593.498-1.184.751-1.772.232.454.38.93.457 1.428a4.52 4.52 0 0 1-.042 1.576l-.428 2.187zm4.907 1.685c-.328-.12-.656-.245-.974-.363a2.277 2.277 0 0 1-.88-.576c-.239-.253-.399-.574-.491-.974a1.974 1.974 0 0 1-1.281.386 2.933 2.933 0 0 1-1.022-.23l-.69-.283c.125-.645.252-1.292.379-1.939l.69.284c.366.15.629.228.785.245.157.017.374-.004.65-.055a3.963 3.963 0 0 0-.22-.73c-.093-.202-.204-.317-.333-.366a.19.19 0 0 0-.14.006.626.626 0 0 0-.188.145l-.278-.16c.168-.86.431-1.413.776-1.676.344-.26.813-.285 1.41-.062.615.23 1.066.537 1.365.925.305.396.406.812.318 1.264a1.57 1.57 0 0 1-.276.643c-.137.188-.37.42-.694.712a.787.787 0 0 0 .208.305.887.887 0 0 0 .292.195l.974.365-.38 1.94zm3.176 1.156c-1.218-.422-2.43-.877-3.644-1.33l.38-1.94c.945.353 1.899.71 2.854 1.063.018-.856.037-1.716.066-2.572.028-.853.048-1.716.077-2.574-.13-.153-.25-.305-.37-.457.056-.28.152-.548.286-.803.171-.325.433-.687.77-1.097.088.094.176.188.274.287-.005.027-.041.096-.074.216-.042.152.031.342.189.56.136.188.375.427.703.712-.1.29-.217.566-.355.83a6.59 6.59 0 0 1-.412.687c-.074-.057-.147-.12-.22-.18l-.072 2.33-.072 2.33zm2.407-1.4a4.195 4.195 0 0 1-.367 1.115c-.163.316-.44.723-.816 1.224a15.314 15.314 0 0 1-.366-.308c.23-.572.376-1.05.45-1.429.057-.288.115-.722.18-1.298.065-.578.123-1.153.166-1.72.042-.572.054-1.265.055-2.079 0-.282.007-.473.027-.573.029-.148.149-.376.357-.68.21-.309.484-.673.833-1.094-.036.888-.06 1.772-.095 2.661a39.126 39.126 0 0 1-.188 2.596 17.94 17.94 0 0 1-.236 1.585zm9.842 2.931c-.013.294-.198.671-.543 1.124-.345.453-.74.826-1.191 1.127-.498.332-.921.475-1.254.431-.405-.053-.836-.23-1.294-.536-.395-.264-1.011-.766-1.846-1.506.1-.136.201-.274.312-.41.402.346.726.588.971.721a2.3 2.3 0 0 0 .815.262c.322.043.648-.01.97-.156.33-.148.78-.443 1.347-.88.8-.618 1.212-1.123 1.23-1.512.008-.193-.05-.454-.185-.785a3.62 3.62 0 0 0-.572-.976c.154-.636.309-1.275.474-1.912.296.378.529.795.675 1.254.146.46.217.968.192 1.53zm10.96.755c-2.451-.16-4.902-.322-7.35-.56-.322-.032-.58-.143-.769-.336-.19-.194-.344-.49-.462-.892-.321.403-.616.665-.893.795-.246.115-.572.155-.978.116-.334-.032-.667-.064-.99-.093l.09-1.974.99.09c.54.051.953-.049 1.237-.3.337-.299.572-.843.702-1.64l.465.122c-.018.173-.03.313-.04.42-.03.316-.057.572-.066.765-.012.274.05.495.18.66a.753.753 0 0 0 .54.281c.22.022.432-.005.632-.083.194-.075.506-.245.934-.513.853-.534 1.703-1.102 2.565-1.667.303-.198.528-.338.678-.422.343-.19.682-.277.995-.256.521.036.92.254 1.215.657.345.47.491 1.151.45 2.047-.041.93-.083 1.855-.126 2.783zm-.847-2.78c.01-.22-.149-.407-.477-.565a2.412 2.412 0 0 0-.9-.225c-.312-.02-.66.06-1.046.24-.394.181-.965.52-1.72 1.02l1.825.12c1.523.1 2.296-.097 2.318-.59zm6.746 3.01c-.48-.014-1.05-.133-1.7-.353a8.106 8.106 0 0 1-1.496-.666c-.29.41-.637.681-1.04.798-.19.055-.454.072-.777.05l-1.377-.09.09-1.977 1.377.09c.417.027.753-.014.998-.11.32-.125.54-.357.69-.683a4.42 4.42 0 0 1 1.083-1.483c.384-.342.692-.512.953-.504.23.008.51.388.827 1.15.333.796.474 1.53.444 2.193l-.072 1.586zm-1.195-2.235c.005-.108-.092-.293-.278-.562-.207-.299-.388-.45-.555-.455-.177-.005-.344.208-.49.64.237.106.42.183.544.236.369.158.576.235.617.237.105.004.159-.03.162-.096zm8.459-8.2a71.93 71.93 0 0 0-.375 1.557c-.368-.077-.726-.156-1.083-.234-.08.43-.16.863-.23 1.291-.48-.09-.95-.189-1.42-.28l.354-1.476c.374.06.747.116 1.12.175l.279-1.27c.445.08.9.158 1.355.236zm4.143 9.23c-.284.113-.57.223-.855.334a.895.895 0 0 1-.46.063c-.284-.044-.572-.22-.844-.517-.372-.406-.7-1.033-1.01-1.867a9.68 9.68 0 0 1-.47 1.078c-.177.32-.351.515-.51.57-.09.031-.193.051-.329.07-.293.04-.575.083-.858.12a5.28 5.28 0 0 1-.668.055c-.088-.004-.144-.05-.166-.133-.034-.127.009-.576.137-1.353.128-.78.233-1.269.33-1.478.076-.16.23-.4.455-.695.135-.179.334-.418.589-.72.091-.108.189-.224.289-.338-.028-.062-.06-.122-.083-.187-.023-.068-.045-.13-.062-.19a2.584 2.584 0 0 1-.06-.712c.007-.295.048-.67.14-1.139.294.694.599 1.385.892 2.077.294.692.61 1.38.913 2.07.284.65.544 1.07.77 1.253.148.12.31.143.496.07.284-.112.57-.22.854-.334zm-3.616-3.01c-.124-.26-.239-.525-.353-.79-.121.116-.217.207-.284.278a4.45 4.45 0 0 0-.483.585c-.081.125-.14.246-.188.352-.061.134-.091.227-.078.277.018.067.111.091.28.073.158-.017.322-.054.47-.107a.72.72 0 0 0 .275-.19c.093-.097.215-.252.36-.477zm7.31 1.571l-4.087 1.593-.51-1.904 3.43-1.336a1.937 1.937 0 0 0-.471-.705 4.697 4.697 0 0 0-.631-.45l.084-1.872c.431.27.768.595 1.002.983.234.388.466 1.01.694 1.863l.49 1.828zm.222 1.271c-.118.574-.226 1.141-.335 1.708a46.238 46.238 0 0 1-1.073-.198l-.235 1.31c-.467-.08-.933-.162-1.399-.24l.314-1.625c.36.052.731.098 1.101.145.076-.45.161-.9.247-1.35.456.085.914.17 1.38.25zm5.562-3.543c.076.284.03.724-.145 1.322a7.146 7.146 0 0 1-.734 1.677c-.347.576-.682.936-1.004 1.075-.379.163-.819.22-1.31.173-.433-.04-1.135-.187-2.112-.47.05-.18.1-.359.16-.54.458.13.833.193 1.092.187.27-.006.535-.07.807-.187.301-.13.569-.346.822-.657.253-.31.563-.82.945-1.536.536-1.002.743-1.682.643-2.058-.05-.185-.183-.4-.4-.644a2.472 2.472 0 0 0-.796-.62c-.052-.68-.103-1.359-.146-2.043.38.2.708.476.983.833.273.354.477.807.621 1.347zm5.762-3.4c.215.802.121 1.741-.296 2.822-.416 1.077-.929 1.76-1.526 2.042-.357.17-.784.228-1.265.18-.489-.05-1.268-.237-2.338-.587.05-.174.103-.347.163-.524.548.138.987.198 1.315.17.276-.025.559-.105.867-.25.414-.197.796-.518 1.131-.962.394-.52.765-1.238 1.097-2.143a3.489 3.489 0 0 1-.44.258c-.415.195-.793.205-1.123.023-.332-.183-.566-.533-.704-1.05a5.36 5.36 0 0 1-.099-2.23c.132-.855.402-1.38.816-1.576.337-.16.694-.044 1.07.35.377.394.657.956.85 1.673zm-1.15-1.056c-.317-.698-.658-.958-1.024-.783a.515.515 0 0 0-.272.32.733.733 0 0 0-.025.435c.045.167.169.262.372.293.193.03.429-.018.708-.15.077-.035.154-.073.24-.115zm7.153-1.45c-.438.228-.867.45-1.296.67l-.295.156a9.16 9.16 0 0 0-.44.262c.18.02.36.02.535.05.18.032.285.173.335.363.05.183.082.385.089.612.003.134 0 .37-.014.72-.027.672-.081 1.15-.178 1.441-.096.285-.27.492-.509.615-.582.3-1.18.223-1.79-.242-.605-.462-1.042-1.176-1.3-2.137-.49.234-.972.46-1.453.687l-.51-1.9c.193-.09.386-.183.578-.274a4.21 4.21 0 0 0 .684-.405c.255-.188.421-.33.52-.407.1-1.65.24-2.878.434-3.689.17-.708.381-1.128.648-1.267.219-.114.47.02.75.41.239.333.414.694.518 1.084.145.54.178 1.054.085 1.534a2.95 2.95 0 0 1-.705 1.416 9.32 9.32 0 0 1 .81-.543c.252-.15.489-.279.698-.387.43-.222.858-.445 1.296-.673zm-3.439-1.86a.954.954 0 0 0-.244-.385c-.13-.138-.233-.182-.32-.138-.114.057-.2.255-.275.591-.078.346-.142.847-.2 1.52.435-.44.725-.774.872-.997.153-.234.21-.43.167-.592zm1.513 4.552c-.07-.262-.27-.44-.6-.535-.398-.114-.931-.075-1.58.1.178.377.472.634.87.77a1.42 1.42 0 0 0 1.16-.084c.133-.068.177-.147.15-.25zm7.263-5.656c-.433.244-.978.44-1.623.582a6.827 6.827 0 0 1-1.537.178c-.137.542-.368.98-.692 1.307-.154.157-.37.318-.674.48-.418.22-.84.432-1.259.65l-.51-1.904c.42-.217.841-.43 1.259-.65a2.92 2.92 0 0 0 .855-.656 1.76 1.76 0 0 0 .413-1.01c.068-.726.25-1.38.524-1.976.24-.526.475-.857.702-.984.217-.122.57.09 1.08.632.537.57.882 1.183 1.053 1.823l.41 1.528zm-1.735-1.456c-.028-.105-.17-.228-.417-.38-.272-.167-.48-.214-.631-.13-.16.09-.245.383-.246.864.242-.028.43-.054.556-.07.377-.05.584-.087.622-.109.094-.053.133-.113.116-.175zM500 374.58c-2.37 1.444-4.73 2.878-7.108 4.252l-.51-1.903c1.48-.834 2.956-1.726 4.43-2.624-.66-.276-1.24-.416-1.728-.415-.444 0-.838.114-1.202.335-.102.062-.203.13-.285.191a6.31 6.31 0 0 0-.374.305c.069-.715.215-1.302.42-1.753.205-.45.485-.783.84-1 .27-.164.552-.249.843-.254.292-.004.644.065 1.042.205.32.113.786.3 1.382.582.423.2.725.312.924.33.19.016.458-.032.816-.157zm-1.894 2.934c-.12.688-.24 1.375-.351 2.053-.553.002-1.107 0-1.66.003l.332-2.042c.553-.003 1.116-.006 1.679-.014z" fill="#efbb22"/><path d="M458.073 206.371c-2.882-.004-6.307.664-9.377 3.047-5.454 4.17-8.567 12.69-13.973 15.9h3.803s-2.842 6.278-5.086 7.603l3.805.642s-3.161 5.087-5.727 6.37l3.208.638s-5.042 10.13-7.608 11.41c0 0 1.42 5.728-2.566 7.011l4.492 9.53h42.563l4.447-8.89c-4.446-1.923-2.517-8.935-2.517-8.935l-2.567-4.448c-5.086-.64-3.806-10.769-3.806-13.927 0-3.21-2.57-7.008-2.57-7.008 2.568-6.37 1.925-8.94 1.925-8.94l-1.924-8.887s-2.813-1.109-6.522-1.116z" fill="#fff" stroke="#efbb22" stroke-width=".887"/><path d="M458.07 207.596c3.461.006 6.071 1.035 6.071 1.035l.275.11.3-.03s1.452-.135 2.917.141c.73.14 1.43.384 1.913.716.479.328.747.675.856 1.292.05.306.004.35.007.344.004-.007-.007.03-.198.108l-1.25.49.32.636c-.147.037-.253.03-.405.08-1.388.432-3.123 1.515-3.551 3.624l-.055.27.068.266s.116.338-.03 1.648c-.148 1.307-.596 3.433-1.845 6.53l-.245.608.367.537s.59.875 1.191 2.145c.604 1.268 1.166 2.905 1.166 4.18 0 1.415-.332 4.854 0 8.041.167 1.59.49 3.152 1.212 4.473.62 1.138 1.661 2.073 2.998 2.454l2.088 3.615a13.253 13.253 0 0 0-.337 3.58c.044 1.11.233 2.324.779 3.461a5.795 5.795 0 0 0 1.775 2.146l-3.603 7.201h-41.03l-3.675-7.798c.639-.43 1.19-.928 1.54-1.516.56-.936.782-1.95.864-2.867a10.292 10.292 0 0 0-.102-2.639c.679-.554 1.291-1.227 1.927-2.09.874-1.189 1.76-2.604 2.564-3.972 1.607-2.736 2.881-5.298 2.881-5.298l.715-1.433-2.143-.428c.702-.71 1.342-1.502 1.919-2.24a36.971 36.971 0 0 0 1.973-2.806l.967-1.554-3.217-.541c.694-.896 1.298-1.916 1.858-2.89a44.988 44.988 0 0 0 1.752-3.405l.784-1.733h-2.26c1.673-1.659 3.12-3.642 4.531-5.658 2.145-3.065 4.25-6.13 6.746-8.043l.003-.003.005-.003c2.793-2.178 5.922-2.789 8.615-2.784z" fill="#fff"/><path d="M447.34 224.111c.361-1.182.795-2.306 1.271-3.456l.316-.756-.689.443c-1.959 1.253-4.26 2.844-6.02 3.901.573-.813 1.281-1.706 1.96-2.577.939-1.202 1.82-2.345 2.233-3.244l.359-.777c-1.666.975-3.214 2.278-4.44 3.512 1.112-.502 2.14-1.331 3.066-2.002-.434.656-1.015 1.415-1.625 2.197-.936 1.2-1.937 2.452-2.579 3.52l-.487.804.828-.449c1.684-.913 4.132-2.603 6.294-4.01-.485 1.211-.916 2.42-1.26 3.72l-.238.904.667-.654c1.8-1.757 3.553-3.838 4.904-5.913-1.544 1.487-3.03 3.26-4.56 4.837zm10.634-.334c-.169.417-.325.81-.46 1.128-.155-1.215-.351-2.265-.844-3.436.164 1.61.36 2.67.384 4.17 0 .082-.021.135.057.259.035.062.16.147.266.136.106-.011.149-.058.183-.09.125-.121.16-.232.247-.415.166-.366.382-.938.642-1.56.444-1.043.778-2.027 1.384-3.099-1.03.638-1.424 1.834-1.86 2.907zm-5.212-.187c-.367.45-.711.836-.921 1.002.014-1.24.064-3.123.064-3.123s-.577 1.88-.577 3.207c0 .102.008.194.05.287a.388.388 0 0 0 .263.219c.231.052.367-.064.512-.177.292-.227.632-.621 1.01-1.092.759-.93 1.339-1.862 1.905-2.766-.888.65-1.563 1.533-2.306 2.443zm8.34-.85c-.165.787-.262 1.792.331 2.578-.05-.818.019-1.74.172-2.473.153-.737.404-1.478.404-1.478s-.742.585-.906 1.373zm-3.53 2.936c.005.013.002.01 0 0zm4.346 1.632l-.388.728c-.77 1.431-1.54 2.865-2.313 4.293l-1.671-3.95-.207-.486-.258.459c-.674 1.196-2.097 2.916-2.641 3.556-1.048-1.493-2.984-3.91-2.984-3.91l-.22-.28-.198.3a2411.01 2411.01 0 0 0-2.74 4.223c-.766-.599-1.36-1.795-1.552-3.47l-.103-.874-.384.794c-.388.8-1.505 2.003-2.51 2.97a44.159 44.159 0 0 1-1.647 1.49 2110.733 2110.733 0 0 0-1.742-4.123l-.329-.778c-.157 1.287-.94 2.486-1.51 3.445.76-.424 1.299-1.07 1.635-1.829l1.609 3.81.136.32.267-.22s.916-.757 1.94-1.74c.806-.772 1.68-1.67 2.24-2.483.304 1.56.966 2.705 1.89 3.279l.213.135.138-.21c.898-1.383 1.796-2.762 2.689-4.146.583.739 2.156 2.748 2.929 3.872l.187.274.217-.251s1.677-1.903 2.655-3.454c.562 1.327 1.12 2.653 1.682 3.98l.207.497.257-.473 2.207-4.103c.275 1.157.74 2.606 1.738 3.06-.992-1.692-1.252-3.046-1.439-4.705zm-24.863 10.174c.038.366.097.844.172 1.343.082.537.183 1.107.306 1.603.125.5.258.922.46 1.21l.158.228.214-.175s.883-.721 1.805-1.72c.805-.87 1.657-1.944 1.98-3.012a121.222 121.222 0 0 1 1.191 1.21c.799.828 1.688 1.797 1.977 2.222l.149.224.215-.156s2.091-1.514 2.773-4.044c.246.693.51 1.55.757 2.371.359 1.194.674 2.303.842 2.786l.13.377.291-.27s.76-.716 1.54-1.798c.643-.886 1.311-2.029 1.584-3.251.363.764.734 1.691 1.124 2.55.52 1.142 1.045 2.177 1.836 2.542l.172.081.127-.142s2.032-2.225 2.742-5.266c.366.915.637 1.678.922 2.328.363.83.752 1.495 1.383 2.044l.287.25.126-.358c.537-1.507.91-3.146 1.5-4.524.136.936.485 1.884 1.42 2.836-.798-1.743-.974-3.073-.988-4.775l-.473.846c-.842 1.507-1.25 3.387-1.81 5.067-.396-.43-.678-.936-.973-1.592-.349-.798-.695-1.816-1.246-3.126l-.363-.868-.13.932c-.385 2.801-2.137 5.096-2.642 5.703-.454-.334-.963-1.192-1.42-2.19-.508-1.119-.986-2.393-1.508-3.286l-.426-.733-.056.843c-.09 1.36-.85 2.748-1.603 3.788a13.653 13.653 0 0 1-1.188 1.43c-.172-.555-.424-1.441-.703-2.368-.358-1.2-.759-2.47-1.096-3.254l-.383-.886-.11.958c-.266 2.307-1.949 3.927-2.536 4.425-.418-.549-1.168-1.344-1.868-2.071-.803-.834-1.528-1.546-1.528-1.546l-.362-.358-.074.502c-.143.982-1.059 2.237-1.955 3.208a19.715 19.715 0 0 1-1.515 1.466 5.716 5.716 0 0 1-.25-.784c-.116-.47-.215-1.03-.295-1.558a35.163 35.163 0 0 1-.24-1.998l-.057-.7c-.668.944-1.384 1.952-1.756 2.925.596-.394.983-.942 1.371-1.49zm26.936 9.873c-.621-1.058-1.508-2.976-1.996-4.044l-.25-.538-.224.546c-1.02 2.451-1.97 4.103-2.356 4.744-.39-.54-.917-1.525-1.344-2.414-.512-1.066-.913-2.011-.913-2.011l-.194-.45-.267.414c-1.218 1.929-2.443 3.858-3.663 5.782-.627-.455-1.188-1.326-1.648-2.297-.507-1.079-.911-2.274-1.24-3.16l-.33-.887-.162.934c-.31 1.76-1.512 4.093-2.002 4.99-.359-.64-.737-1.609-1.03-2.46a34.726 34.726 0 0 1-.59-1.912l-.162-.604-.31.545c-1.05 1.86-1.403 2.738-3.286 5.103-.43-.68-1.034-1.91-1.55-3.003a94.451 94.451 0 0 1-1.074-2.393l-.3-.7-.186.739c-.148.59-.78 2.29-1.514 3.583-.367.647-.77 1.202-1.105 1.46-.168.136-.31.185-.41.184-.101-.002-.196-.034-.323-.197-1.22-1.528-1.803-3.69-1.803-3.69s.06 2.332 1.403 4.01c.193.243.449.385.717.386.266.002.507-.118.733-.29.446-.35.856-.94 1.237-1.617a19.566 19.566 0 0 0 1.36-3.04 89.616 89.616 0 0 0 .8 1.77c.598 1.281 1.294 2.703 1.791 3.372l.2.267.207-.258c1.889-2.34 2.384-3.337 3.251-4.91.107.352.255.83.43 1.344.358 1.05.818 2.257 1.318 2.955l.23.325.203-.342s1.449-2.451 2.077-4.68c.266.737.58 1.587.962 2.389.53 1.114 1.176 2.153 2.064 2.66l.21.121.134-.206c1.179-1.863 2.359-3.728 3.541-5.592a54.95 54.95 0 0 0 .73 1.585c.52 1.077 1.127 2.26 1.65 2.806l.22.234.177-.268s1.108-1.676 2.362-4.588c.579 1.256 1.44 3.074 2.025 3.95l.227.34.207-.354c.842-1.45 1.39-2.663 1.334-4.577-.365 1.427-.905 2.713-1.568 3.944z" fill="#efbb22" stroke="#efbb22" stroke-width=".301"/><g stroke-width=".625"><path d="M453.32 215.605c.963-1.095 1.465-1.833 2.156-3.068 1.01-1.922 3.48-.596 5.498-.734-.32-.091-.596.09-.596.321 0 1.33-.735 2.93-2.288 3.16-1.42.183-2.747-.323-4.123-.23-.234 0-.416.32-.646.551z" fill="#fff"/><g clip-path="url(#b)" transform="translate(282 32.865) scale(1.41773)" fill="#efbb22"><path d="M124.43 127.99c.612 0 1.099-.517 1.099-1.13 0-.615-.484-1.102-1.099-1.102s-1.101.484-1.101 1.102c.004.614.487 1.13 1.101 1.13z"/></g><path d="M457.43 211.224c-.364 0-.712.043-1.04.162-.455.167-.87.495-1.138 1.03-.822 1.65-1.93 2.623-2.512 4.1.435-.371.833-.822 1.228-1.202h.008l.01-.002c1.3-.087 2.64.425 4.138.23h.008c.856-.129 1.494-.637 1.896-1.277.396-.63.582-1.388.587-2.088.501-.09.875-.413 1.323-.712-1.36.342-2.847-.122-4.064-.221a4.817 4.817 0 0 0-.444-.02zm.007.515c.127 0 .26.006.392.017.698.05 1.486.227 2.274.29-.005.032-.011.064-.011.094 0 .621-.166 1.306-.506 1.847-.336.543-.837.937-1.531 1.042-1.218.156-2.423-.245-3.719-.245.503-.66.897-1.28 1.37-2.126v-.006c.228-.434.507-.656.859-.787.254-.088.546-.125.872-.126z" fill="#efbb22" stroke="#efbb22" stroke-width=".279"/></g><path d="M427.388 256.933s3.344-5.27 0-10.539c-3.345-5.271 2.475-5.543 1.833-9.072-.596-3.48-4.858-16.999-20.436-16.4-15.624.595-26.62 11.727-29.37 13.47-2.748 1.788-5.774 4.402-7.605.917 0 0-1.237 2.929.273 4.673 1.558 1.695 3.393 2.886 6.14 1.695 0 0-6.413 9.393-7.059 12.326-.593 2.929-.915 2.929-3.342 2.058 0 0 .321 2.659 1.833 2.932 1.51.322 3.666 1.466 5.176-.869 0 0-2.748 6.462-1.833 10.262 1.237 4.993-.272 9.669-1.51 10.586 0 0 4.902 1.15 7.332-2.063 0 0-.323 15.859-4.582 20.807 0 0 4.903 2.059 7.01-1.15 0 0-3.665 22.269-21.078 54.57 0 0 5.82 2.016 10.402-7.059 0 0 5.178 1.743 9.164-7.056 0 0 9.76.322 12.83-14.938 0 0 6.415 1.466 9.165-8.2l8.246-9.121s5.52 2.088 8.248-8.2c1.752-6.614 2.841-10.962 3.756-22.697 2.41 6.811 4.39 1.102 4.821-.567 1.701-6.541.586-16.365.586-16.365z" fill="#fff" stroke="#efbb22" stroke-width=".887"/><g fill="none" stroke="#efbb22" stroke-width=".887"><path d="M378.226 241.677c1.51-1.697 15.263-15.167 30.246-15.167m-.642 4.948s-13.063 1.097-21.677 9.943c-7.651 7.928-11.318 16.726-11.318 16.726"/><path d="M406.634 236.176s-8.936 2.016-15.578 7.286c-3.665 2.933-9.806 10.264-10.723 15.859-.916 5.539-1.51 14.66-1.51 17.591"/><path d="M406.64 241.677c-1.56.594-7.794 1.877-13.155 6.184-3.666 2.93-7.927 8.795-8.57 19.059-.594 10.262.322 18.466-3.665 29.645"/><path d="M407.871 245.8c-2.474 1.19-16.22 4.398-17.734 22.31-1.558 17.87-1.835 29.92-6.736 43.118-3.666 9.85-12.83 32.852-12.83 32.852"/><path d="M379.736 337.029s9.12-19.886 12.234-32.534c3.666-14.98 3.804-30.241 3.988-34.32.274-8.244.896-13.792 11.895-17.916"/><path d="M409.086 257.254c-1.833.272-7.54 2.06-7.357 14.663.322 20.848-8.201 47.838-9.165 50.174m19.875-59.291c-1.238.325-5.071-.868-4.89 9.393.322 16.45-3.988 34.643-5.818 41.696m13.745-45.515s0 18.204-5.498 36.397"/></g><path d="M409.173 221.341v.003zm1.69.821c6.23.296 10.207 3.018 12.832 6.197 2.88 3.486 4.057 7.573 4.332 9.125v-.017l.011.06.003.014v.003l.009.044-.009-.025c.095.56-.004.807-.303 1.26-.292.44-.834.964-1.375 1.625-.549.67-1.115 1.557-1.208 2.71-.09 1.153.295 2.43 1.216 3.884 1.652 2.603 1.448 5.134.949 6.914-1.103-1.093-2.405-1.953-3.947-2.274-.601-.126-.969-.27-1.157-.387-.192-.115-.206-.164-.221-.207-.019-.033-.022-.5.158-1.175.183-.68.494-1.606.375-2.681-.09-.777-.538-1.54-1.201-2.22.388-.592.868-1.306 1.397-2.408.924-1.933 1.815-4.486 1.258-7l-.052-.233-.018-.018c-.467-2.04-1.15-4.63-2.794-6.991-1.706-2.451-4.475-4.578-8.76-5.408-1.226-.239-1.507-.528-1.502-.52.01.006.01-.231.007-.272zm-3.443.074a212.564 212.564 0 0 1-.371 3.114c-7.532.233-14.451 3.576-19.722 7.109-5.215 3.486-8.695 7.014-9.749 8.165-1.054.42-1.776.405-2.46.156-.712-.263-1.423-.831-2.13-1.595-.3-.348-.391-.856-.407-1.39.129.07.248.166.384.217.916.34 1.856.229 2.682-.045 1.637-.543 3.103-1.707 4.414-2.562.859-.549 2.006-1.542 3.644-2.821 1.641-1.283 3.724-2.827 6.19-4.331 4.623-2.817 10.6-5.452 17.525-6.017zm-.761 5.543c-.088.462-.169.997-.265 1.328l.001-.004c-.088.29-.194.814-.295 1.309-2.778.376-13.046 2.184-20.806 10.142v.002h-.002l-.001.001-.003.003-.001.001-.005.006c-7.597 7.871-11.26 16.398-11.49 16.942-.562.844-.855.87-1.506.846-.612-.022-1.467-.34-2.379-.535h-.006l-.007-.003-.03-.005c-.006-.001-.043-.044-.059-.055a2.07 2.07 0 0 0 .963-.252c.575-.325.886-.87 1.088-1.395.199-.522.334-1.115.487-1.863l-.003.014c.095-.444.59-1.6 1.259-2.853.672-1.258 1.522-2.687 2.356-4.034a133.091 133.091 0 0 1 3.216-4.946c.715-.798 4.317-4.508 9.488-7.972 4.94-3.304 11.31-6.335 18-6.677zm.509 1.37c-.014.045-.02.129-.03.17v.003l-.031.11v-.22zm-1.497 3.783a60.743 60.743 0 0 0-.319 2.343c-2.406.64-9.359 2.733-15.046 7.241l-.012.013c-1.958 1.565-4.438 4.174-6.605 7.153-2.168 2.983-4.03 6.303-4.544 9.435l.002-.002c-.905 5.464-1.462 13.888-1.507 17.267-1.082 1.21-2.761 1.548-4.07 1.566a12.09 12.09 0 0 0 .78-2.51c.411-2.07.485-4.648-.181-7.344v.005c-.355-1.471.017-3.956.564-5.957a31.34 31.34 0 0 1 1.207-3.553l.02-.044c.042-.102 3.626-8.612 11.052-16.31l.001-.002c.002 0 .002-.003.002-.003 6.536-6.701 15.252-8.725 18.656-9.298zm-.539 4.919a31.963 31.963 0 0 0-.018 2.876c-.766.258-2.274.672-4.385 1.539-2.35.964-5.205 2.412-8.002 4.66l.001-.002c-3.922 3.138-8.357 9.359-9.015 19.925v.004l-.001.021v.03c-.593 10.292.283 18.25-3.54 29.09-.758 1.066-1.889 1.254-3.127 1.156-.37-.03-.6-.117-.92-.187 1.778-3.04 2.666-7.382 3.194-11.34.623-4.66.704-8.681.704-8.681l.025-1.188c.11-3.634.675-11.413 1.47-16.238h.002c.401-2.452 2.07-5.6 4.114-8.415 2.045-2.808 4.465-5.332 6.173-6.696l-.006.001c4.724-3.748 10.56-5.746 13.331-6.555zm.206 5.343a7.465 7.465 0 0 0 .676 2.071c-.65.249-1.293.48-2.239.908-1.724.777-3.815 1.9-5.886 3.58-4.147 3.355-8.166 9.004-8.947 18.26-1.563 17.902-1.842 29.81-6.665 42.798-3.64 9.789-12.73 32.61-12.792 32.766-2.178 4.293-4.486 5.76-6.183 6.289a5.2 5.2 0 0 1-1.232.221c16.57-31.255 20.272-52.754 20.349-53.208 4.029-11.36 3.114-19.757 3.701-29.877v-.008c.623-9.956 4.708-15.46 8.121-18.193l.028-.02c2.558-2.05 5.19-3.392 7.383-4.29 1.644-.68 2.719-.984 3.686-1.297zm1.125 4.484c-.083.728-.168 1.327-.222 2.357-.027.489-.031.99-.038 1.498-5.048 2.048-7.99 4.543-9.54 7.594-1.645 3.24-1.768 6.881-1.906 11.01-.19 4.196-.332 19.281-3.952 34.072-2.954 11.986-11.48 30.822-12.05 32.075a.134.134 0 0 1-.004.013l-.003.004c-.024.051-.103.233-.105.233v.001l-.003.004c-1.9 4.193-3.938 5.65-5.398 6.189-.356.136-.641.17-.922.212 1.134-2.85 8.793-22.106 12.208-31.289 4.982-13.408 5.252-25.597 6.808-43.432v-.005c0-.002 0-.005.002-.005.731-8.657 4.338-13.57 8.064-16.59 1.863-1.508 3.765-2.534 5.361-3.253.688-.31 1.149-.475 1.7-.688zm-.133 6.423c.098.916.29 1.768.642 2.52-1.073.434-2.3 1.129-3.428 2.616-1.769 2.337-3.107 6.225-3.017 12.693v.007c.158 10.252-1.871 22.148-4.07 31.74a219.918 219.918 0 0 1-3.16 12.188 98.137 98.137 0 0 1-1.524 4.814l-.142-.03-.245 1.211c-1.486 7.388-4.493 10.773-7.04 12.42a9.878 9.878 0 0 1-2.602 1.204c2.094-4.675 8.715-19.818 11.393-30.69v-.002c3.71-15.154 3.842-30.577 4.02-34.55v-.029c.14-4.108.32-7.37 1.646-9.986 1.178-2.33 3.365-4.31 7.527-6.126zm2.186 2.06l.017.03-.01-.02-.001-.003c-.004.003-.004-.005-.006-.007zm-.459 2.579c.458.908.923 1.867 1.474 2.807.07.117.148.224.22.34a3.578 3.578 0 0 0-1.662 1.1c-1.21 1.438-1.834 3.977-1.742 9.206v.02c.316 16.205-3.95 34.317-5.774 41.346-1.305 4.578-3.318 6.247-4.933 6.946a5.603 5.603 0 0 1-1.416.396 94 94 0 0 0 1.38-4.373 222.871 222.871 0 0 0 3.2-12.317c2.221-9.7 4.294-21.72 4.13-32.318v.002c-.089-6.125 1.183-9.43 2.527-11.206.933-1.228 1.843-1.688 2.596-1.95zm3.363 5.282c.337.323.719.583 1.138.797.135.99.482 2.924 1.649 5.048.023.04.047.077.07.115v.199s-.015 16.097-5.38 33.997l-4.902 5.419c2.061-8.654 5.029-23.36 4.755-37.412v-.015c-.09-5.015.69-7.052 1.178-7.629.263-.31.397-.349.674-.4.178-.034.513-.078.818-.119zm1.809.251c.01.004.02.013.03.015 0 .008.007.046.008.057l-.031-.011zm3.349 8.584c1.071.974 2.427 1.781 4.078 2.299-.886 10.545-1.92 14.794-3.594 21.104-1.308 4.932-3.154 6.582-4.473 7.168a3.42 3.42 0 0 1-1.07.28c3.99-13.83 4.861-25.92 5.059-30.85zm7.728 2.9c.03 0 .058.005.089.005-.011.013-.03.06-.04.071-.01-.008-.042-.068-.05-.076zm-45.008.177l.315.078z" fill="#fff"/><g fill="#efbb22"><path d="M431.65 264.267s-3.025-10.26-8.523-11.41c-5.498-1.147.916-4.991-3.344-7.65 0 0 3.94-5.227 3.025-9.351-.915-4.079-2.658-10.172-10.675-11.726-2.688-.522-2.637-1.299-2.429-3.149-.22-.053-.146-.075-.915-.06-.33 2.69-.641 6.461-1.237 8.524-.597 2.016-2.747 14.293.322 16.358 0 0-1.236 7.926.274 10.583 1.56 2.613 3.069 7.008 5.498 7.606 0 0 .642 10.585 10.997 10.585l.184-1.65z"/><path d="M409.615 224.54c.588.386 1.357.61 2.282.79 3.732.725 5.832 2.414 7.23 4.417 1.397 2.003 2.037 4.372 2.485 6.375.353 1.594-.265 3.726-1.079 5.425-.812 1.702-1.728 2.92-1.728 2.92l-.807 1.07 1.137.707c.835.52.932.836.977 1.253.047.415-.105 1.039-.305 1.787-.2.744-.5 1.687-.051 2.748.447 1.058 1.565 1.701 3.12 2.026 2.08.437 4.116 2.93 5.494 5.515a30.76 30.76 0 0 1 1.914 4.455l-6.64 8.421-.096.862c-4.02-.323-6.013-2.427-7.217-4.614-1.306-2.38-1.465-4.777-1.465-4.777l-.055-.902-.875-.214c-.595-.146-1.487-1.063-2.31-2.472-.822-1.405-1.579-3.145-2.422-4.555-.423-.76-.657-3.38-.54-5.613a45.73 45.73 0 0 1 .416-4.167l.121-.771-.648-.44c-.247-.16-.702-.975-.902-2.304-.2-1.33-.206-3.056-.093-4.797.222-3.474.945-7.148 1.165-7.89l.002-.005v-.003c.41-1.422.673-3.355.89-5.247z"/></g><path d="M472.616 256.933s-3.341-5.27 0-10.539c3.342-5.271-2.472-5.543-1.833-9.072.596-3.48 4.857-16.999 20.433-16.4 15.625.595 26.622 11.727 29.376 13.47 2.748 1.788 5.77 4.402 7.605.917 0 0 1.235 2.929-.272 4.673-1.562 1.695-3.397 2.886-6.142 1.695 0 0 6.414 9.393 7.058 12.326.595 2.929.916 2.929 3.34 2.058 0 0-.322 2.659-1.833 2.932-1.507.322-3.664 1.466-5.175-.869 0 0 2.748 6.462 1.832 10.262-1.237 4.993.275 9.669 1.513 10.586 0 0-4.904 1.15-7.333-2.063 0 0 .322 15.859 4.58 20.807 0 0-4.903 2.059-7.008-1.15 0 0 3.666 22.269 21.074 54.57 0 0-5.818 2.016-10.4-7.059 0 0-5.175 1.743-9.165-7.056 0 0-9.762.322-12.829-14.938 0 0-6.415 1.466-9.167-8.2l-8.245-9.121s-5.52 2.088-8.243-8.2c-1.755-6.614-2.841-10.962-3.757-22.697-2.409 6.811-4.39 1.102-4.823-.567-1.698-6.541-.586-16.365-.586-16.365z" fill="#fff" stroke="#efbb22" stroke-width=".887"/><g fill="none" stroke="#efbb22" stroke-width=".887"><path d="M521.776 241.677c-1.51-1.697-15.266-15.167-30.245-15.167m1.24 4.948s12.463 1.097 21.077 9.943c7.652 7.928 11.317 16.726 11.317 16.726"/><path d="M493.366 236.176s8.938 2.016 15.578 7.286c3.667 2.933 9.808 10.264 10.723 15.859.916 5.539 1.51 14.662 1.51 17.591"/><path d="M493.36 241.677c1.562.594 7.795 1.877 13.156 6.184 3.666 2.93 7.928 8.795 8.57 19.059.595 10.262-.323 18.466 3.663 29.645"/><path d="M492.131 245.8c2.473 1.19 16.22 4.398 17.735 22.31 1.56 17.87 1.833 29.92 6.736 43.118 3.666 9.85 12.83 32.852 12.83 32.852"/><path d="M520.266 337.029s-9.12-19.886-12.233-32.534c-3.666-14.98-3.807-30.241-3.988-34.32-.271-8.244-.896-13.792-11.894-17.916"/><path d="M490.915 257.254c1.833.272 7.238 2.06 7.059 14.663-.322 20.848 8.505 47.838 9.468 50.174M487.564 262.8c1.238.325 5.068-.868 4.89 9.393-.322 16.45 3.987 34.643 5.818 41.696m-13.747-45.515s0 18.204 5.5 36.397"/></g><path d="M490.827 221.341v.003zm-1.687.821c-6.232.296-10.21 3.018-12.833 6.197-2.877 3.486-4.058 7.573-4.334 9.125v-.017l-.012.06v.017l-.01.044.01-.025c-.096.56.003.807.305 1.26.29.44.83.964 1.374 1.625.548.67 1.113 1.557 1.208 2.71.09 1.153-.295 2.43-1.215 3.884-1.65 2.603-1.448 5.134-.947 6.914 1.099-1.093 2.401-1.953 3.945-2.274.602-.126.967-.27 1.154-.387.193-.115.207-.164.222-.207.018-.033.024-.5-.158-1.175-.183-.68-.493-1.606-.374-2.681.088-.777.537-1.54 1.2-2.22-.385-.592-.868-1.306-1.397-2.408-.92-1.933-1.812-4.486-1.258-7l.051-.233.02-.018c.466-2.04 1.153-4.63 2.797-6.991 1.709-2.451 4.473-4.578 8.756-5.408 1.23-.239 1.507-.528 1.506-.52-.014.006-.014-.231-.01-.272zm3.444.074c.116 1.028.238 2.074.371 3.114 7.533.233 14.448 3.578 19.723 7.109 5.215 3.486 8.693 7.014 9.75 8.165 1.052.42 1.773.405 2.457.156.71-.263 1.422-.831 2.13-1.595.3-.348.39-.856.408-1.39-.132.07-.25.166-.384.217-.916.34-1.857.229-2.685-.045-1.632-.543-3.102-1.707-4.41-2.562-.86-.549-2.007-1.542-3.646-2.821-1.64-1.283-3.724-2.827-6.19-4.331-4.627-2.817-10.6-5.452-17.525-6.017zm.76 5.543c.089.462.168.997.266 1.328l-.003-.004c.088.29.195.814.297 1.309 2.78.376 13.044 2.184 20.803 10.142l.002.002h.001l.002.001.004.003.001.001.003.006c7.596 7.871 11.26 16.398 11.492 16.942.56.844.854.87 1.503.846.614-.022 1.469-.34 2.38-.535h.006l.006-.003.03-.005c.01-.001.044-.044.06-.055a2.076 2.076 0 0 1-.963-.252c-.573-.325-.886-.87-1.088-1.395-.2-.522-.335-1.115-.486-1.863l.003.014c-.095-.444-.589-1.6-1.26-2.853-.672-1.258-1.52-2.687-2.355-4.034a144.642 144.642 0 0 0-3.213-4.946c-.718-.798-4.317-4.508-9.493-7.972-4.936-3.304-11.307-6.335-17.998-6.677zm-.512 1.37c.015.045.022.129.031.17v.003l.03.11v-.22zm1.498 3.783c.115.742.224 1.5.322 2.343 2.406.64 9.357 2.733 15.042 7.241l.014.013c1.96 1.565 4.44 4.174 6.606 7.153 2.165 2.983 4.035 6.303 4.544 9.435v-.002c.906 5.464 1.458 13.888 1.507 17.267 1.08 1.21 2.757 1.548 4.07 1.566a12.09 12.09 0 0 1-.784-2.51c-.41-2.07-.483-4.648.183-7.344l-.002.005c.356-1.471-.015-3.956-.561-5.957a31.081 31.081 0 0 0-1.21-3.553l-.02-.044c-.043-.102-3.626-8.612-11.052-16.31l-.003-.002c-.003 0-.003-.003-.003-.003-6.532-6.701-15.247-8.725-18.653-9.298zm.54 4.919c.055.976.051 1.938.02 2.876.767.258 2.274.672 4.387 1.539 2.348.964 5.203 2.412 8 4.66v-.002c3.922 3.138 8.355 9.359 9.015 19.925v.055c.593 10.292-.283 18.25 3.542 29.09.756 1.066 1.888 1.254 3.126 1.156.369-.03.601-.117.916-.187-1.776-3.04-2.662-7.382-3.193-11.34a87.527 87.527 0 0 1-.703-8.681l-.025-1.188c-.111-3.634-.677-11.413-1.472-16.238h-.004c-.399-2.452-2.069-5.6-4.112-8.415-2.043-2.808-4.46-5.332-6.173-6.696l.003.001c-4.724-3.748-10.556-5.746-13.328-6.555zm-.205 5.343a7.561 7.561 0 0 1-.678 2.071c.65.249 1.292.48 2.237.908 1.724.777 3.817 1.9 5.888 3.58 4.147 3.355 8.166 9.004 8.947 18.26 1.563 17.902 1.842 29.81 6.667 42.798 3.64 9.789 12.73 32.61 12.794 32.766 2.175 4.293 4.48 5.76 6.178 6.289.47.147.863.194 1.23.221-16.57-31.255-20.269-52.754-20.35-53.208-4.026-11.36-3.111-19.757-3.698-29.877v-.008c-.623-9.956-4.71-15.46-8.123-18.193l-.027-.02c-2.56-2.05-5.193-3.392-7.383-4.29-1.64-.68-2.717-.984-3.682-1.297zm-1.127 4.484c.084.728.169 1.327.22 2.357.027.489.032.99.04 1.498 5.048 2.048 7.99 4.543 9.54 7.594 1.647 3.24 1.768 6.881 1.908 11.01.188 4.196.331 19.281 3.95 34.072 2.955 11.986 11.483 30.822 12.049 32.075a.11.11 0 0 0 .005.013l.003.004c.027.051.105.233.105.233v.001l.003.004c1.9 4.193 3.94 5.65 5.401 6.189.356.136.638.17.92.212-1.135-2.85-8.79-22.106-12.207-31.289-4.983-13.408-5.25-25.597-6.807-43.432v-.005c0-.002-.003-.005-.003-.005-.733-8.657-4.338-13.57-8.064-16.59-1.863-1.508-3.765-2.534-5.363-3.253-.686-.31-1.147-.475-1.7-.688zm.13 6.423c-.095.916-.285 1.768-.64 2.52 1.076.434 2.302 1.129 3.43 2.616 1.77 2.337 3.108 6.225 3.017 12.693v.007c-.154 10.252 1.869 22.148 4.07 31.74a222.48 222.48 0 0 0 3.16 12.188c.72 2.46 1.209 3.91 1.522 4.814l.142-.03.244 1.211c1.491 7.388 4.495 10.773 7.043 12.42a9.9 9.9 0 0 0 2.603 1.204c-2.096-4.675-8.713-19.818-11.394-30.69v-.002c-3.707-15.154-3.841-30.577-4.02-34.55l-.001-.019v-.01c-.14-4.108-.318-7.37-1.646-9.986-1.174-2.33-3.364-4.31-7.53-6.126zm-2.18 2.06l-.019.03.012-.02v-.003c0 .003.002-.005.007-.007zm.458 2.579c-.458.908-.925 1.867-1.476 2.807-.07.117-.148.224-.219.34a3.547 3.547 0 0 1 1.66 1.1c1.211 1.438 1.837 3.977 1.743 9.206v.02c-.317 16.205 3.948 34.317 5.772 41.346 1.305 4.578 3.319 6.247 4.932 6.946a5.612 5.612 0 0 0 1.418.396 94.316 94.316 0 0 1-1.383-4.373 226.756 226.756 0 0 1-3.198-12.317c-2.217-9.7-4.291-21.72-4.128-32.318v.002c.089-6.125-1.184-9.43-2.528-11.206-.932-1.228-1.839-1.688-2.593-1.95zm-3.365 5.282a4.74 4.74 0 0 1-1.138.797c-.135.99-.482 2.924-1.65 5.048-.021.04-.044.077-.067.115v.199s.011 16.097 5.378 33.997l4.9 5.419c-2.06-8.654-5.027-23.36-4.754-37.412v-.015c.09-5.015-.69-7.052-1.178-7.629-.263-.31-.397-.349-.675-.4-.172-.034-.513-.078-.816-.119zm-1.807.251c-.01.004-.02.013-.03.015 0 .008-.008.046-.008.057l.03-.011zm-3.347 8.584c-1.072.974-2.43 1.781-4.08 2.299.887 10.545 1.92 14.794 3.593 21.104 1.312 4.932 3.156 6.582 4.473 7.168.404.181.753.247 1.07.28-3.987-13.83-4.86-25.92-5.057-30.85zm-7.728 2.9c-.03 0-.059.005-.09.005.009.013.03.06.038.071.01-.008.046-.068.052-.076zm45.007.177l-.315.078z" fill="#fff"/><g fill="#efbb22"><path d="M468.352 264.267s3.027-10.26 8.523-11.41c5.5-1.147-.916-4.991 3.343-7.65 0 0-3.935-5.227-3.022-9.351.915-4.079 2.655-10.172 10.67-11.726 2.689-.522 2.64-1.299 2.427-3.149.22-.053.147-.075.917-.06.33 2.69.64 6.461 1.236 8.524.596 2.016 2.75 14.293-.322 16.358 0 0 1.238 7.926-.273 10.583-1.56 2.613-3.071 7.008-5.5 7.606 0 0-.64 10.585-10.999 10.585l-.18-1.65z"/><path d="M490.388 224.54c-.59.386-1.357.61-2.282.79-3.73.725-5.83 2.414-7.231 4.417-1.394 2.003-2.038 4.372-2.484 6.375-.353 1.594.265 3.726 1.081 5.425a18.95 18.95 0 0 0 1.726 2.92l.805 1.07-1.136.707c-.836.52-.927.836-.976 1.253-.044.415.105 1.039.304 1.787.202.744.502 1.687.053 2.748-.447 1.058-1.565 1.701-3.12 2.026-2.08.437-4.116 2.93-5.494 5.515a31.03 31.03 0 0 0-1.916 4.455l6.643 8.421.096.862c4.018-.323 6.01-2.427 7.216-4.614 1.308-2.38 1.463-4.777 1.463-4.777l.056-.902.876-.214c.594-.146 1.484-1.063 2.308-2.472.822-1.405 1.58-3.145 2.421-4.555.423-.76.657-3.38.542-5.613a44.731 44.731 0 0 0-.418-4.167l-.12-.771.647-.44c.25-.16.702-.975.903-2.304.2-1.33.207-3.056.094-4.797-.223-3.474-.947-7.148-1.167-7.89l-.001-.005v-.003c-.407-1.422-.674-3.355-.89-5.247z"/></g><g fill="#fff"><path d="M481.028 354.032l17.955-16.44-30.866-27.915-36.752-.292-29.506 27.731 20.852 16.049 28.023 9.417z" stroke="#efbb22" stroke-width=".886"/><path d="M431.847 310.614l-28.098 26.407 19.548 15.047 27.468 9.233 29.648-8.368 16.748-15.33-29.516-26.702zm6.974 14.04l.349.312a69.523 69.523 0 0 0 3.215 2.704l.695.55v.004l.833.625a73.737 73.737 0 0 0 3.224 2.282c.39-2.537.502-4.36.502-4.36l.148-2.43 2.156 1.527 2.097-2.097.181 3s.117 1.918.535 4.562a79.925 79.925 0 0 0 3.337-2.347l.834-.622.703-.554a72.16 72.16 0 0 0 3.22-2.682l.896-.798.62-.583a62.238 62.238 0 0 0 2.995-2.998l.407-.429.558-.62a63.426 63.426 0 0 0 2.797-3.342l1.051-1.35.94 1.433c3.139 4.782 9.074 12.057 18.2 16.608l.015.004v.004c.923.471 1.63.66 2.286 1.456.324.4.508 1.191.316 1.743-.2.555-.53.88-.92 1.23l-.013.009-.014.008c-.596.51-1.305 1.236-2.334 1.727-.95.452-2.214.574-3.547.135.156.147.33.242.472.448.295.425.395 1.232.152 1.753-.244.52-.59.807-.997 1.115l-.014.007-.014.01c-.614.444-1.346 1.093-2.383 1.496-.799.314-1.802.388-2.85.099.198.18.402.329.574.598.27.438.357 1.25.086 1.765-.27.516-.636.783-1.059 1.063-.63.421-1.39 1.045-2.45 1.404-1.054.36-2.428.316-3.773-.442-.648-.359-1.557-1.038-2.803-2.108-.29-.253-.695-.695-1.013-.981.385.416.675.799 1.078 1.22v.01c.646.685 1.157.952 1.647 1.733.244.39.355 1.245.041 1.765-.307.517-.677.721-1.097.966-.777.451-1.913 1.026-3.224 1.316-1.32.285-2.896.28-4.283-.61v-.006c-.741-.485-1.395-1.251-2.302-2.396-.908-1.153-1.95-2.645-3.02-4.387a58.039 58.039 0 0 1-3.076-5.69c.44 1.159.937 2.25 1.507 3.17 2.038 3.241 3.715 6.765 4.034 7.411.03.041.229.35.412.713.198.389.425.909.4 1.605-.029.699-.478 1.538-1.176 1.98-.696.445-1.538.636-2.662.714l-.03.003-7.333.139h-.014s-4.617.001-7.402-.14h-.014l-.014-.002c-1.124-.078-1.965-.27-2.661-.713-.698-.444-1.152-1.282-1.176-1.98-.024-.697.206-1.213.4-1.606.183-.363.384-.672.408-.713.239-.48 1.234-2.567 2.57-4.94-1.05 1.693-2.076 3.158-2.96 4.28-.9 1.142-1.538 1.895-2.285 2.377-1.4.915-3.001.92-4.323.622-1.318-.296-2.438-.877-3.194-1.33-.422-.246-.793-.448-1.093-.976-.306-.532-.17-1.388.078-1.764.495-.758 1-1.012 1.618-1.671v-.01c.42-.441.72-.838 1.114-1.27-.324.296-.738.748-1.033 1.005-1.248 1.074-2.162 1.766-2.809 2.13v.005c-1.332.738-2.705.758-3.758.395-1.052-.363-1.825-.984-2.46-1.41l-.014-.006-.014-.006c-.411-.283-.773-.561-1.032-1.08-.258-.518-.16-1.316.107-1.74.176-.276.385-.434.587-.615-1.066.304-2.084.23-2.896-.088-1.034-.401-1.77-1.05-2.382-1.496l-.014-.004-.014-.01c-.394-.296-.742-.577-.98-1.106-.238-.526-.116-1.317.169-1.73.141-.206.306-.301.458-.446-1.346.451-2.625.315-3.573-.156-1.015-.502-1.704-1.23-2.274-1.742-.388-.332-.725-.642-.934-1.187-.21-.547-.039-1.355.287-1.758.657-.805 1.364-.986 2.317-1.463 9.123-4.56 15.054-11.857 18.183-16.64l.362-.558h1.268l.367.479a62.475 62.475 0 0 0 2.755 3.327l.556.621-.015.019.404.404.017.02a69.506 69.506 0 0 0 2.985 3.015l.616.578z"/><g fill="#efbb22"><path d="M450.2 327.635l-1.097-.779s-.642 10.63-4.308 16.54c-2.016 3.21-3.664 6.691-3.986 7.332-.324.597-2.062 2.748 1.922 3.024 2.702.139 7.331.139 7.331.139l7.287-.139c3.989-.275 2.246-2.427 1.923-3.024-.324-.641-1.974-4.124-3.988-7.331-3.666-5.912-4.309-16.54-4.309-16.54zm19.885-10.524c3.215 4.898 9.277 12.344 18.68 17.03 1.877.964 2.7 1.285 1.42 2.43-1.281 1.1-2.567 2.519-4.948 1.56-2.008-.81-13.062-7.804-17.995-17.61a69.606 69.606 0 0 0 2.843-3.41z"/><path d="M466.258 321.585c2.75 4.986 7.986 12.487 16.551 17.689 1.79 1.053 2.518 1.419 1.194 2.427-1.33.963-2.658 2.246-4.904 1.15-1.839-.96-11.824-8.471-15.894-18.208a72.23 72.23 0 0 0 3.053-3.058z"/><path d="M461.658 326.045c2.574 5.108 7.463 12.69 15.647 18.177 1.743 1.147 2.476 1.557 1.1 2.475-1.377.916-2.748 2.152-4.95.916-1.796-.994-11.403-8.94-15.072-18.837a71.506 71.506 0 0 0 3.275-2.73zm-4.837 3.923c1.896 4.252 5.537 10.512 12.423 17.692 1.42 1.51 2.291 1.742.868 2.566-1.42.824-4.168 2.063-6.233.737-1.703-1.113-8.001-9.757-10.46-18.598a81.607 81.607 0 0 0 3.401-2.397zm-26.831-13.033c-3.203 4.897-9.262 12.371-18.659 17.068-1.924.962-2.704 1.283-1.42 2.383 1.236 1.099 2.517 2.569 4.902 1.603 2.009-.808 13.038-7.838 17.988-17.663a62.745 62.745 0 0 1-2.811-3.391z"/><path d="M433.78 321.405c-2.76 4.992-8.004 12.506-16.541 17.686-1.743 1.099-2.474 1.466-1.192 2.427 1.33.963 2.658 2.246 4.902 1.147 1.873-.916 11.793-8.446 15.871-18.181a74.847 74.847 0 0 1-3.042-3.07v-.009z"/><path d="M438.353 325.882c-2.562 5.114-7.432 12.702-15.616 18.161-1.694 1.147-2.429 1.557-1.099 2.473 1.377.916 2.799 2.155 4.95.962 1.831-1.032 11.39-8.965 15.034-18.844a78.114 78.114 0 0 1-3.269-2.752zm4.825 3.946c-1.89 4.257-5.518 10.513-12.377 17.693-1.375 1.464-2.291 1.693-.87 2.517 1.377.826 4.125 2.106 6.233.735 1.667-1.073 7.97-9.686 10.449-18.517a71.632 71.632 0 0 1-3.435-2.428z"/></g></g><g fill="#fff"><path d="M425.817 297.586l-2.729 1.226c-1.501 1.226-1.91 3.136-1.91 3.136s1.773.41 3.546-.135c1.772-.547 2.592-1.365 2.592-1.365zm1.628 3.256l-2.728 1.225c-1.501 1.229-1.91 3.139-1.91 3.139s1.773.41 3.546-.138c1.772-.545 2.592-1.364 2.592-1.364zm1.629 3.401l-2.728 1.226c-1.503 1.23-1.91 3.138-1.91 3.138s1.773.41 3.546-.136c1.771-.549 2.59-1.367 2.59-1.367zm1.765 3.554l-2.73 1.228c-1.5 1.225-1.909 3.136-1.909 3.136s1.772.41 3.546-.136c1.772-.547 2.59-1.364 2.59-1.364zm2.037 3.525l-2.727 1.226c-1.502 1.224-1.91 3.136-1.91 3.136s1.772.41 3.546-.139c1.772-.545 2.59-1.363 2.59-1.363z" stroke="#efbb22" stroke-width=".886"/><path d="M425.36 298.91l.652 1.247a7.31 7.31 0 0 1-1.585.68c-.631.198-1.288.243-1.824.233.23-.45.566-.972 1.037-1.386zm1.63 3.256l.652 1.247c-.346.206-.86.457-1.585.678-.634.199-1.287.244-1.823.233.228-.45.563-.973 1.035-1.388zm1.628 3.403l.652 1.245a7.172 7.172 0 0 1-1.585.681c-.631.196-1.288.243-1.827.234.232-.455.567-.972 1.04-1.388zm1.763 3.554l.652 1.246c-.346.207-.859.453-1.585.68-.63.2-1.287.245-1.823.235.23-.456.566-.973 1.036-1.387zm2.039 3.525l.652 1.246c-.346.207-.86.456-1.585.68-.632.196-1.286.241-1.823.233.23-.454.564-.976 1.035-1.388z"/><path d="M474.05 297.586l2.73 1.226c1.5 1.226 1.909 3.136 1.909 3.136s-1.772.41-3.546-.135c-1.772-.547-2.591-1.365-2.591-1.365zm-1.627 3.256l2.727 1.225c1.502 1.229 1.91 3.139 1.91 3.139s-1.772.41-3.546-.138c-1.772-.546-2.591-1.364-2.591-1.364zm-1.63 3.401l2.728 1.226c1.503 1.23 1.912 3.138 1.912 3.138s-1.774.41-3.548-.136c-1.77-.549-2.59-1.367-2.59-1.367zm-1.764 3.554l2.729 1.228c1.501 1.225 1.91 3.136 1.91 3.136s-1.773.41-3.546-.136c-1.773-.547-2.59-1.364-2.59-1.364zm-2.038 3.525l2.728 1.226c1.501 1.224 1.91 3.136 1.91 3.136s-1.773.41-3.546-.139c-1.772-.545-2.59-1.364-2.59-1.364z" stroke="#efbb22" stroke-width=".886"/><path d="M474.508 298.91l-.652 1.247c.346.206.859.455 1.585.679.631.199 1.287.244 1.823.234-.23-.45-.565-.973-1.036-1.386zm-1.63 3.256l-.652 1.246c.345.207.86.458 1.585.68.633.198 1.287.243 1.823.232-.228-.45-.563-.973-1.035-1.388zm-1.628 3.403l-.652 1.244c.348.209.86.458 1.585.682.631.196 1.288.243 1.826.234-.231-.455-.567-.972-1.039-1.388zm-1.763 3.554l-.653 1.246c.346.207.86.452 1.585.68.632.2 1.288.244 1.824.235-.23-.456-.566-.973-1.037-1.387zm-2.04 3.524l-.651 1.247c.346.206.86.456 1.585.68.632.196 1.285.241 1.823.232-.23-.453-.564-.975-1.035-1.387z"/></g><g fill="#fff"><path d="M464.596 252.88l13.484 17.807c3.739 24.3-6.454 45.624-28.015 59.35-21.535-13.734-31.703-35.07-27.97-59.352l13.438-17.81h29.059z" stroke="#efbb22" stroke-width="1.772"/><path d="M477.01 271.136c3.521 23.55-6.189 44.082-26.946 57.566-20.729-13.494-30.42-34.03-26.903-57.566l12.928-17.133h27.944zm-39.944-14.679l-.336.445-11.76 15.513-.04.28c-3.223 21.265 5.708 40.045 24.534 52.067l.604.384.604-.384c18.85-12.012 27.806-30.783 24.581-52.066l-.038-.282-12.145-15.96h-.561z"/></g><g fill="#efbb22"><path d="M450.202 257.58v66.224c18.522-11.817 27.216-30.058 24.05-50.935l-11.632-15.29h-.003zm-12.465 0l-11.586 15.289c-3.164 20.867 5.511 39.126 24.027 50.95l.024-.015V257.58z"/><path d="M442.085 257.58v60.106a62.017 62.017 0 0 0 8.094 6.13 61.946 61.946 0 0 0 8.14-6.16v-60.08z" stroke="#bc8810" stroke-width=".408" stroke-dasharray="0,3.17144545"/></g><path d="M462.618 257.58l11.634 15.289c3.167 20.882-5.53 39.135-24.072 50.95-18.518-11.825-27.196-30.084-24.027-50.95l11.585-15.29z" fill="none"/><g fill="#fff"><path d="M418.033 314.347s-7.518-4.216-4.308-6.37c2.887-1.877 4.627 3.345 4.308 6.37z" stroke="#efbb22" stroke-width=".886"/><path d="M414.893 308.631c.105 0 .191.038.299.09.25.121.622.5.936 1.095.357.682.622 1.618.758 2.52a16.479 16.479 0 0 1-1.496-1.17c-.676-.605-1.202-1.272-1.34-1.654-.066-.192-.055-.267-.037-.324.016-.057.055-.152.304-.323.274-.169.439-.234.576-.234z"/><path d="M420.093 318.196s-5.5-6.554-.502-10.631c0 0 4.032 3.62.502 10.632z" stroke="#efbb22" stroke-width=".886"/><path d="M419.495 309.157c.218.349.453.82.645 1.42.398 1.245.578 3.01-.26 5.402-.32-.55-.649-1.21-.898-1.92-.338-.96-.51-1.99-.36-2.941.106-.68.356-1.33.873-1.961z"/><path d="M420.093 318.196s-1.374-6.596-8.797-5.638c0 0 2.382 6.875 8.797 5.639z" stroke="#efbb22" stroke-width=".886"/><path d="M412.95 313.534c2.42.042 3.787 1.07 4.703 2.169a7.128 7.128 0 0 1 .983 1.572c-2.101.031-3.503-.981-4.547-2.154a9.352 9.352 0 0 1-1.14-1.587z"/><path d="M421.514 321.999s-.687-6.282-8.02-5.317c0 0 .873 4.812 8.02 5.317z" stroke="#efbb22" stroke-width=".886"/><path d="M415.049 317.65c2.393 0 3.585.962 4.347 1.974a5.65 5.65 0 0 1 .642 1.109c-2.334-.438-3.63-1.405-4.405-2.288-.25-.28-.44-.552-.59-.794z"/><path d="M422.019 321.814s-5.178-6.046-.183-10.125c0 0 4.352 4.49.183 10.125z" stroke="#efbb22" stroke-width=".886"/><path d="M421.71 313.307a7.137 7.137 0 0 1 .754 1.65c.404 1.3.543 2.943-.488 4.922a9.954 9.954 0 0 1-.903-1.93c-.296-.892-.435-1.846-.264-2.75a4.075 4.075 0 0 1 .902-1.892z"/><path d="M423.623 325.16s-.872-5.637-8.201-4.674c0 0 1.74 5.956 8.201 4.673z" stroke="#efbb22" stroke-width=".886"/><path d="M417.089 321.443c2.365-.003 3.602.856 4.375 1.728a5.175 5.175 0 0 1 .732 1.095c-2.144.117-3.417-.739-4.312-1.694a6.735 6.735 0 0 1-.848-1.129z"/><path d="M423.898 325.664s-5.177-6.096-.183-10.175c0 .004 4.03 3.622.183 10.175z" stroke="#efbb22" stroke-width=".886"/><path d="M423.616 317.08a5.954 5.954 0 0 1 .607 1.356c.366 1.2.5 2.87-.46 5.122a9.857 9.857 0 0 1-.81-1.787c-.294-.898-.433-1.862-.261-2.77.12-.651.39-1.288.924-1.922z"/><path d="M426.327 329.146s-5.36-5.773-.369-9.805c0 0 4.126 3.116.369 9.805z" stroke="#efbb22" stroke-width=".886"/><path d="M425.914 320.858a4.887 4.887 0 0 1 .623 1.23c.382 1.102.551 2.707-.401 5.01a9.363 9.363 0 0 1-.858-1.71c-.313-.853-.465-1.76-.31-2.622.113-.638.378-1.27.946-1.908z"/><path d="M426.327 329.146s-1.331-5.773-8.66-4.815c0 .004 2.2 6.1 8.66 4.815z" stroke="#efbb22" stroke-width=".886"/><path d="M423.965 327.118a5.821 5.821 0 0 1 .836 1.136c-2.115.08-3.48-.798-4.468-1.79-2.617-2.526 2.759-.249 3.632.654z"/><path d="M428.387 332.812s-1.144-5.59-9.163-5.317c0 0 2.702 6.555 9.163 5.317z" stroke="#efbb22" stroke-width=".886"/><path d="M421.101 328.618c2.578.248 4.035 1.218 4.933 2.168a6.037 6.037 0 0 1 .83 1.107c-2.132.034-3.616-.934-4.72-2.039a9.232 9.232 0 0 1-1.043-1.236z"/><path d="M428.846 332.491s-5.226-3.16-.825-9.989c0 0 3.163 2.978.825 9.99z" stroke="#efbb22" stroke-width=".886"/><path d="M428.076 324.593c.07.176.14.376.208.59.354 1.157.564 2.884.014 5.32a5.288 5.288 0 0 1-.535-.895c-.509-1.112-.785-2.682.32-5.015z"/><path d="M431.687 336.156s-1.833-5.173-9.118-4.215c0 0 1.512 5.178 9.118 4.215z" stroke="#efbb22" stroke-width=".886"/><path d="M424.36 332.893c2.38.001 3.841.79 4.802 1.61a6.011 6.011 0 0 1 .698.705c-2.492.004-3.954-.791-4.876-1.602a5.785 5.785 0 0 1-.68-.713z"/><path d="M431.687 336.156s-6.277-5.45-1.33-9.482c0-.002 4.489 2.792 1.33 9.482z" stroke="#efbb22" stroke-width=".886"/><path d="M430.394 328.11a4.972 4.972 0 0 1 .843 1.256c.499 1.047.825 2.573.08 4.845-.406-.489-.853-1.097-1.193-1.77-.416-.814-.657-1.68-.576-2.479.06-.61.278-1.216.846-1.853z"/><path d="M435.946 339.502s-3.802-5.087-10.903-3.757c0 0 5.04 5.223 10.903 3.757z" stroke="#efbb22" stroke-width=".886"/><path d="M427.827 336.597a9.915 9.915 0 0 1 5.76 2.079c-2.274-.082-4.334-1.125-5.76-2.078z"/><path d="M435.946 339.502s-6.78-2.247-2.885-9.667c0 0 3.071.731 2.885 9.667z" stroke="#efbb22" stroke-width=".886"/><path d="M433.448 331.545c.061.089.128.19.194.306.518.91 1.113 2.66 1.221 5.85a5.422 5.422 0 0 1-.985-.922c-.862-1.064-1.496-2.565-.43-5.235z"/><path d="M438.834 342.343s-3.254-5.361-9.988-3.483c0 0 3.803 5.637 9.988 3.483z" stroke="#efbb22" stroke-width=".886"/><path d="M431.652 339.528c1.76-.003 3.099.584 4.117 1.267a8.168 8.168 0 0 1 1.144.916c-1.993.267-3.573-.384-4.799-1.196a9.618 9.618 0 0 1-1.21-.953 8.553 8.553 0 0 1 .748-.034z"/><path d="M438.834 342.343s-6.873-4.858-2.475-9.576c0 0 4.4 1.969 2.475 9.576z" stroke="#efbb22" stroke-width=".886"/><path d="M436.574 334.211c.25.233.54.567.823 1.041.58.978 1.091 2.538.744 5.064a10.25 10.25 0 0 1-1.293-1.575c-.515-.793-.863-1.663-.883-2.51-.014-.646.13-1.3.61-2.02z"/><path d="M442.64 346.193s-7.61-4.992-3.623-10.078c0-.002 4.904 2.104 3.622 10.078z" stroke="#efbb22" stroke-width=".886"/><path d="M439.336 337.58c.32.265.706.646 1.093 1.2.745 1.068 1.446 2.724 1.343 5.351a12.221 12.221 0 0 1-1.578-1.713c-.628-.847-1.108-1.796-1.227-2.723a3.432 3.432 0 0 1 .37-2.115z"/><path d="M442.64 346.193s-3.025-6.186-10.587-3.342c0-.004 4.352 6.137 10.586 3.342z" stroke="#efbb22" stroke-width=".886" stroke-linejoin="round"/><path d="M435.868 343.157c1.604 0 2.786.537 3.696 1.175a7.305 7.305 0 0 1 1.415 1.313c-2.193.577-3.977-.086-5.397-.984a10.43 10.43 0 0 1-1.618-1.274 8.383 8.383 0 0 1 1.904-.23z"/><g><path d="M447.082 349.995s-7.606-4.449-4.125-9.852c0 0 4.448 1.88 4.125 9.852z" stroke="#efbb22" stroke-width=".886"/><path d="M443.361 341.696c.268.238.584.567.912 1.017.741 1.014 1.504 2.613 1.702 5.144a11.26 11.26 0 0 1-1.432-1.44c-.659-.803-1.176-1.72-1.356-2.653a3.696 3.696 0 0 1 .174-2.068z"/><path d="M446.484 349.674s-3.846-5.727-10.54-2.566c0 0 4.814 5.728 10.54 2.566z" stroke="#efbb22" stroke-width=".886"/><path d="M439.895 347.212c1.324-.001 2.403.411 3.294.924a8.08 8.08 0 0 1 1.526 1.147c-1.982.638-3.707.125-5.136-.65a10.205 10.205 0 0 1-1.668-1.128 7.223 7.223 0 0 1 1.984-.293z"/></g><g><path d="M449.325 352.56s-6.368-3.848-2.84-9.254c0 0 5.086 2.565 2.84 9.254z" stroke="#efbb22" stroke-width=".886"/><path d="M446.847 344.87a5.81 5.81 0 0 1 1.011 1.15c.69 1.033 1.252 2.493.845 4.705-1.792-1.68-2.609-4.04-1.856-5.855z"/><path d="M449.325 352.56s-2.52-5.131-9.206-1.924c0 0 3.48 5.087 9.206 1.924z" stroke="#efbb22" stroke-width=".886"/><path d="M444.229 350.634a4.657 4.657 0 0 1 2.448.682 4.861 4.861 0 0 1 1.025.824c-1.99.756-3.46.336-4.607-.296a6.802 6.802 0 0 1-1.142-.801c.874-.294 1.625-.41 2.276-.409z"/></g><g><path d="M482.074 314.344s7.518-4.216 4.308-6.37c-2.887-1.876-4.627 3.345-4.308 6.37z" stroke="#efbb22" stroke-width=".886"/><path d="M485.214 308.628a.666.666 0 0 0-.299.09c-.25.122-.622.5-.935 1.096-.358.681-.623 1.617-.759 2.519.49-.345 1.022-.746 1.496-1.17.676-.605 1.202-1.272 1.34-1.654.066-.192.055-.267.038-.324-.017-.056-.056-.151-.305-.323-.274-.169-.438-.234-.575-.234z"/><path d="M480.014 318.194s5.5-6.555.502-10.632c0 0-4.032 3.62-.502 10.632z" stroke="#efbb22" stroke-width=".886"/><path d="M480.612 309.154a6.26 6.26 0 0 0-.645 1.42c-.398 1.245-.578 3.01.261 5.402.32-.55.648-1.21.898-1.92.337-.96.508-1.99.36-2.941a3.951 3.951 0 0 0-.874-1.96z"/><path d="M480.014 318.194s1.374-6.597 8.797-5.639c0 0-2.382 6.875-8.797 5.639z" stroke="#efbb22" stroke-width=".886"/><path d="M487.158 313.53c-2.42.043-3.788 1.071-4.704 2.17a7.128 7.128 0 0 0-.982 1.572c2.1.031 3.503-.98 4.546-2.153a9.352 9.352 0 0 0 1.14-1.588z"/><path d="M478.593 321.996s.687-6.282 8.02-5.317c0 0-.873 4.812-8.02 5.317z" stroke="#efbb22" stroke-width=".886"/><path d="M485.058 317.648c-2.393 0-3.585.961-4.346 1.973a5.65 5.65 0 0 0-.643 1.11c2.334-.44 3.631-1.406 4.405-2.29.25-.279.441-.55.59-.793z"/><path d="M478.089 321.812s5.177-6.047.183-10.126c0 0-4.353 4.49-.183 10.126z" stroke="#efbb22" stroke-width=".886"/><path d="M478.397 313.304a7.137 7.137 0 0 0-.753 1.65c-.404 1.3-.543 2.943.487 4.923.32-.53.66-1.203.904-1.931.296-.892.435-1.846.263-2.751a4.076 4.076 0 0 0-.901-1.891z"/><path d="M476.484 325.156s.872-5.635 8.202-4.673c0 0-1.74 5.956-8.202 4.673z" stroke="#efbb22" stroke-width=".886"/><path d="M483.018 321.44c-2.365-.003-3.602.857-4.375 1.728a5.175 5.175 0 0 0-.732 1.095c2.144.117 3.417-.739 4.312-1.694a6.735 6.735 0 0 0 .848-1.129z"/><path d="M476.209 325.66s5.177-6.095.183-10.174c0 .004-4.03 3.622-.183 10.175z" stroke="#efbb22" stroke-width=".886"/><path d="M476.491 317.076a5.954 5.954 0 0 0-.607 1.357c-.366 1.2-.499 2.87.46 5.123.29-.505.59-1.12.81-1.788.294-.898.433-1.862.261-2.77a4.035 4.035 0 0 0-.924-1.921z"/><path d="M473.78 329.143s5.36-5.773.37-9.805c0 0-4.127 3.116-.37 9.805z" stroke="#efbb22" stroke-width=".886"/><path d="M474.193 320.855a4.887 4.887 0 0 0-.622 1.23c-.383 1.102-.552 2.707.4 5.01a9.366 9.366 0 0 0 .858-1.71c.314-.853.465-1.76.31-2.622-.113-.638-.378-1.27-.946-1.908z"/><path d="M473.78 329.143s1.332-5.773 8.661-4.815c0 .004-2.2 6.1-8.66 4.815z" stroke="#efbb22" stroke-width=".886"/><path d="M476.142 327.115a5.821 5.821 0 0 0-.836 1.136c2.115.081 3.48-.798 4.468-1.79 2.618-2.526-2.758-.249-3.632.655z"/><path d="M471.72 332.809s1.144-5.59 9.163-5.316c0 0-2.702 6.554-9.163 5.316z" stroke="#efbb22" stroke-width=".886"/><path d="M479.006 328.615c-2.577.249-4.035 1.218-4.932 2.168a6.037 6.037 0 0 0-.831 1.107c2.132.034 3.617-.934 4.721-2.038a9.232 9.232 0 0 0 1.042-1.236z"/><path d="M471.26 332.489s5.227-3.16.826-9.99c0 0-3.163 2.977-.825 9.99z" stroke="#efbb22" stroke-width=".886"/><path d="M472.031 324.59c-.07.176-.14.376-.207.59-.354 1.157-.565 2.884-.014 5.321a5.288 5.288 0 0 0 .534-.896c.509-1.112.786-2.682-.319-5.015z"/><path d="M468.42 336.153s1.833-5.173 9.119-4.215c0 0-1.513 5.178-9.12 4.215z" stroke="#efbb22" stroke-width=".886"/><path d="M475.747 332.89c-2.38.001-3.84.79-4.802 1.61a6.011 6.011 0 0 0-.698.705c2.493.004 3.954-.791 4.876-1.602.274-.242.499-.486.68-.713z"/><path d="M468.42 336.153s6.278-5.45 1.331-9.481c-.001-.003-4.49 2.791-1.331 9.481z" stroke="#efbb22" stroke-width=".886"/><path d="M469.713 328.106a4.972 4.972 0 0 0-.842 1.256c-.5 1.048-.825 2.574-.081 4.846.407-.489.853-1.097 1.194-1.77.415-.814.656-1.68.575-2.479-.06-.61-.278-1.216-.846-1.853z"/><path d="M464.161 339.5s3.802-5.087 10.904-3.757c0 0-5.042 5.222-10.904 3.756z" stroke="#efbb22" stroke-width=".886"/><path d="M472.28 336.594a9.917 9.917 0 0 0-5.76 2.079c2.274-.082 4.334-1.124 5.76-2.079z"/><path d="M464.161 339.5s6.78-2.248 2.885-9.668c0 0-3.07.731-2.885 9.667z" stroke="#efbb22" stroke-width=".886"/><path d="M466.659 331.542c-.06.09-.128.191-.194.306-.518.91-1.113 2.66-1.22 5.85.33-.243.68-.55.984-.922.862-1.063 1.496-2.565.43-5.235z"/><path d="M461.273 342.34s3.254-5.361 9.988-3.483c0 0-3.802 5.637-9.988 3.483z" stroke="#efbb22" stroke-width=".886"/><path d="M468.455 339.525c-1.76-.003-3.099.584-4.117 1.267a8.168 8.168 0 0 0-1.144.916c1.993.267 3.573-.384 4.799-1.196a9.618 9.618 0 0 0 1.21-.953 8.553 8.553 0 0 0-.748-.034z"/><path d="M461.273 342.34s6.873-4.858 2.475-9.576c0 0-4.399 1.969-2.475 9.576z" stroke="#efbb22" stroke-width=".886"/><path d="M463.533 334.208c-.25.233-.54.567-.822 1.04-.582.98-1.092 2.539-.745 5.065.433-.438.903-.975 1.293-1.575.515-.792.864-1.663.884-2.51.014-.646-.13-1.3-.61-2.02z"/><g><path d="M457.468 346.19s7.609-4.992 3.622-10.078c0-.002-4.904 2.104-3.622 10.078z" stroke="#efbb22" stroke-width=".886"/><path d="M460.771 337.577a6.03 6.03 0 0 0-1.093 1.2c-.744 1.068-1.446 2.724-1.342 5.351a12.247 12.247 0 0 0 1.578-1.712c.627-.848 1.107-1.797 1.226-2.724.09-.686.017-1.37-.369-2.115z"/><path d="M457.468 346.19s3.024-6.186 10.586-3.342c0-.004-4.352 6.137-10.586 3.342z" stroke="#efbb22" stroke-width=".886"/><path d="M464.239 343.154c-1.603 0-2.786.538-3.696 1.176a7.305 7.305 0 0 0-1.415 1.312c2.193.577 3.977-.086 5.397-.983a10.43 10.43 0 0 0 1.618-1.275 8.385 8.385 0 0 0-1.904-.23z"/></g><g><path d="M453.025 349.992s7.606-4.449 4.125-9.852c0 0-4.447 1.88-4.125 9.852z" stroke="#efbb22" stroke-width=".886"/><path d="M456.746 341.693a6.315 6.315 0 0 0-.911 1.018c-.742 1.013-1.505 2.612-1.703 5.143.47-.397.977-.886 1.432-1.44.66-.803 1.177-1.72 1.357-2.653a3.696 3.696 0 0 0-.175-2.068z"/><path d="M453.623 349.672s3.846-5.728 10.54-2.567c0 0-4.814 5.728-10.54 2.567z" stroke="#efbb22" stroke-width=".886"/><path d="M460.213 347.21c-1.325-.002-2.403.41-3.295.923a8.08 8.08 0 0 0-1.526 1.147c1.982.638 3.708.125 5.137-.65.656-.35 1.217-.757 1.667-1.128a7.223 7.223 0 0 0-1.983-.293z"/></g><g><path d="M450.782 352.557s6.368-3.848 2.84-9.254c0 0-5.086 2.565-2.84 9.254z" stroke="#efbb22" stroke-width=".886"/><path d="M453.26 344.867a5.811 5.811 0 0 0-1.01 1.151c-.69 1.032-1.253 2.492-.846 4.704 1.792-1.68 2.61-4.04 1.856-5.855z"/><path d="M450.782 352.557s2.52-5.131 9.206-1.924c0 0-3.48 5.087-9.206 1.924z" stroke="#efbb22" stroke-width=".886"/><path d="M455.879 350.631a4.66 4.66 0 0 0-2.449.682 4.861 4.861 0 0 0-1.025.824c1.99.756 3.46.336 4.608-.296a6.802 6.802 0 0 0 1.141-.801c-.873-.294-1.625-.41-2.275-.409z"/></g></g></g><g fill="#fff"><path d="M399.683 333.557c-3.628.083-7.37 3.594-8.989 4.977-2.198 1.922-2.838 2.843-2.838 2.843-.642.962-1.603-5.727-8.294 1.282-6.69 7.008-6.368 6.692-6.05 9.895.324 3.16.324 5.085 0 7.926 0 0 7.65-3.16 7.65-4.125 0 0 1.65 8.433 6.371 10.173 3.024 1.1 4.123-1.28 4.123-1.28s6.368-4.765 6.69-6.052c.322-1.282 20.987 19.752 51.825 19.429 30.836.323 51.5-20.712 51.823-19.429.319 1.283 6.687 6.052 6.687 6.052s1.102 2.385 4.126 1.28c4.718-1.74 6.368-10.173 6.368-10.173 0 .963 7.653 4.125 7.653 4.125-.322-2.84-.322-4.763 0-7.926.322-3.207.64-2.887-6.05-9.895-6.688-7.009-7.65-.323-8.295-1.285 0 0-.642-.916-2.84-2.84-2.244-1.923-8.612-7.97-13.06-3.16-19.839 21.213-41.009 21.945-46.413 21.945-5.41 0-26.577-.736-46.417-21.945-1.246-1.355-2.652-1.85-4.07-1.818z" stroke="#efbb22" stroke-width=".886"/><path d="M399.727 335.596c-.72.022-1.567.255-2.453.675-2.022.96-4.037 2.775-5.241 3.808-1.891 1.656-2.406 2.333-2.49 2.449v.02a1.71 1.71 0 0 1-.166.2v.008c-.648.717-1.627 2.071-2.393 3.245.043.02.085.03.114.05 1.725.83 3.16 2.357 5.729 5.114 4.485 4.766 4.834 4.922 6.26 6.025.192.055.32.126.433.18.407.2.668.384 1.016.634.692.49 1.59 1.185 2.758 2.054 2.342 1.738 5.726 4.148 10.076 6.597 8.703 4.9 21.225 9.932 36.803 9.932 15.572 0 28.096-5.034 36.8-9.932 4.35-2.451 7.736-4.863 10.073-6.597 1.17-.87 2.068-1.565 2.76-2.054.346-.25.61-.437 1.017-.634.113-.055.238-.126.432-.18 1.424-1.103 1.778-1.259 6.258-6.025 2.575-2.756 4.004-4.285 5.732-5.114.042-.021.085-.03.113-.05-.761-1.174-1.746-2.528-2.394-3.245v-.009c-.057-.066-.128-.141-.169-.2v-.02c-.085-.116-.601-.792-2.492-2.448-1.203-1.033-3.223-2.85-5.245-3.808-1.013-.48-1.972-.718-2.751-.67-.776.048-1.424.285-2.226 1.152v.014c-20.33 21.741-42.887 22.595-47.907 22.595-5.017 0-27.573-.854-47.907-22.595v-.014c-.8-.865-1.45-1.101-2.226-1.152a3.577 3.577 0 0 0-.3-.005zm-14.942 5.833c-.085-.006-.215.027-.506.132-.578.207-1.697.891-3.24 2.51a191.339 191.339 0 0 0-3.347 3.575 7.9 7.9 0 0 1 .643.278c1.493.76 2.768 2.179 3.71 4.342-.715-2.552-.465-4.55.056-5.896.616-1.573 1.784-3.329 2.93-4.788-.029-.027-.071-.052-.085-.067-.057-.04-.086-.082-.16-.086zm130.775 0c-.085.008-.1.045-.166.086-.028.015-.042.04-.085.066 1.141 1.459 2.31 3.214 2.925 4.787.532 1.347.775 3.345.07 5.898.942-2.162 2.218-3.583 3.714-4.342.21-.105.427-.201.637-.278a227.269 227.269 0 0 0-3.345-3.574c-1.545-1.62-2.664-2.304-3.24-2.511-.292-.11-.426-.138-.504-.132zm-132.834 12.736a20.69 20.69 0 0 1 .443 1.802v.001-.001s.383 1.917 1.285 4.016c.908 2.097 2.359 4.104 3.785 4.633.985.358 1.127.149 1.321.014l.071-.063c-.07-.34-.316-.777-.97-1.642-.908-1.207-2.431-2.92-4.108-5.422a20.978 20.978 0 0 1-1.83-3.338zm134.891 0a20.402 20.402 0 0 1-1.83 3.337c-1.673 2.507-3.196 4.22-4.109 5.422-.65.864-.903 1.302-.97 1.641l.072.064c.19.14.334.343 1.32-.014 1.43-.53 2.88-2.532 3.783-4.633a22.28 22.28 0 0 0 1.285-4.017v.002-.002c.127-.64.276-1.236.442-1.8z"/><path d="M387.856 341.38c-1.284 1.28-3.21 4.166-3.852 5.728-.592 1.604-.914 4.49 2.249 9.253 3.206 4.763 5.406 5.726 5.406 8.89" stroke="#efbb22" stroke-width=".886"/><path d="M373.836 349.676c1.6-.64 5.726-1.282 7.327 6.692" stroke="#efbb22" stroke-width=".886" stroke-linecap="square"/><path d="M383.733 348.708c1.557-1.877 2.52-1.604 7.604 3.849 5.09 5.406 5.223 5.034 7.146 6.59" stroke="#efbb22" stroke-width=".886"/><path d="M385.632 349.924c.664.482 2.11 1.774 4.215 4.025v.01c3.32 3.529 4.599 4.731 5.59 5.542a36.183 36.183 0 0 1-1.862 1.629c-.266.221-.523.43-.78.636a13.521 13.521 0 0 0-.879-1.304c-1.088-1.443-2.455-2.963-3.973-5.231-1.615-2.426-2.192-4.11-2.314-5.307zm-9.998 1.428c.27.008.561.06.845.206.673.342 1.694 1.33 2.431 4.107-.612.37-1.528.838-2.448 1.272-.227.107-.454.215-.676.317.028-1.509-.043-3.031-.241-4.906-.043-.401-.071-.727-.1-.985.057-.007.128-.011.186-.011z"/><path d="M512.486 341.38c1.285 1.28 3.207 4.166 3.85 5.728.598 1.604.916 4.49-2.243 9.253-3.21 4.763-5.41 5.726-5.41 8.89" stroke="#efbb22" stroke-width=".886"/><path d="M526.51 349.676c-1.607-.64-5.73-1.282-7.333 6.692" stroke="#efbb22" stroke-width=".886" stroke-linecap="square"/><path d="M516.61 348.708c-1.558-1.877-2.52-1.604-7.607 3.849-5.084 5.406-5.22 5.034-7.144 6.59" stroke="#efbb22" stroke-width=".886"/><path d="M514.706 349.924c-.659.482-2.11 1.774-4.209 4.025v.01c-3.323 3.529-4.602 4.731-5.593 5.542a41.725 41.725 0 0 0 1.862 1.629c.268.221.526.43.787.636a13.496 13.496 0 0 1 .874-1.304c1.086-1.443 2.453-2.963 3.972-5.231 1.621-2.426 2.193-4.11 2.313-5.307zm10.003 1.428c-.271.008-.562.06-.845.206-.674.342-1.697 1.33-2.429 4.107.61.37 1.523.838 2.443 1.272.227.107.454.215.68.317-.028-1.509.043-3.031.239-4.906.042-.401.07-.727.099-.985a1.415 1.415 0 0 0-.182-.011z"/></g><g fill-rule="evenodd"><path d="M472.049 369.897c-.433-.356-.516-.69-.277-1.12.249-.447.692-.55 1.118-.259.45.306.511.604.228 1.113-.297.534-.64.619-1.07.266zm-20.969 3.975c.017-.153.216-.59 1.072-.854l1.266-.066-.128-.536-.128-.537-2.47.225c-.862-2.69-.458-3.392 1.208-4.962.63-.439 1.8-.814 1.869-.834l.638 3.592 1.6-.388c.28-1.746.53-2.376 1.33-2.991.317-.357.37-.532.315-1.03-.052-.474.014-.72.31-1.165.206-.31.443-.583.526-.607.102-.03.243.29.435.982l.283 1.025.494-.01c.738-.014 1.521.6 1.939 1.52.186.41.376.815.423.9l3.097-1.13.645-1.104c.355-.607.654-1.106.666-1.11.012-.002.498.283 1.081.634l1.06.64 1.739-.473c.956-.26 1.757-.536 1.78-.614.04-.137-1.006-1.065-1.455-1.29-.123-.062-.387-.054-.586.017-.315.112-.38.08-.495-.245-.215-.604-.157-1.027.184-1.352.695-.66 1.272-.45 2.528.919.453.494 1.078 1.036 1.388 1.205.55.3.591.3 1.58-.01l1.017-.318-.752-3.437c-.414-1.891-.73-3.54-.703-3.665.069-.322.757-1.09.925-1.035.085.029.56 1.81 1.208 4.533 1.026 4.307 1.061 4.499.882 4.822-.18.324-.355.382-4.516 1.515-4.252 1.157-4.33 1.183-4.42 1.5-.05.178-.273.495-.495.706-.698.662-1.535.733-2.404.204l-.478-.291s-3.016 1.142-5.761 1.734c-2.813.605-5.109.978-5.109.978l.143.89c.217 2.794-3.503 2.629-3.73 1.513z" fill="#efbb22"/><path d="M467.564 367.698c.269-.484-.059-.902-.594-.756-.236.064-.465.479-.405.733.034.14.52.379.681.334.094-.025.237-.165.318-.31zm-14.784 1.664c-.072-.434-.153-.59-.317-.61-.395-.05-.88 1.113-.59 1.414.059.06.309.034.556-.057.434-.16.446-.185.351-.747zm5.509-.82c-.031-.295-.125-.585-.208-.645-.216-.155-.682.7-.606 1.111.053.289.11.313.466.199.372-.12.4-.172.348-.665zm2.178-.341c-.04-.454-.533-.903-.75-.687-.133.131.008 1.099.177 1.22.06.043.221.035.36-.017.18-.067.24-.214.213-.517z" fill="#fff"/><path d="M407.15 356.217c-.232-.464-.195-1.393.062-1.555.105-.066.398.084.858.44l.7.54.947-1.166c1.056-1.3 1.246-1.4 2.246-1.186.612.131.615.173.089.983l-.333.512.877.794.877.795.153-.363c.823-1.954 1.603-2.14 3.17-.759.624.551 1.003.804 1.304.866.232.049.445.155.473.237.055.163-.698 1.24-1 1.43-.154.098-.366-.03-1.137-.682-1.003-.85-1.162-.892-1.383-.37-.251.595.07 1.038 1.744 2.402l1.52 1.237 2.1-2.723c1.157-1.498 2.192-2.767 2.301-2.82.281-.136 1.27-.017 1.33.16.03.09-1 1.564-2.624 3.754-2.181 2.943-2.729 3.623-2.974 3.696-.285.084-.489-.067-4.079-3.023l-3.778-3.112-.493.52c-.274.29-.65.55-.848.587-.777.145-1.692-.375-2.102-1.194zm12.777 8.147c-.005-.076 1.16-1.607 2.591-3.401l2.601-3.262.828-.07c.54-.047.832-.004.842.12.009.12-1.097 1.563-2.946 3.848l-2.961 3.657-.472-.377c-.26-.206-.477-.438-.483-.515zm59.904.339c-.064-.034-.716-1.88-1.448-4.104l-1.332-4.043.36-.8c.233-.522.414-.772.52-.718.1.052.713 1.8 1.631 4.657l1.47 4.574-.541.247c-.298.136-.595.22-.66.187zm4.957-3.91c-.09-.059-.324-.358-.52-.665l-.355-.559 1.596-1.414 1.597-1.413-.231-.39c-.393-.662-.562-.618-1.906.5-1.355 1.125-1.317 1.12-1.949.245-.526-.73-.52-.944.028-.992.346-.03.643-.206 1.418-.842 1.474-1.21 1.544-1.248 2.12-1.171.53.071.533.074 1.518 1.429.856 1.176.98 1.402.932 1.694-.048.288-.34.571-2.07 2.01-1.617 1.342-2.047 1.652-2.178 1.567zm18.344-15.026c-.072-.003-1.365-1.411-2.873-3.131l-2.742-3.127.026-.887c.018-.579.09-.885.206-.88.112.003 1.332 1.339 3.249 3.558l3.07 3.553-.403.46c-.221.252-.461.457-.533.454zm-57.88 27.73c-.405-.31-.767-1.152-.609-1.421.064-.11.39-.12.951-.028l.854.138.343-1.5c.286-1.253.393-1.542.652-1.748.368-.293 1.297-.596 1.387-.453.124.198-.736 4.456-.963 4.763-.534.722-1.831.845-2.615.248zm-5.5-.686c-.354-.44-.293-.81.188-1.155.467-.335.787-.274 1.067.205.282.48.206.86-.23 1.152-.436.291-.666.246-1.026-.202zm2.204.475c-.113-.18-.176-.478-.142-.665.075-.408.573-.796.925-.722.352.074.675.635.6 1.043-.076.408-.573.796-.925.722-.14-.029-.346-.2-.458-.378zm-5.51-4.159c-.062-.389 1.76-9.516 1.904-9.535.08-.011.33.236.56.548l.415.568-.584 3.525-.584 3.527 2.414.508 2.414.508.2-.663c.11-.365.257-.746.328-.848.182-.264 1.156-.752 1.271-.637.053.053-.054.917-.24 1.92-.474 2.578-.077 2.445-4.506 1.512-2.741-.577-3.568-.792-3.591-.933zm-9.54-3.077c-.09-.224-.048-.556.15-1.169.304-.948.59-1.234 1.397-1.406.527-.111.548-.052.305.89l-.155.601 2.06.799c2.282.884 2.254.883 2.532.032.134-.412.283-.568.804-.839 1.088-.568 1.121-.456.466 1.58-.798 2.478-.442 2.398-4.33.968-2.852-1.049-3.115-1.167-3.23-1.455zm3.533-5.03c-.135-.224-.193-.52-.136-.698.103-.32.784-.663 1.092-.55.235.087.583.878.5 1.136-.083.258-.813.652-1.048.566-.095-.035-.278-.24-.408-.454zm2.076.708c-.109-.237-.167-.526-.13-.64.086-.27.817-.65 1.07-.558.252.093.609.874.522 1.143-.087.27-.818.651-1.07.559-.107-.04-.284-.266-.392-.504zm58.986-5.854c-.33-.176-6.143-7.14-6.073-7.276.039-.074.373-.145.744-.158l.674-.023 2.316 2.587 2.317 2.587 1.735-1.656c.955-.911 1.773-1.736 1.818-1.833.106-.23-.17-.332-1.222-.45-.685-.077-.858-.04-1.095.23-.25.287-.312.294-.564.061-.457-.422-.594-.824-.437-1.283.318-.934.918-1.042 2.632-.475.618.205 1.409.365 1.757.357l.632-.016.992-1.03.992-1.03-.419-.597c-.357-.508-.41-.698-.364-1.287.095-1.188.18-1.166 1.528.399 1.067 1.238 1.183 1.413 1.17 1.765-.015.38-.143.516-4.497 4.801-3.508 3.453-4.514 4.391-4.636 4.327zm2.99-11.447c-.247-.01-.53-.113-.629-.228-.24-.279-.201-.939.071-1.207.277-.273.939-.277 1.171-.008.21.244.202 1.103-.012 1.314-.084.082-.354.14-.601.129zm1.62-1.594c-.248-.01-.53-.113-.63-.228-.367-.427-.077-1.349.452-1.437.593-.1 1.13.581.934 1.183-.14.43-.258.505-.757.482zm-92.264 11.469c-.052-.592.422-1.047.958-.919.358.085.412.137.532.506.18.55-.14 1.041-.712 1.096-.521.05-.73-.133-.778-.683zm-4.414-4.38c-.096-.57.132-.856.712-.893.561-.034.807.192.822.756.014.567-.232.853-.746.868-.514.014-.69-.15-.788-.73zm1.674 1.605c-.012-.215.075-.507.194-.649.258-.31.871-.375 1.14-.12.268.255.279.914.02 1.224-.258.31-.87.375-1.14.12-.106-.1-.202-.36-.214-.575zm-4.833-8.423c-.003-.072.307-.507.69-.966.552-.662.833-.897 1.356-1.134 1.083-.493 1.569-.434 2.713.33.544.363 1.14.686 1.325.717.186.031.381.098.435.15.058.055-.328.625-.973 1.436l-1.07 1.344 1.692 1.61 1.694 1.61.487-.463c.268-.254.576-.503.684-.553.218-.101 1.23-.035 1.36.088.045.043-.245.518-.644 1.055l-.727.977 1.016.966 1.016.966.514-.505c.438-.43.61-.506 1.163-.515 1.115-.017 1.103.076-.22 1.665-1.047 1.258-1.198 1.398-1.528 1.419-.356.022-.494-.1-5.67-5.023-2.918-2.774-5.309-5.103-5.313-5.174z" fill="#efbb22"/><path d="M399.974 343.413c.306-.367.356-.506.24-.669a1.017 1.017 0 0 0-1.177-.38c-.685.223-.689.453-.019 1.026l.57.487z" fill="#fff"/><path d="M401.53 337.58c-.033-.582.201-.896.69-.926.725-.045 1.084.78.595 1.368-.252.303-.875.403-1.11.18-.083-.08-.162-.359-.176-.623zm1.644 1.564c-.033-.6.179-.864.707-.88.514-.014.787.237.834.769.045.516-.158.766-.706.871-.533.102-.802-.141-.835-.76z" fill="#efbb22"/></g><path d="M463.175 215.768c.085-.796.05-.52.182-1.123 0 0 5.222-4.585 8.106-1.17 0 0-3.858-.125-4.812 2.6-1.255-.288-2.482-.517-3.476-.307zm.182-1.123c-1.419-1.59-1.189-5.614.322-7.345l.085-.097c.53.163.831.284.831.284s6.364-.655 7.005 3.228c0 0-6.384.974-8.243 3.93z" fill="#fff" fill-rule="evenodd" stroke="#efbb22" stroke-width=".892"/><g fill="#fff"><g stroke="#efbb22" stroke-width=".886"><path d="M512.016 351.601c.594-.823.961-2.702-.964-4.307-1.56-1.282-2.2-1.42-2.518-2.061 0 0-.966 2.2-.184 4.122.364.873 1.74 4.769 3.666 2.246z"/><path d="M509.447 355.087c.686-.736.87-2.29-.551-3.755-1.51-1.468-3.665-1.055-4.076-1.65-.16.938.042 2.885.55 4.17 0 0 2.338 3.162 4.077 1.235zm-3.343 3.199c.778-.688.413-2.888-1.19-4.124-1.651-1.33-3.02-1.201-3.372-1.82-.66 1.282-.68 3.57.3 4.615 1.326 1.421 3.159 2.245 4.262 1.329z"/></g><path d="M509.121 347.117c-.071.588-.063 1.266.173 1.852.217.518.648 1.59 1.093 2.133.222.274.38.322.357.32-.024-.002.09.043.45-.426.14-.199.317-.656.266-1.154-.05-.508-.274-1.102-1.062-1.757a18.118 18.118 0 0 0-1.277-.968zm-3.336 3.98c.116.796.325 1.762.486 2.25.17.206.59.679 1.06 1.002.31.211.616.327.8.337.187.011.292.01.559-.282v-.007l.014-.008c.257-.271.599-1.166-.526-2.337-.547-.522-1.22-.732-1.928-.869a15.53 15.53 0 0 0-.464-.087zm-3.787 2.69c0 .07-.014.14-.014.209-.014.853.292 1.932.595 2.262.572.612 1.262 1.08 1.81 1.272.523.185.8.153 1.019-.008-.037.01.123-.325-.014-.857a3.225 3.225 0 0 0-1.122-1.7l-.014-.01-.014-.005c-.732-.588-1.282-.832-1.771-1.012l-.5-.15z"/><g stroke="#efbb22" stroke-width=".886"><path d="M386.8 351.601c-.594-.824-.96-2.702.964-4.307 1.56-1.282 2.2-1.42 2.518-2.062 0 0 .966 2.2.185 4.123-.365.872-1.74 4.768-3.667 2.246z"/><path d="M389.37 355.087c-.687-.736-.87-2.29.55-3.755 1.51-1.468 3.665-1.055 4.077-1.65.159.938-.043 2.885-.55 4.169 0 0-2.338 3.163-4.078 1.236zm3.342 3.199c-.778-.688-.412-2.888 1.191-4.124 1.65-1.33 3.018-1.202 3.371-1.82.661 1.282.68 3.57-.3 4.615-1.325 1.421-3.159 2.244-4.262 1.329z"/></g><path d="M389.696 347.117c.07.588.062 1.266-.174 1.851-.216.52-.648 1.591-1.093 2.134-.222.274-.38.322-.357.32.024-.003-.09.043-.45-.426-.14-.199-.317-.657-.266-1.154.05-.508.274-1.102 1.062-1.757a18.118 18.118 0 0 1 1.278-.968zm3.335 3.98c-.116.796-.324 1.762-.486 2.25-.17.206-.59.679-1.06 1.002-.31.21-.616.327-.8.337-.187.011-.292.01-.559-.282v-.007l-.014-.009c-.257-.27-.598-1.165.526-2.336.547-.522 1.22-.732 1.928-.87a15.53 15.53 0 0 1 .464-.086zm3.787 2.69c0 .07.014.14.014.209.015.853-.292 1.932-.595 2.262-.571.611-1.262 1.08-1.81 1.272-.522.184-.8.153-1.018-.008.036.01-.124-.325.014-.857a3.224 3.224 0 0 1 1.121-1.7l.014-.01.015-.005c.731-.588 1.281-.833 1.77-1.012l.501-.15z"/></g></svg>