<svg height="600" width="900" xmlns="http://www.w3.org/2000/svg"><path d="m0 .004425h900v599.99115h-900z" fill="#fff"/><g fill="#0852a5" transform="scale(.95770011 1.0441682)"><path d="m305.80458 181.50541v69.7859h-5.79075c-4.35562-18.21347-12.47256-32.17063-24.35082-41.87154-11.87862-9.70054-25.34085-14.55091-40.38674-14.5511-12.57148.00019-24.10346 3.61322-34.59599 10.83909-10.49272 7.22623-18.16421 16.67949-23.0145 28.3598-6.23625 14.94719-9.35434 31.577-9.35428 49.88949-.00006 18.01574 2.27664 34.42283 6.83011 49.22134 4.55333 14.79861 11.6804 25.98414 21.38122 33.55662 9.70063 7.57253 22.27198 11.35878 37.71408 11.35877 12.6702.00001 24.27643-2.77163 34.81871-8.31492 10.54195-5.54325 21.65324-15.0955 33.3339-28.65676v17.37223c-11.28472 11.77949-23.03942 20.31711-35.26415 25.61291-12.22506 5.29581-26.50393 7.94371-42.83667 7.94372-21.48029-.00001-40.56004-4.30594-57.23928-12.91782-16.67937-8.61186-29.54768-20.98523-38.60497-37.12016-9.05733-16.13483-13.58599-33.30907-13.58598-51.52278-.00001-19.20338 5.02358-37.41698 15.07079-54.64087 10.04715-17.22359 23.60837-30.58683 40.68369-40.08978 17.07519-9.50256 35.21456-14.25393 54.41816-14.25414 14.15502.00021 29.10205 3.06881 44.84115 9.2058 9.10664 3.56373 14.89738 5.3455 17.37224 5.34531 3.1674.00019 5.91428-1.16291 8.24067-3.4893 2.326-2.326 3.83555-6.01326 4.52866-11.06181z"/><path d="m360.59393 341.71602c6.92905.00005 12.79403 2.42523 17.59495 7.27555 4.80082 4.8504 7.20125 10.69064 7.20132 17.52072-.00007 6.83012-2.42525 12.64561-7.27556 17.44647-4.85041 4.80088-10.69065 7.20131-17.52071 7.20132-6.83014-.00001-12.64563-2.40044-17.44648-7.20132-4.80089-4.80086-7.20132-10.61635-7.20131-17.44647-.00001-6.83008 2.40042-12.67032 7.20131-17.52072 4.80085-4.85032 10.61634-7.2755 17.44648-7.27555z"/><path d="m509.96546 381.95428v5.49378h-105.27277v-5.49378h6.68162c5.84022 0 10.54211-1.03936 14.10567-3.1181 2.57363-1.38581 4.55337-3.7615 5.93922-7.12707 1.08883-2.37567 1.63325-8.61185 1.63329-18.70856v-132.44473c-.00004-10.29448-.54446-16.72863-1.63329-19.30248-1.08889-2.57348-3.29135-4.82543-6.60739-6.75587-3.31609-1.93005-7.79525-2.89518-13.4375-2.89537h-6.68162v-5.49379h105.27277v5.49379h-6.68163c-5.84034.00019-10.54222 1.03956-14.10566 3.11809-2.57375 1.38601-4.60299 3.7617-6.08771 7.12707-1.08894 2.37587-1.63337 8.61205-1.63328 18.70856v132.44473c-.00009 10.29468.56909 16.72884 1.70752 19.30248 1.13827 2.57368 3.36548 4.82564 6.68163 6.75587 3.31598 1.93026 7.79514 2.89538 13.4375 2.89538z"/><path d="m554.80661 341.71602c6.92905.00005 12.79403 2.42523 17.59495 7.27555 4.80081 4.8504 7.20125 10.69064 7.20131 17.52072-.00006 6.83012-2.42524 12.64561-7.27555 17.44647-4.85042 4.80088-10.69065 7.20131-17.52071 7.20132-6.83014-.00001-12.64563-2.40044-17.44648-7.20132-4.80089-4.80086-7.20132-10.61635-7.20131-17.44647-.00001-6.83008 2.40042-12.67032 7.20131-17.52072 4.80085-4.85032 10.61634-7.2755 17.44648-7.27555z"/><path d="m735.65603 181.50541 1.63329 67.11325h-6.08771c-2.87076-16.82765-9.92358-30.36412-21.15849-40.60945-11.23514-10.24498-23.38579-15.36755-36.452-15.36775-10.09675.0002-18.08995 2.69759-23.97962 8.0922-5.88978 5.39497-8.83464 11.60641-8.8346 18.63432-.00004 4.45458 1.03932 8.41406 3.1181 11.87845 2.87057 4.65254 7.47346 9.25544 13.8087 13.8087 4.65232 3.26671 15.39241 9.05745 32.22029 17.37223 23.55881 11.5816 39.44622 22.51967 47.66229 32.81422 8.11679 10.29474 12.17526 22.07419 12.17541 35.33839-.00015 16.82785-6.55804 31.3047-19.67368 43.43059-13.11592 12.12592-29.77048 18.18887-49.96374 18.18888-6.33525-.00001-12.32397-.64342-17.96615-1.93025-5.64233-1.28683-12.7199-3.71201-21.23274-7.27555-4.75142-1.97974-8.66141-2.96961-11.72997-2.96961-2.57369 0-5.29584.98987-8.16643 2.96961-2.87065 1.97974-5.19685 4.99885-6.97859 9.05732h-5.49379v-76.02209h5.49379c4.3554 21.38126 12.74455 37.68937 25.16747 48.92437 12.42282 11.23505 25.81081 16.85256 40.16401 16.85255 11.08646.00001 19.92105-3.01909 26.50379-9.05731 6.58253-6.0382 9.87384-13.06627 9.87397-21.08425-.00013-4.75134-1.26221-9.35424-3.78626-13.8087-2.52429-4.45437-6.36003-8.68606-11.50725-12.6951-5.14743-4.00891-14.25423-9.23047-27.32044-15.66471-18.31267-9.00773-31.47794-16.67923-39.49585-23.0145-8.01798-6.33506-14.17993-13.41263-18.48584-21.23273-4.30595-7.81985-6.45892-16.43172-6.4589-25.83563-.00002-16.03574 5.88971-29.69595 17.66919-40.98065 11.77942-11.28433 26.62747-16.92659 44.54419-16.9268 6.53307.00021 12.86823.7921 19.00552 2.37569 4.6523 1.18805 10.3193 3.39051 17.00104 6.60739 6.68151 3.21728 11.35864 4.82581 14.03142 4.82562 2.57353.00019 4.60277-.7917 6.0877-2.37569 1.48468-1.5836 2.87049-5.39459 4.15746-11.43301z"/><path d="m800.09661 341.71602c6.92906.00005 12.79404 2.42523 17.59496 7.27555 4.80081 4.8504 7.20125 10.69064 7.20131 17.52072-.00006 6.83012-2.42524 12.64561-7.27555 17.44647-4.85042 4.80088-10.69065 7.20131-17.52072 7.20132-6.83014-.00001-12.64562-2.40044-17.44647-7.20132-4.80089-4.80086-7.20133-10.61635-7.20131-17.44647-.00002-6.83008 2.40042-12.67032 7.20131-17.52072 4.80085-4.85032 10.61633-7.2755 17.44647-7.27555z"/></g></svg>