<?xml version="1.0" encoding="UTF-8" standalone="no"?>
<!-- Created with Inkscape (http://www.inkscape.org/) -->

<svg
   xmlns:dc="http://purl.org/dc/elements/1.1/"
   xmlns:cc="http://creativecommons.org/ns#"
   xmlns:rdf="http://www.w3.org/1999/02/22-rdf-syntax-ns#"
   xmlns:svg="http://www.w3.org/2000/svg"
   xmlns="http://www.w3.org/2000/svg"
   xmlns:xlink="http://www.w3.org/1999/xlink"
   xmlns:sodipodi="http://sodipodi.sourceforge.net/DTD/sodipodi-0.dtd"
   xmlns:inkscape="http://www.inkscape.org/namespaces/inkscape"
   version="1.0"
   width="900"
   height="600"
   id="svg1420"
   sodipodi:version="0.32"
   inkscape:version="0.48.4 r9939"
   sodipodi:docname="Former_Chinese_Taipei_Football_Flag.svg">
  <metadata
     id="metadata17">
    <rdf:RDF>
      <cc:Work
         rdf:about="">
        <dc:format>image/svg+xml</dc:format>
        <dc:type
           rdf:resource="http://purl.org/dc/dcmitype/StillImage" />
      </cc:Work>
    </rdf:RDF>
  </metadata>
  <sodipodi:namedview
     inkscape:window-height="1017"
     inkscape:window-width="1920"
     inkscape:pageshadow="2"
     inkscape:pageopacity="0.0"
     borderopacity="1.0"
     bordercolor="#666666"
     pagecolor="#ffffff"
     id="base"
     inkscape:zoom="1"
     inkscape:cx="319.15558"
     inkscape:cy="323.12853"
     inkscape:window-x="-8"
     inkscape:window-y="-8"
     inkscape:current-layer="svg1420"
     showgrid="false"
     inkscape:snap-page="false"
     inkscape:snap-grids="false"
     inkscape:snap-to-guides="false"
     inkscape:snap-bbox="false"
     inkscape:snap-global="false"
     inkscape:window-maximized="1" />
  <defs
     id="defs1423">
    <radialGradient
       gradientUnits="userSpaceOnUse"
       gradientTransform="matrix(1,0,0,1.284221,0,-125.8023)"
       r="44.381939"
       fy="442.62064"
       fx="398.97449"
       cy="442.62064"
       cx="398.97449"
       id="radialGradient3201"
       xlink:href="#linearGradient3193"
       inkscape:collect="always" />
    <inkscape:perspective
       id="perspective32"
       inkscape:persp3d-origin="450 : 200 : 1"
       inkscape:vp_z="152.1547 : 713.70166 : 1"
       inkscape:vp_y="6.1230318e-14 : 1000 : 0"
       inkscape:vp_x="686.18785 : 464.0884 : 1"
       sodipodi:type="inkscape:persp3d" />
    <linearGradient
       id="linearGradient3193"
       inkscape:collect="always">
      <stop
         id="stop3195"
         offset="0"
         style="stop-color:#1b3379;stop-opacity:1;" />
      <stop
         id="stop3197"
         offset="1"
         style="stop-color:#1b3379;stop-opacity:0;" />
    </linearGradient>
    <style
       type="text/css"
       id="style3057">
   
    .str1 {stroke:#1F1A17;stroke-width:14}
    .str3 {stroke:#FFFFFF;stroke-width:14}
    .str0 {stroke:#1F1A17;stroke-width:28}
    .str2 {stroke:#FFFFFF;stroke-width:28}
    .fil0 {fill:#1F1A17}
    .fil1 {fill:#FFFFFF}
   
  </style>
    <style
       type="text/css"
       id="style6">
   
    .fil6 {fill:#009240}
    .fil4 {fill:#1F1A17}
    .fil2 {fill:#DA251D}
    .fil0 {fill:#FFFFFF}
    .fil3 {fill:#0077BD}
    .fil1 {fill:#29166F}
    .fil5 {fill:#F1A737}
   
  </style>
    <linearGradient
       inkscape:collect="always"
       id="linearGradient3193-8">
      <stop
         style="stop-color:#1b3379;stop-opacity:1;"
         offset="0"
         id="stop3195-8" />
      <stop
         style="stop-color:#1b3379;stop-opacity:0;"
         offset="1"
         id="stop3197-2" />
    </linearGradient>
    <inkscape:perspective
       sodipodi:type="inkscape:persp3d"
       inkscape:vp_x="686.18785 : 464.0884 : 1"
       inkscape:vp_y="6.1230318e-014 : 1000 : 0"
       inkscape:vp_z="152.1547 : 713.70166 : 1"
       inkscape:persp3d-origin="450 : 200 : 1"
       id="perspective32-4" />
    <radialGradient
       inkscape:collect="always"
       xlink:href="#linearGradient3193-8"
       id="radialGradient3201-9"
       cx="398.97449"
       cy="442.62064"
       fx="398.97449"
       fy="442.62064"
       r="44.381939"
       gradientTransform="matrix(1,0,0,1.284221,0,-125.8023)"
       gradientUnits="userSpaceOnUse" />
  </defs>
  <rect
     width="900"
     height="600"
     x="0"
     y="0"
     style="fill:#ffe600;fill-opacity:1;fill-rule:evenodd;stroke:none;stroke-width:1.20000005;stroke-miterlimit:4;stroke-dasharray:none;stroke-opacity:1"
     id="rect1505" />
  <g
     id="g5791">
    <path
       transform="matrix(0.906404,0,0,0.906404,241.3116,74.3578)"
       d="M 500.63161 220.28366 A 143.54268 143.54268 0 1 1  213.54625,220.28366 A 143.54268 143.54268 0 1 1  500.63161 220.28366 z"
       sodipodi:ry="143.54268"
       sodipodi:rx="143.54268"
       sodipodi:cy="220.28366"
       sodipodi:cx="357.08893"
       id="path4916"
       style="fill:#ffffff;fill-opacity:1;fill-rule:evenodd"
       sodipodi:type="arc" />
    <path
       transform="matrix(0.906404,0,0,0.906404,128.1745,-11.90923)"
       d="M 500.63161 220.28366 A 143.54268 143.54268 0 1 1  213.54625,220.28366 A 143.54268 143.54268 0 1 1  500.63161 220.28366 z"
       sodipodi:ry="143.54268"
       sodipodi:rx="143.54268"
       sodipodi:cy="220.28366"
       sodipodi:cx="357.08893"
       id="path4035"
       style="fill:#ffffff;fill-opacity:1;fill-rule:evenodd"
       sodipodi:type="arc" />
    <path
       sodipodi:type="arc"
       style="fill:#ffffff;fill-opacity:1;fill-rule:evenodd"
       id="path4910"
       sodipodi:cx="357.08893"
       sodipodi:cy="220.28366"
       sodipodi:rx="143.54268"
       sodipodi:ry="143.54268"
       d="M 500.63161 220.28366 A 143.54268 143.54268 0 1 1  213.54625,220.28366 A 143.54268 143.54268 0 1 1  500.63161 220.28366 z"
       transform="matrix(0.906404,0,0,0.906404,8.673454,72.23648)" />
    <path
       transform="matrix(0.906404,0,0,0.906404,54.63539,210.1223)"
       d="M 500.63161 220.28366 A 143.54268 143.54268 0 1 1  213.54625,220.28366 A 143.54268 143.54268 0 1 1  500.63161 220.28366 z"
       sodipodi:ry="143.54268"
       sodipodi:rx="143.54268"
       sodipodi:cy="220.28366"
       sodipodi:cx="357.08893"
       id="path4912"
       style="fill:#ffffff;fill-opacity:1;fill-rule:evenodd"
       sodipodi:type="arc" />
    <path
       sodipodi:type="arc"
       style="fill:#ffffff;fill-opacity:1;fill-rule:evenodd"
       id="path4914"
       sodipodi:cx="357.08893"
       sodipodi:cy="220.28366"
       sodipodi:rx="143.54268"
       sodipodi:ry="143.54268"
       d="M 500.63161 220.28366 A 143.54268 143.54268 0 1 1  213.54625,220.28366 A 143.54268 143.54268 0 1 1  500.63161 220.28366 z"
       transform="matrix(0.906404,0,0,0.906404,198.8852,209.4152)" />
  </g>
  <g
     id="g4172">
    <path
       transform="matrix(0.83262,0,0,0.785408,96.63648,19.34764)"
       d="m 541,202 c 0,64.06503 -51.93497,116 -116,116 -64.06503,0 -116,-51.93497 -116,-116 0,-64.06503 51.93497,-116 116,-116 64.06503,0 116,51.93497 116,116 z"
       sodipodi:ry="116"
       sodipodi:rx="116"
       sodipodi:cy="202"
       sodipodi:cx="425"
       id="path3287"
       style="fill:#ffe600;fill-opacity:1;fill-rule:evenodd;stroke:none;stroke-opacity:1"
       sodipodi:type="arc" />
    <path
       transform="matrix(1,0,0,0.918552,40,-43.85973)"
       d="M 405,345.5 C 405,406.52746 356.64675,456 297,456 237.35325,456 189,406.52746 189,345.5 189,284.47254 237.35325,235 297,235 c 59.64675,0 108,49.47254 108,110.5 z"
       sodipodi:ry="110.5"
       sodipodi:rx="108"
       sodipodi:cy="345.5"
       sodipodi:cx="297"
       id="path4162"
       style="fill:#ffe600;fill-opacity:1;fill-rule:evenodd;stroke:none;stroke-opacity:1"
       sodipodi:type="arc" />
    <path
       transform="matrix(0.853983,0,0,1.010582,36.32301,-53.93651)"
       d="m 509,466.5 c 0,52.19091 -50.59182,94.5 -113,94.5 -62.40818,0 -113,-42.30909 -113,-94.5 0,-52.19091 50.59182,-94.5 113,-94.5 62.40818,0 113,42.30909 113,94.5 z"
       sodipodi:ry="94.5"
       sodipodi:rx="113"
       sodipodi:cy="466.5"
       sodipodi:cx="396"
       id="path4164"
       style="fill:#ffe600;fill-opacity:1;fill-rule:evenodd;stroke:none;stroke-opacity:1"
       sodipodi:type="arc" />
    <path
       transform="matrix(0.940887,0,0,1.142857,-75.31527,-135.1429)"
       d="m 739,484 c 0,46.39192 -45.4431,84 -101.5,84 -56.0569,0 -101.5,-37.60808 -101.5,-84 0,-46.39192 45.4431,-84 101.5,-84 56.0569,0 101.5,37.60808 101.5,84 z"
       sodipodi:ry="84"
       sodipodi:rx="101.5"
       sodipodi:cy="484"
       sodipodi:cx="637.5"
       id="path4166"
       style="fill:#ffe600;fill-opacity:1;fill-rule:evenodd;stroke:none;stroke-opacity:1"
       sodipodi:type="arc" />
    <path
       transform="matrix(0.990099,0,0,1.16185,-111.2277,-79.12139)"
       d="m 785,303.5 c 0,47.77263 -45.21924,86.5 -101,86.5 -55.78076,0 -101,-38.72737 -101,-86.5 0,-47.77263 45.21924,-86.5 101,-86.5 55.78076,0 101,38.72737 101,86.5 z"
       sodipodi:ry="86.5"
       sodipodi:rx="101"
       sodipodi:cy="303.5"
       sodipodi:cx="684"
       id="path4168"
       style="fill:#ffe600;fill-opacity:1;fill-rule:evenodd;stroke:none;stroke-opacity:1"
       sodipodi:type="arc" />
    <path
       d="m 529,321 c 0,44.73506 -36.26494,81 -81,81 -44.73506,0 -81,-36.26494 -81,-81 0,-44.73506 36.26494,-81 81,-81 44.73506,0 81,36.26494 81,81 z"
       sodipodi:ry="81"
       sodipodi:rx="81"
       sodipodi:cy="321"
       sodipodi:cx="448"
       id="path4170"
       style="fill:#ffe600;fill-opacity:1;fill-rule:evenodd;stroke:none;stroke-opacity:1"
       sodipodi:type="arc" />
  </g>
  <g
     transform="matrix(2.7832722,0,0,2.7832722,118.61774,67.918659)"
     id="g3009">
    <circle
       sodipodi:ry="20.6374"
       sodipodi:rx="20.6374"
       sodipodi:cy="44.449902"
       sodipodi:cx="119.062"
       d="m 139.6994,44.449902 c 0,11.397721 -9.23968,20.637399 -20.6374,20.637399 -11.39772,0 -20.637403,-9.239678 -20.637403,-20.637399 0,-11.397722 9.239683,-20.6374 20.637403,-20.6374 11.39772,0 20.6374,9.239678 20.6374,20.6374 z"
       style="fill:#000095;fill-opacity:1"
       id="circle12"
       r="20.6374"
       cy="44.449902"
       cx="119.062" />
    <g
       id="g27"
       transform="matrix(0.08933925,0,0,0.08933925,119.062,-25.904758)">
      <ellipse
         style="fill:#ffffff"
         id="74924704"
         ry="103"
         rx="103"
         cy="787"
         cx="0"
         d="m 103,787 c 0,56.88533 -46.114671,103 -103,103 -56.885329,0 -103,-46.11467 -103,-103 0,-56.88533 46.114671,-103 103,-103 56.885329,0 103,46.11467 103,103 z"
         sodipodi:cx="0"
         sodipodi:cy="787"
         sodipodi:rx="103"
         sodipodi:ry="103" />
      <path
         style="fill:#ffffff"
         id="74924792"
         d="m 0,581 24,92 c -7,-2 -16,-3 -24,-3 -8,0 -17,1 -24,3 L 0,581 z m 36,95 67,-68 -25,92 C 66,690 52,681 36,676 z m 51,33 92,-25 -68,67 C 106,735 98,721 87,709 z m 28,54 92,24 -92,25 c 1,-8 2,-16 2,-25 0,-8 -1,-16 -2,-24 z m -4,60 68,68 -92,-25 c 11,-12 19,-27 24,-43 z m -33,51 25,92 -67,-67 c 16,-5 30,-14 42,-25 z M 24,902 0,994 -24,902 c 7,2 16,2 24,2 8,0 17,0 24,-2 z m -60,-3 -67,67 25,-92 c 12,11 26,20 42,25 z m -51,-33 -92,25 68,-68 c 5,16 13,31 24,43 z m -28,-54 -92,-25 92,-24 c -1,8 -2,16 -2,24 0,9 1,17 2,25 z m 4,-61 -68,-67 92,25 c -11,12 -19,26 -24,42 z m 33,-51 -25,-92 67,68 c -16,5 -30,14 -42,24 z"
         inkscape:connector-curvature="0" />
    </g>
  </g>
  <path
     d="M 244.29606,245.29845 C 259.51451,198.4613 309.83951,172.81944 356.67711,188.03768 C 358.11374,188.50438 359.53032,189.00439 360.92647,189.53592 C 360.85197,188.04377 360.81436,186.54231 360.81436,185.03154 C 360.81436,135.78416 400.75291,95.846043 450.00038,95.846043 C 499.24858,95.846043 539.1868,135.78416 539.1868,185.03154 C 539.1868,186.54232 539.14915,188.04413 539.07503,189.53627 C 540.47117,189.00474 541.88739,188.50473 543.32406,188.03803 C 590.16129,172.81961 640.48646,198.46158 655.70471,245.29845 C 670.92319,292.13596 645.28118,342.46138 598.44384,357.67928 C 597.00721,358.14633 595.56771,358.57471 594.12537,358.96512 C 595.06236,360.12846 595.97533,361.32118 596.86325,362.54363 C 625.81051,402.3854 616.97505,458.17118 577.13254,487.11837 C 537.29032,516.0652 481.50405,507.22981 452.55715,467.3877 C 451.66923,466.16562 450.81712,464.92884 450.00016,463.6781 C 449.18311,464.92884 448.33141,466.16562 447.44349,467.38733 C 418.49626,507.22944 362.71034,516.06535 322.8685,487.11837 C 283.02561,458.17081 274.19006,402.3854 303.13742,362.54293 C 304.02534,361.32121 304.93832,360.12813 305.87495,358.96515 C 304.43294,358.57439 302.99308,358.14637 301.55715,357.67931 C 254.7199,342.46089 229.07799,292.13564 244.29627,245.29849 L 244.29606,245.29845 z M 346.14594,169.19292 C 295.76561,160.85609 245.47744,190.35522 229.21708,240.39909 C 212.95672,290.44279 236.30175,343.86653 281.96017,366.73509 C 258.46324,412.07319 270.97855,469.01626 313.54859,499.94536 C 356.11871,530.87428 414.14202,525.18078 450.00019,488.82333 C 485.85803,525.18067 543.88176,530.87425 586.45183,499.94536 C 629.02162,469.01677 641.5371,412.07459 618.04028,366.73614 C 663.69897,343.86786 687.04409,290.44314 670.78338,240.39909 C 654.52334,190.3554 604.23482,160.85626 553.85483,169.19327 C 546.21537,118.70237 502.61989,79.991017 450.00038,79.991017 C 397.38156,79.991017 353.7858,118.70237 346.14629,169.19292 L 346.14594,169.19292 z "
     id="_140910320"
     style="fill:#fe0000;fill-opacity:1" />
  <path
     d="M 215.77366,236.03108 C 232.76973,183.72168 282.53515,151.19684 334.9609,153.79698 C 348.68863,103.13397 394.99962,65.855351 450.00004,65.855351 C 505.00117,65.855351 551.31264,103.13397 565.03956,153.79768 C 617.4653,151.1977 667.23053,183.72231 684.22642,236.03108 C 701.22287,288.34012 680.07988,343.90459 636.13797,372.61615 C 654.81101,421.6722 639.25624,479.0524 594.7601,511.38103 C 550.26359,543.70971 490.88469,540.77128 449.99934,507.85301 C 409.11437,540.77128 349.73616,543.70938 305.23967,511.38103 C 260.74319,479.05195 245.18803,421.67187 263.86176,372.61545 C 219.92036,343.90431 198.77738,288.34012 215.77331,236.03108 L 215.77366,236.03108 z M 323.42047,137.91299 C 268.68677,140.23646 218.61504,175.97815 200.69433,231.13137 C 182.77418,286.28389 202.27424,344.63108 245.18907,378.6822 C 230.48496,431.45522 249.00398,490.12116 295.92061,524.20754 C 342.83641,558.29378 404.35362,557.77804 449.99968,527.48588 C 495.64544,557.77837 557.163,558.29415 604.07947,524.20754 C 650.99565,490.12163 669.5147,431.45592 654.81031,378.6829 C 697.72571,344.63178 717.22615,286.28424 699.30542,231.13137 C 681.38562,175.9785 631.31334,140.23665 576.58,137.91334 C 557.45675,86.576907 507.99161,49.999986 449.99968,49.999986 C 392.00881,49.999986 342.54316,86.576558 323.42012,137.91299 L 323.42047,137.91299 z "
     id="_140514728"
     style="fill:#000095;fill-opacity:1" />
  <g
     id="¹Ï¼h 1"
     transform="matrix(0.07124947,0,0,0.07124947,448.53988,261.68692)">
    <path
       d="m 20,14 c 727,0 1320,593 1320,1319 0,727 -593,1320 -1320,1320 -726,0 -1319,-593 -1319,-1320 C -1299,607 -706,14 20,14 z"
       class="fil0 str0"
       id="75395992"
       inkscape:connector-curvature="0"
       style="fill:#1f1a17;stroke:#1f1a17;stroke-width:28" />
    <path
       d="m -182,1278 c 161,0 290,93 452,93 318,0 577,-259 577,-577 0,-472 -554,-683 -951,-683 -183,0 -275,17 -270,4 7,-22 234,-79 394,-79 715,0 1298,583 1298,1297 0,266 -81,513 -219,719 -235,237 -561,384 -920,384 -374,0 -898,-163 -898,-621 0,-295 241,-537 537,-537 z"
       class="fil1"
       id="89837416"
       inkscape:connector-curvature="0"
       style="fill:#ffffff" />
    <g
       id="g3062">
      <ellipse
         ry="390"
         rx="390"
         cy="1831"
         cx="-207"
         class="fil1 str0"
         id="89850632"
         sodipodi:cx="-207"
         sodipodi:cy="1831"
         sodipodi:rx="390"
         sodipodi:ry="390"
         style="fill:#ffffff;stroke:#1f1a17;stroke-width:28"
         d="m 183,1831 c 0,215.3911 -174.6089476,390 -390,390 -215.39105,0 -390,-174.6089 -390,-390 0,-215.3911 174.60895,-390 390,-390 215.3910524,0 390,174.6089 390,390 z" />
      <path
         d="m -207,1685 72,53 72,52 -27,85 -28,85 -89,0 -89,0 -27,-85 -28,-85 72,-52 72,-53 z"
         class="fil0 str1"
         id="89850720"
         inkscape:connector-curvature="0"
         style="fill:#1f1a17;stroke:#1f1a17;stroke-width:14" />
      <rect
         height="281"
         width="9"
         y="1491"
         x="-211"
         class="fil0 str1"
         id="89850808"
         style="fill:#1f1a17;stroke:#1f1a17;stroke-width:14" />
      <path
         d="m -531,1731 3,-9 267,86 -3,9 -267,-86 z"
         class="fil0 str1"
         id="89850896"
         inkscape:connector-curvature="0"
         style="fill:#1f1a17;stroke:#1f1a17;stroke-width:14" />
      <path
         d="m -403,2109 -7,-6 165,-227 8,5 -166,228 z"
         class="fil0 str1"
         id="89850984"
         inkscape:connector-curvature="0"
         style="fill:#1f1a17;stroke:#1f1a17;stroke-width:14" />
      <path
         d="m -3,2103 -8,6 -165,-228 7,-5 166,227 z"
         class="fil0 str1"
         id="89851072"
         inkscape:connector-curvature="0"
         style="fill:#1f1a17;stroke:#1f1a17;stroke-width:14" />
      <path
         d="m 115,1722 3,9 -268,86 -3,-9 268,-86 z"
         class="fil0 str1"
         id="89851160"
         inkscape:connector-curvature="0"
         style="fill:#1f1a17;stroke:#1f1a17;stroke-width:14" />
      <rect
         height="8"
         width="189"
         y="2175"
         x="-301"
         class="fil0 str1"
         id="89851248"
         style="fill:#1f1a17;stroke:#1f1a17;stroke-width:14" />
      <path
         d="m 91,2027 58,-180 8,3 -58,180 -8,-3 z"
         class="fil0 str1"
         id="89834952"
         inkscape:connector-curvature="0"
         style="fill:#1f1a17;stroke:#1f1a17;stroke-width:14" />
      <path
         d="m 71,1609 -152,-111 5,-7 152,111 -5,7 z"
         class="fil0 str1"
         id="89835040"
         inkscape:connector-curvature="0"
         style="fill:#1f1a17;stroke:#1f1a17;stroke-width:14" />
      <path
         d="m -332,1498 -153,111 -5,-7 153,-111 5,7 z"
         class="fil0 str1"
         id="89835128"
         inkscape:connector-curvature="0"
         style="fill:#1f1a17;stroke:#1f1a17;stroke-width:14" />
      <path
         d="m -563,1847 59,180 -8,3 -59,-180 8,-3 z"
         class="fil0 str1"
         id="89835216"
         inkscape:connector-curvature="0"
         style="fill:#1f1a17;stroke:#1f1a17;stroke-width:14" />
      <path
         d="m -207,1553 72,-24 72,-24 -27,-40 -6,-8 c -35,-11 -72,-16 -111,-16 -38,0 -75,5 -111,16 l -5,8 -28,40 72,24 72,24 z"
         class="fil0 str1"
         id="89835304"
         inkscape:connector-curvature="0"
         style="fill:#1f1a17;stroke:#1f1a17;stroke-width:14" />
      <path
         d="m -471,1745 -1,-76 -1,-76 -46,14 -9,3 c -42,60 -67,133 -69,211 l 6,8 29,38 46,-61 45,-61 z"
         class="fil0 str1"
         id="89835392"
         inkscape:connector-curvature="0"
         style="fill:#1f1a17;stroke:#1f1a17;stroke-width:14" />
      <path
         d="m -370,2056 -73,-23 -72,-23 -1,48 0,10 c 45,59 107,105 179,131 l 10,-3 45,-16 -44,-62 -44,-62 z"
         class="fil0 str1"
         id="89835480"
         inkscape:connector-curvature="0"
         style="fill:#1f1a17;stroke:#1f1a17;stroke-width:14" />
      <path
         d="m -44,2056 -44,62 -44,62 46,16 9,3 c 72,-26 134,-72 180,-131 l 0,-10 -1,-48 -73,23 -73,23 z"
         class="fil0 str1"
         id="89835568"
         inkscape:connector-curvature="0"
         style="fill:#1f1a17;stroke:#1f1a17;stroke-width:14" />
      <path
         d="m 57,1745 46,61 45,61 29,-38 6,-8 c -2,-78 -27,-151 -69,-211 l -9,-3 -46,-14 -1,76 -1,76 z"
         class="fil0 str1"
         id="89835656"
         inkscape:connector-curvature="0"
         style="fill:#1f1a17;stroke:#1f1a17;stroke-width:14" />
    </g>
    <g
       id="g3081">
      <ellipse
         ry="390"
         rx="390"
         cy="808"
         cx="310"
         class="fil0 str2"
         id="89844912"
         sodipodi:cx="310"
         sodipodi:cy="808"
         sodipodi:rx="390"
         sodipodi:ry="390"
         style="fill:#1f1a17;stroke:#ffffff;stroke-width:28"
         d="m 700,808 c 0,215.3911 -174.60895,390 -390,390 -215.391052,0 -390,-174.6089 -390,-390 0,-215.39105 174.608948,-390 390,-390 215.39105,0 390,174.60895 390,390 z" />
      <path
         d="m 310,662 72,53 73,52 -28,85 -27,85 -90,0 -89,0 -27,-85 -28,-85 72,-52 72,-53 z"
         class="fil1 str3"
         id="89844824"
         inkscape:connector-curvature="0"
         style="fill:#ffffff;stroke:#ffffff;stroke-width:14" />
      <rect
         height="281"
         width="9"
         y="469"
         x="306"
         class="fil1 str3"
         id="89844736"
         style="fill:#ffffff;stroke:#ffffff;stroke-width:14" />
      <path
         d="m -14,708 3,-9 267,87 -3,9 -267,-87 z"
         class="fil1 str3"
         id="89844648"
         inkscape:connector-curvature="0"
         style="fill:#ffffff;stroke:#ffffff;stroke-width:14" />
      <path
         d="m 114,1086 -7,-6 165,-227 8,5 -166,228 z"
         class="fil1 str3"
         id="89844560"
         inkscape:connector-curvature="0"
         style="fill:#ffffff;stroke:#ffffff;stroke-width:14" />
      <path
         d="m 514,1080 -8,6 -165,-228 8,-5 165,227 z"
         class="fil1 str3"
         id="89844472"
         inkscape:connector-curvature="0"
         style="fill:#ffffff;stroke:#ffffff;stroke-width:14" />
      <path
         d="m 632,699 3,9 -268,87 -2,-9 267,-87 z"
         class="fil1 str3"
         id="89844384"
         inkscape:connector-curvature="0"
         style="fill:#ffffff;stroke:#ffffff;stroke-width:14" />
      <rect
         height="8"
         width="189"
         y="1152"
         x="216"
         class="fil1 str3"
         id="89844296"
         style="fill:#ffffff;stroke:#ffffff;stroke-width:14" />
      <path
         d="m 608,1004 58,-179 8,2 -58,180 -8,-3 z"
         class="fil1 str3"
         id="89844208"
         inkscape:connector-curvature="0"
         style="fill:#ffffff;stroke:#ffffff;stroke-width:14" />
      <path
         d="m 589,586 -153,-111 5,-7 153,111 -5,7 z"
         class="fil1 str3"
         id="89844120"
         inkscape:connector-curvature="0"
         style="fill:#ffffff;stroke:#ffffff;stroke-width:14" />
      <path
         d="m 185,475 -153,111 -5,-7 153,-111 5,7 z"
         class="fil1 str3"
         id="89844032"
         inkscape:connector-curvature="0"
         style="fill:#ffffff;stroke:#ffffff;stroke-width:14" />
      <path
         d="m -46,825 59,179 -8,3 -59,-180 8,-2 z"
         class="fil1 str3"
         id="89843944"
         inkscape:connector-curvature="0"
         style="fill:#ffffff;stroke:#ffffff;stroke-width:14" />
      <path
         d="m 310,530 72,-24 73,-24 -28,-40 -6,-8 c -35,-10 -72,-16 -111,-16 -38,0 -75,6 -110,16 l -6,8 -28,40 72,24 72,24 z"
         class="fil1 str3"
         id="89843856"
         inkscape:connector-curvature="0"
         style="fill:#ffffff;stroke:#ffffff;stroke-width:14" />
      <path
         d="m 46,722 -1,-76 -1,-76 -45,14 -10,3 c -42,60 -67,133 -69,211 l 6,8 29,39 46,-62 45,-61 z"
         class="fil1 str3"
         id="89843768"
         inkscape:connector-curvature="0"
         style="fill:#ffffff;stroke:#ffffff;stroke-width:14" />
      <path
         d="m 147,1033 -73,-23 -72,-22 -1,48 0,9 c 45,60 107,106 179,131 l 10,-3 45,-16 -44,-62 -44,-62 z"
         class="fil1 str3"
         id="89843680"
         inkscape:connector-curvature="0"
         style="fill:#ffffff;stroke:#ffffff;stroke-width:14" />
      <path
         d="m 474,1033 -44,62 -44,62 45,16 10,3 c 71,-25 133,-71 179,-131 l 0,-9 -1,-48 -73,22 -72,23 z"
         class="fil1 str3"
         id="89843592"
         inkscape:connector-curvature="0"
         style="fill:#ffffff;stroke:#ffffff;stroke-width:14" />
      <path
         d="m 575,722 45,61 45,62 29,-39 6,-8 C 698,720 673,647 632,587 l -10,-3 -46,-14 -1,76 0,76 z"
         class="fil1 str3"
         id="89843504"
         inkscape:connector-curvature="0"
         style="fill:#ffffff;stroke:#ffffff;stroke-width:14" />
    </g>
  </g>
</svg>
