<svg xmlns="http://www.w3.org/2000/svg" width="1000" height="600" xmlns:v="https://vecta.io/nano"><path fill="#ffce00" d="M0 0h1000v600H0z"/><path fill="#d00" d="M0 0h1000v400H0z"/><path d="M0 0h1000v200H0z"/><g transform="matrix(1.133882 0 0 1.133882 306.10613 210.09278)" fill="none" stroke="#fff" stroke-width="9.5"><circle r="49.25" cy="54" cx="54"/><circle r="49.25" cy="54" cx="171"/><circle r="49.25" cy="54" cx="288"/><circle r="49.25" cy="104" cx="112.5"/><circle r="49.25" cy="104" cx="229.5"/><path d="M93.4 24.45a49.25 49.25 0 0 1 0 59.1m117-59.1a49.25 49.25 0 0 1 0 59.1m-39.4 19.7a49.25 49.25 0 0 1-29.55-9.85M288 103.25a49.25 49.25 0 0 1-29.55-9.85"/></g></svg>