<?xml version="1.0" encoding="UTF-8" standalone="no"?>
<!-- Created with Inkscape (http://www.inkscape.org/) -->

<svg
   xmlns:dc="http://purl.org/dc/elements/1.1/"
   xmlns:cc="http://creativecommons.org/ns#"
   xmlns:rdf="http://www.w3.org/1999/02/22-rdf-syntax-ns#"
   xmlns:svg="http://www.w3.org/2000/svg"
   xmlns="http://www.w3.org/2000/svg"
   version="1.1"
   width="900"
   height="600"
   viewBox="-45 -25 90 60"
   id="Olympic_Flag">
  <metadata
     id="metadata49">
    <rdf:RDF>
      <cc:Work
         rdf:about="">
        <dc:format>image/svg+xml</dc:format>
        <dc:type
           rdf:resource="http://purl.org/dc/dcmitype/StillImage" />
        <dc:title></dc:title>
      </cc:Work>
    </rdf:RDF>
  </metadata>
  <defs
     id="defs3">
    <clipPath
       id="clip_white">
      <path
         d="m 0,0 -11,-5.5 v 11 L 0,0 0.2,-11 h 10 z"
         id="path6" />
    </clipPath>
    <clipPath
       id="clip_color">
      <path
         d="M 0,0 -11,-11 V 11 L 0,0 v -11 h 11 z"
         id="path9" />
    </clipPath>
  </defs>
  <g
     id="g4040">
    <rect
       width="90"
       height="60"
       x="-45"
       y="-25"
       id="rect11"
       style="fill:#ffffff" />
    <g
       transform="matrix(0.36923077,0,0,0.36923077,0,-12.01075)"
       id="g13"
       style="fill:none;stroke:#ffffff;stroke-width:2">
      <circle
         cx="-11"
         cy="9"
         r="9"
         id="circle15"
         style="stroke-width:3" />
      <circle
         cx="11"
         cy="9"
         r="9"
         id="circle17"
         style="stroke-width:3" />
      <circle
         cx="-11"
         cy="9"
         r="9"
         id="circle19"
         style="stroke:#f4c300" />
      <circle
         cx="11"
         cy="9"
         r="9"
         id="circle21"
         style="stroke:#009f3d" />
      <circle
         cx="-22"
         cy="0"
         r="9"
         id="circle23"
         style="stroke-width:3" />
      <circle
         cx="0"
         cy="0"
         r="9"
         id="circle25"
         style="stroke-width:3" />
      <circle
         cx="22"
         cy="0"
         r="9"
         id="circle27"
         style="stroke-width:3" />
      <circle
         cx="-22"
         cy="0"
         r="9"
         id="circle29"
         style="stroke:#0085c7" />
      <circle
         cx="0"
         cy="0"
         r="9"
         id="circle31"
         style="stroke:#000000" />
      <circle
         cx="22"
         cy="0"
         r="9"
         id="circle33"
         style="stroke:#df0024" />
      <g
         transform="translate(-11,9)"
         id="g35">
        <circle
           cx="0"
           cy="0"
           r="9"
           clip-path="url(#clip_white)"
           id="circle37"
           style="stroke-width:3" />
        <circle
           cx="0"
           cy="0"
           r="9"
           clip-path="url(#clip_color)"
           id="circle39"
           style="stroke:#f4c300" />
      </g>
      <g
         transform="translate(11,9)"
         id="g41">
        <circle
           cx="0"
           cy="0"
           r="9"
           clip-path="url(#clip_white)"
           id="circle43"
           style="stroke-width:3" />
        <circle
           cx="0"
           cy="0"
           r="9"
           clip-path="url(#clip_color)"
           id="circle45"
           style="stroke:#009f3d" />
      </g>
    </g>
    <path
       d="m -10,1 0,22.710791 c 0,0.754533 0.612375,1.366906 1.366906,1.366906 l 7.2661868,0 c 0.7545324,0 1.3669065,0.612375 1.3669065,1.366907 0,-0.754532 0.6123741,-1.366907 1.3669066,-1.366907 l 7.2661874,0 C 9.3876258,25.077697 10,24.465324 10,23.710791 L 10,1 z"
       id="rect2333"
       style="fill:#df0024;fill-opacity:1;fill-rule:nonzero;stroke:none" />
    <g
       transform="matrix(0.31906553,0,0,0.31906553,-10.355354,-3.911735)"
       id="g3153">
      <g
         id="text3155"
         style="font-size:15.30823803px;font-style:normal;font-variant:normal;font-weight:bold;font-stretch:normal;text-align:start;line-height:125%;writing-mode:lr-tb;text-anchor:start;fill:#000000;font-family:Arial;-inkscape-font-specification:Arial Bold">
        <path
           d="m 1.1137341,12.573382 0,-10.9579474 8.1250267,0 0,1.853732 -5.9125079,0 0,2.4292858 5.501398,0 0,1.8462572 -5.501398,0 0,2.9824154 6.1218003,0 0,1.846257 z"
           id="path3937"
           style="font-size:15.30823803px;font-style:normal;font-variant:normal;font-weight:bold;font-stretch:normal;text-align:start;line-height:125%;writing-mode:lr-tb;text-anchor:start;fill:#000000;font-family:Arial;-inkscape-font-specification:Arial Bold" />
        <path
           d="m 10.778554,9.0079383 2.152721,-0.2092924 c 0.12956,0.7225599 0.39242,1.2532651 0.788584,1.5921171 0.396157,0.338856 0.930599,0.508283 1.603329,0.508281 0.712584,2e-6 1.249518,-0.150739 1.610803,-0.452221 0.361271,-0.301478 0.54191,-0.6540358 0.541918,-1.0576737 -8e-6,-0.2591204 -0.076,-0.4796246 -0.22798,-0.6615132 C 17.095937,8.5457551 16.830584,8.3875402 16.451871,8.252991 16.192741,8.1632987 15.602239,8.003838 14.680361,7.7746085 13.494368,7.4806078 12.662183,7.1193297 12.183803,6.6907733 11.511076,6.0878186 11.174714,5.3528047 11.174715,4.4857293 c -1e-6,-0.5581042 0.158214,-1.0800887 0.474645,-1.565955 0.316428,-0.4858471 0.772386,-0.8558456 1.367875,-1.1099968 0.595483,-0.2541296 1.314302,-0.3811998 2.156458,-0.381211 1.375343,1.12e-5 2.410592,0.3014915 3.105749,0.9044418 0.69514,0.6029708 1.060156,1.4077488 1.095047,2.4143364 L 17.16197,4.8445161 C 17.067283,4.2814284 16.86422,3.8765478 16.55278,3.6298732 16.241327,3.3832164 15.774157,3.2598836 15.151269,3.2598743 c -0.642831,9.3e-6 -1.146128,0.1320626 -1.509895,0.3961604 -0.234211,0.1694359 -0.351315,0.396169 -0.351312,0.6802001 -3e-6,0.2591318 0.109626,0.4808817 0.328888,0.6652505 0.279053,0.2342155 0.956761,0.4783896 2.033126,0.7325232 1.076354,0.2541472 1.872411,0.5170081 2.388174,0.7885835 0.515748,0.2715875 0.919383,0.6428318 1.210906,1.1137341 0.291505,0.4709122 0.437262,1.0526944 0.437271,1.7453484 -9e-6,0.6278795 -0.174419,1.2158905 -0.52323,1.7640355 -0.34883,0.548147 -0.842161,0.955519 -1.479996,1.222117 -0.63785,0.266599 -1.432662,0.399898 -2.384438,0.399898 -1.385319,0 -2.449221,-0.320167 -3.191707,-0.960502 -0.742491,-0.640333 -1.185991,-1.573427 -1.330502,-2.7992847 z"
           id="path3939"
           style="font-size:15.30823803px;font-style:normal;font-variant:normal;font-weight:bold;font-stretch:normal;text-align:start;line-height:125%;writing-mode:lr-tb;text-anchor:start;fill:#000000;font-family:Arial;-inkscape-font-specification:Arial Bold" />
        <path
           d="m 21.564584,12.573382 0,-10.9579474 3.550494,0 c 1.345445,1.1e-5 2.222478,0.054826 2.631104,0.164444 0.627869,0.1644546 1.153591,0.5219953 1.577167,1.0726231 0.423558,0.5506473 0.635342,1.2619913 0.635351,2.1340342 -9e-6,0.6727322 -0.122096,1.2383192 -0.366261,1.6967627 -0.244183,0.4584553 -0.554384,0.8184875 -0.930603,1.0800979 -0.376236,0.2616199 -0.758692,0.4347842 -1.147371,0.5194934 -0.52822,0.1046503 -1.293133,0.1569734 -2.294741,0.1569692 l -1.442622,0 0,4.1335229 z m 2.212518,-9.1042154 0,3.1094858 1.210906,0 c 0.872046,6e-6 1.455074,-0.0573 1.749086,-0.1719186 0.293999,-0.1146062 0.52447,-0.2939995 0.691412,-0.5381803 C 27.595434,5.6243861 27.678902,5.3403468 27.678909,5.0164348 27.678902,4.6177907 27.561798,4.2889031 27.327597,4.029771 27.093382,3.770656 26.796885,3.6087038 26.438105,3.5439139 26.173992,3.4940914 25.643287,3.4691757 24.845988,3.4691666 z"
           id="path3941"
           style="font-size:15.30823803px;font-style:normal;font-variant:normal;font-weight:bold;font-stretch:normal;text-align:start;line-height:125%;writing-mode:lr-tb;text-anchor:start;fill:#000000;font-family:Arial;-inkscape-font-specification:Arial Bold" />
        <path
           d="m 41.671595,12.573382 -2.406862,0 -0.956765,-2.489083 -4.380189,0 -0.904442,2.489083 -2.347064,0 4.268069,-10.9579474 2.339589,0 z M 37.597869,8.2380415 36.087975,4.1717908 34.607979,8.2380415 z"
           id="path3943"
           style="font-size:15.30823803px;font-style:normal;font-variant:normal;font-weight:bold;font-stretch:normal;text-align:start;line-height:125%;writing-mode:lr-tb;text-anchor:start;fill:#000000;font-family:Arial;-inkscape-font-specification:Arial Bold" />
        <path
           d="m 42.875027,12.573382 0,-10.9579474 2.152721,0 4.484835,7.3177564 0,-7.3177564 2.05555,0 0,10.9579474 -2.219994,0 -4.417562,-7.1458373 0,7.1458373 z m 2.750699,-11.57834958 -0.956765,0 c -0.005,-0.11460076 -0.0075,-0.20429738 -0.0075,-0.26909012 -2e-6,-0.52321842 0.127068,-0.92560741 0.381211,-1.20716818 0.254138,-0.28153466 0.580534,-0.42230852 0.979189,-0.422322 0.174406,1.348e-5 0.336359,0.0187003 0.485858,0.0560604 0.149489,0.037387 0.422316,0.14452464 0.818482,0.3214132 0.396155,0.17691476 0.706355,0.2653656 0.930603,0.26535276 0.159455,1.284e-5 0.292754,-0.0498186 0.399898,-0.14949451 0.107131,-0.0996499 0.175649,-0.2665853 0.205555,-0.50080662 l 0.971715,0 C 49.828972,-0.23828453 49.703156,0.242589 49.456498,0.5315994 49.209824,0.82063387 48.892149,0.96514509 48.50347,0.96513348 48.334037,0.96514509 48.167101,0.94770408 48.002664,0.91281038 47.88807,0.88292323 47.601539,0.78076875 47.143095,0.60634669 46.684641,0.43194857 46.35077,0.34474352 46.141482,0.3447313 c -0.159465,1.222e-5 -0.284044,0.0485979 -0.373736,0.14575714 -0.0897,0.0971834 -0.137041,0.26536458 -0.14202,0.50454398 z"
           id="path3945"
           style="font-size:15.30823803px;font-style:normal;font-variant:normal;font-weight:bold;font-stretch:normal;text-align:start;line-height:125%;writing-mode:lr-tb;text-anchor:start;fill:#000000;font-family:Arial;-inkscape-font-specification:Arial Bold" />
        <path
           d="m 63.796782,12.573382 -2.406862,0 -0.956765,-2.489083 -4.380189,0 -0.904442,2.489083 -2.347064,0 4.268069,-10.9579474 2.339589,0 z M 59.723056,8.2380415 58.213162,4.1717908 56.733166,8.2380415 z"
           id="path3947"
           style="font-size:15.30823803px;font-style:normal;font-variant:normal;font-weight:bold;font-stretch:normal;text-align:start;line-height:125%;writing-mode:lr-tb;text-anchor:start;fill:#000000;font-family:Arial;-inkscape-font-specification:Arial Bold" />
      </g>
      <g
         id="text3157"
         style="font-size:13.80000019px;font-style:normal;font-weight:normal;text-align:start;text-anchor:start;fill:#000000;font-family:Calibri" />
    </g>
    <rect
       width="20"
       height="12"
       x="-10"
       y="7"
       id="rect3166"
       style="fill:#f4c300;fill-opacity:1;stroke:none" />
  </g>
</svg>
