<svg height="320.826569" viewBox="0 0 207.86 214.01" width="311.694883" xmlns="http://www.w3.org/2000/svg"><path d="m37.79 139.82a13.57 13.57 0 0 1 0-27.14 13.63 13.63 0 0 1 11.69 6.66l.1.16-3.73 2.31-.09-.18a8.83 8.83 0 0 0 -8-4.82 9.41 9.41 0 0 0 0 18.81 8.87 8.87 0 0 0 8.24-5.24l.09-.18 3.84 2-.08.16a13.39 13.39 0 0 1 -12.06 7.46z" fill="#212225"/><path d="m60.63 139.82a9.47 9.47 0 1 1 9.47-9.47 9.48 9.48 0 0 1 -9.47 9.47zm0-15a5.52 5.52 0 0 0 0 11 5.52 5.52 0 0 0 0-11z" fill="#212225"/><path d="m84.92 139.47v-10.29c0-3-1.46-4.59-4.12-4.59s-4.34 2-4.34 4.87v10h-4.21v-18.22h4.17v2a6.87 6.87 0 0 1 5.3-2.32c4.59 0 7.44 3.06 7.44 8v10.62z" fill="#212225"/><path d="m100.78 139.82a9.47 9.47 0 1 1 0-18.94 9.18 9.18 0 0 1 8.64 5.58l.07.18-3.78 1.61-.07-.17a5.12 5.12 0 0 0 -4.86-3.24 5.52 5.52 0 0 0 .07 11 5.17 5.17 0 0 0 4.86-3.38l.07-.18 3.82 1.62-.08.18a9.16 9.16 0 0 1 -8.74 5.74z" fill="#212225"/><path d="m119.9 139.82a9.48 9.48 0 0 1 0-18.94 8 8 0 0 1 5.73 2.36v-2h4.2v18.23h-4.2v-2.13a7.77 7.77 0 0 1 -5.73 2.48zm.54-15.09a5.61 5.61 0 1 0 5.44 5.59 5.46 5.46 0 0 0 -5.44-5.59z" fill="#212225"/><path d="m141.53 139.82a9.47 9.47 0 1 1 0-18.94 9.19 9.19 0 0 1 8.64 5.58l.07.18-3.78 1.61-.07-.17a5.12 5.12 0 0 0 -4.86-3.24 5.52 5.52 0 0 0 .07 11 5.15 5.15 0 0 0 4.85-3.38l.08-.18 3.82 1.62-.08.18a9.17 9.17 0 0 1 -8.74 5.74z" fill="#212225"/><path d="m160.65 139.82a9.48 9.48 0 0 1 0-18.94 8 8 0 0 1 5.73 2.36v-2h4.2v18.23h-4.2v-2.13a7.79 7.79 0 0 1 -5.73 2.48zm.54-15.09a5.61 5.61 0 1 0 5.44 5.59 5.46 5.46 0 0 0 -5.44-5.59z" fill="#212225"/><path d="m175.63 139.47v-14.42h-3v-3.81h3v-.74c0-5.65 1.82-7.47 7.51-7.47h.51v3.97h-.19c-3.33 0-3.59.54-3.59 3.59v.7h3.78v3.81h-3.78v14.42z" fill="#212225"/><g fill="#d8b97d"><path d="m103.68 22.62-2.08-9.26 2.08-9.27a.27.27 0 0 1 .52 0l2.06 9.27-2.06 9.26a.27.27 0 0 1 -.52 0z"/><path d="m99.05 23-3.47-8.84.64-9.48a.27.27 0 0 1 .51-.08l3.45 8.85-.62 9.47a.27.27 0 0 1 -.51.08z"/><path d="m94.53 24.12-4.77-8.21-.82-9.46a.26.26 0 0 1 .49-.16l4.76 8.21.81 9.5a.27.27 0 0 1 -.47.12z"/><path d="m90.23 25.89-6-7.38-2.23-9.23a.26.26 0 0 1 .46-.23l6 7.39 2.27 9.22a.27.27 0 0 1 -.5.23z"/><path d="m86.26 28.3-7-6.39-3.64-8.77a.27.27 0 0 1 .43-.3l7 6.4 3.63 8.76a.27.27 0 0 1 -.42.3z"/><path d="m82.69 31.29-7.91-5.24-4.94-8.12a.27.27 0 0 1 .38-.36l7.91 5.25 4.94 8.11a.27.27 0 0 1 -.38.36z"/><path d="m79.63 34.78-8.62-4-6.12-7.26a.27.27 0 0 1 .32-.42l8.62 4 6.17 7.27a.27.27 0 0 1 -.37.41z"/><path d="m77.14 38.7-9.14-2.6-7.15-6.25a.27.27 0 0 1 .24-.46l9.14 2.61 7.16 6.24a.26.26 0 0 1 -.25.46z"/><path d="m75.27 43-9.42-1.18-8-5.08a.27.27 0 0 1 .18-.49l9.41 1.19 8 5.07a.27.27 0 0 1 -.17.49z"/><path d="m74.08 47.45-9.49.28-8.71-3.8a.27.27 0 0 1 .1-.51l9.49-.26 8.71 3.78a.27.27 0 0 1 -.1.51z"/><path d="m73.58 52.08-9.34 1.71-9.18-2.42a.27.27 0 0 1 0-.52l9.34-1.71 9.18 2.42a.27.27 0 0 1 0 .52z"/><path d="m73.8 56.72-9 3.12-9.44-1a.27.27 0 0 1 -.06-.52l9-3.11 9.44 1a.27.27 0 0 1 .06.51z"/><path d="m74.72 61.28-8.38 4.45-9.49.46a.27.27 0 0 1 -.14-.5l8.39-4.45 9.48-.46a.27.27 0 0 1 .14.5z"/><path d="m76.33 65.64-7.61 5.68-9.3 1.9a.27.27 0 0 1 -.21-.48l7.61-5.67 9.3-1.91a.27.27 0 0 1 .21.48z"/><path d="m78.58 69.7-6.65 6.78-8.93 3.3a.27.27 0 0 1 -.28-.44l6.66-6.77 8.89-3.3a.26.26 0 0 1 .31.43z"/><path d="m81.43 73.38-5.53 7.71-8.3 4.62a.27.27 0 0 1 -.35-.39l5.55-7.7 8.29-4.62a.27.27 0 0 1 .34.38z"/><path d="m84.81 76.57-4.3 8.43-7.51 5.87a.27.27 0 0 1 -.4-.33l4.3-8.46 7.49-5.84a.27.27 0 0 1 .42.33z"/><path d="m88.63 79.21-2.95 9-6.52 6.9a.26.26 0 0 1 -.44-.26l3-9 6.47-6.85a.26.26 0 0 1 .44.21z"/><path d="m92.82 81.24-1.54 9.37-5.39 7.82a.27.27 0 0 1 -.48-.19l1.59-9.37 5.37-7.82a.27.27 0 0 1 .45.19z"/><path d="m97.26 82.61-.09 9.49-4.17 8.55a.27.27 0 0 1 -.51-.12l.15-9.53 4.11-8.55a.27.27 0 0 1 .51.16z"/><path d="m101.86 83.28 1.36 9.4-2.78 9.08a.27.27 0 0 1 -.52 0l-1.34-9.4 2.76-9.08a.27.27 0 0 1 .52 0z"/><path d="m106.51 83.24 2.77 9.08-1.35 9.4a.27.27 0 0 1 -.52 0l-2.77-9.08 1.35-9.4a.27.27 0 0 1 .52 0z"/><path d="m111.1 82.49 4.12 8.51.1 9.5a.27.27 0 0 1 -.51.12l-4.12-8.56-.1-9.49a.27.27 0 0 1 .51-.08z"/><path d="m115.51 81.05 5.39 7.82 1.54 9.37a.27.27 0 0 1 -.48.2l-5.37-7.83-1.59-9.36a.27.27 0 0 1 .51-.2z"/><path d="m119.66 79 6.52 6.9 2.95 9a.26.26 0 0 1 -.44.26l-6.51-6.91-3-9a.26.26 0 0 1 .48-.25z"/><path d="m123.44 76.25 7.5 5.83 4.29 8.47a.27.27 0 0 1 -.4.33l-7.48-5.88-4.35-8.42a.27.27 0 0 1 .44-.33z"/><path d="m126.77 73 8.29 4.61 5.54 7.72a.27.27 0 0 1 -.34.39l-8.26-4.63-5.55-7.7a.27.27 0 0 1 .32-.39z"/><path d="m129.55 69.28 8.91 3.29 6.65 6.78a.27.27 0 0 1 -.28.44l-8.9-3.31-6.66-6.77a.26.26 0 0 1 .28-.43z"/><path d="m131.74 65.18 9.3 1.89 7.61 5.69a.27.27 0 0 1 -.21.47l-9.3-1.91-7.61-5.67a.26.26 0 0 1 .21-.47z"/><path d="m133.27 60.79 9.49.45 8.38 4.46a.26.26 0 0 1 -.13.5l-9.49-.47-8.38-4.44a.26.26 0 0 1 .13-.5z"/><path d="m134.12 56.22 9.44-1 9 3.12a.27.27 0 0 1 -.06.52l-9.44 1-9-3.11a.26.26 0 0 1 .06-.53z"/><path d="m134.26 51.57 9.18-2.43 9.34 1.72a.27.27 0 0 1 0 .52l-9.18 2.41-9.34-1.7a.27.27 0 0 1 0-.52z"/><path d="m133.69 47 8.7-3.8 9.49.27a.27.27 0 0 1 .1.51l-8.71 3.79-9.48-.26a.27.27 0 0 1 -.1-.51z"/><path d="m132.42 42.49 8-5.09 9.42-1.18a.27.27 0 0 1 .18.49l-8 5.07-9.43 1.22a.26.26 0 0 1 -.17-.51z"/><path d="m130.48 38.26 7.15-6.26 9.13-2.6a.26.26 0 0 1 .25.45l-7.16 6.24-9.12 2.62a.27.27 0 0 1 -.25-.45z"/><path d="m127.92 34.38 6.08-7.27 8.63-4a.27.27 0 0 1 .32.42l-6.12 7.25-8.62 4a.27.27 0 0 1 -.29-.4z"/><path d="m124.8 30.93 4.93-8.11 7.92-5.24a.27.27 0 0 1 .38.36l-4.95 8.11-7.9 5.24a.27.27 0 0 1 -.38-.36z"/><path d="m121.19 28 3.64-8.77 7-6.39a.27.27 0 0 1 .43.3l-3.65 8.76-7 6.4a.27.27 0 0 1 -.42-.3z"/><path d="m117.18 25.66 2.25-9.22 6-7.38a.26.26 0 0 1 .46.23l-2.26 9.22-6 7.38a.26.26 0 0 1 -.45-.23z"/><path d="m112.85 24 .82-9.46 4.77-8.21a.27.27 0 0 1 .5.16l-.84 9.46-4.75 8.21a.27.27 0 0 1 -.5-.16z"/><path d="m108.32 22.94-.64-9.47 3.46-8.84a.27.27 0 0 1 .52.08l.62 9.47-3.45 8.82a.26.26 0 0 1 -.51-.06z"/></g><path d="m15.93 173a13.44 13.44 0 0 1 -5.38-1.09 14 14 0 0 1 -4.37-2.95 14 14 0 0 1 -2.94-15.18 13.85 13.85 0 0 1 7.31-7.36 13.82 13.82 0 0 1 10.76 0 14.07 14.07 0 0 1 4.39 3 13.82 13.82 0 0 1 3 4.39 13.63 13.63 0 0 1 1.07 5.38 12.81 12.81 0 0 1 -.85 4.63 14 14 0 0 1 -2.33 4l3.77 4.87h-6.36l-1.21-1.69a13.82 13.82 0 0 1 -3.28 1.48 12.65 12.65 0 0 1 -3.58.52zm0-5.06a8.78 8.78 0 0 0 3.87-.85l-5.9-7.78h6.1l3.4 4.43a9 9 0 0 0 .9-2.14 9.11 9.11 0 0 0 .31-2.44 8.74 8.74 0 0 0 -2.54-6.19 9 9 0 0 0 -2.77-1.88 8.56 8.56 0 0 0 -6.78 0 8.68 8.68 0 0 0 -4.52 4.63 8.8 8.8 0 0 0 0 6.83 8.68 8.68 0 0 0 4.59 4.66 8.27 8.27 0 0 0 3.34.7z" fill="#212225"/><path d="m43.48 173a12 12 0 0 1 -3.87-.61 8.61 8.61 0 0 1 -3.08-1.83 8.17 8.17 0 0 1 -2-3 11.5 11.5 0 0 1 -.72-4.23v-17.66h5.13v17.93a4.69 4.69 0 0 0 .35 1.8 4.5 4.5 0 0 0 1 1.48 4.28 4.28 0 0 0 1.44 1 4.61 4.61 0 0 0 1.79.35 4.73 4.73 0 0 0 1.8-.35 4.51 4.51 0 0 0 2.47-2.46 4.36 4.36 0 0 0 .37-1.8v-17.95h5.13v17.59a11.29 11.29 0 0 1 -.74 4.23 8.18 8.18 0 0 1 -5.11 4.87 12.15 12.15 0 0 1 -3.96.64z" fill="#212225"/><path d="m65 145.67h5.16l9.55 26.93h-5.39l-1.63-4.69h-10.32l-1.63 4.69h-5.35zm-.94 17.33h6.94l-3.47-10z" fill="#212225"/><path d="m83.5 145.67h5.13v22h9.73v4.91h-14.86z" fill="#212225"/><path d="m103.16 145.67h5.12v26.93h-5.12z" fill="#212225"/><path d="m113.26 145.67h15.24v4.91h-10.11v6h10.11v4.9h-10.11v11.12h-5.13z" fill="#212225"/><path d="m133.29 145.67h5.13v26.93h-5.13z" fill="#212225"/><path d="m143.39 145.67h16v4.91h-10.87v6h10.84v4.9h-10.84v6.16h10.84v4.91h-16z" fill="#212225"/><path d="m163.87 145.67h8.63a12.7 12.7 0 0 1 4.31.68 9 9 0 0 1 3.17 1.92 8.32 8.32 0 0 1 2 3 10.63 10.63 0 0 1 .68 3.85 9.29 9.29 0 0 1 -1.15 4.52 7.92 7.92 0 0 1 -3.31 3.3l5.31 9.67h-5.83l-4.17-8.12h-4.51v8.12h-5.12zm5.12 4.8v9.29h3.06a7.5 7.5 0 0 0 2.6-.39 4.31 4.31 0 0 0 1.7-1.05 3.62 3.62 0 0 0 .9-1.55 6.38 6.38 0 0 0 .26-1.88 4.18 4.18 0 0 0 -1.29-3.22 6 6 0 0 0 -4.17-1.2z" fill="#212225"/><path d="m196.36 173a12.85 12.85 0 0 1 -6.2-1.39 15.58 15.58 0 0 1 -4.35-3.45l4.68-3.69a7.47 7.47 0 0 0 2.51 2.68 6.16 6.16 0 0 0 3.32.94 4.54 4.54 0 0 0 1.73-.3 3.75 3.75 0 0 0 1.26-.79 3.26 3.26 0 0 0 .77-1.12 3.5 3.5 0 0 0 .26-1.33 2.18 2.18 0 0 0 -.46-1.4 3.73 3.73 0 0 0 -1.23-1 12.07 12.07 0 0 0 -1.79-.74l-2.09-.66c-.91-.27-1.82-.58-2.73-.94a10.08 10.08 0 0 1 -2.45-1.38 6.27 6.27 0 0 1 -2.45-5.35 7 7 0 0 1 .66-3 7.59 7.59 0 0 1 1.87-2.46 9 9 0 0 1 2.83-1.66 10.23 10.23 0 0 1 3.6-.61 13.32 13.32 0 0 1 3 .3 12.08 12.08 0 0 1 2.4.81 10 10 0 0 1 2 1.23 19.51 19.51 0 0 1 1.71 1.57l-4.24 3.21a5.42 5.42 0 0 0 -4.79-2.54 4 4 0 0 0 -2.75.84 2.76 2.76 0 0 0 -.94 2.14 2.09 2.09 0 0 0 .44 1.33 3.91 3.91 0 0 0 1.2 1 11.1 11.1 0 0 0 1.75.74l2.07.7c.91.29 1.83.63 2.75 1a10.57 10.57 0 0 1 2.5 1.48 7.11 7.11 0 0 1 1.83 2.23 6.88 6.88 0 0 1 .7 3.25 8.23 8.23 0 0 1 -2.43 5.81 9.11 9.11 0 0 1 -2.94 1.88 10.28 10.28 0 0 1 -4 .67z" fill="#212225"/><path d="m172 210.13h-148.89a1.58 1.58 0 0 1 -1.38-2.35l12.76-23.29a1.59 1.59 0 0 1 1.39-.83h148.87a1.59 1.59 0 0 1 1.39 2.35l-12.76 23.29a1.59 1.59 0 0 1 -1.38.83z" fill="#d8b97d"/><path d="m49.14 204.87h-3.09l-2.23-6.3h-1.4v6.3h-2.89v-15.79h4.24c3.39 0 4.72 1.89 4.72 4.4a4.09 4.09 0 0 1 -2.24 4zm-3.52-11.12c0-.93-.34-1.92-1.76-1.92h-1.44v4.06h1.22a1.92 1.92 0 0 0 1.98-2.14z" fill="#212225"/><path d="m60.43 197c0 4.85-.72 8.28-5 8.28s-5.12-3.43-5.12-8.28.79-8.27 5.12-8.27 5 3.41 5 8.27zm-3-.58c0-2.75-.14-4.88-2.15-4.88-2.18 0-2.07 2.49-2.07 5.46s0 5.46 2.21 5.46 2.04-2.46 2.04-6.05z" fill="#212225"/><path d="m68.78 201.37h-4.29l-.84 3.5h-3.11l4.36-15.79h3.54l4.35 15.79h-3.18zm-.68-2.75-1.47-6.07-1.46 6.07z" fill="#212225"/><path d="m84 196.65c0 4-1.24 8.22-6.06 8.22h-3.58v-15.79h4c4.48 0 5.64 3.65 5.64 7.57zm-2.95 0c0-2.5-.07-4.82-2.62-4.82h-1.16v10.28h.73c2.75 0 3-2.77 3-5.46z" fill="#212225"/><path d="m98.9 191.83h-3.84v13h-2.93v-13h-3.86v-2.75h10.63z" fill="#212225"/><path d="m109.74 197c0 4.85-.72 8.28-5 8.28s-5.12-3.43-5.12-8.28.79-8.27 5.12-8.27 5 3.41 5 8.27zm-3-.58c0-2.75-.13-4.88-2.14-4.88-2.19 0-2.08 2.49-2.08 5.46s0 5.46 2.21 5.46 2.03-2.46 2.03-6.05z" fill="#212225"/><path d="m122.54 204.6 1.29 3.06h-3l-.94-2.39h-.12c-4.33 0-5.12-3.43-5.12-8.28s.79-8.27 5.12-8.27 5.06 3.42 5.06 8.27c.04 3.59-.35 6.39-2.29 7.61zm-2.66-2.15c2.21 0 2-2.5 2-6 0-2.75-.14-4.88-2.14-4.88-2.19 0-2.08 2.49-2.08 5.46s.03 5.42 2.22 5.42z" fill="#212225"/><path d="m133.21 201.37h-4.29l-.83 3.5h-3.09l4.36-15.79h3.54l4.35 15.79h-3.25zm-.68-2.75-1.46-6.07-1.47 6.07z" fill="#212225"/><path d="m146.37 191.83h-3.83v13h-2.93v-13h-3.86v-2.75h10.62z" fill="#212225"/><path d="m153.14 201.37h-4.29l-.83 3.5h-3.12l4.36-15.79h3.54l4.35 15.79h-3.15zm-.68-2.75-1.46-6.07-1.47 6.07z" fill="#212225"/><path d="m168.33 204.87h-3.09l-2.23-6.3h-1.4v6.3h-2.89v-15.79h4.28c3.38 0 4.71 1.89 4.71 4.4a4.1 4.1 0 0 1 -2.23 4zm-3.52-11.12c0-.93-.33-1.92-1.75-1.92h-1.45v4.06h1.22a1.92 1.92 0 0 0 1.98-2.14z" fill="#212225"/></svg>